<?xml version="1.0" encoding="utf-8" standalone="no"?>
<!DOCTYPE svg PUBLIC "-//W3C//DTD SVG 1.1//EN"
  "http://www.w3.org/Graphics/SVG/1.1/DTD/svg11.dtd">
<!-- Created with matplotlib (https://matplotlib.org/) -->
<svg height="216pt" version="1.1" viewBox="0 0 720 216" width="720pt" xmlns="http://www.w3.org/2000/svg" xmlns:xlink="http://www.w3.org/1999/xlink">
 <defs>
  <style type="text/css">
*{stroke-linecap:butt;stroke-linejoin:round;}
  </style>
 </defs>
 <g id="figure_1">
  <g id="patch_1">
   <path d="M 0 216 
L 720 216 
L 720 0 
L 0 0 
z
" style="fill:none;"/>
  </g>
  <g id="axes_1">
   <g id="patch_2">
    <path d="M 84.135 165.24 
L 208.678399 165.24 
L 208.678399 49.76 
L 84.135 49.76 
z
" style="fill:none;"/>
   </g>
   <g id="matplotlib.axis_1">
    <g id="xtick_1">
     <g id="line2d_1">
      <defs>
       <path d="M 0 0 
L 0 3.5 
" id="m6336e8282d" style="stroke:#000000;stroke-width:0.8;"/>
      </defs>
      <g>
       <use style="stroke:#000000;stroke-width:0.8;" x="89.796064" xlink:href="#m6336e8282d" y="165.24"/>
      </g>
     </g>
     <g id="text_1">
      <!-- 0 -->
      <defs>
       <path d="M 31.78125 66.40625 
Q 24.171875 66.40625 20.328125 58.90625 
Q 16.5 51.421875 16.5 36.375 
Q 16.5 21.390625 20.328125 13.890625 
Q 24.171875 6.390625 31.78125 6.390625 
Q 39.453125 6.390625 43.28125 13.890625 
Q 47.125 21.390625 47.125 36.375 
Q 47.125 51.421875 43.28125 58.90625 
Q 39.453125 66.40625 31.78125 66.40625 
z
M 31.78125 74.21875 
Q 44.046875 74.21875 50.515625 64.515625 
Q 56.984375 54.828125 56.984375 36.375 
Q 56.984375 17.96875 50.515625 8.265625 
Q 44.046875 -1.421875 31.78125 -1.421875 
Q 19.53125 -1.421875 13.0625 8.265625 
Q 6.59375 17.96875 6.59375 36.375 
Q 6.59375 54.828125 13.0625 64.515625 
Q 19.53125 74.21875 31.78125 74.21875 
z
" id="DejaVuSans-48"/>
      </defs>
      <g transform="translate(82.797314 188.956562)scale(0.22 -0.22)">
       <use xlink:href="#DejaVuSans-48"/>
      </g>
     </g>
    </g>
    <g id="xtick_2">
     <g id="line2d_2">
      <g>
       <use style="stroke:#000000;stroke-width:0.8;" x="203.244232" xlink:href="#m6336e8282d" y="165.24"/>
      </g>
     </g>
     <g id="text_2">
      <!-- 500 -->
      <defs>
       <path d="M 10.796875 72.90625 
L 49.515625 72.90625 
L 49.515625 64.59375 
L 19.828125 64.59375 
L 19.828125 46.734375 
Q 21.96875 47.46875 24.109375 47.828125 
Q 26.265625 48.1875 28.421875 48.1875 
Q 40.625 48.1875 47.75 41.5 
Q 54.890625 34.8125 54.890625 23.390625 
Q 54.890625 11.625 47.5625 5.09375 
Q 40.234375 -1.421875 26.90625 -1.421875 
Q 22.3125 -1.421875 17.546875 -0.640625 
Q 12.796875 0.140625 7.71875 1.703125 
L 7.71875 11.625 
Q 12.109375 9.234375 16.796875 8.0625 
Q 21.484375 6.890625 26.703125 6.890625 
Q 35.15625 6.890625 40.078125 11.328125 
Q 45.015625 15.765625 45.015625 23.390625 
Q 45.015625 31 40.078125 35.4375 
Q 35.15625 39.890625 26.703125 39.890625 
Q 22.75 39.890625 18.8125 39.015625 
Q 14.890625 38.140625 10.796875 36.28125 
z
" id="DejaVuSans-53"/>
      </defs>
      <g transform="translate(182.247982 188.956562)scale(0.22 -0.22)">
       <use xlink:href="#DejaVuSans-53"/>
       <use x="63.623047" xlink:href="#DejaVuSans-48"/>
       <use x="127.246094" xlink:href="#DejaVuSans-48"/>
      </g>
     </g>
    </g>
   </g>
   <g id="matplotlib.axis_2">
    <g id="ytick_1">
     <g id="line2d_3">
      <defs>
       <path d="M 0 0 
L -3.5 0 
" id="m42f2f9f09d" style="stroke:#000000;stroke-width:0.8;"/>
      </defs>
      <g>
       <use style="stroke:#000000;stroke-width:0.8;" x="84.135" xlink:href="#m42f2f9f09d" y="143.332393"/>
      </g>
     </g>
     <g id="text_3">
      <!-- −0.5 -->
      <defs>
       <path d="M 10.59375 35.5 
L 73.1875 35.5 
L 73.1875 27.203125 
L 10.59375 27.203125 
z
" id="DejaVuSans-8722"/>
       <path d="M 10.6875 12.40625 
L 21 12.40625 
L 21 0 
L 10.6875 0 
z
" id="DejaVuSans-46"/>
      </defs>
      <g transform="translate(23.712813 151.690674)scale(0.22 -0.22)">
       <use xlink:href="#DejaVuSans-8722"/>
       <use x="83.789062" xlink:href="#DejaVuSans-48"/>
       <use x="147.412109" xlink:href="#DejaVuSans-46"/>
       <use x="179.199219" xlink:href="#DejaVuSans-53"/>
      </g>
     </g>
    </g>
    <g id="ytick_2">
     <g id="line2d_4">
      <g>
       <use style="stroke:#000000;stroke-width:0.8;" x="84.135" xlink:href="#m42f2f9f09d" y="81.253208"/>
      </g>
     </g>
     <g id="text_4">
      <!-- 0.0 -->
      <g transform="translate(42.148125 89.61149)scale(0.22 -0.22)">
       <use xlink:href="#DejaVuSans-48"/>
       <use x="63.623047" xlink:href="#DejaVuSans-46"/>
       <use x="95.410156" xlink:href="#DejaVuSans-48"/>
      </g>
     </g>
    </g>
   </g>
   <g id="line2d_5">
    <path clip-path="url(#pd499a09ef6)" d="M 89.796064 154.398379 
L 90.02296 154.153738 
L 90.476753 152.939879 
L 90.930545 150.791046 
L 91.611234 145.955971 
L 92.51882 137.021794 
L 93.880198 120.455946 
L 95.695368 98.372991 
L 96.82985 87.216023 
L 97.737435 80.34097 
L 98.418124 76.430818 
L 99.098813 73.58127 
L 99.779502 71.7712 
L 100.233295 71.13046 
L 100.687088 70.936293 
L 101.14088 71.186502 
L 101.594673 71.883279 
L 102.048466 73.031938 
L 102.729155 75.621822 
L 103.409844 79.286613 
L 104.090533 84.062085 
L 104.998118 92.160776 
L 106.1326 104.790734 
L 109.536045 146.072167 
L 110.216734 151.376718 
L 110.670527 153.828725 
L 111.124319 155.325712 
L 111.351216 155.701056 
L 111.578112 155.823156 
L 111.805008 155.690898 
L 112.031905 155.30503 
L 112.485697 153.784691 
L 112.93949 151.304548 
L 113.620179 145.946546 
L 114.527764 136.320116 
L 116.116039 115.869538 
L 117.704313 96.120417 
L 118.838795 84.758488 
L 119.74638 77.757925 
L 120.653965 72.646585 
L 121.334654 70.019708 
L 122.015343 68.387267 
L 122.469136 67.834695 
L 122.922929 67.702265 
L 123.376721 67.986806 
L 123.830514 68.690001 
L 124.284307 69.817714 
L 124.964996 72.328344 
L 125.645685 75.865824 
L 126.326374 80.485138 
L 127.233959 88.38819 
L 128.141545 98.21284 
L 129.502923 115.693577 
L 131.54499 142.101432 
L 132.452575 150.752088 
L 133.133264 155.027542 
L 133.587057 156.656596 
L 133.813953 157.084012 
L 134.040849 157.248387 
L 134.267746 157.148314 
L 134.494642 156.784286 
L 134.948435 155.275893 
L 135.402227 152.764876 
L 136.082916 147.281237 
L 136.990502 137.351463 
L 138.35188 119.250284 
L 140.16705 95.502305 
L 141.301532 83.556473 
L 142.209117 76.098513 
L 143.116703 70.516353 
L 143.797392 67.510307 
L 144.478081 65.459269 
L 144.931873 64.597413 
L 145.385666 64.125544 
L 145.839459 64.035143 
L 146.293252 64.321942 
L 146.747044 64.9868 
L 147.200837 66.035675 
L 147.881526 68.353905 
L 148.562215 71.616295 
L 149.242904 75.893219 
L 150.150489 83.293075 
L 151.058075 92.686995 
L 152.192556 106.910611 
L 155.142209 146.098761 
L 155.822898 152.391378 
L 156.503587 156.638629 
L 156.957379 158.191097 
L 157.184276 158.563696 
L 157.411172 158.662765 
L 157.638068 158.487365 
L 157.864965 158.038523 
L 158.318757 156.334384 
L 158.77255 153.597201 
L 159.453239 147.730657 
L 160.360824 137.247147 
L 161.949099 115.100715 
L 163.537373 93.817176 
L 164.671855 81.513054 
L 165.57944 73.78109 
L 166.487025 67.89941 
L 167.167714 64.628302 
L 167.848404 62.257105 
L 168.529093 60.716872 
L 168.982885 60.12306 
L 169.436678 59.860974 
L 169.890471 59.922934 
L 170.344263 60.305685 
L 170.798056 61.011411 
L 171.478745 62.693135 
L 172.159434 65.164794 
L 172.840123 68.494796 
L 173.520812 72.769721 
L 174.428397 80.098239 
L 175.335983 89.420361 
L 176.470464 103.706668 
L 179.873909 149.673404 
L 180.554598 155.430417 
L 181.008391 158.040329 
L 181.462184 159.57542 
L 181.68908 159.924691 
L 181.915976 159.990909 
L 182.142873 159.773374 
L 182.369769 159.273389 
L 182.823562 157.441309 
L 183.277354 154.54472 
L 183.958043 148.389013 
L 184.865629 137.454682 
L 186.453903 114.488814 
L 188.042177 92.52238 
L 189.176659 79.809085 
L 190.084245 71.752845 
L 190.99183 65.517005 
L 191.899415 60.93432 
L 192.580104 58.453206 
L 193.260793 56.692714 
L 193.941482 55.578867 
L 194.395275 55.167895 
L 194.849068 55.009091 
L 195.30286 55.096137 
L 195.756653 55.426585 
L 196.210446 56.002557 
L 196.891135 57.343143 
L 197.571824 59.2936 
L 198.252513 61.91597 
L 198.933202 65.293174 
L 199.840787 71.147719 
L 200.748372 78.78865 
L 201.655958 88.413347 
L 202.790439 103.117321 
L 203.017336 106.349685 
L 203.017336 106.349685 
" style="fill:none;stroke:#1f77b4;stroke-linecap:square;stroke-width:1.5;"/>
   </g>
   <g id="line2d_6">
    <path clip-path="url(#pd499a09ef6)" d="M 89.796064 154.398379 
L 90.02296 154.151513 
L 90.476753 152.926264 
L 90.930545 150.758779 
L 91.611234 145.888925 
L 92.51882 136.91308 
L 93.880198 120.344324 
L 95.695368 98.439575 
L 96.82985 87.513161 
L 97.737435 80.905428 
L 98.418124 77.249394 
L 99.098813 74.697086 
L 99.552606 73.598337 
L 100.006399 72.975175 
L 100.460191 72.82406 
L 100.913984 73.144185 
L 101.367777 73.938134 
L 101.821569 75.211127 
L 102.502258 78.034118 
L 103.182947 81.973757 
L 104.090533 88.97536 
L 104.998118 97.887592 
L 106.359496 114.071201 
L 108.62846 141.647492 
L 109.536045 149.564358 
L 110.216734 153.361441 
L 110.670527 154.717504 
L 110.897423 155.024624 
L 111.124319 155.080555 
L 111.351216 154.884662 
L 111.578112 154.438331 
L 112.031905 152.809301 
L 112.485697 150.241503 
L 113.166386 144.803734 
L 114.073972 135.189494 
L 115.889142 112.204681 
L 117.25052 96.079802 
L 118.385002 85.367827 
L 119.292587 78.974648 
L 119.973276 75.477102 
L 120.653965 73.069522 
L 121.107758 72.056771 
L 121.561551 71.510292 
L 122.015343 71.426398 
L 122.469136 71.80465 
L 122.922929 72.648389 
L 123.376721 73.963883 
L 124.05741 76.840074 
L 124.738099 80.825747 
L 125.645685 87.89105 
L 126.55327 96.889796 
L 127.687752 110.387171 
L 130.410508 143.860287 
L 131.091197 149.770983 
L 131.771886 153.793003 
L 132.225679 155.284338 
L 132.452575 155.653184 
L 132.679471 155.766297 
L 132.906368 155.622619 
L 133.133264 155.223099 
L 133.587057 153.670089 
L 134.040849 151.152898 
L 134.721538 145.739868 
L 135.629124 136.061479 
L 137.217398 115.645991 
L 138.805672 96.131459 
L 139.940154 85.060052 
L 140.847739 78.382297 
L 141.528428 74.6688 
L 142.209117 72.037094 
L 142.66291 70.867249 
L 143.116703 70.155321 
L 143.570495 69.895868 
L 144.024288 70.086853 
L 144.478081 70.730318 
L 144.931873 71.832044 
L 145.612562 74.363343 
L 146.293252 77.981015 
L 146.973941 82.716484 
L 147.881526 90.776688 
L 149.016008 103.434738 
L 151.058075 130.106228 
L 152.192556 143.493206 
L 152.873245 149.724952 
L 153.553934 154.072002 
L 154.007727 155.771565 
L 154.234623 156.239692 
L 154.46152 156.447895 
L 154.688416 156.394426 
L 154.915312 156.079486 
L 155.369105 154.676266 
L 155.822898 152.279276 
L 156.503587 146.982925 
L 157.411172 137.330054 
L 158.77255 119.679727 
L 160.587721 96.551547 
L 161.722202 85.033367 
L 162.629788 77.996267 
L 163.310477 74.01111 
L 163.991166 71.10023 
L 164.671855 69.223707 
L 165.125647 68.530501 
L 165.57944 68.275961 
L 166.033233 68.457799 
L 166.487025 69.078168 
L 166.940818 70.143359 
L 167.621507 72.596914 
L 168.302196 76.114628 
L 168.982885 80.737437 
L 169.890471 88.653231 
L 171.024952 101.211478 
L 172.613227 122.150799 
L 174.201501 142.304221 
L 175.109086 150.88962 
L 175.789775 155.09045 
L 176.243568 156.654184 
L 176.470464 157.044385 
L 176.697361 157.168747 
L 176.924257 157.026129 
L 177.151153 156.617452 
L 177.604946 155.015711 
L 178.058739 152.41026 
L 178.739428 146.795926 
L 179.647013 136.742129 
L 181.235287 115.513203 
L 182.823562 95.203378 
L 183.958043 83.628753 
L 184.865629 76.564266 
L 185.773214 71.448136 
L 186.453903 68.829918 
L 187.134592 67.205147 
L 187.588385 66.656369 
L 188.042177 66.528064 
L 188.49597 66.818987 
L 188.949763 67.532766 
L 189.403556 68.677273 
L 190.084245 71.227449 
L 190.764934 74.821432 
L 191.445623 79.508644 
L 192.353208 87.509079 
L 193.260793 97.450007 
L 194.622171 115.195149 
L 196.664238 142.177128 
L 197.571824 151.100173 
L 198.252513 155.540864 
L 198.706305 157.249332 
L 198.933202 157.705772 
L 199.160098 157.891649 
L 199.386994 157.805379 
L 199.613891 157.447417 
L 200.067683 155.928712 
L 200.521476 153.379623 
L 201.202165 147.795723 
L 202.10975 137.678638 
L 203.017336 125.61623 
L 203.017336 125.61623 
" style="fill:none;stroke:#ff7f0e;stroke-linecap:square;stroke-width:1.5;"/>
   </g>
   <g id="patch_3">
    <path d="M 84.135 165.24 
L 84.135 49.76 
" style="fill:none;stroke:#000000;stroke-linecap:square;stroke-linejoin:miter;stroke-width:0.8;"/>
   </g>
   <g id="patch_4">
    <path d="M 208.678399 165.24 
L 208.678399 49.76 
" style="fill:none;stroke:#000000;stroke-linecap:square;stroke-linejoin:miter;stroke-width:0.8;"/>
   </g>
   <g id="patch_5">
    <path d="M 84.135 165.24 
L 208.678399 165.24 
" style="fill:none;stroke:#000000;stroke-linecap:square;stroke-linejoin:miter;stroke-width:0.8;"/>
   </g>
   <g id="patch_6">
    <path d="M 84.135 49.76 
L 208.678399 49.76 
" style="fill:none;stroke:#000000;stroke-linecap:square;stroke-linejoin:miter;stroke-width:0.8;"/>
   </g>
   <g id="text_5">
    <!-- Position -->
    <defs>
     <path d="M 19.671875 64.796875 
L 19.671875 37.40625 
L 32.078125 37.40625 
Q 38.96875 37.40625 42.71875 40.96875 
Q 46.484375 44.53125 46.484375 51.125 
Q 46.484375 57.671875 42.71875 61.234375 
Q 38.96875 64.796875 32.078125 64.796875 
z
M 9.8125 72.90625 
L 32.078125 72.90625 
Q 44.34375 72.90625 50.609375 67.359375 
Q 56.890625 61.8125 56.890625 51.125 
Q 56.890625 40.328125 50.609375 34.8125 
Q 44.34375 29.296875 32.078125 29.296875 
L 19.671875 29.296875 
L 19.671875 0 
L 9.8125 0 
z
" id="DejaVuSans-80"/>
     <path d="M 30.609375 48.390625 
Q 23.390625 48.390625 19.1875 42.75 
Q 14.984375 37.109375 14.984375 27.296875 
Q 14.984375 17.484375 19.15625 11.84375 
Q 23.34375 6.203125 30.609375 6.203125 
Q 37.796875 6.203125 41.984375 11.859375 
Q 46.1875 17.53125 46.1875 27.296875 
Q 46.1875 37.015625 41.984375 42.703125 
Q 37.796875 48.390625 30.609375 48.390625 
z
M 30.609375 56 
Q 42.328125 56 49.015625 48.375 
Q 55.71875 40.765625 55.71875 27.296875 
Q 55.71875 13.875 49.015625 6.21875 
Q 42.328125 -1.421875 30.609375 -1.421875 
Q 18.84375 -1.421875 12.171875 6.21875 
Q 5.515625 13.875 5.515625 27.296875 
Q 5.515625 40.765625 12.171875 48.375 
Q 18.84375 56 30.609375 56 
z
" id="DejaVuSans-111"/>
     <path d="M 44.28125 53.078125 
L 44.28125 44.578125 
Q 40.484375 46.53125 36.375 47.5 
Q 32.28125 48.484375 27.875 48.484375 
Q 21.1875 48.484375 17.84375 46.4375 
Q 14.5 44.390625 14.5 40.28125 
Q 14.5 37.15625 16.890625 35.375 
Q 19.28125 33.59375 26.515625 31.984375 
L 29.59375 31.296875 
Q 39.15625 29.25 43.1875 25.515625 
Q 47.21875 21.78125 47.21875 15.09375 
Q 47.21875 7.46875 41.1875 3.015625 
Q 35.15625 -1.421875 24.609375 -1.421875 
Q 20.21875 -1.421875 15.453125 -0.5625 
Q 10.6875 0.296875 5.421875 2 
L 5.421875 11.28125 
Q 10.40625 8.6875 15.234375 7.390625 
Q 20.0625 6.109375 24.8125 6.109375 
Q 31.15625 6.109375 34.5625 8.28125 
Q 37.984375 10.453125 37.984375 14.40625 
Q 37.984375 18.0625 35.515625 20.015625 
Q 33.0625 21.96875 24.703125 23.78125 
L 21.578125 24.515625 
Q 13.234375 26.265625 9.515625 29.90625 
Q 5.8125 33.546875 5.8125 39.890625 
Q 5.8125 47.609375 11.28125 51.796875 
Q 16.75 56 26.8125 56 
Q 31.78125 56 36.171875 55.265625 
Q 40.578125 54.546875 44.28125 53.078125 
z
" id="DejaVuSans-115"/>
     <path d="M 9.421875 54.6875 
L 18.40625 54.6875 
L 18.40625 0 
L 9.421875 0 
z
M 9.421875 75.984375 
L 18.40625 75.984375 
L 18.40625 64.59375 
L 9.421875 64.59375 
z
" id="DejaVuSans-105"/>
     <path d="M 18.3125 70.21875 
L 18.3125 54.6875 
L 36.8125 54.6875 
L 36.8125 47.703125 
L 18.3125 47.703125 
L 18.3125 18.015625 
Q 18.3125 11.328125 20.140625 9.421875 
Q 21.96875 7.515625 27.59375 7.515625 
L 36.8125 7.515625 
L 36.8125 0 
L 27.59375 0 
Q 17.1875 0 13.234375 3.875 
Q 9.28125 7.765625 9.28125 18.015625 
L 9.28125 47.703125 
L 2.6875 47.703125 
L 2.6875 54.6875 
L 9.28125 54.6875 
L 9.28125 70.21875 
z
" id="DejaVuSans-116"/>
     <path d="M 54.890625 33.015625 
L 54.890625 0 
L 45.90625 0 
L 45.90625 32.71875 
Q 45.90625 40.484375 42.875 44.328125 
Q 39.84375 48.1875 33.796875 48.1875 
Q 26.515625 48.1875 22.3125 43.546875 
Q 18.109375 38.921875 18.109375 30.90625 
L 18.109375 0 
L 9.078125 0 
L 9.078125 54.6875 
L 18.109375 54.6875 
L 18.109375 46.1875 
Q 21.34375 51.125 25.703125 53.5625 
Q 30.078125 56 35.796875 56 
Q 45.21875 56 50.046875 50.171875 
Q 54.890625 44.34375 54.890625 33.015625 
z
" id="DejaVuSans-110"/>
    </defs>
    <g transform="translate(94.549262 43.76)scale(0.264 -0.264)">
     <use xlink:href="#DejaVuSans-80"/>
     <use x="60.255859" xlink:href="#DejaVuSans-111"/>
     <use x="121.4375" xlink:href="#DejaVuSans-115"/>
     <use x="173.537109" xlink:href="#DejaVuSans-105"/>
     <use x="201.320312" xlink:href="#DejaVuSans-116"/>
     <use x="240.529297" xlink:href="#DejaVuSans-105"/>
     <use x="268.3125" xlink:href="#DejaVuSans-111"/>
     <use x="329.494141" xlink:href="#DejaVuSans-110"/>
    </g>
   </g>
  </g>
  <g id="axes_2">
   <g id="patch_7">
    <path d="M 320.965 165.24 
L 445.508399 165.24 
L 445.508399 49.76 
L 320.965 49.76 
z
" style="fill:none;"/>
   </g>
   <g id="matplotlib.axis_3">
    <g id="xtick_3">
     <g id="line2d_7">
      <g>
       <use style="stroke:#000000;stroke-width:0.8;" x="326.626064" xlink:href="#m6336e8282d" y="165.24"/>
      </g>
     </g>
     <g id="text_6">
      <!-- 0 -->
      <g transform="translate(319.627314 188.956562)scale(0.22 -0.22)">
       <use xlink:href="#DejaVuSans-48"/>
      </g>
     </g>
    </g>
    <g id="xtick_4">
     <g id="line2d_8">
      <g>
       <use style="stroke:#000000;stroke-width:0.8;" x="440.074232" xlink:href="#m6336e8282d" y="165.24"/>
      </g>
     </g>
     <g id="text_7">
      <!-- 500 -->
      <g transform="translate(419.077982 188.956562)scale(0.22 -0.22)">
       <use xlink:href="#DejaVuSans-53"/>
       <use x="63.623047" xlink:href="#DejaVuSans-48"/>
       <use x="127.246094" xlink:href="#DejaVuSans-48"/>
      </g>
     </g>
    </g>
   </g>
   <g id="matplotlib.axis_4">
    <g id="ytick_3">
     <g id="line2d_9">
      <g>
       <use style="stroke:#000000;stroke-width:0.8;" x="320.965" xlink:href="#m42f2f9f09d" y="156.543424"/>
      </g>
     </g>
     <g id="text_8">
      <!-- −0.025 -->
      <defs>
       <path d="M 19.1875 8.296875 
L 53.609375 8.296875 
L 53.609375 0 
L 7.328125 0 
L 7.328125 8.296875 
Q 12.9375 14.109375 22.625 23.890625 
Q 32.328125 33.6875 34.8125 36.53125 
Q 39.546875 41.84375 41.421875 45.53125 
Q 43.3125 49.21875 43.3125 52.78125 
Q 43.3125 58.59375 39.234375 62.25 
Q 35.15625 65.921875 28.609375 65.921875 
Q 23.96875 65.921875 18.8125 64.3125 
Q 13.671875 62.703125 7.8125 59.421875 
L 7.8125 69.390625 
Q 13.765625 71.78125 18.9375 73 
Q 24.125 74.21875 28.421875 74.21875 
Q 39.75 74.21875 46.484375 68.546875 
Q 53.21875 62.890625 53.21875 53.421875 
Q 53.21875 48.921875 51.53125 44.890625 
Q 49.859375 40.875 45.40625 35.40625 
Q 44.1875 33.984375 37.640625 27.21875 
Q 31.109375 20.453125 19.1875 8.296875 
z
" id="DejaVuSans-50"/>
      </defs>
      <g transform="translate(232.547812 164.901705)scale(0.22 -0.22)">
       <use xlink:href="#DejaVuSans-8722"/>
       <use x="83.789062" xlink:href="#DejaVuSans-48"/>
       <use x="147.412109" xlink:href="#DejaVuSans-46"/>
       <use x="179.199219" xlink:href="#DejaVuSans-48"/>
       <use x="242.822266" xlink:href="#DejaVuSans-50"/>
       <use x="306.445312" xlink:href="#DejaVuSans-53"/>
      </g>
     </g>
    </g>
    <g id="ytick_4">
     <g id="line2d_10">
      <g>
       <use style="stroke:#000000;stroke-width:0.8;" x="320.965" xlink:href="#m42f2f9f09d" y="107.81841"/>
      </g>
     </g>
     <g id="text_9">
      <!-- 0.000 -->
      <g transform="translate(250.983125 116.176691)scale(0.22 -0.22)">
       <use xlink:href="#DejaVuSans-48"/>
       <use x="63.623047" xlink:href="#DejaVuSans-46"/>
       <use x="95.410156" xlink:href="#DejaVuSans-48"/>
       <use x="159.033203" xlink:href="#DejaVuSans-48"/>
       <use x="222.65625" xlink:href="#DejaVuSans-48"/>
      </g>
     </g>
    </g>
    <g id="ytick_5">
     <g id="line2d_11">
      <g>
       <use style="stroke:#000000;stroke-width:0.8;" x="320.965" xlink:href="#m42f2f9f09d" y="59.093396"/>
      </g>
     </g>
     <g id="text_10">
      <!-- 0.025 -->
      <g transform="translate(250.983125 67.451677)scale(0.22 -0.22)">
       <use xlink:href="#DejaVuSans-48"/>
       <use x="63.623047" xlink:href="#DejaVuSans-46"/>
       <use x="95.410156" xlink:href="#DejaVuSans-48"/>
       <use x="159.033203" xlink:href="#DejaVuSans-50"/>
       <use x="222.65625" xlink:href="#DejaVuSans-53"/>
      </g>
     </g>
    </g>
   </g>
   <g id="line2d_12">
    <path clip-path="url(#p57f42caf86)" d="M 326.626064 107.81841 
L 328.214338 82.438656 
L 329.121923 71.438387 
L 329.802612 65.89844 
L 330.256405 63.659589 
L 330.710198 62.592128 
L 330.937094 62.480755 
L 331.16399 62.635057 
L 331.390887 63.039488 
L 331.844679 64.52556 
L 332.525368 68.138884 
L 333.432954 74.660182 
L 340.920533 135.200753 
L 342.508807 147.765272 
L 343.189496 151.76841 
L 343.643289 153.559696 
L 344.097082 154.443042 
L 344.323978 154.4951 
L 344.550874 154.265782 
L 344.777771 153.742697 
L 345.231563 151.78404 
L 345.685356 148.597234 
L 346.366045 141.627703 
L 347.27363 128.928404 
L 348.861905 101.744731 
L 350.223283 79.687853 
L 351.130868 68.731039 
L 351.811557 63.426289 
L 352.26535 61.421503 
L 352.492246 60.877565 
L 352.719142 60.6292 
L 352.946039 60.664162 
L 353.172935 60.966937 
L 353.626728 62.300728 
L 354.08052 64.462213 
L 354.761209 68.85562 
L 356.122587 79.739654 
L 358.391551 97.981713 
L 363.156374 134.443975 
L 364.971545 149.179695 
L 365.652234 153.3732 
L 366.106026 155.29397 
L 366.559819 156.291974 
L 366.786715 156.391098 
L 367.013612 156.199636 
L 367.240508 155.703615 
L 367.694301 153.76158 
L 368.148093 150.535751 
L 368.828782 143.399634 
L 369.736368 130.297745 
L 371.097746 106.23575 
L 372.68602 79.016237 
L 373.593605 67.4576 
L 374.274294 61.804244 
L 374.728087 59.633164 
L 375.18188 58.731295 
L 375.408776 58.732044 
L 375.635672 59.013264 
L 376.089465 60.336998 
L 376.543258 62.522238 
L 377.223947 66.984228 
L 378.585325 77.964839 
L 380.627392 94.132698 
L 382.442562 106.550035 
L 384.711526 122.001155 
L 386.2998 134.509245 
L 388.568764 152.779517 
L 389.249453 156.476807 
L 389.703245 157.89176 
L 389.930142 158.209972 
L 390.157038 158.23995 
L 390.383934 157.96388 
L 390.610831 157.367695 
L 391.064623 155.180363 
L 391.518416 151.655996 
L 392.199105 143.999951 
L 393.10669 130.148534 
L 394.694965 100.738533 
L 396.056343 76.997213 
L 396.963928 65.261578 
L 397.644617 59.642435 
L 398.09841 57.566734 
L 398.325306 57.026446 
L 398.552202 56.805181 
L 398.779099 56.888016 
L 399.005995 57.256306 
L 399.459788 58.75992 
L 400.140477 62.55093 
L 401.048062 69.375793 
L 403.770818 90.957272 
L 405.132196 99.719177 
L 409.443227 125.651436 
L 410.804605 136.19683 
L 413.073568 154.561385 
L 413.754257 158.29465 
L 414.20805 159.695647 
L 414.434946 159.990909 
L 414.661842 159.985725 
L 414.888739 159.661475 
L 415.115635 159.003627 
L 415.569428 156.652501 
L 416.02322 152.913912 
L 416.703909 144.861125 
L 417.611495 130.400435 
L 419.199769 99.927089 
L 420.561147 75.469298 
L 421.468732 63.454024 
L 422.149421 57.763798 
L 422.603214 55.706926 
L 422.83011 55.193554 
L 423.057007 55.009091 
L 423.283903 55.136961 
L 423.510799 55.556682 
L 423.964592 57.17451 
L 424.645281 61.135867 
L 425.779763 69.99906 
L 427.594934 84.51273 
L 428.729415 92.007746 
L 429.863897 98.189659 
L 431.452171 105.421936 
L 433.721135 115.481768 
L 434.855616 121.525118 
L 435.990098 128.799572 
L 437.351476 139.316619 
L 439.393543 155.917235 
L 439.847336 158.669094 
L 439.847336 158.669094 
" style="fill:none;stroke:#1f77b4;stroke-linecap:square;stroke-width:1.5;"/>
   </g>
   <g id="line2d_13">
    <path clip-path="url(#p57f42caf86)" d="M 326.626064 107.81841 
L 328.214338 82.272813 
L 329.121923 71.267689 
L 329.802612 65.780641 
L 330.256405 63.602775 
L 330.710198 62.613105 
L 330.937094 62.545428 
L 331.16399 62.745709 
L 331.617783 63.882886 
L 332.071576 65.870943 
L 332.752265 70.073562 
L 333.886746 78.98988 
L 341.828118 145.415232 
L 342.508807 149.812419 
L 342.9626 151.953594 
L 343.416393 153.256676 
L 343.643289 153.542307 
L 343.870185 153.560029 
L 344.097082 153.29513 
L 344.323978 152.736133 
L 344.777771 150.708462 
L 345.231563 147.462463 
L 345.912252 140.435526 
L 346.819838 127.737305 
L 348.408112 100.812043 
L 349.76949 79.293661 
L 350.450179 71.058401 
L 351.130868 65.267845 
L 351.584661 62.913871 
L 352.038453 61.777154 
L 352.26535 61.648159 
L 352.492246 61.795538 
L 352.719142 62.202979 
L 353.172935 63.721035 
L 353.853624 67.431219 
L 354.761209 74.132141 
L 361.794996 132.601932 
L 363.610167 147.447875 
L 364.290856 151.578515 
L 364.744648 153.448185 
L 365.198441 154.400383 
L 365.425337 154.482077 
L 365.652234 154.278625 
L 365.87913 153.777293 
L 366.332923 151.848889 
L 366.786715 148.674034 
L 367.467404 141.689116 
L 368.37499 128.917179 
L 369.963264 101.546866 
L 371.324642 79.423508 
L 372.232227 68.530215 
L 372.912916 63.333856 
L 373.366709 61.425335 
L 373.593605 60.934829 
L 373.820502 60.74238 
L 374.047398 60.834904 
L 374.274294 61.19606 
L 374.728087 62.646056 
L 375.18188 64.919206 
L 375.862569 69.467356 
L 377.223947 80.636929 
L 379.946703 103.122628 
L 383.123252 128.677559 
L 385.619111 149.255668 
L 386.2998 153.14482 
L 386.753593 154.769826 
L 386.980489 155.222557 
L 387.207386 155.407781 
L 387.434282 155.307801 
L 387.661178 154.908091 
L 388.114971 153.170217 
L 388.568764 150.157842 
L 389.249453 143.340922 
L 390.157038 130.622117 
L 391.518416 106.979068 
L 393.10669 80.035715 
L 394.014276 68.555642 
L 394.694965 62.924885 
L 395.148757 60.754656 
L 395.60255 59.845682 
L 395.829446 59.84103 
L 396.056343 60.116283 
L 396.510135 61.428568 
L 396.963928 63.607058 
L 397.644617 68.079837 
L 399.005995 79.22715 
L 401.501855 99.767505 
L 405.585989 132.002669 
L 407.628056 149.022364 
L 408.308745 153.293377 
L 408.762538 155.245862 
L 409.21633 156.255989 
L 409.443227 156.35312 
L 409.670123 156.154138 
L 409.897019 155.645124 
L 410.350812 153.661615 
L 410.804605 150.376379 
L 411.485294 143.127023 
L 412.392879 129.854932 
L 413.981153 101.403124 
L 415.342531 78.367688 
L 416.250117 66.999542 
L 416.930806 61.57014 
L 417.384598 59.574669 
L 417.611495 59.061015 
L 417.838391 58.858104 
L 418.065287 58.951814 
L 418.292184 59.3245 
L 418.745976 60.822376 
L 419.426665 64.59064 
L 420.334251 71.427822 
L 424.191488 102.682129 
L 427.368037 126.614194 
L 430.771482 153.933499 
L 431.225275 156.014798 
L 431.679068 157.161022 
L 431.905964 157.325667 
L 432.13286 157.191961 
L 432.359757 156.744572 
L 432.813549 154.868017 
L 433.267342 151.660404 
L 433.948031 144.458951 
L 434.855616 131.113049 
L 436.216994 106.464176 
L 437.805269 78.527504 
L 438.712854 66.692299 
L 439.393543 60.941257 
L 439.847336 58.763425 
L 439.847336 58.763425 
" style="fill:none;stroke:#ff7f0e;stroke-linecap:square;stroke-width:1.5;"/>
   </g>
   <g id="patch_8">
    <path d="M 320.965 165.24 
L 320.965 49.76 
" style="fill:none;stroke:#000000;stroke-linecap:square;stroke-linejoin:miter;stroke-width:0.8;"/>
   </g>
   <g id="patch_9">
    <path d="M 445.508399 165.24 
L 445.508399 49.76 
" style="fill:none;stroke:#000000;stroke-linecap:square;stroke-linejoin:miter;stroke-width:0.8;"/>
   </g>
   <g id="patch_10">
    <path d="M 320.965 165.24 
L 445.508399 165.24 
" style="fill:none;stroke:#000000;stroke-linecap:square;stroke-linejoin:miter;stroke-width:0.8;"/>
   </g>
   <g id="patch_11">
    <path d="M 320.965 49.76 
L 445.508399 49.76 
" style="fill:none;stroke:#000000;stroke-linecap:square;stroke-linejoin:miter;stroke-width:0.8;"/>
   </g>
   <g id="text_11">
    <!-- Velocity -->
    <defs>
     <path d="M 28.609375 0 
L 0.78125 72.90625 
L 11.078125 72.90625 
L 34.1875 11.53125 
L 57.328125 72.90625 
L 67.578125 72.90625 
L 39.796875 0 
z
" id="DejaVuSans-86"/>
     <path d="M 56.203125 29.59375 
L 56.203125 25.203125 
L 14.890625 25.203125 
Q 15.484375 15.921875 20.484375 11.0625 
Q 25.484375 6.203125 34.421875 6.203125 
Q 39.59375 6.203125 44.453125 7.46875 
Q 49.3125 8.734375 54.109375 11.28125 
L 54.109375 2.78125 
Q 49.265625 0.734375 44.1875 -0.34375 
Q 39.109375 -1.421875 33.890625 -1.421875 
Q 20.796875 -1.421875 13.15625 6.1875 
Q 5.515625 13.8125 5.515625 26.8125 
Q 5.515625 40.234375 12.765625 48.109375 
Q 20.015625 56 32.328125 56 
Q 43.359375 56 49.78125 48.890625 
Q 56.203125 41.796875 56.203125 29.59375 
z
M 47.21875 32.234375 
Q 47.125 39.59375 43.09375 43.984375 
Q 39.0625 48.390625 32.421875 48.390625 
Q 24.90625 48.390625 20.390625 44.140625 
Q 15.875 39.890625 15.1875 32.171875 
z
" id="DejaVuSans-101"/>
     <path d="M 9.421875 75.984375 
L 18.40625 75.984375 
L 18.40625 0 
L 9.421875 0 
z
" id="DejaVuSans-108"/>
     <path d="M 48.78125 52.59375 
L 48.78125 44.1875 
Q 44.96875 46.296875 41.140625 47.34375 
Q 37.3125 48.390625 33.40625 48.390625 
Q 24.65625 48.390625 19.8125 42.84375 
Q 14.984375 37.3125 14.984375 27.296875 
Q 14.984375 17.28125 19.8125 11.734375 
Q 24.65625 6.203125 33.40625 6.203125 
Q 37.3125 6.203125 41.140625 7.25 
Q 44.96875 8.296875 48.78125 10.40625 
L 48.78125 2.09375 
Q 45.015625 0.34375 40.984375 -0.53125 
Q 36.96875 -1.421875 32.421875 -1.421875 
Q 20.0625 -1.421875 12.78125 6.34375 
Q 5.515625 14.109375 5.515625 27.296875 
Q 5.515625 40.671875 12.859375 48.328125 
Q 20.21875 56 33.015625 56 
Q 37.15625 56 41.109375 55.140625 
Q 45.0625 54.296875 48.78125 52.59375 
z
" id="DejaVuSans-99"/>
     <path d="M 32.171875 -5.078125 
Q 28.375 -14.84375 24.75 -17.8125 
Q 21.140625 -20.796875 15.09375 -20.796875 
L 7.90625 -20.796875 
L 7.90625 -13.28125 
L 13.1875 -13.28125 
Q 16.890625 -13.28125 18.9375 -11.515625 
Q 21 -9.765625 23.484375 -3.21875 
L 25.09375 0.875 
L 2.984375 54.6875 
L 12.5 54.6875 
L 29.59375 11.921875 
L 46.6875 54.6875 
L 56.203125 54.6875 
z
" id="DejaVuSans-121"/>
    </defs>
    <g transform="translate(330.442887 43.76)scale(0.264 -0.264)">
     <use xlink:href="#DejaVuSans-86"/>
     <use x="68.298828" xlink:href="#DejaVuSans-101"/>
     <use x="129.822266" xlink:href="#DejaVuSans-108"/>
     <use x="157.605469" xlink:href="#DejaVuSans-111"/>
     <use x="218.787109" xlink:href="#DejaVuSans-99"/>
     <use x="273.767578" xlink:href="#DejaVuSans-105"/>
     <use x="301.550781" xlink:href="#DejaVuSans-116"/>
     <use x="340.759766" xlink:href="#DejaVuSans-121"/>
    </g>
   </g>
  </g>
  <g id="axes_3">
   <g id="patch_12">
    <path d="M 557.795 165.24 
L 682.338399 165.24 
L 682.338399 49.76 
L 557.795 49.76 
z
" style="fill:none;"/>
   </g>
   <g id="matplotlib.axis_5">
    <g id="xtick_5">
     <g id="line2d_14">
      <g>
       <use style="stroke:#000000;stroke-width:0.8;" x="563.456064" xlink:href="#m6336e8282d" y="165.24"/>
      </g>
     </g>
     <g id="text_12">
      <!-- 0 -->
      <g transform="translate(556.457314 188.956562)scale(0.22 -0.22)">
       <use xlink:href="#DejaVuSans-48"/>
      </g>
     </g>
    </g>
    <g id="xtick_6">
     <g id="line2d_15">
      <g>
       <use style="stroke:#000000;stroke-width:0.8;" x="676.904232" xlink:href="#m6336e8282d" y="165.24"/>
      </g>
     </g>
     <g id="text_13">
      <!-- 500 -->
      <g transform="translate(655.907982 188.956562)scale(0.22 -0.22)">
       <use xlink:href="#DejaVuSans-53"/>
       <use x="63.623047" xlink:href="#DejaVuSans-48"/>
       <use x="127.246094" xlink:href="#DejaVuSans-48"/>
      </g>
     </g>
    </g>
   </g>
   <g id="matplotlib.axis_6">
    <g id="ytick_6">
     <g id="line2d_16">
      <g>
       <use style="stroke:#000000;stroke-width:0.8;" x="557.795" xlink:href="#m42f2f9f09d" y="120.372269"/>
      </g>
     </g>
     <g id="text_14">
      <!-- 0.99 -->
      <defs>
       <path d="M 10.984375 1.515625 
L 10.984375 10.5 
Q 14.703125 8.734375 18.5 7.8125 
Q 22.3125 6.890625 25.984375 6.890625 
Q 35.75 6.890625 40.890625 13.453125 
Q 46.046875 20.015625 46.78125 33.40625 
Q 43.953125 29.203125 39.59375 26.953125 
Q 35.25 24.703125 29.984375 24.703125 
Q 19.046875 24.703125 12.671875 31.3125 
Q 6.296875 37.9375 6.296875 49.421875 
Q 6.296875 60.640625 12.9375 67.421875 
Q 19.578125 74.21875 30.609375 74.21875 
Q 43.265625 74.21875 49.921875 64.515625 
Q 56.59375 54.828125 56.59375 36.375 
Q 56.59375 19.140625 48.40625 8.859375 
Q 40.234375 -1.421875 26.421875 -1.421875 
Q 22.703125 -1.421875 18.890625 -0.6875 
Q 15.09375 0.046875 10.984375 1.515625 
z
M 30.609375 32.421875 
Q 37.25 32.421875 41.125 36.953125 
Q 45.015625 41.5 45.015625 49.421875 
Q 45.015625 57.28125 41.125 61.84375 
Q 37.25 66.40625 30.609375 66.40625 
Q 23.96875 66.40625 20.09375 61.84375 
Q 16.21875 57.28125 16.21875 49.421875 
Q 16.21875 41.5 20.09375 36.953125 
Q 23.96875 32.421875 30.609375 32.421875 
z
" id="DejaVuSans-57"/>
      </defs>
      <g transform="translate(501.810625 128.73055)scale(0.22 -0.22)">
       <use xlink:href="#DejaVuSans-48"/>
       <use x="63.623047" xlink:href="#DejaVuSans-46"/>
       <use x="95.410156" xlink:href="#DejaVuSans-57"/>
       <use x="159.033203" xlink:href="#DejaVuSans-57"/>
      </g>
     </g>
    </g>
    <g id="ytick_7">
     <g id="line2d_17">
      <g>
       <use style="stroke:#000000;stroke-width:0.8;" x="557.795" xlink:href="#m42f2f9f09d" y="55.009091"/>
      </g>
     </g>
     <g id="text_15">
      <!-- 1.00 -->
      <defs>
       <path d="M 12.40625 8.296875 
L 28.515625 8.296875 
L 28.515625 63.921875 
L 10.984375 60.40625 
L 10.984375 69.390625 
L 28.421875 72.90625 
L 38.28125 72.90625 
L 38.28125 8.296875 
L 54.390625 8.296875 
L 54.390625 0 
L 12.40625 0 
z
" id="DejaVuSans-49"/>
      </defs>
      <g transform="translate(501.810625 63.367372)scale(0.22 -0.22)">
       <use xlink:href="#DejaVuSans-49"/>
       <use x="63.623047" xlink:href="#DejaVuSans-46"/>
       <use x="95.410156" xlink:href="#DejaVuSans-48"/>
       <use x="159.033203" xlink:href="#DejaVuSans-48"/>
      </g>
     </g>
    </g>
   </g>
   <g id="line2d_18">
    <path clip-path="url(#pdcd0af8694)" d="M 563.456064 55.009091 
L 574.347088 55.009091 
L 575.481569 72.422035 
L 577.977429 113.963701 
L 579.338807 135.390408 
L 580.019496 143.445546 
L 580.473289 147.049983 
L 580.927082 148.827458 
L 581.153978 148.932208 
L 581.380874 148.470774 
L 581.607771 147.418219 
L 582.061563 143.476998 
L 582.515356 137.064487 
L 583.196045 123.040356 
L 584.10363 97.48675 
L 585.465008 55.009091 
L 596.356032 55.009091 
L 596.582929 55.3477 
L 598.851892 89.700667 
L 602.255337 144.165041 
L 602.936026 150.539701 
L 603.389819 152.54789 
L 603.616715 152.747347 
L 603.843612 152.362086 
L 604.070508 151.36399 
L 604.524301 147.456216 
L 604.978093 140.965183 
L 605.658782 126.605846 
L 606.566368 100.242144 
L 607.927746 55.009091 
L 619.272562 55.009091 
L 619.499459 55.45271 
L 621.541526 83.547697 
L 623.1298 108.716551 
L 625.398764 145.480102 
L 626.079453 152.919811 
L 626.533245 155.766989 
L 626.760142 156.407296 
L 626.987038 156.467618 
L 627.213934 155.912109 
L 627.440831 154.712461 
L 627.894623 150.3111 
L 628.348416 143.219346 
L 629.029105 127.813806 
L 629.93669 99.941901 
L 631.298068 55.009091 
L 643.323574 55.009091 
L 643.777367 59.524738 
L 645.365641 78.537878 
L 646.727019 97.611118 
L 648.315294 123.662022 
L 649.903568 149.065588 
L 650.584257 156.577687 
L 651.03805 159.396781 
L 651.264946 159.990909 
L 651.491842 159.980478 
L 651.718739 159.328019 
L 651.945635 158.004293 
L 652.399428 153.273344 
L 652.85322 145.750533 
L 653.533909 129.546666 
L 654.441495 100.448778 
L 655.575976 57.071356 
L 655.802873 55.009091 
L 668.735964 55.009091 
L 668.96286 56.024316 
L 670.551135 70.429346 
L 671.685616 82.589813 
L 672.820098 97.227513 
L 674.181476 118.389977 
L 676.223543 151.793838 
L 676.677336 157.331144 
L 676.677336 157.331144 
" style="fill:none;stroke:#1f77b4;stroke-linecap:square;stroke-width:1.5;"/>
   </g>
   <g id="line2d_19">
    <path clip-path="url(#pdcd0af8694)" d="M 563.456064 55.009091 
L 574.120191 55.009091 
L 574.80088 65.668815 
L 579.338807 139.509689 
L 579.7926 143.818176 
L 580.246393 146.440245 
L 580.473289 147.014992 
L 580.700185 147.050653 
L 580.927082 146.517623 
L 581.153978 145.392806 
L 581.607771 141.312713 
L 582.061563 134.781094 
L 582.742252 120.641449 
L 583.649838 95.090012 
L 584.784319 56.775794 
L 585.011216 55.009091 
L 595.448447 55.009091 
L 595.675343 55.507017 
L 598.398099 100.91606 
L 600.440167 134.75174 
L 601.120856 143.063438 
L 601.574648 146.8256 
L 602.028441 148.74162 
L 602.255337 148.906004 
L 602.482234 148.496617 
L 602.70913 147.487834 
L 603.162923 143.607487 
L 603.616715 137.219025 
L 604.297404 123.16393 
L 605.20499 97.464163 
L 606.566368 55.009091 
L 617.230495 55.009091 
L 617.457392 56.246142 
L 619.953252 96.981996 
L 622.449111 138.389392 
L 623.1298 146.215167 
L 623.583593 149.485014 
L 623.810489 150.396002 
L 624.037386 150.768712 
L 624.264282 150.567531 
L 624.491178 149.763231 
L 624.944971 146.266271 
L 625.398764 140.204753 
L 626.079453 126.487705 
L 626.760142 107.944073 
L 627.894623 69.795819 
L 628.348416 55.009091 
L 639.23944 55.009091 
L 639.466336 56.157239 
L 641.7353 92.030347 
L 644.911849 143.959648 
L 645.592538 150.442897 
L 646.04633 152.47548 
L 646.273227 152.670928 
L 646.500123 152.270535 
L 646.727019 151.246295 
L 647.180812 147.255066 
L 647.634605 140.644494 
L 648.315294 126.057296 
L 649.222879 99.351113 
L 650.584257 55.009091 
L 661.702177 55.009091 
L 662.609763 67.964385 
L 664.424934 96.614554 
L 667.374586 145.129266 
L 668.055275 151.990155 
L 668.509068 154.296593 
L 668.735964 154.627892 
L 668.96286 154.358849 
L 669.189757 153.458609 
L 669.643549 149.682595 
L 670.097342 143.228216 
L 670.778031 128.73741 
L 671.685616 101.882704 
L 673.046994 55.009091 
L 676.677336 55.009091 
L 676.677336 55.009091 
" style="fill:none;stroke:#ff7f0e;stroke-linecap:square;stroke-width:1.5;"/>
   </g>
   <g id="patch_13">
    <path d="M 557.795 165.24 
L 557.795 49.76 
" style="fill:none;stroke:#000000;stroke-linecap:square;stroke-linejoin:miter;stroke-width:0.8;"/>
   </g>
   <g id="patch_14">
    <path d="M 682.338399 165.24 
L 682.338399 49.76 
" style="fill:none;stroke:#000000;stroke-linecap:square;stroke-linejoin:miter;stroke-width:0.8;"/>
   </g>
   <g id="patch_15">
    <path d="M 557.795 165.24 
L 682.338399 165.24 
" style="fill:none;stroke:#000000;stroke-linecap:square;stroke-linejoin:miter;stroke-width:0.8;"/>
   </g>
   <g id="patch_16">
    <path d="M 557.795 49.76 
L 682.338399 49.76 
" style="fill:none;stroke:#000000;stroke-linecap:square;stroke-linejoin:miter;stroke-width:0.8;"/>
   </g>
   <g id="text_16">
    <!-- Control Input -->
    <defs>
     <path d="M 64.40625 67.28125 
L 64.40625 56.890625 
Q 59.421875 61.53125 53.78125 63.8125 
Q 48.140625 66.109375 41.796875 66.109375 
Q 29.296875 66.109375 22.65625 58.46875 
Q 16.015625 50.828125 16.015625 36.375 
Q 16.015625 21.96875 22.65625 14.328125 
Q 29.296875 6.6875 41.796875 6.6875 
Q 48.140625 6.6875 53.78125 8.984375 
Q 59.421875 11.28125 64.40625 15.921875 
L 64.40625 5.609375 
Q 59.234375 2.09375 53.4375 0.328125 
Q 47.65625 -1.421875 41.21875 -1.421875 
Q 24.65625 -1.421875 15.125 8.703125 
Q 5.609375 18.84375 5.609375 36.375 
Q 5.609375 53.953125 15.125 64.078125 
Q 24.65625 74.21875 41.21875 74.21875 
Q 47.75 74.21875 53.53125 72.484375 
Q 59.328125 70.75 64.40625 67.28125 
z
" id="DejaVuSans-67"/>
     <path d="M 41.109375 46.296875 
Q 39.59375 47.171875 37.8125 47.578125 
Q 36.03125 48 33.890625 48 
Q 26.265625 48 22.1875 43.046875 
Q 18.109375 38.09375 18.109375 28.8125 
L 18.109375 0 
L 9.078125 0 
L 9.078125 54.6875 
L 18.109375 54.6875 
L 18.109375 46.1875 
Q 20.953125 51.171875 25.484375 53.578125 
Q 30.03125 56 36.53125 56 
Q 37.453125 56 38.578125 55.875 
Q 39.703125 55.765625 41.0625 55.515625 
z
" id="DejaVuSans-114"/>
     <path id="DejaVuSans-32"/>
     <path d="M 9.8125 72.90625 
L 19.671875 72.90625 
L 19.671875 0 
L 9.8125 0 
z
" id="DejaVuSans-73"/>
     <path d="M 18.109375 8.203125 
L 18.109375 -20.796875 
L 9.078125 -20.796875 
L 9.078125 54.6875 
L 18.109375 54.6875 
L 18.109375 46.390625 
Q 20.953125 51.265625 25.265625 53.625 
Q 29.59375 56 35.59375 56 
Q 45.5625 56 51.78125 48.09375 
Q 58.015625 40.1875 58.015625 27.296875 
Q 58.015625 14.40625 51.78125 6.484375 
Q 45.5625 -1.421875 35.59375 -1.421875 
Q 29.59375 -1.421875 25.265625 0.953125 
Q 20.953125 3.328125 18.109375 8.203125 
z
M 48.6875 27.296875 
Q 48.6875 37.203125 44.609375 42.84375 
Q 40.53125 48.484375 33.40625 48.484375 
Q 26.265625 48.484375 22.1875 42.84375 
Q 18.109375 37.203125 18.109375 27.296875 
Q 18.109375 17.390625 22.1875 11.75 
Q 26.265625 6.109375 33.40625 6.109375 
Q 40.53125 6.109375 44.609375 11.75 
Q 48.6875 17.390625 48.6875 27.296875 
z
" id="DejaVuSans-112"/>
     <path d="M 8.5 21.578125 
L 8.5 54.6875 
L 17.484375 54.6875 
L 17.484375 21.921875 
Q 17.484375 14.15625 20.5 10.265625 
Q 23.53125 6.390625 29.59375 6.390625 
Q 36.859375 6.390625 41.078125 11.03125 
Q 45.3125 15.671875 45.3125 23.6875 
L 45.3125 54.6875 
L 54.296875 54.6875 
L 54.296875 0 
L 45.3125 0 
L 45.3125 8.40625 
Q 42.046875 3.421875 37.71875 1 
Q 33.40625 -1.421875 27.6875 -1.421875 
Q 18.265625 -1.421875 13.375 4.4375 
Q 8.5 10.296875 8.5 21.578125 
z
M 31.109375 56 
z
" id="DejaVuSans-117"/>
    </defs>
    <g transform="translate(533.691262 43.76)scale(0.264 -0.264)">
     <use xlink:href="#DejaVuSans-67"/>
     <use x="69.824219" xlink:href="#DejaVuSans-111"/>
     <use x="131.005859" xlink:href="#DejaVuSans-110"/>
     <use x="194.384766" xlink:href="#DejaVuSans-116"/>
     <use x="233.59375" xlink:href="#DejaVuSans-114"/>
     <use x="274.675781" xlink:href="#DejaVuSans-111"/>
     <use x="335.857422" xlink:href="#DejaVuSans-108"/>
     <use x="363.640625" xlink:href="#DejaVuSans-32"/>
     <use x="395.427734" xlink:href="#DejaVuSans-73"/>
     <use x="424.919922" xlink:href="#DejaVuSans-110"/>
     <use x="488.298828" xlink:href="#DejaVuSans-112"/>
     <use x="551.775391" xlink:href="#DejaVuSans-117"/>
     <use x="615.154297" xlink:href="#DejaVuSans-116"/>
    </g>
   </g>
  </g>
  <g id="legend_1">
   <g id="patch_17">
    <path d="M 517.015625 205 
L 704.6 205 
Q 709 205 709 200.6 
L 709 138.21625 
Q 709 133.81625 704.6 133.81625 
L 517.015625 133.81625 
Q 512.615625 133.81625 512.615625 138.21625 
L 512.615625 200.6 
Q 512.615625 205 517.015625 205 
z
" style="fill:#ffffff;opacity:0.8;stroke:#cccccc;stroke-linejoin:miter;"/>
   </g>
   <g id="line2d_20">
    <path d="M 521.415625 151.632812 
L 565.415625 151.632812 
" style="fill:none;stroke:#1f77b4;stroke-linecap:square;stroke-width:1.5;"/>
   </g>
   <g id="line2d_21"/>
   <g id="text_17">
    <!-- Emulation -->
    <defs>
     <path d="M 9.8125 72.90625 
L 55.90625 72.90625 
L 55.90625 64.59375 
L 19.671875 64.59375 
L 19.671875 43.015625 
L 54.390625 43.015625 
L 54.390625 34.71875 
L 19.671875 34.71875 
L 19.671875 8.296875 
L 56.78125 8.296875 
L 56.78125 0 
L 9.8125 0 
z
" id="DejaVuSans-69"/>
     <path d="M 52 44.1875 
Q 55.375 50.25 60.0625 53.125 
Q 64.75 56 71.09375 56 
Q 79.640625 56 84.28125 50.015625 
Q 88.921875 44.046875 88.921875 33.015625 
L 88.921875 0 
L 79.890625 0 
L 79.890625 32.71875 
Q 79.890625 40.578125 77.09375 44.375 
Q 74.3125 48.1875 68.609375 48.1875 
Q 61.625 48.1875 57.5625 43.546875 
Q 53.515625 38.921875 53.515625 30.90625 
L 53.515625 0 
L 44.484375 0 
L 44.484375 32.71875 
Q 44.484375 40.625 41.703125 44.40625 
Q 38.921875 48.1875 33.109375 48.1875 
Q 26.21875 48.1875 22.15625 43.53125 
Q 18.109375 38.875 18.109375 30.90625 
L 18.109375 0 
L 9.078125 0 
L 9.078125 54.6875 
L 18.109375 54.6875 
L 18.109375 46.1875 
Q 21.1875 51.21875 25.484375 53.609375 
Q 29.78125 56 35.6875 56 
Q 41.65625 56 45.828125 52.96875 
Q 50 49.953125 52 44.1875 
z
" id="DejaVuSans-109"/>
     <path d="M 34.28125 27.484375 
Q 23.390625 27.484375 19.1875 25 
Q 14.984375 22.515625 14.984375 16.5 
Q 14.984375 11.71875 18.140625 8.90625 
Q 21.296875 6.109375 26.703125 6.109375 
Q 34.1875 6.109375 38.703125 11.40625 
Q 43.21875 16.703125 43.21875 25.484375 
L 43.21875 27.484375 
z
M 52.203125 31.203125 
L 52.203125 0 
L 43.21875 0 
L 43.21875 8.296875 
Q 40.140625 3.328125 35.546875 0.953125 
Q 30.953125 -1.421875 24.3125 -1.421875 
Q 15.921875 -1.421875 10.953125 3.296875 
Q 6 8.015625 6 15.921875 
Q 6 25.140625 12.171875 29.828125 
Q 18.359375 34.515625 30.609375 34.515625 
L 43.21875 34.515625 
L 43.21875 35.40625 
Q 43.21875 41.609375 39.140625 45 
Q 35.0625 48.390625 27.6875 48.390625 
Q 23 48.390625 18.546875 47.265625 
Q 14.109375 46.140625 10.015625 43.890625 
L 10.015625 52.203125 
Q 14.9375 54.109375 19.578125 55.046875 
Q 24.21875 56 28.609375 56 
Q 40.484375 56 46.34375 49.84375 
Q 52.203125 43.703125 52.203125 31.203125 
z
" id="DejaVuSans-97"/>
    </defs>
    <g transform="translate(583.015625 159.332812)scale(0.22 -0.22)">
     <use xlink:href="#DejaVuSans-69"/>
     <use x="63.183594" xlink:href="#DejaVuSans-109"/>
     <use x="160.595703" xlink:href="#DejaVuSans-117"/>
     <use x="223.974609" xlink:href="#DejaVuSans-108"/>
     <use x="251.757812" xlink:href="#DejaVuSans-97"/>
     <use x="313.037109" xlink:href="#DejaVuSans-116"/>
     <use x="352.246094" xlink:href="#DejaVuSans-105"/>
     <use x="380.029297" xlink:href="#DejaVuSans-111"/>
     <use x="441.210938" xlink:href="#DejaVuSans-110"/>
    </g>
   </g>
   <g id="line2d_22">
    <path d="M 521.415625 183.924688 
L 565.415625 183.924688 
" style="fill:none;stroke:#ff7f0e;stroke-linecap:square;stroke-width:1.5;"/>
   </g>
   <g id="line2d_23"/>
   <g id="text_18">
    <!-- Simulation -->
    <defs>
     <path d="M 53.515625 70.515625 
L 53.515625 60.890625 
Q 47.90625 63.578125 42.921875 64.890625 
Q 37.9375 66.21875 33.296875 66.21875 
Q 25.25 66.21875 20.875 63.09375 
Q 16.5 59.96875 16.5 54.203125 
Q 16.5 49.359375 19.40625 46.890625 
Q 22.3125 44.4375 30.421875 42.921875 
L 36.375 41.703125 
Q 47.40625 39.59375 52.65625 34.296875 
Q 57.90625 29 57.90625 20.125 
Q 57.90625 9.515625 50.796875 4.046875 
Q 43.703125 -1.421875 29.984375 -1.421875 
Q 24.8125 -1.421875 18.96875 -0.25 
Q 13.140625 0.921875 6.890625 3.21875 
L 6.890625 13.375 
Q 12.890625 10.015625 18.65625 8.296875 
Q 24.421875 6.59375 29.984375 6.59375 
Q 38.421875 6.59375 43.015625 9.90625 
Q 47.609375 13.234375 47.609375 19.390625 
Q 47.609375 24.75 44.3125 27.78125 
Q 41.015625 30.8125 33.5 32.328125 
L 27.484375 33.5 
Q 16.453125 35.6875 11.515625 40.375 
Q 6.59375 45.0625 6.59375 53.421875 
Q 6.59375 63.09375 13.40625 68.65625 
Q 20.21875 74.21875 32.171875 74.21875 
Q 37.3125 74.21875 42.625 73.28125 
Q 47.953125 72.359375 53.515625 70.515625 
z
" id="DejaVuSans-83"/>
    </defs>
    <g transform="translate(583.015625 191.624687)scale(0.22 -0.22)">
     <use xlink:href="#DejaVuSans-83"/>
     <use x="63.476562" xlink:href="#DejaVuSans-105"/>
     <use x="91.259766" xlink:href="#DejaVuSans-109"/>
     <use x="188.671875" xlink:href="#DejaVuSans-117"/>
     <use x="252.050781" xlink:href="#DejaVuSans-108"/>
     <use x="279.833984" xlink:href="#DejaVuSans-97"/>
     <use x="341.113281" xlink:href="#DejaVuSans-116"/>
     <use x="380.322266" xlink:href="#DejaVuSans-105"/>
     <use x="408.105469" xlink:href="#DejaVuSans-111"/>
     <use x="469.287109" xlink:href="#DejaVuSans-110"/>
    </g>
   </g>
  </g>
 </g>
 <defs>
  <clipPath id="pd499a09ef6">
   <rect height="115.48" width="124.543399" x="84.135" y="49.76"/>
  </clipPath>
  <clipPath id="p57f42caf86">
   <rect height="115.48" width="124.543399" x="320.965" y="49.76"/>
  </clipPath>
  <clipPath id="pdcd0af8694">
   <rect height="115.48" width="124.543399" x="557.795" y="49.76"/>
  </clipPath>
 </defs>
</svg>
