<?xml version="1.0" encoding="utf-8" standalone="no"?>
<!DOCTYPE svg PUBLIC "-//W3C//DTD SVG 1.1//EN"
  "http://www.w3.org/Graphics/SVG/1.1/DTD/svg11.dtd">
<!-- Created with matplotlib (http://matplotlib.org/) -->
<svg height="216pt" version="1.1" viewBox="0 0 720 216" width="720pt" xmlns="http://www.w3.org/2000/svg" xmlns:xlink="http://www.w3.org/1999/xlink">
 <defs>
  <style type="text/css">
*{stroke-linecap:butt;stroke-linejoin:round;}
  </style>
 </defs>
 <g id="figure_1">
  <g id="patch_1">
   <path d="M 0 216 
L 720 216 
L 720 0 
L 0 0 
z
" style="fill:none;"/>
  </g>
  <g id="axes_1">
   <g id="patch_2">
    <path d="M 42.05 188.2 
L 225.733333 188.2 
L 225.733333 26.8 
L 42.05 26.8 
z
" style="fill:none;"/>
   </g>
   <g id="matplotlib.axis_1">
    <g id="xtick_1">
     <g id="line2d_1">
      <defs>
       <path d="M 0 0 
L 0 3.5 
" id="m85a6bd5f88" style="stroke:#000000;stroke-width:0.8;"/>
      </defs>
      <g>
       <use style="stroke:#000000;stroke-width:0.8;" x="50.399242" xlink:href="#m85a6bd5f88" y="188.2"/>
      </g>
     </g>
     <g id="text_1">
      <!-- 0 -->
      <defs>
       <path d="M 31.78125 66.40625 
Q 24.171875 66.40625 20.328125 58.90625 
Q 16.5 51.421875 16.5 36.375 
Q 16.5 21.390625 20.328125 13.890625 
Q 24.171875 6.390625 31.78125 6.390625 
Q 39.453125 6.390625 43.28125 13.890625 
Q 47.125 21.390625 47.125 36.375 
Q 47.125 51.421875 43.28125 58.90625 
Q 39.453125 66.40625 31.78125 66.40625 
z
M 31.78125 74.21875 
Q 44.046875 74.21875 50.515625 64.515625 
Q 56.984375 54.828125 56.984375 36.375 
Q 56.984375 17.96875 50.515625 8.265625 
Q 44.046875 -1.421875 31.78125 -1.421875 
Q 19.53125 -1.421875 13.0625 8.265625 
Q 6.59375 17.96875 6.59375 36.375 
Q 6.59375 54.828125 13.0625 64.515625 
Q 19.53125 74.21875 31.78125 74.21875 
z
" id="DejaVuSans-30"/>
      </defs>
      <g transform="translate(47.217992 202.798438)scale(0.1 -0.1)">
       <use xlink:href="#DejaVuSans-30"/>
      </g>
     </g>
    </g>
    <g id="xtick_2">
     <g id="line2d_2">
      <g>
       <use style="stroke:#000000;stroke-width:0.8;" x="83.86314" xlink:href="#m85a6bd5f88" y="188.2"/>
      </g>
     </g>
     <g id="text_2">
      <!-- 100 -->
      <defs>
       <path d="M 12.40625 8.296875 
L 28.515625 8.296875 
L 28.515625 63.921875 
L 10.984375 60.40625 
L 10.984375 69.390625 
L 28.421875 72.90625 
L 38.28125 72.90625 
L 38.28125 8.296875 
L 54.390625 8.296875 
L 54.390625 0 
L 12.40625 0 
z
" id="DejaVuSans-31"/>
      </defs>
      <g transform="translate(74.31939 202.798438)scale(0.1 -0.1)">
       <use xlink:href="#DejaVuSans-31"/>
       <use x="63.623047" xlink:href="#DejaVuSans-30"/>
       <use x="127.246094" xlink:href="#DejaVuSans-30"/>
      </g>
     </g>
    </g>
    <g id="xtick_3">
     <g id="line2d_3">
      <g>
       <use style="stroke:#000000;stroke-width:0.8;" x="117.327037" xlink:href="#m85a6bd5f88" y="188.2"/>
      </g>
     </g>
     <g id="text_3">
      <!-- 200 -->
      <defs>
       <path d="M 19.1875 8.296875 
L 53.609375 8.296875 
L 53.609375 0 
L 7.328125 0 
L 7.328125 8.296875 
Q 12.9375 14.109375 22.625 23.890625 
Q 32.328125 33.6875 34.8125 36.53125 
Q 39.546875 41.84375 41.421875 45.53125 
Q 43.3125 49.21875 43.3125 52.78125 
Q 43.3125 58.59375 39.234375 62.25 
Q 35.15625 65.921875 28.609375 65.921875 
Q 23.96875 65.921875 18.8125 64.3125 
Q 13.671875 62.703125 7.8125 59.421875 
L 7.8125 69.390625 
Q 13.765625 71.78125 18.9375 73 
Q 24.125 74.21875 28.421875 74.21875 
Q 39.75 74.21875 46.484375 68.546875 
Q 53.21875 62.890625 53.21875 53.421875 
Q 53.21875 48.921875 51.53125 44.890625 
Q 49.859375 40.875 45.40625 35.40625 
Q 44.1875 33.984375 37.640625 27.21875 
Q 31.109375 20.453125 19.1875 8.296875 
z
" id="DejaVuSans-32"/>
      </defs>
      <g transform="translate(107.783287 202.798438)scale(0.1 -0.1)">
       <use xlink:href="#DejaVuSans-32"/>
       <use x="63.623047" xlink:href="#DejaVuSans-30"/>
       <use x="127.246094" xlink:href="#DejaVuSans-30"/>
      </g>
     </g>
    </g>
    <g id="xtick_4">
     <g id="line2d_4">
      <g>
       <use style="stroke:#000000;stroke-width:0.8;" x="150.790935" xlink:href="#m85a6bd5f88" y="188.2"/>
      </g>
     </g>
     <g id="text_4">
      <!-- 300 -->
      <defs>
       <path d="M 40.578125 39.3125 
Q 47.65625 37.796875 51.625 33 
Q 55.609375 28.21875 55.609375 21.1875 
Q 55.609375 10.40625 48.1875 4.484375 
Q 40.765625 -1.421875 27.09375 -1.421875 
Q 22.515625 -1.421875 17.65625 -0.515625 
Q 12.796875 0.390625 7.625 2.203125 
L 7.625 11.71875 
Q 11.71875 9.328125 16.59375 8.109375 
Q 21.484375 6.890625 26.8125 6.890625 
Q 36.078125 6.890625 40.9375 10.546875 
Q 45.796875 14.203125 45.796875 21.1875 
Q 45.796875 27.640625 41.28125 31.265625 
Q 36.765625 34.90625 28.71875 34.90625 
L 20.21875 34.90625 
L 20.21875 43.015625 
L 29.109375 43.015625 
Q 36.375 43.015625 40.234375 45.921875 
Q 44.09375 48.828125 44.09375 54.296875 
Q 44.09375 59.90625 40.109375 62.90625 
Q 36.140625 65.921875 28.71875 65.921875 
Q 24.65625 65.921875 20.015625 65.03125 
Q 15.375 64.15625 9.8125 62.3125 
L 9.8125 71.09375 
Q 15.4375 72.65625 20.34375 73.4375 
Q 25.25 74.21875 29.59375 74.21875 
Q 40.828125 74.21875 47.359375 69.109375 
Q 53.90625 64.015625 53.90625 55.328125 
Q 53.90625 49.265625 50.4375 45.09375 
Q 46.96875 40.921875 40.578125 39.3125 
z
" id="DejaVuSans-33"/>
      </defs>
      <g transform="translate(141.247185 202.798438)scale(0.1 -0.1)">
       <use xlink:href="#DejaVuSans-33"/>
       <use x="63.623047" xlink:href="#DejaVuSans-30"/>
       <use x="127.246094" xlink:href="#DejaVuSans-30"/>
      </g>
     </g>
    </g>
    <g id="xtick_5">
     <g id="line2d_5">
      <g>
       <use style="stroke:#000000;stroke-width:0.8;" x="184.254832" xlink:href="#m85a6bd5f88" y="188.2"/>
      </g>
     </g>
     <g id="text_5">
      <!-- 400 -->
      <defs>
       <path d="M 37.796875 64.3125 
L 12.890625 25.390625 
L 37.796875 25.390625 
z
M 35.203125 72.90625 
L 47.609375 72.90625 
L 47.609375 25.390625 
L 58.015625 25.390625 
L 58.015625 17.1875 
L 47.609375 17.1875 
L 47.609375 0 
L 37.796875 0 
L 37.796875 17.1875 
L 4.890625 17.1875 
L 4.890625 26.703125 
z
" id="DejaVuSans-34"/>
      </defs>
      <g transform="translate(174.711082 202.798438)scale(0.1 -0.1)">
       <use xlink:href="#DejaVuSans-34"/>
       <use x="63.623047" xlink:href="#DejaVuSans-30"/>
       <use x="127.246094" xlink:href="#DejaVuSans-30"/>
      </g>
     </g>
    </g>
    <g id="xtick_6">
     <g id="line2d_6">
      <g>
       <use style="stroke:#000000;stroke-width:0.8;" x="217.71873" xlink:href="#m85a6bd5f88" y="188.2"/>
      </g>
     </g>
     <g id="text_6">
      <!-- 500 -->
      <defs>
       <path d="M 10.796875 72.90625 
L 49.515625 72.90625 
L 49.515625 64.59375 
L 19.828125 64.59375 
L 19.828125 46.734375 
Q 21.96875 47.46875 24.109375 47.828125 
Q 26.265625 48.1875 28.421875 48.1875 
Q 40.625 48.1875 47.75 41.5 
Q 54.890625 34.8125 54.890625 23.390625 
Q 54.890625 11.625 47.5625 5.09375 
Q 40.234375 -1.421875 26.90625 -1.421875 
Q 22.3125 -1.421875 17.546875 -0.640625 
Q 12.796875 0.140625 7.71875 1.703125 
L 7.71875 11.625 
Q 12.109375 9.234375 16.796875 8.0625 
Q 21.484375 6.890625 26.703125 6.890625 
Q 35.15625 6.890625 40.078125 11.328125 
Q 45.015625 15.765625 45.015625 23.390625 
Q 45.015625 31 40.078125 35.4375 
Q 35.15625 39.890625 26.703125 39.890625 
Q 22.75 39.890625 18.8125 39.015625 
Q 14.890625 38.140625 10.796875 36.28125 
z
" id="DejaVuSans-35"/>
      </defs>
      <g transform="translate(208.17498 202.798438)scale(0.1 -0.1)">
       <use xlink:href="#DejaVuSans-35"/>
       <use x="63.623047" xlink:href="#DejaVuSans-30"/>
       <use x="127.246094" xlink:href="#DejaVuSans-30"/>
      </g>
     </g>
    </g>
   </g>
   <g id="matplotlib.axis_2">
    <g id="ytick_1">
     <g id="line2d_7">
      <defs>
       <path d="M 0 0 
L -3.5 0 
" id="mce80f7d65c" style="stroke:#000000;stroke-width:0.8;"/>
      </defs>
      <g>
       <use style="stroke:#000000;stroke-width:0.8;" x="42.05" xlink:href="#mce80f7d65c" y="177.421368"/>
      </g>
     </g>
     <g id="text_7">
      <!-- −0.6 -->
      <defs>
       <path d="M 10.59375 35.5 
L 73.1875 35.5 
L 73.1875 27.203125 
L 10.59375 27.203125 
z
" id="DejaVuSans-2212"/>
       <path d="M 10.6875 12.40625 
L 21 12.40625 
L 21 0 
L 10.6875 0 
z
" id="DejaVuSans-2e"/>
       <path d="M 33.015625 40.375 
Q 26.375 40.375 22.484375 35.828125 
Q 18.609375 31.296875 18.609375 23.390625 
Q 18.609375 15.53125 22.484375 10.953125 
Q 26.375 6.390625 33.015625 6.390625 
Q 39.65625 6.390625 43.53125 10.953125 
Q 47.40625 15.53125 47.40625 23.390625 
Q 47.40625 31.296875 43.53125 35.828125 
Q 39.65625 40.375 33.015625 40.375 
z
M 52.59375 71.296875 
L 52.59375 62.3125 
Q 48.875 64.0625 45.09375 64.984375 
Q 41.3125 65.921875 37.59375 65.921875 
Q 27.828125 65.921875 22.671875 59.328125 
Q 17.53125 52.734375 16.796875 39.40625 
Q 19.671875 43.65625 24.015625 45.921875 
Q 28.375 48.1875 33.59375 48.1875 
Q 44.578125 48.1875 50.953125 41.515625 
Q 57.328125 34.859375 57.328125 23.390625 
Q 57.328125 12.15625 50.6875 5.359375 
Q 44.046875 -1.421875 33.015625 -1.421875 
Q 20.359375 -1.421875 13.671875 8.265625 
Q 6.984375 17.96875 6.984375 36.375 
Q 6.984375 53.65625 15.1875 63.9375 
Q 23.390625 74.21875 37.203125 74.21875 
Q 40.921875 74.21875 44.703125 73.484375 
Q 48.484375 72.75 52.59375 71.296875 
z
" id="DejaVuSans-36"/>
      </defs>
      <g transform="translate(10.767187 181.220586)scale(0.1 -0.1)">
       <use xlink:href="#DejaVuSans-2212"/>
       <use x="83.789062" xlink:href="#DejaVuSans-30"/>
       <use x="147.412109" xlink:href="#DejaVuSans-2e"/>
       <use x="179.199219" xlink:href="#DejaVuSans-36"/>
      </g>
     </g>
    </g>
    <g id="ytick_2">
     <g id="line2d_8">
      <g>
       <use style="stroke:#000000;stroke-width:0.8;" x="42.05" xlink:href="#mce80f7d65c" y="137.542418"/>
      </g>
     </g>
     <g id="text_8">
      <!-- −0.4 -->
      <g transform="translate(10.767187 141.341637)scale(0.1 -0.1)">
       <use xlink:href="#DejaVuSans-2212"/>
       <use x="83.789062" xlink:href="#DejaVuSans-30"/>
       <use x="147.412109" xlink:href="#DejaVuSans-2e"/>
       <use x="179.199219" xlink:href="#DejaVuSans-34"/>
      </g>
     </g>
    </g>
    <g id="ytick_3">
     <g id="line2d_9">
      <g>
       <use style="stroke:#000000;stroke-width:0.8;" x="42.05" xlink:href="#mce80f7d65c" y="97.663469"/>
      </g>
     </g>
     <g id="text_9">
      <!-- −0.2 -->
      <g transform="translate(10.767187 101.462688)scale(0.1 -0.1)">
       <use xlink:href="#DejaVuSans-2212"/>
       <use x="83.789062" xlink:href="#DejaVuSans-30"/>
       <use x="147.412109" xlink:href="#DejaVuSans-2e"/>
       <use x="179.199219" xlink:href="#DejaVuSans-32"/>
      </g>
     </g>
    </g>
    <g id="ytick_4">
     <g id="line2d_10">
      <g>
       <use style="stroke:#000000;stroke-width:0.8;" x="42.05" xlink:href="#mce80f7d65c" y="57.784519"/>
      </g>
     </g>
     <g id="text_10">
      <!-- 0.0 -->
      <g transform="translate(19.146875 61.583738)scale(0.1 -0.1)">
       <use xlink:href="#DejaVuSans-30"/>
       <use x="63.623047" xlink:href="#DejaVuSans-2e"/>
       <use x="95.410156" xlink:href="#DejaVuSans-30"/>
      </g>
     </g>
    </g>
   </g>
   <g id="line2d_11">
    <path clip-path="url(#p7e28afdf21)" d="M 50.399242 175.253546 
L 50.733881 174.860531 
L 51.06852 174.078048 
L 51.737798 171.371016 
L 52.407076 167.213373 
L 53.076354 161.726915 
L 54.080271 151.35661 
L 55.418827 134.639291 
L 59.434495 81.917654 
L 60.773051 68.099908 
L 61.776968 59.683757 
L 62.780884 53.006386 
L 63.784801 48.059582 
L 64.454079 45.707174 
L 65.123357 44.095926 
L 65.792635 43.214795 
L 66.127274 43.04584 
L 66.461913 43.05745 
L 66.796552 43.249644 
L 67.131191 43.622892 
L 67.800469 44.915835 
L 68.469747 46.945081 
L 69.139025 49.722142 
L 69.808303 53.259779 
L 70.81222 60.017386 
L 71.816137 68.525214 
L 72.820054 78.737998 
L 74.15861 94.736598 
L 76.166443 121.982941 
L 78.174277 148.667127 
L 79.178194 159.79455 
L 80.182111 168.426628 
L 80.851389 172.510546 
L 81.520667 175.110241 
L 81.855306 175.827858 
L 82.189945 176.149303 
L 82.524584 176.07205 
L 82.859223 175.596475 
L 83.193862 174.726131 
L 83.86314 171.82997 
L 84.532418 167.470079 
L 85.201696 161.774372 
L 86.205613 151.089669 
L 87.544169 133.984042 
L 91.225197 84.467747 
L 92.563753 69.843766 
L 93.56767 60.794795 
L 94.571587 53.481556 
L 95.575504 47.900509 
L 96.244782 45.125243 
L 96.91406 43.088053 
L 97.583338 41.774201 
L 97.917977 41.385224 
L 98.252616 41.173831 
L 98.587255 41.139672 
L 98.921894 41.282736 
L 99.256533 41.603446 
L 99.925811 42.78121 
L 100.595089 44.6824 
L 101.264367 47.319711 
L 101.933645 50.707579 
L 102.937561 57.227617 
L 103.941478 65.499046 
L 104.945395 75.49811 
L 106.283951 91.31126 
L 108.291785 118.69551 
L 110.634258 150.342154 
L 111.638175 161.421697 
L 112.642092 169.900966 
L 113.31137 173.828054 
L 113.980648 176.232635 
L 114.315287 176.840285 
L 114.649926 177.044496 
L 114.984565 176.843543 
L 115.319204 176.23876 
L 115.653843 175.234597 
L 116.32312 172.060831 
L 116.992398 167.416978 
L 117.996315 158.001681 
L 119.000232 146.196905 
L 120.673427 123.373074 
L 123.350539 86.756637 
L 124.689095 71.406777 
L 125.693012 61.785556 
L 126.696929 53.89604 
L 127.700846 47.739875 
L 128.704763 43.278446 
L 129.374041 41.214785 
L 130.043318 39.860109 
L 130.712596 39.204 
L 131.047235 39.136241 
L 131.381874 39.241819 
L 131.716513 39.521095 
L 132.385791 40.604167 
L 133.055069 42.395415 
L 133.724347 44.90887 
L 134.393625 48.160866 
L 135.397542 54.459921 
L 136.401459 62.503344 
L 137.405376 72.290096 
L 138.743932 87.899477 
L 140.417127 110.584644 
L 143.428877 152.090496 
L 144.432794 163.101366 
L 145.436711 171.403504 
L 146.105989 175.156387 
L 146.775267 177.348613 
L 147.109906 177.837754 
L 147.444545 177.916296 
L 147.779184 177.583371 
L 148.113823 176.841339 
L 148.783101 174.154602 
L 149.452379 169.935713 
L 150.121657 164.310185 
L 151.125574 153.596228 
L 152.46413 136.19296 
L 156.479797 80.791755 
L 157.818353 66.106776 
L 158.82227 57.062431 
L 159.826187 49.756997 
L 160.830104 44.164117 
L 161.499382 41.355754 
L 162.16866 39.257435 
L 162.837938 37.852066 
L 163.507216 37.128613 
L 163.841855 37.020672 
L 164.176494 37.081575 
L 164.511133 37.311544 
L 165.180411 38.281809 
L 165.849689 39.941315 
L 166.518967 42.305067 
L 167.188245 45.391555 
L 168.192162 51.418821 
L 169.196079 59.174132 
L 170.199995 68.681428 
L 171.538551 83.98632 
L 173.211746 106.577108 
L 176.558136 153.412175 
L 177.562053 164.434668 
L 178.56597 172.662102 
L 179.235248 176.318739 
L 179.904526 178.381723 
L 180.239165 178.794996 
L 180.573804 178.790835 
L 180.908443 178.368932 
L 181.243082 177.532321 
L 181.91236 174.642222 
L 182.581638 170.20587 
L 183.250915 164.355405 
L 184.254832 153.304045 
L 185.593388 135.484831 
L 189.609056 79.332472 
L 190.947612 64.538774 
L 191.951529 55.428902 
L 192.955446 48.055582 
L 193.959363 42.380537 
L 194.628641 39.501248 
L 195.297919 37.316324 
L 195.967197 35.807764 
L 196.636474 34.963148 
L 196.971113 34.78733 
L 197.305752 34.775186 
L 197.640391 34.926685 
L 197.97503 35.242294 
L 198.644308 36.369769 
L 199.313586 38.169306 
L 199.982864 40.658324 
L 200.652142 43.858495 
L 201.656059 50.041818 
L 202.659976 57.943905 
L 203.663893 67.598632 
L 205.002449 83.116328 
L 206.675644 106.028594 
L 210.022033 153.662804 
L 211.02595 164.916087 
L 212.029867 173.34304 
L 212.699145 177.108943 
L 213.368423 179.259094 
L 213.703062 179.706874 
L 214.037701 179.730808 
L 214.37234 179.330372 
L 214.706979 178.508395 
L 215.376257 175.626422 
L 216.045535 171.16931 
L 216.714813 165.27009 
L 217.384091 158.099075 
L 217.384091 158.099075 
" style="fill:none;stroke:#1f77b4;stroke-linecap:square;stroke-width:1.5;"/>
   </g>
   <g id="line2d_12">
    <path clip-path="url(#p7e28afdf21)" d="M 50.399242 175.253546 
L 50.733881 174.857087 
L 51.06852 174.067088 
L 51.737798 171.332646 
L 52.407076 167.131119 
L 53.076354 161.58761 
L 54.080271 151.128558 
L 55.418827 134.301101 
L 59.434495 81.523797 
L 60.773051 67.837822 
L 61.776968 59.581241 
L 62.780884 53.113235 
L 63.784801 48.426981 
L 64.454079 46.277326 
L 65.123357 44.895602 
L 65.457996 44.490236 
L 65.792635 44.274328 
L 66.127274 44.247551 
L 66.461913 44.409865 
L 66.796552 44.761662 
L 67.46583 46.036722 
L 68.135108 48.081111 
L 68.804386 50.905944 
L 69.473664 54.522988 
L 70.477581 61.453063 
L 71.481498 70.186071 
L 72.485415 80.652471 
L 73.823971 96.964823 
L 76.501082 133.743273 
L 77.839638 150.931587 
L 78.843555 161.717164 
L 79.847472 169.882599 
L 80.51675 173.588255 
L 81.186028 175.766053 
L 81.520667 176.259278 
L 81.855306 176.349102 
L 82.189945 176.034503 
L 82.524584 175.317709 
L 82.859223 174.203984 
L 83.528501 170.821462 
L 84.197779 165.987041 
L 85.201696 156.339338 
L 86.540252 140.051449 
L 91.559836 74.157293 
L 92.563753 64.392477 
L 93.56767 56.393253 
L 94.571587 50.183971 
L 95.240865 47.027095 
L 95.910143 44.641756 
L 96.579421 43.015308 
L 97.248699 42.137678 
L 97.583338 41.97763 
L 97.917977 42.002946 
L 98.252616 42.213693 
L 98.587255 42.610408 
L 99.256533 43.965429 
L 99.925811 46.078074 
L 100.595089 48.961677 
L 101.264367 52.630753 
L 102.268284 59.633536 
L 103.2722 68.4447 
L 104.276117 79.009823 
L 105.614673 95.512709 
L 107.957146 128.263523 
L 109.630341 150.626959 
L 110.634258 161.794857 
L 111.638175 170.338424 
L 112.307453 174.28133 
L 112.976731 176.67637 
L 113.31137 177.268727 
L 113.646009 177.450383 
L 113.980648 177.219641 
L 114.315287 176.578024 
L 114.649926 175.530225 
L 115.319204 172.249802 
L 115.988482 167.475134 
L 116.992398 157.833497 
L 117.996315 145.805015 
L 119.66951 122.641201 
L 122.011983 90.01657 
L 123.350539 74.008524 
L 124.689095 60.918527 
L 125.693012 53.173919 
L 126.696929 47.21015 
L 127.366207 44.20282 
L 128.035485 41.951679 
L 128.704763 40.442041 
L 129.374041 39.662805 
L 129.708679 39.544959 
L 130.043318 39.607854 
L 130.377957 39.851675 
L 130.712596 40.277076 
L 131.381874 41.676962 
L 132.051152 43.819258 
L 132.72043 46.719595 
L 133.389708 50.395451 
L 134.393625 57.398039 
L 135.397542 66.210969 
L 136.401459 76.799681 
L 137.740015 93.407414 
L 139.747849 121.820135 
L 141.755683 149.714336 
L 142.7596 161.374326 
L 143.763516 170.43952 
L 144.432794 174.729394 
L 145.102072 177.458843 
L 145.436711 178.210642 
L 145.77135 178.545011 
L 146.105989 178.459141 
L 146.440628 177.953356 
L 146.775267 177.03134 
L 147.444545 173.968571 
L 148.113823 169.360776 
L 148.783101 163.344543 
L 149.787018 152.082732 
L 151.125574 134.096382 
L 154.806603 82.353209 
L 156.145158 67.176629 
L 157.149075 57.806317 
L 158.152992 50.225132 
L 159.156909 44.407147 
L 159.826187 41.479129 
L 160.495465 39.289146 
L 161.164743 37.820316 
L 161.834021 37.060149 
L 162.16866 36.943435 
L 162.503299 37.00181 
L 162.837938 37.235461 
L 163.172577 37.645082 
L 163.841855 38.996939 
L 164.511133 41.070297 
L 165.180411 43.882761 
L 165.849689 47.454763 
L 166.853606 54.281077 
L 167.857523 62.911735 
L 168.86144 73.341005 
L 170.199995 89.836923 
L 171.87319 113.544005 
L 174.550302 151.693533 
L 175.554219 163.332347 
L 176.558136 172.244925 
L 177.227414 176.364993 
L 177.896692 178.876304 
L 178.231331 179.502956 
L 178.56597 179.702678 
L 178.900609 179.473637 
L 179.235248 178.817314 
L 179.569887 177.738471 
L 180.239165 174.347718 
L 180.908443 169.400781 
L 181.91236 159.395144 
L 182.916276 146.898121 
L 184.589471 122.813372 
L 186.931944 88.873212 
L 188.2705 72.186055 
L 189.609056 58.464658 
L 190.612973 50.254214 
L 191.61689 43.806529 
L 192.620807 39.053999 
L 193.290085 36.789254 
L 193.959363 35.223739 
L 194.628641 34.342417 
L 194.96328 34.155279 
L 195.297919 34.136364 
L 195.632558 34.285622 
L 195.967197 34.603578 
L 196.636474 35.749885 
L 197.305752 37.587931 
L 197.97503 40.1361 
L 198.644308 43.41701 
L 199.648225 49.7659 
L 200.652142 57.892608 
L 201.656059 67.831266 
L 202.994615 83.79611 
L 204.66781 107.291682 
L 207.679561 151.355441 
L 208.683478 163.400133 
L 209.687394 172.715146 
L 210.356672 177.088344 
L 211.02595 179.832094 
L 211.360589 180.565123 
L 211.695228 180.863636 
L 212.029867 180.72509 
L 212.364506 180.150214 
L 212.699145 179.143159 
L 213.368423 175.864811 
L 214.037701 170.985701 
L 214.706979 164.649872 
L 215.710896 152.83879 
L 217.049452 134.048875 
L 217.384091 129.030248 
L 217.384091 129.030248 
" style="fill:none;stroke:#ff7f0e;stroke-linecap:square;stroke-width:1.5;"/>
   </g>
   <g id="patch_3">
    <path d="M 42.05 188.2 
L 42.05 26.8 
" style="fill:none;stroke:#000000;stroke-linecap:square;stroke-linejoin:miter;stroke-width:0.8;"/>
   </g>
   <g id="patch_4">
    <path d="M 225.733333 188.2 
L 225.733333 26.8 
" style="fill:none;stroke:#000000;stroke-linecap:square;stroke-linejoin:miter;stroke-width:0.8;"/>
   </g>
   <g id="patch_5">
    <path d="M 42.05 188.2 
L 225.733333 188.2 
" style="fill:none;stroke:#000000;stroke-linecap:square;stroke-linejoin:miter;stroke-width:0.8;"/>
   </g>
   <g id="patch_6">
    <path d="M 42.05 26.8 
L 225.733333 26.8 
" style="fill:none;stroke:#000000;stroke-linecap:square;stroke-linejoin:miter;stroke-width:0.8;"/>
   </g>
   <g id="text_11">
    <!-- Position -->
    <defs>
     <path d="M 19.671875 64.796875 
L 19.671875 37.40625 
L 32.078125 37.40625 
Q 38.96875 37.40625 42.71875 40.96875 
Q 46.484375 44.53125 46.484375 51.125 
Q 46.484375 57.671875 42.71875 61.234375 
Q 38.96875 64.796875 32.078125 64.796875 
z
M 9.8125 72.90625 
L 32.078125 72.90625 
Q 44.34375 72.90625 50.609375 67.359375 
Q 56.890625 61.8125 56.890625 51.125 
Q 56.890625 40.328125 50.609375 34.8125 
Q 44.34375 29.296875 32.078125 29.296875 
L 19.671875 29.296875 
L 19.671875 0 
L 9.8125 0 
z
" id="DejaVuSans-50"/>
     <path d="M 30.609375 48.390625 
Q 23.390625 48.390625 19.1875 42.75 
Q 14.984375 37.109375 14.984375 27.296875 
Q 14.984375 17.484375 19.15625 11.84375 
Q 23.34375 6.203125 30.609375 6.203125 
Q 37.796875 6.203125 41.984375 11.859375 
Q 46.1875 17.53125 46.1875 27.296875 
Q 46.1875 37.015625 41.984375 42.703125 
Q 37.796875 48.390625 30.609375 48.390625 
z
M 30.609375 56 
Q 42.328125 56 49.015625 48.375 
Q 55.71875 40.765625 55.71875 27.296875 
Q 55.71875 13.875 49.015625 6.21875 
Q 42.328125 -1.421875 30.609375 -1.421875 
Q 18.84375 -1.421875 12.171875 6.21875 
Q 5.515625 13.875 5.515625 27.296875 
Q 5.515625 40.765625 12.171875 48.375 
Q 18.84375 56 30.609375 56 
z
" id="DejaVuSans-6f"/>
     <path d="M 44.28125 53.078125 
L 44.28125 44.578125 
Q 40.484375 46.53125 36.375 47.5 
Q 32.28125 48.484375 27.875 48.484375 
Q 21.1875 48.484375 17.84375 46.4375 
Q 14.5 44.390625 14.5 40.28125 
Q 14.5 37.15625 16.890625 35.375 
Q 19.28125 33.59375 26.515625 31.984375 
L 29.59375 31.296875 
Q 39.15625 29.25 43.1875 25.515625 
Q 47.21875 21.78125 47.21875 15.09375 
Q 47.21875 7.46875 41.1875 3.015625 
Q 35.15625 -1.421875 24.609375 -1.421875 
Q 20.21875 -1.421875 15.453125 -0.5625 
Q 10.6875 0.296875 5.421875 2 
L 5.421875 11.28125 
Q 10.40625 8.6875 15.234375 7.390625 
Q 20.0625 6.109375 24.8125 6.109375 
Q 31.15625 6.109375 34.5625 8.28125 
Q 37.984375 10.453125 37.984375 14.40625 
Q 37.984375 18.0625 35.515625 20.015625 
Q 33.0625 21.96875 24.703125 23.78125 
L 21.578125 24.515625 
Q 13.234375 26.265625 9.515625 29.90625 
Q 5.8125 33.546875 5.8125 39.890625 
Q 5.8125 47.609375 11.28125 51.796875 
Q 16.75 56 26.8125 56 
Q 31.78125 56 36.171875 55.265625 
Q 40.578125 54.546875 44.28125 53.078125 
z
" id="DejaVuSans-73"/>
     <path d="M 9.421875 54.6875 
L 18.40625 54.6875 
L 18.40625 0 
L 9.421875 0 
z
M 9.421875 75.984375 
L 18.40625 75.984375 
L 18.40625 64.59375 
L 9.421875 64.59375 
z
" id="DejaVuSans-69"/>
     <path d="M 18.3125 70.21875 
L 18.3125 54.6875 
L 36.8125 54.6875 
L 36.8125 47.703125 
L 18.3125 47.703125 
L 18.3125 18.015625 
Q 18.3125 11.328125 20.140625 9.421875 
Q 21.96875 7.515625 27.59375 7.515625 
L 36.8125 7.515625 
L 36.8125 0 
L 27.59375 0 
Q 17.1875 0 13.234375 3.875 
Q 9.28125 7.765625 9.28125 18.015625 
L 9.28125 47.703125 
L 2.6875 47.703125 
L 2.6875 54.6875 
L 9.28125 54.6875 
L 9.28125 70.21875 
z
" id="DejaVuSans-74"/>
     <path d="M 54.890625 33.015625 
L 54.890625 0 
L 45.90625 0 
L 45.90625 32.71875 
Q 45.90625 40.484375 42.875 44.328125 
Q 39.84375 48.1875 33.796875 48.1875 
Q 26.515625 48.1875 22.3125 43.546875 
Q 18.109375 38.921875 18.109375 30.90625 
L 18.109375 0 
L 9.078125 0 
L 9.078125 54.6875 
L 18.109375 54.6875 
L 18.109375 46.1875 
Q 21.34375 51.125 25.703125 53.5625 
Q 30.078125 56 35.796875 56 
Q 45.21875 56 50.046875 50.171875 
Q 54.890625 44.34375 54.890625 33.015625 
z
" id="DejaVuSans-6e"/>
    </defs>
    <g transform="translate(110.320104 20.8)scale(0.12 -0.12)">
     <use xlink:href="#DejaVuSans-50"/>
     <use x="60.255859" xlink:href="#DejaVuSans-6f"/>
     <use x="121.4375" xlink:href="#DejaVuSans-73"/>
     <use x="173.537109" xlink:href="#DejaVuSans-69"/>
     <use x="201.320312" xlink:href="#DejaVuSans-74"/>
     <use x="240.529297" xlink:href="#DejaVuSans-69"/>
     <use x="268.3125" xlink:href="#DejaVuSans-6f"/>
     <use x="329.494141" xlink:href="#DejaVuSans-6e"/>
    </g>
   </g>
  </g>
  <g id="axes_2">
   <g id="patch_7">
    <path d="M 282.033333 188.2 
L 465.716667 188.2 
L 465.716667 26.8 
L 282.033333 26.8 
z
" style="fill:none;"/>
   </g>
   <g id="matplotlib.axis_3">
    <g id="xtick_7">
     <g id="line2d_13">
      <g>
       <use style="stroke:#000000;stroke-width:0.8;" x="290.382576" xlink:href="#m85a6bd5f88" y="188.2"/>
      </g>
     </g>
     <g id="text_12">
      <!-- 0 -->
      <g transform="translate(287.201326 202.798438)scale(0.1 -0.1)">
       <use xlink:href="#DejaVuSans-30"/>
      </g>
     </g>
    </g>
    <g id="xtick_8">
     <g id="line2d_14">
      <g>
       <use style="stroke:#000000;stroke-width:0.8;" x="323.846473" xlink:href="#m85a6bd5f88" y="188.2"/>
      </g>
     </g>
     <g id="text_13">
      <!-- 100 -->
      <g transform="translate(314.302723 202.798438)scale(0.1 -0.1)">
       <use xlink:href="#DejaVuSans-31"/>
       <use x="63.623047" xlink:href="#DejaVuSans-30"/>
       <use x="127.246094" xlink:href="#DejaVuSans-30"/>
      </g>
     </g>
    </g>
    <g id="xtick_9">
     <g id="line2d_15">
      <g>
       <use style="stroke:#000000;stroke-width:0.8;" x="357.310371" xlink:href="#m85a6bd5f88" y="188.2"/>
      </g>
     </g>
     <g id="text_14">
      <!-- 200 -->
      <g transform="translate(347.766621 202.798438)scale(0.1 -0.1)">
       <use xlink:href="#DejaVuSans-32"/>
       <use x="63.623047" xlink:href="#DejaVuSans-30"/>
       <use x="127.246094" xlink:href="#DejaVuSans-30"/>
      </g>
     </g>
    </g>
    <g id="xtick_10">
     <g id="line2d_16">
      <g>
       <use style="stroke:#000000;stroke-width:0.8;" x="390.774268" xlink:href="#m85a6bd5f88" y="188.2"/>
      </g>
     </g>
     <g id="text_15">
      <!-- 300 -->
      <g transform="translate(381.230518 202.798438)scale(0.1 -0.1)">
       <use xlink:href="#DejaVuSans-33"/>
       <use x="63.623047" xlink:href="#DejaVuSans-30"/>
       <use x="127.246094" xlink:href="#DejaVuSans-30"/>
      </g>
     </g>
    </g>
    <g id="xtick_11">
     <g id="line2d_17">
      <g>
       <use style="stroke:#000000;stroke-width:0.8;" x="424.238166" xlink:href="#m85a6bd5f88" y="188.2"/>
      </g>
     </g>
     <g id="text_16">
      <!-- 400 -->
      <g transform="translate(414.694416 202.798438)scale(0.1 -0.1)">
       <use xlink:href="#DejaVuSans-34"/>
       <use x="63.623047" xlink:href="#DejaVuSans-30"/>
       <use x="127.246094" xlink:href="#DejaVuSans-30"/>
      </g>
     </g>
    </g>
    <g id="xtick_12">
     <g id="line2d_18">
      <g>
       <use style="stroke:#000000;stroke-width:0.8;" x="457.702063" xlink:href="#m85a6bd5f88" y="188.2"/>
      </g>
     </g>
     <g id="text_17">
      <!-- 500 -->
      <g transform="translate(448.158313 202.798438)scale(0.1 -0.1)">
       <use xlink:href="#DejaVuSans-35"/>
       <use x="63.623047" xlink:href="#DejaVuSans-30"/>
       <use x="127.246094" xlink:href="#DejaVuSans-30"/>
      </g>
     </g>
    </g>
   </g>
   <g id="matplotlib.axis_4">
    <g id="ytick_5">
     <g id="line2d_19">
      <g>
       <use style="stroke:#000000;stroke-width:0.8;" x="282.033333" xlink:href="#mce80f7d65c" y="165.191975"/>
      </g>
     </g>
     <g id="text_18">
      <!-- −0.02 -->
      <g transform="translate(244.388021 168.991194)scale(0.1 -0.1)">
       <use xlink:href="#DejaVuSans-2212"/>
       <use x="83.789062" xlink:href="#DejaVuSans-30"/>
       <use x="147.412109" xlink:href="#DejaVuSans-2e"/>
       <use x="179.199219" xlink:href="#DejaVuSans-30"/>
       <use x="242.822266" xlink:href="#DejaVuSans-32"/>
      </g>
     </g>
    </g>
    <g id="ytick_6">
     <g id="line2d_20">
      <g>
       <use style="stroke:#000000;stroke-width:0.8;" x="282.033333" xlink:href="#mce80f7d65c" y="136.177666"/>
      </g>
     </g>
     <g id="text_19">
      <!-- −0.01 -->
      <g transform="translate(244.388021 139.976885)scale(0.1 -0.1)">
       <use xlink:href="#DejaVuSans-2212"/>
       <use x="83.789062" xlink:href="#DejaVuSans-30"/>
       <use x="147.412109" xlink:href="#DejaVuSans-2e"/>
       <use x="179.199219" xlink:href="#DejaVuSans-30"/>
       <use x="242.822266" xlink:href="#DejaVuSans-31"/>
      </g>
     </g>
    </g>
    <g id="ytick_7">
     <g id="line2d_21">
      <g>
       <use style="stroke:#000000;stroke-width:0.8;" x="282.033333" xlink:href="#mce80f7d65c" y="107.163357"/>
      </g>
     </g>
     <g id="text_20">
      <!-- 0.00 -->
      <g transform="translate(252.767708 110.962575)scale(0.1 -0.1)">
       <use xlink:href="#DejaVuSans-30"/>
       <use x="63.623047" xlink:href="#DejaVuSans-2e"/>
       <use x="95.410156" xlink:href="#DejaVuSans-30"/>
       <use x="159.033203" xlink:href="#DejaVuSans-30"/>
      </g>
     </g>
    </g>
    <g id="ytick_8">
     <g id="line2d_22">
      <g>
       <use style="stroke:#000000;stroke-width:0.8;" x="282.033333" xlink:href="#mce80f7d65c" y="78.149047"/>
      </g>
     </g>
     <g id="text_21">
      <!-- 0.01 -->
      <g transform="translate(252.767708 81.948266)scale(0.1 -0.1)">
       <use xlink:href="#DejaVuSans-30"/>
       <use x="63.623047" xlink:href="#DejaVuSans-2e"/>
       <use x="95.410156" xlink:href="#DejaVuSans-30"/>
       <use x="159.033203" xlink:href="#DejaVuSans-31"/>
      </g>
     </g>
    </g>
    <g id="ytick_9">
     <g id="line2d_23">
      <g>
       <use style="stroke:#000000;stroke-width:0.8;" x="282.033333" xlink:href="#mce80f7d65c" y="49.134738"/>
      </g>
     </g>
     <g id="text_22">
      <!-- 0.02 -->
      <g transform="translate(252.767708 52.933956)scale(0.1 -0.1)">
       <use xlink:href="#DejaVuSans-30"/>
       <use x="63.623047" xlink:href="#DejaVuSans-2e"/>
       <use x="95.410156" xlink:href="#DejaVuSans-30"/>
       <use x="159.033203" xlink:href="#DejaVuSans-32"/>
      </g>
     </g>
    </g>
   </g>
   <g id="line2d_24">
    <path clip-path="url(#pae5ee23e7c)" d="M 290.382576 107.163357 
L 292.39041 74.33322 
L 293.394327 60.616189 
L 294.398243 49.962889 
L 295.067521 44.8969 
L 295.736799 41.579563 
L 296.071438 40.579882 
L 296.406077 40.009759 
L 296.740716 39.854875 
L 297.075355 40.095839 
L 297.409994 40.70896 
L 298.079272 42.940277 
L 298.74855 46.305131 
L 299.752467 52.916934 
L 301.425662 66.213937 
L 305.775969 101.836412 
L 310.126275 136.902597 
L 313.138026 161.71896 
L 314.141943 168.404568 
L 314.811221 171.794425 
L 315.480499 174.023931 
L 315.815138 174.624858 
L 316.149777 174.845756 
L 316.484416 174.662697 
L 316.819055 174.05605 
L 317.153694 173.011217 
L 317.822972 169.577471 
L 318.49225 164.363803 
L 319.161528 157.470426 
L 320.165445 144.402534 
L 321.504 123.290632 
L 324.85039 67.958366 
L 325.854307 55.155801 
L 326.523585 48.478762 
L 327.192863 43.500008 
L 327.862141 40.304556 
L 328.19678 39.375878 
L 328.531419 38.881583 
L 328.866058 38.805807 
L 329.200697 39.127588 
L 329.535336 39.82171 
L 330.204614 42.209802 
L 330.873892 45.7163 
L 331.877809 52.496707 
L 333.551004 65.934932 
L 337.232032 96.062981 
L 342.586256 138.570411 
L 345.598007 163.367341 
L 346.601924 169.963514 
L 347.271201 173.240699 
L 347.940479 175.306344 
L 348.275118 175.805125 
L 348.609757 175.910464 
L 348.944396 175.598906 
L 349.279035 174.851653 
L 349.613674 173.655325 
L 350.282952 169.892392 
L 350.95223 164.327657 
L 351.621508 157.078269 
L 352.625425 143.500138 
L 353.963981 121.812917 
L 356.975732 70.775886 
L 357.979649 57.072523 
L 358.983566 46.665192 
L 359.652844 41.878068 
L 360.322122 38.909965 
L 360.65676 38.103575 
L 360.991399 37.734467 
L 361.326038 37.784571 
L 361.660677 38.23081 
L 361.995316 39.04599 
L 362.664594 41.659003 
L 363.333872 45.358516 
L 364.337789 52.354468 
L 366.345623 68.763051 
L 369.357374 93.216005 
L 375.380875 140.294709 
L 378.392626 165.062191 
L 379.396543 171.553925 
L 380.065821 174.703731 
L 380.735099 176.587376 
L 381.069738 176.973899 
L 381.404377 176.953057 
L 381.739016 176.502042 
L 382.073655 175.603092 
L 382.408294 174.244281 
L 383.077572 170.131315 
L 383.74685 164.197479 
L 384.750767 152.200667 
L 385.754684 137.201258 
L 387.427878 108.320757 
L 389.435712 73.76694 
L 390.439629 59.199142 
L 391.443546 47.786642 
L 392.112824 42.299764 
L 392.782102 38.64977 
L 393.116741 37.51976 
L 393.45138 36.843731 
L 393.786019 36.606985 
L 394.120658 36.789134 
L 394.455297 37.364916 
L 394.789936 38.3051 
L 395.459214 41.147514 
L 396.128492 45.040222 
L 397.132409 52.245341 
L 399.474882 71.588458 
L 402.151993 92.943614 
L 408.510134 141.729577 
L 411.521885 166.50659 
L 412.525802 172.953131 
L 413.19508 176.032204 
L 413.864358 177.803913 
L 414.198996 178.117721 
L 414.533635 178.012811 
L 414.868274 177.466604 
L 415.202913 176.461886 
L 415.872191 173.039388 
L 416.541469 167.737274 
L 417.210747 160.654496 
L 418.214664 147.128651 
L 419.55322 125.146697 
L 422.89961 66.989969 
L 423.903527 53.360267 
L 424.572805 46.195475 
L 425.242083 40.804035 
L 425.911361 37.287109 
L 426.246 36.23451 
L 426.580639 35.641065 
L 426.915278 35.490348 
L 427.249916 35.760202 
L 427.584555 36.42364 
L 428.253833 38.80476 
L 428.923111 42.35816 
L 429.927028 49.257204 
L 431.600223 62.844775 
L 434.611974 87.267471 
L 437.289086 106.774067 
L 440.300837 128.898342 
L 442.643309 148.101048 
L 444.985782 167.324161 
L 445.989699 173.885248 
L 446.658977 177.047536 
L 447.328255 178.897532 
L 447.662894 179.245602 
L 447.997533 179.170141 
L 448.332172 178.647486 
L 448.666811 177.659453 
L 449.336089 174.24669 
L 450.005367 168.919768 
L 450.674645 161.776897 
L 451.678562 148.099814 
L 453.017118 125.824535 
L 456.363507 66.693583 
L 457.367424 52.7712 
L 457.367424 52.7712 
" style="fill:none;stroke:#1f77b4;stroke-linecap:square;stroke-width:1.5;"/>
   </g>
   <g id="line2d_25">
    <path clip-path="url(#pae5ee23e7c)" d="M 290.382576 107.163357 
L 292.39041 74.025412 
L 293.394327 60.241131 
L 294.398243 49.600348 
L 295.067521 44.582727 
L 295.736799 41.340588 
L 296.071438 40.386938 
L 296.406077 39.867291 
L 296.740716 39.766542 
L 297.075355 40.064695 
L 297.409994 40.737565 
L 298.079272 43.094678 
L 298.74855 46.592579 
L 299.752467 53.417154 
L 301.425662 67.107045 
L 306.445247 109.525226 
L 310.126275 140.776094 
L 312.468748 160.608435 
L 313.472665 167.699264 
L 314.141943 171.412316 
L 314.811221 174.008147 
L 315.14586 174.806227 
L 315.480499 175.231438 
L 315.815138 175.257821 
L 316.149777 174.863473 
L 316.484416 174.031307 
L 316.819055 172.749667 
L 317.488333 168.820899 
L 318.157611 163.104012 
L 319.161528 151.462553 
L 320.165445 136.816143 
L 321.838639 108.470404 
L 323.846473 74.51431 
L 324.85039 60.250902 
L 325.854307 49.132453 
L 326.523585 43.819339 
L 327.192863 40.315034 
L 327.527502 39.246058 
L 327.862141 38.62283 
L 328.19678 38.430799 
L 328.531419 38.650198 
L 328.866058 39.256746 
L 329.535336 41.51664 
L 330.204614 44.958928 
L 331.208531 51.757551 
L 332.881726 65.470494 
L 337.232032 102.133108 
L 341.2477 135.299551 
L 344.59409 163.718065 
L 345.598007 170.487131 
L 346.267285 173.854128 
L 346.936563 175.986525 
L 347.271201 176.508837 
L 347.60584 176.630452 
L 347.940479 176.327578 
L 348.275118 175.581257 
L 348.609757 174.37804 
L 349.279035 170.577453 
L 349.948313 164.94203 
L 350.617591 157.585874 
L 351.621508 143.779116 
L 352.960064 121.690674 
L 355.971815 69.821152 
L 356.975732 56.019834 
L 357.979649 45.642891 
L 358.648927 40.940256 
L 359.318205 38.099085 
L 359.652844 37.368881 
L 359.987483 37.082387 
L 360.322122 37.220125 
L 360.65676 37.757769 
L 360.991399 38.66698 
L 361.660677 41.472345 
L 362.329955 45.365415 
L 363.333872 52.647512 
L 365.341706 69.600259 
L 368.353457 94.842729 
L 374.042319 141.122595 
L 377.05407 166.485307 
L 378.057987 172.962431 
L 378.727265 176.016787 
L 379.061904 177.058817 
L 379.396543 177.732787 
L 379.731182 178.008526 
L 380.065821 177.859688 
L 380.40046 177.264648 
L 380.735099 176.207275 
L 381.404377 172.671779 
L 382.073655 167.250901 
L 382.742933 160.044879 
L 383.74685 146.325874 
L 385.085406 124.091839 
L 388.431795 65.803917 
L 389.435712 52.402493 
L 390.10499 45.460174 
L 390.774268 40.331431 
L 391.443546 37.100662 
L 391.778185 36.194747 
L 392.112824 35.747493 
L 392.447463 35.740568 
L 392.782102 36.15033 
L 393.116741 36.948657 
L 393.786019 39.581889 
L 394.455297 43.362941 
L 395.459214 50.564517 
L 397.467048 67.501656 
L 400.14416 89.904076 
L 407.506217 149.02555 
L 409.514051 165.99554 
L 410.517968 172.971024 
L 411.187246 176.471968 
L 411.856524 178.711722 
L 412.191163 179.271233 
L 412.525802 179.41583 
L 412.860441 179.11961 
L 413.19508 178.361853 
L 413.529719 177.127772 
L 414.198996 173.204155 
L 414.868274 167.363751 
L 415.537552 159.726452 
L 416.541469 145.379793 
L 417.880025 122.422558 
L 420.891776 68.458596 
L 421.895693 54.064859 
L 422.89961 43.228877 
L 423.568888 38.314654 
L 424.238166 35.344043 
L 424.572805 34.579379 
L 424.907444 34.27731 
L 425.242083 34.416814 
L 425.576722 34.971623 
L 425.911361 35.911142 
L 426.580639 38.806495 
L 427.249916 42.8112 
L 428.253833 50.257731 
L 430.596306 70.225855 
L 432.938779 89.397447 
L 435.95053 111.789986 
L 438.293003 129.678978 
L 440.635475 149.504545 
L 442.977948 169.215634 
L 443.981865 175.813797 
L 444.651143 178.912178 
L 444.985782 179.957303 
L 445.320421 180.618534 
L 445.65506 180.863636 
L 445.989699 180.664592 
L 446.324338 179.998574 
L 446.658977 178.848769 
L 447.328255 175.064058 
L 447.997533 169.313392 
L 448.666811 161.709262 
L 449.670728 147.301695 
L 451.009284 124.06983 
L 454.355673 63.558679 
L 455.35959 49.731525 
L 456.028868 42.60463 
L 456.698146 37.37845 
L 457.367424 34.136364 
L 457.367424 34.136364 
" style="fill:none;stroke:#ff7f0e;stroke-linecap:square;stroke-width:1.5;"/>
   </g>
   <g id="patch_8">
    <path d="M 282.033333 188.2 
L 282.033333 26.8 
" style="fill:none;stroke:#000000;stroke-linecap:square;stroke-linejoin:miter;stroke-width:0.8;"/>
   </g>
   <g id="patch_9">
    <path d="M 465.716667 188.2 
L 465.716667 26.8 
" style="fill:none;stroke:#000000;stroke-linecap:square;stroke-linejoin:miter;stroke-width:0.8;"/>
   </g>
   <g id="patch_10">
    <path d="M 282.033333 188.2 
L 465.716667 188.2 
" style="fill:none;stroke:#000000;stroke-linecap:square;stroke-linejoin:miter;stroke-width:0.8;"/>
   </g>
   <g id="patch_11">
    <path d="M 282.033333 26.8 
L 465.716667 26.8 
" style="fill:none;stroke:#000000;stroke-linecap:square;stroke-linejoin:miter;stroke-width:0.8;"/>
   </g>
   <g id="text_23">
    <!-- Velocity -->
    <defs>
     <path d="M 28.609375 0 
L 0.78125 72.90625 
L 11.078125 72.90625 
L 34.1875 11.53125 
L 57.328125 72.90625 
L 67.578125 72.90625 
L 39.796875 0 
z
" id="DejaVuSans-56"/>
     <path d="M 56.203125 29.59375 
L 56.203125 25.203125 
L 14.890625 25.203125 
Q 15.484375 15.921875 20.484375 11.0625 
Q 25.484375 6.203125 34.421875 6.203125 
Q 39.59375 6.203125 44.453125 7.46875 
Q 49.3125 8.734375 54.109375 11.28125 
L 54.109375 2.78125 
Q 49.265625 0.734375 44.1875 -0.34375 
Q 39.109375 -1.421875 33.890625 -1.421875 
Q 20.796875 -1.421875 13.15625 6.1875 
Q 5.515625 13.8125 5.515625 26.8125 
Q 5.515625 40.234375 12.765625 48.109375 
Q 20.015625 56 32.328125 56 
Q 43.359375 56 49.78125 48.890625 
Q 56.203125 41.796875 56.203125 29.59375 
z
M 47.21875 32.234375 
Q 47.125 39.59375 43.09375 43.984375 
Q 39.0625 48.390625 32.421875 48.390625 
Q 24.90625 48.390625 20.390625 44.140625 
Q 15.875 39.890625 15.1875 32.171875 
z
" id="DejaVuSans-65"/>
     <path d="M 9.421875 75.984375 
L 18.40625 75.984375 
L 18.40625 0 
L 9.421875 0 
z
" id="DejaVuSans-6c"/>
     <path d="M 48.78125 52.59375 
L 48.78125 44.1875 
Q 44.96875 46.296875 41.140625 47.34375 
Q 37.3125 48.390625 33.40625 48.390625 
Q 24.65625 48.390625 19.8125 42.84375 
Q 14.984375 37.3125 14.984375 27.296875 
Q 14.984375 17.28125 19.8125 11.734375 
Q 24.65625 6.203125 33.40625 6.203125 
Q 37.3125 6.203125 41.140625 7.25 
Q 44.96875 8.296875 48.78125 10.40625 
L 48.78125 2.09375 
Q 45.015625 0.34375 40.984375 -0.53125 
Q 36.96875 -1.421875 32.421875 -1.421875 
Q 20.0625 -1.421875 12.78125 6.34375 
Q 5.515625 14.109375 5.515625 27.296875 
Q 5.515625 40.671875 12.859375 48.328125 
Q 20.21875 56 33.015625 56 
Q 37.15625 56 41.109375 55.140625 
Q 45.0625 54.296875 48.78125 52.59375 
z
" id="DejaVuSans-63"/>
     <path d="M 32.171875 -5.078125 
Q 28.375 -14.84375 24.75 -17.8125 
Q 21.140625 -20.796875 15.09375 -20.796875 
L 7.90625 -20.796875 
L 7.90625 -13.28125 
L 13.1875 -13.28125 
Q 16.890625 -13.28125 18.9375 -11.515625 
Q 21 -9.765625 23.484375 -3.21875 
L 25.09375 0.875 
L 2.984375 54.6875 
L 12.5 54.6875 
L 29.59375 11.921875 
L 46.6875 54.6875 
L 56.203125 54.6875 
z
" id="DejaVuSans-79"/>
    </defs>
    <g transform="translate(349.877812 20.8)scale(0.12 -0.12)">
     <use xlink:href="#DejaVuSans-56"/>
     <use x="68.298828" xlink:href="#DejaVuSans-65"/>
     <use x="129.822266" xlink:href="#DejaVuSans-6c"/>
     <use x="157.605469" xlink:href="#DejaVuSans-6f"/>
     <use x="218.787109" xlink:href="#DejaVuSans-63"/>
     <use x="273.767578" xlink:href="#DejaVuSans-69"/>
     <use x="301.550781" xlink:href="#DejaVuSans-74"/>
     <use x="340.759766" xlink:href="#DejaVuSans-79"/>
    </g>
   </g>
  </g>
  <g id="axes_3">
   <g id="patch_12">
    <path d="M 522.016667 188.2 
L 705.7 188.2 
L 705.7 26.8 
L 522.016667 26.8 
z
" style="fill:none;"/>
   </g>
   <g id="matplotlib.axis_5">
    <g id="xtick_13">
     <g id="line2d_26">
      <g>
       <use style="stroke:#000000;stroke-width:0.8;" x="530.365909" xlink:href="#m85a6bd5f88" y="188.2"/>
      </g>
     </g>
     <g id="text_24">
      <!-- 0 -->
      <g transform="translate(527.184659 202.798438)scale(0.1 -0.1)">
       <use xlink:href="#DejaVuSans-30"/>
      </g>
     </g>
    </g>
    <g id="xtick_14">
     <g id="line2d_27">
      <g>
       <use style="stroke:#000000;stroke-width:0.8;" x="563.829807" xlink:href="#m85a6bd5f88" y="188.2"/>
      </g>
     </g>
     <g id="text_25">
      <!-- 100 -->
      <g transform="translate(554.286057 202.798438)scale(0.1 -0.1)">
       <use xlink:href="#DejaVuSans-31"/>
       <use x="63.623047" xlink:href="#DejaVuSans-30"/>
       <use x="127.246094" xlink:href="#DejaVuSans-30"/>
      </g>
     </g>
    </g>
    <g id="xtick_15">
     <g id="line2d_28">
      <g>
       <use style="stroke:#000000;stroke-width:0.8;" x="597.293704" xlink:href="#m85a6bd5f88" y="188.2"/>
      </g>
     </g>
     <g id="text_26">
      <!-- 200 -->
      <g transform="translate(587.749954 202.798438)scale(0.1 -0.1)">
       <use xlink:href="#DejaVuSans-32"/>
       <use x="63.623047" xlink:href="#DejaVuSans-30"/>
       <use x="127.246094" xlink:href="#DejaVuSans-30"/>
      </g>
     </g>
    </g>
    <g id="xtick_16">
     <g id="line2d_29">
      <g>
       <use style="stroke:#000000;stroke-width:0.8;" x="630.757602" xlink:href="#m85a6bd5f88" y="188.2"/>
      </g>
     </g>
     <g id="text_27">
      <!-- 300 -->
      <g transform="translate(621.213852 202.798438)scale(0.1 -0.1)">
       <use xlink:href="#DejaVuSans-33"/>
       <use x="63.623047" xlink:href="#DejaVuSans-30"/>
       <use x="127.246094" xlink:href="#DejaVuSans-30"/>
      </g>
     </g>
    </g>
    <g id="xtick_17">
     <g id="line2d_30">
      <g>
       <use style="stroke:#000000;stroke-width:0.8;" x="664.221499" xlink:href="#m85a6bd5f88" y="188.2"/>
      </g>
     </g>
     <g id="text_28">
      <!-- 400 -->
      <g transform="translate(654.677749 202.798438)scale(0.1 -0.1)">
       <use xlink:href="#DejaVuSans-34"/>
       <use x="63.623047" xlink:href="#DejaVuSans-30"/>
       <use x="127.246094" xlink:href="#DejaVuSans-30"/>
      </g>
     </g>
    </g>
    <g id="xtick_18">
     <g id="line2d_31">
      <g>
       <use style="stroke:#000000;stroke-width:0.8;" x="697.685397" xlink:href="#m85a6bd5f88" y="188.2"/>
      </g>
     </g>
     <g id="text_29">
      <!-- 500 -->
      <g transform="translate(688.141647 202.798438)scale(0.1 -0.1)">
       <use xlink:href="#DejaVuSans-35"/>
       <use x="63.623047" xlink:href="#DejaVuSans-30"/>
       <use x="127.246094" xlink:href="#DejaVuSans-30"/>
      </g>
     </g>
    </g>
   </g>
   <g id="matplotlib.axis_6">
    <g id="ytick_10">
     <g id="line2d_32">
      <g>
       <use style="stroke:#000000;stroke-width:0.8;" x="522.016667" xlink:href="#mce80f7d65c" y="178.545262"/>
      </g>
     </g>
     <g id="text_30">
      <!-- 0.9850 -->
      <defs>
       <path d="M 10.984375 1.515625 
L 10.984375 10.5 
Q 14.703125 8.734375 18.5 7.8125 
Q 22.3125 6.890625 25.984375 6.890625 
Q 35.75 6.890625 40.890625 13.453125 
Q 46.046875 20.015625 46.78125 33.40625 
Q 43.953125 29.203125 39.59375 26.953125 
Q 35.25 24.703125 29.984375 24.703125 
Q 19.046875 24.703125 12.671875 31.3125 
Q 6.296875 37.9375 6.296875 49.421875 
Q 6.296875 60.640625 12.9375 67.421875 
Q 19.578125 74.21875 30.609375 74.21875 
Q 43.265625 74.21875 49.921875 64.515625 
Q 56.59375 54.828125 56.59375 36.375 
Q 56.59375 19.140625 48.40625 8.859375 
Q 40.234375 -1.421875 26.421875 -1.421875 
Q 22.703125 -1.421875 18.890625 -0.6875 
Q 15.09375 0.046875 10.984375 1.515625 
z
M 30.609375 32.421875 
Q 37.25 32.421875 41.125 36.953125 
Q 45.015625 41.5 45.015625 49.421875 
Q 45.015625 57.28125 41.125 61.84375 
Q 37.25 66.40625 30.609375 66.40625 
Q 23.96875 66.40625 20.09375 61.84375 
Q 16.21875 57.28125 16.21875 49.421875 
Q 16.21875 41.5 20.09375 36.953125 
Q 23.96875 32.421875 30.609375 32.421875 
z
" id="DejaVuSans-39"/>
       <path d="M 31.78125 34.625 
Q 24.75 34.625 20.71875 30.859375 
Q 16.703125 27.09375 16.703125 20.515625 
Q 16.703125 13.921875 20.71875 10.15625 
Q 24.75 6.390625 31.78125 6.390625 
Q 38.8125 6.390625 42.859375 10.171875 
Q 46.921875 13.96875 46.921875 20.515625 
Q 46.921875 27.09375 42.890625 30.859375 
Q 38.875 34.625 31.78125 34.625 
z
M 21.921875 38.8125 
Q 15.578125 40.375 12.03125 44.71875 
Q 8.5 49.078125 8.5 55.328125 
Q 8.5 64.0625 14.71875 69.140625 
Q 20.953125 74.21875 31.78125 74.21875 
Q 42.671875 74.21875 48.875 69.140625 
Q 55.078125 64.0625 55.078125 55.328125 
Q 55.078125 49.078125 51.53125 44.71875 
Q 48 40.375 41.703125 38.8125 
Q 48.828125 37.15625 52.796875 32.3125 
Q 56.78125 27.484375 56.78125 20.515625 
Q 56.78125 9.90625 50.3125 4.234375 
Q 43.84375 -1.421875 31.78125 -1.421875 
Q 19.734375 -1.421875 13.25 4.234375 
Q 6.78125 9.90625 6.78125 20.515625 
Q 6.78125 27.484375 10.78125 32.3125 
Q 14.796875 37.15625 21.921875 38.8125 
z
M 18.3125 54.390625 
Q 18.3125 48.734375 21.84375 45.5625 
Q 25.390625 42.390625 31.78125 42.390625 
Q 38.140625 42.390625 41.71875 45.5625 
Q 45.3125 48.734375 45.3125 54.390625 
Q 45.3125 60.0625 41.71875 63.234375 
Q 38.140625 66.40625 31.78125 66.40625 
Q 25.390625 66.40625 21.84375 63.234375 
Q 18.3125 60.0625 18.3125 54.390625 
z
" id="DejaVuSans-38"/>
      </defs>
      <g transform="translate(480.026042 182.344481)scale(0.1 -0.1)">
       <use xlink:href="#DejaVuSans-30"/>
       <use x="63.623047" xlink:href="#DejaVuSans-2e"/>
       <use x="95.410156" xlink:href="#DejaVuSans-39"/>
       <use x="159.033203" xlink:href="#DejaVuSans-38"/>
       <use x="222.65625" xlink:href="#DejaVuSans-35"/>
       <use x="286.279297" xlink:href="#DejaVuSans-30"/>
      </g>
     </g>
    </g>
    <g id="ytick_11">
     <g id="line2d_33">
      <g>
       <use style="stroke:#000000;stroke-width:0.8;" x="522.016667" xlink:href="#mce80f7d65c" y="154.477112"/>
      </g>
     </g>
     <g id="text_31">
      <!-- 0.9875 -->
      <defs>
       <path d="M 8.203125 72.90625 
L 55.078125 72.90625 
L 55.078125 68.703125 
L 28.609375 0 
L 18.3125 0 
L 43.21875 64.59375 
L 8.203125 64.59375 
z
" id="DejaVuSans-37"/>
      </defs>
      <g transform="translate(480.026042 158.276331)scale(0.1 -0.1)">
       <use xlink:href="#DejaVuSans-30"/>
       <use x="63.623047" xlink:href="#DejaVuSans-2e"/>
       <use x="95.410156" xlink:href="#DejaVuSans-39"/>
       <use x="159.033203" xlink:href="#DejaVuSans-38"/>
       <use x="222.65625" xlink:href="#DejaVuSans-37"/>
       <use x="286.279297" xlink:href="#DejaVuSans-35"/>
      </g>
     </g>
    </g>
    <g id="ytick_12">
     <g id="line2d_34">
      <g>
       <use style="stroke:#000000;stroke-width:0.8;" x="522.016667" xlink:href="#mce80f7d65c" y="130.408963"/>
      </g>
     </g>
     <g id="text_32">
      <!-- 0.9900 -->
      <g transform="translate(480.026042 134.208181)scale(0.1 -0.1)">
       <use xlink:href="#DejaVuSans-30"/>
       <use x="63.623047" xlink:href="#DejaVuSans-2e"/>
       <use x="95.410156" xlink:href="#DejaVuSans-39"/>
       <use x="159.033203" xlink:href="#DejaVuSans-39"/>
       <use x="222.65625" xlink:href="#DejaVuSans-30"/>
       <use x="286.279297" xlink:href="#DejaVuSans-30"/>
      </g>
     </g>
    </g>
    <g id="ytick_13">
     <g id="line2d_35">
      <g>
       <use style="stroke:#000000;stroke-width:0.8;" x="522.016667" xlink:href="#mce80f7d65c" y="106.340813"/>
      </g>
     </g>
     <g id="text_33">
      <!-- 0.9925 -->
      <g transform="translate(480.026042 110.140032)scale(0.1 -0.1)">
       <use xlink:href="#DejaVuSans-30"/>
       <use x="63.623047" xlink:href="#DejaVuSans-2e"/>
       <use x="95.410156" xlink:href="#DejaVuSans-39"/>
       <use x="159.033203" xlink:href="#DejaVuSans-39"/>
       <use x="222.65625" xlink:href="#DejaVuSans-32"/>
       <use x="286.279297" xlink:href="#DejaVuSans-35"/>
      </g>
     </g>
    </g>
    <g id="ytick_14">
     <g id="line2d_36">
      <g>
       <use style="stroke:#000000;stroke-width:0.8;" x="522.016667" xlink:href="#mce80f7d65c" y="82.272663"/>
      </g>
     </g>
     <g id="text_34">
      <!-- 0.9950 -->
      <g transform="translate(480.026042 86.071882)scale(0.1 -0.1)">
       <use xlink:href="#DejaVuSans-30"/>
       <use x="63.623047" xlink:href="#DejaVuSans-2e"/>
       <use x="95.410156" xlink:href="#DejaVuSans-39"/>
       <use x="159.033203" xlink:href="#DejaVuSans-39"/>
       <use x="222.65625" xlink:href="#DejaVuSans-35"/>
       <use x="286.279297" xlink:href="#DejaVuSans-30"/>
      </g>
     </g>
    </g>
    <g id="ytick_15">
     <g id="line2d_37">
      <g>
       <use style="stroke:#000000;stroke-width:0.8;" x="522.016667" xlink:href="#mce80f7d65c" y="58.204513"/>
      </g>
     </g>
     <g id="text_35">
      <!-- 0.9975 -->
      <g transform="translate(480.026042 62.003732)scale(0.1 -0.1)">
       <use xlink:href="#DejaVuSans-30"/>
       <use x="63.623047" xlink:href="#DejaVuSans-2e"/>
       <use x="95.410156" xlink:href="#DejaVuSans-39"/>
       <use x="159.033203" xlink:href="#DejaVuSans-39"/>
       <use x="222.65625" xlink:href="#DejaVuSans-37"/>
       <use x="286.279297" xlink:href="#DejaVuSans-35"/>
      </g>
     </g>
    </g>
    <g id="ytick_16">
     <g id="line2d_38">
      <g>
       <use style="stroke:#000000;stroke-width:0.8;" x="522.016667" xlink:href="#mce80f7d65c" y="34.136364"/>
      </g>
     </g>
     <g id="text_36">
      <!-- 1.0000 -->
      <g transform="translate(480.026042 37.935582)scale(0.1 -0.1)">
       <use xlink:href="#DejaVuSans-31"/>
       <use x="63.623047" xlink:href="#DejaVuSans-2e"/>
       <use x="95.410156" xlink:href="#DejaVuSans-30"/>
       <use x="159.033203" xlink:href="#DejaVuSans-30"/>
       <use x="222.65625" xlink:href="#DejaVuSans-30"/>
       <use x="286.279297" xlink:href="#DejaVuSans-30"/>
      </g>
     </g>
    </g>
   </g>
   <g id="line2d_39">
    <path clip-path="url(#p71c46263f1)" d="M 530.365909 34.136364 
L 546.42858 34.136364 
L 548.771053 71.173857 
L 553.790637 151.983049 
L 554.459915 159.689717 
L 555.129193 165.348366 
L 555.463832 167.24671 
L 555.798471 168.443074 
L 556.13311 168.882851 
L 556.467749 168.518407 
L 556.802388 167.310655 
L 557.137027 165.230533 
L 557.806305 158.394409 
L 558.475583 148.014703 
L 559.144861 134.290924 
L 560.148778 108.27452 
L 561.487334 66.243585 
L 562.491251 34.136364 
L 578.553921 34.136364 
L 578.88856 37.817302 
L 581.900311 85.506996 
L 585.915979 150.765884 
L 586.919896 162.693245 
L 587.589174 168.07788 
L 587.923813 169.799819 
L 588.258452 170.792825 
L 588.593091 171.002541 
L 588.92773 170.382272 
L 589.262369 168.894591 
L 589.597008 166.512865 
L 590.266286 159.021375 
L 590.935564 147.942742 
L 591.604842 133.510191 
L 592.608758 106.477974 
L 593.947314 63.301654 
L 594.616592 40.076623 
L 594.951231 34.136364 
L 611.013902 34.136364 
L 611.348541 36.751204 
L 614.360292 83.478693 
L 619.045237 158.421007 
L 619.714515 165.745706 
L 620.383793 170.82347 
L 620.718432 172.350181 
L 621.053071 173.119697 
L 621.38771 173.078202 
L 621.722349 172.180293 
L 622.056988 170.390605 
L 622.391627 167.685397 
L 623.060905 159.497038 
L 623.730183 147.683575 
L 624.7341 123.799547 
L 625.738017 93.937757 
L 627.411212 36.440591 
L 627.745851 34.136364 
L 643.808522 34.136364 
L 644.143161 35.475121 
L 647.154911 81.020946 
L 650.166662 131.190021 
L 651.505218 152.280701 
L 652.509135 165.114891 
L 653.178413 171.244909 
L 653.513052 173.367743 
L 653.847691 174.772142 
L 654.18233 175.39689 
L 654.516969 175.188029 
L 654.851608 174.100604 
L 655.186247 172.100347 
L 655.855525 165.286617 
L 656.524803 154.730827 
L 657.194081 140.629976 
L 658.197998 113.701852 
L 659.536553 69.938757 
L 660.54047 34.136364 
L 677.272419 34.136364 
L 677.941697 42.84379 
L 680.618809 82.634936 
L 682.961282 121.313982 
L 684.969116 153.908375 
L 685.973032 166.97061 
L 686.64231 173.266297 
L 687.311588 176.949388 
L 687.646227 177.642348 
L 687.980866 177.492116 
L 688.315505 176.451581 
L 688.650144 174.484541 
L 689.319422 167.690192 
L 689.9887 157.085012 
L 690.657978 142.864523 
L 691.661895 115.635304 
L 693.000451 71.288242 
L 694.004368 34.861728 
L 694.339007 34.136364 
L 697.350758 34.136364 
L 697.350758 34.136364 
" style="fill:none;stroke:#1f77b4;stroke-linecap:square;stroke-width:1.5;"/>
   </g>
   <g id="line2d_40">
    <path clip-path="url(#p71c46263f1)" d="M 530.365909 34.136364 
L 546.093941 34.136364 
L 546.763219 44.327722 
L 550.109609 101.05477 
L 552.452081 140.538274 
L 553.455998 154.655155 
L 554.125276 162.047338 
L 554.794554 167.215286 
L 555.129193 168.804155 
L 555.463832 169.650693 
L 555.798471 169.703217 
L 556.13311 168.918124 
L 556.467749 167.261394 
L 556.802388 164.709822 
L 557.471666 156.888177 
L 558.140944 145.50663 
L 559.144861 122.330063 
L 560.148778 93.171045 
L 561.821973 36.738518 
L 562.156612 34.136364 
L 577.550005 34.136364 
L 577.884644 34.869753 
L 581.231033 90.151716 
L 584.577423 146.729126 
L 585.58134 160.20542 
L 586.250618 166.908655 
L 586.919896 171.153968 
L 587.254535 172.19382 
L 587.589174 172.43594 
L 587.923813 171.83296 
L 588.258452 170.347135 
L 588.593091 167.951693 
L 589.262369 160.385239 
L 589.931647 149.165874 
L 590.600925 134.520765 
L 591.604842 107.033381 
L 592.943397 63.058285 
L 593.612675 39.398831 
L 593.947314 34.136364 
L 609.675346 34.136364 
L 610.009985 35.958401 
L 613.021736 84.540218 
L 617.372043 156.946156 
L 618.375959 168.472641 
L 619.045237 173.288757 
L 619.379876 174.630539 
L 619.714515 175.179499 
L 620.049154 174.883182 
L 620.383793 173.698539 
L 620.718432 171.593452 
L 621.38771 164.554757 
L 622.056988 153.762525 
L 622.726266 139.416311 
L 623.730183 112.10363 
L 625.068739 67.838679 
L 626.072656 34.136364 
L 642.135327 34.136364 
L 642.469966 35.827457 
L 645.481716 83.087163 
L 650.501301 165.150515 
L 651.170579 172.120419 
L 651.839857 176.579466 
L 652.174496 177.693376 
L 652.509135 177.98125 
L 652.843774 177.391516 
L 653.178413 175.882925 
L 653.513052 173.426036 
L 654.18233 165.614646 
L 654.851608 153.987194 
L 655.520886 138.782367 
L 656.524803 110.220111 
L 657.863359 64.515367 
L 658.532636 39.922181 
L 658.867275 34.136364 
L 675.264585 34.136364 
L 676.268502 48.262572 
L 678.610975 84.356954 
L 680.953448 124.284136 
L 682.961282 157.674041 
L 683.965199 170.810089 
L 684.634477 176.978547 
L 684.969116 179.05925 
L 685.303754 180.375671 
L 685.638393 180.863636 
L 685.973032 180.467366 
L 686.307671 179.141415 
L 686.64231 176.852309 
L 687.311588 169.317461 
L 687.980866 157.868665 
L 688.650144 142.729872 
L 689.654061 114.046358 
L 690.992617 67.794863 
L 691.996534 34.136364 
L 697.350758 34.136364 
L 697.350758 34.136364 
" style="fill:none;stroke:#ff7f0e;stroke-linecap:square;stroke-width:1.5;"/>
   </g>
   <g id="patch_13">
    <path d="M 522.016667 188.2 
L 522.016667 26.8 
" style="fill:none;stroke:#000000;stroke-linecap:square;stroke-linejoin:miter;stroke-width:0.8;"/>
   </g>
   <g id="patch_14">
    <path d="M 705.7 188.2 
L 705.7 26.8 
" style="fill:none;stroke:#000000;stroke-linecap:square;stroke-linejoin:miter;stroke-width:0.8;"/>
   </g>
   <g id="patch_15">
    <path d="M 522.016667 188.2 
L 705.7 188.2 
" style="fill:none;stroke:#000000;stroke-linecap:square;stroke-linejoin:miter;stroke-width:0.8;"/>
   </g>
   <g id="patch_16">
    <path d="M 522.016667 26.8 
L 705.7 26.8 
" style="fill:none;stroke:#000000;stroke-linecap:square;stroke-linejoin:miter;stroke-width:0.8;"/>
   </g>
   <g id="text_37">
    <!-- Control Input -->
    <defs>
     <path d="M 64.40625 67.28125 
L 64.40625 56.890625 
Q 59.421875 61.53125 53.78125 63.8125 
Q 48.140625 66.109375 41.796875 66.109375 
Q 29.296875 66.109375 22.65625 58.46875 
Q 16.015625 50.828125 16.015625 36.375 
Q 16.015625 21.96875 22.65625 14.328125 
Q 29.296875 6.6875 41.796875 6.6875 
Q 48.140625 6.6875 53.78125 8.984375 
Q 59.421875 11.28125 64.40625 15.921875 
L 64.40625 5.609375 
Q 59.234375 2.09375 53.4375 0.328125 
Q 47.65625 -1.421875 41.21875 -1.421875 
Q 24.65625 -1.421875 15.125 8.703125 
Q 5.609375 18.84375 5.609375 36.375 
Q 5.609375 53.953125 15.125 64.078125 
Q 24.65625 74.21875 41.21875 74.21875 
Q 47.75 74.21875 53.53125 72.484375 
Q 59.328125 70.75 64.40625 67.28125 
z
" id="DejaVuSans-43"/>
     <path d="M 41.109375 46.296875 
Q 39.59375 47.171875 37.8125 47.578125 
Q 36.03125 48 33.890625 48 
Q 26.265625 48 22.1875 43.046875 
Q 18.109375 38.09375 18.109375 28.8125 
L 18.109375 0 
L 9.078125 0 
L 9.078125 54.6875 
L 18.109375 54.6875 
L 18.109375 46.1875 
Q 20.953125 51.171875 25.484375 53.578125 
Q 30.03125 56 36.53125 56 
Q 37.453125 56 38.578125 55.875 
Q 39.703125 55.765625 41.0625 55.515625 
z
" id="DejaVuSans-72"/>
     <path id="DejaVuSans-20"/>
     <path d="M 9.8125 72.90625 
L 19.671875 72.90625 
L 19.671875 0 
L 9.8125 0 
z
" id="DejaVuSans-49"/>
     <path d="M 18.109375 8.203125 
L 18.109375 -20.796875 
L 9.078125 -20.796875 
L 9.078125 54.6875 
L 18.109375 54.6875 
L 18.109375 46.390625 
Q 20.953125 51.265625 25.265625 53.625 
Q 29.59375 56 35.59375 56 
Q 45.5625 56 51.78125 48.09375 
Q 58.015625 40.1875 58.015625 27.296875 
Q 58.015625 14.40625 51.78125 6.484375 
Q 45.5625 -1.421875 35.59375 -1.421875 
Q 29.59375 -1.421875 25.265625 0.953125 
Q 20.953125 3.328125 18.109375 8.203125 
z
M 48.6875 27.296875 
Q 48.6875 37.203125 44.609375 42.84375 
Q 40.53125 48.484375 33.40625 48.484375 
Q 26.265625 48.484375 22.1875 42.84375 
Q 18.109375 37.203125 18.109375 27.296875 
Q 18.109375 17.390625 22.1875 11.75 
Q 26.265625 6.109375 33.40625 6.109375 
Q 40.53125 6.109375 44.609375 11.75 
Q 48.6875 17.390625 48.6875 27.296875 
z
" id="DejaVuSans-70"/>
     <path d="M 8.5 21.578125 
L 8.5 54.6875 
L 17.484375 54.6875 
L 17.484375 21.921875 
Q 17.484375 14.15625 20.5 10.265625 
Q 23.53125 6.390625 29.59375 6.390625 
Q 36.859375 6.390625 41.078125 11.03125 
Q 45.3125 15.671875 45.3125 23.6875 
L 45.3125 54.6875 
L 54.296875 54.6875 
L 54.296875 0 
L 45.3125 0 
L 45.3125 8.40625 
Q 42.046875 3.421875 37.71875 1 
Q 33.40625 -1.421875 27.6875 -1.421875 
Q 18.265625 -1.421875 13.375 4.4375 
Q 8.5 10.296875 8.5 21.578125 
z
M 31.109375 56 
z
" id="DejaVuSans-75"/>
    </defs>
    <g transform="translate(574.596771 20.8)scale(0.12 -0.12)">
     <use xlink:href="#DejaVuSans-43"/>
     <use x="69.824219" xlink:href="#DejaVuSans-6f"/>
     <use x="131.005859" xlink:href="#DejaVuSans-6e"/>
     <use x="194.384766" xlink:href="#DejaVuSans-74"/>
     <use x="233.59375" xlink:href="#DejaVuSans-72"/>
     <use x="274.675781" xlink:href="#DejaVuSans-6f"/>
     <use x="335.857422" xlink:href="#DejaVuSans-6c"/>
     <use x="363.640625" xlink:href="#DejaVuSans-20"/>
     <use x="395.427734" xlink:href="#DejaVuSans-49"/>
     <use x="424.919922" xlink:href="#DejaVuSans-6e"/>
     <use x="488.298828" xlink:href="#DejaVuSans-70"/>
     <use x="551.775391" xlink:href="#DejaVuSans-75"/>
     <use x="615.154297" xlink:href="#DejaVuSans-74"/>
    </g>
   </g>
  </g>
  <g id="legend_1">
   <g id="patch_17">
    <path d="M 627.734375 211 
L 713 211 
Q 715 211 715 209 
L 715 180.64375 
Q 715 178.64375 713 178.64375 
L 627.734375 178.64375 
Q 625.734375 178.64375 625.734375 180.64375 
L 625.734375 209 
Q 625.734375 211 627.734375 211 
z
" style="fill:#ffffff;opacity:0.8;stroke:#cccccc;stroke-linejoin:miter;"/>
   </g>
   <g id="line2d_41">
    <path d="M 629.734375 186.742188 
L 649.734375 186.742188 
" style="fill:none;stroke:#1f77b4;stroke-linecap:square;stroke-width:1.5;"/>
   </g>
   <g id="line2d_42"/>
   <g id="text_38">
    <!-- Emulation -->
    <defs>
     <path d="M 9.8125 72.90625 
L 55.90625 72.90625 
L 55.90625 64.59375 
L 19.671875 64.59375 
L 19.671875 43.015625 
L 54.390625 43.015625 
L 54.390625 34.71875 
L 19.671875 34.71875 
L 19.671875 8.296875 
L 56.78125 8.296875 
L 56.78125 0 
L 9.8125 0 
z
" id="DejaVuSans-45"/>
     <path d="M 52 44.1875 
Q 55.375 50.25 60.0625 53.125 
Q 64.75 56 71.09375 56 
Q 79.640625 56 84.28125 50.015625 
Q 88.921875 44.046875 88.921875 33.015625 
L 88.921875 0 
L 79.890625 0 
L 79.890625 32.71875 
Q 79.890625 40.578125 77.09375 44.375 
Q 74.3125 48.1875 68.609375 48.1875 
Q 61.625 48.1875 57.5625 43.546875 
Q 53.515625 38.921875 53.515625 30.90625 
L 53.515625 0 
L 44.484375 0 
L 44.484375 32.71875 
Q 44.484375 40.625 41.703125 44.40625 
Q 38.921875 48.1875 33.109375 48.1875 
Q 26.21875 48.1875 22.15625 43.53125 
Q 18.109375 38.875 18.109375 30.90625 
L 18.109375 0 
L 9.078125 0 
L 9.078125 54.6875 
L 18.109375 54.6875 
L 18.109375 46.1875 
Q 21.1875 51.21875 25.484375 53.609375 
Q 29.78125 56 35.6875 56 
Q 41.65625 56 45.828125 52.96875 
Q 50 49.953125 52 44.1875 
z
" id="DejaVuSans-6d"/>
     <path d="M 34.28125 27.484375 
Q 23.390625 27.484375 19.1875 25 
Q 14.984375 22.515625 14.984375 16.5 
Q 14.984375 11.71875 18.140625 8.90625 
Q 21.296875 6.109375 26.703125 6.109375 
Q 34.1875 6.109375 38.703125 11.40625 
Q 43.21875 16.703125 43.21875 25.484375 
L 43.21875 27.484375 
z
M 52.203125 31.203125 
L 52.203125 0 
L 43.21875 0 
L 43.21875 8.296875 
Q 40.140625 3.328125 35.546875 0.953125 
Q 30.953125 -1.421875 24.3125 -1.421875 
Q 15.921875 -1.421875 10.953125 3.296875 
Q 6 8.015625 6 15.921875 
Q 6 25.140625 12.171875 29.828125 
Q 18.359375 34.515625 30.609375 34.515625 
L 43.21875 34.515625 
L 43.21875 35.40625 
Q 43.21875 41.609375 39.140625 45 
Q 35.0625 48.390625 27.6875 48.390625 
Q 23 48.390625 18.546875 47.265625 
Q 14.109375 46.140625 10.015625 43.890625 
L 10.015625 52.203125 
Q 14.9375 54.109375 19.578125 55.046875 
Q 24.21875 56 28.609375 56 
Q 40.484375 56 46.34375 49.84375 
Q 52.203125 43.703125 52.203125 31.203125 
z
" id="DejaVuSans-61"/>
    </defs>
    <g transform="translate(657.734375 190.242188)scale(0.1 -0.1)">
     <use xlink:href="#DejaVuSans-45"/>
     <use x="63.183594" xlink:href="#DejaVuSans-6d"/>
     <use x="160.595703" xlink:href="#DejaVuSans-75"/>
     <use x="223.974609" xlink:href="#DejaVuSans-6c"/>
     <use x="251.757812" xlink:href="#DejaVuSans-61"/>
     <use x="313.037109" xlink:href="#DejaVuSans-74"/>
     <use x="352.246094" xlink:href="#DejaVuSans-69"/>
     <use x="380.029297" xlink:href="#DejaVuSans-6f"/>
     <use x="441.210938" xlink:href="#DejaVuSans-6e"/>
    </g>
   </g>
   <g id="line2d_43">
    <path d="M 629.734375 201.420312 
L 649.734375 201.420312 
" style="fill:none;stroke:#ff7f0e;stroke-linecap:square;stroke-width:1.5;"/>
   </g>
   <g id="line2d_44"/>
   <g id="text_39">
    <!-- Simulation -->
    <defs>
     <path d="M 53.515625 70.515625 
L 53.515625 60.890625 
Q 47.90625 63.578125 42.921875 64.890625 
Q 37.9375 66.21875 33.296875 66.21875 
Q 25.25 66.21875 20.875 63.09375 
Q 16.5 59.96875 16.5 54.203125 
Q 16.5 49.359375 19.40625 46.890625 
Q 22.3125 44.4375 30.421875 42.921875 
L 36.375 41.703125 
Q 47.40625 39.59375 52.65625 34.296875 
Q 57.90625 29 57.90625 20.125 
Q 57.90625 9.515625 50.796875 4.046875 
Q 43.703125 -1.421875 29.984375 -1.421875 
Q 24.8125 -1.421875 18.96875 -0.25 
Q 13.140625 0.921875 6.890625 3.21875 
L 6.890625 13.375 
Q 12.890625 10.015625 18.65625 8.296875 
Q 24.421875 6.59375 29.984375 6.59375 
Q 38.421875 6.59375 43.015625 9.90625 
Q 47.609375 13.234375 47.609375 19.390625 
Q 47.609375 24.75 44.3125 27.78125 
Q 41.015625 30.8125 33.5 32.328125 
L 27.484375 33.5 
Q 16.453125 35.6875 11.515625 40.375 
Q 6.59375 45.0625 6.59375 53.421875 
Q 6.59375 63.09375 13.40625 68.65625 
Q 20.21875 74.21875 32.171875 74.21875 
Q 37.3125 74.21875 42.625 73.28125 
Q 47.953125 72.359375 53.515625 70.515625 
z
" id="DejaVuSans-53"/>
    </defs>
    <g transform="translate(657.734375 204.920312)scale(0.1 -0.1)">
     <use xlink:href="#DejaVuSans-53"/>
     <use x="63.476562" xlink:href="#DejaVuSans-69"/>
     <use x="91.259766" xlink:href="#DejaVuSans-6d"/>
     <use x="188.671875" xlink:href="#DejaVuSans-75"/>
     <use x="252.050781" xlink:href="#DejaVuSans-6c"/>
     <use x="279.833984" xlink:href="#DejaVuSans-61"/>
     <use x="341.113281" xlink:href="#DejaVuSans-74"/>
     <use x="380.322266" xlink:href="#DejaVuSans-69"/>
     <use x="408.105469" xlink:href="#DejaVuSans-6f"/>
     <use x="469.287109" xlink:href="#DejaVuSans-6e"/>
    </g>
   </g>
  </g>
 </g>
 <defs>
  <clipPath id="p7e28afdf21">
   <rect height="161.4" width="183.683333" x="42.05" y="26.8"/>
  </clipPath>
  <clipPath id="pae5ee23e7c">
   <rect height="161.4" width="183.683333" x="282.033333" y="26.8"/>
  </clipPath>
  <clipPath id="p71c46263f1">
   <rect height="161.4" width="183.683333" x="522.016667" y="26.8"/>
  </clipPath>
 </defs>
</svg>
