<?xml version="1.0" encoding="utf-8" standalone="no"?>
<!DOCTYPE svg PUBLIC "-//W3C//DTD SVG 1.1//EN"
  "http://www.w3.org/Graphics/SVG/1.1/DTD/svg11.dtd">
<!-- Created with matplotlib (https://matplotlib.org/) -->
<svg height="432pt" version="1.1" viewBox="0 0 720 432" width="720pt" xmlns="http://www.w3.org/2000/svg" xmlns:xlink="http://www.w3.org/1999/xlink">
 <defs>
  <style type="text/css">
*{stroke-linecap:butt;stroke-linejoin:round;}
  </style>
 </defs>
 <g id="figure_1">
  <g id="patch_1">
   <path d="M 0 432 
L 720 432 
L 720 0 
L 0 0 
z
" style="fill:none;"/>
  </g>
  <g id="axes_1">
   <g id="patch_2">
    <path d="M 90 378 
L 648 378 
L 648 51.84 
L 90 51.84 
z
" style="fill:none;"/>
   </g>
   <g id="matplotlib.axis_1">
    <g id="xtick_1">
     <g id="line2d_1">
      <path clip-path="url(#pcada110f10)" d="M 95.524752 378 
L 95.524752 51.84 
" style="fill:none;stroke:#b0b0b0;stroke-linecap:square;stroke-width:0.8;"/>
     </g>
     <g id="line2d_2">
      <defs>
       <path d="M 0 0 
L 0 3.5 
" id="mf96c9b0591" style="stroke:#000000;stroke-width:0.8;"/>
      </defs>
      <g>
       <use style="stroke:#000000;stroke-width:0.8;" x="95.524752" xlink:href="#mf96c9b0591" y="378"/>
      </g>
     </g>
     <g id="text_1">
      <!-- 0.0 -->
      <defs>
       <path d="M 31.78125 66.40625 
Q 24.171875 66.40625 20.328125 58.90625 
Q 16.5 51.421875 16.5 36.375 
Q 16.5 21.390625 20.328125 13.890625 
Q 24.171875 6.390625 31.78125 6.390625 
Q 39.453125 6.390625 43.28125 13.890625 
Q 47.125 21.390625 47.125 36.375 
Q 47.125 51.421875 43.28125 58.90625 
Q 39.453125 66.40625 31.78125 66.40625 
z
M 31.78125 74.21875 
Q 44.046875 74.21875 50.515625 64.515625 
Q 56.984375 54.828125 56.984375 36.375 
Q 56.984375 17.96875 50.515625 8.265625 
Q 44.046875 -1.421875 31.78125 -1.421875 
Q 19.53125 -1.421875 13.0625 8.265625 
Q 6.59375 17.96875 6.59375 36.375 
Q 6.59375 54.828125 13.0625 64.515625 
Q 19.53125 74.21875 31.78125 74.21875 
z
" id="DejaVuSans-48"/>
       <path d="M 10.6875 12.40625 
L 21 12.40625 
L 21 0 
L 10.6875 0 
z
" id="DejaVuSans-46"/>
      </defs>
      <g transform="translate(87.57319 392.598437)scale(0.1 -0.1)">
       <use xlink:href="#DejaVuSans-48"/>
       <use x="63.623047" xlink:href="#DejaVuSans-46"/>
       <use x="95.410156" xlink:href="#DejaVuSans-48"/>
      </g>
     </g>
    </g>
    <g id="xtick_2">
     <g id="line2d_3">
      <path clip-path="url(#pcada110f10)" d="M 206.019802 378 
L 206.019802 51.84 
" style="fill:none;stroke:#b0b0b0;stroke-linecap:square;stroke-width:0.8;"/>
     </g>
     <g id="line2d_4">
      <g>
       <use style="stroke:#000000;stroke-width:0.8;" x="206.019802" xlink:href="#mf96c9b0591" y="378"/>
      </g>
     </g>
     <g id="text_2">
      <!-- 0.2 -->
      <defs>
       <path d="M 19.1875 8.296875 
L 53.609375 8.296875 
L 53.609375 0 
L 7.328125 0 
L 7.328125 8.296875 
Q 12.9375 14.109375 22.625 23.890625 
Q 32.328125 33.6875 34.8125 36.53125 
Q 39.546875 41.84375 41.421875 45.53125 
Q 43.3125 49.21875 43.3125 52.78125 
Q 43.3125 58.59375 39.234375 62.25 
Q 35.15625 65.921875 28.609375 65.921875 
Q 23.96875 65.921875 18.8125 64.3125 
Q 13.671875 62.703125 7.8125 59.421875 
L 7.8125 69.390625 
Q 13.765625 71.78125 18.9375 73 
Q 24.125 74.21875 28.421875 74.21875 
Q 39.75 74.21875 46.484375 68.546875 
Q 53.21875 62.890625 53.21875 53.421875 
Q 53.21875 48.921875 51.53125 44.890625 
Q 49.859375 40.875 45.40625 35.40625 
Q 44.1875 33.984375 37.640625 27.21875 
Q 31.109375 20.453125 19.1875 8.296875 
z
" id="DejaVuSans-50"/>
      </defs>
      <g transform="translate(198.068239 392.598437)scale(0.1 -0.1)">
       <use xlink:href="#DejaVuSans-48"/>
       <use x="63.623047" xlink:href="#DejaVuSans-46"/>
       <use x="95.410156" xlink:href="#DejaVuSans-50"/>
      </g>
     </g>
    </g>
    <g id="xtick_3">
     <g id="line2d_5">
      <path clip-path="url(#pcada110f10)" d="M 316.514851 378 
L 316.514851 51.84 
" style="fill:none;stroke:#b0b0b0;stroke-linecap:square;stroke-width:0.8;"/>
     </g>
     <g id="line2d_6">
      <g>
       <use style="stroke:#000000;stroke-width:0.8;" x="316.514851" xlink:href="#mf96c9b0591" y="378"/>
      </g>
     </g>
     <g id="text_3">
      <!-- 0.4 -->
      <defs>
       <path d="M 37.796875 64.3125 
L 12.890625 25.390625 
L 37.796875 25.390625 
z
M 35.203125 72.90625 
L 47.609375 72.90625 
L 47.609375 25.390625 
L 58.015625 25.390625 
L 58.015625 17.1875 
L 47.609375 17.1875 
L 47.609375 0 
L 37.796875 0 
L 37.796875 17.1875 
L 4.890625 17.1875 
L 4.890625 26.703125 
z
" id="DejaVuSans-52"/>
      </defs>
      <g transform="translate(308.563289 392.598437)scale(0.1 -0.1)">
       <use xlink:href="#DejaVuSans-48"/>
       <use x="63.623047" xlink:href="#DejaVuSans-46"/>
       <use x="95.410156" xlink:href="#DejaVuSans-52"/>
      </g>
     </g>
    </g>
    <g id="xtick_4">
     <g id="line2d_7">
      <path clip-path="url(#pcada110f10)" d="M 427.009901 378 
L 427.009901 51.84 
" style="fill:none;stroke:#b0b0b0;stroke-linecap:square;stroke-width:0.8;"/>
     </g>
     <g id="line2d_8">
      <g>
       <use style="stroke:#000000;stroke-width:0.8;" x="427.009901" xlink:href="#mf96c9b0591" y="378"/>
      </g>
     </g>
     <g id="text_4">
      <!-- 0.6 -->
      <defs>
       <path d="M 33.015625 40.375 
Q 26.375 40.375 22.484375 35.828125 
Q 18.609375 31.296875 18.609375 23.390625 
Q 18.609375 15.53125 22.484375 10.953125 
Q 26.375 6.390625 33.015625 6.390625 
Q 39.65625 6.390625 43.53125 10.953125 
Q 47.40625 15.53125 47.40625 23.390625 
Q 47.40625 31.296875 43.53125 35.828125 
Q 39.65625 40.375 33.015625 40.375 
z
M 52.59375 71.296875 
L 52.59375 62.3125 
Q 48.875 64.0625 45.09375 64.984375 
Q 41.3125 65.921875 37.59375 65.921875 
Q 27.828125 65.921875 22.671875 59.328125 
Q 17.53125 52.734375 16.796875 39.40625 
Q 19.671875 43.65625 24.015625 45.921875 
Q 28.375 48.1875 33.59375 48.1875 
Q 44.578125 48.1875 50.953125 41.515625 
Q 57.328125 34.859375 57.328125 23.390625 
Q 57.328125 12.15625 50.6875 5.359375 
Q 44.046875 -1.421875 33.015625 -1.421875 
Q 20.359375 -1.421875 13.671875 8.265625 
Q 6.984375 17.96875 6.984375 36.375 
Q 6.984375 53.65625 15.1875 63.9375 
Q 23.390625 74.21875 37.203125 74.21875 
Q 40.921875 74.21875 44.703125 73.484375 
Q 48.484375 72.75 52.59375 71.296875 
z
" id="DejaVuSans-54"/>
      </defs>
      <g transform="translate(419.058338 392.598437)scale(0.1 -0.1)">
       <use xlink:href="#DejaVuSans-48"/>
       <use x="63.623047" xlink:href="#DejaVuSans-46"/>
       <use x="95.410156" xlink:href="#DejaVuSans-54"/>
      </g>
     </g>
    </g>
    <g id="xtick_5">
     <g id="line2d_9">
      <path clip-path="url(#pcada110f10)" d="M 537.50495 378 
L 537.50495 51.84 
" style="fill:none;stroke:#b0b0b0;stroke-linecap:square;stroke-width:0.8;"/>
     </g>
     <g id="line2d_10">
      <g>
       <use style="stroke:#000000;stroke-width:0.8;" x="537.50495" xlink:href="#mf96c9b0591" y="378"/>
      </g>
     </g>
     <g id="text_5">
      <!-- 0.8 -->
      <defs>
       <path d="M 31.78125 34.625 
Q 24.75 34.625 20.71875 30.859375 
Q 16.703125 27.09375 16.703125 20.515625 
Q 16.703125 13.921875 20.71875 10.15625 
Q 24.75 6.390625 31.78125 6.390625 
Q 38.8125 6.390625 42.859375 10.171875 
Q 46.921875 13.96875 46.921875 20.515625 
Q 46.921875 27.09375 42.890625 30.859375 
Q 38.875 34.625 31.78125 34.625 
z
M 21.921875 38.8125 
Q 15.578125 40.375 12.03125 44.71875 
Q 8.5 49.078125 8.5 55.328125 
Q 8.5 64.0625 14.71875 69.140625 
Q 20.953125 74.21875 31.78125 74.21875 
Q 42.671875 74.21875 48.875 69.140625 
Q 55.078125 64.0625 55.078125 55.328125 
Q 55.078125 49.078125 51.53125 44.71875 
Q 48 40.375 41.703125 38.8125 
Q 48.828125 37.15625 52.796875 32.3125 
Q 56.78125 27.484375 56.78125 20.515625 
Q 56.78125 9.90625 50.3125 4.234375 
Q 43.84375 -1.421875 31.78125 -1.421875 
Q 19.734375 -1.421875 13.25 4.234375 
Q 6.78125 9.90625 6.78125 20.515625 
Q 6.78125 27.484375 10.78125 32.3125 
Q 14.796875 37.15625 21.921875 38.8125 
z
M 18.3125 54.390625 
Q 18.3125 48.734375 21.84375 45.5625 
Q 25.390625 42.390625 31.78125 42.390625 
Q 38.140625 42.390625 41.71875 45.5625 
Q 45.3125 48.734375 45.3125 54.390625 
Q 45.3125 60.0625 41.71875 63.234375 
Q 38.140625 66.40625 31.78125 66.40625 
Q 25.390625 66.40625 21.84375 63.234375 
Q 18.3125 60.0625 18.3125 54.390625 
z
" id="DejaVuSans-56"/>
      </defs>
      <g transform="translate(529.553388 392.598437)scale(0.1 -0.1)">
       <use xlink:href="#DejaVuSans-48"/>
       <use x="63.623047" xlink:href="#DejaVuSans-46"/>
       <use x="95.410156" xlink:href="#DejaVuSans-56"/>
      </g>
     </g>
    </g>
    <g id="xtick_6">
     <g id="line2d_11">
      <path clip-path="url(#pcada110f10)" d="M 648 378 
L 648 51.84 
" style="fill:none;stroke:#b0b0b0;stroke-linecap:square;stroke-width:0.8;"/>
     </g>
     <g id="line2d_12">
      <g>
       <use style="stroke:#000000;stroke-width:0.8;" x="648" xlink:href="#mf96c9b0591" y="378"/>
      </g>
     </g>
     <g id="text_6">
      <!-- 1.0 -->
      <defs>
       <path d="M 12.40625 8.296875 
L 28.515625 8.296875 
L 28.515625 63.921875 
L 10.984375 60.40625 
L 10.984375 69.390625 
L 28.421875 72.90625 
L 38.28125 72.90625 
L 38.28125 8.296875 
L 54.390625 8.296875 
L 54.390625 0 
L 12.40625 0 
z
" id="DejaVuSans-49"/>
      </defs>
      <g transform="translate(640.048438 392.598437)scale(0.1 -0.1)">
       <use xlink:href="#DejaVuSans-49"/>
       <use x="63.623047" xlink:href="#DejaVuSans-46"/>
       <use x="95.410156" xlink:href="#DejaVuSans-48"/>
      </g>
     </g>
    </g>
    <g id="text_7">
     <!-- $x$ -->
     <defs>
      <path d="M 60.015625 54.6875 
L 34.90625 27.875 
L 50.296875 0 
L 39.984375 0 
L 28.421875 21.6875 
L 8.296875 0 
L -2.59375 0 
L 24.3125 28.8125 
L 10.015625 54.6875 
L 20.3125 54.6875 
L 30.8125 34.90625 
L 49.125 54.6875 
z
" id="DejaVuSans-Oblique-120"/>
     </defs>
     <g transform="translate(366 406.276563)scale(0.1 -0.1)">
      <use transform="translate(0 0.3125)" xlink:href="#DejaVuSans-Oblique-120"/>
     </g>
    </g>
   </g>
   <g id="matplotlib.axis_2">
    <g id="ytick_1">
     <g id="line2d_13">
      <path clip-path="url(#pcada110f10)" d="M 90 363.174546 
L 648 363.174546 
" style="fill:none;stroke:#b0b0b0;stroke-linecap:square;stroke-width:0.8;"/>
     </g>
     <g id="line2d_14">
      <defs>
       <path d="M 0 0 
L -3.5 0 
" id="m1f5da86fbc" style="stroke:#000000;stroke-width:0.8;"/>
      </defs>
      <g>
       <use style="stroke:#000000;stroke-width:0.8;" x="90" xlink:href="#m1f5da86fbc" y="363.174546"/>
      </g>
     </g>
     <g id="text_8">
      <!-- 0.0 -->
      <g transform="translate(67.096875 366.973764)scale(0.1 -0.1)">
       <use xlink:href="#DejaVuSans-48"/>
       <use x="63.623047" xlink:href="#DejaVuSans-46"/>
       <use x="95.410156" xlink:href="#DejaVuSans-48"/>
      </g>
     </g>
    </g>
    <g id="ytick_2">
     <g id="line2d_15">
      <path clip-path="url(#pcada110f10)" d="M 90 303.872727 
L 648 303.872727 
" style="fill:none;stroke:#b0b0b0;stroke-linecap:square;stroke-width:0.8;"/>
     </g>
     <g id="line2d_16">
      <g>
       <use style="stroke:#000000;stroke-width:0.8;" x="90" xlink:href="#m1f5da86fbc" y="303.872727"/>
      </g>
     </g>
     <g id="text_9">
      <!-- 0.2 -->
      <g transform="translate(67.096875 307.671946)scale(0.1 -0.1)">
       <use xlink:href="#DejaVuSans-48"/>
       <use x="63.623047" xlink:href="#DejaVuSans-46"/>
       <use x="95.410156" xlink:href="#DejaVuSans-50"/>
      </g>
     </g>
    </g>
    <g id="ytick_3">
     <g id="line2d_17">
      <path clip-path="url(#pcada110f10)" d="M 90 244.570909 
L 648 244.570909 
" style="fill:none;stroke:#b0b0b0;stroke-linecap:square;stroke-width:0.8;"/>
     </g>
     <g id="line2d_18">
      <g>
       <use style="stroke:#000000;stroke-width:0.8;" x="90" xlink:href="#m1f5da86fbc" y="244.570909"/>
      </g>
     </g>
     <g id="text_10">
      <!-- 0.4 -->
      <g transform="translate(67.096875 248.370128)scale(0.1 -0.1)">
       <use xlink:href="#DejaVuSans-48"/>
       <use x="63.623047" xlink:href="#DejaVuSans-46"/>
       <use x="95.410156" xlink:href="#DejaVuSans-52"/>
      </g>
     </g>
    </g>
    <g id="ytick_4">
     <g id="line2d_19">
      <path clip-path="url(#pcada110f10)" d="M 90 185.269091 
L 648 185.269091 
" style="fill:none;stroke:#b0b0b0;stroke-linecap:square;stroke-width:0.8;"/>
     </g>
     <g id="line2d_20">
      <g>
       <use style="stroke:#000000;stroke-width:0.8;" x="90" xlink:href="#m1f5da86fbc" y="185.269091"/>
      </g>
     </g>
     <g id="text_11">
      <!-- 0.6 -->
      <g transform="translate(67.096875 189.06831)scale(0.1 -0.1)">
       <use xlink:href="#DejaVuSans-48"/>
       <use x="63.623047" xlink:href="#DejaVuSans-46"/>
       <use x="95.410156" xlink:href="#DejaVuSans-54"/>
      </g>
     </g>
    </g>
    <g id="ytick_5">
     <g id="line2d_21">
      <path clip-path="url(#pcada110f10)" d="M 90 125.967273 
L 648 125.967273 
" style="fill:none;stroke:#b0b0b0;stroke-linecap:square;stroke-width:0.8;"/>
     </g>
     <g id="line2d_22">
      <g>
       <use style="stroke:#000000;stroke-width:0.8;" x="90" xlink:href="#m1f5da86fbc" y="125.967273"/>
      </g>
     </g>
     <g id="text_12">
      <!-- 0.8 -->
      <g transform="translate(67.096875 129.766492)scale(0.1 -0.1)">
       <use xlink:href="#DejaVuSans-48"/>
       <use x="63.623047" xlink:href="#DejaVuSans-46"/>
       <use x="95.410156" xlink:href="#DejaVuSans-56"/>
      </g>
     </g>
    </g>
    <g id="ytick_6">
     <g id="line2d_23">
      <path clip-path="url(#pcada110f10)" d="M 90 66.665455 
L 648 66.665455 
" style="fill:none;stroke:#b0b0b0;stroke-linecap:square;stroke-width:0.8;"/>
     </g>
     <g id="line2d_24">
      <g>
       <use style="stroke:#000000;stroke-width:0.8;" x="90" xlink:href="#m1f5da86fbc" y="66.665455"/>
      </g>
     </g>
     <g id="text_13">
      <!-- 1.0 -->
      <g transform="translate(67.096875 70.464673)scale(0.1 -0.1)">
       <use xlink:href="#DejaVuSans-49"/>
       <use x="63.623047" xlink:href="#DejaVuSans-46"/>
       <use x="95.410156" xlink:href="#DejaVuSans-48"/>
      </g>
     </g>
    </g>
    <g id="text_14">
     <!-- $f(x)$ -->
     <defs>
      <path d="M 47.796875 75.984375 
L 46.390625 68.5 
L 37.796875 68.5 
Q 32.90625 68.5 30.6875 66.578125 
Q 28.46875 64.65625 27.390625 59.515625 
L 26.421875 54.6875 
L 41.21875 54.6875 
L 39.890625 47.703125 
L 25.09375 47.703125 
L 15.828125 0 
L 6.78125 0 
L 16.109375 47.703125 
L 7.515625 47.703125 
L 8.796875 54.6875 
L 17.390625 54.6875 
L 18.109375 58.5 
Q 19.96875 68.171875 24.625 72.078125 
Q 29.296875 75.984375 39.3125 75.984375 
z
" id="DejaVuSans-Oblique-102"/>
      <path d="M 31 75.875 
Q 24.46875 64.65625 21.28125 53.65625 
Q 18.109375 42.671875 18.109375 31.390625 
Q 18.109375 20.125 21.3125 9.0625 
Q 24.515625 -2 31 -13.1875 
L 23.1875 -13.1875 
Q 15.875 -1.703125 12.234375 9.375 
Q 8.59375 20.453125 8.59375 31.390625 
Q 8.59375 42.28125 12.203125 53.3125 
Q 15.828125 64.359375 23.1875 75.875 
z
" id="DejaVuSans-40"/>
      <path d="M 8.015625 75.875 
L 15.828125 75.875 
Q 23.140625 64.359375 26.78125 53.3125 
Q 30.421875 42.28125 30.421875 31.390625 
Q 30.421875 20.453125 26.78125 9.375 
Q 23.140625 -1.703125 15.828125 -13.1875 
L 8.015625 -13.1875 
Q 14.5 -2 17.703125 9.0625 
Q 20.90625 20.125 20.90625 31.390625 
Q 20.90625 42.671875 17.703125 53.65625 
Q 14.5 64.65625 8.015625 75.875 
z
" id="DejaVuSans-41"/>
     </defs>
     <g transform="translate(61.017187 223.57)rotate(-90)scale(0.1 -0.1)">
      <use transform="translate(0 0.015625)" xlink:href="#DejaVuSans-Oblique-102"/>
      <use transform="translate(35.205078 0.015625)" xlink:href="#DejaVuSans-40"/>
      <use transform="translate(74.21875 0.015625)" xlink:href="#DejaVuSans-Oblique-120"/>
      <use transform="translate(133.398438 0.015625)" xlink:href="#DejaVuSans-41"/>
     </g>
    </g>
   </g>
   <g id="line2d_25">
    <path clip-path="url(#pcada110f10)" d="M 95.524752 66.665455 
L 101.049505 67.146786 
L 104.732673 67.648192 
L 108.415842 68.356269 
L 112.09901 69.341073 
L 115.782178 70.689886 
L 117.623762 71.533208 
L 119.465347 72.508886 
L 121.306931 73.633284 
L 123.148515 74.923983 
L 124.990099 76.399732 
L 126.831683 78.080365 
L 128.673267 79.986688 
L 130.514851 82.140322 
L 132.356436 84.563513 
L 134.19802 87.278895 
L 136.039604 90.309214 
L 137.881188 93.677004 
L 139.722772 97.404225 
L 141.564356 101.51186 
L 143.405941 106.019468 
L 145.247525 110.944714 
L 147.089109 116.302865 
L 148.930693 122.106273 
L 150.772277 128.363845 
L 152.613861 135.080514 
L 154.455446 142.256725 
L 158.138614 157.964206 
L 161.821782 175.382529 
L 165.50495 194.310012 
L 169.188119 214.440676 
L 176.554455 256.575484 
L 182.079208 287.632894 
L 185.762376 306.885699 
L 187.60396 315.826634 
L 189.445545 324.201782 
L 191.287129 331.933137 
L 193.128713 338.947014 
L 194.970297 345.175221 
L 196.811881 350.556153 
L 198.653465 355.035812 
L 200.49505 358.568707 
L 202.336634 361.118619 
L 204.178218 362.659225 
L 206.019802 363.174545 
L 207.861386 362.659225 
L 209.70297 361.118619 
L 211.544554 358.568707 
L 213.386139 355.035812 
L 215.227723 350.556153 
L 217.069307 345.175221 
L 218.910891 338.947015 
L 220.752475 331.933137 
L 222.594059 324.201782 
L 224.435644 315.826634 
L 228.118812 297.460108 
L 231.80198 277.487797 
L 239.168317 235.364515 
L 244.693069 204.248199 
L 248.376238 184.674296 
L 252.059406 166.469765 
L 255.742574 149.888033 
L 259.425743 135.080683 
L 261.267327 128.364076 
L 263.108911 122.106589 
L 264.950495 116.303294 
L 266.792079 110.945296 
L 268.633663 106.020254 
L 270.475248 101.512919 
L 272.316832 97.405645 
L 274.158416 93.678902 
L 276 90.311742 
L 277.841584 87.282251 
L 279.683168 84.567951 
L 281.524752 82.146172 
L 283.366337 79.994371 
L 285.207921 78.09042 
L 287.049505 76.412847 
L 288.891089 74.94103 
L 290.732673 73.655364 
L 292.574257 72.537387 
L 294.415842 71.569867 
L 298.09901 70.023825 
L 301.782178 68.905978 
L 305.465347 68.126751 
L 309.148515 67.61783 
L 312.831683 67.331334 
L 316.514851 67.238955 
L 320.19802 67.331334 
L 323.881188 67.617831 
L 327.564356 68.126753 
L 331.247525 68.90598 
L 334.930693 70.023828 
L 336.772277 70.73688 
L 338.613861 71.569872 
L 340.455446 72.537392 
L 342.29703 73.65537 
L 344.138614 74.941037 
L 345.980198 76.412855 
L 347.821782 78.09043 
L 349.663366 79.994381 
L 351.50495 82.146184 
L 353.346535 84.567966 
L 355.188119 87.282267 
L 357.029703 90.311761 
L 358.871287 93.678923 
L 360.712871 97.40567 
L 362.554455 101.512946 
L 364.39604 106.020285 
L 366.237624 110.94533 
L 368.079208 116.303333 
L 369.920792 122.106632 
L 371.762376 128.364124 
L 373.60396 135.080736 
L 375.445545 142.256906 
L 379.128713 157.964339 
L 382.811881 175.382644 
L 386.49505 194.310122 
L 390.178218 214.44079 
L 397.544554 256.575611 
L 403.069307 287.633025 
L 406.752475 306.885826 
L 408.594059 315.826756 
L 410.435644 324.201897 
L 412.277228 331.933243 
L 414.118812 338.947109 
L 415.960396 345.175302 
L 417.80198 350.556218 
L 419.643564 355.035861 
L 421.485149 358.568739 
L 423.326733 361.118635 
L 425.168317 362.659229 
L 427.009901 363.174545 
L 428.851485 362.659231 
L 430.693069 361.11865 
L 432.534653 358.568788 
L 434.376238 355.035983 
L 436.217822 350.556465 
L 438.059406 345.175747 
L 439.90099 338.947855 
L 441.742574 331.934425 
L 443.584158 324.203695 
L 445.425743 315.829407 
L 449.108911 297.465617 
L 452.792079 277.498135 
L 460.158416 235.396902 
L 465.683168 204.318964 
L 469.366337 184.790158 
L 473.049505 166.655776 
L 476.732673 150.18133 
L 478.574257 142.622793 
L 480.415842 135.5354 
L 482.257426 128.926835 
L 484.09901 122.800324 
L 485.940594 117.155189 
L 487.782178 111.987427 
L 489.623762 107.290314 
L 491.465347 103.055007 
L 493.306931 99.271136 
L 495.148515 95.927376 
L 496.990099 93.011998 
L 498.831683 90.513372 
L 500.673267 88.420432 
L 502.514851 86.72309 
L 504.356436 85.412591 
L 506.19802 84.481812 
L 508.039604 83.925495 
L 509.881188 83.740418 
L 511.722772 83.925495 
L 513.564356 84.481812 
L 515.405941 85.412591 
L 517.247525 86.72309 
L 519.089109 88.420432 
L 520.930693 90.513372 
L 522.772277 93.011998 
L 524.613861 95.927376 
L 526.455446 99.271136 
L 528.29703 103.055007 
L 530.138614 107.290314 
L 531.980198 111.987427 
L 533.821782 117.155189 
L 535.663366 122.800324 
L 537.50495 128.926835 
L 539.346535 135.5354 
L 541.188119 142.622793 
L 544.871287 158.198352 
L 548.554455 175.529711 
L 552.237624 194.40081 
L 555.920792 214.495545 
L 563.287129 256.594091 
L 568.811881 287.640487 
L 572.49505 306.889641 
L 574.336634 315.829407 
L 576.178218 324.203695 
L 578.019802 331.934425 
L 579.861386 338.947855 
L 581.70297 345.175747 
L 583.544554 350.556465 
L 585.386139 355.035983 
L 587.227723 358.568788 
L 589.069307 361.11865 
L 590.910891 362.659231 
L 592.752475 363.174545 
L 594.594059 362.659229 
L 596.435644 361.118635 
L 598.277228 358.568739 
L 600.118812 355.035861 
L 601.960396 350.556218 
L 603.80198 345.175302 
L 605.643564 338.947109 
L 607.485149 331.933242 
L 609.326733 324.201897 
L 611.168317 315.826755 
L 614.851485 297.460238 
L 618.534653 277.487926 
L 625.90099 235.364627 
L 631.425743 204.248287 
L 635.108911 184.67436 
L 638.792079 166.469794 
L 642.475248 149.888007 
L 646.158416 135.080567 
L 648 128.363893 
L 648 128.363893 
" style="fill:none;stroke:#008000;stroke-linecap:square;stroke-width:1.5;"/>
   </g>
   <g id="line2d_26">
    <path clip-path="url(#pcada110f10)" d="M 95.524752 214.541113 
L 101.049505 195.186187 
L 104.732673 183.067325 
L 108.415842 171.859095 
L 112.09901 161.779932 
L 113.940594 157.223382 
L 115.782178 153.015828 
L 117.623762 149.17408 
L 119.465347 145.711992 
L 121.306931 142.640326 
L 123.148515 139.966665 
L 124.990099 137.695372 
L 126.831683 135.827585 
L 128.673267 134.361275 
L 130.514851 133.291338 
L 132.356436 132.609729 
L 134.19802 132.305638 
L 136.039604 132.365698 
L 137.881188 132.774219 
L 139.722772 133.513449 
L 141.564356 134.563843 
L 143.405941 135.904349 
L 145.247525 137.512695 
L 147.089109 139.365673 
L 148.930693 141.439415 
L 152.613861 146.151996 
L 156.29703 151.455922 
L 159.980198 157.1611 
L 174.712871 180.610513 
L 178.39604 185.924253 
L 182.079208 190.79661 
L 185.762376 195.145449 
L 189.445545 198.903162 
L 191.287129 200.542821 
L 193.128713 202.015165 
L 194.970297 203.315165 
L 196.811881 204.438426 
L 198.653465 205.381154 
L 200.49505 206.140118 
L 202.336634 206.712627 
L 204.178218 207.096515 
L 206.019802 363.174545 
L 207.861386 207.291939 
L 209.70297 207.101462 
L 211.544554 206.71832 
L 213.386139 206.142597 
L 215.227723 205.37484 
L 217.069307 204.41604 
L 218.910891 203.267639 
L 220.752475 201.93154 
L 222.594059 200.410117 
L 224.435644 198.706233 
L 226.277228 196.82326 
L 228.118812 194.765092 
L 231.80198 190.141507 
L 235.485149 184.877946 
L 239.168317 179.02657 
L 242.851485 172.649714 
L 246.534653 165.8201 
L 252.059406 154.910729 
L 259.425743 139.629189 
L 268.633663 120.539944 
L 274.158416 109.736508 
L 277.841584 103.007521 
L 281.524752 96.750205 
L 285.207921 91.026823 
L 288.891089 85.882644 
L 292.574257 81.346126 
L 296.257426 77.430537 
L 298.09901 75.706267 
L 299.940594 74.13682 
L 301.782178 72.721012 
L 303.623762 71.457393 
L 305.465347 70.344384 
L 307.306931 69.380404 
L 309.148515 68.563996 
L 310.990099 67.893932 
L 312.831683 67.369313 
L 314.673267 66.989641 
L 316.514851 66.754873 
L 318.356436 66.665455 
L 320.19802 66.722329 
L 322.039604 66.926923 
L 323.881188 67.281107 
L 325.722772 67.787135 
L 327.564356 68.447565 
L 329.405941 69.265152 
L 331.247525 70.24274 
L 333.089109 71.383123 
L 334.930693 72.688913 
L 336.772277 74.162391 
L 338.613861 75.805365 
L 340.455446 77.619026 
L 342.29703 79.603815 
L 345.980198 84.08407 
L 349.663366 89.230405 
L 353.346535 95.009115 
L 357.029703 101.36752 
L 360.712871 108.234515 
L 364.39604 115.522551 
L 369.920792 127.020804 
L 384.653465 158.303184 
L 388.336634 165.657767 
L 392.019802 172.624418 
L 395.70297 179.118891 
L 399.386139 185.067753 
L 403.069307 190.408361 
L 406.752475 195.088451 
L 408.594059 197.167148 
L 410.435644 199.065477 
L 412.277228 200.77951 
L 414.118812 202.305829 
L 415.960396 203.641499 
L 417.80198 204.784049 
L 419.643564 205.731454 
L 421.485149 206.482116 
L 423.326733 207.034854 
L 425.168317 207.38891 
L 427.009901 363.174545 
L 428.851485 207.49969 
L 430.693069 207.256831 
L 432.534653 206.816136 
L 434.376238 206.178798 
L 436.217822 205.346456 
L 438.059406 204.321193 
L 439.90099 203.105553 
L 441.742574 201.702571 
L 443.584158 200.115796 
L 445.425743 198.34933 
L 447.267327 196.407859 
L 450.950495 192.021802 
L 454.633663 187.008336 
L 458.316832 181.430159 
L 462 175.363293 
L 465.683168 168.898253 
L 471.207921 158.689882 
L 480.415842 141.402158 
L 484.09901 134.830375 
L 487.782178 128.701079 
L 491.465347 123.18174 
L 493.306931 120.701684 
L 495.148515 118.433761 
L 496.990099 116.395955 
L 498.831683 114.604907 
L 500.673267 113.075678 
L 502.514851 111.821533 
L 504.356436 110.853733 
L 506.19802 110.181364 
L 508.039604 109.811199 
L 509.881188 109.747587 
L 511.722772 109.992392 
L 513.564356 110.544972 
L 515.405941 111.402197 
L 517.247525 112.558511 
L 519.089109 114.006041 
L 520.930693 115.734738 
L 522.772277 117.732545 
L 524.613861 119.985606 
L 526.455446 122.478489 
L 528.29703 125.194423 
L 531.980198 131.223162 
L 535.663366 137.920387 
L 539.346535 145.129018 
L 544.871287 156.562113 
L 557.762376 183.732184 
L 563.287129 194.702884 
L 566.970297 201.599662 
L 570.653465 208.107097 
L 574.336634 214.194476 
L 578.019802 219.844841 
L 581.70297 225.053691 
L 585.386139 229.827756 
L 589.069307 234.183887 
L 590.910891 236.213031 
L 592.752475 363.174545 
L 594.594059 239.993528 
L 598.277228 243.436138 
L 601.960396 246.585965 
L 605.643564 249.494286 
L 611.168317 253.529298 
L 625.90099 263.888817 
L 629.584158 266.742308 
L 633.267327 269.822589 
L 636.950495 273.178295 
L 640.633663 276.846561 
L 644.316832 280.850163 
L 648 285.195037 
L 648 285.195037 
" style="fill:none;stroke:#800080;stroke-linecap:square;stroke-width:1.5;"/>
   </g>
   <g id="patch_3">
    <path d="M 90 378 
L 90 51.84 
" style="fill:none;stroke:#000000;stroke-linecap:square;stroke-linejoin:miter;stroke-width:0.8;"/>
   </g>
   <g id="patch_4">
    <path d="M 648 378 
L 648 51.84 
" style="fill:none;stroke:#000000;stroke-linecap:square;stroke-linejoin:miter;stroke-width:0.8;"/>
   </g>
   <g id="patch_5">
    <path d="M 90 378 
L 648 378 
" style="fill:none;stroke:#000000;stroke-linecap:square;stroke-linejoin:miter;stroke-width:0.8;"/>
   </g>
   <g id="patch_6">
    <path d="M 90 51.84 
L 648 51.84 
" style="fill:none;stroke:#000000;stroke-linecap:square;stroke-linejoin:miter;stroke-width:0.8;"/>
   </g>
   <g id="legend_1">
    <g id="patch_7">
     <path d="M 592.260937 89.19625 
L 641 89.19625 
Q 643 89.19625 643 87.19625 
L 643 58.84 
Q 643 56.84 641 56.84 
L 592.260937 56.84 
Q 590.260937 56.84 590.260937 58.84 
L 590.260937 87.19625 
Q 590.260937 89.19625 592.260937 89.19625 
z
" style="fill:#ffffff;opacity:0.8;stroke:#cccccc;stroke-linejoin:miter;"/>
    </g>
    <g id="line2d_27">
     <path d="M 594.260937 64.938437 
L 614.260937 64.938437 
" style="fill:none;stroke:#008000;stroke-linecap:square;stroke-width:1.5;"/>
    </g>
    <g id="line2d_28"/>
    <g id="text_15">
     <!-- US -->
     <defs>
      <path d="M 8.6875 72.90625 
L 18.609375 72.90625 
L 18.609375 28.609375 
Q 18.609375 16.890625 22.84375 11.734375 
Q 27.09375 6.59375 36.625 6.59375 
Q 46.09375 6.59375 50.34375 11.734375 
Q 54.59375 16.890625 54.59375 28.609375 
L 54.59375 72.90625 
L 64.5 72.90625 
L 64.5 27.390625 
Q 64.5 13.140625 57.4375 5.859375 
Q 50.390625 -1.421875 36.625 -1.421875 
Q 22.796875 -1.421875 15.734375 5.859375 
Q 8.6875 13.140625 8.6875 27.390625 
z
" id="DejaVuSans-85"/>
      <path d="M 53.515625 70.515625 
L 53.515625 60.890625 
Q 47.90625 63.578125 42.921875 64.890625 
Q 37.9375 66.21875 33.296875 66.21875 
Q 25.25 66.21875 20.875 63.09375 
Q 16.5 59.96875 16.5 54.203125 
Q 16.5 49.359375 19.40625 46.890625 
Q 22.3125 44.4375 30.421875 42.921875 
L 36.375 41.703125 
Q 47.40625 39.59375 52.65625 34.296875 
Q 57.90625 29 57.90625 20.125 
Q 57.90625 9.515625 50.796875 4.046875 
Q 43.703125 -1.421875 29.984375 -1.421875 
Q 24.8125 -1.421875 18.96875 -0.25 
Q 13.140625 0.921875 6.890625 3.21875 
L 6.890625 13.375 
Q 12.890625 10.015625 18.65625 8.296875 
Q 24.421875 6.59375 29.984375 6.59375 
Q 38.421875 6.59375 43.015625 9.90625 
Q 47.609375 13.234375 47.609375 19.390625 
Q 47.609375 24.75 44.3125 27.78125 
Q 41.015625 30.8125 33.5 32.328125 
L 27.484375 33.5 
Q 16.453125 35.6875 11.515625 40.375 
Q 6.59375 45.0625 6.59375 53.421875 
Q 6.59375 63.09375 13.40625 68.65625 
Q 20.21875 74.21875 32.171875 74.21875 
Q 37.3125 74.21875 42.625 73.28125 
Q 47.953125 72.359375 53.515625 70.515625 
z
" id="DejaVuSans-83"/>
     </defs>
     <g transform="translate(622.260937 68.438437)scale(0.1 -0.1)">
      <use xlink:href="#DejaVuSans-85"/>
      <use x="73.193359" xlink:href="#DejaVuSans-83"/>
     </g>
    </g>
    <g id="line2d_29">
     <path d="M 594.260937 79.616562 
L 614.260937 79.616562 
" style="fill:none;stroke:#800080;stroke-linecap:square;stroke-width:1.5;"/>
    </g>
    <g id="line2d_30"/>
    <g id="text_16">
     <!-- IVR -->
     <defs>
      <path d="M 9.8125 72.90625 
L 19.671875 72.90625 
L 19.671875 0 
L 9.8125 0 
z
" id="DejaVuSans-73"/>
      <path d="M 28.609375 0 
L 0.78125 72.90625 
L 11.078125 72.90625 
L 34.1875 11.53125 
L 57.328125 72.90625 
L 67.578125 72.90625 
L 39.796875 0 
z
" id="DejaVuSans-86"/>
      <path d="M 44.390625 34.1875 
Q 47.5625 33.109375 50.5625 29.59375 
Q 53.5625 26.078125 56.59375 19.921875 
L 66.609375 0 
L 56 0 
L 46.6875 18.703125 
Q 43.0625 26.03125 39.671875 28.421875 
Q 36.28125 30.8125 30.421875 30.8125 
L 19.671875 30.8125 
L 19.671875 0 
L 9.8125 0 
L 9.8125 72.90625 
L 32.078125 72.90625 
Q 44.578125 72.90625 50.734375 67.671875 
Q 56.890625 62.453125 56.890625 51.90625 
Q 56.890625 45.015625 53.6875 40.46875 
Q 50.484375 35.9375 44.390625 34.1875 
z
M 19.671875 64.796875 
L 19.671875 38.921875 
L 32.078125 38.921875 
Q 39.203125 38.921875 42.84375 42.21875 
Q 46.484375 45.515625 46.484375 51.90625 
Q 46.484375 58.296875 42.84375 61.546875 
Q 39.203125 64.796875 32.078125 64.796875 
z
" id="DejaVuSans-82"/>
     </defs>
     <g transform="translate(622.260937 83.116562)scale(0.1 -0.1)">
      <use xlink:href="#DejaVuSans-73"/>
      <use x="29.492188" xlink:href="#DejaVuSans-86"/>
      <use x="97.900391" xlink:href="#DejaVuSans-82"/>
     </g>
    </g>
   </g>
  </g>
 </g>
 <defs>
  <clipPath id="pcada110f10">
   <rect height="326.16" width="558" x="90" y="51.84"/>
  </clipPath>
 </defs>
</svg>
