<?xml version="1.0" encoding="utf-8" standalone="no"?>
<!DOCTYPE svg PUBLIC "-//W3C//DTD SVG 1.1//EN"
  "http://www.w3.org/Graphics/SVG/1.1/DTD/svg11.dtd">
<!-- Created with matplotlib (https://matplotlib.org/) -->
<svg height="432pt" version="1.1" viewBox="0 0 720 432" width="720pt" xmlns="http://www.w3.org/2000/svg" xmlns:xlink="http://www.w3.org/1999/xlink">
 <defs>
  <style type="text/css">
*{stroke-linecap:butt;stroke-linejoin:round;}
  </style>
 </defs>
 <g id="figure_1">
  <g id="patch_1">
   <path d="M 0 432 
L 720 432 
L 720 0 
L 0 0 
z
" style="fill:none;"/>
  </g>
  <g id="axes_1">
   <g id="patch_2">
    <path d="M 90 378 
L 648 378 
L 648 51.84 
L 90 51.84 
z
" style="fill:none;"/>
   </g>
   <g id="PolyCollection_1">
    <defs>
     <path d="M 90 -191.604708 
L 90 -191.60745 
L 91.86 -189.369772 
L 93.72 -187.136478 
L 95.58 -184.911836 
L 97.44 -182.700944 
L 99.3 -180.508735 
L 101.16 -178.339937 
L 103.02 -176.199069 
L 104.88 -174.090432 
L 106.74 -172.018119 
L 108.6 -169.986047 
L 110.46 -167.99827 
L 112.32 -166.059257 
L 114.18 -164.171122 
L 116.04 -162.33598 
L 117.9 -160.55632 
L 119.76 -158.834503 
L 121.62 -157.172689 
L 123.48 -155.572821 
L 125.34 -154.036625 
L 127.2 -152.565608 
L 129.06 -151.161058 
L 130.92 -149.824044 
L 132.78 -148.555422 
L 134.64 -147.355835 
L 136.5 -146.225718 
L 138.36 -145.165304 
L 140.22 -144.17464 
L 142.08 -143.253635 
L 143.94 -142.402288 
L 145.8 -141.620695 
L 147.66 -140.907624 
L 149.52 -140.261657 
L 151.38 -139.681571 
L 153.24 -139.166068 
L 155.1 -138.713726 
L 156.96 -138.322987 
L 158.82 -137.992169 
L 160.68 -137.719469 
L 162.54 -137.502973 
L 164.4 -137.340664 
L 166.26 -137.230431 
L 168.12 -137.170082 
L 169.98 -137.157345 
L 171.84 -137.189886 
L 173.7 -137.265312 
L 175.56 -137.381184 
L 177.42 -137.535025 
L 179.28 -137.724327 
L 181.14 -137.946564 
L 183 -138.199198 
L 184.86 -138.479689 
L 186.72 -138.785503 
L 188.58 -139.114121 
L 190.44 -139.463046 
L 192.3 -139.829816 
L 194.16 -140.212006 
L 196.02 -140.607245 
L 197.88 -141.013234 
L 199.74 -141.427791 
L 201.6 -141.848975 
L 203.46 -142.274895 
L 205.32 -142.703182 
L 207.18 -143.131568 
L 209.04 -143.558064 
L 210.9 -143.980835 
L 212.76 -144.398165 
L 214.62 -144.808447 
L 216.48 -145.210185 
L 218.34 -145.601994 
L 220.2 -145.982602 
L 222.06 -146.350854 
L 223.92 -146.705709 
L 225.78 -147.046247 
L 227.64 -147.371665 
L 229.5 -147.68128 
L 231.36 -147.974528 
L 233.22 -148.250964 
L 235.08 -148.51026 
L 236.94 -148.752206 
L 238.8 -148.976704 
L 240.66 -149.183772 
L 242.52 -149.373534 
L 244.38 -149.546224 
L 246.24 -149.702181 
L 248.1 -149.841846 
L 249.96 -149.96576 
L 251.82 -150.074569 
L 253.68 -150.169031 
L 255.54 -150.250033 
L 257.4 -150.31852 
L 259.26 -150.375372 
L 261.12 -150.421461 
L 262.98 -150.45776 
L 264.84 -150.485338 
L 266.7 -150.505329 
L 268.56 -150.518917 
L 270.42 -150.527326 
L 272.28 -150.531808 
L 274.14 -150.533639 
L 276 -150.53411 
L 277.86 -150.534519 
L 279.72 -150.536166 
L 281.58 -150.540344 
L 283.44 -150.548334 
L 285.3 -150.561397 
L 287.16 -150.580766 
L 289.02 -150.607641 
L 290.88 -150.643183 
L 292.74 -150.688506 
L 294.6 -150.744669 
L 296.46 -150.812676 
L 298.32 -150.893463 
L 300.18 -150.987896 
L 302.04 -151.096769 
L 303.9 -151.220792 
L 305.76 -151.360595 
L 307.62 -151.516723 
L 309.48 -151.689633 
L 311.34 -151.879693 
L 313.2 -152.087155 
L 315.06 -152.312131 
L 316.92 -152.554592 
L 318.78 -152.814393 
L 320.64 -153.091286 
L 322.5 -153.384921 
L 324.36 -153.694835 
L 326.22 -154.020452 
L 328.08 -154.361081 
L 329.94 -154.715915 
L 331.8 -155.084027 
L 333.66 -155.464378 
L 335.52 -155.855812 
L 337.38 -156.257059 
L 339.24 -156.666739 
L 341.1 -157.083363 
L 342.96 -157.505337 
L 344.82 -157.930965 
L 346.68 -158.358451 
L 348.54 -158.785908 
L 350.4 -159.211358 
L 352.26 -159.632739 
L 354.12 -160.047914 
L 355.98 -160.454671 
L 357.84 -160.850732 
L 359.7 -161.233762 
L 361.56 -161.601376 
L 363.42 -161.951143 
L 365.28 -162.280598 
L 367.14 -162.587241 
L 369 -162.86855 
L 370.86 -163.121976 
L 372.72 -163.344956 
L 374.58 -163.534927 
L 376.44 -163.689338 
L 378.3 -163.805663 
L 380.16 -163.88141 
L 382.02 -163.914128 
L 383.88 -163.901417 
L 385.74 -163.840938 
L 387.6 -163.73042 
L 389.46 -163.567669 
L 391.32 -163.350581 
L 393.18 -163.077144 
L 395.04 -162.745456 
L 396.9 -162.353727 
L 398.76 -161.900288 
L 400.62 -161.383606 
L 402.48 -160.802286 
L 404.34 -160.155082 
L 406.2 -159.440903 
L 408.06 -158.658823 
L 409.92 -157.808089 
L 411.78 -156.888124 
L 413.64 -155.898538 
L 415.5 -154.839131 
L 417.36 -153.709901 
L 419.22 -152.511048 
L 421.08 -151.24298 
L 422.94 -149.906316 
L 424.8 -148.501891 
L 426.66 -147.030759 
L 428.52 -145.494195 
L 430.38 -143.893698 
L 432.24 -142.230994 
L 434.1 -140.508036 
L 435.96 -138.727006 
L 437.82 -136.890316 
L 439.68 -135.000607 
L 441.54 -133.060746 
L 443.4 -131.073828 
L 445.26 -129.043172 
L 447.12 -126.972316 
L 448.98 -124.865018 
L 450.84 -122.725246 
L 452.7 -120.557176 
L 454.56 -118.365185 
L 456.42 -116.153849 
L 458.28 -113.927929 
L 460.14 -111.692369 
L 462 -109.452285 
L 463.86 -107.212958 
L 465.72 -104.979822 
L 467.58 -102.758459 
L 469.44 -100.554585 
L 471.3 -98.374037 
L 473.16 -96.222769 
L 475.02 -94.106833 
L 476.88 -92.032368 
L 478.74 -90.005591 
L 480.6 -88.032779 
L 482.46 -86.120257 
L 484.32 -84.274386 
L 486.18 -82.501542 
L 488.04 -80.808108 
L 489.9 -79.200457 
L 491.76 -77.684933 
L 493.62 -76.267836 
L 495.48 -74.955411 
L 497.34 -73.753824 
L 499.2 -72.669148 
L 501.06 -71.707348 
L 502.92 -70.874264 
L 504.78 -70.175592 
L 506.64 -69.616874 
L 508.5 -69.203472 
L 510.36 -68.940562 
L 512.22 -68.833112 
L 514.08 -68.885868 
L 515.94 -69.103335 
L 517.8 -69.489767 
L 519.66 -70.049148 
L 521.52 -70.785176 
L 523.38 -71.701253 
L 525.24 -72.800465 
L 527.1 -74.085573 
L 528.96 -75.558996 
L 530.82 -77.222803 
L 532.68 -79.078697 
L 534.54 -81.128004 
L 536.4 -83.371666 
L 538.26 -85.810227 
L 540.12 -88.443827 
L 541.98 -91.27219 
L 543.84 -94.294614 
L 545.7 -97.50996 
L 547.56 -100.916641 
L 549.42 -104.512617 
L 551.28 -108.295395 
L 553.14 -112.262028 
L 555 -116.409114 
L 556.86 -120.732796 
L 558.72 -125.228759 
L 560.58 -129.89223 
L 562.44 -134.717981 
L 564.3 -139.700328 
L 566.16 -144.833136 
L 568.02 -150.109825 
L 569.88 -155.52337 
L 571.74 -161.066312 
L 573.6 -166.730765 
L 575.46 -172.508422 
L 577.32 -178.390567 
L 579.18 -184.368086 
L 581.04 -190.431476 
L 582.9 -196.570861 
L 584.76 -202.776008 
L 586.62 -209.03634 
L 588.48 -215.340961 
L 590.34 -221.678671 
L 592.2 -228.037984 
L 594.06 -234.407107 
L 595.92 -240.773933 
L 597.78 -247.126081 
L 599.64 -253.45096 
L 601.5 -259.735787 
L 603.36 -265.967614 
L 605.22 -272.133342 
L 607.08 -278.219746 
L 608.94 -284.213493 
L 610.8 -290.101172 
L 612.66 -295.869316 
L 614.52 -301.504428 
L 616.38 -306.993009 
L 618.24 -312.321585 
L 620.1 -317.476736 
L 621.96 -322.445132 
L 623.82 -327.21358 
L 625.68 -331.769099 
L 627.54 -336.098908 
L 629.4 -340.190186 
L 631.26 -344.030144 
L 633.12 -347.606275 
L 634.98 -350.906377 
L 636.84 -353.918549 
L 638.7 -356.631196 
L 640.56 -359.033057 
L 642.42 -361.113234 
L 644.28 -362.861294 
L 646.14 -364.268263 
L 648 -365.326852 
L 648 -365.319158 
L 648 -365.319158 
L 646.14 -364.265285 
L 644.28 -362.857243 
L 642.42 -361.106912 
L 640.56 -359.025351 
L 638.7 -356.622978 
L 636.84 -353.910517 
L 634.98 -350.899049 
L 633.12 -347.599994 
L 631.26 -344.025086 
L 629.4 -340.18633 
L 627.54 -336.095944 
L 625.68 -331.76633 
L 623.82 -327.210268 
L 621.96 -322.440942 
L 620.1 -317.471637 
L 618.24 -312.315682 
L 616.38 -306.986465 
L 614.52 -301.49743 
L 612.66 -295.86206 
L 610.8 -290.093851 
L 608.94 -284.206288 
L 607.08 -278.212821 
L 605.22 -272.126842 
L 603.36 -265.961654 
L 601.5 -259.730453 
L 599.64 -253.4463 
L 597.78 -247.122097 
L 595.92 -240.770557 
L 594.06 -234.404181 
L 592.2 -228.035243 
L 590.34 -221.675804 
L 588.48 -215.337718 
L 586.62 -209.032581 
L 584.76 -202.771681 
L 582.9 -196.565974 
L 581.04 -190.42607 
L 579.18 -184.362226 
L 577.32 -178.384332 
L 575.46 -172.501897 
L 573.6 -166.72404 
L 571.74 -161.059479 
L 569.88 -155.516519 
L 568.02 -150.103043 
L 566.16 -144.826503 
L 564.3 -139.693918 
L 562.44 -134.71186 
L 560.58 -129.886453 
L 558.72 -125.22337 
L 556.86 -120.727826 
L 555 -116.404579 
L 553.14 -112.257925 
L 551.28 -108.291704 
L 549.42 -104.509294 
L 547.56 -100.913617 
L 545.7 -97.507139 
L 543.84 -94.291887 
L 541.98 -91.269447 
L 540.12 -88.440976 
L 538.26 -85.807203 
L 536.4 -83.368434 
L 534.54 -81.124553 
L 532.68 -79.075034 
L 530.82 -77.21895 
L 528.96 -75.554982 
L 527.1 -74.081433 
L 525.24 -72.796238 
L 523.38 -71.696979 
L 521.52 -70.780894 
L 519.66 -70.044895 
L 517.8 -69.485579 
L 515.94 -69.099242 
L 514.08 -68.881896 
L 512.22 -68.829284 
L 510.36 -68.936891 
L 508.5 -69.199967 
L 506.64 -69.613535 
L 504.78 -70.172416 
L 502.92 -70.871236 
L 501.06 -71.70445 
L 499.2 -72.666356 
L 497.34 -73.751111 
L 495.48 -74.952748 
L 493.62 -76.265196 
L 491.76 -77.682292 
L 489.9 -79.197797 
L 488.04 -80.805417 
L 486.18 -82.498812 
L 484.32 -84.271615 
L 482.46 -86.117449 
L 480.6 -88.029939 
L 478.74 -90.002726 
L 476.88 -92.029488 
L 475.02 -94.103946 
L 473.16 -96.219886 
L 471.3 -98.371164 
L 469.44 -100.551728 
L 467.58 -102.755624 
L 465.72 -104.97701 
L 463.86 -107.210169 
L 462 -109.449519 
L 460.14 -111.689624 
L 458.28 -113.925202 
L 456.42 -116.151136 
L 454.56 -118.362484 
L 452.7 -120.554485 
L 450.84 -122.722565 
L 448.98 -124.862348 
L 447.12 -126.969659 
L 445.26 -129.04053 
L 443.4 -131.071205 
L 441.54 -133.058145 
L 439.68 -134.99803 
L 437.82 -136.887764 
L 435.96 -138.724475 
L 434.1 -140.505517 
L 432.24 -142.228476 
L 430.38 -143.891163 
L 428.52 -145.49162 
L 426.66 -147.028117 
L 424.8 -148.499152 
L 422.94 -149.90345 
L 421.08 -151.239959 
L 419.22 -152.507846 
L 417.36 -153.706497 
L 415.5 -154.83551 
L 413.64 -155.894691 
L 411.78 -156.884048 
L 409.92 -157.803787 
L 408.06 -158.654303 
L 406.2 -159.43618 
L 404.34 -160.150175 
L 402.48 -160.797221 
L 400.62 -161.37841 
L 398.76 -161.894994 
L 396.9 -162.348369 
L 395.04 -162.740075 
L 393.18 -163.07178 
L 391.32 -163.345275 
L 389.46 -163.562464 
L 387.6 -163.725356 
L 385.74 -163.836057 
L 383.88 -163.896755 
L 382.02 -163.909718 
L 380.16 -163.877278 
L 378.3 -163.801827 
L 376.44 -163.685801 
L 374.58 -163.531675 
L 372.72 -163.341953 
L 370.86 -163.119155 
L 369 -162.865814 
L 367.14 -162.584471 
L 365.28 -162.277669 
L 363.42 -161.94795 
L 361.56 -161.597835 
L 359.7 -161.229819 
L 357.84 -160.846355 
L 355.98 -160.449849 
L 354.12 -160.042653 
L 352.26 -159.627055 
L 350.4 -159.205278 
L 348.54 -158.77947 
L 346.68 -158.3517 
L 344.82 -157.923952 
L 342.96 -157.498121 
L 341.1 -157.076007 
L 339.24 -156.659308 
L 337.38 -156.249623 
L 335.52 -155.848443 
L 333.66 -155.457149 
L 331.8 -155.07701 
L 329.94 -154.709179 
L 328.08 -154.354695 
L 326.22 -154.014477 
L 324.36 -153.689326 
L 322.5 -153.379923 
L 320.64 -153.086827 
L 318.78 -152.810475 
L 316.92 -152.551182 
L 315.06 -152.309133 
L 313.2 -152.084391 
L 311.34 -151.876908 
L 309.48 -151.686558 
L 307.62 -151.513145 
L 305.76 -151.35638 
L 303.9 -151.215865 
L 302.04 -151.091098 
L 300.18 -150.981478 
L 298.32 -150.886315 
L 296.46 -150.804834 
L 294.6 -150.736183 
L 292.74 -150.679436 
L 290.88 -150.633602 
L 289.02 -150.597629 
L 287.16 -150.570413 
L 285.3 -150.550801 
L 283.44 -150.537597 
L 281.58 -150.529573 
L 279.72 -150.525472 
L 277.86 -150.524015 
L 276 -150.523908 
L 274.14 -150.523852 
L 272.28 -150.522545 
L 270.42 -150.518691 
L 268.56 -150.511008 
L 266.7 -150.498232 
L 264.84 -150.479123 
L 262.98 -150.452473 
L 261.12 -150.417104 
L 259.26 -150.371868 
L 257.4 -150.315629 
L 255.54 -150.247266 
L 253.68 -150.165799 
L 251.82 -150.070458 
L 249.96 -149.960564 
L 248.1 -149.835474 
L 246.24 -149.694607 
L 244.38 -149.537461 
L 242.52 -149.363622 
L 240.66 -149.172774 
L 238.8 -148.964704 
L 236.94 -148.739301 
L 235.08 -148.496567 
L 233.22 -148.236611 
L 231.36 -147.959657 
L 229.5 -147.666043 
L 227.64 -147.356226 
L 225.78 -147.030775 
L 223.92 -146.690381 
L 222.06 -146.335849 
L 220.2 -145.968103 
L 218.34 -145.588181 
L 216.48 -145.197236 
L 214.62 -144.796534 
L 212.76 -144.38745 
L 210.9 -143.971467 
L 209.04 -143.550168 
L 207.18 -143.125234 
L 205.32 -142.698423 
L 203.46 -142.271525 
L 201.6 -141.846234 
L 199.74 -141.424308 
L 197.88 -141.008146 
L 196.02 -140.600237 
L 194.16 -140.202966 
L 192.3 -139.818719 
L 190.44 -139.449916 
L 188.58 -139.099017 
L 186.72 -138.768519 
L 184.86 -138.460945 
L 183 -138.178842 
L 181.14 -137.924769 
L 179.28 -137.701289 
L 177.42 -137.510962 
L 175.56 -137.356334 
L 173.7 -137.239927 
L 171.84 -137.164233 
L 169.98 -137.131701 
L 168.12 -137.14473 
L 166.26 -137.205659 
L 164.4 -137.316757 
L 162.54 -137.480211 
L 160.68 -137.698124 
L 158.82 -137.972495 
L 156.96 -138.305221 
L 155.1 -138.698078 
L 153.24 -139.152718 
L 151.38 -139.670655 
L 149.52 -140.253255 
L 147.66 -140.901717 
L 145.8 -141.616999 
L 143.94 -142.399534 
L 142.08 -143.2496 
L 140.22 -144.168448 
L 138.36 -145.156859 
L 136.5 -146.21514 
L 134.64 -147.343346 
L 132.78 -148.54131 
L 130.92 -149.808652 
L 129.06 -151.144776 
L 127.2 -152.548868 
L 125.34 -154.019889 
L 123.48 -155.556574 
L 121.62 -157.157426 
L 119.76 -158.820717 
L 117.9 -160.544482 
L 116.04 -162.326514 
L 114.18 -164.164353 
L 112.32 -166.055214 
L 110.46 -167.995484 
L 108.6 -169.981101 
L 106.74 -172.009917 
L 104.88 -174.078928 
L 103.02 -176.184571 
L 101.16 -178.32303 
L 99.3 -180.490294 
L 97.44 -182.682168 
L 95.58 -184.89428 
L 93.72 -187.12209 
L 91.86 -189.360867 
L 90 -191.604708 
z
" id="m728b86a3f2" style="stroke:#1f77b4;stroke-opacity:0.6;"/>
    </defs>
    <g clip-path="url(#p0d1a59ccdf)">
     <use style="fill:#1f77b4;fill-opacity:0.6;stroke:#1f77b4;stroke-opacity:0.6;" x="0" xlink:href="#m728b86a3f2" y="432"/>
    </g>
   </g>
   <g id="PolyCollection_2">
    <defs>
     <path d="M 90 -191.603338 
L 90 -191.60882 
L 91.86 -189.374224 
L 93.72 -187.143672 
L 95.58 -184.920613 
L 97.44 -182.710332 
L 99.3 -180.517955 
L 101.16 -178.348391 
L 103.02 -176.206318 
L 104.88 -174.096184 
L 106.74 -172.02222 
L 108.6 -169.98852 
L 110.46 -167.999663 
L 112.32 -166.061279 
L 114.18 -164.174507 
L 116.04 -162.340712 
L 117.9 -160.562239 
L 119.76 -158.841396 
L 121.62 -157.18032 
L 123.48 -155.580945 
L 125.34 -154.044993 
L 127.2 -152.573978 
L 129.06 -151.169199 
L 130.92 -149.83174 
L 132.78 -148.562479 
L 134.64 -147.36208 
L 136.5 -146.231006 
L 138.36 -145.169526 
L 140.22 -144.177736 
L 142.08 -143.255653 
L 143.94 -142.403665 
L 145.8 -141.622544 
L 147.66 -140.910578 
L 149.52 -140.265858 
L 151.38 -139.687029 
L 153.24 -139.172743 
L 155.1 -138.721549 
L 156.96 -138.33187 
L 158.82 -138.002006 
L 160.68 -137.730142 
L 162.54 -137.514353 
L 164.4 -137.352617 
L 166.26 -137.242817 
L 168.12 -137.182757 
L 169.98 -137.170167 
L 171.84 -137.202712 
L 173.7 -137.278004 
L 175.56 -137.393609 
L 177.42 -137.547056 
L 179.28 -137.735846 
L 181.14 -137.957462 
L 183 -138.209377 
L 184.86 -138.489062 
L 186.72 -138.793995 
L 188.58 -139.121672 
L 190.44 -139.469611 
L 192.3 -139.835364 
L 194.16 -140.216525 
L 196.02 -140.61075 
L 197.88 -141.015779 
L 199.74 -141.429533 
L 201.6 -141.850345 
L 203.46 -142.27658 
L 205.32 -142.705561 
L 207.18 -143.134736 
L 209.04 -143.562012 
L 210.9 -143.98552 
L 212.76 -144.403522 
L 214.62 -144.814404 
L 216.48 -145.21666 
L 218.34 -145.608901 
L 220.2 -145.989852 
L 222.06 -146.358356 
L 223.92 -146.713373 
L 225.78 -147.053983 
L 227.64 -147.379384 
L 229.5 -147.688898 
L 231.36 -147.981963 
L 233.22 -148.258141 
L 235.08 -148.517107 
L 236.94 -148.758658 
L 238.8 -148.982705 
L 240.66 -149.18927 
L 242.52 -149.37849 
L 244.38 -149.550606 
L 246.24 -149.705969 
L 248.1 -149.845032 
L 249.96 -149.968359 
L 251.82 -150.076624 
L 253.68 -150.170647 
L 255.54 -150.251416 
L 257.4 -150.319966 
L 259.26 -150.377124 
L 261.12 -150.423639 
L 262.98 -150.460404 
L 264.84 -150.488445 
L 266.7 -150.508877 
L 268.56 -150.522871 
L 270.42 -150.531643 
L 272.28 -150.536439 
L 274.14 -150.538533 
L 276 -150.539211 
L 277.86 -150.539772 
L 279.72 -150.541513 
L 281.58 -150.54573 
L 283.44 -150.553703 
L 285.3 -150.566695 
L 287.16 -150.585942 
L 289.02 -150.612647 
L 290.88 -150.647974 
L 292.74 -150.693041 
L 294.6 -150.748913 
L 296.46 -150.816597 
L 298.32 -150.897036 
L 300.18 -150.991105 
L 302.04 -151.099604 
L 303.9 -151.223255 
L 305.76 -151.362703 
L 307.62 -151.518512 
L 309.48 -151.691171 
L 311.34 -151.881085 
L 313.2 -152.088536 
L 315.06 -152.31363 
L 316.92 -152.556297 
L 318.78 -152.816351 
L 320.64 -153.093516 
L 322.5 -153.38742 
L 324.36 -153.697589 
L 326.22 -154.02344 
L 328.08 -154.364275 
L 329.94 -154.719283 
L 331.8 -155.087536 
L 333.66 -155.467993 
L 335.52 -155.859496 
L 337.38 -156.260776 
L 339.24 -156.670454 
L 341.1 -157.087041 
L 342.96 -157.508945 
L 344.82 -157.934471 
L 346.68 -158.361827 
L 348.54 -158.789127 
L 350.4 -159.214398 
L 352.26 -159.635582 
L 354.12 -160.050545 
L 355.98 -160.457081 
L 357.84 -160.85292 
L 359.7 -161.235734 
L 361.56 -161.603147 
L 363.42 -161.95274 
L 365.28 -162.282062 
L 367.14 -162.588627 
L 369 -162.869919 
L 370.86 -163.123387 
L 372.72 -163.346458 
L 374.58 -163.536552 
L 376.44 -163.691107 
L 378.3 -163.807582 
L 380.16 -163.883476 
L 382.02 -163.916333 
L 383.88 -163.903749 
L 385.74 -163.843379 
L 387.6 -163.732952 
L 389.46 -163.570272 
L 391.32 -163.353234 
L 393.18 -163.079827 
L 395.04 -162.748147 
L 396.9 -162.356405 
L 398.76 -161.902935 
L 400.62 -161.386204 
L 402.48 -160.804819 
L 404.34 -160.157535 
L 406.2 -159.443264 
L 408.06 -158.661083 
L 409.92 -157.81024 
L 411.78 -156.890163 
L 413.64 -155.900462 
L 415.5 -154.840942 
L 417.36 -153.711604 
L 419.22 -152.51265 
L 421.08 -151.244491 
L 422.94 -149.907749 
L 424.8 -148.503261 
L 426.66 -147.03208 
L 428.52 -145.495483 
L 430.38 -143.894965 
L 432.24 -142.232252 
L 434.1 -140.509295 
L 435.96 -138.728272 
L 437.82 -136.891593 
L 439.68 -135.001895 
L 441.54 -133.062046 
L 443.4 -131.075139 
L 445.26 -129.044493 
L 447.12 -126.973645 
L 448.98 -124.866353 
L 450.84 -122.726586 
L 452.7 -120.558521 
L 454.56 -118.366535 
L 456.42 -116.155205 
L 458.28 -113.929293 
L 460.14 -111.693742 
L 462 -109.453668 
L 463.86 -107.214352 
L 465.72 -104.981228 
L 467.58 -102.759877 
L 469.44 -100.556013 
L 471.3 -98.375473 
L 473.16 -96.224211 
L 475.02 -94.108276 
L 476.88 -92.033808 
L 478.74 -90.007023 
L 480.6 -88.034199 
L 482.46 -86.121661 
L 484.32 -84.275771 
L 486.18 -82.502907 
L 488.04 -80.809454 
L 489.9 -79.201787 
L 491.76 -77.686253 
L 493.62 -76.269157 
L 495.48 -74.956743 
L 497.34 -73.75518 
L 499.2 -72.670544 
L 501.06 -71.708798 
L 502.92 -70.875778 
L 504.78 -70.177181 
L 506.64 -69.618543 
L 508.5 -69.205225 
L 510.36 -68.942398 
L 512.22 -68.835027 
L 514.08 -68.887854 
L 515.94 -69.105381 
L 517.8 -69.491861 
L 519.66 -70.051274 
L 521.52 -70.787317 
L 523.38 -71.70339 
L 525.24 -72.802578 
L 527.1 -74.087643 
L 528.96 -75.561003 
L 530.82 -77.22473 
L 532.68 -79.080528 
L 534.54 -81.12973 
L 536.4 -83.373283 
L 538.26 -85.811739 
L 540.12 -88.445253 
L 541.98 -91.273562 
L 543.84 -94.295978 
L 545.7 -97.511371 
L 547.56 -100.918153 
L 549.42 -104.514279 
L 551.28 -108.297241 
L 553.14 -112.26408 
L 555 -116.411382 
L 556.86 -120.735282 
L 558.72 -125.231454 
L 560.58 -129.895119 
L 562.44 -134.721041 
L 564.3 -139.703533 
L 566.16 -144.836453 
L 568.02 -150.113216 
L 569.88 -155.526795 
L 571.74 -161.069729 
L 573.6 -166.734128 
L 575.46 -172.511685 
L 577.32 -178.393685 
L 579.18 -184.371016 
L 581.04 -190.434179 
L 582.9 -196.573305 
L 584.76 -202.778171 
L 586.62 -209.03822 
L 588.48 -215.342582 
L 590.34 -221.680104 
L 592.2 -228.039354 
L 594.06 -234.408571 
L 595.92 -240.775621 
L 597.78 -247.128073 
L 599.64 -253.45329 
L 601.5 -259.738454 
L 603.36 -265.970594 
L 605.22 -272.136592 
L 607.08 -278.223208 
L 608.94 -284.217095 
L 610.8 -290.104832 
L 612.66 -295.872944 
L 614.52 -301.507927 
L 616.38 -306.996281 
L 618.24 -312.324536 
L 620.1 -317.479285 
L 621.96 -322.447227 
L 623.82 -327.215237 
L 625.68 -331.770484 
L 627.54 -336.10039 
L 629.4 -340.192114 
L 631.26 -344.032674 
L 633.12 -347.609416 
L 634.98 -350.910042 
L 636.84 -353.922565 
L 638.7 -356.635305 
L 640.56 -359.03691 
L 642.42 -361.116395 
L 644.28 -362.863319 
L 646.14 -364.269752 
L 648 -365.330698 
L 648 -365.315311 
L 648 -365.315311 
L 646.14 -364.263796 
L 644.28 -362.855218 
L 642.42 -361.10375 
L 640.56 -359.021498 
L 638.7 -356.61887 
L 636.84 -353.906502 
L 634.98 -350.895384 
L 633.12 -347.596853 
L 631.26 -344.022556 
L 629.4 -340.184402 
L 627.54 -336.094462 
L 625.68 -331.764945 
L 623.82 -327.208611 
L 621.96 -322.438847 
L 620.1 -317.469088 
L 618.24 -312.31273 
L 616.38 -306.983192 
L 614.52 -301.493931 
L 612.66 -295.858433 
L 610.8 -290.090191 
L 608.94 -284.202686 
L 607.08 -278.209359 
L 605.22 -272.123592 
L 603.36 -265.958674 
L 601.5 -259.727786 
L 599.64 -253.44397 
L 597.78 -247.120105 
L 595.92 -240.768869 
L 594.06 -234.402717 
L 592.2 -228.033872 
L 590.34 -221.674371 
L 588.48 -215.336097 
L 586.62 -209.030702 
L 584.76 -202.769518 
L 582.9 -196.56353 
L 581.04 -190.423367 
L 579.18 -184.359297 
L 577.32 -178.381214 
L 575.46 -172.498634 
L 573.6 -166.720678 
L 571.74 -161.056063 
L 569.88 -155.513094 
L 568.02 -150.099651 
L 566.16 -144.823187 
L 564.3 -139.690714 
L 562.44 -134.7088 
L 560.58 -129.883565 
L 558.72 -125.220676 
L 556.86 -120.725341 
L 555 -116.402311 
L 553.14 -112.255874 
L 551.28 -108.289859 
L 549.42 -104.507633 
L 547.56 -100.912104 
L 545.7 -97.505729 
L 543.84 -94.290524 
L 541.98 -91.268075 
L 540.12 -88.43955 
L 538.26 -85.805691 
L 536.4 -83.366817 
L 534.54 -81.122827 
L 532.68 -79.073203 
L 530.82 -77.217023 
L 528.96 -75.552975 
L 527.1 -74.079363 
L 525.24 -72.794125 
L 523.38 -71.694842 
L 521.52 -70.778754 
L 519.66 -70.042769 
L 517.8 -69.483485 
L 515.94 -69.097195 
L 514.08 -68.87991 
L 512.22 -68.827369 
L 510.36 -68.935055 
L 508.5 -69.198214 
L 506.64 -69.611866 
L 504.78 -70.170828 
L 502.92 -70.869722 
L 501.06 -71.703001 
L 499.2 -72.66496 
L 497.34 -73.749754 
L 495.48 -74.951417 
L 493.62 -76.263876 
L 491.76 -77.680971 
L 489.9 -79.196467 
L 488.04 -80.804071 
L 486.18 -82.497447 
L 484.32 -84.27023 
L 482.46 -86.116045 
L 480.6 -88.028518 
L 478.74 -90.001294 
L 476.88 -92.028048 
L 475.02 -94.102503 
L 473.16 -96.218444 
L 471.3 -98.369728 
L 469.44 -100.550299 
L 467.58 -102.754206 
L 465.72 -104.975603 
L 463.86 -107.208775 
L 462 -109.448136 
L 460.14 -111.688251 
L 458.28 -113.923838 
L 456.42 -116.14978 
L 454.56 -118.361134 
L 452.7 -120.553139 
L 450.84 -122.721224 
L 448.98 -124.861013 
L 447.12 -126.968331 
L 445.26 -129.039209 
L 443.4 -131.069894 
L 441.54 -133.056845 
L 439.68 -134.996742 
L 437.82 -136.886488 
L 435.96 -138.723209 
L 434.1 -140.504258 
L 432.24 -142.227218 
L 430.38 -143.889896 
L 428.52 -145.490332 
L 426.66 -147.026796 
L 424.8 -148.497783 
L 422.94 -149.902017 
L 421.08 -151.238448 
L 419.22 -152.506245 
L 417.36 -153.704795 
L 415.5 -154.8337 
L 413.64 -155.892767 
L 411.78 -156.88201 
L 409.92 -157.801636 
L 408.06 -158.652044 
L 406.2 -159.433819 
L 404.34 -160.147722 
L 402.48 -160.794688 
L 400.62 -161.375812 
L 398.76 -161.892347 
L 396.9 -162.345691 
L 395.04 -162.737385 
L 393.18 -163.069098 
L 391.32 -163.342622 
L 389.46 -163.559861 
L 387.6 -163.722825 
L 385.74 -163.833616 
L 383.88 -163.894424 
L 382.02 -163.907513 
L 380.16 -163.875212 
L 378.3 -163.799908 
L 376.44 -163.684032 
L 374.58 -163.530049 
L 372.72 -163.340451 
L 370.86 -163.117744 
L 369 -162.864446 
L 367.14 -162.583085 
L 365.28 -162.276205 
L 363.42 -161.946353 
L 361.56 -161.596065 
L 359.7 -161.227847 
L 357.84 -160.844167 
L 355.98 -160.447439 
L 354.12 -160.040022 
L 352.26 -159.624212 
L 350.4 -159.202238 
L 348.54 -158.77625 
L 346.68 -158.348324 
L 344.82 -157.920446 
L 342.96 -157.494514 
L 341.1 -157.072328 
L 339.24 -156.655593 
L 337.38 -156.245906 
L 335.52 -155.844759 
L 333.66 -155.453535 
L 331.8 -155.073501 
L 329.94 -154.705811 
L 328.08 -154.351502 
L 326.22 -154.01149 
L 324.36 -153.686572 
L 322.5 -153.377423 
L 320.64 -153.084597 
L 318.78 -152.808516 
L 316.92 -152.549476 
L 315.06 -152.307634 
L 313.2 -152.083009 
L 311.34 -151.875515 
L 309.48 -151.68502 
L 307.62 -151.511356 
L 305.76 -151.354272 
L 303.9 -151.213401 
L 302.04 -151.088262 
L 300.18 -150.978269 
L 298.32 -150.882741 
L 296.46 -150.800914 
L 294.6 -150.73194 
L 292.74 -150.674901 
L 290.88 -150.628811 
L 289.02 -150.592623 
L 287.16 -150.565237 
L 285.3 -150.545503 
L 283.44 -150.532229 
L 281.58 -150.524188 
L 279.72 -150.520125 
L 277.86 -150.518762 
L 276 -150.518807 
L 274.14 -150.518959 
L 272.28 -150.517914 
L 270.42 -150.514374 
L 268.56 -150.507054 
L 266.7 -150.494683 
L 264.84 -150.476015 
L 262.98 -150.449829 
L 261.12 -150.414926 
L 259.26 -150.370116 
L 257.4 -150.314183 
L 255.54 -150.245883 
L 253.68 -150.164183 
L 251.82 -150.068403 
L 249.96 -149.957965 
L 248.1 -149.832288 
L 246.24 -149.69082 
L 244.38 -149.533079 
L 242.52 -149.358666 
L 240.66 -149.167275 
L 238.8 -148.958703 
L 236.94 -148.732849 
L 235.08 -148.48972 
L 233.22 -148.229434 
L 231.36 -147.952221 
L 229.5 -147.658425 
L 227.64 -147.348506 
L 225.78 -147.023039 
L 223.92 -146.682717 
L 222.06 -146.328347 
L 220.2 -145.960853 
L 218.34 -145.581274 
L 216.48 -145.190761 
L 214.62 -144.790577 
L 212.76 -144.382093 
L 210.9 -143.966782 
L 209.04 -143.54622 
L 207.18 -143.122067 
L 205.32 -142.696043 
L 203.46 -142.26984 
L 201.6 -141.844863 
L 199.74 -141.422567 
L 197.88 -141.005602 
L 196.02 -140.596733 
L 194.16 -140.198447 
L 192.3 -139.813171 
L 190.44 -139.443351 
L 188.58 -139.091466 
L 186.72 -138.760026 
L 184.86 -138.451572 
L 183 -138.168663 
L 181.14 -137.913871 
L 179.28 -137.68977 
L 177.42 -137.498931 
L 175.56 -137.343909 
L 173.7 -137.227235 
L 171.84 -137.151406 
L 169.98 -137.118879 
L 168.12 -137.132055 
L 166.26 -137.193273 
L 164.4 -137.304803 
L 162.54 -137.468831 
L 160.68 -137.687451 
L 158.82 -137.962659 
L 156.96 -138.296338 
L 155.1 -138.690254 
L 153.24 -139.146042 
L 151.38 -139.665197 
L 149.52 -140.249055 
L 147.66 -140.898764 
L 145.8 -141.61515 
L 143.94 -142.398157 
L 142.08 -143.247583 
L 140.22 -144.165352 
L 138.36 -145.152636 
L 136.5 -146.209852 
L 134.64 -147.337102 
L 132.78 -148.534253 
L 130.92 -149.800955 
L 129.06 -151.136636 
L 127.2 -152.540499 
L 125.34 -154.011522 
L 123.48 -155.54845 
L 121.62 -157.149795 
L 119.76 -158.813824 
L 117.9 -160.538563 
L 116.04 -162.321781 
L 114.18 -164.160969 
L 112.32 -166.053192 
L 110.46 -167.994091 
L 108.6 -169.978629 
L 106.74 -172.005815 
L 104.88 -174.073176 
L 103.02 -176.177322 
L 101.16 -178.314576 
L 99.3 -180.481074 
L 97.44 -182.67278 
L 95.58 -184.885502 
L 93.72 -187.114896 
L 91.86 -189.356415 
L 90 -191.603338 
z
" id="m8787c745d3" style="stroke:#1f77b4;stroke-opacity:0.4;"/>
    </defs>
    <g clip-path="url(#p0d1a59ccdf)">
     <use style="fill:#1f77b4;fill-opacity:0.4;stroke:#1f77b4;stroke-opacity:0.4;" x="0" xlink:href="#m8787c745d3" y="432"/>
    </g>
   </g>
   <g id="PolyCollection_3">
    <defs>
     <path d="M 90 -191.601967 
L 90 -191.610191 
L 91.86 -189.378677 
L 93.72 -187.150867 
L 95.58 -184.929391 
L 97.44 -182.71972 
L 99.3 -180.527175 
L 101.16 -178.356844 
L 103.02 -176.213567 
L 104.88 -174.101936 
L 106.74 -172.026322 
L 108.6 -169.990993 
L 110.46 -168.001057 
L 112.32 -166.063301 
L 114.18 -164.177891 
L 116.04 -162.345445 
L 117.9 -160.568158 
L 119.76 -158.848289 
L 121.62 -157.187952 
L 123.48 -155.589068 
L 125.34 -154.053361 
L 127.2 -152.582348 
L 129.06 -151.177339 
L 130.92 -149.839437 
L 132.78 -148.569535 
L 134.64 -147.368324 
L 136.5 -146.236295 
L 138.36 -145.173749 
L 140.22 -144.180832 
L 142.08 -143.257671 
L 143.94 -142.405042 
L 145.8 -141.624392 
L 147.66 -140.913531 
L 149.52 -140.270059 
L 151.38 -139.692487 
L 153.24 -139.179419 
L 155.1 -138.729373 
L 156.96 -138.340753 
L 158.82 -138.011843 
L 160.68 -137.740815 
L 162.54 -137.525734 
L 164.4 -137.36457 
L 166.26 -137.255203 
L 168.12 -137.195433 
L 169.98 -137.182989 
L 171.84 -137.215539 
L 173.7 -137.290697 
L 175.56 -137.406034 
L 177.42 -137.559087 
L 179.28 -137.747365 
L 181.14 -137.96836 
L 183 -138.219555 
L 184.86 -138.498434 
L 186.72 -138.802488 
L 188.58 -139.129224 
L 190.44 -139.476176 
L 192.3 -139.840912 
L 194.16 -140.221045 
L 196.02 -140.614254 
L 197.88 -141.018323 
L 199.74 -141.431274 
L 201.6 -141.851716 
L 203.46 -142.278264 
L 205.32 -142.70794 
L 207.18 -143.137903 
L 209.04 -143.565961 
L 210.9 -143.990204 
L 212.76 -144.40888 
L 214.62 -144.82036 
L 216.48 -145.223134 
L 218.34 -145.615807 
L 220.2 -145.997102 
L 222.06 -146.365859 
L 223.92 -146.721037 
L 225.78 -147.061718 
L 227.64 -147.387104 
L 229.5 -147.696516 
L 231.36 -147.989399 
L 233.22 -148.265317 
L 235.08 -148.523954 
L 236.94 -148.765111 
L 238.8 -148.988705 
L 240.66 -149.194769 
L 242.52 -149.383446 
L 244.38 -149.554988 
L 246.24 -149.709756 
L 248.1 -149.848219 
L 249.96 -149.970957 
L 251.82 -150.07868 
L 253.68 -150.172263 
L 255.54 -150.252799 
L 257.4 -150.321412 
L 259.26 -150.378876 
L 261.12 -150.425817 
L 262.98 -150.463048 
L 264.84 -150.491553 
L 266.7 -150.512426 
L 268.56 -150.526826 
L 270.42 -150.53596 
L 272.28 -150.541071 
L 274.14 -150.543426 
L 276 -150.544312 
L 277.86 -150.545024 
L 279.72 -150.54686 
L 281.58 -150.551115 
L 283.44 -150.559072 
L 285.3 -150.571993 
L 287.16 -150.591118 
L 289.02 -150.617653 
L 290.88 -150.652765 
L 292.74 -150.697576 
L 294.6 -150.753156 
L 296.46 -150.820517 
L 298.32 -150.90061 
L 300.18 -150.994315 
L 302.04 -151.10244 
L 303.9 -151.225719 
L 305.76 -151.364811 
L 307.62 -151.520301 
L 309.48 -151.692709 
L 311.34 -151.882477 
L 313.2 -152.089918 
L 315.06 -152.315129 
L 316.92 -152.558002 
L 318.78 -152.81831 
L 320.64 -153.095746 
L 322.5 -153.38992 
L 324.36 -153.700343 
L 326.22 -154.026427 
L 328.08 -154.367468 
L 329.94 -154.72265 
L 331.8 -155.091045 
L 333.66 -155.471607 
L 335.52 -155.86318 
L 337.38 -156.264494 
L 339.24 -156.674169 
L 341.1 -157.09072 
L 342.96 -157.512553 
L 344.82 -157.937977 
L 346.68 -158.365202 
L 348.54 -158.792346 
L 350.4 -159.217437 
L 352.26 -159.638424 
L 354.12 -160.053176 
L 355.98 -160.459492 
L 357.84 -160.855108 
L 359.7 -161.237706 
L 361.56 -161.604917 
L 363.42 -161.954337 
L 365.28 -162.283526 
L 367.14 -162.590012 
L 369 -162.871287 
L 370.86 -163.124798 
L 372.72 -163.347959 
L 374.58 -163.538178 
L 376.44 -163.692875 
L 378.3 -163.8095 
L 380.16 -163.885542 
L 382.02 -163.918538 
L 383.88 -163.90608 
L 385.74 -163.84582 
L 387.6 -163.735484 
L 389.46 -163.572875 
L 391.32 -163.355887 
L 393.18 -163.082509 
L 395.04 -162.750838 
L 396.9 -162.359084 
L 398.76 -161.905583 
L 400.62 -161.388803 
L 402.48 -160.807352 
L 404.34 -160.159988 
L 406.2 -159.445625 
L 408.06 -158.663343 
L 409.92 -157.812391 
L 411.78 -156.892201 
L 413.64 -155.902386 
L 415.5 -154.842752 
L 417.36 -153.713306 
L 419.22 -152.514251 
L 421.08 -151.246002 
L 422.94 -149.909183 
L 424.8 -148.50463 
L 426.66 -147.033401 
L 428.52 -145.49677 
L 430.38 -143.896233 
L 432.24 -142.233511 
L 434.1 -140.510555 
L 435.96 -138.729538 
L 437.82 -136.892869 
L 439.68 -135.003183 
L 441.54 -133.063347 
L 443.4 -131.076451 
L 445.26 -129.045814 
L 447.12 -126.974974 
L 448.98 -124.867688 
L 450.84 -122.727927 
L 452.7 -120.559866 
L 454.56 -118.367886 
L 456.42 -116.156562 
L 458.28 -113.930657 
L 460.14 -111.695115 
L 462 -109.455051 
L 463.86 -107.215746 
L 465.72 -104.982635 
L 467.58 -102.761294 
L 469.44 -100.557442 
L 471.3 -98.37691 
L 473.16 -96.225653 
L 475.02 -94.109719 
L 476.88 -92.035248 
L 478.74 -90.008456 
L 480.6 -88.03562 
L 482.46 -86.123065 
L 484.32 -84.277156 
L 486.18 -82.504272 
L 488.04 -80.8108 
L 489.9 -79.203117 
L 491.76 -77.687574 
L 493.62 -76.270477 
L 495.48 -74.958075 
L 497.34 -73.756537 
L 499.2 -72.67194 
L 501.06 -71.710247 
L 502.92 -70.877292 
L 504.78 -70.178769 
L 506.64 -69.620212 
L 508.5 -69.206977 
L 510.36 -68.944234 
L 512.22 -68.836941 
L 514.08 -68.88984 
L 515.94 -69.107428 
L 517.8 -69.493955 
L 519.66 -70.053401 
L 521.52 -70.789458 
L 523.38 -71.705527 
L 525.24 -72.804691 
L 527.1 -74.089712 
L 528.96 -75.56301 
L 530.82 -77.226657 
L 532.68 -79.08236 
L 534.54 -81.131456 
L 536.4 -83.374899 
L 538.26 -85.813252 
L 540.12 -88.446678 
L 541.98 -91.274933 
L 543.84 -94.297341 
L 545.7 -97.512781 
L 547.56 -100.919666 
L 549.42 -104.51594 
L 551.28 -108.299087 
L 553.14 -112.266131 
L 555 -116.41365 
L 556.86 -120.737767 
L 558.72 -125.234148 
L 560.58 -129.898007 
L 562.44 -134.724102 
L 564.3 -139.706737 
L 566.16 -144.839769 
L 568.02 -150.116607 
L 569.88 -155.530221 
L 571.74 -161.073145 
L 573.6 -166.73749 
L 575.46 -172.514948 
L 577.32 -178.396803 
L 579.18 -184.373945 
L 581.04 -190.436881 
L 582.9 -196.575749 
L 584.76 -202.780335 
L 586.62 -209.0401 
L 588.48 -215.344203 
L 590.34 -221.681538 
L 592.2 -228.040725 
L 594.06 -234.410034 
L 595.92 -240.777308 
L 597.78 -247.130065 
L 599.64 -253.45562 
L 601.5 -259.741121 
L 603.36 -265.973574 
L 605.22 -272.139842 
L 607.08 -278.22667 
L 608.94 -284.220697 
L 610.8 -290.108493 
L 612.66 -295.876571 
L 614.52 -301.511426 
L 616.38 -306.999554 
L 618.24 -312.327487 
L 620.1 -317.481834 
L 621.96 -322.449322 
L 623.82 -327.216893 
L 625.68 -331.771868 
L 627.54 -336.101872 
L 629.4 -340.194042 
L 631.26 -344.035203 
L 633.12 -347.612557 
L 634.98 -350.913706 
L 636.84 -353.92658 
L 638.7 -356.639414 
L 640.56 -359.040763 
L 642.42 -361.119557 
L 644.28 -362.865344 
L 646.14 -364.271241 
L 648 -365.334545 
L 648 -365.311464 
L 648 -365.311464 
L 646.14 -364.262307 
L 644.28 -362.853193 
L 642.42 -361.100589 
L 640.56 -359.017645 
L 638.7 -356.614761 
L 636.84 -353.902486 
L 634.98 -350.89172 
L 633.12 -347.593712 
L 631.26 -344.020027 
L 629.4 -340.182475 
L 627.54 -336.09298 
L 625.68 -331.76356 
L 623.82 -327.206955 
L 621.96 -322.436752 
L 620.1 -317.466538 
L 618.24 -312.309779 
L 616.38 -306.97992 
L 614.52 -301.490432 
L 612.66 -295.854805 
L 610.8 -290.08653 
L 608.94 -284.199084 
L 607.08 -278.205897 
L 605.22 -272.120341 
L 603.36 -265.955694 
L 601.5 -259.725118 
L 599.64 -253.441641 
L 597.78 -247.118113 
L 595.92 -240.767181 
L 594.06 -234.401254 
L 592.2 -228.032502 
L 590.34 -221.672938 
L 588.48 -215.334476 
L 586.62 -209.028822 
L 584.76 -202.767355 
L 582.9 -196.561086 
L 581.04 -190.420664 
L 579.18 -184.356367 
L 577.32 -178.378096 
L 575.46 -172.495371 
L 573.6 -166.717315 
L 571.74 -161.052646 
L 569.88 -155.509668 
L 568.02 -150.09626 
L 566.16 -144.81987 
L 564.3 -139.687509 
L 562.44 -134.705739 
L 560.58 -129.880676 
L 558.72 -125.217981 
L 556.86 -120.722856 
L 555 -116.400043 
L 553.14 -112.253823 
L 551.28 -108.288013 
L 549.42 -104.505972 
L 547.56 -100.910592 
L 545.7 -97.504319 
L 543.84 -94.28916 
L 541.98 -91.266704 
L 540.12 -88.438125 
L 538.26 -85.804179 
L 536.4 -83.365201 
L 534.54 -81.121101 
L 532.68 -79.071371 
L 530.82 -77.215096 
L 528.96 -75.550968 
L 527.1 -74.077293 
L 525.24 -72.792012 
L 523.38 -71.692706 
L 521.52 -70.776613 
L 519.66 -70.040642 
L 517.8 -69.481391 
L 515.94 -69.095149 
L 514.08 -68.877924 
L 512.22 -68.825455 
L 510.36 -68.933219 
L 508.5 -69.196461 
L 506.64 -69.610197 
L 504.78 -70.16924 
L 502.92 -70.868208 
L 501.06 -71.701552 
L 499.2 -72.663564 
L 497.34 -73.748398 
L 495.48 -74.950085 
L 493.62 -76.262556 
L 491.76 -77.679651 
L 489.9 -79.195137 
L 488.04 -80.802725 
L 486.18 -82.496082 
L 484.32 -84.268845 
L 482.46 -86.114642 
L 480.6 -88.027098 
L 478.74 -89.999862 
L 476.88 -92.026608 
L 475.02 -94.10106 
L 473.16 -96.217002 
L 471.3 -98.368291 
L 469.44 -100.548871 
L 467.58 -102.752788 
L 465.72 -104.974197 
L 463.86 -107.20738 
L 462 -109.446753 
L 460.14 -111.686878 
L 458.28 -113.922474 
L 456.42 -116.148423 
L 454.56 -118.359784 
L 452.7 -120.551794 
L 450.84 -122.719884 
L 448.98 -124.859678 
L 447.12 -126.967002 
L 445.26 -129.037888 
L 443.4 -131.068582 
L 441.54 -133.055544 
L 439.68 -134.995454 
L 437.82 -136.885212 
L 435.96 -138.721943 
L 434.1 -140.502999 
L 432.24 -142.225959 
L 430.38 -143.888628 
L 428.52 -145.489045 
L 426.66 -147.025475 
L 424.8 -148.496414 
L 422.94 -149.900584 
L 421.08 -151.236937 
L 419.22 -152.504643 
L 417.36 -153.703093 
L 415.5 -154.83189 
L 413.64 -155.890844 
L 411.78 -156.879972 
L 409.92 -157.799485 
L 408.06 -158.649784 
L 406.2 -159.431457 
L 404.34 -160.145269 
L 402.48 -160.792155 
L 400.62 -161.373214 
L 398.76 -161.889699 
L 396.9 -162.343012 
L 395.04 -162.734694 
L 393.18 -163.066416 
L 391.32 -163.339969 
L 389.46 -163.557258 
L 387.6 -163.720293 
L 385.74 -163.831175 
L 383.88 -163.892093 
L 382.02 -163.905308 
L 380.16 -163.873146 
L 378.3 -163.79799 
L 376.44 -163.682263 
L 374.58 -163.528424 
L 372.72 -163.338949 
L 370.86 -163.116333 
L 369 -162.863077 
L 367.14 -162.5817 
L 365.28 -162.274741 
L 363.42 -161.944756 
L 361.56 -161.594294 
L 359.7 -161.225876 
L 357.84 -160.841979 
L 355.98 -160.445028 
L 354.12 -160.037391 
L 352.26 -159.62137 
L 350.4 -159.199198 
L 348.54 -158.773031 
L 346.68 -158.344949 
L 344.82 -157.91694 
L 342.96 -157.490906 
L 341.1 -157.06865 
L 339.24 -156.651877 
L 337.38 -156.242188 
L 335.52 -155.841075 
L 333.66 -155.44992 
L 331.8 -155.069992 
L 329.94 -154.702443 
L 328.08 -154.348308 
L 326.22 -154.008502 
L 324.36 -153.683817 
L 322.5 -153.374924 
L 320.64 -153.082367 
L 318.78 -152.806557 
L 316.92 -152.547771 
L 315.06 -152.306135 
L 313.2 -152.081628 
L 311.34 -151.874123 
L 309.48 -151.683482 
L 307.62 -151.509567 
L 305.76 -151.352164 
L 303.9 -151.210938 
L 302.04 -151.085427 
L 300.18 -150.97506 
L 298.32 -150.879168 
L 296.46 -150.796993 
L 294.6 -150.727696 
L 292.74 -150.670366 
L 290.88 -150.62402 
L 289.02 -150.587618 
L 287.16 -150.560061 
L 285.3 -150.540205 
L 283.44 -150.52686 
L 281.58 -150.518802 
L 279.72 -150.514778 
L 277.86 -150.51351 
L 276 -150.513706 
L 274.14 -150.514065 
L 272.28 -150.513282 
L 270.42 -150.510057 
L 268.56 -150.503099 
L 266.7 -150.491134 
L 264.84 -150.472908 
L 262.98 -150.447185 
L 261.12 -150.412748 
L 259.26 -150.368364 
L 257.4 -150.312737 
L 255.54 -150.2445 
L 253.68 -150.162567 
L 251.82 -150.066348 
L 249.96 -149.955367 
L 248.1 -149.829101 
L 246.24 -149.687033 
L 244.38 -149.528697 
L 242.52 -149.35371 
L 240.66 -149.161776 
L 238.8 -148.952703 
L 236.94 -148.726397 
L 235.08 -148.482873 
L 233.22 -148.222257 
L 231.36 -147.944785 
L 229.5 -147.650807 
L 227.64 -147.340786 
L 225.78 -147.015303 
L 223.92 -146.675053 
L 222.06 -146.320844 
L 220.2 -145.953603 
L 218.34 -145.574367 
L 216.48 -145.184287 
L 214.62 -144.784621 
L 212.76 -144.376735 
L 210.9 -143.962098 
L 209.04 -143.542272 
L 207.18 -143.1189 
L 205.32 -142.693664 
L 203.46 -142.268155 
L 201.6 -141.843492 
L 199.74 -141.420826 
L 197.88 -141.003057 
L 196.02 -140.593229 
L 194.16 -140.193927 
L 192.3 -139.807623 
L 190.44 -139.436786 
L 188.58 -139.083914 
L 186.72 -138.751534 
L 184.86 -138.4422 
L 183 -138.158485 
L 181.14 -137.902973 
L 179.28 -137.678251 
L 177.42 -137.4869 
L 175.56 -137.331484 
L 173.7 -137.214542 
L 171.84 -137.13858 
L 169.98 -137.106057 
L 168.12 -137.119379 
L 166.26 -137.180887 
L 164.4 -137.29285 
L 162.54 -137.45745 
L 160.68 -137.676778 
L 158.82 -137.952822 
L 156.96 -138.287455 
L 155.1 -138.682431 
L 153.24 -139.139367 
L 151.38 -139.659739 
L 149.52 -140.244854 
L 147.66 -140.895811 
L 145.8 -141.613302 
L 143.94 -142.39678 
L 142.08 -143.245565 
L 140.22 -144.162256 
L 138.36 -145.148413 
L 136.5 -146.204563 
L 134.64 -147.330857 
L 132.78 -148.527197 
L 130.92 -149.793259 
L 129.06 -151.128495 
L 127.2 -152.532129 
L 125.34 -154.003154 
L 123.48 -155.540327 
L 121.62 -157.142163 
L 119.76 -158.806931 
L 117.9 -160.532644 
L 116.04 -162.317049 
L 114.18 -164.157584 
L 112.32 -166.051171 
L 110.46 -167.992698 
L 108.6 -169.976156 
L 106.74 -172.001714 
L 104.88 -174.067424 
L 103.02 -176.170072 
L 101.16 -178.306123 
L 99.3 -180.471854 
L 97.44 -182.663392 
L 95.58 -184.876724 
L 93.72 -187.107702 
L 91.86 -189.351963 
L 90 -191.601967 
z
" id="mb92a736946" style="stroke:#1f77b4;stroke-opacity:0.2;"/>
    </defs>
    <g clip-path="url(#p0d1a59ccdf)">
     <use style="fill:#1f77b4;fill-opacity:0.2;stroke:#1f77b4;stroke-opacity:0.2;" x="0" xlink:href="#mb92a736946" y="432"/>
    </g>
   </g>
   <g id="matplotlib.axis_1">
    <g id="xtick_1">
     <g id="line2d_1">
      <path clip-path="url(#p0d1a59ccdf)" d="M 90 378 
L 90 51.84 
" style="fill:none;stroke:#b0b0b0;stroke-linecap:square;stroke-width:0.8;"/>
     </g>
     <g id="line2d_2">
      <defs>
       <path d="M 0 0 
L 0 3.5 
" id="me1aeac7013" style="stroke:#000000;stroke-width:0.8;"/>
      </defs>
      <g>
       <use style="stroke:#000000;stroke-width:0.8;" x="90" xlink:href="#me1aeac7013" y="378"/>
      </g>
     </g>
     <g id="text_1">
      <!-- 0.0 -->
      <defs>
       <path d="M 31.78125 66.40625 
Q 24.171875 66.40625 20.328125 58.90625 
Q 16.5 51.421875 16.5 36.375 
Q 16.5 21.390625 20.328125 13.890625 
Q 24.171875 6.390625 31.78125 6.390625 
Q 39.453125 6.390625 43.28125 13.890625 
Q 47.125 21.390625 47.125 36.375 
Q 47.125 51.421875 43.28125 58.90625 
Q 39.453125 66.40625 31.78125 66.40625 
z
M 31.78125 74.21875 
Q 44.046875 74.21875 50.515625 64.515625 
Q 56.984375 54.828125 56.984375 36.375 
Q 56.984375 17.96875 50.515625 8.265625 
Q 44.046875 -1.421875 31.78125 -1.421875 
Q 19.53125 -1.421875 13.0625 8.265625 
Q 6.59375 17.96875 6.59375 36.375 
Q 6.59375 54.828125 13.0625 64.515625 
Q 19.53125 74.21875 31.78125 74.21875 
z
" id="DejaVuSans-48"/>
       <path d="M 10.6875 12.40625 
L 21 12.40625 
L 21 0 
L 10.6875 0 
z
" id="DejaVuSans-46"/>
      </defs>
      <g transform="translate(82.048438 392.598437)scale(0.1 -0.1)">
       <use xlink:href="#DejaVuSans-48"/>
       <use x="63.623047" xlink:href="#DejaVuSans-46"/>
       <use x="95.410156" xlink:href="#DejaVuSans-48"/>
      </g>
     </g>
    </g>
    <g id="xtick_2">
     <g id="line2d_3">
      <path clip-path="url(#p0d1a59ccdf)" d="M 201.6 378 
L 201.6 51.84 
" style="fill:none;stroke:#b0b0b0;stroke-linecap:square;stroke-width:0.8;"/>
     </g>
     <g id="line2d_4">
      <g>
       <use style="stroke:#000000;stroke-width:0.8;" x="201.6" xlink:href="#me1aeac7013" y="378"/>
      </g>
     </g>
     <g id="text_2">
      <!-- 0.2 -->
      <defs>
       <path d="M 19.1875 8.296875 
L 53.609375 8.296875 
L 53.609375 0 
L 7.328125 0 
L 7.328125 8.296875 
Q 12.9375 14.109375 22.625 23.890625 
Q 32.328125 33.6875 34.8125 36.53125 
Q 39.546875 41.84375 41.421875 45.53125 
Q 43.3125 49.21875 43.3125 52.78125 
Q 43.3125 58.59375 39.234375 62.25 
Q 35.15625 65.921875 28.609375 65.921875 
Q 23.96875 65.921875 18.8125 64.3125 
Q 13.671875 62.703125 7.8125 59.421875 
L 7.8125 69.390625 
Q 13.765625 71.78125 18.9375 73 
Q 24.125 74.21875 28.421875 74.21875 
Q 39.75 74.21875 46.484375 68.546875 
Q 53.21875 62.890625 53.21875 53.421875 
Q 53.21875 48.921875 51.53125 44.890625 
Q 49.859375 40.875 45.40625 35.40625 
Q 44.1875 33.984375 37.640625 27.21875 
Q 31.109375 20.453125 19.1875 8.296875 
z
" id="DejaVuSans-50"/>
      </defs>
      <g transform="translate(193.648438 392.598437)scale(0.1 -0.1)">
       <use xlink:href="#DejaVuSans-48"/>
       <use x="63.623047" xlink:href="#DejaVuSans-46"/>
       <use x="95.410156" xlink:href="#DejaVuSans-50"/>
      </g>
     </g>
    </g>
    <g id="xtick_3">
     <g id="line2d_5">
      <path clip-path="url(#p0d1a59ccdf)" d="M 313.2 378 
L 313.2 51.84 
" style="fill:none;stroke:#b0b0b0;stroke-linecap:square;stroke-width:0.8;"/>
     </g>
     <g id="line2d_6">
      <g>
       <use style="stroke:#000000;stroke-width:0.8;" x="313.2" xlink:href="#me1aeac7013" y="378"/>
      </g>
     </g>
     <g id="text_3">
      <!-- 0.4 -->
      <defs>
       <path d="M 37.796875 64.3125 
L 12.890625 25.390625 
L 37.796875 25.390625 
z
M 35.203125 72.90625 
L 47.609375 72.90625 
L 47.609375 25.390625 
L 58.015625 25.390625 
L 58.015625 17.1875 
L 47.609375 17.1875 
L 47.609375 0 
L 37.796875 0 
L 37.796875 17.1875 
L 4.890625 17.1875 
L 4.890625 26.703125 
z
" id="DejaVuSans-52"/>
      </defs>
      <g transform="translate(305.248438 392.598437)scale(0.1 -0.1)">
       <use xlink:href="#DejaVuSans-48"/>
       <use x="63.623047" xlink:href="#DejaVuSans-46"/>
       <use x="95.410156" xlink:href="#DejaVuSans-52"/>
      </g>
     </g>
    </g>
    <g id="xtick_4">
     <g id="line2d_7">
      <path clip-path="url(#p0d1a59ccdf)" d="M 424.8 378 
L 424.8 51.84 
" style="fill:none;stroke:#b0b0b0;stroke-linecap:square;stroke-width:0.8;"/>
     </g>
     <g id="line2d_8">
      <g>
       <use style="stroke:#000000;stroke-width:0.8;" x="424.8" xlink:href="#me1aeac7013" y="378"/>
      </g>
     </g>
     <g id="text_4">
      <!-- 0.6 -->
      <defs>
       <path d="M 33.015625 40.375 
Q 26.375 40.375 22.484375 35.828125 
Q 18.609375 31.296875 18.609375 23.390625 
Q 18.609375 15.53125 22.484375 10.953125 
Q 26.375 6.390625 33.015625 6.390625 
Q 39.65625 6.390625 43.53125 10.953125 
Q 47.40625 15.53125 47.40625 23.390625 
Q 47.40625 31.296875 43.53125 35.828125 
Q 39.65625 40.375 33.015625 40.375 
z
M 52.59375 71.296875 
L 52.59375 62.3125 
Q 48.875 64.0625 45.09375 64.984375 
Q 41.3125 65.921875 37.59375 65.921875 
Q 27.828125 65.921875 22.671875 59.328125 
Q 17.53125 52.734375 16.796875 39.40625 
Q 19.671875 43.65625 24.015625 45.921875 
Q 28.375 48.1875 33.59375 48.1875 
Q 44.578125 48.1875 50.953125 41.515625 
Q 57.328125 34.859375 57.328125 23.390625 
Q 57.328125 12.15625 50.6875 5.359375 
Q 44.046875 -1.421875 33.015625 -1.421875 
Q 20.359375 -1.421875 13.671875 8.265625 
Q 6.984375 17.96875 6.984375 36.375 
Q 6.984375 53.65625 15.1875 63.9375 
Q 23.390625 74.21875 37.203125 74.21875 
Q 40.921875 74.21875 44.703125 73.484375 
Q 48.484375 72.75 52.59375 71.296875 
z
" id="DejaVuSans-54"/>
      </defs>
      <g transform="translate(416.848438 392.598437)scale(0.1 -0.1)">
       <use xlink:href="#DejaVuSans-48"/>
       <use x="63.623047" xlink:href="#DejaVuSans-46"/>
       <use x="95.410156" xlink:href="#DejaVuSans-54"/>
      </g>
     </g>
    </g>
    <g id="xtick_5">
     <g id="line2d_9">
      <path clip-path="url(#p0d1a59ccdf)" d="M 536.4 378 
L 536.4 51.84 
" style="fill:none;stroke:#b0b0b0;stroke-linecap:square;stroke-width:0.8;"/>
     </g>
     <g id="line2d_10">
      <g>
       <use style="stroke:#000000;stroke-width:0.8;" x="536.4" xlink:href="#me1aeac7013" y="378"/>
      </g>
     </g>
     <g id="text_5">
      <!-- 0.8 -->
      <defs>
       <path d="M 31.78125 34.625 
Q 24.75 34.625 20.71875 30.859375 
Q 16.703125 27.09375 16.703125 20.515625 
Q 16.703125 13.921875 20.71875 10.15625 
Q 24.75 6.390625 31.78125 6.390625 
Q 38.8125 6.390625 42.859375 10.171875 
Q 46.921875 13.96875 46.921875 20.515625 
Q 46.921875 27.09375 42.890625 30.859375 
Q 38.875 34.625 31.78125 34.625 
z
M 21.921875 38.8125 
Q 15.578125 40.375 12.03125 44.71875 
Q 8.5 49.078125 8.5 55.328125 
Q 8.5 64.0625 14.71875 69.140625 
Q 20.953125 74.21875 31.78125 74.21875 
Q 42.671875 74.21875 48.875 69.140625 
Q 55.078125 64.0625 55.078125 55.328125 
Q 55.078125 49.078125 51.53125 44.71875 
Q 48 40.375 41.703125 38.8125 
Q 48.828125 37.15625 52.796875 32.3125 
Q 56.78125 27.484375 56.78125 20.515625 
Q 56.78125 9.90625 50.3125 4.234375 
Q 43.84375 -1.421875 31.78125 -1.421875 
Q 19.734375 -1.421875 13.25 4.234375 
Q 6.78125 9.90625 6.78125 20.515625 
Q 6.78125 27.484375 10.78125 32.3125 
Q 14.796875 37.15625 21.921875 38.8125 
z
M 18.3125 54.390625 
Q 18.3125 48.734375 21.84375 45.5625 
Q 25.390625 42.390625 31.78125 42.390625 
Q 38.140625 42.390625 41.71875 45.5625 
Q 45.3125 48.734375 45.3125 54.390625 
Q 45.3125 60.0625 41.71875 63.234375 
Q 38.140625 66.40625 31.78125 66.40625 
Q 25.390625 66.40625 21.84375 63.234375 
Q 18.3125 60.0625 18.3125 54.390625 
z
" id="DejaVuSans-56"/>
      </defs>
      <g transform="translate(528.448438 392.598437)scale(0.1 -0.1)">
       <use xlink:href="#DejaVuSans-48"/>
       <use x="63.623047" xlink:href="#DejaVuSans-46"/>
       <use x="95.410156" xlink:href="#DejaVuSans-56"/>
      </g>
     </g>
    </g>
    <g id="xtick_6">
     <g id="line2d_11">
      <path clip-path="url(#p0d1a59ccdf)" d="M 648 378 
L 648 51.84 
" style="fill:none;stroke:#b0b0b0;stroke-linecap:square;stroke-width:0.8;"/>
     </g>
     <g id="line2d_12">
      <g>
       <use style="stroke:#000000;stroke-width:0.8;" x="648" xlink:href="#me1aeac7013" y="378"/>
      </g>
     </g>
     <g id="text_6">
      <!-- 1.0 -->
      <defs>
       <path d="M 12.40625 8.296875 
L 28.515625 8.296875 
L 28.515625 63.921875 
L 10.984375 60.40625 
L 10.984375 69.390625 
L 28.421875 72.90625 
L 38.28125 72.90625 
L 38.28125 8.296875 
L 54.390625 8.296875 
L 54.390625 0 
L 12.40625 0 
z
" id="DejaVuSans-49"/>
      </defs>
      <g transform="translate(640.048437 392.598437)scale(0.1 -0.1)">
       <use xlink:href="#DejaVuSans-49"/>
       <use x="63.623047" xlink:href="#DejaVuSans-46"/>
       <use x="95.410156" xlink:href="#DejaVuSans-48"/>
      </g>
     </g>
    </g>
    <g id="text_7">
     <!-- $x$ -->
     <defs>
      <path d="M 60.015625 54.6875 
L 34.90625 27.875 
L 50.296875 0 
L 39.984375 0 
L 28.421875 21.6875 
L 8.296875 0 
L -2.59375 0 
L 24.3125 28.8125 
L 10.015625 54.6875 
L 20.3125 54.6875 
L 30.8125 34.90625 
L 49.125 54.6875 
z
" id="DejaVuSans-Oblique-120"/>
     </defs>
     <g transform="translate(366 406.276563)scale(0.1 -0.1)">
      <use transform="translate(0 0.3125)" xlink:href="#DejaVuSans-Oblique-120"/>
     </g>
    </g>
   </g>
   <g id="matplotlib.axis_2">
    <g id="ytick_1">
     <g id="line2d_13">
      <path clip-path="url(#p0d1a59ccdf)" d="M 90 349.319056 
L 648 349.319056 
" style="fill:none;stroke:#b0b0b0;stroke-linecap:square;stroke-width:0.8;"/>
     </g>
     <g id="line2d_14">
      <defs>
       <path d="M 0 0 
L -3.5 0 
" id="m4c9e279b1c" style="stroke:#000000;stroke-width:0.8;"/>
      </defs>
      <g>
       <use style="stroke:#000000;stroke-width:0.8;" x="90" xlink:href="#m4c9e279b1c" y="349.319056"/>
      </g>
     </g>
     <g id="text_8">
      <!-- 5 -->
      <defs>
       <path d="M 10.59375 35.5 
L 73.1875 35.5 
L 73.1875 27.203125 
L 10.59375 27.203125 
z
" id="DejaVuSans-8722"/>
       <path d="M 10.796875 72.90625 
L 49.515625 72.90625 
L 49.515625 64.59375 
L 19.828125 64.59375 
L 19.828125 46.734375 
Q 21.96875 47.46875 24.109375 47.828125 
Q 26.265625 48.1875 28.421875 48.1875 
Q 40.625 48.1875 47.75 41.5 
Q 54.890625 34.8125 54.890625 23.390625 
Q 54.890625 11.625 47.5625 5.09375 
Q 40.234375 -1.421875 26.90625 -1.421875 
Q 22.3125 -1.421875 17.546875 -0.640625 
Q 12.796875 0.140625 7.71875 1.703125 
L 7.71875 11.625 
Q 12.109375 9.234375 16.796875 8.0625 
Q 21.484375 6.890625 26.703125 6.890625 
Q 35.15625 6.890625 40.078125 11.328125 
Q 45.015625 15.765625 45.015625 23.390625 
Q 45.015625 31 40.078125 35.4375 
Q 35.15625 39.890625 26.703125 39.890625 
Q 22.75 39.890625 18.8125 39.015625 
Q 14.890625 38.140625 10.796875 36.28125 
z
" id="DejaVuSans-53"/>
      </defs>
      <g transform="translate(68.257812 353.118274)scale(0.1 -0.1)">
       <use xlink:href="#DejaVuSans-8722"/>
       <use x="83.789062" xlink:href="#DejaVuSans-53"/>
      </g>
     </g>
    </g>
    <g id="ytick_2">
     <g id="line2d_15">
      <path clip-path="url(#p0d1a59ccdf)" d="M 90 281.471614 
L 648 281.471614 
" style="fill:none;stroke:#b0b0b0;stroke-linecap:square;stroke-width:0.8;"/>
     </g>
     <g id="line2d_16">
      <g>
       <use style="stroke:#000000;stroke-width:0.8;" x="90" xlink:href="#m4c9e279b1c" y="281.471614"/>
      </g>
     </g>
     <g id="text_9">
      <!-- 0 -->
      <g transform="translate(76.6375 285.270833)scale(0.1 -0.1)">
       <use xlink:href="#DejaVuSans-48"/>
      </g>
     </g>
    </g>
    <g id="ytick_3">
     <g id="line2d_17">
      <path clip-path="url(#p0d1a59ccdf)" d="M 90 213.624173 
L 648 213.624173 
" style="fill:none;stroke:#b0b0b0;stroke-linecap:square;stroke-width:0.8;"/>
     </g>
     <g id="line2d_18">
      <g>
       <use style="stroke:#000000;stroke-width:0.8;" x="90" xlink:href="#m4c9e279b1c" y="213.624173"/>
      </g>
     </g>
     <g id="text_10">
      <!-- 5 -->
      <g transform="translate(76.6375 217.423392)scale(0.1 -0.1)">
       <use xlink:href="#DejaVuSans-53"/>
      </g>
     </g>
    </g>
    <g id="ytick_4">
     <g id="line2d_19">
      <path clip-path="url(#p0d1a59ccdf)" d="M 90 145.776732 
L 648 145.776732 
" style="fill:none;stroke:#b0b0b0;stroke-linecap:square;stroke-width:0.8;"/>
     </g>
     <g id="line2d_20">
      <g>
       <use style="stroke:#000000;stroke-width:0.8;" x="90" xlink:href="#m4c9e279b1c" y="145.776732"/>
      </g>
     </g>
     <g id="text_11">
      <!-- 10 -->
      <g transform="translate(70.275 149.575951)scale(0.1 -0.1)">
       <use xlink:href="#DejaVuSans-49"/>
       <use x="63.623047" xlink:href="#DejaVuSans-48"/>
      </g>
     </g>
    </g>
    <g id="ytick_5">
     <g id="line2d_21">
      <path clip-path="url(#p0d1a59ccdf)" d="M 90 77.929291 
L 648 77.929291 
" style="fill:none;stroke:#b0b0b0;stroke-linecap:square;stroke-width:0.8;"/>
     </g>
     <g id="line2d_22">
      <g>
       <use style="stroke:#000000;stroke-width:0.8;" x="90" xlink:href="#m4c9e279b1c" y="77.929291"/>
      </g>
     </g>
     <g id="text_12">
      <!-- 15 -->
      <g transform="translate(70.275 81.72851)scale(0.1 -0.1)">
       <use xlink:href="#DejaVuSans-49"/>
       <use x="63.623047" xlink:href="#DejaVuSans-53"/>
      </g>
     </g>
    </g>
    <g id="text_13">
     <!-- $f(x)$ -->
     <defs>
      <path d="M 47.796875 75.984375 
L 46.390625 68.5 
L 37.796875 68.5 
Q 32.90625 68.5 30.6875 66.578125 
Q 28.46875 64.65625 27.390625 59.515625 
L 26.421875 54.6875 
L 41.21875 54.6875 
L 39.890625 47.703125 
L 25.09375 47.703125 
L 15.828125 0 
L 6.78125 0 
L 16.109375 47.703125 
L 7.515625 47.703125 
L 8.796875 54.6875 
L 17.390625 54.6875 
L 18.109375 58.5 
Q 19.96875 68.171875 24.625 72.078125 
Q 29.296875 75.984375 39.3125 75.984375 
z
" id="DejaVuSans-Oblique-102"/>
      <path d="M 31 75.875 
Q 24.46875 64.65625 21.28125 53.65625 
Q 18.109375 42.671875 18.109375 31.390625 
Q 18.109375 20.125 21.3125 9.0625 
Q 24.515625 -2 31 -13.1875 
L 23.1875 -13.1875 
Q 15.875 -1.703125 12.234375 9.375 
Q 8.59375 20.453125 8.59375 31.390625 
Q 8.59375 42.28125 12.203125 53.3125 
Q 15.828125 64.359375 23.1875 75.875 
z
" id="DejaVuSans-40"/>
      <path d="M 8.015625 75.875 
L 15.828125 75.875 
Q 23.140625 64.359375 26.78125 53.3125 
Q 30.421875 42.28125 30.421875 31.390625 
Q 30.421875 20.453125 26.78125 9.375 
Q 23.140625 -1.703125 15.828125 -13.1875 
L 8.015625 -13.1875 
Q 14.5 -2 17.703125 9.0625 
Q 20.90625 20.125 20.90625 31.390625 
Q 20.90625 42.671875 17.703125 53.65625 
Q 14.5 64.65625 8.015625 75.875 
z
" id="DejaVuSans-41"/>
     </defs>
     <g transform="translate(62.178125 223.57)rotate(-90)scale(0.1 -0.1)">
      <use transform="translate(0 0.015625)" xlink:href="#DejaVuSans-Oblique-102"/>
      <use transform="translate(35.205078 0.015625)" xlink:href="#DejaVuSans-40"/>
      <use transform="translate(74.21875 0.015625)" xlink:href="#DejaVuSans-Oblique-120"/>
      <use transform="translate(133.398438 0.015625)" xlink:href="#DejaVuSans-41"/>
     </g>
    </g>
   </g>
   <g id="line2d_23">
    <defs>
     <path d="M 0 5 
C 1.326016 5 2.597899 4.473168 3.535534 3.535534 
C 4.473168 2.597899 5 1.326016 5 0 
C 5 -1.326016 4.473168 -2.597899 3.535534 -3.535534 
C 2.597899 -4.473168 1.326016 -5 0 -5 
C -1.326016 -5 -2.597899 -4.473168 -3.535534 -3.535534 
C -4.473168 -2.597899 -5 -1.326016 -5 0 
C -5 1.326016 -4.473168 2.597899 -3.535534 3.535534 
C -2.597899 4.473168 -1.326016 5 0 5 
z
" id="m3103c5de9b" style="stroke:#ff0000;"/>
    </defs>
    <g clip-path="url(#p0d1a59ccdf)">
     <use style="fill:#ff0000;stroke:#ff0000;" x="201.6" xlink:href="#m3103c5de9b" y="290.152384"/>
     <use style="fill:#ff0000;stroke:#ff0000;" x="424.8" xlink:href="#m3103c5de9b" y="283.499409"/>
     <use style="fill:#ff0000;stroke:#ff0000;" x="592.2" xlink:href="#m3103c5de9b" y="203.963371"/>
     <use style="fill:#ff0000;stroke:#ff0000;" x="90" xlink:href="#m3103c5de9b" y="240.393924"/>
     <use style="fill:#ff0000;stroke:#ff0000;" x="255.97385" xlink:href="#m3103c5de9b" y="281.734295"/>
     <use style="fill:#ff0000;stroke:#ff0000;" x="367.945041" xlink:href="#m3103c5de9b" y="269.289149"/>
     <use style="fill:#ff0000;stroke:#ff0000;" x="498.01561" xlink:href="#m3103c5de9b" y="358.655308"/>
     <use style="fill:#ff0000;stroke:#ff0000;" x="312.160473" xlink:href="#m3103c5de9b" y="280.032295"/>
     <use style="fill:#ff0000;stroke:#ff0000;" x="645.794262" xlink:href="#m3103c5de9b" y="67.968553"/>
     <use style="fill:#ff0000;stroke:#ff0000;" x="144.139866" xlink:href="#m3103c5de9b" y="289.686416"/>
     <use style="fill:#ff0000;stroke:#ff0000;" x="544.338834" xlink:href="#m3103c5de9b" y="336.863337"/>
     <use style="fill:#ff0000;stroke:#ff0000;" x="110.699001" xlink:href="#m3103c5de9b" y="264.25505"/>
     <use style="fill:#ff0000;stroke:#ff0000;" x="626.336284" xlink:href="#m3103c5de9b" y="98.678118"/>
     <use style="fill:#ff0000;stroke:#ff0000;" x="459.309471" xlink:href="#m3103c5de9b" y="319.309996"/>
    </g>
   </g>
   <g id="line2d_24">
    <path clip-path="url(#p0d1a59ccdf)" d="M 90 240.393924 
L 101.16 253.667371 
L 106.74 259.98545 
L 112.32 265.942959 
L 116.04 269.669354 
L 119.76 273.173279 
L 123.48 276.436344 
L 127.2 279.44382 
L 130.92 282.184607 
L 134.64 284.651164 
L 138.36 286.839406 
L 142.08 288.748566 
L 145.8 290.381025 
L 149.52 291.742123 
L 153.24 292.839933 
L 156.96 293.685022 
L 160.68 294.290192 
L 164.4 294.670208 
L 168.12 294.841504 
L 171.84 294.8219 
L 175.56 294.630295 
L 181.14 294.063592 
L 186.72 293.222483 
L 194.16 291.7923 
L 203.46 289.72681 
L 218.34 286.404929 
L 225.78 284.9614 
L 233.22 283.756028 
L 240.66 282.821511 
L 248.1 282.161186 
L 255.54 281.751356 
L 264.84 281.518062 
L 279.72 281.469879 
L 290.88 281.362341 
L 298.32 281.110687 
L 305.76 280.641802 
L 313.2 279.91415 
L 320.64 278.910486 
L 328.08 277.641335 
L 335.52 276.146903 
L 346.68 273.643988 
L 357.84 271.150929 
L 365.28 269.720746 
L 370.86 268.879637 
L 376.44 268.312933 
L 380.16 268.121329 
L 383.88 268.101725 
L 387.6 268.273021 
L 391.32 268.653036 
L 395.04 269.258207 
L 398.76 270.103296 
L 402.48 271.201106 
L 406.2 272.562204 
L 409.92 274.194663 
L 413.64 276.103823 
L 417.36 278.292065 
L 421.08 280.758622 
L 424.8 283.499409 
L 428.52 286.506885 
L 432.24 289.76995 
L 435.96 293.273875 
L 439.68 297.00027 
L 445.26 302.957779 
L 450.84 309.275858 
L 458.28 318.07348 
L 471.3 333.627966 
L 476.88 339.969757 
L 480.6 343.96934 
L 484.32 347.727651 
L 488.04 351.193776 
L 491.76 354.31675 
L 495.48 357.046047 
L 499.2 359.332092 
L 501.06 360.293789 
L 502.92 361.126777 
L 504.78 361.825357 
L 506.64 362.383991 
L 508.5 362.797312 
L 510.36 363.060146 
L 512.22 363.167525 
L 514.08 363.114702 
L 515.94 362.897171 
L 517.8 362.510681 
L 519.66 361.951247 
L 521.52 361.215172 
L 523.38 360.299057 
L 525.24 359.199816 
L 527.1 357.91469 
L 528.96 356.441262 
L 530.82 354.777468 
L 532.68 352.921606 
L 534.54 350.872356 
L 536.4 348.628782 
L 538.26 346.190348 
L 540.12 343.556925 
L 543.84 337.70669 
L 547.56 331.085519 
L 551.28 323.707862 
L 555 315.595342 
L 558.72 306.77686 
L 562.44 297.288642 
L 566.16 287.174224 
L 569.88 276.484369 
L 573.6 265.276921 
L 579.18 247.638623 
L 584.76 229.228694 
L 594.06 197.593602 
L 603.36 166.031069 
L 608.94 147.784521 
L 612.66 136.128555 
L 616.38 125.005054 
L 620.1 114.521942 
L 623.82 104.786306 
L 627.54 95.903501 
L 631.26 87.97623 
L 633.12 84.402064 
L 634.98 81.103628 
L 636.84 78.092605 
L 638.7 75.38034 
L 640.56 72.977811 
L 642.42 70.895602 
L 644.28 69.143877 
L 646.14 67.732348 
L 648 66.670253 
L 648 66.670253 
" style="fill:none;stroke:#000000;stroke-linecap:square;stroke-width:1.5;"/>
   </g>
   <g id="line2d_25">
    <path clip-path="url(#p0d1a59ccdf)" d="M 90 240.393921 
L 101.16 253.668517 
L 106.74 259.985982 
L 112.32 265.942764 
L 116.04 269.668753 
L 119.76 273.17239 
L 123.48 276.435303 
L 127.2 279.442762 
L 130.92 282.183652 
L 134.64 284.650409 
L 138.36 286.838919 
L 142.08 288.748382 
L 145.8 290.381153 
L 149.52 291.742544 
L 153.24 292.840607 
L 156.96 293.685896 
L 160.68 294.291204 
L 164.4 294.67129 
L 168.12 294.842594 
L 171.84 294.822941 
L 175.56 294.631241 
L 181.14 294.064334 
L 186.72 293.222989 
L 194.16 291.792514 
L 203.46 289.72679 
L 218.34 286.404913 
L 225.78 284.961489 
L 233.22 283.756213 
L 240.66 282.821727 
L 248.1 282.16134 
L 255.54 281.751351 
L 264.84 281.51777 
L 279.72 281.469181 
L 290.88 281.361608 
L 298.32 281.110111 
L 305.76 280.641512 
L 313.2 279.914227 
L 320.64 278.910944 
L 328.08 277.642112 
L 335.52 276.147872 
L 346.68 273.644925 
L 357.84 271.151457 
L 365.28 269.720867 
L 370.86 268.879435 
L 376.44 268.312431 
L 380.16 268.120656 
L 383.88 268.100914 
L 387.6 268.272112 
L 391.32 268.652072 
L 395.04 269.257234 
L 398.76 270.102359 
L 402.48 271.200247 
L 406.2 272.561459 
L 409.92 274.194062 
L 413.64 276.103385 
L 417.36 278.291801 
L 421.08 280.758531 
L 424.8 283.499478 
L 428.52 286.507093 
L 432.24 289.770265 
L 435.96 293.27426 
L 439.68 297.000681 
L 445.26 302.958149 
L 450.84 309.276095 
L 458.28 318.073434 
L 471.3 333.627399 
L 476.88 339.969072 
L 480.6 343.968641 
L 484.32 347.727 
L 488.04 351.193237 
L 491.76 354.316388 
L 495.48 357.04592 
L 499.2 359.332248 
L 501.06 360.294101 
L 502.92 361.12725 
L 504.78 361.825996 
L 506.64 362.384795 
L 508.5 362.798281 
L 510.36 363.061273 
L 512.22 363.168802 
L 514.08 363.116118 
L 515.94 362.898712 
L 517.8 362.512327 
L 519.66 361.952979 
L 521.52 361.216965 
L 523.38 360.300884 
L 525.24 359.201648 
L 527.1 357.916497 
L 528.96 356.443011 
L 530.82 354.779123 
L 532.68 352.923135 
L 534.54 350.873721 
L 536.4 348.62995 
L 538.26 346.191285 
L 540.12 343.557598 
L 543.84 337.706749 
L 547.56 331.084871 
L 551.28 323.70645 
L 555 315.593154 
L 558.72 306.773935 
L 562.44 297.28508 
L 566.16 287.17018 
L 569.88 276.480056 
L 573.6 265.272597 
L 579.18 247.634844 
L 584.76 229.226155 
L 594.06 197.594356 
L 603.36 166.035366 
L 608.94 147.79011 
L 612.66 136.134312 
L 616.38 125.010263 
L 620.1 114.525814 
L 623.82 104.788076 
L 627.54 95.902574 
L 631.26 87.972385 
L 633.12 84.396866 
L 634.98 81.097287 
L 636.84 78.085467 
L 638.7 75.372913 
L 640.56 72.970796 
L 642.42 70.889927 
L 644.28 69.140731 
L 646.14 67.733226 
L 648 66.676995 
L 648 66.676995 
" style="fill:none;stroke:#1f77b4;stroke-linecap:square;stroke-width:1.5;"/>
   </g>
   <g id="patch_3">
    <path d="M 90 378 
L 90 51.84 
" style="fill:none;stroke:#000000;stroke-linecap:square;stroke-linejoin:miter;stroke-width:0.8;"/>
   </g>
   <g id="patch_4">
    <path d="M 648 378 
L 648 51.84 
" style="fill:none;stroke:#000000;stroke-linecap:square;stroke-linejoin:miter;stroke-width:0.8;"/>
   </g>
   <g id="patch_5">
    <path d="M 90 378 
L 648 378 
" style="fill:none;stroke:#000000;stroke-linecap:square;stroke-linejoin:miter;stroke-width:0.8;"/>
   </g>
   <g id="patch_6">
    <path d="M 90 51.84 
L 648 51.84 
" style="fill:none;stroke:#000000;stroke-linecap:square;stroke-linejoin:miter;stroke-width:0.8;"/>
   </g>
   <g id="legend_1">
    <g id="patch_7">
     <path d="M 97 103.874375 
L 222.670313 103.874375 
Q 224.670313 103.874375 224.670313 101.874375 
L 224.670313 58.84 
Q 224.670313 56.84 222.670313 56.84 
L 97 56.84 
Q 95 56.84 95 58.84 
L 95 101.874375 
Q 95 103.874375 97 103.874375 
z
" style="fill:#ffffff;opacity:0.8;stroke:#cccccc;stroke-linejoin:miter;"/>
    </g>
    <g id="line2d_26"/>
    <g id="line2d_27">
     <g>
      <use style="fill:#ff0000;stroke:#ff0000;" x="109" xlink:href="#m3103c5de9b" y="64.938437"/>
     </g>
    </g>
    <g id="text_14">
     <!-- Observations -->
     <defs>
      <path d="M 39.40625 66.21875 
Q 28.65625 66.21875 22.328125 58.203125 
Q 16.015625 50.203125 16.015625 36.375 
Q 16.015625 22.609375 22.328125 14.59375 
Q 28.65625 6.59375 39.40625 6.59375 
Q 50.140625 6.59375 56.421875 14.59375 
Q 62.703125 22.609375 62.703125 36.375 
Q 62.703125 50.203125 56.421875 58.203125 
Q 50.140625 66.21875 39.40625 66.21875 
z
M 39.40625 74.21875 
Q 54.734375 74.21875 63.90625 63.9375 
Q 73.09375 53.65625 73.09375 36.375 
Q 73.09375 19.140625 63.90625 8.859375 
Q 54.734375 -1.421875 39.40625 -1.421875 
Q 24.03125 -1.421875 14.8125 8.828125 
Q 5.609375 19.09375 5.609375 36.375 
Q 5.609375 53.65625 14.8125 63.9375 
Q 24.03125 74.21875 39.40625 74.21875 
z
" id="DejaVuSans-79"/>
      <path d="M 48.6875 27.296875 
Q 48.6875 37.203125 44.609375 42.84375 
Q 40.53125 48.484375 33.40625 48.484375 
Q 26.265625 48.484375 22.1875 42.84375 
Q 18.109375 37.203125 18.109375 27.296875 
Q 18.109375 17.390625 22.1875 11.75 
Q 26.265625 6.109375 33.40625 6.109375 
Q 40.53125 6.109375 44.609375 11.75 
Q 48.6875 17.390625 48.6875 27.296875 
z
M 18.109375 46.390625 
Q 20.953125 51.265625 25.265625 53.625 
Q 29.59375 56 35.59375 56 
Q 45.5625 56 51.78125 48.09375 
Q 58.015625 40.1875 58.015625 27.296875 
Q 58.015625 14.40625 51.78125 6.484375 
Q 45.5625 -1.421875 35.59375 -1.421875 
Q 29.59375 -1.421875 25.265625 0.953125 
Q 20.953125 3.328125 18.109375 8.203125 
L 18.109375 0 
L 9.078125 0 
L 9.078125 75.984375 
L 18.109375 75.984375 
z
" id="DejaVuSans-98"/>
      <path d="M 44.28125 53.078125 
L 44.28125 44.578125 
Q 40.484375 46.53125 36.375 47.5 
Q 32.28125 48.484375 27.875 48.484375 
Q 21.1875 48.484375 17.84375 46.4375 
Q 14.5 44.390625 14.5 40.28125 
Q 14.5 37.15625 16.890625 35.375 
Q 19.28125 33.59375 26.515625 31.984375 
L 29.59375 31.296875 
Q 39.15625 29.25 43.1875 25.515625 
Q 47.21875 21.78125 47.21875 15.09375 
Q 47.21875 7.46875 41.1875 3.015625 
Q 35.15625 -1.421875 24.609375 -1.421875 
Q 20.21875 -1.421875 15.453125 -0.5625 
Q 10.6875 0.296875 5.421875 2 
L 5.421875 11.28125 
Q 10.40625 8.6875 15.234375 7.390625 
Q 20.0625 6.109375 24.8125 6.109375 
Q 31.15625 6.109375 34.5625 8.28125 
Q 37.984375 10.453125 37.984375 14.40625 
Q 37.984375 18.0625 35.515625 20.015625 
Q 33.0625 21.96875 24.703125 23.78125 
L 21.578125 24.515625 
Q 13.234375 26.265625 9.515625 29.90625 
Q 5.8125 33.546875 5.8125 39.890625 
Q 5.8125 47.609375 11.28125 51.796875 
Q 16.75 56 26.8125 56 
Q 31.78125 56 36.171875 55.265625 
Q 40.578125 54.546875 44.28125 53.078125 
z
" id="DejaVuSans-115"/>
      <path d="M 56.203125 29.59375 
L 56.203125 25.203125 
L 14.890625 25.203125 
Q 15.484375 15.921875 20.484375 11.0625 
Q 25.484375 6.203125 34.421875 6.203125 
Q 39.59375 6.203125 44.453125 7.46875 
Q 49.3125 8.734375 54.109375 11.28125 
L 54.109375 2.78125 
Q 49.265625 0.734375 44.1875 -0.34375 
Q 39.109375 -1.421875 33.890625 -1.421875 
Q 20.796875 -1.421875 13.15625 6.1875 
Q 5.515625 13.8125 5.515625 26.8125 
Q 5.515625 40.234375 12.765625 48.109375 
Q 20.015625 56 32.328125 56 
Q 43.359375 56 49.78125 48.890625 
Q 56.203125 41.796875 56.203125 29.59375 
z
M 47.21875 32.234375 
Q 47.125 39.59375 43.09375 43.984375 
Q 39.0625 48.390625 32.421875 48.390625 
Q 24.90625 48.390625 20.390625 44.140625 
Q 15.875 39.890625 15.1875 32.171875 
z
" id="DejaVuSans-101"/>
      <path d="M 41.109375 46.296875 
Q 39.59375 47.171875 37.8125 47.578125 
Q 36.03125 48 33.890625 48 
Q 26.265625 48 22.1875 43.046875 
Q 18.109375 38.09375 18.109375 28.8125 
L 18.109375 0 
L 9.078125 0 
L 9.078125 54.6875 
L 18.109375 54.6875 
L 18.109375 46.1875 
Q 20.953125 51.171875 25.484375 53.578125 
Q 30.03125 56 36.53125 56 
Q 37.453125 56 38.578125 55.875 
Q 39.703125 55.765625 41.0625 55.515625 
z
" id="DejaVuSans-114"/>
      <path d="M 2.984375 54.6875 
L 12.5 54.6875 
L 29.59375 8.796875 
L 46.6875 54.6875 
L 56.203125 54.6875 
L 35.6875 0 
L 23.484375 0 
z
" id="DejaVuSans-118"/>
      <path d="M 34.28125 27.484375 
Q 23.390625 27.484375 19.1875 25 
Q 14.984375 22.515625 14.984375 16.5 
Q 14.984375 11.71875 18.140625 8.90625 
Q 21.296875 6.109375 26.703125 6.109375 
Q 34.1875 6.109375 38.703125 11.40625 
Q 43.21875 16.703125 43.21875 25.484375 
L 43.21875 27.484375 
z
M 52.203125 31.203125 
L 52.203125 0 
L 43.21875 0 
L 43.21875 8.296875 
Q 40.140625 3.328125 35.546875 0.953125 
Q 30.953125 -1.421875 24.3125 -1.421875 
Q 15.921875 -1.421875 10.953125 3.296875 
Q 6 8.015625 6 15.921875 
Q 6 25.140625 12.171875 29.828125 
Q 18.359375 34.515625 30.609375 34.515625 
L 43.21875 34.515625 
L 43.21875 35.40625 
Q 43.21875 41.609375 39.140625 45 
Q 35.0625 48.390625 27.6875 48.390625 
Q 23 48.390625 18.546875 47.265625 
Q 14.109375 46.140625 10.015625 43.890625 
L 10.015625 52.203125 
Q 14.9375 54.109375 19.578125 55.046875 
Q 24.21875 56 28.609375 56 
Q 40.484375 56 46.34375 49.84375 
Q 52.203125 43.703125 52.203125 31.203125 
z
" id="DejaVuSans-97"/>
      <path d="M 18.3125 70.21875 
L 18.3125 54.6875 
L 36.8125 54.6875 
L 36.8125 47.703125 
L 18.3125 47.703125 
L 18.3125 18.015625 
Q 18.3125 11.328125 20.140625 9.421875 
Q 21.96875 7.515625 27.59375 7.515625 
L 36.8125 7.515625 
L 36.8125 0 
L 27.59375 0 
Q 17.1875 0 13.234375 3.875 
Q 9.28125 7.765625 9.28125 18.015625 
L 9.28125 47.703125 
L 2.6875 47.703125 
L 2.6875 54.6875 
L 9.28125 54.6875 
L 9.28125 70.21875 
z
" id="DejaVuSans-116"/>
      <path d="M 9.421875 54.6875 
L 18.40625 54.6875 
L 18.40625 0 
L 9.421875 0 
z
M 9.421875 75.984375 
L 18.40625 75.984375 
L 18.40625 64.59375 
L 9.421875 64.59375 
z
" id="DejaVuSans-105"/>
      <path d="M 30.609375 48.390625 
Q 23.390625 48.390625 19.1875 42.75 
Q 14.984375 37.109375 14.984375 27.296875 
Q 14.984375 17.484375 19.15625 11.84375 
Q 23.34375 6.203125 30.609375 6.203125 
Q 37.796875 6.203125 41.984375 11.859375 
Q 46.1875 17.53125 46.1875 27.296875 
Q 46.1875 37.015625 41.984375 42.703125 
Q 37.796875 48.390625 30.609375 48.390625 
z
M 30.609375 56 
Q 42.328125 56 49.015625 48.375 
Q 55.71875 40.765625 55.71875 27.296875 
Q 55.71875 13.875 49.015625 6.21875 
Q 42.328125 -1.421875 30.609375 -1.421875 
Q 18.84375 -1.421875 12.171875 6.21875 
Q 5.515625 13.875 5.515625 27.296875 
Q 5.515625 40.765625 12.171875 48.375 
Q 18.84375 56 30.609375 56 
z
" id="DejaVuSans-111"/>
      <path d="M 54.890625 33.015625 
L 54.890625 0 
L 45.90625 0 
L 45.90625 32.71875 
Q 45.90625 40.484375 42.875 44.328125 
Q 39.84375 48.1875 33.796875 48.1875 
Q 26.515625 48.1875 22.3125 43.546875 
Q 18.109375 38.921875 18.109375 30.90625 
L 18.109375 0 
L 9.078125 0 
L 9.078125 54.6875 
L 18.109375 54.6875 
L 18.109375 46.1875 
Q 21.34375 51.125 25.703125 53.5625 
Q 30.078125 56 35.796875 56 
Q 45.21875 56 50.046875 50.171875 
Q 54.890625 44.34375 54.890625 33.015625 
z
" id="DejaVuSans-110"/>
     </defs>
     <g transform="translate(127 68.438437)scale(0.1 -0.1)">
      <use xlink:href="#DejaVuSans-79"/>
      <use x="78.710938" xlink:href="#DejaVuSans-98"/>
      <use x="142.1875" xlink:href="#DejaVuSans-115"/>
      <use x="194.287109" xlink:href="#DejaVuSans-101"/>
      <use x="255.810547" xlink:href="#DejaVuSans-114"/>
      <use x="296.923828" xlink:href="#DejaVuSans-118"/>
      <use x="356.103516" xlink:href="#DejaVuSans-97"/>
      <use x="417.382812" xlink:href="#DejaVuSans-116"/>
      <use x="456.591797" xlink:href="#DejaVuSans-105"/>
      <use x="484.375" xlink:href="#DejaVuSans-111"/>
      <use x="545.556641" xlink:href="#DejaVuSans-110"/>
      <use x="608.935547" xlink:href="#DejaVuSans-115"/>
     </g>
    </g>
    <g id="line2d_28">
     <path d="M 99 79.616562 
L 119 79.616562 
" style="fill:none;stroke:#000000;stroke-linecap:square;stroke-width:1.5;"/>
    </g>
    <g id="line2d_29"/>
    <g id="text_15">
     <!-- Objective Function -->
     <defs>
      <path d="M 9.421875 54.6875 
L 18.40625 54.6875 
L 18.40625 -0.984375 
Q 18.40625 -11.421875 14.421875 -16.109375 
Q 10.453125 -20.796875 1.609375 -20.796875 
L -1.8125 -20.796875 
L -1.8125 -13.1875 
L 0.59375 -13.1875 
Q 5.71875 -13.1875 7.5625 -10.8125 
Q 9.421875 -8.453125 9.421875 -0.984375 
z
M 9.421875 75.984375 
L 18.40625 75.984375 
L 18.40625 64.59375 
L 9.421875 64.59375 
z
" id="DejaVuSans-106"/>
      <path d="M 48.78125 52.59375 
L 48.78125 44.1875 
Q 44.96875 46.296875 41.140625 47.34375 
Q 37.3125 48.390625 33.40625 48.390625 
Q 24.65625 48.390625 19.8125 42.84375 
Q 14.984375 37.3125 14.984375 27.296875 
Q 14.984375 17.28125 19.8125 11.734375 
Q 24.65625 6.203125 33.40625 6.203125 
Q 37.3125 6.203125 41.140625 7.25 
Q 44.96875 8.296875 48.78125 10.40625 
L 48.78125 2.09375 
Q 45.015625 0.34375 40.984375 -0.53125 
Q 36.96875 -1.421875 32.421875 -1.421875 
Q 20.0625 -1.421875 12.78125 6.34375 
Q 5.515625 14.109375 5.515625 27.296875 
Q 5.515625 40.671875 12.859375 48.328125 
Q 20.21875 56 33.015625 56 
Q 37.15625 56 41.109375 55.140625 
Q 45.0625 54.296875 48.78125 52.59375 
z
" id="DejaVuSans-99"/>
      <path id="DejaVuSans-32"/>
      <path d="M 9.8125 72.90625 
L 51.703125 72.90625 
L 51.703125 64.59375 
L 19.671875 64.59375 
L 19.671875 43.109375 
L 48.578125 43.109375 
L 48.578125 34.8125 
L 19.671875 34.8125 
L 19.671875 0 
L 9.8125 0 
z
" id="DejaVuSans-70"/>
      <path d="M 8.5 21.578125 
L 8.5 54.6875 
L 17.484375 54.6875 
L 17.484375 21.921875 
Q 17.484375 14.15625 20.5 10.265625 
Q 23.53125 6.390625 29.59375 6.390625 
Q 36.859375 6.390625 41.078125 11.03125 
Q 45.3125 15.671875 45.3125 23.6875 
L 45.3125 54.6875 
L 54.296875 54.6875 
L 54.296875 0 
L 45.3125 0 
L 45.3125 8.40625 
Q 42.046875 3.421875 37.71875 1 
Q 33.40625 -1.421875 27.6875 -1.421875 
Q 18.265625 -1.421875 13.375 4.4375 
Q 8.5 10.296875 8.5 21.578125 
z
M 31.109375 56 
z
" id="DejaVuSans-117"/>
     </defs>
     <g transform="translate(127 83.116562)scale(0.1 -0.1)">
      <use xlink:href="#DejaVuSans-79"/>
      <use x="78.710938" xlink:href="#DejaVuSans-98"/>
      <use x="142.1875" xlink:href="#DejaVuSans-106"/>
      <use x="169.970703" xlink:href="#DejaVuSans-101"/>
      <use x="231.494141" xlink:href="#DejaVuSans-99"/>
      <use x="286.474609" xlink:href="#DejaVuSans-116"/>
      <use x="325.683594" xlink:href="#DejaVuSans-105"/>
      <use x="353.466797" xlink:href="#DejaVuSans-118"/>
      <use x="412.646484" xlink:href="#DejaVuSans-101"/>
      <use x="474.169922" xlink:href="#DejaVuSans-32"/>
      <use x="505.957031" xlink:href="#DejaVuSans-70"/>
      <use x="563.398438" xlink:href="#DejaVuSans-117"/>
      <use x="626.777344" xlink:href="#DejaVuSans-110"/>
      <use x="690.15625" xlink:href="#DejaVuSans-99"/>
      <use x="745.136719" xlink:href="#DejaVuSans-116"/>
      <use x="784.345703" xlink:href="#DejaVuSans-105"/>
      <use x="812.128906" xlink:href="#DejaVuSans-111"/>
      <use x="873.310547" xlink:href="#DejaVuSans-110"/>
     </g>
    </g>
    <g id="line2d_30">
     <path d="M 99 94.294687 
L 119 94.294687 
" style="fill:none;stroke:#1f77b4;stroke-linecap:square;stroke-width:1.5;"/>
    </g>
    <g id="line2d_31"/>
    <g id="text_16">
     <!-- Model -->
     <defs>
      <path d="M 9.8125 72.90625 
L 24.515625 72.90625 
L 43.109375 23.296875 
L 61.8125 72.90625 
L 76.515625 72.90625 
L 76.515625 0 
L 66.890625 0 
L 66.890625 64.015625 
L 48.09375 14.015625 
L 38.1875 14.015625 
L 19.390625 64.015625 
L 19.390625 0 
L 9.8125 0 
z
" id="DejaVuSans-77"/>
      <path d="M 45.40625 46.390625 
L 45.40625 75.984375 
L 54.390625 75.984375 
L 54.390625 0 
L 45.40625 0 
L 45.40625 8.203125 
Q 42.578125 3.328125 38.25 0.953125 
Q 33.9375 -1.421875 27.875 -1.421875 
Q 17.96875 -1.421875 11.734375 6.484375 
Q 5.515625 14.40625 5.515625 27.296875 
Q 5.515625 40.1875 11.734375 48.09375 
Q 17.96875 56 27.875 56 
Q 33.9375 56 38.25 53.625 
Q 42.578125 51.265625 45.40625 46.390625 
z
M 14.796875 27.296875 
Q 14.796875 17.390625 18.875 11.75 
Q 22.953125 6.109375 30.078125 6.109375 
Q 37.203125 6.109375 41.296875 11.75 
Q 45.40625 17.390625 45.40625 27.296875 
Q 45.40625 37.203125 41.296875 42.84375 
Q 37.203125 48.484375 30.078125 48.484375 
Q 22.953125 48.484375 18.875 42.84375 
Q 14.796875 37.203125 14.796875 27.296875 
z
" id="DejaVuSans-100"/>
      <path d="M 9.421875 75.984375 
L 18.40625 75.984375 
L 18.40625 0 
L 9.421875 0 
z
" id="DejaVuSans-108"/>
     </defs>
     <g transform="translate(127 97.794687)scale(0.1 -0.1)">
      <use xlink:href="#DejaVuSans-77"/>
      <use x="86.279297" xlink:href="#DejaVuSans-111"/>
      <use x="147.460938" xlink:href="#DejaVuSans-100"/>
      <use x="210.9375" xlink:href="#DejaVuSans-101"/>
      <use x="272.460938" xlink:href="#DejaVuSans-108"/>
     </g>
    </g>
   </g>
  </g>
 </g>
 <defs>
  <clipPath id="p0d1a59ccdf">
   <rect height="326.16" width="558" x="90" y="51.84"/>
  </clipPath>
 </defs>
</svg>
