<?xml version="1.0" encoding="utf-8" standalone="no"?>
<!DOCTYPE svg PUBLIC "-//W3C//DTD SVG 1.1//EN"
  "http://www.w3.org/Graphics/SVG/1.1/DTD/svg11.dtd">
<!-- Created with matplotlib (https://matplotlib.org/) -->
<svg height="432pt" version="1.1" viewBox="0 0 720 432" width="720pt" xmlns="http://www.w3.org/2000/svg" xmlns:xlink="http://www.w3.org/1999/xlink">
 <defs>
  <style type="text/css">
*{stroke-linecap:butt;stroke-linejoin:round;}
  </style>
 </defs>
 <g id="figure_1">
  <g id="patch_1">
   <path d="M 0 432 
L 720 432 
L 720 0 
L 0 0 
z
" style="fill:none;"/>
  </g>
  <g id="axes_1">
   <g id="patch_2">
    <path d="M 90 378 
L 648 378 
L 648 51.84 
L 90 51.84 
z
" style="fill:none;"/>
   </g>
   <g id="matplotlib.axis_1">
    <g id="xtick_1">
     <g id="line2d_1">
      <path clip-path="url(#peb7e0de51a)" d="M 90 378 
L 90 51.84 
" style="fill:none;stroke:#ffffff;stroke-linecap:round;stroke-width:0.8;"/>
     </g>
     <g id="text_1">
      <!-- 0.0 -->
      <defs>
       <path d="M 4.15625 35.296875 
Q 4.15625 48 6.765625 55.734375 
Q 9.375 63.484375 14.515625 67.671875 
Q 19.671875 71.875 27.484375 71.875 
Q 33.25 71.875 37.59375 69.546875 
Q 41.9375 67.234375 44.765625 62.859375 
Q 47.609375 58.5 49.21875 52.21875 
Q 50.828125 45.953125 50.828125 35.296875 
Q 50.828125 22.703125 48.234375 14.96875 
Q 45.65625 7.234375 40.5 3 
Q 35.359375 -1.21875 27.484375 -1.21875 
Q 17.140625 -1.21875 11.234375 6.203125 
Q 4.15625 15.140625 4.15625 35.296875 
z
M 13.1875 35.296875 
Q 13.1875 17.671875 17.3125 11.828125 
Q 21.4375 6 27.484375 6 
Q 33.546875 6 37.671875 11.859375 
Q 41.796875 17.71875 41.796875 35.296875 
Q 41.796875 52.984375 37.671875 58.78125 
Q 33.546875 64.59375 27.390625 64.59375 
Q 21.34375 64.59375 17.71875 59.46875 
Q 13.1875 52.9375 13.1875 35.296875 
z
" id="ArialMT-48"/>
       <path d="M 9.078125 0 
L 9.078125 10.015625 
L 19.09375 10.015625 
L 19.09375 0 
z
" id="ArialMT-46"/>
      </defs>
      <g style="fill:#262626;" transform="translate(83.884 392.598875)scale(0.088 -0.088)">
       <use xlink:href="#ArialMT-48"/>
       <use x="55.615234" xlink:href="#ArialMT-46"/>
       <use x="83.398438" xlink:href="#ArialMT-48"/>
      </g>
     </g>
    </g>
    <g id="xtick_2">
     <g id="line2d_2">
      <path clip-path="url(#peb7e0de51a)" d="M 201.6 378 
L 201.6 51.84 
" style="fill:none;stroke:#ffffff;stroke-linecap:round;stroke-width:0.8;"/>
     </g>
     <g id="text_2">
      <!-- 0.2 -->
      <defs>
       <path d="M 50.34375 8.453125 
L 50.34375 0 
L 3.03125 0 
Q 2.9375 3.171875 4.046875 6.109375 
Q 5.859375 10.9375 9.828125 15.625 
Q 13.8125 20.3125 21.34375 26.46875 
Q 33.015625 36.03125 37.109375 41.625 
Q 41.21875 47.21875 41.21875 52.203125 
Q 41.21875 57.421875 37.46875 61 
Q 33.734375 64.59375 27.734375 64.59375 
Q 21.390625 64.59375 17.578125 60.78125 
Q 13.765625 56.984375 13.71875 50.25 
L 4.6875 51.171875 
Q 5.609375 61.28125 11.65625 66.578125 
Q 17.71875 71.875 27.9375 71.875 
Q 38.234375 71.875 44.234375 66.15625 
Q 50.25 60.453125 50.25 52 
Q 50.25 47.703125 48.484375 43.546875 
Q 46.734375 39.40625 42.65625 34.8125 
Q 38.578125 30.21875 29.109375 22.21875 
Q 21.1875 15.578125 18.9375 13.203125 
Q 16.703125 10.84375 15.234375 8.453125 
z
" id="ArialMT-50"/>
      </defs>
      <g style="fill:#262626;" transform="translate(195.484 392.598875)scale(0.088 -0.088)">
       <use xlink:href="#ArialMT-48"/>
       <use x="55.615234" xlink:href="#ArialMT-46"/>
       <use x="83.398438" xlink:href="#ArialMT-50"/>
      </g>
     </g>
    </g>
    <g id="xtick_3">
     <g id="line2d_3">
      <path clip-path="url(#peb7e0de51a)" d="M 313.2 378 
L 313.2 51.84 
" style="fill:none;stroke:#ffffff;stroke-linecap:round;stroke-width:0.8;"/>
     </g>
     <g id="text_3">
      <!-- 0.4 -->
      <defs>
       <path d="M 32.328125 0 
L 32.328125 17.140625 
L 1.265625 17.140625 
L 1.265625 25.203125 
L 33.9375 71.578125 
L 41.109375 71.578125 
L 41.109375 25.203125 
L 50.78125 25.203125 
L 50.78125 17.140625 
L 41.109375 17.140625 
L 41.109375 0 
z
M 32.328125 25.203125 
L 32.328125 57.46875 
L 9.90625 25.203125 
z
" id="ArialMT-52"/>
      </defs>
      <g style="fill:#262626;" transform="translate(307.084 392.598875)scale(0.088 -0.088)">
       <use xlink:href="#ArialMT-48"/>
       <use x="55.615234" xlink:href="#ArialMT-46"/>
       <use x="83.398438" xlink:href="#ArialMT-52"/>
      </g>
     </g>
    </g>
    <g id="xtick_4">
     <g id="line2d_4">
      <path clip-path="url(#peb7e0de51a)" d="M 424.8 378 
L 424.8 51.84 
" style="fill:none;stroke:#ffffff;stroke-linecap:round;stroke-width:0.8;"/>
     </g>
     <g id="text_4">
      <!-- 0.6 -->
      <defs>
       <path d="M 49.75 54.046875 
L 41.015625 53.375 
Q 39.84375 58.546875 37.703125 60.890625 
Q 34.125 64.65625 28.90625 64.65625 
Q 24.703125 64.65625 21.53125 62.3125 
Q 17.390625 59.28125 14.984375 53.46875 
Q 12.59375 47.65625 12.5 36.921875 
Q 15.671875 41.75 20.265625 44.09375 
Q 24.859375 46.4375 29.890625 46.4375 
Q 38.671875 46.4375 44.84375 39.96875 
Q 51.03125 33.5 51.03125 23.25 
Q 51.03125 16.5 48.125 10.71875 
Q 45.21875 4.9375 40.140625 1.859375 
Q 35.0625 -1.21875 28.609375 -1.21875 
Q 17.625 -1.21875 10.6875 6.859375 
Q 3.765625 14.9375 3.765625 33.5 
Q 3.765625 54.25 11.421875 63.671875 
Q 18.109375 71.875 29.4375 71.875 
Q 37.890625 71.875 43.28125 67.140625 
Q 48.6875 62.40625 49.75 54.046875 
z
M 13.875 23.1875 
Q 13.875 18.65625 15.796875 14.5 
Q 17.71875 10.359375 21.1875 8.171875 
Q 24.65625 6 28.46875 6 
Q 34.03125 6 38.03125 10.484375 
Q 42.046875 14.984375 42.046875 22.703125 
Q 42.046875 30.125 38.078125 34.390625 
Q 34.125 38.671875 28.125 38.671875 
Q 22.171875 38.671875 18.015625 34.390625 
Q 13.875 30.125 13.875 23.1875 
z
" id="ArialMT-54"/>
      </defs>
      <g style="fill:#262626;" transform="translate(418.684 392.598875)scale(0.088 -0.088)">
       <use xlink:href="#ArialMT-48"/>
       <use x="55.615234" xlink:href="#ArialMT-46"/>
       <use x="83.398438" xlink:href="#ArialMT-54"/>
      </g>
     </g>
    </g>
    <g id="xtick_5">
     <g id="line2d_5">
      <path clip-path="url(#peb7e0de51a)" d="M 536.4 378 
L 536.4 51.84 
" style="fill:none;stroke:#ffffff;stroke-linecap:round;stroke-width:0.8;"/>
     </g>
     <g id="text_5">
      <!-- 0.8 -->
      <defs>
       <path d="M 17.671875 38.8125 
Q 12.203125 40.828125 9.5625 44.53125 
Q 6.9375 48.25 6.9375 53.421875 
Q 6.9375 61.234375 12.546875 66.546875 
Q 18.171875 71.875 27.484375 71.875 
Q 36.859375 71.875 42.578125 66.421875 
Q 48.296875 60.984375 48.296875 53.171875 
Q 48.296875 48.1875 45.671875 44.5 
Q 43.0625 40.828125 37.75 38.8125 
Q 44.34375 36.671875 47.78125 31.875 
Q 51.21875 27.09375 51.21875 20.453125 
Q 51.21875 11.28125 44.71875 5.03125 
Q 38.234375 -1.21875 27.640625 -1.21875 
Q 17.046875 -1.21875 10.546875 5.046875 
Q 4.046875 11.328125 4.046875 20.703125 
Q 4.046875 27.6875 7.59375 32.390625 
Q 11.140625 37.109375 17.671875 38.8125 
z
M 15.921875 53.71875 
Q 15.921875 48.640625 19.1875 45.40625 
Q 22.46875 42.1875 27.6875 42.1875 
Q 32.765625 42.1875 36.015625 45.375 
Q 39.265625 48.578125 39.265625 53.21875 
Q 39.265625 58.0625 35.90625 61.359375 
Q 32.5625 64.65625 27.59375 64.65625 
Q 22.5625 64.65625 19.234375 61.421875 
Q 15.921875 58.203125 15.921875 53.71875 
z
M 13.09375 20.65625 
Q 13.09375 16.890625 14.875 13.375 
Q 16.65625 9.859375 20.171875 7.921875 
Q 23.6875 6 27.734375 6 
Q 34.03125 6 38.125 10.046875 
Q 42.234375 14.109375 42.234375 20.359375 
Q 42.234375 26.703125 38.015625 30.859375 
Q 33.796875 35.015625 27.4375 35.015625 
Q 21.234375 35.015625 17.15625 30.90625 
Q 13.09375 26.8125 13.09375 20.65625 
z
" id="ArialMT-56"/>
      </defs>
      <g style="fill:#262626;" transform="translate(530.284 392.598875)scale(0.088 -0.088)">
       <use xlink:href="#ArialMT-48"/>
       <use x="55.615234" xlink:href="#ArialMT-46"/>
       <use x="83.398438" xlink:href="#ArialMT-56"/>
      </g>
     </g>
    </g>
    <g id="xtick_6">
     <g id="line2d_6">
      <path clip-path="url(#peb7e0de51a)" d="M 648 378 
L 648 51.84 
" style="fill:none;stroke:#ffffff;stroke-linecap:round;stroke-width:0.8;"/>
     </g>
     <g id="text_6">
      <!-- 1.0 -->
      <defs>
       <path d="M 37.25 0 
L 28.46875 0 
L 28.46875 56 
Q 25.296875 52.984375 20.140625 49.953125 
Q 14.984375 46.921875 10.890625 45.40625 
L 10.890625 53.90625 
Q 18.265625 57.375 23.78125 62.296875 
Q 29.296875 67.234375 31.59375 71.875 
L 37.25 71.875 
z
" id="ArialMT-49"/>
      </defs>
      <g style="fill:#262626;" transform="translate(641.884 392.598875)scale(0.088 -0.088)">
       <use xlink:href="#ArialMT-49"/>
       <use x="55.615234" xlink:href="#ArialMT-46"/>
       <use x="83.398438" xlink:href="#ArialMT-48"/>
      </g>
     </g>
    </g>
    <g id="text_7">
     <!-- $x$ -->
     <defs>
      <path d="M 60.015625 54.6875 
L 34.90625 27.875 
L 50.296875 0 
L 39.984375 0 
L 28.421875 21.6875 
L 8.296875 0 
L -2.59375 0 
L 24.3125 28.8125 
L 10.015625 54.6875 
L 20.3125 54.6875 
L 30.8125 34.90625 
L 49.125 54.6875 
z
" id="DejaVuSans-Oblique-120"/>
     </defs>
     <g style="fill:#262626;" transform="translate(366.12 405.219375)scale(0.096 -0.096)">
      <use transform="translate(0 0.3125)" xlink:href="#DejaVuSans-Oblique-120"/>
     </g>
    </g>
   </g>
   <g id="matplotlib.axis_2">
    <g id="ytick_1">
     <g id="line2d_7">
      <path clip-path="url(#peb7e0de51a)" d="M 90 378 
L 648 378 
" style="fill:none;stroke:#ffffff;stroke-linecap:round;stroke-width:0.8;"/>
     </g>
     <g id="text_8">
      <!-- −20 -->
      <defs>
       <path d="M 52.828125 31.203125 
L 5.5625 31.203125 
L 5.5625 39.40625 
L 52.828125 39.40625 
z
" id="ArialMT-8722"/>
      </defs>
      <g style="fill:#262626;" transform="translate(66.773 381.149438)scale(0.088 -0.088)">
       <use xlink:href="#ArialMT-8722"/>
       <use x="58.398438" xlink:href="#ArialMT-50"/>
       <use x="114.013672" xlink:href="#ArialMT-48"/>
      </g>
     </g>
    </g>
    <g id="ytick_2">
     <g id="line2d_8">
      <path clip-path="url(#peb7e0de51a)" d="M 90 337.23 
L 648 337.23 
" style="fill:none;stroke:#ffffff;stroke-linecap:round;stroke-width:0.8;"/>
     </g>
     <g id="text_9">
      <!-- −15 -->
      <defs>
       <path d="M 4.15625 18.75 
L 13.375 19.53125 
Q 14.40625 12.796875 18.140625 9.390625 
Q 21.875 6 27.15625 6 
Q 33.5 6 37.890625 10.78125 
Q 42.28125 15.578125 42.28125 23.484375 
Q 42.28125 31 38.0625 35.34375 
Q 33.84375 39.703125 27 39.703125 
Q 22.75 39.703125 19.328125 37.765625 
Q 15.921875 35.84375 13.96875 32.765625 
L 5.71875 33.84375 
L 12.640625 70.609375 
L 48.25 70.609375 
L 48.25 62.203125 
L 19.671875 62.203125 
L 15.828125 42.96875 
Q 22.265625 47.46875 29.34375 47.46875 
Q 38.71875 47.46875 45.15625 40.96875 
Q 51.609375 34.46875 51.609375 24.265625 
Q 51.609375 14.546875 45.953125 7.46875 
Q 39.0625 -1.21875 27.15625 -1.21875 
Q 17.390625 -1.21875 11.203125 4.25 
Q 5.03125 9.71875 4.15625 18.75 
z
" id="ArialMT-53"/>
      </defs>
      <g style="fill:#262626;" transform="translate(66.773 340.379437)scale(0.088 -0.088)">
       <use xlink:href="#ArialMT-8722"/>
       <use x="58.398438" xlink:href="#ArialMT-49"/>
       <use x="114.013672" xlink:href="#ArialMT-53"/>
      </g>
     </g>
    </g>
    <g id="ytick_3">
     <g id="line2d_9">
      <path clip-path="url(#peb7e0de51a)" d="M 90 296.46 
L 648 296.46 
" style="fill:none;stroke:#ffffff;stroke-linecap:round;stroke-width:0.8;"/>
     </g>
     <g id="text_10">
      <!-- −10 -->
      <g style="fill:#262626;" transform="translate(66.773 299.609438)scale(0.088 -0.088)">
       <use xlink:href="#ArialMT-8722"/>
       <use x="58.398438" xlink:href="#ArialMT-49"/>
       <use x="114.013672" xlink:href="#ArialMT-48"/>
      </g>
     </g>
    </g>
    <g id="ytick_4">
     <g id="line2d_10">
      <path clip-path="url(#peb7e0de51a)" d="M 90 255.69 
L 648 255.69 
" style="fill:none;stroke:#ffffff;stroke-linecap:round;stroke-width:0.8;"/>
     </g>
     <g id="text_11">
      <!-- −5 -->
      <g style="fill:#262626;" transform="translate(71.666625 258.839438)scale(0.088 -0.088)">
       <use xlink:href="#ArialMT-8722"/>
       <use x="58.398438" xlink:href="#ArialMT-53"/>
      </g>
     </g>
    </g>
    <g id="ytick_5">
     <g id="line2d_11">
      <path clip-path="url(#peb7e0de51a)" d="M 90 214.92 
L 648 214.92 
" style="fill:none;stroke:#ffffff;stroke-linecap:round;stroke-width:0.8;"/>
     </g>
     <g id="text_12">
      <!-- 0 -->
      <g style="fill:#262626;" transform="translate(76.806375 218.069437)scale(0.088 -0.088)">
       <use xlink:href="#ArialMT-48"/>
      </g>
     </g>
    </g>
    <g id="ytick_6">
     <g id="line2d_12">
      <path clip-path="url(#peb7e0de51a)" d="M 90 174.15 
L 648 174.15 
" style="fill:none;stroke:#ffffff;stroke-linecap:round;stroke-width:0.8;"/>
     </g>
     <g id="text_13">
      <!-- 5 -->
      <g style="fill:#262626;" transform="translate(76.806375 177.299437)scale(0.088 -0.088)">
       <use xlink:href="#ArialMT-53"/>
      </g>
     </g>
    </g>
    <g id="ytick_7">
     <g id="line2d_13">
      <path clip-path="url(#peb7e0de51a)" d="M 90 133.38 
L 648 133.38 
" style="fill:none;stroke:#ffffff;stroke-linecap:round;stroke-width:0.8;"/>
     </g>
     <g id="text_14">
      <!-- 10 -->
      <g style="fill:#262626;" transform="translate(71.91275 136.529437)scale(0.088 -0.088)">
       <use xlink:href="#ArialMT-49"/>
       <use x="55.615234" xlink:href="#ArialMT-48"/>
      </g>
     </g>
    </g>
    <g id="ytick_8">
     <g id="line2d_14">
      <path clip-path="url(#peb7e0de51a)" d="M 90 92.61 
L 648 92.61 
" style="fill:none;stroke:#ffffff;stroke-linecap:round;stroke-width:0.8;"/>
     </g>
     <g id="text_15">
      <!-- 15 -->
      <g style="fill:#262626;" transform="translate(71.91275 95.759437)scale(0.088 -0.088)">
       <use xlink:href="#ArialMT-49"/>
       <use x="55.615234" xlink:href="#ArialMT-53"/>
      </g>
     </g>
    </g>
    <g id="ytick_9">
     <g id="line2d_15">
      <path clip-path="url(#peb7e0de51a)" d="M 90 51.84 
L 648 51.84 
" style="fill:none;stroke:#ffffff;stroke-linecap:round;stroke-width:0.8;"/>
     </g>
     <g id="text_16">
      <!-- 20 -->
      <g style="fill:#262626;" transform="translate(71.91275 54.989437)scale(0.088 -0.088)">
       <use xlink:href="#ArialMT-50"/>
       <use x="55.615234" xlink:href="#ArialMT-48"/>
      </g>
     </g>
    </g>
    <g id="text_17">
     <!-- $f(x)$ -->
     <defs>
      <path d="M 47.796875 75.984375 
L 46.390625 68.5 
L 37.796875 68.5 
Q 32.90625 68.5 30.6875 66.578125 
Q 28.46875 64.65625 27.390625 59.515625 
L 26.421875 54.6875 
L 41.21875 54.6875 
L 39.890625 47.703125 
L 25.09375 47.703125 
L 15.828125 0 
L 6.78125 0 
L 16.109375 47.703125 
L 7.515625 47.703125 
L 8.796875 54.6875 
L 17.390625 54.6875 
L 18.109375 58.5 
Q 19.96875 68.171875 24.625 72.078125 
Q 29.296875 75.984375 39.3125 75.984375 
z
" id="DejaVuSans-Oblique-102"/>
      <path d="M 31 75.875 
Q 24.46875 64.65625 21.28125 53.65625 
Q 18.109375 42.671875 18.109375 31.390625 
Q 18.109375 20.125 21.3125 9.0625 
Q 24.515625 -2 31 -13.1875 
L 23.1875 -13.1875 
Q 15.875 -1.703125 12.234375 9.375 
Q 8.59375 20.453125 8.59375 31.390625 
Q 8.59375 42.28125 12.203125 53.3125 
Q 15.828125 64.359375 23.1875 75.875 
z
" id="DejaVuSans-40"/>
      <path d="M 8.015625 75.875 
L 15.828125 75.875 
Q 23.140625 64.359375 26.78125 53.3125 
Q 30.421875 42.28125 30.421875 31.390625 
Q 30.421875 20.453125 26.78125 9.375 
Q 23.140625 -1.703125 15.828125 -13.1875 
L 8.015625 -13.1875 
Q 14.5 -2 17.703125 9.0625 
Q 20.90625 20.125 20.90625 31.390625 
Q 20.90625 42.671875 17.703125 53.65625 
Q 14.5 64.65625 8.015625 75.875 
z
" id="DejaVuSans-41"/>
     </defs>
     <g style="fill:#262626;" transform="translate(60.865 223.224)rotate(-90)scale(0.096 -0.096)">
      <use transform="translate(0 0.015625)" xlink:href="#DejaVuSans-Oblique-102"/>
      <use transform="translate(35.205078 0.015625)" xlink:href="#DejaVuSans-40"/>
      <use transform="translate(74.21875 0.015625)" xlink:href="#DejaVuSans-Oblique-120"/>
      <use transform="translate(133.398438 0.015625)" xlink:href="#DejaVuSans-41"/>
     </g>
    </g>
   </g>
   <g id="PolyCollection_1">
    <defs>
     <path d="M 90 -241.763049 
L 90 -241.764696 
L 91.86 -240.418508 
L 93.72 -239.075254 
L 95.58 -237.737762 
L 97.44 -236.408969 
L 99.3 -235.091743 
L 101.16 -233.788852 
L 103.02 -232.502942 
L 104.88 -231.236542 
L 106.74 -229.992053 
L 108.6 -228.771751 
L 110.46 -227.577778 
L 112.32 -226.412135 
L 114.18 -225.276674 
L 116.04 -224.173102 
L 117.9 -223.102989 
L 119.76 -222.06777 
L 121.62 -221.068749 
L 123.48 -220.107097 
L 125.34 -219.18385 
L 127.2 -218.29991 
L 129.06 -217.456044 
L 130.92 -216.652888 
L 132.78 -215.890943 
L 134.64 -215.170585 
L 136.5 -214.49206 
L 138.36 -213.855489 
L 140.22 -213.260874 
L 142.08 -212.708096 
L 143.94 -212.196921 
L 145.8 -211.727003 
L 147.66 -211.29789 
L 149.52 -210.909025 
L 151.38 -210.55975 
L 153.24 -210.249315 
L 155.1 -209.976877 
L 156.96 -209.741511 
L 158.82 -209.542212 
L 160.68 -209.377903 
L 162.54 -209.247437 
L 164.4 -209.149605 
L 166.26 -209.08314 
L 168.12 -209.046726 
L 169.98 -209.038998 
L 171.84 -209.058551 
L 173.7 -209.103948 
L 175.56 -209.173718 
L 177.42 -209.266371 
L 179.28 -209.380395 
L 181.14 -209.514269 
L 183 -209.666462 
L 184.86 -209.835442 
L 186.72 -210.019681 
L 188.58 -210.217659 
L 190.44 -210.42787 
L 192.3 -210.648823 
L 194.16 -210.879055 
L 196.02 -211.117125 
L 197.88 -211.361627 
L 199.74 -211.611189 
L 201.6 -211.864479 
L 203.46 -212.120208 
L 205.32 -212.377136 
L 207.18 -212.634072 
L 209.04 -212.889879 
L 210.9 -213.143477 
L 212.76 -213.393845 
L 214.62 -213.640024 
L 216.48 -213.881119 
L 218.34 -214.116299 
L 220.2 -214.344803 
L 222.06 -214.565934 
L 223.92 -214.77907 
L 225.78 -214.983655 
L 227.64 -215.179207 
L 229.5 -215.365313 
L 231.36 -215.541631 
L 233.22 -215.707892 
L 235.08 -215.863896 
L 236.94 -216.009512 
L 238.8 -216.144679 
L 240.66 -216.269404 
L 242.52 -216.383757 
L 244.38 -216.487874 
L 246.24 -216.581954 
L 248.1 -216.666254 
L 249.96 -216.741091 
L 251.82 -216.806834 
L 253.68 -216.863905 
L 255.54 -216.912773 
L 257.4 -216.953954 
L 259.26 -216.988005 
L 261.12 -217.015523 
L 262.98 -217.037138 
L 264.84 -217.053515 
L 266.7 -217.065345 
L 268.56 -217.073346 
L 270.42 -217.078256 
L 272.28 -217.080828 
L 274.14 -217.08183 
L 276 -217.082038 
L 277.86 -217.082232 
L 279.72 -217.083193 
L 281.58 -217.085698 
L 283.44 -217.090514 
L 285.3 -217.098399 
L 287.16 -217.110093 
L 289.02 -217.126315 
L 290.88 -217.147762 
L 292.74 -217.1751 
L 294.6 -217.208965 
L 296.46 -217.249958 
L 298.32 -217.29864 
L 300.18 -217.355528 
L 302.04 -217.421096 
L 303.9 -217.495766 
L 305.76 -217.579912 
L 307.62 -217.673849 
L 309.48 -217.777837 
L 311.34 -217.892075 
L 313.2 -218.0167 
L 315.06 -218.151783 
L 316.92 -218.29733 
L 318.78 -218.453278 
L 320.64 -218.619495 
L 322.5 -218.795779 
L 324.36 -218.98186 
L 326.22 -219.177393 
L 328.08 -219.381965 
L 329.94 -219.595093 
L 331.8 -219.81622 
L 333.66 -220.044721 
L 335.52 -220.279902 
L 337.38 -220.520999 
L 339.24 -220.767183 
L 341.1 -221.017559 
L 342.96 -221.271166 
L 344.82 -221.526986 
L 346.68 -221.783937 
L 348.54 -222.040885 
L 350.4 -222.29664 
L 352.26 -222.549961 
L 354.12 -222.799561 
L 355.98 -223.04411 
L 357.84 -223.282235 
L 359.7 -223.512531 
L 361.56 -223.733559 
L 363.42 -223.943853 
L 365.28 -224.141924 
L 367.14 -224.326263 
L 369 -224.495349 
L 370.86 -224.647652 
L 372.72 -224.781637 
L 374.58 -224.895772 
L 376.44 -224.988532 
L 378.3 -225.058402 
L 380.16 -225.10389 
L 382.02 -225.123525 
L 383.88 -225.115865 
L 385.74 -225.079506 
L 387.6 -225.013083 
L 389.46 -224.915279 
L 391.32 -224.784827 
L 393.18 -224.62052 
L 395.04 -224.421212 
L 396.9 -224.185829 
L 398.76 -223.913367 
L 400.62 -223.602905 
L 402.48 -223.253601 
L 404.34 -222.864709 
L 406.2 -222.435571 
L 408.06 -221.96563 
L 409.92 -221.454434 
L 411.78 -220.901634 
L 413.64 -220.306996 
L 415.5 -219.670398 
L 417.36 -218.991839 
L 419.22 -218.271438 
L 421.08 -217.50944 
L 422.94 -216.706217 
L 424.8 -215.862269 
L 426.66 -214.978232 
L 428.52 -214.054871 
L 430.38 -213.093089 
L 432.24 -212.093925 
L 434.1 -211.058553 
L 435.96 -209.988287 
L 437.82 -208.884578 
L 439.68 -207.749013 
L 441.54 -206.583316 
L 443.4 -205.389348 
L 445.26 -204.169102 
L 447.12 -202.924707 
L 448.98 -201.658419 
L 450.84 -200.372621 
L 452.7 -199.069825 
L 454.56 -197.75266 
L 456.42 -196.423874 
L 458.28 -195.086328 
L 460.14 -193.742993 
L 462 -192.396943 
L 463.86 -191.051352 
L 465.72 -189.709484 
L 467.58 -188.374694 
L 469.44 -187.050416 
L 471.3 -185.740158 
L 473.16 -184.447496 
L 475.02 -183.176068 
L 476.88 -181.929562 
L 478.74 -180.711713 
L 480.6 -179.526291 
L 482.46 -178.377097 
L 484.32 -177.267951 
L 486.18 -176.202684 
L 488.04 -175.185129 
L 489.9 -174.219113 
L 491.76 -173.308448 
L 493.62 -172.456918 
L 495.48 -171.668273 
L 497.34 -170.946218 
L 499.2 -170.294403 
L 501.06 -169.716413 
L 502.92 -169.215759 
L 504.78 -168.795866 
L 506.64 -168.460065 
L 508.5 -168.211582 
L 510.36 -168.053529 
L 512.22 -167.988892 
L 514.08 -168.020524 
L 515.94 -168.151134 
L 517.8 -168.38328 
L 519.66 -168.719354 
L 521.52 -169.161582 
L 523.38 -169.712005 
L 525.24 -170.372481 
L 527.1 -171.144666 
L 528.96 -172.030015 
L 530.82 -173.029771 
L 532.68 -174.144955 
L 534.54 -175.376364 
L 536.4 -176.72456 
L 538.26 -178.189866 
L 540.12 -179.77236 
L 541.98 -181.471871 
L 543.84 -183.287972 
L 545.7 -185.219975 
L 547.56 -187.26693 
L 549.42 -189.427618 
L 551.28 -191.700553 
L 553.14 -194.083972 
L 555 -196.575841 
L 556.86 -199.173845 
L 558.72 -201.875398 
L 560.58 -204.677632 
L 562.44 -207.577408 
L 564.3 -210.57131 
L 566.16 -213.655653 
L 568.02 -216.826481 
L 569.88 -220.079574 
L 571.74 -223.410448 
L 573.6 -226.814363 
L 575.46 -230.286326 
L 577.32 -233.821098 
L 579.18 -237.4132 
L 581.04 -241.056919 
L 582.9 -244.746318 
L 584.76 -248.475243 
L 586.62 -252.237332 
L 588.48 -256.026026 
L 590.34 -259.834576 
L 592.2 -263.65605 
L 594.06 -267.483348 
L 595.92 -271.309204 
L 597.78 -275.126204 
L 599.64 -278.926798 
L 601.5 -282.703317 
L 603.36 -286.447984 
L 605.22 -290.152934 
L 607.08 -293.81022 
L 608.94 -297.411833 
L 610.8 -300.949717 
L 612.66 -304.415781 
L 614.52 -307.801916 
L 616.38 -311.100012 
L 618.24 -314.301974 
L 620.1 -317.399735 
L 621.96 -320.385282 
L 623.82 -323.250666 
L 625.68 -325.988031 
L 627.54 -328.589634 
L 629.4 -331.047844 
L 631.26 -333.355106 
L 633.12 -335.503959 
L 634.98 -337.48709 
L 636.84 -339.297371 
L 638.7 -340.927868 
L 640.56 -342.371848 
L 642.42 -343.622801 
L 644.28 -344.674451 
L 646.14 -345.520807 
L 648 -346.156456 
L 648 -346.154809 
L 648 -346.154809 
L 646.14 -345.518588 
L 644.28 -344.671368 
L 642.42 -343.619197 
L 640.56 -342.36807 
L 638.7 -340.924193 
L 636.84 -339.294002 
L 634.98 -337.484152 
L 633.12 -335.501502 
L 631.26 -333.353093 
L 629.4 -331.04613 
L 627.54 -328.587983 
L 625.68 -325.98621 
L 623.82 -323.248546 
L 621.96 -320.38283 
L 620.1 -317.396977 
L 618.24 -314.298963 
L 616.38 -311.096816 
L 614.52 -307.798606 
L 612.66 -304.412429 
L 610.8 -300.946391 
L 608.94 -297.408593 
L 607.08 -293.807116 
L 605.22 -290.15001 
L 603.36 -286.445268 
L 601.5 -282.700826 
L 599.64 -278.924535 
L 597.78 -275.124155 
L 595.92 -271.30734 
L 594.06 -267.481622 
L 592.2 -263.654404 
L 590.34 -259.832947 
L 588.48 -256.024363 
L 586.62 -252.235597 
L 584.76 -248.473413 
L 582.9 -244.744388 
L 581.04 -241.054896 
L 579.18 -237.411097 
L 577.32 -233.818936 
L 575.46 -230.284126 
L 573.6 -226.812148 
L 571.74 -223.408241 
L 569.88 -220.077396 
L 568.02 -216.82435 
L 566.16 -213.653583 
L 564.3 -210.569312 
L 562.44 -207.575487 
L 560.58 -204.675789 
L 558.72 -201.873625 
L 556.86 -199.172133 
L 555 -196.574173 
L 553.14 -194.08233 
L 551.28 -191.698915 
L 549.42 -189.425966 
L 547.56 -187.265246 
L 545.7 -185.218248 
L 543.84 -183.286193 
L 541.98 -181.470038 
L 540.12 -179.770473 
L 538.26 -178.187929 
L 536.4 -176.722581 
L 534.54 -175.374353 
L 532.68 -174.142922 
L 530.82 -173.027727 
L 528.96 -172.027972 
L 527.1 -171.142635 
L 525.24 -170.370472 
L 523.38 -169.710028 
L 521.52 -169.159642 
L 519.66 -168.717459 
L 517.8 -168.381431 
L 515.94 -168.149333 
L 514.08 -168.018768 
L 512.22 -167.987177 
L 510.36 -168.05185 
L 508.5 -168.209932 
L 506.64 -168.458434 
L 504.78 -168.794246 
L 502.92 -169.21414 
L 501.06 -169.714788 
L 499.2 -170.292765 
L 497.34 -170.944562 
L 495.48 -171.666596 
L 493.62 -172.455218 
L 491.76 -173.306726 
L 489.9 -174.217371 
L 488.04 -175.183369 
L 486.18 -176.20091 
L 484.32 -177.266168 
L 482.46 -178.375309 
L 480.6 -179.524503 
L 478.74 -180.70993 
L 476.88 -181.927788 
L 475.02 -183.174306 
L 473.16 -184.44575 
L 471.3 -185.738429 
L 469.44 -187.048706 
L 467.58 -188.373004 
L 465.72 -189.707814 
L 463.86 -191.049701 
L 462 -192.395311 
L 460.14 -193.741378 
L 458.28 -195.084729 
L 456.42 -196.422289 
L 454.56 -197.751089 
L 452.7 -199.068266 
L 450.84 -200.371074 
L 448.98 -201.656881 
L 447.12 -202.923179 
L 445.26 -204.167583 
L 443.4 -205.387835 
L 441.54 -206.581809 
L 439.68 -207.747509 
L 437.82 -208.883075 
L 435.96 -209.986781 
L 434.1 -211.057039 
L 432.24 -212.092397 
L 430.38 -213.091542 
L 428.52 -214.053298 
L 426.66 -214.976627 
L 424.8 -215.860625 
L 422.94 -216.704527 
L 421.08 -217.5077 
L 419.22 -218.269643 
L 417.36 -218.989985 
L 415.5 -219.668484 
L 413.64 -220.305022 
L 411.78 -220.899602 
L 409.92 -221.452345 
L 408.06 -221.96349 
L 406.2 -222.433384 
L 404.34 -222.862483 
L 402.48 -223.251344 
L 400.62 -223.600625 
L 398.76 -223.911075 
L 396.9 -224.183534 
L 395.04 -224.418924 
L 393.18 -224.618249 
L 391.32 -224.782584 
L 389.46 -224.913073 
L 387.6 -225.010923 
L 385.74 -225.077399 
L 383.88 -225.113817 
L 382.02 -225.12154 
L 380.16 -225.10197 
L 378.3 -225.056547 
L 376.44 -224.986736 
L 374.58 -224.894031 
L 372.72 -224.77994 
L 370.86 -224.645987 
L 369 -224.493702 
L 367.14 -224.324617 
L 365.28 -224.140263 
L 363.42 -223.942163 
L 361.56 -223.731826 
L 359.7 -223.510745 
L 357.84 -223.280388 
L 355.98 -223.042197 
L 354.12 -222.797582 
L 352.26 -222.547918 
L 350.4 -222.294536 
L 348.54 -222.038728 
L 346.68 -221.781735 
L 344.82 -221.524748 
L 342.96 -221.268904 
L 341.1 -221.015284 
L 339.24 -220.764909 
L 337.38 -220.518738 
L 335.52 -220.277665 
L 333.66 -220.042521 
L 331.8 -219.814067 
L 329.94 -219.592996 
L 328.08 -219.379932 
L 326.22 -219.175427 
L 324.36 -218.979964 
L 322.5 -218.793951 
L 320.64 -218.617729 
L 318.78 -218.451566 
L 316.92 -218.295658 
L 315.06 -218.150134 
L 313.2 -218.015054 
L 311.34 -217.890412 
L 309.48 -217.776137 
L 307.62 -217.672093 
L 305.76 -217.578086 
L 303.9 -217.493859 
L 302.04 -217.4191 
L 300.18 -217.35344 
L 298.32 -217.29646 
L 296.46 -217.24769 
L 294.6 -217.206615 
L 292.74 -217.172676 
L 290.88 -217.145275 
L 289.02 -217.123778 
L 287.16 -217.107518 
L 285.3 -217.095802 
L 283.44 -217.087909 
L 281.58 -217.083099 
L 279.72 -217.080617 
L 277.86 -217.079692 
L 276 -217.079548 
L 274.14 -217.079403 
L 272.28 -217.078474 
L 270.42 -217.075985 
L 268.56 -217.071165 
L 266.7 -217.063256 
L 264.84 -217.051519 
L 262.98 -217.035233 
L 261.12 -217.013701 
L 259.26 -216.986255 
L 257.4 -216.95226 
L 255.54 -216.911117 
L 253.68 -216.862266 
L 251.82 -216.805191 
L 249.96 -216.739423 
L 248.1 -216.664543 
L 246.24 -216.580184 
L 244.38 -216.486036 
L 242.52 -216.381845 
L 240.66 -216.267415 
L 238.8 -216.142616 
L 236.94 -216.007377 
L 235.08 -215.861697 
L 233.22 -215.705637 
L 231.36 -215.539331 
L 229.5 -215.362979 
L 227.64 -215.176852 
L 225.78 -214.981292 
L 223.92 -214.77671 
L 222.06 -214.563591 
L 220.2 -214.342488 
L 218.34 -214.114026 
L 216.48 -213.878896 
L 214.62 -213.637861 
L 212.76 -213.391749 
L 210.9 -213.141454 
L 209.04 -212.887933 
L 207.18 -212.632205 
L 205.32 -212.375348 
L 203.46 -212.118495 
L 201.6 -211.862836 
L 199.74 -211.60961 
L 197.88 -211.360101 
L 196.02 -211.115641 
L 194.16 -210.8776 
L 192.3 -210.647385 
L 190.44 -210.426436 
L 188.58 -210.21622 
L 186.72 -210.018226 
L 184.86 -209.833965 
L 183 -209.664958 
L 181.14 -209.512737 
L 179.28 -209.378835 
L 177.42 -209.264784 
L 175.56 -209.172109 
L 173.7 -209.102322 
L 171.84 -209.056916 
L 169.98 -209.037359 
L 168.12 -209.045092 
L 166.26 -209.081518 
L 164.4 -209.148002 
L 162.54 -209.24586 
L 160.68 -209.376356 
L 158.82 -209.540697 
L 156.96 -209.740026 
L 155.1 -209.975419 
L 153.24 -210.247875 
L 151.38 -210.558315 
L 149.52 -210.907578 
L 147.66 -211.296412 
L 145.8 -211.725473 
L 143.94 -212.195319 
L 142.08 -212.706408 
L 140.22 -213.259088 
L 138.36 -213.8536 
L 136.5 -214.490067 
L 134.64 -215.168495 
L 132.78 -215.888768 
L 130.92 -216.650646 
L 129.06 -217.45376 
L 127.2 -218.297611 
L 125.34 -219.181568 
L 123.48 -220.104865 
L 121.62 -221.0666 
L 119.76 -222.065732 
L 117.9 -223.101082 
L 116.04 -224.17133 
L 114.18 -225.275012 
L 112.32 -226.410524 
L 110.46 -227.576127 
L 108.6 -228.769957 
L 106.74 -229.990031 
L 104.88 -231.234246 
L 103.02 -232.500369 
L 101.16 -233.786043 
L 99.3 -235.088786 
L 97.44 -236.405998 
L 95.58 -237.734961 
L 93.72 -239.072836 
L 91.86 -240.416634 
L 90 -241.763049 
z
" id="m1b787edb2d" style="stroke:#0173b2;stroke-opacity:0.6;stroke-width:0.8;"/>
    </defs>
    <g clip-path="url(#peb7e0de51a)">
     <use style="fill:#0173b2;fill-opacity:0.6;stroke:#0173b2;stroke-opacity:0.6;stroke-width:0.8;" x="0" xlink:href="#m1b787edb2d" y="432"/>
    </g>
   </g>
   <g id="PolyCollection_2">
    <defs>
     <path d="M 90 -241.762225 
L 90 -241.76552 
L 91.86 -240.419445 
L 93.72 -239.076464 
L 95.58 -237.739163 
L 97.44 -236.410454 
L 99.3 -235.093222 
L 101.16 -233.790257 
L 103.02 -232.504229 
L 104.88 -231.23769 
L 106.74 -229.993064 
L 108.6 -228.772649 
L 110.46 -227.578604 
L 112.32 -226.412941 
L 114.18 -225.277505 
L 116.04 -224.173989 
L 117.9 -223.103942 
L 119.76 -222.068788 
L 121.62 -221.069823 
L 123.48 -220.108213 
L 125.34 -219.184991 
L 127.2 -218.301059 
L 129.06 -217.457186 
L 130.92 -216.654008 
L 132.78 -215.892031 
L 134.64 -215.17163 
L 136.5 -214.493056 
L 138.36 -213.856434 
L 140.22 -213.261767 
L 142.08 -212.70894 
L 143.94 -212.197721 
L 145.8 -211.727768 
L 147.66 -211.29863 
L 149.52 -210.909749 
L 151.38 -210.560468 
L 153.24 -210.250034 
L 155.1 -209.977606 
L 156.96 -209.742253 
L 158.82 -209.54297 
L 160.68 -209.378677 
L 162.54 -209.248226 
L 164.4 -209.150406 
L 166.26 -209.083951 
L 168.12 -209.047543 
L 169.98 -209.039817 
L 171.84 -209.059369 
L 173.7 -209.10476 
L 175.56 -209.174522 
L 177.42 -209.267164 
L 179.28 -209.381176 
L 181.14 -209.515035 
L 183 -209.667214 
L 184.86 -209.836181 
L 186.72 -210.020409 
L 188.58 -210.218379 
L 190.44 -210.428586 
L 192.3 -210.649542 
L 194.16 -210.879782 
L 196.02 -211.117867 
L 197.88 -211.36239 
L 199.74 -211.611978 
L 201.6 -211.8653 
L 203.46 -212.121064 
L 205.32 -212.37803 
L 207.18 -212.635005 
L 209.04 -212.890852 
L 210.9 -213.144489 
L 212.76 -213.394893 
L 214.62 -213.641106 
L 216.48 -213.882231 
L 218.34 -214.117436 
L 220.2 -214.34596 
L 222.06 -214.567106 
L 223.92 -214.78025 
L 225.78 -214.984837 
L 227.64 -215.180385 
L 229.5 -215.366479 
L 231.36 -215.542781 
L 233.22 -215.709019 
L 235.08 -215.864995 
L 236.94 -216.01058 
L 238.8 -216.145711 
L 240.66 -216.270398 
L 242.52 -216.384713 
L 244.38 -216.488793 
L 246.24 -216.582839 
L 248.1 -216.66711 
L 249.96 -216.741925 
L 251.82 -216.807656 
L 253.68 -216.864724 
L 255.54 -216.913601 
L 257.4 -216.954801 
L 259.26 -216.988881 
L 261.12 -217.016434 
L 262.98 -217.038091 
L 264.84 -217.054513 
L 266.7 -217.06639 
L 268.56 -217.074437 
L 270.42 -217.079391 
L 272.28 -217.082004 
L 274.14 -217.083043 
L 276 -217.083283 
L 277.86 -217.083502 
L 279.72 -217.084481 
L 281.58 -217.086997 
L 283.44 -217.091817 
L 285.3 -217.099698 
L 287.16 -217.11138 
L 289.02 -217.127584 
L 290.88 -217.149005 
L 292.74 -217.176312 
L 294.6 -217.21014 
L 296.46 -217.251092 
L 298.32 -217.299729 
L 300.18 -217.356572 
L 302.04 -217.422093 
L 303.9 -217.49672 
L 305.76 -217.580825 
L 307.62 -217.674726 
L 309.48 -217.778687 
L 311.34 -217.892907 
L 313.2 -218.017523 
L 315.06 -218.152608 
L 316.92 -218.298166 
L 318.78 -218.454134 
L 320.64 -218.620377 
L 322.5 -218.796693 
L 324.36 -218.982808 
L 326.22 -219.178376 
L 328.08 -219.382982 
L 329.94 -219.596141 
L 331.8 -219.817296 
L 333.66 -220.045821 
L 335.52 -220.28102 
L 337.38 -220.52213 
L 339.24 -220.76832 
L 341.1 -221.018696 
L 342.96 -221.272297 
L 344.82 -221.528105 
L 346.68 -221.785039 
L 348.54 -222.041964 
L 350.4 -222.297692 
L 352.26 -222.550983 
L 354.12 -222.800551 
L 355.98 -223.045066 
L 357.84 -223.283159 
L 359.7 -223.513425 
L 361.56 -223.734426 
L 363.42 -223.944698 
L 365.28 -224.142754 
L 367.14 -224.327086 
L 369 -224.496173 
L 370.86 -224.648485 
L 372.72 -224.782486 
L 374.58 -224.896643 
L 376.44 -224.989429 
L 378.3 -225.05933 
L 380.16 -225.10485 
L 382.02 -225.124517 
L 383.88 -225.116889 
L 385.74 -225.08056 
L 387.6 -225.014163 
L 389.46 -224.916382 
L 391.32 -224.785948 
L 393.18 -224.621655 
L 395.04 -224.422357 
L 396.9 -224.186977 
L 398.76 -223.914514 
L 400.62 -223.604044 
L 402.48 -223.25473 
L 404.34 -222.865822 
L 406.2 -222.436664 
L 408.06 -221.966701 
L 409.92 -221.455478 
L 411.78 -220.90265 
L 413.64 -220.307982 
L 415.5 -219.671354 
L 417.36 -218.992765 
L 419.22 -218.272335 
L 421.08 -217.51031 
L 422.94 -216.707061 
L 424.8 -215.863091 
L 426.66 -214.979034 
L 428.52 -214.055657 
L 430.38 -213.093863 
L 432.24 -212.094688 
L 434.1 -211.059311 
L 435.96 -209.989041 
L 437.82 -208.88533 
L 439.68 -207.749764 
L 441.54 -206.584069 
L 443.4 -205.390104 
L 445.26 -204.169862 
L 447.12 -202.925471 
L 448.98 -201.659187 
L 450.84 -200.373395 
L 452.7 -199.070604 
L 454.56 -197.753445 
L 456.42 -196.424666 
L 458.28 -195.087127 
L 460.14 -193.743801 
L 462 -192.39776 
L 463.86 -191.052177 
L 465.72 -189.710319 
L 467.58 -188.375539 
L 469.44 -187.051271 
L 471.3 -185.741022 
L 473.16 -184.448369 
L 475.02 -183.176949 
L 476.88 -181.930449 
L 478.74 -180.712605 
L 480.6 -179.527185 
L 482.46 -178.377992 
L 484.32 -177.268843 
L 486.18 -176.203571 
L 488.04 -175.186009 
L 489.9 -174.219985 
L 491.76 -173.309309 
L 493.62 -172.457768 
L 495.48 -171.669112 
L 497.34 -170.947046 
L 499.2 -170.295223 
L 501.06 -169.717226 
L 502.92 -169.216569 
L 504.78 -168.796676 
L 506.64 -168.46088 
L 508.5 -168.212407 
L 510.36 -168.054368 
L 512.22 -167.989749 
L 514.08 -168.021402 
L 515.94 -168.152035 
L 517.8 -168.384204 
L 519.66 -168.720302 
L 521.52 -169.162552 
L 523.38 -169.712994 
L 525.24 -170.373485 
L 527.1 -171.145681 
L 528.96 -172.031037 
L 530.82 -173.030793 
L 532.68 -174.145972 
L 534.54 -175.37737 
L 536.4 -176.725549 
L 538.26 -178.190834 
L 540.12 -179.773304 
L 541.98 -181.472788 
L 543.84 -183.288861 
L 545.7 -185.220838 
L 547.56 -187.267771 
L 549.42 -189.428444 
L 551.28 -191.701372 
L 553.14 -194.084793 
L 555 -196.576674 
L 556.86 -199.174701 
L 558.72 -201.876284 
L 560.58 -204.678553 
L 562.44 -207.578368 
L 564.3 -210.572308 
L 566.16 -213.656688 
L 568.02 -216.827547 
L 569.88 -220.080663 
L 571.74 -223.411552 
L 573.6 -226.81547 
L 575.46 -230.287426 
L 577.32 -233.822179 
L 579.18 -237.414251 
L 581.04 -241.05793 
L 582.9 -244.747283 
L 584.76 -248.476158 
L 586.62 -252.2382 
L 588.48 -256.026858 
L 590.34 -259.83539 
L 592.2 -263.656874 
L 594.06 -267.484212 
L 595.92 -271.310136 
L 597.78 -275.127228 
L 599.64 -278.92793 
L 601.5 -282.704562 
L 603.36 -286.449342 
L 605.22 -290.154396 
L 607.08 -293.811772 
L 608.94 -297.413454 
L 610.8 -300.951381 
L 612.66 -304.417457 
L 614.52 -307.803571 
L 616.38 -311.101611 
L 618.24 -314.303479 
L 620.1 -317.401115 
L 621.96 -320.386508 
L 623.82 -323.251726 
L 625.68 -325.988942 
L 627.54 -328.59046 
L 629.4 -331.048701 
L 631.26 -333.356113 
L 633.12 -335.505187 
L 634.98 -337.488559 
L 636.84 -339.299056 
L 638.7 -340.929705 
L 640.56 -342.373738 
L 642.42 -343.624603 
L 644.28 -344.675992 
L 646.14 -345.521917 
L 648 -346.157279 
L 648 -346.153985 
L 648 -346.153985 
L 646.14 -345.517479 
L 644.28 -344.669827 
L 642.42 -343.617395 
L 640.56 -342.36618 
L 638.7 -340.922355 
L 636.84 -339.292318 
L 634.98 -337.482684 
L 633.12 -335.500274 
L 631.26 -333.352086 
L 629.4 -331.045274 
L 627.54 -328.587157 
L 625.68 -325.985299 
L 623.82 -323.247486 
L 621.96 -320.381605 
L 620.1 -317.395598 
L 618.24 -314.297457 
L 616.38 -311.095217 
L 614.52 -307.796951 
L 612.66 -304.410753 
L 610.8 -300.944727 
L 608.94 -297.406972 
L 607.08 -293.805564 
L 605.22 -290.148547 
L 603.36 -286.443911 
L 601.5 -282.699581 
L 599.64 -278.923403 
L 597.78 -275.123131 
L 595.92 -271.306408 
L 594.06 -267.480758 
L 592.2 -263.65358 
L 590.34 -259.832133 
L 588.48 -256.023532 
L 586.62 -252.234729 
L 584.76 -248.472498 
L 582.9 -244.743424 
L 581.04 -241.053885 
L 579.18 -237.410046 
L 577.32 -233.817855 
L 575.46 -230.283026 
L 573.6 -226.811041 
L 571.74 -223.407138 
L 569.88 -220.076307 
L 568.02 -216.823285 
L 566.16 -213.652548 
L 564.3 -210.568314 
L 562.44 -207.574527 
L 560.58 -204.674867 
L 558.72 -201.872739 
L 556.86 -199.171277 
L 555 -196.573339 
L 553.14 -194.081509 
L 551.28 -191.698096 
L 549.42 -189.42514 
L 547.56 -187.264404 
L 545.7 -185.217384 
L 543.84 -183.285304 
L 541.98 -181.469121 
L 540.12 -179.769529 
L 538.26 -178.186961 
L 536.4 -176.721592 
L 534.54 -175.373347 
L 532.68 -174.141906 
L 530.82 -173.026706 
L 528.96 -172.026951 
L 527.1 -171.141619 
L 525.24 -170.369467 
L 523.38 -169.709039 
L 521.52 -169.158673 
L 519.66 -168.716511 
L 517.8 -168.380506 
L 515.94 -168.148432 
L 514.08 -168.01789 
L 512.22 -167.98632 
L 510.36 -168.051011 
L 508.5 -168.209107 
L 506.64 -168.457619 
L 504.78 -168.793436 
L 502.92 -169.213331 
L 501.06 -169.713976 
L 499.2 -170.291946 
L 497.34 -170.943734 
L 495.48 -171.665757 
L 493.62 -172.454368 
L 491.76 -173.305865 
L 489.9 -174.216499 
L 488.04 -175.182488 
L 486.18 -176.200023 
L 484.32 -177.265276 
L 482.46 -178.374415 
L 480.6 -179.523609 
L 478.74 -180.709038 
L 476.88 -181.9269 
L 475.02 -183.173425 
L 473.16 -184.444876 
L 471.3 -185.737564 
L 469.44 -187.047851 
L 467.58 -188.372159 
L 465.72 -189.706979 
L 463.86 -191.048875 
L 462 -192.394495 
L 460.14 -193.740571 
L 458.28 -195.08393 
L 456.42 -196.421497 
L 454.56 -197.750303 
L 452.7 -199.067487 
L 450.84 -200.3703 
L 448.98 -201.656113 
L 447.12 -202.922415 
L 445.26 -204.166823 
L 443.4 -205.387079 
L 441.54 -206.581055 
L 439.68 -207.746757 
L 437.82 -208.882323 
L 435.96 -209.986028 
L 434.1 -211.056281 
L 432.24 -212.091633 
L 430.38 -213.090769 
L 428.52 -214.052512 
L 426.66 -214.975824 
L 424.8 -215.859803 
L 422.94 -216.703682 
L 421.08 -217.50683 
L 419.22 -218.268745 
L 417.36 -218.989058 
L 415.5 -219.667528 
L 413.64 -220.304035 
L 411.78 -220.898585 
L 409.92 -221.451301 
L 408.06 -221.96242 
L 406.2 -222.432291 
L 404.34 -222.86137 
L 402.48 -223.250216 
L 400.62 -223.599485 
L 398.76 -223.909929 
L 396.9 -224.182386 
L 395.04 -224.41778 
L 393.18 -224.617114 
L 391.32 -224.781462 
L 389.46 -224.91197 
L 387.6 -225.009843 
L 385.74 -225.076345 
L 383.88 -225.112793 
L 382.02 -225.120547 
L 380.16 -225.10101 
L 378.3 -225.055619 
L 376.44 -224.985839 
L 374.58 -224.89316 
L 372.72 -224.779092 
L 370.86 -224.645155 
L 369 -224.492878 
L 367.14 -224.323794 
L 365.28 -224.139433 
L 363.42 -223.941318 
L 361.56 -223.730959 
L 359.7 -223.509851 
L 357.84 -223.279464 
L 355.98 -223.041241 
L 354.12 -222.796593 
L 352.26 -222.546896 
L 350.4 -222.293484 
L 348.54 -222.037649 
L 346.68 -221.780633 
L 344.82 -221.523629 
L 342.96 -221.267773 
L 341.1 -221.014147 
L 339.24 -220.763772 
L 337.38 -220.517607 
L 335.52 -220.276547 
L 333.66 -220.041421 
L 331.8 -219.81299 
L 329.94 -219.591948 
L 328.08 -219.378915 
L 326.22 -219.174444 
L 324.36 -218.979016 
L 322.5 -218.793038 
L 320.64 -218.616847 
L 318.78 -218.45071 
L 316.92 -218.294822 
L 315.06 -218.149309 
L 313.2 -218.014231 
L 311.34 -217.88958 
L 309.48 -217.775287 
L 307.62 -217.671216 
L 305.76 -217.577173 
L 303.9 -217.492906 
L 302.04 -217.418102 
L 300.18 -217.352396 
L 298.32 -217.295371 
L 296.46 -217.246556 
L 294.6 -217.20544 
L 292.74 -217.171464 
L 290.88 -217.144032 
L 289.02 -217.122509 
L 287.16 -217.106231 
L 285.3 -217.094503 
L 283.44 -217.086606 
L 281.58 -217.0818 
L 279.72 -217.079329 
L 277.86 -217.078423 
L 276 -217.078303 
L 274.14 -217.078189 
L 272.28 -217.077298 
L 270.42 -217.074849 
L 268.56 -217.070074 
L 266.7 -217.062212 
L 264.84 -217.050522 
L 262.98 -217.03428 
L 261.12 -217.01279 
L 259.26 -216.98538 
L 257.4 -216.951414 
L 255.54 -216.910289 
L 253.68 -216.861446 
L 251.82 -216.804369 
L 249.96 -216.738588 
L 248.1 -216.663687 
L 246.24 -216.5793 
L 244.38 -216.485117 
L 242.52 -216.380889 
L 240.66 -216.266421 
L 238.8 -216.141584 
L 236.94 -216.00631 
L 235.08 -215.860597 
L 233.22 -215.70451 
L 231.36 -215.538181 
L 229.5 -215.361812 
L 227.64 -215.175674 
L 225.78 -214.98011 
L 223.92 -214.77553 
L 222.06 -214.56242 
L 220.2 -214.341331 
L 218.34 -214.112889 
L 216.48 -213.877784 
L 214.62 -213.636779 
L 212.76 -213.390701 
L 210.9 -213.140442 
L 209.04 -212.88696 
L 207.18 -212.631271 
L 205.32 -212.374453 
L 203.46 -212.117639 
L 201.6 -211.862015 
L 199.74 -211.60882 
L 197.88 -211.359338 
L 196.02 -211.114899 
L 194.16 -210.876873 
L 192.3 -210.646666 
L 190.44 -210.42572 
L 188.58 -210.2155 
L 186.72 -210.017499 
L 184.86 -209.833226 
L 183 -209.664206 
L 181.14 -209.511971 
L 179.28 -209.378054 
L 177.42 -209.263991 
L 175.56 -209.171305 
L 173.7 -209.10151 
L 171.84 -209.056098 
L 169.98 -209.03654 
L 168.12 -209.044275 
L 166.26 -209.080707 
L 164.4 -209.147201 
L 162.54 -209.245071 
L 160.68 -209.375582 
L 158.82 -209.539939 
L 156.96 -209.739284 
L 155.1 -209.97469 
L 153.24 -210.247155 
L 151.38 -210.557598 
L 149.52 -210.906854 
L 147.66 -211.295673 
L 145.8 -211.724708 
L 143.94 -212.194519 
L 142.08 -212.705564 
L 140.22 -213.258195 
L 138.36 -213.852655 
L 136.5 -214.48907 
L 134.64 -215.167449 
L 132.78 -215.887681 
L 130.92 -216.649526 
L 129.06 -217.452618 
L 127.2 -218.296462 
L 125.34 -219.180427 
L 123.48 -220.103749 
L 121.62 -221.065525 
L 119.76 -222.064713 
L 117.9 -223.100129 
L 116.04 -224.170443 
L 114.18 -225.27418 
L 112.32 -226.409718 
L 110.46 -227.575301 
L 108.6 -228.769059 
L 106.74 -229.98902 
L 104.88 -231.233098 
L 103.02 -232.499082 
L 101.16 -233.784638 
L 99.3 -235.087307 
L 97.44 -236.404513 
L 95.58 -237.733561 
L 93.72 -239.071627 
L 91.86 -240.415696 
L 90 -241.762225 
z
" id="m1cfff6c7bb" style="stroke:#0173b2;stroke-opacity:0.4;stroke-width:0.8;"/>
    </defs>
    <g clip-path="url(#peb7e0de51a)">
     <use style="fill:#0173b2;fill-opacity:0.4;stroke:#0173b2;stroke-opacity:0.4;stroke-width:0.8;" x="0" xlink:href="#m1cfff6c7bb" y="432"/>
    </g>
   </g>
   <g id="PolyCollection_3">
    <defs>
     <path d="M 90 -241.761402 
L 90 -241.766343 
L 91.86 -240.420382 
L 93.72 -239.077673 
L 95.58 -237.740563 
L 97.44 -236.411939 
L 99.3 -235.094701 
L 101.16 -233.791661 
L 103.02 -232.505516 
L 104.88 -231.238838 
L 106.74 -229.994076 
L 108.6 -228.773546 
L 110.46 -227.57943 
L 112.32 -226.413746 
L 114.18 -225.278337 
L 116.04 -224.174875 
L 117.9 -223.104895 
L 119.76 -222.069807 
L 121.62 -221.070898 
L 123.48 -220.109329 
L 125.34 -219.186132 
L 127.2 -218.302209 
L 129.06 -217.458328 
L 130.92 -216.655129 
L 132.78 -215.893118 
L 134.64 -215.172675 
L 136.5 -214.494053 
L 138.36 -213.857379 
L 140.22 -213.26266 
L 142.08 -212.709784 
L 143.94 -212.198522 
L 145.8 -211.728534 
L 147.66 -211.299369 
L 149.52 -210.910472 
L 151.38 -210.561185 
L 153.24 -210.250754 
L 155.1 -209.978334 
L 156.96 -209.742995 
L 158.82 -209.543728 
L 160.68 -209.379451 
L 162.54 -209.249014 
L 164.4 -209.151208 
L 166.26 -209.084762 
L 168.12 -209.04836 
L 169.98 -209.040636 
L 171.84 -209.060187 
L 173.7 -209.105573 
L 175.56 -209.175327 
L 177.42 -209.267957 
L 179.28 -209.381956 
L 181.14 -209.515801 
L 183 -209.667966 
L 184.86 -209.83692 
L 186.72 -210.021136 
L 188.58 -210.219099 
L 190.44 -210.429303 
L 192.3 -210.650261 
L 194.16 -210.88051 
L 196.02 -211.118609 
L 197.88 -211.363153 
L 199.74 -211.612768 
L 201.6 -211.866121 
L 203.46 -212.121921 
L 205.32 -212.378924 
L 207.18 -212.635939 
L 209.04 -212.891825 
L 210.9 -213.1455 
L 212.76 -213.395942 
L 214.62 -213.642188 
L 216.48 -213.883343 
L 218.34 -214.118573 
L 220.2 -214.347117 
L 222.06 -214.568277 
L 223.92 -214.78143 
L 225.78 -214.986019 
L 227.64 -215.181562 
L 229.5 -215.367646 
L 231.36 -215.543931 
L 233.22 -215.710147 
L 235.08 -215.866095 
L 236.94 -216.011647 
L 238.8 -216.146743 
L 240.66 -216.271392 
L 242.52 -216.385669 
L 244.38 -216.489712 
L 246.24 -216.583723 
L 248.1 -216.667966 
L 249.96 -216.74276 
L 251.82 -216.808477 
L 253.68 -216.865544 
L 255.54 -216.914429 
L 257.4 -216.955648 
L 259.26 -216.989756 
L 261.12 -217.017345 
L 262.98 -217.039044 
L 264.84 -217.055511 
L 266.7 -217.067434 
L 268.56 -217.075528 
L 270.42 -217.080527 
L 272.28 -217.083181 
L 274.14 -217.084257 
L 276 -217.084527 
L 277.86 -217.084772 
L 279.72 -217.085769 
L 281.58 -217.088296 
L 283.44 -217.093119 
L 285.3 -217.100996 
L 287.16 -217.112667 
L 289.02 -217.128852 
L 290.88 -217.150248 
L 292.74 -217.177523 
L 294.6 -217.211315 
L 296.46 -217.252226 
L 298.32 -217.300819 
L 300.18 -217.357616 
L 302.04 -217.423091 
L 303.9 -217.497673 
L 305.76 -217.581737 
L 307.62 -217.675604 
L 309.48 -217.779537 
L 311.34 -217.893738 
L 313.2 -218.018346 
L 315.06 -218.153433 
L 316.92 -218.299002 
L 318.78 -218.45499 
L 320.64 -218.62126 
L 322.5 -218.797607 
L 324.36 -218.983756 
L 326.22 -219.179359 
L 328.08 -219.383999 
L 329.94 -219.597189 
L 331.8 -219.818372 
L 333.66 -220.046921 
L 335.52 -220.282138 
L 337.38 -220.52326 
L 339.24 -220.769457 
L 341.1 -221.019833 
L 342.96 -221.273428 
L 344.82 -221.529224 
L 346.68 -221.78614 
L 348.54 -222.043043 
L 350.4 -222.298744 
L 352.26 -222.552005 
L 354.12 -222.80154 
L 355.98 -223.046022 
L 357.84 -223.284083 
L 359.7 -223.514318 
L 361.56 -223.735293 
L 363.42 -223.945543 
L 365.28 -224.143584 
L 367.14 -224.327909 
L 369 -224.496997 
L 370.86 -224.649317 
L 372.72 -224.783334 
L 374.58 -224.897514 
L 376.44 -224.990327 
L 378.3 -225.060258 
L 380.16 -225.10581 
L 382.02 -225.12551 
L 383.88 -225.117913 
L 385.74 -225.081613 
L 387.6 -225.015244 
L 389.46 -224.917485 
L 391.32 -224.78707 
L 393.18 -224.62279 
L 395.04 -224.423501 
L 396.9 -224.188125 
L 398.76 -223.91566 
L 400.62 -223.605184 
L 402.48 -223.255859 
L 404.34 -222.866935 
L 406.2 -222.437757 
L 408.06 -221.967771 
L 409.92 -221.456522 
L 411.78 -220.903666 
L 413.64 -220.308969 
L 415.5 -219.672311 
L 417.36 -218.993692 
L 419.22 -218.273233 
L 421.08 -217.51118 
L 422.94 -216.707906 
L 424.8 -215.863913 
L 426.66 -214.979837 
L 428.52 -214.056444 
L 430.38 -213.094636 
L 432.24 -212.095452 
L 434.1 -211.060068 
L 435.96 -209.989794 
L 437.82 -208.886081 
L 439.68 -207.750516 
L 441.54 -206.584823 
L 443.4 -205.39086 
L 445.26 -204.170622 
L 447.12 -202.926235 
L 448.98 -201.659956 
L 450.84 -200.374169 
L 452.7 -199.071383 
L 454.56 -197.754231 
L 456.42 -196.425458 
L 458.28 -195.087927 
L 460.14 -193.744608 
L 462 -192.398576 
L 463.86 -191.053003 
L 465.72 -189.711154 
L 467.58 -188.376384 
L 469.44 -187.052126 
L 471.3 -185.741887 
L 473.16 -184.449243 
L 475.02 -183.17783 
L 476.88 -181.931337 
L 478.74 -180.713496 
L 480.6 -179.528079 
L 482.46 -178.378886 
L 484.32 -177.269735 
L 486.18 -176.204458 
L 488.04 -175.186889 
L 489.9 -174.220856 
L 491.76 -173.310171 
L 493.62 -172.458618 
L 495.48 -171.669951 
L 497.34 -170.947875 
L 499.2 -170.296042 
L 501.06 -169.718038 
L 502.92 -169.217378 
L 504.78 -168.797486 
L 506.64 -168.461696 
L 508.5 -168.213233 
L 510.36 -168.055207 
L 512.22 -167.990606 
L 514.08 -168.02228 
L 515.94 -168.152936 
L 517.8 -168.385129 
L 519.66 -168.72125 
L 521.52 -169.163522 
L 523.38 -169.713983 
L 525.24 -170.37449 
L 527.1 -171.146697 
L 528.96 -172.032058 
L 530.82 -173.031815 
L 532.68 -174.146988 
L 534.54 -175.378375 
L 536.4 -176.726539 
L 538.26 -178.191802 
L 540.12 -179.774248 
L 541.98 -181.473705 
L 543.84 -183.289751 
L 545.7 -185.221702 
L 547.56 -187.268613 
L 549.42 -189.42927 
L 551.28 -191.702191 
L 553.14 -194.085615 
L 555 -196.577508 
L 556.86 -199.175557 
L 558.72 -201.87717 
L 560.58 -204.679475 
L 562.44 -207.579328 
L 564.3 -210.573307 
L 566.16 -213.657723 
L 568.02 -216.828612 
L 569.88 -220.081752 
L 571.74 -223.412655 
L 573.6 -226.816578 
L 575.46 -230.288526 
L 577.32 -233.82326 
L 579.18 -237.415302 
L 581.04 -241.058941 
L 582.9 -244.748247 
L 584.76 -248.477073 
L 586.62 -252.239068 
L 588.48 -256.027689 
L 590.34 -259.836204 
L 592.2 -263.657697 
L 594.06 -267.485075 
L 595.92 -271.311069 
L 597.78 -275.128252 
L 599.64 -278.929061 
L 601.5 -282.705807 
L 603.36 -286.4507 
L 605.22 -290.155858 
L 607.08 -293.813324 
L 608.94 -297.415074 
L 610.8 -300.953044 
L 612.66 -304.419133 
L 614.52 -307.805226 
L 616.38 -311.103209 
L 618.24 -314.304985 
L 620.1 -317.402494 
L 621.96 -320.387734 
L 623.82 -323.252786 
L 625.68 -325.989853 
L 627.54 -328.591286 
L 629.4 -331.049557 
L 631.26 -333.35712 
L 633.12 -335.506416 
L 634.98 -337.490027 
L 636.84 -339.30074 
L 638.7 -340.931542 
L 640.56 -342.375627 
L 642.42 -343.626406 
L 644.28 -344.677533 
L 646.14 -345.523026 
L 648 -346.158103 
L 648 -346.153161 
L 648 -346.153161 
L 646.14 -345.516369 
L 644.28 -344.668286 
L 642.42 -343.615593 
L 640.56 -342.364291 
L 638.7 -340.920518 
L 636.84 -339.290633 
L 634.98 -337.481215 
L 633.12 -335.499045 
L 631.26 -333.35108 
L 629.4 -331.044417 
L 627.54 -328.586331 
L 625.68 -325.984388 
L 623.82 -323.246426 
L 621.96 -320.380379 
L 620.1 -317.394219 
L 618.24 -314.295952 
L 616.38 -311.093619 
L 614.52 -307.795296 
L 612.66 -304.409077 
L 610.8 -300.943064 
L 608.94 -297.405352 
L 607.08 -293.804012 
L 605.22 -290.147085 
L 603.36 -286.442553 
L 601.5 -282.698335 
L 599.64 -278.922272 
L 597.78 -275.122107 
L 595.92 -271.305475 
L 594.06 -267.479895 
L 592.2 -263.652757 
L 590.34 -259.831319 
L 588.48 -256.0227 
L 586.62 -252.233861 
L 584.76 -248.471583 
L 582.9 -244.742459 
L 581.04 -241.052873 
L 579.18 -237.408995 
L 577.32 -233.816773 
L 575.46 -230.281926 
L 573.6 -226.809933 
L 571.74 -223.406034 
L 569.88 -220.075218 
L 568.02 -216.822219 
L 566.16 -213.651514 
L 564.3 -210.567315 
L 562.44 -207.573566 
L 560.58 -204.673945 
L 558.72 -201.871853 
L 556.86 -199.170422 
L 555 -196.572505 
L 553.14 -194.080687 
L 551.28 -191.697277 
L 549.42 -189.424314 
L 547.56 -187.263562 
L 545.7 -185.216521 
L 543.84 -183.284414 
L 541.98 -181.468204 
L 540.12 -179.768585 
L 538.26 -178.185992 
L 536.4 -176.720602 
L 534.54 -175.372342 
L 532.68 -174.140889 
L 530.82 -173.025684 
L 528.96 -172.025929 
L 527.1 -171.140604 
L 525.24 -170.368462 
L 523.38 -169.70805 
L 521.52 -169.157703 
L 519.66 -168.715563 
L 517.8 -168.379581 
L 515.94 -168.147531 
L 514.08 -168.017012 
L 512.22 -167.985463 
L 510.36 -168.050172 
L 508.5 -168.208282 
L 506.64 -168.456804 
L 504.78 -168.792626 
L 502.92 -169.212522 
L 501.06 -169.713164 
L 499.2 -170.291126 
L 497.34 -170.942906 
L 495.48 -171.664918 
L 493.62 -172.453518 
L 491.76 -173.305004 
L 489.9 -174.215628 
L 488.04 -175.181608 
L 486.18 -176.199136 
L 484.32 -177.264384 
L 482.46 -178.373521 
L 480.6 -179.522715 
L 478.74 -180.708146 
L 476.88 -181.926013 
L 475.02 -183.172544 
L 473.16 -184.444003 
L 471.3 -185.7367 
L 469.44 -187.046996 
L 467.58 -188.371313 
L 465.72 -189.706144 
L 463.86 -191.04805 
L 462 -192.393679 
L 460.14 -193.739763 
L 458.28 -195.08313 
L 456.42 -196.420705 
L 454.56 -197.749518 
L 452.7 -199.066708 
L 450.84 -200.369526 
L 448.98 -201.655344 
L 447.12 -202.921651 
L 445.26 -204.166063 
L 443.4 -205.386322 
L 441.54 -206.580301 
L 439.68 -207.746005 
L 437.82 -208.881571 
L 435.96 -209.985274 
L 434.1 -211.055524 
L 432.24 -212.09087 
L 430.38 -213.089995 
L 428.52 -214.051726 
L 426.66 -214.975022 
L 424.8 -215.858981 
L 422.94 -216.702838 
L 421.08 -217.50596 
L 419.22 -218.267848 
L 417.36 -218.988132 
L 415.5 -219.666571 
L 413.64 -220.303048 
L 411.78 -220.897569 
L 409.92 -221.450257 
L 408.06 -221.96135 
L 406.2 -222.431198 
L 404.34 -222.860257 
L 402.48 -223.249087 
L 400.62 -223.598345 
L 398.76 -223.908782 
L 396.9 -224.181238 
L 395.04 -224.416636 
L 393.18 -224.615978 
L 391.32 -224.780341 
L 389.46 -224.910867 
L 387.6 -225.008763 
L 385.74 -225.075292 
L 383.88 -225.111769 
L 382.02 -225.119555 
L 380.16 -225.10005 
L 378.3 -225.054691 
L 376.44 -224.984941 
L 374.58 -224.89229 
L 372.72 -224.778243 
L 370.86 -224.644322 
L 369 -224.492054 
L 367.14 -224.322971 
L 365.28 -224.138602 
L 363.42 -223.940473 
L 361.56 -223.730093 
L 359.7 -223.508958 
L 357.84 -223.27854 
L 355.98 -223.040284 
L 354.12 -222.795603 
L 352.26 -222.545874 
L 350.4 -222.292432 
L 348.54 -222.03657 
L 346.68 -221.779532 
L 344.82 -221.52251 
L 342.96 -221.266642 
L 341.1 -221.01301 
L 339.24 -220.762635 
L 337.38 -220.516476 
L 335.52 -220.275429 
L 333.66 -220.040321 
L 331.8 -219.811914 
L 329.94 -219.590899 
L 328.08 -219.377898 
L 326.22 -219.173462 
L 324.36 -218.978068 
L 322.5 -218.792124 
L 320.64 -218.615964 
L 318.78 -218.449854 
L 316.92 -218.293985 
L 315.06 -218.148484 
L 313.2 -218.013408 
L 311.34 -217.888749 
L 309.48 -217.774436 
L 307.62 -217.670338 
L 305.76 -217.57626 
L 303.9 -217.491952 
L 302.04 -217.417104 
L 300.18 -217.351352 
L 298.32 -217.294281 
L 296.46 -217.245422 
L 294.6 -217.204265 
L 292.74 -217.170253 
L 290.88 -217.142789 
L 289.02 -217.121241 
L 287.16 -217.104944 
L 285.3 -217.093205 
L 283.44 -217.085303 
L 281.58 -217.080501 
L 279.72 -217.078041 
L 277.86 -217.077153 
L 276 -217.077059 
L 274.14 -217.076976 
L 272.28 -217.076121 
L 270.42 -217.073714 
L 268.56 -217.068983 
L 266.7 -217.061167 
L 264.84 -217.049524 
L 262.98 -217.033328 
L 261.12 -217.011879 
L 259.26 -216.984505 
L 257.4 -216.950567 
L 255.54 -216.909461 
L 253.68 -216.860627 
L 251.82 -216.803547 
L 249.96 -216.737754 
L 248.1 -216.662831 
L 246.24 -216.578415 
L 244.38 -216.484199 
L 242.52 -216.379933 
L 240.66 -216.265427 
L 238.8 -216.140552 
L 236.94 -216.005242 
L 235.08 -215.859497 
L 233.22 -215.703383 
L 231.36 -215.537031 
L 229.5 -215.360645 
L 227.64 -215.174497 
L 225.78 -214.978928 
L 223.92 -214.774351 
L 222.06 -214.561248 
L 220.2 -214.340174 
L 218.34 -214.111752 
L 216.48 -213.876673 
L 214.62 -213.635697 
L 212.76 -213.389653 
L 210.9 -213.139431 
L 209.04 -212.885987 
L 207.18 -212.630338 
L 205.32 -212.373559 
L 203.46 -212.116783 
L 201.6 -211.861194 
L 199.74 -211.60803 
L 197.88 -211.358575 
L 196.02 -211.114157 
L 194.16 -210.876145 
L 192.3 -210.645947 
L 190.44 -210.425003 
L 188.58 -210.21478 
L 186.72 -210.016771 
L 184.86 -209.832488 
L 183 -209.663454 
L 181.14 -209.511204 
L 179.28 -209.377274 
L 177.42 -209.263198 
L 175.56 -209.170501 
L 173.7 -209.100697 
L 171.84 -209.05528 
L 169.98 -209.03572 
L 168.12 -209.043457 
L 166.26 -209.079896 
L 164.4 -209.146399 
L 162.54 -209.244282 
L 160.68 -209.374808 
L 158.82 -209.539181 
L 156.96 -209.738542 
L 155.1 -209.973961 
L 153.24 -210.246435 
L 151.38 -210.55688 
L 149.52 -210.906131 
L 147.66 -211.294933 
L 145.8 -211.723942 
L 143.94 -212.193718 
L 142.08 -212.70472 
L 140.22 -213.257302 
L 138.36 -213.85171 
L 136.5 -214.488073 
L 134.64 -215.166404 
L 132.78 -215.886593 
L 130.92 -216.648405 
L 129.06 -217.451476 
L 127.2 -218.295313 
L 125.34 -219.179286 
L 123.48 -220.102633 
L 121.62 -221.06445 
L 119.76 -222.063694 
L 117.9 -223.099176 
L 116.04 -224.169557 
L 114.18 -225.273349 
L 112.32 -226.408912 
L 110.46 -227.574475 
L 108.6 -228.768162 
L 106.74 -229.988009 
L 104.88 -231.231949 
L 103.02 -232.497795 
L 101.16 -233.783233 
L 99.3 -235.085829 
L 97.44 -236.403028 
L 95.58 -237.73216 
L 93.72 -239.070417 
L 91.86 -240.414759 
L 90 -241.761402 
z
" id="m954e404c72" style="stroke:#0173b2;stroke-opacity:0.2;stroke-width:0.8;"/>
    </defs>
    <g clip-path="url(#peb7e0de51a)">
     <use style="fill:#0173b2;fill-opacity:0.2;stroke:#0173b2;stroke-opacity:0.2;stroke-width:0.8;" x="0" xlink:href="#m954e404c72" y="432"/>
    </g>
   </g>
   <g id="line2d_16">
    <defs>
     <path d="M 0 5 
C 1.326016 5 2.597899 4.473168 3.535534 3.535534 
C 4.473168 2.597899 5 1.326016 5 0 
C 5 -1.326016 4.473168 -2.597899 3.535534 -3.535534 
C 2.597899 -4.473168 1.326016 -5 0 -5 
C -1.326016 -5 -2.597899 -4.473168 -3.535534 -3.535534 
C -4.473168 -2.597899 -5 -1.326016 -5 0 
C -5 1.326016 -4.473168 2.597899 -3.535534 3.535534 
C -2.597899 4.473168 -1.326016 5 0 5 
z
" id="mb6e906a15c" style="stroke:#ff0000;"/>
    </defs>
    <g clip-path="url(#peb7e0de51a)">
     <use style="fill:#ff0000;stroke:#ff0000;" x="201.6" xlink:href="#mb6e906a15c" y="220.136335"/>
     <use style="fill:#ff0000;stroke:#ff0000;" x="424.8" xlink:href="#mb6e906a15c" y="216.138516"/>
     <use style="fill:#ff0000;stroke:#ff0000;" x="592.2" xlink:href="#mb6e906a15c" y="168.344757"/>
     <use style="fill:#ff0000;stroke:#ff0000;" x="90" xlink:href="#mb6e906a15c" y="190.23613"/>
     <use style="fill:#ff0000;stroke:#ff0000;" x="313.209318" xlink:href="#mb6e906a15c" y="213.983457"/>
     <use style="fill:#ff0000;stroke:#ff0000;" x="508.091919" xlink:href="#mb6e906a15c" y="263.742324"/>
     <use style="fill:#ff0000;stroke:#ff0000;" x="648" xlink:href="#mb6e906a15c" y="85.844366"/>
     <use style="fill:#ff0000;stroke:#ff0000;" x="143.000664" xlink:href="#mb6e906a15c" y="219.550936"/>
     <use style="fill:#ff0000;stroke:#ff0000;" x="367.27101" xlink:href="#mb6e906a15c" y="207.662155"/>
     <use style="fill:#ff0000;stroke:#ff0000;" x="254.725798" xlink:href="#mb6e906a15c" y="215.108475"/>
     <use style="fill:#ff0000;stroke:#ff0000;" x="553.50235" xlink:href="#mb6e906a15c" y="237.43987"/>
     <use style="fill:#ff0000;stroke:#ff0000;" x="110.563219" xlink:href="#mb6e906a15c" y="204.488486"/>
     <use style="fill:#ff0000;stroke:#ff0000;" x="628.367323" xlink:href="#mb6e906a15c" y="102.299635"/>
     <use style="fill:#ff0000;stroke:#ff0000;" x="463.10156" xlink:href="#mb6e906a15c" y="240.401095"/>
     <use style="fill:#ff0000;stroke:#ff0000;" x="170.739631" xlink:href="#mb6e906a15c" y="222.95705"/>
    </g>
   </g>
   <g id="line2d_17">
    <path clip-path="url(#peb7e0de51a)" d="M 90 190.236128 
L 101.16 198.212553 
L 108.6 203.229146 
L 114.18 206.724157 
L 119.76 209.933249 
L 125.34 212.817291 
L 130.92 215.348233 
L 134.64 216.83046 
L 138.36 218.145455 
L 142.08 219.292748 
L 145.8 220.273762 
L 149.52 221.091699 
L 153.24 221.751405 
L 158.82 222.458545 
L 164.4 222.851197 
L 169.98 222.961822 
L 175.56 222.827086 
L 181.14 222.486497 
L 188.58 221.78306 
L 197.88 220.639136 
L 223.92 217.22211 
L 233.22 216.293235 
L 242.52 215.617199 
L 251.82 215.193988 
L 261.12 214.985388 
L 276 214.919207 
L 292.74 214.826112 
L 302.04 214.579902 
L 311.34 214.108757 
L 320.64 213.381388 
L 329.94 212.405956 
L 341.1 210.983579 
L 361.56 208.267307 
L 369 207.505475 
L 374.58 207.105098 
L 380.16 206.89707 
L 385.74 206.921548 
L 391.32 207.216295 
L 396.9 207.815319 
L 400.62 208.398235 
L 404.34 209.136404 
L 408.06 210.03544 
L 411.78 211.099382 
L 415.5 212.330559 
L 419.22 213.72946 
L 422.94 215.294628 
L 428.52 217.945915 
L 434.1 220.942204 
L 439.68 224.251739 
L 445.26 227.831657 
L 452.7 232.930954 
L 463.86 240.949474 
L 473.16 247.553377 
L 478.74 251.289179 
L 484.32 254.732941 
L 488.04 256.815751 
L 491.76 258.692413 
L 495.48 260.332566 
L 499.2 261.706416 
L 502.92 262.78505 
L 506.64 263.54075 
L 510.36 263.94731 
L 514.08 263.980354 
L 517.8 263.617645 
L 521.52 262.839388 
L 525.24 261.628524 
L 528.96 259.971006 
L 532.68 257.856061 
L 536.4 255.27643 
L 540.12 252.228584 
L 543.84 248.712918 
L 547.56 244.733912 
L 551.28 240.300266 
L 555 235.424993 
L 558.72 230.125489 
L 562.44 224.423553 
L 566.16 218.345382 
L 569.88 211.921515 
L 575.46 201.714774 
L 581.04 190.944093 
L 588.48 175.974805 
L 605.22 141.848528 
L 610.8 131.051946 
L 614.52 124.199739 
L 618.24 117.699532 
L 621.96 111.615944 
L 625.68 106.012879 
L 629.4 100.953013 
L 633.12 96.49727 
L 634.98 94.514379 
L 636.84 92.704313 
L 638.7 91.07397 
L 640.56 89.630041 
L 642.42 88.379001 
L 644.28 87.32709 
L 646.14 86.480302 
L 648 85.844368 
L 648 85.844368 
" style="fill:none;stroke:#0173b2;stroke-linecap:round;stroke-width:3;"/>
   </g>
   <g id="line2d_18">
    <path clip-path="url(#peb7e0de51a)" d="M 90 190.23613 
L 101.16 198.212236 
L 108.6 203.22907 
L 114.18 206.724265 
L 119.76 209.933472 
L 125.34 212.817543 
L 130.92 215.348442 
L 134.64 216.830614 
L 138.36 218.145544 
L 142.08 219.292771 
L 145.8 220.273727 
L 149.52 221.09162 
L 153.24 221.751302 
L 158.82 222.458439 
L 164.4 222.851127 
L 169.98 222.961812 
L 175.56 222.827143 
L 181.14 222.486607 
L 188.58 221.783192 
L 197.88 220.63919 
L 223.92 217.221642 
L 233.22 216.29272 
L 242.52 215.61681 
L 251.82 215.193885 
L 261.12 214.985663 
L 276 214.92 
L 292.74 214.826933 
L 302.04 214.580427 
L 311.34 214.108838 
L 320.64 213.381 
L 329.94 212.405204 
L 341.1 210.982675 
L 361.56 208.267027 
L 369 207.505589 
L 374.58 207.105501 
L 380.16 206.897721 
L 385.74 206.922381 
L 391.32 207.217227 
L 396.9 207.816257 
L 400.62 208.399126 
L 404.34 209.13721 
L 408.06 210.036128 
L 411.78 211.099926 
L 415.5 212.330942 
L 419.22 213.729673 
L 422.94 215.294672 
L 428.52 217.945729 
L 434.1 220.941841 
L 439.68 224.251277 
L 445.26 227.831186 
L 452.7 232.930612 
L 463.86 240.949553 
L 473.16 247.553861 
L 478.74 251.28985 
L 484.32 254.733714 
L 488.04 256.816533 
L 491.76 258.693149 
L 495.48 260.333203 
L 499.2 261.706903 
L 502.92 262.785342 
L 506.64 263.540811 
L 510.36 263.947117 
L 514.08 263.9799 
L 517.8 263.616939 
L 521.52 262.838459 
L 525.24 261.627418 
L 528.96 259.969784 
L 532.68 257.854798 
L 536.4 255.27521 
L 540.12 252.227495 
L 543.84 248.712048 
L 547.56 244.733341 
L 551.28 240.300056 
L 555 235.425186 
L 558.72 230.126098 
L 562.44 224.424562 
L 566.16 218.346738 
L 569.88 211.92313 
L 575.46 201.716539 
L 581.04 190.945647 
L 588.48 175.975467 
L 605.22 141.84578 
L 610.8 131.048482 
L 614.52 124.196195 
L 618.24 117.696325 
L 621.96 111.61354 
L 625.68 106.011738 
L 629.4 100.953498 
L 633.12 96.499535 
L 634.98 94.517482 
L 636.84 92.708137 
L 638.7 91.078318 
L 640.56 89.634621 
L 642.42 88.383407 
L 644.28 87.330783 
L 646.14 86.482586 
L 648 85.844366 
L 648 85.844366 
" style="fill:none;stroke:#000000;stroke-linecap:round;stroke-width:2;"/>
   </g>
   <g id="patch_3">
    <path d="M 90 378 
L 90 51.84 
" style="fill:none;stroke:#ffffff;stroke-linecap:square;stroke-linejoin:miter;"/>
   </g>
   <g id="patch_4">
    <path d="M 648 378 
L 648 51.84 
" style="fill:none;stroke:#ffffff;stroke-linecap:square;stroke-linejoin:miter;"/>
   </g>
   <g id="patch_5">
    <path d="M 90 378 
L 648 378 
" style="fill:none;stroke:#ffffff;stroke-linecap:square;stroke-linejoin:miter;"/>
   </g>
   <g id="patch_6">
    <path d="M 90 51.84 
L 648 51.84 
" style="fill:none;stroke:#ffffff;stroke-linecap:square;stroke-linejoin:miter;"/>
   </g>
   <g id="legend_1">
    <g id="patch_7">
     <path d="M 96.16 96.434 
L 180.0845 96.434 
Q 181.8445 96.434 181.8445 94.674 
L 181.8445 58 
Q 181.8445 56.24 180.0845 56.24 
L 96.16 56.24 
Q 94.4 56.24 94.4 58 
L 94.4 94.674 
Q 94.4 96.434 96.16 96.434 
z
" style="fill:#eaeaf2;opacity:0.8;stroke:#cccccc;stroke-linejoin:miter;stroke-width:0.8;"/>
    </g>
    <g id="line2d_19"/>
    <g id="line2d_20">
     <g>
      <use style="fill:#ff0000;stroke:#ff0000;" x="106.72" xlink:href="#mb6e906a15c" y="62.978875"/>
     </g>
    </g>
    <g id="text_18">
     <!-- Observations -->
     <defs>
      <path d="M 4.828125 34.859375 
Q 4.828125 52.6875 14.390625 62.765625 
Q 23.96875 72.859375 39.109375 72.859375 
Q 49.03125 72.859375 56.984375 68.109375 
Q 64.9375 63.375 69.109375 54.90625 
Q 73.296875 46.4375 73.296875 35.6875 
Q 73.296875 24.8125 68.890625 16.21875 
Q 64.5 7.625 56.4375 3.203125 
Q 48.390625 -1.21875 39.0625 -1.21875 
Q 28.953125 -1.21875 20.984375 3.65625 
Q 13.03125 8.546875 8.921875 16.984375 
Q 4.828125 25.4375 4.828125 34.859375 
z
M 14.59375 34.71875 
Q 14.59375 21.78125 21.546875 14.328125 
Q 28.515625 6.890625 39.015625 6.890625 
Q 49.703125 6.890625 56.609375 14.40625 
Q 63.53125 21.921875 63.53125 35.75 
Q 63.53125 44.484375 60.578125 51 
Q 57.625 57.515625 51.921875 61.109375 
Q 46.234375 64.703125 39.15625 64.703125 
Q 29.109375 64.703125 21.84375 57.78125 
Q 14.59375 50.875 14.59375 34.71875 
z
" id="ArialMT-79"/>
      <path d="M 14.703125 0 
L 6.546875 0 
L 6.546875 71.578125 
L 15.328125 71.578125 
L 15.328125 46.046875 
Q 20.90625 53.03125 29.546875 53.03125 
Q 34.328125 53.03125 38.59375 51.09375 
Q 42.875 49.171875 45.625 45.671875 
Q 48.390625 42.1875 49.953125 37.25 
Q 51.515625 32.328125 51.515625 26.703125 
Q 51.515625 13.375 44.921875 6.09375 
Q 38.328125 -1.171875 29.109375 -1.171875 
Q 19.921875 -1.171875 14.703125 6.5 
z
M 14.59375 26.3125 
Q 14.59375 17 17.140625 12.84375 
Q 21.296875 6.0625 28.375 6.0625 
Q 34.125 6.0625 38.328125 11.0625 
Q 42.53125 16.0625 42.53125 25.984375 
Q 42.53125 36.140625 38.5 40.96875 
Q 34.46875 45.796875 28.765625 45.796875 
Q 23 45.796875 18.796875 40.796875 
Q 14.59375 35.796875 14.59375 26.3125 
z
" id="ArialMT-98"/>
      <path d="M 3.078125 15.484375 
L 11.765625 16.84375 
Q 12.5 11.625 15.84375 8.84375 
Q 19.1875 6.0625 25.203125 6.0625 
Q 31.25 6.0625 34.171875 8.515625 
Q 37.109375 10.984375 37.109375 14.3125 
Q 37.109375 17.28125 34.515625 19 
Q 32.71875 20.171875 25.53125 21.96875 
Q 15.875 24.421875 12.140625 26.203125 
Q 8.40625 27.984375 6.46875 31.125 
Q 4.546875 34.28125 4.546875 38.09375 
Q 4.546875 41.546875 6.125 44.5 
Q 7.71875 47.46875 10.453125 49.421875 
Q 12.5 50.921875 16.03125 51.96875 
Q 19.578125 53.03125 23.640625 53.03125 
Q 29.734375 53.03125 34.34375 51.265625 
Q 38.96875 49.515625 41.15625 46.5 
Q 43.359375 43.5 44.1875 38.484375 
L 35.59375 37.3125 
Q 35.015625 41.3125 32.203125 43.546875 
Q 29.390625 45.796875 24.265625 45.796875 
Q 18.21875 45.796875 15.625 43.796875 
Q 13.03125 41.796875 13.03125 39.109375 
Q 13.03125 37.40625 14.109375 36.03125 
Q 15.1875 34.625 17.484375 33.6875 
Q 18.796875 33.203125 25.25 31.453125 
Q 34.578125 28.953125 38.25 27.359375 
Q 41.9375 25.78125 44.03125 22.75 
Q 46.140625 19.734375 46.140625 15.234375 
Q 46.140625 10.84375 43.578125 6.953125 
Q 41.015625 3.078125 36.171875 0.953125 
Q 31.34375 -1.171875 25.25 -1.171875 
Q 15.140625 -1.171875 9.84375 3.03125 
Q 4.546875 7.234375 3.078125 15.484375 
z
" id="ArialMT-115"/>
      <path d="M 42.09375 16.703125 
L 51.171875 15.578125 
Q 49.03125 7.625 43.21875 3.21875 
Q 37.40625 -1.171875 28.375 -1.171875 
Q 17 -1.171875 10.328125 5.828125 
Q 3.65625 12.84375 3.65625 25.484375 
Q 3.65625 38.578125 10.390625 45.796875 
Q 17.140625 53.03125 27.875 53.03125 
Q 38.28125 53.03125 44.875 45.953125 
Q 51.46875 38.875 51.46875 26.03125 
Q 51.46875 25.25 51.421875 23.6875 
L 12.75 23.6875 
Q 13.234375 15.140625 17.578125 10.59375 
Q 21.921875 6.0625 28.421875 6.0625 
Q 33.25 6.0625 36.671875 8.59375 
Q 40.09375 11.140625 42.09375 16.703125 
z
M 13.234375 30.90625 
L 42.1875 30.90625 
Q 41.609375 37.453125 38.875 40.71875 
Q 34.671875 45.796875 27.984375 45.796875 
Q 21.921875 45.796875 17.796875 41.75 
Q 13.671875 37.703125 13.234375 30.90625 
z
" id="ArialMT-101"/>
      <path d="M 6.5 0 
L 6.5 51.859375 
L 14.40625 51.859375 
L 14.40625 44 
Q 17.4375 49.515625 20 51.265625 
Q 22.5625 53.03125 25.640625 53.03125 
Q 30.078125 53.03125 34.671875 50.203125 
L 31.640625 42.046875 
Q 28.421875 43.953125 25.203125 43.953125 
Q 22.3125 43.953125 20.015625 42.21875 
Q 17.71875 40.484375 16.75 37.40625 
Q 15.28125 32.71875 15.28125 27.15625 
L 15.28125 0 
z
" id="ArialMT-114"/>
      <path d="M 21 0 
L 1.265625 51.859375 
L 10.546875 51.859375 
L 21.6875 20.796875 
Q 23.484375 15.765625 25 10.359375 
Q 26.171875 14.453125 28.265625 20.21875 
L 39.796875 51.859375 
L 48.828125 51.859375 
L 29.203125 0 
z
" id="ArialMT-118"/>
      <path d="M 40.4375 6.390625 
Q 35.546875 2.25 31.03125 0.53125 
Q 26.515625 -1.171875 21.34375 -1.171875 
Q 12.796875 -1.171875 8.203125 3 
Q 3.609375 7.171875 3.609375 13.671875 
Q 3.609375 17.484375 5.34375 20.625 
Q 7.078125 23.78125 9.890625 25.6875 
Q 12.703125 27.59375 16.21875 28.5625 
Q 18.796875 29.25 24.03125 29.890625 
Q 34.671875 31.15625 39.703125 32.90625 
Q 39.75 34.71875 39.75 35.203125 
Q 39.75 40.578125 37.25 42.78125 
Q 33.890625 45.75 27.25 45.75 
Q 21.046875 45.75 18.09375 43.578125 
Q 15.140625 41.40625 13.71875 35.890625 
L 5.125 37.0625 
Q 6.296875 42.578125 8.984375 45.96875 
Q 11.671875 49.359375 16.75 51.1875 
Q 21.828125 53.03125 28.515625 53.03125 
Q 35.15625 53.03125 39.296875 51.46875 
Q 43.453125 49.90625 45.40625 47.53125 
Q 47.359375 45.171875 48.140625 41.546875 
Q 48.578125 39.3125 48.578125 33.453125 
L 48.578125 21.734375 
Q 48.578125 9.46875 49.140625 6.21875 
Q 49.703125 2.984375 51.375 0 
L 42.1875 0 
Q 40.828125 2.734375 40.4375 6.390625 
z
M 39.703125 26.03125 
Q 34.90625 24.078125 25.34375 22.703125 
Q 19.921875 21.921875 17.671875 20.9375 
Q 15.4375 19.96875 14.203125 18.09375 
Q 12.984375 16.21875 12.984375 13.921875 
Q 12.984375 10.40625 15.640625 8.0625 
Q 18.3125 5.71875 23.4375 5.71875 
Q 28.515625 5.71875 32.46875 7.9375 
Q 36.421875 10.15625 38.28125 14.015625 
Q 39.703125 17 39.703125 22.796875 
z
" id="ArialMT-97"/>
      <path d="M 25.78125 7.859375 
L 27.046875 0.09375 
Q 23.34375 -0.6875 20.40625 -0.6875 
Q 15.625 -0.6875 12.984375 0.828125 
Q 10.359375 2.34375 9.28125 4.8125 
Q 8.203125 7.28125 8.203125 15.1875 
L 8.203125 45.015625 
L 1.765625 45.015625 
L 1.765625 51.859375 
L 8.203125 51.859375 
L 8.203125 64.703125 
L 16.9375 69.96875 
L 16.9375 51.859375 
L 25.78125 51.859375 
L 25.78125 45.015625 
L 16.9375 45.015625 
L 16.9375 14.703125 
Q 16.9375 10.9375 17.40625 9.859375 
Q 17.875 8.796875 18.921875 8.15625 
Q 19.96875 7.515625 21.921875 7.515625 
Q 23.390625 7.515625 25.78125 7.859375 
z
" id="ArialMT-116"/>
      <path d="M 6.640625 61.46875 
L 6.640625 71.578125 
L 15.4375 71.578125 
L 15.4375 61.46875 
z
M 6.640625 0 
L 6.640625 51.859375 
L 15.4375 51.859375 
L 15.4375 0 
z
" id="ArialMT-105"/>
      <path d="M 3.328125 25.921875 
Q 3.328125 40.328125 11.328125 47.265625 
Q 18.015625 53.03125 27.640625 53.03125 
Q 38.328125 53.03125 45.109375 46.015625 
Q 51.90625 39.015625 51.90625 26.65625 
Q 51.90625 16.65625 48.90625 10.90625 
Q 45.90625 5.171875 40.15625 2 
Q 34.421875 -1.171875 27.640625 -1.171875 
Q 16.75 -1.171875 10.03125 5.8125 
Q 3.328125 12.796875 3.328125 25.921875 
z
M 12.359375 25.921875 
Q 12.359375 15.96875 16.703125 11.015625 
Q 21.046875 6.0625 27.640625 6.0625 
Q 34.1875 6.0625 38.53125 11.03125 
Q 42.875 16.015625 42.875 26.21875 
Q 42.875 35.84375 38.5 40.796875 
Q 34.125 45.75 27.640625 45.75 
Q 21.046875 45.75 16.703125 40.8125 
Q 12.359375 35.890625 12.359375 25.921875 
z
" id="ArialMT-111"/>
      <path d="M 6.59375 0 
L 6.59375 51.859375 
L 14.5 51.859375 
L 14.5 44.484375 
Q 20.21875 53.03125 31 53.03125 
Q 35.6875 53.03125 39.625 51.34375 
Q 43.5625 49.65625 45.515625 46.921875 
Q 47.46875 44.1875 48.25 40.4375 
Q 48.734375 37.984375 48.734375 31.890625 
L 48.734375 0 
L 39.9375 0 
L 39.9375 31.546875 
Q 39.9375 36.921875 38.90625 39.578125 
Q 37.890625 42.234375 35.28125 43.8125 
Q 32.671875 45.40625 29.15625 45.40625 
Q 23.53125 45.40625 19.453125 41.84375 
Q 15.375 38.28125 15.375 28.328125 
L 15.375 0 
z
" id="ArialMT-110"/>
     </defs>
     <g style="fill:#262626;" transform="translate(122.56 66.058875)scale(0.088 -0.088)">
      <use xlink:href="#ArialMT-79"/>
      <use x="77.783203" xlink:href="#ArialMT-98"/>
      <use x="133.398438" xlink:href="#ArialMT-115"/>
      <use x="183.398438" xlink:href="#ArialMT-101"/>
      <use x="239.013672" xlink:href="#ArialMT-114"/>
      <use x="272.314453" xlink:href="#ArialMT-118"/>
      <use x="322.314453" xlink:href="#ArialMT-97"/>
      <use x="377.929688" xlink:href="#ArialMT-116"/>
      <use x="405.712891" xlink:href="#ArialMT-105"/>
      <use x="427.929688" xlink:href="#ArialMT-111"/>
      <use x="483.544922" xlink:href="#ArialMT-110"/>
      <use x="539.160156" xlink:href="#ArialMT-115"/>
     </g>
    </g>
    <g id="line2d_21">
     <path d="M 97.92 75.42675 
L 115.52 75.42675 
" style="fill:none;stroke:#0173b2;stroke-linecap:round;stroke-width:3;"/>
    </g>
    <g id="line2d_22"/>
    <g id="text_19">
     <!-- model -->
     <defs>
      <path d="M 6.59375 0 
L 6.59375 51.859375 
L 14.453125 51.859375 
L 14.453125 44.578125 
Q 16.890625 48.390625 20.9375 50.703125 
Q 25 53.03125 30.171875 53.03125 
Q 35.9375 53.03125 39.625 50.640625 
Q 43.3125 48.25 44.828125 43.953125 
Q 50.984375 53.03125 60.84375 53.03125 
Q 68.5625 53.03125 72.703125 48.75 
Q 76.859375 44.484375 76.859375 35.59375 
L 76.859375 0 
L 68.109375 0 
L 68.109375 32.671875 
Q 68.109375 37.9375 67.25 40.25 
Q 66.40625 42.578125 64.15625 43.984375 
Q 61.921875 45.40625 58.890625 45.40625 
Q 53.421875 45.40625 49.796875 41.765625 
Q 46.1875 38.140625 46.1875 30.125 
L 46.1875 0 
L 37.40625 0 
L 37.40625 33.6875 
Q 37.40625 39.546875 35.25 42.46875 
Q 33.109375 45.40625 28.21875 45.40625 
Q 24.515625 45.40625 21.359375 43.453125 
Q 18.21875 41.5 16.796875 37.734375 
Q 15.375 33.984375 15.375 26.90625 
L 15.375 0 
z
" id="ArialMT-109"/>
      <path d="M 40.234375 0 
L 40.234375 6.546875 
Q 35.296875 -1.171875 25.734375 -1.171875 
Q 19.53125 -1.171875 14.328125 2.25 
Q 9.125 5.671875 6.265625 11.796875 
Q 3.421875 17.921875 3.421875 25.875 
Q 3.421875 33.640625 6 39.96875 
Q 8.59375 46.296875 13.765625 49.65625 
Q 18.953125 53.03125 25.34375 53.03125 
Q 30.03125 53.03125 33.6875 51.046875 
Q 37.359375 49.078125 39.65625 45.90625 
L 39.65625 71.578125 
L 48.390625 71.578125 
L 48.390625 0 
z
M 12.453125 25.875 
Q 12.453125 15.921875 16.640625 10.984375 
Q 20.84375 6.0625 26.5625 6.0625 
Q 32.328125 6.0625 36.34375 10.765625 
Q 40.375 15.484375 40.375 25.140625 
Q 40.375 35.796875 36.265625 40.765625 
Q 32.171875 45.75 26.171875 45.75 
Q 20.3125 45.75 16.375 40.96875 
Q 12.453125 36.1875 12.453125 25.875 
z
" id="ArialMT-100"/>
      <path d="M 6.390625 0 
L 6.390625 71.578125 
L 15.1875 71.578125 
L 15.1875 0 
z
" id="ArialMT-108"/>
     </defs>
     <g style="fill:#262626;" transform="translate(122.56 78.50675)scale(0.088 -0.088)">
      <use xlink:href="#ArialMT-109"/>
      <use x="83.300781" xlink:href="#ArialMT-111"/>
      <use x="138.916016" xlink:href="#ArialMT-100"/>
      <use x="194.53125" xlink:href="#ArialMT-101"/>
      <use x="250.146484" xlink:href="#ArialMT-108"/>
     </g>
    </g>
    <g id="line2d_23">
     <path d="M 97.92 87.981875 
L 115.52 87.981875 
" style="fill:none;stroke:#000000;stroke-linecap:round;stroke-width:2;"/>
    </g>
    <g id="line2d_24"/>
    <g id="text_20">
     <!-- target function -->
     <defs>
      <path d="M 4.984375 -4.296875 
L 13.53125 -5.5625 
Q 14.0625 -9.515625 16.5 -11.328125 
Q 19.78125 -13.765625 25.4375 -13.765625 
Q 31.546875 -13.765625 34.859375 -11.328125 
Q 38.1875 -8.890625 39.359375 -4.5 
Q 40.046875 -1.8125 39.984375 6.78125 
Q 34.234375 0 25.640625 0 
Q 14.9375 0 9.078125 7.71875 
Q 3.21875 15.4375 3.21875 26.21875 
Q 3.21875 33.640625 5.90625 39.90625 
Q 8.59375 46.1875 13.6875 49.609375 
Q 18.796875 53.03125 25.6875 53.03125 
Q 34.859375 53.03125 40.828125 45.609375 
L 40.828125 51.859375 
L 48.921875 51.859375 
L 48.921875 7.03125 
Q 48.921875 -5.078125 46.453125 -10.125 
Q 44 -15.1875 38.640625 -18.109375 
Q 33.296875 -21.046875 25.484375 -21.046875 
Q 16.21875 -21.046875 10.5 -16.875 
Q 4.78125 -12.703125 4.984375 -4.296875 
z
M 12.25 26.859375 
Q 12.25 16.65625 16.296875 11.96875 
Q 20.359375 7.28125 26.46875 7.28125 
Q 32.515625 7.28125 36.609375 11.9375 
Q 40.71875 16.609375 40.71875 26.5625 
Q 40.71875 36.078125 36.5 40.90625 
Q 32.28125 45.75 26.3125 45.75 
Q 20.453125 45.75 16.34375 40.984375 
Q 12.25 36.234375 12.25 26.859375 
z
" id="ArialMT-103"/>
      <path id="ArialMT-32"/>
      <path d="M 8.6875 0 
L 8.6875 45.015625 
L 0.921875 45.015625 
L 0.921875 51.859375 
L 8.6875 51.859375 
L 8.6875 57.375 
Q 8.6875 62.59375 9.625 65.140625 
Q 10.890625 68.5625 14.078125 70.671875 
Q 17.28125 72.796875 23.046875 72.796875 
Q 26.765625 72.796875 31.25 71.921875 
L 29.9375 64.265625 
Q 27.203125 64.75 24.75 64.75 
Q 20.75 64.75 19.09375 63.03125 
Q 17.4375 61.328125 17.4375 56.640625 
L 17.4375 51.859375 
L 27.546875 51.859375 
L 27.546875 45.015625 
L 17.4375 45.015625 
L 17.4375 0 
z
" id="ArialMT-102"/>
      <path d="M 40.578125 0 
L 40.578125 7.625 
Q 34.515625 -1.171875 24.125 -1.171875 
Q 19.53125 -1.171875 15.546875 0.578125 
Q 11.578125 2.34375 9.640625 5 
Q 7.71875 7.671875 6.9375 11.53125 
Q 6.390625 14.109375 6.390625 19.734375 
L 6.390625 51.859375 
L 15.1875 51.859375 
L 15.1875 23.09375 
Q 15.1875 16.21875 15.71875 13.8125 
Q 16.546875 10.359375 19.234375 8.375 
Q 21.921875 6.390625 25.875 6.390625 
Q 29.828125 6.390625 33.296875 8.421875 
Q 36.765625 10.453125 38.203125 13.9375 
Q 39.65625 17.4375 39.65625 24.078125 
L 39.65625 51.859375 
L 48.4375 51.859375 
L 48.4375 0 
z
" id="ArialMT-117"/>
      <path d="M 40.4375 19 
L 49.078125 17.875 
Q 47.65625 8.9375 41.8125 3.875 
Q 35.984375 -1.171875 27.484375 -1.171875 
Q 16.84375 -1.171875 10.375 5.78125 
Q 3.90625 12.75 3.90625 25.734375 
Q 3.90625 34.125 6.6875 40.421875 
Q 9.46875 46.734375 15.15625 49.875 
Q 20.84375 53.03125 27.546875 53.03125 
Q 35.984375 53.03125 41.359375 48.75 
Q 46.734375 44.484375 48.25 36.625 
L 39.703125 35.296875 
Q 38.484375 40.53125 35.375 43.15625 
Q 32.28125 45.796875 27.875 45.796875 
Q 21.234375 45.796875 17.078125 41.03125 
Q 12.9375 36.28125 12.9375 25.984375 
Q 12.9375 15.53125 16.9375 10.796875 
Q 20.953125 6.0625 27.390625 6.0625 
Q 32.5625 6.0625 36.03125 9.234375 
Q 39.5 12.40625 40.4375 19 
z
" id="ArialMT-99"/>
     </defs>
     <g style="fill:#262626;" transform="translate(122.56 91.061875)scale(0.088 -0.088)">
      <use xlink:href="#ArialMT-116"/>
      <use x="27.783203" xlink:href="#ArialMT-97"/>
      <use x="83.398438" xlink:href="#ArialMT-114"/>
      <use x="116.699219" xlink:href="#ArialMT-103"/>
      <use x="172.314453" xlink:href="#ArialMT-101"/>
      <use x="227.929688" xlink:href="#ArialMT-116"/>
      <use x="255.712891" xlink:href="#ArialMT-32"/>
      <use x="283.496094" xlink:href="#ArialMT-102"/>
      <use x="311.279297" xlink:href="#ArialMT-117"/>
      <use x="366.894531" xlink:href="#ArialMT-110"/>
      <use x="422.509766" xlink:href="#ArialMT-99"/>
      <use x="472.509766" xlink:href="#ArialMT-116"/>
      <use x="500.292969" xlink:href="#ArialMT-105"/>
      <use x="522.509766" xlink:href="#ArialMT-111"/>
      <use x="578.125" xlink:href="#ArialMT-110"/>
     </g>
    </g>
   </g>
  </g>
 </g>
 <defs>
  <clipPath id="peb7e0de51a">
   <rect height="326.16" width="558" x="90" y="51.84"/>
  </clipPath>
 </defs>
</svg>
