<?xml version="1.0" encoding="utf-8" standalone="no"?>
<!DOCTYPE svg PUBLIC "-//W3C//DTD SVG 1.1//EN"
  "http://www.w3.org/Graphics/SVG/1.1/DTD/svg11.dtd">
<!-- Created with matplotlib (https://matplotlib.org/) -->
<svg height="432pt" version="1.1" viewBox="0 0 720 432" width="720pt" xmlns="http://www.w3.org/2000/svg" xmlns:xlink="http://www.w3.org/1999/xlink">
 <defs>
  <style type="text/css">
*{stroke-linecap:butt;stroke-linejoin:round;}
  </style>
 </defs>
 <g id="figure_1">
  <g id="patch_1">
   <path d="M 0 432 
L 720 432 
L 720 0 
L 0 0 
z
" style="fill:none;"/>
  </g>
  <g id="axes_1">
   <g id="patch_2">
    <path d="M 90 378 
L 648 378 
L 648 51.84 
L 90 51.84 
z
" style="fill:none;"/>
   </g>
   <g id="matplotlib.axis_1">
    <g id="xtick_1">
     <g id="line2d_1">
      <path clip-path="url(#pfe83c1ea5c)" d="M 95.524752 378 
L 95.524752 51.84 
" style="fill:none;stroke:#ffffff;stroke-linecap:round;stroke-width:0.8;"/>
     </g>
     <g id="text_1">
      <!-- 0.0 -->
      <defs>
       <path d="M 4.15625 35.296875 
Q 4.15625 48 6.765625 55.734375 
Q 9.375 63.484375 14.515625 67.671875 
Q 19.671875 71.875 27.484375 71.875 
Q 33.25 71.875 37.59375 69.546875 
Q 41.9375 67.234375 44.765625 62.859375 
Q 47.609375 58.5 49.21875 52.21875 
Q 50.828125 45.953125 50.828125 35.296875 
Q 50.828125 22.703125 48.234375 14.96875 
Q 45.65625 7.234375 40.5 3 
Q 35.359375 -1.21875 27.484375 -1.21875 
Q 17.140625 -1.21875 11.234375 6.203125 
Q 4.15625 15.140625 4.15625 35.296875 
z
M 13.1875 35.296875 
Q 13.1875 17.671875 17.3125 11.828125 
Q 21.4375 6 27.484375 6 
Q 33.546875 6 37.671875 11.859375 
Q 41.796875 17.71875 41.796875 35.296875 
Q 41.796875 52.984375 37.671875 58.78125 
Q 33.546875 64.59375 27.390625 64.59375 
Q 21.34375 64.59375 17.71875 59.46875 
Q 13.1875 52.9375 13.1875 35.296875 
z
" id="ArialMT-48"/>
       <path d="M 9.078125 0 
L 9.078125 10.015625 
L 19.09375 10.015625 
L 19.09375 0 
z
" id="ArialMT-46"/>
      </defs>
      <g style="fill:#262626;" transform="translate(89.408752 392.598875)scale(0.088 -0.088)">
       <use xlink:href="#ArialMT-48"/>
       <use x="55.615234" xlink:href="#ArialMT-46"/>
       <use x="83.398438" xlink:href="#ArialMT-48"/>
      </g>
     </g>
    </g>
    <g id="xtick_2">
     <g id="line2d_2">
      <path clip-path="url(#pfe83c1ea5c)" d="M 206.019802 378 
L 206.019802 51.84 
" style="fill:none;stroke:#ffffff;stroke-linecap:round;stroke-width:0.8;"/>
     </g>
     <g id="text_2">
      <!-- 0.2 -->
      <defs>
       <path d="M 50.34375 8.453125 
L 50.34375 0 
L 3.03125 0 
Q 2.9375 3.171875 4.046875 6.109375 
Q 5.859375 10.9375 9.828125 15.625 
Q 13.8125 20.3125 21.34375 26.46875 
Q 33.015625 36.03125 37.109375 41.625 
Q 41.21875 47.21875 41.21875 52.203125 
Q 41.21875 57.421875 37.46875 61 
Q 33.734375 64.59375 27.734375 64.59375 
Q 21.390625 64.59375 17.578125 60.78125 
Q 13.765625 56.984375 13.71875 50.25 
L 4.6875 51.171875 
Q 5.609375 61.28125 11.65625 66.578125 
Q 17.71875 71.875 27.9375 71.875 
Q 38.234375 71.875 44.234375 66.15625 
Q 50.25 60.453125 50.25 52 
Q 50.25 47.703125 48.484375 43.546875 
Q 46.734375 39.40625 42.65625 34.8125 
Q 38.578125 30.21875 29.109375 22.21875 
Q 21.1875 15.578125 18.9375 13.203125 
Q 16.703125 10.84375 15.234375 8.453125 
z
" id="ArialMT-50"/>
      </defs>
      <g style="fill:#262626;" transform="translate(199.903802 392.598875)scale(0.088 -0.088)">
       <use xlink:href="#ArialMT-48"/>
       <use x="55.615234" xlink:href="#ArialMT-46"/>
       <use x="83.398438" xlink:href="#ArialMT-50"/>
      </g>
     </g>
    </g>
    <g id="xtick_3">
     <g id="line2d_3">
      <path clip-path="url(#pfe83c1ea5c)" d="M 316.514851 378 
L 316.514851 51.84 
" style="fill:none;stroke:#ffffff;stroke-linecap:round;stroke-width:0.8;"/>
     </g>
     <g id="text_3">
      <!-- 0.4 -->
      <defs>
       <path d="M 32.328125 0 
L 32.328125 17.140625 
L 1.265625 17.140625 
L 1.265625 25.203125 
L 33.9375 71.578125 
L 41.109375 71.578125 
L 41.109375 25.203125 
L 50.78125 25.203125 
L 50.78125 17.140625 
L 41.109375 17.140625 
L 41.109375 0 
z
M 32.328125 25.203125 
L 32.328125 57.46875 
L 9.90625 25.203125 
z
" id="ArialMT-52"/>
      </defs>
      <g style="fill:#262626;" transform="translate(310.398851 392.598875)scale(0.088 -0.088)">
       <use xlink:href="#ArialMT-48"/>
       <use x="55.615234" xlink:href="#ArialMT-46"/>
       <use x="83.398438" xlink:href="#ArialMT-52"/>
      </g>
     </g>
    </g>
    <g id="xtick_4">
     <g id="line2d_4">
      <path clip-path="url(#pfe83c1ea5c)" d="M 427.009901 378 
L 427.009901 51.84 
" style="fill:none;stroke:#ffffff;stroke-linecap:round;stroke-width:0.8;"/>
     </g>
     <g id="text_4">
      <!-- 0.6 -->
      <defs>
       <path d="M 49.75 54.046875 
L 41.015625 53.375 
Q 39.84375 58.546875 37.703125 60.890625 
Q 34.125 64.65625 28.90625 64.65625 
Q 24.703125 64.65625 21.53125 62.3125 
Q 17.390625 59.28125 14.984375 53.46875 
Q 12.59375 47.65625 12.5 36.921875 
Q 15.671875 41.75 20.265625 44.09375 
Q 24.859375 46.4375 29.890625 46.4375 
Q 38.671875 46.4375 44.84375 39.96875 
Q 51.03125 33.5 51.03125 23.25 
Q 51.03125 16.5 48.125 10.71875 
Q 45.21875 4.9375 40.140625 1.859375 
Q 35.0625 -1.21875 28.609375 -1.21875 
Q 17.625 -1.21875 10.6875 6.859375 
Q 3.765625 14.9375 3.765625 33.5 
Q 3.765625 54.25 11.421875 63.671875 
Q 18.109375 71.875 29.4375 71.875 
Q 37.890625 71.875 43.28125 67.140625 
Q 48.6875 62.40625 49.75 54.046875 
z
M 13.875 23.1875 
Q 13.875 18.65625 15.796875 14.5 
Q 17.71875 10.359375 21.1875 8.171875 
Q 24.65625 6 28.46875 6 
Q 34.03125 6 38.03125 10.484375 
Q 42.046875 14.984375 42.046875 22.703125 
Q 42.046875 30.125 38.078125 34.390625 
Q 34.125 38.671875 28.125 38.671875 
Q 22.171875 38.671875 18.015625 34.390625 
Q 13.875 30.125 13.875 23.1875 
z
" id="ArialMT-54"/>
      </defs>
      <g style="fill:#262626;" transform="translate(420.893901 392.598875)scale(0.088 -0.088)">
       <use xlink:href="#ArialMT-48"/>
       <use x="55.615234" xlink:href="#ArialMT-46"/>
       <use x="83.398438" xlink:href="#ArialMT-54"/>
      </g>
     </g>
    </g>
    <g id="xtick_5">
     <g id="line2d_5">
      <path clip-path="url(#pfe83c1ea5c)" d="M 537.50495 378 
L 537.50495 51.84 
" style="fill:none;stroke:#ffffff;stroke-linecap:round;stroke-width:0.8;"/>
     </g>
     <g id="text_5">
      <!-- 0.8 -->
      <defs>
       <path d="M 17.671875 38.8125 
Q 12.203125 40.828125 9.5625 44.53125 
Q 6.9375 48.25 6.9375 53.421875 
Q 6.9375 61.234375 12.546875 66.546875 
Q 18.171875 71.875 27.484375 71.875 
Q 36.859375 71.875 42.578125 66.421875 
Q 48.296875 60.984375 48.296875 53.171875 
Q 48.296875 48.1875 45.671875 44.5 
Q 43.0625 40.828125 37.75 38.8125 
Q 44.34375 36.671875 47.78125 31.875 
Q 51.21875 27.09375 51.21875 20.453125 
Q 51.21875 11.28125 44.71875 5.03125 
Q 38.234375 -1.21875 27.640625 -1.21875 
Q 17.046875 -1.21875 10.546875 5.046875 
Q 4.046875 11.328125 4.046875 20.703125 
Q 4.046875 27.6875 7.59375 32.390625 
Q 11.140625 37.109375 17.671875 38.8125 
z
M 15.921875 53.71875 
Q 15.921875 48.640625 19.1875 45.40625 
Q 22.46875 42.1875 27.6875 42.1875 
Q 32.765625 42.1875 36.015625 45.375 
Q 39.265625 48.578125 39.265625 53.21875 
Q 39.265625 58.0625 35.90625 61.359375 
Q 32.5625 64.65625 27.59375 64.65625 
Q 22.5625 64.65625 19.234375 61.421875 
Q 15.921875 58.203125 15.921875 53.71875 
z
M 13.09375 20.65625 
Q 13.09375 16.890625 14.875 13.375 
Q 16.65625 9.859375 20.171875 7.921875 
Q 23.6875 6 27.734375 6 
Q 34.03125 6 38.125 10.046875 
Q 42.234375 14.109375 42.234375 20.359375 
Q 42.234375 26.703125 38.015625 30.859375 
Q 33.796875 35.015625 27.4375 35.015625 
Q 21.234375 35.015625 17.15625 30.90625 
Q 13.09375 26.8125 13.09375 20.65625 
z
" id="ArialMT-56"/>
      </defs>
      <g style="fill:#262626;" transform="translate(531.38895 392.598875)scale(0.088 -0.088)">
       <use xlink:href="#ArialMT-48"/>
       <use x="55.615234" xlink:href="#ArialMT-46"/>
       <use x="83.398438" xlink:href="#ArialMT-56"/>
      </g>
     </g>
    </g>
    <g id="xtick_6">
     <g id="line2d_6">
      <path clip-path="url(#pfe83c1ea5c)" d="M 648 378 
L 648 51.84 
" style="fill:none;stroke:#ffffff;stroke-linecap:round;stroke-width:0.8;"/>
     </g>
     <g id="text_6">
      <!-- 1.0 -->
      <defs>
       <path d="M 37.25 0 
L 28.46875 0 
L 28.46875 56 
Q 25.296875 52.984375 20.140625 49.953125 
Q 14.984375 46.921875 10.890625 45.40625 
L 10.890625 53.90625 
Q 18.265625 57.375 23.78125 62.296875 
Q 29.296875 67.234375 31.59375 71.875 
L 37.25 71.875 
z
" id="ArialMT-49"/>
      </defs>
      <g style="fill:#262626;" transform="translate(641.884 392.598875)scale(0.088 -0.088)">
       <use xlink:href="#ArialMT-49"/>
       <use x="55.615234" xlink:href="#ArialMT-46"/>
       <use x="83.398438" xlink:href="#ArialMT-48"/>
      </g>
     </g>
    </g>
    <g id="text_7">
     <!-- $x$ -->
     <defs>
      <path d="M 60.015625 54.6875 
L 34.90625 27.875 
L 50.296875 0 
L 39.984375 0 
L 28.421875 21.6875 
L 8.296875 0 
L -2.59375 0 
L 24.3125 28.8125 
L 10.015625 54.6875 
L 20.3125 54.6875 
L 30.8125 34.90625 
L 49.125 54.6875 
z
" id="DejaVuSans-Oblique-120"/>
     </defs>
     <g style="fill:#262626;" transform="translate(366.12 405.219375)scale(0.096 -0.096)">
      <use transform="translate(0 0.3125)" xlink:href="#DejaVuSans-Oblique-120"/>
     </g>
    </g>
   </g>
   <g id="matplotlib.axis_2">
    <g id="ytick_1">
     <g id="line2d_7">
      <path clip-path="url(#pfe83c1ea5c)" d="M 90 378 
L 648 378 
" style="fill:none;stroke:#ffffff;stroke-linecap:round;stroke-width:0.8;"/>
     </g>
     <g id="text_8">
      <!-- −20 -->
      <defs>
       <path d="M 52.828125 31.203125 
L 5.5625 31.203125 
L 5.5625 39.40625 
L 52.828125 39.40625 
z
" id="ArialMT-8722"/>
      </defs>
      <g style="fill:#262626;" transform="translate(66.773 381.149438)scale(0.088 -0.088)">
       <use xlink:href="#ArialMT-8722"/>
       <use x="58.398438" xlink:href="#ArialMT-50"/>
       <use x="114.013672" xlink:href="#ArialMT-48"/>
      </g>
     </g>
    </g>
    <g id="ytick_2">
     <g id="line2d_8">
      <path clip-path="url(#pfe83c1ea5c)" d="M 90 337.23 
L 648 337.23 
" style="fill:none;stroke:#ffffff;stroke-linecap:round;stroke-width:0.8;"/>
     </g>
     <g id="text_9">
      <!-- −15 -->
      <defs>
       <path d="M 4.15625 18.75 
L 13.375 19.53125 
Q 14.40625 12.796875 18.140625 9.390625 
Q 21.875 6 27.15625 6 
Q 33.5 6 37.890625 10.78125 
Q 42.28125 15.578125 42.28125 23.484375 
Q 42.28125 31 38.0625 35.34375 
Q 33.84375 39.703125 27 39.703125 
Q 22.75 39.703125 19.328125 37.765625 
Q 15.921875 35.84375 13.96875 32.765625 
L 5.71875 33.84375 
L 12.640625 70.609375 
L 48.25 70.609375 
L 48.25 62.203125 
L 19.671875 62.203125 
L 15.828125 42.96875 
Q 22.265625 47.46875 29.34375 47.46875 
Q 38.71875 47.46875 45.15625 40.96875 
Q 51.609375 34.46875 51.609375 24.265625 
Q 51.609375 14.546875 45.953125 7.46875 
Q 39.0625 -1.21875 27.15625 -1.21875 
Q 17.390625 -1.21875 11.203125 4.25 
Q 5.03125 9.71875 4.15625 18.75 
z
" id="ArialMT-53"/>
      </defs>
      <g style="fill:#262626;" transform="translate(66.773 340.379437)scale(0.088 -0.088)">
       <use xlink:href="#ArialMT-8722"/>
       <use x="58.398438" xlink:href="#ArialMT-49"/>
       <use x="114.013672" xlink:href="#ArialMT-53"/>
      </g>
     </g>
    </g>
    <g id="ytick_3">
     <g id="line2d_9">
      <path clip-path="url(#pfe83c1ea5c)" d="M 90 296.46 
L 648 296.46 
" style="fill:none;stroke:#ffffff;stroke-linecap:round;stroke-width:0.8;"/>
     </g>
     <g id="text_10">
      <!-- −10 -->
      <g style="fill:#262626;" transform="translate(66.773 299.609438)scale(0.088 -0.088)">
       <use xlink:href="#ArialMT-8722"/>
       <use x="58.398438" xlink:href="#ArialMT-49"/>
       <use x="114.013672" xlink:href="#ArialMT-48"/>
      </g>
     </g>
    </g>
    <g id="ytick_4">
     <g id="line2d_10">
      <path clip-path="url(#pfe83c1ea5c)" d="M 90 255.69 
L 648 255.69 
" style="fill:none;stroke:#ffffff;stroke-linecap:round;stroke-width:0.8;"/>
     </g>
     <g id="text_11">
      <!-- −5 -->
      <g style="fill:#262626;" transform="translate(71.666625 258.839438)scale(0.088 -0.088)">
       <use xlink:href="#ArialMT-8722"/>
       <use x="58.398438" xlink:href="#ArialMT-53"/>
      </g>
     </g>
    </g>
    <g id="ytick_5">
     <g id="line2d_11">
      <path clip-path="url(#pfe83c1ea5c)" d="M 90 214.92 
L 648 214.92 
" style="fill:none;stroke:#ffffff;stroke-linecap:round;stroke-width:0.8;"/>
     </g>
     <g id="text_12">
      <!-- 0 -->
      <g style="fill:#262626;" transform="translate(76.806375 218.069437)scale(0.088 -0.088)">
       <use xlink:href="#ArialMT-48"/>
      </g>
     </g>
    </g>
    <g id="ytick_6">
     <g id="line2d_12">
      <path clip-path="url(#pfe83c1ea5c)" d="M 90 174.15 
L 648 174.15 
" style="fill:none;stroke:#ffffff;stroke-linecap:round;stroke-width:0.8;"/>
     </g>
     <g id="text_13">
      <!-- 5 -->
      <g style="fill:#262626;" transform="translate(76.806375 177.299437)scale(0.088 -0.088)">
       <use xlink:href="#ArialMT-53"/>
      </g>
     </g>
    </g>
    <g id="ytick_7">
     <g id="line2d_13">
      <path clip-path="url(#pfe83c1ea5c)" d="M 90 133.38 
L 648 133.38 
" style="fill:none;stroke:#ffffff;stroke-linecap:round;stroke-width:0.8;"/>
     </g>
     <g id="text_14">
      <!-- 10 -->
      <g style="fill:#262626;" transform="translate(71.91275 136.529437)scale(0.088 -0.088)">
       <use xlink:href="#ArialMT-49"/>
       <use x="55.615234" xlink:href="#ArialMT-48"/>
      </g>
     </g>
    </g>
    <g id="ytick_8">
     <g id="line2d_14">
      <path clip-path="url(#pfe83c1ea5c)" d="M 90 92.61 
L 648 92.61 
" style="fill:none;stroke:#ffffff;stroke-linecap:round;stroke-width:0.8;"/>
     </g>
     <g id="text_15">
      <!-- 15 -->
      <g style="fill:#262626;" transform="translate(71.91275 95.759437)scale(0.088 -0.088)">
       <use xlink:href="#ArialMT-49"/>
       <use x="55.615234" xlink:href="#ArialMT-53"/>
      </g>
     </g>
    </g>
    <g id="ytick_9">
     <g id="line2d_15">
      <path clip-path="url(#pfe83c1ea5c)" d="M 90 51.84 
L 648 51.84 
" style="fill:none;stroke:#ffffff;stroke-linecap:round;stroke-width:0.8;"/>
     </g>
     <g id="text_16">
      <!-- 20 -->
      <g style="fill:#262626;" transform="translate(71.91275 54.989437)scale(0.088 -0.088)">
       <use xlink:href="#ArialMT-50"/>
       <use x="55.615234" xlink:href="#ArialMT-48"/>
      </g>
     </g>
    </g>
    <g id="text_17">
     <!-- $f(x)$ -->
     <defs>
      <path d="M 47.796875 75.984375 
L 46.390625 68.5 
L 37.796875 68.5 
Q 32.90625 68.5 30.6875 66.578125 
Q 28.46875 64.65625 27.390625 59.515625 
L 26.421875 54.6875 
L 41.21875 54.6875 
L 39.890625 47.703125 
L 25.09375 47.703125 
L 15.828125 0 
L 6.78125 0 
L 16.109375 47.703125 
L 7.515625 47.703125 
L 8.796875 54.6875 
L 17.390625 54.6875 
L 18.109375 58.5 
Q 19.96875 68.171875 24.625 72.078125 
Q 29.296875 75.984375 39.3125 75.984375 
z
" id="DejaVuSans-Oblique-102"/>
      <path d="M 31 75.875 
Q 24.46875 64.65625 21.28125 53.65625 
Q 18.109375 42.671875 18.109375 31.390625 
Q 18.109375 20.125 21.3125 9.0625 
Q 24.515625 -2 31 -13.1875 
L 23.1875 -13.1875 
Q 15.875 -1.703125 12.234375 9.375 
Q 8.59375 20.453125 8.59375 31.390625 
Q 8.59375 42.28125 12.203125 53.3125 
Q 15.828125 64.359375 23.1875 75.875 
z
" id="DejaVuSans-40"/>
      <path d="M 8.015625 75.875 
L 15.828125 75.875 
Q 23.140625 64.359375 26.78125 53.3125 
Q 30.421875 42.28125 30.421875 31.390625 
Q 30.421875 20.453125 26.78125 9.375 
Q 23.140625 -1.703125 15.828125 -13.1875 
L 8.015625 -13.1875 
Q 14.5 -2 17.703125 9.0625 
Q 20.90625 20.125 20.90625 31.390625 
Q 20.90625 42.671875 17.703125 53.65625 
Q 14.5 64.65625 8.015625 75.875 
z
" id="DejaVuSans-41"/>
     </defs>
     <g style="fill:#262626;" transform="translate(60.865 223.224)rotate(-90)scale(0.096 -0.096)">
      <use transform="translate(0 0.015625)" xlink:href="#DejaVuSans-Oblique-102"/>
      <use transform="translate(35.205078 0.015625)" xlink:href="#DejaVuSans-40"/>
      <use transform="translate(74.21875 0.015625)" xlink:href="#DejaVuSans-Oblique-120"/>
      <use transform="translate(133.398438 0.015625)" xlink:href="#DejaVuSans-41"/>
     </g>
    </g>
   </g>
   <g id="PolyCollection_1">
    <defs>
     <path d="M 95.524752 -241.763047 
L 95.524752 -241.764694 
L 97.366337 -243.220554 
L 99.207921 -244.625164 
L 101.049505 -245.973616 
L 102.891089 -247.262057 
L 104.732673 -248.486894 
L 106.574257 -249.644805 
L 108.415842 -250.732758 
L 110.257426 -251.748019 
L 112.09901 -252.68816 
L 113.940594 -253.551068 
L 115.782178 -254.334944 
L 117.623762 -255.0383 
L 119.465347 -255.659957 
L 121.306931 -256.199038 
L 123.148515 -256.654957 
L 124.990099 -257.027408 
L 126.831683 -257.316349 
L 128.673267 -257.521988 
L 130.514851 -257.644762 
L 132.356436 -257.685325 
L 134.19802 -257.64452 
L 136.039604 -257.523369 
L 137.881188 -257.323044 
L 139.722772 -257.044857 
L 141.564356 -256.690236 
L 143.405941 -256.26071 
L 145.247525 -255.757893 
L 147.089109 -255.183474 
L 148.930693 -254.5392 
L 150.772277 -253.826867 
L 152.613861 -253.048318 
L 154.455446 -252.205432 
L 156.29703 -251.300122 
L 158.138614 -250.334337 
L 159.980198 -249.310061 
L 161.821782 -248.229315 
L 163.663366 -247.094164 
L 165.50495 -245.906723 
L 167.346535 -244.669161 
L 169.188119 -243.383712 
L 171.029703 -242.05268 
L 172.871287 -240.678451 
L 174.712871 -239.263497 
L 176.554455 -237.810386 
L 178.39604 -236.321787 
L 180.237624 -234.800473 
L 182.079208 -233.249328 
L 183.920792 -231.671345 
L 185.762376 -230.069628 
L 187.60396 -228.44739 
L 189.445545 -226.807944 
L 191.287129 -225.1547 
L 193.128713 -223.491156 
L 194.970297 -221.820884 
L 196.811881 -220.147517 
L 198.653465 -218.474734 
L 200.49505 -216.806246 
L 202.336634 -215.145771 
L 204.178218 -213.497018 
L 206.019802 -211.864489 
L 207.861386 -213.270246 
L 209.70297 -214.694827 
L 211.544554 -216.13255 
L 213.386139 -217.578604 
L 215.227723 -219.028251 
L 217.069307 -220.476862 
L 218.910891 -221.919933 
L 220.752475 -223.353118 
L 222.594059 -224.772249 
L 224.435644 -226.173358 
L 226.277228 -227.5527 
L 228.118812 -228.90677 
L 229.960396 -230.232316 
L 231.80198 -231.526356 
L 233.643564 -232.786187 
L 235.485149 -234.009395 
L 237.326733 -235.193859 
L 239.168317 -236.337753 
L 241.009901 -237.439549 
L 242.851485 -238.498015 
L 244.693069 -239.512205 
L 246.534653 -240.481459 
L 248.376238 -241.405388 
L 250.217822 -242.283866 
L 252.059406 -243.117016 
L 253.90099 -243.905192 
L 255.742574 -244.648967 
L 257.584158 -245.349112 
L 259.425743 -246.006581 
L 261.267327 -246.622486 
L 263.108911 -247.198082 
L 264.950495 -247.734748 
L 266.792079 -248.233962 
L 268.633663 -248.697284 
L 270.475248 -249.12634 
L 272.316832 -249.522799 
L 274.158416 -249.888356 
L 276 -250.224721 
L 277.841584 -250.533596 
L 279.683168 -250.816668 
L 281.524752 -251.07559 
L 283.366337 -251.311977 
L 285.207921 -251.527391 
L 287.049505 -251.723334 
L 288.891089 -251.901242 
L 290.732673 -252.062481 
L 292.574257 -252.208337 
L 294.415842 -252.34002 
L 296.257426 -252.458657 
L 298.09901 -252.565294 
L 299.940594 -252.660891 
L 301.782178 -252.746326 
L 303.623762 -252.822397 
L 305.465347 -252.889816 
L 307.306931 -252.949218 
L 309.148515 -253.001157 
L 310.990099 -253.046108 
L 312.831683 -253.084471 
L 314.673267 -253.116565 
L 316.514851 -253.142637 
L 318.356436 -253.162854 
L 320.19802 -253.177309 
L 322.039604 -253.186016 
L 323.881188 -253.188909 
L 325.722772 -253.185842 
L 327.564356 -253.176589 
L 329.405941 -253.160837 
L 331.247525 -253.138187 
L 333.089109 -253.108149 
L 334.930693 -253.070143 
L 336.772277 -253.023495 
L 338.613861 -252.967433 
L 340.455446 -252.901088 
L 342.29703 -252.823494 
L 344.138614 -252.733584 
L 345.980198 -252.630193 
L 347.821782 -252.512057 
L 349.663366 -252.377822 
L 351.50495 -252.226041 
L 353.346535 -252.05518 
L 355.188119 -251.863632 
L 357.029703 -251.649715 
L 358.871287 -251.411688 
L 360.712871 -251.147761 
L 362.554455 -250.856109 
L 364.39604 -250.534881 
L 366.237624 -250.182222 
L 368.079208 -249.796284 
L 369.920792 -249.375249 
L 371.762376 -248.917341 
L 373.60396 -248.420853 
L 375.445545 -247.884159 
L 377.287129 -247.305742 
L 379.128713 -246.684205 
L 380.970297 -246.0183 
L 382.811881 -245.306939 
L 384.653465 -244.549221 
L 386.49505 -243.744441 
L 388.336634 -242.892113 
L 390.178218 -241.991982 
L 392.019802 -241.044036 
L 393.861386 -240.04852 
L 395.70297 -239.005944 
L 397.544554 -237.917088 
L 399.386139 -236.783011 
L 401.227723 -235.605047 
L 403.069307 -234.38481 
L 404.910891 -233.124185 
L 406.752475 -231.825329 
L 408.594059 -230.490655 
L 410.435644 -229.122826 
L 412.277228 -227.72474 
L 414.118812 -226.299514 
L 415.960396 -224.850465 
L 417.80198 -223.38109 
L 419.643564 -221.895046 
L 421.485149 -220.396123 
L 423.326733 -218.888222 
L 425.168317 -217.375328 
L 427.009901 -215.862308 
L 428.851485 -217.388241 
L 430.693069 -218.91429 
L 432.534653 -220.435839 
L 434.376238 -221.94916 
L 436.217822 -223.450615 
L 438.059406 -224.936688 
L 439.90099 -226.40401 
L 441.742574 -227.84939 
L 443.584158 -229.269833 
L 445.425743 -230.662567 
L 447.267327 -232.025063 
L 449.108911 -233.355054 
L 450.950495 -234.65055 
L 452.792079 -235.909851 
L 454.633663 -237.131558 
L 456.475248 -238.314584 
L 458.316832 -239.458153 
L 460.158416 -240.561805 
L 462 -241.625398 
L 463.841584 -242.649099 
L 465.683168 -243.63338 
L 467.524752 -244.57901 
L 469.366337 -245.487038 
L 471.207921 -246.358785 
L 473.049505 -247.195821 
L 474.891089 -247.999948 
L 476.732673 -248.773181 
L 478.574257 -249.517719 
L 480.415842 -250.235926 
L 482.257426 -250.9303 
L 484.09901 -251.603448 
L 485.940594 -252.258055 
L 487.782178 -252.896854 
L 489.623762 -253.5226 
L 491.465347 -254.138034 
L 493.306931 -254.745855 
L 495.148515 -255.348689 
L 496.990099 -255.949059 
L 498.831683 -256.549354 
L 500.673267 -257.151803 
L 502.514851 -257.758444 
L 504.356436 -258.371099 
L 506.19802 -258.991354 
L 508.039604 -259.620525 
L 509.881188 -260.259651 
L 511.722772 -260.909462 
L 513.564356 -261.570372 
L 515.405941 -262.242463 
L 517.247525 -262.925469 
L 519.089109 -263.618775 
L 520.930693 -264.321407 
L 522.772277 -265.032031 
L 524.613861 -265.748953 
L 526.455446 -266.470125 
L 528.29703 -267.193151 
L 530.138614 -267.915298 
L 531.980198 -268.633506 
L 533.821782 -269.344414 
L 535.663366 -270.044368 
L 537.50495 -270.729456 
L 539.346535 -271.395524 
L 541.188119 -272.03821 
L 543.029703 -272.652976 
L 544.871287 -273.235138 
L 546.712871 -273.779904 
L 548.554455 -274.282411 
L 550.39604 -274.737766 
L 552.237624 -275.141083 
L 554.079208 -275.487528 
L 555.920792 -275.772357 
L 557.762376 -275.990963 
L 559.60396 -276.138913 
L 561.445545 -276.211992 
L 563.287129 -276.206242 
L 565.128713 -276.118001 
L 566.970297 -275.943938 
L 568.811881 -275.681091 
L 570.653465 -275.326893 
L 572.49505 -274.879206 
L 574.336634 -274.336345 
L 576.178218 -273.697094 
L 578.019802 -272.960732 
L 579.861386 -272.127039 
L 581.70297 -271.196308 
L 583.544554 -270.169349 
L 585.386139 -269.04749 
L 587.227723 -267.832568 
L 589.069307 -266.526922 
L 590.910891 -265.133382 
L 592.752475 -263.656067 
L 594.594059 -265.133734 
L 596.435644 -266.527638 
L 598.277228 -267.833666 
L 600.118812 -269.048999 
L 601.960396 -270.171304 
L 603.80198 -271.198752 
L 605.643564 -272.130027 
L 607.485149 -272.96433 
L 609.326733 -273.701379 
L 611.168317 -274.341408 
L 613.009901 -274.885155 
L 614.851485 -275.333851 
L 616.693069 -275.689202 
L 618.534653 -275.95337 
L 620.376238 -276.128946 
L 622.217822 -276.218923 
L 624.059406 -276.226666 
L 625.90099 -276.155877 
L 627.742574 -276.010558 
L 629.584158 -275.794979 
L 631.425743 -275.513633 
L 633.267327 -275.171198 
L 635.108911 -274.772499 
L 636.950495 -274.322466 
L 638.792079 -273.826093 
L 640.633663 -273.2884 
L 642.475248 -272.714397 
L 644.316832 -272.109044 
L 646.158416 -271.477218 
L 648 -270.823682 
L 648 -205.984729 
L 648 -205.984729 
L 646.158416 -207.572341 
L 644.316832 -209.217478 
L 642.475248 -210.918617 
L 640.633663 -212.673884 
L 638.792079 -214.48104 
L 636.950495 -216.337479 
L 635.108911 -218.240228 
L 633.267327 -220.185949 
L 631.425743 -222.170941 
L 629.584158 -224.191156 
L 627.742574 -226.242205 
L 625.90099 -228.319379 
L 624.059406 -230.41767 
L 622.217822 -232.531792 
L 620.376238 -234.65621 
L 618.534653 -236.785171 
L 616.693069 -238.912739 
L 614.851485 -241.032828 
L 613.009901 -243.139245 
L 611.168317 -245.225727 
L 609.326733 -247.285988 
L 607.485149 -249.313757 
L 605.643564 -251.30283 
L 603.80198 -253.247108 
L 601.960396 -255.140646 
L 600.118812 -256.977694 
L 598.277228 -258.752744 
L 596.435644 -260.460566 
L 594.594059 -262.09625 
L 592.752475 -263.65442 
L 590.910891 -262.095903 
L 589.069307 -260.459871 
L 587.227723 -258.751694 
L 585.386139 -256.976276 
L 583.544554 -255.138838 
L 581.70297 -253.244886 
L 579.861386 -251.300162 
L 578.019802 -249.310607 
L 576.178218 -247.282312 
L 574.336634 -245.221479 
L 572.49505 -243.134372 
L 570.653465 -241.027274 
L 568.811881 -238.906444 
L 566.970297 -236.778073 
L 565.128713 -234.648245 
L 563.287129 -232.522898 
L 561.445545 -230.407788 
L 559.60396 -228.308456 
L 557.762376 -226.230197 
L 555.920792 -224.178035 
L 554.079208 -222.156699 
L 552.237624 -220.170604 
L 550.39604 -218.223835 
L 548.554455 -216.320139 
L 546.712871 -214.462913 
L 544.871287 -212.655202 
L 543.029703 -210.899703 
L 541.188119 -209.198764 
L 539.346535 -207.554393 
L 537.50495 -205.968273 
L 535.663366 -204.44177 
L 533.821782 -202.975954 
L 531.980198 -201.571618 
L 530.138614 -200.229296 
L 528.29703 -198.949291 
L 526.455446 -197.731697 
L 524.613861 -196.576424 
L 522.772277 -195.483227 
L 520.930693 -194.451728 
L 519.089109 -193.48145 
L 517.247525 -192.571835 
L 515.405941 -191.722272 
L 513.564356 -190.932124 
L 511.722772 -190.200746 
L 509.881188 -189.527507 
L 508.039604 -188.91181 
L 506.19802 -188.353106 
L 504.356436 -187.850909 
L 502.514851 -187.404809 
L 500.673267 -187.014478 
L 498.831683 -186.679676 
L 496.990099 -186.400255 
L 495.148515 -186.17616 
L 493.306931 -186.007427 
L 491.465347 -185.894174 
L 489.623762 -185.836599 
L 487.782178 -185.834966 
L 485.940594 -185.889595 
L 484.09901 -186.00085 
L 482.257426 -186.169117 
L 480.415842 -186.394796 
L 478.574257 -186.678272 
L 476.732673 -187.019907 
L 474.891089 -187.420012 
L 473.049505 -187.878829 
L 471.207921 -188.396513 
L 469.366337 -188.973107 
L 467.524752 -189.60853 
L 465.683168 -190.302551 
L 463.841584 -191.054777 
L 462 -191.864632 
L 460.158416 -192.731348 
L 458.316832 -193.653948 
L 456.475248 -194.63124 
L 454.633663 -195.661802 
L 452.792079 -196.743985 
L 450.950495 -197.875903 
L 449.108911 -199.055436 
L 447.267327 -200.280229 
L 445.425743 -201.547701 
L 443.584158 -202.85505 
L 441.742574 -204.199265 
L 439.90099 -205.577134 
L 438.059406 -206.985266 
L 436.217822 -208.420104 
L 434.376238 -209.877946 
L 432.534653 -211.354966 
L 430.693069 -212.847239 
L 428.851485 -214.350762 
L 427.009901 -215.860661 
L 425.168317 -214.337844 
L 423.326733 -212.82115 
L 421.485149 -211.3152 
L 419.643564 -209.823741 
L 417.80198 -208.350432 
L 415.960396 -206.898821 
L 414.118812 -205.472317 
L 412.277228 -204.074167 
L 410.435644 -202.707434 
L 408.594059 -201.374974 
L 406.752475 -200.079419 
L 404.910891 -198.823163 
L 403.069307 -197.608347 
L 401.227723 -196.436849 
L 399.386139 -195.310275 
L 397.544554 -194.229957 
L 395.70297 -193.196948 
L 393.861386 -192.212023 
L 392.019802 -191.275683 
L 390.178218 -190.38816 
L 388.336634 -189.549424 
L 386.49505 -188.759195 
L 384.653465 -188.016954 
L 382.811881 -187.321957 
L 380.970297 -186.673254 
L 379.128713 -186.069698 
L 377.287129 -185.509975 
L 375.445545 -184.99261 
L 373.60396 -184.515999 
L 371.762376 -184.07842 
L 369.920792 -183.678058 
L 368.079208 -183.313022 
L 366.237624 -182.981368 
L 364.39604 -182.681115 
L 362.554455 -182.410264 
L 360.712871 -182.166814 
L 358.871287 -181.948781 
L 357.029703 -181.75421 
L 355.188119 -181.581187 
L 353.346535 -181.427853 
L 351.50495 -181.292414 
L 349.663366 -181.173149 
L 347.821782 -181.068414 
L 345.980198 -180.976654 
L 344.138614 -180.896399 
L 342.29703 -180.826274 
L 340.455446 -180.764995 
L 338.613861 -180.711371 
L 336.772277 -180.664307 
L 334.930693 -180.622795 
L 333.089109 -180.58592 
L 331.247525 -180.55285 
L 329.405941 -180.522841 
L 327.564356 -180.495227 
L 325.722772 -180.46942 
L 323.881188 -180.44491 
L 322.039604 -180.421258 
L 320.19802 -180.398094 
L 318.356436 -180.375121 
L 316.514851 -180.352106 
L 314.673267 -180.328888 
L 312.831683 -180.305371 
L 310.990099 -180.281528 
L 309.148515 -180.257405 
L 307.306931 -180.233118 
L 305.465347 -180.208861 
L 303.623762 -180.184906 
L 301.782178 -180.161609 
L 299.940594 -180.139411 
L 298.09901 -180.118847 
L 296.257426 -180.100545 
L 294.415842 -180.085236 
L 292.574257 -180.073753 
L 290.732673 -180.067038 
L 288.891089 -180.066142 
L 287.049505 -180.072231 
L 285.207921 -180.086584 
L 283.366337 -180.110595 
L 281.524752 -180.14577 
L 279.683168 -180.193726 
L 277.841584 -180.25619 
L 276 -180.334986 
L 274.158416 -180.432035 
L 272.316832 -180.549343 
L 270.475248 -180.68899 
L 268.633663 -180.853122 
L 266.792079 -181.04393 
L 264.950495 -181.263642 
L 263.108911 -181.514504 
L 261.267327 -181.79876 
L 259.425743 -182.118636 
L 257.584158 -182.476319 
L 255.742574 -182.873938 
L 253.90099 -183.313542 
L 252.059406 -183.797079 
L 250.217822 -184.326376 
L 248.376238 -184.903119 
L 246.534653 -185.528832 
L 244.693069 -186.204857 
L 242.851485 -186.932341 
L 241.009901 -187.712213 
L 239.168317 -188.545174 
L 237.326733 -189.431681 
L 235.485149 -190.371938 
L 233.643564 -191.365886 
L 231.80198 -192.413197 
L 229.960396 -193.513268 
L 228.118812 -194.665222 
L 226.277228 -195.867908 
L 224.435644 -197.119902 
L 222.594059 -198.419516 
L 220.752475 -199.764805 
L 218.910891 -201.153579 
L 217.069307 -202.583411 
L 215.227723 -204.051661 
L 213.386139 -205.555485 
L 211.544554 -207.091855 
L 209.70297 -208.657583 
L 207.861386 -210.249337 
L 206.019802 -211.862842 
L 204.178218 -210.479965 
L 202.336634 -209.124016 
L 200.49505 -207.800652 
L 198.653465 -206.514642 
L 196.811881 -205.270666 
L 194.970297 -204.073285 
L 193.128713 -202.92692 
L 191.287129 -201.835827 
L 189.445545 -200.804078 
L 187.60396 -199.83554 
L 185.762376 -198.933856 
L 183.920792 -198.102434 
L 182.079208 -197.34443 
L 180.237624 -196.662738 
L 178.39604 -196.059982 
L 176.554455 -195.538508 
L 174.712871 -195.100376 
L 172.871287 -194.747364 
L 171.029703 -194.480958 
L 169.188119 -194.302359 
L 167.346535 -194.212479 
L 165.50495 -194.211945 
L 163.663366 -194.301105 
L 161.821782 -194.480028 
L 159.980198 -194.748509 
L 158.138614 -195.106077 
L 156.29703 -195.551996 
L 154.455446 -196.085274 
L 152.613861 -196.704662 
L 150.772277 -197.408665 
L 148.930693 -198.195543 
L 147.089109 -199.063316 
L 145.247525 -200.009768 
L 143.405941 -201.03245 
L 141.564356 -202.128684 
L 139.722772 -203.29557 
L 137.881188 -204.529985 
L 136.039604 -205.828591 
L 134.19802 -207.187838 
L 132.356436 -208.603972 
L 130.514851 -210.073041 
L 128.673267 -211.590901 
L 126.831683 -213.153228 
L 124.990099 -214.755529 
L 123.148515 -216.393152 
L 121.306931 -218.061303 
L 119.465347 -219.755059 
L 117.623762 -221.469388 
L 115.782178 -223.199171 
L 113.940594 -224.939218 
L 112.09901 -226.684295 
L 110.257426 -228.429146 
L 108.415842 -230.168522 
L 106.574257 -231.897207 
L 104.732673 -233.610044 
L 102.891089 -235.301965 
L 101.049505 -236.968021 
L 99.207921 -238.603409 
L 97.366337 -240.2035 
L 95.524752 -241.763047 
z
" id="mdab4865675" style="stroke:#0173b2;stroke-opacity:0.6;stroke-width:0.8;"/>
    </defs>
    <g clip-path="url(#pfe83c1ea5c)">
     <use style="fill:#0173b2;fill-opacity:0.6;stroke:#0173b2;stroke-opacity:0.6;stroke-width:0.8;" x="0" xlink:href="#mdab4865675" y="432"/>
    </g>
   </g>
   <g id="PolyCollection_2">
    <defs>
     <path d="M 95.524752 -241.762223 
L 95.524752 -241.765517 
L 97.366337 -244.729081 
L 99.207921 -247.636042 
L 101.049505 -250.476413 
L 102.891089 -253.242103 
L 104.732673 -255.925319 
L 106.574257 -258.518605 
L 108.415842 -261.014876 
L 110.257426 -263.407455 
L 112.09901 -265.690093 
L 113.940594 -267.856994 
L 115.782178 -269.90283 
L 117.623762 -271.822755 
L 119.465347 -273.612406 
L 121.306931 -275.267905 
L 123.148515 -276.785859 
L 124.990099 -278.163347 
L 126.831683 -279.397909 
L 128.673267 -280.487531 
L 130.514851 -281.430623 
L 132.356436 -282.226001 
L 134.19802 -282.872861 
L 136.039604 -283.370758 
L 137.881188 -283.719574 
L 139.722772 -283.919501 
L 141.564356 -283.971012 
L 143.405941 -283.87484 
L 145.247525 -283.631956 
L 147.089109 -283.243553 
L 148.930693 -282.711028 
L 150.772277 -282.035968 
L 152.613861 -281.220146 
L 154.455446 -280.265511 
L 156.29703 -279.174185 
L 158.138614 -277.948467 
L 159.980198 -276.590836 
L 161.821782 -275.103958 
L 163.663366 -273.490694 
L 165.50495 -271.754112 
L 167.346535 -269.897502 
L 169.188119 -267.924388 
L 171.029703 -265.83854 
L 172.871287 -263.643994 
L 174.712871 -261.345057 
L 176.554455 -258.946326 
L 178.39604 -256.452689 
L 180.237624 -253.86934 
L 182.079208 -251.201777 
L 183.920792 -248.4558 
L 185.762376 -245.637515 
L 187.60396 -242.753315 
L 189.445545 -239.809877 
L 191.287129 -236.814137 
L 193.128713 -233.773274 
L 194.970297 -230.694683 
L 196.811881 -227.585942 
L 198.653465 -224.45478 
L 200.49505 -221.309044 
L 202.336634 -218.156649 
L 204.178218 -215.005545 
L 206.019802 -211.865312 
L 207.861386 -214.7807 
L 209.70297 -217.713449 
L 211.544554 -220.652898 
L 213.386139 -223.590163 
L 215.227723 -226.516546 
L 217.069307 -229.423587 
L 218.910891 -232.303111 
L 220.752475 -235.147274 
L 222.594059 -237.948615 
L 224.435644 -240.700086 
L 226.277228 -243.395097 
L 228.118812 -246.027544 
L 229.960396 -248.59184 
L 231.80198 -251.082936 
L 233.643564 -253.496338 
L 235.485149 -255.828124 
L 237.326733 -258.074948 
L 239.168317 -260.234043 
L 241.009901 -262.303218 
L 242.851485 -264.280852 
L 244.693069 -266.165879 
L 246.534653 -267.957772 
L 248.376238 -269.656522 
L 250.217822 -271.262611 
L 252.059406 -272.776984 
L 253.90099 -274.201017 
L 255.742574 -275.536481 
L 257.584158 -276.785509 
L 259.425743 -277.950553 
L 261.267327 -279.034349 
L 263.108911 -280.039872 
L 264.950495 -280.970301 
L 266.792079 -281.828978 
L 268.633663 -282.619365 
L 270.475248 -283.345015 
L 272.316832 -284.009526 
L 274.158416 -284.616517 
L 276 -285.169589 
L 277.841584 -285.672299 
L 279.683168 -286.128138 
L 281.524752 -286.5405 
L 283.366337 -286.912668 
L 285.207921 -287.247794 
L 287.049505 -287.548885 
L 288.891089 -287.818792 
L 290.732673 -288.060202 
L 292.574257 -288.275629 
L 294.415842 -288.467412 
L 296.257426 -288.637714 
L 298.09901 -288.788517 
L 299.940594 -288.92163 
L 301.782178 -289.038685 
L 303.623762 -289.141142 
L 305.465347 -289.230294 
L 307.306931 -289.307268 
L 309.148515 -289.373033 
L 310.990099 -289.428398 
L 312.831683 -289.47402 
L 314.673267 -289.510404 
L 316.514851 -289.537902 
L 318.356436 -289.556721 
L 320.19802 -289.566917 
L 322.039604 -289.568395 
L 323.881188 -289.560908 
L 325.722772 -289.544053 
L 327.564356 -289.517271 
L 329.405941 -289.479835 
L 331.247525 -289.430855 
L 333.089109 -289.369263 
L 334.930693 -289.293817 
L 336.772277 -289.203088 
L 338.613861 -289.095463 
L 340.455446 -288.969135 
L 342.29703 -288.822105 
L 344.138614 -288.652177 
L 345.980198 -288.456962 
L 347.821782 -288.233879 
L 349.663366 -287.980159 
L 351.50495 -287.692854 
L 353.346535 -287.368844 
L 355.188119 -287.004855 
L 357.029703 -286.597467 
L 358.871287 -286.143141 
L 360.712871 -285.638235 
L 362.554455 -285.079032 
L 364.39604 -284.461764 
L 366.237624 -283.782649 
L 368.079208 -283.037915 
L 369.920792 -282.223844 
L 371.762376 -281.336802 
L 373.60396 -280.37328 
L 375.445545 -279.329934 
L 377.287129 -278.203625 
L 379.128713 -276.991458 
L 380.970297 -275.690823 
L 382.811881 -274.29943 
L 384.653465 -272.815355 
L 386.49505 -271.237064 
L 388.336634 -269.563458 
L 390.178218 -267.793893 
L 392.019802 -265.928212 
L 393.861386 -263.966768 
L 395.70297 -261.910441 
L 397.544554 -259.760654 
L 399.386139 -257.519379 
L 401.227723 -255.189147 
L 403.069307 -252.773041 
L 404.910891 -250.274696 
L 406.752475 -247.698284 
L 408.594059 -245.048495 
L 410.435644 -242.330522 
L 412.277228 -239.550027 
L 414.118812 -236.713113 
L 415.960396 -233.826287 
L 417.80198 -230.896419 
L 419.643564 -227.930698 
L 421.485149 -224.936584 
L 423.326733 -221.921758 
L 425.168317 -218.89407 
L 427.009901 -215.863131 
L 428.851485 -218.90698 
L 430.693069 -221.947815 
L 432.534653 -224.976276 
L 434.376238 -227.984767 
L 436.217822 -230.96587 
L 438.059406 -233.912399 
L 439.90099 -236.817449 
L 441.742574 -239.674453 
L 443.584158 -242.477224 
L 445.425743 -245.22 
L 447.267327 -247.89748 
L 449.108911 -250.504863 
L 450.950495 -253.037873 
L 452.792079 -255.492783 
L 454.633663 -257.866437 
L 456.475248 -260.156256 
L 458.316832 -262.360255 
L 460.158416 -264.477034 
L 462 -266.505781 
L 463.841584 -268.44626 
L 465.683168 -270.298795 
L 467.524752 -272.06425 
L 469.366337 -273.744004 
L 471.207921 -275.339921 
L 473.049505 -276.854316 
L 474.891089 -278.289916 
L 476.732673 -279.649817 
L 478.574257 -280.937442 
L 480.415842 -282.156491 
L 482.257426 -283.310892 
L 484.09901 -284.404747 
L 485.940594 -285.442284 
L 487.782178 -286.427798 
L 489.623762 -287.365601 
L 491.465347 -288.259964 
L 493.306931 -289.115069 
L 495.148515 -289.934954 
L 496.990099 -290.723461 
L 498.831683 -291.484194 
L 500.673267 -292.220465 
L 502.514851 -292.935261 
L 504.356436 -293.631195 
L 506.19802 -294.310478 
L 508.039604 -294.974883 
L 509.881188 -295.625722 
L 511.722772 -296.263819 
L 513.564356 -296.889496 
L 515.405941 -297.502558 
L 517.247525 -298.102286 
L 519.089109 -298.687438 
L 520.930693 -299.256246 
L 522.772277 -299.806433 
L 524.613861 -300.335217 
L 526.455446 -300.839339 
L 528.29703 -301.315081 
L 530.138614 -301.758298 
L 531.980198 -302.164451 
L 533.821782 -302.528643 
L 535.663366 -302.845667 
L 537.50495 -303.110047 
L 539.346535 -303.316089 
L 541.188119 -303.457934 
L 543.029703 -303.529613 
L 544.871287 -303.525106 
L 546.712871 -303.4384 
L 548.554455 -303.263548 
L 550.39604 -302.994732 
L 552.237624 -302.626323 
L 554.079208 -302.152942 
L 555.920792 -301.569519 
L 557.762376 -300.871346 
L 559.60396 -300.054142 
L 561.445545 -299.114095 
L 563.287129 -298.047915 
L 565.128713 -296.852879 
L 566.970297 -295.526871 
L 568.811881 -294.068414 
L 570.653465 -292.476702 
L 572.49505 -290.751624 
L 574.336634 -288.893778 
L 576.178218 -286.904486 
L 578.019802 -284.785795 
L 579.861386 -282.540477 
L 581.70297 -280.172019 
L 583.544554 -277.684605 
L 585.386139 -275.083097 
L 587.227723 -272.373004 
L 589.069307 -269.560448 
L 590.910891 -266.652121 
L 592.752475 -263.65689 
L 594.594059 -266.652476 
L 596.435644 -269.561174 
L 598.277228 -272.374127 
L 600.118812 -275.084651 
L 601.960396 -277.686632 
L 603.80198 -280.174574 
L 605.643564 -282.543626 
L 607.485149 -284.789617 
L 609.326733 -286.909075 
L 611.168317 -288.899249 
L 613.009901 -290.75811 
L 614.851485 -292.484362 
L 616.693069 -294.077433 
L 618.534653 -295.537469 
L 620.376238 -296.865314 
L 622.217822 -298.062489 
L 624.059406 -299.131164 
L 625.90099 -300.074125 
L 627.742574 -300.894735 
L 629.584158 -301.596891 
L 631.425743 -302.184978 
L 633.267327 -302.663822 
L 635.108911 -303.038635 
L 636.950495 -303.314959 
L 638.792079 -303.498619 
L 640.633663 -303.595658 
L 642.475248 -303.612287 
L 644.316832 -303.554828 
L 646.158416 -303.429657 
L 648 -303.243158 
L 648 -173.565252 
L 648 -173.565252 
L 646.158416 -175.619902 
L 644.316832 -177.771694 
L 642.475248 -180.020727 
L 640.633663 -182.366626 
L 638.792079 -184.808513 
L 636.950495 -187.344985 
L 635.108911 -189.974093 
L 633.267327 -192.693324 
L 631.425743 -195.499595 
L 629.584158 -198.389244 
L 627.742574 -201.358028 
L 625.90099 -204.40113 
L 624.059406 -207.513172 
L 622.217822 -210.688226 
L 620.376238 -213.919841 
L 618.534653 -217.201072 
L 616.693069 -220.524508 
L 614.851485 -223.882317 
L 613.009901 -227.26629 
L 611.168317 -230.667887 
L 609.326733 -234.078292 
L 607.485149 -237.488471 
L 605.643564 -240.889231 
L 603.80198 -244.271286 
L 601.960396 -247.625317 
L 600.118812 -250.942042 
L 598.277228 -254.212283 
L 596.435644 -257.427029 
L 594.594059 -260.577508 
L 592.752475 -263.653596 
L 590.910891 -260.577164 
L 589.069307 -257.426346 
L 587.227723 -254.211258 
L 585.386139 -250.940669 
L 583.544554 -247.623583 
L 581.70297 -244.269175 
L 579.861386 -240.886724 
L 578.019802 -237.485544 
L 576.178218 -234.074921 
L 574.336634 -230.664046 
L 572.49505 -227.261955 
L 570.653465 -223.877465 
L 568.811881 -220.519121 
L 566.970297 -217.19514 
L 565.128713 -213.913367 
L 563.287129 -210.681226 
L 561.445545 -207.505686 
L 559.60396 -204.393227 
L 557.762376 -201.349814 
L 555.920792 -198.380874 
L 554.079208 -195.491284 
L 552.237624 -192.685364 
L 550.39604 -189.96687 
L 548.554455 -187.339003 
L 546.712871 -184.804417 
L 544.871287 -182.365234 
L 543.029703 -180.023067 
L 541.188119 -177.77904 
L 539.346535 -175.633828 
L 537.50495 -173.587681 
L 535.663366 -171.640471 
L 533.821782 -169.791725 
L 531.980198 -168.040674 
L 530.138614 -166.386296 
L 528.29703 -164.827361 
L 526.455446 -163.362483 
L 524.613861 -161.99016 
L 522.772277 -160.708824 
L 520.930693 -159.516889 
L 519.089109 -158.412788 
L 517.247525 -157.395018 
L 515.405941 -156.462177 
L 513.564356 -155.613 
L 511.722772 -154.846388 
L 509.881188 -154.161435 
L 508.039604 -153.557452 
L 506.19802 -153.033982 
L 504.356436 -152.590814 
L 502.514851 -152.227992 
L 500.673267 -151.945815 
L 498.831683 -151.744836 
L 496.990099 -151.625853 
L 495.148515 -151.589896 
L 493.306931 -151.638213 
L 491.465347 -151.772244 
L 489.623762 -151.993598 
L 487.782178 -152.304022 
L 485.940594 -152.705366 
L 484.09901 -153.199551 
L 482.257426 -153.788526 
L 480.415842 -154.47423 
L 478.574257 -155.258549 
L 476.732673 -156.143271 
L 474.891089 -157.130044 
L 473.049505 -158.220334 
L 471.207921 -159.415376 
L 469.366337 -160.716142 
L 467.524752 -162.12329 
L 465.683168 -163.637137 
L 463.841584 -165.257616 
L 462 -166.984249 
L 460.158416 -168.816119 
L 458.316832 -170.751846 
L 456.475248 -172.789568 
L 454.633663 -174.926924 
L 452.792079 -177.161053 
L 450.950495 -179.48858 
L 449.108911 -181.905626 
L 447.267327 -184.407811 
L 445.425743 -186.990268 
L 443.584158 -189.647659 
L 441.742574 -192.374202 
L 439.90099 -195.163695 
L 438.059406 -198.009555 
L 436.217822 -200.904848 
L 434.376238 -203.842338 
L 432.534653 -206.814529 
L 430.693069 -209.813713 
L 428.851485 -212.832023 
L 427.009901 -215.859837 
L 425.168317 -212.819102 
L 423.326733 -209.787613 
L 421.485149 -206.774739 
L 419.643564 -203.788089 
L 417.80198 -200.835103 
L 415.960396 -197.922999 
L 414.118812 -195.058718 
L 412.277228 -192.248881 
L 410.435644 -189.499738 
L 408.594059 -186.817133 
L 406.752475 -184.206464 
L 404.910891 -181.672652 
L 403.069307 -179.220116 
L 401.227723 -176.852749 
L 399.386139 -174.573907 
L 397.544554 -172.386391 
L 395.70297 -170.29245 
L 393.861386 -168.293775 
L 392.019802 -166.391507 
L 390.178218 -164.586249 
L 388.336634 -162.878079 
L 386.49505 -161.266571 
L 384.653465 -159.75082 
L 382.811881 -158.329466 
L 380.970297 -157.000731 
L 379.128713 -155.762445 
L 377.287129 -154.612091 
L 375.445545 -153.546836 
L 373.60396 -152.563572 
L 371.762376 -151.65896 
L 369.920792 -150.829462 
L 368.079208 -150.071391 
L 366.237624 -149.380942 
L 364.39604 -148.754232 
L 362.554455 -148.187341 
L 360.712871 -147.676341 
L 358.871287 -147.217328 
L 357.029703 -146.806457 
L 355.188119 -146.439964 
L 353.346535 -146.114189 
L 351.50495 -145.825601 
L 349.663366 -145.570812 
L 347.821782 -145.346593 
L 345.980198 -145.149885 
L 344.138614 -144.977807 
L 342.29703 -144.827664 
L 340.455446 -144.696948 
L 338.613861 -144.583341 
L 336.772277 -144.484713 
L 334.930693 -144.399121 
L 333.089109 -144.324805 
L 331.247525 -144.260182 
L 329.405941 -144.203843 
L 327.564356 -144.154545 
L 325.722772 -144.111209 
L 323.881188 -144.072911 
L 322.039604 -144.038879 
L 320.19802 -144.008486 
L 318.356436 -143.981254 
L 316.514851 -143.956841 
L 314.673267 -143.93505 
L 312.831683 -143.915821 
L 310.990099 -143.899238 
L 309.148515 -143.885529 
L 307.306931 -143.875068 
L 305.465347 -143.868384 
L 303.623762 -143.866161 
L 301.782178 -143.86925 
L 299.940594 -143.878671 
L 298.09901 -143.895623 
L 296.257426 -143.921489 
L 294.415842 -143.957844 
L 292.574257 -144.006461 
L 290.732673 -144.069316 
L 288.891089 -144.148592 
L 287.049505 -144.24668 
L 285.207921 -144.366181 
L 283.366337 -144.509904 
L 281.524752 -144.680859 
L 279.683168 -144.882256 
L 277.841584 -145.117486 
L 276 -145.390118 
L 274.158416 -145.703874 
L 272.316832 -146.062615 
L 270.475248 -146.470315 
L 268.633663 -146.93104 
L 266.792079 -147.448914 
L 264.950495 -148.02809 
L 263.108911 -148.672715 
L 261.267327 -149.386897 
L 259.425743 -150.174663 
L 257.584158 -151.039922 
L 255.742574 -151.986424 
L 253.90099 -153.017717 
L 252.059406 -154.13711 
L 250.217822 -155.347631 
L 248.376238 -156.651984 
L 246.534653 -158.052518 
L 244.693069 -159.551183 
L 242.851485 -161.149504 
L 241.009901 -162.848545 
L 239.168317 -164.648884 
L 237.326733 -166.550591 
L 235.485149 -168.553209 
L 233.643564 -170.655735 
L 231.80198 -172.856617 
L 229.960396 -175.153744 
L 228.118812 -177.544448 
L 226.277228 -180.025512 
L 224.435644 -182.593174 
L 222.594059 -185.24315 
L 220.752475 -187.970649 
L 218.910891 -190.770401 
L 217.069307 -193.636686 
L 215.227723 -196.563366 
L 213.386139 -199.543926 
L 211.544554 -202.571508 
L 209.70297 -205.638961 
L 207.861386 -208.738882 
L 206.019802 -211.862018 
L 204.178218 -208.971438 
L 202.336634 -206.113138 
L 200.49505 -203.297855 
L 198.653465 -200.534596 
L 196.811881 -197.832241 
L 194.970297 -195.199486 
L 193.128713 -192.644802 
L 191.287129 -190.176391 
L 189.445545 -187.802146 
L 187.60396 -185.529615 
L 185.762376 -183.365969 
L 183.920792 -181.317978 
L 182.079208 -179.391981 
L 180.237624 -177.593871 
L 178.39604 -175.92908 
L 176.554455 -174.402568 
L 174.712871 -173.018816 
L 172.871287 -171.781821 
L 171.029703 -170.695098 
L 169.188119 -169.761683 
L 167.346535 -168.984138 
L 165.50495 -168.364557 
L 163.663366 -167.904576 
L 161.821782 -167.605384 
L 159.980198 -167.467733 
L 158.138614 -167.491947 
L 156.29703 -167.677934 
L 154.455446 -168.025195 
L 152.613861 -168.532833 
L 150.772277 -169.199564 
L 148.930693 -170.023715 
L 147.089109 -171.003237 
L 145.247525 -172.135705 
L 143.405941 -173.41832 
L 141.564356 -174.847908 
L 139.722772 -176.420927 
L 137.881188 -178.133456 
L 136.039604 -179.981202 
L 134.19802 -181.959497 
L 132.356436 -184.063296 
L 130.514851 -186.28718 
L 128.673267 -188.625358 
L 126.831683 -191.071668 
L 124.990099 -193.61959 
L 123.148515 -196.26225 
L 121.306931 -198.992435 
L 119.465347 -201.80261 
L 117.623762 -204.684933 
L 115.782178 -207.631285 
L 113.940594 -210.633293 
L 112.09901 -213.682362 
L 110.257426 -216.769709 
L 108.415842 -219.886404 
L 106.574257 -223.023408 
L 104.732673 -226.171619 
L 102.891089 -229.321919 
L 101.049505 -232.465224 
L 99.207921 -235.592531 
L 97.366337 -238.694974 
L 95.524752 -241.762223 
z
" id="m18b8af735e" style="stroke:#0173b2;stroke-opacity:0.4;stroke-width:0.8;"/>
    </defs>
    <g clip-path="url(#pfe83c1ea5c)">
     <use style="fill:#0173b2;fill-opacity:0.4;stroke:#0173b2;stroke-opacity:0.4;stroke-width:0.8;" x="0" xlink:href="#m18b8af735e" y="432"/>
    </g>
   </g>
   <g id="PolyCollection_3">
    <defs>
     <path d="M 95.524752 -241.7614 
L 95.524752 -241.766341 
L 97.366337 -246.237607 
L 99.207921 -250.64692 
L 101.049505 -254.97921 
L 102.891089 -259.222149 
L 104.732673 -263.363744 
L 106.574257 -267.392404 
L 108.415842 -271.296994 
L 110.257426 -275.066892 
L 112.09901 -278.692026 
L 113.940594 -282.162919 
L 115.782178 -285.470717 
L 117.623762 -288.607211 
L 119.465347 -291.564855 
L 121.306931 -294.336772 
L 123.148515 -296.916761 
L 124.990099 -299.299287 
L 126.831683 -301.47947 
L 128.673267 -303.453074 
L 130.514851 -305.216483 
L 132.356436 -306.766677 
L 134.19802 -308.101203 
L 136.039604 -309.218147 
L 137.881188 -310.116103 
L 139.722772 -310.794144 
L 141.564356 -311.251787 
L 143.405941 -311.48897 
L 145.247525 -311.506019 
L 147.089109 -311.303632 
L 148.930693 -310.882856 
L 150.772277 -310.24507 
L 152.613861 -309.391975 
L 154.455446 -308.32559 
L 156.29703 -307.048247 
L 158.138614 -305.562597 
L 159.980198 -303.871612 
L 161.821782 -301.978602 
L 163.663366 -299.887223 
L 165.50495 -297.601501 
L 167.346535 -295.125843 
L 169.188119 -292.465064 
L 171.029703 -289.624401 
L 172.871287 -286.609537 
L 174.712871 -283.426618 
L 176.554455 -280.082265 
L 178.39604 -276.583591 
L 180.237624 -272.938208 
L 182.079208 -269.154226 
L 183.920792 -265.240256 
L 185.762376 -261.205401 
L 187.60396 -257.05924 
L 189.445545 -252.811809 
L 191.287129 -248.473573 
L 193.128713 -244.055393 
L 194.970297 -239.568482 
L 196.811881 -235.024367 
L 198.653465 -230.434826 
L 200.49505 -225.811841 
L 202.336634 -221.167527 
L 204.178218 -216.514072 
L 206.019802 -211.866136 
L 207.861386 -216.291155 
L 209.70297 -220.732071 
L 211.544554 -225.173245 
L 213.386139 -229.601722 
L 215.227723 -234.004841 
L 217.069307 -238.370313 
L 218.910891 -242.686288 
L 220.752475 -246.941431 
L 222.594059 -251.124981 
L 224.435644 -255.226814 
L 226.277228 -259.237493 
L 228.118812 -263.148318 
L 229.960396 -266.951364 
L 231.80198 -270.639515 
L 233.643564 -274.206489 
L 235.485149 -277.646853 
L 237.326733 -280.956037 
L 239.168317 -284.130332 
L 241.009901 -287.166886 
L 242.851485 -290.063688 
L 244.693069 -292.819553 
L 246.534653 -295.434086 
L 248.376238 -297.907657 
L 250.217822 -300.241357 
L 252.059406 -302.436953 
L 253.90099 -304.496842 
L 255.742574 -306.423996 
L 257.584158 -308.221906 
L 259.425743 -309.894526 
L 261.267327 -311.446211 
L 263.108911 -312.881661 
L 264.950495 -314.205854 
L 266.792079 -315.423993 
L 268.633663 -316.541447 
L 270.475248 -317.56369 
L 272.316832 -318.496254 
L 274.158416 -319.344678 
L 276 -320.114456 
L 277.841584 -320.811003 
L 279.683168 -321.439609 
L 281.524752 -322.005411 
L 283.366337 -322.513359 
L 285.207921 -322.968197 
L 287.049505 -323.374436 
L 288.891089 -323.736342 
L 290.732673 -324.057923 
L 292.574257 -324.342921 
L 294.415842 -324.594804 
L 296.257426 -324.81677 
L 298.09901 -325.011741 
L 299.940594 -325.18237 
L 301.782178 -325.331044 
L 303.623762 -325.459887 
L 305.465347 -325.570771 
L 307.306931 -325.665318 
L 309.148515 -325.744909 
L 310.990099 -325.810689 
L 312.831683 -325.86357 
L 314.673267 -325.904242 
L 316.514851 -325.933167 
L 318.356436 -325.950588 
L 320.19802 -325.956525 
L 322.039604 -325.950774 
L 323.881188 -325.932907 
L 325.722772 -325.902264 
L 327.564356 -325.857952 
L 329.405941 -325.798834 
L 331.247525 -325.723523 
L 333.089109 -325.630378 
L 334.930693 -325.517491 
L 336.772277 -325.382682 
L 338.613861 -325.223494 
L 340.455446 -325.037182 
L 342.29703 -324.820715 
L 344.138614 -324.570769 
L 345.980198 -324.283731 
L 347.821782 -323.9557 
L 349.663366 -323.582496 
L 351.50495 -323.159667 
L 353.346535 -322.682508 
L 355.188119 -322.146077 
L 357.029703 -321.545219 
L 358.871287 -320.874594 
L 360.712871 -320.128709 
L 362.554455 -319.301954 
L 364.39604 -318.388647 
L 366.237624 -317.383076 
L 368.079208 -316.279546 
L 369.920792 -315.07244 
L 371.762376 -313.756262 
L 373.60396 -312.325707 
L 375.445545 -310.775709 
L 377.287129 -309.101509 
L 379.128713 -307.298712 
L 380.970297 -305.363345 
L 382.811881 -303.291921 
L 384.653465 -301.081488 
L 386.49505 -298.729688 
L 388.336634 -296.234803 
L 390.178218 -293.595804 
L 392.019802 -290.812388 
L 393.861386 -287.885017 
L 395.70297 -284.814939 
L 397.544554 -281.604219 
L 399.386139 -278.255747 
L 401.227723 -274.773246 
L 403.069307 -271.161273 
L 404.910891 -267.425208 
L 406.752475 -263.571239 
L 408.594059 -259.606336 
L 410.435644 -255.538218 
L 412.277228 -251.375313 
L 414.118812 -247.126711 
L 415.960396 -242.802109 
L 417.80198 -238.411748 
L 419.643564 -233.96635 
L 421.485149 -229.477045 
L 423.326733 -224.955294 
L 425.168317 -220.412812 
L 427.009901 -215.863955 
L 428.851485 -220.42572 
L 430.693069 -224.981341 
L 432.534653 -229.516713 
L 434.376238 -234.020374 
L 436.217822 -238.481126 
L 438.059406 -242.888109 
L 439.90099 -247.230887 
L 441.742574 -251.499516 
L 443.584158 -255.684615 
L 445.425743 -259.777432 
L 447.267327 -263.769897 
L 449.108911 -267.654673 
L 450.950495 -271.425196 
L 452.792079 -275.075716 
L 454.633663 -278.601315 
L 456.475248 -281.997929 
L 458.316832 -285.262357 
L 460.158416 -288.392263 
L 462 -291.386164 
L 463.841584 -294.243421 
L 465.683168 -296.96421 
L 467.524752 -299.54949 
L 469.366337 -302.000969 
L 471.207921 -304.321057 
L 473.049505 -306.512812 
L 474.891089 -308.579884 
L 476.732673 -310.526454 
L 478.574257 -312.357166 
L 480.415842 -314.077057 
L 482.257426 -315.691483 
L 484.09901 -317.206046 
L 485.940594 -318.626514 
L 487.782178 -319.958742 
L 489.623762 -321.208601 
L 491.465347 -322.381894 
L 493.306931 -323.484283 
L 495.148515 -324.521218 
L 496.990099 -325.497863 
L 498.831683 -326.419033 
L 500.673267 -327.289128 
L 502.514851 -328.112078 
L 504.356436 -328.89129 
L 506.19802 -329.629601 
L 508.039604 -330.329241 
L 509.881188 -330.991794 
L 511.722772 -331.618177 
L 513.564356 -332.20862 
L 515.405941 -332.762653 
L 517.247525 -333.279103 
L 519.089109 -333.7561 
L 520.930693 -334.191086 
L 522.772277 -334.580835 
L 524.613861 -334.921482 
L 526.455446 -335.208553 
L 528.29703 -335.437011 
L 530.138614 -335.601299 
L 531.980198 -335.695395 
L 533.821782 -335.712873 
L 535.663366 -335.646967 
L 537.50495 -335.490639 
L 539.346535 -335.236654 
L 541.188119 -334.877657 
L 543.029703 -334.406249 
L 544.871287 -333.815074 
L 546.712871 -333.096895 
L 548.554455 -332.244684 
L 550.39604 -331.251697 
L 552.237624 -330.111563 
L 554.079208 -328.818357 
L 555.920792 -327.36668 
L 557.762376 -325.75173 
L 559.60396 -323.969371 
L 561.445545 -322.016197 
L 563.287129 -319.889587 
L 565.128713 -317.587757 
L 566.970297 -315.109804 
L 568.811881 -312.455737 
L 570.653465 -309.626511 
L 572.49505 -306.624041 
L 574.336634 -303.451211 
L 576.178218 -300.111877 
L 578.019802 -296.610858 
L 579.861386 -292.953916 
L 581.70297 -289.14773 
L 583.544554 -285.199861 
L 585.386139 -281.118704 
L 587.227723 -276.913441 
L 589.069307 -272.593973 
L 590.910891 -268.170861 
L 592.752475 -263.657714 
L 594.594059 -268.171218 
L 596.435644 -272.59471 
L 598.277228 -276.914588 
L 600.118812 -281.120303 
L 601.960396 -285.201961 
L 603.80198 -289.150396 
L 605.643564 -292.957224 
L 607.485149 -296.614903 
L 609.326733 -300.116771 
L 611.168317 -303.457089 
L 613.009901 -306.631065 
L 614.851485 -309.634873 
L 616.693069 -312.465665 
L 618.534653 -315.121569 
L 620.376238 -317.601682 
L 622.217822 -319.906055 
L 624.059406 -322.035662 
L 625.90099 -323.992374 
L 627.742574 -325.778912 
L 629.584158 -327.398803 
L 631.425743 -328.856324 
L 633.267327 -330.156447 
L 635.108911 -331.30477 
L 636.950495 -332.307453 
L 638.792079 -333.171146 
L 640.633663 -333.902916 
L 642.475248 -334.510177 
L 644.316832 -335.000611 
L 646.158416 -335.382096 
L 648 -335.662635 
L 648 -141.145776 
L 648 -141.145776 
L 646.158416 -143.667464 
L 644.316832 -146.325911 
L 642.475248 -149.122837 
L 640.633663 -152.059368 
L 638.792079 -155.135987 
L 636.950495 -158.352492 
L 635.108911 -161.707957 
L 633.267327 -165.200699 
L 631.425743 -168.82825 
L 629.584158 -172.587332 
L 627.742574 -176.473851 
L 625.90099 -180.482881 
L 624.059406 -184.608674 
L 622.217822 -188.84466 
L 620.376238 -193.183473 
L 618.534653 -197.616972 
L 616.693069 -202.136276 
L 614.851485 -206.731806 
L 613.009901 -211.393335 
L 611.168317 -216.110046 
L 609.326733 -220.870596 
L 607.485149 -225.663184 
L 605.643564 -230.475633 
L 603.80198 -235.295464 
L 601.960396 -240.109988 
L 600.118812 -244.90639 
L 598.277228 -249.671822 
L 596.435644 -254.393493 
L 594.594059 -259.058765 
L 592.752475 -263.652773 
L 590.910891 -259.058424 
L 589.069307 -254.39282 
L 587.227723 -249.670821 
L 585.386139 -244.905061 
L 583.544554 -240.108327 
L 581.70297 -235.293464 
L 579.861386 -230.473286 
L 578.019802 -225.660481 
L 576.178218 -220.86753 
L 574.336634 -216.106614 
L 572.49505 -211.389538 
L 570.653465 -206.727656 
L 568.811881 -202.131797 
L 566.970297 -197.612207 
L 565.128713 -193.178489 
L 563.287129 -188.839554 
L 561.445545 -184.603584 
L 559.60396 -180.477999 
L 557.762376 -176.469431 
L 555.920792 -172.583713 
L 554.079208 -168.82587 
L 552.237624 -165.200124 
L 550.39604 -161.709904 
L 548.554455 -158.357867 
L 546.712871 -155.145922 
L 544.871287 -152.075267 
L 543.029703 -149.14643 
L 541.188119 -146.359317 
L 539.346535 -143.713262 
L 537.50495 -141.20709 
L 535.663366 -138.839172 
L 533.821782 -136.607495 
L 531.980198 -134.50973 
L 530.138614 -132.543295 
L 528.29703 -130.705432 
L 526.455446 -128.993269 
L 524.613861 -127.403895 
L 522.772277 -125.934422 
L 520.930693 -124.58205 
L 519.089109 -123.344125 
L 517.247525 -122.2182 
L 515.405941 -121.202082 
L 513.564356 -120.293876 
L 511.722772 -119.49203 
L 509.881188 -118.795364 
L 508.039604 -118.203094 
L 506.19802 -117.714858 
L 504.356436 -117.330719 
L 502.514851 -117.051175 
L 500.673267 -116.877153 
L 498.831683 -116.809997 
L 496.990099 -116.851451 
L 495.148515 -117.003632 
L 493.306931 -117.268999 
L 491.465347 -117.650314 
L 489.623762 -118.150597 
L 487.782178 -118.773077 
L 485.940594 -119.521136 
L 484.09901 -120.398251 
L 482.257426 -121.407934 
L 480.415842 -122.553665 
L 478.574257 -123.838826 
L 476.732673 -125.266634 
L 474.891089 -126.840076 
L 473.049505 -128.561838 
L 471.207921 -130.43424 
L 469.366337 -132.459176 
L 467.524752 -134.63805 
L 465.683168 -136.971722 
L 463.841584 -139.460454 
L 462 -142.103866 
L 460.158416 -144.900891 
L 458.316832 -147.849744 
L 456.475248 -150.947895 
L 454.633663 -154.192046 
L 452.792079 -157.57812 
L 450.950495 -161.101257 
L 449.108911 -164.755817 
L 447.267327 -168.535394 
L 445.425743 -172.432835 
L 443.584158 -176.440268 
L 441.742574 -180.549139 
L 439.90099 -184.750257 
L 438.059406 -189.033844 
L 436.217822 -193.389593 
L 434.376238 -197.806731 
L 432.534653 -202.274093 
L 430.693069 -206.780188 
L 428.851485 -211.313283 
L 427.009901 -215.859014 
L 425.168317 -211.30036 
L 423.326733 -206.754077 
L 421.485149 -202.234278 
L 419.643564 -197.752437 
L 417.80198 -193.319774 
L 415.960396 -188.947177 
L 414.118812 -184.64512 
L 412.277228 -180.423594 
L 410.435644 -176.292042 
L 408.594059 -172.259293 
L 406.752475 -168.333509 
L 404.910891 -164.522141 
L 403.069307 -160.831884 
L 401.227723 -157.26865 
L 399.386139 -153.837539 
L 397.544554 -150.542826 
L 395.70297 -147.387952 
L 393.861386 -144.375526 
L 392.019802 -141.50733 
L 390.178218 -138.784338 
L 388.336634 -136.206734 
L 386.49505 -133.773948 
L 384.653465 -131.484686 
L 382.811881 -129.336975 
L 380.970297 -127.328208 
L 379.128713 -125.455192 
L 377.287129 -123.714207 
L 375.445545 -122.101061 
L 373.60396 -120.611145 
L 371.762376 -119.239499 
L 369.920792 -117.980867 
L 368.079208 -116.82976 
L 366.237624 -115.780515 
L 364.39604 -114.827349 
L 362.554455 -113.964419 
L 360.712871 -113.185867 
L 358.871287 -112.485875 
L 357.029703 -111.858705 
L 355.188119 -111.298741 
L 353.346535 -110.800525 
L 351.50495 -110.358788 
L 349.663366 -109.968475 
L 347.821782 -109.624771 
L 345.980198 -109.323115 
L 344.138614 -109.059214 
L 342.29703 -108.829054 
L 340.455446 -108.628901 
L 338.613861 -108.45531 
L 336.772277 -108.305119 
L 334.930693 -108.175447 
L 333.089109 -108.063691 
L 331.247525 -107.967514 
L 329.405941 -107.884844 
L 327.564356 -107.813864 
L 325.722772 -107.752998 
L 323.881188 -107.700912 
L 322.039604 -107.656499 
L 320.19802 -107.618879 
L 318.356436 -107.587387 
L 316.514851 -107.561576 
L 314.673267 -107.541211 
L 312.831683 -107.526271 
L 310.990099 -107.516948 
L 309.148515 -107.513653 
L 307.306931 -107.517018 
L 305.465347 -107.527906 
L 303.623762 -107.547416 
L 301.782178 -107.576892 
L 299.940594 -107.617932 
L 298.09901 -107.6724 
L 296.257426 -107.742433 
L 294.415842 -107.830452 
L 292.574257 -107.939169 
L 290.732673 -108.071595 
L 288.891089 -108.231042 
L 287.049505 -108.421129 
L 285.207921 -108.645778 
L 283.366337 -108.909213 
L 281.524752 -109.215949 
L 279.683168 -109.570785 
L 277.841584 -109.978783 
L 276 -110.44525 
L 274.158416 -110.975713 
L 272.316832 -111.575887 
L 270.475248 -112.251641 
L 268.633663 -113.008959 
L 266.792079 -113.853898 
L 264.950495 -114.792537 
L 263.108911 -115.830926 
L 261.267327 -116.975034 
L 259.425743 -118.230691 
L 257.584158 -119.603526 
L 255.742574 -121.098909 
L 253.90099 -122.721892 
L 252.059406 -124.477142 
L 250.217822 -126.368886 
L 248.376238 -128.40085 
L 246.534653 -130.576204 
L 244.693069 -132.89751 
L 242.851485 -135.366667 
L 241.009901 -137.984876 
L 239.168317 -140.752594 
L 237.326733 -143.669502 
L 235.485149 -146.73448 
L 233.643564 -149.945584 
L 231.80198 -153.300037 
L 229.960396 -156.79422 
L 228.118812 -160.423675 
L 226.277228 -164.183116 
L 224.435644 -168.066446 
L 222.594059 -172.066784 
L 220.752475 -176.176493 
L 218.910891 -180.387224 
L 217.069307 -184.689961 
L 215.227723 -189.075071 
L 213.386139 -193.532366 
L 211.544554 -198.05116 
L 209.70297 -202.620339 
L 207.861386 -207.228428 
L 206.019802 -211.861195 
L 204.178218 -207.462911 
L 202.336634 -203.10226 
L 200.49505 -198.795057 
L 198.653465 -194.55455 
L 196.811881 -190.393816 
L 194.970297 -186.325687 
L 193.128713 -182.362684 
L 191.287129 -178.516955 
L 189.445545 -174.800213 
L 187.60396 -171.223689 
L 185.762376 -167.798083 
L 183.920792 -164.533523 
L 182.079208 -161.439532 
L 180.237624 -158.525003 
L 178.39604 -155.798178 
L 176.554455 -153.266629 
L 174.712871 -150.937256 
L 172.871287 -148.816277 
L 171.029703 -146.909237 
L 169.188119 -145.221007 
L 167.346535 -143.755797 
L 165.50495 -142.517168 
L 163.663366 -141.508046 
L 161.821782 -140.730741 
L 159.980198 -140.186958 
L 158.138614 -139.877817 
L 156.29703 -139.803871 
L 154.455446 -139.965115 
L 152.613861 -140.361005 
L 150.772277 -140.990463 
L 148.930693 -141.851887 
L 147.089109 -142.943158 
L 145.247525 -144.261642 
L 143.405941 -145.80419 
L 141.564356 -147.567133 
L 139.722772 -149.546283 
L 137.881188 -151.736926 
L 136.039604 -154.133813 
L 134.19802 -156.731156 
L 132.356436 -159.52262 
L 130.514851 -162.50132 
L 128.673267 -165.659814 
L 126.831683 -168.990108 
L 124.990099 -172.483651 
L 123.148515 -176.131348 
L 121.306931 -179.923568 
L 119.465347 -183.850161 
L 117.623762 -187.900477 
L 115.782178 -192.063399 
L 113.940594 -196.327368 
L 112.09901 -200.680429 
L 110.257426 -205.110273 
L 108.415842 -209.604286 
L 106.574257 -214.149608 
L 104.732673 -218.733194 
L 102.891089 -223.341873 
L 101.049505 -227.962427 
L 99.207921 -232.581654 
L 97.366337 -237.186447 
L 95.524752 -241.7614 
z
" id="mbdf050302c" style="stroke:#0173b2;stroke-opacity:0.2;stroke-width:0.8;"/>
    </defs>
    <g clip-path="url(#pfe83c1ea5c)">
     <use style="fill:#0173b2;fill-opacity:0.2;stroke:#0173b2;stroke-opacity:0.2;stroke-width:0.8;" x="0" xlink:href="#mbdf050302c" y="432"/>
    </g>
   </g>
   <g id="line2d_16">
    <defs>
     <path d="M 0 5 
C 1.326016 5 2.597899 4.473168 3.535534 3.535534 
C 4.473168 2.597899 5 1.326016 5 0 
C 5 -1.326016 4.473168 -2.597899 3.535534 -3.535534 
C 2.597899 -4.473168 1.326016 -5 0 -5 
C -1.326016 -5 -2.597899 -4.473168 -3.535534 -3.535534 
C -4.473168 -2.597899 -5 -1.326016 -5 0 
C -5 1.326016 -4.473168 2.597899 -3.535534 3.535534 
C -2.597899 4.473168 -1.326016 5 0 5 
z
" id="mea2e6edfa1" style="stroke:#ff0000;"/>
    </defs>
    <g clip-path="url(#pfe83c1ea5c)">
     <use style="fill:#ff0000;stroke:#ff0000;" x="206.019802" xlink:href="#mea2e6edfa1" y="220.136335"/>
     <use style="fill:#ff0000;stroke:#ff0000;" x="427.009901" xlink:href="#mea2e6edfa1" y="216.138516"/>
     <use style="fill:#ff0000;stroke:#ff0000;" x="592.752475" xlink:href="#mea2e6edfa1" y="168.344757"/>
     <use style="fill:#ff0000;stroke:#ff0000;" x="95.524752" xlink:href="#mea2e6edfa1" y="190.23613"/>
    </g>
   </g>
   <g id="line2d_17">
    <path clip-path="url(#pfe83c1ea5c)" d="M 95.524752 190.23613 
L 99.207921 190.385713 
L 102.891089 190.717989 
L 106.574257 191.228994 
L 110.257426 191.911418 
L 113.940594 192.754857 
L 119.465347 194.292492 
L 124.990099 196.108531 
L 130.514851 198.141098 
L 139.722772 201.829786 
L 156.29703 208.573941 
L 163.663366 211.302365 
L 169.188119 213.156965 
L 174.712871 214.818063 
L 180.237624 216.268395 
L 185.762376 217.498258 
L 191.287129 218.504736 
L 196.811881 219.290909 
L 202.336634 219.865106 
L 207.861386 220.240209 
L 213.386139 220.432956 
L 220.752475 220.441038 
L 228.118812 220.214004 
L 237.326733 219.68723 
L 250.217822 218.694879 
L 272.316832 216.963929 
L 285.207921 216.193012 
L 298.09901 215.65793 
L 310.990099 215.336182 
L 327.564356 215.164092 
L 347.821782 215.209764 
L 371.762376 215.502119 
L 417.80198 216.134239 
L 434.376238 216.086447 
L 447.267327 215.847354 
L 458.316832 215.443949 
L 467.524752 214.90623 
L 474.891089 214.29002 
L 482.257426 213.450291 
L 487.782178 212.63409 
L 493.306931 211.623359 
L 498.831683 210.385485 
L 504.356436 208.888996 
L 509.881188 207.106421 
L 515.405941 205.017633 
L 520.930693 202.613432 
L 526.455446 199.899089 
L 531.980198 196.897438 
L 537.50495 193.651136 
L 544.871287 189.05483 
L 559.60396 179.776315 
L 565.128713 176.616877 
L 568.811881 174.706233 
L 572.49505 172.993211 
L 576.178218 171.510297 
L 579.861386 170.286399 
L 583.544554 169.345906 
L 587.227723 168.707869 
L 590.910891 168.385357 
L 594.594059 168.385008 
L 598.277228 168.706795 
L 601.960396 169.344025 
L 605.643564 170.283571 
L 609.326733 171.506316 
L 613.009901 172.9878 
L 616.693069 174.699029 
L 620.376238 176.607422 
L 625.90099 179.762372 
L 633.267327 184.321427 
L 648 193.595795 
L 648 193.595795 
" style="fill:none;stroke:#0173b2;stroke-linecap:round;stroke-width:3;"/>
   </g>
   <g id="line2d_18">
    <path clip-path="url(#pfe83c1ea5c)" d="M 95.524752 190.23613 
L 106.574257 198.212236 
L 113.940594 203.22907 
L 119.465347 206.724265 
L 124.990099 209.933472 
L 130.514851 212.817543 
L 136.039604 215.348442 
L 139.722772 216.830614 
L 143.405941 218.145544 
L 147.089109 219.292771 
L 150.772277 220.273727 
L 154.455446 221.09162 
L 158.138614 221.751302 
L 163.663366 222.458439 
L 169.188119 222.851127 
L 174.712871 222.961812 
L 180.237624 222.827143 
L 185.762376 222.486607 
L 193.128713 221.783192 
L 202.336634 220.63919 
L 228.118812 217.221642 
L 237.326733 216.29272 
L 246.534653 215.61681 
L 255.742574 215.193885 
L 264.950495 214.985663 
L 279.683168 214.92 
L 296.257426 214.826933 
L 305.465347 214.580427 
L 314.673267 214.108838 
L 323.881188 213.381 
L 333.089109 212.405204 
L 344.138614 210.982675 
L 364.39604 208.267027 
L 371.762376 207.505589 
L 377.287129 207.105501 
L 382.811881 206.897721 
L 388.336634 206.922381 
L 393.861386 207.217227 
L 399.386139 207.816257 
L 403.069307 208.399126 
L 406.752475 209.13721 
L 410.435644 210.036128 
L 414.118812 211.099926 
L 417.80198 212.330942 
L 421.485149 213.729673 
L 425.168317 215.294672 
L 430.693069 217.945729 
L 436.217822 220.941841 
L 441.742574 224.251277 
L 447.267327 227.831186 
L 454.633663 232.930612 
L 465.683168 240.949553 
L 474.891089 247.553861 
L 480.415842 251.28985 
L 485.940594 254.733714 
L 489.623762 256.816533 
L 493.306931 258.693149 
L 496.990099 260.333203 
L 500.673267 261.706903 
L 504.356436 262.785342 
L 508.039604 263.540811 
L 511.722772 263.947117 
L 515.405941 263.9799 
L 519.089109 263.616939 
L 522.772277 262.838459 
L 526.455446 261.627418 
L 530.138614 259.969784 
L 533.821782 257.854798 
L 537.50495 255.27521 
L 541.188119 252.227495 
L 544.871287 248.712048 
L 548.554455 244.733341 
L 552.237624 240.300056 
L 555.920792 235.425186 
L 559.60396 230.126098 
L 563.287129 224.424562 
L 566.970297 218.346738 
L 570.653465 211.92313 
L 576.178218 201.716539 
L 581.70297 190.945647 
L 589.069307 175.975467 
L 605.643564 141.84578 
L 611.168317 131.048482 
L 614.851485 124.196195 
L 618.534653 117.696325 
L 622.217822 111.61354 
L 625.90099 106.011738 
L 629.584158 100.953498 
L 633.267327 96.499535 
L 635.108911 94.517482 
L 636.950495 92.708137 
L 638.792079 91.078318 
L 640.633663 89.634621 
L 642.475248 88.383407 
L 644.316832 87.330783 
L 646.158416 86.482586 
L 648 85.844366 
L 648 85.844366 
" style="fill:none;stroke:#000000;stroke-linecap:round;stroke-width:2;"/>
   </g>
   <g id="patch_3">
    <path d="M 90 378 
L 90 51.84 
" style="fill:none;stroke:#ffffff;stroke-linecap:square;stroke-linejoin:miter;"/>
   </g>
   <g id="patch_4">
    <path d="M 648 378 
L 648 51.84 
" style="fill:none;stroke:#ffffff;stroke-linecap:square;stroke-linejoin:miter;"/>
   </g>
   <g id="patch_5">
    <path d="M 90 378 
L 648 378 
" style="fill:none;stroke:#ffffff;stroke-linecap:square;stroke-linejoin:miter;"/>
   </g>
   <g id="patch_6">
    <path d="M 90 51.84 
L 648 51.84 
" style="fill:none;stroke:#ffffff;stroke-linecap:square;stroke-linejoin:miter;"/>
   </g>
   <g id="legend_1">
    <g id="patch_7">
     <path d="M 96.16 96.32675 
L 183.014625 96.32675 
Q 184.774625 96.32675 184.774625 94.56675 
L 184.774625 58 
Q 184.774625 56.24 183.014625 56.24 
L 96.16 56.24 
Q 94.4 56.24 94.4 58 
L 94.4 94.56675 
Q 94.4 96.32675 96.16 96.32675 
z
" style="fill:#eaeaf2;opacity:0.8;stroke:#cccccc;stroke-linejoin:miter;stroke-width:0.8;"/>
    </g>
    <g id="line2d_19"/>
    <g id="line2d_20">
     <g>
      <use style="fill:#ff0000;stroke:#ff0000;" x="106.72" xlink:href="#mea2e6edfa1" y="62.978875"/>
     </g>
    </g>
    <g id="text_18">
     <!-- Observations -->
     <defs>
      <path d="M 4.828125 34.859375 
Q 4.828125 52.6875 14.390625 62.765625 
Q 23.96875 72.859375 39.109375 72.859375 
Q 49.03125 72.859375 56.984375 68.109375 
Q 64.9375 63.375 69.109375 54.90625 
Q 73.296875 46.4375 73.296875 35.6875 
Q 73.296875 24.8125 68.890625 16.21875 
Q 64.5 7.625 56.4375 3.203125 
Q 48.390625 -1.21875 39.0625 -1.21875 
Q 28.953125 -1.21875 20.984375 3.65625 
Q 13.03125 8.546875 8.921875 16.984375 
Q 4.828125 25.4375 4.828125 34.859375 
z
M 14.59375 34.71875 
Q 14.59375 21.78125 21.546875 14.328125 
Q 28.515625 6.890625 39.015625 6.890625 
Q 49.703125 6.890625 56.609375 14.40625 
Q 63.53125 21.921875 63.53125 35.75 
Q 63.53125 44.484375 60.578125 51 
Q 57.625 57.515625 51.921875 61.109375 
Q 46.234375 64.703125 39.15625 64.703125 
Q 29.109375 64.703125 21.84375 57.78125 
Q 14.59375 50.875 14.59375 34.71875 
z
" id="ArialMT-79"/>
      <path d="M 14.703125 0 
L 6.546875 0 
L 6.546875 71.578125 
L 15.328125 71.578125 
L 15.328125 46.046875 
Q 20.90625 53.03125 29.546875 53.03125 
Q 34.328125 53.03125 38.59375 51.09375 
Q 42.875 49.171875 45.625 45.671875 
Q 48.390625 42.1875 49.953125 37.25 
Q 51.515625 32.328125 51.515625 26.703125 
Q 51.515625 13.375 44.921875 6.09375 
Q 38.328125 -1.171875 29.109375 -1.171875 
Q 19.921875 -1.171875 14.703125 6.5 
z
M 14.59375 26.3125 
Q 14.59375 17 17.140625 12.84375 
Q 21.296875 6.0625 28.375 6.0625 
Q 34.125 6.0625 38.328125 11.0625 
Q 42.53125 16.0625 42.53125 25.984375 
Q 42.53125 36.140625 38.5 40.96875 
Q 34.46875 45.796875 28.765625 45.796875 
Q 23 45.796875 18.796875 40.796875 
Q 14.59375 35.796875 14.59375 26.3125 
z
" id="ArialMT-98"/>
      <path d="M 3.078125 15.484375 
L 11.765625 16.84375 
Q 12.5 11.625 15.84375 8.84375 
Q 19.1875 6.0625 25.203125 6.0625 
Q 31.25 6.0625 34.171875 8.515625 
Q 37.109375 10.984375 37.109375 14.3125 
Q 37.109375 17.28125 34.515625 19 
Q 32.71875 20.171875 25.53125 21.96875 
Q 15.875 24.421875 12.140625 26.203125 
Q 8.40625 27.984375 6.46875 31.125 
Q 4.546875 34.28125 4.546875 38.09375 
Q 4.546875 41.546875 6.125 44.5 
Q 7.71875 47.46875 10.453125 49.421875 
Q 12.5 50.921875 16.03125 51.96875 
Q 19.578125 53.03125 23.640625 53.03125 
Q 29.734375 53.03125 34.34375 51.265625 
Q 38.96875 49.515625 41.15625 46.5 
Q 43.359375 43.5 44.1875 38.484375 
L 35.59375 37.3125 
Q 35.015625 41.3125 32.203125 43.546875 
Q 29.390625 45.796875 24.265625 45.796875 
Q 18.21875 45.796875 15.625 43.796875 
Q 13.03125 41.796875 13.03125 39.109375 
Q 13.03125 37.40625 14.109375 36.03125 
Q 15.1875 34.625 17.484375 33.6875 
Q 18.796875 33.203125 25.25 31.453125 
Q 34.578125 28.953125 38.25 27.359375 
Q 41.9375 25.78125 44.03125 22.75 
Q 46.140625 19.734375 46.140625 15.234375 
Q 46.140625 10.84375 43.578125 6.953125 
Q 41.015625 3.078125 36.171875 0.953125 
Q 31.34375 -1.171875 25.25 -1.171875 
Q 15.140625 -1.171875 9.84375 3.03125 
Q 4.546875 7.234375 3.078125 15.484375 
z
" id="ArialMT-115"/>
      <path d="M 42.09375 16.703125 
L 51.171875 15.578125 
Q 49.03125 7.625 43.21875 3.21875 
Q 37.40625 -1.171875 28.375 -1.171875 
Q 17 -1.171875 10.328125 5.828125 
Q 3.65625 12.84375 3.65625 25.484375 
Q 3.65625 38.578125 10.390625 45.796875 
Q 17.140625 53.03125 27.875 53.03125 
Q 38.28125 53.03125 44.875 45.953125 
Q 51.46875 38.875 51.46875 26.03125 
Q 51.46875 25.25 51.421875 23.6875 
L 12.75 23.6875 
Q 13.234375 15.140625 17.578125 10.59375 
Q 21.921875 6.0625 28.421875 6.0625 
Q 33.25 6.0625 36.671875 8.59375 
Q 40.09375 11.140625 42.09375 16.703125 
z
M 13.234375 30.90625 
L 42.1875 30.90625 
Q 41.609375 37.453125 38.875 40.71875 
Q 34.671875 45.796875 27.984375 45.796875 
Q 21.921875 45.796875 17.796875 41.75 
Q 13.671875 37.703125 13.234375 30.90625 
z
" id="ArialMT-101"/>
      <path d="M 6.5 0 
L 6.5 51.859375 
L 14.40625 51.859375 
L 14.40625 44 
Q 17.4375 49.515625 20 51.265625 
Q 22.5625 53.03125 25.640625 53.03125 
Q 30.078125 53.03125 34.671875 50.203125 
L 31.640625 42.046875 
Q 28.421875 43.953125 25.203125 43.953125 
Q 22.3125 43.953125 20.015625 42.21875 
Q 17.71875 40.484375 16.75 37.40625 
Q 15.28125 32.71875 15.28125 27.15625 
L 15.28125 0 
z
" id="ArialMT-114"/>
      <path d="M 21 0 
L 1.265625 51.859375 
L 10.546875 51.859375 
L 21.6875 20.796875 
Q 23.484375 15.765625 25 10.359375 
Q 26.171875 14.453125 28.265625 20.21875 
L 39.796875 51.859375 
L 48.828125 51.859375 
L 29.203125 0 
z
" id="ArialMT-118"/>
      <path d="M 40.4375 6.390625 
Q 35.546875 2.25 31.03125 0.53125 
Q 26.515625 -1.171875 21.34375 -1.171875 
Q 12.796875 -1.171875 8.203125 3 
Q 3.609375 7.171875 3.609375 13.671875 
Q 3.609375 17.484375 5.34375 20.625 
Q 7.078125 23.78125 9.890625 25.6875 
Q 12.703125 27.59375 16.21875 28.5625 
Q 18.796875 29.25 24.03125 29.890625 
Q 34.671875 31.15625 39.703125 32.90625 
Q 39.75 34.71875 39.75 35.203125 
Q 39.75 40.578125 37.25 42.78125 
Q 33.890625 45.75 27.25 45.75 
Q 21.046875 45.75 18.09375 43.578125 
Q 15.140625 41.40625 13.71875 35.890625 
L 5.125 37.0625 
Q 6.296875 42.578125 8.984375 45.96875 
Q 11.671875 49.359375 16.75 51.1875 
Q 21.828125 53.03125 28.515625 53.03125 
Q 35.15625 53.03125 39.296875 51.46875 
Q 43.453125 49.90625 45.40625 47.53125 
Q 47.359375 45.171875 48.140625 41.546875 
Q 48.578125 39.3125 48.578125 33.453125 
L 48.578125 21.734375 
Q 48.578125 9.46875 49.140625 6.21875 
Q 49.703125 2.984375 51.375 0 
L 42.1875 0 
Q 40.828125 2.734375 40.4375 6.390625 
z
M 39.703125 26.03125 
Q 34.90625 24.078125 25.34375 22.703125 
Q 19.921875 21.921875 17.671875 20.9375 
Q 15.4375 19.96875 14.203125 18.09375 
Q 12.984375 16.21875 12.984375 13.921875 
Q 12.984375 10.40625 15.640625 8.0625 
Q 18.3125 5.71875 23.4375 5.71875 
Q 28.515625 5.71875 32.46875 7.9375 
Q 36.421875 10.15625 38.28125 14.015625 
Q 39.703125 17 39.703125 22.796875 
z
" id="ArialMT-97"/>
      <path d="M 25.78125 7.859375 
L 27.046875 0.09375 
Q 23.34375 -0.6875 20.40625 -0.6875 
Q 15.625 -0.6875 12.984375 0.828125 
Q 10.359375 2.34375 9.28125 4.8125 
Q 8.203125 7.28125 8.203125 15.1875 
L 8.203125 45.015625 
L 1.765625 45.015625 
L 1.765625 51.859375 
L 8.203125 51.859375 
L 8.203125 64.703125 
L 16.9375 69.96875 
L 16.9375 51.859375 
L 25.78125 51.859375 
L 25.78125 45.015625 
L 16.9375 45.015625 
L 16.9375 14.703125 
Q 16.9375 10.9375 17.40625 9.859375 
Q 17.875 8.796875 18.921875 8.15625 
Q 19.96875 7.515625 21.921875 7.515625 
Q 23.390625 7.515625 25.78125 7.859375 
z
" id="ArialMT-116"/>
      <path d="M 6.640625 61.46875 
L 6.640625 71.578125 
L 15.4375 71.578125 
L 15.4375 61.46875 
z
M 6.640625 0 
L 6.640625 51.859375 
L 15.4375 51.859375 
L 15.4375 0 
z
" id="ArialMT-105"/>
      <path d="M 3.328125 25.921875 
Q 3.328125 40.328125 11.328125 47.265625 
Q 18.015625 53.03125 27.640625 53.03125 
Q 38.328125 53.03125 45.109375 46.015625 
Q 51.90625 39.015625 51.90625 26.65625 
Q 51.90625 16.65625 48.90625 10.90625 
Q 45.90625 5.171875 40.15625 2 
Q 34.421875 -1.171875 27.640625 -1.171875 
Q 16.75 -1.171875 10.03125 5.8125 
Q 3.328125 12.796875 3.328125 25.921875 
z
M 12.359375 25.921875 
Q 12.359375 15.96875 16.703125 11.015625 
Q 21.046875 6.0625 27.640625 6.0625 
Q 34.1875 6.0625 38.53125 11.03125 
Q 42.875 16.015625 42.875 26.21875 
Q 42.875 35.84375 38.5 40.796875 
Q 34.125 45.75 27.640625 45.75 
Q 21.046875 45.75 16.703125 40.8125 
Q 12.359375 35.890625 12.359375 25.921875 
z
" id="ArialMT-111"/>
      <path d="M 6.59375 0 
L 6.59375 51.859375 
L 14.5 51.859375 
L 14.5 44.484375 
Q 20.21875 53.03125 31 53.03125 
Q 35.6875 53.03125 39.625 51.34375 
Q 43.5625 49.65625 45.515625 46.921875 
Q 47.46875 44.1875 48.25 40.4375 
Q 48.734375 37.984375 48.734375 31.890625 
L 48.734375 0 
L 39.9375 0 
L 39.9375 31.546875 
Q 39.9375 36.921875 38.90625 39.578125 
Q 37.890625 42.234375 35.28125 43.8125 
Q 32.671875 45.40625 29.15625 45.40625 
Q 23.53125 45.40625 19.453125 41.84375 
Q 15.375 38.28125 15.375 28.328125 
L 15.375 0 
z
" id="ArialMT-110"/>
     </defs>
     <g style="fill:#262626;" transform="translate(122.56 66.058875)scale(0.088 -0.088)">
      <use xlink:href="#ArialMT-79"/>
      <use x="77.783203" xlink:href="#ArialMT-98"/>
      <use x="133.398438" xlink:href="#ArialMT-115"/>
      <use x="183.398438" xlink:href="#ArialMT-101"/>
      <use x="239.013672" xlink:href="#ArialMT-114"/>
      <use x="272.314453" xlink:href="#ArialMT-118"/>
      <use x="322.314453" xlink:href="#ArialMT-97"/>
      <use x="377.929688" xlink:href="#ArialMT-116"/>
      <use x="405.712891" xlink:href="#ArialMT-105"/>
      <use x="427.929688" xlink:href="#ArialMT-111"/>
      <use x="483.544922" xlink:href="#ArialMT-110"/>
      <use x="539.160156" xlink:href="#ArialMT-115"/>
     </g>
    </g>
    <g id="line2d_21">
     <path d="M 97.92 75.42675 
L 115.52 75.42675 
" style="fill:none;stroke:#0173b2;stroke-linecap:round;stroke-width:3;"/>
    </g>
    <g id="line2d_22"/>
    <g id="text_19">
     <!-- model -->
     <defs>
      <path d="M 6.59375 0 
L 6.59375 51.859375 
L 14.453125 51.859375 
L 14.453125 44.578125 
Q 16.890625 48.390625 20.9375 50.703125 
Q 25 53.03125 30.171875 53.03125 
Q 35.9375 53.03125 39.625 50.640625 
Q 43.3125 48.25 44.828125 43.953125 
Q 50.984375 53.03125 60.84375 53.03125 
Q 68.5625 53.03125 72.703125 48.75 
Q 76.859375 44.484375 76.859375 35.59375 
L 76.859375 0 
L 68.109375 0 
L 68.109375 32.671875 
Q 68.109375 37.9375 67.25 40.25 
Q 66.40625 42.578125 64.15625 43.984375 
Q 61.921875 45.40625 58.890625 45.40625 
Q 53.421875 45.40625 49.796875 41.765625 
Q 46.1875 38.140625 46.1875 30.125 
L 46.1875 0 
L 37.40625 0 
L 37.40625 33.6875 
Q 37.40625 39.546875 35.25 42.46875 
Q 33.109375 45.40625 28.21875 45.40625 
Q 24.515625 45.40625 21.359375 43.453125 
Q 18.21875 41.5 16.796875 37.734375 
Q 15.375 33.984375 15.375 26.90625 
L 15.375 0 
z
" id="ArialMT-109"/>
      <path d="M 40.234375 0 
L 40.234375 6.546875 
Q 35.296875 -1.171875 25.734375 -1.171875 
Q 19.53125 -1.171875 14.328125 2.25 
Q 9.125 5.671875 6.265625 11.796875 
Q 3.421875 17.921875 3.421875 25.875 
Q 3.421875 33.640625 6 39.96875 
Q 8.59375 46.296875 13.765625 49.65625 
Q 18.953125 53.03125 25.34375 53.03125 
Q 30.03125 53.03125 33.6875 51.046875 
Q 37.359375 49.078125 39.65625 45.90625 
L 39.65625 71.578125 
L 48.390625 71.578125 
L 48.390625 0 
z
M 12.453125 25.875 
Q 12.453125 15.921875 16.640625 10.984375 
Q 20.84375 6.0625 26.5625 6.0625 
Q 32.328125 6.0625 36.34375 10.765625 
Q 40.375 15.484375 40.375 25.140625 
Q 40.375 35.796875 36.265625 40.765625 
Q 32.171875 45.75 26.171875 45.75 
Q 20.3125 45.75 16.375 40.96875 
Q 12.453125 36.1875 12.453125 25.875 
z
" id="ArialMT-100"/>
      <path d="M 6.390625 0 
L 6.390625 71.578125 
L 15.1875 71.578125 
L 15.1875 0 
z
" id="ArialMT-108"/>
     </defs>
     <g style="fill:#262626;" transform="translate(122.56 78.50675)scale(0.088 -0.088)">
      <use xlink:href="#ArialMT-109"/>
      <use x="83.300781" xlink:href="#ArialMT-111"/>
      <use x="138.916016" xlink:href="#ArialMT-100"/>
      <use x="194.53125" xlink:href="#ArialMT-101"/>
      <use x="250.146484" xlink:href="#ArialMT-108"/>
     </g>
    </g>
    <g id="line2d_23">
     <path d="M 97.92 87.874625 
L 115.52 87.874625 
" style="fill:none;stroke:#000000;stroke-linecap:round;stroke-width:2;"/>
    </g>
    <g id="line2d_24"/>
    <g id="text_20">
     <!-- target Function -->
     <defs>
      <path d="M 4.984375 -4.296875 
L 13.53125 -5.5625 
Q 14.0625 -9.515625 16.5 -11.328125 
Q 19.78125 -13.765625 25.4375 -13.765625 
Q 31.546875 -13.765625 34.859375 -11.328125 
Q 38.1875 -8.890625 39.359375 -4.5 
Q 40.046875 -1.8125 39.984375 6.78125 
Q 34.234375 0 25.640625 0 
Q 14.9375 0 9.078125 7.71875 
Q 3.21875 15.4375 3.21875 26.21875 
Q 3.21875 33.640625 5.90625 39.90625 
Q 8.59375 46.1875 13.6875 49.609375 
Q 18.796875 53.03125 25.6875 53.03125 
Q 34.859375 53.03125 40.828125 45.609375 
L 40.828125 51.859375 
L 48.921875 51.859375 
L 48.921875 7.03125 
Q 48.921875 -5.078125 46.453125 -10.125 
Q 44 -15.1875 38.640625 -18.109375 
Q 33.296875 -21.046875 25.484375 -21.046875 
Q 16.21875 -21.046875 10.5 -16.875 
Q 4.78125 -12.703125 4.984375 -4.296875 
z
M 12.25 26.859375 
Q 12.25 16.65625 16.296875 11.96875 
Q 20.359375 7.28125 26.46875 7.28125 
Q 32.515625 7.28125 36.609375 11.9375 
Q 40.71875 16.609375 40.71875 26.5625 
Q 40.71875 36.078125 36.5 40.90625 
Q 32.28125 45.75 26.3125 45.75 
Q 20.453125 45.75 16.34375 40.984375 
Q 12.25 36.234375 12.25 26.859375 
z
" id="ArialMT-103"/>
      <path id="ArialMT-32"/>
      <path d="M 8.203125 0 
L 8.203125 71.578125 
L 56.5 71.578125 
L 56.5 63.140625 
L 17.671875 63.140625 
L 17.671875 40.96875 
L 51.265625 40.96875 
L 51.265625 32.515625 
L 17.671875 32.515625 
L 17.671875 0 
z
" id="ArialMT-70"/>
      <path d="M 40.578125 0 
L 40.578125 7.625 
Q 34.515625 -1.171875 24.125 -1.171875 
Q 19.53125 -1.171875 15.546875 0.578125 
Q 11.578125 2.34375 9.640625 5 
Q 7.71875 7.671875 6.9375 11.53125 
Q 6.390625 14.109375 6.390625 19.734375 
L 6.390625 51.859375 
L 15.1875 51.859375 
L 15.1875 23.09375 
Q 15.1875 16.21875 15.71875 13.8125 
Q 16.546875 10.359375 19.234375 8.375 
Q 21.921875 6.390625 25.875 6.390625 
Q 29.828125 6.390625 33.296875 8.421875 
Q 36.765625 10.453125 38.203125 13.9375 
Q 39.65625 17.4375 39.65625 24.078125 
L 39.65625 51.859375 
L 48.4375 51.859375 
L 48.4375 0 
z
" id="ArialMT-117"/>
      <path d="M 40.4375 19 
L 49.078125 17.875 
Q 47.65625 8.9375 41.8125 3.875 
Q 35.984375 -1.171875 27.484375 -1.171875 
Q 16.84375 -1.171875 10.375 5.78125 
Q 3.90625 12.75 3.90625 25.734375 
Q 3.90625 34.125 6.6875 40.421875 
Q 9.46875 46.734375 15.15625 49.875 
Q 20.84375 53.03125 27.546875 53.03125 
Q 35.984375 53.03125 41.359375 48.75 
Q 46.734375 44.484375 48.25 36.625 
L 39.703125 35.296875 
Q 38.484375 40.53125 35.375 43.15625 
Q 32.28125 45.796875 27.875 45.796875 
Q 21.234375 45.796875 17.078125 41.03125 
Q 12.9375 36.28125 12.9375 25.984375 
Q 12.9375 15.53125 16.9375 10.796875 
Q 20.953125 6.0625 27.390625 6.0625 
Q 32.5625 6.0625 36.03125 9.234375 
Q 39.5 12.40625 40.4375 19 
z
" id="ArialMT-99"/>
     </defs>
     <g style="fill:#262626;" transform="translate(122.56 90.954625)scale(0.088 -0.088)">
      <use xlink:href="#ArialMT-116"/>
      <use x="27.783203" xlink:href="#ArialMT-97"/>
      <use x="83.398438" xlink:href="#ArialMT-114"/>
      <use x="116.699219" xlink:href="#ArialMT-103"/>
      <use x="172.314453" xlink:href="#ArialMT-101"/>
      <use x="227.929688" xlink:href="#ArialMT-116"/>
      <use x="255.712891" xlink:href="#ArialMT-32"/>
      <use x="283.496094" xlink:href="#ArialMT-70"/>
      <use x="344.580078" xlink:href="#ArialMT-117"/>
      <use x="400.195312" xlink:href="#ArialMT-110"/>
      <use x="455.810547" xlink:href="#ArialMT-99"/>
      <use x="505.810547" xlink:href="#ArialMT-116"/>
      <use x="533.59375" xlink:href="#ArialMT-105"/>
      <use x="555.810547" xlink:href="#ArialMT-111"/>
      <use x="611.425781" xlink:href="#ArialMT-110"/>
     </g>
    </g>
   </g>
  </g>
 </g>
 <defs>
  <clipPath id="pfe83c1ea5c">
   <rect height="326.16" width="558" x="90" y="51.84"/>
  </clipPath>
 </defs>
</svg>
