<?xml version="1.0" encoding="utf-8" standalone="no"?>
<!DOCTYPE svg PUBLIC "-//W3C//DTD SVG 1.1//EN"
  "http://www.w3.org/Graphics/SVG/1.1/DTD/svg11.dtd">
<!-- Created with matplotlib (https://matplotlib.org/) -->
<svg height="432pt" version="1.1" viewBox="0 0 720 432" width="720pt" xmlns="http://www.w3.org/2000/svg" xmlns:xlink="http://www.w3.org/1999/xlink">
 <defs>
  <style type="text/css">
*{stroke-linecap:butt;stroke-linejoin:round;}
  </style>
 </defs>
 <g id="figure_1">
  <g id="patch_1">
   <path d="M 0 432 
L 720 432 
L 720 0 
L 0 0 
z
" style="fill:none;"/>
  </g>
  <g id="axes_1">
   <g id="patch_2">
    <path d="M 90 378 
L 648 378 
L 648 51.84 
L 90 51.84 
z
" style="fill:none;"/>
   </g>
   <g id="PolyCollection_1">
    <path clip-path="url(#p7ea27259ec)" d="M 115.363636 251.953972 
L 115.363636 259.829506 
L 117.912746 260.099942 
L 120.461855 260.420177 
L 123.010964 260.781604 
L 125.560073 261.175682 
L 128.109182 261.593979 
L 130.658291 262.028233 
L 133.207401 262.470407 
L 135.75651 263.226928 
L 138.305619 264.096407 
L 140.854728 264.854792 
L 143.403837 265.505324 
L 145.952947 266.051423 
L 148.502056 266.496666 
L 151.051165 266.844763 
L 153.600274 267.099544 
L 156.149383 267.264936 
L 158.698492 267.344945 
L 161.247602 267.34364 
L 163.796711 267.265137 
L 166.34582 267.113578 
L 168.894929 266.893118 
L 171.444038 266.607909 
L 173.993148 266.262086 
L 176.542257 265.859753 
L 179.091366 265.404968 
L 181.640475 264.901736 
L 184.189584 264.353992 
L 186.738693 263.765596 
L 189.287803 263.140332 
L 191.836912 262.48216 
L 194.386021 261.823271 
L 196.93513 261.132508 
L 199.484239 260.401839 
L 202.033349 259.63519 
L 204.582458 258.836737 
L 207.131567 258.024437 
L 209.680676 257.225975 
L 212.229785 256.419487 
L 214.778894 255.607231 
L 217.328004 254.791516 
L 219.877113 253.974507 
L 222.426222 253.158206 
L 224.975331 252.344456 
L 227.52444 251.534931 
L 230.07355 250.731141 
L 232.622659 249.934425 
L 235.171768 249.145957 
L 237.720877 248.366738 
L 240.269986 247.597603 
L 242.819095 246.839218 
L 245.368205 246.092084 
L 247.917314 245.356535 
L 250.466423 244.632748 
L 253.015532 243.920736 
L 255.564641 243.220361 
L 258.113751 242.531335 
L 260.66286 241.853225 
L 263.211969 241.185462 
L 265.761078 240.527345 
L 268.310187 239.878051 
L 270.859296 239.236646 
L 273.408406 238.602091 
L 275.957515 237.973256 
L 278.506624 237.348929 
L 281.055733 236.727832 
L 283.604842 236.108633 
L 286.153952 235.489959 
L 288.703061 234.870414 
L 291.25217 234.248594 
L 293.801279 233.623103 
L 296.350388 232.992589 
L 298.899497 232.366857 
L 301.448607 231.793345 
L 303.997716 231.205259 
L 306.546825 230.600494 
L 309.095934 229.977513 
L 311.645043 229.335048 
L 314.194153 228.672103 
L 316.743262 227.987974 
L 319.292371 227.282259 
L 321.84148 226.55487 
L 324.390589 225.806035 
L 326.939698 225.036306 
L 329.488808 224.246556 
L 332.037917 223.437978 
L 334.587026 222.612079 
L 337.136135 221.77067 
L 339.685244 220.915857 
L 342.234354 220.050024 
L 344.783463 219.175819 
L 347.332572 218.296134 
L 349.881681 217.414085 
L 352.43079 216.532989 
L 354.979899 215.656355 
L 357.529009 214.788161 
L 360.078118 213.960329 
L 362.627227 213.155497 
L 365.176336 212.367472 
L 367.725445 211.599694 
L 370.274555 210.855737 
L 372.823664 210.139239 
L 375.372773 209.453867 
L 377.921882 208.803291 
L 380.470991 208.191148 
L 383.020101 207.621011 
L 385.56921 207.096356 
L 388.118319 206.620529 
L 390.667428 206.19671 
L 393.216537 205.827881 
L 395.765646 205.516793 
L 398.314756 205.265932 
L 400.863865 205.077486 
L 403.412974 204.953317 
L 405.962083 204.894928 
L 408.511192 204.903438 
L 411.060302 204.979554 
L 413.609411 205.123549 
L 416.15852 205.335239 
L 418.707629 205.613966 
L 421.256738 205.958585 
L 423.805847 206.36745 
L 426.354957 206.838426 
L 428.904066 207.36892 
L 431.453175 207.955859 
L 434.002284 208.594906 
L 436.551393 209.281271 
L 439.100503 210.011047 
L 441.649612 210.779158 
L 444.198721 211.579673 
L 446.74783 212.406278 
L 449.296939 213.252254 
L 451.846048 214.110467 
L 454.395158 214.973392 
L 456.944267 215.833138 
L 459.493376 216.68148 
L 462.042485 217.509898 
L 464.591594 218.309616 
L 467.140704 219.071641 
L 469.689813 219.786813 
L 472.238922 220.445846 
L 474.788031 221.039379 
L 477.33714 221.558027 
L 479.886249 221.992431 
L 482.435359 222.333309 
L 484.984468 222.571514 
L 487.533577 222.698083 
L 490.082686 222.704295 
L 492.631795 222.581723 
L 495.180905 222.322289 
L 497.730014 221.918317 
L 500.279123 221.362589 
L 502.828232 220.648391 
L 505.377341 219.769569 
L 507.92645 218.720574 
L 510.47556 217.496511 
L 513.024669 216.093184 
L 515.573778 214.507141 
L 518.122887 212.735711 
L 520.671996 210.777059 
L 523.221106 208.630325 
L 525.770215 206.300732 
L 528.319324 203.792857 
L 530.868433 201.097553 
L 533.417542 198.216826 
L 535.966651 195.154112 
L 538.515761 191.913918 
L 541.06487 188.501817 
L 543.613979 184.924446 
L 546.163088 181.189502 
L 548.712197 177.305736 
L 551.261307 173.282941 
L 553.810416 169.131925 
L 556.359525 164.86449 
L 558.908634 160.493396 
L 561.457743 156.032332 
L 564.006852 151.495919 
L 566.555962 146.900358 
L 569.105071 142.265859 
L 571.65418 137.605018 
L 574.203289 132.932886 
L 576.752398 128.266931 
L 579.301508 123.625296 
L 581.850617 119.026623 
L 584.399726 114.489974 
L 586.948835 110.034753 
L 589.497944 105.680641 
L 592.047053 101.447526 
L 594.596163 97.355513 
L 597.145272 93.42511 
L 599.694381 89.675165 
L 602.24349 86.124106 
L 604.792599 82.793918 
L 607.341709 79.703625 
L 609.890818 76.871785 
L 612.439927 74.31673 
L 614.989036 72.056267 
L 617.538145 70.10757 
L 620.087254 68.487086 
L 622.636364 67.210454 
L 622.636364 66.665455 
L 622.636364 66.665455 
L 620.087254 68.093151 
L 617.538145 69.832266 
L 614.989036 71.871946 
L 612.439927 74.200137 
L 609.890818 76.803664 
L 607.341709 79.668305 
L 604.792599 82.778844 
L 602.24349 86.118963 
L 599.694381 89.671647 
L 597.145272 93.421881 
L 594.596163 97.350305 
L 592.047053 101.437391 
L 589.497944 105.664864 
L 586.948835 110.013831 
L 584.399726 114.465156 
L 581.850617 118.999644 
L 579.301508 123.598161 
L 576.752398 128.241735 
L 574.203289 132.911649 
L 571.65418 137.58952 
L 569.105071 142.257281 
L 566.555962 146.895584 
L 564.006852 151.48389 
L 561.457743 156.010674 
L 558.908634 160.46191 
L 556.359525 164.823612 
L 553.810416 169.082572 
L 551.261307 173.226446 
L 548.712197 177.2438 
L 546.163088 181.124132 
L 543.613979 184.857897 
L 541.06487 188.43652 
L 538.515761 191.85241 
L 535.966651 195.098964 
L 533.417542 198.170567 
L 530.868433 201.062586 
L 528.319324 203.771339 
L 525.770215 206.293717 
L 523.221106 208.617412 
L 520.671996 210.745757 
L 518.122887 212.684584 
L 515.573778 214.435436 
L 513.024669 216.000603 
L 510.47556 217.383184 
L 507.92645 218.587053 
L 505.377341 219.616815 
L 502.828232 220.477748 
L 500.279123 221.175756 
L 497.730014 221.717313 
L 495.180905 222.109406 
L 492.631795 222.359478 
L 490.082686 222.475375 
L 487.533577 222.465286 
L 484.984468 222.337688 
L 482.435359 222.101292 
L 479.886249 221.764989 
L 477.33714 221.337794 
L 474.788031 220.8288 
L 472.238922 220.247125 
L 469.689813 219.601867 
L 467.140704 218.902056 
L 464.591594 218.156614 
L 462.042485 217.374311 
L 459.493376 216.56373 
L 456.944267 215.733231 
L 454.395158 214.890914 
L 451.846048 214.044591 
L 449.296939 213.20176 
L 446.74783 212.369572 
L 444.198721 211.554811 
L 441.649612 210.763862 
L 439.100503 210.002664 
L 436.551393 209.276645 
L 434.002284 208.591172 
L 431.453175 207.951834 
L 428.904066 207.362372 
L 426.354957 206.826003 
L 423.805847 206.346225 
L 421.256738 205.92603 
L 418.707629 205.567882 
L 416.15852 205.273767 
L 413.609411 205.04521 
L 411.060302 204.883286 
L 408.511192 204.788632 
L 405.962083 204.761453 
L 403.412974 204.801544 
L 400.863865 204.908292 
L 398.314756 205.080704 
L 395.765646 205.317413 
L 393.216537 205.616707 
L 390.667428 205.976543 
L 388.118319 206.394571 
L 385.56921 206.86816 
L 383.020101 207.394416 
L 380.470991 207.970218 
L 377.921882 208.592234 
L 375.372773 209.256958 
L 372.823664 209.960735 
L 370.274555 210.699788 
L 367.725445 211.470253 
L 365.176336 212.268205 
L 362.627227 213.089684 
L 360.078118 213.930688 
L 357.529009 214.777723 
L 354.979899 215.606322 
L 352.43079 216.441554 
L 349.881681 217.280834 
L 347.332572 218.121449 
L 344.783463 218.960878 
L 342.234354 219.79681 
L 339.685244 220.627163 
L 337.136135 221.450085 
L 334.587026 222.263966 
L 332.037917 223.067434 
L 329.488808 223.859358 
L 326.939698 224.638847 
L 324.390589 225.405245 
L 321.84148 226.158124 
L 319.292371 226.897277 
L 316.743262 227.622709 
L 314.194153 228.334623 
L 311.645043 229.033412 
L 309.095934 229.719642 
L 306.546825 230.394036 
L 303.997716 231.057461 
L 301.448607 231.710901 
L 298.899497 232.355113 
L 296.350388 232.926471 
L 293.801279 233.475842 
L 291.25217 234.016671 
L 288.703061 234.551417 
L 286.153952 235.082612 
L 283.604842 235.612847 
L 281.055733 236.14474 
L 278.506624 236.680902 
L 275.957515 237.223901 
L 273.408406 237.776228 
L 270.859296 238.340265 
L 268.310187 238.918249 
L 265.761078 239.512238 
L 263.211969 240.124086 
L 260.66286 240.755409 
L 258.113751 241.407561 
L 255.564641 242.081609 
L 253.015532 242.778312 
L 250.466423 243.498103 
L 247.917314 244.241075 
L 245.368205 245.006966 
L 242.819095 245.795158 
L 240.269986 246.604667 
L 237.720877 247.434146 
L 235.171768 248.281892 
L 232.622659 249.145847 
L 230.07355 250.023619 
L 227.52444 250.912492 
L 224.975331 251.809449 
L 222.426222 252.711195 
L 219.877113 253.614184 
L 217.328004 254.51465 
L 214.778894 255.408642 
L 212.229785 256.292055 
L 209.680676 257.160662 
L 207.131567 258.009959 
L 204.582458 258.811139 
L 202.033349 259.584818 
L 199.484239 260.341795 
L 196.93513 261.079062 
L 194.386021 261.793379 
L 191.836912 262.469619 
L 189.287803 263.069648 
L 186.738693 263.618859 
L 184.189584 264.114629 
L 181.640475 264.55443 
L 179.091366 264.936125 
L 176.542257 265.258013 
L 173.993148 265.518861 
L 171.444038 265.717931 
L 168.894929 265.855008 
L 166.34582 265.930415 
L 163.796711 265.945032 
L 161.247602 265.900305 
L 158.698492 265.798257 
L 156.149383 265.641484 
L 153.600274 265.433156 
L 151.051165 265.17701 
L 148.502056 264.877338 
L 145.952947 264.53897 
L 143.403837 264.16725 
L 140.854728 263.768019 
L 138.305619 263.347575 
L 135.75651 262.912645 
L 133.207401 262.243246 
L 130.658291 261.142621 
L 128.109182 259.922373 
L 125.560073 258.580152 
L 123.010964 257.113863 
L 120.461855 255.521693 
L 117.912746 253.802129 
L 115.363636 251.953972 
z
" style="fill:#008000;fill-opacity:0.3;"/>
   </g>
   <g id="PolyCollection_2">
    <path clip-path="url(#p7ea27259ec)" d="M 115.363636 165.551523 
L 115.363636 362.571368 
L 117.912746 362.877271 
L 120.461855 363.081654 
L 123.010964 363.174545 
L 125.560073 363.146363 
L 128.109182 362.987967 
L 130.658291 362.690721 
L 133.207401 362.246551 
L 135.75651 361.648005 
L 138.305619 360.888328 
L 140.854728 359.961518 
L 143.403837 358.862397 
L 145.952947 357.586678 
L 148.502056 356.131026 
L 151.051165 354.49312 
L 153.600274 352.671713 
L 156.149383 350.666683 
L 158.698492 348.479077 
L 161.247602 346.111154 
L 163.796711 343.566415 
L 166.34582 340.849629 
L 168.894929 337.966841 
L 171.444038 334.925378 
L 173.993148 331.733839 
L 176.542257 328.402081 
L 179.091366 324.94118 
L 181.640475 321.363394 
L 184.189584 317.682107 
L 186.738693 313.911762 
L 189.287803 310.067783 
L 191.836912 306.166486 
L 194.386021 302.224983 
L 196.93513 298.261066 
L 199.484239 294.293098 
L 202.033349 290.339881 
L 204.582458 286.420524 
L 207.131567 284.932942 
L 209.680676 288.577993 
L 212.229785 292.103864 
L 214.778894 295.495478 
L 217.328004 298.7379 
L 219.877113 301.81643 
L 222.426222 304.716712 
L 224.975331 307.42483 
L 227.52444 309.927414 
L 230.07355 312.21173 
L 232.622659 314.265779 
L 235.171768 316.078383 
L 237.720877 317.639271 
L 240.269986 318.939159 
L 242.819095 319.969819 
L 245.368205 320.724143 
L 247.917314 321.196204 
L 250.466423 321.381301 
L 253.015532 321.276 
L 255.564641 320.878166 
L 258.113751 320.186981 
L 260.66286 319.202959 
L 263.211969 317.927949 
L 265.761078 316.365122 
L 268.310187 314.518963 
L 270.859296 312.395235 
L 273.408406 310.000951 
L 275.957515 307.344327 
L 278.506624 304.43473 
L 281.055733 301.282618 
L 283.604842 297.89947 
L 286.153952 294.297717 
L 288.703061 290.490657 
L 291.25217 286.492374 
L 293.801279 282.317645 
L 296.350388 277.981851 
L 298.899497 274.604415 
L 301.448607 277.679375 
L 303.997716 280.768368 
L 306.546825 283.85417 
L 309.095934 286.9202 
L 311.645043 289.950639 
L 314.194153 292.930548 
L 316.743262 295.845976 
L 319.292371 298.684058 
L 321.84148 301.433096 
L 324.390589 304.082634 
L 326.939698 306.623518 
L 329.488808 309.047942 
L 332.037917 311.349482 
L 334.587026 313.523112 
L 337.136135 315.565217 
L 339.685244 317.473577 
L 342.234354 319.247355 
L 344.783463 320.887059 
L 347.332572 322.394494 
L 349.881681 323.772711 
L 352.43079 325.025933 
L 354.979899 326.159481 
L 357.529009 327.179679 
L 360.078118 328.093761 
L 362.627227 328.909766 
L 365.176336 329.636426 
L 367.725445 330.283047 
L 370.274555 330.85939 
L 372.823664 331.375543 
L 375.372773 331.841799 
L 377.921882 332.268525 
L 380.470991 332.666036 
L 383.020101 333.044472 
L 385.56921 333.413676 
L 388.118319 333.783078 
L 390.667428 334.161589 
L 393.216537 334.557492 
L 395.765646 334.978357 
L 398.314756 335.43095 
L 400.863865 335.921167 
L 403.412974 336.453969 
L 405.962083 337.033334 
L 408.511192 337.662223 
L 411.060302 338.342558 
L 413.609411 339.075207 
L 416.15852 339.859993 
L 418.707629 340.695705 
L 421.256738 341.580126 
L 423.805847 342.510071 
L 426.354957 343.481429 
L 428.904066 344.489227 
L 431.453175 345.527684 
L 434.002284 346.590282 
L 436.551393 347.669841 
L 439.100503 348.758592 
L 441.649612 349.848252 
L 444.198721 350.930105 
L 446.74783 351.995076 
L 449.296939 353.033801 
L 451.846048 354.036702 
L 454.395158 354.994045 
L 456.944267 355.896004 
L 459.493376 356.732713 
L 462.042485 357.494307 
L 464.591594 358.170968 
L 467.140704 358.752948 
L 469.689813 359.230599 
L 472.238922 359.594387 
L 474.788031 359.834903 
L 477.33714 359.942865 
L 479.886249 359.909122 
L 482.435359 359.724644 
L 484.984468 359.380517 
L 487.533577 358.867934 
L 490.082686 358.178188 
L 492.631795 357.302661 
L 495.180905 356.232824 
L 497.730014 354.960238 
L 500.279123 353.476562 
L 502.828232 351.773567 
L 505.377341 349.843164 
L 507.92645 347.677444 
L 510.47556 345.26872 
L 513.024669 342.609595 
L 515.573778 339.693032 
L 518.122887 336.512447 
L 520.671996 333.061807 
L 523.221106 329.335748 
L 525.770215 326.053935 
L 528.319324 323.791455 
L 530.868433 320.903827 
L 533.417542 317.402569 
L 535.966651 313.303875 
L 538.515761 308.628498 
L 541.06487 303.401575 
L 543.613979 297.652407 
L 546.163088 291.414182 
L 548.712197 284.723659 
L 551.261307 277.620803 
L 553.810416 270.148389 
L 556.359525 262.351572 
L 558.908634 254.277427 
L 561.457743 245.974481 
L 564.006852 237.492218 
L 566.555962 228.880598 
L 569.105071 220.189556 
L 571.65418 211.46853 
L 574.203289 202.765995 
L 576.752398 194.129019 
L 579.301508 185.602848 
L 581.850617 177.230533 
L 584.399726 169.052585 
L 586.948835 161.106679 
L 589.497944 153.427401 
L 592.047053 146.04606 
L 594.596163 138.990679 
L 597.145272 132.28676 
L 599.694381 125.951669 
L 602.24349 120.009433 
L 604.792599 114.506779 
L 607.341709 109.47695 
L 609.890818 104.952745 
L 612.439927 100.965005 
L 614.989036 97.541742 
L 617.538145 94.70784 
L 620.087254 92.484822 
L 622.636364 90.890643 
L 622.636364 87.342376 
L 622.636364 87.342376 
L 620.087254 89.965586 
L 617.538145 92.998437 
L 614.989036 96.447618 
L 612.439927 100.317614 
L 609.890818 104.610444 
L 607.341709 109.325397 
L 604.792599 114.458783 
L 602.24349 120.003154 
L 599.694381 125.945946 
L 597.145272 132.282728 
L 594.596163 138.981288 
L 592.047053 145.99799 
L 589.497944 153.292949 
L 586.948835 160.824839 
L 584.399726 168.552121 
L 581.850617 176.43355 
L 579.301508 184.428524 
L 576.752398 192.497402 
L 574.203289 200.601804 
L 571.65418 208.70488 
L 569.105071 216.77155 
L 566.555962 224.76871 
L 564.006852 232.665407 
L 561.457743 240.432979 
L 558.908634 248.045161 
L 556.359525 255.47815 
L 553.810416 262.710647 
L 551.261307 269.723862 
L 548.712197 276.501481 
L 546.163088 283.029623 
L 543.613979 289.296754 
L 541.06487 295.293591 
L 538.515761 301.012985 
L 535.966651 306.449784 
L 533.417542 311.600692 
L 530.868433 316.464115 
L 528.319324 321.040001 
L 525.770215 325.329684 
L 523.221106 327.684463 
L 520.671996 328.681024 
L 518.122887 329.046259 
L 515.573778 328.78742 
L 513.024669 327.916206 
L 510.47556 326.448566 
L 507.92645 324.404463 
L 505.377341 321.807591 
L 502.828232 318.68507 
L 500.279123 315.0671 
L 497.730014 310.986598 
L 495.180905 306.47882 
L 492.631795 301.580965 
L 490.082686 296.331776 
L 487.533577 290.771139 
L 484.984468 284.939688 
L 482.435359 278.878417 
L 479.886249 272.628308 
L 477.33714 266.229978 
L 474.788031 259.723344 
L 472.238922 253.147315 
L 469.689813 246.539519 
L 467.140704 239.936046 
L 464.591594 233.371236 
L 462.042485 226.877493 
L 459.493376 220.485135 
L 456.944267 214.222272 
L 454.395158 208.114729 
L 451.846048 202.185987 
L 449.296939 196.457164 
L 446.74783 190.947021 
L 444.198721 185.672 
L 441.649612 180.646279 
L 439.100503 175.881855 
L 436.551393 171.388647 
L 434.002284 167.17461 
L 431.453175 163.245871 
L 428.904066 159.606868 
L 426.354957 156.2605 
L 423.805847 153.208286 
L 421.256738 150.450516 
L 418.707629 147.98641 
L 416.15852 145.814271 
L 413.609411 143.931628 
L 411.060302 142.33538 
L 408.511192 141.021919 
L 405.962083 139.98725 
L 403.412974 139.227094 
L 400.863865 138.73698 
L 398.314756 138.512318 
L 395.765646 138.548461 
L 393.216537 138.840755 
L 390.667428 139.384565 
L 388.118319 140.175294 
L 385.56921 141.208391 
L 383.020101 142.479339 
L 380.470991 143.983639 
L 377.921882 145.71678 
L 375.372773 147.674204 
L 372.823664 149.851261 
L 370.274555 152.243159 
L 367.725445 154.844915 
L 365.176336 157.651294 
L 362.627227 160.65676 
L 360.078118 163.855413 
L 357.529009 167.240939 
L 354.979899 170.806557 
L 352.43079 174.544969 
L 349.881681 178.44832 
L 347.332572 182.50816 
L 344.783463 186.715408 
L 342.234354 191.060333 
L 339.685244 195.532536 
L 337.136135 200.120937 
L 334.587026 204.81378 
L 332.037917 209.598636 
L 329.488808 214.462421 
L 326.939698 219.391421 
L 324.390589 224.371325 
L 321.84148 229.387268 
L 319.292371 234.423878 
L 316.743262 239.465335 
L 314.194153 244.495434 
L 311.645043 249.497659 
L 309.095934 254.45526 
L 306.546825 259.35133 
L 303.997716 264.168899 
L 301.448607 268.891023 
L 298.899497 273.500873 
L 296.350388 271.561195 
L 293.801279 268.567816 
L 291.25217 265.642571 
L 288.703061 262.803825 
L 286.153952 260.069856 
L 283.604842 257.458704 
L 281.055733 254.988011 
L 278.506624 252.674876 
L 275.957515 250.535702 
L 273.408406 248.586058 
L 270.859296 246.840536 
L 268.310187 245.312627 
L 265.761078 244.014596 
L 263.211969 242.957378 
L 260.66286 242.150471 
L 258.113751 241.601856 
L 255.564641 241.317923 
L 253.015532 241.303407 
L 250.466423 241.561349 
L 247.917314 242.093061 
L 245.368205 242.898115 
L 242.819095 243.97434 
L 240.269986 245.317843 
L 237.720877 246.923034 
L 235.171768 248.782675 
L 232.622659 250.887941 
L 230.07355 253.22849 
L 227.52444 255.792552 
L 224.975331 258.567028 
L 222.426222 261.537594 
L 219.877113 264.688825 
L 217.328004 268.004317 
L 214.778894 271.466826 
L 212.229785 275.058402 
L 209.680676 278.760536 
L 207.131567 282.554304 
L 204.582458 281.183814 
L 202.033349 277.345666 
L 199.484239 273.433383 
L 196.93513 269.461602 
L 194.386021 265.444621 
L 191.836912 261.396318 
L 189.287803 257.330071 
L 186.738693 253.25869 
L 184.189584 249.194353 
L 181.640475 245.14855 
L 179.091366 241.132036 
L 176.542257 237.154793 
L 173.993148 233.225996 
L 171.444038 229.353988 
L 168.894929 225.546274 
L 166.34582 221.809504 
L 163.796711 218.149482 
L 161.247602 214.571171 
L 158.698492 211.07871 
L 156.149383 207.675437 
L 153.600274 204.363919 
L 151.051165 201.145981 
L 148.502056 198.02275 
L 145.952947 194.994692 
L 143.403837 192.061659 
L 140.854728 189.222935 
L 138.305619 186.477284 
L 135.75651 183.822995 
L 133.207401 181.257931 
L 130.658291 178.779576 
L 128.109182 176.385074 
L 125.560073 174.071272 
L 123.010964 171.834754 
L 120.461855 169.67188 
L 117.912746 167.578808 
L 115.363636 165.551523 
z
" style="fill:#bfbf00;fill-opacity:0.3;"/>
   </g>
   <g id="PathCollection_1">
    <defs>
     <path d="M 0 3.162278 
C 0.838646 3.162278 1.643056 2.82908 2.236068 2.236068 
C 2.82908 1.643056 3.162278 0.838646 3.162278 0 
C 3.162278 -0.838646 2.82908 -1.643056 2.236068 -2.236068 
C 1.643056 -2.82908 0.838646 -3.162278 0 -3.162278 
C -0.838646 -3.162278 -1.643056 -2.82908 -2.236068 -2.236068 
C -2.82908 -1.643056 -3.162278 -0.838646 -3.162278 0 
C -3.162278 0.838646 -2.82908 1.643056 -2.236068 2.236068 
C -1.643056 2.82908 -0.838646 3.162278 0 3.162278 
z
" id="m25ea6b6274" style="stroke:#0000ff;"/>
    </defs>
    <g clip-path="url(#p7ea27259ec)">
     <use style="fill:#0000ff;stroke:#0000ff;" x="430.567563" xlink:href="#m25ea6b6274" y="207.743504"/>
     <use style="fill:#0000ff;stroke:#0000ff;" x="298.529287" xlink:href="#m25ea6b6274" y="232.448513"/>
     <use style="fill:#0000ff;stroke:#0000ff;" x="601.814984" xlink:href="#m25ea6b6274" y="86.704101"/>
     <use style="fill:#0000ff;stroke:#0000ff;" x="192.454326" xlink:href="#m25ea6b6274" y="262.317599"/>
     <use style="fill:#0000ff;stroke:#0000ff;" x="598.00417" xlink:href="#m25ea6b6274" y="92.138528"/>
     <use style="fill:#0000ff;stroke:#0000ff;" x="358.135651" xlink:href="#m25ea6b6274" y="214.582523"/>
     <use style="fill:#0000ff;stroke:#0000ff;" x="524.951947" xlink:href="#m25ea6b6274" y="207.064669"/>
     <use style="fill:#0000ff;stroke:#0000ff;" x="436.433779" xlink:href="#m25ea6b6274" y="209.246355"/>
     <use style="fill:#0000ff;stroke:#0000ff;" x="206.329532" xlink:href="#m25ea6b6274" y="258.273039"/>
     <use style="fill:#0000ff;stroke:#0000ff;" x="134.213627" xlink:href="#m25ea6b6274" y="262.645374"/>
     <use style="fill:#0000ff;stroke:#0000ff;" x="595.556449" xlink:href="#m25ea6b6274" y="95.853088"/>
     <use style="fill:#0000ff;stroke:#0000ff;" x="566.927135" xlink:href="#m25ea6b6274" y="146.225246"/>
    </g>
   </g>
   <g id="PathCollection_2">
    <defs>
     <path d="M 0 3.162278 
C 0.838646 3.162278 1.643056 2.82908 2.236068 2.236068 
C 2.82908 1.643056 3.162278 0.838646 3.162278 0 
C 3.162278 -0.838646 2.82908 -1.643056 2.236068 -2.236068 
C 1.643056 -2.82908 0.838646 -3.162278 0 -3.162278 
C -0.838646 -3.162278 -1.643056 -2.82908 -2.236068 -2.236068 
C -2.82908 -1.643056 -3.162278 -0.838646 -3.162278 0 
C -3.162278 0.838646 -2.82908 1.643056 -2.236068 2.236068 
C -1.643056 2.82908 -0.838646 3.162278 0 3.162278 
z
" id="m4e329acb89" style="stroke:#ff0000;"/>
    </defs>
    <g clip-path="url(#p7ea27259ec)">
     <use style="fill:#ff0000;stroke:#ff0000;" x="206.329532" xlink:href="#m4e329acb89" y="283.763847"/>
     <use style="fill:#ff0000;stroke:#ff0000;" x="598.00417" xlink:href="#m4e329acb89" y="130.107639"/>
     <use style="fill:#ff0000;stroke:#ff0000;" x="601.814984" xlink:href="#m4e329acb89" y="120.976605"/>
     <use style="fill:#ff0000;stroke:#ff0000;" x="524.951947" xlink:href="#m4e329acb89" y="326.646395"/>
     <use style="fill:#ff0000;stroke:#ff0000;" x="298.529287" xlink:href="#m4e329acb89" y="274.160044"/>
     <use style="fill:#ff0000;stroke:#ff0000;" x="595.556449" xlink:href="#m4e329acb89" y="136.42054"/>
    </g>
   </g>
   <g id="matplotlib.axis_1">
    <g id="xtick_1">
     <g id="line2d_1">
      <defs>
       <path d="M 0 0 
L 0 3.5 
" id="m45ef7538ba" style="stroke:#000000;stroke-width:0.8;"/>
      </defs>
      <g>
       <use style="stroke:#000000;stroke-width:0.8;" x="115.363636" xlink:href="#m45ef7538ba" y="378"/>
      </g>
     </g>
     <g id="text_1">
      <!-- 0.0 -->
      <defs>
       <path d="M 31.78125 66.40625 
Q 24.171875 66.40625 20.328125 58.90625 
Q 16.5 51.421875 16.5 36.375 
Q 16.5 21.390625 20.328125 13.890625 
Q 24.171875 6.390625 31.78125 6.390625 
Q 39.453125 6.390625 43.28125 13.890625 
Q 47.125 21.390625 47.125 36.375 
Q 47.125 51.421875 43.28125 58.90625 
Q 39.453125 66.40625 31.78125 66.40625 
z
M 31.78125 74.21875 
Q 44.046875 74.21875 50.515625 64.515625 
Q 56.984375 54.828125 56.984375 36.375 
Q 56.984375 17.96875 50.515625 8.265625 
Q 44.046875 -1.421875 31.78125 -1.421875 
Q 19.53125 -1.421875 13.0625 8.265625 
Q 6.59375 17.96875 6.59375 36.375 
Q 6.59375 54.828125 13.0625 64.515625 
Q 19.53125 74.21875 31.78125 74.21875 
z
" id="DejaVuSans-48"/>
       <path d="M 10.6875 12.40625 
L 21 12.40625 
L 21 0 
L 10.6875 0 
z
" id="DejaVuSans-46"/>
      </defs>
      <g transform="translate(97.870199 401.716563)scale(0.22 -0.22)">
       <use xlink:href="#DejaVuSans-48"/>
       <use x="63.623047" xlink:href="#DejaVuSans-46"/>
       <use x="95.410156" xlink:href="#DejaVuSans-48"/>
      </g>
     </g>
    </g>
    <g id="xtick_2">
     <g id="line2d_2">
      <g>
       <use style="stroke:#000000;stroke-width:0.8;" x="216.818182" xlink:href="#m45ef7538ba" y="378"/>
      </g>
     </g>
     <g id="text_2">
      <!-- 0.2 -->
      <defs>
       <path d="M 19.1875 8.296875 
L 53.609375 8.296875 
L 53.609375 0 
L 7.328125 0 
L 7.328125 8.296875 
Q 12.9375 14.109375 22.625 23.890625 
Q 32.328125 33.6875 34.8125 36.53125 
Q 39.546875 41.84375 41.421875 45.53125 
Q 43.3125 49.21875 43.3125 52.78125 
Q 43.3125 58.59375 39.234375 62.25 
Q 35.15625 65.921875 28.609375 65.921875 
Q 23.96875 65.921875 18.8125 64.3125 
Q 13.671875 62.703125 7.8125 59.421875 
L 7.8125 69.390625 
Q 13.765625 71.78125 18.9375 73 
Q 24.125 74.21875 28.421875 74.21875 
Q 39.75 74.21875 46.484375 68.546875 
Q 53.21875 62.890625 53.21875 53.421875 
Q 53.21875 48.921875 51.53125 44.890625 
Q 49.859375 40.875 45.40625 35.40625 
Q 44.1875 33.984375 37.640625 27.21875 
Q 31.109375 20.453125 19.1875 8.296875 
z
" id="DejaVuSans-50"/>
      </defs>
      <g transform="translate(199.324744 401.716563)scale(0.22 -0.22)">
       <use xlink:href="#DejaVuSans-48"/>
       <use x="63.623047" xlink:href="#DejaVuSans-46"/>
       <use x="95.410156" xlink:href="#DejaVuSans-50"/>
      </g>
     </g>
    </g>
    <g id="xtick_3">
     <g id="line2d_3">
      <g>
       <use style="stroke:#000000;stroke-width:0.8;" x="318.272727" xlink:href="#m45ef7538ba" y="378"/>
      </g>
     </g>
     <g id="text_3">
      <!-- 0.4 -->
      <defs>
       <path d="M 37.796875 64.3125 
L 12.890625 25.390625 
L 37.796875 25.390625 
z
M 35.203125 72.90625 
L 47.609375 72.90625 
L 47.609375 25.390625 
L 58.015625 25.390625 
L 58.015625 17.1875 
L 47.609375 17.1875 
L 47.609375 0 
L 37.796875 0 
L 37.796875 17.1875 
L 4.890625 17.1875 
L 4.890625 26.703125 
z
" id="DejaVuSans-52"/>
      </defs>
      <g transform="translate(300.77929 401.716563)scale(0.22 -0.22)">
       <use xlink:href="#DejaVuSans-48"/>
       <use x="63.623047" xlink:href="#DejaVuSans-46"/>
       <use x="95.410156" xlink:href="#DejaVuSans-52"/>
      </g>
     </g>
    </g>
    <g id="xtick_4">
     <g id="line2d_4">
      <g>
       <use style="stroke:#000000;stroke-width:0.8;" x="419.727273" xlink:href="#m45ef7538ba" y="378"/>
      </g>
     </g>
     <g id="text_4">
      <!-- 0.6 -->
      <defs>
       <path d="M 33.015625 40.375 
Q 26.375 40.375 22.484375 35.828125 
Q 18.609375 31.296875 18.609375 23.390625 
Q 18.609375 15.53125 22.484375 10.953125 
Q 26.375 6.390625 33.015625 6.390625 
Q 39.65625 6.390625 43.53125 10.953125 
Q 47.40625 15.53125 47.40625 23.390625 
Q 47.40625 31.296875 43.53125 35.828125 
Q 39.65625 40.375 33.015625 40.375 
z
M 52.59375 71.296875 
L 52.59375 62.3125 
Q 48.875 64.0625 45.09375 64.984375 
Q 41.3125 65.921875 37.59375 65.921875 
Q 27.828125 65.921875 22.671875 59.328125 
Q 17.53125 52.734375 16.796875 39.40625 
Q 19.671875 43.65625 24.015625 45.921875 
Q 28.375 48.1875 33.59375 48.1875 
Q 44.578125 48.1875 50.953125 41.515625 
Q 57.328125 34.859375 57.328125 23.390625 
Q 57.328125 12.15625 50.6875 5.359375 
Q 44.046875 -1.421875 33.015625 -1.421875 
Q 20.359375 -1.421875 13.671875 8.265625 
Q 6.984375 17.96875 6.984375 36.375 
Q 6.984375 53.65625 15.1875 63.9375 
Q 23.390625 74.21875 37.203125 74.21875 
Q 40.921875 74.21875 44.703125 73.484375 
Q 48.484375 72.75 52.59375 71.296875 
z
" id="DejaVuSans-54"/>
      </defs>
      <g transform="translate(402.233835 401.716563)scale(0.22 -0.22)">
       <use xlink:href="#DejaVuSans-48"/>
       <use x="63.623047" xlink:href="#DejaVuSans-46"/>
       <use x="95.410156" xlink:href="#DejaVuSans-54"/>
      </g>
     </g>
    </g>
    <g id="xtick_5">
     <g id="line2d_5">
      <g>
       <use style="stroke:#000000;stroke-width:0.8;" x="521.181818" xlink:href="#m45ef7538ba" y="378"/>
      </g>
     </g>
     <g id="text_5">
      <!-- 0.8 -->
      <defs>
       <path d="M 31.78125 34.625 
Q 24.75 34.625 20.71875 30.859375 
Q 16.703125 27.09375 16.703125 20.515625 
Q 16.703125 13.921875 20.71875 10.15625 
Q 24.75 6.390625 31.78125 6.390625 
Q 38.8125 6.390625 42.859375 10.171875 
Q 46.921875 13.96875 46.921875 20.515625 
Q 46.921875 27.09375 42.890625 30.859375 
Q 38.875 34.625 31.78125 34.625 
z
M 21.921875 38.8125 
Q 15.578125 40.375 12.03125 44.71875 
Q 8.5 49.078125 8.5 55.328125 
Q 8.5 64.0625 14.71875 69.140625 
Q 20.953125 74.21875 31.78125 74.21875 
Q 42.671875 74.21875 48.875 69.140625 
Q 55.078125 64.0625 55.078125 55.328125 
Q 55.078125 49.078125 51.53125 44.71875 
Q 48 40.375 41.703125 38.8125 
Q 48.828125 37.15625 52.796875 32.3125 
Q 56.78125 27.484375 56.78125 20.515625 
Q 56.78125 9.90625 50.3125 4.234375 
Q 43.84375 -1.421875 31.78125 -1.421875 
Q 19.734375 -1.421875 13.25 4.234375 
Q 6.78125 9.90625 6.78125 20.515625 
Q 6.78125 27.484375 10.78125 32.3125 
Q 14.796875 37.15625 21.921875 38.8125 
z
M 18.3125 54.390625 
Q 18.3125 48.734375 21.84375 45.5625 
Q 25.390625 42.390625 31.78125 42.390625 
Q 38.140625 42.390625 41.71875 45.5625 
Q 45.3125 48.734375 45.3125 54.390625 
Q 45.3125 60.0625 41.71875 63.234375 
Q 38.140625 66.40625 31.78125 66.40625 
Q 25.390625 66.40625 21.84375 63.234375 
Q 18.3125 60.0625 18.3125 54.390625 
z
" id="DejaVuSans-56"/>
      </defs>
      <g transform="translate(503.688381 401.716563)scale(0.22 -0.22)">
       <use xlink:href="#DejaVuSans-48"/>
       <use x="63.623047" xlink:href="#DejaVuSans-46"/>
       <use x="95.410156" xlink:href="#DejaVuSans-56"/>
      </g>
     </g>
    </g>
    <g id="xtick_6">
     <g id="line2d_6">
      <g>
       <use style="stroke:#000000;stroke-width:0.8;" x="622.636364" xlink:href="#m45ef7538ba" y="378"/>
      </g>
     </g>
     <g id="text_6">
      <!-- 1.0 -->
      <defs>
       <path d="M 12.40625 8.296875 
L 28.515625 8.296875 
L 28.515625 63.921875 
L 10.984375 60.40625 
L 10.984375 69.390625 
L 28.421875 72.90625 
L 38.28125 72.90625 
L 38.28125 8.296875 
L 54.390625 8.296875 
L 54.390625 0 
L 12.40625 0 
z
" id="DejaVuSans-49"/>
      </defs>
      <g transform="translate(605.142926 401.716563)scale(0.22 -0.22)">
       <use xlink:href="#DejaVuSans-49"/>
       <use x="63.623047" xlink:href="#DejaVuSans-46"/>
       <use x="95.410156" xlink:href="#DejaVuSans-48"/>
      </g>
     </g>
    </g>
    <g id="text_7">
     <!-- $x$ -->
     <defs>
      <path d="M 60.015625 54.6875 
L 34.90625 27.875 
L 50.296875 0 
L 39.984375 0 
L 28.421875 21.6875 
L 8.296875 0 
L -2.59375 0 
L 24.3125 28.8125 
L 10.015625 54.6875 
L 20.3125 54.6875 
L 30.8125 34.90625 
L 49.125 54.6875 
z
" id="DejaVuSans-Oblique-120"/>
     </defs>
     <g transform="translate(362.4 427.008438)scale(0.22 -0.22)">
      <use transform="translate(0 0.3125)" xlink:href="#DejaVuSans-Oblique-120"/>
     </g>
    </g>
   </g>
   <g id="matplotlib.axis_2">
    <g id="ytick_1">
     <g id="line2d_7">
      <defs>
       <path d="M 0 0 
L -3.5 0 
" id="m6d5210f8cd" style="stroke:#000000;stroke-width:0.8;"/>
      </defs>
      <g>
       <use style="stroke:#000000;stroke-width:0.8;" x="90" xlink:href="#m6d5210f8cd" y="332.096875"/>
      </g>
     </g>
     <g id="text_8">
      <!-- −5 -->
      <defs>
       <path d="M 10.59375 35.5 
L 73.1875 35.5 
L 73.1875 27.203125 
L 10.59375 27.203125 
z
" id="DejaVuSans-8722"/>
       <path d="M 10.796875 72.90625 
L 49.515625 72.90625 
L 49.515625 64.59375 
L 19.828125 64.59375 
L 19.828125 46.734375 
Q 21.96875 47.46875 24.109375 47.828125 
Q 26.265625 48.1875 28.421875 48.1875 
Q 40.625 48.1875 47.75 41.5 
Q 54.890625 34.8125 54.890625 23.390625 
Q 54.890625 11.625 47.5625 5.09375 
Q 40.234375 -1.421875 26.90625 -1.421875 
Q 22.3125 -1.421875 17.546875 -0.640625 
Q 12.796875 0.140625 7.71875 1.703125 
L 7.71875 11.625 
Q 12.109375 9.234375 16.796875 8.0625 
Q 21.484375 6.890625 26.703125 6.890625 
Q 35.15625 6.890625 40.078125 11.328125 
Q 45.015625 15.765625 45.015625 23.390625 
Q 45.015625 31 40.078125 35.4375 
Q 35.15625 39.890625 26.703125 39.890625 
Q 22.75 39.890625 18.8125 39.015625 
Q 14.890625 38.140625 10.796875 36.28125 
z
" id="DejaVuSans-53"/>
      </defs>
      <g transform="translate(50.567188 340.455156)scale(0.22 -0.22)">
       <use xlink:href="#DejaVuSans-8722"/>
       <use x="83.789062" xlink:href="#DejaVuSans-53"/>
      </g>
     </g>
    </g>
    <g id="ytick_2">
     <g id="line2d_8">
      <g>
       <use style="stroke:#000000;stroke-width:0.8;" x="90" xlink:href="#m6d5210f8cd" y="274.264812"/>
      </g>
     </g>
     <g id="text_9">
      <!-- 0 -->
      <g transform="translate(69.0025 282.623093)scale(0.22 -0.22)">
       <use xlink:href="#DejaVuSans-48"/>
      </g>
     </g>
    </g>
    <g id="ytick_3">
     <g id="line2d_9">
      <g>
       <use style="stroke:#000000;stroke-width:0.8;" x="90" xlink:href="#m6d5210f8cd" y="216.432749"/>
      </g>
     </g>
     <g id="text_10">
      <!-- 5 -->
      <g transform="translate(69.0025 224.79103)scale(0.22 -0.22)">
       <use xlink:href="#DejaVuSans-53"/>
      </g>
     </g>
    </g>
    <g id="ytick_4">
     <g id="line2d_10">
      <g>
       <use style="stroke:#000000;stroke-width:0.8;" x="90" xlink:href="#m6d5210f8cd" y="158.600686"/>
      </g>
     </g>
     <g id="text_11">
      <!-- 10 -->
      <g transform="translate(55.005 166.958967)scale(0.22 -0.22)">
       <use xlink:href="#DejaVuSans-49"/>
       <use x="63.623047" xlink:href="#DejaVuSans-48"/>
      </g>
     </g>
    </g>
    <g id="ytick_5">
     <g id="line2d_11">
      <g>
       <use style="stroke:#000000;stroke-width:0.8;" x="90" xlink:href="#m6d5210f8cd" y="100.768623"/>
      </g>
     </g>
     <g id="text_12">
      <!-- 15 -->
      <g transform="translate(55.005 109.126904)scale(0.22 -0.22)">
       <use xlink:href="#DejaVuSans-49"/>
       <use x="63.623047" xlink:href="#DejaVuSans-53"/>
      </g>
     </g>
    </g>
    <g id="text_13">
     <!-- $f(x)$ -->
     <defs>
      <path d="M 47.796875 75.984375 
L 46.390625 68.5 
L 37.796875 68.5 
Q 32.90625 68.5 30.6875 66.578125 
Q 28.46875 64.65625 27.390625 59.515625 
L 26.421875 54.6875 
L 41.21875 54.6875 
L 39.890625 47.703125 
L 25.09375 47.703125 
L 15.828125 0 
L 6.78125 0 
L 16.109375 47.703125 
L 7.515625 47.703125 
L 8.796875 54.6875 
L 17.390625 54.6875 
L 18.109375 58.5 
Q 19.96875 68.171875 24.625 72.078125 
Q 29.296875 75.984375 39.3125 75.984375 
z
" id="DejaVuSans-Oblique-102"/>
      <path d="M 31 75.875 
Q 24.46875 64.65625 21.28125 53.65625 
Q 18.109375 42.671875 18.109375 31.390625 
Q 18.109375 20.125 21.3125 9.0625 
Q 24.515625 -2 31 -13.1875 
L 23.1875 -13.1875 
Q 15.875 -1.703125 12.234375 9.375 
Q 8.59375 20.453125 8.59375 31.390625 
Q 8.59375 42.28125 12.203125 53.3125 
Q 15.828125 64.359375 23.1875 75.875 
z
" id="DejaVuSans-40"/>
      <path d="M 8.015625 75.875 
L 15.828125 75.875 
Q 23.140625 64.359375 26.78125 53.3125 
Q 30.421875 42.28125 30.421875 31.390625 
Q 30.421875 20.453125 26.78125 9.375 
Q 23.140625 -1.703125 15.828125 -13.1875 
L 8.015625 -13.1875 
Q 14.5 -2 17.703125 9.0625 
Q 20.90625 20.125 20.90625 31.390625 
Q 20.90625 42.671875 17.703125 53.65625 
Q 14.5 64.65625 8.015625 75.875 
z
" id="DejaVuSans-41"/>
     </defs>
     <g transform="translate(41.991875 233.95)rotate(-90)scale(0.22 -0.22)">
      <use transform="translate(0 0.015625)" xlink:href="#DejaVuSans-Oblique-102"/>
      <use transform="translate(35.205078 0.015625)" xlink:href="#DejaVuSans-40"/>
      <use transform="translate(74.21875 0.015625)" xlink:href="#DejaVuSans-Oblique-120"/>
      <use transform="translate(133.398438 0.015625)" xlink:href="#DejaVuSans-41"/>
     </g>
    </g>
   </g>
   <g id="line2d_12">
    <path clip-path="url(#p7ea27259ec)" d="M 115.363636 256.757832 
L 125.560073 260.117643 
L 133.207401 262.374947 
L 138.305619 263.668304 
L 143.403837 264.750869 
L 148.502056 265.595991 
L 153.600274 266.185048 
L 158.698492 266.507277 
L 163.796711 266.559417 
L 168.894929 266.345204 
L 173.993148 265.874719 
L 179.091366 265.163617 
L 184.189584 264.232266 
L 189.287803 263.104816 
L 196.93513 261.105448 
L 204.582458 258.823565 
L 214.778894 255.513003 
L 237.720877 247.945138 
L 247.917314 244.862595 
L 258.113751 242.043708 
L 268.310187 239.469798 
L 283.604842 235.903857 
L 301.448607 231.743834 
L 311.645043 229.151587 
L 321.84148 226.31063 
L 332.037917 223.207189 
L 344.783463 219.04005 
L 362.627227 213.132029 
L 370.274555 210.800951 
L 377.921882 208.730187 
L 383.020101 207.543251 
L 388.118319 206.543691 
L 393.216537 205.756703 
L 398.314756 205.204022 
L 403.412974 204.902973 
L 408.511192 204.865586 
L 413.609411 205.097789 
L 418.707629 205.598721 
L 423.805847 206.360163 
L 428.904066 207.366144 
L 434.002284 208.592695 
L 439.100503 210.007811 
L 446.74783 212.394692 
L 467.140704 219.02209 
L 472.238922 220.388429 
L 477.33714 221.495061 
L 482.435359 222.267633 
L 487.533577 222.632812 
L 490.082686 222.640407 
L 492.631795 222.519977 
L 495.180905 222.263404 
L 497.730014 221.862956 
L 500.279123 221.311346 
L 502.828232 220.601778 
L 505.377341 219.728005 
L 507.92645 218.684379 
L 510.47556 217.465898 
L 513.024669 216.068255 
L 515.573778 214.487884 
L 518.122887 212.721999 
L 520.671996 210.768636 
L 523.221106 208.62669 
L 525.770215 206.295946 
L 528.319324 203.777111 
L 530.868433 201.071836 
L 533.417542 198.182742 
L 535.966651 195.113431 
L 541.06487 188.453575 
L 546.163088 181.141161 
L 551.261307 173.241152 
L 556.359525 164.834284 
L 561.457743 156.016431 
L 569.105071 142.263357 
L 584.399726 114.4833 
L 589.497944 105.676214 
L 594.596163 97.353616 
L 599.694381 89.672916 
L 602.24349 86.121932 
L 604.792599 82.789265 
L 607.341709 79.693464 
L 609.890818 76.852556 
L 612.439927 74.283955 
L 614.989036 72.004366 
L 617.538145 70.029686 
L 620.087254 68.374919 
L 622.636364 67.05408 
L 622.636364 67.05408 
" style="fill:none;stroke:#0000ff;stroke-linecap:square;stroke-width:3;"/>
   </g>
   <g id="line2d_13">
    <path clip-path="url(#p7ea27259ec)" d="M 115.363636 239.250852 
L 125.560073 250.620288 
L 130.658291 256.029399 
L 135.75651 261.126805 
L 140.854728 265.835304 
L 145.952947 270.093553 
L 151.051165 273.8563 
L 153.600274 275.542088 
L 156.149383 277.094226 
L 158.698492 278.511452 
L 161.247602 279.793414 
L 163.796711 280.940639 
L 166.34582 281.954488 
L 168.894929 282.83712 
L 171.444038 283.591442 
L 173.993148 284.221057 
L 176.542257 284.730217 
L 181.640475 285.407061 
L 186.738693 285.666732 
L 191.836912 285.560584 
L 196.93513 285.144598 
L 202.033349 284.477412 
L 207.131567 283.61839 
L 214.778894 282.096881 
L 232.622659 278.35637 
L 240.269986 276.997527 
L 247.917314 275.907961 
L 255.564641 275.117611 
L 263.211969 274.61649 
L 270.859296 274.35935 
L 281.055733 274.266313 
L 298.899497 274.15167 
L 306.546825 273.870602 
L 314.194153 273.338987 
L 321.84148 272.515184 
L 329.488808 271.393462 
L 337.136135 270.008359 
L 347.332572 267.889443 
L 360.078118 265.23007 
L 365.176336 264.320154 
L 370.274555 263.582444 
L 375.372773 263.076135 
L 380.470991 262.860315 
L 385.56921 262.992071 
L 390.667428 263.524519 
L 393.216537 263.95603 
L 395.765646 264.504831 
L 398.314756 265.175574 
L 400.863865 265.972298 
L 403.412974 266.898383 
L 405.962083 267.956489 
L 408.511192 269.148515 
L 411.060302 270.47555 
L 413.609411 271.93783 
L 416.15852 273.534704 
L 421.256738 277.124994 
L 426.354957 281.222309 
L 431.453175 285.786747 
L 436.551393 290.762322 
L 441.649612 296.077066 
L 449.296939 304.489812 
L 462.042485 318.768445 
L 467.140704 324.197955 
L 472.238922 329.255541 
L 477.33714 333.79371 
L 479.886249 335.821505 
L 482.435359 337.663762 
L 484.984468 339.302238 
L 487.533577 340.719028 
L 490.082686 341.89667 
L 492.631795 342.818264 
L 495.180905 343.467571 
L 497.730014 343.829131 
L 500.279123 343.888363 
L 502.828232 343.63168 
L 505.377341 343.046589 
L 507.92645 342.12179 
L 510.47556 340.847281 
L 513.024669 339.214449 
L 515.573778 337.21616 
L 518.122887 334.846843 
L 520.671996 332.102571 
L 523.221106 328.981132 
L 525.770215 325.482099 
L 528.319324 321.606882 
L 530.868433 317.358786 
L 533.417542 312.74305 
L 535.966651 307.766882 
L 538.515761 302.439487 
L 541.06487 296.772077 
L 543.613979 290.777885 
L 548.712197 277.872136 
L 553.810416 263.868052 
L 558.908634 248.942444 
L 564.006852 233.30152 
L 571.65418 209.016088 
L 581.850617 176.503053 
L 586.948835 160.847175 
L 592.047053 146.002993 
L 597.145272 132.285393 
L 599.694381 125.94719 
L 602.24349 120.007676 
L 604.792599 114.504796 
L 607.341709 109.475647 
L 609.890818 104.956284 
L 612.439927 100.981537 
L 614.989036 97.584812 
L 617.538145 94.797906 
L 620.087254 92.650826 
L 622.636364 91.171601 
L 622.636364 91.171601 
" style="fill:none;stroke:#ff0000;stroke-linecap:square;stroke-width:3;"/>
   </g>
   <g id="line2d_14">
    <path clip-path="url(#p7ea27259ec)" d="M 115.363636 255.891739 
L 120.461855 257.970935 
L 125.560073 259.877917 
L 130.658291 261.585427 
L 135.75651 263.069787 
L 140.854728 264.311405 
L 145.952947 265.295196 
L 151.051165 266.010887 
L 156.149383 266.45321 
L 161.247602 266.621973 
L 166.34582 266.521996 
L 171.444038 266.16292 
L 176.542257 265.558883 
L 181.640475 264.728083 
L 186.738693 263.692228 
L 191.836912 262.475889 
L 199.484239 260.371817 
L 207.131567 258.017198 
L 219.877113 253.794345 
L 235.171768 248.713924 
L 245.368205 245.549525 
L 255.564641 242.650985 
L 265.761078 240.019791 
L 278.506624 237.014915 
L 303.997716 231.13136 
L 314.194153 228.503363 
L 324.390589 225.60564 
L 334.587026 222.438022 
L 347.332572 218.208792 
L 362.627227 213.12259 
L 370.274555 210.777763 
L 377.921882 208.697763 
L 383.020101 207.507714 
L 388.118319 206.50755 
L 393.216537 205.722294 
L 398.314756 205.173318 
L 403.412974 204.87743 
L 408.511192 204.846035 
L 413.609411 205.084379 
L 418.707629 205.590924 
L 423.805847 206.356838 
L 428.904066 207.365646 
L 434.002284 208.593039 
L 439.100503 210.006855 
L 446.74783 212.387925 
L 467.140704 218.986849 
L 472.238922 220.346486 
L 477.33714 221.447911 
L 482.435359 222.217301 
L 487.533577 222.581685 
L 490.082686 222.589835 
L 492.631795 222.470601 
L 495.180905 222.215847 
L 497.730014 221.817815 
L 500.279123 221.269172 
L 502.828232 220.563069 
L 505.377341 219.693192 
L 507.92645 218.653814 
L 510.47556 217.439847 
L 513.024669 216.046894 
L 515.573778 214.471288 
L 518.122887 212.710147 
L 520.671996 210.761408 
L 523.221106 208.623869 
L 525.770215 206.297224 
L 528.319324 203.782098 
L 530.868433 201.080069 
L 533.417542 198.193696 
L 535.966651 195.126538 
L 541.06487 188.469169 
L 546.163088 181.156817 
L 551.261307 173.254693 
L 556.359525 164.844051 
L 561.457743 156.021503 
L 569.105071 142.26157 
L 584.399726 114.477565 
L 589.497944 105.672752 
L 594.596163 97.352909 
L 599.694381 89.673406 
L 602.24349 86.121534 
L 604.792599 82.786381 
L 607.341709 79.685965 
L 609.890818 76.837725 
L 612.439927 74.258433 
L 614.989036 71.964107 
L 617.538145 69.969918 
L 620.087254 68.290118 
L 622.636364 66.937954 
L 622.636364 66.937954 
" style="fill:none;stroke:#008000;stroke-dasharray:11.1,4.8;stroke-dashoffset:0;stroke-width:3;"/>
   </g>
   <g id="line2d_15">
    <path clip-path="url(#p7ea27259ec)" d="M 115.363636 264.061445 
L 125.560073 268.608817 
L 133.207401 271.752241 
L 140.854728 274.592227 
L 145.952947 276.290685 
L 151.051165 277.81955 
L 156.149383 279.17106 
L 161.247602 280.341162 
L 166.34582 281.329567 
L 171.444038 282.139683 
L 176.542257 282.778437 
L 181.640475 283.255972 
L 189.287803 283.698927 
L 196.93513 283.861334 
L 204.582458 283.802169 
L 214.778894 283.481152 
L 230.07355 282.72011 
L 250.466423 281.471325 
L 260.66286 280.676715 
L 268.310187 279.915795 
L 275.957515 278.940015 
L 283.604842 277.679087 
L 288.703061 276.647241 
L 293.801279 275.442731 
L 298.899497 274.052644 
L 303.997716 272.468633 
L 309.095934 270.68773 
L 314.194153 268.712991 
L 319.292371 266.553968 
L 326.939698 263.007469 
L 334.587026 259.168446 
L 360.078118 245.974587 
L 365.176336 243.64386 
L 370.274555 241.551274 
L 375.372773 239.758002 
L 380.470991 238.324838 
L 385.56921 237.311033 
L 388.118319 236.979186 
L 390.667428 236.773077 
L 393.216537 236.699124 
L 395.765646 236.763409 
L 398.314756 236.971634 
L 400.863865 237.329074 
L 403.412974 237.840532 
L 405.962083 238.510292 
L 408.511192 239.342071 
L 411.060302 240.338969 
L 413.609411 241.503417 
L 416.15852 242.837132 
L 418.707629 244.341057 
L 421.256738 246.015321 
L 423.805847 247.859178 
L 426.354957 249.870965 
L 428.904066 252.048047 
L 431.453175 254.386777 
L 436.551393 259.529244 
L 441.649612 265.247265 
L 446.74783 271.471049 
L 451.846048 278.111344 
L 459.493376 288.608924 
L 472.238922 306.370851 
L 477.33714 313.086422 
L 482.435359 319.30153 
L 484.984468 322.160102 
L 487.533577 324.819536 
L 490.082686 327.254982 
L 492.631795 329.441813 
L 495.180905 331.355822 
L 497.730014 332.973418 
L 500.279123 334.271831 
L 502.828232 335.229319 
L 505.377341 335.825378 
L 507.92645 336.040953 
L 510.47556 335.858643 
L 513.024669 335.2629 
L 515.573778 334.240226 
L 518.122887 332.779353 
L 520.671996 330.871416 
L 523.221106 328.510105 
L 525.770215 325.69181 
L 528.319324 322.415728 
L 530.868433 318.683971 
L 533.417542 314.50163 
L 535.966651 309.87683 
L 538.515761 304.820741 
L 541.06487 299.347583 
L 543.613979 293.47458 
L 546.163088 287.221902 
L 548.712197 280.61257 
L 553.810416 266.429518 
L 558.908634 251.161294 
L 564.006852 235.078813 
L 571.65418 210.086705 
L 581.850617 176.832042 
L 586.948835 160.965759 
L 592.047053 146.022025 
L 594.596163 138.985983 
L 597.145272 132.284744 
L 599.694381 125.948807 
L 602.24349 120.006293 
L 604.792599 114.482781 
L 607.341709 109.401173 
L 609.890818 104.781595 
L 612.439927 100.64131 
L 614.989036 96.99468 
L 617.538145 93.853139 
L 620.087254 91.225204 
L 622.636364 89.11651 
L 622.636364 89.11651 
" style="fill:none;stroke:#bfbf00;stroke-dasharray:11.1,4.8;stroke-dashoffset:0;stroke-width:3;"/>
   </g>
   <g id="patch_3">
    <path d="M 90 378 
L 90 51.84 
" style="fill:none;stroke:#000000;stroke-linecap:square;stroke-linejoin:miter;stroke-width:0.8;"/>
   </g>
   <g id="patch_4">
    <path d="M 648 378 
L 648 51.84 
" style="fill:none;stroke:#000000;stroke-linecap:square;stroke-linejoin:miter;stroke-width:0.8;"/>
   </g>
   <g id="patch_5">
    <path d="M 90 378 
L 648 378 
" style="fill:none;stroke:#000000;stroke-linecap:square;stroke-linejoin:miter;stroke-width:0.8;"/>
   </g>
   <g id="patch_6">
    <path d="M 90 51.84 
L 648 51.84 
" style="fill:none;stroke:#000000;stroke-linecap:square;stroke-linejoin:miter;stroke-width:0.8;"/>
   </g>
   <g id="legend_1">
    <g id="patch_7">
     <path d="M 105.4 198.6075 
L 424.602813 198.6075 
Q 429.002813 198.6075 429.002813 194.2075 
L 429.002813 67.24 
Q 429.002813 62.84 424.602813 62.84 
L 105.4 62.84 
Q 101 62.84 101 67.24 
L 101 194.2075 
Q 101 198.6075 105.4 198.6075 
z
" style="fill:#ffffff;opacity:0.8;stroke:#cccccc;stroke-linejoin:miter;"/>
    </g>
    <g id="line2d_16">
     <path d="M 109.8 80.656562 
L 153.8 80.656562 
" style="fill:none;stroke:#0000ff;stroke-linecap:square;stroke-width:3;"/>
    </g>
    <g id="line2d_17"/>
    <g id="text_14">
     <!-- Low Fidelity -->
     <defs>
      <path d="M 9.8125 72.90625 
L 19.671875 72.90625 
L 19.671875 8.296875 
L 55.171875 8.296875 
L 55.171875 0 
L 9.8125 0 
z
" id="DejaVuSans-76"/>
      <path d="M 30.609375 48.390625 
Q 23.390625 48.390625 19.1875 42.75 
Q 14.984375 37.109375 14.984375 27.296875 
Q 14.984375 17.484375 19.15625 11.84375 
Q 23.34375 6.203125 30.609375 6.203125 
Q 37.796875 6.203125 41.984375 11.859375 
Q 46.1875 17.53125 46.1875 27.296875 
Q 46.1875 37.015625 41.984375 42.703125 
Q 37.796875 48.390625 30.609375 48.390625 
z
M 30.609375 56 
Q 42.328125 56 49.015625 48.375 
Q 55.71875 40.765625 55.71875 27.296875 
Q 55.71875 13.875 49.015625 6.21875 
Q 42.328125 -1.421875 30.609375 -1.421875 
Q 18.84375 -1.421875 12.171875 6.21875 
Q 5.515625 13.875 5.515625 27.296875 
Q 5.515625 40.765625 12.171875 48.375 
Q 18.84375 56 30.609375 56 
z
" id="DejaVuSans-111"/>
      <path d="M 4.203125 54.6875 
L 13.1875 54.6875 
L 24.421875 12.015625 
L 35.59375 54.6875 
L 46.1875 54.6875 
L 57.421875 12.015625 
L 68.609375 54.6875 
L 77.59375 54.6875 
L 63.28125 0 
L 52.6875 0 
L 40.921875 44.828125 
L 29.109375 0 
L 18.5 0 
z
" id="DejaVuSans-119"/>
      <path id="DejaVuSans-32"/>
      <path d="M 9.8125 72.90625 
L 51.703125 72.90625 
L 51.703125 64.59375 
L 19.671875 64.59375 
L 19.671875 43.109375 
L 48.578125 43.109375 
L 48.578125 34.8125 
L 19.671875 34.8125 
L 19.671875 0 
L 9.8125 0 
z
" id="DejaVuSans-70"/>
      <path d="M 9.421875 54.6875 
L 18.40625 54.6875 
L 18.40625 0 
L 9.421875 0 
z
M 9.421875 75.984375 
L 18.40625 75.984375 
L 18.40625 64.59375 
L 9.421875 64.59375 
z
" id="DejaVuSans-105"/>
      <path d="M 45.40625 46.390625 
L 45.40625 75.984375 
L 54.390625 75.984375 
L 54.390625 0 
L 45.40625 0 
L 45.40625 8.203125 
Q 42.578125 3.328125 38.25 0.953125 
Q 33.9375 -1.421875 27.875 -1.421875 
Q 17.96875 -1.421875 11.734375 6.484375 
Q 5.515625 14.40625 5.515625 27.296875 
Q 5.515625 40.1875 11.734375 48.09375 
Q 17.96875 56 27.875 56 
Q 33.9375 56 38.25 53.625 
Q 42.578125 51.265625 45.40625 46.390625 
z
M 14.796875 27.296875 
Q 14.796875 17.390625 18.875 11.75 
Q 22.953125 6.109375 30.078125 6.109375 
Q 37.203125 6.109375 41.296875 11.75 
Q 45.40625 17.390625 45.40625 27.296875 
Q 45.40625 37.203125 41.296875 42.84375 
Q 37.203125 48.484375 30.078125 48.484375 
Q 22.953125 48.484375 18.875 42.84375 
Q 14.796875 37.203125 14.796875 27.296875 
z
" id="DejaVuSans-100"/>
      <path d="M 56.203125 29.59375 
L 56.203125 25.203125 
L 14.890625 25.203125 
Q 15.484375 15.921875 20.484375 11.0625 
Q 25.484375 6.203125 34.421875 6.203125 
Q 39.59375 6.203125 44.453125 7.46875 
Q 49.3125 8.734375 54.109375 11.28125 
L 54.109375 2.78125 
Q 49.265625 0.734375 44.1875 -0.34375 
Q 39.109375 -1.421875 33.890625 -1.421875 
Q 20.796875 -1.421875 13.15625 6.1875 
Q 5.515625 13.8125 5.515625 26.8125 
Q 5.515625 40.234375 12.765625 48.109375 
Q 20.015625 56 32.328125 56 
Q 43.359375 56 49.78125 48.890625 
Q 56.203125 41.796875 56.203125 29.59375 
z
M 47.21875 32.234375 
Q 47.125 39.59375 43.09375 43.984375 
Q 39.0625 48.390625 32.421875 48.390625 
Q 24.90625 48.390625 20.390625 44.140625 
Q 15.875 39.890625 15.1875 32.171875 
z
" id="DejaVuSans-101"/>
      <path d="M 9.421875 75.984375 
L 18.40625 75.984375 
L 18.40625 0 
L 9.421875 0 
z
" id="DejaVuSans-108"/>
      <path d="M 18.3125 70.21875 
L 18.3125 54.6875 
L 36.8125 54.6875 
L 36.8125 47.703125 
L 18.3125 47.703125 
L 18.3125 18.015625 
Q 18.3125 11.328125 20.140625 9.421875 
Q 21.96875 7.515625 27.59375 7.515625 
L 36.8125 7.515625 
L 36.8125 0 
L 27.59375 0 
Q 17.1875 0 13.234375 3.875 
Q 9.28125 7.765625 9.28125 18.015625 
L 9.28125 47.703125 
L 2.6875 47.703125 
L 2.6875 54.6875 
L 9.28125 54.6875 
L 9.28125 70.21875 
z
" id="DejaVuSans-116"/>
      <path d="M 32.171875 -5.078125 
Q 28.375 -14.84375 24.75 -17.8125 
Q 21.140625 -20.796875 15.09375 -20.796875 
L 7.90625 -20.796875 
L 7.90625 -13.28125 
L 13.1875 -13.28125 
Q 16.890625 -13.28125 18.9375 -11.515625 
Q 21 -9.765625 23.484375 -3.21875 
L 25.09375 0.875 
L 2.984375 54.6875 
L 12.5 54.6875 
L 29.59375 11.921875 
L 46.6875 54.6875 
L 56.203125 54.6875 
z
" id="DejaVuSans-121"/>
     </defs>
     <g transform="translate(171.4 88.356562)scale(0.22 -0.22)">
      <use xlink:href="#DejaVuSans-76"/>
      <use x="55.697266" xlink:href="#DejaVuSans-111"/>
      <use x="116.878906" xlink:href="#DejaVuSans-119"/>
      <use x="198.666016" xlink:href="#DejaVuSans-32"/>
      <use x="230.453125" xlink:href="#DejaVuSans-70"/>
      <use x="287.863281" xlink:href="#DejaVuSans-105"/>
      <use x="315.646484" xlink:href="#DejaVuSans-100"/>
      <use x="379.123047" xlink:href="#DejaVuSans-101"/>
      <use x="440.646484" xlink:href="#DejaVuSans-108"/>
      <use x="468.429688" xlink:href="#DejaVuSans-105"/>
      <use x="496.212891" xlink:href="#DejaVuSans-116"/>
      <use x="535.421875" xlink:href="#DejaVuSans-121"/>
     </g>
    </g>
    <g id="line2d_18">
     <path d="M 109.8 112.948437 
L 153.8 112.948437 
" style="fill:none;stroke:#ff0000;stroke-linecap:square;stroke-width:3;"/>
    </g>
    <g id="line2d_19"/>
    <g id="text_15">
     <!-- High Fidelity -->
     <defs>
      <path d="M 9.8125 72.90625 
L 19.671875 72.90625 
L 19.671875 43.015625 
L 55.515625 43.015625 
L 55.515625 72.90625 
L 65.375 72.90625 
L 65.375 0 
L 55.515625 0 
L 55.515625 34.71875 
L 19.671875 34.71875 
L 19.671875 0 
L 9.8125 0 
z
" id="DejaVuSans-72"/>
      <path d="M 45.40625 27.984375 
Q 45.40625 37.75 41.375 43.109375 
Q 37.359375 48.484375 30.078125 48.484375 
Q 22.859375 48.484375 18.828125 43.109375 
Q 14.796875 37.75 14.796875 27.984375 
Q 14.796875 18.265625 18.828125 12.890625 
Q 22.859375 7.515625 30.078125 7.515625 
Q 37.359375 7.515625 41.375 12.890625 
Q 45.40625 18.265625 45.40625 27.984375 
z
M 54.390625 6.78125 
Q 54.390625 -7.171875 48.1875 -13.984375 
Q 42 -20.796875 29.203125 -20.796875 
Q 24.46875 -20.796875 20.265625 -20.09375 
Q 16.0625 -19.390625 12.109375 -17.921875 
L 12.109375 -9.1875 
Q 16.0625 -11.328125 19.921875 -12.34375 
Q 23.78125 -13.375 27.78125 -13.375 
Q 36.625 -13.375 41.015625 -8.765625 
Q 45.40625 -4.15625 45.40625 5.171875 
L 45.40625 9.625 
Q 42.625 4.78125 38.28125 2.390625 
Q 33.9375 0 27.875 0 
Q 17.828125 0 11.671875 7.65625 
Q 5.515625 15.328125 5.515625 27.984375 
Q 5.515625 40.671875 11.671875 48.328125 
Q 17.828125 56 27.875 56 
Q 33.9375 56 38.28125 53.609375 
Q 42.625 51.21875 45.40625 46.390625 
L 45.40625 54.6875 
L 54.390625 54.6875 
z
" id="DejaVuSans-103"/>
      <path d="M 54.890625 33.015625 
L 54.890625 0 
L 45.90625 0 
L 45.90625 32.71875 
Q 45.90625 40.484375 42.875 44.328125 
Q 39.84375 48.1875 33.796875 48.1875 
Q 26.515625 48.1875 22.3125 43.546875 
Q 18.109375 38.921875 18.109375 30.90625 
L 18.109375 0 
L 9.078125 0 
L 9.078125 75.984375 
L 18.109375 75.984375 
L 18.109375 46.1875 
Q 21.34375 51.125 25.703125 53.5625 
Q 30.078125 56 35.796875 56 
Q 45.21875 56 50.046875 50.171875 
Q 54.890625 44.34375 54.890625 33.015625 
z
" id="DejaVuSans-104"/>
     </defs>
     <g transform="translate(171.4 120.648438)scale(0.22 -0.22)">
      <use xlink:href="#DejaVuSans-72"/>
      <use x="75.195312" xlink:href="#DejaVuSans-105"/>
      <use x="102.978516" xlink:href="#DejaVuSans-103"/>
      <use x="166.455078" xlink:href="#DejaVuSans-104"/>
      <use x="229.833984" xlink:href="#DejaVuSans-32"/>
      <use x="261.621094" xlink:href="#DejaVuSans-70"/>
      <use x="319.03125" xlink:href="#DejaVuSans-105"/>
      <use x="346.814453" xlink:href="#DejaVuSans-100"/>
      <use x="410.291016" xlink:href="#DejaVuSans-101"/>
      <use x="471.814453" xlink:href="#DejaVuSans-108"/>
      <use x="499.597656" xlink:href="#DejaVuSans-105"/>
      <use x="527.380859" xlink:href="#DejaVuSans-116"/>
      <use x="566.589844" xlink:href="#DejaVuSans-121"/>
     </g>
    </g>
    <g id="line2d_20">
     <path d="M 109.8 145.240313 
L 153.8 145.240313 
" style="fill:none;stroke:#008000;stroke-dasharray:11.1,4.8;stroke-dashoffset:0;stroke-width:3;"/>
    </g>
    <g id="line2d_21"/>
    <g id="text_16">
     <!-- Predicted Low Fidelity -->
     <defs>
      <path d="M 19.671875 64.796875 
L 19.671875 37.40625 
L 32.078125 37.40625 
Q 38.96875 37.40625 42.71875 40.96875 
Q 46.484375 44.53125 46.484375 51.125 
Q 46.484375 57.671875 42.71875 61.234375 
Q 38.96875 64.796875 32.078125 64.796875 
z
M 9.8125 72.90625 
L 32.078125 72.90625 
Q 44.34375 72.90625 50.609375 67.359375 
Q 56.890625 61.8125 56.890625 51.125 
Q 56.890625 40.328125 50.609375 34.8125 
Q 44.34375 29.296875 32.078125 29.296875 
L 19.671875 29.296875 
L 19.671875 0 
L 9.8125 0 
z
" id="DejaVuSans-80"/>
      <path d="M 41.109375 46.296875 
Q 39.59375 47.171875 37.8125 47.578125 
Q 36.03125 48 33.890625 48 
Q 26.265625 48 22.1875 43.046875 
Q 18.109375 38.09375 18.109375 28.8125 
L 18.109375 0 
L 9.078125 0 
L 9.078125 54.6875 
L 18.109375 54.6875 
L 18.109375 46.1875 
Q 20.953125 51.171875 25.484375 53.578125 
Q 30.03125 56 36.53125 56 
Q 37.453125 56 38.578125 55.875 
Q 39.703125 55.765625 41.0625 55.515625 
z
" id="DejaVuSans-114"/>
      <path d="M 48.78125 52.59375 
L 48.78125 44.1875 
Q 44.96875 46.296875 41.140625 47.34375 
Q 37.3125 48.390625 33.40625 48.390625 
Q 24.65625 48.390625 19.8125 42.84375 
Q 14.984375 37.3125 14.984375 27.296875 
Q 14.984375 17.28125 19.8125 11.734375 
Q 24.65625 6.203125 33.40625 6.203125 
Q 37.3125 6.203125 41.140625 7.25 
Q 44.96875 8.296875 48.78125 10.40625 
L 48.78125 2.09375 
Q 45.015625 0.34375 40.984375 -0.53125 
Q 36.96875 -1.421875 32.421875 -1.421875 
Q 20.0625 -1.421875 12.78125 6.34375 
Q 5.515625 14.109375 5.515625 27.296875 
Q 5.515625 40.671875 12.859375 48.328125 
Q 20.21875 56 33.015625 56 
Q 37.15625 56 41.109375 55.140625 
Q 45.0625 54.296875 48.78125 52.59375 
z
" id="DejaVuSans-99"/>
     </defs>
     <g transform="translate(171.4 152.940313)scale(0.22 -0.22)">
      <use xlink:href="#DejaVuSans-80"/>
      <use x="60.287109" xlink:href="#DejaVuSans-114"/>
      <use x="101.369141" xlink:href="#DejaVuSans-101"/>
      <use x="162.892578" xlink:href="#DejaVuSans-100"/>
      <use x="226.369141" xlink:href="#DejaVuSans-105"/>
      <use x="254.152344" xlink:href="#DejaVuSans-99"/>
      <use x="309.132812" xlink:href="#DejaVuSans-116"/>
      <use x="348.341797" xlink:href="#DejaVuSans-101"/>
      <use x="409.865234" xlink:href="#DejaVuSans-100"/>
      <use x="473.341797" xlink:href="#DejaVuSans-32"/>
      <use x="505.128906" xlink:href="#DejaVuSans-76"/>
      <use x="560.826172" xlink:href="#DejaVuSans-111"/>
      <use x="622.007812" xlink:href="#DejaVuSans-119"/>
      <use x="703.794922" xlink:href="#DejaVuSans-32"/>
      <use x="735.582031" xlink:href="#DejaVuSans-70"/>
      <use x="792.992188" xlink:href="#DejaVuSans-105"/>
      <use x="820.775391" xlink:href="#DejaVuSans-100"/>
      <use x="884.251953" xlink:href="#DejaVuSans-101"/>
      <use x="945.775391" xlink:href="#DejaVuSans-108"/>
      <use x="973.558594" xlink:href="#DejaVuSans-105"/>
      <use x="1001.341797" xlink:href="#DejaVuSans-116"/>
      <use x="1040.550781" xlink:href="#DejaVuSans-121"/>
     </g>
    </g>
    <g id="line2d_22">
     <path d="M 109.8 177.532188 
L 153.8 177.532188 
" style="fill:none;stroke:#bfbf00;stroke-dasharray:11.1,4.8;stroke-dashoffset:0;stroke-width:3;"/>
    </g>
    <g id="line2d_23"/>
    <g id="text_17">
     <!-- Predicted High Fidelity -->
     <g transform="translate(171.4 185.232188)scale(0.22 -0.22)">
      <use xlink:href="#DejaVuSans-80"/>
      <use x="60.287109" xlink:href="#DejaVuSans-114"/>
      <use x="101.369141" xlink:href="#DejaVuSans-101"/>
      <use x="162.892578" xlink:href="#DejaVuSans-100"/>
      <use x="226.369141" xlink:href="#DejaVuSans-105"/>
      <use x="254.152344" xlink:href="#DejaVuSans-99"/>
      <use x="309.132812" xlink:href="#DejaVuSans-116"/>
      <use x="348.341797" xlink:href="#DejaVuSans-101"/>
      <use x="409.865234" xlink:href="#DejaVuSans-100"/>
      <use x="473.341797" xlink:href="#DejaVuSans-32"/>
      <use x="505.128906" xlink:href="#DejaVuSans-72"/>
      <use x="580.324219" xlink:href="#DejaVuSans-105"/>
      <use x="608.107422" xlink:href="#DejaVuSans-103"/>
      <use x="671.583984" xlink:href="#DejaVuSans-104"/>
      <use x="734.962891" xlink:href="#DejaVuSans-32"/>
      <use x="766.75" xlink:href="#DejaVuSans-70"/>
      <use x="824.160156" xlink:href="#DejaVuSans-105"/>
      <use x="851.943359" xlink:href="#DejaVuSans-100"/>
      <use x="915.419922" xlink:href="#DejaVuSans-101"/>
      <use x="976.943359" xlink:href="#DejaVuSans-108"/>
      <use x="1004.726562" xlink:href="#DejaVuSans-105"/>
      <use x="1032.509766" xlink:href="#DejaVuSans-116"/>
      <use x="1071.71875" xlink:href="#DejaVuSans-121"/>
     </g>
    </g>
   </g>
  </g>
 </g>
 <defs>
  <clipPath id="p7ea27259ec">
   <rect height="326.16" width="558" x="90" y="51.84"/>
  </clipPath>
 </defs>
</svg>
