<?xml version="1.0" encoding="utf-8" standalone="no"?>
<!DOCTYPE svg PUBLIC "-//W3C//DTD SVG 1.1//EN"
  "http://www.w3.org/Graphics/SVG/1.1/DTD/svg11.dtd">
<!-- Created with matplotlib (https://matplotlib.org/) -->
<svg height="432pt" version="1.1" viewBox="0 0 720 432" width="720pt" xmlns="http://www.w3.org/2000/svg" xmlns:xlink="http://www.w3.org/1999/xlink">
 <defs>
  <style type="text/css">
*{stroke-linecap:butt;stroke-linejoin:round;}
  </style>
 </defs>
 <g id="figure_1">
  <g id="patch_1">
   <path d="M 0 432 
L 720 432 
L 720 0 
L 0 0 
z
" style="fill:none;"/>
  </g>
  <g id="axes_1">
   <g id="patch_2">
    <path d="M 90 378 
L 648 378 
L 648 51.84 
L 90 51.84 
z
" style="fill:none;"/>
   </g>
   <g id="PolyCollection_1">
    <defs>
     <path d="M 90 -239.167841 
L 90 -239.118479 
L 92.80402 -255.007631 
L 95.60804 -270.644046 
L 98.41206 -285.78435 
L 101.21608 -300.184346 
L 104.020101 -313.611608 
L 106.824121 -325.850455 
L 109.628141 -336.705714 
L 112.432161 -346.005283 
L 115.236181 -353.60188 
L 118.040201 -359.374961 
L 120.844221 -363.232697 
L 123.648241 -365.113591 
L 126.452261 -364.987592 
L 129.256281 -362.856667 
L 132.060302 -358.754815 
L 134.864322 -352.747484 
L 137.668342 -344.930468 
L 140.472362 -335.428327 
L 143.276382 -324.392394 
L 146.080402 -311.998376 
L 148.884422 -298.443584 
L 151.688442 -283.943825 
L 154.492462 -268.729986 
L 157.296482 -253.044377 
L 160.100503 -237.136864 
L 162.904523 -221.260882 
L 165.708543 -205.66938 
L 168.512563 -190.610771 
L 171.316583 -176.324971 
L 174.120603 -163.039571 
L 176.924623 -150.966216 
L 179.728643 -140.297234 
L 182.532663 -131.202584 
L 185.336683 -123.827148 
L 188.140704 -118.288424 
L 190.944724 -114.674655 
L 193.748744 -113.043417 
L 196.552764 -113.420698 
L 199.356784 -115.800481 
L 202.160804 -120.14484 
L 204.964824 -126.384545 
L 207.768844 -134.420171 
L 210.572864 -144.123686 
L 213.376884 -155.340491 
L 216.180905 -167.891893 
L 218.984925 -181.577949 
L 221.788945 -196.180653 
L 224.592965 -211.467403 
L 227.396985 -227.194708 
L 230.201005 -243.112062 
L 233.005025 -258.965929 
L 235.809045 -274.503786 
L 238.613065 -289.478139 
L 241.417085 -303.650467 
L 244.221106 -316.795027 
L 247.025126 -328.702442 
L 249.829146 -339.183043 
L 252.633166 -348.069887 
L 255.437186 -355.221418 
L 258.241206 -360.523718 
L 261.045226 -363.892322 
L 263.849246 -365.273564 
L 266.653266 -364.645431 
L 269.457286 -362.017915 
L 272.261307 -357.432854 
L 275.065327 -350.96327 
L 277.869347 -342.712203 
L 280.673367 -332.811076 
L 283.477387 -321.417599 
L 286.281407 -308.71326 
L 289.085427 -294.900433 
L 291.889447 -280.199152 
L 294.693467 -264.843605 
L 297.497487 -249.078408 
L 300.301508 -233.154699 
L 303.105528 -217.326142 
L 305.909548 -201.844886 
L 308.713568 -186.957545 
L 311.517588 -172.901272 
L 314.321608 -159.899979 
L 317.125628 -148.160773 
L 319.929648 -137.870653 
L 322.733668 -129.193536 
L 325.537688 -122.267638 
L 328.341709 -117.203282 
L 331.145729 -114.081132 
L 333.949749 -112.950914 
L 336.753769 -113.83062 
L 339.557789 -116.706226 
L 342.361809 -121.531916 
L 345.165829 -128.230807 
L 347.969849 -136.696185 
L 350.773869 -146.793194 
L 353.577889 -158.360995 
L 356.38191 -171.21532 
L 359.18593 -185.151414 
L 361.98995 -199.947291 
L 364.79397 -215.36727 
L 367.59799 -231.165734 
L 370.40201 -247.091034 
L 373.20603 -262.889503 
L 376.01005 -278.309491 
L 378.81407 -293.105377 
L 381.61809 -307.041479 
L 384.422111 -319.895809 
L 387.226131 -331.46361 
L 390.030151 -341.560612 
L 392.834171 -350.025978 
L 395.638191 -356.724856 
L 398.442211 -361.550529 
L 401.246231 -364.426122 
L 404.050251 -365.305818 
L 406.854271 -364.175596 
L 409.658291 -361.053448 
L 412.462312 -355.989097 
L 415.266332 -349.063207 
L 418.070352 -340.386093 
L 420.874372 -330.095972 
L 423.678392 -318.356757 
L 426.482412 -305.355448 
L 429.286432 -291.299151 
L 432.090452 -276.411783 
L 434.894472 -260.930501 
L 437.698492 -245.101924 
L 440.502513 -229.178202 
L 443.306533 -213.413 
L 446.110553 -198.057457 
L 448.914573 -183.356181 
L 451.718593 -169.543358 
L 454.522613 -156.839016 
L 457.326633 -145.445525 
L 460.130653 -135.544371 
L 462.934673 -127.293266 
L 465.738693 -120.823637 
L 468.542714 -116.238533 
L 471.346734 -113.61098 
L 474.150754 -112.982823 
L 476.954774 -114.364056 
L 479.758794 -117.732661 
L 482.562814 -123.034969 
L 485.366834 -130.186503 
L 488.170854 -139.07334 
L 490.974874 -149.553914 
L 493.778894 -161.46128 
L 496.582915 -174.605773 
L 499.386935 -188.778026 
L 502.190955 -203.752306 
L 504.994975 -219.290104 
L 507.798995 -235.143937 
L 510.603015 -251.061279 
L 513.407035 -266.78859 
L 516.211055 -282.075351 
L 519.015075 -296.678054 
L 521.819095 -310.364083 
L 524.623116 -322.915421 
L 527.427136 -334.132126 
L 530.231156 -343.835514 
L 533.035176 -351.871009 
L 535.839196 -358.1106 
L 538.643216 -362.454879 
L 541.447236 -364.834626 
L 544.251256 -365.21191 
L 547.055276 -363.580693 
L 549.859296 -359.96693 
L 552.663317 -354.428166 
L 555.467337 -347.052621 
L 558.271357 -337.957789 
L 561.075377 -327.288574 
L 563.879397 -315.214972 
L 566.683417 -301.929363 
L 569.487437 -287.643427 
L 572.291457 -272.584775 
L 575.095477 -256.993299 
L 577.899497 -241.11736 
L 580.703518 -225.209829 
L 583.507538 -209.524068 
L 586.311558 -194.309907 
L 589.115578 -179.809682 
L 591.919598 -166.254371 
L 594.723618 -153.8599 
L 597.527638 -142.823694 
L 600.331658 -133.321506 
L 603.135678 -125.504604 
L 605.939698 -119.497366 
L 608.743719 -115.395329 
L 611.547739 -113.263736 
L 614.351759 -113.136579 
L 617.155779 -115.016093 
L 619.959799 -118.872695 
L 622.763819 -124.645332 
L 625.567839 -132.242297 
L 628.371859 -141.542475 
L 631.175879 -152.397134 
L 633.979899 -164.6326 
L 636.78392 -178.053863 
L 639.58794 -192.448023 
L 642.39196 -207.587093 
L 645.19598 -223.230056 
L 648 -239.117618 
L 648 -239.166981 
L 648 -239.166981 
L 645.19598 -223.277828 
L 642.39196 -207.641413 
L 639.58794 -192.501109 
L 636.78392 -178.101113 
L 633.979899 -164.673851 
L 631.175879 -152.435004 
L 628.371859 -141.579745 
L 625.567839 -132.280176 
L 622.763819 -124.683579 
L 619.959799 -118.910498 
L 617.155779 -115.052762 
L 614.351759 -113.171868 
L 611.547739 -113.297868 
L 608.743719 -115.428792 
L 605.939698 -119.530644 
L 603.135678 -125.537975 
L 600.331658 -133.354991 
L 597.527638 -142.857132 
L 594.723618 -153.893065 
L 591.919598 -166.287083 
L 589.115578 -179.841875 
L 586.311558 -194.341634 
L 583.507538 -209.555472 
L 580.703518 -225.241083 
L 577.899497 -241.148596 
L 575.095477 -257.024577 
L 572.291457 -272.616079 
L 569.487437 -287.674688 
L 566.683417 -301.960488 
L 563.879397 -315.245888 
L 561.075377 -327.319243 
L 558.271357 -337.988225 
L 555.467337 -347.082875 
L 552.663317 -354.458312 
L 549.859296 -359.997035 
L 547.055276 -363.610804 
L 544.251256 -365.242042 
L 541.447236 -364.864762 
L 538.643216 -362.484978 
L 535.839196 -358.140619 
L 533.035176 -351.900914 
L 530.231156 -343.865288 
L 527.427136 -334.161774 
L 524.623116 -322.944968 
L 521.819095 -310.393566 
L 519.015075 -296.70751 
L 516.211055 -282.104807 
L 513.407035 -266.818056 
L 510.603015 -251.090751 
L 507.798995 -235.173397 
L 504.994975 -219.31953 
L 502.190955 -203.781673 
L 499.386935 -188.80732 
L 496.582915 -174.634992 
L 493.778894 -161.490432 
L 490.974874 -149.583017 
L 488.170854 -139.102417 
L 485.366834 -130.215572 
L 482.562814 -123.064041 
L 479.758794 -117.761742 
L 476.954774 -114.393137 
L 474.150754 -113.011896 
L 471.346734 -113.640028 
L 468.542714 -116.267544 
L 465.738693 -120.852604 
L 462.934673 -127.322189 
L 460.130653 -135.573256 
L 457.326633 -145.474384 
L 454.522613 -156.867861 
L 451.718593 -169.572199 
L 448.914573 -183.385026 
L 446.110553 -198.086307 
L 443.306533 -213.441854 
L 440.502513 -229.207051 
L 437.698492 -245.130761 
L 434.894472 -260.959317 
L 432.090452 -276.440573 
L 429.286432 -291.327914 
L 426.482412 -305.384187 
L 423.678392 -318.38548 
L 420.874372 -330.124686 
L 418.070352 -340.414806 
L 415.266332 -349.091924 
L 412.462312 -356.017821 
L 409.658291 -361.082177 
L 406.854271 -364.204327 
L 404.050251 -365.334545 
L 401.246231 -364.454839 
L 398.442211 -361.579233 
L 395.638191 -356.753543 
L 392.834171 -350.054652 
L 390.030151 -341.589275 
L 387.226131 -331.492265 
L 384.422111 -319.924464 
L 381.61809 -307.070139 
L 378.81407 -293.134045 
L 376.01005 -278.338169 
L 373.20603 -262.918189 
L 370.40201 -247.119725 
L 367.59799 -231.194425 
L 364.79397 -215.395956 
L 361.98995 -199.975968 
L 359.18593 -185.180082 
L 356.38191 -171.24398 
L 353.577889 -158.38965 
L 350.773869 -146.82185 
L 347.969849 -136.724846 
L 345.165829 -128.259481 
L 342.361809 -121.560604 
L 339.557789 -116.73493 
L 336.753769 -113.859338 
L 333.949749 -112.979641 
L 331.145729 -114.109863 
L 328.341709 -117.232011 
L 325.537688 -122.296362 
L 322.733668 -129.222252 
L 319.929648 -137.899366 
L 317.125628 -148.189487 
L 314.321608 -159.928702 
L 311.517588 -172.930012 
L 308.713568 -186.986308 
L 305.909548 -201.873676 
L 303.105528 -217.354958 
L 300.301508 -233.183535 
L 297.497487 -249.107258 
L 294.693467 -264.872459 
L 291.889447 -280.228002 
L 289.085427 -294.929278 
L 286.281407 -308.742101 
L 283.477387 -321.446443 
L 280.673367 -332.839934 
L 277.869347 -342.741088 
L 275.065327 -350.992193 
L 272.261307 -357.461822 
L 269.457286 -362.046926 
L 266.653266 -364.674479 
L 263.849246 -365.302636 
L 261.045226 -363.921404 
L 258.241206 -360.552798 
L 255.437186 -355.250491 
L 252.633166 -348.098956 
L 249.829146 -339.21212 
L 247.025126 -328.731546 
L 244.221106 -316.82418 
L 241.417085 -303.679686 
L 238.613065 -289.507433 
L 235.809045 -274.533153 
L 233.005025 -258.995355 
L 230.201005 -243.141523 
L 227.396985 -227.224181 
L 224.592965 -211.49687 
L 221.788945 -196.210109 
L 218.984925 -181.607405 
L 216.180905 -167.921376 
L 213.376884 -155.370038 
L 210.572864 -144.153333 
L 207.768844 -134.449945 
L 204.964824 -126.41445 
L 202.160804 -120.17486 
L 199.356784 -115.830581 
L 196.552764 -113.450833 
L 193.748744 -113.073549 
L 190.944724 -114.704766 
L 188.140704 -118.318529 
L 185.336683 -123.857293 
L 182.532663 -131.232839 
L 179.728643 -140.32767 
L 176.924623 -150.996886 
L 174.120603 -163.070487 
L 171.316583 -176.356097 
L 168.512563 -190.642032 
L 165.708543 -205.700684 
L 162.904523 -221.29216 
L 160.100503 -237.168098 
L 157.296482 -253.07563 
L 154.492462 -268.761392 
L 151.688442 -283.975553 
L 148.884422 -298.475777 
L 146.080402 -312.031089 
L 143.276382 -324.425559 
L 140.472362 -335.461765 
L 137.668342 -344.963954 
L 134.864322 -352.780856 
L 132.060302 -358.788094 
L 129.256281 -362.89013 
L 126.452261 -365.021723 
L 123.648241 -365.148881 
L 120.844221 -363.269367 
L 118.040201 -359.412765 
L 115.236181 -353.640127 
L 112.432161 -346.043162 
L 109.628141 -336.742984 
L 106.824121 -325.888325 
L 104.020101 -313.652859 
L 101.21608 -300.231596 
L 98.41206 -285.837437 
L 95.60804 -270.698366 
L 92.80402 -255.055404 
L 90 -239.167841 
z
" id="me9fec7a01e" style="stroke:#008000;stroke-opacity:0.3;"/>
    </defs>
    <g clip-path="url(#p2c9195cee5)">
     <use style="fill:#008000;fill-opacity:0.3;stroke:#008000;stroke-opacity:0.3;" x="0" xlink:href="#me9fec7a01e" y="432"/>
    </g>
   </g>
   <g id="PolyCollection_2">
    <defs>
     <path d="M 90 -239.166348 
L 90 -239.116597 
L 92.80402 -231.380728 
L 95.60804 -218.06419 
L 98.41206 -200.717274 
L 101.21608 -181.131442 
L 104.020101 -161.088595 
L 106.824121 -142.12123 
L 109.628141 -125.359005 
L 112.432161 -111.479271 
L 115.236181 -96.962926 
L 118.040201 -82.937396 
L 120.844221 -73.49444 
L 123.648241 -69.135022 
L 126.452261 -70.077391 
L 129.256281 -76.255394 
L 132.060302 -87.321956 
L 134.864322 -102.657835 
L 137.668342 -115.829801 
L 140.472362 -130.038714 
L 143.276382 -146.745261 
L 146.080402 -165.23686 
L 148.884422 -184.398511 
L 151.688442 -202.777596 
L 154.492462 -218.742087 
L 157.296482 -230.709406 
L 160.100503 -237.396652 
L 162.904523 -234.38564 
L 165.708543 -223.540915 
L 168.512563 -208.67784 
L 171.316583 -191.311262 
L 174.120603 -173.074432 
L 176.924623 -155.482478 
L 179.728643 -139.74026 
L 182.532663 -122.953891 
L 185.336683 -105.514627 
L 188.140704 -91.875688 
L 190.944724 -82.884599 
L 193.748744 -79.080405 
L 196.552764 -80.676801 
L 199.356784 -87.556632 
L 202.160804 -99.277627 
L 204.964824 -115.0899 
L 207.768844 -133.966148 
L 210.572864 -150.630445 
L 213.376884 -166.99671 
L 216.180905 -184.451775 
L 218.984925 -201.748556 
L 221.788945 -217.443628 
L 224.592965 -230.099533 
L 227.396985 -236.814844 
L 230.201005 -233.5266 
L 233.005025 -224.993809 
L 235.809045 -212.275264 
L 238.613065 -196.794049 
L 241.417085 -180.107455 
L 244.221106 -163.672127 
L 247.025126 -148.659657 
L 249.829146 -135.856073 
L 252.633166 -125.651594 
L 255.437186 -118.104621 
L 258.241206 -108.984514 
L 261.045226 -102.11982 
L 263.849246 -99.64021 
L 266.653266 -101.67315 
L 269.457286 -108.091396 
L 272.261307 -118.378328 
L 275.065327 -125.508668 
L 277.869347 -134.963738 
L 280.673367 -146.746658 
L 283.477387 -160.590869 
L 286.281407 -175.893656 
L 289.085427 -191.703566 
L 291.889447 -206.78678 
L 294.693467 -219.772443 
L 297.497487 -229.353667 
L 300.301508 -234.499263 
L 303.105528 -234.622002 
L 305.909548 -226.024855 
L 308.713568 -213.510044 
L 311.517588 -199.520931 
L 314.321608 -185.392216 
L 317.125628 -172.283142 
L 319.929648 -156.228859 
L 322.733668 -140.238772 
L 325.537688 -126.632866 
L 328.341709 -116.328061 
L 331.145729 -109.999728 
L 333.949749 -108.050759 
L 336.753769 -110.5934 
L 339.557789 -117.444785 
L 342.361809 -128.136892 
L 345.165829 -141.941034 
L 347.969849 -157.906304 
L 350.773869 -174.910196 
L 353.577889 -188.269943 
L 356.38191 -201.705393 
L 359.18593 -214.951183 
L 361.98995 -226.840251 
L 364.79397 -233.53621 
L 367.59799 -233.479488 
L 370.40201 -228.869249 
L 373.20603 -220.353307 
L 376.01005 -208.971925 
L 378.81407 -195.988776 
L 381.61809 -182.686399 
L 384.422111 -170.17806 
L 387.226131 -159.277437 
L 390.030151 -150.445591 
L 392.834171 -143.812499 
L 395.638191 -139.254771 
L 398.442211 -136.502131 
L 401.246231 -132.217815 
L 404.050251 -131.223103 
L 406.854271 -133.939306 
L 409.658291 -138.885155 
L 412.462312 -142.656935 
L 415.266332 -148.025562 
L 418.070352 -155.186388 
L 420.874372 -164.19876 
L 423.678392 -174.892058 
L 426.482412 -186.804577 
L 429.286432 -199.17676 
L 432.090452 -211.011733 
L 434.894472 -221.201202 
L 437.698492 -228.695281 
L 440.502513 -232.677091 
L 443.306533 -232.696703 
L 446.110553 -228.724776 
L 448.914573 -218.879044 
L 451.718593 -208.407104 
L 454.522613 -198.258605 
L 457.326633 -184.889346 
L 460.130653 -171.633498 
L 462.934673 -159.50011 
L 465.738693 -149.382462 
L 468.542714 -142.010873 
L 471.346734 -137.909587 
L 474.150754 -137.364369 
L 476.954774 -140.404073 
L 479.758794 -146.798728 
L 482.562814 -156.075159 
L 485.366834 -167.549152 
L 488.170854 -180.371366 
L 490.974874 -193.583182 
L 493.778894 -206.057887 
L 496.582915 -215.66175 
L 499.386935 -225.210832 
L 502.190955 -231.044958 
L 504.994975 -232.807825 
L 507.798995 -230.936184 
L 510.603015 -225.77613 
L 513.407035 -218.035787 
L 516.211055 -208.676407 
L 519.015075 -198.751734 
L 521.819095 -189.237524 
L 524.623116 -180.893413 
L 527.427136 -174.184492 
L 530.231156 -169.269739 
L 533.035176 -166.047956 
L 535.839196 -164.242445 
L 538.643216 -163.50264 
L 541.447236 -163.312079 
L 544.251256 -163.402687 
L 547.055276 -164.979353 
L 549.859296 -166.46571 
L 552.663317 -168.689524 
L 555.467337 -171.928247 
L 558.271357 -176.439996 
L 561.075377 -182.371764 
L 563.879397 -189.677666 
L 566.683417 -198.065952 
L 569.487437 -206.99131 
L 572.291457 -215.702668 
L 575.095477 -223.344943 
L 577.899497 -229.096913 
L 580.703518 -232.312388 
L 583.507538 -232.626912 
L 586.311558 -230.003315 
L 589.115578 -224.583832 
L 591.919598 -217.276444 
L 594.723618 -208.376139 
L 597.527638 -198.785861 
L 600.331658 -189.308553 
L 603.135678 -180.718571 
L 605.939698 -173.711008 
L 608.743719 -168.852435 
L 611.547739 -166.536709 
L 614.351759 -166.951351 
L 617.155779 -170.060019 
L 619.959799 -175.604632 
L 622.763819 -183.12777 
L 625.567839 -192.012652 
L 628.371859 -201.535348 
L 631.175879 -210.922692 
L 633.979899 -219.410581 
L 636.78392 -226.286235 
L 639.58794 -231.034352 
L 642.39196 -233.226303 
L 645.19598 -232.759958 
L 648 -229.81517 
L 648 -246.8083 
L 648 -246.8083 
L 645.19598 -243.460982 
L 642.39196 -238.548344 
L 639.58794 -232.622071 
L 636.78392 -226.34097 
L 633.979899 -220.285475 
L 631.175879 -215.029363 
L 628.371859 -210.878215 
L 625.567839 -207.914132 
L 622.763819 -205.997228 
L 619.959799 -204.836204 
L 617.155779 -204.092059 
L 614.351759 -203.486615 
L 611.547739 -202.889196 
L 608.743719 -202.361884 
L 605.939698 -202.15324 
L 603.135678 -202.640553 
L 600.331658 -204.231099 
L 597.527638 -207.242915 
L 594.723618 -211.79322 
L 591.919598 -217.725035 
L 589.115578 -224.719491 
L 586.311558 -231.703336 
L 583.507538 -238.249094 
L 580.703518 -243.404325 
L 577.899497 -246.463637 
L 575.095477 -246.933912 
L 572.291457 -244.589892 
L 569.487437 -239.488932 
L 566.683417 -231.949188 
L 563.879397 -222.500835 
L 561.075377 -211.823004 
L 558.271357 -200.678339 
L 555.467337 -189.852491 
L 552.663317 -180.100464 
L 549.859296 -172.098626 
L 547.055276 -166.401727 
L 544.251256 -164.021492 
L 541.447236 -163.507102 
L 538.643216 -166.145816 
L 535.839196 -171.700655 
L 533.035176 -179.602901 
L 530.231156 -189.313152 
L 527.427136 -200.162819 
L 524.623116 -211.390536 
L 521.819095 -222.184096 
L 519.015075 -231.731082 
L 516.211055 -239.280831 
L 513.407035 -244.216097 
L 510.603015 -246.126487 
L 507.798995 -244.870699 
L 504.994975 -240.612925 
L 502.190955 -233.820351 
L 499.386935 -225.699716 
L 496.582915 -217.179396 
L 493.778894 -206.185475 
L 490.974874 -197.188121 
L 488.170854 -189.576926 
L 485.366834 -183.489922 
L 482.562814 -178.926786 
L 479.758794 -175.708249 
L 476.954774 -173.589488 
L 474.150754 -172.37344 
L 471.346734 -171.99532 
L 468.542714 -172.558771 
L 465.738693 -174.315089 
L 462.934673 -177.588564 
L 460.130653 -182.662654 
L 457.326633 -189.652689 
L 454.522613 -198.402576 
L 451.718593 -210.699552 
L 448.914573 -221.163308 
L 446.110553 -228.80373 
L 443.306533 -237.080114 
L 440.502513 -242.74625 
L 437.698492 -245.056941 
L 434.894472 -243.609462 
L 432.090452 -238.373436 
L 429.286432 -229.673132 
L 426.482412 -218.128623 
L 423.678392 -204.572984 
L 420.874372 -189.962982 
L 418.070352 -175.296609 
L 415.266332 -161.543802 
L 412.462312 -149.59048 
L 409.658291 -140.193356 
L 406.854271 -136.486039 
L 404.050251 -135.291426 
L 401.246231 -135.261936 
L 398.442211 -136.874102 
L 395.638191 -144.907663 
L 392.834171 -155.837573 
L 390.030151 -168.983795 
L 387.226131 -183.506644 
L 384.422111 -198.440717 
L 381.61809 -212.742225 
L 378.81407 -225.352806 
L 376.01005 -235.282389 
L 373.20603 -241.707412 
L 370.40201 -244.072599 
L 367.59799 -242.178052 
L 364.79397 -236.230746 
L 361.98995 -228.876484 
L 359.18593 -219.819465 
L 356.38191 -207.095218 
L 353.577889 -191.72728 
L 350.773869 -175.663789 
L 347.969849 -164.623118 
L 345.165829 -155.56243 
L 342.361809 -148.594973 
L 339.557789 -143.632142 
L 336.753769 -140.506488 
L 333.949749 -139.088502 
L 331.145729 -139.366604 
L 328.341709 -141.471549 
L 325.537688 -145.63901 
L 322.733668 -152.116981 
L 319.929648 -161.037602 
L 317.125628 -173.489372 
L 314.321608 -190.761168 
L 311.517588 -206.721973 
L 308.713568 -220.073405 
L 305.909548 -229.663311 
L 303.105528 -235.750627 
L 300.301508 -241.586774 
L 297.497487 -242.806531 
L 294.693467 -239.138106 
L 291.889447 -230.777191 
L 289.085427 -218.334072 
L 286.281407 -202.738368 
L 283.477387 -185.124664 
L 280.673367 -166.719895 
L 277.869347 -148.746281 
L 275.065327 -132.345073 
L 272.261307 -118.527123 
L 269.457286 -113.448142 
L 266.653266 -110.508116 
L 263.849246 -109.441637 
L 261.045226 -110.245996 
L 258.241206 -113.055542 
L 255.437186 -119.856479 
L 252.633166 -134.112942 
L 249.829146 -150.912699 
L 247.025126 -169.215452 
L 244.221106 -187.823662 
L 241.417085 -205.439954 
L 238.613065 -220.749672 
L 235.809045 -232.529555 
L 233.005025 -239.775435 
L 230.201005 -241.832164 
L 227.396985 -238.501595 
L 224.592965 -234.332377 
L 221.788945 -226.14759 
L 218.984925 -212.8876 
L 216.180905 -195.620395 
L 213.376884 -175.706139 
L 210.572864 -154.648828 
L 207.768844 -136.26756 
L 204.964824 -124.441245 
L 202.160804 -115.35708 
L 199.356784 -108.99743 
L 196.552764 -105.257381 
L 193.748744 -104.062784 
L 190.944724 -105.443043 
L 188.140704 -109.541177 
L 185.336683 -116.557867 
L 182.532663 -126.640507 
L 179.728643 -143.069024 
L 176.924623 -164.499101 
L 174.120603 -185.719108 
L 171.316583 -205.125707 
L 168.512563 -221.160316 
L 165.708543 -232.460725 
L 162.904523 -238.030763 
L 160.100503 -240.03935 
L 157.296482 -239.828567 
L 154.492462 -233.652463 
L 151.688442 -221.960854 
L 148.884422 -205.666191 
L 146.080402 -186.012801 
L 143.276382 -164.433298 
L 140.472362 -142.415185 
L 137.668342 -121.391522 
L 134.864322 -104.454949 
L 132.060302 -95.958582 
L 129.256281 -90.228173 
L 126.452261 -87.110916 
L 123.648241 -86.517956 
L 120.844221 -88.480319 
L 118.040201 -93.151418 
L 115.236181 -100.754511 
L 112.432161 -114.79779 
L 109.628141 -135.402705 
L 106.824121 -157.512044 
L 104.020101 -179.670546 
L 101.21608 -200.30997 
L 98.41206 -217.855754 
L 95.60804 -230.866409 
L 92.80402 -238.193539 
L 90 -239.166348 
z
" id="m79bb908cd3" style="stroke:#bfbf00;stroke-opacity:0.3;"/>
    </defs>
    <g clip-path="url(#p2c9195cee5)">
     <use style="fill:#bfbf00;fill-opacity:0.3;stroke:#bfbf00;stroke-opacity:0.3;" x="0" xlink:href="#m79bb908cd3" y="432"/>
    </g>
   </g>
   <g id="PathCollection_1">
    <defs>
     <path d="M 0 3 
C 0.795609 3 1.55874 2.683901 2.12132 2.12132 
C 2.683901 1.55874 3 0.795609 3 0 
C 3 -0.795609 2.683901 -1.55874 2.12132 -2.12132 
C 1.55874 -2.683901 0.795609 -3 0 -3 
C -0.795609 -3 -1.55874 -2.683901 -2.12132 -2.12132 
C -2.683901 -1.55874 -3 -0.795609 -3 0 
C -3 0.795609 -2.683901 1.55874 -2.12132 2.12132 
C -1.55874 2.683901 -0.795609 3 0 3 
z
" id="m6b0321ff77" style="stroke:#ff0000;"/>
    </defs>
    <g clip-path="url(#p2c9195cee5)">
     <use style="fill:#ff0000;stroke:#ff0000;" x="90" xlink:href="#m6b0321ff77" y="192.85727"/>
     <use style="fill:#ff0000;stroke:#ff0000;" x="135.55102" xlink:href="#m6b0321ff77" y="325.030406"/>
     <use style="fill:#ff0000;stroke:#ff0000;" x="181.102041" xlink:href="#m6b0321ff77" y="299.037662"/>
     <use style="fill:#ff0000;stroke:#ff0000;" x="226.653061" xlink:href="#m6b0321ff77" y="195.270022"/>
     <use style="fill:#ff0000;stroke:#ff0000;" x="272.204082" xlink:href="#m6b0321ff77" y="313.732268"/>
     <use style="fill:#ff0000;stroke:#ff0000;" x="317.755102" xlink:href="#m6b0321ff77" y="262.42442"/>
     <use style="fill:#ff0000;stroke:#ff0000;" x="363.306122" xlink:href="#m6b0321ff77" y="200.362232"/>
     <use style="fill:#ff0000;stroke:#ff0000;" x="408.857143" xlink:href="#m6b0321ff77" y="293.935268"/>
     <use style="fill:#ff0000;stroke:#ff0000;" x="454.408163" xlink:href="#m6b0321ff77" y="233.214609"/>
     <use style="fill:#ff0000;stroke:#ff0000;" x="499.959184" xlink:href="#m6b0321ff77" y="204.932006"/>
     <use style="fill:#ff0000;stroke:#ff0000;" x="545.510204" xlink:href="#m6b0321ff77" y="267.603796"/>
     <use style="fill:#ff0000;stroke:#ff0000;" x="591.061224" xlink:href="#m6b0321ff77" y="212.24396"/>
     <use style="fill:#ff0000;stroke:#ff0000;" x="636.612245" xlink:href="#m6b0321ff77" y="206.063214"/>
    </g>
   </g>
   <g id="matplotlib.axis_1">
    <g id="xtick_1">
     <g id="line2d_1">
      <defs>
       <path d="M 0 0 
L 0 3.5 
" id="mfddb68c316" style="stroke:#000000;stroke-width:0.8;"/>
      </defs>
      <g>
       <use style="stroke:#000000;stroke-width:0.8;" x="90" xlink:href="#mfddb68c316" y="378"/>
      </g>
     </g>
     <g id="text_1">
      <!-- 0.0 -->
      <defs>
       <path d="M 31.78125 66.40625 
Q 24.171875 66.40625 20.328125 58.90625 
Q 16.5 51.421875 16.5 36.375 
Q 16.5 21.390625 20.328125 13.890625 
Q 24.171875 6.390625 31.78125 6.390625 
Q 39.453125 6.390625 43.28125 13.890625 
Q 47.125 21.390625 47.125 36.375 
Q 47.125 51.421875 43.28125 58.90625 
Q 39.453125 66.40625 31.78125 66.40625 
z
M 31.78125 74.21875 
Q 44.046875 74.21875 50.515625 64.515625 
Q 56.984375 54.828125 56.984375 36.375 
Q 56.984375 17.96875 50.515625 8.265625 
Q 44.046875 -1.421875 31.78125 -1.421875 
Q 19.53125 -1.421875 13.0625 8.265625 
Q 6.59375 17.96875 6.59375 36.375 
Q 6.59375 54.828125 13.0625 64.515625 
Q 19.53125 74.21875 31.78125 74.21875 
z
" id="DejaVuSans-48"/>
       <path d="M 10.6875 12.40625 
L 21 12.40625 
L 21 0 
L 10.6875 0 
z
" id="DejaVuSans-46"/>
      </defs>
      <g transform="translate(72.506563 401.716563)scale(0.22 -0.22)">
       <use xlink:href="#DejaVuSans-48"/>
       <use x="63.623047" xlink:href="#DejaVuSans-46"/>
       <use x="95.410156" xlink:href="#DejaVuSans-48"/>
      </g>
     </g>
    </g>
    <g id="xtick_2">
     <g id="line2d_2">
      <g>
       <use style="stroke:#000000;stroke-width:0.8;" x="201.6" xlink:href="#mfddb68c316" y="378"/>
      </g>
     </g>
     <g id="text_2">
      <!-- 0.2 -->
      <defs>
       <path d="M 19.1875 8.296875 
L 53.609375 8.296875 
L 53.609375 0 
L 7.328125 0 
L 7.328125 8.296875 
Q 12.9375 14.109375 22.625 23.890625 
Q 32.328125 33.6875 34.8125 36.53125 
Q 39.546875 41.84375 41.421875 45.53125 
Q 43.3125 49.21875 43.3125 52.78125 
Q 43.3125 58.59375 39.234375 62.25 
Q 35.15625 65.921875 28.609375 65.921875 
Q 23.96875 65.921875 18.8125 64.3125 
Q 13.671875 62.703125 7.8125 59.421875 
L 7.8125 69.390625 
Q 13.765625 71.78125 18.9375 73 
Q 24.125 74.21875 28.421875 74.21875 
Q 39.75 74.21875 46.484375 68.546875 
Q 53.21875 62.890625 53.21875 53.421875 
Q 53.21875 48.921875 51.53125 44.890625 
Q 49.859375 40.875 45.40625 35.40625 
Q 44.1875 33.984375 37.640625 27.21875 
Q 31.109375 20.453125 19.1875 8.296875 
z
" id="DejaVuSans-50"/>
      </defs>
      <g transform="translate(184.106563 401.716563)scale(0.22 -0.22)">
       <use xlink:href="#DejaVuSans-48"/>
       <use x="63.623047" xlink:href="#DejaVuSans-46"/>
       <use x="95.410156" xlink:href="#DejaVuSans-50"/>
      </g>
     </g>
    </g>
    <g id="xtick_3">
     <g id="line2d_3">
      <g>
       <use style="stroke:#000000;stroke-width:0.8;" x="313.2" xlink:href="#mfddb68c316" y="378"/>
      </g>
     </g>
     <g id="text_3">
      <!-- 0.4 -->
      <defs>
       <path d="M 37.796875 64.3125 
L 12.890625 25.390625 
L 37.796875 25.390625 
z
M 35.203125 72.90625 
L 47.609375 72.90625 
L 47.609375 25.390625 
L 58.015625 25.390625 
L 58.015625 17.1875 
L 47.609375 17.1875 
L 47.609375 0 
L 37.796875 0 
L 37.796875 17.1875 
L 4.890625 17.1875 
L 4.890625 26.703125 
z
" id="DejaVuSans-52"/>
      </defs>
      <g transform="translate(295.706563 401.716563)scale(0.22 -0.22)">
       <use xlink:href="#DejaVuSans-48"/>
       <use x="63.623047" xlink:href="#DejaVuSans-46"/>
       <use x="95.410156" xlink:href="#DejaVuSans-52"/>
      </g>
     </g>
    </g>
    <g id="xtick_4">
     <g id="line2d_4">
      <g>
       <use style="stroke:#000000;stroke-width:0.8;" x="424.8" xlink:href="#mfddb68c316" y="378"/>
      </g>
     </g>
     <g id="text_4">
      <!-- 0.6 -->
      <defs>
       <path d="M 33.015625 40.375 
Q 26.375 40.375 22.484375 35.828125 
Q 18.609375 31.296875 18.609375 23.390625 
Q 18.609375 15.53125 22.484375 10.953125 
Q 26.375 6.390625 33.015625 6.390625 
Q 39.65625 6.390625 43.53125 10.953125 
Q 47.40625 15.53125 47.40625 23.390625 
Q 47.40625 31.296875 43.53125 35.828125 
Q 39.65625 40.375 33.015625 40.375 
z
M 52.59375 71.296875 
L 52.59375 62.3125 
Q 48.875 64.0625 45.09375 64.984375 
Q 41.3125 65.921875 37.59375 65.921875 
Q 27.828125 65.921875 22.671875 59.328125 
Q 17.53125 52.734375 16.796875 39.40625 
Q 19.671875 43.65625 24.015625 45.921875 
Q 28.375 48.1875 33.59375 48.1875 
Q 44.578125 48.1875 50.953125 41.515625 
Q 57.328125 34.859375 57.328125 23.390625 
Q 57.328125 12.15625 50.6875 5.359375 
Q 44.046875 -1.421875 33.015625 -1.421875 
Q 20.359375 -1.421875 13.671875 8.265625 
Q 6.984375 17.96875 6.984375 36.375 
Q 6.984375 53.65625 15.1875 63.9375 
Q 23.390625 74.21875 37.203125 74.21875 
Q 40.921875 74.21875 44.703125 73.484375 
Q 48.484375 72.75 52.59375 71.296875 
z
" id="DejaVuSans-54"/>
      </defs>
      <g transform="translate(407.306563 401.716563)scale(0.22 -0.22)">
       <use xlink:href="#DejaVuSans-48"/>
       <use x="63.623047" xlink:href="#DejaVuSans-46"/>
       <use x="95.410156" xlink:href="#DejaVuSans-54"/>
      </g>
     </g>
    </g>
    <g id="xtick_5">
     <g id="line2d_5">
      <g>
       <use style="stroke:#000000;stroke-width:0.8;" x="536.4" xlink:href="#mfddb68c316" y="378"/>
      </g>
     </g>
     <g id="text_5">
      <!-- 0.8 -->
      <defs>
       <path d="M 31.78125 34.625 
Q 24.75 34.625 20.71875 30.859375 
Q 16.703125 27.09375 16.703125 20.515625 
Q 16.703125 13.921875 20.71875 10.15625 
Q 24.75 6.390625 31.78125 6.390625 
Q 38.8125 6.390625 42.859375 10.171875 
Q 46.921875 13.96875 46.921875 20.515625 
Q 46.921875 27.09375 42.890625 30.859375 
Q 38.875 34.625 31.78125 34.625 
z
M 21.921875 38.8125 
Q 15.578125 40.375 12.03125 44.71875 
Q 8.5 49.078125 8.5 55.328125 
Q 8.5 64.0625 14.71875 69.140625 
Q 20.953125 74.21875 31.78125 74.21875 
Q 42.671875 74.21875 48.875 69.140625 
Q 55.078125 64.0625 55.078125 55.328125 
Q 55.078125 49.078125 51.53125 44.71875 
Q 48 40.375 41.703125 38.8125 
Q 48.828125 37.15625 52.796875 32.3125 
Q 56.78125 27.484375 56.78125 20.515625 
Q 56.78125 9.90625 50.3125 4.234375 
Q 43.84375 -1.421875 31.78125 -1.421875 
Q 19.734375 -1.421875 13.25 4.234375 
Q 6.78125 9.90625 6.78125 20.515625 
Q 6.78125 27.484375 10.78125 32.3125 
Q 14.796875 37.15625 21.921875 38.8125 
z
M 18.3125 54.390625 
Q 18.3125 48.734375 21.84375 45.5625 
Q 25.390625 42.390625 31.78125 42.390625 
Q 38.140625 42.390625 41.71875 45.5625 
Q 45.3125 48.734375 45.3125 54.390625 
Q 45.3125 60.0625 41.71875 63.234375 
Q 38.140625 66.40625 31.78125 66.40625 
Q 25.390625 66.40625 21.84375 63.234375 
Q 18.3125 60.0625 18.3125 54.390625 
z
" id="DejaVuSans-56"/>
      </defs>
      <g transform="translate(518.906563 401.716563)scale(0.22 -0.22)">
       <use xlink:href="#DejaVuSans-48"/>
       <use x="63.623047" xlink:href="#DejaVuSans-46"/>
       <use x="95.410156" xlink:href="#DejaVuSans-56"/>
      </g>
     </g>
    </g>
    <g id="xtick_6">
     <g id="line2d_6">
      <g>
       <use style="stroke:#000000;stroke-width:0.8;" x="648" xlink:href="#mfddb68c316" y="378"/>
      </g>
     </g>
     <g id="text_6">
      <!-- 1.0 -->
      <defs>
       <path d="M 12.40625 8.296875 
L 28.515625 8.296875 
L 28.515625 63.921875 
L 10.984375 60.40625 
L 10.984375 69.390625 
L 28.421875 72.90625 
L 38.28125 72.90625 
L 38.28125 8.296875 
L 54.390625 8.296875 
L 54.390625 0 
L 12.40625 0 
z
" id="DejaVuSans-49"/>
      </defs>
      <g transform="translate(630.506562 401.716563)scale(0.22 -0.22)">
       <use xlink:href="#DejaVuSans-49"/>
       <use x="63.623047" xlink:href="#DejaVuSans-46"/>
       <use x="95.410156" xlink:href="#DejaVuSans-48"/>
      </g>
     </g>
    </g>
    <g id="text_7">
     <!-- $x$ -->
     <defs>
      <path d="M 60.015625 54.6875 
L 34.90625 27.875 
L 50.296875 0 
L 39.984375 0 
L 28.421875 21.6875 
L 8.296875 0 
L -2.59375 0 
L 24.3125 28.8125 
L 10.015625 54.6875 
L 20.3125 54.6875 
L 30.8125 34.90625 
L 49.125 54.6875 
z
" id="DejaVuSans-Oblique-120"/>
     </defs>
     <g transform="translate(362.4 427.008438)scale(0.22 -0.22)">
      <use transform="translate(0 0.3125)" xlink:href="#DejaVuSans-Oblique-120"/>
     </g>
    </g>
   </g>
   <g id="matplotlib.axis_2">
    <g id="ytick_1">
     <g id="line2d_7">
      <defs>
       <path d="M 0 0 
L -3.5 0 
" id="mf2314f748f" style="stroke:#000000;stroke-width:0.8;"/>
      </defs>
      <g>
       <use style="stroke:#000000;stroke-width:0.8;" x="90" xlink:href="#mf2314f748f" y="319.038522"/>
      </g>
     </g>
     <g id="text_8">
      <!-- −1.0 -->
      <defs>
       <path d="M 10.59375 35.5 
L 73.1875 35.5 
L 73.1875 27.203125 
L 10.59375 27.203125 
z
" id="DejaVuSans-8722"/>
      </defs>
      <g transform="translate(29.577813 327.396803)scale(0.22 -0.22)">
       <use xlink:href="#DejaVuSans-8722"/>
       <use x="83.789062" xlink:href="#DejaVuSans-49"/>
       <use x="147.412109" xlink:href="#DejaVuSans-46"/>
       <use x="179.199219" xlink:href="#DejaVuSans-48"/>
      </g>
     </g>
    </g>
    <g id="ytick_2">
     <g id="line2d_8">
      <g>
       <use style="stroke:#000000;stroke-width:0.8;" x="90" xlink:href="#mf2314f748f" y="255.947896"/>
      </g>
     </g>
     <g id="text_9">
      <!-- −0.5 -->
      <defs>
       <path d="M 10.796875 72.90625 
L 49.515625 72.90625 
L 49.515625 64.59375 
L 19.828125 64.59375 
L 19.828125 46.734375 
Q 21.96875 47.46875 24.109375 47.828125 
Q 26.265625 48.1875 28.421875 48.1875 
Q 40.625 48.1875 47.75 41.5 
Q 54.890625 34.8125 54.890625 23.390625 
Q 54.890625 11.625 47.5625 5.09375 
Q 40.234375 -1.421875 26.90625 -1.421875 
Q 22.3125 -1.421875 17.546875 -0.640625 
Q 12.796875 0.140625 7.71875 1.703125 
L 7.71875 11.625 
Q 12.109375 9.234375 16.796875 8.0625 
Q 21.484375 6.890625 26.703125 6.890625 
Q 35.15625 6.890625 40.078125 11.328125 
Q 45.015625 15.765625 45.015625 23.390625 
Q 45.015625 31 40.078125 35.4375 
Q 35.15625 39.890625 26.703125 39.890625 
Q 22.75 39.890625 18.8125 39.015625 
Q 14.890625 38.140625 10.796875 36.28125 
z
" id="DejaVuSans-53"/>
      </defs>
      <g transform="translate(29.577813 264.306177)scale(0.22 -0.22)">
       <use xlink:href="#DejaVuSans-8722"/>
       <use x="83.789062" xlink:href="#DejaVuSans-48"/>
       <use x="147.412109" xlink:href="#DejaVuSans-46"/>
       <use x="179.199219" xlink:href="#DejaVuSans-53"/>
      </g>
     </g>
    </g>
    <g id="ytick_3">
     <g id="line2d_9">
      <g>
       <use style="stroke:#000000;stroke-width:0.8;" x="90" xlink:href="#mf2314f748f" y="192.85727"/>
      </g>
     </g>
     <g id="text_10">
      <!-- 0.0 -->
      <g transform="translate(48.013125 201.215552)scale(0.22 -0.22)">
       <use xlink:href="#DejaVuSans-48"/>
       <use x="63.623047" xlink:href="#DejaVuSans-46"/>
       <use x="95.410156" xlink:href="#DejaVuSans-48"/>
      </g>
     </g>
    </g>
    <g id="ytick_4">
     <g id="line2d_10">
      <g>
       <use style="stroke:#000000;stroke-width:0.8;" x="90" xlink:href="#mf2314f748f" y="129.766645"/>
      </g>
     </g>
     <g id="text_11">
      <!-- 0.5 -->
      <g transform="translate(48.013125 138.124926)scale(0.22 -0.22)">
       <use xlink:href="#DejaVuSans-48"/>
       <use x="63.623047" xlink:href="#DejaVuSans-46"/>
       <use x="95.410156" xlink:href="#DejaVuSans-53"/>
      </g>
     </g>
    </g>
    <g id="ytick_5">
     <g id="line2d_11">
      <g>
       <use style="stroke:#000000;stroke-width:0.8;" x="90" xlink:href="#mf2314f748f" y="66.676019"/>
      </g>
     </g>
     <g id="text_12">
      <!-- 1.0 -->
      <g transform="translate(48.013125 75.0343)scale(0.22 -0.22)">
       <use xlink:href="#DejaVuSans-49"/>
       <use x="63.623047" xlink:href="#DejaVuSans-46"/>
       <use x="95.410156" xlink:href="#DejaVuSans-48"/>
      </g>
     </g>
    </g>
    <g id="text_13">
     <!-- $f(x)$ -->
     <defs>
      <path d="M 47.796875 75.984375 
L 46.390625 68.5 
L 37.796875 68.5 
Q 32.90625 68.5 30.6875 66.578125 
Q 28.46875 64.65625 27.390625 59.515625 
L 26.421875 54.6875 
L 41.21875 54.6875 
L 39.890625 47.703125 
L 25.09375 47.703125 
L 15.828125 0 
L 6.78125 0 
L 16.109375 47.703125 
L 7.515625 47.703125 
L 8.796875 54.6875 
L 17.390625 54.6875 
L 18.109375 58.5 
Q 19.96875 68.171875 24.625 72.078125 
Q 29.296875 75.984375 39.3125 75.984375 
z
" id="DejaVuSans-Oblique-102"/>
      <path d="M 31 75.875 
Q 24.46875 64.65625 21.28125 53.65625 
Q 18.109375 42.671875 18.109375 31.390625 
Q 18.109375 20.125 21.3125 9.0625 
Q 24.515625 -2 31 -13.1875 
L 23.1875 -13.1875 
Q 15.875 -1.703125 12.234375 9.375 
Q 8.59375 20.453125 8.59375 31.390625 
Q 8.59375 42.28125 12.203125 53.3125 
Q 15.828125 64.359375 23.1875 75.875 
z
" id="DejaVuSans-40"/>
      <path d="M 8.015625 75.875 
L 15.828125 75.875 
Q 23.140625 64.359375 26.78125 53.3125 
Q 30.421875 42.28125 30.421875 31.390625 
Q 30.421875 20.453125 26.78125 9.375 
Q 23.140625 -1.703125 15.828125 -13.1875 
L 8.015625 -13.1875 
Q 14.5 -2 17.703125 9.0625 
Q 20.90625 20.125 20.90625 31.390625 
Q 20.90625 42.671875 17.703125 53.65625 
Q 14.5 64.65625 8.015625 75.875 
z
" id="DejaVuSans-41"/>
     </defs>
     <g transform="translate(21.0025 233.95)rotate(-90)scale(0.22 -0.22)">
      <use transform="translate(0 0.015625)" xlink:href="#DejaVuSans-Oblique-102"/>
      <use transform="translate(35.205078 0.015625)" xlink:href="#DejaVuSans-40"/>
      <use transform="translate(74.21875 0.015625)" xlink:href="#DejaVuSans-Oblique-120"/>
      <use transform="translate(133.398438 0.015625)" xlink:href="#DejaVuSans-41"/>
     </g>
    </g>
   </g>
   <g id="line2d_12">
    <path clip-path="url(#p2c9195cee5)" d="M 90 192.85727 
L 95.60804 161.32294 
L 98.41206 146.184682 
L 101.21608 131.789885 
L 104.020101 118.367848 
L 106.824121 106.132374 
L 109.628141 95.278365 
L 112.432161 85.978718 
L 115.236181 78.38157 
L 118.040201 72.607937 
L 120.844221 68.749791 
L 123.648241 66.868587 
L 126.452261 66.994293 
L 129.256281 69.124905 
L 132.060302 73.226486 
L 134.864322 79.233699 
L 137.668342 87.050854 
L 140.472362 96.55343 
L 143.276382 107.590057 
L 146.080402 119.984929 
L 148.884422 133.540605 
L 151.688442 148.041153 
L 157.296482 178.94156 
L 165.708543 226.316392 
L 168.512563 241.374698 
L 171.316583 255.660156 
L 174.120603 268.945209 
L 176.924623 281.018236 
L 179.728643 291.686922 
L 182.532663 300.781323 
L 185.336683 308.156571 
L 188.140704 313.695184 
L 190.944724 317.308935 
L 193.748744 318.940261 
L 196.552764 318.563175 
L 199.356784 316.183684 
L 202.160804 311.839691 
L 204.964824 305.600395 
L 207.768844 297.565181 
L 210.572864 287.862045 
L 213.376884 276.645551 
L 216.180905 264.09437 
L 218.984925 250.408433 
L 221.788945 235.805747 
L 227.396985 204.791469 
L 235.809045 157.481697 
L 238.613065 142.507095 
L 241.417085 128.334536 
L 244.221106 115.189778 
L 247.025126 103.282207 
L 249.829146 92.801502 
L 252.633166 83.914614 
L 255.437186 76.763105 
L 258.241206 71.460892 
L 261.045226 68.092437 
L 263.849246 66.711396 
L 266.653266 67.339768 
L 269.457286 69.967544 
L 272.261307 74.552866 
L 275.065327 81.022691 
L 277.869347 89.273961 
L 280.673367 99.175239 
L 283.477387 110.568805 
L 286.281407 123.273167 
L 289.085427 137.085953 
L 291.889447 151.787137 
L 297.497487 182.907558 
L 305.909548 230.14048 
L 308.713568 245.027645 
L 311.517588 259.083773 
L 314.321608 272.084961 
L 317.125628 283.824108 
L 319.929648 294.114219 
L 322.733668 302.791379 
L 325.537688 309.717367 
L 328.341709 314.781859 
L 331.145729 317.904178 
L 333.949749 319.034591 
L 336.753769 318.155089 
L 339.557789 315.279683 
L 342.361809 310.454175 
L 345.165829 303.755433 
L 347.969849 295.290163 
L 350.773869 285.193211 
L 353.577889 273.625413 
L 356.38191 260.771036 
L 359.18593 246.834842 
L 361.98995 232.038824 
L 367.59799 200.820018 
L 376.01005 153.675717 
L 378.81407 138.879699 
L 381.61809 124.943504 
L 384.422111 112.089128 
L 387.226131 100.52133 
L 390.030151 90.424378 
L 392.834171 81.959107 
L 395.638191 75.260366 
L 398.442211 70.434858 
L 401.246231 67.559452 
L 404.050251 66.67995 
L 406.854271 67.810362 
L 409.658291 70.932682 
L 412.462312 75.997173 
L 415.266332 82.923162 
L 418.070352 91.600322 
L 420.874372 101.890433 
L 423.678392 113.62958 
L 426.482412 126.630768 
L 429.286432 140.686896 
L 434.894472 171.05512 
L 446.110553 233.927404 
L 448.914573 248.628587 
L 451.718593 262.441374 
L 454.522613 275.145736 
L 457.326633 286.539301 
L 460.130653 296.44058 
L 462.934673 304.69185 
L 465.738693 311.161675 
L 468.542714 315.746997 
L 471.346734 318.374773 
L 474.150754 319.003145 
L 476.954774 317.622104 
L 479.758794 314.253648 
L 482.562814 308.951436 
L 485.366834 301.799926 
L 488.170854 292.913039 
L 490.974874 282.432334 
L 493.778894 270.524763 
L 496.582915 257.380005 
L 499.386935 243.207446 
L 504.994975 212.694735 
L 516.211055 149.908793 
L 519.015075 135.306108 
L 521.819095 121.620171 
L 524.623116 109.06899 
L 527.427136 97.852496 
L 530.231156 88.14936 
L 533.035176 80.114146 
L 535.839196 73.874849 
L 538.643216 69.530857 
L 541.447236 67.151366 
L 544.251256 66.77428 
L 547.055276 68.405606 
L 549.859296 72.019357 
L 552.663317 77.55797 
L 555.467337 84.933218 
L 558.271357 94.027618 
L 561.075377 104.696304 
L 563.879397 116.769331 
L 566.683417 130.054385 
L 569.487437 144.339843 
L 575.095477 174.989435 
L 583.507538 222.458951 
L 586.311558 237.673388 
L 589.115578 252.173936 
L 591.919598 265.729612 
L 594.723618 278.124484 
L 597.527638 289.161111 
L 600.331658 298.663686 
L 603.135678 306.480842 
L 605.939698 312.488055 
L 608.743719 316.589635 
L 611.547739 318.720248 
L 614.351759 318.845954 
L 617.155779 316.96475 
L 619.959799 313.106603 
L 622.763819 307.332971 
L 625.567839 299.735823 
L 628.371859 290.436176 
L 631.175879 279.582167 
L 633.979899 267.346693 
L 636.78392 253.924656 
L 639.58794 239.529859 
L 645.19598 208.751024 
L 648 192.85727 
L 648 192.85727 
" style="fill:none;stroke:#0000ff;stroke-linecap:square;stroke-width:3;"/>
   </g>
   <g id="line2d_13">
    <path clip-path="url(#p2c9195cee5)" d="M 90 192.85727 
L 92.80402 195.678427 
L 95.60804 203.923254 
L 98.41206 217.011297 
L 101.21608 234.059604 
L 104.020101 253.9408 
L 109.628141 296.919515 
L 112.432161 317.244845 
L 115.236181 335.034894 
L 118.040201 349.162278 
L 120.844221 358.739729 
L 123.648241 363.174545 
L 126.452261 362.203963 
L 129.256281 355.909374 
L 132.060302 344.708625 
L 134.864322 329.327058 
L 137.668342 310.749277 
L 146.080402 248.145219 
L 148.884422 229.348967 
L 151.688442 213.608232 
L 154.492462 201.875582 
L 157.296482 194.84254 
L 160.100503 192.89779 
L 162.904523 196.104891 
L 165.708543 204.200766 
L 168.512563 216.614898 
L 171.316583 232.507862 
L 174.120603 250.826595 
L 179.728643 289.879824 
L 182.532663 308.093754 
L 185.336683 323.852403 
L 188.140704 336.158349 
L 190.944724 344.240757 
L 193.748744 347.60238 
L 196.552764 346.04884 
L 199.356784 339.698485 
L 202.160804 328.972347 
L 204.964824 314.565002 
L 207.768844 297.398335 
L 216.180905 240.639276 
L 218.984925 223.911398 
L 221.788945 210.078257 
L 224.592965 199.970425 
L 227.396985 194.175612 
L 230.201005 193.003511 
L 233.005025 196.468546 
L 235.809045 204.291488 
L 238.613065 215.919662 
L 241.417085 230.564316 
L 244.221106 247.252618 
L 249.829146 282.334877 
L 252.633166 298.462781 
L 255.437186 312.245995 
L 258.241206 322.813489 
L 261.045226 329.505566 
L 263.849246 331.913749 
L 266.653266 329.904409 
L 269.457286 323.624738 
L 272.261307 313.490893 
L 275.065327 300.159184 
L 277.869347 284.482307 
L 286.281407 233.626799 
L 289.085427 218.923514 
L 291.889447 206.925521 
L 294.693467 198.346017 
L 297.497487 193.67506 
L 300.301508 193.150645 
L 303.105528 196.746033 
L 305.909548 204.173979 
L 308.713568 214.907433 
L 311.517588 228.215246 
L 314.321608 243.210462 
L 319.929648 274.288123 
L 322.733668 288.361159 
L 325.537688 300.230106 
L 328.341709 309.146418 
L 331.145729 314.555961 
L 333.949749 316.132159 
L 336.753769 313.794377 
L 339.557789 307.710537 
L 342.361809 298.283936 
L 345.165829 286.125287 
L 347.969849 272.011894 
L 353.577889 241.550425 
L 356.38191 227.100918 
L 359.18593 214.37296 
L 361.98995 204.132968 
L 364.79397 196.981692 
L 367.59799 193.31792 
L 370.40201 193.315395 
L 373.20603 196.914236 
L 376.01005 203.827275 
L 378.81407 213.560734 
L 381.61809 225.447776 
L 387.226131 252.422633 
L 390.030151 265.743991 
L 392.834171 277.799032 
L 395.638191 287.819942 
L 398.442211 295.176434 
L 401.246231 299.41411 
L 404.050251 300.28123 
L 406.854271 297.74232 
L 409.658291 291.977905 
L 412.462312 283.370545 
L 415.266332 272.478217 
L 418.070352 259.996886 
L 423.678392 233.461223 
L 426.482412 221.053819 
L 429.286432 210.246547 
L 432.090452 201.682878 
L 434.894472 195.856323 
L 437.698492 193.081007 
L 440.502513 193.473992 
L 443.306533 196.950317 
L 446.110553 203.230925 
L 448.914573 211.862798 
L 451.718593 222.249893 
L 460.130653 256.707886 
L 462.934673 266.787424 
L 465.738693 275.031448 
L 468.542714 280.923389 
L 471.346734 284.102505 
L 474.150754 284.384664 
L 476.954774 281.771635 
L 479.758794 276.448449 
L 482.562814 268.769162 
L 485.366834 259.232076 
L 488.170854 248.446148 
L 493.778894 225.871979 
L 496.582915 215.476756 
L 499.386935 206.53028 
L 502.190955 199.556894 
L 504.994975 194.948362 
L 507.798995 192.940952 
L 510.603015 193.602737 
L 513.407035 196.831755 
L 516.211055 202.365016 
L 519.015075 209.797594 
L 521.819095 218.610466 
L 530.231156 247.186174 
L 533.035176 255.338227 
L 535.839196 261.881286 
L 538.643216 266.407651 
L 541.447236 268.643922 
L 544.251256 268.466196 
L 547.055276 265.905507 
L 549.859296 261.143327 
L 552.663317 254.497569 
L 555.467337 246.400139 
L 561.075377 227.966957 
L 563.879397 218.778771 
L 566.683417 210.360072 
L 569.487437 203.209378 
L 572.291457 197.736054 
L 575.095477 194.235874 
L 577.899497 192.874246 
L 580.703518 193.678039 
L 583.507538 196.536381 
L 586.311558 201.210215 
L 589.115578 207.349853 
L 591.919598 214.51926 
L 597.527638 229.950639 
L 600.331658 237.186173 
L 603.135678 243.464181 
L 605.939698 248.386801 
L 608.743719 251.650068 
L 611.547739 253.061387 
L 614.351759 252.549562 
L 617.155779 250.166871 
L 619.959799 246.083211 
L 622.763819 240.572861 
L 625.567839 233.994832 
L 633.979899 212.176701 
L 636.78392 205.693211 
L 639.58794 200.268302 
L 642.39196 196.200825 
L 645.19598 193.696575 
L 648 192.85727 
L 648 192.85727 
" style="fill:none;stroke:#ff0000;stroke-linecap:square;stroke-width:3;"/>
   </g>
   <g id="line2d_14">
    <path clip-path="url(#p2c9195cee5)" d="M 90 192.85684 
L 95.60804 161.328794 
L 98.41206 146.189107 
L 101.21608 131.792029 
L 104.020101 118.367766 
L 106.824121 106.13061 
L 109.628141 95.275651 
L 112.432161 85.975778 
L 115.236181 78.378996 
L 118.040201 72.606137 
L 120.844221 68.748968 
L 123.648241 66.868764 
L 126.452261 66.995343 
L 129.256281 69.126601 
L 132.060302 73.228546 
L 134.864322 79.23583 
L 137.668342 87.052789 
L 140.472362 96.554954 
L 143.276382 107.591023 
L 146.080402 119.985268 
L 148.884422 133.540319 
L 151.688442 148.040311 
L 157.296482 178.939997 
L 165.708543 226.314968 
L 168.512563 241.373599 
L 171.316583 255.659466 
L 174.120603 268.944971 
L 176.924623 281.018449 
L 179.728643 291.687548 
L 182.532663 300.782289 
L 185.336683 308.15778 
L 188.140704 313.696524 
L 190.944724 317.310289 
L 193.748744 318.941517 
L 196.552764 318.564235 
L 199.356784 316.184469 
L 202.160804 311.84015 
L 204.964824 305.600502 
L 207.768844 297.564942 
L 210.572864 287.861491 
L 213.376884 276.644736 
L 216.180905 264.093365 
L 218.984925 250.407323 
L 221.788945 235.804619 
L 227.396985 204.790555 
L 235.809045 157.48153 
L 238.613065 142.507214 
L 241.417085 128.334923 
L 244.221106 115.190397 
L 247.025126 103.283006 
L 249.829146 92.802419 
L 252.633166 83.915579 
L 255.437186 76.764046 
L 258.241206 71.461742 
L 261.045226 68.093137 
L 263.849246 66.7119 
L 266.653266 67.340045 
L 269.457286 69.967579 
L 272.261307 74.552662 
L 275.065327 81.022268 
L 277.869347 89.273355 
L 280.673367 99.174495 
L 283.477387 110.567979 
L 286.281407 123.272319 
L 289.085427 137.085144 
L 291.889447 151.786423 
L 297.497487 182.907167 
L 305.909548 230.140719 
L 308.713568 245.028073 
L 311.517588 259.084358 
L 314.321608 272.08566 
L 317.125628 283.82487 
L 319.929648 294.11499 
L 322.733668 302.792106 
L 325.537688 309.718 
L 328.341709 314.782353 
L 331.145729 317.904502 
L 333.949749 319.034723 
L 336.753769 318.155021 
L 339.557789 315.279422 
L 342.361809 310.45374 
L 345.165829 303.754856 
L 347.969849 295.289484 
L 350.773869 285.192478 
L 353.577889 273.624678 
L 356.38191 260.77035 
L 359.18593 246.834252 
L 361.98995 232.038371 
L 367.59799 200.819921 
L 376.01005 153.67617 
L 378.81407 138.880289 
L 381.61809 124.944191 
L 384.422111 112.089863 
L 387.226131 100.522063 
L 390.030151 90.425056 
L 392.834171 81.959685 
L 395.638191 75.260801 
L 398.442211 70.435119 
L 401.246231 67.55952 
L 404.050251 66.679818 
L 406.854271 67.810039 
L 409.658291 70.932188 
L 412.462312 75.996541 
L 415.266332 82.922435 
L 418.070352 91.59955 
L 420.874372 101.889671 
L 423.678392 113.628881 
L 426.482412 126.630182 
L 429.286432 140.686467 
L 434.894472 171.055091 
L 446.110553 233.928118 
L 448.914573 248.629396 
L 451.718593 262.442222 
L 454.522613 275.146562 
L 457.326633 286.540045 
L 460.130653 296.441186 
L 462.934673 304.692272 
L 465.738693 311.161879 
L 468.542714 315.746962 
L 471.346734 318.374496 
L 474.150754 319.002641 
L 476.954774 317.621403 
L 479.758794 314.252798 
L 482.562814 308.950495 
L 485.366834 301.798962 
L 488.170854 292.912122 
L 490.974874 282.431535 
L 493.778894 270.524144 
L 496.582915 257.379618 
L 499.386935 243.207327 
L 504.994975 212.695183 
L 516.211055 149.909921 
L 519.015075 135.307218 
L 521.819095 121.621175 
L 524.623116 109.069805 
L 527.427136 97.85305 
L 530.231156 88.149599 
L 533.035176 80.114038 
L 535.839196 73.87439 
L 538.643216 69.530071 
L 541.447236 67.150306 
L 544.251256 66.773024 
L 547.055276 68.404252 
L 549.859296 72.018017 
L 552.663317 77.556761 
L 555.467337 84.932252 
L 558.271357 94.026993 
L 561.075377 104.696091 
L 563.879397 116.76957 
L 566.683417 130.055075 
L 569.487437 144.340942 
L 575.095477 174.991062 
L 583.507538 222.46023 
L 586.311558 237.674229 
L 589.115578 252.174221 
L 591.919598 265.729273 
L 594.723618 278.123517 
L 597.527638 289.159587 
L 600.331658 298.661751 
L 603.135678 306.478711 
L 605.939698 312.485995 
L 608.743719 316.587939 
L 611.547739 318.719198 
L 614.351759 318.845777 
L 617.155779 316.965572 
L 619.959799 313.108404 
L 622.763819 307.335544 
L 625.567839 299.738763 
L 628.371859 290.43889 
L 631.175879 279.583931 
L 633.979899 267.346775 
L 636.78392 253.922512 
L 639.58794 239.525434 
L 645.19598 208.746058 
L 648 192.857701 
L 648 192.857701 
" style="fill:none;stroke:#008000;stroke-dasharray:11.1,4.8;stroke-dashoffset:0;stroke-width:3;"/>
   </g>
   <g id="line2d_15">
    <path clip-path="url(#p2c9195cee5)" d="M 90 192.858527 
L 92.80402 197.212867 
L 95.60804 207.5347 
L 98.41206 222.713486 
L 101.21608 241.279294 
L 109.628141 301.619145 
L 112.432161 318.861469 
L 115.236181 333.141281 
L 118.040201 343.955593 
L 120.844221 351.012621 
L 123.648241 354.173511 
L 126.452261 353.405847 
L 129.256281 348.758216 
L 132.060302 340.359731 
L 134.864322 328.443608 
L 137.668342 313.389338 
L 140.472362 295.773051 
L 148.884422 236.967649 
L 151.688442 219.630775 
L 154.492462 205.802725 
L 157.296482 196.731013 
L 160.100503 193.281999 
L 162.904523 195.791798 
L 165.708543 203.99918 
L 168.512563 217.080922 
L 171.316583 233.781515 
L 179.728643 290.595358 
L 182.532663 307.202801 
L 185.336683 320.963753 
L 188.140704 331.291567 
L 190.944724 337.836179 
L 193.748744 340.428406 
L 196.552764 339.032909 
L 199.356784 333.722969 
L 202.160804 324.682646 
L 204.964824 312.234428 
L 207.768844 296.883146 
L 210.572864 279.360364 
L 216.180905 241.963915 
L 218.984925 224.681922 
L 221.788945 210.204391 
L 224.592965 199.784045 
L 227.396985 194.34178 
L 230.201005 194.320618 
L 233.005025 199.615378 
L 235.809045 209.59759 
L 238.613065 223.228139 
L 241.417085 239.226296 
L 247.025126 273.062446 
L 249.829146 288.615614 
L 252.633166 302.117732 
L 255.437186 313.01945 
L 258.241206 320.979972 
L 261.045226 325.817092 
L 263.849246 327.459076 
L 266.653266 325.909367 
L 269.457286 321.230231 
L 272.261307 313.547275 
L 275.065327 303.073129 
L 277.869347 290.14499 
L 280.673367 275.266723 
L 289.085427 226.981181 
L 291.889447 213.218015 
L 294.693467 202.544725 
L 297.497487 195.919901 
L 300.301508 193.956982 
L 303.105528 196.813686 
L 305.909548 204.155917 
L 308.713568 215.208276 
L 311.517588 228.878548 
L 317.125628 259.113743 
L 319.929648 273.366769 
L 322.733668 285.822124 
L 325.537688 295.864062 
L 328.341709 303.100195 
L 331.145729 307.316834 
L 333.949749 308.43037 
L 336.753769 306.450056 
L 339.557789 301.461537 
L 342.361809 293.634067 
L 345.165829 283.248268 
L 347.969849 270.735289 
L 350.773869 256.713007 
L 356.38191 227.599695 
L 359.18593 214.614676 
L 361.98995 204.141633 
L 364.79397 197.116522 
L 367.59799 194.17123 
L 370.40201 195.529076 
L 373.20603 200.969641 
L 376.01005 209.872843 
L 378.81407 221.329209 
L 387.226131 260.60796 
L 390.030151 272.285307 
L 392.834171 282.174964 
L 395.638191 289.918783 
L 398.442211 295.311884 
L 401.246231 298.260125 
L 404.050251 298.742736 
L 406.854271 296.787327 
L 409.658291 292.460744 
L 412.462312 285.876292 
L 415.266332 277.215318 
L 418.070352 266.758502 
L 420.874372 254.919129 
L 426.482412 229.5334 
L 429.286432 217.575054 
L 432.090452 207.307415 
L 434.894472 199.594668 
L 437.698492 195.123889 
L 440.502513 194.28833 
L 443.306533 197.111591 
L 446.110553 203.235747 
L 448.914573 211.978824 
L 451.718593 222.446672 
L 457.326633 244.728983 
L 460.130653 254.851924 
L 462.934673 263.455663 
L 465.738693 270.151225 
L 468.542714 274.715178 
L 471.346734 277.047547 
L 474.150754 277.131096 
L 476.954774 275.00322 
L 479.758794 270.746512 
L 482.562814 264.499027 
L 485.366834 256.480463 
L 488.170854 247.025854 
L 496.582915 215.579427 
L 499.386935 206.544726 
L 502.190955 199.567345 
L 504.994975 195.289625 
L 507.798995 194.096559 
L 510.603015 196.048692 
L 513.407035 200.874058 
L 516.211055 208.021381 
L 519.015075 216.758592 
L 524.623116 235.858026 
L 527.427136 244.826344 
L 530.231156 252.708554 
L 533.035176 259.174571 
L 535.839196 264.02845 
L 538.643216 267.175772 
L 541.447236 268.590409 
L 544.251256 268.28791 
L 547.055276 266.30946 
L 549.859296 262.717832 
L 552.663317 257.605006 
L 555.467337 251.109631 
L 558.271357 243.440833 
L 561.075377 234.902616 
L 566.683417 216.99243 
L 569.487437 208.759879 
L 572.291457 201.85372 
L 575.095477 196.860573 
L 577.899497 194.219725 
L 580.703518 194.141644 
L 583.507538 196.561997 
L 586.311558 201.146675 
L 589.115578 207.348339 
L 597.527638 228.985612 
L 600.331658 235.230174 
L 603.135678 240.320438 
L 605.939698 244.067876 
L 608.743719 246.392841 
L 611.547739 247.287048 
L 614.351759 246.781017 
L 617.155779 244.923961 
L 619.959799 241.779582 
L 622.763819 237.437501 
L 625.567839 232.036608 
L 628.371859 225.793219 
L 636.78392 205.686398 
L 639.58794 200.171788 
L 642.39196 196.112677 
L 645.19598 193.88953 
L 648 193.688265 
L 648 193.688265 
" style="fill:none;stroke:#bfbf00;stroke-dasharray:11.1,4.8;stroke-dashoffset:0;stroke-width:3;"/>
   </g>
   <g id="patch_3">
    <path d="M 90 378 
L 90 51.84 
" style="fill:none;stroke:#000000;stroke-linecap:square;stroke-linejoin:miter;stroke-width:0.8;"/>
   </g>
   <g id="patch_4">
    <path d="M 648 378 
L 648 51.84 
" style="fill:none;stroke:#000000;stroke-linecap:square;stroke-linejoin:miter;stroke-width:0.8;"/>
   </g>
   <g id="patch_5">
    <path d="M 90 378 
L 648 378 
" style="fill:none;stroke:#000000;stroke-linecap:square;stroke-linejoin:miter;stroke-width:0.8;"/>
   </g>
   <g id="patch_6">
    <path d="M 90 51.84 
L 648 51.84 
" style="fill:none;stroke:#000000;stroke-linecap:square;stroke-linejoin:miter;stroke-width:0.8;"/>
   </g>
   <g id="legend_1">
    <g id="patch_7">
     <path d="M 313.397187 198.6075 
L 632.6 198.6075 
Q 637 198.6075 637 194.2075 
L 637 67.24 
Q 637 62.84 632.6 62.84 
L 313.397187 62.84 
Q 308.997187 62.84 308.997187 67.24 
L 308.997187 194.2075 
Q 308.997187 198.6075 313.397187 198.6075 
z
" style="fill:#ffffff;opacity:0.8;stroke:#cccccc;stroke-linejoin:miter;"/>
    </g>
    <g id="line2d_16">
     <path d="M 317.797188 80.656562 
L 361.797188 80.656562 
" style="fill:none;stroke:#0000ff;stroke-linecap:square;stroke-width:3;"/>
    </g>
    <g id="line2d_17"/>
    <g id="text_14">
     <!-- Low Fidelity -->
     <defs>
      <path d="M 9.8125 72.90625 
L 19.671875 72.90625 
L 19.671875 8.296875 
L 55.171875 8.296875 
L 55.171875 0 
L 9.8125 0 
z
" id="DejaVuSans-76"/>
      <path d="M 30.609375 48.390625 
Q 23.390625 48.390625 19.1875 42.75 
Q 14.984375 37.109375 14.984375 27.296875 
Q 14.984375 17.484375 19.15625 11.84375 
Q 23.34375 6.203125 30.609375 6.203125 
Q 37.796875 6.203125 41.984375 11.859375 
Q 46.1875 17.53125 46.1875 27.296875 
Q 46.1875 37.015625 41.984375 42.703125 
Q 37.796875 48.390625 30.609375 48.390625 
z
M 30.609375 56 
Q 42.328125 56 49.015625 48.375 
Q 55.71875 40.765625 55.71875 27.296875 
Q 55.71875 13.875 49.015625 6.21875 
Q 42.328125 -1.421875 30.609375 -1.421875 
Q 18.84375 -1.421875 12.171875 6.21875 
Q 5.515625 13.875 5.515625 27.296875 
Q 5.515625 40.765625 12.171875 48.375 
Q 18.84375 56 30.609375 56 
z
" id="DejaVuSans-111"/>
      <path d="M 4.203125 54.6875 
L 13.1875 54.6875 
L 24.421875 12.015625 
L 35.59375 54.6875 
L 46.1875 54.6875 
L 57.421875 12.015625 
L 68.609375 54.6875 
L 77.59375 54.6875 
L 63.28125 0 
L 52.6875 0 
L 40.921875 44.828125 
L 29.109375 0 
L 18.5 0 
z
" id="DejaVuSans-119"/>
      <path id="DejaVuSans-32"/>
      <path d="M 9.8125 72.90625 
L 51.703125 72.90625 
L 51.703125 64.59375 
L 19.671875 64.59375 
L 19.671875 43.109375 
L 48.578125 43.109375 
L 48.578125 34.8125 
L 19.671875 34.8125 
L 19.671875 0 
L 9.8125 0 
z
" id="DejaVuSans-70"/>
      <path d="M 9.421875 54.6875 
L 18.40625 54.6875 
L 18.40625 0 
L 9.421875 0 
z
M 9.421875 75.984375 
L 18.40625 75.984375 
L 18.40625 64.59375 
L 9.421875 64.59375 
z
" id="DejaVuSans-105"/>
      <path d="M 45.40625 46.390625 
L 45.40625 75.984375 
L 54.390625 75.984375 
L 54.390625 0 
L 45.40625 0 
L 45.40625 8.203125 
Q 42.578125 3.328125 38.25 0.953125 
Q 33.9375 -1.421875 27.875 -1.421875 
Q 17.96875 -1.421875 11.734375 6.484375 
Q 5.515625 14.40625 5.515625 27.296875 
Q 5.515625 40.1875 11.734375 48.09375 
Q 17.96875 56 27.875 56 
Q 33.9375 56 38.25 53.625 
Q 42.578125 51.265625 45.40625 46.390625 
z
M 14.796875 27.296875 
Q 14.796875 17.390625 18.875 11.75 
Q 22.953125 6.109375 30.078125 6.109375 
Q 37.203125 6.109375 41.296875 11.75 
Q 45.40625 17.390625 45.40625 27.296875 
Q 45.40625 37.203125 41.296875 42.84375 
Q 37.203125 48.484375 30.078125 48.484375 
Q 22.953125 48.484375 18.875 42.84375 
Q 14.796875 37.203125 14.796875 27.296875 
z
" id="DejaVuSans-100"/>
      <path d="M 56.203125 29.59375 
L 56.203125 25.203125 
L 14.890625 25.203125 
Q 15.484375 15.921875 20.484375 11.0625 
Q 25.484375 6.203125 34.421875 6.203125 
Q 39.59375 6.203125 44.453125 7.46875 
Q 49.3125 8.734375 54.109375 11.28125 
L 54.109375 2.78125 
Q 49.265625 0.734375 44.1875 -0.34375 
Q 39.109375 -1.421875 33.890625 -1.421875 
Q 20.796875 -1.421875 13.15625 6.1875 
Q 5.515625 13.8125 5.515625 26.8125 
Q 5.515625 40.234375 12.765625 48.109375 
Q 20.015625 56 32.328125 56 
Q 43.359375 56 49.78125 48.890625 
Q 56.203125 41.796875 56.203125 29.59375 
z
M 47.21875 32.234375 
Q 47.125 39.59375 43.09375 43.984375 
Q 39.0625 48.390625 32.421875 48.390625 
Q 24.90625 48.390625 20.390625 44.140625 
Q 15.875 39.890625 15.1875 32.171875 
z
" id="DejaVuSans-101"/>
      <path d="M 9.421875 75.984375 
L 18.40625 75.984375 
L 18.40625 0 
L 9.421875 0 
z
" id="DejaVuSans-108"/>
      <path d="M 18.3125 70.21875 
L 18.3125 54.6875 
L 36.8125 54.6875 
L 36.8125 47.703125 
L 18.3125 47.703125 
L 18.3125 18.015625 
Q 18.3125 11.328125 20.140625 9.421875 
Q 21.96875 7.515625 27.59375 7.515625 
L 36.8125 7.515625 
L 36.8125 0 
L 27.59375 0 
Q 17.1875 0 13.234375 3.875 
Q 9.28125 7.765625 9.28125 18.015625 
L 9.28125 47.703125 
L 2.6875 47.703125 
L 2.6875 54.6875 
L 9.28125 54.6875 
L 9.28125 70.21875 
z
" id="DejaVuSans-116"/>
      <path d="M 32.171875 -5.078125 
Q 28.375 -14.84375 24.75 -17.8125 
Q 21.140625 -20.796875 15.09375 -20.796875 
L 7.90625 -20.796875 
L 7.90625 -13.28125 
L 13.1875 -13.28125 
Q 16.890625 -13.28125 18.9375 -11.515625 
Q 21 -9.765625 23.484375 -3.21875 
L 25.09375 0.875 
L 2.984375 54.6875 
L 12.5 54.6875 
L 29.59375 11.921875 
L 46.6875 54.6875 
L 56.203125 54.6875 
z
" id="DejaVuSans-121"/>
     </defs>
     <g transform="translate(379.397188 88.356562)scale(0.22 -0.22)">
      <use xlink:href="#DejaVuSans-76"/>
      <use x="55.697266" xlink:href="#DejaVuSans-111"/>
      <use x="116.878906" xlink:href="#DejaVuSans-119"/>
      <use x="198.666016" xlink:href="#DejaVuSans-32"/>
      <use x="230.453125" xlink:href="#DejaVuSans-70"/>
      <use x="287.863281" xlink:href="#DejaVuSans-105"/>
      <use x="315.646484" xlink:href="#DejaVuSans-100"/>
      <use x="379.123047" xlink:href="#DejaVuSans-101"/>
      <use x="440.646484" xlink:href="#DejaVuSans-108"/>
      <use x="468.429688" xlink:href="#DejaVuSans-105"/>
      <use x="496.212891" xlink:href="#DejaVuSans-116"/>
      <use x="535.421875" xlink:href="#DejaVuSans-121"/>
     </g>
    </g>
    <g id="line2d_18">
     <path d="M 317.797188 112.948437 
L 361.797188 112.948437 
" style="fill:none;stroke:#ff0000;stroke-linecap:square;stroke-width:3;"/>
    </g>
    <g id="line2d_19"/>
    <g id="text_15">
     <!-- High Fidelity -->
     <defs>
      <path d="M 9.8125 72.90625 
L 19.671875 72.90625 
L 19.671875 43.015625 
L 55.515625 43.015625 
L 55.515625 72.90625 
L 65.375 72.90625 
L 65.375 0 
L 55.515625 0 
L 55.515625 34.71875 
L 19.671875 34.71875 
L 19.671875 0 
L 9.8125 0 
z
" id="DejaVuSans-72"/>
      <path d="M 45.40625 27.984375 
Q 45.40625 37.75 41.375 43.109375 
Q 37.359375 48.484375 30.078125 48.484375 
Q 22.859375 48.484375 18.828125 43.109375 
Q 14.796875 37.75 14.796875 27.984375 
Q 14.796875 18.265625 18.828125 12.890625 
Q 22.859375 7.515625 30.078125 7.515625 
Q 37.359375 7.515625 41.375 12.890625 
Q 45.40625 18.265625 45.40625 27.984375 
z
M 54.390625 6.78125 
Q 54.390625 -7.171875 48.1875 -13.984375 
Q 42 -20.796875 29.203125 -20.796875 
Q 24.46875 -20.796875 20.265625 -20.09375 
Q 16.0625 -19.390625 12.109375 -17.921875 
L 12.109375 -9.1875 
Q 16.0625 -11.328125 19.921875 -12.34375 
Q 23.78125 -13.375 27.78125 -13.375 
Q 36.625 -13.375 41.015625 -8.765625 
Q 45.40625 -4.15625 45.40625 5.171875 
L 45.40625 9.625 
Q 42.625 4.78125 38.28125 2.390625 
Q 33.9375 0 27.875 0 
Q 17.828125 0 11.671875 7.65625 
Q 5.515625 15.328125 5.515625 27.984375 
Q 5.515625 40.671875 11.671875 48.328125 
Q 17.828125 56 27.875 56 
Q 33.9375 56 38.28125 53.609375 
Q 42.625 51.21875 45.40625 46.390625 
L 45.40625 54.6875 
L 54.390625 54.6875 
z
" id="DejaVuSans-103"/>
      <path d="M 54.890625 33.015625 
L 54.890625 0 
L 45.90625 0 
L 45.90625 32.71875 
Q 45.90625 40.484375 42.875 44.328125 
Q 39.84375 48.1875 33.796875 48.1875 
Q 26.515625 48.1875 22.3125 43.546875 
Q 18.109375 38.921875 18.109375 30.90625 
L 18.109375 0 
L 9.078125 0 
L 9.078125 75.984375 
L 18.109375 75.984375 
L 18.109375 46.1875 
Q 21.34375 51.125 25.703125 53.5625 
Q 30.078125 56 35.796875 56 
Q 45.21875 56 50.046875 50.171875 
Q 54.890625 44.34375 54.890625 33.015625 
z
" id="DejaVuSans-104"/>
     </defs>
     <g transform="translate(379.397188 120.648438)scale(0.22 -0.22)">
      <use xlink:href="#DejaVuSans-72"/>
      <use x="75.195312" xlink:href="#DejaVuSans-105"/>
      <use x="102.978516" xlink:href="#DejaVuSans-103"/>
      <use x="166.455078" xlink:href="#DejaVuSans-104"/>
      <use x="229.833984" xlink:href="#DejaVuSans-32"/>
      <use x="261.621094" xlink:href="#DejaVuSans-70"/>
      <use x="319.03125" xlink:href="#DejaVuSans-105"/>
      <use x="346.814453" xlink:href="#DejaVuSans-100"/>
      <use x="410.291016" xlink:href="#DejaVuSans-101"/>
      <use x="471.814453" xlink:href="#DejaVuSans-108"/>
      <use x="499.597656" xlink:href="#DejaVuSans-105"/>
      <use x="527.380859" xlink:href="#DejaVuSans-116"/>
      <use x="566.589844" xlink:href="#DejaVuSans-121"/>
     </g>
    </g>
    <g id="line2d_20">
     <path d="M 317.797188 145.240313 
L 361.797188 145.240313 
" style="fill:none;stroke:#008000;stroke-dasharray:11.1,4.8;stroke-dashoffset:0;stroke-width:3;"/>
    </g>
    <g id="line2d_21"/>
    <g id="text_16">
     <!-- Predicted Low Fidelity -->
     <defs>
      <path d="M 19.671875 64.796875 
L 19.671875 37.40625 
L 32.078125 37.40625 
Q 38.96875 37.40625 42.71875 40.96875 
Q 46.484375 44.53125 46.484375 51.125 
Q 46.484375 57.671875 42.71875 61.234375 
Q 38.96875 64.796875 32.078125 64.796875 
z
M 9.8125 72.90625 
L 32.078125 72.90625 
Q 44.34375 72.90625 50.609375 67.359375 
Q 56.890625 61.8125 56.890625 51.125 
Q 56.890625 40.328125 50.609375 34.8125 
Q 44.34375 29.296875 32.078125 29.296875 
L 19.671875 29.296875 
L 19.671875 0 
L 9.8125 0 
z
" id="DejaVuSans-80"/>
      <path d="M 41.109375 46.296875 
Q 39.59375 47.171875 37.8125 47.578125 
Q 36.03125 48 33.890625 48 
Q 26.265625 48 22.1875 43.046875 
Q 18.109375 38.09375 18.109375 28.8125 
L 18.109375 0 
L 9.078125 0 
L 9.078125 54.6875 
L 18.109375 54.6875 
L 18.109375 46.1875 
Q 20.953125 51.171875 25.484375 53.578125 
Q 30.03125 56 36.53125 56 
Q 37.453125 56 38.578125 55.875 
Q 39.703125 55.765625 41.0625 55.515625 
z
" id="DejaVuSans-114"/>
      <path d="M 48.78125 52.59375 
L 48.78125 44.1875 
Q 44.96875 46.296875 41.140625 47.34375 
Q 37.3125 48.390625 33.40625 48.390625 
Q 24.65625 48.390625 19.8125 42.84375 
Q 14.984375 37.3125 14.984375 27.296875 
Q 14.984375 17.28125 19.8125 11.734375 
Q 24.65625 6.203125 33.40625 6.203125 
Q 37.3125 6.203125 41.140625 7.25 
Q 44.96875 8.296875 48.78125 10.40625 
L 48.78125 2.09375 
Q 45.015625 0.34375 40.984375 -0.53125 
Q 36.96875 -1.421875 32.421875 -1.421875 
Q 20.0625 -1.421875 12.78125 6.34375 
Q 5.515625 14.109375 5.515625 27.296875 
Q 5.515625 40.671875 12.859375 48.328125 
Q 20.21875 56 33.015625 56 
Q 37.15625 56 41.109375 55.140625 
Q 45.0625 54.296875 48.78125 52.59375 
z
" id="DejaVuSans-99"/>
     </defs>
     <g transform="translate(379.397188 152.940313)scale(0.22 -0.22)">
      <use xlink:href="#DejaVuSans-80"/>
      <use x="60.287109" xlink:href="#DejaVuSans-114"/>
      <use x="101.369141" xlink:href="#DejaVuSans-101"/>
      <use x="162.892578" xlink:href="#DejaVuSans-100"/>
      <use x="226.369141" xlink:href="#DejaVuSans-105"/>
      <use x="254.152344" xlink:href="#DejaVuSans-99"/>
      <use x="309.132812" xlink:href="#DejaVuSans-116"/>
      <use x="348.341797" xlink:href="#DejaVuSans-101"/>
      <use x="409.865234" xlink:href="#DejaVuSans-100"/>
      <use x="473.341797" xlink:href="#DejaVuSans-32"/>
      <use x="505.128906" xlink:href="#DejaVuSans-76"/>
      <use x="560.826172" xlink:href="#DejaVuSans-111"/>
      <use x="622.007812" xlink:href="#DejaVuSans-119"/>
      <use x="703.794922" xlink:href="#DejaVuSans-32"/>
      <use x="735.582031" xlink:href="#DejaVuSans-70"/>
      <use x="792.992188" xlink:href="#DejaVuSans-105"/>
      <use x="820.775391" xlink:href="#DejaVuSans-100"/>
      <use x="884.251953" xlink:href="#DejaVuSans-101"/>
      <use x="945.775391" xlink:href="#DejaVuSans-108"/>
      <use x="973.558594" xlink:href="#DejaVuSans-105"/>
      <use x="1001.341797" xlink:href="#DejaVuSans-116"/>
      <use x="1040.550781" xlink:href="#DejaVuSans-121"/>
     </g>
    </g>
    <g id="line2d_22">
     <path d="M 317.797188 177.532188 
L 361.797188 177.532188 
" style="fill:none;stroke:#bfbf00;stroke-dasharray:11.1,4.8;stroke-dashoffset:0;stroke-width:3;"/>
    </g>
    <g id="line2d_23"/>
    <g id="text_17">
     <!-- Predicted High Fidelity -->
     <g transform="translate(379.397188 185.232188)scale(0.22 -0.22)">
      <use xlink:href="#DejaVuSans-80"/>
      <use x="60.287109" xlink:href="#DejaVuSans-114"/>
      <use x="101.369141" xlink:href="#DejaVuSans-101"/>
      <use x="162.892578" xlink:href="#DejaVuSans-100"/>
      <use x="226.369141" xlink:href="#DejaVuSans-105"/>
      <use x="254.152344" xlink:href="#DejaVuSans-99"/>
      <use x="309.132812" xlink:href="#DejaVuSans-116"/>
      <use x="348.341797" xlink:href="#DejaVuSans-101"/>
      <use x="409.865234" xlink:href="#DejaVuSans-100"/>
      <use x="473.341797" xlink:href="#DejaVuSans-32"/>
      <use x="505.128906" xlink:href="#DejaVuSans-72"/>
      <use x="580.324219" xlink:href="#DejaVuSans-105"/>
      <use x="608.107422" xlink:href="#DejaVuSans-103"/>
      <use x="671.583984" xlink:href="#DejaVuSans-104"/>
      <use x="734.962891" xlink:href="#DejaVuSans-32"/>
      <use x="766.75" xlink:href="#DejaVuSans-70"/>
      <use x="824.160156" xlink:href="#DejaVuSans-105"/>
      <use x="851.943359" xlink:href="#DejaVuSans-100"/>
      <use x="915.419922" xlink:href="#DejaVuSans-101"/>
      <use x="976.943359" xlink:href="#DejaVuSans-108"/>
      <use x="1004.726562" xlink:href="#DejaVuSans-105"/>
      <use x="1032.509766" xlink:href="#DejaVuSans-116"/>
      <use x="1071.71875" xlink:href="#DejaVuSans-121"/>
     </g>
    </g>
   </g>
  </g>
 </g>
 <defs>
  <clipPath id="p2c9195cee5">
   <rect height="326.16" width="558" x="90" y="51.84"/>
  </clipPath>
 </defs>
</svg>
