<?xml version="1.0" encoding="utf-8" standalone="no"?>
<!DOCTYPE svg PUBLIC "-//W3C//DTD SVG 1.1//EN"
  "http://www.w3.org/Graphics/SVG/1.1/DTD/svg11.dtd">
<!-- Created with matplotlib (http://matplotlib.org/) -->
<svg height="354.330709pt" version="1.1" viewBox="0 0 566.929134 354.330709" width="566.929134pt" xmlns="http://www.w3.org/2000/svg" xmlns:xlink="http://www.w3.org/1999/xlink">
 <defs>
  <style type="text/css">
*{stroke-linecap:butt;stroke-linejoin:round;}
  </style>
 </defs>
 <g id="figure_1">
  <g id="patch_1">
   <path d="M 0 354.330709 
L 566.929134 354.330709 
L 566.929134 0 
L 0 0 
z
" style="fill:none;"/>
  </g>
  <g id="axes_1">
   <g id="patch_2">
    <path clip-path="url(#p6e9e1bbf86)" d="M 283.464567 165.826772 
C 315.038353 165.826772 345.32321 159.554573 367.649248 148.391553 
C 389.975287 137.228534 402.519685 122.086106 402.519685 106.299213 
C 402.519685 90.512319 389.975287 75.369891 367.649248 64.206872 
C 345.32321 53.043853 315.038353 46.771654 283.464567 46.771654 
C 251.890781 46.771654 221.605924 53.043853 199.279886 64.206872 
C 176.953847 75.369891 164.409449 90.512319 164.409449 106.299213 
C 164.409449 122.086106 176.953847 137.228534 199.279886 148.391553 
C 221.605924 159.554573 251.890781 165.826772 283.464567 165.826772 
z
" style="fill:none;stroke:#000000;stroke-linejoin:miter;stroke-width:6;"/>
   </g>
   <g id="patch_3">
    <path clip-path="url(#p6e9e1bbf86)" d="M 283.464567 165.826772 
C 315.038353 165.826772 345.32321 159.554573 367.649248 148.391553 
C 389.975287 137.228534 402.519685 122.086106 402.519685 106.299213 
C 402.519685 90.512319 389.975287 75.369891 367.649248 64.206872 
C 345.32321 53.043853 315.038353 46.771654 283.464567 46.771654 
C 251.890781 46.771654 221.605924 53.043853 199.279886 64.206872 
C 176.953847 75.369891 164.409449 90.512319 164.409449 106.299213 
C 164.409449 122.086106 176.953847 137.228534 199.279886 148.391553 
C 221.605924 159.554573 251.890781 165.826772 283.464567 165.826772 
z
" style="fill:none;stroke:#000000;stroke-linejoin:miter;stroke-width:6;"/>
   </g>
   <g id="patch_4">
    <path clip-path="url(#p6e9e1bbf86)" d="M 425.19685 307.559055 
C 456.770637 307.559055 487.055493 301.286856 509.381532 290.123837 
C 531.70757 278.960818 544.251969 263.818389 544.251969 248.031496 
C 544.251969 232.244603 531.70757 217.102175 509.381532 205.939155 
C 487.055493 194.776136 456.770637 188.503937 425.19685 188.503937 
C 393.623064 188.503937 363.338208 194.776136 341.012169 205.939155 
C 318.686131 217.102175 306.141732 232.244603 306.141732 248.031496 
C 306.141732 263.818389 318.686131 278.960818 341.012169 290.123837 
C 363.338208 301.286856 393.623064 307.559055 425.19685 307.559055 
z
" style="fill:none;stroke:#000000;stroke-linejoin:miter;stroke-width:6;"/>
   </g>
   <g id="matplotlib.axis_1"/>
   <g id="matplotlib.axis_2"/>
   <g id="line2d_1">
    <path clip-path="url(#p6e9e1bbf86)" d="M 371.953783 194.788429 
L 336.707634 159.54228 
" style="fill:none;stroke:#000000;stroke-linecap:square;stroke-width:6;"/>
   </g>
   <g id="text_1">
    <!-- innovate -->
    <defs>
     <path d="M 8.40625 54.6875 
L 25.875 54.6875 
L 25.875 0 
L 8.40625 0 
z
M 8.40625 75.984375 
L 25.875 75.984375 
L 25.875 61.71875 
L 8.40625 61.71875 
z
" id="DejaVuSans-Bold-69"/>
     <path d="M 63.375 33.296875 
L 63.375 0 
L 45.796875 0 
L 45.796875 5.421875 
L 45.796875 25.484375 
Q 45.796875 32.5625 45.484375 35.25 
Q 45.171875 37.9375 44.390625 39.203125 
Q 43.359375 40.921875 41.59375 41.875 
Q 39.84375 42.828125 37.59375 42.828125 
Q 32.125 42.828125 29 38.59375 
Q 25.875 34.375 25.875 26.90625 
L 25.875 0 
L 8.40625 0 
L 8.40625 54.6875 
L 25.875 54.6875 
L 25.875 46.6875 
Q 29.828125 51.46875 34.265625 53.734375 
Q 38.71875 56 44.09375 56 
Q 53.5625 56 58.46875 50.1875 
Q 63.375 44.390625 63.375 33.296875 
z
" id="DejaVuSans-Bold-6e"/>
     <path d="M 34.421875 43.5 
Q 28.609375 43.5 25.5625 39.328125 
Q 22.515625 35.15625 22.515625 27.296875 
Q 22.515625 19.4375 25.5625 15.25 
Q 28.609375 11.078125 34.421875 11.078125 
Q 40.140625 11.078125 43.15625 15.25 
Q 46.1875 19.4375 46.1875 27.296875 
Q 46.1875 35.15625 43.15625 39.328125 
Q 40.140625 43.5 34.421875 43.5 
z
M 34.421875 56 
Q 48.53125 56 56.46875 48.375 
Q 64.40625 40.765625 64.40625 27.296875 
Q 64.40625 13.8125 56.46875 6.1875 
Q 48.53125 -1.421875 34.421875 -1.421875 
Q 20.265625 -1.421875 12.28125 6.1875 
Q 4.296875 13.8125 4.296875 27.296875 
Q 4.296875 40.765625 12.28125 48.375 
Q 20.265625 56 34.421875 56 
z
" id="DejaVuSans-Bold-6f"/>
     <path d="M 1.515625 54.6875 
L 19 54.6875 
L 32.625 16.890625 
L 46.1875 54.6875 
L 63.71875 54.6875 
L 42.1875 0 
L 23 0 
z
" id="DejaVuSans-Bold-76"/>
     <path d="M 32.90625 24.609375 
Q 27.4375 24.609375 24.671875 22.75 
Q 21.921875 20.90625 21.921875 17.28125 
Q 21.921875 13.96875 24.140625 12.078125 
Q 26.375 10.203125 30.328125 10.203125 
Q 35.25 10.203125 38.625 13.734375 
Q 42 17.28125 42 22.609375 
L 42 24.609375 
z
M 59.625 31.203125 
L 59.625 0 
L 42 0 
L 42 8.109375 
Q 38.484375 3.125 34.078125 0.84375 
Q 29.6875 -1.421875 23.390625 -1.421875 
Q 14.890625 -1.421875 9.59375 3.53125 
Q 4.296875 8.5 4.296875 16.40625 
Q 4.296875 26.03125 10.90625 30.515625 
Q 17.53125 35.015625 31.6875 35.015625 
L 42 35.015625 
L 42 36.375 
Q 42 40.53125 38.71875 42.453125 
Q 35.453125 44.390625 28.515625 44.390625 
Q 22.90625 44.390625 18.0625 43.265625 
Q 13.234375 42.140625 9.078125 39.890625 
L 9.078125 53.21875 
Q 14.703125 54.59375 20.359375 55.296875 
Q 26.03125 56 31.6875 56 
Q 46.484375 56 53.046875 50.171875 
Q 59.625 44.34375 59.625 31.203125 
z
" id="DejaVuSans-Bold-61"/>
     <path d="M 27.484375 70.21875 
L 27.484375 54.6875 
L 45.515625 54.6875 
L 45.515625 42.1875 
L 27.484375 42.1875 
L 27.484375 19 
Q 27.484375 15.1875 29 13.84375 
Q 30.515625 12.5 35.015625 12.5 
L 44 12.5 
L 44 0 
L 29 0 
Q 18.65625 0 14.328125 4.3125 
Q 10.015625 8.640625 10.015625 19 
L 10.015625 42.1875 
L 1.3125 42.1875 
L 1.3125 54.6875 
L 10.015625 54.6875 
L 10.015625 70.21875 
z
" id="DejaVuSans-Bold-74"/>
     <path d="M 62.984375 27.484375 
L 62.984375 22.515625 
L 22.125 22.515625 
Q 22.75 16.359375 26.5625 13.28125 
Q 30.375 10.203125 37.203125 10.203125 
Q 42.71875 10.203125 48.5 11.84375 
Q 54.296875 13.484375 60.40625 16.796875 
L 60.40625 3.328125 
Q 54.203125 0.984375 48 -0.21875 
Q 41.796875 -1.421875 35.59375 -1.421875 
Q 20.75 -1.421875 12.515625 6.125 
Q 4.296875 13.671875 4.296875 27.296875 
Q 4.296875 40.671875 12.375 48.328125 
Q 20.453125 56 34.625 56 
Q 47.515625 56 55.25 48.234375 
Q 62.984375 40.484375 62.984375 27.484375 
z
M 45.015625 33.296875 
Q 45.015625 38.28125 42.109375 41.328125 
Q 39.203125 44.390625 34.515625 44.390625 
Q 29.4375 44.390625 26.265625 41.53125 
Q 23.09375 38.671875 22.3125 33.296875 
z
" id="DejaVuSans-Bold-65"/>
    </defs>
    <g transform="translate(204.479567 115.129213)scale(0.32 -0.32)">
     <use xlink:href="#DejaVuSans-Bold-69"/>
     <use x="34.277344" xlink:href="#DejaVuSans-Bold-6e"/>
     <use x="105.46875" xlink:href="#DejaVuSans-Bold-6e"/>
     <use x="176.660156" xlink:href="#DejaVuSans-Bold-6f"/>
     <use x="245.361328" xlink:href="#DejaVuSans-Bold-76"/>
     <use x="310.546875" xlink:href="#DejaVuSans-Bold-61"/>
     <use x="378.027344" xlink:href="#DejaVuSans-Bold-74"/>
     <use x="425.830078" xlink:href="#DejaVuSans-Bold-65"/>
    </g>
   </g>
   <g id="text_2">
    <!-- innovate -->
    <g transform="translate(204.479567 115.129213)scale(0.32 -0.32)">
     <use xlink:href="#DejaVuSans-Bold-69"/>
     <use x="34.277344" xlink:href="#DejaVuSans-Bold-6e"/>
     <use x="105.46875" xlink:href="#DejaVuSans-Bold-6e"/>
     <use x="176.660156" xlink:href="#DejaVuSans-Bold-6f"/>
     <use x="245.361328" xlink:href="#DejaVuSans-Bold-76"/>
     <use x="310.546875" xlink:href="#DejaVuSans-Bold-61"/>
     <use x="378.027344" xlink:href="#DejaVuSans-Bold-74"/>
     <use x="425.830078" xlink:href="#DejaVuSans-Bold-65"/>
    </g>
   </g>
   <g id="text_3">
    <!-- resolve -->
    <defs>
     <path d="M 49.03125 39.796875 
Q 46.734375 40.875 44.453125 41.375 
Q 42.1875 41.890625 39.890625 41.890625 
Q 33.15625 41.890625 29.515625 37.5625 
Q 25.875 33.25 25.875 25.203125 
L 25.875 0 
L 8.40625 0 
L 8.40625 54.6875 
L 25.875 54.6875 
L 25.875 45.703125 
Q 29.25 51.078125 33.609375 53.53125 
Q 37.984375 56 44.09375 56 
Q 44.96875 56 45.984375 55.921875 
Q 47.015625 55.859375 48.96875 55.609375 
z
" id="DejaVuSans-Bold-72"/>
     <path d="M 51.125 52.984375 
L 51.125 39.703125 
Q 45.515625 42.046875 40.28125 43.21875 
Q 35.0625 44.390625 30.421875 44.390625 
Q 25.4375 44.390625 23.015625 43.140625 
Q 20.609375 41.890625 20.609375 39.3125 
Q 20.609375 37.203125 22.4375 36.078125 
Q 24.265625 34.96875 29 34.421875 
L 32.078125 33.984375 
Q 45.515625 32.28125 50.140625 28.375 
Q 54.78125 24.46875 54.78125 16.109375 
Q 54.78125 7.375 48.328125 2.96875 
Q 41.890625 -1.421875 29.109375 -1.421875 
Q 23.6875 -1.421875 17.890625 -0.5625 
Q 12.109375 0.296875 6 2 
L 6 15.28125 
Q 11.234375 12.75 16.71875 11.46875 
Q 22.21875 10.203125 27.875 10.203125 
Q 33.015625 10.203125 35.59375 11.609375 
Q 38.1875 13.03125 38.1875 15.828125 
Q 38.1875 18.171875 36.40625 19.3125 
Q 34.625 20.453125 29.296875 21.09375 
L 26.21875 21.484375 
Q 14.546875 22.953125 9.859375 26.90625 
Q 5.171875 30.859375 5.171875 38.921875 
Q 5.171875 47.609375 11.125 51.796875 
Q 17.09375 56 29.390625 56 
Q 34.234375 56 39.546875 55.265625 
Q 44.875 54.546875 51.125 52.984375 
z
" id="DejaVuSans-Bold-73"/>
     <path d="M 8.40625 75.984375 
L 25.875 75.984375 
L 25.875 0 
L 8.40625 0 
z
" id="DejaVuSans-Bold-6c"/>
    </defs>
    <g transform="translate(359.17185 256.861496)scale(0.32 -0.32)">
     <use xlink:href="#DejaVuSans-Bold-72"/>
     <use x="49.316406" xlink:href="#DejaVuSans-Bold-65"/>
     <use x="117.138672" xlink:href="#DejaVuSans-Bold-73"/>
     <use x="176.660156" xlink:href="#DejaVuSans-Bold-6f"/>
     <use x="245.361328" xlink:href="#DejaVuSans-Bold-6c"/>
     <use x="279.638672" xlink:href="#DejaVuSans-Bold-76"/>
     <use x="344.824219" xlink:href="#DejaVuSans-Bold-65"/>
    </g>
   </g>
  </g>
 </g>
 <defs>
  <clipPath id="p6e9e1bbf86">
   <rect height="354.330709" width="566.929134" x="0" y="0"/>
  </clipPath>
 </defs>
</svg>
