<?xml version="1.0" encoding="UTF-8" standalone="no"?>
<svg viewBox="0 0 744.09448819 1052.3622047" xmlns="http://www.w3.org/2000/svg">
<g transform="translate(-514.28755,213.79305)">
<path d="m933.68034,295.20487 9.2891-1.00422 .50212,21.08877-8.78699-.25106-1.00423-19.83349z" fill-rule="evenodd" stroke="#000"/>
<path d="m779.33029,128.79636a16.86478,11.71658 0 1,1 -33.72955,0 16.86478,11.71658 0 1,1 33.72955,0z" fill="#fff" fill-opacity=".88385" stroke="#000202" stroke-linecap="round" stroke-width="1.06745" transform="matrix(.86316,0,0,1.01515,102.02957,-1.77394)"/>
<path d="m766.90362,140.15789c-.32695,4.70825.52124,9.98877-2.50095,11.84458-11.80905,7.25149-8.52988,13.10038-11.34593,20.81983 50.97994-27.92167 73.19947-23.24822 96.57305-19.88269-8.31045-6.49881-13.67815-14.17473-35.50479-15.26706-23.90047,1.54818-42.65333,6.34357-45.0911,1.06514l-2.13028,1.4202z" fill="#ff8080" fill-rule="evenodd" stroke="#000"/>
<path d="m750.21637,174.59754c30.60225-19.61016 62.01093-31.37902 100.12352-20.94783 2.85495,2.23407 3.88551,7.00263 3.90553,12.07163-43.72203-3.93842-75.68928,7.25646-97.6382,32.66441-4.58753-1.05303-10.27637-7.74285-6.39085-23.78821z" fill="#f9f9f9" fill-rule="evenodd" stroke="#000"/>
<path d="m757.31732,198.0307 3.90553,4.61563 1.77524-6.03582 5.68077-3.55048c-1.47851-1.73991-.05433-4.06035 3.19543-6.74591 3.6957-1.11889 7.18535-1.82566 9.94134-1.06514-.3761.3761 21.56057-11.55575 23.78821-9.94135 2.08526,1.51121 17.04231.78339 17.04231,0 1.96742-1.89033 3.59669-3.8558 13.84687-3.90552l8.1661,3.55048c2.48534,2.32499 4.97067,1.79312 7.45601.35504l1.77524-10.29639c-18.2258-.24031-36.45159.18017-54.67739,4.61563-13.71668,3.98127-20.75683,10.63315-30.17908,16.3322l-11.71658,12.07163z" fill-rule="evenodd" stroke="#000"/>
<path d="m762.28799,203.00138c5.77384,6.63928 14.71349,8.84642 25.20841,8.8762 14.52171-1.58261 28.62151-3.69261 39.41032-9.94135 7.10096-3.78718 13.72852-8.52115 19.88269-14.20192l4.61562-11.71658" fill="none" stroke="#000"/>
<path d="m810.57449,201.40366a1.42019,3.37296 0 1,1 -2.84039,0 1.42019,3.37296 0 1,1 2.84039,0z" fill-opacity=".88385" stroke="#000202" stroke-linecap="round" stroke-width=".99921"/>
<path d="m832.23242,187.37927a1.59772,3.55048 0 1,1 -3.19543,0 1.59772,3.55048 0 1,1 3.19543,0z" fill-opacity=".88385" stroke="#000202" stroke-linecap="round" stroke-width=".99921" transform="matrix(.94636,.32311,-.32311,.94636,105.10019,-258.33888)"/>
<path d="m791.40192,197.3206a1.95276,3.55048 0 1,1 -3.90553,0 1.95276,3.55048 0 1,1 3.90553,0z" fill-opacity=".88385" stroke="#000202" stroke-linecap="round" stroke-width=".99921" transform="matrix(.9165,-.40003,.40003,.9165,-13.01619,332.28268)"/>
<path d="m785.72116,190.21965c-.92087.90991-1.37253,3.35983-1.77524,4.97067-.05741.22963 0,.4734 0,.7101" fill="none" stroke="#000"/>
<path d="m806.66899,193.06003c-.28568,1.14272 5.41323,1.68773 6.39086.7101 .89916-.89916.45441-.60587 1.06515-1.42019" fill="none" stroke="#000"/>
<path d="m831.1673,177.08287c1.12233-1.12232 5.23694,3.55041 5.68077,5.32572" fill="none" stroke="#000"/>
<path d="m809.15433,225.72444 48.64157,10.29639 42.60575-9.23125-1.06514,47.93148-41.54061,12.07163-47.93148-10.29639-.71009-50.77186z" fill="#f9f9f9" fill-rule="evenodd" stroke="#000"/>
<path d="m800.63317,253.41819 7.10096,1.06514 4.61563-8.8762c3.11742-2.09262 4.79956-1.31468 6.03581.35505-.17012,4.39373-1.13287,7.20221-3.19543,7.81106 3.5407-.10858 7.36706-.50281 8.1661,2.13028 6.01377,2.76215 3.74272,7.89139 3.55048,12.42668-1.80962,4.71481-4.75087,4.90305-7.456,6.03582-4.8895.74727-7.12637-1.15808-9.23125-3.19543l-5.32572-4.26058-7.45601-1.77524 3.19543-11.71658z" fill="#f9f9f9" fill-rule="evenodd" stroke="#000"/>
<path d="m920.63939,247.38237-.7101,12.07163-8.1661,1.77524c-2.14717,2.68828-4.50738,4.95047-8.52115,3.90553-8.35226-.86223-12.46071-5.41359-11.36154-8.16611-1.70427-5.88197 1.70839-7.60777 5.68077-10.65143 2.89369-.43183 5.4562-1.85719 9.23125.35505-2.33581-2.07175-4.43681-4.23743-2.13029-8.16611 1.77524-3.02544 3.55048-1.64067 5.32572-1.06514 .9046,3.57158-.08177,8.08863 4.26057,9.94134h6.39087z" fill="#f9f9f9" fill-rule="evenodd" stroke="#000"/>
<path d="m858.86104,236.02084-.7101,50.06176" fill="none" stroke="#000"/>
<path d="m865.962,189.50955c3.19462,10.47432 13.14713,17.5697 27.69374,22.36803 12.21162,1.82868 24.17469,4.40298 37.28004,3.55047 14.3517-1.86298 23.63121-6.54383 29.46898-13.13677-8.31948-6.36909-17.36921-9.8172-26.6286-12.42668-16.20419-7.19352-28.67255-4.42484-42.25071-4.61562-9.95128-1.09497-19.27598-.31018-27.33869,4.26057h1.77524z" fill="none" stroke="#000"/>
<path d="m832.23242,187.37927a1.59772,3.55048 0 1,1 -3.19543,0 1.59772,3.55048 0 1,1 3.19543,0z" fill-opacity=".88385" stroke="#000202" stroke-linecap="round" stroke-width=".99921" transform="matrix(.94636,.32311,-.32311,.94636,162.08537,-249.46265)"/>
<path d="m832.23242,187.37927a1.59772,3.55048 0 1,1 -3.19543,0 1.59772,3.55048 0 1,1 3.19543,0z" fill-opacity=".88385" stroke="#000202" stroke-linecap="round" stroke-width=".99921" transform="matrix(.94636,.32311,-.32311,.94636,203.62598,-244.13693)"/>
<path d="m832.23242,187.37927a1.59772,3.55048 0 1,1 -3.19543,0 1.59772,3.55048 0 1,1 3.19543,0z" fill-opacity=".88385" stroke="#000202" stroke-linecap="round" stroke-width=".99921" transform="matrix(.88185,-.47154,.47154,.88185,88.07429,435.11701)"/>
<path d="m884.42449,188.44441c-.38434.35556-1.20637,3.05027-1.77524,5.32572" fill="none" stroke="#000"/>
<path d="m932.35597,194.83527c-.52772,2.11086 4.08791,2.50476 4.61562,4.61563 .14768.5907.54352,1.10893.7101,1.77524" fill="none" stroke="#000"/>
<path d="m901.82184,199.4509c.28301,1.13202 3.91969,2.75516 5.68077,3.19543 2.34967.58742 3.73699-.24867 4.61563-1.42019" fill="none" stroke="#000"/>
<path d="m891.1704,185.95907c-.96747-3.35514-26.84443,1.34357-25.9185,3.19543-1.20317-8.84003-2.22808-17.65034 2.13029-25.56345 4.2188-5.61579 8.09201-11.34678 20.59278-14.20192 10.65328-1.88441 21.1101-4.7511 32.66442-2.13029 15.44366,1.03695 26.77951,8.23561 36.56994,17.7524 6.2619,8.97194 10.58451,18.13781 7.45601,28.04879l-3.90553,9.23125c-9.1129-7.04115-18.2258-10.06081-27.3387-12.42668-16.39839-7.08889-29.59359-6.16982-42.25071-3.90553z" fill="#1a1a1a" fill-rule="evenodd" stroke="#000"/>
<path d="m870.22258,198.7408c-23.45456,7.76854-20.47798,21.54415-24.49831,33.72956l10.65143,2.84038c3.40384-2.67959 5.68693-1.37025 12.78174-9.58629 2.5389-2.33338 5.11822-2.42387 10.29638-20.59279-5.68031-2.13029-7.1877-4.26057-9.23124-6.39086z" fill-rule="evenodd" stroke="#000"/>
<path d="m954.72399,206.19681c-1.17487,4.73397-4.25784,9.46795-1.06514,14.20192 2.0344,6.49237 5.89511,11.615 11.71658,15.26706 4.57144,5.77995 9.97242,10.96738 8.16611,21.30287-.13948,2.74977 3.86295-1.98137 6.74591-13.13677 .77198-7.9294.29225-15.85881-1.77524-23.78821-6.77381-15.59503-12.61149-16.21208-18.4625-17.0423l-5.32572,3.19543z" fill-rule="evenodd" stroke="#000"/>
<path d="m785.72116,211.52253 .35505,3.19543c5.8637,1.47828 13.20602,2.66084 23.78821,3.19543 6.84123-.27124 14.12639.12341 19.17259-2.84038l-1.77524-6.74591-2.84038-4.26058c-15.15481,6.9948-26.08792,5.54621-38.70023,7.45601z" fill="#f9f9f9" fill-rule="evenodd" stroke="#000"/>
<path d="m787.4964,228.91988-4.97067,4.61562c-8.40211,5.25966-8.82596,6.97343-8.8762,8.52115-1.25931,3.2731 4.47138,3.75019 7.456,5.32572l2.13029-14.20192" fill="none" stroke="#000"/>
<path d="m785.36611,211.16748c-5.23594,2.26089-9.70487,2.60426-16.68725,9.23125-8.00935,8.93872-17.47482,19.13522-27.3387,28.04878-12.39817,7.93706-14.66509,6.9878-19.88268,7.81106l3.90552,8.1661c5.68077-1.09794 11.36154-1.84851 17.04231-5.68076 7.00517-3.6716 13.34699-9.00158 18.46249-17.39735-4.37399,11.01142-8.82363,21.94719-15.97716,30.17907-4.99132,6.13906-9.44692,9.59951-13.49182,11.00649l6.03581,6.03582c4.37893-1.928 8.75785-4.02023 13.13678-7.81106 2.91724-4.33131 5.75351-8.33875 9.58629-16.33221l4.26058-13.49182 22.01297-35.85984-1.06514-3.90553z" fill="#fff" fill-rule="evenodd" stroke="#000"/>
<path d="m839.3334,282.88717c-3.73757,5.09295-27.57196,9.51514-26.98364,7.45601-12.66338,1.3915-25.32676-1.3397-37.99014-4.61563l5.32572-28.04878c-6.21009-3.13691-15.93601-6.6358-17.7524-10.65145-5.76372,0 10.14113-14.26056 24.14327-31.95431 13.90182,2.11549 27.5891,4.98184 43.31585.71009 6.58679,5.44407 7.46935,10.88814 9.58629,16.33221l-30.17907-6.74591 1.06514,25.2084-2.48534,3.55048-7.10096-.71009-2.84038,12.07163 7.45601,1.77524 4.97067,3.55048-.35505,5.32572 29.82403,6.74591z" fill="#ff7f2a" fill-rule="evenodd" stroke="#000"/>
<path d="m781.10553,247.02732 18.81755,7.45601" fill="none" stroke="#000"/>
<path d="m778.97525,257.32372 18.81754,6.74591" fill="none" stroke="#000"/>
<path d="m803.47356,232.82541-6.38964,1.75442-5.68199-2.46452c-.34994,2.96129-1.09659,5.72422.35504,9.58629 2.72204,3.11399 5.44407,2.75471 8.16611,3.19544" fill="none" stroke="#000"/>
<path d="m816.96538,278.27155-1.06514,11.36153" fill="none" stroke="#000"/>
<path d="m813.05985,217.91339 .35505,8.52115" fill="none" stroke="#000"/>
<path d="m790.33678,299.92947h17.0423c-2.23671,13.70468-2.00302,22.46855-2.48533,32.66441-8.21737,2.6444-14.49663.76655-19.88269-3.19543 4.06395-8.44977 5.99469-18.17946 5.32572-29.46898z" fill="#4d4d4d" fill-rule="evenodd" stroke="#000"/>
<path d="m809.68689,299.31484 19.17259-.7101c-2.23671,13.70468 1.54746,19.98321 1.06515,30.17907-2.89375,1.3135-8.46783,2.09974-19.88269-.35504 1.3601-9.12574-.56367-18.04381-.35505-29.11393z" fill="#4d4d4d" fill-rule="evenodd" stroke="#000"/>
<path d="m773.29448,286.0826c1.70703-.74694 3.91822-1.03975 4.97067,1.06514 .47928.95856 2.23688-.83432 3.19543-.35504 2.60023,1.30011 3.56278-.34276 5.32572,1.42019 .95548.95548 4.1515.47803 5.32572,1.06514 .60701.30351 2.35892,0 6.03582,0 2.6028,0-.59103,1.53818 3.19543-.35505 .17523-.08761 4.21006.12677 4.97067,0 3.27106-.54517 2.39599,2.57468 4.26058.7101 1.34158-1.34158 3.80929.04314 5.68076.35505 1.56622.26103 2.67276-2.13029 4.26058-2.13029 2.57165,0 1.881-.40793 4.61562-1.77524 3.23651-1.61825 1.02712,1.97178 6.39087-.7101 3.50265-1.75132 3.15511,1.50083 4.26057-.71009 .80094-1.60188 4.05933-.5563 5.32572.71009 3.14572,3.14572 5.30602.39446 3.19543,4.61563-.70212,1.40425 4.30698-.7565 1.4202,2.13029-3.0958,3.09579-2.48723.00471-3.90553,3.55048-.16775.41936-3.86819,1.0278-4.97067,2.13028-.41843.41843-.84612-1.20866-1.4202-1.06514-.98098.24525-1.89359.7101-2.84038,1.06514-.02603.00977-3.52492,1.23628-4.26058,1.4202-1.45231.36307-2.87063.86421-4.26057,1.42019-2.54876,1.0195-5.71082-.1625-8.1661,1.06514-1.06383.53192-2.3966.64352-3.55048.35505-2.75057-.68764-1.69363-.39586-3.90553.7101-2.83339,1.41669-.92347-2.37865-4.97067-.35505-3.83587,1.91793-3.24804-.40765-4.61563-1.77524-1.80867-1.80868-9.1013-.36375-9.58629,0-1.27026.95269-3.13782-1.00753-4.26058-2.13029-.53566-.53567-3.42874,1.30861-4.61562-1.06514-.63733-1.27467-3.62325.91961-4.26058-.35505-.96148-1.92297-1.9697.67621-3.19543-1.77524-1.06129-2.12258 2.30674-1.44996-3.90553-2.48534-1.75648-.29274 2.80335-2.5594 2.13029-3.90553-1.20241-2.40482-.8804-1.6361 2.13029-2.84038z" fill="#f9f9f9" fill-rule="evenodd" stroke="#000"/>
<path d="m760.51275,241.34656c4.70825-13.02357 13.16514-22.83401 24.49831-30.17908" fill="none" stroke="#000"/>
<path d="m721.10243,256.61362h-3.90553" fill="none" stroke="#000"/>
<path d="m722.16757,259.80905h-7.10096" fill="none" stroke="#000"/>
<path d="m723.23272,262.64943c-.7875-.92315-4.58312-.71009-6.74592-.71009" fill="none" stroke="#000"/>
<path d="m725.00796,263.71458c-.82434.22533-4.25309.35355-6.03582.71009" fill="none" stroke="#000"/>
<path d="m721.10243,256.61362h-5.32572-.7101" fill="none" stroke="#000"/>
<path d="m731.04377,282.88717c-.13298,0-4.33226,1.64756-6.74591,2.13029" fill="none" stroke="#000"/>
<path d="m736.01444,287.85784c-1.09882,0-4.11646,1.2954-6.03581,1.77524" fill="none" stroke="#000"/>
<path d="m732.10891,283.95231c-.74867,0-3.95143.98786-5.68076,1.42019" fill="none" stroke="#000"/>
<path d="m734.2392,285.3725c-.61848,0-5.065,2.35498-6.03581,2.84039 .77492-.25831 5.6446-2.84039 6.03581-2.84039z" fill="none" stroke="#000"/>
<path d="m812.36467,331.05903c4.97687,1.5465 1.60974,4.42301 10.08201-.53144 0,0 10.70987-2.94963 11.63759-4.13639 1.2558-1.60645 10.5835-3.22683 10.80105-1.94185 2.43878.9916 5.57358,1.44713 6.59134,4.67381 .78524,2.07386 1.52274,5.95567.35052,8.36092l-3.14708,4.098c-5.75204,2.78355-9.99186,1.8762-14.24184,2.54543l-13.40523-.95529c-5.13506.554-7.59648.84164-9.96246-1.70891-1.11232-4.56476-.68096-8.03287 1.2941-10.40428z" fill="#deaa87" fill-rule="evenodd" stroke="#000"/>
<path d="m786.56104,330.85494c4.64889,2.35556 8.89567,5.2281 18.07609,1.7574 0,0 4.41045-2.49954 5.52325-3.51479 1.50634-1.37429 11.54862-.29904 11.54862,1.00422 2.04533,2.52901 3.80246,4.91392 4.51902,6.77854 .42804,2.17583.55304,4.35165-1.00423,6.52748l-5.27219,3.26373c-6.13598,1.78433-9.50607.80277-13.80813.75318l-13.80812-.25106c-5.15549-.31094-6.87996-3.36671-8.78699-6.27642-.33474-4.68639.66948-8.03383 3.01268-10.04228z" fill="#deaa87" fill-rule="evenodd" stroke="#000"/>
<path d="m895.77076,212.10507 .25106,4.77007c4.32132,2.14382 11.45043,2.60295 19.08032,2.76163 7.28065-.2042 14.56129-.81666 21.84194-3.01268l-.25106-2.51057c-9.64902,1.25158-15.18634,1.58945-18.82926,1.50634-11.64858-1.1716-16.1529-2.34319-22.093-3.51479z" fill="#f9f9f9" fill-rule="evenodd" stroke="#000"/>
<path d="m895.26865,215.87092-13.05496,14.56129 18.07609-3.76585-.75317,19.33138h5.77431l-2.00845-3.5148 1.25528-4.51902 2.25951-1.7574 3.01268,1.00423 .50212,4.26796 1.75739,4.51903 3.76586,1.00422h4.77008l-1.00423,13.05496-7.78276,1.25528-2.51057,3.26374-4.01691,1.00423-5.52325-1.25528-.50211,10.79544-15.06341,4.51902-.25106,5.52325 35.14796,5.77431 30.87999-6.27642-5.2722-28.87154c4.68639-1.59003 6.93609-.74335 14.05918-4.77008 1.16583-2.36724.83056-3.73376 0-4.77008-6.87834-10.41233-13.89565-20.40777-22.093-26.86308l-.25105-3.26374c-6.55038,3.65134-13.90602,3.27639-21.08878,3.76586-8.0966-.33772-16.52717-.43689-20.08454-4.01691z" fill="#d45500" fill-rule="evenodd" stroke="#000"/>
<path d="m936.44197,229.17693 11.0465,14.05918-5.2722,3.01268v-10.29333c0,1.00423.25106,10.04228.25106,10.04228s-10.29333,2.25951-11.29756,2.00845-10.79544-.50211-10.79544-.50211l.50211-.25106" fill="none" stroke="#000"/>
<path d="m920.12327,258.80163 25.35674-3.51479" fill="none" stroke="#000"/>
<path d="m916.10636,219.63677c0,1.00423.75317,26.86308.75317,26.86308" fill="none" stroke="#000"/>
<path d="m917.86376,260.55903 1.50634,30.62894" fill="none" stroke="#000"/>
<path d="m919.37012,224.40685h2.51057v3.01268h-2.51057z" fill-opacity=".88385" stroke="#000202" stroke-linecap="round" stroke-width=".99921"/>
<path d="m920.12329,237.46181h1.7574v2.51057h-1.7574z" fill-opacity=".88385" stroke="#000202" stroke-linecap="round" stroke-width=".99921"/>
<path d="m927.15286,267.08651c3.41917.01728 6.26369.63719 8.78699-1.25528 1.36646-1.02485 2.2665-1.88468 3.76586-2.25952 .69927-.17482.9675,2.07593 1.25528,3.5148 .33004,1.6502-.39428,2.79701-1.00423,4.01691-.51512,1.03024-1.86934,2.37145-2.51057,3.01268-1.39324,1.39324-2.6344,2.54153-4.51902,3.01268-2.09481.52371-2.30216.48079-3.26374,0" fill="none" stroke="#000"/>
<path d="m888.74117,295.95805-2.51057,17.57397h8.53593l2.51057-17.57397h-8.53593z" fill-rule="evenodd" stroke="#000"/>
<path d="m882.71581,285.1626c-1.69524.42381 3.27373-1.50634 5.02113-1.50634 2.09036,0-1.5663,3.02767 4.51902,1.50634 1.96798-.49199-1.46888,3.24501 4.51903.25106 .07804-.03902 3.43621.58452 4.77008.25106 1.36325-.34082 1.48389.96681 2.25951,2.25951 .80435,1.34058 3.06746-1.83591 4.51902-1.25529 1.65489.66196-.40567.25106 2.76163.25106 3.20687,0 1.03109,3.49464 4.01691,1.25528 .4491-.33682 1.00422-.50211 1.50634-.75317 1.57141-.7857 1.66907,2.55474 4.26796,1.25529 2.2335-1.11675 1.84017,1.92843 2.25951.25105 .86531-3.46122 2.88713-1.9457 4.26797-1.25528 1.0717.53585 2.10132-1.79695 3.26374-1.50634l2.00845.50211c1.62375.40594 1.5575-3.63797 3.01269,0 .07653.19133 3.30669-4.04332 5.02113-1.75739 .60261.80348 2.80098-3.18505 4.01691-.75318 .42551.85102 3.295-.76879 4.26797-1.25528 2.54255-1.27127 2.0345,1.05632 2.76162,2.51057 .55201,1.10402.31914,2.02973.50212,2.76162 .49262,1.97048.98133,2.85322.75317,3.76586-.54858,2.19432-.42309,1.92942-1.50634,3.01268-1.3305,1.33049-3.13647,1.28623-4.01691,1.50634-2.33662.58415-2.37525,1.11996-2.51057,1.25528-.21336.21336-.42893-1.04589-.50212-.75317-.27055,1.08221-5.63334,1.15728-7.02959,1.50634-1.95874.48969-5.89787.25106-7.5317.25106-1.01118,0-.24411,2.76163-1.25529,2.76163-1.54273,0-1.71913-1.93194-2.25951-3.01269-.45066-.90132-1.28189,1.76405-2.25951,2.00846-4.3715,1.09287-4.18133-.08663-4.77008.50211-1.55947,1.55947-2.0637.44687-3.26374-.75317-.55825-.55825-1.23429,1.41012-2.00845,1.25529-3.16336-.63268-4.77008,2.29065-4.77008.25105 0-.63733-1.24753-.37077-1.7574-.75317-1.48196-1.11147-2.24143,1.50182-4.26796,2.00846-.75324.1883.82566-2.27764-3.26374-1.25529-.63233.15808-3.77783-1.50634-5.52325-1.50634h-2.51057c-.74851,0-.27807-1.82691-1.00423-2.00845-3.64664-.91166-5.11254.14806-5.77431-1.50634-.35436-.88592-1.7686-.93921-2.25951-1.7574-.87528-1.45881-2.27445-.05977-2.76162-2.00846-.32358-1.29429-1.46917-3.72867.75317-1.50634 .40372.40372-2.80753-3.51479.50211-3.51479 1.95847,0 0-.0823 0-2.25951 0-.45067.83686-.33475 1.25529-.50212z" fill="#f9f9f9" fill-rule="evenodd" stroke="#000"/>
<path d="m879.45207,321.06372-.25106,6.77854-1.7574,2.76162v4.01691c0,1.25529-.50211.75317 1.7574,3.5148s1.25528,2.00845 2.51057,2.76162 1.00423,1.25529 3.76585,2.00846 5.52325,1.00423 5.52325,1.00423 2.76163-.25106 4.01691-.25106 10.54439.25106 12.05073.25106 6.52748-2.25952 6.52748-2.25952l3.01268-2.25951 .75317-4.26796-2.00846-2.76163c0,0-.50211-1.7574-2.51057-1.7574s-5.52325-2.25951-5.52325-2.25951l-4.0169-1.50634-2.76163-1.00423-1.00423-2.51056-.50211-2.51057-19.58243.25105z" fill="#ececec" fill-rule="evenodd" stroke="#000"/>
<path d="m879.95418,315.28942c-1.48878-1.51369 2.60727-2.40684 7.02959-3.26374 3.26185-1.00991 7.12622-.21223 11.0465.75317l4.01691,2.76163-.25106,6.02536-2.51056-.25106-5.2722-.50211c.11005.44022-3.76274,1.26773-6.52747,0-2.16499-.99273-5.02114,1.50634-5.02114,1.50634l-3.26374-.50211 .75317-6.52748z" fill="#f9f9f9" fill-rule="evenodd" stroke="#000"/>
<path d="m949.34762,323.07217 .25106,6.77854 1.7574,2.76162v4.01691c0,1.25529.50211.75317-1.7574,3.5148s-1.25528,2.00845-2.51057,2.76162-1.00423,1.25529-3.76585,2.00846-5.52325,1.00423-5.52325,1.00423-2.76163-.25106-4.01691-.25106-10.79545-.25105-12.30179-.25105-6.27642-1.75741-6.27642-1.75741l-3.01268-2.25951-2.51057-3.26373 1.00423-3.5148c0,0 0-4.01691 2.00846-4.01691s6.02536-2.25951 6.02536-2.25951l5.7743-1.25529h2.51058l2.25951-1.75739 .50211-2.51057 19.58243.25105z" fill="#ececec" fill-rule="evenodd" stroke="#000"/>
<path d="m952.75379,316.18155c1.75055-1.8315-3.06569-2.91218-8.26555-3.949-3.83537-1.22195-8.37918-.25678-12.98874.91131l-4.72319,3.34147 .2952,7.29045 2.95198-.30378 6.19918-.60753c-.12939.53265 4.42432,1.53391 7.67516,0 2.54564-1.20116 5.90397,1.82261 5.90397,1.82261l3.8376-.60753-.88561-7.898z" fill="#f9f9f9" fill-rule="evenodd" stroke="#000"/>
</g>
</svg>
