<?xml version="1.0" encoding="utf-8" standalone="no"?>
<!DOCTYPE svg PUBLIC "-//W3C//DTD SVG 1.1//EN"
  "http://www.w3.org/Graphics/SVG/1.1/DTD/svg11.dtd">
<!-- Created with matplotlib (http://matplotlib.org/) -->
<svg height="141pt" version="1.1" viewBox="0 0 425 141" width="425pt" xmlns="http://www.w3.org/2000/svg" xmlns:xlink="http://www.w3.org/1999/xlink">
 <defs>
  <style type="text/css">
*{stroke-linecap:butt;stroke-linejoin:round;}
  </style>
 </defs>
 <g id="figure_1">
  <g id="patch_1">
   <path d="M 0 141.732283 
L 425.19685 141.732283 
L 425.19685 0 
L 0 0 
z
" style="fill:none;"/>
  </g>
  <g id="axes_1">
   <g id="patch_2">
    <path clip-path="url(#pd1d39c5856)" d="M 185.669291 70.866142 
L 178.582677 72.283465 
L 178.582677 70.866142 
L 97.795276 70.866142 
L 97.795276 70.866142 
L 178.582677 70.866142 
L 178.582677 69.448819 
z
" style="stroke:#000000;stroke-linejoin:miter;stroke-width:3;"/>
   </g>
   <g id="patch_3">
    <path clip-path="url(#pd1d39c5856)" d="M 327.401575 70.866142 
L 320.314961 72.283465 
L 320.314961 70.866142 
L 239.527559 70.866142 
L 239.527559 70.866142 
L 320.314961 70.866142 
L 320.314961 69.448819 
z
" style="stroke:#000000;stroke-linejoin:miter;stroke-width:3;"/>
   </g>
   <g id="patch_4">
    <path clip-path="url(#pd1d39c5856)" d="M 70.866142 97.795276 
C 78.007832 97.795276 84.857978 94.957852 89.907915 89.907915 
C 94.957852 84.857978 97.795276 78.007832 97.795276 70.866142 
C 97.795276 63.724452 94.957852 56.874306 89.907915 51.824369 
C 84.857978 46.774431 78.007832 43.937008 70.866142 43.937008 
C 63.724452 43.937008 56.874306 46.774431 51.824369 51.824369 
C 46.774431 56.874306 43.937008 63.724452 43.937008 70.866142 
C 43.937008 78.007832 46.774431 84.857978 51.824369 89.907915 
C 56.874306 94.957852 63.724452 97.795276 70.866142 97.795276 
z
" style="fill:none;stroke:#000000;stroke-linejoin:miter;stroke-width:3;"/>
   </g>
   <g id="patch_5">
    <path clip-path="url(#pd1d39c5856)" d="M 212.598425 97.795276 
C 219.740115 97.795276 226.590261 94.957852 231.640198 89.907915 
C 236.690136 84.857978 239.527559 78.007832 239.527559 70.866142 
C 239.527559 63.724452 236.690136 56.874306 231.640198 51.824369 
C 226.590261 46.774431 219.740115 43.937008 212.598425 43.937008 
C 205.456735 43.937008 198.606589 46.774431 193.556652 51.824369 
C 188.506715 56.874306 185.669291 63.724452 185.669291 70.866142 
C 185.669291 78.007832 188.506715 84.857978 193.556652 89.907915 
C 198.606589 94.957852 205.456735 97.795276 212.598425 97.795276 
z
" style="fill:none;stroke:#000000;stroke-linejoin:miter;stroke-width:3;"/>
   </g>
   <g id="patch_6">
    <path clip-path="url(#pd1d39c5856)" d="M 354.330709 97.795276 
C 361.472398 97.795276 368.322545 94.957852 373.372482 89.907915 
C 378.422419 84.857978 381.259843 78.007832 381.259843 70.866142 
C 381.259843 63.724452 378.422419 56.874306 373.372482 51.824369 
C 368.322545 46.774431 361.472398 43.937008 354.330709 43.937008 
C 347.189019 43.937008 340.338873 46.774431 335.288935 51.824369 
C 330.238998 56.874306 327.401575 63.724452 327.401575 70.866142 
C 327.401575 78.007832 330.238998 84.857978 335.288935 89.907915 
C 340.338873 94.957852 347.189019 97.795276 354.330709 97.795276 
z
" style="fill:none;stroke:#000000;stroke-linejoin:miter;stroke-width:3;"/>
   </g>
   <g id="matplotlib.axis_1"/>
   <g id="matplotlib.axis_2"/>
   <g id="text_1">
    <!-- $y_1$ -->
    <defs>
     <path d="M 26.296875 -10.9375 
C 23.59375 -14.671875 19.703125 -18 14.796875 -18 
C 13.59375 -18 8.796875 -18 7.296875 -13.890625 
C 7.59375 -13.984375 8.09375 -13.984375 8.296875 -13.984375 
C 11.296875 -13.984375 13.296875 -11.390625 13.296875 -9.09375 
C 13.296875 -6.796875 11.40625 -6 9.90625 -6 
C 8.296875 -6 4.796875 -7.15625 4.796875 -11.859375 
C 4.796875 -16.734375 9.09375 -20.09375 14.796875 -20.09375 
C 24.796875 -20.09375 34.90625 -10.9375 37.703125 0.09375 
L 47.5 38.828125 
C 47.59375 39.328125 47.796875 39.9375 47.796875 40.53125 
C 47.796875 42.015625 46.59375 43.015625 45.09375 43.015625 
C 44.203125 43.015625 42.09375 42.609375 41.296875 39.609375 
L 33.90625 10.28125 
C 33.40625 8.484375 33.40625 8.28125 32.59375 7.1875 
C 30.59375 4.390625 27.296875 1 22.5 1 
C 16.90625 1 16.40625 6.484375 16.40625 9.1875 
C 16.40625 14.875 19.09375 22.546875 21.796875 29.734375 
C 22.90625 32.625 23.5 34.03125 23.5 36.015625 
C 23.5 40.21875 20.5 44 15.59375 44 
C 6.40625 44 2.703125 29.53125 2.703125 28.734375 
C 2.703125 28.34375 3.09375 27.84375 3.796875 27.84375 
C 4.703125 27.84375 4.796875 28.234375 5.203125 29.640625 
C 7.59375 38.015625 11.40625 42.015625 15.296875 42.015625 
C 16.203125 42.015625 17.90625 42.015625 17.90625 38.71875 
C 17.90625 36.125 16.796875 33.234375 15.296875 29.4375 
C 10.40625 16.359375 10.40625 13.078125 10.40625 10.671875 
C 10.40625 1.203125 17.203125 -1 22.203125 -1 
C 25.09375 -1 28.703125 -0.09375 32.203125 3.59375 
L 32.296875 3.5 
C 30.796875 -2.296875 29.796875 -6.125 26.296875 -10.9375 
z
" id="CMMI12-121"/>
     <path d="M 26.59375 63.40625 
C 26.59375 65.5 26.5 65.5 25.09375 65.5 
C 21.203125 61.1875 15.296875 59.796875 9.703125 59.796875 
C 9.40625 59.796875 8.90625 59.796875 8.796875 59.5 
C 8.703125 59.296875 8.703125 59.09375 8.703125 57 
C 11.796875 57 17 57.59375 21 59.984375 
L 21 7.203125 
C 21 3.6875 20.796875 2.5 12.203125 2.5 
L 9.203125 2.5 
L 9.203125 0 
C 14 0 19 0 23.796875 0 
C 28.59375 0 33.59375 0 38.40625 0 
L 38.40625 2.5 
L 35.40625 2.5 
C 26.796875 2.5 26.59375 3.59375 26.59375 7.15625 
z
" id="CMR17-49"/>
    </defs>
    <g transform="translate(58.934042 78.330643)scale(0.3 -0.3)">
     <use transform="translate(0 14.943915)scale(0.996264)" xlink:href="#CMMI12-121"/>
     <use transform="translate(47.564188 0)scale(0.697382)" xlink:href="#CMR17-49"/>
    </g>
   </g>
   <g id="text_2">
    <!-- $y_2$ -->
    <defs>
     <path d="M 41.703125 15.453125 
L 39.90625 15.453125 
C 38.90625 8.375 38.09375 7.171875 37.703125 6.5625 
C 37.203125 5.765625 30 5.765625 28.59375 5.765625 
L 9.40625 5.765625 
C 13 9.671875 20 16.75 28.5 24.953125 
C 34.59375 30.734375 41.703125 37.53125 41.703125 47.421875 
C 41.703125 59.21875 32.296875 66 21.796875 66 
C 10.796875 66 4.09375 56.3125 4.09375 47.34375 
C 4.09375 43.4375 7 42.9375 8.203125 42.9375 
C 9.203125 42.9375 12.203125 43.546875 12.203125 47.03125 
C 12.203125 50.109375 9.59375 51 8.203125 51 
C 7.59375 51 7 50.90625 6.59375 50.703125 
C 8.5 59.21875 14.296875 63.40625 20.40625 63.40625 
C 29.09375 63.40625 34.796875 56.515625 34.796875 47.421875 
C 34.796875 38.734375 29.703125 31.25 24 24.75 
L 4.09375 2.28125 
L 4.09375 0 
L 39.296875 0 
z
" id="CMR17-50"/>
    </defs>
    <g transform="translate(200.666326 78.330643)scale(0.3 -0.3)">
     <use transform="translate(0 14.943915)scale(0.996264)" xlink:href="#CMMI12-121"/>
     <use transform="translate(47.564188 0)scale(0.697382)" xlink:href="#CMR17-50"/>
    </g>
   </g>
   <g id="text_3">
    <!-- $y_3$ -->
    <defs>
     <path d="M 22.09375 33.703125 
C 31 33.703125 34.90625 25.96875 34.90625 17.03125 
C 34.90625 5 28.5 0.390625 22.703125 0.390625 
C 17.40625 0.390625 8.796875 3.03125 6.09375 10.828125 
C 6.59375 10.625 7.09375 10.625 7.59375 10.625 
C 10 10.625 11.796875 12.21875 11.796875 14.8125 
C 11.796875 17.703125 9.59375 19 7.59375 19 
C 5.90625 19 3.296875 18.203125 3.296875 14.46875 
C 3.296875 5.234375 12.296875 -2 22.90625 -2 
C 34 -2 42.5 6.71875 42.5 16.953125 
C 42.5 26.671875 34.5 33.6875 25 34.796875 
C 32.59375 36.375 39.90625 43.0625 39.90625 52.015625 
C 39.90625 59.6875 32 65.296875 23 65.296875 
C 13.90625 65.296875 5.90625 59.828125 5.90625 52.015625 
C 5.90625 48.59375 8.5 48 9.796875 48 
C 11.90625 48 13.703125 49.296875 13.703125 51.890625 
C 13.703125 54.46875 11.90625 55.765625 9.796875 55.765625 
C 9.40625 55.765625 8.90625 55.765625 8.5 55.578125 
C 11.40625 61.859375 19.296875 63 22.796875 63 
C 26.296875 63 32.90625 61.328125 32.90625 51.875 
C 32.90625 49.109375 32.5 44.1875 29.09375 39.84375 
C 26.09375 36 22.703125 36 19.40625 35.6875 
C 18.90625 35.6875 16.59375 35.453125 16.203125 35.453125 
C 15.5 35.359375 15.09375 35.265625 15.09375 34.5 
C 15.09375 33.796875 15.203125 33.703125 17.203125 33.703125 
z
" id="CMR17-51"/>
    </defs>
    <g transform="translate(342.398609 78.330643)scale(0.3 -0.3)">
     <use transform="translate(0 14.943915)scale(0.996264)" xlink:href="#CMMI12-121"/>
     <use transform="translate(47.564188 0)scale(0.697382)" xlink:href="#CMR17-51"/>
    </g>
   </g>
  </g>
 </g>
 <defs>
  <clipPath id="pd1d39c5856">
   <rect height="141.732283" width="425.19685" x="0" y="0"/>
  </clipPath>
 </defs>
</svg>
