<?xml version="1.0" encoding="UTF-8" standalone="no"?>
<svg enable-background="new 0 0 402.171 235.231" viewBox="0 0 402.171 235.231" xml:space="preserve" xmlns="http://www.w3.org/2000/svg"><defs></defs>

	<path d="m60.793.008c-3.432,1.868-6.036,4.564-9.82,6.079 2.298-3.001 4.331-6.268 9.82-6.079z" fill-rule="evenodd"></path>
	<path d="m11.223,31.339c-.058,6.296 1.305,13.534 2.338,20.109-2.698-4.681-4.145-13.808-2.338-20.109z" fill-rule="evenodd"></path>
	<path d="m6.547,42.563c1.944,3.044 2.992,6.984 4.676,10.288-2.723-2.265-4.243-5.733-4.676-10.288z" fill-rule="evenodd"></path>
	<path d="m36.476,53.319c.833.343.068.85 0,1.403-.833-.343-.068-.85 0-1.403z" fill-rule="evenodd"></path>
	<path d="m35.541,55.189c-.204.575-.599.96-1.403.935 .204-.575.598-.96 1.403-.935z" fill-rule="evenodd"></path>
	<path d="m28.994,65.01c-1.519-.055-5.651-1.108-5.612-1.403 .141-1.059 5.111-.794 5.612,1.403z" fill-rule="evenodd"></path>
	<path d="m65.937,63.139c-1.027,1.428-2.995-.539 0,0z" fill-rule="evenodd"></path>
	<path d="m54.714,64.542c2.263.075 4.959-.283 5.144,1.871-1.219-1.119-5.338.661-5.144-1.871z" fill-rule="evenodd"></path>
	<path d="m68.743,66.413c-1.103,1.504-1.89-1.645 0,0z" fill-rule="evenodd"></path>
	<path d="m58.922,68.751c-1.093-.76-4.672-.657-4.676-1.403-.005-.855 4.222-.738 4.676,1.403z" fill-rule="evenodd"></path>
	<path d="m25.252,67.815c1.8-.694 6.481-.256 6.079,2.806-1.812-1.149-4.664-1.258-6.079-2.806z" fill-rule="evenodd"></path>
	<path d="m53.311,68.283c2.286.052 3.708.969 4.208,2.806-1.492-.846-3.63-1.046-4.208-2.806z" fill-rule="evenodd"></path>
	<path d="m48.167,68.751c1.126-.191 1.016.854 2.338.468 1.218,1.588 2.629,2.982 3.273,5.144 2.17.48 4.266,1.035 5.144,2.806-3.287-1.702-7.97-2.006-11.223-3.741 .337-2.25 2.373.751 4.208,0-.063-2.742-3.62-1.991-3.74-4.677z" fill-rule="evenodd"></path>
	<path d="m62.196,69.686c1.801-1.005 4.778.821 5.611,2.338-2.251-.398-3.359-1.94-5.611-2.338z" fill-rule="evenodd"></path>
	<path d="m23.85,70.154c3.744.153 6.932.862 7.482,4.209-2.137-1.137-3.694-2.853-7.015-2.806 1.165,1.485 3.345,1.956 4.677,3.273-1.372,1.909-3.893-2.059-6.547-1.871-.037-2.406 2.015.178 1.403-2.805z" fill-rule="evenodd"></path>
	<path d="m62.664,72.024c2.378.428 3.997,1.615 4.677,3.741-1.862-.945-3.456-2.156-4.677-3.741z" fill-rule="evenodd"></path>
	<path d="m26.655,76.233h-2.338c1.284,1.522 2.417,3.195 4.209,4.209-1.395,1.515-2.849-.866-3.741-1.403-.929.006-.595,1.276-1.871.935-4.031-.527-5.878-3.377-8.885-5.144-.686-.403-2.135.914-1.87-.935 3.189-.251 5.278,1.015 7.95,0-2.865,1.568 6.191-1.306 6.546,2.338zm-8.417.935c.41-.963-1.213-2.1-1.403-.936 .667.113.789.771 1.403.936zm3.741,1.403c.692-.087.429-1.13.468-1.871-.874-.373-1.713-.781-2.806-.935 .068,1.647 1.412,2.018 2.338,2.806z" fill-rule="evenodd"></path>
	<path d="m64.534,79.974c-1.288-.894-2.29-2.075-3.741-2.806 .69-1.683 3.866.724 3.741,2.806z" fill-rule="evenodd"></path>
	<path d="m50.505,76.701c2.78.182 4.159,1.765 6.08,2.806-.413,1.604-4.084-1.061-5.144-1.871-.796.172-.883-.365-.936-.935z" fill-rule="evenodd"></path>
	<path d="m49.102,79.039c2.687,1.522 3.867,4.551 4.676,7.95-2.019-2.189-3.9-4.517-4.676-7.95z" fill-rule="evenodd"></path>
	<path d="m43.49,80.91c1.797.541.58,4.097.936,6.079-1.797-.541-.58-4.097-.936-6.079z" fill-rule="evenodd"></path>
	<path d="m47.231,81.845c1.82,1.297 1.923,4.312 2.338,7.015-2.522-.596-1.797-4.438-2.338-7.015z" fill-rule="evenodd"></path>
	<path d="m37.879,83.248c2.262.855 1.823,4.412 4.208,5.144-2.181.921-3.912-2.625-4.208-5.144z" fill-rule="evenodd"></path>
	<path d="m40.685,83.715c1.859,2.817 4.492,4.861 5.612,8.417-2.319-2.357-4.938-4.415-5.612-8.417z" fill-rule="evenodd"></path>
	<path d="m77.161,84.183c.692.243 1.179.692 1.871.935-.292,1.642-1.954.417-1.871-.935z" fill-rule="evenodd"></path>
	<path d="m100.542,87.924h.936v.935h-.936v-.935z" fill-rule="evenodd"></path>
	<path d="m55.182,89.327c1.037-.257.666.893 1.403.935-.191,1.165-1.814.028-1.403-.935z" fill-rule="evenodd"></path>
	<path d="m60.793,91.198c2.743.53 2.907,3.64 4.677,5.144-2.037.622-3.686-3.165-4.677-5.144z" fill-rule="evenodd"></path>
	<path d="m36.476,91.666c2.508,2.167-.387,6.69-.467,9.353-.634-2.968.506-6.148.467-9.353z" fill-rule="evenodd"></path>
	<path d="m50.038,107.098c-.977,2.519.284,6.658-.936,9.82-1.67-6.491-.247-11.329-.935-17.771 1.64.543 1.022,3.342 1.403,5.144 2.497-1.617 1.684-5.487 1.403-8.885 3.285,5.75-2.882,17.055 1.871,23.382 .975-.74.158-3.272.935-4.209 3.029,1.024 2.513,5.593 2.806,9.353-1.973-.365-1.864-2.812-2.806-4.208-1.386,1.163.315,4.976-.467,5.612-1.474-.793-.582-2.175-.468-3.741-2.917-2.852-2.151-9.386-2.806-14.497z" fill-rule="evenodd"></path>
	<path d="m38.814,95.874c2.017,2.414-1.677,6.566-2.338,9.353-.165-2.2 1.859-6.24 2.338-9.353z" fill-rule="evenodd"></path>
	<path d="m41.152,95.874c1.305.224.458,2.975 0,4.209-.531,1.429-2.178,3.272-2.806,3.741 .631-2.954 2.175-4.995 2.806-7.95z" fill-rule="evenodd"></path>
	<path d="m43.958,97.745c1.72.779-.819,6.169-.935,8.885-1.519-2.934.515-6.335.935-8.885z" fill-rule="evenodd"></path>
	<path d="m46.296,97.745c.241,4.655-1.739,10.321 0,15.9-4.358-3.479-1.026-11.115 0-15.9z" fill-rule="evenodd"></path>
	<path d="m53.311,99.615c.543-.076.832.103.935.468 1.046,2.617-.74,6.3.468,9.353-2.191-1.551-1.179-6.304-1.403-9.821z" fill-rule="evenodd"></path>
	<path d="m41.152,101.018c1.927,1.153-.959,5.158-1.403,7.015-1.177-2.129.688-5.224 1.403-7.015z" fill-rule="evenodd"></path>
	<path d="m29.929,105.227c1.364-.688 1.364,2.09 0,1.403v-1.403z" fill-rule="evenodd"></path>
	<path d="m90.722,108.033c-1.589.475-3.973,1.995-5.144,1.403 .066-2.117 3.172-1.193 5.144-1.403z" fill-rule="evenodd"></path>
	<path d="m90.254,110.371c-1.08.635-2.085,1.344-3.741,1.403 .883-.832 1.889-1.541 3.741-1.403z" fill-rule="evenodd"></path>
	<path d="m59.858,113.645h1.871c-.868,1.668 1.023,5.108 0,7.95-1.607-1.668-1.867-4.681-1.871-7.95z" fill-rule="evenodd"></path>
	<path d="m107.089,115.515c.648-1.066 3.255-.174 4.677-.468 1.156.738-2.757.324-3.273.935-.076-.547-.853-.394-1.404-.467z" fill-rule="evenodd"></path>
	<path d="m57.52,115.515c1.37,2.432.448,4.74.468,7.95-1.7-.923-1.014-6.291-.468-7.95z" fill-rule="evenodd"></path>
	<path d="m101.946,116.45c1.4-1.417 6.109-1.374 3.273-.468-.934.299-1.167.538-3.273.468z" fill-rule="evenodd"></path>
	<path d="m119.249,116.45c1.635-.53 5.566.659 7.482,1.403-1.543.438-5.255-.97-7.482-1.403z" fill-rule="evenodd"></path>
	<path d="m118.781,117.853c-4.986-1.123-10.334.689-15.432.936 1.204-1.215 4.328-2.055 7.482-2.338 2.651-.239 7.061-.868 7.95,1.402z" fill-rule="evenodd"></path>
	<path d="m97.269,117.853c-.204.575-.598.96-1.403.936 .204-.576.599-.961 1.403-.936z" fill-rule="evenodd"></path>
	<path d="m68.743,119.724c.813,3.314-1.33,7.707-.936,12.159 .396.695 1.506.677 2.338.936 .591-1.704-1.02-4.774-.936-7.482 2.516.914 1.083,5.776 2.806,7.482 2.268,2.408 5.935,3.418 7.015,7.015-2.909-1.3-4.413-4.005-7.482-5.145 .433,2.38 4.31,5.351 6.547,7.482-3.961-.719-6.505-6.897-11.223-8.417-1.311.459.679,1.247-.468,1.87-1.138-.888-2.312-1.741-4.676-1.403-2.704-2.439-4.649-5.639-7.015-8.417 3.113-.146 4.492,5.48 7.482,7.015 1.466-.323.609-1.247.467-2.339 1.628.243.931,2.811 3.273,2.339 1.549-3.755 1.015-9.588 2.808-13.095z" fill-rule="evenodd"></path>
	<path d="m119.249,124.4c-7.447.153-18.186-.513-23.85,2.806-.97-1.474 1.792-1.496 2.806-1.87 4.78-1.764 14.233-2.385 21.044-.936z" fill-rule="evenodd"></path>
	<path d="m77.161,124.4c1.163-.072 1.448.735 2.338.936-.339,1.044-2.667.226-2.338-.936z" fill-rule="evenodd"></path>
	<path d="m124.86,128.141c-2.604.895-5.121-1.024-8.417-1.402-7.328-.842-15.836.744-21.979,1.87 7.593-3.725 22.527-4.672 30.396-.468z" fill-rule="evenodd"></path>
	<path d="m115.04,130.012c-1.173-1.734 3.232-.5 4.209.935-6.11.652-13.475-1.487-21.044-.935 4.367-1.953 12.181-.717 16.835,0z" fill-rule="evenodd"></path>
	<path d="m95.398,130.012c-1.026,1.428-2.995-.54 0,0z" fill-rule="evenodd"></path>
	<path d="m75.29,132.35c1.083-1.052 3.857.173 4.208,1.403-2.121.251-2.8-.94-4.208-1.403z" fill-rule="evenodd"></path>
	<path d="m106.154,131.882c-1.027,1.429-2.995-.54 0,0z" fill-rule="evenodd"></path>
	<path d="m101.01,132.818c-1.996.653-3.774,1.525-6.547,1.402 1.349-1.3 4.082-1.218 6.547-1.402z" fill-rule="evenodd"></path>
	<path d="m107.557,139.833c-.8,1.07-3.569.171-5.144.468 .524-1.281 4.039-1.232 5.144-.468z" fill-rule="evenodd"></path>
	<path d="m158.53,145.912c.575.204.96.599.935,1.403-.575-.204-.96-.599-.935-1.403z" fill-rule="evenodd"></path>
	<path d="m114.104,149.653c.19-1.165 1.813-.027 1.403.936-.614-.167-.736-.824-1.403-.936z" fill-rule="evenodd"></path>
	<path d="m100.075,152.926c-1.38.962 2.178.902 1.403,2.806-2.692-1.36-4.17-3.936-6.547-5.611 5.093-1.036 7.913,4.242 10.755,7.015-3.077-.197-3.402-3.145-5.611-4.21z" fill-rule="evenodd"></path>
	<path d="m91.19,151.991c.525,3.625 1.796,9.868 2.806,14.497 2.179.159 4.17.507 5.612,1.403-1.425,1.241-3.681-.664-5.144-.936-1.23-.139-.368,1.814-1.871,1.403-.24-3.055-3.055-1.74-4.209-1.871-.929-2.812 1.24-8.723-2.806-8.417 1.093-2.804 3.795-3.999 5.612-6.079zm-1.403,13.093c1.322-.386 1.211.659 2.338.468 .674-1.513-.836-4.307-1.403-6.079 .859-.89.404-4.434-.935-4.677-2.43,2.052-.682,7.255 0,10.288z" fill-rule="evenodd"></path>
	<path d="m100.075,162.279c3.984,6.772 15.91,9.653 21.043,16.835-4.527-3.507-9.43-4.069-13.562-7.481-1.421-.449-3.808.066-3.741-1.871 1.875.619 4.063.925 5.612,1.871-.191-1.688-4.53-3.257-6.079-5.145-.548.075-.395.853-.468,1.403-.832-.416-1.188-1.306-2.806-.936 2.126-3.863-4.664-6.007-6.08-9.353 .469-1.855 1.888.073 2.806.468-.065-2.117-1.917-2.448-1.87-4.677 2.979.917 2.069,5.725 4.208,7.482 4.769.063 6.966,2.698 10.288,4.208-2.786.6-5.744-2.664-9.351-2.804z" fill-rule="evenodd"></path>
	<path d="m68.275,159.473c-.294,1.577-1.588,2.152-3.273,2.338 .402-1.468 1.924-1.816 3.273-2.338z" fill-rule="evenodd"></path>
	<path d="m134.68,167.891c-1.396.907-3.034-1.938-3.741-3.273-2.308-1.59-4.764-3.03-6.547-5.145 5.035,1.201 7.447,5.024 10.288,8.418z" fill-rule="evenodd"></path>
	<path d="m94.931,160.876c1.518,1.443 3.208,2.715 3.741,5.144-1.011,1.055-1.595-.387-3.273,0-.214-1.919 1,.19 2.338-.468-.3-2.194-2.776-2.212-2.806-4.676z" fill-rule="evenodd"></path>
	<path d="m83.708,163.682c.505-.256.624,2.79 2.338,1.87-1.533,2.521-2.877,5.229-4.209,7.95-.675-2.71 2.253-5.845 1.871-9.82z" fill-rule="evenodd"></path>
	<path d="m70.146,165.552c2.335,1.39-3.708,3.843-3.741,6.08-1.166-2.581 3.367-3.482 3.741-6.08z" fill-rule="evenodd"></path>
	<path d="m77.161,166.488c1.448,1.328-.332,3.383-.468,4.677-2.065-.81-.366-3.884.468-4.677z" fill-rule="evenodd"></path>
	<path d="m79.499,167.891c1.388.394.989,5.578-.935,5.611-.332-2.512.533-3.831.935-5.611z" fill-rule="evenodd"></path>
	<path d="m108.96,168.359c.013-.455.573-.363.936-.468 8.517,2.55 14.845,7.29 19.641,13.562-6.438-4.786-12.186-10.262-20.577-13.094z" fill-rule="evenodd"></path>
	<path d="m72.484,169.293c.548.076.394.853.467,1.403-2.284.989-2.292,4.254-4.208,5.611-.006-3.59 2.465-4.704 3.741-7.014z" fill-rule="evenodd"></path>
	<path d="m90.254,169.293c.841,2.101-1.077,5.46-2.806,6.547 .788-2.329 1.777-4.459 2.806-6.547z" fill-rule="evenodd"></path>
	<path d="m106.622,178.647c.905,1.121 2.625,1.428 2.806,3.273-3.367-1.777-5.376-4.912-10.288-5.145-.132-.755.442-.805.468-1.402-1.888-.139-3.649-.404-4.209-1.871 2.059,1.358 6.144.607 8.417,1.871 4.042,2.244 9.176,4.415 8.885,6.079 2.744.686 5.31,1.549 7.015,3.273-5.515.014-7.655-5.065-13.094-6.078z" fill-rule="evenodd"></path>
	<path d="m104.751,174.438c4.162-.416 9.917,1.614 11.691,5.144-.543-.076-.832.104-.935.468-2.543-2.914-6.623-4.29-10.756-5.612z" fill-rule="evenodd"></path>
	<path d="m73.887,174.906c.267,2.139-2.447,5.118-1.871,7.949-1.231.23-1.575,2.579-2.806,1.403 1.3-3.377 2.294-7.058 4.677-9.352z" fill-rule="evenodd"></path>
	<path d="m80.434,178.179c-.423.823-1.722.772-1.871,1.87-1.167-.604.495-2.266 1.871-1.87z" fill-rule="evenodd"></path>
	<path d="m90.254,179.114c4.076.064 9.59.606 13.562,2.807-2.441,1.182-4.702-1.835-7.95-1.403 1.616,1.97 5.66,1.511 6.547,4.209 4.176-.078 5.363.155 7.95,1.87-2.614.74-5.931-.979-8.885-1.402-1.816-.262-4.285,1.15-5.144-.936 1.904.494 2.215-.132 4.676,0-3.17-2.131-7.276-3.324-10.756-5.145z" fill-rule="evenodd"></path>
	<path d="m120.184,180.049c1.297-1.567 2.187,1.211 3.273,1.403-.894,2.214-1.985-1.16-3.273-1.403z" fill-rule="evenodd"></path>
	<path d="m74.822,180.517c1.046,3.081-1.37,6.729-3.273,8.418 .828-3.069 1.631-6.163 3.273-8.418z" fill-rule="evenodd"></path>
	<path d="m86.513,184.258c.188-2.446 2.061-.154 2.806,0 2.905.602 7.211,1.612 9.353,3.273 .076.544-.103.832-.467.936-4.041-1.259-7.084-3.516-11.692-4.209z" fill-rule="evenodd"></path>
	<path d="m76.693,185.194c1.742,1.663 1.208.976 3.273,0-.56,1.934-2.565,2.422-2.338,5.144-2.336-.465-1.355,2.387-3.273,2.338 .833-2.44 2.401-4.145 2.338-7.482z" fill-rule="evenodd"></path>
	<path d="m108.493,192.208c-3.979-.233-9.645-2.823-14.965-3.273 .581-1.813 2.628-.109 3.741,0 4.128.402 9.185.601 11.224,3.273z" fill-rule="evenodd"></path>
	<path d="m80.902,188.935c1.043,1.686-1.58,3.705-1.403,6.079-1.49.399-1.775-.407-2.338-.936 1.66-.542 2.392-3.098 3.741-5.143z" fill-rule="evenodd"></path>
	<path d="m97.269,191.273c-3.203.279-7.426-1.203-11.223-.936 2.819-2.281 8.236.33 11.223.936z" fill-rule="evenodd"></path>
	<path d="m84.175,191.741c1.208,2.467-1.219,5.318-1.403,7.949-1.266-2.525.694-5.843 1.403-7.949z" fill-rule="evenodd"></path>
	<path d="m109.428,192.208c2.336.47 4.211,1.4 6.547,1.87-2.448.904-6.122-.267-6.547-1.87z" fill-rule="evenodd"></path>
	<path d="m94.463,193.143c1.138.889 3.912.141 5.144.936-1.08.897-4.8.456-5.144-.936z" fill-rule="evenodd"></path>
	<path d="m100.075,195.014c1.19-1.159 3.58.449 5.144.468-1.523,1.491-3.299-.732-5.144-.468z" fill-rule="evenodd"></path>
	<path d="m99.14,196.884c-3.639,1.449-7.866-.545-12.159,0 2.582-2.043 9.307-.741 12.159,0z" fill-rule="evenodd"></path>
	<path d="m154.321,197.352c2.072,2.917 1.689,8.288 2.338,12.626-1.998-2.726-2.27-9.511-2.338-12.626z" fill-rule="evenodd"></path>
	<path d="m85.578,198.288c.539-1.513.529,1.256.468,1.87 3.677-.316 3.508-1.605 6.547-2.338-1.342,2.243-4.513,2.657-6.547,4.209-.234,1.471 1.019,1.828 0,2.806-1.669-2.465-.749-3.306-.468-6.547z" fill-rule="evenodd"></path>
	<path d="m112.701,198.288c-.186,1.996-3.919.445-5.612.936 .859-2.196 3.905.556 5.612-.936z" fill-rule="evenodd"></path>
	<path d="m101.01,201.561c-1.647,1.34-9.465.262-12.159,4.209h-2.806c1.703-.935 3.708-1.381 3.273-3.273 2.828-.135 5.203-.721 6.547-2.339 1.388.796 2.489,1.877 5.145,1.403z" fill-rule="evenodd"></path>
	<path d="m126.263,200.625c4.104-.825 9.076,1.521 12.159,3.273-3.358.08-7.679-2.917-12.159-3.273z" fill-rule="evenodd"></path>
	<path d="m158.53,200.158c1.702,2.352.911,7.195 1.403,10.756-1.632-2.421-.863-7.243-1.403-10.756z" fill-rule="evenodd"></path>
	<path d="m151.048,201.561c2.697,2.759 3.849,7.062 5.144,11.224-2.345-3.112-3.968-6.945-5.144-11.224z" fill-rule="evenodd"></path>
	<path d="m111.766,204.367h3.273c.375,1.778-2.211.595-3.273.936v-.936z" fill-rule="evenodd"></path>
	<path d="m139.825,209.511c-5.57-1.757-11.005-3.647-17.771-4.209 .165-.536.823-1.186.935-.468 7.313-.141 13.138,1.204 16.836,4.677z" fill-rule="evenodd"></path>
	<path d="m109.428,206.238c-5.088,2.141-13.966.2-18.706,2.338 2.374-2.978 12.927-3.246 18.706-2.338z" fill-rule="evenodd"></path>
	<path d="m145.904,209.978c1.602,2.607 4.283,4.136 5.144,7.482-2.096-2.112-4.364-4.052-5.144-7.482z" fill-rule="evenodd"></path>
	<path d="m137.019,212.317c-4.109.574-10.891-1.298-15.9,0 4.23-2.247 11.452-1.318 15.9,0z" fill-rule="evenodd"></path>
	<path d="m143.565,216.058c3.728.328 7.694,4.462 10.288,7.482-.884.928-2.209.227-3.273,0 .765-2.84-4.536-5.061-7.015-7.482z" fill-rule="evenodd"></path>
	<path d="m178.171,218.396c.143,1.078-1.351.52-1.403,1.403-1.367-.522.595-1.52 1.403-1.403z" fill-rule="evenodd"></path>
	<path d="m142.63,222.137c.058-1.033 1.984-.198 2.806-.468-.058,1.034-1.983.199-2.806.468z" fill-rule="evenodd"></path>
	<path d="m146.839,223.541c-2.396,1.5-6,1.794-9.821,1.87 2.183-1.714 6.245-1.55 9.821-1.87z" fill-rule="evenodd"></path>
	<path d="m131.875,231.022c-.204.576-.598.961-1.403.936-.219-.999.668-.891 1.403-.936z" fill-rule="evenodd"></path>
	<path d="m133.745,233.361c-.308.627-1,.871-1.871.935 .113-.823.805-1.066 1.871-.935z" fill-rule="evenodd"></path>
	<path d="m139.825,233.829c.067,1.314-1.146,1.349-2.338,1.402 .701-.546 1.143-1.351 2.338-1.402z" fill-rule="evenodd"></path>
	<path d="m50.038,7.022c-12.438,13.127-20.502,30.628-29.93,46.765 .733,1.347 3.705-1.406 2.338,1.403 2.302-1.875 4.218-4.704 6.079-7.482 .776-1.159 1.189-2.741 2.338-4.208 1-1.278 2.744-2.052 3.741-3.274 1.906-2.336 2.853-5.231 4.676-7.482 5.999-7.405 13.708-13.211 21.044-19.173-4.002,4.404-8.732,7.997-13.094,12.159-1.45,1.384-2.333,3.71-3.741,5.144-1.272,1.296-3.112,1.895-4.208,3.273-.596.748-.856,2.439-1.403,3.273-1.931,2.944-5.335,5.107-6.547,8.885-2.251,1.334-3.369,3.801-4.676,6.079 3.157.369 3.238-2.52 4.676-4.208 5.248-6.163 11.12-11.945 17.771-17.303 4.72-3.803 9.388-6.953 15.432-10.288 2.694-1.487 4.405-3.276 8.417-3.741-.035,1.839-1.422.959-2.338,1.403-7.37,3.565-15.882,9.003-23.382,14.964-3.947,3.138-6.938,6.643-10.756,11.224-1.709,2.051-7.131,6.684-4.208,6.547-1,1.027-3.33.723-3.273,2.806 2.989-.44 3.88-2.979 6.547-3.741-.263,2.231-3.369,1.619-3.741,3.741 2.338.613 3.53-3.945 6.547-4.209-2.15,2.994-4.412,5.875-7.95,7.482 .304.476 1.075.483.935,1.403-.74-.039-1.784.225-1.87-.468-1.978-.349 1.835-1.849-.468-3.273-2.293.98-3.07,3.477-4.677,5.144 .122,1.749 3.874-.133 3.741,1.871-2.327-.31-3.679-1.41-6.079-.468 1.083-1.878 3.423-2.5 3.273-5.612-3.935,1.989-5.488,6.359-7.482,10.288-1.255-3.134 2.917-4.87 3.273-7.95-4.054-1.708-3.921,4.802-5.611,7.015-2.224-1.23.567-4.022 1.403-5.144-.201-1.81-.512-1.664.468-2.806-1.63.708-2.718,1.958-5.612,1.403-3.077,2.067-6.765,3.523-9.82,5.612 .031,1.371 1.069,1.737 1.87,2.338 1.851.604.955-1.539 2.806-.935-.828,3.542 1.815,7.067 4.676,8.417-3.652,1.462-5.365-3.047-6.547-5.612-2.069-.894-4.544-1.38-4.676-4.209 2.501-2.487 5.176-4.8 8.417-6.547-.088,1.315-1.526,1.28-1.871,2.338 3.268-1.222 5.693-4.281 8.417-4.676 1.354.262-.717.729-.468,1.403 .669.789 2.894-.821 3.741-1.403 1.127-11.188 3.956-20.673 8.417-28.526-2.217,8.222-6.299,16.546-7.482,26.656 4.524-5.92 6.391-14.498 11.691-19.641 4.73-10.55 10.532-20.024 19.176-26.657zm-23.383,48.167c-.447-.871 1.4-1.563 0-1.871-.136.288-1.163,1.801 0,1.871zm-7.014,1.403c.884-.208 2.818.636 2.338-.936-1.16-.068-2.27-.086-2.338.936z" fill-rule="evenodd"></path>
	<path d="m146.839,125.803c-.823.703 1.653,2.061 2.806,2.338-.032,1.26-1.069,2.248-1.871,1.403 3.833,4.272 7.793,8.418 13.094,11.224-2.757,1.188-3.63-3.532-7.015-3.273-1.122,1.6 1.259,1.342 1.871,2.338 .264.429-.307,1.479 0,1.87 2.037,2.597 5.828,3.535 7.95,6.079-2.266,1.007-3.748-2.79-5.612-3.74-.252.52-.042,1.851-1.403,2.338 .215,3.058 2.725,3.822 3.273,6.547-3.529-2.238-5.213-6.322-8.417-8.885-.125.312-1.74,2.22-.468,3.74 3.606,1.471 4.899,5.318 7.482,8.418 1.431,1.717 4.542,2.804 4.208,5.611-2.542-.42-2.94-2.982-4.208-4.676-.694.204.185.599 0,1.402-1.532-.806-1.98-2.696-3.273-3.741-1.841,2.609 1.415,5.4 2.806,7.482 1.682,2.52 3.781,4.615 4.208,7.482-1.35-.209-1.105-2.012-2.338-2.338 .198,2.607 1.601,4.011 1.871,6.547-4.067-3.571-4.433-10.844-8.885-14.029 1.923,7.43 7.215,11.49 8.885,19.173 1.014.079.212-1.658.467-2.338 3.367,1.771-1.944,9.744 2.338,11.224 1.465-.931.373-3.38.936-4.209 2.083,6.854 1.836,12.943 3.273,18.706-1.263-.141-.839-1.968-1.871-2.339-1.343,3.224 1.199,6.588.468,10.756-1.338-.065-.855-1.95-.936-3.273-.189-.902-2.142-.041-1.403-1.87-.95,4.218.477,9.129-.468,14.496 3.026-.714 3.145-4.337 6.547-4.676-.988,2.44-4.092,2.767-5.144,5.144 2.091,2.242 7.346.403 9.353-.468-.003.073.004.936 0,.936 1.962-.027 4.583.271 6.547,0 2.249-.31 3.962-2.27 6.08-1.87-.423.823-1.722.772-1.871,1.87 5.12-.087 10.846,2.104 14.497-.468 .674.106.163,1.396.936,1.403 3.825-.384 4.132-4.286 8.417-4.209-.495,2.466-4.148,1.774-5.144,3.741 6.554.527 16.931,3.702 21.979-.936-.047,1.669-2.057,1.373-2.807,2.339 2.534,1.591 7.17,2.551 10.288.935 1.793-.084.17.383.468,1.403 9.292-.467 24.328,3.874 32.735,0-.052,1.163-.877,1.447 0,2.338 5.665.833 8.316-1.348 11.69-2.806 1.44,1.171-2.327,1.07-2.338,2.338 3.513,1.168 9.067.344 12.159-.467 1.171-.081 1.135,1.047 1.87,1.402 14.604.01 27.063-.177 45.829,0 17.71.167 40.643.392 57.987,2.339 2.471.277 6.224.128 7.482,3.273-4.851,1.875-10.387.376-15.433.467-3.261.06-6.752-1.337-9.82-1.402-17.45-.374-39.425-1.061-58.923,0-5.186.282-13.095.03-19.173.468-3.961.285-7.648-.449-11.691-.468-3.978-.019-8.16.88-12.158.936-.829.011-1.891-.461-2.807-.468-5.088-.042-11.351,1.172-15.899.468-.796-.124-1.58-.92-2.338-.936-5.043-.105-9.421,1.391-14.497.936-.335-1.271 2.205.334 1.87-.936-1.165-1.285-3.545.169-4.208.936-.954-.138-.917-1.266-1.871-1.403-7.852,1.158-15.689-3.453-23.382-.468-1.469.222-1.235-1.259-2.338-1.402-6.812.718-14.418-1.121-21.044-.468-3.444.339-7.218,2.362-9.353-1.403-.774-.2.042,1.743.467,1.871-7.949.109-19.001.028-26.655,1.87 .326-1.232 2.129-.988 2.338-2.338-3.866-.437-3.46,3.398-7.015,3.273 .698-1.64 2.216-2.46 3.741-3.273-2.785-.751-4.816,3.282-7.95,3.741-.185-2.056 2.52-1.222 2.806-2.807-2.653.465-4.415,1.821-6.547,2.807 .248-.377.488-.76.468-1.403-2.336.313-3.515,1.784-5.612,2.338 .459-.632 1.248-.935 1.871-1.402 .079-1.015-1.659-.212-2.338-.468 .376-1.807 2.899-1.466 3.274-3.273-1.284.068-2.411.087-1.403-.936-2.001-.131-2.312,1.429-4.676.936 .371-1.032 2.198-.607 2.338-1.871-2.2.606-4.885.728-7.015,1.403 .183-4.026 6.356-2.062 8.885-3.741 .218.998-.668.891-1.403.936 2.761,1.191 6.45-.713 9.353-.936 .151,2.031 2.322,2.043 2.338,4.209-2.084-.058-2.899,1.153-4.677,1.402 2.765.886 6.134-1.653 7.95-3.273 .508.116.317.93.935.936 2.308-2.023 5.998.138 7.95-2.338 1.461.755-.959,1.48-.936,2.338 1.144-.795 3.953.699 5.612-.468-2.034-2.079 1.163-1.096.935-3.741-.176-2.372-2.832-1.829-4.676-1.402-.157-2.025.534-4.898-.935-5.612 .414-1.717 2.137-2.642.935-4.676 1.544-.102 2.049-2.138 2.806-.468 1.602-2.604-2.93-7.176.468-8.886-1.206-4.388-2.354-8.413-1.871-12.158-.634.145-.388,1.171-.467,1.87-1.642.083-1.538-1.579-2.806-1.87 .308-1.4 1,.447 1.871,0 .106-5.718-1.86-9.363-4.208-12.626-.251,2.751 2.4,6.635 1.871,11.223-2.041-5.909-3.417-12.482-6.08-17.771-1.32-.086-1.172,1.842-1.871,0 .361,2.918 3.522,7.074 4.209,11.224-6.239-9.037-10.087-20.465-18.238-27.591-.798,2.728 1.957,3.827 3.273,5.612 4.97,6.738 8.324,15.75 12.626,23.382-.943.912-2.943-1.087-2.806-2.806-4.742-6.949-8.353-15.03-14.029-21.044 3.319,1.045 3.809,4.92 6.547,6.547-2.083-3.996-5.333-6.825-7.95-10.288 .115-.508.93-.317.935-.936-4.685-6.383-10.208-11.926-19.173-14.029-.8-.021-1.211.348-1.403.936-1.058-.501-2.056-1.062-2.806-1.871-.004-1.038 2.619-.712 4.676-.467 6.702.797 10.701,5.492 15.9,7.481-7.777-7.981-19.792-14.17-36.476-11.69 4.79-2.242 11.952-2.511 18.238-.936 6.391,1.602 10.797,5.611 15.432,7.95 1.82,3.168 5.894,4.083 7.95,7.015 .664.04 1.324.077 1.403-.468 2.292,1.917 4.248,4.17 6.547,6.079-.854-2.735-3.546-7.674-7.482-8.885-.243-.692-.692-1.179-.935-1.871-8.267-5.762-14.73-13.328-29.929-12.158 7.821-3.97 16.442,1.211 23.382,5.144 3.719,2.107 6.221,4.007 9.353,7.015 1.657,1.592 2.807,3.884 5.144,4.209-1.115-3.405-4.973-4.067-5.611-7.95-3.809-2.271-7.75-4.408-10.756-7.482 2.369.749 4.558,1.678 6.547,2.807-.713-2.41-4.933-5.352-7.95-7.015 4.224.455 8.321,5.082 11.691,7.949 4.918,1.474 7.067,5.715 10.756,8.418 .669-1.48-.736-2.804-1.403-3.741-3.652-5.13-10.029-9.177-14.497-13.562h4.208c-2.407-1.43-4.521-3.613-7.014-5.145-2.582-1.584-5.891-1.898-7.95-4.208 5.839.552 8.506,4.277 14.029,5.144-.013.455-.572.363-.936.468 3.778,2.457 7.052,5.418 12.159,6.547 .816,3.081 4.044,3.75 6.079,5.612-.61-3.287-4.977-2.817-5.144-6.548-3.748-2.02-7.021-4.515-11.691-5.611 .145-.635 1.171-.388 1.871-.468 1.018-.766-1.802-.238-1.871-.936-.021-.205.73-.686.935-.467-2.494-2.653-6.334-3.11-9.82-5.145 .343-.833.85-.067 1.403,0-1.073-.513-2.342-2.224-3.741-2.806-2.305-.959-5.744-.095-7.015-2.338 6.403.299 10.591,2.815 16.835,3.273-3.565-4.853-14.694-2.141-19.173-6.079-7.919-.583-16.374-1.712-23.382,2.338 5.604-5.065 15.06-3.802 21.512-7.482h4.676c-2.203-.811-8.535-2.125-9.82.467-6.325-.713-9.199,2.024-14.029,2.806 2.454-2.69 5.473-4.816 10.288-5.144-3.661-2.037-9.511-1.316-13.094,0 2.295,1.361-1.404,2.302-3.741,1.871-.341-1.276.929-.941.935-1.871-3-.039-4.333,1.59-6.079,2.806 .293.954 2.363.131 1.871,1.871-3.464-1.195-6.126-.904-9.821-.468 2.164.643 3.73,1.882 5.144,3.273-1.622.375-1.797-.696-3.273-.467 .66,1.055 3.046.383 2.806,2.338-2.49-.315-3.516-2.095-7.014-1.403 .58,1.446 1.153,2.899 2.338,3.741-.449.879-4.218-1.644-1.871-.468 .062.031-.645.167-.935,0-1.13-.65-1.245-1.522-3.273-2.338-1.102.903 1.102,2.37 0,3.273-.508-.116-.317-.93-.936-.936-1.547,3.286-3.022,6.642-2.806,11.691-1.121-.186.259,2.13-1.403,1.402-.028-4.236.871-7.546 1.871-10.755-.363-2.729-3.619-1.845-2.338-5.144 .307-2.22 1.724,1.4 2.806,1.403 1.761-2.218-1.516-2.632-.935-5.144 1.824,1.225 5.974,3.748 7.95,1.871 .029-2.522-4.384-.604-5.611-1.871 2.086-.268 1.738-.297 0-1.871 .745-.406 5.593,1.551 7.482,0-.953-1.073-3.883-.169-5.612-.468 .73-2.543 5.23-1.317 7.482-2.338-2.314-1.127-2.321-1.942-5.612-2.338 .059-1.033 1.984-.199 2.806-.468-1.015-.7-2.632-.797-4.209-.935 6.437-1.363 14.515,4.068 18.238-1.871-9.305.412-25.044,1.274-23.85-9.82 1.395,5.464 6.5,7.218 11.691,8.885 1.276.34.941-.929 1.871-.936 7.665,1.438 13.976-1.38 18.238-6.079 2.127-2.346 3.474-7.373 5.612-10.756 1.473-2.331 4.162-5.549 1.871-9.353-3.213-2.802-14.272-5.327-17.303-.935 4.18.207 6.072.037 11.691,0 1.542.796 1.951,4.692.935,6.547-.548-.076-.394-.853-.467-1.403 .56,7.224-7.41,8.809-12.159,12.159-.609-1.583 3.297-2.172 3.741-4.209 1.064-.338 2.389-.417 3.273-.935 1.854-1.108 2.777-3.146 4.208-4.677 .56-1.838-1.431-3.515 0-4.676-1.125-.335-2.485-1.668-3.273-.935 2.046,1.644.602,6.454-.468,7.95-1.456-.892.731-2.03.468-3.273-1.525.051.084-1.334-1.403-2.338-.889,2.541-1.116,5.743-2.806,7.482-.329-1.434 1.648-4.576 1.403-7.482-1.981.543-.587,2.961-.936,4.209-.679,2.429-2.305,3.911-4.208,4.676 1.354-2.855 3.863-4.554 3.741-8.885-1.387.795-1.921,2.444-2.338,4.209-2.844.586-3.041,3.818-5.612,4.676-1.461-.754.959-1.48.936-2.338-2.5.665-5.251,1.797-7.015,1.871-.052,2.546 1.348,3.64 1.403,6.079-3.743.47-5.696-.851-6.547-3.273 .435-2.838 3.287-3.26 4.208-5.612 2.99.028 6.311.387 7.015-1.871 .186-1.165-2.921-1.384-3.273-.468-1.136-1.016 1.676-2.038 3.273-1.87-1.111-1.381-2.833.565-4.208.467 .689-1.96 2.889-2.411 5.611-2.338 1.316-1.084.257-2.812 2.338-3.741-2.403-.678-6.351,1.124-8.417,2.338-2.972-.302-7.581,1.033-7.482-2.338 3.396,1.309 5.545,1.364 8.885,0-5.071-1.788-10.046-3.671-13.094-7.482-.509,1.784-2.25-.568-1.871,1.871-3.063-1.527-4.894.99-9.353-.468-.381-1.94 2.883-.234 3.273-1.403-.764-1.891-1.828-1.358-3.273-1.871 .315-2.342-1.249-2.804-2.338-3.741-1.257-.322-.904.967-1.403,1.403-2.218-1.056-.882-5.665-4.208-5.612-1.274.43.653,1.462 0,2.806-1.357-.669-1.329-2.724-2.806-3.273 1.314-1.492 2.925-2.687 5.612-2.806 .257,1.037-.893.666-.935,1.403 1.352.513 4.823-.32 7.015-.468 .48,1.571-1.455.728-2.338.936 1.073,2.2 6.773-.226 7.482,2.338-3.59.108-6.056-1.822-8.885,0 .47,2.079 4.196-.664 5.144.468 .079,1.014-1.659.212-2.338.468 3.191,2.03 7.49.813 9.82,1.871 .213.097-.722.518-.935.467 3.432.811 5.579.389 9.82,1.403-2.37,1.388 1.483.599 1.403,2.338-2.462.28-4.018-.347-6.08-.468 1.76,2.761 7.417,1.624 9.82,3.741-.645,1.8-5.275-2.273-7.482-.467 2.514,1.227 5.464,2.018 7.95,3.273 .074,2.003-1.91-.49-2.806-.468 1.592,3.369 5.516,3.56 9.353,1.871 .334-.147 3.944-1.744 5.144-1.871 4.913-.519 9.577,1.622 14.029,2.806 1.431,1.219.362,4.938 2.806,5.144-.297,1.574-2.277,1.464-1.87,3.741 .479,1.813 3.131-1.449 2.806.936-3.296-.491-4.978.634-5.612,2.806 .961,1.717 2.438.028 4.676.468-1.148,2.125-6.864-.317-6.547,3.273-.281,1.84 3.237-.119 2.806,1.871-1.476.229-1.651-.843-3.273-.468-.284,2.117-.182,2.888-2.338,3.741 1.269,1.849 4.666,1.569 7.015,2.338-2.332,1.097-5.638,1.221-7.482,2.806 1.387,2.733 6.616-1.277 7.015,2.338-7.388-.91-11.949,2.798-17.303,4.676-1.276.448-3.051-.495-3.741,1.403 2.138,1.74 6.638-1.605 8.885-2.806 6.71-.736 13.62-1.48 20.109,0-.248.376-.488.759-.468,1.403 4.738-.269 11.421-.258 15.9.935-1.953,1.612-7.271-.542-9.821,1.403 2.131,1.61 6.035,1.447 9.821,1.403 2.184.032-.548,1.069-.468,1.871 2.341-.159 3.271,1.094 5.612.935 .443,1.69-1.842.652-2.806.936 .563,3.022 5.125,2.045 7.482,3.273 .079,1.014-1.659.212-2.338.467 3.773,1.994 7.785,3.75 11.691,5.612-2.137.722-5.782-1.068-7.482-2.338-.694.398-1.005,1.177-.936,2.338 .407,1.36.7.526 1.871.468 6.471,8.182 18.27,11.035 22.447,21.512-4.927-5.203-9.443-10.819-15.898-14.496zm-38.346-24.317c-2.141-.562-5.457-.807-7.015.468 2.799-.034 4.611.593 7.015-.468zm-43.023,14.029c1.242-.161 1.578-1.228 1.871-2.338-1.733-.272-2.894,1.26-1.871,2.338zm-9.821-58.455c-.364-.104-.543-.392-.467-.936-.805-.025-1.199.36-1.403.936 .87-.447 1.562,1.4 1.87,0zm-9.82-6.08h.936v-.935h-.936v.935zm4.676,1.403c-.227-.552-.499-1.06-.935-1.403-.072.626.734,2.579.935,1.403zm7.482,6.08c-.375,1.622.696,1.797.468,3.273 1.098-.149 1.755-.739 3.273-.468 .386-1.322-.659-1.211-.468-2.338 .287.137 1.8,1.164 1.871,0-2.543-.423-2.192.402-5.144-.467zm5.612.935c.679-.256 2.417.546 2.338-.468-.699-.741-1.913-.344-2.338.468zm6.079,2.806c-.598-.026-.647-.6-1.403-.468-.727,1.151 1.589,1.375 1.403.468zm17.771,9.353c1.143-.26 1.708-1.097 2.338-1.871h-1.871c.036.814-.104,1.455-.467,1.871zm-2.806,5.144h.935v-.935h-.935v.935zm-11.224,7.95c.356-.92 1.136,1.626 2.338,1.403-.577-1.138-.395-3.035-1.871-3.273 .62,1.171-2.177,1.135-.467,1.87zm22.915,7.482c1.16.069 2.269.087 2.338-.935-.884.207-2.818-.636-2.338.935zm-3.741,2.806c.726-.677 2.182-.624 2.806-1.403-1.523-.394-3.533,1.094-2.806,1.403zm-.468,2.806c1.89-.604 4.282-.707 5.612-1.871-2.581-.086-4.259.729-5.612,1.871zm-13.094,3.741c-2.405,1.13 1.61,1.208 0,0zm0,4.208c-.68.256-2.417-.546-2.338.468 .68-.256 2.417.546 2.338-.468zm38.347,4.209c.688-1.779-2.091-.092-1.403-1.871 4.315-.723 7.768,1.889 11.224.468-4.031-.378-9.115-2.577-12.159,0-.884.095-4.621-.315-3.273.468 2.272-.091 4.47-.106 5.611.935zm-48.635,1.403c.749-1.302-2.02-1.293-1.871-.468 .633.148.894.666 1.871.468zm61.261.468c-1.632.05-4.288-1.293-5.144-.468 1.235.347 3.87,1.711 5.144.468zm.935,5.612c-.824-.039 2.33,2.272 2.806.935-1.369.122-1.437-1.057-2.806-.935zm6.08,2.338c-3.479-2.095-2.344.812 0,0zm3.273,2.806c-2.709-1.349-1.23,1.154 0,0zm-.467,8.885c-1.428-.154-3.293-2.287-4.677-.936 1.443.14 3.043,2.538 4.677.936zm6.547,6.08c-.845-1.661-3.12-4.348-5.144-3.274 1.769.736 3.918,3.547 5.144,3.274zm-2.807,7.013c-.857-1.803-3.929-3.851-5.144-3.74 1.607,1.356 3.312,2.611 5.144,3.74zm8.886-.466c1.7.287 1.736.379 3.273,1.402-.656-1.993-1.955-3.345-3.273-4.676-1.299,1.203 2.431,2.197 0,3.274zm-9.353,2.337c.079-1.171-.719-1.464-1.403-1.871-.132,1.224.171,2.012 1.403,1.871zm6.547,5.612c-1.139-1.212-3.044-4.109-4.676-3.273 1.899.451 2.719,4.433 4.676,3.273zm-10.288,5.612c-1.507-3.797-5.501-7.589-8.885-7.95 3.193,2.109 5.661,7.429 8.885,7.95zm5.612-2.339c1.576.942 2.9,2.828 4.208,4.677 1.105,1.561 1.926,4.557 3.741,4.209-2.051-5.275-5.781-8.872-8.417-13.562-.871.447-1.563-1.4-1.871,0 .897,1.442 2.49,2.187 2.339,4.676zm7.482-1.87c-.032-1.371-1.069-1.737-1.871-2.338 .032,1.371 1.069,1.736 1.871,2.338zm-11.223,1.87c-1.133-.146-2.068-2.878-2.806-1.87 .927.351 2.083,2.862 2.806,1.87zm12.158,2.807c-.614-.664-2.062-2.885-2.806-1.871 1.127.152 1.55,3.396 2.806,1.871zm-2.338,13.561c-.709-2.871-2.67-5.257-4.208-7.482-1.652-2.39-3.539-4.577-5.612-6.547 2.801,5.147 4.871,11.028 9.82,14.029zm-.935-3.741c-.209-1.631-3.515-8.626-6.08-10.288 1.433,4.023 4.504,6.408 6.08,10.288zm5.611,8.417c-.663-3.078-1.377-6.104-2.338-8.885-.814.035-1.455-.104-1.871-.468 1.292,3.23 1.465,7.577 4.209,9.353zm1.871.936c-.375,1.599.697,2.67.468.468 .071-3.5.046-6.904-2.338-7.95 .439,2.677 1.37,4.863 1.87,7.482zm3.273.467c-.618-.006-.427-.82-.935-.936-.536.961.734,2.23.935.936zm.936,5.144c-1.079.144-.52-1.351-1.403-1.402-.496,1.185.984,2.665 1.403,1.402zm-1.871,2.807c-.064-.871-.308-1.563-.936-1.871-.13,1.066.113,1.757.936,1.871zm.468,3.273c1.437.715 1.437-3.054 0-2.339v2.339zm4.208,3.273c-.038-1.521-.598-2.52-1.871-2.807-.561,1.314-.268,2.982 1.871,2.807zm2.339,3.742c-.054-1.193-.088-2.406-1.403-2.339-.092,1.339-.058,2.553 1.403,2.339zm-3.274.934c.019-1.422.272-3.077-1.403-2.806-.019,1.422-.271,3.079 1.403,2.806zm1.871,2.339c.13-1.066-.113-1.759-.936-1.871 .107.829-.471,2.342.936,1.871zm-1.871,19.173c-.283-.964.754-3.249-.936-2.806-.258,1.031-.686,2.58.936,2.806zm-1.403.468c-.227-.553-.499-1.061-.935-1.403-.072.625.735,2.578.935,1.403zm.936,2.805c-2.996-.54-1.027,1.429 0,0zm11.223,6.08c2.979-1.886 5.828,1.534 7.95-1.402 1.414.768 2.515,1.85 5.144,1.402 2.299-2.045-.579-2.939.935-4.208 1.081.478.968,2.149.936,3.74 2.576.238 3.908-.768 3.741-3.273-3.288.221-8.115-3.555-10.288,0-1.26-.399-3.186-1.537-3.741,0 .059-1.617-2.435-.683-2.806-1.87-.476,2.018-.907,4.08-1.871,5.611zm0-1.403c1.204-4.165-1.814-3.79-4.209-1.871 1.461.755-.959,1.481-.936,2.339 1.366,1.82 3.743.337 5.145-.468zm19.173,1.403c2.572-.233 4.3-1.312 4.209-4.208-2.647-1.536-4.333,1.461-4.209,4.208zm-28.994,0c1.785.227 2.985-.133 3.741-.935 .298-1.956-1.749-1.852 0-2.807-.287-.137-1.8-1.163-1.871,0 .448.479-2.078,1.951-1.87,3.742zm33.203-.468c2.167,1.46 4.324-.49 5.612-1.402 .191,1.127-.854,1.017-.468,2.338 2.143-.352 4.565-.423 5.612-1.87-.085,1.02.383,1.487 1.402,1.402 1.916.046 2.125-1.616 2.807-2.806-2.472-1.336-7.715-1.466-9.353.468 .625-2.496-2.74-1.001-4.209-1.403 .118,1.677-1.404,1.713-1.403,3.273zm14.497.935c2.168.143 4.048-.004 5.144-.936v-2.338c-2.916-1.525-4.843.759-5.144,3.274zm10.756.936h2.806c.392-1.011 1.211-1.595.936-3.273-.886-.83-3.089-.341-4.677-.468-.227,1.785.132,2.985.935,3.741zm4.208.468c3.726,1.333 4.438.05 8.418.936 .793-.922 2.356-1.073 1.87-3.274-.603-.644-2.031-.462-3.273-.467-.732.67-.368,2.438-1.87,2.338 .64-.598.64-2.208 0-2.806-.903-.549-2.37.429-3.273-.936 1.329,2.229-2.997.854-1.872,4.209zm-8.885-3.274c-.122,1.524.555,2.25 1.87,2.338 .27-.978 1.16-1.335.936-2.806-1.152-.061-2.253-.071-2.806.468zm19.173,4.676c1.873-.31 4.07-.294 5.612-.935v-2.807c-3.217-1.584-5.148,1.126-5.612,3.742zm7.015-1.402c1.198-.361 2.651-.467 3.273-1.403-.614-.477-1.724-.458-2.338-.936-.476.615-.458,1.724-.935,2.339zm-105.687,1.402c2.057-.593 4.374-.926 5.144-2.806-3.159-.509-4.455.845-5.144,2.806zm43.491-1.402c1.727.995 6.68.101 4.208-1.403-.562,1.308-3.359.381-4.208,1.403zm16.367-1.404c-2.995-.54-1.027,1.429 0,0zm50.505,3.274c2.905.1 5.72.108 5.611-2.806-3.141-.615-5.311-.403-5.611,2.806zm5.612,0c3.012.361 4.576-.724 5.612-2.338-2.108-2.292-5.342-.052-5.612,2.338zm5.144,0c1.721.65 5.604,1.039 5.611-1.402-1.014-2.369-5.298-.957-5.611,1.402zm6.547.468c.663-.853 1.97.18 4.209,0 .145-1.103 1.624-.87 1.402-2.338-1.975-.416-2.641.477-3.273,1.402-.826-.692.879-2.417-1.402-2.338-.694.436-2.295,2.332-.936,3.274zm49.57-.936c1.778,1.545 2.686-.776 4.208-.935 .684.628 3.704.956 3.741-.468-1.459-1.055-6.757-.607-7.949,1.403zm14.03,0c4.23-.948 5.206.263 7.949-1.402 1.121-.186-.259,2.13 1.403,1.402 2.57-1.621 6.203,2.606 7.015-1.402-6.268-.523-11.416.432-16.367-.936v2.338zm-83.708-.467c1.313.479 3.252-.729 1.87-1.403-.127.964-2.07.111-1.87,1.403zm41.62-.935c-1.352-.102-2.083-.703-3.273-.468-.858.17-1.089.879-1.871.936-2.062.147-4.593-1.448-6.079.468-.942-1.91-4.604-1.609-4.209,1.402 4.4-1.054 6.047.744 9.354-1.402v1.402c2.051.492 1.535-1.581 3.273-1.402-.085,1.02.383,1.487 1.402,1.402 2.784-1.772 6.862,1.681 9.354-1.402 1.056.262-.567.729.467,1.402 2.177.15 4.203.15 4.677-1.402 .317,1.396 3.102,2.153 3.273,0-3.91-1.87-11.184-.549-16.368-.936zm36.943.935c1.392,1.157 3.712.249 3.741-1.403-1.029.685-3.485-.056-3.741,1.403zm-19.173,1.403c2.623.753 2.575-1.165 4.208-1.402 .884,1.755 5.129,1.048 5.145-.936-3.419.477-8.858-1.065-9.353,2.338zm41.621-1.403c.989,1.444 4.28.875 4.676-.936-1.622.25-4.436-.694-4.676.936zm9.352-.935h-4.209c-.048,2.048 4.119,1.725 4.209,0zm3.273,0h-2.338c-.456,1.882 2.795,1.882 2.338,0zm2.338,0c-.364.103-.543.392-.468.936 .461,1.921 3.162-.075 4.677,0-.34-.018.904.812 1.403.935 2.14.525 3.524-.835 5.144.468 2.051.492 1.536-1.581 3.273-1.402-.085,1.02.383,1.487 1.403,1.402 6.804.524 15.267,1.878 21.979.936-11.429-1.605-23.834-3.297-37.411-3.275z" fill-rule="evenodd"></path>
	<path d="m117.378,217.928c7.88.317 17.394-.256 26.655,0 .347,1.68 2.117,1.937 3.741,2.338-4.328,1.675-10.741-.971-16.368.936 .521-1.861 2.869-.745 4.209-.936 1.989-.281 4.329-1.415 6.547-.935-9.464-1.448-22.164,1.368-29.461,5.144 2.61.73 6.306-1.481 9.353-1.87-.047,1.199-1.743.751-2.338,1.402 .442,1.652.322,2.561 0,3.741 4.487-1.904 9.798-2.983 14.497-4.676-3.455-.643-7.761,1.898-11.224,2.806 4.17-3.156 10.186-4.467 17.771-4.209-7.787,4.061-17.796,5.897-26.188,9.353-1.572-1.253-1.949-1.245-4.208-1.87-3.539-.979-6.162,4.062-8.885,2.806 .526-.877 1.812-.993 2.338-1.87-1.21-1.33-2.999.716-4.208.935-1.099-.006.171-1.275.935-.935 2.02-.876.377-2.507 2.806-2.807-3.151-.805-5.348,3.377-8.885,3.741-1.301-.882 1.01-2.07 2.338-1.87-2.956-3.052-9.501,1.381-13.562-.936-1.426.912-3.19,1.485-5.144,1.871-2.62-2.081-5.106-2.062-8.417-1.871-.228-1.942 2.696-.733 2.806-2.338-.468-3.521-5.129-1.023-6.547,0 .177-3.097 3.684-2.864 5.612-4.209v-1.87c.068-1.315-1.145-1.35-2.338-1.403 1.624-1.65 3.242-3.306 6.547-3.273 3.112-1.541 8.93-6.416 11.691-1.403 4.459-1.152 6.374-4.85 12.159-4.676-1.792,1.975-6.294,1.752-7.95,4.209 7.703-.336 16.039-5.214 25.72-3.741-3.321,1.512-8.792.873-12.626,1.87-.548.075-.395.853-.468,1.403-2.417.545-5.847.076-7.95.935 1.148-.249 1.872,1.978 3.741,2.339 4.164-1.09 9.129-3.505 13.562-2.806-3.299,1.688-7.742,2.233-11.691,3.273 5.868,1.032 11.998-1.718 17.77-2.339-3.414,2.666-8.93,3.229-13.094,5.145 4.208.366 8.713-1.256 13.094-2.806 1.711-.606 3.412-2.024 5.144-2.339 4.945-.896 9.14,1.007 14.497,1.403-1.643,1.72-4.049-.322-6.547-.468-5.277-.306-11.088,1.819-15.434,2.806zm-43.491,8.886h-1.403c-.687,1.363 2.091,1.363 1.403,0zm4.676-10.288c2.77-.659 6.091-.768 7.015-3.273-2.244-1.655-6.972-.117-7.015,3.273zm7.483-1.403c-.023,2.103 5.178,1.976 5.144,0 1.725.146 2.034,1.707 2.806,2.806 1.885.015 3.607-.134 4.209-1.402-4.55-1.899-7.6-2.232-12.159-1.404zm-13.562,4.676c2.22-.586 5.167-.445 5.144-3.273-2.918-.113-4.133,1.478-5.144,3.273zm14.497-2.339c-.486-.493-3.339-.966-3.741,0 .486.495 3.339.966 3.741,0zm1.871.936c4.305,2.755 7.439,3.909 13.094,2.338 2.285-.635 3.921-1.976 5.611-3.273-5.721.459-9.201.318-13.562,1.871-.614-1.778-3.683-2.579-5.143-.936zm-15.433,2.806c.55.073 1.328-.08 1.403.468-1.387.172-2.307.811-2.806,1.871 .804-.025 1.199.359 1.403.935 1.942-.396 2.292-2.385 4.676-2.338 1.798,1.19 6.694,1.476 8.417,0-1.029-1.755.953-1.02 0-2.338-2.272,2.338-7.326.084-10.288.935 1.955-1.549 5.93-1.141 7.95-1.402-3.02-3.269-8.06.479-10.755,1.869zm37.879-.468c.363.105.922.014.936.468-2.636-.747-3.805,2.406-5.612.936 .844-.283 3.634-.993 2.806-1.403-1.355,1.14-5.5-.513-6.079,1.403 1.04.363 2.536.27 2.806,1.403-.667.111-.789.77-1.403.935-1.114-.601-1.888-1.541-2.806-2.338-.835.567-2.721.085-3.274.936 1.376.494 3.098.643 4.209,1.402 .08.634-2.707.606-.935,1.403 1.372-.759 8.019.604 5.611-1.871 4.71-.619 8.404-2.447 11.691-3.741 1.336-.525 3.134-.441 3.741-1.87-3.976.702-11.19,2.197-11.691,2.337zm-20.108-.468c-1.673.092-2.966-2.614-4.677-.935 1.198.385 3.37,2.211 4.677.935zm-15.9,4.209c-.32,2.347 1.125,2.929 2.806,3.273 .901-.189.37-1.812 1.871-1.402 4.562,1.006 8.333,1.625 13.094,0 1.385.329 2.036,1.393 4.208.935 .58-1.135 1.843-1.586 2.338-2.806-.769-.789-2.537-.58-3.273-1.402-.484,2.144 2.542,2.18.467,3.273-3.853-6.585-13.46-1.554-21.511-1.871zm33.67,2.339c3.118,1.15 5.319,1.536 9.353.935 .519-.884.597-2.209.936-3.273-2.628,1.581-8.697-.279-10.289,2.338zm-5.144,1.87c1.473-.554 3.527-.525 4.677-1.403-1.923.104-4.431-.378-4.677,1.403z" fill-rule="evenodd"></path>
	<path d="m43.023,52.851c2.622,2.834 5.412,5.5 5.144,11.224-2.087-2.132-1.014,5.851-4.677,5.144 .139-2.512 2.809-2.491 2.338-5.612-2.229.58-7.205,2.496-8.885-1.403-4.789,3.367 2.32,10.072 1.871,12.626-.253,1.441-1.681,3.023-3.273,2.806-5.427-.739-.409-13.473-.468-18.706 2.121-2.555 5.545-3.807 7.95-6.079zm-1.403,6.547c.978-1.211.523-3.986-1.403-3.741-1.157,1.391-.249,3.712 1.403,3.741zm4.209-.935c.222-1.469-.583-1.911-1.403-2.338 .156,1.09.479,2.014 1.403,2.338zm-2.339-.468c.025-.805-.36-1.199-.935-1.403-.025.805.36,1.199.935,1.403zm-8.885,17.771c1.678.275 2.262-.543 3.273-.936-1.343-1.619-1.511-4.412-3.273-5.611-.878,1.457-.542,5.025 0,6.547z" fill-rule="evenodd"></path>
	<path d="m62.664,66.413c1.562.776 3.583,1.094 5.144,1.871-1.281.791-4.233-.741-5.144-1.871z" fill-rule="evenodd"></path>
	<path d="m99.607,69.686c1.6-.197 1.405,1.401 2.338,1.871 .532,8.014-4.696,10.269-8.418,14.029 .248.376.488.759.468,1.403-1.309,1.341-3.136,2.165-4.676,3.273-.811-.994 1.756-2.588 3.273-2.806 .172-.795-.365-.882-.935-.936 4.048-4.23 11.108-8.246 7.95-16.834z" fill-rule="evenodd"></path>
	<path d="m57.987,79.039c3.803,1.03 4.588,5.076 9.353,5.144 .432,1.75 3.188,1.176 2.806,3.741 3.798,1.441 6.343,3.912 11.223,3.273 3.657-.479 5.106-4.031 8.885-4.677-.522,2.283-3.557,2.055-4.676,3.741 .145.635 1.171.388 1.871.468-.396,1.006-1.152,1.654-2.806,1.403 .013.455.572.363.935.468-5.527,2.812-19.148,4.218-18.238-5.612-1.17-.545-1.799-1.631-3.741-1.403-.057-3.995-4.679-3.426-5.612-6.546zm16.368,12.627c-6.068.314 1.622.459 0,0zm1.87,1.402c.553-.227 1.061-.499 1.403-.936-.625-.071-2.578.736-1.403.936z" fill-rule="evenodd"></path>
	<path d="m55.649,83.248c3.108-.918 5.064,3.348 6.08,6.08-2.074-1.98-3.108-4.999-6.08-6.08z" fill-rule="evenodd"></path>
	<path d="m53.311,93.068c1.507.062 3.617,3.545 3.741,6.547 1.682.279 2.637-.168 2.806-1.403 .627.308.871,1 .935,1.871 1.49-1.22-1.373-2.026-.467-4.209 .575-.204.96-.598.935-1.403 1.897,1.383 3.103,5.928 2.806,7.95-1.522-.036-.998-2.119-1.403-3.273-1.206.642-.104,2.865 0,3.741-1.037.257-.666-.893-1.403-.935-1.726,1.456 1.091,2.307.936,3.741-1.497-.062-2.058-1.06-1.871-2.806-1.571-.48-.728,1.455-.936,2.338-1.844.129-.135-3.294-1.403-3.741-.397,2.229.028,6.996.468,8.417-3.12-1.202-1.554-5.723-2.338-10.288-.51-2.967-2.342-4.492-2.806-6.547z" fill-rule="evenodd"></path>
	<path d="m74.822,150.588c-2.282-1.332-4.499,1.413-6.079,2.338 .438-2.057 3.333-1.654 3.741-3.741-.847-1.116-3.662-.264-4.677,0 .256,4.153-1.985,5.809-2.806,8.886-1.524-.77.855-2.538-.468-3.274-1.466-.219-1.318,1.177-1.871,1.871-.364-1.039-1.552-1.254-1.403-2.806-2.475-.137-3.865.812-6.079.935-.268-2.294 3.566-.486 3.741-2.338-1.202-1.809-2.806-.873-5.144-.936 .166-.614.824-.735.936-1.402-1.026-1-4.136.083-4.209-1.871 4.922-.89 8.85,2.899 12.626,4.677 1.466-.093.059-3.06 1.871-2.806 .395,1.664-1.354,2.802.468,3.273 1.418-1.388.559-5.053 3.273-5.145-1.225-.287-3.098-1.186-4.209-2.806-2.081-.366-2.807.623-4.676.468 .395-1.008 2.051-.755 2.806-1.403-2.983-1.225-3.611-4.806-6.079-6.547-.105,2.444.008,4.669.468,6.547-2.852.354-7.959.357-10.756,0 .266,1.605 2.118,1.624 2.806,2.807 1.548,5.554-3.66,7.685-5.144,11.69-2.992,1.997-4.592,5.385-7.015,7.95-2.824.605-4.017,2.842-5.612,4.677v2.806c-1.609,2.131-3.515,3.967-6.547,4.676-.719-2.554-1.269-5.278-3.741-6.079-1.941-4.918-3.938-9.778-5.144-15.432-4.541-.265-2.853-4.44-1.871-7.482-2.502-.622-5.626,2.16-7.95,3.273 .887-5.448 2.127-14.278 3.741-22.915 .602-3.221.523-6.782 1.403-9.82 .378-1.306 1.424-2.384 1.871-3.741 1.197-3.636 2.928-11.565 8.417-10.756 2.344.345 2.6,2.818 4.209,4.676-3.131.326-2.755-2.857-4.677-3.741-9.566,5.486-9.592,21.619-11.691,35.541-.457,3.031-2.421,5.573-1.403,8.418 3.134-1.575 7.425-2.103 8.417-5.612 .308-1.089-.149-5.125 0-7.949 .287-5.43-.829-12.979 0-18.706 .179-1.239-.003-3.545 1.871-3.741 1.134,1.271-.83,2.28-.935,3.741 .204,7.985.319,13.003 0,21.512 1.052-.974 1.336-2.717 2.338-3.741-.034-1.427-1.237-3.468-1.403-5.612-.103-1.323-.71-4.167.936-4.676-.175,2.824.132,5.168.467,7.482 3.808-2.272 2.783-9.376 7.015-11.224-4.703,10.417-9.46,20.78-12.626,32.734 .383,1.177 2.466.652 3.274,1.403 .959,8.55 4.487,14.53 8.417,20.108 1.375,1.142 1.769-1.693 3.741-1.402v-3.741c4.197-5.06 12.302-11.469 16.835-17.303 2.05-2.639 1.875-7.479-1.403-9.354 2.782-5.47-3.734-14.329 2.806-16.835 .913.653 1.96,2.579.935,3.741-1.095-.152-.454-2.04-1.403-2.338-3.774,3.128.462,7.5-.467,13.094 2.125.394 6.383,2.467 9.353,0-1.255-2.174.112-6.971-2.338-7.95 1.413-6.196-4.969-8.357-5.144-14.497-2.595-.969-6.201-.527-7.95-3.273 .922,3.623.922,6.198 0,9.821 2.093.534 1.237-1.882 1.871-2.807 2.157,1.164.393,4.982-2.338,4.209-1.504-3.957 1.561-11.583-3.741-13.562-.047-2.758-1.815-3.796-3.273-5.144-1.996.498-1.807,3.181-3.273,4.209-2.936,1.427-5.34-.598-7.482-1.403 .749-2.074 4.282.536 5.611.935 2.873-.557 1.877-4.982 5.144-5.144 4.965,3.796 7.865,10.978 15.9,10.288 .901,5.022 3.277,8.569 7.015,10.756-.701,1.546-1.144-.972-2.338-.468 1.484,4.704 4.215,9.474 7.95,13.094 1.699,1.647 2.029,1.471 4.208,2.339 .958.381 1.697,3.362 3.273,1.402 .548.075.395.853.468,1.403h4.677c-.166.614-.824.735-.936,1.402 2.667.641 2.826-1.227 5.144-.935-.237,1.478-2.671.758-3.273,1.87 .906,2.198 4.259-.623 6.079.936-1.154,1.808-3.878,2.045-5.144,3.741-.548-.076-.394-.853-.467-1.403-2.719,1.49-5.014,3.404-7.482,5.145 1.265-3.253 5.168-3.87 6.545-7.013zm2.339.468c1.066.13 1.758-.113 1.871-.936-.872.065-1.564.308-1.871.936z" fill-rule="evenodd"></path>
	<path d="m137.954,112.709c1.691-.747 6.936,1.352 9.353,2.806-2.884.693-6.342-2.07-9.353-2.806z" fill-rule="evenodd"></path>
	<path d="m92.125,116.918c.494-2.337 8.056-4.109 14.029-3.741 .235.015 3.439-.133 1.403.468h-2.338c-3.414.607-9.431,1.482-13.094,3.273z" fill-rule="evenodd"></path>
	<path d="m144.501,119.256c3.842.681 8.394,4.697 10.288,8.885-3.518-2.873-5.796-6.986-10.288-8.885z" fill-rule="evenodd"></path>
	<path d="m99.14,120.659c-.17-1.982 2.026-.41 2.806-.468-.811.798-1.226-.073-2.806.468z" fill-rule="evenodd"></path>
	<path d="m119.249,120.659c-7.385.547-15.146.713-21.044,2.806 5.187-2.565 13.758-5.279 21.044-2.806z" fill-rule="evenodd"></path>
	<path d="m128.133,120.191c-.84-.738 4.022.131 3.741,1.871-.966-.904-2.601-1.14-3.741-1.871z" fill-rule="evenodd"></path>
	<path d="m122.054,160.876c4.223,2.015 9.932,6.59 12.626,11.69 1.798-.411-.083-1.878 0-3.273 1.503-.411.641,1.542 1.871,1.403-2.528-5.89-7.375-9.46-10.755-14.497 4.571,2.127 7.819,5.94 10.755,10.288 1.943,2.876 3.678,5.876 5.144,10.288 1.255,3.773 4.72,6.489 5.612,10.288-5-3.417-6.274-10.561-11.691-13.562 1.375,1.275 2.565,2.735 3.273,4.677-5.863-3.816-9.492-7.894-15.9-11.691 .401-1.492-.736-1.446-.935-2.338-.453,3.217-3.804-3.148-5.612-4.677 .379.089.466.47.936.468-1.882-3.886-5.233-6.302-8.885-8.418-1.268.424.394,1.722.935,1.871-1.982.257-4.915-2.56-6.079-4.677-3.441-1.547-6.024-3.952-9.821-5.144-.692.243-1.178.691-1.87.935-.104,9.095-6.188,12.206-12.159,15.433 1.147-2.906 4.112-3.994 6.547-5.611-2.629-.905-4.841,2.634-7.015,3.741 1.102-5.134 8.718-3.753 10.756-7.95 .528-1.656-1.966-2.661-.468-3.741-.145-.988-1.624.491-1.403,1.402-.485-2.985 4.113-4.923 7.015-6.079-.152-.996-2.04.075-2.338.468-.795-2.055 3.951-2.586 7.015-2.338-.248.376-.488.759-.468,1.402 1.625-.164 4.146.008 2.806,1.403 6.267-.812 9.462,1.449 13.562,2.806 .854-.291-.808-1.953-1.871-1.87 6.163,1.476 12.377,6.95 16.367,12.158-4.199-4.513-16.48-10.279-23.85-11.69-1.111-.213-6.394-1.995-4.208,0-.803,1.221-2.604-.478-2.338-1.871-2.064-.193-3.614.127-4.676.936 3.895,1.103 9.083,3.674 11.691,7.482 4.495-.754 5.155,2.326 7.482,3.741 .408-2.631-3.121-3.261-5.144-4.677-2.229-1.561-4.151-3.921-6.547-4.677 8.269,1.38 14.118,7.327 20.576,12.627-2.616-.041-5.007-4.341-7.95-5.612 2.113,2.79 2.66,6.743 4.676,9.354 2.122,2.746 5.263,4.449 8.417,6.079-1.276-2.932-3.941-4.476-6.079-6.547zm11.223,10.289c-1.327-1.479-2.665-2.947-4.676-3.741 .591,1.914 3.272,4.194 4.676,3.741zm3.742.467c1.646,3.365-.694-1.419 0,0z" fill-rule="evenodd"></path>
	<path d="m121.586,154.796c-1.576,1.088-2.603-2.369-4.208-2.806 1.133-.643 2.851,2.122 4.208,2.806z" fill-rule="evenodd"></path>
	<path d="m160.401,148.717c1.297.117 3.944,2.906 4.208,5.612-2.103-1.17-2.493-4.053-4.208-5.612z" fill-rule="evenodd"></path>
	<path d="m76.693,157.135c-5.961.897-7.321,6.396-10.756,9.82-1.449-2.331 3.908-2.444 1.871-5.611 2.481-2.04 4.694-4.348 8.417-5.145 2.323-1.729 3.845-4.261 7.015-5.144-1.226,3.226-4.289,2.235-5.611,5.144-1.394,3.065.677,8.061-2.806,9.353 .87-.699 1.596-5.565 1.87-8.417z" fill-rule="evenodd"></path>
	<path d="m108.025,159.473c.377.402 1.281.278 1.403.936-1.203-2.231-4.097-6.811-7.015-8.886 3.614.6 6.897,5.571 8.885,9.354 1.082,1.724 3.315,2.296 4.209,4.208 9.526,4.036 14.658,12.466 23.85,16.836 2.628,4.074 5.631,7.774 8.417,11.69-.978.198-1.238-.32-1.871-.468-.253,1.656 1.656,1.15 1.403,2.807-5.445-3.908-8.958-9.748-16.367-11.691 6.633-.863 9.927,5.659 14.497,8.417-8.126-15.412-26.189-20.886-37.411-33.203z" fill-rule="evenodd"></path>
	<path d="m110.363,154.796c3.342,2.894 5.287,7.184 8.885,9.821-1.583.059-3.644-2.493-5.145-4.209-1.603-1.832-3.683-4.077-3.74-5.612z" fill-rule="evenodd"></path>
	<path d="m74.355,159.941c1.271,1.15-1.473,2.242-1.871,3.273-.977-.857 1.656-2.058 1.871-3.273z" fill-rule="evenodd"></path>
	<path d="m102.881,160.409c2.5-.776 5.033,2.441 7.482,3.273-2.454.73-4.617-2.857-7.482-3.273z" fill-rule="evenodd"></path>
	<path d="m111.298,186.128c1.396,1.41 4.273,1.339 5.144,3.273-2.062-.742-4.142-1.468-5.144-3.273z" fill-rule="evenodd"></path>
	<path d="m131.407,189.402c5.258.356 9.926,5.349 14.029,8.418-3.957-1.657-9.058-6.216-14.029-8.418z" fill-rule="evenodd"></path>
	<path d="m122.989,191.273c1.571-2.247 4.282.854 6.547,1.87 2.398,1.077 5.535,1.578 7.482,2.807 .93.586 5.341,3.885 3.741,4.676 .343-1.107-1.893-1.55-3.273-2.338-4.052-2.314-9.076-5.065-14.497-7.015z" fill-rule="evenodd"></path>
	<path d="m127.666,198.288c2.237-1.557 6.765,2.121 9.82,2.806-2.234-.112-7.086-1.638-9.82-2.806z" fill-rule="evenodd"></path>
	<path d="m104.751,202.963c-3.783-1.193 3.092.813 0,0z" fill-rule="evenodd"></path>
	<path d="m148.242,205.302c2.831,2.157 3.674,6.302 6.079,8.885-2.106-1.017-4.3-5.982-6.079-8.885z" fill-rule="evenodd"></path>
	<path d="m157.595,216.526c.005,2.04-1.715,6.384-2.806,8.885-.638-2.673 1.744-6.356 2.806-8.885z" fill-rule="evenodd"></path>
	<path d="m128.601,231.958c-3.234-.678-5.182-.896-7.95,0 .171-2.323 3.897-1.091 5.144-2.338 .795-.172.882.364.935.936 4.42-.755 4.665-1.521 1.871,1.402z" fill-rule="evenodd"></path>
	<path d="m30.864,85.118c-.982.957.778,4.032-2.338,3.741 .201-1.916-.433-2.996-.935-4.208-4.64.161-7.083-1.14-8.885-4.677h2.338c.687,2.948 5.097,3.971 8.418,2.806 1.422,1.072 2.339,2.648 3.741,3.741 1.663.728.282-1.588 1.403-1.403 1.571-.48.728,1.455.935,2.338 .309,1.406 1.797,1.632 1.403,3.741-1.086-.316-1.252-1.554-2.338-1.871-1.75,1.655 1.578,4.059 0,5.612-.628-.308-.871-1-.936-1.871-1.05.196-.013,2.481-.935,2.806-1.625-2.028 1.307-4.679 0-6.547-1.768.571-.728,3.948-2.806,4.208 .799-2.279 1.5-6.219.935-8.416zm2.338,3.741c.025-.804-.36-1.199-.935-1.403-.025.805.36,1.199.935,1.403z" fill-rule="evenodd"></path>

</svg>
