<?xml version="1.0" encoding="utf-8" standalone="no"?>
<!DOCTYPE svg PUBLIC "-//W3C//DTD SVG 1.1//EN"
  "http://www.w3.org/Graphics/SVG/1.1/DTD/svg11.dtd">
<!-- Created with matplotlib (http://matplotlib.org/) -->
<svg height="504pt" version="1.1" viewBox="0 0 504 504" width="504pt" xmlns="http://www.w3.org/2000/svg" xmlns:xlink="http://www.w3.org/1999/xlink">
 <defs>
  <style type="text/css">
*{stroke-linecap:butt;stroke-linejoin:round;}
  </style>
 </defs>
 <g id="figure_1">
  <g id="patch_1">
   <path d="M 0 504 
L 504 504 
L 504 0 
L 0 0 
z
" style="fill:none;"/>
  </g>
  <g id="axes_1">
   <g id="patch_2">
    <path d="M 63 441 
L 453.6 441 
L 453.6 60.48 
L 63 60.48 
z
" style="fill:none;"/>
   </g>
   <g id="patch_3">
    <path clip-path="url(#p6cb0b14ed2)" d="M 63 220.772165 
L 64.962814 223.984014 
L 66.925628 227.148869 
L 68.888442 230.260469 
L 70.851256 233.312504 
L 72.81407 236.298633 
L 74.776884 239.212503 
L 76.739698 242.047767 
L 78.702513 244.798103 
L 80.665327 247.457239 
L 82.628141 250.01897 
L 84.590955 252.477187 
L 86.553769 254.825898 
L 88.516583 257.059256 
L 90.479397 259.171588 
L 92.442211 261.157428 
L 94.405025 263.011546 
L 96.367839 264.728988 
L 98.330653 266.305109 
L 100.293467 267.735623 
L 102.256281 269.016638 
L 104.219095 270.144709 
L 106.18191 271.116882 
L 108.144724 271.930748 
L 110.107538 272.584489 
L 112.070352 273.07693 
L 114.033166 273.407583 
L 115.99598 273.57669 
L 117.958794 273.585258 
L 119.921608 273.435081 
L 121.884422 273.12876 
L 123.847236 272.669698 
L 125.81005 272.062095 
L 127.772864 271.310911 
L 129.735678 270.421833 
L 131.698492 269.401209 
L 133.661307 268.255982 
L 135.624121 266.993611 
L 137.586935 265.621979 
L 139.549749 264.149301 
L 141.512563 262.584031 
L 143.475377 260.934763 
L 145.438191 259.210144 
L 147.401005 257.418788 
L 149.363819 255.569197 
L 151.326633 253.66969 
L 153.289447 251.728348 
L 155.252261 249.752955 
L 157.215075 247.75096 
L 159.177889 245.729442 
L 161.140704 243.695079 
L 163.103518 241.654138 
L 165.066332 239.612451 
L 167.029146 237.575416 
L 168.99196 235.54799 
L 170.954774 233.534693 
L 172.917588 231.539611 
L 174.880402 229.566403 
L 176.843216 227.618317 
L 178.80603 225.698196 
L 180.768844 223.808497 
L 182.731658 221.951301 
L 184.694472 220.128334 
L 186.657286 218.340981 
L 188.620101 216.590303 
L 190.582915 214.877056 
L 192.545729 213.201705 
L 194.508543 211.564441 
L 196.471357 209.965201 
L 198.434171 208.403677 
L 200.396985 206.879336 
L 202.359799 205.391432 
L 204.322613 203.939018 
L 206.285427 202.52096 
L 208.248241 201.135947 
L 210.211055 199.782502 
L 212.173869 198.458994 
L 214.136683 197.163643 
L 216.099497 195.894534 
L 218.062312 194.649623 
L 220.025126 193.426744 
L 221.98794 192.223621 
L 223.950754 191.037876 
L 225.913568 189.867036 
L 227.876382 188.708546 
L 229.839196 187.559777 
L 231.80201 186.418035 
L 233.764824 185.280579 
L 235.727638 184.144626 
L 237.690452 183.007369 
L 239.653266 181.865992 
L 241.61608 180.717679 
L 243.578894 179.559636 
L 245.541709 178.389104 
L 247.504523 177.203375 
L 249.467337 175.999812 
L 251.430151 174.775863 
L 253.392965 173.529083 
L 255.355779 172.257147 
L 257.318593 170.957867 
L 259.281407 169.629215 
L 261.244221 168.269331 
L 263.207035 166.876544 
L 265.169849 165.449384 
L 267.132663 163.986598 
L 269.095477 162.487157 
L 271.058291 160.950273 
L 273.021106 159.375402 
L 274.98392 157.762256 
L 276.946734 156.110808 
L 278.909548 154.421294 
L 280.872362 152.694216 
L 282.835176 150.930345 
L 284.79799 149.130714 
L 286.760804 147.296622 
L 288.723618 145.429622 
L 290.686432 143.531518 
L 292.649246 141.604356 
L 294.61206 139.650415 
L 296.574874 137.672195 
L 298.537688 135.672404 
L 300.500503 133.653949 
L 302.463317 131.619916 
L 304.426131 129.573558 
L 306.388945 127.518282 
L 308.351759 125.45763 
L 310.314573 123.39526 
L 312.277387 121.334938 
L 314.240201 119.280514 
L 316.203015 117.235908 
L 318.165829 115.205092 
L 320.128643 113.192078 
L 322.091457 111.200895 
L 324.054271 109.235578 
L 326.017085 107.300148 
L 327.979899 105.398598 
L 329.942714 103.534876 
L 331.905528 101.712867 
L 333.868342 99.936382 
L 335.831156 98.209134 
L 337.79397 96.534728 
L 339.756784 94.916638 
L 341.719598 93.358196 
L 343.682412 91.86257 
L 345.645226 90.432746 
L 347.60804 89.071512 
L 349.570854 87.781439 
L 351.533668 86.564861 
L 353.496482 85.423855 
L 355.459296 84.360222 
L 357.422111 83.375471 
L 359.384925 82.470792 
L 361.347739 81.647045 
L 363.310553 80.904734 
L 365.273367 80.243994 
L 367.236181 79.664571 
L 369.198995 79.165807 
L 371.161809 78.746627 
L 373.124623 78.405526 
L 375.087437 78.140559 
L 377.050251 77.949339 
L 379.013065 77.829032 
L 380.975879 77.776364 
L 382.938693 77.787624 
L 384.901508 77.858686 
L 386.864322 77.985027 
L 388.827136 78.161753 
L 390.78995 78.383644 
L 392.752764 78.645189 
L 394.715578 78.940647 
L 396.678392 79.2641 
L 398.641206 79.60952 
L 400.60402 79.970843 
L 402.566834 80.342041 
L 404.529648 80.717194 
L 406.492462 81.090571 
L 408.455276 81.456695 
L 410.41809 81.810411 
L 412.380905 82.146943 
L 414.343719 82.461941 
L 416.306533 82.75152 
L 418.269347 83.012283 
L 420.232161 83.241337 
L 422.194975 83.436292 
L 424.157789 83.595261 
L 426.120603 83.716835 
L 428.083417 83.800066 
L 430.046231 83.844434 
L 432.009045 83.849815 
L 433.971859 83.816447 
L 435.934673 83.74489 
L 437.897487 83.635994 
L 439.860302 83.490857 
L 441.823116 83.3108 
L 443.78593 83.097324 
L 445.748744 82.852091 
L 447.711558 82.576889 
L 449.674372 82.273614 
L 451.637186 81.944241 
L 453.6 81.590808 
L 453.6 243.98863 
L 451.637186 240.48201 
L 449.674372 236.997972 
L 447.711558 233.542611 
L 445.748744 230.122108 
L 443.78593 226.742698 
L 441.823116 223.410652 
L 439.860302 220.132239 
L 437.897487 216.913694 
L 435.934673 213.761182 
L 433.971859 210.680756 
L 432.009045 207.678313 
L 430.046231 204.759549 
L 428.083417 201.929915 
L 426.120603 199.194562 
L 424.157789 196.5583 
L 422.194975 194.025547 
L 420.232161 191.600289 
L 418.269347 189.286039 
L 416.306533 187.085813 
L 414.343719 185.002097 
L 412.380905 183.036841 
L 410.41809 181.191455 
L 408.455276 179.466815 
L 406.492462 177.863287 
L 404.529648 176.380752 
L 402.566834 175.018651 
L 400.60402 173.776026 
L 398.641206 172.65158 
L 396.678392 171.643727 
L 394.715578 170.75065 
L 392.752764 169.970361 
L 390.78995 169.300751 
L 388.827136 168.739638 
L 386.864322 168.284808 
L 384.901508 167.934057 
L 382.938693 167.685211 
L 380.975879 167.536154 
L 379.013065 167.484841 
L 377.050251 167.529302 
L 375.087437 167.667653 
L 373.124623 167.898083 
L 371.161809 168.218854 
L 369.198995 168.62829 
L 367.236181 169.12476 
L 365.273367 169.706666 
L 363.310553 170.372424 
L 361.347739 171.120448 
L 359.384925 171.949133 
L 357.422111 172.856838 
L 355.459296 173.841866 
L 353.496482 174.902451 
L 351.533668 176.036747 
L 349.570854 177.242809 
L 347.60804 178.518586 
L 345.645226 179.861912 
L 343.682412 181.270499 
L 341.719598 182.741929 
L 339.756784 184.273658 
L 337.79397 185.863007 
L 335.831156 187.507172 
L 333.868342 189.203219 
L 331.905528 190.948097 
L 329.942714 192.73864 
L 327.979899 194.571575 
L 326.017085 196.443537 
L 324.054271 198.351078 
L 322.091457 200.290677 
L 320.128643 202.258757 
L 318.165829 204.2517 
L 316.203015 206.265856 
L 314.240201 208.297567 
L 312.277387 210.343175 
L 310.314573 212.399043 
L 308.351759 214.461566 
L 306.388945 216.52719 
L 304.426131 218.592427 
L 302.463317 220.653868 
L 300.500503 222.708197 
L 298.537688 224.752208 
L 296.574874 226.782814 
L 294.61206 228.797063 
L 292.649246 230.792148 
L 290.686432 232.76542 
L 288.723618 234.714396 
L 286.760804 236.636774 
L 284.79799 238.530436 
L 282.835176 240.393461 
L 280.872362 242.224133 
L 278.909548 244.020947 
L 276.946734 245.782617 
L 274.98392 247.508081 
L 273.021106 249.196507 
L 271.058291 250.8473 
L 269.095477 252.460099 
L 267.132663 254.03479 
L 265.169849 255.571498 
L 263.207035 257.070595 
L 261.244221 258.532696 
L 259.281407 259.95866 
L 257.318593 261.349586 
L 255.355779 262.706808 
L 253.392965 264.031894 
L 251.430151 265.326631 
L 249.467337 266.593026 
L 247.504523 267.833288 
L 245.541709 269.049819 
L 243.578894 270.245202 
L 241.61608 271.422182 
L 239.653266 272.583653 
L 237.690452 273.732636 
L 235.727638 274.87226 
L 233.764824 276.005743 
L 231.80201 277.136362 
L 229.839196 278.267438 
L 227.876382 279.402302 
L 225.913568 280.544275 
L 223.950754 281.696639 
L 221.98794 282.86261 
L 220.025126 284.045312 
L 218.062312 285.247749 
L 216.099497 286.472779 
L 214.136683 287.723092 
L 212.173869 289.001181 
L 210.211055 290.309323 
L 208.248241 291.649558 
L 206.285427 293.023673 
L 204.322613 294.433182 
L 202.359799 295.879318 
L 200.396985 297.36302 
L 198.434171 298.88493 
L 196.471357 300.445386 
L 194.508543 302.04443 
L 192.545729 303.681803 
L 190.582915 305.35696 
L 188.620101 307.06908 
L 186.657286 308.817079 
L 184.694472 310.599632 
L 182.731658 312.415192 
L 180.768844 314.262014 
L 178.80603 316.138185 
L 176.843216 318.041653 
L 174.880402 319.970256 
L 172.917588 321.921761 
L 170.954774 323.893892 
L 168.99196 325.884369 
L 167.029146 327.890946 
L 165.066332 329.911439 
L 163.103518 331.943767 
L 161.140704 333.98598 
L 159.177889 336.03629 
L 157.215075 338.093099 
L 155.252261 340.155015 
L 153.289447 342.220873 
L 151.326633 344.289744 
L 149.363819 346.360935 
L 147.401005 348.433986 
L 145.438191 350.508654 
L 143.475377 352.584891 
L 141.512563 354.662807 
L 139.549749 356.742635 
L 137.586935 358.824677 
L 135.624121 360.90925 
L 133.661307 362.996623 
L 131.698492 365.08696 
L 129.735678 367.180252 
L 127.772864 369.276266 
L 125.81005 371.374483 
L 123.847236 373.474066 
L 121.884422 375.573819 
L 119.921608 377.672173 
L 117.958794 379.767175 
L 115.99598 381.856496 
L 114.033166 383.937452 
L 112.070352 386.007028 
L 110.107538 388.061919 
L 108.144724 390.098577 
L 106.18191 392.113254 
L 104.219095 394.102059 
L 102.256281 396.06101 
L 100.293467 397.986083 
L 98.330653 399.873261 
L 96.367839 401.718581 
L 94.405025 403.518173 
L 92.442211 405.268301 
L 90.479397 406.965389 
L 88.516583 408.606053 
L 86.553769 410.187123 
L 84.590955 411.705659 
L 82.628141 413.158972 
L 80.665327 414.544629 
L 78.702513 415.860465 
L 76.739698 417.104585 
L 74.776884 418.27537 
L 72.81407 419.371476 
L 70.851256 420.391831 
L 68.888442 421.335633 
L 66.925628 422.202345 
L 64.962814 422.991688 
L 63 423.703636 
z
" style="fill:#cc3300;opacity:0.3;stroke:#cc3300;stroke-linejoin:miter;stroke-width:0.5;"/>
   </g>
   <g id="matplotlib.axis_1">
    <g id="xtick_1">
     <g id="line2d_1">
      <defs>
       <path d="M 0 0 
L 0 3.5 
" id="md22a12c807" style="stroke:#000000;stroke-width:0.8;"/>
      </defs>
      <g>
       <use style="stroke:#000000;stroke-width:0.8;" x="87.4125" xlink:href="#md22a12c807" y="441"/>
      </g>
     </g>
     <g id="text_1">
      <!-- 1880 -->
      <defs>
       <path d="M 12.40625 8.296875 
L 28.515625 8.296875 
L 28.515625 63.921875 
L 10.984375 60.40625 
L 10.984375 69.390625 
L 28.421875 72.90625 
L 38.28125 72.90625 
L 38.28125 8.296875 
L 54.390625 8.296875 
L 54.390625 0 
L 12.40625 0 
z
" id="DejaVuSans-31"/>
       <path d="M 31.78125 34.625 
Q 24.75 34.625 20.71875 30.859375 
Q 16.703125 27.09375 16.703125 20.515625 
Q 16.703125 13.921875 20.71875 10.15625 
Q 24.75 6.390625 31.78125 6.390625 
Q 38.8125 6.390625 42.859375 10.171875 
Q 46.921875 13.96875 46.921875 20.515625 
Q 46.921875 27.09375 42.890625 30.859375 
Q 38.875 34.625 31.78125 34.625 
z
M 21.921875 38.8125 
Q 15.578125 40.375 12.03125 44.71875 
Q 8.5 49.078125 8.5 55.328125 
Q 8.5 64.0625 14.71875 69.140625 
Q 20.953125 74.21875 31.78125 74.21875 
Q 42.671875 74.21875 48.875 69.140625 
Q 55.078125 64.0625 55.078125 55.328125 
Q 55.078125 49.078125 51.53125 44.71875 
Q 48 40.375 41.703125 38.8125 
Q 48.828125 37.15625 52.796875 32.3125 
Q 56.78125 27.484375 56.78125 20.515625 
Q 56.78125 9.90625 50.3125 4.234375 
Q 43.84375 -1.421875 31.78125 -1.421875 
Q 19.734375 -1.421875 13.25 4.234375 
Q 6.78125 9.90625 6.78125 20.515625 
Q 6.78125 27.484375 10.78125 32.3125 
Q 14.796875 37.15625 21.921875 38.8125 
z
M 18.3125 54.390625 
Q 18.3125 48.734375 21.84375 45.5625 
Q 25.390625 42.390625 31.78125 42.390625 
Q 38.140625 42.390625 41.71875 45.5625 
Q 45.3125 48.734375 45.3125 54.390625 
Q 45.3125 60.0625 41.71875 63.234375 
Q 38.140625 66.40625 31.78125 66.40625 
Q 25.390625 66.40625 21.84375 63.234375 
Q 18.3125 60.0625 18.3125 54.390625 
z
" id="DejaVuSans-38"/>
       <path d="M 31.78125 66.40625 
Q 24.171875 66.40625 20.328125 58.90625 
Q 16.5 51.421875 16.5 36.375 
Q 16.5 21.390625 20.328125 13.890625 
Q 24.171875 6.390625 31.78125 6.390625 
Q 39.453125 6.390625 43.28125 13.890625 
Q 47.125 21.390625 47.125 36.375 
Q 47.125 51.421875 43.28125 58.90625 
Q 39.453125 66.40625 31.78125 66.40625 
z
M 31.78125 74.21875 
Q 44.046875 74.21875 50.515625 64.515625 
Q 56.984375 54.828125 56.984375 36.375 
Q 56.984375 17.96875 50.515625 8.265625 
Q 44.046875 -1.421875 31.78125 -1.421875 
Q 19.53125 -1.421875 13.0625 8.265625 
Q 6.59375 17.96875 6.59375 36.375 
Q 6.59375 54.828125 13.0625 64.515625 
Q 19.53125 74.21875 31.78125 74.21875 
z
" id="DejaVuSans-30"/>
      </defs>
      <g transform="translate(74.6875 455.598437)scale(0.1 -0.1)">
       <use xlink:href="#DejaVuSans-31"/>
       <use x="63.623047" xlink:href="#DejaVuSans-38"/>
       <use x="127.246094" xlink:href="#DejaVuSans-38"/>
       <use x="190.869141" xlink:href="#DejaVuSans-30"/>
      </g>
     </g>
    </g>
    <g id="xtick_2">
     <g id="line2d_2">
      <g>
       <use style="stroke:#000000;stroke-width:0.8;" x="136.2375" xlink:href="#md22a12c807" y="441"/>
      </g>
     </g>
     <g id="text_2">
      <!-- 1900 -->
      <defs>
       <path d="M 10.984375 1.515625 
L 10.984375 10.5 
Q 14.703125 8.734375 18.5 7.8125 
Q 22.3125 6.890625 25.984375 6.890625 
Q 35.75 6.890625 40.890625 13.453125 
Q 46.046875 20.015625 46.78125 33.40625 
Q 43.953125 29.203125 39.59375 26.953125 
Q 35.25 24.703125 29.984375 24.703125 
Q 19.046875 24.703125 12.671875 31.3125 
Q 6.296875 37.9375 6.296875 49.421875 
Q 6.296875 60.640625 12.9375 67.421875 
Q 19.578125 74.21875 30.609375 74.21875 
Q 43.265625 74.21875 49.921875 64.515625 
Q 56.59375 54.828125 56.59375 36.375 
Q 56.59375 19.140625 48.40625 8.859375 
Q 40.234375 -1.421875 26.421875 -1.421875 
Q 22.703125 -1.421875 18.890625 -0.6875 
Q 15.09375 0.046875 10.984375 1.515625 
z
M 30.609375 32.421875 
Q 37.25 32.421875 41.125 36.953125 
Q 45.015625 41.5 45.015625 49.421875 
Q 45.015625 57.28125 41.125 61.84375 
Q 37.25 66.40625 30.609375 66.40625 
Q 23.96875 66.40625 20.09375 61.84375 
Q 16.21875 57.28125 16.21875 49.421875 
Q 16.21875 41.5 20.09375 36.953125 
Q 23.96875 32.421875 30.609375 32.421875 
z
" id="DejaVuSans-39"/>
      </defs>
      <g transform="translate(123.5125 455.598437)scale(0.1 -0.1)">
       <use xlink:href="#DejaVuSans-31"/>
       <use x="63.623047" xlink:href="#DejaVuSans-39"/>
       <use x="127.246094" xlink:href="#DejaVuSans-30"/>
       <use x="190.869141" xlink:href="#DejaVuSans-30"/>
      </g>
     </g>
    </g>
    <g id="xtick_3">
     <g id="line2d_3">
      <g>
       <use style="stroke:#000000;stroke-width:0.8;" x="185.0625" xlink:href="#md22a12c807" y="441"/>
      </g>
     </g>
     <g id="text_3">
      <!-- 1920 -->
      <defs>
       <path d="M 19.1875 8.296875 
L 53.609375 8.296875 
L 53.609375 0 
L 7.328125 0 
L 7.328125 8.296875 
Q 12.9375 14.109375 22.625 23.890625 
Q 32.328125 33.6875 34.8125 36.53125 
Q 39.546875 41.84375 41.421875 45.53125 
Q 43.3125 49.21875 43.3125 52.78125 
Q 43.3125 58.59375 39.234375 62.25 
Q 35.15625 65.921875 28.609375 65.921875 
Q 23.96875 65.921875 18.8125 64.3125 
Q 13.671875 62.703125 7.8125 59.421875 
L 7.8125 69.390625 
Q 13.765625 71.78125 18.9375 73 
Q 24.125 74.21875 28.421875 74.21875 
Q 39.75 74.21875 46.484375 68.546875 
Q 53.21875 62.890625 53.21875 53.421875 
Q 53.21875 48.921875 51.53125 44.890625 
Q 49.859375 40.875 45.40625 35.40625 
Q 44.1875 33.984375 37.640625 27.21875 
Q 31.109375 20.453125 19.1875 8.296875 
z
" id="DejaVuSans-32"/>
      </defs>
      <g transform="translate(172.3375 455.598437)scale(0.1 -0.1)">
       <use xlink:href="#DejaVuSans-31"/>
       <use x="63.623047" xlink:href="#DejaVuSans-39"/>
       <use x="127.246094" xlink:href="#DejaVuSans-32"/>
       <use x="190.869141" xlink:href="#DejaVuSans-30"/>
      </g>
     </g>
    </g>
    <g id="xtick_4">
     <g id="line2d_4">
      <g>
       <use style="stroke:#000000;stroke-width:0.8;" x="233.8875" xlink:href="#md22a12c807" y="441"/>
      </g>
     </g>
     <g id="text_4">
      <!-- 1940 -->
      <defs>
       <path d="M 37.796875 64.3125 
L 12.890625 25.390625 
L 37.796875 25.390625 
z
M 35.203125 72.90625 
L 47.609375 72.90625 
L 47.609375 25.390625 
L 58.015625 25.390625 
L 58.015625 17.1875 
L 47.609375 17.1875 
L 47.609375 0 
L 37.796875 0 
L 37.796875 17.1875 
L 4.890625 17.1875 
L 4.890625 26.703125 
z
" id="DejaVuSans-34"/>
      </defs>
      <g transform="translate(221.1625 455.598437)scale(0.1 -0.1)">
       <use xlink:href="#DejaVuSans-31"/>
       <use x="63.623047" xlink:href="#DejaVuSans-39"/>
       <use x="127.246094" xlink:href="#DejaVuSans-34"/>
       <use x="190.869141" xlink:href="#DejaVuSans-30"/>
      </g>
     </g>
    </g>
    <g id="xtick_5">
     <g id="line2d_5">
      <g>
       <use style="stroke:#000000;stroke-width:0.8;" x="282.7125" xlink:href="#md22a12c807" y="441"/>
      </g>
     </g>
     <g id="text_5">
      <!-- 1960 -->
      <defs>
       <path d="M 33.015625 40.375 
Q 26.375 40.375 22.484375 35.828125 
Q 18.609375 31.296875 18.609375 23.390625 
Q 18.609375 15.53125 22.484375 10.953125 
Q 26.375 6.390625 33.015625 6.390625 
Q 39.65625 6.390625 43.53125 10.953125 
Q 47.40625 15.53125 47.40625 23.390625 
Q 47.40625 31.296875 43.53125 35.828125 
Q 39.65625 40.375 33.015625 40.375 
z
M 52.59375 71.296875 
L 52.59375 62.3125 
Q 48.875 64.0625 45.09375 64.984375 
Q 41.3125 65.921875 37.59375 65.921875 
Q 27.828125 65.921875 22.671875 59.328125 
Q 17.53125 52.734375 16.796875 39.40625 
Q 19.671875 43.65625 24.015625 45.921875 
Q 28.375 48.1875 33.59375 48.1875 
Q 44.578125 48.1875 50.953125 41.515625 
Q 57.328125 34.859375 57.328125 23.390625 
Q 57.328125 12.15625 50.6875 5.359375 
Q 44.046875 -1.421875 33.015625 -1.421875 
Q 20.359375 -1.421875 13.671875 8.265625 
Q 6.984375 17.96875 6.984375 36.375 
Q 6.984375 53.65625 15.1875 63.9375 
Q 23.390625 74.21875 37.203125 74.21875 
Q 40.921875 74.21875 44.703125 73.484375 
Q 48.484375 72.75 52.59375 71.296875 
z
" id="DejaVuSans-36"/>
      </defs>
      <g transform="translate(269.9875 455.598437)scale(0.1 -0.1)">
       <use xlink:href="#DejaVuSans-31"/>
       <use x="63.623047" xlink:href="#DejaVuSans-39"/>
       <use x="127.246094" xlink:href="#DejaVuSans-36"/>
       <use x="190.869141" xlink:href="#DejaVuSans-30"/>
      </g>
     </g>
    </g>
    <g id="xtick_6">
     <g id="line2d_6">
      <g>
       <use style="stroke:#000000;stroke-width:0.8;" x="331.5375" xlink:href="#md22a12c807" y="441"/>
      </g>
     </g>
     <g id="text_6">
      <!-- 1980 -->
      <g transform="translate(318.8125 455.598437)scale(0.1 -0.1)">
       <use xlink:href="#DejaVuSans-31"/>
       <use x="63.623047" xlink:href="#DejaVuSans-39"/>
       <use x="127.246094" xlink:href="#DejaVuSans-38"/>
       <use x="190.869141" xlink:href="#DejaVuSans-30"/>
      </g>
     </g>
    </g>
    <g id="xtick_7">
     <g id="line2d_7">
      <g>
       <use style="stroke:#000000;stroke-width:0.8;" x="380.3625" xlink:href="#md22a12c807" y="441"/>
      </g>
     </g>
     <g id="text_7">
      <!-- 2000 -->
      <g transform="translate(367.6375 455.598437)scale(0.1 -0.1)">
       <use xlink:href="#DejaVuSans-32"/>
       <use x="63.623047" xlink:href="#DejaVuSans-30"/>
       <use x="127.246094" xlink:href="#DejaVuSans-30"/>
       <use x="190.869141" xlink:href="#DejaVuSans-30"/>
      </g>
     </g>
    </g>
    <g id="xtick_8">
     <g id="line2d_8">
      <g>
       <use style="stroke:#000000;stroke-width:0.8;" x="429.1875" xlink:href="#md22a12c807" y="441"/>
      </g>
     </g>
     <g id="text_8">
      <!-- 2020 -->
      <g transform="translate(416.4625 455.598437)scale(0.1 -0.1)">
       <use xlink:href="#DejaVuSans-32"/>
       <use x="63.623047" xlink:href="#DejaVuSans-30"/>
       <use x="127.246094" xlink:href="#DejaVuSans-32"/>
       <use x="190.869141" xlink:href="#DejaVuSans-30"/>
      </g>
     </g>
    </g>
    <g id="text_9">
     <!-- year -->
     <defs>
      <path d="M 32.171875 -5.078125 
Q 28.375 -14.84375 24.75 -17.8125 
Q 21.140625 -20.796875 15.09375 -20.796875 
L 7.90625 -20.796875 
L 7.90625 -13.28125 
L 13.1875 -13.28125 
Q 16.890625 -13.28125 18.9375 -11.515625 
Q 21 -9.765625 23.484375 -3.21875 
L 25.09375 0.875 
L 2.984375 54.6875 
L 12.5 54.6875 
L 29.59375 11.921875 
L 46.6875 54.6875 
L 56.203125 54.6875 
z
" id="DejaVuSans-79"/>
      <path d="M 56.203125 29.59375 
L 56.203125 25.203125 
L 14.890625 25.203125 
Q 15.484375 15.921875 20.484375 11.0625 
Q 25.484375 6.203125 34.421875 6.203125 
Q 39.59375 6.203125 44.453125 7.46875 
Q 49.3125 8.734375 54.109375 11.28125 
L 54.109375 2.78125 
Q 49.265625 0.734375 44.1875 -0.34375 
Q 39.109375 -1.421875 33.890625 -1.421875 
Q 20.796875 -1.421875 13.15625 6.1875 
Q 5.515625 13.8125 5.515625 26.8125 
Q 5.515625 40.234375 12.765625 48.109375 
Q 20.015625 56 32.328125 56 
Q 43.359375 56 49.78125 48.890625 
Q 56.203125 41.796875 56.203125 29.59375 
z
M 47.21875 32.234375 
Q 47.125 39.59375 43.09375 43.984375 
Q 39.0625 48.390625 32.421875 48.390625 
Q 24.90625 48.390625 20.390625 44.140625 
Q 15.875 39.890625 15.1875 32.171875 
z
" id="DejaVuSans-65"/>
      <path d="M 34.28125 27.484375 
Q 23.390625 27.484375 19.1875 25 
Q 14.984375 22.515625 14.984375 16.5 
Q 14.984375 11.71875 18.140625 8.90625 
Q 21.296875 6.109375 26.703125 6.109375 
Q 34.1875 6.109375 38.703125 11.40625 
Q 43.21875 16.703125 43.21875 25.484375 
L 43.21875 27.484375 
z
M 52.203125 31.203125 
L 52.203125 0 
L 43.21875 0 
L 43.21875 8.296875 
Q 40.140625 3.328125 35.546875 0.953125 
Q 30.953125 -1.421875 24.3125 -1.421875 
Q 15.921875 -1.421875 10.953125 3.296875 
Q 6 8.015625 6 15.921875 
Q 6 25.140625 12.171875 29.828125 
Q 18.359375 34.515625 30.609375 34.515625 
L 43.21875 34.515625 
L 43.21875 35.40625 
Q 43.21875 41.609375 39.140625 45 
Q 35.0625 48.390625 27.6875 48.390625 
Q 23 48.390625 18.546875 47.265625 
Q 14.109375 46.140625 10.015625 43.890625 
L 10.015625 52.203125 
Q 14.9375 54.109375 19.578125 55.046875 
Q 24.21875 56 28.609375 56 
Q 40.484375 56 46.34375 49.84375 
Q 52.203125 43.703125 52.203125 31.203125 
z
" id="DejaVuSans-61"/>
      <path d="M 41.109375 46.296875 
Q 39.59375 47.171875 37.8125 47.578125 
Q 36.03125 48 33.890625 48 
Q 26.265625 48 22.1875 43.046875 
Q 18.109375 38.09375 18.109375 28.8125 
L 18.109375 0 
L 9.078125 0 
L 9.078125 54.6875 
L 18.109375 54.6875 
L 18.109375 46.1875 
Q 20.953125 51.171875 25.484375 53.578125 
Q 30.03125 56 36.53125 56 
Q 37.453125 56 38.578125 55.875 
Q 39.703125 55.765625 41.0625 55.515625 
z
" id="DejaVuSans-72"/>
     </defs>
     <g transform="translate(235.989063 476.875)scale(0.2 -0.2)">
      <use xlink:href="#DejaVuSans-79"/>
      <use x="59.179688" xlink:href="#DejaVuSans-65"/>
      <use x="120.703125" xlink:href="#DejaVuSans-61"/>
      <use x="181.982422" xlink:href="#DejaVuSans-72"/>
     </g>
    </g>
   </g>
   <g id="matplotlib.axis_2">
    <g id="ytick_1">
     <g id="line2d_9">
      <defs>
       <path d="M 0 0 
L -3.5 0 
" id="m960bfe727d" style="stroke:#000000;stroke-width:0.8;"/>
      </defs>
      <g>
       <use style="stroke:#000000;stroke-width:0.8;" x="63" xlink:href="#m960bfe727d" y="406.967958"/>
      </g>
     </g>
     <g id="text_10">
      <!-- −3 -->
      <defs>
       <path d="M 10.59375 35.5 
L 73.1875 35.5 
L 73.1875 27.203125 
L 10.59375 27.203125 
z
" id="DejaVuSans-2212"/>
       <path d="M 40.578125 39.3125 
Q 47.65625 37.796875 51.625 33 
Q 55.609375 28.21875 55.609375 21.1875 
Q 55.609375 10.40625 48.1875 4.484375 
Q 40.765625 -1.421875 27.09375 -1.421875 
Q 22.515625 -1.421875 17.65625 -0.515625 
Q 12.796875 0.390625 7.625 2.203125 
L 7.625 11.71875 
Q 11.71875 9.328125 16.59375 8.109375 
Q 21.484375 6.890625 26.8125 6.890625 
Q 36.078125 6.890625 40.9375 10.546875 
Q 45.796875 14.203125 45.796875 21.1875 
Q 45.796875 27.640625 41.28125 31.265625 
Q 36.765625 34.90625 28.71875 34.90625 
L 20.21875 34.90625 
L 20.21875 43.015625 
L 29.109375 43.015625 
Q 36.375 43.015625 40.234375 45.921875 
Q 44.09375 48.828125 44.09375 54.296875 
Q 44.09375 59.90625 40.109375 62.90625 
Q 36.140625 65.921875 28.71875 65.921875 
Q 24.65625 65.921875 20.015625 65.03125 
Q 15.375 64.15625 9.8125 62.3125 
L 9.8125 71.09375 
Q 15.4375 72.65625 20.34375 73.4375 
Q 25.25 74.21875 29.59375 74.21875 
Q 40.828125 74.21875 47.359375 69.109375 
Q 53.90625 64.015625 53.90625 55.328125 
Q 53.90625 49.265625 50.4375 45.09375 
Q 46.96875 40.921875 40.578125 39.3125 
z
" id="DejaVuSans-33"/>
      </defs>
      <g transform="translate(41.257812 410.767176)scale(0.1 -0.1)">
       <use xlink:href="#DejaVuSans-2212"/>
       <use x="83.789062" xlink:href="#DejaVuSans-33"/>
      </g>
     </g>
    </g>
    <g id="ytick_2">
     <g id="line2d_10">
      <g>
       <use style="stroke:#000000;stroke-width:0.8;" x="63" xlink:href="#m960bfe727d" y="347.284811"/>
      </g>
     </g>
     <g id="text_11">
      <!-- −2 -->
      <g transform="translate(41.257812 351.08403)scale(0.1 -0.1)">
       <use xlink:href="#DejaVuSans-2212"/>
       <use x="83.789062" xlink:href="#DejaVuSans-32"/>
      </g>
     </g>
    </g>
    <g id="ytick_3">
     <g id="line2d_11">
      <g>
       <use style="stroke:#000000;stroke-width:0.8;" x="63" xlink:href="#m960bfe727d" y="287.601664"/>
      </g>
     </g>
     <g id="text_12">
      <!-- −1 -->
      <g transform="translate(41.257812 291.400883)scale(0.1 -0.1)">
       <use xlink:href="#DejaVuSans-2212"/>
       <use x="83.789062" xlink:href="#DejaVuSans-31"/>
      </g>
     </g>
    </g>
    <g id="ytick_4">
     <g id="line2d_12">
      <g>
       <use style="stroke:#000000;stroke-width:0.8;" x="63" xlink:href="#m960bfe727d" y="227.918517"/>
      </g>
     </g>
     <g id="text_13">
      <!-- 0 -->
      <g transform="translate(49.6375 231.717736)scale(0.1 -0.1)">
       <use xlink:href="#DejaVuSans-30"/>
      </g>
     </g>
    </g>
    <g id="ytick_5">
     <g id="line2d_13">
      <g>
       <use style="stroke:#000000;stroke-width:0.8;" x="63" xlink:href="#m960bfe727d" y="168.235371"/>
      </g>
     </g>
     <g id="text_14">
      <!-- 1 -->
      <g transform="translate(49.6375 172.034589)scale(0.1 -0.1)">
       <use xlink:href="#DejaVuSans-31"/>
      </g>
     </g>
    </g>
    <g id="ytick_6">
     <g id="line2d_14">
      <g>
       <use style="stroke:#000000;stroke-width:0.8;" x="63" xlink:href="#m960bfe727d" y="108.552224"/>
      </g>
     </g>
     <g id="text_15">
      <!-- 2 -->
      <g transform="translate(49.6375 112.351443)scale(0.1 -0.1)">
       <use xlink:href="#DejaVuSans-32"/>
      </g>
     </g>
    </g>
    <g id="text_16">
     <!-- hidden variable -->
     <defs>
      <path d="M 54.890625 33.015625 
L 54.890625 0 
L 45.90625 0 
L 45.90625 32.71875 
Q 45.90625 40.484375 42.875 44.328125 
Q 39.84375 48.1875 33.796875 48.1875 
Q 26.515625 48.1875 22.3125 43.546875 
Q 18.109375 38.921875 18.109375 30.90625 
L 18.109375 0 
L 9.078125 0 
L 9.078125 75.984375 
L 18.109375 75.984375 
L 18.109375 46.1875 
Q 21.34375 51.125 25.703125 53.5625 
Q 30.078125 56 35.796875 56 
Q 45.21875 56 50.046875 50.171875 
Q 54.890625 44.34375 54.890625 33.015625 
z
" id="DejaVuSans-68"/>
      <path d="M 9.421875 54.6875 
L 18.40625 54.6875 
L 18.40625 0 
L 9.421875 0 
z
M 9.421875 75.984375 
L 18.40625 75.984375 
L 18.40625 64.59375 
L 9.421875 64.59375 
z
" id="DejaVuSans-69"/>
      <path d="M 45.40625 46.390625 
L 45.40625 75.984375 
L 54.390625 75.984375 
L 54.390625 0 
L 45.40625 0 
L 45.40625 8.203125 
Q 42.578125 3.328125 38.25 0.953125 
Q 33.9375 -1.421875 27.875 -1.421875 
Q 17.96875 -1.421875 11.734375 6.484375 
Q 5.515625 14.40625 5.515625 27.296875 
Q 5.515625 40.1875 11.734375 48.09375 
Q 17.96875 56 27.875 56 
Q 33.9375 56 38.25 53.625 
Q 42.578125 51.265625 45.40625 46.390625 
z
M 14.796875 27.296875 
Q 14.796875 17.390625 18.875 11.75 
Q 22.953125 6.109375 30.078125 6.109375 
Q 37.203125 6.109375 41.296875 11.75 
Q 45.40625 17.390625 45.40625 27.296875 
Q 45.40625 37.203125 41.296875 42.84375 
Q 37.203125 48.484375 30.078125 48.484375 
Q 22.953125 48.484375 18.875 42.84375 
Q 14.796875 37.203125 14.796875 27.296875 
z
" id="DejaVuSans-64"/>
      <path d="M 54.890625 33.015625 
L 54.890625 0 
L 45.90625 0 
L 45.90625 32.71875 
Q 45.90625 40.484375 42.875 44.328125 
Q 39.84375 48.1875 33.796875 48.1875 
Q 26.515625 48.1875 22.3125 43.546875 
Q 18.109375 38.921875 18.109375 30.90625 
L 18.109375 0 
L 9.078125 0 
L 9.078125 54.6875 
L 18.109375 54.6875 
L 18.109375 46.1875 
Q 21.34375 51.125 25.703125 53.5625 
Q 30.078125 56 35.796875 56 
Q 45.21875 56 50.046875 50.171875 
Q 54.890625 44.34375 54.890625 33.015625 
z
" id="DejaVuSans-6e"/>
      <path id="DejaVuSans-20"/>
      <path d="M 2.984375 54.6875 
L 12.5 54.6875 
L 29.59375 8.796875 
L 46.6875 54.6875 
L 56.203125 54.6875 
L 35.6875 0 
L 23.484375 0 
z
" id="DejaVuSans-76"/>
      <path d="M 48.6875 27.296875 
Q 48.6875 37.203125 44.609375 42.84375 
Q 40.53125 48.484375 33.40625 48.484375 
Q 26.265625 48.484375 22.1875 42.84375 
Q 18.109375 37.203125 18.109375 27.296875 
Q 18.109375 17.390625 22.1875 11.75 
Q 26.265625 6.109375 33.40625 6.109375 
Q 40.53125 6.109375 44.609375 11.75 
Q 48.6875 17.390625 48.6875 27.296875 
z
M 18.109375 46.390625 
Q 20.953125 51.265625 25.265625 53.625 
Q 29.59375 56 35.59375 56 
Q 45.5625 56 51.78125 48.09375 
Q 58.015625 40.1875 58.015625 27.296875 
Q 58.015625 14.40625 51.78125 6.484375 
Q 45.5625 -1.421875 35.59375 -1.421875 
Q 29.59375 -1.421875 25.265625 0.953125 
Q 20.953125 3.328125 18.109375 8.203125 
L 18.109375 0 
L 9.078125 0 
L 9.078125 75.984375 
L 18.109375 75.984375 
z
" id="DejaVuSans-62"/>
      <path d="M 9.421875 75.984375 
L 18.40625 75.984375 
L 18.40625 0 
L 9.421875 0 
z
" id="DejaVuSans-6c"/>
     </defs>
     <g transform="translate(33.098437 328.565)rotate(-90)scale(0.2 -0.2)">
      <use xlink:href="#DejaVuSans-68"/>
      <use x="63.378906" xlink:href="#DejaVuSans-69"/>
      <use x="91.162109" xlink:href="#DejaVuSans-64"/>
      <use x="154.638672" xlink:href="#DejaVuSans-64"/>
      <use x="218.115234" xlink:href="#DejaVuSans-65"/>
      <use x="279.638672" xlink:href="#DejaVuSans-6e"/>
      <use x="343.017578" xlink:href="#DejaVuSans-20"/>
      <use x="374.804688" xlink:href="#DejaVuSans-76"/>
      <use x="433.984375" xlink:href="#DejaVuSans-61"/>
      <use x="495.263672" xlink:href="#DejaVuSans-72"/>
      <use x="536.376953" xlink:href="#DejaVuSans-69"/>
      <use x="564.160156" xlink:href="#DejaVuSans-61"/>
      <use x="625.439453" xlink:href="#DejaVuSans-62"/>
      <use x="688.916016" xlink:href="#DejaVuSans-6c"/>
      <use x="716.699219" xlink:href="#DejaVuSans-65"/>
     </g>
    </g>
   </g>
   <g id="line2d_15">
    <defs>
     <path d="M 0 2.5 
C 0.663008 2.5 1.29895 2.236584 1.767767 1.767767 
C 2.236584 1.29895 2.5 0.663008 2.5 0 
C 2.5 -0.663008 2.236584 -1.29895 1.767767 -1.767767 
C 1.29895 -2.236584 0.663008 -2.5 0 -2.5 
C -0.663008 -2.5 -1.29895 -2.236584 -1.767767 -1.767767 
C -2.236584 -1.29895 -2.5 -0.663008 -2.5 0 
C -2.5 0.663008 -2.236584 1.29895 -1.767767 1.767767 
C -1.29895 2.236584 -0.663008 2.5 0 2.5 
z
" id="m0067f263ea" style="stroke:#ff0000;"/>
    </defs>
    <g clip-path="url(#p6cb0b14ed2)">
     <use style="fill:#ff0000;stroke:#ff0000;" x="126.4725" xlink:href="#m0067f263ea" y="312.637845"/>
     <use style="fill:#ff0000;stroke:#ff0000;" x="136.2375" xlink:href="#m0067f263ea" y="311.971344"/>
     <use style="fill:#ff0000;stroke:#ff0000;" x="146.0025" xlink:href="#m0067f263ea" y="357.69669"/>
     <use style="fill:#ff0000;stroke:#ff0000;" x="155.7675" xlink:href="#m0067f263ea" y="289.655061"/>
     <use style="fill:#ff0000;stroke:#ff0000;" x="165.5325" xlink:href="#m0067f263ea" y="269.707071"/>
     <use style="fill:#ff0000;stroke:#ff0000;" x="185.0625" xlink:href="#m0067f263ea" y="238.454395"/>
     <use style="fill:#ff0000;stroke:#ff0000;" x="194.8275" xlink:href="#m0067f263ea" y="261.509757"/>
     <use style="fill:#ff0000;stroke:#ff0000;" x="204.5925" xlink:href="#m0067f263ea" y="242.615567"/>
     <use style="fill:#ff0000;stroke:#ff0000;" x="214.3575" xlink:href="#m0067f263ea" y="238.88894"/>
     <use style="fill:#ff0000;stroke:#ff0000;" x="224.1225" xlink:href="#m0067f263ea" y="232.774777"/>
     <use style="fill:#ff0000;stroke:#ff0000;" x="253.4175" xlink:href="#m0067f263ea" y="244.689791"/>
     <use style="fill:#ff0000;stroke:#ff0000;" x="263.1825" xlink:href="#m0067f263ea" y="212.990114"/>
     <use style="fill:#ff0000;stroke:#ff0000;" x="272.9475" xlink:href="#m0067f263ea" y="217.715602"/>
     <use style="fill:#ff0000;stroke:#ff0000;" x="282.7125" xlink:href="#m0067f263ea" y="183.82798"/>
     <use style="fill:#ff0000;stroke:#ff0000;" x="292.4775" xlink:href="#m0067f263ea" y="169.090318"/>
     <use style="fill:#ff0000;stroke:#ff0000;" x="302.2425" xlink:href="#m0067f263ea" y="198.573349"/>
     <use style="fill:#ff0000;stroke:#ff0000;" x="312.0075" xlink:href="#m0067f263ea" y="160.752847"/>
     <use style="fill:#ff0000;stroke:#ff0000;" x="321.7725" xlink:href="#m0067f263ea" y="146.292861"/>
     <use style="fill:#ff0000;stroke:#ff0000;" x="331.5375" xlink:href="#m0067f263ea" y="143.207595"/>
     <use style="fill:#ff0000;stroke:#ff0000;" x="341.3025" xlink:href="#m0067f263ea" y="133.964253"/>
     <use style="fill:#ff0000;stroke:#ff0000;" x="351.0675" xlink:href="#m0067f263ea" y="130.591856"/>
     <use style="fill:#ff0000;stroke:#ff0000;" x="360.8325" xlink:href="#m0067f263ea" y="128.863668"/>
     <use style="fill:#ff0000;stroke:#ff0000;" x="370.5975" xlink:href="#m0067f263ea" y="125.00587"/>
     <use style="fill:#ff0000;stroke:#ff0000;" x="380.3625" xlink:href="#m0067f263ea" y="123.576615"/>
     <use style="fill:#ff0000;stroke:#ff0000;" x="390.1275" xlink:href="#m0067f263ea" y="124.4885"/>
     <use style="fill:#ff0000;stroke:#ff0000;" x="399.8925" xlink:href="#m0067f263ea" y="125.281145"/>
     <use style="fill:#ff0000;stroke:#ff0000;" x="409.6575" xlink:href="#m0067f263ea" y="128.122987"/>
    </g>
   </g>
   <g id="line2d_16">
    <path clip-path="url(#p6cb0b14ed2)" d="M 63 322.237901 
L 64.962814 323.487851 
L 66.925628 324.675607 
L 70.851256 326.852167 
L 74.776884 328.743937 
L 78.702513 330.329284 
L 82.628141 331.588971 
L 86.553769 332.50651 
L 90.479397 333.068489 
L 94.405025 333.26486 
L 98.330653 333.089185 
L 102.256281 332.538824 
L 106.18191 331.615068 
L 110.107538 330.323204 
L 114.033166 328.672517 
L 117.958794 326.676216 
L 121.884422 324.35129 
L 125.81005 321.718289 
L 129.735678 318.801043 
L 133.661307 315.626302 
L 137.586935 312.223328 
L 143.475377 306.759827 
L 149.363819 300.965066 
L 159.177889 290.882866 
L 172.917588 276.730686 
L 180.768844 269.035255 
L 186.657286 263.57903 
L 192.545729 258.441754 
L 198.434171 253.644303 
L 204.322613 249.1861 
L 210.211055 245.045912 
L 216.099497 241.183657 
L 223.950754 236.367257 
L 235.727638 229.508443 
L 245.541709 223.719461 
L 251.430151 220.051247 
L 257.318593 216.153726 
L 263.207035 211.973569 
L 269.095477 207.473628 
L 274.98392 202.635169 
L 280.872362 197.459174 
L 286.760804 191.966698 
L 292.649246 186.198252 
L 300.500503 178.181073 
L 324.054271 153.793328 
L 329.942714 148.136758 
L 335.831156 142.858153 
L 339.756784 139.595148 
L 343.682412 136.566534 
L 347.60804 133.795049 
L 351.533668 131.300804 
L 355.459296 129.101044 
L 359.384925 127.209963 
L 363.310553 125.638579 
L 367.236181 124.394666 
L 371.161809 123.482741 
L 375.087437 122.904106 
L 379.013065 122.656936 
L 382.938693 122.736417 
L 386.864322 123.134917 
L 390.78995 123.842198 
L 394.715578 124.845649 
L 398.641206 126.13055 
L 402.566834 127.680346 
L 406.492462 129.476929 
L 410.41809 131.500933 
L 414.343719 133.732019 
L 420.232161 137.420813 
L 426.120603 141.455699 
L 432.009045 145.764064 
L 439.860302 151.811548 
L 453.6 162.789719 
L 453.6 162.789719 
" style="fill:none;stroke:#3300ff;stroke-linecap:square;stroke-width:2;"/>
   </g>
   <g id="line2d_17">
    <path clip-path="url(#p6cb0b14ed2)" d="M 63 220.772165 
L 68.888442 230.260469 
L 74.776884 239.212503 
L 78.702513 244.798103 
L 82.628141 250.01897 
L 86.553769 254.825898 
L 90.479397 259.171588 
L 94.405025 263.011546 
L 98.330653 266.305109 
L 100.293467 267.735623 
L 102.256281 269.016638 
L 104.219095 270.144709 
L 106.18191 271.116882 
L 108.144724 271.930748 
L 110.107538 272.584489 
L 112.070352 273.07693 
L 114.033166 273.407583 
L 115.99598 273.57669 
L 117.958794 273.585258 
L 119.921608 273.435081 
L 121.884422 273.12876 
L 123.847236 272.669698 
L 125.81005 272.062095 
L 127.772864 271.310911 
L 129.735678 270.421833 
L 133.661307 268.255982 
L 137.586935 265.621979 
L 141.512563 262.584031 
L 145.438191 259.210144 
L 149.363819 255.569197 
L 155.252261 249.752955 
L 165.066332 239.612451 
L 174.880402 229.566403 
L 180.768844 223.808497 
L 186.657286 218.340981 
L 192.545729 213.201705 
L 198.434171 208.403677 
L 204.322613 203.939018 
L 210.211055 199.782502 
L 216.099497 195.894534 
L 223.950754 191.037876 
L 233.764824 185.280579 
L 247.504523 177.203375 
L 253.392965 173.529083 
L 259.281407 169.629215 
L 265.169849 165.449384 
L 271.058291 160.950273 
L 276.946734 156.110808 
L 282.835176 150.930345 
L 288.723618 145.429622 
L 294.61206 139.650415 
L 302.463317 131.619916 
L 324.054271 109.235578 
L 329.942714 103.534876 
L 335.831156 98.209134 
L 339.756784 94.916638 
L 343.682412 91.86257 
L 347.60804 89.071512 
L 351.533668 86.564861 
L 355.459296 84.360222 
L 359.384925 82.470792 
L 363.310553 80.904734 
L 367.236181 79.664571 
L 371.161809 78.746627 
L 375.087437 78.140559 
L 379.013065 77.829032 
L 382.938693 77.787624 
L 386.864322 77.985027 
L 390.78995 78.383644 
L 396.678392 79.2641 
L 406.492462 81.090571 
L 414.343719 82.461941 
L 420.232161 83.241337 
L 426.120603 83.716835 
L 430.046231 83.844434 
L 433.971859 83.816447 
L 439.860302 83.490857 
L 445.748744 82.852091 
L 451.637186 81.944241 
L 453.6 81.590808 
L 453.6 81.590808 
" style="fill:none;stroke:#3300ff;stroke-linecap:square;stroke-width:0.2;"/>
   </g>
   <g id="line2d_18">
    <path clip-path="url(#p6cb0b14ed2)" d="M 63 423.703636 
L 66.925628 422.202345 
L 70.851256 420.391831 
L 74.776884 418.27537 
L 78.702513 415.860465 
L 82.628141 413.158972 
L 86.553769 410.187123 
L 90.479397 406.965389 
L 94.405025 403.518173 
L 100.293467 397.986083 
L 106.18191 392.113254 
L 114.033166 383.937452 
L 167.029146 327.890946 
L 174.880402 319.970256 
L 180.768844 314.262014 
L 186.657286 308.817079 
L 192.545729 303.681803 
L 198.434171 298.88493 
L 204.322613 294.433182 
L 210.211055 290.309323 
L 216.099497 286.472779 
L 223.950754 281.696639 
L 249.467337 266.593026 
L 255.355779 262.706808 
L 261.244221 258.532696 
L 267.132663 254.03479 
L 273.021106 249.196507 
L 278.909548 244.020947 
L 284.79799 238.530436 
L 290.686432 232.76542 
L 298.537688 224.752208 
L 322.091457 200.290677 
L 327.979899 194.571575 
L 333.868342 189.203219 
L 337.79397 185.863007 
L 341.719598 182.741929 
L 345.645226 179.861912 
L 349.570854 177.242809 
L 353.496482 174.902451 
L 357.422111 172.856838 
L 361.347739 171.120448 
L 365.273367 169.706666 
L 369.198995 168.62829 
L 373.124623 167.898083 
L 377.050251 167.529302 
L 380.975879 167.536154 
L 384.901508 167.934057 
L 388.827136 168.739638 
L 392.752764 169.970361 
L 396.678392 171.643727 
L 400.60402 173.776026 
L 404.529648 176.380752 
L 408.455276 179.466815 
L 412.380905 183.036841 
L 416.306533 187.085813 
L 420.232161 191.600289 
L 424.157789 196.5583 
L 428.083417 201.929915 
L 432.009045 207.678313 
L 435.934673 213.761182 
L 441.823116 223.410652 
L 447.711558 233.542611 
L 453.6 243.98863 
L 453.6 243.98863 
" style="fill:none;stroke:#3300ff;stroke-linecap:square;stroke-width:0.2;"/>
   </g>
   <g id="patch_4">
    <path d="M 63 441 
L 63 60.48 
" style="fill:none;stroke:#000000;stroke-linecap:square;stroke-linejoin:miter;stroke-width:0.8;"/>
   </g>
   <g id="patch_5">
    <path d="M 453.6 441 
L 453.6 60.48 
" style="fill:none;stroke:#000000;stroke-linecap:square;stroke-linejoin:miter;stroke-width:0.8;"/>
   </g>
   <g id="patch_6">
    <path d="M 63 441 
L 453.6 441 
" style="fill:none;stroke:#000000;stroke-linecap:square;stroke-linejoin:miter;stroke-width:0.8;"/>
   </g>
   <g id="patch_7">
    <path d="M 63 60.48 
L 453.6 60.48 
" style="fill:none;stroke:#000000;stroke-linecap:square;stroke-linejoin:miter;stroke-width:0.8;"/>
   </g>
  </g>
 </g>
 <defs>
  <clipPath id="p6cb0b14ed2">
   <rect height="380.52" width="390.6" x="63" y="60.48"/>
  </clipPath>
 </defs>
</svg>
