<?xml version="1.0" encoding="utf-8" standalone="no"?>
<!DOCTYPE svg PUBLIC "-//W3C//DTD SVG 1.1//EN"
  "http://www.w3.org/Graphics/SVG/1.1/DTD/svg11.dtd">
<!-- Created with matplotlib (http://matplotlib.org/) -->
<svg height="504pt" version="1.1" viewBox="0 0 504 504" width="504pt" xmlns="http://www.w3.org/2000/svg" xmlns:xlink="http://www.w3.org/1999/xlink">
 <defs>
  <style type="text/css">
*{stroke-linecap:butt;stroke-linejoin:round;}
  </style>
 </defs>
 <g id="figure_1">
  <g id="patch_1">
   <path d="M 0 504 
L 504 504 
L 504 0 
L 0 0 
z
" style="fill:none;"/>
  </g>
  <g id="axes_1">
   <g id="patch_2">
    <path d="M 63 441 
L 453.6 441 
L 453.6 60.48 
L 63 60.48 
z
" style="fill:none;"/>
   </g>
   <g id="patch_3">
    <path clip-path="url(#pabfac29df3)" d="M 63 118.392326 
L 64.962814 115.875215 
L 66.925628 113.076786 
L 68.888442 109.986216 
L 70.851256 106.599295 
L 72.81407 102.921044 
L 74.776884 98.968632 
L 76.739698 94.774395 
L 78.702513 90.388651 
L 80.665327 85.881752 
L 82.628141 81.345177 
L 84.590955 76.891091 
L 86.553769 72.651221 
L 88.516583 68.775571 
L 90.479397 65.432546 
L 92.442211 62.809944 
L 94.405025 61.113591 
L 96.367839 60.5565 
L 98.330653 61.331009 
L 100.293467 63.561808 
L 102.256281 67.24742 
L 104.219095 72.208695 
L 106.18191 78.069916 
L 108.144724 84.295221 
L 110.107538 90.282641 
L 112.070352 95.482874 
L 114.033166 99.485875 
L 115.99598 102.035413 
L 117.958794 102.981819 
L 119.921608 102.226683 
L 121.884422 99.723888 
L 123.847236 95.573234 
L 125.81005 90.177121 
L 127.772864 84.346581 
L 129.735678 79.172026 
L 131.698492 75.621468 
L 133.661307 74.150893 
L 135.624121 74.592036 
L 137.586935 76.332647 
L 139.549749 78.686164 
L 141.512563 81.188006 
L 143.475377 83.61839 
L 145.438191 85.867714 
L 147.401005 87.837352 
L 149.363819 89.425794 
L 151.326633 90.554791 
L 153.289447 91.177733 
L 155.252261 91.242153 
L 157.215075 90.629836 
L 159.177889 89.142202 
L 161.140704 86.598782 
L 163.103518 83.026202 
L 165.066332 78.799218 
L 167.029146 74.647927 
L 168.99196 71.514654 
L 170.954774 69.593717 
L 172.917588 65.012269 
L 174.880402 49.436125 
L 176.843216 27.326286 
L 178.80603 18.605818 
L 180.768844 27.893706 
L 182.731658 46.678428 
L 184.694472 63.774888 
L 186.657286 75.32117 
L 188.620101 83.952548 
L 190.582915 96.00425 
L 192.545729 112.857131 
L 194.508543 123.547769 
L 196.471357 120.898526 
L 198.434171 111.58266 
L 200.396985 105.828355 
L 202.359799 110.678917 
L 204.322613 127.414076 
L 206.285427 147.652893 
L 208.248241 151.719696 
L 210.211055 127.327262 
L 212.173869 89.715903 
L 214.136683 62.249417 
L 216.099497 52.006431 
L 218.062312 58.583187 
L 220.025126 87.76594 
L 221.98794 167.412353 
L 223.950754 289.310452 
L 225.913568 369.535843 
L 227.876382 386.27283 
L 229.839196 387.334884 
L 231.80201 388.507238 
L 233.764824 388.909868 
L 235.727638 388.864641 
L 237.690452 388.99929 
L 239.653266 388.824505 
L 241.61608 387.682453 
L 243.578894 385.573683 
L 245.541709 383.252019 
L 247.504523 381.757982 
L 249.467337 381.764128 
L 251.430151 383.405798 
L 253.392965 386.525778 
L 255.355779 390.761263 
L 257.318593 395.448747 
L 259.281407 399.545766 
L 261.244221 401.455526 
L 263.207035 399.578159 
L 265.169849 394.799671 
L 267.132663 390.652121 
L 269.095477 389.769842 
L 271.058291 391.52788 
L 273.021106 393.285945 
L 274.98392 393.771786 
L 276.946734 393.618075 
L 278.909548 393.541552 
L 280.872362 393.665529 
L 282.835176 393.841307 
L 284.79799 393.903755 
L 286.760804 393.736075 
L 288.723618 393.276298 
L 290.686432 392.525646 
L 292.649246 391.569995 
L 294.61206 390.601367 
L 296.574874 389.895487 
L 298.537688 389.709984 
L 300.500503 390.150307 
L 302.463317 391.105419 
L 304.426131 392.303846 
L 306.388945 393.436462 
L 308.351759 394.240747 
L 310.314573 394.511732 
L 312.277387 394.110594 
L 314.240201 393.024816 
L 316.203015 391.426993 
L 318.165829 389.654013 
L 320.128643 388.105824 
L 322.091457 387.117457 
L 324.054271 386.865206 
L 326.017085 387.341204 
L 327.979899 388.386594 
L 329.942714 389.744914 
L 331.905528 391.104143 
L 333.868342 392.109729 
L 335.831156 392.337892 
L 337.79397 391.234273 
L 339.756784 388.034998 
L 341.719598 381.72196 
L 343.682412 371.06258 
L 345.645226 354.755192 
L 347.60804 331.631607 
L 349.570854 300.896565 
L 351.533668 262.502033 
L 353.496482 217.8214 
L 355.459296 170.494163 
L 357.422111 126.563149 
L 359.384925 92.497478 
L 361.347739 71.160748 
L 363.310553 59.938808 
L 365.273367 54.558993 
L 367.236181 52.56424 
L 369.198995 52.166921 
L 371.161809 51.75437 
L 373.124623 51.593123 
L 375.087437 54.987298 
L 377.050251 65.557534 
L 379.013065 82.38881 
L 380.975879 98.131353 
L 382.938693 105.743742 
L 384.901508 113.232485 
L 386.864322 127.478157 
L 388.827136 145.290144 
L 390.78995 160.73956 
L 392.752764 170.932908 
L 394.715578 176.462709 
L 396.678392 179.078172 
L 398.641206 180.11929 
L 400.60402 180.261784 
L 402.566834 179.714717 
L 404.529648 178.396656 
L 406.492462 176.028824 
L 408.455276 172.193333 
L 410.41809 166.395124 
L 412.380905 158.174724 
L 414.343719 147.345247 
L 416.306533 134.302236 
L 418.269347 120.127527 
L 420.232161 106.294494 
L 422.194975 94.163959 
L 424.157789 84.613954 
L 426.120603 77.95635 
L 428.083417 74.064256 
L 430.046231 72.561579 
L 432.009045 72.97774 
L 433.971859 74.842484 
L 435.934673 77.734184 
L 437.897487 81.299648 
L 439.860302 85.257912 
L 441.823116 89.394956 
L 443.78593 93.553657 
L 445.748744 97.622455 
L 447.711558 101.524709 
L 449.674372 105.209963 
L 451.637186 108.647199 
L 453.6 111.819821 
L 453.6 492.601114 
L 451.637186 491.72786 
L 449.674372 490.729358 
L 447.711558 489.595359 
L 445.748744 488.317796 
L 443.78593 486.892512 
L 441.823116 485.322022 
L 439.860302 483.620031 
L 437.897487 481.818645 
L 435.934673 479.978934 
L 433.971859 478.204342 
L 432.009045 476.653083 
L 430.046231 475.540575 
L 428.083417 475.117766 
L 426.120603 475.612242 
L 424.157789 477.13557 
L 422.194975 479.592302 
L 420.232161 482.656704 
L 418.269347 485.871662 
L 416.306533 488.843077 
L 414.343719 491.394437 
L 412.380905 493.545961 
L 410.41809 495.361486 
L 408.455276 496.844681 
L 406.492462 497.950707 
L 404.529648 498.625958 
L 402.566834 498.808422 
L 400.60402 498.388671 
L 398.641206 497.140629 
L 396.678392 494.611645 
L 394.715578 489.941785 
L 392.752764 481.55744 
L 390.78995 466.669139 
L 388.827136 440.839713 
L 386.864322 399.313439 
L 384.901508 342.471505 
L 382.938693 282.848944 
L 380.975879 243.714162 
L 379.013065 236.580209 
L 377.050251 245.546972 
L 375.087437 255.613736 
L 373.124623 264.134293 
L 371.161809 272.835181 
L 369.198995 280.45944 
L 367.236181 284.16287 
L 365.273367 284.937533 
L 363.310553 289.29427 
L 361.347739 304.235456 
L 359.384925 330.044864 
L 357.422111 360.802885 
L 355.459296 390.524467 
L 353.496482 416.057729 
L 351.533668 436.307088 
L 349.570854 451.080122 
L 347.60804 460.753237 
L 345.645226 466.250493 
L 343.682412 468.801428 
L 341.719598 469.54309 
L 339.756784 469.256179 
L 337.79397 468.34603 
L 335.831156 466.971752 
L 333.868342 465.186093 
L 331.905528 463.032902 
L 329.942714 460.60914 
L 327.979899 458.105396 
L 326.017085 455.809044 
L 324.054271 454.0482 
L 322.091457 453.0767 
L 320.128643 452.953611 
L 318.165829 453.502115 
L 316.203015 454.39136 
L 314.240201 455.295891 
L 312.277387 456.011129 
L 310.314573 456.438083 
L 308.351759 456.492148 
L 306.388945 456.078928 
L 304.426131 455.176363 
L 302.463317 453.917328 
L 300.500503 452.569178 
L 298.537688 451.420788 
L 296.574874 450.667941 
L 294.61206 450.369581 
L 292.649246 450.472859 
L 290.686432 450.858223 
L 288.723618 451.372844 
L 286.760804 451.856223 
L 284.79799 452.17499 
L 282.835176 452.278292 
L 280.872362 452.264239 
L 278.909548 452.406619 
L 276.946734 453.045428 
L 274.98392 454.332464 
L 273.021106 456.07009 
L 271.058291 457.710866 
L 269.095477 458.586131 
L 267.132663 458.904949 
L 265.169849 459.634676 
L 263.207035 460.67811 
L 261.244221 461.139089 
L 259.281407 460.338316 
L 257.318593 458.320812 
L 255.355779 455.867949 
L 253.392965 453.697351 
L 251.430151 452.374195 
L 249.467337 452.318947 
L 247.504523 453.378677 
L 245.541709 454.707982 
L 243.578894 455.426923 
L 241.61608 455.32409 
L 239.653266 454.850079 
L 237.690452 454.601478 
L 235.727638 454.806752 
L 233.764824 455.275477 
L 231.80201 455.879673 
L 229.839196 457.068396 
L 227.876382 460.545563 
L 225.913568 468.268026 
L 223.950754 472.129403 
L 221.98794 427.138332 
L 220.025126 344.400874 
L 218.062312 293.905618 
L 216.099497 283.699762 
L 214.136683 294.194465 
L 212.173869 320.061667 
L 210.211055 340.97568 
L 208.248241 339.150891 
L 206.285427 321.427001 
L 204.322613 301.435071 
L 202.359799 286.962094 
L 200.396985 280.676848 
L 198.434171 281.424648 
L 196.471357 284.546619 
L 194.508543 284.623673 
L 192.545729 279.33129 
L 190.582915 265.426724 
L 188.620101 245.271743 
L 186.657286 228.240173 
L 184.694472 214.669871 
L 182.731658 198.048267 
L 180.768844 179.157097 
L 178.80603 172.47274 
L 176.843216 187.081463 
L 174.880402 202.878468 
L 172.917588 209.684234 
L 170.954774 212.008889 
L 168.99196 212.761336 
L 167.029146 213.258266 
L 165.066332 213.909916 
L 163.103518 214.728473 
L 161.140704 215.643408 
L 159.177889 216.528177 
L 157.215075 217.204884 
L 155.252261 217.492867 
L 153.289447 217.273736 
L 151.326633 216.523318 
L 149.363819 215.297834 
L 147.401005 213.705389 
L 145.438191 211.897563 
L 143.475377 210.093084 
L 141.512563 208.616344 
L 139.549749 207.925169 
L 137.586935 208.626286 
L 135.624121 211.517236 
L 133.661307 217.662114 
L 131.698492 228.290109 
L 129.735678 244.250583 
L 127.772864 265.34564 
L 125.81005 290.219014 
L 123.847236 316.85205 
L 121.884422 343.167076 
L 119.921608 367.426296 
L 117.958794 388.436729 
L 115.99598 405.631288 
L 114.033166 419.022882 
L 112.070352 429.032365 
L 110.107538 436.274741 
L 108.144724 441.395351 
L 106.18191 444.98617 
L 104.219095 447.559535 
L 102.256281 449.545373 
L 100.293467 451.292138 
L 98.330653 453.065946 
L 96.367839 455.048609 
L 94.405025 457.336853 
L 92.442211 459.946894 
L 90.479397 462.828213 
L 88.516583 465.886275 
L 86.553769 469.008718 
L 84.590955 472.088069 
L 82.628141 475.036461 
L 80.665327 477.791532 
L 78.702513 480.315919 
L 76.739698 482.593099 
L 74.776884 484.622232 
L 72.81407 486.413147 
L 70.851256 487.982252 
L 68.888442 489.349399 
L 66.925628 490.535666 
L 64.962814 491.561883 
L 63 492.44772 
z
" style="fill:#cc3300;opacity:0.3;stroke:#cc3300;stroke-linejoin:miter;stroke-width:0.5;"/>
   </g>
   <g id="matplotlib.axis_1">
    <g id="xtick_1">
     <g id="line2d_1">
      <defs>
       <path d="M 0 0 
L 0 3.5 
" id="m0b5a7cabb0" style="stroke:#000000;stroke-width:0.8;"/>
      </defs>
      <g>
       <use style="stroke:#000000;stroke-width:0.8;" x="87.4125" xlink:href="#m0b5a7cabb0" y="441"/>
      </g>
     </g>
     <g id="text_1">
      <!-- −0.2 -->
      <defs>
       <path d="M 10.59375 35.5 
L 73.1875 35.5 
L 73.1875 27.203125 
L 10.59375 27.203125 
z
" id="DejaVuSans-2212"/>
       <path d="M 31.78125 66.40625 
Q 24.171875 66.40625 20.328125 58.90625 
Q 16.5 51.421875 16.5 36.375 
Q 16.5 21.390625 20.328125 13.890625 
Q 24.171875 6.390625 31.78125 6.390625 
Q 39.453125 6.390625 43.28125 13.890625 
Q 47.125 21.390625 47.125 36.375 
Q 47.125 51.421875 43.28125 58.90625 
Q 39.453125 66.40625 31.78125 66.40625 
z
M 31.78125 74.21875 
Q 44.046875 74.21875 50.515625 64.515625 
Q 56.984375 54.828125 56.984375 36.375 
Q 56.984375 17.96875 50.515625 8.265625 
Q 44.046875 -1.421875 31.78125 -1.421875 
Q 19.53125 -1.421875 13.0625 8.265625 
Q 6.59375 17.96875 6.59375 36.375 
Q 6.59375 54.828125 13.0625 64.515625 
Q 19.53125 74.21875 31.78125 74.21875 
z
" id="DejaVuSans-30"/>
       <path d="M 10.6875 12.40625 
L 21 12.40625 
L 21 0 
L 10.6875 0 
z
" id="DejaVuSans-2e"/>
       <path d="M 19.1875 8.296875 
L 53.609375 8.296875 
L 53.609375 0 
L 7.328125 0 
L 7.328125 8.296875 
Q 12.9375 14.109375 22.625 23.890625 
Q 32.328125 33.6875 34.8125 36.53125 
Q 39.546875 41.84375 41.421875 45.53125 
Q 43.3125 49.21875 43.3125 52.78125 
Q 43.3125 58.59375 39.234375 62.25 
Q 35.15625 65.921875 28.609375 65.921875 
Q 23.96875 65.921875 18.8125 64.3125 
Q 13.671875 62.703125 7.8125 59.421875 
L 7.8125 69.390625 
Q 13.765625 71.78125 18.9375 73 
Q 24.125 74.21875 28.421875 74.21875 
Q 39.75 74.21875 46.484375 68.546875 
Q 53.21875 62.890625 53.21875 53.421875 
Q 53.21875 48.921875 51.53125 44.890625 
Q 49.859375 40.875 45.40625 35.40625 
Q 44.1875 33.984375 37.640625 27.21875 
Q 31.109375 20.453125 19.1875 8.296875 
z
" id="DejaVuSans-32"/>
      </defs>
      <g transform="translate(75.271094 455.598437)scale(0.1 -0.1)">
       <use xlink:href="#DejaVuSans-2212"/>
       <use x="83.789062" xlink:href="#DejaVuSans-30"/>
       <use x="147.412109" xlink:href="#DejaVuSans-2e"/>
       <use x="179.199219" xlink:href="#DejaVuSans-32"/>
      </g>
     </g>
    </g>
    <g id="xtick_2">
     <g id="line2d_2">
      <g>
       <use style="stroke:#000000;stroke-width:0.8;" x="136.2375" xlink:href="#m0b5a7cabb0" y="441"/>
      </g>
     </g>
     <g id="text_2">
      <!-- 0.0 -->
      <g transform="translate(128.285938 455.598437)scale(0.1 -0.1)">
       <use xlink:href="#DejaVuSans-30"/>
       <use x="63.623047" xlink:href="#DejaVuSans-2e"/>
       <use x="95.410156" xlink:href="#DejaVuSans-30"/>
      </g>
     </g>
    </g>
    <g id="xtick_3">
     <g id="line2d_3">
      <g>
       <use style="stroke:#000000;stroke-width:0.8;" x="185.0625" xlink:href="#m0b5a7cabb0" y="441"/>
      </g>
     </g>
     <g id="text_3">
      <!-- 0.2 -->
      <g transform="translate(177.110938 455.598437)scale(0.1 -0.1)">
       <use xlink:href="#DejaVuSans-30"/>
       <use x="63.623047" xlink:href="#DejaVuSans-2e"/>
       <use x="95.410156" xlink:href="#DejaVuSans-32"/>
      </g>
     </g>
    </g>
    <g id="xtick_4">
     <g id="line2d_4">
      <g>
       <use style="stroke:#000000;stroke-width:0.8;" x="233.8875" xlink:href="#m0b5a7cabb0" y="441"/>
      </g>
     </g>
     <g id="text_4">
      <!-- 0.4 -->
      <defs>
       <path d="M 37.796875 64.3125 
L 12.890625 25.390625 
L 37.796875 25.390625 
z
M 35.203125 72.90625 
L 47.609375 72.90625 
L 47.609375 25.390625 
L 58.015625 25.390625 
L 58.015625 17.1875 
L 47.609375 17.1875 
L 47.609375 0 
L 37.796875 0 
L 37.796875 17.1875 
L 4.890625 17.1875 
L 4.890625 26.703125 
z
" id="DejaVuSans-34"/>
      </defs>
      <g transform="translate(225.935938 455.598437)scale(0.1 -0.1)">
       <use xlink:href="#DejaVuSans-30"/>
       <use x="63.623047" xlink:href="#DejaVuSans-2e"/>
       <use x="95.410156" xlink:href="#DejaVuSans-34"/>
      </g>
     </g>
    </g>
    <g id="xtick_5">
     <g id="line2d_5">
      <g>
       <use style="stroke:#000000;stroke-width:0.8;" x="282.7125" xlink:href="#m0b5a7cabb0" y="441"/>
      </g>
     </g>
     <g id="text_5">
      <!-- 0.6 -->
      <defs>
       <path d="M 33.015625 40.375 
Q 26.375 40.375 22.484375 35.828125 
Q 18.609375 31.296875 18.609375 23.390625 
Q 18.609375 15.53125 22.484375 10.953125 
Q 26.375 6.390625 33.015625 6.390625 
Q 39.65625 6.390625 43.53125 10.953125 
Q 47.40625 15.53125 47.40625 23.390625 
Q 47.40625 31.296875 43.53125 35.828125 
Q 39.65625 40.375 33.015625 40.375 
z
M 52.59375 71.296875 
L 52.59375 62.3125 
Q 48.875 64.0625 45.09375 64.984375 
Q 41.3125 65.921875 37.59375 65.921875 
Q 27.828125 65.921875 22.671875 59.328125 
Q 17.53125 52.734375 16.796875 39.40625 
Q 19.671875 43.65625 24.015625 45.921875 
Q 28.375 48.1875 33.59375 48.1875 
Q 44.578125 48.1875 50.953125 41.515625 
Q 57.328125 34.859375 57.328125 23.390625 
Q 57.328125 12.15625 50.6875 5.359375 
Q 44.046875 -1.421875 33.015625 -1.421875 
Q 20.359375 -1.421875 13.671875 8.265625 
Q 6.984375 17.96875 6.984375 36.375 
Q 6.984375 53.65625 15.1875 63.9375 
Q 23.390625 74.21875 37.203125 74.21875 
Q 40.921875 74.21875 44.703125 73.484375 
Q 48.484375 72.75 52.59375 71.296875 
z
" id="DejaVuSans-36"/>
      </defs>
      <g transform="translate(274.760937 455.598437)scale(0.1 -0.1)">
       <use xlink:href="#DejaVuSans-30"/>
       <use x="63.623047" xlink:href="#DejaVuSans-2e"/>
       <use x="95.410156" xlink:href="#DejaVuSans-36"/>
      </g>
     </g>
    </g>
    <g id="xtick_6">
     <g id="line2d_6">
      <g>
       <use style="stroke:#000000;stroke-width:0.8;" x="331.5375" xlink:href="#m0b5a7cabb0" y="441"/>
      </g>
     </g>
     <g id="text_6">
      <!-- 0.8 -->
      <defs>
       <path d="M 31.78125 34.625 
Q 24.75 34.625 20.71875 30.859375 
Q 16.703125 27.09375 16.703125 20.515625 
Q 16.703125 13.921875 20.71875 10.15625 
Q 24.75 6.390625 31.78125 6.390625 
Q 38.8125 6.390625 42.859375 10.171875 
Q 46.921875 13.96875 46.921875 20.515625 
Q 46.921875 27.09375 42.890625 30.859375 
Q 38.875 34.625 31.78125 34.625 
z
M 21.921875 38.8125 
Q 15.578125 40.375 12.03125 44.71875 
Q 8.5 49.078125 8.5 55.328125 
Q 8.5 64.0625 14.71875 69.140625 
Q 20.953125 74.21875 31.78125 74.21875 
Q 42.671875 74.21875 48.875 69.140625 
Q 55.078125 64.0625 55.078125 55.328125 
Q 55.078125 49.078125 51.53125 44.71875 
Q 48 40.375 41.703125 38.8125 
Q 48.828125 37.15625 52.796875 32.3125 
Q 56.78125 27.484375 56.78125 20.515625 
Q 56.78125 9.90625 50.3125 4.234375 
Q 43.84375 -1.421875 31.78125 -1.421875 
Q 19.734375 -1.421875 13.25 4.234375 
Q 6.78125 9.90625 6.78125 20.515625 
Q 6.78125 27.484375 10.78125 32.3125 
Q 14.796875 37.15625 21.921875 38.8125 
z
M 18.3125 54.390625 
Q 18.3125 48.734375 21.84375 45.5625 
Q 25.390625 42.390625 31.78125 42.390625 
Q 38.140625 42.390625 41.71875 45.5625 
Q 45.3125 48.734375 45.3125 54.390625 
Q 45.3125 60.0625 41.71875 63.234375 
Q 38.140625 66.40625 31.78125 66.40625 
Q 25.390625 66.40625 21.84375 63.234375 
Q 18.3125 60.0625 18.3125 54.390625 
z
" id="DejaVuSans-38"/>
      </defs>
      <g transform="translate(323.585938 455.598437)scale(0.1 -0.1)">
       <use xlink:href="#DejaVuSans-30"/>
       <use x="63.623047" xlink:href="#DejaVuSans-2e"/>
       <use x="95.410156" xlink:href="#DejaVuSans-38"/>
      </g>
     </g>
    </g>
    <g id="xtick_7">
     <g id="line2d_7">
      <g>
       <use style="stroke:#000000;stroke-width:0.8;" x="380.3625" xlink:href="#m0b5a7cabb0" y="441"/>
      </g>
     </g>
     <g id="text_7">
      <!-- 1.0 -->
      <defs>
       <path d="M 12.40625 8.296875 
L 28.515625 8.296875 
L 28.515625 63.921875 
L 10.984375 60.40625 
L 10.984375 69.390625 
L 28.421875 72.90625 
L 38.28125 72.90625 
L 38.28125 8.296875 
L 54.390625 8.296875 
L 54.390625 0 
L 12.40625 0 
z
" id="DejaVuSans-31"/>
      </defs>
      <g transform="translate(372.410937 455.598437)scale(0.1 -0.1)">
       <use xlink:href="#DejaVuSans-31"/>
       <use x="63.623047" xlink:href="#DejaVuSans-2e"/>
       <use x="95.410156" xlink:href="#DejaVuSans-30"/>
      </g>
     </g>
    </g>
    <g id="xtick_8">
     <g id="line2d_8">
      <g>
       <use style="stroke:#000000;stroke-width:0.8;" x="429.1875" xlink:href="#m0b5a7cabb0" y="441"/>
      </g>
     </g>
     <g id="text_8">
      <!-- 1.2 -->
      <g transform="translate(421.235938 455.598437)scale(0.1 -0.1)">
       <use xlink:href="#DejaVuSans-31"/>
       <use x="63.623047" xlink:href="#DejaVuSans-2e"/>
       <use x="95.410156" xlink:href="#DejaVuSans-32"/>
      </g>
     </g>
    </g>
    <g id="text_9">
     <!-- time -->
     <defs>
      <path d="M 18.3125 70.21875 
L 18.3125 54.6875 
L 36.8125 54.6875 
L 36.8125 47.703125 
L 18.3125 47.703125 
L 18.3125 18.015625 
Q 18.3125 11.328125 20.140625 9.421875 
Q 21.96875 7.515625 27.59375 7.515625 
L 36.8125 7.515625 
L 36.8125 0 
L 27.59375 0 
Q 17.1875 0 13.234375 3.875 
Q 9.28125 7.765625 9.28125 18.015625 
L 9.28125 47.703125 
L 2.6875 47.703125 
L 2.6875 54.6875 
L 9.28125 54.6875 
L 9.28125 70.21875 
z
" id="DejaVuSans-74"/>
      <path d="M 9.421875 54.6875 
L 18.40625 54.6875 
L 18.40625 0 
L 9.421875 0 
z
M 9.421875 75.984375 
L 18.40625 75.984375 
L 18.40625 64.59375 
L 9.421875 64.59375 
z
" id="DejaVuSans-69"/>
      <path d="M 52 44.1875 
Q 55.375 50.25 60.0625 53.125 
Q 64.75 56 71.09375 56 
Q 79.640625 56 84.28125 50.015625 
Q 88.921875 44.046875 88.921875 33.015625 
L 88.921875 0 
L 79.890625 0 
L 79.890625 32.71875 
Q 79.890625 40.578125 77.09375 44.375 
Q 74.3125 48.1875 68.609375 48.1875 
Q 61.625 48.1875 57.5625 43.546875 
Q 53.515625 38.921875 53.515625 30.90625 
L 53.515625 0 
L 44.484375 0 
L 44.484375 32.71875 
Q 44.484375 40.625 41.703125 44.40625 
Q 38.921875 48.1875 33.109375 48.1875 
Q 26.21875 48.1875 22.15625 43.53125 
Q 18.109375 38.875 18.109375 30.90625 
L 18.109375 0 
L 9.078125 0 
L 9.078125 54.6875 
L 18.109375 54.6875 
L 18.109375 46.1875 
Q 21.1875 51.21875 25.484375 53.609375 
Q 29.78125 56 35.6875 56 
Q 41.65625 56 45.828125 52.96875 
Q 50 49.953125 52 44.1875 
z
" id="DejaVuSans-6d"/>
      <path d="M 56.203125 29.59375 
L 56.203125 25.203125 
L 14.890625 25.203125 
Q 15.484375 15.921875 20.484375 11.0625 
Q 25.484375 6.203125 34.421875 6.203125 
Q 39.59375 6.203125 44.453125 7.46875 
Q 49.3125 8.734375 54.109375 11.28125 
L 54.109375 2.78125 
Q 49.265625 0.734375 44.1875 -0.34375 
Q 39.109375 -1.421875 33.890625 -1.421875 
Q 20.796875 -1.421875 13.15625 6.1875 
Q 5.515625 13.8125 5.515625 26.8125 
Q 5.515625 40.234375 12.765625 48.109375 
Q 20.015625 56 32.328125 56 
Q 43.359375 56 49.78125 48.890625 
Q 56.203125 41.796875 56.203125 29.59375 
z
M 47.21875 32.234375 
Q 47.125 39.59375 43.09375 43.984375 
Q 39.0625 48.390625 32.421875 48.390625 
Q 24.90625 48.390625 20.390625 44.140625 
Q 15.875 39.890625 15.1875 32.171875 
z
" id="DejaVuSans-65"/>
     </defs>
     <g transform="translate(235.707813 476.875)scale(0.2 -0.2)">
      <use xlink:href="#DejaVuSans-74"/>
      <use x="39.208984" xlink:href="#DejaVuSans-69"/>
      <use x="66.992188" xlink:href="#DejaVuSans-6d"/>
      <use x="164.404297" xlink:href="#DejaVuSans-65"/>
     </g>
    </g>
   </g>
   <g id="matplotlib.axis_2">
    <g id="ytick_1">
     <g id="line2d_9">
      <defs>
       <path d="M 0 0 
L -3.5 0 
" id="m960d922300" style="stroke:#000000;stroke-width:0.8;"/>
      </defs>
      <g>
       <use style="stroke:#000000;stroke-width:0.8;" x="63" xlink:href="#m960d922300" y="428.645455"/>
      </g>
     </g>
     <g id="text_10">
      <!-- −0.5 -->
      <defs>
       <path d="M 10.796875 72.90625 
L 49.515625 72.90625 
L 49.515625 64.59375 
L 19.828125 64.59375 
L 19.828125 46.734375 
Q 21.96875 47.46875 24.109375 47.828125 
Q 26.265625 48.1875 28.421875 48.1875 
Q 40.625 48.1875 47.75 41.5 
Q 54.890625 34.8125 54.890625 23.390625 
Q 54.890625 11.625 47.5625 5.09375 
Q 40.234375 -1.421875 26.90625 -1.421875 
Q 22.3125 -1.421875 17.546875 -0.640625 
Q 12.796875 0.140625 7.71875 1.703125 
L 7.71875 11.625 
Q 12.109375 9.234375 16.796875 8.0625 
Q 21.484375 6.890625 26.703125 6.890625 
Q 35.15625 6.890625 40.078125 11.328125 
Q 45.015625 15.765625 45.015625 23.390625 
Q 45.015625 31 40.078125 35.4375 
Q 35.15625 39.890625 26.703125 39.890625 
Q 22.75 39.890625 18.8125 39.015625 
Q 14.890625 38.140625 10.796875 36.28125 
z
" id="DejaVuSans-35"/>
      </defs>
      <g transform="translate(31.717187 432.444673)scale(0.1 -0.1)">
       <use xlink:href="#DejaVuSans-2212"/>
       <use x="83.789062" xlink:href="#DejaVuSans-30"/>
       <use x="147.412109" xlink:href="#DejaVuSans-2e"/>
       <use x="179.199219" xlink:href="#DejaVuSans-35"/>
      </g>
     </g>
    </g>
    <g id="ytick_2">
     <g id="line2d_10">
      <g>
       <use style="stroke:#000000;stroke-width:0.8;" x="63" xlink:href="#m960d922300" y="354.518182"/>
      </g>
     </g>
     <g id="text_11">
      <!-- 0.0 -->
      <g transform="translate(40.096875 358.317401)scale(0.1 -0.1)">
       <use xlink:href="#DejaVuSans-30"/>
       <use x="63.623047" xlink:href="#DejaVuSans-2e"/>
       <use x="95.410156" xlink:href="#DejaVuSans-30"/>
      </g>
     </g>
    </g>
    <g id="ytick_3">
     <g id="line2d_11">
      <g>
       <use style="stroke:#000000;stroke-width:0.8;" x="63" xlink:href="#m960d922300" y="280.390909"/>
      </g>
     </g>
     <g id="text_12">
      <!-- 0.5 -->
      <g transform="translate(40.096875 284.190128)scale(0.1 -0.1)">
       <use xlink:href="#DejaVuSans-30"/>
       <use x="63.623047" xlink:href="#DejaVuSans-2e"/>
       <use x="95.410156" xlink:href="#DejaVuSans-35"/>
      </g>
     </g>
    </g>
    <g id="ytick_4">
     <g id="line2d_12">
      <g>
       <use style="stroke:#000000;stroke-width:0.8;" x="63" xlink:href="#m960d922300" y="206.263636"/>
      </g>
     </g>
     <g id="text_13">
      <!-- 1.0 -->
      <g transform="translate(40.096875 210.062855)scale(0.1 -0.1)">
       <use xlink:href="#DejaVuSans-31"/>
       <use x="63.623047" xlink:href="#DejaVuSans-2e"/>
       <use x="95.410156" xlink:href="#DejaVuSans-30"/>
      </g>
     </g>
    </g>
    <g id="ytick_5">
     <g id="line2d_13">
      <g>
       <use style="stroke:#000000;stroke-width:0.8;" x="63" xlink:href="#m960d922300" y="132.136364"/>
      </g>
     </g>
     <g id="text_14">
      <!-- 1.5 -->
      <g transform="translate(40.096875 135.935582)scale(0.1 -0.1)">
       <use xlink:href="#DejaVuSans-31"/>
       <use x="63.623047" xlink:href="#DejaVuSans-2e"/>
       <use x="95.410156" xlink:href="#DejaVuSans-35"/>
      </g>
     </g>
    </g>
    <g id="text_15">
     <!-- signal strength -->
     <defs>
      <path d="M 44.28125 53.078125 
L 44.28125 44.578125 
Q 40.484375 46.53125 36.375 47.5 
Q 32.28125 48.484375 27.875 48.484375 
Q 21.1875 48.484375 17.84375 46.4375 
Q 14.5 44.390625 14.5 40.28125 
Q 14.5 37.15625 16.890625 35.375 
Q 19.28125 33.59375 26.515625 31.984375 
L 29.59375 31.296875 
Q 39.15625 29.25 43.1875 25.515625 
Q 47.21875 21.78125 47.21875 15.09375 
Q 47.21875 7.46875 41.1875 3.015625 
Q 35.15625 -1.421875 24.609375 -1.421875 
Q 20.21875 -1.421875 15.453125 -0.5625 
Q 10.6875 0.296875 5.421875 2 
L 5.421875 11.28125 
Q 10.40625 8.6875 15.234375 7.390625 
Q 20.0625 6.109375 24.8125 6.109375 
Q 31.15625 6.109375 34.5625 8.28125 
Q 37.984375 10.453125 37.984375 14.40625 
Q 37.984375 18.0625 35.515625 20.015625 
Q 33.0625 21.96875 24.703125 23.78125 
L 21.578125 24.515625 
Q 13.234375 26.265625 9.515625 29.90625 
Q 5.8125 33.546875 5.8125 39.890625 
Q 5.8125 47.609375 11.28125 51.796875 
Q 16.75 56 26.8125 56 
Q 31.78125 56 36.171875 55.265625 
Q 40.578125 54.546875 44.28125 53.078125 
z
" id="DejaVuSans-73"/>
      <path d="M 45.40625 27.984375 
Q 45.40625 37.75 41.375 43.109375 
Q 37.359375 48.484375 30.078125 48.484375 
Q 22.859375 48.484375 18.828125 43.109375 
Q 14.796875 37.75 14.796875 27.984375 
Q 14.796875 18.265625 18.828125 12.890625 
Q 22.859375 7.515625 30.078125 7.515625 
Q 37.359375 7.515625 41.375 12.890625 
Q 45.40625 18.265625 45.40625 27.984375 
z
M 54.390625 6.78125 
Q 54.390625 -7.171875 48.1875 -13.984375 
Q 42 -20.796875 29.203125 -20.796875 
Q 24.46875 -20.796875 20.265625 -20.09375 
Q 16.0625 -19.390625 12.109375 -17.921875 
L 12.109375 -9.1875 
Q 16.0625 -11.328125 19.921875 -12.34375 
Q 23.78125 -13.375 27.78125 -13.375 
Q 36.625 -13.375 41.015625 -8.765625 
Q 45.40625 -4.15625 45.40625 5.171875 
L 45.40625 9.625 
Q 42.625 4.78125 38.28125 2.390625 
Q 33.9375 0 27.875 0 
Q 17.828125 0 11.671875 7.65625 
Q 5.515625 15.328125 5.515625 27.984375 
Q 5.515625 40.671875 11.671875 48.328125 
Q 17.828125 56 27.875 56 
Q 33.9375 56 38.28125 53.609375 
Q 42.625 51.21875 45.40625 46.390625 
L 45.40625 54.6875 
L 54.390625 54.6875 
z
" id="DejaVuSans-67"/>
      <path d="M 54.890625 33.015625 
L 54.890625 0 
L 45.90625 0 
L 45.90625 32.71875 
Q 45.90625 40.484375 42.875 44.328125 
Q 39.84375 48.1875 33.796875 48.1875 
Q 26.515625 48.1875 22.3125 43.546875 
Q 18.109375 38.921875 18.109375 30.90625 
L 18.109375 0 
L 9.078125 0 
L 9.078125 54.6875 
L 18.109375 54.6875 
L 18.109375 46.1875 
Q 21.34375 51.125 25.703125 53.5625 
Q 30.078125 56 35.796875 56 
Q 45.21875 56 50.046875 50.171875 
Q 54.890625 44.34375 54.890625 33.015625 
z
" id="DejaVuSans-6e"/>
      <path d="M 34.28125 27.484375 
Q 23.390625 27.484375 19.1875 25 
Q 14.984375 22.515625 14.984375 16.5 
Q 14.984375 11.71875 18.140625 8.90625 
Q 21.296875 6.109375 26.703125 6.109375 
Q 34.1875 6.109375 38.703125 11.40625 
Q 43.21875 16.703125 43.21875 25.484375 
L 43.21875 27.484375 
z
M 52.203125 31.203125 
L 52.203125 0 
L 43.21875 0 
L 43.21875 8.296875 
Q 40.140625 3.328125 35.546875 0.953125 
Q 30.953125 -1.421875 24.3125 -1.421875 
Q 15.921875 -1.421875 10.953125 3.296875 
Q 6 8.015625 6 15.921875 
Q 6 25.140625 12.171875 29.828125 
Q 18.359375 34.515625 30.609375 34.515625 
L 43.21875 34.515625 
L 43.21875 35.40625 
Q 43.21875 41.609375 39.140625 45 
Q 35.0625 48.390625 27.6875 48.390625 
Q 23 48.390625 18.546875 47.265625 
Q 14.109375 46.140625 10.015625 43.890625 
L 10.015625 52.203125 
Q 14.9375 54.109375 19.578125 55.046875 
Q 24.21875 56 28.609375 56 
Q 40.484375 56 46.34375 49.84375 
Q 52.203125 43.703125 52.203125 31.203125 
z
" id="DejaVuSans-61"/>
      <path d="M 9.421875 75.984375 
L 18.40625 75.984375 
L 18.40625 0 
L 9.421875 0 
z
" id="DejaVuSans-6c"/>
      <path id="DejaVuSans-20"/>
      <path d="M 41.109375 46.296875 
Q 39.59375 47.171875 37.8125 47.578125 
Q 36.03125 48 33.890625 48 
Q 26.265625 48 22.1875 43.046875 
Q 18.109375 38.09375 18.109375 28.8125 
L 18.109375 0 
L 9.078125 0 
L 9.078125 54.6875 
L 18.109375 54.6875 
L 18.109375 46.1875 
Q 20.953125 51.171875 25.484375 53.578125 
Q 30.03125 56 36.53125 56 
Q 37.453125 56 38.578125 55.875 
Q 39.703125 55.765625 41.0625 55.515625 
z
" id="DejaVuSans-72"/>
      <path d="M 54.890625 33.015625 
L 54.890625 0 
L 45.90625 0 
L 45.90625 32.71875 
Q 45.90625 40.484375 42.875 44.328125 
Q 39.84375 48.1875 33.796875 48.1875 
Q 26.515625 48.1875 22.3125 43.546875 
Q 18.109375 38.921875 18.109375 30.90625 
L 18.109375 0 
L 9.078125 0 
L 9.078125 75.984375 
L 18.109375 75.984375 
L 18.109375 46.1875 
Q 21.34375 51.125 25.703125 53.5625 
Q 30.078125 56 35.796875 56 
Q 45.21875 56 50.046875 50.171875 
Q 54.890625 44.34375 54.890625 33.015625 
z
" id="DejaVuSans-68"/>
     </defs>
     <g transform="translate(23.557812 325.832188)rotate(-90)scale(0.2 -0.2)">
      <use xlink:href="#DejaVuSans-73"/>
      <use x="52.099609" xlink:href="#DejaVuSans-69"/>
      <use x="79.882812" xlink:href="#DejaVuSans-67"/>
      <use x="143.359375" xlink:href="#DejaVuSans-6e"/>
      <use x="206.738281" xlink:href="#DejaVuSans-61"/>
      <use x="268.017578" xlink:href="#DejaVuSans-6c"/>
      <use x="295.800781" xlink:href="#DejaVuSans-20"/>
      <use x="327.587891" xlink:href="#DejaVuSans-73"/>
      <use x="379.6875" xlink:href="#DejaVuSans-74"/>
      <use x="418.896484" xlink:href="#DejaVuSans-72"/>
      <use x="459.978516" xlink:href="#DejaVuSans-65"/>
      <use x="521.501953" xlink:href="#DejaVuSans-6e"/>
      <use x="584.880859" xlink:href="#DejaVuSans-67"/>
      <use x="648.357422" xlink:href="#DejaVuSans-74"/>
      <use x="687.566406" xlink:href="#DejaVuSans-68"/>
     </g>
    </g>
   </g>
   <g id="line2d_14">
    <defs>
     <path d="M 0 1.25 
C 0.331504 1.25 0.649475 1.118292 0.883883 0.883883 
C 1.118292 0.649475 1.25 0.331504 1.25 0 
C 1.25 -0.331504 1.118292 -0.649475 0.883883 -0.883883 
C 0.649475 -1.118292 0.331504 -1.25 0 -1.25 
C -0.331504 -1.25 -0.649475 -1.118292 -0.883883 -0.883883 
C -1.118292 -0.649475 -1.25 -0.331504 -1.25 0 
C -1.25 0.331504 -1.118292 0.649475 -0.883883 0.883883 
C -0.649475 1.118292 -0.331504 1.25 0 1.25 
z
" id="ma6040f9b01" style="stroke:#ff0000;"/>
    </defs>
    <g clip-path="url(#pabfac29df3)">
     <use style="fill:#ff0000;stroke:#ff0000;" x="136.2375" xlink:href="#ma6040f9b01" y="127.194545"/>
     <use style="fill:#ff0000;stroke:#ff0000;" x="137.378271" xlink:href="#ma6040f9b01" y="127.194545"/>
     <use style="fill:#ff0000;stroke:#ff0000;" x="138.519042" xlink:href="#ma6040f9b01" y="127.194545"/>
     <use style="fill:#ff0000;stroke:#ff0000;" x="139.659813" xlink:href="#ma6040f9b01" y="127.194545"/>
     <use style="fill:#ff0000;stroke:#ff0000;" x="140.800584" xlink:href="#ma6040f9b01" y="137.078182"/>
     <use style="fill:#ff0000;stroke:#ff0000;" x="141.941355" xlink:href="#ma6040f9b01" y="146.961818"/>
     <use style="fill:#ff0000;stroke:#ff0000;" x="143.082126" xlink:href="#ma6040f9b01" y="156.845455"/>
     <use style="fill:#ff0000;stroke:#ff0000;" x="144.222897" xlink:href="#ma6040f9b01" y="137.078182"/>
     <use style="fill:#ff0000;stroke:#ff0000;" x="145.363668" xlink:href="#ma6040f9b01" y="146.961818"/>
     <use style="fill:#ff0000;stroke:#ff0000;" x="146.504439" xlink:href="#ma6040f9b01" y="156.845455"/>
     <use style="fill:#ff0000;stroke:#ff0000;" x="147.64521" xlink:href="#ma6040f9b01" y="156.845455"/>
     <use style="fill:#ff0000;stroke:#ff0000;" x="148.785981" xlink:href="#ma6040f9b01" y="156.845455"/>
     <use style="fill:#ff0000;stroke:#ff0000;" x="149.926752" xlink:href="#ma6040f9b01" y="156.845455"/>
     <use style="fill:#ff0000;stroke:#ff0000;" x="151.067523" xlink:href="#ma6040f9b01" y="146.961818"/>
     <use style="fill:#ff0000;stroke:#ff0000;" x="152.208294" xlink:href="#ma6040f9b01" y="186.496364"/>
     <use style="fill:#ff0000;stroke:#ff0000;" x="153.349065" xlink:href="#ma6040f9b01" y="186.496364"/>
     <use style="fill:#ff0000;stroke:#ff0000;" x="154.489836" xlink:href="#ma6040f9b01" y="176.612727"/>
     <use style="fill:#ff0000;stroke:#ff0000;" x="155.630607" xlink:href="#ma6040f9b01" y="156.845455"/>
     <use style="fill:#ff0000;stroke:#ff0000;" x="156.771379" xlink:href="#ma6040f9b01" y="166.729091"/>
     <use style="fill:#ff0000;stroke:#ff0000;" x="157.91215" xlink:href="#ma6040f9b01" y="186.496364"/>
     <use style="fill:#ff0000;stroke:#ff0000;" x="159.052921" xlink:href="#ma6040f9b01" y="156.845455"/>
     <use style="fill:#ff0000;stroke:#ff0000;" x="160.193692" xlink:href="#ma6040f9b01" y="146.961818"/>
     <use style="fill:#ff0000;stroke:#ff0000;" x="161.334463" xlink:href="#ma6040f9b01" y="127.194545"/>
     <use style="fill:#ff0000;stroke:#ff0000;" x="162.475234" xlink:href="#ma6040f9b01" y="127.194545"/>
     <use style="fill:#ff0000;stroke:#ff0000;" x="163.616005" xlink:href="#ma6040f9b01" y="137.078182"/>
     <use style="fill:#ff0000;stroke:#ff0000;" x="164.756776" xlink:href="#ma6040f9b01" y="137.078182"/>
     <use style="fill:#ff0000;stroke:#ff0000;" x="165.897547" xlink:href="#ma6040f9b01" y="166.729091"/>
     <use style="fill:#ff0000;stroke:#ff0000;" x="167.038318" xlink:href="#ma6040f9b01" y="156.845455"/>
     <use style="fill:#ff0000;stroke:#ff0000;" x="168.179089" xlink:href="#ma6040f9b01" y="97.543636"/>
     <use style="fill:#ff0000;stroke:#ff0000;" x="169.31986" xlink:href="#ma6040f9b01" y="127.194545"/>
     <use style="fill:#ff0000;stroke:#ff0000;" x="170.460631" xlink:href="#ma6040f9b01" y="127.194545"/>
     <use style="fill:#ff0000;stroke:#ff0000;" x="171.601402" xlink:href="#ma6040f9b01" y="146.961818"/>
     <use style="fill:#ff0000;stroke:#ff0000;" x="172.742173" xlink:href="#ma6040f9b01" y="156.845455"/>
     <use style="fill:#ff0000;stroke:#ff0000;" x="173.882944" xlink:href="#ma6040f9b01" y="146.961818"/>
     <use style="fill:#ff0000;stroke:#ff0000;" x="175.023715" xlink:href="#ma6040f9b01" y="107.427273"/>
     <use style="fill:#ff0000;stroke:#ff0000;" x="176.164486" xlink:href="#ma6040f9b01" y="97.543636"/>
     <use style="fill:#ff0000;stroke:#ff0000;" x="177.305257" xlink:href="#ma6040f9b01" y="107.427273"/>
     <use style="fill:#ff0000;stroke:#ff0000;" x="178.446028" xlink:href="#ma6040f9b01" y="107.427273"/>
     <use style="fill:#ff0000;stroke:#ff0000;" x="179.586799" xlink:href="#ma6040f9b01" y="97.543636"/>
     <use style="fill:#ff0000;stroke:#ff0000;" x="180.72757" xlink:href="#ma6040f9b01" y="107.427273"/>
     <use style="fill:#ff0000;stroke:#ff0000;" x="181.868341" xlink:href="#ma6040f9b01" y="77.776364"/>
     <use style="fill:#ff0000;stroke:#ff0000;" x="183.009112" xlink:href="#ma6040f9b01" y="107.427273"/>
     <use style="fill:#ff0000;stroke:#ff0000;" x="184.149883" xlink:href="#ma6040f9b01" y="156.845455"/>
     <use style="fill:#ff0000;stroke:#ff0000;" x="185.290654" xlink:href="#ma6040f9b01" y="166.729091"/>
     <use style="fill:#ff0000;stroke:#ff0000;" x="186.431425" xlink:href="#ma6040f9b01" y="156.845455"/>
     <use style="fill:#ff0000;stroke:#ff0000;" x="187.572196" xlink:href="#ma6040f9b01" y="107.427273"/>
     <use style="fill:#ff0000;stroke:#ff0000;" x="188.712967" xlink:href="#ma6040f9b01" y="176.612727"/>
     <use style="fill:#ff0000;stroke:#ff0000;" x="189.853738" xlink:href="#ma6040f9b01" y="216.147273"/>
     <use style="fill:#ff0000;stroke:#ff0000;" x="190.994509" xlink:href="#ma6040f9b01" y="176.612727"/>
     <use style="fill:#ff0000;stroke:#ff0000;" x="192.13528" xlink:href="#ma6040f9b01" y="186.496364"/>
     <use style="fill:#ff0000;stroke:#ff0000;" x="193.276051" xlink:href="#ma6040f9b01" y="255.681818"/>
     <use style="fill:#ff0000;stroke:#ff0000;" x="194.416822" xlink:href="#ma6040f9b01" y="196.38"/>
     <use style="fill:#ff0000;stroke:#ff0000;" x="195.557593" xlink:href="#ma6040f9b01" y="196.38"/>
     <use style="fill:#ff0000;stroke:#ff0000;" x="196.698364" xlink:href="#ma6040f9b01" y="206.263636"/>
     <use style="fill:#ff0000;stroke:#ff0000;" x="197.839136" xlink:href="#ma6040f9b01" y="216.147273"/>
     <use style="fill:#ff0000;stroke:#ff0000;" x="198.979907" xlink:href="#ma6040f9b01" y="206.263636"/>
     <use style="fill:#ff0000;stroke:#ff0000;" x="200.120678" xlink:href="#ma6040f9b01" y="235.914545"/>
     <use style="fill:#ff0000;stroke:#ff0000;" x="201.261449" xlink:href="#ma6040f9b01" y="216.147273"/>
     <use style="fill:#ff0000;stroke:#ff0000;" x="202.40222" xlink:href="#ma6040f9b01" y="206.263636"/>
     <use style="fill:#ff0000;stroke:#ff0000;" x="203.542991" xlink:href="#ma6040f9b01" y="245.798182"/>
     <use style="fill:#ff0000;stroke:#ff0000;" x="204.683762" xlink:href="#ma6040f9b01" y="216.147273"/>
     <use style="fill:#ff0000;stroke:#ff0000;" x="205.824533" xlink:href="#ma6040f9b01" y="206.263636"/>
     <use style="fill:#ff0000;stroke:#ff0000;" x="206.965304" xlink:href="#ma6040f9b01" y="226.030909"/>
     <use style="fill:#ff0000;stroke:#ff0000;" x="208.106075" xlink:href="#ma6040f9b01" y="235.914545"/>
     <use style="fill:#ff0000;stroke:#ff0000;" x="209.246846" xlink:href="#ma6040f9b01" y="226.030909"/>
     <use style="fill:#ff0000;stroke:#ff0000;" x="210.387617" xlink:href="#ma6040f9b01" y="255.681818"/>
     <use style="fill:#ff0000;stroke:#ff0000;" x="211.528388" xlink:href="#ma6040f9b01" y="403.936364"/>
     <use style="fill:#ff0000;stroke:#ff0000;" x="212.669159" xlink:href="#ma6040f9b01" y="403.936364"/>
     <use style="fill:#ff0000;stroke:#ff0000;" x="213.80993" xlink:href="#ma6040f9b01" y="403.936364"/>
     <use style="fill:#ff0000;stroke:#ff0000;" x="214.950701" xlink:href="#ma6040f9b01" y="275.449091"/>
     <use style="fill:#ff0000;stroke:#ff0000;" x="216.091472" xlink:href="#ma6040f9b01" y="255.681818"/>
     <use style="fill:#ff0000;stroke:#ff0000;" x="217.232243" xlink:href="#ma6040f9b01" y="255.681818"/>
     <use style="fill:#ff0000;stroke:#ff0000;" x="218.373014" xlink:href="#ma6040f9b01" y="245.798182"/>
     <use style="fill:#ff0000;stroke:#ff0000;" x="219.513785" xlink:href="#ma6040f9b01" y="314.983636"/>
     <use style="fill:#ff0000;stroke:#ff0000;" x="220.654556" xlink:href="#ma6040f9b01" y="314.983636"/>
     <use style="fill:#ff0000;stroke:#ff0000;" x="221.795327" xlink:href="#ma6040f9b01" y="314.983636"/>
     <use style="fill:#ff0000;stroke:#ff0000;" x="222.936098" xlink:href="#ma6040f9b01" y="314.983636"/>
     <use style="fill:#ff0000;stroke:#ff0000;" x="224.076869" xlink:href="#ma6040f9b01" y="423.703636"/>
     <use style="fill:#ff0000;stroke:#ff0000;" x="225.21764" xlink:href="#ma6040f9b01" y="423.703636"/>
     <use style="fill:#ff0000;stroke:#ff0000;" x="226.358411" xlink:href="#ma6040f9b01" y="423.703636"/>
     <use style="fill:#ff0000;stroke:#ff0000;" x="227.499182" xlink:href="#ma6040f9b01" y="423.703636"/>
     <use style="fill:#ff0000;stroke:#ff0000;" x="228.639953" xlink:href="#ma6040f9b01" y="423.703636"/>
     <use style="fill:#ff0000;stroke:#ff0000;" x="229.780724" xlink:href="#ma6040f9b01" y="423.703636"/>
     <use style="fill:#ff0000;stroke:#ff0000;" x="230.921495" xlink:href="#ma6040f9b01" y="423.703636"/>
     <use style="fill:#ff0000;stroke:#ff0000;" x="232.062266" xlink:href="#ma6040f9b01" y="423.703636"/>
     <use style="fill:#ff0000;stroke:#ff0000;" x="233.203037" xlink:href="#ma6040f9b01" y="423.703636"/>
     <use style="fill:#ff0000;stroke:#ff0000;" x="234.343808" xlink:href="#ma6040f9b01" y="423.703636"/>
     <use style="fill:#ff0000;stroke:#ff0000;" x="235.484579" xlink:href="#ma6040f9b01" y="423.703636"/>
     <use style="fill:#ff0000;stroke:#ff0000;" x="236.62535" xlink:href="#ma6040f9b01" y="423.703636"/>
     <use style="fill:#ff0000;stroke:#ff0000;" x="237.766121" xlink:href="#ma6040f9b01" y="423.703636"/>
     <use style="fill:#ff0000;stroke:#ff0000;" x="238.906893" xlink:href="#ma6040f9b01" y="423.703636"/>
     <use style="fill:#ff0000;stroke:#ff0000;" x="240.047664" xlink:href="#ma6040f9b01" y="423.703636"/>
     <use style="fill:#ff0000;stroke:#ff0000;" x="241.188435" xlink:href="#ma6040f9b01" y="423.703636"/>
     <use style="fill:#ff0000;stroke:#ff0000;" x="242.329206" xlink:href="#ma6040f9b01" y="423.703636"/>
     <use style="fill:#ff0000;stroke:#ff0000;" x="243.469977" xlink:href="#ma6040f9b01" y="423.703636"/>
     <use style="fill:#ff0000;stroke:#ff0000;" x="244.610748" xlink:href="#ma6040f9b01" y="423.703636"/>
     <use style="fill:#ff0000;stroke:#ff0000;" x="245.751519" xlink:href="#ma6040f9b01" y="423.703636"/>
     <use style="fill:#ff0000;stroke:#ff0000;" x="246.89229" xlink:href="#ma6040f9b01" y="423.703636"/>
     <use style="fill:#ff0000;stroke:#ff0000;" x="248.033061" xlink:href="#ma6040f9b01" y="423.703636"/>
     <use style="fill:#ff0000;stroke:#ff0000;" x="249.173832" xlink:href="#ma6040f9b01" y="423.703636"/>
     <use style="fill:#ff0000;stroke:#ff0000;" x="250.314603" xlink:href="#ma6040f9b01" y="423.703636"/>
     <use style="fill:#ff0000;stroke:#ff0000;" x="251.455374" xlink:href="#ma6040f9b01" y="423.703636"/>
     <use style="fill:#ff0000;stroke:#ff0000;" x="252.596145" xlink:href="#ma6040f9b01" y="423.703636"/>
     <use style="fill:#ff0000;stroke:#ff0000;" x="253.736916" xlink:href="#ma6040f9b01" y="423.703636"/>
     <use style="fill:#ff0000;stroke:#ff0000;" x="254.877687" xlink:href="#ma6040f9b01" y="423.703636"/>
     <use style="fill:#ff0000;stroke:#ff0000;" x="256.018458" xlink:href="#ma6040f9b01" y="423.703636"/>
     <use style="fill:#ff0000;stroke:#ff0000;" x="257.159229" xlink:href="#ma6040f9b01" y="423.703636"/>
     <use style="fill:#ff0000;stroke:#ff0000;" x="258.3" xlink:href="#ma6040f9b01" y="423.703636"/>
     <use style="fill:#ff0000;stroke:#ff0000;" x="259.440771" xlink:href="#ma6040f9b01" y="423.703636"/>
     <use style="fill:#ff0000;stroke:#ff0000;" x="260.581542" xlink:href="#ma6040f9b01" y="423.703636"/>
     <use style="fill:#ff0000;stroke:#ff0000;" x="261.722313" xlink:href="#ma6040f9b01" y="423.703636"/>
     <use style="fill:#ff0000;stroke:#ff0000;" x="262.863084" xlink:href="#ma6040f9b01" y="423.703636"/>
     <use style="fill:#ff0000;stroke:#ff0000;" x="264.003855" xlink:href="#ma6040f9b01" y="423.703636"/>
     <use style="fill:#ff0000;stroke:#ff0000;" x="265.144626" xlink:href="#ma6040f9b01" y="423.703636"/>
     <use style="fill:#ff0000;stroke:#ff0000;" x="266.285397" xlink:href="#ma6040f9b01" y="423.703636"/>
     <use style="fill:#ff0000;stroke:#ff0000;" x="267.426168" xlink:href="#ma6040f9b01" y="423.703636"/>
     <use style="fill:#ff0000;stroke:#ff0000;" x="268.566939" xlink:href="#ma6040f9b01" y="423.703636"/>
     <use style="fill:#ff0000;stroke:#ff0000;" x="269.70771" xlink:href="#ma6040f9b01" y="423.703636"/>
     <use style="fill:#ff0000;stroke:#ff0000;" x="270.848481" xlink:href="#ma6040f9b01" y="423.703636"/>
     <use style="fill:#ff0000;stroke:#ff0000;" x="271.989252" xlink:href="#ma6040f9b01" y="423.703636"/>
     <use style="fill:#ff0000;stroke:#ff0000;" x="273.130023" xlink:href="#ma6040f9b01" y="423.703636"/>
     <use style="fill:#ff0000;stroke:#ff0000;" x="274.270794" xlink:href="#ma6040f9b01" y="423.703636"/>
     <use style="fill:#ff0000;stroke:#ff0000;" x="275.411565" xlink:href="#ma6040f9b01" y="423.703636"/>
     <use style="fill:#ff0000;stroke:#ff0000;" x="276.552336" xlink:href="#ma6040f9b01" y="423.703636"/>
     <use style="fill:#ff0000;stroke:#ff0000;" x="277.693107" xlink:href="#ma6040f9b01" y="423.703636"/>
     <use style="fill:#ff0000;stroke:#ff0000;" x="278.833879" xlink:href="#ma6040f9b01" y="423.703636"/>
     <use style="fill:#ff0000;stroke:#ff0000;" x="279.97465" xlink:href="#ma6040f9b01" y="423.703636"/>
     <use style="fill:#ff0000;stroke:#ff0000;" x="281.115421" xlink:href="#ma6040f9b01" y="423.703636"/>
     <use style="fill:#ff0000;stroke:#ff0000;" x="282.256192" xlink:href="#ma6040f9b01" y="423.703636"/>
     <use style="fill:#ff0000;stroke:#ff0000;" x="283.396963" xlink:href="#ma6040f9b01" y="423.703636"/>
     <use style="fill:#ff0000;stroke:#ff0000;" x="284.537734" xlink:href="#ma6040f9b01" y="423.703636"/>
     <use style="fill:#ff0000;stroke:#ff0000;" x="285.678505" xlink:href="#ma6040f9b01" y="423.703636"/>
     <use style="fill:#ff0000;stroke:#ff0000;" x="286.819276" xlink:href="#ma6040f9b01" y="423.703636"/>
     <use style="fill:#ff0000;stroke:#ff0000;" x="287.960047" xlink:href="#ma6040f9b01" y="423.703636"/>
     <use style="fill:#ff0000;stroke:#ff0000;" x="289.100818" xlink:href="#ma6040f9b01" y="423.703636"/>
     <use style="fill:#ff0000;stroke:#ff0000;" x="290.241589" xlink:href="#ma6040f9b01" y="423.703636"/>
     <use style="fill:#ff0000;stroke:#ff0000;" x="291.38236" xlink:href="#ma6040f9b01" y="423.703636"/>
     <use style="fill:#ff0000;stroke:#ff0000;" x="292.523131" xlink:href="#ma6040f9b01" y="423.703636"/>
     <use style="fill:#ff0000;stroke:#ff0000;" x="293.663902" xlink:href="#ma6040f9b01" y="423.703636"/>
     <use style="fill:#ff0000;stroke:#ff0000;" x="294.804673" xlink:href="#ma6040f9b01" y="423.703636"/>
     <use style="fill:#ff0000;stroke:#ff0000;" x="295.945444" xlink:href="#ma6040f9b01" y="423.703636"/>
     <use style="fill:#ff0000;stroke:#ff0000;" x="297.086215" xlink:href="#ma6040f9b01" y="423.703636"/>
     <use style="fill:#ff0000;stroke:#ff0000;" x="298.226986" xlink:href="#ma6040f9b01" y="423.703636"/>
     <use style="fill:#ff0000;stroke:#ff0000;" x="299.367757" xlink:href="#ma6040f9b01" y="423.703636"/>
     <use style="fill:#ff0000;stroke:#ff0000;" x="300.508528" xlink:href="#ma6040f9b01" y="423.703636"/>
     <use style="fill:#ff0000;stroke:#ff0000;" x="301.649299" xlink:href="#ma6040f9b01" y="423.703636"/>
     <use style="fill:#ff0000;stroke:#ff0000;" x="302.79007" xlink:href="#ma6040f9b01" y="423.703636"/>
     <use style="fill:#ff0000;stroke:#ff0000;" x="303.930841" xlink:href="#ma6040f9b01" y="423.703636"/>
     <use style="fill:#ff0000;stroke:#ff0000;" x="305.071612" xlink:href="#ma6040f9b01" y="423.703636"/>
     <use style="fill:#ff0000;stroke:#ff0000;" x="306.212383" xlink:href="#ma6040f9b01" y="423.703636"/>
     <use style="fill:#ff0000;stroke:#ff0000;" x="307.353154" xlink:href="#ma6040f9b01" y="423.703636"/>
     <use style="fill:#ff0000;stroke:#ff0000;" x="308.493925" xlink:href="#ma6040f9b01" y="423.703636"/>
     <use style="fill:#ff0000;stroke:#ff0000;" x="309.634696" xlink:href="#ma6040f9b01" y="423.703636"/>
     <use style="fill:#ff0000;stroke:#ff0000;" x="310.775467" xlink:href="#ma6040f9b01" y="423.703636"/>
     <use style="fill:#ff0000;stroke:#ff0000;" x="311.916238" xlink:href="#ma6040f9b01" y="423.703636"/>
     <use style="fill:#ff0000;stroke:#ff0000;" x="313.057009" xlink:href="#ma6040f9b01" y="423.703636"/>
     <use style="fill:#ff0000;stroke:#ff0000;" x="314.19778" xlink:href="#ma6040f9b01" y="423.703636"/>
     <use style="fill:#ff0000;stroke:#ff0000;" x="315.338551" xlink:href="#ma6040f9b01" y="423.703636"/>
     <use style="fill:#ff0000;stroke:#ff0000;" x="316.479322" xlink:href="#ma6040f9b01" y="423.703636"/>
     <use style="fill:#ff0000;stroke:#ff0000;" x="317.620093" xlink:href="#ma6040f9b01" y="423.703636"/>
     <use style="fill:#ff0000;stroke:#ff0000;" x="318.760864" xlink:href="#ma6040f9b01" y="423.703636"/>
     <use style="fill:#ff0000;stroke:#ff0000;" x="319.901636" xlink:href="#ma6040f9b01" y="423.703636"/>
     <use style="fill:#ff0000;stroke:#ff0000;" x="321.042407" xlink:href="#ma6040f9b01" y="423.703636"/>
     <use style="fill:#ff0000;stroke:#ff0000;" x="322.183178" xlink:href="#ma6040f9b01" y="423.703636"/>
     <use style="fill:#ff0000;stroke:#ff0000;" x="323.323949" xlink:href="#ma6040f9b01" y="423.703636"/>
     <use style="fill:#ff0000;stroke:#ff0000;" x="324.46472" xlink:href="#ma6040f9b01" y="423.703636"/>
     <use style="fill:#ff0000;stroke:#ff0000;" x="325.605491" xlink:href="#ma6040f9b01" y="423.703636"/>
     <use style="fill:#ff0000;stroke:#ff0000;" x="326.746262" xlink:href="#ma6040f9b01" y="423.703636"/>
     <use style="fill:#ff0000;stroke:#ff0000;" x="327.887033" xlink:href="#ma6040f9b01" y="423.703636"/>
     <use style="fill:#ff0000;stroke:#ff0000;" x="329.027804" xlink:href="#ma6040f9b01" y="423.703636"/>
     <use style="fill:#ff0000;stroke:#ff0000;" x="330.168575" xlink:href="#ma6040f9b01" y="423.703636"/>
     <use style="fill:#ff0000;stroke:#ff0000;" x="331.309346" xlink:href="#ma6040f9b01" y="423.703636"/>
     <use style="fill:#ff0000;stroke:#ff0000;" x="332.450117" xlink:href="#ma6040f9b01" y="423.703636"/>
     <use style="fill:#ff0000;stroke:#ff0000;" x="333.590888" xlink:href="#ma6040f9b01" y="423.703636"/>
     <use style="fill:#ff0000;stroke:#ff0000;" x="334.731659" xlink:href="#ma6040f9b01" y="423.703636"/>
     <use style="fill:#ff0000;stroke:#ff0000;" x="335.87243" xlink:href="#ma6040f9b01" y="423.703636"/>
     <use style="fill:#ff0000;stroke:#ff0000;" x="337.013201" xlink:href="#ma6040f9b01" y="423.703636"/>
     <use style="fill:#ff0000;stroke:#ff0000;" x="338.153972" xlink:href="#ma6040f9b01" y="423.703636"/>
     <use style="fill:#ff0000;stroke:#ff0000;" x="339.294743" xlink:href="#ma6040f9b01" y="423.703636"/>
     <use style="fill:#ff0000;stroke:#ff0000;" x="340.435514" xlink:href="#ma6040f9b01" y="423.703636"/>
     <use style="fill:#ff0000;stroke:#ff0000;" x="341.576285" xlink:href="#ma6040f9b01" y="423.703636"/>
     <use style="fill:#ff0000;stroke:#ff0000;" x="342.717056" xlink:href="#ma6040f9b01" y="423.703636"/>
     <use style="fill:#ff0000;stroke:#ff0000;" x="343.857827" xlink:href="#ma6040f9b01" y="423.703636"/>
     <use style="fill:#ff0000;stroke:#ff0000;" x="344.998598" xlink:href="#ma6040f9b01" y="423.703636"/>
     <use style="fill:#ff0000;stroke:#ff0000;" x="346.139369" xlink:href="#ma6040f9b01" y="423.703636"/>
     <use style="fill:#ff0000;stroke:#ff0000;" x="347.28014" xlink:href="#ma6040f9b01" y="423.703636"/>
     <use style="fill:#ff0000;stroke:#ff0000;" x="348.420911" xlink:href="#ma6040f9b01" y="423.703636"/>
     <use style="fill:#ff0000;stroke:#ff0000;" x="349.561682" xlink:href="#ma6040f9b01" y="423.703636"/>
     <use style="fill:#ff0000;stroke:#ff0000;" x="350.702453" xlink:href="#ma6040f9b01" y="423.703636"/>
     <use style="fill:#ff0000;stroke:#ff0000;" x="351.843224" xlink:href="#ma6040f9b01" y="423.703636"/>
     <use style="fill:#ff0000;stroke:#ff0000;" x="352.983995" xlink:href="#ma6040f9b01" y="255.681818"/>
     <use style="fill:#ff0000;stroke:#ff0000;" x="354.124766" xlink:href="#ma6040f9b01" y="216.147273"/>
     <use style="fill:#ff0000;stroke:#ff0000;" x="355.265537" xlink:href="#ma6040f9b01" y="186.496364"/>
     <use style="fill:#ff0000;stroke:#ff0000;" x="356.406308" xlink:href="#ma6040f9b01" y="235.914545"/>
     <use style="fill:#ff0000;stroke:#ff0000;" x="357.547079" xlink:href="#ma6040f9b01" y="255.681818"/>
     <use style="fill:#ff0000;stroke:#ff0000;" x="358.68785" xlink:href="#ma6040f9b01" y="216.147273"/>
     <use style="fill:#ff0000;stroke:#ff0000;" x="359.828621" xlink:href="#ma6040f9b01" y="285.332727"/>
     <use style="fill:#ff0000;stroke:#ff0000;" x="360.969393" xlink:href="#ma6040f9b01" y="235.914545"/>
     <use style="fill:#ff0000;stroke:#ff0000;" x="362.110164" xlink:href="#ma6040f9b01" y="186.496364"/>
     <use style="fill:#ff0000;stroke:#ff0000;" x="363.250935" xlink:href="#ma6040f9b01" y="235.914545"/>
     <use style="fill:#ff0000;stroke:#ff0000;" x="364.391706" xlink:href="#ma6040f9b01" y="186.496364"/>
     <use style="fill:#ff0000;stroke:#ff0000;" x="365.532477" xlink:href="#ma6040f9b01" y="206.263636"/>
     <use style="fill:#ff0000;stroke:#ff0000;" x="366.673248" xlink:href="#ma6040f9b01" y="186.496364"/>
     <use style="fill:#ff0000;stroke:#ff0000;" x="367.814019" xlink:href="#ma6040f9b01" y="226.030909"/>
     <use style="fill:#ff0000;stroke:#ff0000;" x="368.95479" xlink:href="#ma6040f9b01" y="186.496364"/>
     <use style="fill:#ff0000;stroke:#ff0000;" x="370.095561" xlink:href="#ma6040f9b01" y="216.147273"/>
     <use style="fill:#ff0000;stroke:#ff0000;" x="371.236332" xlink:href="#ma6040f9b01" y="186.496364"/>
     <use style="fill:#ff0000;stroke:#ff0000;" x="372.377103" xlink:href="#ma6040f9b01" y="186.496364"/>
     <use style="fill:#ff0000;stroke:#ff0000;" x="373.517874" xlink:href="#ma6040f9b01" y="146.961818"/>
     <use style="fill:#ff0000;stroke:#ff0000;" x="374.658645" xlink:href="#ma6040f9b01" y="127.194545"/>
     <use style="fill:#ff0000;stroke:#ff0000;" x="375.799416" xlink:href="#ma6040f9b01" y="146.961818"/>
     <use style="fill:#ff0000;stroke:#ff0000;" x="376.940187" xlink:href="#ma6040f9b01" y="156.845455"/>
     <use style="fill:#ff0000;stroke:#ff0000;" x="378.080958" xlink:href="#ma6040f9b01" y="166.729091"/>
     <use style="fill:#ff0000;stroke:#ff0000;" x="379.221729" xlink:href="#ma6040f9b01" y="156.845455"/>
     <use style="fill:#ff0000;stroke:#ff0000;" x="380.3625" xlink:href="#ma6040f9b01" y="146.961818"/>
    </g>
   </g>
   <g id="line2d_15">
    <path clip-path="url(#pabfac29df3)" d="M 63 305.420023 
L 64.962814 303.718549 
L 66.925628 301.806226 
L 68.888442 299.667808 
L 70.851256 297.290774 
L 72.81407 294.667095 
L 74.776884 291.795432 
L 76.739698 288.683747 
L 80.665327 281.836642 
L 88.516583 267.330923 
L 90.479397 264.13038 
L 92.442211 261.378419 
L 94.405025 259.225222 
L 96.367839 257.802555 
L 98.330653 257.198478 
L 100.293467 257.426973 
L 102.256281 258.396397 
L 104.219095 259.884115 
L 106.18191 261.528043 
L 108.144724 262.845286 
L 110.107538 263.278691 
L 112.070352 262.257619 
L 114.033166 259.254378 
L 115.99598 253.833351 
L 117.958794 245.709274 
L 119.921608 234.82649 
L 121.884422 221.445482 
L 125.81005 190.198068 
L 127.772864 174.84611 
L 129.735678 161.711304 
L 131.698492 151.955789 
L 133.661307 145.906504 
L 135.624121 143.054636 
L 137.586935 142.479466 
L 139.549749 143.305666 
L 141.512563 144.902175 
L 147.401005 150.771371 
L 149.363819 152.361814 
L 151.326633 153.539055 
L 153.289447 154.225735 
L 155.252261 154.36751 
L 157.215075 153.91736 
L 159.177889 152.835189 
L 161.140704 151.121095 
L 163.103518 148.877338 
L 167.029146 143.953096 
L 168.99196 142.137995 
L 170.954774 140.801303 
L 172.917588 137.348252 
L 174.880402 126.157296 
L 176.843216 107.203875 
L 178.80603 95.539279 
L 180.768844 103.525402 
L 182.731658 122.363347 
L 184.694472 139.222379 
L 188.620101 164.612146 
L 192.545729 196.09421 
L 194.508543 204.085721 
L 196.471357 202.722572 
L 198.434171 196.503654 
L 200.396985 193.252602 
L 202.359799 198.820506 
L 204.322613 214.424573 
L 206.285427 234.539947 
L 208.248241 245.435294 
L 210.211055 234.151471 
L 212.173869 204.888785 
L 214.136683 178.221941 
L 216.099497 167.853096 
L 218.062312 176.244402 
L 220.025126 216.083407 
L 223.950754 380.719927 
L 225.913568 418.901935 
L 227.876382 423.409196 
L 229.839196 422.20164 
L 233.764824 422.092673 
L 235.727638 421.835696 
L 239.653266 421.837292 
L 241.61608 421.503271 
L 243.578894 420.500303 
L 247.504523 417.568329 
L 249.467337 417.041537 
L 251.430151 417.889996 
L 253.392965 420.111565 
L 255.355779 423.314606 
L 257.318593 426.884779 
L 259.281407 429.942041 
L 261.244221 431.297307 
L 263.207035 430.128134 
L 265.169849 427.217173 
L 267.132663 424.778535 
L 269.095477 424.177986 
L 271.058291 424.619373 
L 273.021106 424.678017 
L 276.946734 423.331752 
L 278.909548 422.974086 
L 284.79799 423.039372 
L 286.760804 422.796149 
L 288.723618 422.324571 
L 294.61206 420.485474 
L 296.574874 420.281714 
L 298.537688 420.565386 
L 300.500503 421.359742 
L 306.388945 424.757695 
L 308.351759 425.366447 
L 310.314573 425.474908 
L 312.277387 425.060861 
L 314.240201 424.160353 
L 320.128643 420.529717 
L 322.091457 420.097079 
L 324.054271 420.456703 
L 326.017085 421.575124 
L 327.979899 423.245995 
L 331.905528 427.068522 
L 333.868342 428.647911 
L 335.831156 429.654822 
L 337.79397 429.790151 
L 339.756784 428.645589 
L 341.719598 425.632525 
L 343.682412 419.932004 
L 345.645226 410.502842 
L 347.60804 396.192422 
L 349.570854 375.988344 
L 351.533668 349.404561 
L 353.496482 316.939564 
L 357.422111 243.683017 
L 359.384925 211.271171 
L 361.347739 187.698102 
L 363.310553 174.616539 
L 365.273367 169.748263 
L 367.236181 168.363555 
L 369.198995 166.313181 
L 371.161809 162.294775 
L 373.124623 157.863708 
L 375.087437 155.300517 
L 377.050251 155.552253 
L 379.013065 159.484509 
L 380.975879 170.922757 
L 382.938693 194.296343 
L 384.901508 227.851995 
L 386.864322 263.395798 
L 388.827136 293.064929 
L 390.78995 313.70435 
L 392.752764 326.245174 
L 394.715578 333.202247 
L 396.678392 336.844908 
L 398.641206 338.629959 
L 400.60402 339.325227 
L 402.566834 339.261569 
L 404.529648 338.511307 
L 406.492462 336.989765 
L 408.455276 334.519007 
L 410.41809 330.878305 
L 412.380905 325.860342 
L 414.343719 319.369842 
L 416.306533 311.572656 
L 420.232161 294.475599 
L 422.194975 286.87813 
L 424.157789 280.874762 
L 426.120603 276.784296 
L 428.083417 274.591011 
L 430.046231 274.051077 
L 432.009045 274.815412 
L 433.971859 276.523413 
L 435.934673 278.856559 
L 439.860302 284.438971 
L 443.78593 290.223084 
L 447.711558 295.560034 
L 449.674372 297.96966 
L 451.637186 300.18753 
L 453.6 302.210468 
L 453.6 302.210468 
" style="fill:none;stroke:#3300ff;stroke-linecap:square;stroke-width:2;"/>
   </g>
   <g id="line2d_16">
    <path clip-path="url(#pabfac29df3)" d="M 63 118.392326 
L 64.962814 115.875215 
L 66.925628 113.076786 
L 68.888442 109.986216 
L 70.851256 106.599295 
L 72.81407 102.921044 
L 76.739698 94.774395 
L 82.628141 81.345177 
L 86.553769 72.651221 
L 88.516583 68.775571 
L 90.479397 65.432546 
L 92.442211 62.809944 
L 94.405025 61.113591 
L 96.367839 60.5565 
L 98.330653 61.331009 
L 100.293467 63.561808 
L 102.256281 67.24742 
L 104.219095 72.208695 
L 106.18191 78.069916 
L 110.107538 90.282641 
L 112.070352 95.482874 
L 114.033166 99.485875 
L 115.99598 102.035413 
L 117.958794 102.981819 
L 119.921608 102.226683 
L 121.884422 99.723888 
L 123.847236 95.573234 
L 125.81005 90.177121 
L 127.772864 84.346581 
L 129.735678 79.172026 
L 131.698492 75.621468 
L 133.661307 74.150893 
L 135.624121 74.592036 
L 137.586935 76.332647 
L 141.512563 81.188006 
L 143.475377 83.61839 
L 145.438191 85.867714 
L 147.401005 87.837352 
L 149.363819 89.425794 
L 151.326633 90.554791 
L 153.289447 91.177733 
L 155.252261 91.242153 
L 157.215075 90.629836 
L 159.177889 89.142202 
L 161.140704 86.598782 
L 163.103518 83.026202 
L 167.029146 74.647927 
L 168.99196 71.514654 
L 170.954774 69.593717 
L 172.917588 65.012269 
L 174.880402 49.436125 
L 176.843216 27.326286 
L 178.80603 18.605818 
L 180.768844 27.893706 
L 182.731658 46.678428 
L 184.694472 63.774888 
L 186.657286 75.32117 
L 188.620101 83.952548 
L 190.582915 96.00425 
L 192.545729 112.857131 
L 194.508543 123.547769 
L 196.471357 120.898526 
L 198.434171 111.58266 
L 200.396985 105.828355 
L 202.359799 110.678917 
L 204.322613 127.414076 
L 206.285427 147.652893 
L 208.248241 151.719696 
L 210.211055 127.327262 
L 212.173869 89.715903 
L 214.136683 62.249417 
L 216.099497 52.006431 
L 218.062312 58.583187 
L 220.025126 87.76594 
L 221.98794 167.412353 
L 223.950754 289.310452 
L 225.913568 369.535843 
L 227.876382 386.27283 
L 231.80201 388.507238 
L 233.764824 388.909868 
L 235.727638 388.864641 
L 237.690452 388.99929 
L 239.653266 388.824505 
L 241.61608 387.682453 
L 243.578894 385.573683 
L 245.541709 383.252019 
L 247.504523 381.757982 
L 249.467337 381.764128 
L 251.430151 383.405798 
L 253.392965 386.525778 
L 255.355779 390.761263 
L 257.318593 395.448747 
L 259.281407 399.545766 
L 261.244221 401.455526 
L 263.207035 399.578159 
L 265.169849 394.799671 
L 267.132663 390.652121 
L 269.095477 389.769842 
L 273.021106 393.285945 
L 274.98392 393.771786 
L 278.909548 393.541552 
L 284.79799 393.903755 
L 286.760804 393.736075 
L 288.723618 393.276298 
L 290.686432 392.525646 
L 294.61206 390.601367 
L 296.574874 389.895487 
L 298.537688 389.709984 
L 300.500503 390.150307 
L 302.463317 391.105419 
L 306.388945 393.436462 
L 308.351759 394.240747 
L 310.314573 394.511732 
L 312.277387 394.110594 
L 314.240201 393.024816 
L 316.203015 391.426993 
L 318.165829 389.654013 
L 320.128643 388.105824 
L 322.091457 387.117457 
L 324.054271 386.865206 
L 326.017085 387.341204 
L 327.979899 388.386594 
L 331.905528 391.104143 
L 333.868342 392.109729 
L 335.831156 392.337892 
L 337.79397 391.234273 
L 339.756784 388.034998 
L 341.719598 381.72196 
L 343.682412 371.06258 
L 345.645226 354.755192 
L 347.60804 331.631607 
L 349.570854 300.896565 
L 351.533668 262.502033 
L 353.496482 217.8214 
L 355.459296 170.494163 
L 357.422111 126.563149 
L 359.384925 92.497478 
L 361.347739 71.160748 
L 363.310553 59.938808 
L 365.273367 54.558993 
L 367.236181 52.56424 
L 371.161809 51.75437 
L 373.124623 51.593123 
L 375.087437 54.987298 
L 377.050251 65.557534 
L 379.013065 82.38881 
L 380.975879 98.131353 
L 384.901508 113.232485 
L 386.864322 127.478157 
L 388.827136 145.290144 
L 390.78995 160.73956 
L 392.752764 170.932908 
L 394.715578 176.462709 
L 396.678392 179.078172 
L 398.641206 180.11929 
L 400.60402 180.261784 
L 402.566834 179.714717 
L 404.529648 178.396656 
L 406.492462 176.028824 
L 408.455276 172.193333 
L 410.41809 166.395124 
L 412.380905 158.174724 
L 414.343719 147.345247 
L 416.306533 134.302236 
L 420.232161 106.294494 
L 422.194975 94.163959 
L 424.157789 84.613954 
L 426.120603 77.95635 
L 428.083417 74.064256 
L 430.046231 72.561579 
L 432.009045 72.97774 
L 433.971859 74.842484 
L 435.934673 77.734184 
L 437.897487 81.299648 
L 441.823116 89.394956 
L 445.748744 97.622455 
L 449.674372 105.209963 
L 451.637186 108.647199 
L 453.6 111.819821 
L 453.6 111.819821 
" style="fill:none;stroke:#3300ff;stroke-linecap:square;stroke-width:0.2;"/>
   </g>
   <g id="line2d_17">
    <path clip-path="url(#pabfac29df3)" d="M 63 492.44772 
L 64.962814 491.561883 
L 66.925628 490.535666 
L 68.888442 489.349399 
L 70.851256 487.982252 
L 72.81407 486.413147 
L 74.776884 484.622232 
L 76.739698 482.593099 
L 78.702513 480.315919 
L 80.665327 477.791532 
L 82.628141 475.036461 
L 86.553769 469.008718 
L 90.479397 462.828213 
L 92.442211 459.946894 
L 94.405025 457.336853 
L 96.367839 455.048609 
L 98.330653 453.065946 
L 102.256281 449.545373 
L 104.219095 447.559535 
L 106.18191 444.98617 
L 108.144724 441.395351 
L 110.107538 436.274741 
L 112.070352 429.032365 
L 114.033166 419.022882 
L 115.99598 405.631288 
L 117.958794 388.436729 
L 119.921608 367.426296 
L 121.884422 343.167076 
L 127.772864 265.34564 
L 129.735678 244.250583 
L 131.698492 228.290109 
L 133.661307 217.662114 
L 135.624121 211.517236 
L 137.586935 208.626286 
L 139.549749 207.925169 
L 141.512563 208.616344 
L 143.475377 210.093084 
L 147.401005 213.705389 
L 149.363819 215.297834 
L 151.326633 216.523318 
L 153.289447 217.273736 
L 155.252261 217.492867 
L 157.215075 217.204884 
L 159.177889 216.528177 
L 165.066332 213.909916 
L 167.029146 213.258266 
L 168.99196 212.761336 
L 170.954774 212.008889 
L 172.917588 209.684234 
L 174.880402 202.878468 
L 176.843216 187.081463 
L 178.80603 172.47274 
L 180.768844 179.157097 
L 182.731658 198.048267 
L 184.694472 214.669871 
L 186.657286 228.240173 
L 188.620101 245.271743 
L 190.582915 265.426724 
L 192.545729 279.33129 
L 194.508543 284.623673 
L 196.471357 284.546619 
L 198.434171 281.424648 
L 200.396985 280.676848 
L 202.359799 286.962094 
L 204.322613 301.435071 
L 206.285427 321.427001 
L 208.248241 339.150891 
L 210.211055 340.97568 
L 212.173869 320.061667 
L 214.136683 294.194465 
L 216.099497 283.699762 
L 218.062312 293.905618 
L 220.025126 344.400874 
L 221.98794 427.138332 
L 223.950754 472.129403 
L 225.913568 468.268026 
L 227.876382 460.545563 
L 229.839196 457.068396 
L 231.80201 455.879673 
L 233.764824 455.275477 
L 235.727638 454.806752 
L 237.690452 454.601478 
L 239.653266 454.850079 
L 241.61608 455.32409 
L 243.578894 455.426923 
L 245.541709 454.707982 
L 247.504523 453.378677 
L 249.467337 452.318947 
L 251.430151 452.374195 
L 253.392965 453.697351 
L 255.355779 455.867949 
L 257.318593 458.320812 
L 259.281407 460.338316 
L 261.244221 461.139089 
L 263.207035 460.67811 
L 265.169849 459.634676 
L 267.132663 458.904949 
L 269.095477 458.586131 
L 271.058291 457.710866 
L 274.98392 454.332464 
L 276.946734 453.045428 
L 278.909548 452.406619 
L 280.872362 452.264239 
L 282.835176 452.278292 
L 284.79799 452.17499 
L 286.760804 451.856223 
L 292.649246 450.472859 
L 294.61206 450.369581 
L 296.574874 450.667941 
L 298.537688 451.420788 
L 300.500503 452.569178 
L 304.426131 455.176363 
L 306.388945 456.078928 
L 308.351759 456.492148 
L 310.314573 456.438083 
L 312.277387 456.011129 
L 314.240201 455.295891 
L 318.165829 453.502115 
L 320.128643 452.953611 
L 322.091457 453.0767 
L 324.054271 454.0482 
L 326.017085 455.809044 
L 327.979899 458.105396 
L 331.905528 463.032902 
L 333.868342 465.186093 
L 335.831156 466.971752 
L 337.79397 468.34603 
L 339.756784 469.256179 
L 341.719598 469.54309 
L 343.682412 468.801428 
L 345.645226 466.250493 
L 347.60804 460.753237 
L 349.570854 451.080122 
L 351.533668 436.307088 
L 353.496482 416.057729 
L 355.459296 390.524467 
L 359.384925 330.044864 
L 361.347739 304.235456 
L 363.310553 289.29427 
L 365.273367 284.937533 
L 367.236181 284.16287 
L 369.198995 280.45944 
L 371.161809 272.835181 
L 375.087437 255.613736 
L 377.050251 245.546972 
L 379.013065 236.580209 
L 380.975879 243.714162 
L 382.938693 282.848944 
L 386.864322 399.313439 
L 388.827136 440.839713 
L 390.78995 466.669139 
L 392.752764 481.55744 
L 394.715578 489.941785 
L 396.678392 494.611645 
L 398.641206 497.140629 
L 400.60402 498.388671 
L 402.566834 498.808422 
L 404.529648 498.625958 
L 406.492462 497.950707 
L 408.455276 496.844681 
L 410.41809 495.361486 
L 412.380905 493.545961 
L 414.343719 491.394437 
L 416.306533 488.843077 
L 418.269347 485.871662 
L 422.194975 479.592302 
L 424.157789 477.13557 
L 426.120603 475.612242 
L 428.083417 475.117766 
L 430.046231 475.540575 
L 432.009045 476.653083 
L 433.971859 478.204342 
L 441.823116 485.322022 
L 443.78593 486.892512 
L 445.748744 488.317796 
L 447.711558 489.595359 
L 449.674372 490.729358 
L 451.637186 491.72786 
L 453.6 492.601114 
L 453.6 492.601114 
" style="fill:none;stroke:#3300ff;stroke-linecap:square;stroke-width:0.2;"/>
   </g>
   <g id="patch_4">
    <path d="M 63 441 
L 63 60.48 
" style="fill:none;stroke:#000000;stroke-linecap:square;stroke-linejoin:miter;stroke-width:0.8;"/>
   </g>
   <g id="patch_5">
    <path d="M 453.6 441 
L 453.6 60.48 
" style="fill:none;stroke:#000000;stroke-linecap:square;stroke-linejoin:miter;stroke-width:0.8;"/>
   </g>
   <g id="patch_6">
    <path d="M 63 441 
L 453.6 441 
" style="fill:none;stroke:#000000;stroke-linecap:square;stroke-linejoin:miter;stroke-width:0.8;"/>
   </g>
   <g id="patch_7">
    <path d="M 63 60.48 
L 453.6 60.48 
" style="fill:none;stroke:#000000;stroke-linecap:square;stroke-linejoin:miter;stroke-width:0.8;"/>
   </g>
  </g>
 </g>
 <defs>
  <clipPath id="pabfac29df3">
   <rect height="380.52" width="390.6" x="63" y="60.48"/>
  </clipPath>
 </defs>
</svg>
