<?xml version="1.0" encoding="utf-8" standalone="no"?>
<!DOCTYPE svg PUBLIC "-//W3C//DTD SVG 1.1//EN"
  "http://www.w3.org/Graphics/SVG/1.1/DTD/svg11.dtd">
<!-- Created with matplotlib (http://matplotlib.org/) -->
<svg height="504pt" version="1.1" viewBox="0 0 504 504" width="504pt" xmlns="http://www.w3.org/2000/svg" xmlns:xlink="http://www.w3.org/1999/xlink">
 <defs>
  <style type="text/css">
*{stroke-linecap:butt;stroke-linejoin:round;}
  </style>
 </defs>
 <g id="figure_1">
  <g id="patch_1">
   <path d="M 0 504 
L 504 504 
L 504 0 
L 0 0 
z
" style="fill:none;"/>
  </g>
  <g id="axes_1">
   <g id="patch_2">
    <path clip-path="url(#pc9e4889514)" d="M 225.690161 288.792 
C 235.78167 288.792 245.461215 284.782601 252.596989 277.646827 
C 259.732763 270.511053 263.742161 260.831508 263.742161 250.74 
C 263.742161 240.648492 259.732763 230.968947 252.596989 223.833173 
C 245.461215 216.697399 235.78167 212.688 225.690161 212.688 
C 215.598653 212.688 205.919108 216.697399 198.783334 223.833173 
C 191.64756 230.968947 187.638161 240.648492 187.638161 250.74 
C 187.638161 260.831508 191.64756 270.511053 198.783334 277.646827 
C 205.919108 284.782601 215.598653 288.792 225.690161 288.792 
z
" style="stroke:#000000;stroke-linejoin:miter;"/>
   </g>
   <g id="patch_3">
    <path clip-path="url(#pc9e4889514)" d="M 307.890182 288.792 
C 317.981691 288.792 327.661236 284.782601 334.79701 277.646827 
C 341.932784 270.511053 345.942182 260.831508 345.942182 250.74 
C 345.942182 240.648492 341.932784 230.968947 334.79701 223.833173 
C 327.661236 216.697399 317.981691 212.688 307.890182 212.688 
C 297.798674 212.688 288.119129 216.697399 280.983355 223.833173 
C 273.847581 230.968947 269.838182 240.648492 269.838182 250.74 
C 269.838182 260.831508 273.847581 270.511053 280.983355 277.646827 
C 288.119129 284.782601 297.798674 288.792 307.890182 288.792 
z
" style="fill:#ff0000;stroke:#ff0000;stroke-linejoin:miter;"/>
   </g>
   <g id="line2d_1">
    <path clip-path="url(#pc9e4889514)" d="M 68.04 60.48 
L 68.04 441 
L 448.56 441 
L 448.56 60.48 
" style="fill:none;stroke:#000000;stroke-linecap:square;stroke-width:3;"/>
   </g>
   <g id="line2d_2">
    <path clip-path="url(#pc9e4889514)" d="M 225.690161 441 
L 225.690161 60.48 
" style="fill:none;stroke:#000000;stroke-dasharray:3,4.95;stroke-dashoffset:0;stroke-width:3;"/>
   </g>
  </g>
 </g>
 <defs>
  <clipPath id="pc9e4889514">
   <rect height="380.52" width="380.52" x="68.04" y="60.48"/>
  </clipPath>
 </defs>
</svg>
