<?xml version="1.0" encoding="utf-8" standalone="no"?>
<!DOCTYPE svg PUBLIC "-//W3C//DTD SVG 1.1//EN"
  "http://www.w3.org/Graphics/SVG/1.1/DTD/svg11.dtd">
<!-- Created with matplotlib (http://matplotlib.org/) -->
<svg height="504pt" version="1.1" viewBox="0 0 504 504" width="504pt" xmlns="http://www.w3.org/2000/svg" xmlns:xlink="http://www.w3.org/1999/xlink">
 <defs>
  <style type="text/css">
*{stroke-linecap:butt;stroke-linejoin:round;}
  </style>
 </defs>
 <g id="figure_1">
  <g id="patch_1">
   <path d="M 0 504 
L 504 504 
L 504 0 
L 0 0 
z
" style="fill:none;"/>
  </g>
  <g id="axes_1">
   <g id="patch_2">
    <path clip-path="url(#p6687ebf447)" d="M 225.690161 288.792 
C 235.78167 288.792 245.461215 284.782601 252.596989 277.646827 
C 259.732763 270.511053 263.742161 260.831508 263.742161 250.74 
C 263.742161 240.648492 259.732763 230.968947 252.596989 223.833173 
C 245.461215 216.697399 235.78167 212.688 225.690161 212.688 
C 215.598653 212.688 205.919108 216.697399 198.783334 223.833173 
C 191.64756 230.968947 187.638161 240.648492 187.638161 250.74 
C 187.638161 260.831508 191.64756 270.511053 198.783334 277.646827 
C 205.919108 284.782601 215.598653 288.792 225.690161 288.792 
z
" style="stroke:#000000;stroke-linejoin:miter;"/>
   </g>
   <g id="patch_3">
    <path clip-path="url(#p6687ebf447)" d="M 330.991321 288.792 
C 341.082829 288.792 350.762374 284.782601 357.898148 277.646827 
C 365.033922 270.511053 369.043321 260.831508 369.043321 250.74 
C 369.043321 240.648492 365.033922 230.968947 357.898148 223.833173 
C 350.762374 216.697399 341.082829 212.688 330.991321 212.688 
C 320.899812 212.688 311.220268 216.697399 304.084494 223.833173 
C 296.94872 230.968947 292.939321 240.648492 292.939321 250.74 
C 292.939321 260.831508 296.94872 270.511053 304.084494 277.646827 
C 311.220268 284.782601 320.899812 288.792 330.991321 288.792 
z
" style="fill:#ff0000;stroke:#ff0000;stroke-linejoin:miter;"/>
   </g>
   <g id="line2d_1">
    <path clip-path="url(#p6687ebf447)" d="M 68.04 60.48 
L 68.04 441 
L 448.56 441 
L 448.56 60.48 
" style="fill:none;stroke:#000000;stroke-linecap:square;stroke-width:3;"/>
   </g>
   <g id="line2d_2">
    <path clip-path="url(#p6687ebf447)" d="M 225.690161 441 
L 225.690161 60.48 
" style="fill:none;stroke:#000000;stroke-dasharray:3,4.95;stroke-dashoffset:0;stroke-width:3;"/>
   </g>
  </g>
 </g>
 <defs>
  <clipPath id="p6687ebf447">
   <rect height="380.52" width="380.52" x="68.04" y="60.48"/>
  </clipPath>
 </defs>
</svg>
