<?xml version="1.0" encoding="utf-8" standalone="no"?>
<!DOCTYPE svg PUBLIC "-//W3C//DTD SVG 1.1//EN"
  "http://www.w3.org/Graphics/SVG/1.1/DTD/svg11.dtd">
<!-- Created with matplotlib (http://matplotlib.org/) -->
<svg height="360pt" version="1.1" viewBox="0 0 360 360" width="360pt" xmlns="http://www.w3.org/2000/svg" xmlns:xlink="http://www.w3.org/1999/xlink">
 <defs>
  <style type="text/css">
*{stroke-linecap:butt;stroke-linejoin:round;}
  </style>
 </defs>
 <g id="figure_1">
  <g id="patch_1">
   <path d="M 0 360 
L 360 360 
L 360 0 
L 0 0 
z
" style="fill:none;"/>
  </g>
  <g id="axes_1">
   <g id="patch_2">
    <path clip-path="url(#p7ceb305048)" d="M 153.723754 206.28 
C 160.931974 206.28 167.845935 203.416144 172.942917 198.319162 
C 178.039898 193.222181 180.903754 186.30822 180.903754 179.1 
C 180.903754 171.89178 178.039898 164.977819 172.942917 159.880838 
C 167.845935 154.783856 160.931974 151.92 153.723754 151.92 
C 146.515534 151.92 139.601573 154.783856 134.504592 159.880838 
C 129.40761 164.977819 126.543754 171.89178 126.543754 179.1 
C 126.543754 186.30822 129.40761 193.222181 134.504592 198.319162 
C 139.601573 203.416144 146.515534 206.28 153.723754 206.28 
z
" style="stroke:#000000;stroke-linejoin:miter;"/>
   </g>
   <g id="patch_3">
    <path clip-path="url(#p7ceb305048)" d="M 229.805025 206.28 
C 237.013245 206.28 243.927206 203.416144 249.024187 198.319162 
C 254.121168 193.222181 256.985025 186.30822 256.985025 179.1 
C 256.985025 171.89178 254.121168 164.977819 249.024187 159.880838 
C 243.927206 154.783856 237.013245 151.92 229.805025 151.92 
C 222.596804 151.92 215.682844 154.783856 210.585862 159.880838 
C 205.488881 164.977819 202.625025 171.89178 202.625025 179.1 
C 202.625025 186.30822 205.488881 193.222181 210.585862 198.319162 
C 215.682844 203.416144 222.596804 206.28 229.805025 206.28 
z
" style="fill:#ff0000;stroke:#ff0000;stroke-linejoin:miter;"/>
   </g>
   <g id="line2d_1">
    <path clip-path="url(#p7ceb305048)" d="M 48.6 43.2 
L 48.6 315 
L 320.4 315 
L 320.4 43.2 
" style="fill:none;stroke:#000000;stroke-linecap:square;stroke-width:3;"/>
   </g>
   <g id="line2d_2">
    <path clip-path="url(#p7ceb305048)" d="M 153.723754 315 
L 153.723754 43.2 
" style="fill:none;stroke:#000000;stroke-dasharray:3,4.95;stroke-dashoffset:0;stroke-width:3;"/>
   </g>
  </g>
 </g>
 <defs>
  <clipPath id="p7ceb305048">
   <rect height="271.8" width="271.8" x="48.6" y="43.2"/>
  </clipPath>
 </defs>
</svg>
