<?xml version="1.0" encoding="utf-8" standalone="no"?>
<!DOCTYPE svg PUBLIC "-//W3C//DTD SVG 1.1//EN"
  "http://www.w3.org/Graphics/SVG/1.1/DTD/svg11.dtd">
<!-- Created with matplotlib (http://matplotlib.org/) -->
<svg height="360pt" version="1.1" viewBox="0 0 360 360" width="360pt" xmlns="http://www.w3.org/2000/svg" xmlns:xlink="http://www.w3.org/1999/xlink">
 <defs>
  <style type="text/css">
*{stroke-linecap:butt;stroke-linejoin:round;}
  </style>
 </defs>
 <g id="figure_1">
  <g id="patch_1">
   <path d="M 0 360 
L 360 360 
L 360 0 
L 0 0 
z
" style="fill:none;"/>
  </g>
  <g id="axes_1">
   <g id="patch_2">
    <path clip-path="url(#p9f12231cab)" d="M 75.78 315 
C 82.98822 315 89.902181 312.136144 94.999162 307.039162 
C 100.096144 301.942181 102.96 295.02822 102.96 287.82 
C 102.96 280.61178 100.096144 273.697819 94.999162 268.600838 
C 89.902181 263.503856 82.98822 260.64 75.78 260.64 
C 68.57178 260.64 61.657819 263.503856 56.560838 268.600838 
C 51.463856 273.697819 48.6 280.61178 48.6 287.82 
C 48.6 295.02822 51.463856 301.942181 56.560838 307.039162 
C 61.657819 312.136144 68.57178 315 75.78 315 
z
" style="fill:#ff0000;stroke:#ff0000;stroke-linejoin:miter;"/>
   </g>
   <g id="patch_3">
    <path clip-path="url(#p9f12231cab)" d="M 130.14 315 
C 137.34822 315 144.262181 312.136144 149.359162 307.039162 
C 154.456144 301.942181 157.32 295.02822 157.32 287.82 
C 157.32 280.61178 154.456144 273.697819 149.359162 268.600838 
C 144.262181 263.503856 137.34822 260.64 130.14 260.64 
C 122.93178 260.64 116.017819 263.503856 110.920838 268.600838 
C 105.823856 273.697819 102.96 280.61178 102.96 287.82 
C 102.96 295.02822 105.823856 301.942181 110.920838 307.039162 
C 116.017819 312.136144 122.93178 315 130.14 315 
z
" style="fill:#ff0000;stroke:#ff0000;stroke-linejoin:miter;"/>
   </g>
   <g id="patch_4">
    <path clip-path="url(#p9f12231cab)" d="M 184.5 315 
C 191.70822 315 198.622181 312.136144 203.719162 307.039162 
C 208.816144 301.942181 211.68 295.02822 211.68 287.82 
C 211.68 280.61178 208.816144 273.697819 203.719162 268.600838 
C 198.622181 263.503856 191.70822 260.64 184.5 260.64 
C 177.29178 260.64 170.377819 263.503856 165.280838 268.600838 
C 160.183856 273.697819 157.32 280.61178 157.32 287.82 
C 157.32 295.02822 160.183856 301.942181 165.280838 307.039162 
C 170.377819 312.136144 177.29178 315 184.5 315 
z
" style="fill:#ff0000;stroke:#ff0000;stroke-linejoin:miter;"/>
   </g>
   <g id="patch_5">
    <path clip-path="url(#p9f12231cab)" d="M 238.86 315 
C 246.06822 315 252.982181 312.136144 258.079162 307.039162 
C 263.176144 301.942181 266.04 295.02822 266.04 287.82 
C 266.04 280.61178 263.176144 273.697819 258.079162 268.600838 
C 252.982181 263.503856 246.06822 260.64 238.86 260.64 
C 231.65178 260.64 224.737819 263.503856 219.640838 268.600838 
C 214.543856 273.697819 211.68 280.61178 211.68 287.82 
C 211.68 295.02822 214.543856 301.942181 219.640838 307.039162 
C 224.737819 312.136144 231.65178 315 238.86 315 
z
" style="fill:#ff0000;stroke:#ff0000;stroke-linejoin:miter;"/>
   </g>
   <g id="patch_6">
    <path clip-path="url(#p9f12231cab)" d="M 293.22 315 
C 300.42822 315 307.342181 312.136144 312.439162 307.039162 
C 317.536144 301.942181 320.4 295.02822 320.4 287.82 
C 320.4 280.61178 317.536144 273.697819 312.439162 268.600838 
C 307.342181 263.503856 300.42822 260.64 293.22 260.64 
C 286.01178 260.64 279.097819 263.503856 274.000838 268.600838 
C 268.903856 273.697819 266.04 280.61178 266.04 287.82 
C 266.04 295.02822 268.903856 301.942181 274.000838 307.039162 
C 279.097819 312.136144 286.01178 315 293.22 315 
z
" style="fill:#ff0000;stroke:#ff0000;stroke-linejoin:miter;"/>
   </g>
   <g id="patch_7">
    <path clip-path="url(#p9f12231cab)" d="M 347.58 315 
C 354.78822 315 361.702181 312.136144 366.799162 307.039162 
C 371.896144 301.942181 374.76 295.02822 374.76 287.82 
C 374.76 280.61178 371.896144 273.697819 366.799162 268.600838 
C 361.702181 263.503856 354.78822 260.64 347.58 260.64 
C 340.37178 260.64 333.457819 263.503856 328.360838 268.600838 
C 323.263856 273.697819 320.4 280.61178 320.4 287.82 
C 320.4 295.02822 323.263856 301.942181 328.360838 307.039162 
C 333.457819 312.136144 340.37178 315 347.58 315 
z
" style="stroke:#000000;stroke-linejoin:miter;"/>
   </g>
   <g id="patch_8">
    <path clip-path="url(#p9f12231cab)" d="M 401.94 315 
C 409.14822 315 416.062181 312.136144 421.159162 307.039162 
C 426.256144 301.942181 429.12 295.02822 429.12 287.82 
C 429.12 280.61178 426.256144 273.697819 421.159162 268.600838 
C 416.062181 263.503856 409.14822 260.64 401.94 260.64 
C 394.73178 260.64 387.817819 263.503856 382.720838 268.600838 
C 377.623856 273.697819 374.76 280.61178 374.76 287.82 
C 374.76 295.02822 377.623856 301.942181 382.720838 307.039162 
C 387.817819 312.136144 394.73178 315 401.94 315 
z
" style="fill:#ff0000;stroke:#ff0000;stroke-linejoin:miter;"/>
   </g>
   <g id="patch_9">
    <path clip-path="url(#p9f12231cab)" d="M 456.3 315 
C 463.50822 315 470.422181 312.136144 475.519162 307.039162 
C 480.616144 301.942181 483.48 295.02822 483.48 287.82 
C 483.48 280.61178 480.616144 273.697819 475.519162 268.600838 
C 470.422181 263.503856 463.50822 260.64 456.3 260.64 
C 449.09178 260.64 442.177819 263.503856 437.080838 268.600838 
C 431.983856 273.697819 429.12 280.61178 429.12 287.82 
C 429.12 295.02822 431.983856 301.942181 437.080838 307.039162 
C 442.177819 312.136144 449.09178 315 456.3 315 
z
" style="fill:#ff0000;stroke:#ff0000;stroke-linejoin:miter;"/>
   </g>
   <g id="patch_10">
    <path clip-path="url(#p9f12231cab)" d="M 510.66 315 
C 517.86822 315 524.782181 312.136144 529.879162 307.039162 
C 534.976144 301.942181 537.84 295.02822 537.84 287.82 
C 537.84 280.61178 534.976144 273.697819 529.879162 268.600838 
C 524.782181 263.503856 517.86822 260.64 510.66 260.64 
C 503.45178 260.64 496.537819 263.503856 491.440838 268.600838 
C 486.343856 273.697819 483.48 280.61178 483.48 287.82 
C 483.48 295.02822 486.343856 301.942181 491.440838 307.039162 
C 496.537819 312.136144 503.45178 315 510.66 315 
z
" style="fill:#ff0000;stroke:#ff0000;stroke-linejoin:miter;"/>
   </g>
   <g id="patch_11">
    <path clip-path="url(#p9f12231cab)" d="M 565.02 315 
C 572.22822 315 579.142181 312.136144 584.239162 307.039162 
C 589.336144 301.942181 592.2 295.02822 592.2 287.82 
C 592.2 280.61178 589.336144 273.697819 584.239162 268.600838 
C 579.142181 263.503856 572.22822 260.64 565.02 260.64 
C 557.81178 260.64 550.897819 263.503856 545.800838 268.600838 
C 540.703856 273.697819 537.84 280.61178 537.84 287.82 
C 537.84 295.02822 540.703856 301.942181 545.800838 307.039162 
C 550.897819 312.136144 557.81178 315 565.02 315 
z
" style="fill:#ff0000;stroke:#ff0000;stroke-linejoin:miter;"/>
   </g>
   <g id="patch_12">
    <path clip-path="url(#p9f12231cab)" d="M 75.78 260.64 
C 82.98822 260.64 89.902181 257.776144 94.999162 252.679162 
C 100.096144 247.582181 102.96 240.66822 102.96 233.46 
C 102.96 226.25178 100.096144 219.337819 94.999162 214.240838 
C 89.902181 209.143856 82.98822 206.28 75.78 206.28 
C 68.57178 206.28 61.657819 209.143856 56.560838 214.240838 
C 51.463856 219.337819 48.6 226.25178 48.6 233.46 
C 48.6 240.66822 51.463856 247.582181 56.560838 252.679162 
C 61.657819 257.776144 68.57178 260.64 75.78 260.64 
z
" style="fill:#ff0000;stroke:#ff0000;stroke-linejoin:miter;"/>
   </g>
   <g id="patch_13">
    <path clip-path="url(#p9f12231cab)" d="M 130.14 260.64 
C 137.34822 260.64 144.262181 257.776144 149.359162 252.679162 
C 154.456144 247.582181 157.32 240.66822 157.32 233.46 
C 157.32 226.25178 154.456144 219.337819 149.359162 214.240838 
C 144.262181 209.143856 137.34822 206.28 130.14 206.28 
C 122.93178 206.28 116.017819 209.143856 110.920838 214.240838 
C 105.823856 219.337819 102.96 226.25178 102.96 233.46 
C 102.96 240.66822 105.823856 247.582181 110.920838 252.679162 
C 116.017819 257.776144 122.93178 260.64 130.14 260.64 
z
" style="fill:#ff0000;stroke:#ff0000;stroke-linejoin:miter;"/>
   </g>
   <g id="patch_14">
    <path clip-path="url(#p9f12231cab)" d="M 184.5 260.64 
C 191.70822 260.64 198.622181 257.776144 203.719162 252.679162 
C 208.816144 247.582181 211.68 240.66822 211.68 233.46 
C 211.68 226.25178 208.816144 219.337819 203.719162 214.240838 
C 198.622181 209.143856 191.70822 206.28 184.5 206.28 
C 177.29178 206.28 170.377819 209.143856 165.280838 214.240838 
C 160.183856 219.337819 157.32 226.25178 157.32 233.46 
C 157.32 240.66822 160.183856 247.582181 165.280838 252.679162 
C 170.377819 257.776144 177.29178 260.64 184.5 260.64 
z
" style="stroke:#000000;stroke-linejoin:miter;"/>
   </g>
   <g id="patch_15">
    <path clip-path="url(#p9f12231cab)" d="M 238.86 260.64 
C 246.06822 260.64 252.982181 257.776144 258.079162 252.679162 
C 263.176144 247.582181 266.04 240.66822 266.04 233.46 
C 266.04 226.25178 263.176144 219.337819 258.079162 214.240838 
C 252.982181 209.143856 246.06822 206.28 238.86 206.28 
C 231.65178 206.28 224.737819 209.143856 219.640838 214.240838 
C 214.543856 219.337819 211.68 226.25178 211.68 233.46 
C 211.68 240.66822 214.543856 247.582181 219.640838 252.679162 
C 224.737819 257.776144 231.65178 260.64 238.86 260.64 
z
" style="fill:#ff0000;stroke:#ff0000;stroke-linejoin:miter;"/>
   </g>
   <g id="patch_16">
    <path clip-path="url(#p9f12231cab)" d="M 293.22 260.64 
C 300.42822 260.64 307.342181 257.776144 312.439162 252.679162 
C 317.536144 247.582181 320.4 240.66822 320.4 233.46 
C 320.4 226.25178 317.536144 219.337819 312.439162 214.240838 
C 307.342181 209.143856 300.42822 206.28 293.22 206.28 
C 286.01178 206.28 279.097819 209.143856 274.000838 214.240838 
C 268.903856 219.337819 266.04 226.25178 266.04 233.46 
C 266.04 240.66822 268.903856 247.582181 274.000838 252.679162 
C 279.097819 257.776144 286.01178 260.64 293.22 260.64 
z
" style="stroke:#000000;stroke-linejoin:miter;"/>
   </g>
   <g id="patch_17">
    <path clip-path="url(#p9f12231cab)" d="M 347.58 260.64 
C 354.78822 260.64 361.702181 257.776144 366.799162 252.679162 
C 371.896144 247.582181 374.76 240.66822 374.76 233.46 
C 374.76 226.25178 371.896144 219.337819 366.799162 214.240838 
C 361.702181 209.143856 354.78822 206.28 347.58 206.28 
C 340.37178 206.28 333.457819 209.143856 328.360838 214.240838 
C 323.263856 219.337819 320.4 226.25178 320.4 233.46 
C 320.4 240.66822 323.263856 247.582181 328.360838 252.679162 
C 333.457819 257.776144 340.37178 260.64 347.58 260.64 
z
" style="stroke:#000000;stroke-linejoin:miter;"/>
   </g>
   <g id="patch_18">
    <path clip-path="url(#p9f12231cab)" d="M 401.94 260.64 
C 409.14822 260.64 416.062181 257.776144 421.159162 252.679162 
C 426.256144 247.582181 429.12 240.66822 429.12 233.46 
C 429.12 226.25178 426.256144 219.337819 421.159162 214.240838 
C 416.062181 209.143856 409.14822 206.28 401.94 206.28 
C 394.73178 206.28 387.817819 209.143856 382.720838 214.240838 
C 377.623856 219.337819 374.76 226.25178 374.76 233.46 
C 374.76 240.66822 377.623856 247.582181 382.720838 252.679162 
C 387.817819 257.776144 394.73178 260.64 401.94 260.64 
z
" style="fill:#ff0000;stroke:#ff0000;stroke-linejoin:miter;"/>
   </g>
   <g id="patch_19">
    <path clip-path="url(#p9f12231cab)" d="M 456.3 260.64 
C 463.50822 260.64 470.422181 257.776144 475.519162 252.679162 
C 480.616144 247.582181 483.48 240.66822 483.48 233.46 
C 483.48 226.25178 480.616144 219.337819 475.519162 214.240838 
C 470.422181 209.143856 463.50822 206.28 456.3 206.28 
C 449.09178 206.28 442.177819 209.143856 437.080838 214.240838 
C 431.983856 219.337819 429.12 226.25178 429.12 233.46 
C 429.12 240.66822 431.983856 247.582181 437.080838 252.679162 
C 442.177819 257.776144 449.09178 260.64 456.3 260.64 
z
" style="fill:#ff0000;stroke:#ff0000;stroke-linejoin:miter;"/>
   </g>
   <g id="patch_20">
    <path clip-path="url(#p9f12231cab)" d="M 510.66 260.64 
C 517.86822 260.64 524.782181 257.776144 529.879162 252.679162 
C 534.976144 247.582181 537.84 240.66822 537.84 233.46 
C 537.84 226.25178 534.976144 219.337819 529.879162 214.240838 
C 524.782181 209.143856 517.86822 206.28 510.66 206.28 
C 503.45178 206.28 496.537819 209.143856 491.440838 214.240838 
C 486.343856 219.337819 483.48 226.25178 483.48 233.46 
C 483.48 240.66822 486.343856 247.582181 491.440838 252.679162 
C 496.537819 257.776144 503.45178 260.64 510.66 260.64 
z
" style="fill:#ff0000;stroke:#ff0000;stroke-linejoin:miter;"/>
   </g>
   <g id="patch_21">
    <path clip-path="url(#p9f12231cab)" d="M 565.02 260.64 
C 572.22822 260.64 579.142181 257.776144 584.239162 252.679162 
C 589.336144 247.582181 592.2 240.66822 592.2 233.46 
C 592.2 226.25178 589.336144 219.337819 584.239162 214.240838 
C 579.142181 209.143856 572.22822 206.28 565.02 206.28 
C 557.81178 206.28 550.897819 209.143856 545.800838 214.240838 
C 540.703856 219.337819 537.84 226.25178 537.84 233.46 
C 537.84 240.66822 540.703856 247.582181 545.800838 252.679162 
C 550.897819 257.776144 557.81178 260.64 565.02 260.64 
z
" style="fill:#ff0000;stroke:#ff0000;stroke-linejoin:miter;"/>
   </g>
   <g id="patch_22">
    <path clip-path="url(#p9f12231cab)" d="M 75.78 206.28 
C 82.98822 206.28 89.902181 203.416144 94.999162 198.319162 
C 100.096144 193.222181 102.96 186.30822 102.96 179.1 
C 102.96 171.89178 100.096144 164.977819 94.999162 159.880838 
C 89.902181 154.783856 82.98822 151.92 75.78 151.92 
C 68.57178 151.92 61.657819 154.783856 56.560838 159.880838 
C 51.463856 164.977819 48.6 171.89178 48.6 179.1 
C 48.6 186.30822 51.463856 193.222181 56.560838 198.319162 
C 61.657819 203.416144 68.57178 206.28 75.78 206.28 
z
" style="stroke:#000000;stroke-linejoin:miter;"/>
   </g>
   <g id="patch_23">
    <path clip-path="url(#p9f12231cab)" d="M 130.14 206.28 
C 137.34822 206.28 144.262181 203.416144 149.359162 198.319162 
C 154.456144 193.222181 157.32 186.30822 157.32 179.1 
C 157.32 171.89178 154.456144 164.977819 149.359162 159.880838 
C 144.262181 154.783856 137.34822 151.92 130.14 151.92 
C 122.93178 151.92 116.017819 154.783856 110.920838 159.880838 
C 105.823856 164.977819 102.96 171.89178 102.96 179.1 
C 102.96 186.30822 105.823856 193.222181 110.920838 198.319162 
C 116.017819 203.416144 122.93178 206.28 130.14 206.28 
z
" style="fill:#ff0000;stroke:#ff0000;stroke-linejoin:miter;"/>
   </g>
   <g id="patch_24">
    <path clip-path="url(#p9f12231cab)" d="M 184.5 206.28 
C 191.70822 206.28 198.622181 203.416144 203.719162 198.319162 
C 208.816144 193.222181 211.68 186.30822 211.68 179.1 
C 211.68 171.89178 208.816144 164.977819 203.719162 159.880838 
C 198.622181 154.783856 191.70822 151.92 184.5 151.92 
C 177.29178 151.92 170.377819 154.783856 165.280838 159.880838 
C 160.183856 164.977819 157.32 171.89178 157.32 179.1 
C 157.32 186.30822 160.183856 193.222181 165.280838 198.319162 
C 170.377819 203.416144 177.29178 206.28 184.5 206.28 
z
" style="stroke:#000000;stroke-linejoin:miter;"/>
   </g>
   <g id="patch_25">
    <path clip-path="url(#p9f12231cab)" d="M 238.86 206.28 
C 246.06822 206.28 252.982181 203.416144 258.079162 198.319162 
C 263.176144 193.222181 266.04 186.30822 266.04 179.1 
C 266.04 171.89178 263.176144 164.977819 258.079162 159.880838 
C 252.982181 154.783856 246.06822 151.92 238.86 151.92 
C 231.65178 151.92 224.737819 154.783856 219.640838 159.880838 
C 214.543856 164.977819 211.68 171.89178 211.68 179.1 
C 211.68 186.30822 214.543856 193.222181 219.640838 198.319162 
C 224.737819 203.416144 231.65178 206.28 238.86 206.28 
z
" style="stroke:#000000;stroke-linejoin:miter;"/>
   </g>
   <g id="patch_26">
    <path clip-path="url(#p9f12231cab)" d="M 293.22 206.28 
C 300.42822 206.28 307.342181 203.416144 312.439162 198.319162 
C 317.536144 193.222181 320.4 186.30822 320.4 179.1 
C 320.4 171.89178 317.536144 164.977819 312.439162 159.880838 
C 307.342181 154.783856 300.42822 151.92 293.22 151.92 
C 286.01178 151.92 279.097819 154.783856 274.000838 159.880838 
C 268.903856 164.977819 266.04 171.89178 266.04 179.1 
C 266.04 186.30822 268.903856 193.222181 274.000838 198.319162 
C 279.097819 203.416144 286.01178 206.28 293.22 206.28 
z
" style="fill:#ff0000;stroke:#ff0000;stroke-linejoin:miter;"/>
   </g>
   <g id="patch_27">
    <path clip-path="url(#p9f12231cab)" d="M 347.58 206.28 
C 354.78822 206.28 361.702181 203.416144 366.799162 198.319162 
C 371.896144 193.222181 374.76 186.30822 374.76 179.1 
C 374.76 171.89178 371.896144 164.977819 366.799162 159.880838 
C 361.702181 154.783856 354.78822 151.92 347.58 151.92 
C 340.37178 151.92 333.457819 154.783856 328.360838 159.880838 
C 323.263856 164.977819 320.4 171.89178 320.4 179.1 
C 320.4 186.30822 323.263856 193.222181 328.360838 198.319162 
C 333.457819 203.416144 340.37178 206.28 347.58 206.28 
z
" style="fill:#ff0000;stroke:#ff0000;stroke-linejoin:miter;"/>
   </g>
   <g id="patch_28">
    <path clip-path="url(#p9f12231cab)" d="M 401.94 206.28 
C 409.14822 206.28 416.062181 203.416144 421.159162 198.319162 
C 426.256144 193.222181 429.12 186.30822 429.12 179.1 
C 429.12 171.89178 426.256144 164.977819 421.159162 159.880838 
C 416.062181 154.783856 409.14822 151.92 401.94 151.92 
C 394.73178 151.92 387.817819 154.783856 382.720838 159.880838 
C 377.623856 164.977819 374.76 171.89178 374.76 179.1 
C 374.76 186.30822 377.623856 193.222181 382.720838 198.319162 
C 387.817819 203.416144 394.73178 206.28 401.94 206.28 
z
" style="stroke:#000000;stroke-linejoin:miter;"/>
   </g>
   <g id="patch_29">
    <path clip-path="url(#p9f12231cab)" d="M 456.3 206.28 
C 463.50822 206.28 470.422181 203.416144 475.519162 198.319162 
C 480.616144 193.222181 483.48 186.30822 483.48 179.1 
C 483.48 171.89178 480.616144 164.977819 475.519162 159.880838 
C 470.422181 154.783856 463.50822 151.92 456.3 151.92 
C 449.09178 151.92 442.177819 154.783856 437.080838 159.880838 
C 431.983856 164.977819 429.12 171.89178 429.12 179.1 
C 429.12 186.30822 431.983856 193.222181 437.080838 198.319162 
C 442.177819 203.416144 449.09178 206.28 456.3 206.28 
z
" style="fill:#ff0000;stroke:#ff0000;stroke-linejoin:miter;"/>
   </g>
   <g id="patch_30">
    <path clip-path="url(#p9f12231cab)" d="M 510.66 206.28 
C 517.86822 206.28 524.782181 203.416144 529.879162 198.319162 
C 534.976144 193.222181 537.84 186.30822 537.84 179.1 
C 537.84 171.89178 534.976144 164.977819 529.879162 159.880838 
C 524.782181 154.783856 517.86822 151.92 510.66 151.92 
C 503.45178 151.92 496.537819 154.783856 491.440838 159.880838 
C 486.343856 164.977819 483.48 171.89178 483.48 179.1 
C 483.48 186.30822 486.343856 193.222181 491.440838 198.319162 
C 496.537819 203.416144 503.45178 206.28 510.66 206.28 
z
" style="stroke:#000000;stroke-linejoin:miter;"/>
   </g>
   <g id="patch_31">
    <path clip-path="url(#p9f12231cab)" d="M 565.02 206.28 
C 572.22822 206.28 579.142181 203.416144 584.239162 198.319162 
C 589.336144 193.222181 592.2 186.30822 592.2 179.1 
C 592.2 171.89178 589.336144 164.977819 584.239162 159.880838 
C 579.142181 154.783856 572.22822 151.92 565.02 151.92 
C 557.81178 151.92 550.897819 154.783856 545.800838 159.880838 
C 540.703856 164.977819 537.84 171.89178 537.84 179.1 
C 537.84 186.30822 540.703856 193.222181 545.800838 198.319162 
C 550.897819 203.416144 557.81178 206.28 565.02 206.28 
z
" style="fill:#ff0000;stroke:#ff0000;stroke-linejoin:miter;"/>
   </g>
   <g id="patch_32">
    <path clip-path="url(#p9f12231cab)" d="M 75.78 151.92 
C 82.98822 151.92 89.902181 149.056144 94.999162 143.959162 
C 100.096144 138.862181 102.96 131.94822 102.96 124.74 
C 102.96 117.53178 100.096144 110.617819 94.999162 105.520838 
C 89.902181 100.423856 82.98822 97.56 75.78 97.56 
C 68.57178 97.56 61.657819 100.423856 56.560838 105.520838 
C 51.463856 110.617819 48.6 117.53178 48.6 124.74 
C 48.6 131.94822 51.463856 138.862181 56.560838 143.959162 
C 61.657819 149.056144 68.57178 151.92 75.78 151.92 
z
" style="stroke:#000000;stroke-linejoin:miter;"/>
   </g>
   <g id="patch_33">
    <path clip-path="url(#p9f12231cab)" d="M 130.14 151.92 
C 137.34822 151.92 144.262181 149.056144 149.359162 143.959162 
C 154.456144 138.862181 157.32 131.94822 157.32 124.74 
C 157.32 117.53178 154.456144 110.617819 149.359162 105.520838 
C 144.262181 100.423856 137.34822 97.56 130.14 97.56 
C 122.93178 97.56 116.017819 100.423856 110.920838 105.520838 
C 105.823856 110.617819 102.96 117.53178 102.96 124.74 
C 102.96 131.94822 105.823856 138.862181 110.920838 143.959162 
C 116.017819 149.056144 122.93178 151.92 130.14 151.92 
z
" style="stroke:#000000;stroke-linejoin:miter;"/>
   </g>
   <g id="patch_34">
    <path clip-path="url(#p9f12231cab)" d="M 184.5 151.92 
C 191.70822 151.92 198.622181 149.056144 203.719162 143.959162 
C 208.816144 138.862181 211.68 131.94822 211.68 124.74 
C 211.68 117.53178 208.816144 110.617819 203.719162 105.520838 
C 198.622181 100.423856 191.70822 97.56 184.5 97.56 
C 177.29178 97.56 170.377819 100.423856 165.280838 105.520838 
C 160.183856 110.617819 157.32 117.53178 157.32 124.74 
C 157.32 131.94822 160.183856 138.862181 165.280838 143.959162 
C 170.377819 149.056144 177.29178 151.92 184.5 151.92 
z
" style="stroke:#000000;stroke-linejoin:miter;"/>
   </g>
   <g id="line2d_1">
    <path clip-path="url(#p9f12231cab)" d="M 48.6 43.2 
L 48.6 315 
L 320.4 315 
L 320.4 43.2 
" style="fill:none;stroke:#000000;stroke-linecap:square;stroke-width:3;"/>
   </g>
  </g>
 </g>
 <defs>
  <clipPath id="p9f12231cab">
   <rect height="271.8" width="271.8" x="48.6" y="43.2"/>
  </clipPath>
 </defs>
</svg>
