<?xml version="1.0" encoding="utf-8" standalone="no"?>
<!DOCTYPE svg PUBLIC "-//W3C//DTD SVG 1.1//EN"
  "http://www.w3.org/Graphics/SVG/1.1/DTD/svg11.dtd">
<!-- Created with matplotlib (http://matplotlib.org/) -->
<svg height="432pt" version="1.1" viewBox="0 0 864 432" width="864pt" xmlns="http://www.w3.org/2000/svg" xmlns:xlink="http://www.w3.org/1999/xlink">
 <defs>
  <style type="text/css">
*{stroke-linecap:butt;stroke-linejoin:round;}
  </style>
 </defs>
 <g id="figure_1">
  <g id="patch_1">
   <path d="M 0 432 
L 864 432 
L 864 0 
L 0 0 
z
" style="fill:none;"/>
  </g>
  <g id="axes_1">
   <g id="patch_2">
    <path d="M 108 378 
L 777.6 378 
L 777.6 51.84 
L 108 51.84 
z
" style="fill:none;"/>
   </g>
   <g id="matplotlib.axis_1">
    <g id="xtick_1">
     <g id="line2d_1">
      <defs>
       <path d="M 0 0 
L 0 3.5 
" id="mf7da05b5f8" style="stroke:#000000;stroke-width:0.8;"/>
      </defs>
      <g>
       <use style="stroke:#000000;stroke-width:0.8;" x="108" xlink:href="#mf7da05b5f8" y="378"/>
      </g>
     </g>
     <g id="text_1">
      <!-- 0.00 -->
      <defs>
       <path d="M 31.78125 66.40625 
Q 24.171875 66.40625 20.328125 58.90625 
Q 16.5 51.421875 16.5 36.375 
Q 16.5 21.390625 20.328125 13.890625 
Q 24.171875 6.390625 31.78125 6.390625 
Q 39.453125 6.390625 43.28125 13.890625 
Q 47.125 21.390625 47.125 36.375 
Q 47.125 51.421875 43.28125 58.90625 
Q 39.453125 66.40625 31.78125 66.40625 
z
M 31.78125 74.21875 
Q 44.046875 74.21875 50.515625 64.515625 
Q 56.984375 54.828125 56.984375 36.375 
Q 56.984375 17.96875 50.515625 8.265625 
Q 44.046875 -1.421875 31.78125 -1.421875 
Q 19.53125 -1.421875 13.0625 8.265625 
Q 6.59375 17.96875 6.59375 36.375 
Q 6.59375 54.828125 13.0625 64.515625 
Q 19.53125 74.21875 31.78125 74.21875 
z
" id="DejaVuSans-30"/>
       <path d="M 10.6875 12.40625 
L 21 12.40625 
L 21 0 
L 10.6875 0 
z
" id="DejaVuSans-2e"/>
      </defs>
      <g transform="translate(96.867188 392.598437)scale(0.1 -0.1)">
       <use xlink:href="#DejaVuSans-30"/>
       <use x="63.623047" xlink:href="#DejaVuSans-2e"/>
       <use x="95.410156" xlink:href="#DejaVuSans-30"/>
       <use x="159.033203" xlink:href="#DejaVuSans-30"/>
      </g>
     </g>
    </g>
    <g id="xtick_2">
     <g id="line2d_2">
      <g>
       <use style="stroke:#000000;stroke-width:0.8;" x="191.7" xlink:href="#mf7da05b5f8" y="378"/>
      </g>
     </g>
     <g id="text_2">
      <!-- 0.25 -->
      <defs>
       <path d="M 19.1875 8.296875 
L 53.609375 8.296875 
L 53.609375 0 
L 7.328125 0 
L 7.328125 8.296875 
Q 12.9375 14.109375 22.625 23.890625 
Q 32.328125 33.6875 34.8125 36.53125 
Q 39.546875 41.84375 41.421875 45.53125 
Q 43.3125 49.21875 43.3125 52.78125 
Q 43.3125 58.59375 39.234375 62.25 
Q 35.15625 65.921875 28.609375 65.921875 
Q 23.96875 65.921875 18.8125 64.3125 
Q 13.671875 62.703125 7.8125 59.421875 
L 7.8125 69.390625 
Q 13.765625 71.78125 18.9375 73 
Q 24.125 74.21875 28.421875 74.21875 
Q 39.75 74.21875 46.484375 68.546875 
Q 53.21875 62.890625 53.21875 53.421875 
Q 53.21875 48.921875 51.53125 44.890625 
Q 49.859375 40.875 45.40625 35.40625 
Q 44.1875 33.984375 37.640625 27.21875 
Q 31.109375 20.453125 19.1875 8.296875 
z
" id="DejaVuSans-32"/>
       <path d="M 10.796875 72.90625 
L 49.515625 72.90625 
L 49.515625 64.59375 
L 19.828125 64.59375 
L 19.828125 46.734375 
Q 21.96875 47.46875 24.109375 47.828125 
Q 26.265625 48.1875 28.421875 48.1875 
Q 40.625 48.1875 47.75 41.5 
Q 54.890625 34.8125 54.890625 23.390625 
Q 54.890625 11.625 47.5625 5.09375 
Q 40.234375 -1.421875 26.90625 -1.421875 
Q 22.3125 -1.421875 17.546875 -0.640625 
Q 12.796875 0.140625 7.71875 1.703125 
L 7.71875 11.625 
Q 12.109375 9.234375 16.796875 8.0625 
Q 21.484375 6.890625 26.703125 6.890625 
Q 35.15625 6.890625 40.078125 11.328125 
Q 45.015625 15.765625 45.015625 23.390625 
Q 45.015625 31 40.078125 35.4375 
Q 35.15625 39.890625 26.703125 39.890625 
Q 22.75 39.890625 18.8125 39.015625 
Q 14.890625 38.140625 10.796875 36.28125 
z
" id="DejaVuSans-35"/>
      </defs>
      <g transform="translate(180.567187 392.598437)scale(0.1 -0.1)">
       <use xlink:href="#DejaVuSans-30"/>
       <use x="63.623047" xlink:href="#DejaVuSans-2e"/>
       <use x="95.410156" xlink:href="#DejaVuSans-32"/>
       <use x="159.033203" xlink:href="#DejaVuSans-35"/>
      </g>
     </g>
    </g>
    <g id="xtick_3">
     <g id="line2d_3">
      <g>
       <use style="stroke:#000000;stroke-width:0.8;" x="275.4" xlink:href="#mf7da05b5f8" y="378"/>
      </g>
     </g>
     <g id="text_3">
      <!-- 0.50 -->
      <g transform="translate(264.267187 392.598437)scale(0.1 -0.1)">
       <use xlink:href="#DejaVuSans-30"/>
       <use x="63.623047" xlink:href="#DejaVuSans-2e"/>
       <use x="95.410156" xlink:href="#DejaVuSans-35"/>
       <use x="159.033203" xlink:href="#DejaVuSans-30"/>
      </g>
     </g>
    </g>
    <g id="xtick_4">
     <g id="line2d_4">
      <g>
       <use style="stroke:#000000;stroke-width:0.8;" x="359.1" xlink:href="#mf7da05b5f8" y="378"/>
      </g>
     </g>
     <g id="text_4">
      <!-- 0.75 -->
      <defs>
       <path d="M 8.203125 72.90625 
L 55.078125 72.90625 
L 55.078125 68.703125 
L 28.609375 0 
L 18.3125 0 
L 43.21875 64.59375 
L 8.203125 64.59375 
z
" id="DejaVuSans-37"/>
      </defs>
      <g transform="translate(347.967188 392.598437)scale(0.1 -0.1)">
       <use xlink:href="#DejaVuSans-30"/>
       <use x="63.623047" xlink:href="#DejaVuSans-2e"/>
       <use x="95.410156" xlink:href="#DejaVuSans-37"/>
       <use x="159.033203" xlink:href="#DejaVuSans-35"/>
      </g>
     </g>
    </g>
    <g id="xtick_5">
     <g id="line2d_5">
      <g>
       <use style="stroke:#000000;stroke-width:0.8;" x="442.8" xlink:href="#mf7da05b5f8" y="378"/>
      </g>
     </g>
     <g id="text_5">
      <!-- 1.00 -->
      <defs>
       <path d="M 12.40625 8.296875 
L 28.515625 8.296875 
L 28.515625 63.921875 
L 10.984375 60.40625 
L 10.984375 69.390625 
L 28.421875 72.90625 
L 38.28125 72.90625 
L 38.28125 8.296875 
L 54.390625 8.296875 
L 54.390625 0 
L 12.40625 0 
z
" id="DejaVuSans-31"/>
      </defs>
      <g transform="translate(431.667188 392.598437)scale(0.1 -0.1)">
       <use xlink:href="#DejaVuSans-31"/>
       <use x="63.623047" xlink:href="#DejaVuSans-2e"/>
       <use x="95.410156" xlink:href="#DejaVuSans-30"/>
       <use x="159.033203" xlink:href="#DejaVuSans-30"/>
      </g>
     </g>
    </g>
    <g id="xtick_6">
     <g id="line2d_6">
      <g>
       <use style="stroke:#000000;stroke-width:0.8;" x="526.5" xlink:href="#mf7da05b5f8" y="378"/>
      </g>
     </g>
     <g id="text_6">
      <!-- 1.25 -->
      <g transform="translate(515.367188 392.598437)scale(0.1 -0.1)">
       <use xlink:href="#DejaVuSans-31"/>
       <use x="63.623047" xlink:href="#DejaVuSans-2e"/>
       <use x="95.410156" xlink:href="#DejaVuSans-32"/>
       <use x="159.033203" xlink:href="#DejaVuSans-35"/>
      </g>
     </g>
    </g>
    <g id="xtick_7">
     <g id="line2d_7">
      <g>
       <use style="stroke:#000000;stroke-width:0.8;" x="610.2" xlink:href="#mf7da05b5f8" y="378"/>
      </g>
     </g>
     <g id="text_7">
      <!-- 1.50 -->
      <g transform="translate(599.067188 392.598437)scale(0.1 -0.1)">
       <use xlink:href="#DejaVuSans-31"/>
       <use x="63.623047" xlink:href="#DejaVuSans-2e"/>
       <use x="95.410156" xlink:href="#DejaVuSans-35"/>
       <use x="159.033203" xlink:href="#DejaVuSans-30"/>
      </g>
     </g>
    </g>
    <g id="xtick_8">
     <g id="line2d_8">
      <g>
       <use style="stroke:#000000;stroke-width:0.8;" x="693.9" xlink:href="#mf7da05b5f8" y="378"/>
      </g>
     </g>
     <g id="text_8">
      <!-- 1.75 -->
      <g transform="translate(682.767187 392.598437)scale(0.1 -0.1)">
       <use xlink:href="#DejaVuSans-31"/>
       <use x="63.623047" xlink:href="#DejaVuSans-2e"/>
       <use x="95.410156" xlink:href="#DejaVuSans-37"/>
       <use x="159.033203" xlink:href="#DejaVuSans-35"/>
      </g>
     </g>
    </g>
    <g id="xtick_9">
     <g id="line2d_9">
      <g>
       <use style="stroke:#000000;stroke-width:0.8;" x="777.6" xlink:href="#mf7da05b5f8" y="378"/>
      </g>
     </g>
     <g id="text_9">
      <!-- 2.00 -->
      <g transform="translate(766.467188 392.598437)scale(0.1 -0.1)">
       <use xlink:href="#DejaVuSans-32"/>
       <use x="63.623047" xlink:href="#DejaVuSans-2e"/>
       <use x="95.410156" xlink:href="#DejaVuSans-30"/>
       <use x="159.033203" xlink:href="#DejaVuSans-30"/>
      </g>
     </g>
    </g>
    <g id="text_10">
     <!-- $x$ -->
     <defs>
      <path d="M 60.015625 54.6875 
L 34.90625 27.875 
L 50.296875 0 
L 39.984375 0 
L 28.421875 21.6875 
L 8.296875 0 
L -2.59375 0 
L 24.3125 28.8125 
L 10.015625 54.6875 
L 20.3125 54.6875 
L 30.8125 34.90625 
L 49.125 54.6875 
z
" id="DejaVuSans-Oblique-78"/>
     </defs>
     <g transform="translate(436.8 413.875)scale(0.2 -0.2)">
      <use transform="translate(0 0.3125)" xlink:href="#DejaVuSans-Oblique-78"/>
     </g>
    </g>
   </g>
   <g id="matplotlib.axis_2">
    <g id="ytick_1">
     <g id="line2d_10">
      <defs>
       <path d="M 0 0 
L -3.5 0 
" id="mad2527e3a4" style="stroke:#000000;stroke-width:0.8;"/>
      </defs>
      <g>
       <use style="stroke:#000000;stroke-width:0.8;" x="108" xlink:href="#mad2527e3a4" y="356.151423"/>
      </g>
     </g>
     <g id="text_11">
      <!-- −3 -->
      <defs>
       <path d="M 10.59375 35.5 
L 73.1875 35.5 
L 73.1875 27.203125 
L 10.59375 27.203125 
z
" id="DejaVuSans-2212"/>
       <path d="M 40.578125 39.3125 
Q 47.65625 37.796875 51.625 33 
Q 55.609375 28.21875 55.609375 21.1875 
Q 55.609375 10.40625 48.1875 4.484375 
Q 40.765625 -1.421875 27.09375 -1.421875 
Q 22.515625 -1.421875 17.65625 -0.515625 
Q 12.796875 0.390625 7.625 2.203125 
L 7.625 11.71875 
Q 11.71875 9.328125 16.59375 8.109375 
Q 21.484375 6.890625 26.8125 6.890625 
Q 36.078125 6.890625 40.9375 10.546875 
Q 45.796875 14.203125 45.796875 21.1875 
Q 45.796875 27.640625 41.28125 31.265625 
Q 36.765625 34.90625 28.71875 34.90625 
L 20.21875 34.90625 
L 20.21875 43.015625 
L 29.109375 43.015625 
Q 36.375 43.015625 40.234375 45.921875 
Q 44.09375 48.828125 44.09375 54.296875 
Q 44.09375 59.90625 40.109375 62.90625 
Q 36.140625 65.921875 28.71875 65.921875 
Q 24.65625 65.921875 20.015625 65.03125 
Q 15.375 64.15625 9.8125 62.3125 
L 9.8125 71.09375 
Q 15.4375 72.65625 20.34375 73.4375 
Q 25.25 74.21875 29.59375 74.21875 
Q 40.828125 74.21875 47.359375 69.109375 
Q 53.90625 64.015625 53.90625 55.328125 
Q 53.90625 49.265625 50.4375 45.09375 
Q 46.96875 40.921875 40.578125 39.3125 
z
" id="DejaVuSans-33"/>
      </defs>
      <g transform="translate(86.257812 359.950642)scale(0.1 -0.1)">
       <use xlink:href="#DejaVuSans-2212"/>
       <use x="83.789062" xlink:href="#DejaVuSans-33"/>
      </g>
     </g>
    </g>
    <g id="ytick_2">
     <g id="line2d_11">
      <g>
       <use style="stroke:#000000;stroke-width:0.8;" x="108" xlink:href="#mad2527e3a4" y="309.074282"/>
      </g>
     </g>
     <g id="text_12">
      <!-- −2 -->
      <g transform="translate(86.257812 312.873501)scale(0.1 -0.1)">
       <use xlink:href="#DejaVuSans-2212"/>
       <use x="83.789062" xlink:href="#DejaVuSans-32"/>
      </g>
     </g>
    </g>
    <g id="ytick_3">
     <g id="line2d_12">
      <g>
       <use style="stroke:#000000;stroke-width:0.8;" x="108" xlink:href="#mad2527e3a4" y="261.997141"/>
      </g>
     </g>
     <g id="text_13">
      <!-- −1 -->
      <g transform="translate(86.257812 265.79636)scale(0.1 -0.1)">
       <use xlink:href="#DejaVuSans-2212"/>
       <use x="83.789062" xlink:href="#DejaVuSans-31"/>
      </g>
     </g>
    </g>
    <g id="ytick_4">
     <g id="line2d_13">
      <g>
       <use style="stroke:#000000;stroke-width:0.8;" x="108" xlink:href="#mad2527e3a4" y="214.92"/>
      </g>
     </g>
     <g id="text_14">
      <!-- 0 -->
      <g transform="translate(94.6375 218.719219)scale(0.1 -0.1)">
       <use xlink:href="#DejaVuSans-30"/>
      </g>
     </g>
    </g>
    <g id="ytick_5">
     <g id="line2d_14">
      <g>
       <use style="stroke:#000000;stroke-width:0.8;" x="108" xlink:href="#mad2527e3a4" y="167.842859"/>
      </g>
     </g>
     <g id="text_15">
      <!-- 1 -->
      <g transform="translate(94.6375 171.642078)scale(0.1 -0.1)">
       <use xlink:href="#DejaVuSans-31"/>
      </g>
     </g>
    </g>
    <g id="ytick_6">
     <g id="line2d_15">
      <g>
       <use style="stroke:#000000;stroke-width:0.8;" x="108" xlink:href="#mad2527e3a4" y="120.765718"/>
      </g>
     </g>
     <g id="text_16">
      <!-- 2 -->
      <g transform="translate(94.6375 124.564937)scale(0.1 -0.1)">
       <use xlink:href="#DejaVuSans-32"/>
      </g>
     </g>
    </g>
    <g id="ytick_7">
     <g id="line2d_16">
      <g>
       <use style="stroke:#000000;stroke-width:0.8;" x="108" xlink:href="#mad2527e3a4" y="73.688577"/>
      </g>
     </g>
     <g id="text_17">
      <!-- 3 -->
      <g transform="translate(94.6375 77.487796)scale(0.1 -0.1)">
       <use xlink:href="#DejaVuSans-33"/>
      </g>
     </g>
    </g>
    <g id="text_18">
     <!-- $\phi(x)$ -->
     <defs>
      <path d="M 46.734375 75.984375 
L 42.78125 55.8125 
Q 52.546875 55.8125 57.5625 48.34375 
Q 62.75 40.71875 60.15625 27.296875 
Q 57.515625 13.875 49.359375 6.25 
Q 41.453125 -1.21875 31.6875 -1.21875 
L 27.875 -20.796875 
L 18.953125 -20.796875 
L 22.75 -1.21875 
Q 13.03125 -1.21875 7.953125 6.25 
Q 2.78125 13.875 5.421875 27.296875 
Q 8.015625 40.71875 16.15625 48.34375 
Q 24.125 55.8125 33.84375 55.8125 
L 37.796875 75.984375 
z
M 33.25 6.78125 
Q 38.765625 6.78125 43.5 11.8125 
Q 48.6875 17.4375 50.6875 27.296875 
Q 52.640625 37.0625 49.515625 42.78125 
Q 46.734375 47.796875 41.21875 47.796875 
z
M 24.3125 6.78125 
L 32.28125 47.796875 
Q 26.8125 47.796875 22.078125 42.78125 
Q 16.75 37.0625 14.890625 27.296875 
Q 13.03125 17.4375 16.0625 11.8125 
Q 18.796875 6.78125 24.3125 6.78125 
z
" id="DejaVuSans-Oblique-3d5"/>
      <path d="M 31 75.875 
Q 24.46875 64.65625 21.28125 53.65625 
Q 18.109375 42.671875 18.109375 31.390625 
Q 18.109375 20.125 21.3125 9.0625 
Q 24.515625 -2 31 -13.1875 
L 23.1875 -13.1875 
Q 15.875 -1.703125 12.234375 9.375 
Q 8.59375 20.453125 8.59375 31.390625 
Q 8.59375 42.28125 12.203125 53.3125 
Q 15.828125 64.359375 23.1875 75.875 
z
" id="DejaVuSans-28"/>
      <path d="M 8.015625 75.875 
L 15.828125 75.875 
Q 23.140625 64.359375 26.78125 53.3125 
Q 30.421875 42.28125 30.421875 31.390625 
Q 30.421875 20.453125 26.78125 9.375 
Q 23.140625 -1.703125 15.828125 -13.1875 
L 8.015625 -13.1875 
Q 14.5 -2 17.703125 9.0625 
Q 20.90625 20.125 20.90625 31.390625 
Q 20.90625 42.671875 17.703125 53.65625 
Q 14.5 64.65625 8.015625 75.875 
z
" id="DejaVuSans-29"/>
     </defs>
     <g transform="translate(78.057812 235.32)rotate(-90)scale(0.2 -0.2)">
      <use transform="translate(0 0.015625)" xlink:href="#DejaVuSans-Oblique-3d5"/>
      <use transform="translate(65.966797 0.015625)" xlink:href="#DejaVuSans-28"/>
      <use transform="translate(104.980469 0.015625)" xlink:href="#DejaVuSans-Oblique-78"/>
      <use transform="translate(164.160156 0.015625)" xlink:href="#DejaVuSans-29"/>
     </g>
    </g>
   </g>
   <g id="line2d_17">
    <path clip-path="url(#p8d16be990c)" d="M 108 167.842859 
L 114.763636 167.842859 
L 121.527273 167.842859 
L 128.290909 167.842859 
L 135.054545 167.842859 
L 141.818182 167.842859 
L 148.581818 167.842859 
L 155.345455 167.842859 
L 162.109091 167.842859 
L 168.872727 167.842859 
L 175.636364 167.842859 
L 182.4 167.842859 
L 189.163636 167.842859 
L 195.927273 167.842859 
L 202.690909 167.842859 
L 209.454545 167.842859 
L 216.218182 167.842859 
L 222.981818 167.842859 
L 229.745455 167.842859 
L 236.509091 167.842859 
L 243.272727 167.842859 
L 250.036364 167.842859 
L 256.8 167.842859 
L 263.563636 167.842859 
L 270.327273 167.842859 
L 277.090909 167.842859 
L 283.854545 167.842859 
L 290.618182 167.842859 
L 297.381818 167.842859 
L 304.145455 167.842859 
L 310.909091 167.842859 
L 317.672727 167.842859 
L 324.436364 167.842859 
L 331.2 167.842859 
L 337.963636 167.842859 
L 344.727273 167.842859 
L 351.490909 167.842859 
L 358.254545 167.842859 
L 365.018182 167.842859 
L 371.781818 167.842859 
L 378.545455 167.842859 
L 385.309091 167.842859 
L 392.072727 167.842859 
L 398.836364 167.842859 
L 405.6 167.842859 
L 412.363636 167.842859 
L 419.127273 167.842859 
L 425.890909 167.842859 
L 432.654545 167.842859 
L 439.418182 167.842859 
L 446.181818 167.842859 
L 452.945455 167.842859 
L 459.709091 167.842859 
L 466.472727 167.842859 
L 473.236364 167.842859 
L 480 167.842859 
L 486.763636 167.842859 
L 493.527273 167.842859 
L 500.290909 167.842859 
L 507.054545 167.842859 
L 513.818182 167.842859 
L 520.581818 167.842859 
L 527.345455 167.842859 
L 534.109091 167.842859 
L 540.872727 167.842859 
L 547.636364 167.842859 
L 554.4 167.842859 
L 561.163636 167.842859 
L 567.927273 167.842859 
L 574.690909 167.842859 
L 581.454545 167.842859 
L 588.218182 167.842859 
L 594.981818 167.842859 
L 601.745455 167.842859 
L 608.509091 167.842859 
L 615.272727 167.842859 
L 622.036364 167.842859 
L 628.8 167.842859 
L 635.563636 167.842859 
L 642.327273 167.842859 
L 649.090909 167.842859 
L 655.854545 167.842859 
L 662.618182 167.842859 
L 669.381818 167.842859 
L 676.145455 167.842859 
L 682.909091 167.842859 
L 689.672727 167.842859 
L 696.436364 167.842859 
L 703.2 167.842859 
L 709.963636 167.842859 
L 716.727273 167.842859 
L 723.490909 167.842859 
L 730.254545 167.842859 
L 737.018182 167.842859 
L 743.781818 167.842859 
L 750.545455 167.842859 
L 757.309091 167.842859 
L 764.072727 167.842859 
L 770.836364 167.842859 
L 777.6 167.842859 
" style="fill:none;stroke:#ff0000;stroke-linecap:square;stroke-width:3;"/>
   </g>
   <g id="line2d_18">
    <path clip-path="url(#p8d16be990c)" d="M 108 214.92 
L 114.763636 211.934183 
L 121.527273 208.960389 
L 128.290909 206.010592 
L 135.054545 203.096671 
L 141.818182 200.230357 
L 148.581818 197.423194 
L 155.345455 194.686484 
L 162.109091 192.031248 
L 168.872727 189.468176 
L 175.636364 187.00759 
L 182.4 184.659397 
L 189.163636 182.433053 
L 195.927273 180.337523 
L 202.690909 178.381244 
L 209.454545 176.572093 
L 216.218182 174.917356 
L 222.981818 173.423696 
L 229.745455 172.097126 
L 236.509091 170.94299 
L 243.272727 169.965933 
L 250.036364 169.16989 
L 256.8 168.558067 
L 263.563636 168.132927 
L 270.327273 167.896181 
L 277.090909 167.848785 
L 283.854545 167.990927 
L 290.618182 168.322036 
L 297.381818 168.840779 
L 304.145455 169.545067 
L 310.909091 170.432063 
L 317.672727 171.498197 
L 324.436364 172.739175 
L 331.2 174.15 
L 337.963636 175.724992 
L 344.727273 177.457808 
L 351.490909 179.341471 
L 358.254545 181.368396 
L 365.018182 183.530422 
L 371.781818 185.818842 
L 378.545455 188.224443 
L 385.309091 190.737537 
L 392.072727 193.348005 
L 398.836364 196.045337 
L 405.6 198.81867 
L 412.363636 201.656837 
L 419.127273 204.54841 
L 425.890909 207.481746 
L 432.654545 210.445033 
L 439.418182 213.42634 
L 446.181818 216.41366 
L 452.945455 219.394967 
L 459.709091 222.358254 
L 466.472727 225.29159 
L 473.236364 228.183163 
L 480 231.02133 
L 486.763636 233.794663 
L 493.527273 236.491995 
L 500.290909 239.102463 
L 507.054545 241.615557 
L 513.818182 244.021158 
L 520.581818 246.309578 
L 527.345455 248.471604 
L 534.109091 250.498529 
L 540.872727 252.382192 
L 547.636364 254.115008 
L 554.4 255.69 
L 561.163636 257.100825 
L 567.927273 258.341803 
L 574.690909 259.407937 
L 581.454545 260.294933 
L 588.218182 260.999221 
L 594.981818 261.517964 
L 601.745455 261.849073 
L 608.509091 261.991215 
L 615.272727 261.943819 
L 622.036364 261.707073 
L 628.8 261.281933 
L 635.563636 260.67011 
L 642.327273 259.874067 
L 649.090909 258.89701 
L 655.854545 257.742874 
L 662.618182 256.416304 
L 669.381818 254.922644 
L 676.145455 253.267907 
L 682.909091 251.458756 
L 689.672727 249.502477 
L 696.436364 247.406947 
L 703.2 245.180603 
L 709.963636 242.83241 
L 716.727273 240.371824 
L 723.490909 237.808752 
L 730.254545 235.153516 
L 737.018182 232.416806 
L 743.781818 229.609643 
L 750.545455 226.743329 
L 757.309091 223.829408 
L 764.072727 220.879611 
L 770.836364 217.905817 
L 777.6 214.92 
" style="fill:none;stroke:#ff00ff;stroke-linecap:square;stroke-width:3;"/>
   </g>
   <g id="line2d_19">
    <path clip-path="url(#p8d16be990c)" d="M 108 167.842859 
L 114.763636 167.937641 
L 121.527273 168.221603 
L 128.290909 168.693604 
L 135.054545 169.351743 
L 141.818182 170.193368 
L 148.581818 171.215092 
L 155.345455 172.4128 
L 162.109091 173.78167 
L 168.872727 175.316189 
L 175.636364 177.010179 
L 182.4 178.856818 
L 189.163636 180.848671 
L 195.927273 182.977717 
L 202.690909 185.235383 
L 209.454545 187.612579 
L 216.218182 190.099732 
L 222.981818 192.686828 
L 229.745455 195.363449 
L 236.509091 198.118817 
L 243.272727 200.941838 
L 250.036364 203.821143 
L 256.8 206.74514 
L 263.563636 209.702054 
L 270.327273 212.679979 
L 277.090909 215.666924 
L 283.854545 218.650861 
L 290.618182 221.619776 
L 297.381818 224.561712 
L 304.145455 227.464825 
L 310.909091 230.317425 
L 317.672727 233.108024 
L 324.436364 235.825387 
L 331.2 238.45857 
L 337.963636 240.996973 
L 344.727273 243.430373 
L 351.490909 245.748971 
L 358.254545 247.943432 
L 365.018182 250.00492 
L 371.781818 251.925132 
L 378.545455 253.696339 
L 385.309091 255.311406 
L 392.072727 256.763832 
L 398.836364 258.047767 
L 405.6 259.158042 
L 412.363636 260.090186 
L 419.127273 260.840446 
L 425.890909 261.4058 
L 432.654545 261.783972 
L 439.418182 261.97344 
L 446.181818 261.97344 
L 452.945455 261.783972 
L 459.709091 261.4058 
L 466.472727 260.840446 
L 473.236364 260.090186 
L 480 259.158042 
L 486.763636 258.047767 
L 493.527273 256.763832 
L 500.290909 255.311406 
L 507.054545 253.696339 
L 513.818182 251.925132 
L 520.581818 250.00492 
L 527.345455 247.943432 
L 534.109091 245.748971 
L 540.872727 243.430373 
L 547.636364 240.996973 
L 554.4 238.45857 
L 561.163636 235.825387 
L 567.927273 233.108024 
L 574.690909 230.317425 
L 581.454545 227.464825 
L 588.218182 224.561712 
L 594.981818 221.619776 
L 601.745455 218.650861 
L 608.509091 215.666924 
L 615.272727 212.679979 
L 622.036364 209.702054 
L 628.8 206.74514 
L 635.563636 203.821143 
L 642.327273 200.941838 
L 649.090909 198.118817 
L 655.854545 195.363449 
L 662.618182 192.686828 
L 669.381818 190.099732 
L 676.145455 187.612579 
L 682.909091 185.235383 
L 689.672727 182.977717 
L 696.436364 180.848671 
L 703.2 178.856818 
L 709.963636 177.010179 
L 716.727273 175.316189 
L 723.490909 173.78167 
L 730.254545 172.4128 
L 737.018182 171.215092 
L 743.781818 170.193368 
L 750.545455 169.351743 
L 757.309091 168.693604 
L 764.072727 168.221603 
L 770.836364 167.937641 
L 777.6 167.842859 
" style="fill:none;stroke:#0000ff;stroke-linecap:square;stroke-width:3;"/>
   </g>
   <g id="line2d_20">
    <path clip-path="url(#p8d16be990c)" d="M 108 214.92 
L 114.763636 208.960389 
L 121.527273 203.096671 
L 128.290909 197.423194 
L 135.054545 192.031248 
L 141.818182 187.00759 
L 148.581818 182.433053 
L 155.345455 178.381244 
L 162.109091 174.917356 
L 168.872727 172.097126 
L 175.636364 169.965933 
L 182.4 168.558067 
L 189.163636 167.896181 
L 195.927273 167.990927 
L 202.690909 168.840779 
L 209.454545 170.432063 
L 216.218182 172.739175 
L 222.981818 175.724992 
L 229.745455 179.341471 
L 236.509091 183.530422 
L 243.272727 188.224443 
L 250.036364 193.348005 
L 256.8 198.81867 
L 263.563636 204.54841 
L 270.327273 210.445033 
L 277.090909 216.41366 
L 283.854545 222.358254 
L 290.618182 228.183163 
L 297.381818 233.794663 
L 304.145455 239.102463 
L 310.909091 244.021158 
L 317.672727 248.471604 
L 324.436364 252.382192 
L 331.2 255.69 
L 337.963636 258.341803 
L 344.727273 260.294933 
L 351.490909 261.517964 
L 358.254545 261.991215 
L 365.018182 261.707073 
L 371.781818 260.67011 
L 378.545455 258.89701 
L 385.309091 256.416304 
L 392.072727 253.267907 
L 398.836364 249.502477 
L 405.6 245.180603 
L 412.363636 240.371824 
L 419.127273 235.153516 
L 425.890909 229.609643 
L 432.654545 223.829408 
L 439.418182 217.905817 
L 446.181818 211.934183 
L 452.945455 206.010592 
L 459.709091 200.230357 
L 466.472727 194.686484 
L 473.236364 189.468176 
L 480 184.659397 
L 486.763636 180.337523 
L 493.527273 176.572093 
L 500.290909 173.423696 
L 507.054545 170.94299 
L 513.818182 169.16989 
L 520.581818 168.132927 
L 527.345455 167.848785 
L 534.109091 168.322036 
L 540.872727 169.545067 
L 547.636364 171.498197 
L 554.4 174.15 
L 561.163636 177.457808 
L 567.927273 181.368396 
L 574.690909 185.818842 
L 581.454545 190.737537 
L 588.218182 196.045337 
L 594.981818 201.656837 
L 601.745455 207.481746 
L 608.509091 213.42634 
L 615.272727 219.394967 
L 622.036364 225.29159 
L 628.8 231.02133 
L 635.563636 236.491995 
L 642.327273 241.615557 
L 649.090909 246.309578 
L 655.854545 250.498529 
L 662.618182 254.115008 
L 669.381818 257.100825 
L 676.145455 259.407937 
L 682.909091 260.999221 
L 689.672727 261.849073 
L 696.436364 261.943819 
L 703.2 261.281933 
L 709.963636 259.874067 
L 716.727273 257.742874 
L 723.490909 254.922644 
L 730.254545 251.458756 
L 737.018182 247.406947 
L 743.781818 242.83241 
L 750.545455 237.808752 
L 757.309091 232.416806 
L 764.072727 226.743329 
L 770.836364 220.879611 
L 777.6 214.92 
" style="fill:none;stroke:#00ff00;stroke-linecap:square;stroke-width:3;"/>
   </g>
   <g id="patch_3">
    <path d="M 108 378 
L 108 51.84 
" style="fill:none;stroke:#000000;stroke-linecap:square;stroke-linejoin:miter;stroke-width:0.8;"/>
   </g>
   <g id="patch_4">
    <path d="M 777.6 378 
L 777.6 51.84 
" style="fill:none;stroke:#000000;stroke-linecap:square;stroke-linejoin:miter;stroke-width:0.8;"/>
   </g>
   <g id="patch_5">
    <path d="M 108 378 
L 777.6 378 
" style="fill:none;stroke:#000000;stroke-linecap:square;stroke-linejoin:miter;stroke-width:0.8;"/>
   </g>
   <g id="patch_6">
    <path d="M 108 51.84 
L 777.6 51.84 
" style="fill:none;stroke:#000000;stroke-linecap:square;stroke-linejoin:miter;stroke-width:0.8;"/>
   </g>
   <g id="text_19">
    <!-- $\phi(x) = 1$ -->
    <defs>
     <path d="M 10.59375 45.40625 
L 73.1875 45.40625 
L 73.1875 37.203125 
L 10.59375 37.203125 
z
M 10.59375 25.484375 
L 73.1875 25.484375 
L 73.1875 17.1875 
L 10.59375 17.1875 
z
" id="DejaVuSans-3d"/>
    </defs>
    <g style="fill:#ff0000;" transform="translate(69 196.089144)scale(0.2 -0.2)">
     <use transform="translate(0 0.015625)" xlink:href="#DejaVuSans-Oblique-3d5"/>
     <use transform="translate(65.966797 0.015625)" xlink:href="#DejaVuSans-28"/>
     <use transform="translate(104.980469 0.015625)" xlink:href="#DejaVuSans-Oblique-78"/>
     <use transform="translate(164.160156 0.015625)" xlink:href="#DejaVuSans-29"/>
     <use transform="translate(222.65625 0.015625)" xlink:href="#DejaVuSans-3d"/>
     <use transform="translate(325.927734 0.015625)" xlink:href="#DejaVuSans-31"/>
    </g>
   </g>
   <g id="text_20">
    <!-- $\phi(x) = \sin(x)$ -->
    <defs>
     <path d="M 44.28125 53.078125 
L 44.28125 44.578125 
Q 40.484375 46.53125 36.375 47.5 
Q 32.28125 48.484375 27.875 48.484375 
Q 21.1875 48.484375 17.84375 46.4375 
Q 14.5 44.390625 14.5 40.28125 
Q 14.5 37.15625 16.890625 35.375 
Q 19.28125 33.59375 26.515625 31.984375 
L 29.59375 31.296875 
Q 39.15625 29.25 43.1875 25.515625 
Q 47.21875 21.78125 47.21875 15.09375 
Q 47.21875 7.46875 41.1875 3.015625 
Q 35.15625 -1.421875 24.609375 -1.421875 
Q 20.21875 -1.421875 15.453125 -0.5625 
Q 10.6875 0.296875 5.421875 2 
L 5.421875 11.28125 
Q 10.40625 8.6875 15.234375 7.390625 
Q 20.0625 6.109375 24.8125 6.109375 
Q 31.15625 6.109375 34.5625 8.28125 
Q 37.984375 10.453125 37.984375 14.40625 
Q 37.984375 18.0625 35.515625 20.015625 
Q 33.0625 21.96875 24.703125 23.78125 
L 21.578125 24.515625 
Q 13.234375 26.265625 9.515625 29.90625 
Q 5.8125 33.546875 5.8125 39.890625 
Q 5.8125 47.609375 11.28125 51.796875 
Q 16.75 56 26.8125 56 
Q 31.78125 56 36.171875 55.265625 
Q 40.578125 54.546875 44.28125 53.078125 
z
" id="DejaVuSans-73"/>
     <path d="M 9.421875 54.6875 
L 18.40625 54.6875 
L 18.40625 0 
L 9.421875 0 
z
M 9.421875 75.984375 
L 18.40625 75.984375 
L 18.40625 64.59375 
L 9.421875 64.59375 
z
" id="DejaVuSans-69"/>
     <path d="M 54.890625 33.015625 
L 54.890625 0 
L 45.90625 0 
L 45.90625 32.71875 
Q 45.90625 40.484375 42.875 44.328125 
Q 39.84375 48.1875 33.796875 48.1875 
Q 26.515625 48.1875 22.3125 43.546875 
Q 18.109375 38.921875 18.109375 30.90625 
L 18.109375 0 
L 9.078125 0 
L 9.078125 54.6875 
L 18.109375 54.6875 
L 18.109375 46.1875 
Q 21.34375 51.125 25.703125 53.5625 
Q 30.078125 56 35.796875 56 
Q 45.21875 56 50.046875 50.171875 
Q 54.890625 44.34375 54.890625 33.015625 
z
" id="DejaVuSans-6e"/>
    </defs>
    <g style="fill:#ff00ff;" transform="translate(214.7 196.089144)scale(0.2 -0.2)">
     <use transform="translate(0 0.015625)" xlink:href="#DejaVuSans-Oblique-3d5"/>
     <use transform="translate(65.966797 0.015625)" xlink:href="#DejaVuSans-28"/>
     <use transform="translate(104.980469 0.015625)" xlink:href="#DejaVuSans-Oblique-78"/>
     <use transform="translate(164.160156 0.015625)" xlink:href="#DejaVuSans-29"/>
     <use transform="translate(222.65625 0.015625)" xlink:href="#DejaVuSans-3d"/>
     <use transform="translate(325.927734 0.015625)" xlink:href="#DejaVuSans-73"/>
     <use transform="translate(378.027344 0.015625)" xlink:href="#DejaVuSans-69"/>
     <use transform="translate(405.810547 0.015625)" xlink:href="#DejaVuSans-6e"/>
     <use transform="translate(469.189453 0.015625)" xlink:href="#DejaVuSans-28"/>
     <use transform="translate(508.203125 0.015625)" xlink:href="#DejaVuSans-Oblique-78"/>
     <use transform="translate(567.382812 0.015625)" xlink:href="#DejaVuSans-29"/>
    </g>
   </g>
   <g id="text_21">
    <!-- $\phi(x) = \cos(x)$ -->
    <defs>
     <path d="M 48.78125 52.59375 
L 48.78125 44.1875 
Q 44.96875 46.296875 41.140625 47.34375 
Q 37.3125 48.390625 33.40625 48.390625 
Q 24.65625 48.390625 19.8125 42.84375 
Q 14.984375 37.3125 14.984375 27.296875 
Q 14.984375 17.28125 19.8125 11.734375 
Q 24.65625 6.203125 33.40625 6.203125 
Q 37.3125 6.203125 41.140625 7.25 
Q 44.96875 8.296875 48.78125 10.40625 
L 48.78125 2.09375 
Q 45.015625 0.34375 40.984375 -0.53125 
Q 36.96875 -1.421875 32.421875 -1.421875 
Q 20.0625 -1.421875 12.78125 6.34375 
Q 5.515625 14.109375 5.515625 27.296875 
Q 5.515625 40.671875 12.859375 48.328125 
Q 20.21875 56 33.015625 56 
Q 37.15625 56 41.109375 55.140625 
Q 45.0625 54.296875 48.78125 52.59375 
z
" id="DejaVuSans-63"/>
     <path d="M 30.609375 48.390625 
Q 23.390625 48.390625 19.1875 42.75 
Q 14.984375 37.109375 14.984375 27.296875 
Q 14.984375 17.484375 19.15625 11.84375 
Q 23.34375 6.203125 30.609375 6.203125 
Q 37.796875 6.203125 41.984375 11.859375 
Q 46.1875 17.53125 46.1875 27.296875 
Q 46.1875 37.015625 41.984375 42.703125 
Q 37.796875 48.390625 30.609375 48.390625 
z
M 30.609375 56 
Q 42.328125 56 49.015625 48.375 
Q 55.71875 40.765625 55.71875 27.296875 
Q 55.71875 13.875 49.015625 6.21875 
Q 42.328125 -1.421875 30.609375 -1.421875 
Q 18.84375 -1.421875 12.171875 6.21875 
Q 5.515625 13.875 5.515625 27.296875 
Q 5.515625 40.765625 12.171875 48.375 
Q 18.84375 56 30.609375 56 
z
" id="DejaVuSans-6f"/>
    </defs>
    <g style="fill:#0000ff;" transform="translate(379.6 233.750856)scale(0.2 -0.2)">
     <use transform="translate(0 0.015625)" xlink:href="#DejaVuSans-Oblique-3d5"/>
     <use transform="translate(65.966797 0.015625)" xlink:href="#DejaVuSans-28"/>
     <use transform="translate(104.980469 0.015625)" xlink:href="#DejaVuSans-Oblique-78"/>
     <use transform="translate(164.160156 0.015625)" xlink:href="#DejaVuSans-29"/>
     <use transform="translate(222.65625 0.015625)" xlink:href="#DejaVuSans-3d"/>
     <use transform="translate(325.927734 0.015625)" xlink:href="#DejaVuSans-63"/>
     <use transform="translate(380.908203 0.015625)" xlink:href="#DejaVuSans-6f"/>
     <use transform="translate(442.089844 0.015625)" xlink:href="#DejaVuSans-73"/>
     <use transform="translate(494.189453 0.015625)" xlink:href="#DejaVuSans-28"/>
     <use transform="translate(533.203125 0.015625)" xlink:href="#DejaVuSans-Oblique-78"/>
     <use transform="translate(592.382812 0.015625)" xlink:href="#DejaVuSans-29"/>
    </g>
   </g>
   <g id="text_22">
    <!-- $\phi(x) = \sin(2x)$ -->
    <g style="fill:#00ff00;" transform="translate(459.4 196.089144)scale(0.2 -0.2)">
     <use transform="translate(0 0.015625)" xlink:href="#DejaVuSans-Oblique-3d5"/>
     <use transform="translate(65.966797 0.015625)" xlink:href="#DejaVuSans-28"/>
     <use transform="translate(104.980469 0.015625)" xlink:href="#DejaVuSans-Oblique-78"/>
     <use transform="translate(164.160156 0.015625)" xlink:href="#DejaVuSans-29"/>
     <use transform="translate(222.65625 0.015625)" xlink:href="#DejaVuSans-3d"/>
     <use transform="translate(325.927734 0.015625)" xlink:href="#DejaVuSans-73"/>
     <use transform="translate(378.027344 0.015625)" xlink:href="#DejaVuSans-69"/>
     <use transform="translate(405.810547 0.015625)" xlink:href="#DejaVuSans-6e"/>
     <use transform="translate(469.189453 0.015625)" xlink:href="#DejaVuSans-28"/>
     <use transform="translate(508.203125 0.015625)" xlink:href="#DejaVuSans-32"/>
     <use transform="translate(571.826172 0.015625)" xlink:href="#DejaVuSans-Oblique-78"/>
     <use transform="translate(631.005859 0.015625)" xlink:href="#DejaVuSans-29"/>
    </g>
   </g>
  </g>
 </g>
 <defs>
  <clipPath id="p8d16be990c">
   <rect height="326.16" width="669.6" x="108" y="51.84"/>
  </clipPath>
 </defs>
</svg>
