<?xml version="1.0" encoding="utf-8" standalone="no"?>
<!DOCTYPE svg PUBLIC "-//W3C//DTD SVG 1.1//EN"
  "http://www.w3.org/Graphics/SVG/1.1/DTD/svg11.dtd">
<!-- Created with matplotlib (https://matplotlib.org/) -->
<svg height="432pt" version="1.1" viewBox="0 0 720 432" width="720pt" xmlns="http://www.w3.org/2000/svg" xmlns:xlink="http://www.w3.org/1999/xlink">
 <defs>
  <style type="text/css">
*{stroke-linecap:butt;stroke-linejoin:round;}
  </style>
 </defs>
 <g id="figure_1">
  <g id="patch_1">
   <path d="M 0 432 
L 720 432 
L 720 0 
L 0 0 
z
" style="fill:none;"/>
  </g>
  <g id="axes_1">
   <g id="patch_2">
    <path d="M 90 378 
L 648 378 
L 648 51.84 
L 90 51.84 
z
" style="fill:none;"/>
   </g>
   <g id="matplotlib.axis_1">
    <g id="xtick_1">
     <g id="line2d_1">
      <defs>
       <path d="M 0 0 
L 0 3.5 
" id="m1fa4746b1e" style="stroke:#000000;stroke-width:0.8;"/>
      </defs>
      <g>
       <use style="stroke:#000000;stroke-width:0.8;" x="108" xlink:href="#m1fa4746b1e" y="378"/>
      </g>
     </g>
     <g id="text_1">
      <!-- 1880 -->
      <defs>
       <path d="M 12.40625 8.296875 
L 28.515625 8.296875 
L 28.515625 63.921875 
L 10.984375 60.40625 
L 10.984375 69.390625 
L 28.421875 72.90625 
L 38.28125 72.90625 
L 38.28125 8.296875 
L 54.390625 8.296875 
L 54.390625 0 
L 12.40625 0 
z
" id="DejaVuSans-49"/>
       <path d="M 31.78125 34.625 
Q 24.75 34.625 20.71875 30.859375 
Q 16.703125 27.09375 16.703125 20.515625 
Q 16.703125 13.921875 20.71875 10.15625 
Q 24.75 6.390625 31.78125 6.390625 
Q 38.8125 6.390625 42.859375 10.171875 
Q 46.921875 13.96875 46.921875 20.515625 
Q 46.921875 27.09375 42.890625 30.859375 
Q 38.875 34.625 31.78125 34.625 
z
M 21.921875 38.8125 
Q 15.578125 40.375 12.03125 44.71875 
Q 8.5 49.078125 8.5 55.328125 
Q 8.5 64.0625 14.71875 69.140625 
Q 20.953125 74.21875 31.78125 74.21875 
Q 42.671875 74.21875 48.875 69.140625 
Q 55.078125 64.0625 55.078125 55.328125 
Q 55.078125 49.078125 51.53125 44.71875 
Q 48 40.375 41.703125 38.8125 
Q 48.828125 37.15625 52.796875 32.3125 
Q 56.78125 27.484375 56.78125 20.515625 
Q 56.78125 9.90625 50.3125 4.234375 
Q 43.84375 -1.421875 31.78125 -1.421875 
Q 19.734375 -1.421875 13.25 4.234375 
Q 6.78125 9.90625 6.78125 20.515625 
Q 6.78125 27.484375 10.78125 32.3125 
Q 14.796875 37.15625 21.921875 38.8125 
z
M 18.3125 54.390625 
Q 18.3125 48.734375 21.84375 45.5625 
Q 25.390625 42.390625 31.78125 42.390625 
Q 38.140625 42.390625 41.71875 45.5625 
Q 45.3125 48.734375 45.3125 54.390625 
Q 45.3125 60.0625 41.71875 63.234375 
Q 38.140625 66.40625 31.78125 66.40625 
Q 25.390625 66.40625 21.84375 63.234375 
Q 18.3125 60.0625 18.3125 54.390625 
z
" id="DejaVuSans-56"/>
       <path d="M 31.78125 66.40625 
Q 24.171875 66.40625 20.328125 58.90625 
Q 16.5 51.421875 16.5 36.375 
Q 16.5 21.390625 20.328125 13.890625 
Q 24.171875 6.390625 31.78125 6.390625 
Q 39.453125 6.390625 43.28125 13.890625 
Q 47.125 21.390625 47.125 36.375 
Q 47.125 51.421875 43.28125 58.90625 
Q 39.453125 66.40625 31.78125 66.40625 
z
M 31.78125 74.21875 
Q 44.046875 74.21875 50.515625 64.515625 
Q 56.984375 54.828125 56.984375 36.375 
Q 56.984375 17.96875 50.515625 8.265625 
Q 44.046875 -1.421875 31.78125 -1.421875 
Q 19.53125 -1.421875 13.0625 8.265625 
Q 6.59375 17.96875 6.59375 36.375 
Q 6.59375 54.828125 13.0625 64.515625 
Q 19.53125 74.21875 31.78125 74.21875 
z
" id="DejaVuSans-48"/>
      </defs>
      <g transform="translate(80.005 401.716563)scale(0.22 -0.22)">
       <use xlink:href="#DejaVuSans-49"/>
       <use x="63.623047" xlink:href="#DejaVuSans-56"/>
       <use x="127.246094" xlink:href="#DejaVuSans-56"/>
       <use x="190.869141" xlink:href="#DejaVuSans-48"/>
      </g>
     </g>
    </g>
    <g id="xtick_2">
     <g id="line2d_2">
      <g>
       <use style="stroke:#000000;stroke-width:0.8;" x="180" xlink:href="#m1fa4746b1e" y="378"/>
      </g>
     </g>
     <g id="text_2">
      <!-- 1900 -->
      <defs>
       <path d="M 10.984375 1.515625 
L 10.984375 10.5 
Q 14.703125 8.734375 18.5 7.8125 
Q 22.3125 6.890625 25.984375 6.890625 
Q 35.75 6.890625 40.890625 13.453125 
Q 46.046875 20.015625 46.78125 33.40625 
Q 43.953125 29.203125 39.59375 26.953125 
Q 35.25 24.703125 29.984375 24.703125 
Q 19.046875 24.703125 12.671875 31.3125 
Q 6.296875 37.9375 6.296875 49.421875 
Q 6.296875 60.640625 12.9375 67.421875 
Q 19.578125 74.21875 30.609375 74.21875 
Q 43.265625 74.21875 49.921875 64.515625 
Q 56.59375 54.828125 56.59375 36.375 
Q 56.59375 19.140625 48.40625 8.859375 
Q 40.234375 -1.421875 26.421875 -1.421875 
Q 22.703125 -1.421875 18.890625 -0.6875 
Q 15.09375 0.046875 10.984375 1.515625 
z
M 30.609375 32.421875 
Q 37.25 32.421875 41.125 36.953125 
Q 45.015625 41.5 45.015625 49.421875 
Q 45.015625 57.28125 41.125 61.84375 
Q 37.25 66.40625 30.609375 66.40625 
Q 23.96875 66.40625 20.09375 61.84375 
Q 16.21875 57.28125 16.21875 49.421875 
Q 16.21875 41.5 20.09375 36.953125 
Q 23.96875 32.421875 30.609375 32.421875 
z
" id="DejaVuSans-57"/>
      </defs>
      <g transform="translate(152.005 401.716563)scale(0.22 -0.22)">
       <use xlink:href="#DejaVuSans-49"/>
       <use x="63.623047" xlink:href="#DejaVuSans-57"/>
       <use x="127.246094" xlink:href="#DejaVuSans-48"/>
       <use x="190.869141" xlink:href="#DejaVuSans-48"/>
      </g>
     </g>
    </g>
    <g id="xtick_3">
     <g id="line2d_3">
      <g>
       <use style="stroke:#000000;stroke-width:0.8;" x="252" xlink:href="#m1fa4746b1e" y="378"/>
      </g>
     </g>
     <g id="text_3">
      <!-- 1920 -->
      <defs>
       <path d="M 19.1875 8.296875 
L 53.609375 8.296875 
L 53.609375 0 
L 7.328125 0 
L 7.328125 8.296875 
Q 12.9375 14.109375 22.625 23.890625 
Q 32.328125 33.6875 34.8125 36.53125 
Q 39.546875 41.84375 41.421875 45.53125 
Q 43.3125 49.21875 43.3125 52.78125 
Q 43.3125 58.59375 39.234375 62.25 
Q 35.15625 65.921875 28.609375 65.921875 
Q 23.96875 65.921875 18.8125 64.3125 
Q 13.671875 62.703125 7.8125 59.421875 
L 7.8125 69.390625 
Q 13.765625 71.78125 18.9375 73 
Q 24.125 74.21875 28.421875 74.21875 
Q 39.75 74.21875 46.484375 68.546875 
Q 53.21875 62.890625 53.21875 53.421875 
Q 53.21875 48.921875 51.53125 44.890625 
Q 49.859375 40.875 45.40625 35.40625 
Q 44.1875 33.984375 37.640625 27.21875 
Q 31.109375 20.453125 19.1875 8.296875 
z
" id="DejaVuSans-50"/>
      </defs>
      <g transform="translate(224.005 401.716563)scale(0.22 -0.22)">
       <use xlink:href="#DejaVuSans-49"/>
       <use x="63.623047" xlink:href="#DejaVuSans-57"/>
       <use x="127.246094" xlink:href="#DejaVuSans-50"/>
       <use x="190.869141" xlink:href="#DejaVuSans-48"/>
      </g>
     </g>
    </g>
    <g id="xtick_4">
     <g id="line2d_4">
      <g>
       <use style="stroke:#000000;stroke-width:0.8;" x="324" xlink:href="#m1fa4746b1e" y="378"/>
      </g>
     </g>
     <g id="text_4">
      <!-- 1940 -->
      <defs>
       <path d="M 37.796875 64.3125 
L 12.890625 25.390625 
L 37.796875 25.390625 
z
M 35.203125 72.90625 
L 47.609375 72.90625 
L 47.609375 25.390625 
L 58.015625 25.390625 
L 58.015625 17.1875 
L 47.609375 17.1875 
L 47.609375 0 
L 37.796875 0 
L 37.796875 17.1875 
L 4.890625 17.1875 
L 4.890625 26.703125 
z
" id="DejaVuSans-52"/>
      </defs>
      <g transform="translate(296.005 401.716563)scale(0.22 -0.22)">
       <use xlink:href="#DejaVuSans-49"/>
       <use x="63.623047" xlink:href="#DejaVuSans-57"/>
       <use x="127.246094" xlink:href="#DejaVuSans-52"/>
       <use x="190.869141" xlink:href="#DejaVuSans-48"/>
      </g>
     </g>
    </g>
    <g id="xtick_5">
     <g id="line2d_5">
      <g>
       <use style="stroke:#000000;stroke-width:0.8;" x="396" xlink:href="#m1fa4746b1e" y="378"/>
      </g>
     </g>
     <g id="text_5">
      <!-- 1960 -->
      <defs>
       <path d="M 33.015625 40.375 
Q 26.375 40.375 22.484375 35.828125 
Q 18.609375 31.296875 18.609375 23.390625 
Q 18.609375 15.53125 22.484375 10.953125 
Q 26.375 6.390625 33.015625 6.390625 
Q 39.65625 6.390625 43.53125 10.953125 
Q 47.40625 15.53125 47.40625 23.390625 
Q 47.40625 31.296875 43.53125 35.828125 
Q 39.65625 40.375 33.015625 40.375 
z
M 52.59375 71.296875 
L 52.59375 62.3125 
Q 48.875 64.0625 45.09375 64.984375 
Q 41.3125 65.921875 37.59375 65.921875 
Q 27.828125 65.921875 22.671875 59.328125 
Q 17.53125 52.734375 16.796875 39.40625 
Q 19.671875 43.65625 24.015625 45.921875 
Q 28.375 48.1875 33.59375 48.1875 
Q 44.578125 48.1875 50.953125 41.515625 
Q 57.328125 34.859375 57.328125 23.390625 
Q 57.328125 12.15625 50.6875 5.359375 
Q 44.046875 -1.421875 33.015625 -1.421875 
Q 20.359375 -1.421875 13.671875 8.265625 
Q 6.984375 17.96875 6.984375 36.375 
Q 6.984375 53.65625 15.1875 63.9375 
Q 23.390625 74.21875 37.203125 74.21875 
Q 40.921875 74.21875 44.703125 73.484375 
Q 48.484375 72.75 52.59375 71.296875 
z
" id="DejaVuSans-54"/>
      </defs>
      <g transform="translate(368.005 401.716563)scale(0.22 -0.22)">
       <use xlink:href="#DejaVuSans-49"/>
       <use x="63.623047" xlink:href="#DejaVuSans-57"/>
       <use x="127.246094" xlink:href="#DejaVuSans-54"/>
       <use x="190.869141" xlink:href="#DejaVuSans-48"/>
      </g>
     </g>
    </g>
    <g id="xtick_6">
     <g id="line2d_6">
      <g>
       <use style="stroke:#000000;stroke-width:0.8;" x="468" xlink:href="#m1fa4746b1e" y="378"/>
      </g>
     </g>
     <g id="text_6">
      <!-- 1980 -->
      <g transform="translate(440.005 401.716563)scale(0.22 -0.22)">
       <use xlink:href="#DejaVuSans-49"/>
       <use x="63.623047" xlink:href="#DejaVuSans-57"/>
       <use x="127.246094" xlink:href="#DejaVuSans-56"/>
       <use x="190.869141" xlink:href="#DejaVuSans-48"/>
      </g>
     </g>
    </g>
    <g id="xtick_7">
     <g id="line2d_7">
      <g>
       <use style="stroke:#000000;stroke-width:0.8;" x="540" xlink:href="#m1fa4746b1e" y="378"/>
      </g>
     </g>
     <g id="text_7">
      <!-- 2000 -->
      <g transform="translate(512.005 401.716563)scale(0.22 -0.22)">
       <use xlink:href="#DejaVuSans-50"/>
       <use x="63.623047" xlink:href="#DejaVuSans-48"/>
       <use x="127.246094" xlink:href="#DejaVuSans-48"/>
       <use x="190.869141" xlink:href="#DejaVuSans-48"/>
      </g>
     </g>
    </g>
    <g id="xtick_8">
     <g id="line2d_8">
      <g>
       <use style="stroke:#000000;stroke-width:0.8;" x="612" xlink:href="#m1fa4746b1e" y="378"/>
      </g>
     </g>
     <g id="text_8">
      <!-- 2020 -->
      <g transform="translate(584.005 401.716563)scale(0.22 -0.22)">
       <use xlink:href="#DejaVuSans-50"/>
       <use x="63.623047" xlink:href="#DejaVuSans-48"/>
       <use x="127.246094" xlink:href="#DejaVuSans-50"/>
       <use x="190.869141" xlink:href="#DejaVuSans-48"/>
      </g>
     </g>
    </g>
    <g id="text_9">
     <!-- year -->
     <defs>
      <path d="M 32.171875 -5.078125 
Q 28.375 -14.84375 24.75 -17.8125 
Q 21.140625 -20.796875 15.09375 -20.796875 
L 7.90625 -20.796875 
L 7.90625 -13.28125 
L 13.1875 -13.28125 
Q 16.890625 -13.28125 18.9375 -11.515625 
Q 21 -9.765625 23.484375 -3.21875 
L 25.09375 0.875 
L 2.984375 54.6875 
L 12.5 54.6875 
L 29.59375 11.921875 
L 46.6875 54.6875 
L 56.203125 54.6875 
z
" id="DejaVuSans-121"/>
      <path d="M 56.203125 29.59375 
L 56.203125 25.203125 
L 14.890625 25.203125 
Q 15.484375 15.921875 20.484375 11.0625 
Q 25.484375 6.203125 34.421875 6.203125 
Q 39.59375 6.203125 44.453125 7.46875 
Q 49.3125 8.734375 54.109375 11.28125 
L 54.109375 2.78125 
Q 49.265625 0.734375 44.1875 -0.34375 
Q 39.109375 -1.421875 33.890625 -1.421875 
Q 20.796875 -1.421875 13.15625 6.1875 
Q 5.515625 13.8125 5.515625 26.8125 
Q 5.515625 40.234375 12.765625 48.109375 
Q 20.015625 56 32.328125 56 
Q 43.359375 56 49.78125 48.890625 
Q 56.203125 41.796875 56.203125 29.59375 
z
M 47.21875 32.234375 
Q 47.125 39.59375 43.09375 43.984375 
Q 39.0625 48.390625 32.421875 48.390625 
Q 24.90625 48.390625 20.390625 44.140625 
Q 15.875 39.890625 15.1875 32.171875 
z
" id="DejaVuSans-101"/>
      <path d="M 34.28125 27.484375 
Q 23.390625 27.484375 19.1875 25 
Q 14.984375 22.515625 14.984375 16.5 
Q 14.984375 11.71875 18.140625 8.90625 
Q 21.296875 6.109375 26.703125 6.109375 
Q 34.1875 6.109375 38.703125 11.40625 
Q 43.21875 16.703125 43.21875 25.484375 
L 43.21875 27.484375 
z
M 52.203125 31.203125 
L 52.203125 0 
L 43.21875 0 
L 43.21875 8.296875 
Q 40.140625 3.328125 35.546875 0.953125 
Q 30.953125 -1.421875 24.3125 -1.421875 
Q 15.921875 -1.421875 10.953125 3.296875 
Q 6 8.015625 6 15.921875 
Q 6 25.140625 12.171875 29.828125 
Q 18.359375 34.515625 30.609375 34.515625 
L 43.21875 34.515625 
L 43.21875 35.40625 
Q 43.21875 41.609375 39.140625 45 
Q 35.0625 48.390625 27.6875 48.390625 
Q 23 48.390625 18.546875 47.265625 
Q 14.109375 46.140625 10.015625 43.890625 
L 10.015625 52.203125 
Q 14.9375 54.109375 19.578125 55.046875 
Q 24.21875 56 28.609375 56 
Q 40.484375 56 46.34375 49.84375 
Q 52.203125 43.703125 52.203125 31.203125 
z
" id="DejaVuSans-97"/>
      <path d="M 41.109375 46.296875 
Q 39.59375 47.171875 37.8125 47.578125 
Q 36.03125 48 33.890625 48 
Q 26.265625 48 22.1875 43.046875 
Q 18.109375 38.09375 18.109375 28.8125 
L 18.109375 0 
L 9.078125 0 
L 9.078125 54.6875 
L 18.109375 54.6875 
L 18.109375 46.1875 
Q 20.953125 51.171875 25.484375 53.578125 
Q 30.03125 56 36.53125 56 
Q 37.453125 56 38.578125 55.875 
Q 39.703125 55.765625 41.0625 55.515625 
z
" id="DejaVuSans-114"/>
     </defs>
     <g transform="translate(346.689062 425.48875)scale(0.2 -0.2)">
      <use xlink:href="#DejaVuSans-121"/>
      <use x="59.179688" xlink:href="#DejaVuSans-101"/>
      <use x="120.703125" xlink:href="#DejaVuSans-97"/>
      <use x="181.982422" xlink:href="#DejaVuSans-114"/>
     </g>
    </g>
   </g>
   <g id="matplotlib.axis_2">
    <g id="ytick_1">
     <g id="line2d_9">
      <defs>
       <path d="M 0 0 
L -3.5 0 
" id="m7425ad05dd" style="stroke:#000000;stroke-width:0.8;"/>
      </defs>
      <g>
       <use style="stroke:#000000;stroke-width:0.8;" x="90" xlink:href="#m7425ad05dd" y="337.23"/>
      </g>
     </g>
     <g id="text_10">
      <!-- 3 -->
      <defs>
       <path d="M 40.578125 39.3125 
Q 47.65625 37.796875 51.625 33 
Q 55.609375 28.21875 55.609375 21.1875 
Q 55.609375 10.40625 48.1875 4.484375 
Q 40.765625 -1.421875 27.09375 -1.421875 
Q 22.515625 -1.421875 17.65625 -0.515625 
Q 12.796875 0.390625 7.625 2.203125 
L 7.625 11.71875 
Q 11.71875 9.328125 16.59375 8.109375 
Q 21.484375 6.890625 26.8125 6.890625 
Q 36.078125 6.890625 40.9375 10.546875 
Q 45.796875 14.203125 45.796875 21.1875 
Q 45.796875 27.640625 41.28125 31.265625 
Q 36.765625 34.90625 28.71875 34.90625 
L 20.21875 34.90625 
L 20.21875 43.015625 
L 29.109375 43.015625 
Q 36.375 43.015625 40.234375 45.921875 
Q 44.09375 48.828125 44.09375 54.296875 
Q 44.09375 59.90625 40.109375 62.90625 
Q 36.140625 65.921875 28.71875 65.921875 
Q 24.65625 65.921875 20.015625 65.03125 
Q 15.375 64.15625 9.8125 62.3125 
L 9.8125 71.09375 
Q 15.4375 72.65625 20.34375 73.4375 
Q 25.25 74.21875 29.59375 74.21875 
Q 40.828125 74.21875 47.359375 69.109375 
Q 53.90625 64.015625 53.90625 55.328125 
Q 53.90625 49.265625 50.4375 45.09375 
Q 46.96875 40.921875 40.578125 39.3125 
z
" id="DejaVuSans-51"/>
      </defs>
      <g transform="translate(69.0025 345.588281)scale(0.22 -0.22)">
       <use xlink:href="#DejaVuSans-51"/>
      </g>
     </g>
    </g>
    <g id="ytick_2">
     <g id="line2d_10">
      <g>
       <use style="stroke:#000000;stroke-width:0.8;" x="90" xlink:href="#m7425ad05dd" y="255.69"/>
      </g>
     </g>
     <g id="text_11">
      <!-- 4 -->
      <g transform="translate(69.0025 264.048281)scale(0.22 -0.22)">
       <use xlink:href="#DejaVuSans-52"/>
      </g>
     </g>
    </g>
    <g id="ytick_3">
     <g id="line2d_11">
      <g>
       <use style="stroke:#000000;stroke-width:0.8;" x="90" xlink:href="#m7425ad05dd" y="174.15"/>
      </g>
     </g>
     <g id="text_12">
      <!-- 5 -->
      <defs>
       <path d="M 10.796875 72.90625 
L 49.515625 72.90625 
L 49.515625 64.59375 
L 19.828125 64.59375 
L 19.828125 46.734375 
Q 21.96875 47.46875 24.109375 47.828125 
Q 26.265625 48.1875 28.421875 48.1875 
Q 40.625 48.1875 47.75 41.5 
Q 54.890625 34.8125 54.890625 23.390625 
Q 54.890625 11.625 47.5625 5.09375 
Q 40.234375 -1.421875 26.90625 -1.421875 
Q 22.3125 -1.421875 17.546875 -0.640625 
Q 12.796875 0.140625 7.71875 1.703125 
L 7.71875 11.625 
Q 12.109375 9.234375 16.796875 8.0625 
Q 21.484375 6.890625 26.703125 6.890625 
Q 35.15625 6.890625 40.078125 11.328125 
Q 45.015625 15.765625 45.015625 23.390625 
Q 45.015625 31 40.078125 35.4375 
Q 35.15625 39.890625 26.703125 39.890625 
Q 22.75 39.890625 18.8125 39.015625 
Q 14.890625 38.140625 10.796875 36.28125 
z
" id="DejaVuSans-53"/>
      </defs>
      <g transform="translate(69.0025 182.508281)scale(0.22 -0.22)">
       <use xlink:href="#DejaVuSans-53"/>
      </g>
     </g>
    </g>
    <g id="ytick_4">
     <g id="line2d_12">
      <g>
       <use style="stroke:#000000;stroke-width:0.8;" x="90" xlink:href="#m7425ad05dd" y="92.61"/>
      </g>
     </g>
     <g id="text_13">
      <!-- 6 -->
      <g transform="translate(69.0025 100.968281)scale(0.22 -0.22)">
       <use xlink:href="#DejaVuSans-54"/>
      </g>
     </g>
    </g>
    <g id="text_14">
     <!-- pace min/km -->
     <defs>
      <path d="M 18.109375 8.203125 
L 18.109375 -20.796875 
L 9.078125 -20.796875 
L 9.078125 54.6875 
L 18.109375 54.6875 
L 18.109375 46.390625 
Q 20.953125 51.265625 25.265625 53.625 
Q 29.59375 56 35.59375 56 
Q 45.5625 56 51.78125 48.09375 
Q 58.015625 40.1875 58.015625 27.296875 
Q 58.015625 14.40625 51.78125 6.484375 
Q 45.5625 -1.421875 35.59375 -1.421875 
Q 29.59375 -1.421875 25.265625 0.953125 
Q 20.953125 3.328125 18.109375 8.203125 
z
M 48.6875 27.296875 
Q 48.6875 37.203125 44.609375 42.84375 
Q 40.53125 48.484375 33.40625 48.484375 
Q 26.265625 48.484375 22.1875 42.84375 
Q 18.109375 37.203125 18.109375 27.296875 
Q 18.109375 17.390625 22.1875 11.75 
Q 26.265625 6.109375 33.40625 6.109375 
Q 40.53125 6.109375 44.609375 11.75 
Q 48.6875 17.390625 48.6875 27.296875 
z
" id="DejaVuSans-112"/>
      <path d="M 48.78125 52.59375 
L 48.78125 44.1875 
Q 44.96875 46.296875 41.140625 47.34375 
Q 37.3125 48.390625 33.40625 48.390625 
Q 24.65625 48.390625 19.8125 42.84375 
Q 14.984375 37.3125 14.984375 27.296875 
Q 14.984375 17.28125 19.8125 11.734375 
Q 24.65625 6.203125 33.40625 6.203125 
Q 37.3125 6.203125 41.140625 7.25 
Q 44.96875 8.296875 48.78125 10.40625 
L 48.78125 2.09375 
Q 45.015625 0.34375 40.984375 -0.53125 
Q 36.96875 -1.421875 32.421875 -1.421875 
Q 20.0625 -1.421875 12.78125 6.34375 
Q 5.515625 14.109375 5.515625 27.296875 
Q 5.515625 40.671875 12.859375 48.328125 
Q 20.21875 56 33.015625 56 
Q 37.15625 56 41.109375 55.140625 
Q 45.0625 54.296875 48.78125 52.59375 
z
" id="DejaVuSans-99"/>
      <path id="DejaVuSans-32"/>
      <path d="M 52 44.1875 
Q 55.375 50.25 60.0625 53.125 
Q 64.75 56 71.09375 56 
Q 79.640625 56 84.28125 50.015625 
Q 88.921875 44.046875 88.921875 33.015625 
L 88.921875 0 
L 79.890625 0 
L 79.890625 32.71875 
Q 79.890625 40.578125 77.09375 44.375 
Q 74.3125 48.1875 68.609375 48.1875 
Q 61.625 48.1875 57.5625 43.546875 
Q 53.515625 38.921875 53.515625 30.90625 
L 53.515625 0 
L 44.484375 0 
L 44.484375 32.71875 
Q 44.484375 40.625 41.703125 44.40625 
Q 38.921875 48.1875 33.109375 48.1875 
Q 26.21875 48.1875 22.15625 43.53125 
Q 18.109375 38.875 18.109375 30.90625 
L 18.109375 0 
L 9.078125 0 
L 9.078125 54.6875 
L 18.109375 54.6875 
L 18.109375 46.1875 
Q 21.1875 51.21875 25.484375 53.609375 
Q 29.78125 56 35.6875 56 
Q 41.65625 56 45.828125 52.96875 
Q 50 49.953125 52 44.1875 
z
" id="DejaVuSans-109"/>
      <path d="M 9.421875 54.6875 
L 18.40625 54.6875 
L 18.40625 0 
L 9.421875 0 
z
M 9.421875 75.984375 
L 18.40625 75.984375 
L 18.40625 64.59375 
L 9.421875 64.59375 
z
" id="DejaVuSans-105"/>
      <path d="M 54.890625 33.015625 
L 54.890625 0 
L 45.90625 0 
L 45.90625 32.71875 
Q 45.90625 40.484375 42.875 44.328125 
Q 39.84375 48.1875 33.796875 48.1875 
Q 26.515625 48.1875 22.3125 43.546875 
Q 18.109375 38.921875 18.109375 30.90625 
L 18.109375 0 
L 9.078125 0 
L 9.078125 54.6875 
L 18.109375 54.6875 
L 18.109375 46.1875 
Q 21.34375 51.125 25.703125 53.5625 
Q 30.078125 56 35.796875 56 
Q 45.21875 56 50.046875 50.171875 
Q 54.890625 44.34375 54.890625 33.015625 
z
" id="DejaVuSans-110"/>
      <path d="M 25.390625 72.90625 
L 33.6875 72.90625 
L 8.296875 -9.28125 
L 0 -9.28125 
z
" id="DejaVuSans-47"/>
      <path d="M 9.078125 75.984375 
L 18.109375 75.984375 
L 18.109375 31.109375 
L 44.921875 54.6875 
L 56.390625 54.6875 
L 27.390625 29.109375 
L 57.625 0 
L 45.90625 0 
L 18.109375 26.703125 
L 18.109375 0 
L 9.078125 0 
z
" id="DejaVuSans-107"/>
     </defs>
     <g transform="translate(60.843125 279.9825)rotate(-90)scale(0.2 -0.2)">
      <use xlink:href="#DejaVuSans-112"/>
      <use x="63.476562" xlink:href="#DejaVuSans-97"/>
      <use x="124.755859" xlink:href="#DejaVuSans-99"/>
      <use x="179.736328" xlink:href="#DejaVuSans-101"/>
      <use x="241.259766" xlink:href="#DejaVuSans-32"/>
      <use x="273.046875" xlink:href="#DejaVuSans-109"/>
      <use x="370.458984" xlink:href="#DejaVuSans-105"/>
      <use x="398.242188" xlink:href="#DejaVuSans-110"/>
      <use x="461.621094" xlink:href="#DejaVuSans-47"/>
      <use x="495.3125" xlink:href="#DejaVuSans-107"/>
      <use x="553.222656" xlink:href="#DejaVuSans-109"/>
     </g>
    </g>
   </g>
   <g id="line2d_13">
    <defs>
     <path d="M 0 2.5 
C 0.663008 2.5 1.29895 2.236584 1.767767 1.767767 
C 2.236584 1.29895 2.5 0.663008 2.5 0 
C 2.5 -0.663008 2.236584 -1.29895 1.767767 -1.767767 
C 1.29895 -2.236584 0.663008 -2.5 0 -2.5 
C -0.663008 -2.5 -1.29895 -2.236584 -1.767767 -1.767767 
C -2.236584 -1.29895 -2.5 -0.663008 -2.5 0 
C -2.5 0.663008 -2.236584 1.29895 -1.767767 1.767767 
C -1.29895 2.236584 -0.663008 2.5 0 2.5 
z
" id="mecb0d9a2d6" style="stroke:#ff0000;"/>
    </defs>
    <g clip-path="url(#p818f41c06a)">
     <use style="fill:#ff0000;stroke:#ff0000;" x="165.6" xlink:href="#mecb0d9a2d6" y="217.29825"/>
     <use style="fill:#ff0000;stroke:#ff0000;" x="180" xlink:href="#mecb0d9a2d6" y="217.795976"/>
     <use style="fill:#ff0000;stroke:#ff0000;" x="194.4" xlink:href="#mecb0d9a2d6" y="156.041325"/>
     <use style="fill:#ff0000;stroke:#ff0000;" x="208.8" xlink:href="#mecb0d9a2d6" y="243.077501"/>
     <use style="fill:#ff0000;stroke:#ff0000;" x="223.2" xlink:href="#mecb0d9a2d6" y="263.573552"/>
     <use style="fill:#ff0000;stroke:#ff0000;" x="252" xlink:href="#mecb0d9a2d6" y="290.791937"/>
     <use style="fill:#ff0000;stroke:#ff0000;" x="266.4" xlink:href="#mecb0d9a2d6" y="269.996619"/>
     <use style="fill:#ff0000;stroke:#ff0000;" x="280.8" xlink:href="#mecb0d9a2d6" y="286.280786"/>
     <use style="fill:#ff0000;stroke:#ff0000;" x="295.2" xlink:href="#mecb0d9a2d6" y="288.889602"/>
     <use style="fill:#ff0000;stroke:#ff0000;" x="309.6" xlink:href="#mecb0d9a2d6" y="293.295603"/>
     <use style="fill:#ff0000;stroke:#ff0000;" x="352.8" xlink:href="#mecb0d9a2d6" y="282.589794"/>
     <use style="fill:#ff0000;stroke:#ff0000;" x="367.2" xlink:href="#mecb0d9a2d6" y="305.405663"/>
     <use style="fill:#ff0000;stroke:#ff0000;" x="381.6" xlink:href="#mecb0d9a2d6" y="301.643814"/>
     <use style="fill:#ff0000;stroke:#ff0000;" x="396" xlink:href="#mecb0d9a2d6" y="320.446616"/>
     <use style="fill:#ff0000;stroke:#ff0000;" x="410.4" xlink:href="#mecb0d9a2d6" y="326.405023"/>
     <use style="fill:#ff0000;stroke:#ff0000;" x="424.8" xlink:href="#mecb0d9a2d6" y="310.468699"/>
     <use style="fill:#ff0000;stroke:#ff0000;" x="439.2" xlink:href="#mecb0d9a2d6" y="326.153804"/>
     <use style="fill:#ff0000;stroke:#ff0000;" x="453.6" xlink:href="#mecb0d9a2d6" y="330.791699"/>
     <use style="fill:#ff0000;stroke:#ff0000;" x="468" xlink:href="#mecb0d9a2d6" y="328.601582"/>
     <use style="fill:#ff0000;stroke:#ff0000;" x="482.4" xlink:href="#mecb0d9a2d6" y="331.886758"/>
     <use style="fill:#ff0000;stroke:#ff0000;" x="496.8" xlink:href="#mecb0d9a2d6" y="329.600018"/>
     <use style="fill:#ff0000;stroke:#ff0000;" x="511.2" xlink:href="#mecb0d9a2d6" y="324.092517"/>
     <use style="fill:#ff0000;stroke:#ff0000;" x="525.6" xlink:href="#mecb0d9a2d6" y="325.606274"/>
     <use style="fill:#ff0000;stroke:#ff0000;" x="540" xlink:href="#mecb0d9a2d6" y="330.276378"/>
     <use style="fill:#ff0000;stroke:#ff0000;" x="554.4" xlink:href="#mecb0d9a2d6" y="328.859243"/>
     <use style="fill:#ff0000;stroke:#ff0000;" x="568.8" xlink:href="#mecb0d9a2d6" y="337.329844"/>
     <use style="fill:#ff0000;stroke:#ff0000;" x="583.2" xlink:href="#mecb0d9a2d6" y="334.463367"/>
    </g>
   </g>
   <g id="line2d_14">
    <path clip-path="url(#p818f41c06a)" d="M 129.163353 433 
L 131.954887 394.37331 
L 134.75188 361.029687 
L 137.548872 332.484085 
L 140.345865 308.220713 
L 141.744361 297.545882 
L 143.142857 287.768101 
L 144.541353 278.834861 
L 145.93985 270.696054 
L 147.338346 263.30388 
L 148.736842 256.612769 
L 150.135338 250.579297 
L 151.533835 245.162106 
L 152.932331 240.321829 
L 154.330827 236.021011 
L 155.729323 232.224041 
L 157.12782 228.897079 
L 158.526316 226.007988 
L 159.924812 223.526267 
L 161.323308 221.422987 
L 162.721805 219.670726 
L 164.120301 218.243513 
L 165.518797 217.116766 
L 166.917293 216.267235 
L 168.315789 215.672948 
L 169.714286 215.313155 
L 171.112782 215.168281 
L 172.511278 215.219871 
L 173.909774 215.450543 
L 175.308271 215.843942 
L 176.706767 216.384695 
L 179.503759 217.851407 
L 182.300752 219.74568 
L 185.097744 221.975548 
L 187.894737 224.460885 
L 192.090226 228.518741 
L 199.082707 235.708274 
L 207.473684 244.285352 
L 213.067669 249.653956 
L 217.263158 253.411887 
L 221.458647 256.910112 
L 225.654135 260.136706 
L 229.849624 263.090202 
L 234.045113 265.777159 
L 238.240602 268.210093 
L 242.43609 270.40575 
L 246.631579 272.383673 
L 250.827068 274.165034 
L 256.421053 276.272219 
L 262.015038 278.120293 
L 267.609023 279.758406 
L 274.601504 281.579499 
L 282.992481 283.534526 
L 296.977444 286.514007 
L 316.556391 290.689913 
L 327.744361 293.294007 
L 337.533835 295.775234 
L 347.323308 298.47648 
L 357.112782 301.412283 
L 366.902256 304.580058 
L 378.090226 308.452334 
L 393.473684 314.06555 
L 410.255639 320.162376 
L 418.646617 322.992818 
L 425.639098 325.14105 
L 432.631579 327.032399 
L 438.225564 328.320985 
L 443.819549 329.380726 
L 449.413534 330.189301 
L 455.007519 330.730566 
L 460.601504 330.996231 
L 466.195489 330.987497 
L 471.789474 330.716557 
L 477.383459 330.207864 
L 484.37594 329.29627 
L 492.766917 327.93863 
L 505.353383 325.879453 
L 510.947368 325.182642 
L 515.142857 324.831501 
L 519.338346 324.67089 
L 523.533835 324.73645 
L 527.729323 325.058002 
L 531.924812 325.65669 
L 536.120301 326.541617 
L 540.315789 327.705937 
L 544.511278 329.122328 
L 550.105263 331.306958 
L 559.894737 335.251517 
L 562.691729 336.172975 
L 565.488722 336.878926 
L 568.285714 337.281169 
L 569.684211 337.336866 
L 571.082707 337.276832 
L 572.481203 337.085668 
L 573.879699 336.746862 
L 575.278195 336.242739 
L 576.676692 335.554401 
L 578.075188 334.661675 
L 579.473684 333.543051 
L 580.87218 332.175624 
L 582.270677 330.535028 
L 583.669173 328.595376 
L 585.067669 326.329188 
L 586.466165 323.707326 
L 587.864662 320.698925 
L 589.263158 317.271313 
L 590.661654 313.389944 
L 592.06015 309.018315 
L 593.458647 304.117887 
L 594.857143 298.648007 
L 596.255639 292.565816 
L 597.654135 285.826171 
L 599.052632 278.381547 
L 600.451128 270.181951 
L 601.849624 261.174825 
L 603.24812 251.304948 
L 604.646617 240.514337 
L 606.045113 228.742145 
L 607.443609 215.924554 
L 608.842105 201.994666 
L 610.240602 186.882394 
L 611.639098 170.514344 
L 613.037594 152.813702 
L 615.834586 113.089544 
L 618.631579 67.022293 
L 621.428571 13.861518 
L 622.133269 -1 
L 622.133269 -1 
" style="fill:none;stroke:#0000ff;stroke-linecap:square;stroke-width:2;"/>
   </g>
   <g id="line2d_15">
    <path clip-path="url(#p818f41c06a)" d="M 103.347291 -1 
L 103.984962 13.545839 
L 105.383459 42.55778 
L 106.781955 68.869267 
L 108.180451 92.659783 
L 109.578947 114.100107 
L 110.977444 133.352634 
L 112.37594 150.571673 
L 113.774436 165.903745 
L 115.172932 179.487869 
L 116.571429 191.455842 
L 117.969925 201.932513 
L 119.368421 211.036045 
L 120.766917 218.878173 
L 122.165414 225.564458 
L 123.56391 231.194527 
L 124.962406 235.862308 
L 126.360902 239.656264 
L 127.759398 242.659616 
L 129.157895 244.950556 
L 130.556391 246.60246 
L 131.954887 247.684093 
L 133.353383 248.259805 
L 134.75188 248.389726 
L 136.150376 248.129948 
L 137.548872 247.532711 
L 138.947368 246.646574 
L 140.345865 245.516587 
L 141.744361 244.184453 
L 144.541353 241.064779 
L 148.736842 235.736603 
L 154.330827 228.519516 
L 157.12782 225.219712 
L 159.924812 222.279291 
L 162.721805 219.779545 
L 165.518797 217.778496 
L 166.917293 216.977475 
L 168.315789 216.313814 
L 169.714286 215.789485 
L 171.112782 215.405511 
L 172.511278 215.162039 
L 173.909774 215.058412 
L 175.308271 215.093234 
L 176.706767 215.264432 
L 178.105263 215.569319 
L 179.503759 216.004651 
L 180.902256 216.56668 
L 183.699248 218.053647 
L 186.496241 219.992138 
L 189.293233 222.339138 
L 192.090226 225.048031 
L 194.887218 228.069796 
L 197.684211 231.354062 
L 201.879699 236.661658 
L 207.473684 244.188628 
L 218.661654 259.40999 
L 222.857143 264.765919 
L 227.052632 269.760831 
L 231.24812 274.312554 
L 234.045113 277.068929 
L 236.842105 279.585972 
L 239.639098 281.853362 
L 242.43609 283.864317 
L 245.233083 285.615444 
L 248.030075 287.106568 
L 250.827068 288.340542 
L 253.62406 289.323035 
L 256.421053 290.062311 
L 259.218045 290.56899 
L 262.015038 290.855813 
L 264.81203 290.937386 
L 267.609023 290.829933 
L 270.406015 290.551041 
L 274.601504 289.852416 
L 278.796992 288.87687 
L 284.390977 287.264977 
L 292.781955 284.515477 
L 301.172932 281.84105 
L 306.766917 280.336432 
L 310.962406 279.43995 
L 315.157895 278.78871 
L 319.353383 278.416191 
L 323.548872 278.347823 
L 327.744361 278.600791 
L 331.93985 279.184014 
L 336.135338 280.098278 
L 340.330827 281.336529 
L 344.526316 282.884303 
L 348.721805 284.720285 
L 352.917293 286.816985 
L 357.112782 289.141513 
L 362.706767 292.530048 
L 369.699248 297.090658 
L 387.879699 309.206709 
L 393.473684 312.603209 
L 397.669173 314.946664 
L 401.864662 317.080273 
L 406.06015 318.978178 
L 410.255639 320.620389 
L 414.451128 321.993232 
L 418.646617 323.08966 
L 422.842105 323.909426 
L 427.037594 324.4591 
L 431.233083 324.751935 
L 435.428571 324.80758 
L 439.62406 324.651626 
L 445.218045 324.168675 
L 450.81203 323.450659 
L 462 321.70006 
L 468.992481 320.68781 
L 474.586466 320.080214 
L 478.781955 319.798875 
L 482.977444 319.699959 
L 487.172932 319.805732 
L 491.368421 320.130336 
L 495.56391 320.678769 
L 499.759398 321.446064 
L 503.954887 322.416747 
L 509.548872 323.980594 
L 516.541353 326.235478 
L 527.729323 329.943146 
L 533.323308 331.522016 
L 537.518797 332.461592 
L 541.714286 333.132327 
L 545.909774 333.498168 
L 550.105263 333.547516 
L 554.300752 333.30277 
L 558.496241 332.831484 
L 566.887218 331.784708 
L 569.684211 331.660696 
L 572.481203 331.81749 
L 573.879699 332.042589 
L 575.278195 332.390863 
L 576.676692 332.883572 
L 578.075188 333.543885 
L 579.473684 334.396982 
L 580.87218 335.470173 
L 582.270677 336.793007 
L 583.669173 338.397397 
L 585.067669 340.317739 
L 586.466165 342.591045 
L 587.864662 345.257071 
L 589.263158 348.358458 
L 590.661654 351.940876 
L 592.06015 356.053165 
L 593.458647 360.74749 
L 594.857143 366.079501 
L 596.255639 372.108488 
L 597.654135 378.897556 
L 599.052632 386.513791 
L 600.451128 395.028442 
L 601.849624 404.517105 
L 603.24812 415.059909 
L 605.324524 433 
L 605.324524 433 
" style="fill:none;stroke:#0000ff;stroke-linecap:square;stroke-width:2;"/>
   </g>
   <g id="line2d_16">
    <path clip-path="url(#p818f41c06a)" d="M 184.83895 -1 
L 185.097744 5.094147 
L 186.496241 34.931362 
L 187.894737 61.906527 
L 189.293233 86.238885 
L 190.691729 108.134686 
L 192.090226 127.787775 
L 193.488722 145.380155 
L 194.887218 161.082535 
L 196.285714 175.054861 
L 197.684211 187.446822 
L 199.082707 198.398345 
L 200.481203 208.04007 
L 201.879699 216.493807 
L 203.278195 223.872979 
L 204.676692 230.283047 
L 206.075188 235.821922 
L 207.473684 240.580357 
L 208.87218 244.642329 
L 210.270677 248.085403 
L 211.669173 250.981085 
L 213.067669 253.395159 
L 214.466165 255.38801 
L 215.864662 257.014939 
L 217.263158 258.326457 
L 218.661654 259.368574 
L 220.06015 260.183075 
L 221.458647 260.807779 
L 222.857143 261.276794 
L 225.654135 261.867055 
L 228.451128 262.161349 
L 238.240602 262.870313 
L 241.037594 263.331697 
L 243.834586 263.98687 
L 246.631579 264.847236 
L 249.428571 265.910255 
L 252.225564 267.162513 
L 256.421053 269.346836 
L 260.616541 271.811672 
L 267.609023 276.241897 
L 274.601504 280.631582 
L 278.796992 283.058672 
L 282.992481 285.238167 
L 287.18797 287.117116 
L 291.383459 288.663089 
L 295.578947 289.863774 
L 299.774436 290.725683 
L 303.969925 291.272162 
L 308.165414 291.540907 
L 312.360902 291.581152 
L 317.954887 291.380068 
L 334.736842 290.479614 
L 338.932331 290.512058 
L 343.12782 290.75218 
L 347.323308 291.2376 
L 351.518797 291.995471 
L 355.714286 293.041787 
L 359.909774 294.381096 
L 364.105263 296.006599 
L 368.300752 297.900615 
L 372.496241 300.035388 
L 378.090226 303.191666 
L 385.082707 307.480597 
L 400.466165 317.077372 
L 406.06015 320.206334 
L 410.255639 322.307323 
L 414.451128 324.151782 
L 418.646617 325.707172 
L 422.842105 326.950319 
L 427.037594 327.8683 
L 431.233083 328.459003 
L 435.428571 328.731335 
L 439.62406 328.705048 
L 443.819549 328.410189 
L 448.015038 327.886153 
L 453.609023 326.913827 
L 462 325.136148 
L 470.390977 323.39687 
L 475.984962 322.482793 
L 480.180451 322.006442 
L 484.37594 321.748 
L 488.571429 321.728267 
L 492.766917 321.953014 
L 496.962406 322.411548 
L 501.157895 323.076053 
L 506.75188 324.203135 
L 520.736842 327.231688 
L 524.932331 327.883723 
L 529.12782 328.300276 
L 533.323308 328.454965 
L 537.518797 328.370578 
L 547.308271 327.956617 
L 550.105263 328.138168 
L 551.503759 328.357952 
L 552.902256 328.693154 
L 554.300752 329.169223 
L 555.699248 329.814555 
L 557.097744 330.660714 
L 558.496241 331.742651 
L 559.894737 333.098936 
L 561.293233 334.772005 
L 562.691729 336.808413 
L 564.090226 339.2591 
L 565.488722 342.179672 
L 566.887218 345.630687 
L 568.285714 349.67796 
L 569.684211 354.392877 
L 571.082707 359.852723 
L 572.481203 366.141024 
L 573.879699 373.347902 
L 575.278195 381.570443 
L 576.676692 390.913086 
L 578.075188 401.488013 
L 579.473684 413.415572 
L 581.446824 433 
L 581.446824 433 
" style="fill:none;stroke:#0000ff;stroke-linecap:square;stroke-width:2;"/>
   </g>
   <g id="line2d_17">
    <path clip-path="url(#p818f41c06a)" d="M 157.029242 433 
L 157.12782 429.293535 
L 158.526316 382.336064 
L 159.924812 340.589761 
L 161.323308 303.663195 
L 162.721805 271.18683 
L 164.120301 242.8121 
L 165.518797 218.210515 
L 166.917293 197.072785 
L 168.315789 179.107984 
L 169.714286 164.042735 
L 171.112782 151.620422 
L 172.511278 141.600427 
L 173.909774 133.757396 
L 175.308271 127.880528 
L 176.706767 123.772885 
L 178.105263 121.250732 
L 179.503759 120.142895 
L 180.902256 120.290143 
L 182.300752 121.544591 
L 183.699248 123.769129 
L 185.097744 126.836864 
L 186.496241 130.630591 
L 187.894737 135.042276 
L 189.293233 139.972565 
L 192.090226 151.032092 
L 194.887218 163.1703 
L 206.075188 213.333873 
L 208.87218 224.720071 
L 211.669173 235.258623 
L 214.466165 244.850181 
L 217.263158 253.436464 
L 220.06015 260.993613 
L 222.857143 267.526224 
L 225.654135 273.061996 
L 227.052632 275.46986 
L 228.451128 277.646977 
L 229.849624 279.601276 
L 231.24812 281.341335 
L 232.646617 282.876273 
L 234.045113 284.215651 
L 235.443609 285.369387 
L 236.842105 286.347666 
L 238.240602 287.16086 
L 239.639098 287.819464 
L 241.037594 288.334019 
L 242.43609 288.715059 
L 245.233083 289.11834 
L 248.030075 289.111353 
L 250.827068 288.772891 
L 253.62406 288.177361 
L 257.819549 286.951691 
L 264.81203 284.515843 
L 270.406015 282.641965 
L 274.601504 281.464179 
L 278.796992 280.567687 
L 281.593985 280.149845 
L 284.390977 279.88459 
L 287.18797 279.774092 
L 289.984962 279.816374 
L 294.180451 280.153225 
L 298.37594 280.789569 
L 302.571429 281.683263 
L 306.766917 282.785138 
L 312.360902 284.487668 
L 322.150376 287.775314 
L 331.93985 291.021446 
L 340.330827 293.563972 
L 351.518797 296.665772 
L 359.909774 299.053967 
L 365.503759 300.862526 
L 369.699248 302.415868 
L 373.894737 304.193691 
L 378.090226 306.243251 
L 382.285714 308.606468 
L 386.481203 311.317475 
L 390.676692 314.400314 
L 394.87218 317.86686 
L 399.067669 321.715041 
L 403.263158 325.927414 
L 407.458647 330.470176 
L 413.052632 336.951106 
L 420.045113 345.490323 
L 429.834586 357.456401 
L 434.030075 362.262908 
L 438.225564 366.687859 
L 441.022556 369.358829 
L 443.819549 371.759823 
L 446.616541 373.851684 
L 449.413534 375.596808 
L 452.210526 376.959839 
L 455.007519 377.908386 
L 456.406015 378.218097 
L 457.804511 378.413757 
L 459.203008 378.492481 
L 460.601504 378.451707 
L 462 378.289223 
L 463.398496 378.003187 
L 464.796992 377.59215 
L 466.195489 377.055081 
L 467.593985 376.391386 
L 470.390977 374.684063 
L 473.18797 372.474994 
L 475.984962 369.777292 
L 478.781955 366.612938 
L 481.578947 363.013254 
L 484.37594 359.019294 
L 487.172932 354.682118 
L 491.368421 347.669487 
L 498.360902 335.2762 
L 502.556391 327.928311 
L 505.353383 323.288991 
L 508.150376 318.993959 
L 510.947368 315.166135 
L 513.744361 311.931348 
L 515.142857 310.57591 
L 516.541353 309.416063 
L 517.93985 308.467274 
L 519.338346 307.744688 
L 520.736842 307.263022 
L 522.135338 307.036449 
L 523.533835 307.07847 
L 524.932331 307.401784 
L 526.330827 308.018147 
L 527.729323 308.938221 
L 529.12782 310.171412 
L 530.526316 311.725704 
L 531.924812 313.607478 
L 533.323308 315.821322 
L 534.721805 318.369833 
L 536.120301 321.253401 
L 537.518797 324.469992 
L 538.917293 328.01491 
L 541.714286 336.056147 
L 544.511278 345.276635 
L 547.308271 355.516207 
L 550.105263 366.545198 
L 558.496241 400.797273 
L 561.293233 410.900631 
L 562.691729 415.325614 
L 564.090226 419.191261 
L 565.488722 422.379187 
L 566.887218 424.76055 
L 568.285714 426.195476 
L 569.684211 426.532457 
L 571.082707 425.607723 
L 572.481203 423.244599 
L 573.879699 419.252832 
L 575.278195 413.4279 
L 576.676692 405.550287 
L 578.075188 395.384743 
L 579.473684 382.679515 
L 580.87218 367.165543 
L 582.270677 348.555647 
L 583.669173 326.543664 
L 585.067669 300.80358 
L 586.466165 270.98861 
L 587.864662 236.73027 
L 589.263158 197.637399 
L 590.661654 153.295168 
L 592.06015 103.264042 
L 593.458647 47.078723 
L 594.528774 -1 
L 594.528774 -1 
" style="fill:none;stroke:#0000ff;stroke-linecap:square;stroke-width:2;"/>
   </g>
   <g id="line2d_18">
    <path clip-path="url(#p818f41c06a)" d="M 165.190768 433 
L 165.518797 423.715817 
L 166.917293 388.302286 
L 168.315789 356.75063 
L 169.714286 328.771458 
L 171.112782 304.091467 
L 172.511278 282.452775 
L 173.909774 263.612264 
L 175.308271 247.340951 
L 176.706767 233.423379 
L 178.105263 221.657023 
L 179.503759 211.851717 
L 180.902256 203.829099 
L 182.300752 197.422079 
L 183.699248 192.474316 
L 185.097744 188.839717 
L 186.496241 186.381955 
L 187.894737 184.974001 
L 189.293233 184.497671 
L 190.691729 184.843189 
L 192.090226 185.908769 
L 193.488722 187.600209 
L 194.887218 189.830499 
L 196.285714 192.519443 
L 197.684211 195.593299 
L 200.481203 202.630958 
L 203.278195 210.469641 
L 214.466165 243.044368 
L 217.263158 250.346069 
L 220.06015 257.029805 
L 222.857143 263.025165 
L 225.654135 268.292592 
L 228.451128 272.818409 
L 231.24812 276.610332 
L 232.646617 278.238345 
L 234.045113 279.693445 
L 235.443609 280.980891 
L 236.842105 282.1066 
L 238.240602 283.077054 
L 239.639098 283.899218 
L 241.037594 284.580457 
L 242.43609 285.128464 
L 243.834586 285.551187 
L 246.631579 286.053477 
L 249.428571 286.153696 
L 252.225564 285.918633 
L 255.022556 285.414028 
L 257.819549 284.70336 
L 262.015038 283.381625 
L 274.601504 279.169866 
L 278.796992 278.127036 
L 281.593985 277.61248 
L 284.390977 277.261744 
L 287.18797 277.085546 
L 289.984962 277.089754 
L 292.781955 277.275745 
L 295.578947 277.640786 
L 298.37594 278.17846 
L 301.172932 278.879097 
L 305.368421 280.207686 
L 309.56391 281.822877 
L 313.759398 283.664802 
L 319.353383 286.360855 
L 334.736842 293.995472 
L 340.330827 296.447509 
L 344.526316 298.071072 
L 348.721805 299.480375 
L 352.917293 300.660644 
L 357.112782 301.608171 
L 361.308271 302.330036 
L 365.503759 302.843487 
L 371.097744 303.25081 
L 376.691729 303.41976 
L 396.270677 303.704925 
L 400.466165 304.025156 
L 404.661654 304.534715 
L 408.857143 305.267036 
L 413.052632 306.247235 
L 417.24812 307.490839 
L 421.443609 309.002787 
L 425.639098 310.776735 
L 429.834586 312.794716 
L 434.030075 315.027163 
L 439.62406 318.265432 
L 459.203008 329.998679 
L 463.398496 332.119575 
L 467.593985 333.934944 
L 470.390977 334.941432 
L 473.18797 335.763547 
L 475.984962 336.385466 
L 478.781955 336.794072 
L 481.578947 336.979394 
L 484.37594 336.935024 
L 487.172932 336.658524 
L 489.969925 336.151785 
L 492.766917 335.421354 
L 495.56391 334.478709 
L 498.360902 333.340466 
L 502.556391 331.315692 
L 506.75188 328.997598 
L 520.736842 320.898601 
L 523.533835 319.580841 
L 526.330827 318.491775 
L 529.12782 317.687139 
L 531.924812 317.220361 
L 534.721805 317.140587 
L 536.120301 317.259461 
L 537.518797 317.490405 
L 538.917293 317.837291 
L 540.315789 318.303235 
L 541.714286 318.890495 
L 544.511278 320.43307 
L 547.308271 322.461716 
L 550.105263 324.951865 
L 552.902256 327.853263 
L 555.699248 331.085057 
L 565.488722 342.914044 
L 566.887218 344.308888 
L 568.285714 345.519211 
L 569.684211 346.497631 
L 571.082707 347.191982 
L 572.481203 347.545023 
L 573.879699 347.494125 
L 575.278195 346.970956 
L 576.676692 345.901149 
L 578.075188 344.203953 
L 579.473684 341.791876 
L 580.87218 338.570314 
L 582.270677 334.437162 
L 583.669173 329.282413 
L 585.067669 322.987742 
L 586.466165 315.426076 
L 587.864662 306.461146 
L 589.263158 295.947022 
L 590.661654 283.727638 
L 592.06015 269.636292 
L 593.458647 253.495136 
L 594.857143 235.114643 
L 596.255639 214.293056 
L 597.654135 190.815828 
L 599.052632 164.455029 
L 600.451128 134.968742 
L 601.849624 102.100442 
L 603.24812 65.578346 
L 605.463478 -1 
L 605.463478 -1 
" style="fill:none;stroke:#0000ff;stroke-linecap:square;stroke-width:2;"/>
   </g>
   <g id="line2d_19">
    <path clip-path="url(#p818f41c06a)" d="M 151.290658 433 
L 152.932331 397.283886 
L 154.330827 369.553426 
L 155.729323 344.031285 
L 157.12782 320.599632 
L 158.526316 299.145286 
L 159.924812 279.559589 
L 161.323308 261.738261 
L 162.721805 245.581269 
L 164.120301 230.992701 
L 165.518797 217.880637 
L 166.917293 206.157023 
L 168.315789 195.737552 
L 169.714286 186.541548 
L 171.112782 178.491844 
L 172.511278 171.514677 
L 173.909774 165.539572 
L 175.308271 160.499236 
L 176.706767 156.329456 
L 178.105263 152.968993 
L 179.503759 150.359483 
L 180.902256 148.445339 
L 182.300752 147.173659 
L 183.699248 146.494131 
L 185.097744 146.35894 
L 186.496241 146.722685 
L 187.894737 147.542291 
L 189.293233 148.776924 
L 190.691729 150.387911 
L 192.090226 152.338661 
L 193.488722 154.594587 
L 194.887218 157.123029 
L 197.684211 162.876037 
L 200.481203 169.372258 
L 203.278195 176.412644 
L 207.473684 187.617448 
L 218.661654 218.113325 
L 222.857143 228.846462 
L 227.052632 238.853321 
L 229.849624 245.053266 
L 232.646617 250.843464 
L 235.443609 256.205788 
L 238.240602 261.129815 
L 241.037594 265.611902 
L 243.834586 269.654328 
L 246.631579 273.264493 
L 249.428571 276.454186 
L 252.225564 279.23891 
L 255.022556 281.637255 
L 257.819549 283.670331 
L 260.616541 285.361243 
L 263.413534 286.734625 
L 266.210526 287.8162 
L 269.007519 288.632399 
L 271.804511 289.210011 
L 274.601504 289.575867 
L 277.398496 289.756571 
L 281.593985 289.737435 
L 285.789474 289.445406 
L 291.383459 288.769442 
L 310.962406 286.008822 
L 316.556391 285.611389 
L 320.75188 285.524441 
L 324.947368 285.641488 
L 329.142857 285.975772 
L 333.338346 286.534103 
L 337.533835 287.317367 
L 341.729323 288.321079 
L 345.924812 289.53597 
L 350.120301 290.948592 
L 355.714286 293.109826 
L 361.308271 295.543782 
L 368.300752 298.885482 
L 376.691729 303.17987 
L 394.87218 312.610396 
L 401.864662 315.9676 
L 407.458647 318.447499 
L 413.052632 320.704761 
L 418.646617 322.711019 
L 424.240602 324.446028 
L 429.834586 325.897799 
L 435.428571 327.062516 
L 441.022556 327.944268 
L 446.616541 328.554616 
L 452.210526 328.912001 
L 457.804511 329.041034 
L 463.398496 328.971676 
L 470.390977 328.658754 
L 478.781955 328.050741 
L 503.954887 326.049537 
L 510.947368 325.789706 
L 517.93985 325.778898 
L 523.533835 325.978594 
L 529.12782 326.377811 
L 534.721805 326.979501 
L 540.315789 327.775042 
L 547.308271 329.006634 
L 557.097744 331.018671 
L 566.887218 333.005511 
L 572.481203 333.898222 
L 576.676692 334.333465 
L 579.473684 334.466605 
L 582.270677 334.441293 
L 585.067669 334.225829 
L 587.864662 333.785052 
L 590.661654 333.080041 
L 593.458647 332.067789 
L 596.255639 330.700858 
L 599.052632 328.926995 
L 601.849624 326.688731 
L 604.646617 323.922939 
L 607.443609 320.56036 
L 610.240602 316.525098 
L 613.037594 311.734074 
L 615.834586 306.096439 
L 618.631579 299.512947 
L 621.428571 291.875287 
L 624.225564 283.06536 
L 627.022556 272.954514 
L 629.819549 261.402726 
L 632.616541 248.257726 
L 635.413534 233.354069 
L 638.210526 216.512144 
L 641.007519 197.537119 
L 643.804511 176.217824 
L 646.601504 152.325563 
L 648 139.338003 
L 648 139.338003 
" style="fill:none;stroke:#0000ff;stroke-linecap:square;stroke-width:2;"/>
   </g>
   <g id="line2d_20">
    <path clip-path="url(#p818f41c06a)" d="M 134.514481 433 
L 136.150376 407.431333 
L 138.947368 368.987887 
L 140.345865 351.98436 
L 141.744361 336.352035 
L 143.142857 322.014333 
L 144.541353 308.897841 
L 145.93985 296.93222 
L 147.338346 286.050104 
L 148.736842 276.18701 
L 150.135338 267.281242 
L 151.533835 259.273806 
L 152.932331 252.108319 
L 154.330827 245.730927 
L 155.729323 240.090217 
L 157.12782 235.137141 
L 158.526316 230.824931 
L 159.924812 227.109027 
L 161.323308 223.947 
L 162.721805 221.298474 
L 164.120301 219.125061 
L 165.518797 217.390286 
L 166.917293 216.059523 
L 168.315789 215.099923 
L 169.714286 214.480355 
L 171.112782 214.171341 
L 172.511278 214.144991 
L 173.909774 214.374952 
L 175.308271 214.836338 
L 176.706767 215.505685 
L 178.105263 216.360889 
L 179.503759 217.381153 
L 182.300752 219.83991 
L 185.097744 222.739817 
L 187.894737 225.956483 
L 192.090226 231.143049 
L 201.879699 243.50275 
L 206.075188 248.428693 
L 210.270677 252.940599 
L 213.067669 255.678851 
L 215.864662 258.183461 
L 218.661654 260.44566 
L 221.458647 262.461732 
L 224.255639 264.232362 
L 227.052632 265.762027 
L 229.849624 267.05844 
L 232.646617 268.132037 
L 235.443609 268.995502 
L 238.240602 269.663339 
L 241.037594 270.151477 
L 243.834586 270.476915 
L 248.030075 270.698956 
L 252.225564 270.656489 
L 256.421053 270.411467 
L 262.015038 269.874361 
L 278.796992 268.050631 
L 284.390977 267.733885 
L 288.586466 267.679055 
L 292.781955 267.808365 
L 296.977444 268.140299 
L 301.172932 268.687717 
L 305.368421 269.458111 
L 309.56391 270.453924 
L 313.759398 271.672927 
L 317.954887 273.108628 
L 322.150376 274.750726 
L 326.345865 276.585571 
L 331.93985 279.302957 
L 337.533835 282.287831 
L 344.526316 286.316888 
L 352.917293 291.4465 
L 375.293233 305.318886 
L 382.285714 309.334533 
L 387.879699 312.337357 
L 393.473684 315.11865 
L 399.067669 317.652828 
L 404.661654 319.920943 
L 410.255639 321.910686 
L 415.849624 323.616239 
L 421.443609 325.037991 
L 427.037594 326.182145 
L 432.631579 327.060226 
L 438.225564 327.688514 
L 443.819549 328.087432 
L 449.413534 328.280885 
L 456.406015 328.274695 
L 463.398496 328.046126 
L 473.18797 327.46712 
L 502.556391 325.478337 
L 510.947368 325.246354 
L 517.93985 325.273527 
L 524.932331 325.534349 
L 531.924812 326.04854 
L 538.917293 326.822023 
L 545.909774 327.843059 
L 552.902256 329.076989 
L 564.090226 331.318358 
L 573.879699 333.200678 
L 579.473684 334.025481 
L 583.669173 334.414097 
L 587.864662 334.517594 
L 590.661654 334.38135 
L 593.458647 334.042963 
L 596.255639 333.465441 
L 599.052632 332.607399 
L 601.849624 331.422633 
L 604.646617 329.859665 
L 607.443609 327.861251 
L 610.240602 325.363852 
L 613.037594 322.297065 
L 615.834586 318.583019 
L 618.631579 314.135716 
L 621.428571 308.860338 
L 624.225564 302.6525 
L 627.022556 295.397458 
L 629.819549 286.969253 
L 632.616541 277.229816 
L 635.413534 266.028007 
L 638.210526 253.198588 
L 641.007519 238.561146 
L 643.804511 221.918942 
L 646.601504 203.05769 
L 648 192.722845 
L 648 192.722845 
" style="fill:none;stroke:#0000ff;stroke-linecap:square;stroke-width:2;"/>
   </g>
   <g id="line2d_21">
    <path clip-path="url(#p818f41c06a)" d="M 151.100778 433 
L 151.533835 421.931937 
L 152.932331 389.593686 
L 154.330827 360.432711 
L 155.729323 334.233166 
L 157.12782 310.790148 
L 158.526316 289.909277 
L 159.924812 271.406294 
L 161.323308 255.106658 
L 162.721805 240.845173 
L 164.120301 228.465605 
L 165.518797 217.82033 
L 166.917293 208.769977 
L 168.315789 201.183092 
L 169.714286 194.935805 
L 171.112782 189.911511 
L 172.511278 186.000562 
L 173.909774 183.099962 
L 175.308271 181.113081 
L 176.706767 179.94937 
L 178.105263 179.524088 
L 179.503759 179.75804 
L 180.902256 180.57732 
L 182.300752 181.913061 
L 183.699248 183.701204 
L 185.097744 185.882259 
L 186.496241 188.401086 
L 189.293233 194.251954 
L 192.090226 200.891673 
L 196.285714 211.675919 
L 203.278195 229.955857 
L 207.473684 240.218822 
L 210.270677 246.543814 
L 213.067669 252.37815 
L 215.864662 257.680928 
L 218.661654 262.430095 
L 221.458647 266.619563 
L 224.255639 270.25659 
L 227.052632 273.359416 
L 229.849624 275.955122 
L 232.646617 278.077728 
L 235.443609 279.766479 
L 238.240602 281.064331 
L 241.037594 282.016625 
L 243.834586 282.669912 
L 246.631579 283.070947 
L 249.428571 283.265818 
L 253.62406 283.268789 
L 259.218045 282.950023 
L 269.007519 282.302682 
L 273.203008 282.237993 
L 277.398496 282.401371 
L 281.593985 282.837983 
L 285.789474 283.575693 
L 289.984962 284.626331 
L 294.180451 285.987272 
L 298.37594 287.643227 
L 302.571429 289.568189 
L 306.766917 291.727448 
L 312.360902 294.8987 
L 319.353383 299.175863 
L 334.736842 308.748025 
L 340.330827 311.949038 
L 345.924812 314.86213 
L 350.120301 316.820309 
L 354.315789 318.563435 
L 358.511278 320.080216 
L 362.706767 321.366173 
L 366.902256 322.423415 
L 371.097744 323.260243 
L 375.293233 323.890592 
L 379.488722 324.333349 
L 385.082707 324.672174 
L 390.676692 324.781987 
L 399.067669 324.669779 
L 417.24812 324.301028 
L 424.240602 324.43094 
L 431.233083 324.814382 
L 438.225564 325.463883 
L 445.218045 326.350198 
L 455.007519 327.852347 
L 467.593985 329.790479 
L 474.586466 330.620852 
L 480.180451 331.053977 
L 485.774436 331.230527 
L 491.368421 331.123204 
L 496.962406 330.729364 
L 502.556391 330.075717 
L 509.548872 328.986754 
L 522.135338 326.893349 
L 526.330827 326.3852 
L 530.526316 326.087355 
L 534.721805 326.068947 
L 537.518797 326.242849 
L 540.315789 326.583572 
L 543.112782 327.102059 
L 545.909774 327.803966 
L 548.706767 328.688202 
L 551.503759 329.745306 
L 555.699248 331.608786 
L 568.285714 337.627333 
L 571.082707 338.487099 
L 572.481203 338.751787 
L 573.879699 338.876062 
L 575.278195 338.834463 
L 576.676692 338.599172 
L 578.075188 338.13987 
L 579.473684 337.423591 
L 580.87218 336.414571 
L 582.270677 335.074087 
L 583.669173 333.360296 
L 585.067669 331.228062 
L 586.466165 328.628775 
L 587.864662 325.510176 
L 589.263158 321.816157 
L 590.661654 317.486569 
L 592.06015 312.457016 
L 593.458647 306.65864 
L 594.857143 300.017905 
L 596.255639 292.456369 
L 597.654135 283.890446 
L 599.052632 274.231166 
L 600.451128 263.383921 
L 601.849624 251.248207 
L 603.24812 237.717357 
L 604.646617 222.678257 
L 606.045113 206.011069 
L 607.443609 187.588928 
L 608.842105 167.277641 
L 610.240602 144.935371 
L 611.639098 120.412315 
L 613.037594 93.550364 
L 614.43609 64.182767 
L 615.834586 32.133767 
L 617.161717 -1 
L 617.161717 -1 
" style="fill:none;stroke:#0000ff;stroke-linecap:square;stroke-width:2;"/>
   </g>
   <g id="line2d_22">
    <path clip-path="url(#p818f41c06a)" d="M 148.048687 433 
L 150.135338 395.449814 
L 152.932331 351.378202 
L 155.729323 313.586607 
L 157.12782 296.869545 
L 158.526316 281.514932 
L 159.924812 267.457677 
L 161.323308 254.634606 
L 162.721805 242.984439 
L 164.120301 232.447764 
L 165.518797 222.967005 
L 166.917293 214.486404 
L 168.315789 206.951983 
L 169.714286 200.311523 
L 171.112782 194.514535 
L 172.511278 189.512228 
L 173.909774 185.257484 
L 175.308271 181.704829 
L 176.706767 178.810403 
L 178.105263 176.531927 
L 179.503759 174.828683 
L 180.902256 173.661477 
L 182.300752 172.992609 
L 183.699248 172.785851 
L 185.097744 173.00641 
L 186.496241 173.6209 
L 187.894737 174.597315 
L 189.293233 175.904998 
L 190.691729 177.514608 
L 192.090226 179.398098 
L 193.488722 181.528678 
L 196.285714 186.430071 
L 199.082707 192.028557 
L 201.879699 198.152188 
L 206.075188 207.98865 
L 220.06015 241.565585 
L 224.255639 250.725786 
L 227.052632 256.407303 
L 229.849624 261.70319 
L 232.646617 266.584668 
L 235.443609 271.031154 
L 238.240602 275.02956 
L 241.037594 278.573603 
L 243.834586 281.663144 
L 246.631579 284.303558 
L 249.428571 286.505116 
L 252.225564 288.282413 
L 255.022556 289.653799 
L 257.819549 290.640861 
L 260.616541 291.26791 
L 263.413534 291.561508 
L 266.210526 291.550018 
L 269.007519 291.263181 
L 271.804511 290.731717 
L 274.601504 289.986958 
L 277.398496 289.0605 
L 281.593985 287.399042 
L 287.18797 284.838582 
L 301.172932 278.130597 
L 305.368421 276.380687 
L 309.56391 274.877542 
L 313.759398 273.676368 
L 316.556391 273.065916 
L 319.353383 272.620498 
L 322.150376 272.34872 
L 324.947368 272.257126 
L 327.744361 272.350234 
L 330.541353 272.630577 
L 333.338346 273.098766 
L 336.135338 273.75356 
L 338.932331 274.591943 
L 341.729323 275.609223 
L 344.526316 276.799125 
L 348.721805 278.890327 
L 352.917293 281.320449 
L 357.112782 284.051828 
L 361.308271 287.041857 
L 366.902256 291.350051 
L 373.894737 297.085205 
L 390.676692 311.074119 
L 396.270677 315.399579 
L 400.466165 318.425614 
L 404.661654 321.224909 
L 408.857143 323.767342 
L 413.052632 326.028587 
L 417.24812 327.990481 
L 421.443609 329.641277 
L 425.639098 330.975761 
L 429.834586 331.995259 
L 434.030075 332.707511 
L 438.225564 333.126412 
L 442.421053 333.271642 
L 446.616541 333.168164 
L 450.81203 332.845612 
L 456.406015 332.13328 
L 462 331.179408 
L 471.789474 329.212348 
L 481.578947 327.297494 
L 487.172932 326.402865 
L 492.766917 325.739515 
L 498.360902 325.355727 
L 502.556391 325.268457 
L 506.75188 325.356802 
L 512.345865 325.737687 
L 517.93985 326.386536 
L 524.932331 327.48433 
L 545.909774 331.062085 
L 551.503759 331.668071 
L 557.097744 332.034089 
L 564.090226 332.23572 
L 571.082707 332.472593 
L 573.879699 332.718492 
L 576.676692 333.142331 
L 579.473684 333.825023 
L 582.270677 334.864333 
L 583.669173 335.553372 
L 585.067669 336.376896 
L 586.466165 337.352788 
L 587.864662 338.500397 
L 589.263158 339.840603 
L 590.661654 341.395906 
L 592.06015 343.190503 
L 593.458647 345.250374 
L 594.857143 347.603372 
L 596.255639 350.27931 
L 597.654135 353.310055 
L 599.052632 356.729627 
L 600.451128 360.574298 
L 601.849624 364.882691 
L 603.24812 369.695892 
L 604.646617 375.057553 
L 606.045113 381.014008 
L 607.443609 387.61439 
L 608.842105 394.910745 
L 610.240602 402.958163 
L 611.639098 411.814894 
L 613.037594 421.542489 
L 614.531267 433 
L 614.531267 433 
" style="fill:none;stroke:#0000ff;stroke-linecap:square;stroke-width:2;"/>
   </g>
   <g id="line2d_23">
    <path clip-path="url(#p818f41c06a)" d="M 140.78475 -1 
L 141.744361 28.590614 
L 143.142857 66.139923 
L 144.541353 98.61638 
L 145.93985 126.489456 
L 147.338346 150.197684 
L 148.736842 170.150152 
L 150.135338 186.727938 
L 151.533835 200.285488 
L 152.932331 211.151958 
L 154.330827 219.632499 
L 155.729323 226.009493 
L 157.12782 230.543756 
L 158.526316 233.475681 
L 159.924812 235.02635 
L 161.323308 235.398594 
L 162.721805 234.778022 
L 164.120301 233.333998 
L 165.518797 231.220593 
L 166.917293 228.577485 
L 168.315789 225.530834 
L 171.112782 218.6689 
L 176.706767 204.340711 
L 179.503759 197.936194 
L 180.902256 195.089871 
L 182.300752 192.524874 
L 183.699248 190.266455 
L 185.097744 188.334253 
L 186.496241 186.742773 
L 187.894737 185.50183 
L 189.293233 184.616984 
L 190.691729 184.089943 
L 192.090226 183.918944 
L 193.488722 184.099119 
L 194.887218 184.622831 
L 196.285714 185.480002 
L 197.684211 186.658412 
L 199.082707 188.143984 
L 200.481203 189.92105 
L 201.879699 191.972602 
L 203.278195 194.280524 
L 206.075188 199.588761 
L 208.87218 205.686556 
L 211.669173 212.409352 
L 215.864662 223.305434 
L 228.451128 257.064539 
L 231.24812 263.953964 
L 234.045113 270.400623 
L 236.842105 276.331985 
L 239.639098 281.69132 
L 242.43609 286.437394 
L 245.233083 290.54392 
L 248.030075 293.998792 
L 250.827068 296.803145 
L 252.225564 297.965087 
L 253.62406 298.970271 
L 255.022556 299.822061 
L 256.421053 300.524429 
L 257.819549 301.081912 
L 259.218045 301.499568 
L 260.616541 301.782937 
L 262.015038 301.937996 
L 263.413534 301.971114 
L 266.210526 301.698728 
L 269.007519 301.023005 
L 271.804511 300.004762 
L 274.601504 298.707093 
L 277.398496 297.194112 
L 281.593985 294.660469 
L 291.383459 288.57113 
L 295.578947 286.321274 
L 298.37594 285.052861 
L 301.172932 284.009861 
L 303.969925 283.219517 
L 306.766917 282.702406 
L 309.56391 282.472338 
L 312.360902 282.536367 
L 315.157895 282.894909 
L 317.954887 283.541963 
L 320.75188 284.465423 
L 323.548872 285.647488 
L 326.345865 287.065145 
L 329.142857 288.690737 
L 333.338346 291.448784 
L 337.533835 294.482468 
L 351.518797 304.873883 
L 355.714286 307.566233 
L 358.511278 309.14303 
L 361.308271 310.513204 
L 364.105263 311.654667 
L 366.902256 312.550898 
L 369.699248 313.191516 
L 372.496241 313.572773 
L 375.293233 313.697964 
L 378.090226 313.577749 
L 380.887218 313.230371 
L 383.684211 312.681764 
L 387.879699 311.557177 
L 393.473684 309.730036 
L 399.067669 307.940224 
L 401.864662 307.224834 
L 404.661654 306.727657 
L 407.458647 306.527451 
L 410.255639 306.705602 
L 411.654135 306.962418 
L 413.052632 307.344919 
L 414.451128 307.863464 
L 415.849624 308.528331 
L 417.24812 309.349671 
L 418.646617 310.337462 
L 420.045113 311.501453 
L 421.443609 312.85112 
L 422.842105 314.39561 
L 424.240602 316.143688 
L 425.639098 318.103686 
L 427.037594 320.283445 
L 428.43609 322.690258 
L 429.834586 325.330821 
L 432.631579 331.336611 
L 435.428571 338.34016 
L 438.225564 346.367532 
L 441.022556 355.429705 
L 443.819549 365.520792 
L 446.616541 376.616339 
L 449.413534 388.671698 
L 452.210526 401.62054 
L 456.406015 422.517047 
L 458.402925 433 
M 518.507279 433 
L 520.736842 402.174594 
L 523.533835 359.498823 
L 526.330827 312.977929 
L 529.12782 263.2406 
L 533.323308 184.50819 
L 538.917293 78.237089 
L 541.714286 28.215956 
L 543.490231 -1 
M 561.416077 -1 
L 562.691729 36.217318 
L 564.090226 86.466205 
L 565.488722 147.054518 
L 566.887218 218.928657 
L 568.285714 303.091953 
L 570.088717 433 
L 570.088717 433 
" style="fill:none;stroke:#0000ff;stroke-linecap:square;stroke-width:2;"/>
   </g>
   <g id="patch_3">
    <path d="M 90 378 
L 90 51.84 
" style="fill:none;stroke:#000000;stroke-linecap:square;stroke-linejoin:miter;stroke-width:0.8;"/>
   </g>
   <g id="patch_4">
    <path d="M 648 378 
L 648 51.84 
" style="fill:none;stroke:#000000;stroke-linecap:square;stroke-linejoin:miter;stroke-width:0.8;"/>
   </g>
   <g id="patch_5">
    <path d="M 90 378 
L 648 378 
" style="fill:none;stroke:#000000;stroke-linecap:square;stroke-linejoin:miter;stroke-width:0.8;"/>
   </g>
   <g id="patch_6">
    <path d="M 90 51.84 
L 648 51.84 
" style="fill:none;stroke:#000000;stroke-linecap:square;stroke-linejoin:miter;stroke-width:0.8;"/>
   </g>
  </g>
 </g>
 <defs>
  <clipPath id="p818f41c06a">
   <rect height="326.16" width="558" x="90" y="51.84"/>
  </clipPath>
 </defs>
</svg>
