<?xml version="1.0" encoding="utf-8" standalone="no"?>
<!DOCTYPE svg PUBLIC "-//W3C//DTD SVG 1.1//EN"
  "http://www.w3.org/Graphics/SVG/1.1/DTD/svg11.dtd">
<!-- Created with matplotlib (http://matplotlib.org/) -->
<svg height="360pt" version="1.1" viewBox="0 0 720 360" width="720pt" xmlns="http://www.w3.org/2000/svg" xmlns:xlink="http://www.w3.org/1999/xlink">
 <defs>
  <style type="text/css">
*{stroke-linecap:butt;stroke-linejoin:round;}
  </style>
 </defs>
 <g id="figure_1">
  <g id="patch_1">
   <path d="M 0 360 
L 720 360 
L 720 0 
L 0 0 
z
" style="fill:none;"/>
  </g>
  <g id="axes_1">
   <g id="patch_2">
    <path d="M 90 315 
L 343.636364 315 
L 343.636364 43.2 
L 90 43.2 
z
" style="fill:none;"/>
   </g>
   <g id="patch_3">
    <path clip-path="url(#pe82e09b227)" d="M 101.528926 -199.190615 
L 103.316356 -140.163771 
L 105.103786 -91.339536 
L 106.891217 -50.88868 
L 108.678647 -17.333106 
L 110.466077 10.507974 
L 112.253508 33.56348 
L 114.040938 52.555163 
L 115.828368 68.057471 
L 117.615799 80.591857 
L 119.403229 90.738476 
L 121.190659 99.169594 
L 122.97809 106.538507 
L 124.76552 113.336336 
L 126.55295 119.850745 
L 128.340381 126.212472 
L 130.127811 132.459384 
L 131.915241 138.58384 
L 133.702672 144.560496 
L 135.490102 150.360693 
L 137.277532 155.959103 
L 139.064963 161.336261 
L 140.852393 166.479049 
L 142.639823 171.380222 
L 144.427254 176.037554 
L 146.214684 180.452898 
L 148.002114 184.631288 
L 149.789544 188.580153 
L 151.576975 192.308646 
L 153.364405 195.827095 
L 155.151835 199.146566 
L 156.939266 202.278512 
L 158.726696 205.2345 
L 160.514126 208.026003 
L 162.301557 210.664243 
L 164.088987 213.160078 
L 165.876417 215.523916 
L 167.663848 217.765661 
L 169.451278 219.894679 
L 171.238708 221.919775 
L 173.026139 223.849195 
L 174.813569 225.690621 
L 176.600999 227.451188 
L 178.38843 229.137497 
L 180.17586 230.755634 
L 181.96329 232.311196 
L 183.750721 233.809309 
L 185.538151 235.254657 
L 187.325581 236.651503 
L 189.113012 238.003715 
L 190.900442 239.314786 
L 192.687872 240.58786 
L 194.475303 241.825752 
L 196.262733 243.030968 
L 198.050163 244.205723 
L 199.837594 245.351962 
L 201.625024 246.471373 
L 203.412454 247.565407 
L 205.199885 248.635292 
L 206.987315 249.682045 
L 208.774745 250.70649 
L 210.562176 251.709267 
L 212.349606 252.690847 
L 214.137036 253.651545 
L 215.924467 254.591529 
L 217.711897 255.510839 
L 219.499327 256.40939 
L 221.286758 257.286991 
L 223.074188 258.143359 
L 224.861618 258.978124 
L 226.649049 259.79085 
L 228.436479 260.581047 
L 230.223909 261.348179 
L 232.01134 262.091684 
L 233.79877 262.810985 
L 235.5862 263.505502 
L 237.373631 264.174663 
L 239.161061 264.817918 
L 240.948491 265.434745 
L 242.735922 266.024659 
L 244.523352 266.587217 
L 246.310782 267.122021 
L 248.098213 267.628717 
L 249.885643 268.106994 
L 251.673073 268.556576 
L 253.460504 268.977217 
L 255.247934 269.368688 
L 257.035364 269.730766 
L 258.822795 270.063219 
L 260.610225 270.36579 
L 262.397655 270.638185 
L 264.185086 270.880053 
L 265.972516 271.090982 
L 267.759946 271.270483 
L 269.547377 271.417991 
L 271.334807 271.53287 
L 273.122237 271.614429 
L 274.909667 271.661952 
L 276.697098 271.67475 
L 278.484528 271.652236 
L 280.271958 271.594034 
L 282.059389 271.500123 
L 283.846819 271.37104 
L 285.634249 271.208134 
L 287.42168 271.013893 
L 289.20911 270.792354 
L 290.99654 270.549593 
L 292.783971 270.294299 
L 294.571401 270.0384 
L 296.358831 269.79769 
L 298.146262 269.592306 
L 299.933692 269.446803 
L 301.721122 269.389267 
L 303.508553 269.448439 
L 305.295983 269.646823 
L 307.083413 269.985938 
L 308.870844 270.416835 
L 310.658274 270.785345 
L 312.445704 270.743979 
L 314.233135 269.653143 
L 316.020565 266.571848 
L 317.807995 260.445793 
L 319.595426 250.347568 
L 321.382856 235.483105 
L 323.170286 215.00769 
L 324.957717 187.860777 
L 326.745147 152.673145 
L 328.532577 107.707116 
L 330.320008 50.797763 
L 332.107438 -20.717927 
L 332.107438 650.246863 
L 330.320008 572.064945 
L 328.532577 509.791796 
L 326.745147 460.500721 
L 324.957717 421.813748 
L 323.170286 391.821548 
L 321.382856 369.016973 
L 319.595426 352.228948 
L 317.807995 340.524411 
L 316.020565 333.038853 
L 314.233135 328.788828 
L 312.445704 326.675554 
L 310.658274 325.722805 
L 308.870844 325.263112 
L 307.083413 324.926966 
L 305.295983 324.542826 
L 303.508553 324.048036 
L 301.721122 323.43331 
L 299.933692 322.712624 
L 298.146262 321.907992 
L 296.358831 321.042183 
L 294.571401 320.135542 
L 292.783971 319.204874 
L 290.99654 318.263326 
L 289.20911 317.320723 
L 287.42168 316.384084 
L 285.634249 315.458156 
L 283.846819 314.54592 
L 282.059389 313.649031 
L 280.271958 312.76818 
L 278.484528 311.903389 
L 276.697098 311.05424 
L 274.909667 310.220055 
L 273.122237 309.400018 
L 271.334807 308.593276 
L 269.547377 307.798994 
L 267.759946 307.016401 
L 265.972516 306.244808 
L 264.185086 305.483616 
L 262.397655 304.732314 
L 260.610225 303.990467 
L 258.822795 303.257706 
L 257.035364 302.533705 
L 255.247934 301.818162 
L 253.460504 301.110781 
L 251.673073 300.411248 
L 249.885643 299.719216 
L 248.098213 299.034282 
L 246.310782 298.355979 
L 244.523352 297.683755 
L 242.735922 297.01697 
L 240.948491 296.354885 
L 239.161061 295.696657 
L 237.373631 295.041339 
L 235.5862 294.38788 
L 233.79877 293.735125 
L 232.01134 293.081821 
L 230.223909 292.426623 
L 228.436479 291.768097 
L 226.649049 291.10473 
L 224.861618 290.434934 
L 223.074188 289.757056 
L 221.286758 289.069379 
L 219.499327 288.370132 
L 217.711897 287.657495 
L 215.924467 286.9296 
L 214.137036 286.184534 
L 212.349606 285.420347 
L 210.562176 284.635046 
L 208.774745 283.826601 
L 206.987315 282.992941 
L 205.199885 282.131954 
L 203.412454 281.241488 
L 201.625024 280.319345 
L 199.837594 279.363278 
L 198.050163 278.370991 
L 196.262733 277.340132 
L 194.475303 276.268288 
L 192.687872 275.152982 
L 190.900442 273.99167 
L 189.113012 272.781728 
L 187.325581 271.520453 
L 185.538151 270.205052 
L 183.750721 268.83264 
L 181.96329 267.400224 
L 180.17586 265.904702 
L 178.38843 264.342853 
L 176.600999 262.711322 
L 174.813569 261.006613 
L 173.026139 259.225076 
L 171.238708 257.362891 
L 169.451278 255.416054 
L 167.663848 253.380355 
L 165.876417 251.251361 
L 164.088987 249.024391 
L 162.301557 246.694484 
L 160.514126 244.256377 
L 158.726696 241.704461 
L 156.939266 239.032745 
L 155.151835 236.234813 
L 153.364405 233.303772 
L 151.576975 230.2322 
L 149.789544 227.012084 
L 148.002114 223.634759 
L 146.214684 220.090841 
L 144.427254 216.370175 
L 142.639823 212.461791 
L 140.852393 208.35392 
L 139.064963 204.034108 
L 137.277532 199.489544 
L 135.490102 194.707778 
L 133.702672 189.678206 
L 131.915241 184.394951 
L 130.127811 178.862348 
L 128.340381 173.105184 
L 126.55295 167.187463 
L 124.76552 161.245512 
L 122.97809 155.541742 
L 121.190659 150.53641 
L 119.403229 146.943384 
L 117.615799 145.699932 
L 115.828368 147.836686 
L 114.040938 154.382273 
L 112.253508 166.415327 
L 110.466077 185.198237 
L 108.678647 212.297471 
L 106.891217 249.674107 
L 105.103786 299.764563 
L 103.316356 365.568298 
L 101.528926 450.75109 
z
" style="fill:#cc3300;opacity:0.3;stroke:#cc3300;stroke-linejoin:miter;stroke-width:0.5;"/>
   </g>
   <g id="matplotlib.axis_1">
    <g id="xtick_1">
     <g id="line2d_1">
      <defs>
       <path d="M 0 0 
L 0 3.5 
" id="m25ca5cdff2" style="stroke:#000000;stroke-width:0.8;"/>
      </defs>
      <g>
       <use style="stroke:#000000;stroke-width:0.8;" x="115.940083" xlink:href="#m25ca5cdff2" y="315"/>
      </g>
     </g>
     <g id="text_1">
      <!-- 1900 -->
      <defs>
       <path d="M 12.40625 8.296875 
L 28.515625 8.296875 
L 28.515625 63.921875 
L 10.984375 60.40625 
L 10.984375 69.390625 
L 28.421875 72.90625 
L 38.28125 72.90625 
L 38.28125 8.296875 
L 54.390625 8.296875 
L 54.390625 0 
L 12.40625 0 
z
" id="DejaVuSans-31"/>
       <path d="M 10.984375 1.515625 
L 10.984375 10.5 
Q 14.703125 8.734375 18.5 7.8125 
Q 22.3125 6.890625 25.984375 6.890625 
Q 35.75 6.890625 40.890625 13.453125 
Q 46.046875 20.015625 46.78125 33.40625 
Q 43.953125 29.203125 39.59375 26.953125 
Q 35.25 24.703125 29.984375 24.703125 
Q 19.046875 24.703125 12.671875 31.3125 
Q 6.296875 37.9375 6.296875 49.421875 
Q 6.296875 60.640625 12.9375 67.421875 
Q 19.578125 74.21875 30.609375 74.21875 
Q 43.265625 74.21875 49.921875 64.515625 
Q 56.59375 54.828125 56.59375 36.375 
Q 56.59375 19.140625 48.40625 8.859375 
Q 40.234375 -1.421875 26.421875 -1.421875 
Q 22.703125 -1.421875 18.890625 -0.6875 
Q 15.09375 0.046875 10.984375 1.515625 
z
M 30.609375 32.421875 
Q 37.25 32.421875 41.125 36.953125 
Q 45.015625 41.5 45.015625 49.421875 
Q 45.015625 57.28125 41.125 61.84375 
Q 37.25 66.40625 30.609375 66.40625 
Q 23.96875 66.40625 20.09375 61.84375 
Q 16.21875 57.28125 16.21875 49.421875 
Q 16.21875 41.5 20.09375 36.953125 
Q 23.96875 32.421875 30.609375 32.421875 
z
" id="DejaVuSans-39"/>
       <path d="M 31.78125 66.40625 
Q 24.171875 66.40625 20.328125 58.90625 
Q 16.5 51.421875 16.5 36.375 
Q 16.5 21.390625 20.328125 13.890625 
Q 24.171875 6.390625 31.78125 6.390625 
Q 39.453125 6.390625 43.28125 13.890625 
Q 47.125 21.390625 47.125 36.375 
Q 47.125 51.421875 43.28125 58.90625 
Q 39.453125 66.40625 31.78125 66.40625 
z
M 31.78125 74.21875 
Q 44.046875 74.21875 50.515625 64.515625 
Q 56.984375 54.828125 56.984375 36.375 
Q 56.984375 17.96875 50.515625 8.265625 
Q 44.046875 -1.421875 31.78125 -1.421875 
Q 19.53125 -1.421875 13.0625 8.265625 
Q 6.59375 17.96875 6.59375 36.375 
Q 6.59375 54.828125 13.0625 64.515625 
Q 19.53125 74.21875 31.78125 74.21875 
z
" id="DejaVuSans-30"/>
      </defs>
      <g transform="translate(103.215083 329.598437)scale(0.1 -0.1)">
       <use xlink:href="#DejaVuSans-31"/>
       <use x="63.623047" xlink:href="#DejaVuSans-39"/>
       <use x="127.246094" xlink:href="#DejaVuSans-30"/>
       <use x="190.869141" xlink:href="#DejaVuSans-30"/>
      </g>
     </g>
    </g>
    <g id="xtick_2">
     <g id="line2d_2">
      <g>
       <use style="stroke:#000000;stroke-width:0.8;" x="151.967975" xlink:href="#m25ca5cdff2" y="315"/>
      </g>
     </g>
     <g id="text_2">
      <!-- 1920 -->
      <defs>
       <path d="M 19.1875 8.296875 
L 53.609375 8.296875 
L 53.609375 0 
L 7.328125 0 
L 7.328125 8.296875 
Q 12.9375 14.109375 22.625 23.890625 
Q 32.328125 33.6875 34.8125 36.53125 
Q 39.546875 41.84375 41.421875 45.53125 
Q 43.3125 49.21875 43.3125 52.78125 
Q 43.3125 58.59375 39.234375 62.25 
Q 35.15625 65.921875 28.609375 65.921875 
Q 23.96875 65.921875 18.8125 64.3125 
Q 13.671875 62.703125 7.8125 59.421875 
L 7.8125 69.390625 
Q 13.765625 71.78125 18.9375 73 
Q 24.125 74.21875 28.421875 74.21875 
Q 39.75 74.21875 46.484375 68.546875 
Q 53.21875 62.890625 53.21875 53.421875 
Q 53.21875 48.921875 51.53125 44.890625 
Q 49.859375 40.875 45.40625 35.40625 
Q 44.1875 33.984375 37.640625 27.21875 
Q 31.109375 20.453125 19.1875 8.296875 
z
" id="DejaVuSans-32"/>
      </defs>
      <g transform="translate(139.242975 329.598437)scale(0.1 -0.1)">
       <use xlink:href="#DejaVuSans-31"/>
       <use x="63.623047" xlink:href="#DejaVuSans-39"/>
       <use x="127.246094" xlink:href="#DejaVuSans-32"/>
       <use x="190.869141" xlink:href="#DejaVuSans-30"/>
      </g>
     </g>
    </g>
    <g id="xtick_3">
     <g id="line2d_3">
      <g>
       <use style="stroke:#000000;stroke-width:0.8;" x="187.995868" xlink:href="#m25ca5cdff2" y="315"/>
      </g>
     </g>
     <g id="text_3">
      <!-- 1940 -->
      <defs>
       <path d="M 37.796875 64.3125 
L 12.890625 25.390625 
L 37.796875 25.390625 
z
M 35.203125 72.90625 
L 47.609375 72.90625 
L 47.609375 25.390625 
L 58.015625 25.390625 
L 58.015625 17.1875 
L 47.609375 17.1875 
L 47.609375 0 
L 37.796875 0 
L 37.796875 17.1875 
L 4.890625 17.1875 
L 4.890625 26.703125 
z
" id="DejaVuSans-34"/>
      </defs>
      <g transform="translate(175.270868 329.598437)scale(0.1 -0.1)">
       <use xlink:href="#DejaVuSans-31"/>
       <use x="63.623047" xlink:href="#DejaVuSans-39"/>
       <use x="127.246094" xlink:href="#DejaVuSans-34"/>
       <use x="190.869141" xlink:href="#DejaVuSans-30"/>
      </g>
     </g>
    </g>
    <g id="xtick_4">
     <g id="line2d_4">
      <g>
       <use style="stroke:#000000;stroke-width:0.8;" x="224.02376" xlink:href="#m25ca5cdff2" y="315"/>
      </g>
     </g>
     <g id="text_4">
      <!-- 1960 -->
      <defs>
       <path d="M 33.015625 40.375 
Q 26.375 40.375 22.484375 35.828125 
Q 18.609375 31.296875 18.609375 23.390625 
Q 18.609375 15.53125 22.484375 10.953125 
Q 26.375 6.390625 33.015625 6.390625 
Q 39.65625 6.390625 43.53125 10.953125 
Q 47.40625 15.53125 47.40625 23.390625 
Q 47.40625 31.296875 43.53125 35.828125 
Q 39.65625 40.375 33.015625 40.375 
z
M 52.59375 71.296875 
L 52.59375 62.3125 
Q 48.875 64.0625 45.09375 64.984375 
Q 41.3125 65.921875 37.59375 65.921875 
Q 27.828125 65.921875 22.671875 59.328125 
Q 17.53125 52.734375 16.796875 39.40625 
Q 19.671875 43.65625 24.015625 45.921875 
Q 28.375 48.1875 33.59375 48.1875 
Q 44.578125 48.1875 50.953125 41.515625 
Q 57.328125 34.859375 57.328125 23.390625 
Q 57.328125 12.15625 50.6875 5.359375 
Q 44.046875 -1.421875 33.015625 -1.421875 
Q 20.359375 -1.421875 13.671875 8.265625 
Q 6.984375 17.96875 6.984375 36.375 
Q 6.984375 53.65625 15.1875 63.9375 
Q 23.390625 74.21875 37.203125 74.21875 
Q 40.921875 74.21875 44.703125 73.484375 
Q 48.484375 72.75 52.59375 71.296875 
z
" id="DejaVuSans-36"/>
      </defs>
      <g transform="translate(211.29876 329.598437)scale(0.1 -0.1)">
       <use xlink:href="#DejaVuSans-31"/>
       <use x="63.623047" xlink:href="#DejaVuSans-39"/>
       <use x="127.246094" xlink:href="#DejaVuSans-36"/>
       <use x="190.869141" xlink:href="#DejaVuSans-30"/>
      </g>
     </g>
    </g>
    <g id="xtick_5">
     <g id="line2d_5">
      <g>
       <use style="stroke:#000000;stroke-width:0.8;" x="260.051653" xlink:href="#m25ca5cdff2" y="315"/>
      </g>
     </g>
     <g id="text_5">
      <!-- 1980 -->
      <defs>
       <path d="M 31.78125 34.625 
Q 24.75 34.625 20.71875 30.859375 
Q 16.703125 27.09375 16.703125 20.515625 
Q 16.703125 13.921875 20.71875 10.15625 
Q 24.75 6.390625 31.78125 6.390625 
Q 38.8125 6.390625 42.859375 10.171875 
Q 46.921875 13.96875 46.921875 20.515625 
Q 46.921875 27.09375 42.890625 30.859375 
Q 38.875 34.625 31.78125 34.625 
z
M 21.921875 38.8125 
Q 15.578125 40.375 12.03125 44.71875 
Q 8.5 49.078125 8.5 55.328125 
Q 8.5 64.0625 14.71875 69.140625 
Q 20.953125 74.21875 31.78125 74.21875 
Q 42.671875 74.21875 48.875 69.140625 
Q 55.078125 64.0625 55.078125 55.328125 
Q 55.078125 49.078125 51.53125 44.71875 
Q 48 40.375 41.703125 38.8125 
Q 48.828125 37.15625 52.796875 32.3125 
Q 56.78125 27.484375 56.78125 20.515625 
Q 56.78125 9.90625 50.3125 4.234375 
Q 43.84375 -1.421875 31.78125 -1.421875 
Q 19.734375 -1.421875 13.25 4.234375 
Q 6.78125 9.90625 6.78125 20.515625 
Q 6.78125 27.484375 10.78125 32.3125 
Q 14.796875 37.15625 21.921875 38.8125 
z
M 18.3125 54.390625 
Q 18.3125 48.734375 21.84375 45.5625 
Q 25.390625 42.390625 31.78125 42.390625 
Q 38.140625 42.390625 41.71875 45.5625 
Q 45.3125 48.734375 45.3125 54.390625 
Q 45.3125 60.0625 41.71875 63.234375 
Q 38.140625 66.40625 31.78125 66.40625 
Q 25.390625 66.40625 21.84375 63.234375 
Q 18.3125 60.0625 18.3125 54.390625 
z
" id="DejaVuSans-38"/>
      </defs>
      <g transform="translate(247.326653 329.598437)scale(0.1 -0.1)">
       <use xlink:href="#DejaVuSans-31"/>
       <use x="63.623047" xlink:href="#DejaVuSans-39"/>
       <use x="127.246094" xlink:href="#DejaVuSans-38"/>
       <use x="190.869141" xlink:href="#DejaVuSans-30"/>
      </g>
     </g>
    </g>
    <g id="xtick_6">
     <g id="line2d_6">
      <g>
       <use style="stroke:#000000;stroke-width:0.8;" x="296.079545" xlink:href="#m25ca5cdff2" y="315"/>
      </g>
     </g>
     <g id="text_6">
      <!-- 2000 -->
      <g transform="translate(283.354545 329.598437)scale(0.1 -0.1)">
       <use xlink:href="#DejaVuSans-32"/>
       <use x="63.623047" xlink:href="#DejaVuSans-30"/>
       <use x="127.246094" xlink:href="#DejaVuSans-30"/>
       <use x="190.869141" xlink:href="#DejaVuSans-30"/>
      </g>
     </g>
    </g>
    <g id="xtick_7">
     <g id="line2d_7">
      <g>
       <use style="stroke:#000000;stroke-width:0.8;" x="332.107438" xlink:href="#m25ca5cdff2" y="315"/>
      </g>
     </g>
     <g id="text_7">
      <!-- 2020 -->
      <g transform="translate(319.382438 329.598437)scale(0.1 -0.1)">
       <use xlink:href="#DejaVuSans-32"/>
       <use x="63.623047" xlink:href="#DejaVuSans-30"/>
       <use x="127.246094" xlink:href="#DejaVuSans-32"/>
       <use x="190.869141" xlink:href="#DejaVuSans-30"/>
      </g>
     </g>
    </g>
   </g>
   <g id="matplotlib.axis_2">
    <g id="ytick_1">
     <g id="line2d_8">
      <defs>
       <path d="M 0 0 
L -3.5 0 
" id="m935bdb47c9" style="stroke:#000000;stroke-width:0.8;"/>
      </defs>
      <g>
       <use style="stroke:#000000;stroke-width:0.8;" x="90" xlink:href="#m935bdb47c9" y="302.509371"/>
      </g>
     </g>
     <g id="text_8">
      <!-- 3.0 -->
      <defs>
       <path d="M 40.578125 39.3125 
Q 47.65625 37.796875 51.625 33 
Q 55.609375 28.21875 55.609375 21.1875 
Q 55.609375 10.40625 48.1875 4.484375 
Q 40.765625 -1.421875 27.09375 -1.421875 
Q 22.515625 -1.421875 17.65625 -0.515625 
Q 12.796875 0.390625 7.625 2.203125 
L 7.625 11.71875 
Q 11.71875 9.328125 16.59375 8.109375 
Q 21.484375 6.890625 26.8125 6.890625 
Q 36.078125 6.890625 40.9375 10.546875 
Q 45.796875 14.203125 45.796875 21.1875 
Q 45.796875 27.640625 41.28125 31.265625 
Q 36.765625 34.90625 28.71875 34.90625 
L 20.21875 34.90625 
L 20.21875 43.015625 
L 29.109375 43.015625 
Q 36.375 43.015625 40.234375 45.921875 
Q 44.09375 48.828125 44.09375 54.296875 
Q 44.09375 59.90625 40.109375 62.90625 
Q 36.140625 65.921875 28.71875 65.921875 
Q 24.65625 65.921875 20.015625 65.03125 
Q 15.375 64.15625 9.8125 62.3125 
L 9.8125 71.09375 
Q 15.4375 72.65625 20.34375 73.4375 
Q 25.25 74.21875 29.59375 74.21875 
Q 40.828125 74.21875 47.359375 69.109375 
Q 53.90625 64.015625 53.90625 55.328125 
Q 53.90625 49.265625 50.4375 45.09375 
Q 46.96875 40.921875 40.578125 39.3125 
z
" id="DejaVuSans-33"/>
       <path d="M 10.6875 12.40625 
L 21 12.40625 
L 21 0 
L 10.6875 0 
z
" id="DejaVuSans-2e"/>
      </defs>
      <g transform="translate(67.096875 306.308589)scale(0.1 -0.1)">
       <use xlink:href="#DejaVuSans-33"/>
       <use x="63.623047" xlink:href="#DejaVuSans-2e"/>
       <use x="95.410156" xlink:href="#DejaVuSans-30"/>
      </g>
     </g>
    </g>
    <g id="ytick_2">
     <g id="line2d_9">
      <g>
       <use style="stroke:#000000;stroke-width:0.8;" x="90" xlink:href="#m935bdb47c9" y="246.941062"/>
      </g>
     </g>
     <g id="text_9">
      <!-- 3.5 -->
      <defs>
       <path d="M 10.796875 72.90625 
L 49.515625 72.90625 
L 49.515625 64.59375 
L 19.828125 64.59375 
L 19.828125 46.734375 
Q 21.96875 47.46875 24.109375 47.828125 
Q 26.265625 48.1875 28.421875 48.1875 
Q 40.625 48.1875 47.75 41.5 
Q 54.890625 34.8125 54.890625 23.390625 
Q 54.890625 11.625 47.5625 5.09375 
Q 40.234375 -1.421875 26.90625 -1.421875 
Q 22.3125 -1.421875 17.546875 -0.640625 
Q 12.796875 0.140625 7.71875 1.703125 
L 7.71875 11.625 
Q 12.109375 9.234375 16.796875 8.0625 
Q 21.484375 6.890625 26.703125 6.890625 
Q 35.15625 6.890625 40.078125 11.328125 
Q 45.015625 15.765625 45.015625 23.390625 
Q 45.015625 31 40.078125 35.4375 
Q 35.15625 39.890625 26.703125 39.890625 
Q 22.75 39.890625 18.8125 39.015625 
Q 14.890625 38.140625 10.796875 36.28125 
z
" id="DejaVuSans-35"/>
      </defs>
      <g transform="translate(67.096875 250.740281)scale(0.1 -0.1)">
       <use xlink:href="#DejaVuSans-33"/>
       <use x="63.623047" xlink:href="#DejaVuSans-2e"/>
       <use x="95.410156" xlink:href="#DejaVuSans-35"/>
      </g>
     </g>
    </g>
    <g id="ytick_3">
     <g id="line2d_10">
      <g>
       <use style="stroke:#000000;stroke-width:0.8;" x="90" xlink:href="#m935bdb47c9" y="191.372753"/>
      </g>
     </g>
     <g id="text_10">
      <!-- 4.0 -->
      <g transform="translate(67.096875 195.171972)scale(0.1 -0.1)">
       <use xlink:href="#DejaVuSans-34"/>
       <use x="63.623047" xlink:href="#DejaVuSans-2e"/>
       <use x="95.410156" xlink:href="#DejaVuSans-30"/>
      </g>
     </g>
    </g>
    <g id="ytick_4">
     <g id="line2d_11">
      <g>
       <use style="stroke:#000000;stroke-width:0.8;" x="90" xlink:href="#m935bdb47c9" y="135.804445"/>
      </g>
     </g>
     <g id="text_11">
      <!-- 4.5 -->
      <g transform="translate(67.096875 139.603663)scale(0.1 -0.1)">
       <use xlink:href="#DejaVuSans-34"/>
       <use x="63.623047" xlink:href="#DejaVuSans-2e"/>
       <use x="95.410156" xlink:href="#DejaVuSans-35"/>
      </g>
     </g>
    </g>
    <g id="ytick_5">
     <g id="line2d_12">
      <g>
       <use style="stroke:#000000;stroke-width:0.8;" x="90" xlink:href="#m935bdb47c9" y="80.236136"/>
      </g>
     </g>
     <g id="text_12">
      <!-- 5.0 -->
      <g transform="translate(67.096875 84.035355)scale(0.1 -0.1)">
       <use xlink:href="#DejaVuSans-35"/>
       <use x="63.623047" xlink:href="#DejaVuSans-2e"/>
       <use x="95.410156" xlink:href="#DejaVuSans-30"/>
      </g>
     </g>
    </g>
   </g>
   <g id="line2d_13">
    <defs>
     <path d="M 0 3 
C 0.795609 3 1.55874 2.683901 2.12132 2.12132 
C 2.683901 1.55874 3 0.795609 3 0 
C 3 -0.795609 2.683901 -1.55874 2.12132 -2.12132 
C 1.55874 -2.683901 0.795609 -3 0 -3 
C -0.795609 -3 -1.55874 -2.683901 -2.12132 -2.12132 
C -2.683901 -1.55874 -3 -0.795609 -3 0 
C -3 0.795609 -2.683901 1.55874 -2.12132 2.12132 
C -1.55874 2.683901 -0.795609 3 0 3 
z
" id="m12cea5722a" style="stroke:#ff0000;"/>
    </defs>
    <g clip-path="url(#pe82e09b227)">
     <use style="fill:#ff0000;stroke:#ff0000;" x="159.173554" xlink:href="#m12cea5722a" y="210.872254"/>
     <use style="fill:#ff0000;stroke:#ff0000;" x="130.35124" xlink:href="#m12cea5722a" y="174.182289"/>
     <use style="fill:#ff0000;stroke:#ff0000;" x="238.434917" xlink:href="#m12cea5722a" y="266.034506"/>
     <use style="fill:#ff0000;stroke:#ff0000;" x="151.967975" xlink:href="#m12cea5722a" y="239.215659"/>
     <use style="fill:#ff0000;stroke:#ff0000;" x="252.846074" xlink:href="#m12cea5722a" y="293.734156"/>
     <use style="fill:#ff0000;stroke:#ff0000;" x="274.46281" xlink:href="#m12cea5722a" y="292.10993"/>
     <use style="fill:#ff0000;stroke:#ff0000;" x="317.696281" xlink:href="#m12cea5722a" y="298.738531"/>
     <use style="fill:#ff0000;stroke:#ff0000;" x="245.640496" xlink:href="#m12cea5722a" y="287.412842"/>
     <use style="fill:#ff0000;stroke:#ff0000;" x="260.051653" xlink:href="#m12cea5722a" y="290.749091"/>
     <use style="fill:#ff0000;stroke:#ff0000;" x="173.584711" xlink:href="#m12cea5722a" y="236.622832"/>
     <use style="fill:#ff0000;stroke:#ff0000;" x="115.940083" xlink:href="#m12cea5722a" y="139.724315"/>
     <use style="fill:#ff0000;stroke:#ff0000;" x="137.556818" xlink:href="#m12cea5722a" y="202.117803"/>
     <use style="fill:#ff0000;stroke:#ff0000;" x="224.02376" xlink:href="#m12cea5722a" y="279.634112"/>
     <use style="fill:#ff0000;stroke:#ff0000;" x="281.668388" xlink:href="#m12cea5722a" y="284.603368"/>
     <use style="fill:#ff0000;stroke:#ff0000;" x="310.490702" xlink:href="#m12cea5722a" y="302.645455"/>
     <use style="fill:#ff0000;stroke:#ff0000;" x="123.145661" xlink:href="#m12cea5722a" y="55.554545"/>
     <use style="fill:#ff0000;stroke:#ff0000;" x="209.612603" xlink:href="#m12cea5722a" y="259.133737"/>
     <use style="fill:#ff0000;stroke:#ff0000;" x="296.079545" xlink:href="#m12cea5722a" y="293.031788"/>
     <use style="fill:#ff0000;stroke:#ff0000;" x="180.790289" xlink:href="#m12cea5722a" y="242.628082"/>
     <use style="fill:#ff0000;stroke:#ff0000;" x="216.818182" xlink:href="#m12cea5722a" y="254.006448"/>
     <use style="fill:#ff0000;stroke:#ff0000;" x="166.379132" xlink:href="#m12cea5722a" y="233.067093"/>
     <use style="fill:#ff0000;stroke:#ff0000;" x="231.229339" xlink:href="#m12cea5722a" y="287.755246"/>
    </g>
   </g>
   <g id="line2d_14">
    <defs>
     <path d="M 0 3 
C 0.795609 3 1.55874 2.683901 2.12132 2.12132 
C 2.683901 1.55874 3 0.795609 3 0 
C 3 -0.795609 2.683901 -1.55874 2.12132 -2.12132 
C 1.55874 -2.683901 0.795609 -3 0 -3 
C -0.795609 -3 -1.55874 -2.683901 -2.12132 -2.12132 
C -2.683901 -1.55874 -3 -0.795609 -3 0 
C -3 0.795609 -2.683901 1.55874 -2.12132 2.12132 
C -1.55874 2.683901 -0.795609 3 0 3 
z
" id="mf6de2d2254" style="stroke:#00ff00;"/>
    </defs>
    <g clip-path="url(#pe82e09b227)">
     <use style="fill:#00ff00;stroke:#00ff00;" x="303.285124" xlink:href="#mf6de2d2254" y="291.100275"/>
     <use style="fill:#00ff00;stroke:#00ff00;" x="267.257231" xlink:href="#mf6de2d2254" y="295.226689"/>
     <use style="fill:#00ff00;stroke:#00ff00;" x="202.407025" xlink:href="#mf6de2d2254" y="228.03638"/>
     <use style="fill:#00ff00;stroke:#00ff00;" x="288.873967" xlink:href="#mf6de2d2254" y="286.666575"/>
     <use style="fill:#00ff00;stroke:#00ff00;" x="108.734504" xlink:href="#mf6de2d2254" y="139.045929"/>
    </g>
   </g>
   <g id="line2d_15">
    <path clip-path="url(#pe82e09b227)" d="M 101.528926 125.780238 
L 103.316356 112.702263 
L 105.103786 104.212514 
L 106.891217 99.392714 
L 108.678647 97.482183 
L 110.466077 97.853105 
L 112.253508 99.989404 
L 114.040938 103.468718 
L 115.828368 107.947079 
L 117.615799 113.145894 
L 121.190659 124.853002 
L 130.127811 155.660866 
L 133.702672 167.119351 
L 137.277532 177.724324 
L 140.852393 187.416484 
L 144.427254 196.203864 
L 148.002114 204.133023 
L 151.576975 211.270423 
L 155.151835 217.69069 
L 158.726696 223.46948 
L 162.301557 228.679364 
L 165.876417 233.387639 
L 169.451278 237.655366 
L 173.026139 241.537135 
L 176.600999 245.081255 
L 180.17586 248.330168 
L 183.750721 251.320974 
L 187.325581 254.085978 
L 192.687872 257.870421 
L 198.050163 261.288357 
L 203.412454 264.403448 
L 208.774745 267.266545 
L 214.137036 269.918039 
L 221.286758 273.178185 
L 228.436479 276.174572 
L 235.5862 278.946691 
L 244.523352 282.135486 
L 253.460504 285.043999 
L 262.397655 287.685249 
L 271.334807 290.063073 
L 280.271958 292.181107 
L 289.20911 294.056539 
L 312.445704 298.709767 
L 316.020565 299.805351 
L 317.807995 300.485102 
L 319.595426 301.288258 
L 321.382856 302.250039 
L 323.170286 303.414619 
L 324.957717 304.837263 
L 326.745147 306.586933 
L 328.532577 308.749456 
L 330.320008 311.431354 
L 332.107438 314.764468 
L 332.107438 314.764468 
" style="fill:none;stroke:#3300ff;stroke-linecap:square;stroke-width:2;"/>
   </g>
   <g id="line2d_16">
    <path clip-path="url(#pe82e09b227)" d="M 109.727252 -1 
L 110.466077 10.507974 
L 112.253508 33.56348 
L 114.040938 52.555163 
L 115.828368 68.057471 
L 117.615799 80.591857 
L 119.403229 90.738476 
L 121.190659 99.169594 
L 122.97809 106.538507 
L 126.55295 119.850745 
L 131.915241 138.58384 
L 135.490102 150.360693 
L 139.064963 161.336261 
L 142.639823 171.380222 
L 146.214684 180.452898 
L 149.789544 188.580153 
L 153.364405 195.827095 
L 156.939266 202.278512 
L 160.514126 208.026003 
L 164.088987 213.160078 
L 167.663848 217.765661 
L 171.238708 221.919775 
L 174.813569 225.690621 
L 178.38843 229.137497 
L 181.96329 232.311196 
L 185.538151 235.254657 
L 190.900442 239.314786 
L 196.262733 243.030968 
L 201.625024 246.471373 
L 206.987315 249.682045 
L 212.349606 252.690847 
L 219.499327 256.40939 
L 224.861618 258.978124 
L 230.223909 261.348179 
L 235.5862 263.505502 
L 240.948491 265.434745 
L 246.310782 267.122021 
L 251.673073 268.556576 
L 257.035364 269.730766 
L 262.397655 270.638185 
L 267.759946 271.270483 
L 273.122237 271.614429 
L 278.484528 271.652236 
L 283.846819 271.37104 
L 289.20911 270.792354 
L 299.933692 269.446803 
L 301.721122 269.389267 
L 303.508553 269.448439 
L 305.295983 269.646823 
L 308.870844 270.416835 
L 310.658274 270.785345 
L 312.445704 270.743979 
L 314.233135 269.653143 
L 316.020565 266.571848 
L 317.807995 260.445793 
L 319.595426 250.347568 
L 321.382856 235.483105 
L 323.170286 215.00769 
L 324.957717 187.860777 
L 326.745147 152.673145 
L 328.532577 107.707116 
L 330.320008 50.797763 
L 331.614617 -1 
L 331.614617 -1 
" style="fill:none;stroke:#3300ff;stroke-linecap:square;stroke-width:0.2;"/>
   </g>
   <g id="line2d_17">
    <path clip-path="url(#pe82e09b227)" d="M 103.440445 361 
L 105.103786 299.764563 
L 106.891217 249.674107 
L 108.678647 212.297471 
L 110.466077 185.198237 
L 112.253508 166.415327 
L 114.040938 154.382273 
L 115.828368 147.836686 
L 117.615799 145.699932 
L 119.403229 146.943384 
L 121.190659 150.53641 
L 122.97809 155.541742 
L 126.55295 167.187463 
L 130.127811 178.862348 
L 133.702672 189.678206 
L 137.277532 199.489544 
L 140.852393 208.35392 
L 144.427254 216.370175 
L 148.002114 223.634759 
L 151.576975 230.2322 
L 155.151835 236.234813 
L 158.726696 241.704461 
L 162.301557 246.694484 
L 165.876417 251.251361 
L 169.451278 255.416054 
L 173.026139 259.225076 
L 176.600999 262.711322 
L 180.17586 265.904702 
L 183.750721 268.83264 
L 187.325581 271.520453 
L 190.900442 273.99167 
L 194.475303 276.268288 
L 199.837594 279.363278 
L 205.199885 282.131954 
L 210.562176 284.635046 
L 217.711897 287.657495 
L 226.649049 291.10473 
L 255.247934 301.818162 
L 264.185086 305.483616 
L 273.122237 309.400018 
L 280.271958 312.76818 
L 287.42168 316.384084 
L 298.146262 321.907992 
L 301.721122 323.43331 
L 303.508553 324.048036 
L 307.083413 324.926966 
L 308.870844 325.263112 
L 310.658274 325.722805 
L 312.445704 326.675554 
L 314.233135 328.788828 
L 316.020565 333.038853 
L 317.807995 340.524411 
L 319.595426 352.228948 
L 320.529284 361 
L 320.529284 361 
" style="fill:none;stroke:#3300ff;stroke-linecap:square;stroke-width:0.2;"/>
   </g>
   <g id="patch_4">
    <path d="M 90 315 
L 90 43.2 
" style="fill:none;stroke:#000000;stroke-linecap:square;stroke-linejoin:miter;stroke-width:0.8;"/>
   </g>
   <g id="patch_5">
    <path d="M 343.636364 315 
L 343.636364 43.2 
" style="fill:none;stroke:#000000;stroke-linecap:square;stroke-linejoin:miter;stroke-width:0.8;"/>
   </g>
   <g id="patch_6">
    <path d="M 90 315 
L 343.636364 315 
" style="fill:none;stroke:#000000;stroke-linecap:square;stroke-linejoin:miter;stroke-width:0.8;"/>
   </g>
   <g id="patch_7">
    <path d="M 90 43.2 
L 343.636364 43.2 
" style="fill:none;stroke:#000000;stroke-linecap:square;stroke-linejoin:miter;stroke-width:0.8;"/>
   </g>
  </g>
  <g id="axes_2">
   <g id="patch_8">
    <path d="M 394.363636 315 
L 648 315 
L 648 43.2 
L 394.363636 43.2 
z
" style="fill:none;"/>
   </g>
   <g id="matplotlib.axis_3">
    <g id="xtick_8">
     <g id="line2d_18">
      <g>
       <use style="stroke:#000000;stroke-width:0.8;" x="394.363636" xlink:href="#m25ca5cdff2" y="315"/>
      </g>
     </g>
     <g id="text_13">
      <!-- 0 -->
      <g transform="translate(391.182386 329.598437)scale(0.1 -0.1)">
       <use xlink:href="#DejaVuSans-30"/>
      </g>
     </g>
    </g>
    <g id="xtick_9">
     <g id="line2d_19">
      <g>
       <use style="stroke:#000000;stroke-width:0.8;" x="441.333333" xlink:href="#m25ca5cdff2" y="315"/>
      </g>
     </g>
     <g id="text_14">
      <!-- 5 -->
      <g transform="translate(438.152083 329.598437)scale(0.1 -0.1)">
       <use xlink:href="#DejaVuSans-35"/>
      </g>
     </g>
    </g>
    <g id="xtick_10">
     <g id="line2d_20">
      <g>
       <use style="stroke:#000000;stroke-width:0.8;" x="488.30303" xlink:href="#m25ca5cdff2" y="315"/>
      </g>
     </g>
     <g id="text_15">
      <!-- 10 -->
      <g transform="translate(481.94053 329.598437)scale(0.1 -0.1)">
       <use xlink:href="#DejaVuSans-31"/>
       <use x="63.623047" xlink:href="#DejaVuSans-30"/>
      </g>
     </g>
    </g>
    <g id="xtick_11">
     <g id="line2d_21">
      <g>
       <use style="stroke:#000000;stroke-width:0.8;" x="535.272727" xlink:href="#m25ca5cdff2" y="315"/>
      </g>
     </g>
     <g id="text_16">
      <!-- 15 -->
      <g transform="translate(528.910227 329.598437)scale(0.1 -0.1)">
       <use xlink:href="#DejaVuSans-31"/>
       <use x="63.623047" xlink:href="#DejaVuSans-35"/>
      </g>
     </g>
    </g>
    <g id="xtick_12">
     <g id="line2d_22">
      <g>
       <use style="stroke:#000000;stroke-width:0.8;" x="582.242424" xlink:href="#m25ca5cdff2" y="315"/>
      </g>
     </g>
     <g id="text_17">
      <!-- 20 -->
      <g transform="translate(575.879924 329.598437)scale(0.1 -0.1)">
       <use xlink:href="#DejaVuSans-32"/>
       <use x="63.623047" xlink:href="#DejaVuSans-30"/>
      </g>
     </g>
    </g>
    <g id="xtick_13">
     <g id="line2d_23">
      <g>
       <use style="stroke:#000000;stroke-width:0.8;" x="629.212121" xlink:href="#m25ca5cdff2" y="315"/>
      </g>
     </g>
     <g id="text_18">
      <!-- 25 -->
      <g transform="translate(622.849621 329.598437)scale(0.1 -0.1)">
       <use xlink:href="#DejaVuSans-32"/>
       <use x="63.623047" xlink:href="#DejaVuSans-35"/>
      </g>
     </g>
    </g>
    <g id="text_19">
     <!-- number -->
     <defs>
      <path d="M 54.890625 33.015625 
L 54.890625 0 
L 45.90625 0 
L 45.90625 32.71875 
Q 45.90625 40.484375 42.875 44.328125 
Q 39.84375 48.1875 33.796875 48.1875 
Q 26.515625 48.1875 22.3125 43.546875 
Q 18.109375 38.921875 18.109375 30.90625 
L 18.109375 0 
L 9.078125 0 
L 9.078125 54.6875 
L 18.109375 54.6875 
L 18.109375 46.1875 
Q 21.34375 51.125 25.703125 53.5625 
Q 30.078125 56 35.796875 56 
Q 45.21875 56 50.046875 50.171875 
Q 54.890625 44.34375 54.890625 33.015625 
z
" id="DejaVuSans-6e"/>
      <path d="M 8.5 21.578125 
L 8.5 54.6875 
L 17.484375 54.6875 
L 17.484375 21.921875 
Q 17.484375 14.15625 20.5 10.265625 
Q 23.53125 6.390625 29.59375 6.390625 
Q 36.859375 6.390625 41.078125 11.03125 
Q 45.3125 15.671875 45.3125 23.6875 
L 45.3125 54.6875 
L 54.296875 54.6875 
L 54.296875 0 
L 45.3125 0 
L 45.3125 8.40625 
Q 42.046875 3.421875 37.71875 1 
Q 33.40625 -1.421875 27.6875 -1.421875 
Q 18.265625 -1.421875 13.375 4.4375 
Q 8.5 10.296875 8.5 21.578125 
z
M 31.109375 56 
z
" id="DejaVuSans-75"/>
      <path d="M 52 44.1875 
Q 55.375 50.25 60.0625 53.125 
Q 64.75 56 71.09375 56 
Q 79.640625 56 84.28125 50.015625 
Q 88.921875 44.046875 88.921875 33.015625 
L 88.921875 0 
L 79.890625 0 
L 79.890625 32.71875 
Q 79.890625 40.578125 77.09375 44.375 
Q 74.3125 48.1875 68.609375 48.1875 
Q 61.625 48.1875 57.5625 43.546875 
Q 53.515625 38.921875 53.515625 30.90625 
L 53.515625 0 
L 44.484375 0 
L 44.484375 32.71875 
Q 44.484375 40.625 41.703125 44.40625 
Q 38.921875 48.1875 33.109375 48.1875 
Q 26.21875 48.1875 22.15625 43.53125 
Q 18.109375 38.875 18.109375 30.90625 
L 18.109375 0 
L 9.078125 0 
L 9.078125 54.6875 
L 18.109375 54.6875 
L 18.109375 46.1875 
Q 21.1875 51.21875 25.484375 53.609375 
Q 29.78125 56 35.6875 56 
Q 41.65625 56 45.828125 52.96875 
Q 50 49.953125 52 44.1875 
z
" id="DejaVuSans-6d"/>
      <path d="M 48.6875 27.296875 
Q 48.6875 37.203125 44.609375 42.84375 
Q 40.53125 48.484375 33.40625 48.484375 
Q 26.265625 48.484375 22.1875 42.84375 
Q 18.109375 37.203125 18.109375 27.296875 
Q 18.109375 17.390625 22.1875 11.75 
Q 26.265625 6.109375 33.40625 6.109375 
Q 40.53125 6.109375 44.609375 11.75 
Q 48.6875 17.390625 48.6875 27.296875 
z
M 18.109375 46.390625 
Q 20.953125 51.265625 25.265625 53.625 
Q 29.59375 56 35.59375 56 
Q 45.5625 56 51.78125 48.09375 
Q 58.015625 40.1875 58.015625 27.296875 
Q 58.015625 14.40625 51.78125 6.484375 
Q 45.5625 -1.421875 35.59375 -1.421875 
Q 29.59375 -1.421875 25.265625 0.953125 
Q 20.953125 3.328125 18.109375 8.203125 
L 18.109375 0 
L 9.078125 0 
L 9.078125 75.984375 
L 18.109375 75.984375 
z
" id="DejaVuSans-62"/>
      <path d="M 56.203125 29.59375 
L 56.203125 25.203125 
L 14.890625 25.203125 
Q 15.484375 15.921875 20.484375 11.0625 
Q 25.484375 6.203125 34.421875 6.203125 
Q 39.59375 6.203125 44.453125 7.46875 
Q 49.3125 8.734375 54.109375 11.28125 
L 54.109375 2.78125 
Q 49.265625 0.734375 44.1875 -0.34375 
Q 39.109375 -1.421875 33.890625 -1.421875 
Q 20.796875 -1.421875 13.15625 6.1875 
Q 5.515625 13.8125 5.515625 26.8125 
Q 5.515625 40.234375 12.765625 48.109375 
Q 20.015625 56 32.328125 56 
Q 43.359375 56 49.78125 48.890625 
Q 56.203125 41.796875 56.203125 29.59375 
z
M 47.21875 32.234375 
Q 47.125 39.59375 43.09375 43.984375 
Q 39.0625 48.390625 32.421875 48.390625 
Q 24.90625 48.390625 20.390625 44.140625 
Q 15.875 39.890625 15.1875 32.171875 
z
" id="DejaVuSans-65"/>
      <path d="M 41.109375 46.296875 
Q 39.59375 47.171875 37.8125 47.578125 
Q 36.03125 48 33.890625 48 
Q 26.265625 48 22.1875 43.046875 
Q 18.109375 38.09375 18.109375 28.8125 
L 18.109375 0 
L 9.078125 0 
L 9.078125 54.6875 
L 18.109375 54.6875 
L 18.109375 46.1875 
Q 20.953125 51.171875 25.484375 53.578125 
Q 30.03125 56 36.53125 56 
Q 37.453125 56 38.578125 55.875 
Q 39.703125 55.765625 41.0625 55.515625 
z
" id="DejaVuSans-72"/>
     </defs>
     <g transform="translate(482.153693 350.875)scale(0.2 -0.2)">
      <use xlink:href="#DejaVuSans-6e"/>
      <use x="63.378906" xlink:href="#DejaVuSans-75"/>
      <use x="126.757812" xlink:href="#DejaVuSans-6d"/>
      <use x="224.169922" xlink:href="#DejaVuSans-62"/>
      <use x="287.646484" xlink:href="#DejaVuSans-65"/>
      <use x="349.169922" xlink:href="#DejaVuSans-72"/>
     </g>
    </g>
   </g>
   <g id="matplotlib.axis_4">
    <g id="ytick_6">
     <g id="line2d_24">
      <g>
       <use style="stroke:#000000;stroke-width:0.8;" x="394.363636" xlink:href="#m935bdb47c9" y="315"/>
      </g>
     </g>
     <g id="text_20">
      <!-- 0.20 -->
      <g transform="translate(365.098011 318.799219)scale(0.1 -0.1)">
       <use xlink:href="#DejaVuSans-30"/>
       <use x="63.623047" xlink:href="#DejaVuSans-2e"/>
       <use x="95.410156" xlink:href="#DejaVuSans-32"/>
       <use x="159.033203" xlink:href="#DejaVuSans-30"/>
      </g>
     </g>
    </g>
    <g id="ytick_7">
     <g id="line2d_25">
      <g>
       <use style="stroke:#000000;stroke-width:0.8;" x="394.363636" xlink:href="#m935bdb47c9" y="281.025"/>
      </g>
     </g>
     <g id="text_21">
      <!-- 0.25 -->
      <g transform="translate(365.098011 284.824219)scale(0.1 -0.1)">
       <use xlink:href="#DejaVuSans-30"/>
       <use x="63.623047" xlink:href="#DejaVuSans-2e"/>
       <use x="95.410156" xlink:href="#DejaVuSans-32"/>
       <use x="159.033203" xlink:href="#DejaVuSans-35"/>
      </g>
     </g>
    </g>
    <g id="ytick_8">
     <g id="line2d_26">
      <g>
       <use style="stroke:#000000;stroke-width:0.8;" x="394.363636" xlink:href="#m935bdb47c9" y="247.05"/>
      </g>
     </g>
     <g id="text_22">
      <!-- 0.30 -->
      <g transform="translate(365.098011 250.849219)scale(0.1 -0.1)">
       <use xlink:href="#DejaVuSans-30"/>
       <use x="63.623047" xlink:href="#DejaVuSans-2e"/>
       <use x="95.410156" xlink:href="#DejaVuSans-33"/>
       <use x="159.033203" xlink:href="#DejaVuSans-30"/>
      </g>
     </g>
    </g>
    <g id="ytick_9">
     <g id="line2d_27">
      <g>
       <use style="stroke:#000000;stroke-width:0.8;" x="394.363636" xlink:href="#m935bdb47c9" y="213.075"/>
      </g>
     </g>
     <g id="text_23">
      <!-- 0.35 -->
      <g transform="translate(365.098011 216.874219)scale(0.1 -0.1)">
       <use xlink:href="#DejaVuSans-30"/>
       <use x="63.623047" xlink:href="#DejaVuSans-2e"/>
       <use x="95.410156" xlink:href="#DejaVuSans-33"/>
       <use x="159.033203" xlink:href="#DejaVuSans-35"/>
      </g>
     </g>
    </g>
    <g id="ytick_10">
     <g id="line2d_28">
      <g>
       <use style="stroke:#000000;stroke-width:0.8;" x="394.363636" xlink:href="#m935bdb47c9" y="179.1"/>
      </g>
     </g>
     <g id="text_24">
      <!-- 0.40 -->
      <g transform="translate(365.098011 182.899219)scale(0.1 -0.1)">
       <use xlink:href="#DejaVuSans-30"/>
       <use x="63.623047" xlink:href="#DejaVuSans-2e"/>
       <use x="95.410156" xlink:href="#DejaVuSans-34"/>
       <use x="159.033203" xlink:href="#DejaVuSans-30"/>
      </g>
     </g>
    </g>
    <g id="ytick_11">
     <g id="line2d_29">
      <g>
       <use style="stroke:#000000;stroke-width:0.8;" x="394.363636" xlink:href="#m935bdb47c9" y="145.125"/>
      </g>
     </g>
     <g id="text_25">
      <!-- 0.45 -->
      <g transform="translate(365.098011 148.924219)scale(0.1 -0.1)">
       <use xlink:href="#DejaVuSans-30"/>
       <use x="63.623047" xlink:href="#DejaVuSans-2e"/>
       <use x="95.410156" xlink:href="#DejaVuSans-34"/>
       <use x="159.033203" xlink:href="#DejaVuSans-35"/>
      </g>
     </g>
    </g>
    <g id="ytick_12">
     <g id="line2d_30">
      <g>
       <use style="stroke:#000000;stroke-width:0.8;" x="394.363636" xlink:href="#m935bdb47c9" y="111.15"/>
      </g>
     </g>
     <g id="text_26">
      <!-- 0.50 -->
      <g transform="translate(365.098011 114.949219)scale(0.1 -0.1)">
       <use xlink:href="#DejaVuSans-30"/>
       <use x="63.623047" xlink:href="#DejaVuSans-2e"/>
       <use x="95.410156" xlink:href="#DejaVuSans-35"/>
       <use x="159.033203" xlink:href="#DejaVuSans-30"/>
      </g>
     </g>
    </g>
    <g id="ytick_13">
     <g id="line2d_31">
      <g>
       <use style="stroke:#000000;stroke-width:0.8;" x="394.363636" xlink:href="#m935bdb47c9" y="77.175"/>
      </g>
     </g>
     <g id="text_27">
      <!-- 0.55 -->
      <g transform="translate(365.098011 80.974219)scale(0.1 -0.1)">
       <use xlink:href="#DejaVuSans-30"/>
       <use x="63.623047" xlink:href="#DejaVuSans-2e"/>
       <use x="95.410156" xlink:href="#DejaVuSans-35"/>
       <use x="159.033203" xlink:href="#DejaVuSans-35"/>
      </g>
     </g>
    </g>
    <g id="ytick_14">
     <g id="line2d_32">
      <g>
       <use style="stroke:#000000;stroke-width:0.8;" x="394.363636" xlink:href="#m935bdb47c9" y="43.2"/>
      </g>
     </g>
     <g id="text_28">
      <!-- 0.60 -->
      <g transform="translate(365.098011 46.999219)scale(0.1 -0.1)">
       <use xlink:href="#DejaVuSans-30"/>
       <use x="63.623047" xlink:href="#DejaVuSans-2e"/>
       <use x="95.410156" xlink:href="#DejaVuSans-36"/>
       <use x="159.033203" xlink:href="#DejaVuSans-30"/>
      </g>
     </g>
    </g>
   </g>
   <g id="line2d_33">
    <g clip-path="url(#p90b0893d0d)">
     <use style="fill:#ff0000;stroke:#ff0000;" x="0" xlink:href="#m12cea5722a" y="0"/>
    </g>
   </g>
   <g id="line2d_34">
    <g clip-path="url(#p90b0893d0d)">
     <use style="fill:#ff0000;stroke:#ff0000;" x="0" xlink:href="#m12cea5722a" y="0"/>
    </g>
   </g>
   <g id="line2d_35">
    <g clip-path="url(#p90b0893d0d)">
     <use style="fill:#ff0000;stroke:#ff0000;" x="0" xlink:href="#m12cea5722a" y="0"/>
    </g>
   </g>
   <g id="line2d_36">
    <g clip-path="url(#p90b0893d0d)">
     <use style="fill:#ff0000;stroke:#ff0000;" x="0" xlink:href="#m12cea5722a" y="0"/>
    </g>
   </g>
   <g id="line2d_37">
    <g clip-path="url(#p90b0893d0d)">
     <use style="fill:#ff0000;stroke:#ff0000;" x="0" xlink:href="#m12cea5722a" y="0"/>
    </g>
   </g>
   <g id="line2d_38">
    <g clip-path="url(#p90b0893d0d)">
     <use style="fill:#ff0000;stroke:#ff0000;" x="403.757576" xlink:href="#m12cea5722a" y="88.986382"/>
    </g>
   </g>
   <g id="line2d_39">
    <g clip-path="url(#p90b0893d0d)">
     <use style="fill:#ff0000;stroke:#ff0000;" x="0" xlink:href="#m12cea5722a" y="0"/>
    </g>
   </g>
   <g id="line2d_40">
    <g clip-path="url(#p90b0893d0d)">
     <use style="fill:#ff0000;stroke:#ff0000;" x="0" xlink:href="#m12cea5722a" y="0"/>
    </g>
   </g>
   <g id="line2d_41">
    <g clip-path="url(#p90b0893d0d)">
     <use style="fill:#ff0000;stroke:#ff0000;" x="0" xlink:href="#m12cea5722a" y="0"/>
    </g>
   </g>
   <g id="line2d_42">
    <g clip-path="url(#p90b0893d0d)">
     <use style="fill:#ff0000;stroke:#ff0000;" x="0" xlink:href="#m12cea5722a" y="0"/>
    </g>
   </g>
   <g id="line2d_43">
    <g clip-path="url(#p90b0893d0d)">
     <use style="fill:#ff0000;stroke:#ff0000;" x="0" xlink:href="#m12cea5722a" y="0"/>
    </g>
   </g>
   <g id="line2d_44">
    <g clip-path="url(#p90b0893d0d)">
     <use style="fill:#ff0000;stroke:#ff0000;" x="413.151515" xlink:href="#m12cea5722a" y="257.313521"/>
    </g>
   </g>
   <g id="line2d_45">
    <g clip-path="url(#p90b0893d0d)">
     <use style="fill:#ff0000;stroke:#ff0000;" x="0" xlink:href="#m12cea5722a" y="0"/>
    </g>
   </g>
   <g id="line2d_46">
    <g clip-path="url(#p90b0893d0d)">
     <use style="fill:#ff0000;stroke:#ff0000;" x="0" xlink:href="#m12cea5722a" y="0"/>
    </g>
   </g>
   <g id="line2d_47">
    <g clip-path="url(#p90b0893d0d)">
     <use style="fill:#ff0000;stroke:#ff0000;" x="0" xlink:href="#m12cea5722a" y="0"/>
    </g>
   </g>
   <g id="line2d_48">
    <g clip-path="url(#p90b0893d0d)">
     <use style="fill:#ff0000;stroke:#ff0000;" x="0" xlink:href="#m12cea5722a" y="0"/>
    </g>
   </g>
   <g id="line2d_49">
    <g clip-path="url(#p90b0893d0d)">
     <use style="fill:#ff0000;stroke:#ff0000;" x="0" xlink:href="#m12cea5722a" y="0"/>
    </g>
   </g>
   <g id="line2d_50">
    <g clip-path="url(#p90b0893d0d)">
     <use style="fill:#ff0000;stroke:#ff0000;" x="422.545455" xlink:href="#m12cea5722a" y="297.73384"/>
    </g>
   </g>
   <g id="line2d_51">
    <g clip-path="url(#p90b0893d0d)">
     <use style="fill:#ff0000;stroke:#ff0000;" x="0" xlink:href="#m12cea5722a" y="0"/>
    </g>
   </g>
   <g id="line2d_52">
    <g clip-path="url(#p90b0893d0d)">
     <use style="fill:#ff0000;stroke:#ff0000;" x="0" xlink:href="#m12cea5722a" y="0"/>
    </g>
   </g>
   <g id="line2d_53">
    <g clip-path="url(#p90b0893d0d)">
     <use style="fill:#ff0000;stroke:#ff0000;" x="0" xlink:href="#m12cea5722a" y="0"/>
    </g>
   </g>
   <g id="line2d_54">
    <g clip-path="url(#p90b0893d0d)">
     <use style="fill:#ff0000;stroke:#ff0000;" x="0" xlink:href="#m12cea5722a" y="0"/>
    </g>
   </g>
   <g id="line2d_55">
    <g clip-path="url(#p90b0893d0d)">
     <use style="fill:#ff0000;stroke:#ff0000;" x="0" xlink:href="#m12cea5722a" y="0"/>
    </g>
   </g>
   <g id="line2d_56">
    <g clip-path="url(#p90b0893d0d)">
     <use style="fill:#ff0000;stroke:#ff0000;" x="431.939394" xlink:href="#m12cea5722a" y="290.913794"/>
    </g>
   </g>
   <g id="line2d_57">
    <g clip-path="url(#p90b0893d0d)">
     <use style="fill:#ff0000;stroke:#ff0000;" x="0" xlink:href="#m12cea5722a" y="0"/>
    </g>
   </g>
   <g id="line2d_58">
    <g clip-path="url(#p90b0893d0d)">
     <use style="fill:#ff0000;stroke:#ff0000;" x="0" xlink:href="#m12cea5722a" y="0"/>
    </g>
   </g>
   <g id="line2d_59">
    <g clip-path="url(#p90b0893d0d)">
     <use style="fill:#ff0000;stroke:#ff0000;" x="0" xlink:href="#m12cea5722a" y="0"/>
    </g>
   </g>
   <g id="line2d_60">
    <g clip-path="url(#p90b0893d0d)">
     <use style="fill:#ff0000;stroke:#ff0000;" x="0" xlink:href="#m12cea5722a" y="0"/>
    </g>
   </g>
   <g id="line2d_61">
    <g clip-path="url(#p90b0893d0d)">
     <use style="fill:#ff0000;stroke:#ff0000;" x="0" xlink:href="#m12cea5722a" y="0"/>
    </g>
   </g>
   <g id="line2d_62">
    <g clip-path="url(#p90b0893d0d)">
     <use style="fill:#ff0000;stroke:#ff0000;" x="441.333333" xlink:href="#m12cea5722a" y="283.812719"/>
    </g>
   </g>
   <g id="line2d_63">
    <g clip-path="url(#p90b0893d0d)">
     <use style="fill:#ff0000;stroke:#ff0000;" x="0" xlink:href="#m12cea5722a" y="0"/>
    </g>
   </g>
   <g id="line2d_64">
    <g clip-path="url(#p90b0893d0d)">
     <use style="fill:#ff0000;stroke:#ff0000;" x="0" xlink:href="#m12cea5722a" y="0"/>
    </g>
   </g>
   <g id="line2d_65">
    <g clip-path="url(#p90b0893d0d)">
     <use style="fill:#ff0000;stroke:#ff0000;" x="0" xlink:href="#m12cea5722a" y="0"/>
    </g>
   </g>
   <g id="line2d_66">
    <g clip-path="url(#p90b0893d0d)">
     <use style="fill:#ff0000;stroke:#ff0000;" x="0" xlink:href="#m12cea5722a" y="0"/>
    </g>
   </g>
   <g id="line2d_67">
    <g clip-path="url(#p90b0893d0d)">
     <use style="fill:#ff0000;stroke:#ff0000;" x="0" xlink:href="#m12cea5722a" y="0"/>
    </g>
   </g>
   <g id="line2d_68">
    <g clip-path="url(#p90b0893d0d)">
     <use style="fill:#ff0000;stroke:#ff0000;" x="450.727273" xlink:href="#m12cea5722a" y="279.361969"/>
    </g>
   </g>
   <g id="line2d_69">
    <g clip-path="url(#p90b0893d0d)">
     <use style="fill:#ff0000;stroke:#ff0000;" x="0" xlink:href="#m12cea5722a" y="0"/>
    </g>
   </g>
   <g id="line2d_70">
    <g clip-path="url(#p90b0893d0d)">
     <use style="fill:#ff0000;stroke:#ff0000;" x="0" xlink:href="#m12cea5722a" y="0"/>
    </g>
   </g>
   <g id="line2d_71">
    <g clip-path="url(#p90b0893d0d)">
     <use style="fill:#ff0000;stroke:#ff0000;" x="0" xlink:href="#m12cea5722a" y="0"/>
    </g>
   </g>
   <g id="line2d_72">
    <g clip-path="url(#p90b0893d0d)">
     <use style="fill:#ff0000;stroke:#ff0000;" x="0" xlink:href="#m12cea5722a" y="0"/>
    </g>
   </g>
   <g id="line2d_73">
    <g clip-path="url(#p90b0893d0d)">
     <use style="fill:#ff0000;stroke:#ff0000;" x="0" xlink:href="#m12cea5722a" y="0"/>
    </g>
   </g>
   <g id="line2d_74">
    <g clip-path="url(#p90b0893d0d)">
     <use style="fill:#ff0000;stroke:#ff0000;" x="460.121212" xlink:href="#m12cea5722a" y="276.370693"/>
    </g>
   </g>
   <g id="line2d_75">
    <g clip-path="url(#p90b0893d0d)">
     <use style="fill:#ff0000;stroke:#ff0000;" x="0" xlink:href="#m12cea5722a" y="0"/>
    </g>
   </g>
   <g id="line2d_76">
    <g clip-path="url(#p90b0893d0d)">
     <use style="fill:#ff0000;stroke:#ff0000;" x="0" xlink:href="#m12cea5722a" y="0"/>
    </g>
   </g>
   <g id="line2d_77">
    <g clip-path="url(#p90b0893d0d)">
     <use style="fill:#ff0000;stroke:#ff0000;" x="0" xlink:href="#m12cea5722a" y="0"/>
    </g>
   </g>
   <g id="line2d_78">
    <g clip-path="url(#p90b0893d0d)">
     <use style="fill:#ff0000;stroke:#ff0000;" x="0" xlink:href="#m12cea5722a" y="0"/>
    </g>
   </g>
   <g id="line2d_79">
    <g clip-path="url(#p90b0893d0d)">
     <use style="fill:#ff0000;stroke:#ff0000;" x="0" xlink:href="#m12cea5722a" y="0"/>
    </g>
   </g>
   <g id="line2d_80">
    <g clip-path="url(#p90b0893d0d)">
     <use style="fill:#ff0000;stroke:#ff0000;" x="469.515152" xlink:href="#m12cea5722a" y="274.517826"/>
    </g>
   </g>
   <g id="line2d_81">
    <g clip-path="url(#p90b0893d0d)">
     <use style="fill:#ff0000;stroke:#ff0000;" x="0" xlink:href="#m12cea5722a" y="0"/>
    </g>
   </g>
   <g id="line2d_82">
    <g clip-path="url(#p90b0893d0d)">
     <use style="fill:#ff0000;stroke:#ff0000;" x="0" xlink:href="#m12cea5722a" y="0"/>
    </g>
   </g>
   <g id="line2d_83">
    <g clip-path="url(#p90b0893d0d)">
     <use style="fill:#ff0000;stroke:#ff0000;" x="0" xlink:href="#m12cea5722a" y="0"/>
    </g>
   </g>
   <g id="line2d_84">
    <g clip-path="url(#p90b0893d0d)">
     <use style="fill:#ff0000;stroke:#ff0000;" x="0" xlink:href="#m12cea5722a" y="0"/>
    </g>
   </g>
   <g id="line2d_85">
    <g clip-path="url(#p90b0893d0d)">
     <use style="fill:#ff0000;stroke:#ff0000;" x="0" xlink:href="#m12cea5722a" y="0"/>
    </g>
   </g>
   <g id="line2d_86">
    <g clip-path="url(#p90b0893d0d)">
     <use style="fill:#ff0000;stroke:#ff0000;" x="478.909091" xlink:href="#m12cea5722a" y="275.081963"/>
    </g>
   </g>
   <g id="line2d_87">
    <g clip-path="url(#p90b0893d0d)">
     <use style="fill:#ff0000;stroke:#ff0000;" x="0" xlink:href="#m12cea5722a" y="0"/>
    </g>
   </g>
   <g id="line2d_88">
    <g clip-path="url(#p90b0893d0d)">
     <use style="fill:#ff0000;stroke:#ff0000;" x="0" xlink:href="#m12cea5722a" y="0"/>
    </g>
   </g>
   <g id="line2d_89">
    <g clip-path="url(#p90b0893d0d)">
     <use style="fill:#ff0000;stroke:#ff0000;" x="0" xlink:href="#m12cea5722a" y="0"/>
    </g>
   </g>
   <g id="line2d_90">
    <g clip-path="url(#p90b0893d0d)">
     <use style="fill:#ff0000;stroke:#ff0000;" x="0" xlink:href="#m12cea5722a" y="0"/>
    </g>
   </g>
   <g id="line2d_91">
    <g clip-path="url(#p90b0893d0d)">
     <use style="fill:#ff0000;stroke:#ff0000;" x="0" xlink:href="#m12cea5722a" y="0"/>
    </g>
   </g>
   <g id="line2d_92">
    <g clip-path="url(#p90b0893d0d)">
     <use style="fill:#ff0000;stroke:#ff0000;" x="488.30303" xlink:href="#m12cea5722a" y="275.832481"/>
    </g>
   </g>
   <g id="line2d_93">
    <g clip-path="url(#p90b0893d0d)">
     <use style="fill:#ff0000;stroke:#ff0000;" x="0" xlink:href="#m12cea5722a" y="0"/>
    </g>
   </g>
   <g id="line2d_94">
    <g clip-path="url(#p90b0893d0d)">
     <use style="fill:#ff0000;stroke:#ff0000;" x="0" xlink:href="#m12cea5722a" y="0"/>
    </g>
   </g>
   <g id="line2d_95">
    <g clip-path="url(#p90b0893d0d)">
     <use style="fill:#ff0000;stroke:#ff0000;" x="0" xlink:href="#m12cea5722a" y="0"/>
    </g>
   </g>
   <g id="line2d_96">
    <g clip-path="url(#p90b0893d0d)">
     <use style="fill:#ff0000;stroke:#ff0000;" x="0" xlink:href="#m12cea5722a" y="0"/>
    </g>
   </g>
   <g id="line2d_97">
    <g clip-path="url(#p90b0893d0d)">
     <use style="fill:#ff0000;stroke:#ff0000;" x="0" xlink:href="#m12cea5722a" y="0"/>
    </g>
   </g>
   <g id="line2d_98">
    <g clip-path="url(#p90b0893d0d)">
     <use style="fill:#ff0000;stroke:#ff0000;" x="497.69697" xlink:href="#m12cea5722a" y="277.979849"/>
    </g>
   </g>
   <g id="line2d_99">
    <g clip-path="url(#p90b0893d0d)">
     <use style="fill:#ff0000;stroke:#ff0000;" x="0" xlink:href="#m12cea5722a" y="0"/>
    </g>
   </g>
   <g id="line2d_100">
    <g clip-path="url(#p90b0893d0d)">
     <use style="fill:#ff0000;stroke:#ff0000;" x="0" xlink:href="#m12cea5722a" y="0"/>
    </g>
   </g>
   <g id="line2d_101">
    <g clip-path="url(#p90b0893d0d)">
     <use style="fill:#ff0000;stroke:#ff0000;" x="0" xlink:href="#m12cea5722a" y="0"/>
    </g>
   </g>
   <g id="line2d_102">
    <g clip-path="url(#p90b0893d0d)">
     <use style="fill:#ff0000;stroke:#ff0000;" x="0" xlink:href="#m12cea5722a" y="0"/>
    </g>
   </g>
   <g id="line2d_103">
    <g clip-path="url(#p90b0893d0d)">
     <use style="fill:#ff0000;stroke:#ff0000;" x="0" xlink:href="#m12cea5722a" y="0"/>
    </g>
   </g>
   <g id="line2d_104">
    <g clip-path="url(#p90b0893d0d)">
     <use style="fill:#ff0000;stroke:#ff0000;" x="507.090909" xlink:href="#m12cea5722a" y="280.04"/>
    </g>
   </g>
   <g id="line2d_105">
    <g clip-path="url(#p90b0893d0d)">
     <use style="fill:#ff0000;stroke:#ff0000;" x="0" xlink:href="#m12cea5722a" y="0"/>
    </g>
   </g>
   <g id="line2d_106">
    <g clip-path="url(#p90b0893d0d)">
     <use style="fill:#ff0000;stroke:#ff0000;" x="0" xlink:href="#m12cea5722a" y="0"/>
    </g>
   </g>
   <g id="line2d_107">
    <g clip-path="url(#p90b0893d0d)">
     <use style="fill:#ff0000;stroke:#ff0000;" x="0" xlink:href="#m12cea5722a" y="0"/>
    </g>
   </g>
   <g id="line2d_108">
    <g clip-path="url(#p90b0893d0d)">
     <use style="fill:#ff0000;stroke:#ff0000;" x="0" xlink:href="#m12cea5722a" y="0"/>
    </g>
   </g>
   <g id="line2d_109">
    <g clip-path="url(#p90b0893d0d)">
     <use style="fill:#ff0000;stroke:#ff0000;" x="0" xlink:href="#m12cea5722a" y="0"/>
    </g>
   </g>
   <g id="line2d_110">
    <g clip-path="url(#p90b0893d0d)">
     <use style="fill:#ff0000;stroke:#ff0000;" x="516.484848" xlink:href="#m12cea5722a" y="282.483629"/>
    </g>
   </g>
   <g id="line2d_111">
    <g clip-path="url(#p90b0893d0d)">
     <use style="fill:#ff0000;stroke:#ff0000;" x="0" xlink:href="#m12cea5722a" y="0"/>
    </g>
   </g>
   <g id="line2d_112">
    <g clip-path="url(#p90b0893d0d)">
     <use style="fill:#ff0000;stroke:#ff0000;" x="0" xlink:href="#m12cea5722a" y="0"/>
    </g>
   </g>
   <g id="line2d_113">
    <g clip-path="url(#p90b0893d0d)">
     <use style="fill:#ff0000;stroke:#ff0000;" x="0" xlink:href="#m12cea5722a" y="0"/>
    </g>
   </g>
   <g id="line2d_114">
    <g clip-path="url(#p90b0893d0d)">
     <use style="fill:#ff0000;stroke:#ff0000;" x="0" xlink:href="#m12cea5722a" y="0"/>
    </g>
   </g>
   <g id="line2d_115">
    <g clip-path="url(#p90b0893d0d)">
     <use style="fill:#ff0000;stroke:#ff0000;" x="0" xlink:href="#m12cea5722a" y="0"/>
    </g>
   </g>
   <g id="line2d_116">
    <g clip-path="url(#p90b0893d0d)">
     <use style="fill:#ff0000;stroke:#ff0000;" x="525.878788" xlink:href="#m12cea5722a" y="284.806593"/>
    </g>
   </g>
   <g id="line2d_117">
    <g clip-path="url(#p90b0893d0d)">
     <use style="fill:#ff0000;stroke:#ff0000;" x="0" xlink:href="#m12cea5722a" y="0"/>
    </g>
   </g>
   <g id="line2d_118">
    <g clip-path="url(#p90b0893d0d)">
     <use style="fill:#ff0000;stroke:#ff0000;" x="0" xlink:href="#m12cea5722a" y="0"/>
    </g>
   </g>
   <g id="line2d_119">
    <g clip-path="url(#p90b0893d0d)">
     <use style="fill:#ff0000;stroke:#ff0000;" x="0" xlink:href="#m12cea5722a" y="0"/>
    </g>
   </g>
   <g id="line2d_120">
    <g clip-path="url(#p90b0893d0d)">
     <use style="fill:#ff0000;stroke:#ff0000;" x="0" xlink:href="#m12cea5722a" y="0"/>
    </g>
   </g>
   <g id="line2d_121">
    <g clip-path="url(#p90b0893d0d)">
     <use style="fill:#ff0000;stroke:#ff0000;" x="0" xlink:href="#m12cea5722a" y="0"/>
    </g>
   </g>
   <g id="line2d_122">
    <g clip-path="url(#p90b0893d0d)">
     <use style="fill:#ff0000;stroke:#ff0000;" x="535.272727" xlink:href="#m12cea5722a" y="286.885118"/>
    </g>
   </g>
   <g id="line2d_123">
    <g clip-path="url(#p90b0893d0d)">
     <use style="fill:#ff0000;stroke:#ff0000;" x="0" xlink:href="#m12cea5722a" y="0"/>
    </g>
   </g>
   <g id="line2d_124">
    <g clip-path="url(#p90b0893d0d)">
     <use style="fill:#ff0000;stroke:#ff0000;" x="0" xlink:href="#m12cea5722a" y="0"/>
    </g>
   </g>
   <g id="line2d_125">
    <g clip-path="url(#p90b0893d0d)">
     <use style="fill:#ff0000;stroke:#ff0000;" x="0" xlink:href="#m12cea5722a" y="0"/>
    </g>
   </g>
   <g id="line2d_126">
    <g clip-path="url(#p90b0893d0d)">
     <use style="fill:#ff0000;stroke:#ff0000;" x="0" xlink:href="#m12cea5722a" y="0"/>
    </g>
   </g>
   <g id="line2d_127">
    <g clip-path="url(#p90b0893d0d)">
     <use style="fill:#ff0000;stroke:#ff0000;" x="0" xlink:href="#m12cea5722a" y="0"/>
    </g>
   </g>
   <g id="line2d_128">
    <g clip-path="url(#p90b0893d0d)">
     <use style="fill:#ff0000;stroke:#ff0000;" x="544.666667" xlink:href="#m12cea5722a" y="288.873595"/>
    </g>
   </g>
   <g id="line2d_129">
    <g clip-path="url(#p90b0893d0d)">
     <use style="fill:#ff0000;stroke:#ff0000;" x="0" xlink:href="#m12cea5722a" y="0"/>
    </g>
   </g>
   <g id="patch_9">
    <path d="M 394.363636 315 
L 394.363636 43.2 
" style="fill:none;stroke:#000000;stroke-linecap:square;stroke-linejoin:miter;stroke-width:0.8;"/>
   </g>
   <g id="patch_10">
    <path d="M 648 315 
L 648 43.2 
" style="fill:none;stroke:#000000;stroke-linecap:square;stroke-linejoin:miter;stroke-width:0.8;"/>
   </g>
   <g id="patch_11">
    <path d="M 394.363636 315 
L 648 315 
" style="fill:none;stroke:#000000;stroke-linecap:square;stroke-linejoin:miter;stroke-width:0.8;"/>
   </g>
   <g id="patch_12">
    <path d="M 394.363636 43.2 
L 648 43.2 
" style="fill:none;stroke:#000000;stroke-linecap:square;stroke-linejoin:miter;stroke-width:0.8;"/>
   </g>
   <g id="text_29">
    <!-- 5-fold Cross Validation -->
    <defs>
     <path d="M 4.890625 31.390625 
L 31.203125 31.390625 
L 31.203125 23.390625 
L 4.890625 23.390625 
z
" id="DejaVuSans-2d"/>
     <path d="M 37.109375 75.984375 
L 37.109375 68.5 
L 28.515625 68.5 
Q 23.6875 68.5 21.796875 66.546875 
Q 19.921875 64.59375 19.921875 59.515625 
L 19.921875 54.6875 
L 34.71875 54.6875 
L 34.71875 47.703125 
L 19.921875 47.703125 
L 19.921875 0 
L 10.890625 0 
L 10.890625 47.703125 
L 2.296875 47.703125 
L 2.296875 54.6875 
L 10.890625 54.6875 
L 10.890625 58.5 
Q 10.890625 67.625 15.140625 71.796875 
Q 19.390625 75.984375 28.609375 75.984375 
z
" id="DejaVuSans-66"/>
     <path d="M 30.609375 48.390625 
Q 23.390625 48.390625 19.1875 42.75 
Q 14.984375 37.109375 14.984375 27.296875 
Q 14.984375 17.484375 19.15625 11.84375 
Q 23.34375 6.203125 30.609375 6.203125 
Q 37.796875 6.203125 41.984375 11.859375 
Q 46.1875 17.53125 46.1875 27.296875 
Q 46.1875 37.015625 41.984375 42.703125 
Q 37.796875 48.390625 30.609375 48.390625 
z
M 30.609375 56 
Q 42.328125 56 49.015625 48.375 
Q 55.71875 40.765625 55.71875 27.296875 
Q 55.71875 13.875 49.015625 6.21875 
Q 42.328125 -1.421875 30.609375 -1.421875 
Q 18.84375 -1.421875 12.171875 6.21875 
Q 5.515625 13.875 5.515625 27.296875 
Q 5.515625 40.765625 12.171875 48.375 
Q 18.84375 56 30.609375 56 
z
" id="DejaVuSans-6f"/>
     <path d="M 9.421875 75.984375 
L 18.40625 75.984375 
L 18.40625 0 
L 9.421875 0 
z
" id="DejaVuSans-6c"/>
     <path d="M 45.40625 46.390625 
L 45.40625 75.984375 
L 54.390625 75.984375 
L 54.390625 0 
L 45.40625 0 
L 45.40625 8.203125 
Q 42.578125 3.328125 38.25 0.953125 
Q 33.9375 -1.421875 27.875 -1.421875 
Q 17.96875 -1.421875 11.734375 6.484375 
Q 5.515625 14.40625 5.515625 27.296875 
Q 5.515625 40.1875 11.734375 48.09375 
Q 17.96875 56 27.875 56 
Q 33.9375 56 38.25 53.625 
Q 42.578125 51.265625 45.40625 46.390625 
z
M 14.796875 27.296875 
Q 14.796875 17.390625 18.875 11.75 
Q 22.953125 6.109375 30.078125 6.109375 
Q 37.203125 6.109375 41.296875 11.75 
Q 45.40625 17.390625 45.40625 27.296875 
Q 45.40625 37.203125 41.296875 42.84375 
Q 37.203125 48.484375 30.078125 48.484375 
Q 22.953125 48.484375 18.875 42.84375 
Q 14.796875 37.203125 14.796875 27.296875 
z
" id="DejaVuSans-64"/>
     <path id="DejaVuSans-20"/>
     <path d="M 64.40625 67.28125 
L 64.40625 56.890625 
Q 59.421875 61.53125 53.78125 63.8125 
Q 48.140625 66.109375 41.796875 66.109375 
Q 29.296875 66.109375 22.65625 58.46875 
Q 16.015625 50.828125 16.015625 36.375 
Q 16.015625 21.96875 22.65625 14.328125 
Q 29.296875 6.6875 41.796875 6.6875 
Q 48.140625 6.6875 53.78125 8.984375 
Q 59.421875 11.28125 64.40625 15.921875 
L 64.40625 5.609375 
Q 59.234375 2.09375 53.4375 0.328125 
Q 47.65625 -1.421875 41.21875 -1.421875 
Q 24.65625 -1.421875 15.125 8.703125 
Q 5.609375 18.84375 5.609375 36.375 
Q 5.609375 53.953125 15.125 64.078125 
Q 24.65625 74.21875 41.21875 74.21875 
Q 47.75 74.21875 53.53125 72.484375 
Q 59.328125 70.75 64.40625 67.28125 
z
" id="DejaVuSans-43"/>
     <path d="M 44.28125 53.078125 
L 44.28125 44.578125 
Q 40.484375 46.53125 36.375 47.5 
Q 32.28125 48.484375 27.875 48.484375 
Q 21.1875 48.484375 17.84375 46.4375 
Q 14.5 44.390625 14.5 40.28125 
Q 14.5 37.15625 16.890625 35.375 
Q 19.28125 33.59375 26.515625 31.984375 
L 29.59375 31.296875 
Q 39.15625 29.25 43.1875 25.515625 
Q 47.21875 21.78125 47.21875 15.09375 
Q 47.21875 7.46875 41.1875 3.015625 
Q 35.15625 -1.421875 24.609375 -1.421875 
Q 20.21875 -1.421875 15.453125 -0.5625 
Q 10.6875 0.296875 5.421875 2 
L 5.421875 11.28125 
Q 10.40625 8.6875 15.234375 7.390625 
Q 20.0625 6.109375 24.8125 6.109375 
Q 31.15625 6.109375 34.5625 8.28125 
Q 37.984375 10.453125 37.984375 14.40625 
Q 37.984375 18.0625 35.515625 20.015625 
Q 33.0625 21.96875 24.703125 23.78125 
L 21.578125 24.515625 
Q 13.234375 26.265625 9.515625 29.90625 
Q 5.8125 33.546875 5.8125 39.890625 
Q 5.8125 47.609375 11.28125 51.796875 
Q 16.75 56 26.8125 56 
Q 31.78125 56 36.171875 55.265625 
Q 40.578125 54.546875 44.28125 53.078125 
z
" id="DejaVuSans-73"/>
     <path d="M 28.609375 0 
L 0.78125 72.90625 
L 11.078125 72.90625 
L 34.1875 11.53125 
L 57.328125 72.90625 
L 67.578125 72.90625 
L 39.796875 0 
z
" id="DejaVuSans-56"/>
     <path d="M 34.28125 27.484375 
Q 23.390625 27.484375 19.1875 25 
Q 14.984375 22.515625 14.984375 16.5 
Q 14.984375 11.71875 18.140625 8.90625 
Q 21.296875 6.109375 26.703125 6.109375 
Q 34.1875 6.109375 38.703125 11.40625 
Q 43.21875 16.703125 43.21875 25.484375 
L 43.21875 27.484375 
z
M 52.203125 31.203125 
L 52.203125 0 
L 43.21875 0 
L 43.21875 8.296875 
Q 40.140625 3.328125 35.546875 0.953125 
Q 30.953125 -1.421875 24.3125 -1.421875 
Q 15.921875 -1.421875 10.953125 3.296875 
Q 6 8.015625 6 15.921875 
Q 6 25.140625 12.171875 29.828125 
Q 18.359375 34.515625 30.609375 34.515625 
L 43.21875 34.515625 
L 43.21875 35.40625 
Q 43.21875 41.609375 39.140625 45 
Q 35.0625 48.390625 27.6875 48.390625 
Q 23 48.390625 18.546875 47.265625 
Q 14.109375 46.140625 10.015625 43.890625 
L 10.015625 52.203125 
Q 14.9375 54.109375 19.578125 55.046875 
Q 24.21875 56 28.609375 56 
Q 40.484375 56 46.34375 49.84375 
Q 52.203125 43.703125 52.203125 31.203125 
z
" id="DejaVuSans-61"/>
     <path d="M 9.421875 54.6875 
L 18.40625 54.6875 
L 18.40625 0 
L 9.421875 0 
z
M 9.421875 75.984375 
L 18.40625 75.984375 
L 18.40625 64.59375 
L 9.421875 64.59375 
z
" id="DejaVuSans-69"/>
     <path d="M 18.3125 70.21875 
L 18.3125 54.6875 
L 36.8125 54.6875 
L 36.8125 47.703125 
L 18.3125 47.703125 
L 18.3125 18.015625 
Q 18.3125 11.328125 20.140625 9.421875 
Q 21.96875 7.515625 27.59375 7.515625 
L 36.8125 7.515625 
L 36.8125 0 
L 27.59375 0 
Q 17.1875 0 13.234375 3.875 
Q 9.28125 7.765625 9.28125 18.015625 
L 9.28125 47.703125 
L 2.6875 47.703125 
L 2.6875 54.6875 
L 9.28125 54.6875 
L 9.28125 70.21875 
z
" id="DejaVuSans-74"/>
    </defs>
    <g transform="translate(408.316193 37.2)scale(0.2 -0.2)">
     <use xlink:href="#DejaVuSans-35"/>
     <use x="63.623047" xlink:href="#DejaVuSans-2d"/>
     <use x="99.707031" xlink:href="#DejaVuSans-66"/>
     <use x="134.912109" xlink:href="#DejaVuSans-6f"/>
     <use x="196.09375" xlink:href="#DejaVuSans-6c"/>
     <use x="223.876953" xlink:href="#DejaVuSans-64"/>
     <use x="287.353516" xlink:href="#DejaVuSans-20"/>
     <use x="319.140625" xlink:href="#DejaVuSans-43"/>
     <use x="388.964844" xlink:href="#DejaVuSans-72"/>
     <use x="430.046875" xlink:href="#DejaVuSans-6f"/>
     <use x="491.228516" xlink:href="#DejaVuSans-73"/>
     <use x="543.328125" xlink:href="#DejaVuSans-73"/>
     <use x="595.427734" xlink:href="#DejaVuSans-20"/>
     <use x="627.214844" xlink:href="#DejaVuSans-56"/>
     <use x="695.513672" xlink:href="#DejaVuSans-61"/>
     <use x="756.792969" xlink:href="#DejaVuSans-6c"/>
     <use x="784.576172" xlink:href="#DejaVuSans-69"/>
     <use x="812.359375" xlink:href="#DejaVuSans-64"/>
     <use x="875.835938" xlink:href="#DejaVuSans-61"/>
     <use x="937.115234" xlink:href="#DejaVuSans-74"/>
     <use x="976.324219" xlink:href="#DejaVuSans-69"/>
     <use x="1004.107422" xlink:href="#DejaVuSans-6f"/>
     <use x="1065.289062" xlink:href="#DejaVuSans-6e"/>
    </g>
   </g>
  </g>
 </g>
 <defs>
  <clipPath id="pe82e09b227">
   <rect height="271.8" width="253.636364" x="90" y="43.2"/>
  </clipPath>
  <clipPath id="p90b0893d0d">
   <rect height="271.8" width="253.636364" x="394.363636" y="43.2"/>
  </clipPath>
 </defs>
</svg>
