<?xml version="1.0" encoding="utf-8" standalone="no"?>
<!DOCTYPE svg PUBLIC "-//W3C//DTD SVG 1.1//EN"
  "http://www.w3.org/Graphics/SVG/1.1/DTD/svg11.dtd">
<!-- Created with matplotlib (https://matplotlib.org/) -->
<svg height="432pt" version="1.1" viewBox="0 0 720 432" width="720pt" xmlns="http://www.w3.org/2000/svg" xmlns:xlink="http://www.w3.org/1999/xlink">
 <defs>
  <style type="text/css">
*{stroke-linecap:butt;stroke-linejoin:round;}
  </style>
 </defs>
 <g id="figure_1">
  <g id="patch_1">
   <path d="M 0 432 
L 720 432 
L 720 0 
L 0 0 
z
" style="fill:none;"/>
  </g>
  <g id="axes_1">
   <g id="patch_2">
    <path d="M 90 378 
L 648 378 
L 648 51.84 
L 90 51.84 
z
" style="fill:none;"/>
   </g>
   <g id="matplotlib.axis_1">
    <g id="xtick_1">
     <g id="line2d_1">
      <defs>
       <path d="M 0 0 
L 0 3.5 
" id="m63fbda69ba" style="stroke:#000000;stroke-width:0.8;"/>
      </defs>
      <g>
       <use style="stroke:#000000;stroke-width:0.8;" x="108" xlink:href="#m63fbda69ba" y="378"/>
      </g>
     </g>
     <g id="text_1">
      <!-- 1880 -->
      <defs>
       <path d="M 12.40625 8.296875 
L 28.515625 8.296875 
L 28.515625 63.921875 
L 10.984375 60.40625 
L 10.984375 69.390625 
L 28.421875 72.90625 
L 38.28125 72.90625 
L 38.28125 8.296875 
L 54.390625 8.296875 
L 54.390625 0 
L 12.40625 0 
z
" id="DejaVuSans-49"/>
       <path d="M 31.78125 34.625 
Q 24.75 34.625 20.71875 30.859375 
Q 16.703125 27.09375 16.703125 20.515625 
Q 16.703125 13.921875 20.71875 10.15625 
Q 24.75 6.390625 31.78125 6.390625 
Q 38.8125 6.390625 42.859375 10.171875 
Q 46.921875 13.96875 46.921875 20.515625 
Q 46.921875 27.09375 42.890625 30.859375 
Q 38.875 34.625 31.78125 34.625 
z
M 21.921875 38.8125 
Q 15.578125 40.375 12.03125 44.71875 
Q 8.5 49.078125 8.5 55.328125 
Q 8.5 64.0625 14.71875 69.140625 
Q 20.953125 74.21875 31.78125 74.21875 
Q 42.671875 74.21875 48.875 69.140625 
Q 55.078125 64.0625 55.078125 55.328125 
Q 55.078125 49.078125 51.53125 44.71875 
Q 48 40.375 41.703125 38.8125 
Q 48.828125 37.15625 52.796875 32.3125 
Q 56.78125 27.484375 56.78125 20.515625 
Q 56.78125 9.90625 50.3125 4.234375 
Q 43.84375 -1.421875 31.78125 -1.421875 
Q 19.734375 -1.421875 13.25 4.234375 
Q 6.78125 9.90625 6.78125 20.515625 
Q 6.78125 27.484375 10.78125 32.3125 
Q 14.796875 37.15625 21.921875 38.8125 
z
M 18.3125 54.390625 
Q 18.3125 48.734375 21.84375 45.5625 
Q 25.390625 42.390625 31.78125 42.390625 
Q 38.140625 42.390625 41.71875 45.5625 
Q 45.3125 48.734375 45.3125 54.390625 
Q 45.3125 60.0625 41.71875 63.234375 
Q 38.140625 66.40625 31.78125 66.40625 
Q 25.390625 66.40625 21.84375 63.234375 
Q 18.3125 60.0625 18.3125 54.390625 
z
" id="DejaVuSans-56"/>
       <path d="M 31.78125 66.40625 
Q 24.171875 66.40625 20.328125 58.90625 
Q 16.5 51.421875 16.5 36.375 
Q 16.5 21.390625 20.328125 13.890625 
Q 24.171875 6.390625 31.78125 6.390625 
Q 39.453125 6.390625 43.28125 13.890625 
Q 47.125 21.390625 47.125 36.375 
Q 47.125 51.421875 43.28125 58.90625 
Q 39.453125 66.40625 31.78125 66.40625 
z
M 31.78125 74.21875 
Q 44.046875 74.21875 50.515625 64.515625 
Q 56.984375 54.828125 56.984375 36.375 
Q 56.984375 17.96875 50.515625 8.265625 
Q 44.046875 -1.421875 31.78125 -1.421875 
Q 19.53125 -1.421875 13.0625 8.265625 
Q 6.59375 17.96875 6.59375 36.375 
Q 6.59375 54.828125 13.0625 64.515625 
Q 19.53125 74.21875 31.78125 74.21875 
z
" id="DejaVuSans-48"/>
      </defs>
      <g transform="translate(95.275 392.598437)scale(0.1 -0.1)">
       <use xlink:href="#DejaVuSans-49"/>
       <use x="63.623047" xlink:href="#DejaVuSans-56"/>
       <use x="127.246094" xlink:href="#DejaVuSans-56"/>
       <use x="190.869141" xlink:href="#DejaVuSans-48"/>
      </g>
     </g>
    </g>
    <g id="xtick_2">
     <g id="line2d_2">
      <g>
       <use style="stroke:#000000;stroke-width:0.8;" x="180" xlink:href="#m63fbda69ba" y="378"/>
      </g>
     </g>
     <g id="text_2">
      <!-- 1900 -->
      <defs>
       <path d="M 10.984375 1.515625 
L 10.984375 10.5 
Q 14.703125 8.734375 18.5 7.8125 
Q 22.3125 6.890625 25.984375 6.890625 
Q 35.75 6.890625 40.890625 13.453125 
Q 46.046875 20.015625 46.78125 33.40625 
Q 43.953125 29.203125 39.59375 26.953125 
Q 35.25 24.703125 29.984375 24.703125 
Q 19.046875 24.703125 12.671875 31.3125 
Q 6.296875 37.9375 6.296875 49.421875 
Q 6.296875 60.640625 12.9375 67.421875 
Q 19.578125 74.21875 30.609375 74.21875 
Q 43.265625 74.21875 49.921875 64.515625 
Q 56.59375 54.828125 56.59375 36.375 
Q 56.59375 19.140625 48.40625 8.859375 
Q 40.234375 -1.421875 26.421875 -1.421875 
Q 22.703125 -1.421875 18.890625 -0.6875 
Q 15.09375 0.046875 10.984375 1.515625 
z
M 30.609375 32.421875 
Q 37.25 32.421875 41.125 36.953125 
Q 45.015625 41.5 45.015625 49.421875 
Q 45.015625 57.28125 41.125 61.84375 
Q 37.25 66.40625 30.609375 66.40625 
Q 23.96875 66.40625 20.09375 61.84375 
Q 16.21875 57.28125 16.21875 49.421875 
Q 16.21875 41.5 20.09375 36.953125 
Q 23.96875 32.421875 30.609375 32.421875 
z
" id="DejaVuSans-57"/>
      </defs>
      <g transform="translate(167.275 392.598437)scale(0.1 -0.1)">
       <use xlink:href="#DejaVuSans-49"/>
       <use x="63.623047" xlink:href="#DejaVuSans-57"/>
       <use x="127.246094" xlink:href="#DejaVuSans-48"/>
       <use x="190.869141" xlink:href="#DejaVuSans-48"/>
      </g>
     </g>
    </g>
    <g id="xtick_3">
     <g id="line2d_3">
      <g>
       <use style="stroke:#000000;stroke-width:0.8;" x="252" xlink:href="#m63fbda69ba" y="378"/>
      </g>
     </g>
     <g id="text_3">
      <!-- 1920 -->
      <defs>
       <path d="M 19.1875 8.296875 
L 53.609375 8.296875 
L 53.609375 0 
L 7.328125 0 
L 7.328125 8.296875 
Q 12.9375 14.109375 22.625 23.890625 
Q 32.328125 33.6875 34.8125 36.53125 
Q 39.546875 41.84375 41.421875 45.53125 
Q 43.3125 49.21875 43.3125 52.78125 
Q 43.3125 58.59375 39.234375 62.25 
Q 35.15625 65.921875 28.609375 65.921875 
Q 23.96875 65.921875 18.8125 64.3125 
Q 13.671875 62.703125 7.8125 59.421875 
L 7.8125 69.390625 
Q 13.765625 71.78125 18.9375 73 
Q 24.125 74.21875 28.421875 74.21875 
Q 39.75 74.21875 46.484375 68.546875 
Q 53.21875 62.890625 53.21875 53.421875 
Q 53.21875 48.921875 51.53125 44.890625 
Q 49.859375 40.875 45.40625 35.40625 
Q 44.1875 33.984375 37.640625 27.21875 
Q 31.109375 20.453125 19.1875 8.296875 
z
" id="DejaVuSans-50"/>
      </defs>
      <g transform="translate(239.275 392.598437)scale(0.1 -0.1)">
       <use xlink:href="#DejaVuSans-49"/>
       <use x="63.623047" xlink:href="#DejaVuSans-57"/>
       <use x="127.246094" xlink:href="#DejaVuSans-50"/>
       <use x="190.869141" xlink:href="#DejaVuSans-48"/>
      </g>
     </g>
    </g>
    <g id="xtick_4">
     <g id="line2d_4">
      <g>
       <use style="stroke:#000000;stroke-width:0.8;" x="324" xlink:href="#m63fbda69ba" y="378"/>
      </g>
     </g>
     <g id="text_4">
      <!-- 1940 -->
      <defs>
       <path d="M 37.796875 64.3125 
L 12.890625 25.390625 
L 37.796875 25.390625 
z
M 35.203125 72.90625 
L 47.609375 72.90625 
L 47.609375 25.390625 
L 58.015625 25.390625 
L 58.015625 17.1875 
L 47.609375 17.1875 
L 47.609375 0 
L 37.796875 0 
L 37.796875 17.1875 
L 4.890625 17.1875 
L 4.890625 26.703125 
z
" id="DejaVuSans-52"/>
      </defs>
      <g transform="translate(311.275 392.598437)scale(0.1 -0.1)">
       <use xlink:href="#DejaVuSans-49"/>
       <use x="63.623047" xlink:href="#DejaVuSans-57"/>
       <use x="127.246094" xlink:href="#DejaVuSans-52"/>
       <use x="190.869141" xlink:href="#DejaVuSans-48"/>
      </g>
     </g>
    </g>
    <g id="xtick_5">
     <g id="line2d_5">
      <g>
       <use style="stroke:#000000;stroke-width:0.8;" x="396" xlink:href="#m63fbda69ba" y="378"/>
      </g>
     </g>
     <g id="text_5">
      <!-- 1960 -->
      <defs>
       <path d="M 33.015625 40.375 
Q 26.375 40.375 22.484375 35.828125 
Q 18.609375 31.296875 18.609375 23.390625 
Q 18.609375 15.53125 22.484375 10.953125 
Q 26.375 6.390625 33.015625 6.390625 
Q 39.65625 6.390625 43.53125 10.953125 
Q 47.40625 15.53125 47.40625 23.390625 
Q 47.40625 31.296875 43.53125 35.828125 
Q 39.65625 40.375 33.015625 40.375 
z
M 52.59375 71.296875 
L 52.59375 62.3125 
Q 48.875 64.0625 45.09375 64.984375 
Q 41.3125 65.921875 37.59375 65.921875 
Q 27.828125 65.921875 22.671875 59.328125 
Q 17.53125 52.734375 16.796875 39.40625 
Q 19.671875 43.65625 24.015625 45.921875 
Q 28.375 48.1875 33.59375 48.1875 
Q 44.578125 48.1875 50.953125 41.515625 
Q 57.328125 34.859375 57.328125 23.390625 
Q 57.328125 12.15625 50.6875 5.359375 
Q 44.046875 -1.421875 33.015625 -1.421875 
Q 20.359375 -1.421875 13.671875 8.265625 
Q 6.984375 17.96875 6.984375 36.375 
Q 6.984375 53.65625 15.1875 63.9375 
Q 23.390625 74.21875 37.203125 74.21875 
Q 40.921875 74.21875 44.703125 73.484375 
Q 48.484375 72.75 52.59375 71.296875 
z
" id="DejaVuSans-54"/>
      </defs>
      <g transform="translate(383.275 392.598437)scale(0.1 -0.1)">
       <use xlink:href="#DejaVuSans-49"/>
       <use x="63.623047" xlink:href="#DejaVuSans-57"/>
       <use x="127.246094" xlink:href="#DejaVuSans-54"/>
       <use x="190.869141" xlink:href="#DejaVuSans-48"/>
      </g>
     </g>
    </g>
    <g id="xtick_6">
     <g id="line2d_6">
      <g>
       <use style="stroke:#000000;stroke-width:0.8;" x="468" xlink:href="#m63fbda69ba" y="378"/>
      </g>
     </g>
     <g id="text_6">
      <!-- 1980 -->
      <g transform="translate(455.275 392.598437)scale(0.1 -0.1)">
       <use xlink:href="#DejaVuSans-49"/>
       <use x="63.623047" xlink:href="#DejaVuSans-57"/>
       <use x="127.246094" xlink:href="#DejaVuSans-56"/>
       <use x="190.869141" xlink:href="#DejaVuSans-48"/>
      </g>
     </g>
    </g>
    <g id="xtick_7">
     <g id="line2d_7">
      <g>
       <use style="stroke:#000000;stroke-width:0.8;" x="540" xlink:href="#m63fbda69ba" y="378"/>
      </g>
     </g>
     <g id="text_7">
      <!-- 2000 -->
      <g transform="translate(527.275 392.598437)scale(0.1 -0.1)">
       <use xlink:href="#DejaVuSans-50"/>
       <use x="63.623047" xlink:href="#DejaVuSans-48"/>
       <use x="127.246094" xlink:href="#DejaVuSans-48"/>
       <use x="190.869141" xlink:href="#DejaVuSans-48"/>
      </g>
     </g>
    </g>
    <g id="xtick_8">
     <g id="line2d_8">
      <g>
       <use style="stroke:#000000;stroke-width:0.8;" x="612" xlink:href="#m63fbda69ba" y="378"/>
      </g>
     </g>
     <g id="text_8">
      <!-- 2020 -->
      <g transform="translate(599.275 392.598437)scale(0.1 -0.1)">
       <use xlink:href="#DejaVuSans-50"/>
       <use x="63.623047" xlink:href="#DejaVuSans-48"/>
       <use x="127.246094" xlink:href="#DejaVuSans-50"/>
       <use x="190.869141" xlink:href="#DejaVuSans-48"/>
      </g>
     </g>
    </g>
    <g id="text_9">
     <!-- year -->
     <defs>
      <path d="M 32.171875 -5.078125 
Q 28.375 -14.84375 24.75 -17.8125 
Q 21.140625 -20.796875 15.09375 -20.796875 
L 7.90625 -20.796875 
L 7.90625 -13.28125 
L 13.1875 -13.28125 
Q 16.890625 -13.28125 18.9375 -11.515625 
Q 21 -9.765625 23.484375 -3.21875 
L 25.09375 0.875 
L 2.984375 54.6875 
L 12.5 54.6875 
L 29.59375 11.921875 
L 46.6875 54.6875 
L 56.203125 54.6875 
z
" id="DejaVuSans-121"/>
      <path d="M 56.203125 29.59375 
L 56.203125 25.203125 
L 14.890625 25.203125 
Q 15.484375 15.921875 20.484375 11.0625 
Q 25.484375 6.203125 34.421875 6.203125 
Q 39.59375 6.203125 44.453125 7.46875 
Q 49.3125 8.734375 54.109375 11.28125 
L 54.109375 2.78125 
Q 49.265625 0.734375 44.1875 -0.34375 
Q 39.109375 -1.421875 33.890625 -1.421875 
Q 20.796875 -1.421875 13.15625 6.1875 
Q 5.515625 13.8125 5.515625 26.8125 
Q 5.515625 40.234375 12.765625 48.109375 
Q 20.015625 56 32.328125 56 
Q 43.359375 56 49.78125 48.890625 
Q 56.203125 41.796875 56.203125 29.59375 
z
M 47.21875 32.234375 
Q 47.125 39.59375 43.09375 43.984375 
Q 39.0625 48.390625 32.421875 48.390625 
Q 24.90625 48.390625 20.390625 44.140625 
Q 15.875 39.890625 15.1875 32.171875 
z
" id="DejaVuSans-101"/>
      <path d="M 34.28125 27.484375 
Q 23.390625 27.484375 19.1875 25 
Q 14.984375 22.515625 14.984375 16.5 
Q 14.984375 11.71875 18.140625 8.90625 
Q 21.296875 6.109375 26.703125 6.109375 
Q 34.1875 6.109375 38.703125 11.40625 
Q 43.21875 16.703125 43.21875 25.484375 
L 43.21875 27.484375 
z
M 52.203125 31.203125 
L 52.203125 0 
L 43.21875 0 
L 43.21875 8.296875 
Q 40.140625 3.328125 35.546875 0.953125 
Q 30.953125 -1.421875 24.3125 -1.421875 
Q 15.921875 -1.421875 10.953125 3.296875 
Q 6 8.015625 6 15.921875 
Q 6 25.140625 12.171875 29.828125 
Q 18.359375 34.515625 30.609375 34.515625 
L 43.21875 34.515625 
L 43.21875 35.40625 
Q 43.21875 41.609375 39.140625 45 
Q 35.0625 48.390625 27.6875 48.390625 
Q 23 48.390625 18.546875 47.265625 
Q 14.109375 46.140625 10.015625 43.890625 
L 10.015625 52.203125 
Q 14.9375 54.109375 19.578125 55.046875 
Q 24.21875 56 28.609375 56 
Q 40.484375 56 46.34375 49.84375 
Q 52.203125 43.703125 52.203125 31.203125 
z
" id="DejaVuSans-97"/>
      <path d="M 41.109375 46.296875 
Q 39.59375 47.171875 37.8125 47.578125 
Q 36.03125 48 33.890625 48 
Q 26.265625 48 22.1875 43.046875 
Q 18.109375 38.09375 18.109375 28.8125 
L 18.109375 0 
L 9.078125 0 
L 9.078125 54.6875 
L 18.109375 54.6875 
L 18.109375 46.1875 
Q 20.953125 51.171875 25.484375 53.578125 
Q 30.03125 56 36.53125 56 
Q 37.453125 56 38.578125 55.875 
Q 39.703125 55.765625 41.0625 55.515625 
z
" id="DejaVuSans-114"/>
     </defs>
     <g transform="translate(346.689062 413.875)scale(0.2 -0.2)">
      <use xlink:href="#DejaVuSans-121"/>
      <use x="59.179688" xlink:href="#DejaVuSans-101"/>
      <use x="120.703125" xlink:href="#DejaVuSans-97"/>
      <use x="181.982422" xlink:href="#DejaVuSans-114"/>
     </g>
    </g>
   </g>
   <g id="matplotlib.axis_2">
    <g id="ytick_1">
     <g id="line2d_9">
      <defs>
       <path d="M 0 0 
L -3.5 0 
" id="m3c71a643c6" style="stroke:#000000;stroke-width:0.8;"/>
      </defs>
      <g>
       <use style="stroke:#000000;stroke-width:0.8;" x="90" xlink:href="#m3c71a643c6" y="378"/>
      </g>
     </g>
     <g id="text_10">
      <!-- 2.5 -->
      <defs>
       <path d="M 10.6875 12.40625 
L 21 12.40625 
L 21 0 
L 10.6875 0 
z
" id="DejaVuSans-46"/>
       <path d="M 10.796875 72.90625 
L 49.515625 72.90625 
L 49.515625 64.59375 
L 19.828125 64.59375 
L 19.828125 46.734375 
Q 21.96875 47.46875 24.109375 47.828125 
Q 26.265625 48.1875 28.421875 48.1875 
Q 40.625 48.1875 47.75 41.5 
Q 54.890625 34.8125 54.890625 23.390625 
Q 54.890625 11.625 47.5625 5.09375 
Q 40.234375 -1.421875 26.90625 -1.421875 
Q 22.3125 -1.421875 17.546875 -0.640625 
Q 12.796875 0.140625 7.71875 1.703125 
L 7.71875 11.625 
Q 12.109375 9.234375 16.796875 8.0625 
Q 21.484375 6.890625 26.703125 6.890625 
Q 35.15625 6.890625 40.078125 11.328125 
Q 45.015625 15.765625 45.015625 23.390625 
Q 45.015625 31 40.078125 35.4375 
Q 35.15625 39.890625 26.703125 39.890625 
Q 22.75 39.890625 18.8125 39.015625 
Q 14.890625 38.140625 10.796875 36.28125 
z
" id="DejaVuSans-53"/>
      </defs>
      <g transform="translate(67.096875 381.799219)scale(0.1 -0.1)">
       <use xlink:href="#DejaVuSans-50"/>
       <use x="63.623047" xlink:href="#DejaVuSans-46"/>
       <use x="95.410156" xlink:href="#DejaVuSans-53"/>
      </g>
     </g>
    </g>
    <g id="ytick_2">
     <g id="line2d_10">
      <g>
       <use style="stroke:#000000;stroke-width:0.8;" x="90" xlink:href="#m3c71a643c6" y="337.23"/>
      </g>
     </g>
     <g id="text_11">
      <!-- 3.0 -->
      <defs>
       <path d="M 40.578125 39.3125 
Q 47.65625 37.796875 51.625 33 
Q 55.609375 28.21875 55.609375 21.1875 
Q 55.609375 10.40625 48.1875 4.484375 
Q 40.765625 -1.421875 27.09375 -1.421875 
Q 22.515625 -1.421875 17.65625 -0.515625 
Q 12.796875 0.390625 7.625 2.203125 
L 7.625 11.71875 
Q 11.71875 9.328125 16.59375 8.109375 
Q 21.484375 6.890625 26.8125 6.890625 
Q 36.078125 6.890625 40.9375 10.546875 
Q 45.796875 14.203125 45.796875 21.1875 
Q 45.796875 27.640625 41.28125 31.265625 
Q 36.765625 34.90625 28.71875 34.90625 
L 20.21875 34.90625 
L 20.21875 43.015625 
L 29.109375 43.015625 
Q 36.375 43.015625 40.234375 45.921875 
Q 44.09375 48.828125 44.09375 54.296875 
Q 44.09375 59.90625 40.109375 62.90625 
Q 36.140625 65.921875 28.71875 65.921875 
Q 24.65625 65.921875 20.015625 65.03125 
Q 15.375 64.15625 9.8125 62.3125 
L 9.8125 71.09375 
Q 15.4375 72.65625 20.34375 73.4375 
Q 25.25 74.21875 29.59375 74.21875 
Q 40.828125 74.21875 47.359375 69.109375 
Q 53.90625 64.015625 53.90625 55.328125 
Q 53.90625 49.265625 50.4375 45.09375 
Q 46.96875 40.921875 40.578125 39.3125 
z
" id="DejaVuSans-51"/>
      </defs>
      <g transform="translate(67.096875 341.029219)scale(0.1 -0.1)">
       <use xlink:href="#DejaVuSans-51"/>
       <use x="63.623047" xlink:href="#DejaVuSans-46"/>
       <use x="95.410156" xlink:href="#DejaVuSans-48"/>
      </g>
     </g>
    </g>
    <g id="ytick_3">
     <g id="line2d_11">
      <g>
       <use style="stroke:#000000;stroke-width:0.8;" x="90" xlink:href="#m3c71a643c6" y="296.46"/>
      </g>
     </g>
     <g id="text_12">
      <!-- 3.5 -->
      <g transform="translate(67.096875 300.259219)scale(0.1 -0.1)">
       <use xlink:href="#DejaVuSans-51"/>
       <use x="63.623047" xlink:href="#DejaVuSans-46"/>
       <use x="95.410156" xlink:href="#DejaVuSans-53"/>
      </g>
     </g>
    </g>
    <g id="ytick_4">
     <g id="line2d_12">
      <g>
       <use style="stroke:#000000;stroke-width:0.8;" x="90" xlink:href="#m3c71a643c6" y="255.69"/>
      </g>
     </g>
     <g id="text_13">
      <!-- 4.0 -->
      <g transform="translate(67.096875 259.489219)scale(0.1 -0.1)">
       <use xlink:href="#DejaVuSans-52"/>
       <use x="63.623047" xlink:href="#DejaVuSans-46"/>
       <use x="95.410156" xlink:href="#DejaVuSans-48"/>
      </g>
     </g>
    </g>
    <g id="ytick_5">
     <g id="line2d_13">
      <g>
       <use style="stroke:#000000;stroke-width:0.8;" x="90" xlink:href="#m3c71a643c6" y="214.92"/>
      </g>
     </g>
     <g id="text_14">
      <!-- 4.5 -->
      <g transform="translate(67.096875 218.719219)scale(0.1 -0.1)">
       <use xlink:href="#DejaVuSans-52"/>
       <use x="63.623047" xlink:href="#DejaVuSans-46"/>
       <use x="95.410156" xlink:href="#DejaVuSans-53"/>
      </g>
     </g>
    </g>
    <g id="ytick_6">
     <g id="line2d_14">
      <g>
       <use style="stroke:#000000;stroke-width:0.8;" x="90" xlink:href="#m3c71a643c6" y="174.15"/>
      </g>
     </g>
     <g id="text_15">
      <!-- 5.0 -->
      <g transform="translate(67.096875 177.949219)scale(0.1 -0.1)">
       <use xlink:href="#DejaVuSans-53"/>
       <use x="63.623047" xlink:href="#DejaVuSans-46"/>
       <use x="95.410156" xlink:href="#DejaVuSans-48"/>
      </g>
     </g>
    </g>
    <g id="ytick_7">
     <g id="line2d_15">
      <g>
       <use style="stroke:#000000;stroke-width:0.8;" x="90" xlink:href="#m3c71a643c6" y="133.38"/>
      </g>
     </g>
     <g id="text_16">
      <!-- 5.5 -->
      <g transform="translate(67.096875 137.179219)scale(0.1 -0.1)">
       <use xlink:href="#DejaVuSans-53"/>
       <use x="63.623047" xlink:href="#DejaVuSans-46"/>
       <use x="95.410156" xlink:href="#DejaVuSans-53"/>
      </g>
     </g>
    </g>
    <g id="ytick_8">
     <g id="line2d_16">
      <g>
       <use style="stroke:#000000;stroke-width:0.8;" x="90" xlink:href="#m3c71a643c6" y="92.61"/>
      </g>
     </g>
     <g id="text_17">
      <!-- 6.0 -->
      <g transform="translate(67.096875 96.409219)scale(0.1 -0.1)">
       <use xlink:href="#DejaVuSans-54"/>
       <use x="63.623047" xlink:href="#DejaVuSans-46"/>
       <use x="95.410156" xlink:href="#DejaVuSans-48"/>
      </g>
     </g>
    </g>
    <g id="ytick_9">
     <g id="line2d_17">
      <g>
       <use style="stroke:#000000;stroke-width:0.8;" x="90" xlink:href="#m3c71a643c6" y="51.84"/>
      </g>
     </g>
     <g id="text_18">
      <!-- 6.5 -->
      <g transform="translate(67.096875 55.639219)scale(0.1 -0.1)">
       <use xlink:href="#DejaVuSans-54"/>
       <use x="63.623047" xlink:href="#DejaVuSans-46"/>
       <use x="95.410156" xlink:href="#DejaVuSans-53"/>
      </g>
     </g>
    </g>
    <g id="text_19">
     <!-- pace min/km -->
     <defs>
      <path d="M 18.109375 8.203125 
L 18.109375 -20.796875 
L 9.078125 -20.796875 
L 9.078125 54.6875 
L 18.109375 54.6875 
L 18.109375 46.390625 
Q 20.953125 51.265625 25.265625 53.625 
Q 29.59375 56 35.59375 56 
Q 45.5625 56 51.78125 48.09375 
Q 58.015625 40.1875 58.015625 27.296875 
Q 58.015625 14.40625 51.78125 6.484375 
Q 45.5625 -1.421875 35.59375 -1.421875 
Q 29.59375 -1.421875 25.265625 0.953125 
Q 20.953125 3.328125 18.109375 8.203125 
z
M 48.6875 27.296875 
Q 48.6875 37.203125 44.609375 42.84375 
Q 40.53125 48.484375 33.40625 48.484375 
Q 26.265625 48.484375 22.1875 42.84375 
Q 18.109375 37.203125 18.109375 27.296875 
Q 18.109375 17.390625 22.1875 11.75 
Q 26.265625 6.109375 33.40625 6.109375 
Q 40.53125 6.109375 44.609375 11.75 
Q 48.6875 17.390625 48.6875 27.296875 
z
" id="DejaVuSans-112"/>
      <path d="M 48.78125 52.59375 
L 48.78125 44.1875 
Q 44.96875 46.296875 41.140625 47.34375 
Q 37.3125 48.390625 33.40625 48.390625 
Q 24.65625 48.390625 19.8125 42.84375 
Q 14.984375 37.3125 14.984375 27.296875 
Q 14.984375 17.28125 19.8125 11.734375 
Q 24.65625 6.203125 33.40625 6.203125 
Q 37.3125 6.203125 41.140625 7.25 
Q 44.96875 8.296875 48.78125 10.40625 
L 48.78125 2.09375 
Q 45.015625 0.34375 40.984375 -0.53125 
Q 36.96875 -1.421875 32.421875 -1.421875 
Q 20.0625 -1.421875 12.78125 6.34375 
Q 5.515625 14.109375 5.515625 27.296875 
Q 5.515625 40.671875 12.859375 48.328125 
Q 20.21875 56 33.015625 56 
Q 37.15625 56 41.109375 55.140625 
Q 45.0625 54.296875 48.78125 52.59375 
z
" id="DejaVuSans-99"/>
      <path id="DejaVuSans-32"/>
      <path d="M 52 44.1875 
Q 55.375 50.25 60.0625 53.125 
Q 64.75 56 71.09375 56 
Q 79.640625 56 84.28125 50.015625 
Q 88.921875 44.046875 88.921875 33.015625 
L 88.921875 0 
L 79.890625 0 
L 79.890625 32.71875 
Q 79.890625 40.578125 77.09375 44.375 
Q 74.3125 48.1875 68.609375 48.1875 
Q 61.625 48.1875 57.5625 43.546875 
Q 53.515625 38.921875 53.515625 30.90625 
L 53.515625 0 
L 44.484375 0 
L 44.484375 32.71875 
Q 44.484375 40.625 41.703125 44.40625 
Q 38.921875 48.1875 33.109375 48.1875 
Q 26.21875 48.1875 22.15625 43.53125 
Q 18.109375 38.875 18.109375 30.90625 
L 18.109375 0 
L 9.078125 0 
L 9.078125 54.6875 
L 18.109375 54.6875 
L 18.109375 46.1875 
Q 21.1875 51.21875 25.484375 53.609375 
Q 29.78125 56 35.6875 56 
Q 41.65625 56 45.828125 52.96875 
Q 50 49.953125 52 44.1875 
z
" id="DejaVuSans-109"/>
      <path d="M 9.421875 54.6875 
L 18.40625 54.6875 
L 18.40625 0 
L 9.421875 0 
z
M 9.421875 75.984375 
L 18.40625 75.984375 
L 18.40625 64.59375 
L 9.421875 64.59375 
z
" id="DejaVuSans-105"/>
      <path d="M 54.890625 33.015625 
L 54.890625 0 
L 45.90625 0 
L 45.90625 32.71875 
Q 45.90625 40.484375 42.875 44.328125 
Q 39.84375 48.1875 33.796875 48.1875 
Q 26.515625 48.1875 22.3125 43.546875 
Q 18.109375 38.921875 18.109375 30.90625 
L 18.109375 0 
L 9.078125 0 
L 9.078125 54.6875 
L 18.109375 54.6875 
L 18.109375 46.1875 
Q 21.34375 51.125 25.703125 53.5625 
Q 30.078125 56 35.796875 56 
Q 45.21875 56 50.046875 50.171875 
Q 54.890625 44.34375 54.890625 33.015625 
z
" id="DejaVuSans-110"/>
      <path d="M 25.390625 72.90625 
L 33.6875 72.90625 
L 8.296875 -9.28125 
L 0 -9.28125 
z
" id="DejaVuSans-47"/>
      <path d="M 9.078125 75.984375 
L 18.109375 75.984375 
L 18.109375 31.109375 
L 44.921875 54.6875 
L 56.390625 54.6875 
L 27.390625 29.109375 
L 57.625 0 
L 45.90625 0 
L 18.109375 26.703125 
L 18.109375 0 
L 9.078125 0 
z
" id="DejaVuSans-107"/>
     </defs>
     <g transform="translate(58.9375 279.9825)rotate(-90)scale(0.2 -0.2)">
      <use xlink:href="#DejaVuSans-112"/>
      <use x="63.476562" xlink:href="#DejaVuSans-97"/>
      <use x="124.755859" xlink:href="#DejaVuSans-99"/>
      <use x="179.736328" xlink:href="#DejaVuSans-101"/>
      <use x="241.259766" xlink:href="#DejaVuSans-32"/>
      <use x="273.046875" xlink:href="#DejaVuSans-109"/>
      <use x="370.458984" xlink:href="#DejaVuSans-105"/>
      <use x="398.242188" xlink:href="#DejaVuSans-110"/>
      <use x="461.621094" xlink:href="#DejaVuSans-47"/>
      <use x="495.3125" xlink:href="#DejaVuSans-107"/>
      <use x="553.222656" xlink:href="#DejaVuSans-109"/>
     </g>
    </g>
   </g>
   <g id="line2d_18">
    <defs>
     <path d="M 0 2.5 
C 0.663008 2.5 1.29895 2.236584 1.767767 1.767767 
C 2.236584 1.29895 2.5 0.663008 2.5 0 
C 2.5 -0.663008 2.236584 -1.29895 1.767767 -1.767767 
C 1.29895 -2.236584 0.663008 -2.5 0 -2.5 
C -0.663008 -2.5 -1.29895 -2.236584 -1.767767 -1.767767 
C -2.236584 -1.29895 -2.5 -0.663008 -2.5 0 
C -2.5 0.663008 -2.236584 1.29895 -1.767767 1.767767 
C -1.29895 2.236584 -0.663008 2.5 0 2.5 
z
" id="m019b4b47d3" style="stroke:#ff0000;"/>
    </defs>
    <g clip-path="url(#p35b11a6843)">
     <use style="fill:#ff0000;stroke:#ff0000;" x="165.6" xlink:href="#m019b4b47d3" y="217.29825"/>
     <use style="fill:#ff0000;stroke:#ff0000;" x="180" xlink:href="#m019b4b47d3" y="217.795976"/>
     <use style="fill:#ff0000;stroke:#ff0000;" x="194.4" xlink:href="#m019b4b47d3" y="156.041325"/>
     <use style="fill:#ff0000;stroke:#ff0000;" x="208.8" xlink:href="#m019b4b47d3" y="243.077501"/>
     <use style="fill:#ff0000;stroke:#ff0000;" x="223.2" xlink:href="#m019b4b47d3" y="263.573552"/>
     <use style="fill:#ff0000;stroke:#ff0000;" x="252" xlink:href="#m019b4b47d3" y="290.791937"/>
     <use style="fill:#ff0000;stroke:#ff0000;" x="266.4" xlink:href="#m019b4b47d3" y="269.996619"/>
     <use style="fill:#ff0000;stroke:#ff0000;" x="280.8" xlink:href="#m019b4b47d3" y="286.280786"/>
     <use style="fill:#ff0000;stroke:#ff0000;" x="295.2" xlink:href="#m019b4b47d3" y="288.889602"/>
     <use style="fill:#ff0000;stroke:#ff0000;" x="309.6" xlink:href="#m019b4b47d3" y="293.295603"/>
     <use style="fill:#ff0000;stroke:#ff0000;" x="352.8" xlink:href="#m019b4b47d3" y="282.589794"/>
     <use style="fill:#ff0000;stroke:#ff0000;" x="367.2" xlink:href="#m019b4b47d3" y="305.405663"/>
     <use style="fill:#ff0000;stroke:#ff0000;" x="381.6" xlink:href="#m019b4b47d3" y="301.643814"/>
     <use style="fill:#ff0000;stroke:#ff0000;" x="396" xlink:href="#m019b4b47d3" y="320.446616"/>
     <use style="fill:#ff0000;stroke:#ff0000;" x="410.4" xlink:href="#m019b4b47d3" y="326.405023"/>
     <use style="fill:#ff0000;stroke:#ff0000;" x="424.8" xlink:href="#m019b4b47d3" y="310.468699"/>
     <use style="fill:#ff0000;stroke:#ff0000;" x="439.2" xlink:href="#m019b4b47d3" y="326.153804"/>
     <use style="fill:#ff0000;stroke:#ff0000;" x="453.6" xlink:href="#m019b4b47d3" y="330.791699"/>
     <use style="fill:#ff0000;stroke:#ff0000;" x="468" xlink:href="#m019b4b47d3" y="328.601582"/>
     <use style="fill:#ff0000;stroke:#ff0000;" x="482.4" xlink:href="#m019b4b47d3" y="331.886758"/>
     <use style="fill:#ff0000;stroke:#ff0000;" x="496.8" xlink:href="#m019b4b47d3" y="329.600018"/>
     <use style="fill:#ff0000;stroke:#ff0000;" x="511.2" xlink:href="#m019b4b47d3" y="324.092517"/>
     <use style="fill:#ff0000;stroke:#ff0000;" x="525.6" xlink:href="#m019b4b47d3" y="325.606274"/>
     <use style="fill:#ff0000;stroke:#ff0000;" x="540" xlink:href="#m019b4b47d3" y="330.276378"/>
     <use style="fill:#ff0000;stroke:#ff0000;" x="554.4" xlink:href="#m019b4b47d3" y="328.859243"/>
     <use style="fill:#ff0000;stroke:#ff0000;" x="568.8" xlink:href="#m019b4b47d3" y="337.329844"/>
     <use style="fill:#ff0000;stroke:#ff0000;" x="583.2" xlink:href="#m019b4b47d3" y="334.463367"/>
    </g>
   </g>
   <g id="line2d_19">
    <path clip-path="url(#p35b11a6843)" d="M 168.722677 433 
L 169.714286 402.666598 
L 171.112782 364.582661 
L 172.511278 330.850312 
L 173.909774 301.143428 
L 175.308271 275.153612 
L 176.706767 252.589482 
L 178.105263 233.175971 
L 179.503759 216.653654 
L 180.902256 202.778093 
L 182.300752 191.319206 
L 183.699248 182.060646 
L 185.097744 174.799214 
L 186.496241 169.344275 
L 187.894737 165.517203 
L 189.293233 163.150841 
L 190.691729 162.088978 
L 192.090226 162.18584 
L 193.488722 163.305606 
L 194.887218 165.321932 
L 196.285714 168.117495 
L 197.684211 171.583553 
L 199.082707 175.619519 
L 200.481203 180.132546 
L 203.278195 190.254763 
L 206.075188 201.347603 
L 215.864662 241.337831 
L 218.661654 251.778986 
L 221.458647 261.393747 
L 224.255639 270.057864 
L 227.052632 277.690497 
L 229.849624 284.24798 
L 231.24812 287.118653 
L 232.646617 289.718151 
L 234.045113 292.049032 
L 235.443609 294.115206 
L 236.842105 295.921802 
L 238.240602 297.47504 
L 239.639098 298.782111 
L 241.037594 299.851061 
L 242.43609 300.690688 
L 243.834586 301.310434 
L 245.233083 301.720296 
L 246.631579 301.930732 
L 248.030075 301.952576 
L 249.428571 301.796964 
L 250.827068 301.475255 
L 252.225564 300.998964 
L 253.62406 300.379698 
L 256.421053 298.758778 
L 259.218045 296.705034 
L 262.015038 294.309102 
L 266.210526 290.263673 
L 273.203008 282.982047 
L 278.796992 277.296884 
L 282.992481 273.414295 
L 285.789474 271.09146 
L 288.586466 269.022033 
L 291.383459 267.233379 
L 294.180451 265.746233 
L 296.977444 264.574997 
L 299.774436 263.728099 
L 302.571429 263.208395 
L 305.368421 263.013609 
L 308.165414 263.136802 
L 310.962406 263.566853 
L 313.759398 264.288968 
L 316.556391 265.285174 
L 319.353383 266.534833 
L 322.150376 268.015131 
L 324.947368 269.70157 
L 329.142857 272.561267 
L 333.338346 275.737168 
L 338.932331 280.307764 
L 357.112782 295.56525 
L 362.706767 299.791146 
L 366.902256 302.693273 
L 371.097744 305.33758 
L 375.293233 307.710401 
L 379.488722 309.808748 
L 383.684211 311.639488 
L 387.879699 313.218253 
L 392.075188 314.56814 
L 396.270677 315.71825 
L 401.864662 316.999312 
L 408.857143 318.317075 
L 432.631579 322.47029 
L 439.62406 324.010069 
L 448.015038 326.095714 
L 466.195489 330.734266 
L 471.789474 331.870408 
L 475.984962 332.533053 
L 480.180451 332.994151 
L 484.37594 333.224636 
L 488.571429 333.203743 
L 492.766917 332.921397 
L 496.962406 332.380409 
L 501.157895 331.598379 
L 505.353383 330.609153 
L 510.947368 329.058415 
L 522.135338 325.850076 
L 526.330827 324.911448 
L 529.12782 324.4556 
L 531.924812 324.175282 
L 534.721805 324.102909 
L 537.518797 324.268012 
L 540.315789 324.695601 
L 543.112782 325.404273 
L 545.909774 326.404035 
L 548.706767 327.693835 
L 551.503759 329.258763 
L 554.300752 331.066903 
L 558.496241 334.113855 
L 564.090226 338.32111 
L 566.887218 340.181305 
L 568.285714 340.970149 
L 569.684211 341.626745 
L 571.082707 342.1186 
L 572.481203 342.409822 
L 573.879699 342.460896 
L 575.278195 342.228454 
L 576.676692 341.665037 
L 578.075188 340.718837 
L 579.473684 339.33344 
L 580.87218 337.447552 
L 582.270677 334.994715 
L 583.669173 331.903011 
L 585.067669 328.094757 
L 586.466165 323.486185 
L 587.864662 317.987111 
L 589.263158 311.50059 
L 590.661654 303.922561 
L 592.06015 295.141477 
L 593.458647 285.03792 
L 594.857143 273.484203 
L 596.255639 260.34396 
L 597.654135 245.471716 
L 599.052632 228.712451 
L 600.451128 209.901135 
L 601.849624 188.862263 
L 603.24812 165.409361 
L 604.646617 139.344481 
L 606.045113 110.457682 
L 607.443609 78.526485 
L 608.842105 43.315321 
L 610.423907 -1 
L 610.423907 -1 
" style="fill:none;stroke:#0000ff;stroke-linecap:square;stroke-width:2;"/>
   </g>
   <g id="line2d_20">
    <path clip-path="url(#p35b11a6843)" d="M 151.848348 433 
L 152.932331 408.072715 
L 154.330827 378.624508 
L 155.729323 351.736193 
L 157.12782 327.262006 
L 158.526316 305.062003 
L 159.924812 285.001906 
L 161.323308 266.952937 
L 162.721805 250.791664 
L 164.120301 236.399847 
L 165.518797 223.66429 
L 166.917293 212.476688 
L 168.315789 202.73349 
L 169.714286 194.335746 
L 171.112782 187.18898 
L 172.511278 181.203043 
L 173.909774 176.291984 
L 175.308271 172.373918 
L 176.706767 169.370897 
L 178.105263 167.208785 
L 179.503759 165.817132 
L 180.902256 165.129055 
L 182.300752 165.08112 
L 183.699248 165.613225 
L 185.097744 166.668486 
L 186.496241 168.193128 
L 187.894737 170.136375 
L 189.293233 172.450343 
L 190.691729 175.089939 
L 193.488722 181.178978 
L 196.285714 188.094729 
L 200.481203 199.436718 
L 211.669173 230.511471 
L 214.466165 237.658628 
L 217.263158 244.350731 
L 220.06015 250.521201 
L 222.857143 256.121157 
L 225.654135 261.117553 
L 228.451128 265.491438 
L 231.24812 269.23631 
L 234.045113 272.356578 
L 236.842105 274.866128 
L 238.240602 275.898479 
L 239.639098 276.786971 
L 241.037594 277.53542 
L 242.43609 278.148 
L 243.834586 278.629207 
L 245.233083 278.983827 
L 246.631579 279.216904 
L 249.428571 279.33971 
L 252.225564 279.042013 
L 255.022556 278.370517 
L 257.819549 277.373439 
L 260.616541 276.099792 
L 263.413534 274.598724 
L 267.609023 272.026971 
L 273.203008 268.246981 
L 281.593985 262.531312 
L 285.789474 259.934922 
L 289.984962 257.660193 
L 292.781955 256.367658 
L 295.578947 255.281077 
L 298.37594 254.419591 
L 301.172932 253.798947 
L 303.969925 253.43152 
L 306.766917 253.32638 
L 309.56391 253.489366 
L 312.360902 253.923199 
L 315.157895 254.627604 
L 317.954887 255.599455 
L 320.75188 256.832937 
L 323.548872 258.319723 
L 326.345865 260.049155 
L 329.142857 262.008446 
L 331.93985 264.182885 
L 336.135338 267.811606 
L 340.330827 271.825605 
L 344.526316 276.157487 
L 350.120301 282.303652 
L 358.511278 291.95768 
L 368.300752 303.174979 
L 373.894737 309.243733 
L 378.090226 313.521494 
L 382.285714 317.50671 
L 386.481203 321.155502 
L 390.676692 324.432251 
L 394.87218 327.310059 
L 397.669173 328.997755 
L 400.466165 330.496958 
L 403.263158 331.806419 
L 406.06015 332.926662 
L 408.857143 333.859952 
L 411.654135 334.610239 
L 414.451128 335.183089 
L 417.24812 335.585604 
L 420.045113 335.826321 
L 424.240602 335.905938 
L 428.43609 335.682221 
L 432.631579 335.19844 
L 436.827068 334.501741 
L 442.421053 333.327821 
L 450.81203 331.287331 
L 460.601504 328.947825 
L 466.195489 327.826678 
L 471.789474 326.958057 
L 475.984962 326.502009 
L 480.180451 326.225075 
L 484.37594 326.127352 
L 489.969925 326.257589 
L 495.56391 326.638271 
L 503.954887 327.502593 
L 513.744361 328.527876 
L 519.338346 328.898744 
L 523.533835 328.998042 
L 527.729323 328.915149 
L 531.924812 328.645362 
L 537.518797 328.039957 
L 547.308271 326.863072 
L 550.105263 326.725857 
L 552.902256 326.8097 
L 555.699248 327.214567 
L 557.097744 327.574082 
L 558.496241 328.060617 
L 559.894737 328.692731 
L 561.293233 329.490549 
L 562.691729 330.47584 
L 564.090226 331.672107 
L 565.488722 333.104671 
L 566.887218 334.800766 
L 568.285714 336.789627 
L 569.684211 339.102592 
L 571.082707 341.7732 
L 572.481203 344.837292 
L 573.879699 348.333118 
L 575.278195 352.30145 
L 576.676692 356.785688 
L 578.075188 361.831979 
L 579.473684 367.489339 
L 580.87218 373.80977 
L 582.270677 380.848389 
L 583.669173 388.663558 
L 585.067669 397.317019 
L 586.466165 406.874027 
L 587.864662 417.403492 
L 589.706161 433 
L 589.706161 433 
" style="fill:none;stroke:#0000ff;stroke-linecap:square;stroke-width:2;"/>
   </g>
   <g id="line2d_21">
    <path clip-path="url(#p35b11a6843)" d="M 130.936754 433 
L 131.954887 406.691155 
L 133.353383 373.585739 
L 134.75188 343.335892 
L 136.150376 315.772885 
L 137.548872 290.735535 
L 138.947368 268.069952 
L 140.345865 247.629276 
L 141.744361 229.273441 
L 143.142857 212.868928 
L 144.541353 198.288532 
L 145.93985 185.411139 
L 147.338346 174.1215 
L 148.736842 164.31002 
L 150.135338 155.872543 
L 151.533835 148.710156 
L 152.932331 142.728985 
L 154.330827 137.840005 
L 155.729323 133.958856 
L 157.12782 131.005656 
L 158.526316 128.904828 
L 159.924812 127.584931 
L 161.323308 126.978489 
L 162.721805 127.021835 
L 164.120301 127.65495 
L 165.518797 128.821315 
L 166.917293 130.467763 
L 168.315789 132.544335 
L 169.714286 135.004143 
L 171.112782 137.803239 
L 173.909774 144.257407 
L 176.706767 151.609174 
L 179.503759 159.600007 
L 183.699248 172.30565 
L 193.488722 202.400061 
L 197.684211 214.52304 
L 201.879699 225.80261 
L 204.676692 232.776286 
L 207.473684 239.278315 
L 210.270677 245.29153 
L 213.067669 250.808339 
L 215.864662 255.82933 
L 218.661654 260.362 
L 221.458647 264.419607 
L 224.255639 268.020121 
L 227.052632 271.185294 
L 229.849624 273.939816 
L 232.646617 276.310564 
L 235.443609 278.325941 
L 238.240602 280.015284 
L 241.037594 281.408359 
L 243.834586 282.534907 
L 246.631579 283.424271 
L 249.428571 284.105065 
L 252.225564 284.604905 
L 256.421053 285.072743 
L 260.616541 285.275547 
L 266.210526 285.262125 
L 274.601504 284.935878 
L 285.789474 284.519621 
L 292.781955 284.511909 
L 298.37594 284.713249 
L 303.969925 285.118669 
L 309.56391 285.731055 
L 315.157895 286.542494 
L 322.150376 287.812567 
L 329.142857 289.329055 
L 337.533835 291.412092 
L 347.323308 294.115174 
L 358.511278 297.455087 
L 372.496241 301.889353 
L 386.481203 306.554818 
L 403.263158 312.411068 
L 425.639098 320.264836 
L 434.030075 322.985522 
L 441.022556 325.040262 
L 446.616541 326.494816 
L 452.210526 327.742928 
L 457.804511 328.752375 
L 463.398496 329.496507 
L 468.992481 329.957001 
L 474.586466 330.126647 
L 480.180451 330.012024 
L 485.774436 329.635855 
L 491.368421 329.038806 
L 499.759398 327.864578 
L 512.345865 326.061895 
L 517.93985 325.521604 
L 522.135338 325.323436 
L 526.330827 325.354239 
L 530.526316 325.653487 
L 534.721805 326.249829 
L 538.917293 327.155964 
L 543.112782 328.36256 
L 547.308271 329.8311 
L 552.902256 332.058595 
L 558.496241 334.295407 
L 561.293233 335.266141 
L 564.090226 336.028371 
L 566.887218 336.477793 
L 568.285714 336.547207 
L 569.684211 336.490127 
L 571.082707 336.287513 
L 572.481203 335.918771 
L 573.879699 335.361676 
L 575.278195 334.592279 
L 576.676692 333.584821 
L 578.075188 332.311637 
L 579.473684 330.743065 
L 580.87218 328.847341 
L 582.270677 326.590498 
L 583.669173 323.936259 
L 585.067669 320.845926 
L 586.466165 317.278266 
L 587.864662 313.189395 
L 589.263158 308.53265 
L 590.661654 303.25847 
L 592.06015 297.314261 
L 593.458647 290.644265 
L 594.857143 283.189416 
L 596.255639 274.887204 
L 597.654135 265.67152 
L 599.052632 255.472509 
L 600.451128 244.216412 
L 601.849624 231.825401 
L 603.24812 218.217417 
L 604.646617 203.305994 
L 606.045113 187.000087 
L 607.443609 169.203883 
L 608.842105 149.816622 
L 610.240602 128.732398 
L 611.639098 105.839961 
L 613.037594 81.022517 
L 614.43609 54.157514 
L 616.999548 -1 
L 616.999548 -1 
" style="fill:none;stroke:#0000ff;stroke-linecap:square;stroke-width:2;"/>
   </g>
   <g id="line2d_22">
    <path clip-path="url(#p35b11a6843)" d="M 154.891004 433 
L 155.729323 407.841809 
L 157.12782 370.103518 
L 158.526316 336.30439 
L 159.924812 306.167629 
L 161.323308 279.430855 
L 162.721805 255.845534 
L 164.120301 235.176432 
L 165.518797 217.201079 
L 166.917293 201.709254 
L 168.315789 188.502477 
L 169.714286 177.39353 
L 171.112782 168.205976 
L 172.511278 160.773711 
L 173.909774 154.940512 
L 175.308271 150.55961 
L 176.706767 147.493279 
L 178.105263 145.612424 
L 179.503759 144.796202 
L 180.902256 144.931637 
L 182.300752 145.913258 
L 183.699248 147.642747 
L 185.097744 150.028601 
L 186.496241 152.985799 
L 187.894737 156.435485 
L 189.293233 160.304665 
L 192.090226 169.037061 
L 194.887218 178.705244 
L 200.481203 199.309497 
L 206.075188 219.673351 
L 208.87218 229.242588 
L 211.669173 238.214685 
L 214.466165 246.494624 
L 217.263158 254.018624 
L 220.06015 260.749686 
L 222.857143 266.673536 
L 225.654135 271.794943 
L 228.451128 276.134405 
L 231.24812 279.725153 
L 232.646617 281.252962 
L 234.045113 282.61048 
L 235.443609 283.804298 
L 236.842105 284.841355 
L 238.240602 285.728875 
L 239.639098 286.474311 
L 241.037594 287.085297 
L 242.43609 287.56959 
L 245.233083 288.189515 
L 248.030075 288.397086 
L 250.827068 288.254781 
L 253.62406 287.823529 
L 256.421053 287.161872 
L 260.616541 285.857697 
L 266.210526 283.798316 
L 274.601504 280.699039 
L 278.796992 279.381737 
L 282.992481 278.323479 
L 287.18797 277.574481 
L 289.984962 277.262454 
L 292.781955 277.105696 
L 295.578947 277.105082 
L 298.37594 277.25848 
L 302.571429 277.766206 
L 306.766917 278.583467 
L 310.962406 279.675441 
L 315.157895 281.0007 
L 320.75188 283.051491 
L 327.744361 285.913021 
L 345.924812 293.537888 
L 352.917293 296.132465 
L 358.511278 297.988397 
L 364.105263 299.644137 
L 371.097744 301.461031 
L 379.488722 303.37175 
L 397.669173 307.385623 
L 404.661654 309.224416 
L 410.255639 310.914309 
L 415.849624 312.826649 
L 421.443609 314.96619 
L 427.037594 317.315562 
L 434.030075 320.483623 
L 452.210526 328.900936 
L 457.804511 331.144023 
L 462 332.593057 
L 466.195489 333.789355 
L 470.390977 334.68993 
L 473.18797 335.107701 
L 475.984962 335.368981 
L 478.781955 335.467137 
L 481.578947 335.397879 
L 484.37594 335.159551 
L 487.172932 334.753386 
L 489.969925 334.183746 
L 494.165414 333.040556 
L 498.360902 331.588552 
L 502.556391 329.887079 
L 508.150376 327.367724 
L 516.541353 323.545234 
L 520.736842 321.878265 
L 523.533835 320.948434 
L 526.330827 320.211443 
L 529.12782 319.707273 
L 531.924812 319.473784 
L 534.721805 319.54527 
L 537.518797 319.950791 
L 540.315789 320.712282 
L 543.112782 321.842397 
L 545.909774 323.342097 
L 548.706767 325.197928 
L 551.503759 327.37901 
L 554.300752 329.833673 
L 558.496241 333.854333 
L 564.090226 339.209734 
L 566.887218 341.498761 
L 568.285714 342.447559 
L 569.684211 343.220141 
L 571.082707 343.777924 
L 572.481203 344.078647 
L 573.879699 344.076152 
L 575.278195 343.720161 
L 576.676692 342.956036 
L 578.075188 341.724532 
L 579.473684 339.961544 
L 580.87218 337.59784 
L 582.270677 334.558787 
L 583.669173 330.764065 
L 585.067669 326.127373 
L 586.466165 320.556118 
L 587.864662 313.951103 
L 589.263158 306.206192 
L 590.661654 297.207977 
L 592.06015 286.835419 
L 593.458647 274.959488 
L 594.857143 261.442783 
L 596.255639 246.139148 
L 597.654135 228.893262 
L 599.052632 209.540232 
L 600.451128 187.905156 
L 601.849624 163.802686 
L 603.24812 137.036568 
L 604.646617 107.399172 
L 606.045113 74.671002 
L 607.443609 38.620201 
L 608.842171 -1 
L 608.842171 -1 
" style="fill:none;stroke:#0000ff;stroke-linecap:square;stroke-width:2;"/>
   </g>
   <g id="line2d_23">
    <path clip-path="url(#p35b11a6843)" d="M 118.19406 -1 
L 119.368421 39.113485 
L 120.766917 81.738886 
L 122.165414 119.589257 
L 123.56391 153.014565 
L 124.962406 182.346485 
L 126.360902 207.899097 
L 127.759398 229.969574 
L 129.157895 248.838842 
L 130.556391 264.772226 
L 131.954887 278.020074 
L 133.353383 288.81837 
L 134.75188 297.389318 
L 136.150376 303.941918 
L 137.548872 308.672523 
L 138.947368 311.765373 
L 140.345865 313.393124 
L 141.744361 313.71735 
L 143.142857 312.889034 
L 144.541353 311.049047 
L 145.93985 308.328605 
L 147.338346 304.849716 
L 148.736842 300.725613 
L 150.135338 296.061169 
L 152.932331 285.49136 
L 155.729323 273.827098 
L 165.518797 231.862715 
L 168.315789 221.093064 
L 171.112782 211.331944 
L 173.909774 202.733805 
L 175.308271 198.905221 
L 176.706767 195.402951 
L 178.105263 192.233294 
L 179.503759 189.400222 
L 180.902256 186.905557 
L 182.300752 184.749144 
L 183.699248 182.929016 
L 185.097744 181.441546 
L 186.496241 180.281601 
L 187.894737 179.442681 
L 189.293233 178.917055 
L 190.691729 178.69589 
L 192.090226 178.76937 
L 193.488722 179.126817 
L 194.887218 179.756795 
L 196.285714 180.647218 
L 197.684211 181.785445 
L 199.082707 183.158376 
L 200.481203 184.752533 
L 201.879699 186.554149 
L 204.676692 190.723685 
L 207.473684 195.553804 
L 210.270677 200.931093 
L 213.067669 206.743717 
L 217.263158 216.042299 
L 232.646617 251.171953 
L 236.842105 259.860518 
L 239.639098 265.24046 
L 242.43609 270.242303 
L 245.233083 274.834005 
L 248.030075 278.991478 
L 250.827068 282.698273 
L 253.62406 285.945209 
L 256.421053 288.729949 
L 259.218045 291.056529 
L 262.015038 292.934853 
L 264.81203 294.380159 
L 267.609023 295.41247 
L 270.406015 296.056027 
L 273.203008 296.338719 
L 276 296.291507 
L 278.796992 295.947863 
L 281.593985 295.343205 
L 284.390977 294.514362 
L 287.18797 293.499043 
L 291.383459 291.70973 
L 296.977444 289.024756 
L 305.368421 284.938548 
L 309.56391 283.10697 
L 313.759398 281.542799 
L 316.556391 280.687634 
L 319.353383 280.005612 
L 322.150376 279.513018 
L 324.947368 279.22297 
L 327.744361 279.145372 
L 330.541353 279.28692 
L 333.338346 279.65113 
L 336.135338 280.238398 
L 338.932331 281.046098 
L 341.729323 282.068704 
L 344.526316 283.297939 
L 347.323308 284.722953 
L 350.120301 286.330517 
L 354.315789 289.049954 
L 358.511278 292.085284 
L 364.105263 296.506155 
L 371.097744 302.384682 
L 380.887218 310.629025 
L 386.481203 315.02058 
L 390.676692 318.038324 
L 394.87218 320.755578 
L 399.067669 323.125102 
L 401.864662 324.493216 
L 404.661654 325.682622 
L 407.458647 326.688009 
L 410.255639 327.506628 
L 413.052632 328.138345 
L 415.849624 328.585651 
L 418.646617 328.853647 
L 421.443609 328.949993 
L 424.240602 328.884828 
L 428.43609 328.51219 
L 432.631579 327.856089 
L 436.827068 326.977521 
L 442.421053 325.57996 
L 453.609023 322.686921 
L 457.804511 321.805043 
L 462 321.146664 
L 466.195489 320.773329 
L 468.992481 320.707842 
L 471.789474 320.802415 
L 474.586466 321.064704 
L 477.383459 321.498596 
L 480.180451 322.103867 
L 482.977444 322.875882 
L 487.172932 324.324868 
L 491.368421 326.074873 
L 496.962406 328.738857 
L 506.75188 333.546479 
L 510.947368 335.285055 
L 513.744361 336.211721 
L 516.541353 336.890059 
L 519.338346 337.2663 
L 522.135338 337.287966 
L 524.932331 336.905527 
L 526.330827 336.548556 
L 527.729323 336.07429 
L 529.12782 335.478257 
L 530.526316 334.756571 
L 531.924812 333.906021 
L 534.721805 331.809382 
L 537.518797 329.179627 
L 540.315789 326.025065 
L 543.112782 322.374683 
L 545.909774 318.282176 
L 548.706767 313.830407 
L 559.894737 295.396262 
L 561.293233 293.481855 
L 562.691729 291.781636 
L 564.090226 290.344985 
L 565.488722 289.225918 
L 566.887218 288.483359 
L 568.285714 288.181414 
L 569.684211 288.389666 
L 571.082707 289.183474 
L 572.481203 290.644286 
L 573.879699 292.859959 
L 575.278195 295.925102 
L 576.676692 299.941415 
L 578.075188 305.018055 
L 579.473684 311.272002 
L 580.87218 318.828451 
L 582.270677 327.821205 
L 583.669173 338.393089 
L 585.067669 350.696374 
L 586.466165 364.893217 
L 587.864662 381.156116 
L 589.263158 399.668378 
L 591.394795 433 
L 591.394795 433 
" style="fill:none;stroke:#0000ff;stroke-linecap:square;stroke-width:2;"/>
   </g>
   <g id="patch_3">
    <path d="M 90 378 
L 90 51.84 
" style="fill:none;stroke:#000000;stroke-linecap:square;stroke-linejoin:miter;stroke-width:0.8;"/>
   </g>
   <g id="patch_4">
    <path d="M 648 378 
L 648 51.84 
" style="fill:none;stroke:#000000;stroke-linecap:square;stroke-linejoin:miter;stroke-width:0.8;"/>
   </g>
   <g id="patch_5">
    <path d="M 90 378 
L 648 378 
" style="fill:none;stroke:#000000;stroke-linecap:square;stroke-linejoin:miter;stroke-width:0.8;"/>
   </g>
   <g id="patch_6">
    <path d="M 90 51.84 
L 648 51.84 
" style="fill:none;stroke:#000000;stroke-linecap:square;stroke-linejoin:miter;stroke-width:0.8;"/>
   </g>
  </g>
 </g>
 <defs>
  <clipPath id="p35b11a6843">
   <rect height="326.16" width="558" x="90" y="51.84"/>
  </clipPath>
 </defs>
</svg>
