<?xml version="1.0" encoding="utf-8" standalone="no"?>
<!DOCTYPE svg PUBLIC "-//W3C//DTD SVG 1.1//EN"
  "http://www.w3.org/Graphics/SVG/1.1/DTD/svg11.dtd">
<!-- Created with matplotlib (http://matplotlib.org/) -->
<svg height="360pt" version="1.1" viewBox="0 0 720 360" width="720pt" xmlns="http://www.w3.org/2000/svg" xmlns:xlink="http://www.w3.org/1999/xlink">
 <defs>
  <style type="text/css">
*{stroke-linecap:butt;stroke-linejoin:round;}
  </style>
 </defs>
 <g id="figure_1">
  <g id="patch_1">
   <path d="M 0 360 
L 720 360 
L 720 0 
L 0 0 
z
" style="fill:none;"/>
  </g>
  <g id="axes_1">
   <g id="patch_2">
    <path d="M 90 315 
L 343.636364 315 
L 343.636364 43.2 
L 90 43.2 
z
" style="fill:none;"/>
   </g>
   <g id="patch_3">
    <path clip-path="url(#p75002b7015)" d="M 101.528926 68.660607 
L 103.316356 75.895255 
L 105.103786 81.758592 
L 106.891217 86.369023 
L 108.678647 89.769024 
L 110.466077 92.031599 
L 112.253508 93.441936 
L 114.040938 94.571049 
L 115.828368 96.053814 
L 117.615799 98.304042 
L 119.403229 101.451325 
L 121.190659 105.433293 
L 122.97809 110.09789 
L 124.76552 115.268153 
L 126.55295 120.775119 
L 128.340381 126.471979 
L 130.127811 132.238471 
L 131.915241 137.980461 
L 133.702672 143.627289 
L 135.490102 149.128229 
L 137.277532 154.448767 
L 139.064963 159.567104 
L 140.852393 164.471077 
L 142.639823 169.1556 
L 144.427254 173.620626 
L 146.214684 177.869586 
L 148.002114 181.908234 
L 149.789544 185.74382 
L 151.576975 189.384511 
L 153.364405 192.838995 
L 155.151835 196.116216 
L 156.939266 199.225191 
L 158.726696 202.174899 
L 160.514126 204.974191 
L 162.301557 207.631744 
L 164.088987 210.156017 
L 165.876417 212.555221 
L 167.663848 214.837299 
L 169.451278 217.009909 
L 171.238708 219.080402 
L 173.026139 221.055821 
L 174.813569 222.94288 
L 176.600999 224.747965 
L 178.38843 226.477128 
L 180.17586 228.136081 
L 181.96329 229.730196 
L 183.750721 231.264513 
L 185.538151 232.743734 
L 187.325581 234.172237 
L 189.113012 235.554076 
L 190.900442 236.892993 
L 192.687872 238.192427 
L 194.475303 239.455523 
L 196.262733 240.685145 
L 198.050163 241.883883 
L 199.837594 243.054071 
L 201.625024 244.197795 
L 203.412454 245.316906 
L 205.199885 246.413034 
L 206.987315 247.487599 
L 208.774745 248.541826 
L 210.562176 249.576754 
L 212.349606 250.593251 
L 214.137036 251.592023 
L 215.924467 252.573632 
L 217.711897 253.538502 
L 219.499327 254.486934 
L 221.286758 255.419116 
L 223.074188 256.335138 
L 224.861618 257.234996 
L 226.649049 258.118611 
L 228.436479 258.985833 
L 230.223909 259.836455 
L 232.01134 260.670218 
L 233.79877 261.486826 
L 235.5862 262.285946 
L 237.373631 263.067221 
L 239.161061 263.830269 
L 240.948491 264.574696 
L 242.735922 265.300089 
L 244.523352 266.006022 
L 246.310782 266.692057 
L 248.098213 267.357734 
L 249.885643 268.002576 
L 251.673073 268.62607 
L 253.460504 269.22767 
L 255.247934 269.806774 
L 257.035364 270.362716 
L 258.822795 270.894749 
L 260.610225 271.402023 
L 262.397655 271.883566 
L 264.185086 272.33826 
L 265.972516 272.76482 
L 267.759946 273.161771 
L 269.547377 273.527428 
L 271.334807 273.859884 
L 273.122237 274.157004 
L 274.909667 274.41644 
L 276.697098 274.635664 
L 278.484528 274.812034 
L 280.271958 274.942903 
L 282.059389 275.025778 
L 283.846819 275.058552 
L 285.634249 275.039804 
L 287.42168 274.969191 
L 289.20911 274.847913 
L 290.99654 274.679262 
L 292.783971 274.469194 
L 294.571401 274.226881 
L 296.358831 273.965102 
L 298.146262 273.700276 
L 299.933692 273.451747 
L 301.721122 273.23969 
L 303.508553 273.080509 
L 305.295983 272.977879 
L 307.083413 272.906606 
L 308.870844 272.785908 
L 310.658274 272.441023 
L 312.445704 271.562482 
L 314.233135 269.692672 
L 316.020565 266.274584 
L 317.807995 260.744618 
L 319.595426 252.586759 
L 321.382856 241.304883 
L 323.170286 226.355333 
L 324.957717 207.088325 
L 326.745147 182.708727 
L 328.532577 152.247625 
L 330.320008 114.536062 
L 332.107438 68.176283 
L 332.107438 604.338208 
L 330.320008 540.960525 
L 328.532577 489.427328 
L 326.745147 447.788969 
L 324.957717 414.412132 
L 323.170286 387.938122 
L 321.382856 367.245423 
L 319.595426 351.411653 
L 317.807995 339.666065 
L 316.020565 331.323869 
L 314.233135 325.712745 
L 312.445704 322.139984 
L 310.658274 319.942254 
L 308.870844 318.574676 
L 307.083413 317.656404 
L 305.295983 316.954517 
L 303.508553 316.341043 
L 301.721122 315.752674 
L 299.933692 315.16246 
L 298.146262 314.562349 
L 296.358831 313.953121 
L 294.571401 313.338872 
L 292.783971 312.724156 
L 290.99654 312.112644 
L 289.20911 311.506635 
L 287.42168 310.907026 
L 285.634249 310.313504 
L 283.846819 309.724844 
L 282.059389 309.139212 
L 280.271958 308.554444 
L 278.484528 307.968283 
L 276.697098 307.378552 
L 274.909667 306.78328 
L 273.122237 306.18078 
L 271.334807 305.569691 
L 269.547377 304.948985 
L 267.759946 304.317959 
L 265.972516 303.676209 
L 264.185086 303.023598 
L 262.397655 302.360215 
L 260.610225 301.686339 
L 258.822795 301.002396 
L 257.035364 300.308924 
L 255.247934 299.606538 
L 253.460504 298.895896 
L 251.673073 298.177677 
L 249.885643 297.452551 
L 248.098213 296.721156 
L 246.310782 295.984088 
L 244.523352 295.241877 
L 242.735922 294.494978 
L 240.948491 293.743761 
L 239.161061 292.988501 
L 237.373631 292.229374 
L 235.5862 291.466451 
L 233.79877 290.699698 
L 232.01134 289.92897 
L 230.223909 289.154013 
L 228.436479 288.374467 
L 226.649049 287.589862 
L 224.861618 286.799625 
L 223.074188 286.003076 
L 221.286758 285.199436 
L 219.499327 284.387823 
L 217.711897 283.567257 
L 215.924467 282.736663 
L 214.137036 281.894865 
L 212.349606 281.040593 
L 210.562176 280.172479 
L 208.774745 279.289058 
L 206.987315 278.38876 
L 205.199885 277.469916 
L 203.412454 276.530745 
L 201.625024 275.569357 
L 199.837594 274.58374 
L 198.050163 273.571755 
L 196.262733 272.531132 
L 194.475303 271.459451 
L 192.687872 270.35414 
L 190.900442 269.212454 
L 189.113012 268.031469 
L 187.325581 266.808059 
L 185.538151 265.538885 
L 183.750721 264.220371 
L 181.96329 262.848689 
L 180.17586 261.419736 
L 178.38843 259.929115 
L 176.600999 258.372112 
L 174.813569 256.74368 
L 173.026139 255.038417 
L 171.238708 253.250558 
L 169.451278 251.373965 
L 167.663848 249.402131 
L 165.876417 247.32819 
L 164.088987 245.144948 
L 162.301557 242.844933 
L 160.514126 240.420466 
L 158.726696 237.863771 
L 156.939266 235.167112 
L 155.151835 232.322986 
L 153.364405 229.324354 
L 151.576975 226.164938 
L 149.789544 222.839566 
L 148.002114 219.344579 
L 146.214684 215.678291 
L 144.427254 211.841478 
L 142.639823 207.837885 
L 140.852393 203.67472 
L 139.064963 199.363091 
L 137.277532 194.918368 
L 135.490102 190.360435 
L 133.702672 185.713875 
L 131.915241 181.008154 
L 130.127811 176.27798 
L 128.340381 171.564142 
L 126.55295 166.915338 
L 124.76552 162.391816 
L 122.97809 158.072333 
L 121.190659 154.067147 
L 119.403229 150.542197 
L 117.615799 147.763636 
L 115.828368 146.176095 
L 114.040938 146.52054 
L 112.253508 149.944497 
L 110.466077 157.959575 
L 108.678647 172.180294 
L 106.891217 194.129341 
L 105.103786 225.342342 
L 103.316356 267.585071 
L 101.528926 323.000419 
z
" style="fill:#cc3300;opacity:0.3;stroke:#cc3300;stroke-linejoin:miter;stroke-width:0.5;"/>
   </g>
   <g id="matplotlib.axis_1">
    <g id="xtick_1">
     <g id="line2d_1">
      <defs>
       <path d="M 0 0 
L 0 3.5 
" id="m6ab2bdf49b" style="stroke:#000000;stroke-width:0.8;"/>
      </defs>
      <g>
       <use style="stroke:#000000;stroke-width:0.8;" x="115.940083" xlink:href="#m6ab2bdf49b" y="315"/>
      </g>
     </g>
     <g id="text_1">
      <!-- 1900 -->
      <defs>
       <path d="M 12.40625 8.296875 
L 28.515625 8.296875 
L 28.515625 63.921875 
L 10.984375 60.40625 
L 10.984375 69.390625 
L 28.421875 72.90625 
L 38.28125 72.90625 
L 38.28125 8.296875 
L 54.390625 8.296875 
L 54.390625 0 
L 12.40625 0 
z
" id="DejaVuSans-31"/>
       <path d="M 10.984375 1.515625 
L 10.984375 10.5 
Q 14.703125 8.734375 18.5 7.8125 
Q 22.3125 6.890625 25.984375 6.890625 
Q 35.75 6.890625 40.890625 13.453125 
Q 46.046875 20.015625 46.78125 33.40625 
Q 43.953125 29.203125 39.59375 26.953125 
Q 35.25 24.703125 29.984375 24.703125 
Q 19.046875 24.703125 12.671875 31.3125 
Q 6.296875 37.9375 6.296875 49.421875 
Q 6.296875 60.640625 12.9375 67.421875 
Q 19.578125 74.21875 30.609375 74.21875 
Q 43.265625 74.21875 49.921875 64.515625 
Q 56.59375 54.828125 56.59375 36.375 
Q 56.59375 19.140625 48.40625 8.859375 
Q 40.234375 -1.421875 26.421875 -1.421875 
Q 22.703125 -1.421875 18.890625 -0.6875 
Q 15.09375 0.046875 10.984375 1.515625 
z
M 30.609375 32.421875 
Q 37.25 32.421875 41.125 36.953125 
Q 45.015625 41.5 45.015625 49.421875 
Q 45.015625 57.28125 41.125 61.84375 
Q 37.25 66.40625 30.609375 66.40625 
Q 23.96875 66.40625 20.09375 61.84375 
Q 16.21875 57.28125 16.21875 49.421875 
Q 16.21875 41.5 20.09375 36.953125 
Q 23.96875 32.421875 30.609375 32.421875 
z
" id="DejaVuSans-39"/>
       <path d="M 31.78125 66.40625 
Q 24.171875 66.40625 20.328125 58.90625 
Q 16.5 51.421875 16.5 36.375 
Q 16.5 21.390625 20.328125 13.890625 
Q 24.171875 6.390625 31.78125 6.390625 
Q 39.453125 6.390625 43.28125 13.890625 
Q 47.125 21.390625 47.125 36.375 
Q 47.125 51.421875 43.28125 58.90625 
Q 39.453125 66.40625 31.78125 66.40625 
z
M 31.78125 74.21875 
Q 44.046875 74.21875 50.515625 64.515625 
Q 56.984375 54.828125 56.984375 36.375 
Q 56.984375 17.96875 50.515625 8.265625 
Q 44.046875 -1.421875 31.78125 -1.421875 
Q 19.53125 -1.421875 13.0625 8.265625 
Q 6.59375 17.96875 6.59375 36.375 
Q 6.59375 54.828125 13.0625 64.515625 
Q 19.53125 74.21875 31.78125 74.21875 
z
" id="DejaVuSans-30"/>
      </defs>
      <g transform="translate(103.215083 329.598437)scale(0.1 -0.1)">
       <use xlink:href="#DejaVuSans-31"/>
       <use x="63.623047" xlink:href="#DejaVuSans-39"/>
       <use x="127.246094" xlink:href="#DejaVuSans-30"/>
       <use x="190.869141" xlink:href="#DejaVuSans-30"/>
      </g>
     </g>
    </g>
    <g id="xtick_2">
     <g id="line2d_2">
      <g>
       <use style="stroke:#000000;stroke-width:0.8;" x="151.967975" xlink:href="#m6ab2bdf49b" y="315"/>
      </g>
     </g>
     <g id="text_2">
      <!-- 1920 -->
      <defs>
       <path d="M 19.1875 8.296875 
L 53.609375 8.296875 
L 53.609375 0 
L 7.328125 0 
L 7.328125 8.296875 
Q 12.9375 14.109375 22.625 23.890625 
Q 32.328125 33.6875 34.8125 36.53125 
Q 39.546875 41.84375 41.421875 45.53125 
Q 43.3125 49.21875 43.3125 52.78125 
Q 43.3125 58.59375 39.234375 62.25 
Q 35.15625 65.921875 28.609375 65.921875 
Q 23.96875 65.921875 18.8125 64.3125 
Q 13.671875 62.703125 7.8125 59.421875 
L 7.8125 69.390625 
Q 13.765625 71.78125 18.9375 73 
Q 24.125 74.21875 28.421875 74.21875 
Q 39.75 74.21875 46.484375 68.546875 
Q 53.21875 62.890625 53.21875 53.421875 
Q 53.21875 48.921875 51.53125 44.890625 
Q 49.859375 40.875 45.40625 35.40625 
Q 44.1875 33.984375 37.640625 27.21875 
Q 31.109375 20.453125 19.1875 8.296875 
z
" id="DejaVuSans-32"/>
      </defs>
      <g transform="translate(139.242975 329.598437)scale(0.1 -0.1)">
       <use xlink:href="#DejaVuSans-31"/>
       <use x="63.623047" xlink:href="#DejaVuSans-39"/>
       <use x="127.246094" xlink:href="#DejaVuSans-32"/>
       <use x="190.869141" xlink:href="#DejaVuSans-30"/>
      </g>
     </g>
    </g>
    <g id="xtick_3">
     <g id="line2d_3">
      <g>
       <use style="stroke:#000000;stroke-width:0.8;" x="187.995868" xlink:href="#m6ab2bdf49b" y="315"/>
      </g>
     </g>
     <g id="text_3">
      <!-- 1940 -->
      <defs>
       <path d="M 37.796875 64.3125 
L 12.890625 25.390625 
L 37.796875 25.390625 
z
M 35.203125 72.90625 
L 47.609375 72.90625 
L 47.609375 25.390625 
L 58.015625 25.390625 
L 58.015625 17.1875 
L 47.609375 17.1875 
L 47.609375 0 
L 37.796875 0 
L 37.796875 17.1875 
L 4.890625 17.1875 
L 4.890625 26.703125 
z
" id="DejaVuSans-34"/>
      </defs>
      <g transform="translate(175.270868 329.598437)scale(0.1 -0.1)">
       <use xlink:href="#DejaVuSans-31"/>
       <use x="63.623047" xlink:href="#DejaVuSans-39"/>
       <use x="127.246094" xlink:href="#DejaVuSans-34"/>
       <use x="190.869141" xlink:href="#DejaVuSans-30"/>
      </g>
     </g>
    </g>
    <g id="xtick_4">
     <g id="line2d_4">
      <g>
       <use style="stroke:#000000;stroke-width:0.8;" x="224.02376" xlink:href="#m6ab2bdf49b" y="315"/>
      </g>
     </g>
     <g id="text_4">
      <!-- 1960 -->
      <defs>
       <path d="M 33.015625 40.375 
Q 26.375 40.375 22.484375 35.828125 
Q 18.609375 31.296875 18.609375 23.390625 
Q 18.609375 15.53125 22.484375 10.953125 
Q 26.375 6.390625 33.015625 6.390625 
Q 39.65625 6.390625 43.53125 10.953125 
Q 47.40625 15.53125 47.40625 23.390625 
Q 47.40625 31.296875 43.53125 35.828125 
Q 39.65625 40.375 33.015625 40.375 
z
M 52.59375 71.296875 
L 52.59375 62.3125 
Q 48.875 64.0625 45.09375 64.984375 
Q 41.3125 65.921875 37.59375 65.921875 
Q 27.828125 65.921875 22.671875 59.328125 
Q 17.53125 52.734375 16.796875 39.40625 
Q 19.671875 43.65625 24.015625 45.921875 
Q 28.375 48.1875 33.59375 48.1875 
Q 44.578125 48.1875 50.953125 41.515625 
Q 57.328125 34.859375 57.328125 23.390625 
Q 57.328125 12.15625 50.6875 5.359375 
Q 44.046875 -1.421875 33.015625 -1.421875 
Q 20.359375 -1.421875 13.671875 8.265625 
Q 6.984375 17.96875 6.984375 36.375 
Q 6.984375 53.65625 15.1875 63.9375 
Q 23.390625 74.21875 37.203125 74.21875 
Q 40.921875 74.21875 44.703125 73.484375 
Q 48.484375 72.75 52.59375 71.296875 
z
" id="DejaVuSans-36"/>
      </defs>
      <g transform="translate(211.29876 329.598437)scale(0.1 -0.1)">
       <use xlink:href="#DejaVuSans-31"/>
       <use x="63.623047" xlink:href="#DejaVuSans-39"/>
       <use x="127.246094" xlink:href="#DejaVuSans-36"/>
       <use x="190.869141" xlink:href="#DejaVuSans-30"/>
      </g>
     </g>
    </g>
    <g id="xtick_5">
     <g id="line2d_5">
      <g>
       <use style="stroke:#000000;stroke-width:0.8;" x="260.051653" xlink:href="#m6ab2bdf49b" y="315"/>
      </g>
     </g>
     <g id="text_5">
      <!-- 1980 -->
      <defs>
       <path d="M 31.78125 34.625 
Q 24.75 34.625 20.71875 30.859375 
Q 16.703125 27.09375 16.703125 20.515625 
Q 16.703125 13.921875 20.71875 10.15625 
Q 24.75 6.390625 31.78125 6.390625 
Q 38.8125 6.390625 42.859375 10.171875 
Q 46.921875 13.96875 46.921875 20.515625 
Q 46.921875 27.09375 42.890625 30.859375 
Q 38.875 34.625 31.78125 34.625 
z
M 21.921875 38.8125 
Q 15.578125 40.375 12.03125 44.71875 
Q 8.5 49.078125 8.5 55.328125 
Q 8.5 64.0625 14.71875 69.140625 
Q 20.953125 74.21875 31.78125 74.21875 
Q 42.671875 74.21875 48.875 69.140625 
Q 55.078125 64.0625 55.078125 55.328125 
Q 55.078125 49.078125 51.53125 44.71875 
Q 48 40.375 41.703125 38.8125 
Q 48.828125 37.15625 52.796875 32.3125 
Q 56.78125 27.484375 56.78125 20.515625 
Q 56.78125 9.90625 50.3125 4.234375 
Q 43.84375 -1.421875 31.78125 -1.421875 
Q 19.734375 -1.421875 13.25 4.234375 
Q 6.78125 9.90625 6.78125 20.515625 
Q 6.78125 27.484375 10.78125 32.3125 
Q 14.796875 37.15625 21.921875 38.8125 
z
M 18.3125 54.390625 
Q 18.3125 48.734375 21.84375 45.5625 
Q 25.390625 42.390625 31.78125 42.390625 
Q 38.140625 42.390625 41.71875 45.5625 
Q 45.3125 48.734375 45.3125 54.390625 
Q 45.3125 60.0625 41.71875 63.234375 
Q 38.140625 66.40625 31.78125 66.40625 
Q 25.390625 66.40625 21.84375 63.234375 
Q 18.3125 60.0625 18.3125 54.390625 
z
" id="DejaVuSans-38"/>
      </defs>
      <g transform="translate(247.326653 329.598437)scale(0.1 -0.1)">
       <use xlink:href="#DejaVuSans-31"/>
       <use x="63.623047" xlink:href="#DejaVuSans-39"/>
       <use x="127.246094" xlink:href="#DejaVuSans-38"/>
       <use x="190.869141" xlink:href="#DejaVuSans-30"/>
      </g>
     </g>
    </g>
    <g id="xtick_6">
     <g id="line2d_6">
      <g>
       <use style="stroke:#000000;stroke-width:0.8;" x="296.079545" xlink:href="#m6ab2bdf49b" y="315"/>
      </g>
     </g>
     <g id="text_6">
      <!-- 2000 -->
      <g transform="translate(283.354545 329.598437)scale(0.1 -0.1)">
       <use xlink:href="#DejaVuSans-32"/>
       <use x="63.623047" xlink:href="#DejaVuSans-30"/>
       <use x="127.246094" xlink:href="#DejaVuSans-30"/>
       <use x="190.869141" xlink:href="#DejaVuSans-30"/>
      </g>
     </g>
    </g>
    <g id="xtick_7">
     <g id="line2d_7">
      <g>
       <use style="stroke:#000000;stroke-width:0.8;" x="332.107438" xlink:href="#m6ab2bdf49b" y="315"/>
      </g>
     </g>
     <g id="text_7">
      <!-- 2020 -->
      <g transform="translate(319.382438 329.598437)scale(0.1 -0.1)">
       <use xlink:href="#DejaVuSans-32"/>
       <use x="63.623047" xlink:href="#DejaVuSans-30"/>
       <use x="127.246094" xlink:href="#DejaVuSans-32"/>
       <use x="190.869141" xlink:href="#DejaVuSans-30"/>
      </g>
     </g>
    </g>
   </g>
   <g id="matplotlib.axis_2">
    <g id="ytick_1">
     <g id="line2d_8">
      <defs>
       <path d="M 0 0 
L -3.5 0 
" id="m604d8103ed" style="stroke:#000000;stroke-width:0.8;"/>
      </defs>
      <g>
       <use style="stroke:#000000;stroke-width:0.8;" x="90" xlink:href="#m604d8103ed" y="302.509371"/>
      </g>
     </g>
     <g id="text_8">
      <!-- 3.0 -->
      <defs>
       <path d="M 40.578125 39.3125 
Q 47.65625 37.796875 51.625 33 
Q 55.609375 28.21875 55.609375 21.1875 
Q 55.609375 10.40625 48.1875 4.484375 
Q 40.765625 -1.421875 27.09375 -1.421875 
Q 22.515625 -1.421875 17.65625 -0.515625 
Q 12.796875 0.390625 7.625 2.203125 
L 7.625 11.71875 
Q 11.71875 9.328125 16.59375 8.109375 
Q 21.484375 6.890625 26.8125 6.890625 
Q 36.078125 6.890625 40.9375 10.546875 
Q 45.796875 14.203125 45.796875 21.1875 
Q 45.796875 27.640625 41.28125 31.265625 
Q 36.765625 34.90625 28.71875 34.90625 
L 20.21875 34.90625 
L 20.21875 43.015625 
L 29.109375 43.015625 
Q 36.375 43.015625 40.234375 45.921875 
Q 44.09375 48.828125 44.09375 54.296875 
Q 44.09375 59.90625 40.109375 62.90625 
Q 36.140625 65.921875 28.71875 65.921875 
Q 24.65625 65.921875 20.015625 65.03125 
Q 15.375 64.15625 9.8125 62.3125 
L 9.8125 71.09375 
Q 15.4375 72.65625 20.34375 73.4375 
Q 25.25 74.21875 29.59375 74.21875 
Q 40.828125 74.21875 47.359375 69.109375 
Q 53.90625 64.015625 53.90625 55.328125 
Q 53.90625 49.265625 50.4375 45.09375 
Q 46.96875 40.921875 40.578125 39.3125 
z
" id="DejaVuSans-33"/>
       <path d="M 10.6875 12.40625 
L 21 12.40625 
L 21 0 
L 10.6875 0 
z
" id="DejaVuSans-2e"/>
      </defs>
      <g transform="translate(67.096875 306.308589)scale(0.1 -0.1)">
       <use xlink:href="#DejaVuSans-33"/>
       <use x="63.623047" xlink:href="#DejaVuSans-2e"/>
       <use x="95.410156" xlink:href="#DejaVuSans-30"/>
      </g>
     </g>
    </g>
    <g id="ytick_2">
     <g id="line2d_9">
      <g>
       <use style="stroke:#000000;stroke-width:0.8;" x="90" xlink:href="#m604d8103ed" y="246.941062"/>
      </g>
     </g>
     <g id="text_9">
      <!-- 3.5 -->
      <defs>
       <path d="M 10.796875 72.90625 
L 49.515625 72.90625 
L 49.515625 64.59375 
L 19.828125 64.59375 
L 19.828125 46.734375 
Q 21.96875 47.46875 24.109375 47.828125 
Q 26.265625 48.1875 28.421875 48.1875 
Q 40.625 48.1875 47.75 41.5 
Q 54.890625 34.8125 54.890625 23.390625 
Q 54.890625 11.625 47.5625 5.09375 
Q 40.234375 -1.421875 26.90625 -1.421875 
Q 22.3125 -1.421875 17.546875 -0.640625 
Q 12.796875 0.140625 7.71875 1.703125 
L 7.71875 11.625 
Q 12.109375 9.234375 16.796875 8.0625 
Q 21.484375 6.890625 26.703125 6.890625 
Q 35.15625 6.890625 40.078125 11.328125 
Q 45.015625 15.765625 45.015625 23.390625 
Q 45.015625 31 40.078125 35.4375 
Q 35.15625 39.890625 26.703125 39.890625 
Q 22.75 39.890625 18.8125 39.015625 
Q 14.890625 38.140625 10.796875 36.28125 
z
" id="DejaVuSans-35"/>
      </defs>
      <g transform="translate(67.096875 250.740281)scale(0.1 -0.1)">
       <use xlink:href="#DejaVuSans-33"/>
       <use x="63.623047" xlink:href="#DejaVuSans-2e"/>
       <use x="95.410156" xlink:href="#DejaVuSans-35"/>
      </g>
     </g>
    </g>
    <g id="ytick_3">
     <g id="line2d_10">
      <g>
       <use style="stroke:#000000;stroke-width:0.8;" x="90" xlink:href="#m604d8103ed" y="191.372753"/>
      </g>
     </g>
     <g id="text_10">
      <!-- 4.0 -->
      <g transform="translate(67.096875 195.171972)scale(0.1 -0.1)">
       <use xlink:href="#DejaVuSans-34"/>
       <use x="63.623047" xlink:href="#DejaVuSans-2e"/>
       <use x="95.410156" xlink:href="#DejaVuSans-30"/>
      </g>
     </g>
    </g>
    <g id="ytick_4">
     <g id="line2d_11">
      <g>
       <use style="stroke:#000000;stroke-width:0.8;" x="90" xlink:href="#m604d8103ed" y="135.804445"/>
      </g>
     </g>
     <g id="text_11">
      <!-- 4.5 -->
      <g transform="translate(67.096875 139.603663)scale(0.1 -0.1)">
       <use xlink:href="#DejaVuSans-34"/>
       <use x="63.623047" xlink:href="#DejaVuSans-2e"/>
       <use x="95.410156" xlink:href="#DejaVuSans-35"/>
      </g>
     </g>
    </g>
    <g id="ytick_5">
     <g id="line2d_12">
      <g>
       <use style="stroke:#000000;stroke-width:0.8;" x="90" xlink:href="#m604d8103ed" y="80.236136"/>
      </g>
     </g>
     <g id="text_12">
      <!-- 5.0 -->
      <g transform="translate(67.096875 84.035355)scale(0.1 -0.1)">
       <use xlink:href="#DejaVuSans-35"/>
       <use x="63.623047" xlink:href="#DejaVuSans-2e"/>
       <use x="95.410156" xlink:href="#DejaVuSans-30"/>
      </g>
     </g>
    </g>
   </g>
   <g id="line2d_13">
    <defs>
     <path d="M 0 3 
C 0.795609 3 1.55874 2.683901 2.12132 2.12132 
C 2.683901 1.55874 3 0.795609 3 0 
C 3 -0.795609 2.683901 -1.55874 2.12132 -2.12132 
C 1.55874 -2.683901 0.795609 -3 0 -3 
C -0.795609 -3 -1.55874 -2.683901 -2.12132 -2.12132 
C -2.683901 -1.55874 -3 -0.795609 -3 0 
C -3 0.795609 -2.683901 1.55874 -2.12132 2.12132 
C -1.55874 2.683901 -0.795609 3 0 3 
z
" id="m9faaaea39d" style="stroke:#ff0000;"/>
    </defs>
    <g clip-path="url(#p75002b7015)">
     <use style="fill:#ff0000;stroke:#ff0000;" x="108.734504" xlink:href="#m9faaaea39d" y="139.045929"/>
     <use style="fill:#ff0000;stroke:#ff0000;" x="115.940083" xlink:href="#m9faaaea39d" y="139.724315"/>
     <use style="fill:#ff0000;stroke:#ff0000;" x="123.145661" xlink:href="#m9faaaea39d" y="55.554545"/>
     <use style="fill:#ff0000;stroke:#ff0000;" x="130.35124" xlink:href="#m9faaaea39d" y="174.182289"/>
     <use style="fill:#ff0000;stroke:#ff0000;" x="137.556818" xlink:href="#m9faaaea39d" y="202.117803"/>
     <use style="fill:#ff0000;stroke:#ff0000;" x="151.967975" xlink:href="#m9faaaea39d" y="239.215659"/>
     <use style="fill:#ff0000;stroke:#ff0000;" x="159.173554" xlink:href="#m9faaaea39d" y="210.872254"/>
     <use style="fill:#ff0000;stroke:#ff0000;" x="166.379132" xlink:href="#m9faaaea39d" y="233.067093"/>
     <use style="fill:#ff0000;stroke:#ff0000;" x="173.584711" xlink:href="#m9faaaea39d" y="236.622832"/>
     <use style="fill:#ff0000;stroke:#ff0000;" x="180.790289" xlink:href="#m9faaaea39d" y="242.628082"/>
     <use style="fill:#ff0000;stroke:#ff0000;" x="202.407025" xlink:href="#m9faaaea39d" y="228.03638"/>
     <use style="fill:#ff0000;stroke:#ff0000;" x="209.612603" xlink:href="#m9faaaea39d" y="259.133737"/>
     <use style="fill:#ff0000;stroke:#ff0000;" x="216.818182" xlink:href="#m9faaaea39d" y="254.006448"/>
     <use style="fill:#ff0000;stroke:#ff0000;" x="224.02376" xlink:href="#m9faaaea39d" y="279.634112"/>
     <use style="fill:#ff0000;stroke:#ff0000;" x="231.229339" xlink:href="#m9faaaea39d" y="287.755246"/>
     <use style="fill:#ff0000;stroke:#ff0000;" x="238.434917" xlink:href="#m9faaaea39d" y="266.034506"/>
     <use style="fill:#ff0000;stroke:#ff0000;" x="245.640496" xlink:href="#m9faaaea39d" y="287.412842"/>
     <use style="fill:#ff0000;stroke:#ff0000;" x="252.846074" xlink:href="#m9faaaea39d" y="293.734156"/>
     <use style="fill:#ff0000;stroke:#ff0000;" x="260.051653" xlink:href="#m9faaaea39d" y="290.749091"/>
     <use style="fill:#ff0000;stroke:#ff0000;" x="267.257231" xlink:href="#m9faaaea39d" y="295.226689"/>
     <use style="fill:#ff0000;stroke:#ff0000;" x="274.46281" xlink:href="#m9faaaea39d" y="292.10993"/>
     <use style="fill:#ff0000;stroke:#ff0000;" x="281.668388" xlink:href="#m9faaaea39d" y="284.603368"/>
     <use style="fill:#ff0000;stroke:#ff0000;" x="288.873967" xlink:href="#m9faaaea39d" y="286.666575"/>
     <use style="fill:#ff0000;stroke:#ff0000;" x="296.079545" xlink:href="#m9faaaea39d" y="293.031788"/>
     <use style="fill:#ff0000;stroke:#ff0000;" x="303.285124" xlink:href="#m9faaaea39d" y="291.100275"/>
     <use style="fill:#ff0000;stroke:#ff0000;" x="310.490702" xlink:href="#m9faaaea39d" y="302.645455"/>
     <use style="fill:#ff0000;stroke:#ff0000;" x="317.696281" xlink:href="#m9faaaea39d" y="298.738531"/>
    </g>
   </g>
   <g id="line2d_14">
    <path clip-path="url(#p75002b7015)" d="M 101.528926 195.830513 
L 103.316356 171.740163 
L 105.103786 153.550467 
L 106.891217 140.249182 
L 108.678647 130.974659 
L 110.466077 124.995587 
L 112.253508 121.693216 
L 114.040938 120.545795 
L 115.828368 121.114955 
L 117.615799 123.033839 
L 119.403229 125.996761 
L 121.190659 129.75022 
L 122.97809 134.085112 
L 126.55295 143.845229 
L 137.277532 174.683568 
L 140.852393 184.072898 
L 144.427254 192.731052 
L 148.002114 200.626407 
L 151.576975 207.774724 
L 155.151835 214.219601 
L 158.726696 220.019335 
L 162.301557 225.238339 
L 165.876417 229.941705 
L 169.451278 234.191937 
L 173.026139 238.047119 
L 176.600999 241.560039 
L 180.17586 244.777908 
L 183.750721 247.742442 
L 187.325581 250.490148 
L 192.687872 254.273283 
L 198.050163 257.727819 
L 203.412454 260.923826 
L 210.562176 264.874617 
L 217.711897 268.55288 
L 226.649049 272.854237 
L 235.5862 276.876199 
L 244.523352 280.62395 
L 251.673073 283.401874 
L 258.822795 285.948573 
L 265.972516 288.220515 
L 271.334807 289.714788 
L 276.697098 291.007108 
L 282.059389 292.082495 
L 287.42168 292.938108 
L 294.571401 293.782876 
L 303.508553 294.710776 
L 307.083413 295.281505 
L 310.658274 296.191639 
L 312.445704 296.851233 
L 314.233135 297.702709 
L 316.020565 298.799226 
L 317.807995 300.205341 
L 319.595426 301.999206 
L 321.382856 304.275153 
L 323.170286 307.146727 
L 324.957717 310.750229 
L 326.745147 315.248848 
L 328.532577 320.837476 
L 330.320008 327.748294 
L 332.107438 336.257245 
L 332.107438 336.257245 
" style="fill:none;stroke:#3300ff;stroke-linecap:square;stroke-width:2;"/>
   </g>
   <g id="line2d_15">
    <path clip-path="url(#p75002b7015)" d="M 101.528926 68.660607 
L 103.316356 75.895255 
L 105.103786 81.758592 
L 106.891217 86.369023 
L 108.678647 89.769024 
L 110.466077 92.031599 
L 112.253508 93.441936 
L 114.040938 94.571049 
L 115.828368 96.053814 
L 117.615799 98.304042 
L 119.403229 101.451325 
L 121.190659 105.433293 
L 122.97809 110.09789 
L 126.55295 120.775119 
L 135.490102 149.128229 
L 139.064963 159.567104 
L 142.639823 169.1556 
L 146.214684 177.869586 
L 149.789544 185.74382 
L 153.364405 192.838995 
L 156.939266 199.225191 
L 160.514126 204.974191 
L 164.088987 210.156017 
L 167.663848 214.837299 
L 171.238708 219.080402 
L 174.813569 222.94288 
L 178.38843 226.477128 
L 181.96329 229.730196 
L 185.538151 232.743734 
L 190.900442 236.892993 
L 196.262733 240.685145 
L 201.625024 244.197795 
L 206.987315 247.487599 
L 214.137036 251.592023 
L 221.286758 255.419116 
L 228.436479 258.985833 
L 235.5862 262.285946 
L 242.735922 265.300089 
L 248.098213 267.357734 
L 253.460504 269.22767 
L 258.822795 270.894749 
L 264.185086 272.33826 
L 269.547377 273.527428 
L 274.909667 274.41644 
L 278.484528 274.812034 
L 282.059389 275.025778 
L 285.634249 275.039804 
L 289.20911 274.847913 
L 292.783971 274.469194 
L 303.508553 273.080509 
L 308.870844 272.785908 
L 310.658274 272.441023 
L 312.445704 271.562482 
L 314.233135 269.692672 
L 316.020565 266.274584 
L 317.807995 260.744618 
L 319.595426 252.586759 
L 321.382856 241.304883 
L 323.170286 226.355333 
L 324.957717 207.088325 
L 326.745147 182.708727 
L 328.532577 152.247625 
L 330.320008 114.536062 
L 332.107438 68.176283 
L 332.107438 68.176283 
" style="fill:none;stroke:#3300ff;stroke-linecap:square;stroke-width:0.2;"/>
   </g>
   <g id="line2d_16">
    <path clip-path="url(#p75002b7015)" d="M 101.528926 323.000419 
L 103.316356 267.585071 
L 105.103786 225.342342 
L 106.891217 194.129341 
L 108.678647 172.180294 
L 110.466077 157.959575 
L 112.253508 149.944497 
L 114.040938 146.52054 
L 115.828368 146.176095 
L 117.615799 147.763636 
L 119.403229 150.542197 
L 121.190659 154.067147 
L 122.97809 158.072333 
L 126.55295 166.915338 
L 139.064963 199.363091 
L 142.639823 207.837885 
L 146.214684 215.678291 
L 149.789544 222.839566 
L 153.364405 229.324354 
L 156.939266 235.167112 
L 160.514126 240.420466 
L 164.088987 245.144948 
L 167.663848 249.402131 
L 171.238708 253.250558 
L 174.813569 256.74368 
L 178.38843 259.929115 
L 181.96329 262.848689 
L 185.538151 265.538885 
L 190.900442 269.212454 
L 196.262733 272.531132 
L 201.625024 275.569357 
L 208.774745 279.289058 
L 215.924467 282.736663 
L 224.861618 286.799625 
L 237.373631 292.229374 
L 249.885643 297.452551 
L 260.610225 301.686339 
L 269.547377 304.948985 
L 278.484528 307.968283 
L 294.571401 313.338872 
L 307.083413 317.656404 
L 308.870844 318.574676 
L 310.658274 319.942254 
L 312.445704 322.139984 
L 314.233135 325.712745 
L 316.020565 331.323869 
L 317.807995 339.666065 
L 319.595426 351.411653 
L 320.677828 361 
L 320.677828 361 
" style="fill:none;stroke:#3300ff;stroke-linecap:square;stroke-width:0.2;"/>
   </g>
   <g id="patch_4">
    <path d="M 90 315 
L 90 43.2 
" style="fill:none;stroke:#000000;stroke-linecap:square;stroke-linejoin:miter;stroke-width:0.8;"/>
   </g>
   <g id="patch_5">
    <path d="M 343.636364 315 
L 343.636364 43.2 
" style="fill:none;stroke:#000000;stroke-linecap:square;stroke-linejoin:miter;stroke-width:0.8;"/>
   </g>
   <g id="patch_6">
    <path d="M 90 315 
L 343.636364 315 
" style="fill:none;stroke:#000000;stroke-linecap:square;stroke-linejoin:miter;stroke-width:0.8;"/>
   </g>
   <g id="patch_7">
    <path d="M 90 43.2 
L 343.636364 43.2 
" style="fill:none;stroke:#000000;stroke-linecap:square;stroke-linejoin:miter;stroke-width:0.8;"/>
   </g>
  </g>
  <g id="axes_2">
   <g id="patch_8">
    <path d="M 394.363636 315 
L 648 315 
L 648 43.2 
L 394.363636 43.2 
z
" style="fill:none;"/>
   </g>
   <g id="matplotlib.axis_3">
    <g id="xtick_8">
     <g id="line2d_17">
      <g>
       <use style="stroke:#000000;stroke-width:0.8;" x="394.363636" xlink:href="#m6ab2bdf49b" y="315"/>
      </g>
     </g>
     <g id="text_13">
      <!-- 0 -->
      <g transform="translate(391.182386 329.598437)scale(0.1 -0.1)">
       <use xlink:href="#DejaVuSans-30"/>
      </g>
     </g>
    </g>
    <g id="xtick_9">
     <g id="line2d_18">
      <g>
       <use style="stroke:#000000;stroke-width:0.8;" x="439.655844" xlink:href="#m6ab2bdf49b" y="315"/>
      </g>
     </g>
     <g id="text_14">
      <!-- 5 -->
      <g transform="translate(436.474594 329.598437)scale(0.1 -0.1)">
       <use xlink:href="#DejaVuSans-35"/>
      </g>
     </g>
    </g>
    <g id="xtick_10">
     <g id="line2d_19">
      <g>
       <use style="stroke:#000000;stroke-width:0.8;" x="484.948052" xlink:href="#m6ab2bdf49b" y="315"/>
      </g>
     </g>
     <g id="text_15">
      <!-- 10 -->
      <g transform="translate(478.585552 329.598437)scale(0.1 -0.1)">
       <use xlink:href="#DejaVuSans-31"/>
       <use x="63.623047" xlink:href="#DejaVuSans-30"/>
      </g>
     </g>
    </g>
    <g id="xtick_11">
     <g id="line2d_20">
      <g>
       <use style="stroke:#000000;stroke-width:0.8;" x="530.24026" xlink:href="#m6ab2bdf49b" y="315"/>
      </g>
     </g>
     <g id="text_16">
      <!-- 15 -->
      <g transform="translate(523.87776 329.598437)scale(0.1 -0.1)">
       <use xlink:href="#DejaVuSans-31"/>
       <use x="63.623047" xlink:href="#DejaVuSans-35"/>
      </g>
     </g>
    </g>
    <g id="xtick_12">
     <g id="line2d_21">
      <g>
       <use style="stroke:#000000;stroke-width:0.8;" x="575.532468" xlink:href="#m6ab2bdf49b" y="315"/>
      </g>
     </g>
     <g id="text_17">
      <!-- 20 -->
      <g transform="translate(569.169968 329.598437)scale(0.1 -0.1)">
       <use xlink:href="#DejaVuSans-32"/>
       <use x="63.623047" xlink:href="#DejaVuSans-30"/>
      </g>
     </g>
    </g>
    <g id="xtick_13">
     <g id="line2d_22">
      <g>
       <use style="stroke:#000000;stroke-width:0.8;" x="620.824675" xlink:href="#m6ab2bdf49b" y="315"/>
      </g>
     </g>
     <g id="text_18">
      <!-- 25 -->
      <g transform="translate(614.462175 329.598437)scale(0.1 -0.1)">
       <use xlink:href="#DejaVuSans-32"/>
       <use x="63.623047" xlink:href="#DejaVuSans-35"/>
      </g>
     </g>
    </g>
    <g id="text_19">
     <!-- number -->
     <defs>
      <path d="M 54.890625 33.015625 
L 54.890625 0 
L 45.90625 0 
L 45.90625 32.71875 
Q 45.90625 40.484375 42.875 44.328125 
Q 39.84375 48.1875 33.796875 48.1875 
Q 26.515625 48.1875 22.3125 43.546875 
Q 18.109375 38.921875 18.109375 30.90625 
L 18.109375 0 
L 9.078125 0 
L 9.078125 54.6875 
L 18.109375 54.6875 
L 18.109375 46.1875 
Q 21.34375 51.125 25.703125 53.5625 
Q 30.078125 56 35.796875 56 
Q 45.21875 56 50.046875 50.171875 
Q 54.890625 44.34375 54.890625 33.015625 
z
" id="DejaVuSans-6e"/>
      <path d="M 8.5 21.578125 
L 8.5 54.6875 
L 17.484375 54.6875 
L 17.484375 21.921875 
Q 17.484375 14.15625 20.5 10.265625 
Q 23.53125 6.390625 29.59375 6.390625 
Q 36.859375 6.390625 41.078125 11.03125 
Q 45.3125 15.671875 45.3125 23.6875 
L 45.3125 54.6875 
L 54.296875 54.6875 
L 54.296875 0 
L 45.3125 0 
L 45.3125 8.40625 
Q 42.046875 3.421875 37.71875 1 
Q 33.40625 -1.421875 27.6875 -1.421875 
Q 18.265625 -1.421875 13.375 4.4375 
Q 8.5 10.296875 8.5 21.578125 
z
M 31.109375 56 
z
" id="DejaVuSans-75"/>
      <path d="M 52 44.1875 
Q 55.375 50.25 60.0625 53.125 
Q 64.75 56 71.09375 56 
Q 79.640625 56 84.28125 50.015625 
Q 88.921875 44.046875 88.921875 33.015625 
L 88.921875 0 
L 79.890625 0 
L 79.890625 32.71875 
Q 79.890625 40.578125 77.09375 44.375 
Q 74.3125 48.1875 68.609375 48.1875 
Q 61.625 48.1875 57.5625 43.546875 
Q 53.515625 38.921875 53.515625 30.90625 
L 53.515625 0 
L 44.484375 0 
L 44.484375 32.71875 
Q 44.484375 40.625 41.703125 44.40625 
Q 38.921875 48.1875 33.109375 48.1875 
Q 26.21875 48.1875 22.15625 43.53125 
Q 18.109375 38.875 18.109375 30.90625 
L 18.109375 0 
L 9.078125 0 
L 9.078125 54.6875 
L 18.109375 54.6875 
L 18.109375 46.1875 
Q 21.1875 51.21875 25.484375 53.609375 
Q 29.78125 56 35.6875 56 
Q 41.65625 56 45.828125 52.96875 
Q 50 49.953125 52 44.1875 
z
" id="DejaVuSans-6d"/>
      <path d="M 48.6875 27.296875 
Q 48.6875 37.203125 44.609375 42.84375 
Q 40.53125 48.484375 33.40625 48.484375 
Q 26.265625 48.484375 22.1875 42.84375 
Q 18.109375 37.203125 18.109375 27.296875 
Q 18.109375 17.390625 22.1875 11.75 
Q 26.265625 6.109375 33.40625 6.109375 
Q 40.53125 6.109375 44.609375 11.75 
Q 48.6875 17.390625 48.6875 27.296875 
z
M 18.109375 46.390625 
Q 20.953125 51.265625 25.265625 53.625 
Q 29.59375 56 35.59375 56 
Q 45.5625 56 51.78125 48.09375 
Q 58.015625 40.1875 58.015625 27.296875 
Q 58.015625 14.40625 51.78125 6.484375 
Q 45.5625 -1.421875 35.59375 -1.421875 
Q 29.59375 -1.421875 25.265625 0.953125 
Q 20.953125 3.328125 18.109375 8.203125 
L 18.109375 0 
L 9.078125 0 
L 9.078125 75.984375 
L 18.109375 75.984375 
z
" id="DejaVuSans-62"/>
      <path d="M 56.203125 29.59375 
L 56.203125 25.203125 
L 14.890625 25.203125 
Q 15.484375 15.921875 20.484375 11.0625 
Q 25.484375 6.203125 34.421875 6.203125 
Q 39.59375 6.203125 44.453125 7.46875 
Q 49.3125 8.734375 54.109375 11.28125 
L 54.109375 2.78125 
Q 49.265625 0.734375 44.1875 -0.34375 
Q 39.109375 -1.421875 33.890625 -1.421875 
Q 20.796875 -1.421875 13.15625 6.1875 
Q 5.515625 13.8125 5.515625 26.8125 
Q 5.515625 40.234375 12.765625 48.109375 
Q 20.015625 56 32.328125 56 
Q 43.359375 56 49.78125 48.890625 
Q 56.203125 41.796875 56.203125 29.59375 
z
M 47.21875 32.234375 
Q 47.125 39.59375 43.09375 43.984375 
Q 39.0625 48.390625 32.421875 48.390625 
Q 24.90625 48.390625 20.390625 44.140625 
Q 15.875 39.890625 15.1875 32.171875 
z
" id="DejaVuSans-65"/>
      <path d="M 41.109375 46.296875 
Q 39.59375 47.171875 37.8125 47.578125 
Q 36.03125 48 33.890625 48 
Q 26.265625 48 22.1875 43.046875 
Q 18.109375 38.09375 18.109375 28.8125 
L 18.109375 0 
L 9.078125 0 
L 9.078125 54.6875 
L 18.109375 54.6875 
L 18.109375 46.1875 
Q 20.953125 51.171875 25.484375 53.578125 
Q 30.03125 56 36.53125 56 
Q 37.453125 56 38.578125 55.875 
Q 39.703125 55.765625 41.0625 55.515625 
z
" id="DejaVuSans-72"/>
     </defs>
     <g transform="translate(482.153693 350.875)scale(0.2 -0.2)">
      <use xlink:href="#DejaVuSans-6e"/>
      <use x="63.378906" xlink:href="#DejaVuSans-75"/>
      <use x="126.757812" xlink:href="#DejaVuSans-6d"/>
      <use x="224.169922" xlink:href="#DejaVuSans-62"/>
      <use x="287.646484" xlink:href="#DejaVuSans-65"/>
      <use x="349.169922" xlink:href="#DejaVuSans-72"/>
     </g>
    </g>
   </g>
   <g id="matplotlib.axis_4">
    <g id="ytick_6">
     <g id="line2d_23">
      <g>
       <use style="stroke:#000000;stroke-width:0.8;" x="394.363636" xlink:href="#m604d8103ed" y="315"/>
      </g>
     </g>
     <g id="text_20">
      <!-- 0.1 -->
      <g transform="translate(371.460511 318.799219)scale(0.1 -0.1)">
       <use xlink:href="#DejaVuSans-30"/>
       <use x="63.623047" xlink:href="#DejaVuSans-2e"/>
       <use x="95.410156" xlink:href="#DejaVuSans-31"/>
      </g>
     </g>
    </g>
    <g id="ytick_7">
     <g id="line2d_24">
      <g>
       <use style="stroke:#000000;stroke-width:0.8;" x="394.363636" xlink:href="#m604d8103ed" y="276.171429"/>
      </g>
     </g>
     <g id="text_21">
      <!-- 0.2 -->
      <g transform="translate(371.460511 279.970647)scale(0.1 -0.1)">
       <use xlink:href="#DejaVuSans-30"/>
       <use x="63.623047" xlink:href="#DejaVuSans-2e"/>
       <use x="95.410156" xlink:href="#DejaVuSans-32"/>
      </g>
     </g>
    </g>
    <g id="ytick_8">
     <g id="line2d_25">
      <g>
       <use style="stroke:#000000;stroke-width:0.8;" x="394.363636" xlink:href="#m604d8103ed" y="237.342857"/>
      </g>
     </g>
     <g id="text_22">
      <!-- 0.3 -->
      <g transform="translate(371.460511 241.142076)scale(0.1 -0.1)">
       <use xlink:href="#DejaVuSans-30"/>
       <use x="63.623047" xlink:href="#DejaVuSans-2e"/>
       <use x="95.410156" xlink:href="#DejaVuSans-33"/>
      </g>
     </g>
    </g>
    <g id="ytick_9">
     <g id="line2d_26">
      <g>
       <use style="stroke:#000000;stroke-width:0.8;" x="394.363636" xlink:href="#m604d8103ed" y="198.514286"/>
      </g>
     </g>
     <g id="text_23">
      <!-- 0.4 -->
      <g transform="translate(371.460511 202.313504)scale(0.1 -0.1)">
       <use xlink:href="#DejaVuSans-30"/>
       <use x="63.623047" xlink:href="#DejaVuSans-2e"/>
       <use x="95.410156" xlink:href="#DejaVuSans-34"/>
      </g>
     </g>
    </g>
    <g id="ytick_10">
     <g id="line2d_27">
      <g>
       <use style="stroke:#000000;stroke-width:0.8;" x="394.363636" xlink:href="#m604d8103ed" y="159.685714"/>
      </g>
     </g>
     <g id="text_24">
      <!-- 0.5 -->
      <g transform="translate(371.460511 163.484933)scale(0.1 -0.1)">
       <use xlink:href="#DejaVuSans-30"/>
       <use x="63.623047" xlink:href="#DejaVuSans-2e"/>
       <use x="95.410156" xlink:href="#DejaVuSans-35"/>
      </g>
     </g>
    </g>
    <g id="ytick_11">
     <g id="line2d_28">
      <g>
       <use style="stroke:#000000;stroke-width:0.8;" x="394.363636" xlink:href="#m604d8103ed" y="120.857143"/>
      </g>
     </g>
     <g id="text_25">
      <!-- 0.6 -->
      <g transform="translate(371.460511 124.656362)scale(0.1 -0.1)">
       <use xlink:href="#DejaVuSans-30"/>
       <use x="63.623047" xlink:href="#DejaVuSans-2e"/>
       <use x="95.410156" xlink:href="#DejaVuSans-36"/>
      </g>
     </g>
    </g>
    <g id="ytick_12">
     <g id="line2d_29">
      <g>
       <use style="stroke:#000000;stroke-width:0.8;" x="394.363636" xlink:href="#m604d8103ed" y="82.028571"/>
      </g>
     </g>
     <g id="text_26">
      <!-- 0.7 -->
      <defs>
       <path d="M 8.203125 72.90625 
L 55.078125 72.90625 
L 55.078125 68.703125 
L 28.609375 0 
L 18.3125 0 
L 43.21875 64.59375 
L 8.203125 64.59375 
z
" id="DejaVuSans-37"/>
      </defs>
      <g transform="translate(371.460511 85.82779)scale(0.1 -0.1)">
       <use xlink:href="#DejaVuSans-30"/>
       <use x="63.623047" xlink:href="#DejaVuSans-2e"/>
       <use x="95.410156" xlink:href="#DejaVuSans-37"/>
      </g>
     </g>
    </g>
    <g id="ytick_13">
     <g id="line2d_30">
      <g>
       <use style="stroke:#000000;stroke-width:0.8;" x="394.363636" xlink:href="#m604d8103ed" y="43.2"/>
      </g>
     </g>
     <g id="text_27">
      <!-- 0.8 -->
      <g transform="translate(371.460511 46.999219)scale(0.1 -0.1)">
       <use xlink:href="#DejaVuSans-30"/>
       <use x="63.623047" xlink:href="#DejaVuSans-2e"/>
       <use x="95.410156" xlink:href="#DejaVuSans-38"/>
      </g>
     </g>
    </g>
   </g>
   <g id="line2d_31">
    <g clip-path="url(#pbba4fc261d)">
     <use style="fill:#ff0000;stroke:#ff0000;" x="403.422078" xlink:href="#m9faaaea39d" y="146.168051"/>
    </g>
   </g>
   <g id="line2d_32">
    <g clip-path="url(#pbba4fc261d)">
     <use style="fill:#ff0000;stroke:#ff0000;" x="412.480519" xlink:href="#m9faaaea39d" y="248.657834"/>
    </g>
   </g>
   <g id="line2d_33">
    <g clip-path="url(#pbba4fc261d)">
     <use style="fill:#ff0000;stroke:#ff0000;" x="421.538961" xlink:href="#m9faaaea39d" y="273.644931"/>
    </g>
   </g>
   <g id="line2d_34">
    <g clip-path="url(#pbba4fc261d)">
     <use style="fill:#ff0000;stroke:#ff0000;" x="430.597403" xlink:href="#m9faaaea39d" y="276.001615"/>
    </g>
   </g>
   <g id="line2d_35">
    <g clip-path="url(#pbba4fc261d)">
     <use style="fill:#ff0000;stroke:#ff0000;" x="439.655844" xlink:href="#m9faaaea39d" y="276.101525"/>
    </g>
   </g>
   <g id="line2d_36">
    <g clip-path="url(#pbba4fc261d)">
     <use style="fill:#ff0000;stroke:#ff0000;" x="448.714286" xlink:href="#m9faaaea39d" y="276.133655"/>
    </g>
   </g>
   <g id="line2d_37">
    <g clip-path="url(#pbba4fc261d)">
     <use style="fill:#ff0000;stroke:#ff0000;" x="457.772727" xlink:href="#m9faaaea39d" y="276.83674"/>
    </g>
   </g>
   <g id="line2d_38">
    <g clip-path="url(#pbba4fc261d)">
     <use style="fill:#ff0000;stroke:#ff0000;" x="466.831169" xlink:href="#m9faaaea39d" y="277.437957"/>
    </g>
   </g>
   <g id="line2d_39">
    <g clip-path="url(#pbba4fc261d)">
     <use style="fill:#ff0000;stroke:#ff0000;" x="475.88961" xlink:href="#m9faaaea39d" y="278.747147"/>
    </g>
   </g>
   <g id="line2d_40">
    <g clip-path="url(#pbba4fc261d)">
     <use style="fill:#ff0000;stroke:#ff0000;" x="484.948052" xlink:href="#m9faaaea39d" y="279.598839"/>
    </g>
   </g>
   <g id="line2d_41">
    <g clip-path="url(#pbba4fc261d)">
     <use style="fill:#ff0000;stroke:#ff0000;" x="494.006494" xlink:href="#m9faaaea39d" y="280.876121"/>
    </g>
   </g>
   <g id="line2d_42">
    <g clip-path="url(#pbba4fc261d)">
     <use style="fill:#ff0000;stroke:#ff0000;" x="503.064935" xlink:href="#m9faaaea39d" y="281.67996"/>
    </g>
   </g>
   <g id="line2d_43">
    <g clip-path="url(#pbba4fc261d)">
     <use style="fill:#ff0000;stroke:#ff0000;" x="512.123377" xlink:href="#m9faaaea39d" y="282.670473"/>
    </g>
   </g>
   <g id="line2d_44">
    <g clip-path="url(#pbba4fc261d)">
     <use style="fill:#ff0000;stroke:#ff0000;" x="521.181818" xlink:href="#m9faaaea39d" y="283.309513"/>
    </g>
   </g>
   <g id="line2d_45">
    <g clip-path="url(#pbba4fc261d)">
     <use style="fill:#ff0000;stroke:#ff0000;" x="530.24026" xlink:href="#m9faaaea39d" y="283.98985"/>
    </g>
   </g>
   <g id="patch_9">
    <path d="M 394.363636 315 
L 394.363636 43.2 
" style="fill:none;stroke:#000000;stroke-linecap:square;stroke-linejoin:miter;stroke-width:0.8;"/>
   </g>
   <g id="patch_10">
    <path d="M 648 315 
L 648 43.2 
" style="fill:none;stroke:#000000;stroke-linecap:square;stroke-linejoin:miter;stroke-width:0.8;"/>
   </g>
   <g id="patch_11">
    <path d="M 394.363636 315 
L 648 315 
" style="fill:none;stroke:#000000;stroke-linecap:square;stroke-linejoin:miter;stroke-width:0.8;"/>
   </g>
   <g id="patch_12">
    <path d="M 394.363636 43.2 
L 648 43.2 
" style="fill:none;stroke:#000000;stroke-linecap:square;stroke-linejoin:miter;stroke-width:0.8;"/>
   </g>
   <g id="text_28">
    <!-- Negative Marginal Likelihood -->
    <defs>
     <path d="M 9.8125 72.90625 
L 23.09375 72.90625 
L 55.421875 11.921875 
L 55.421875 72.90625 
L 64.984375 72.90625 
L 64.984375 0 
L 51.703125 0 
L 19.390625 60.984375 
L 19.390625 0 
L 9.8125 0 
z
" id="DejaVuSans-4e"/>
     <path d="M 45.40625 27.984375 
Q 45.40625 37.75 41.375 43.109375 
Q 37.359375 48.484375 30.078125 48.484375 
Q 22.859375 48.484375 18.828125 43.109375 
Q 14.796875 37.75 14.796875 27.984375 
Q 14.796875 18.265625 18.828125 12.890625 
Q 22.859375 7.515625 30.078125 7.515625 
Q 37.359375 7.515625 41.375 12.890625 
Q 45.40625 18.265625 45.40625 27.984375 
z
M 54.390625 6.78125 
Q 54.390625 -7.171875 48.1875 -13.984375 
Q 42 -20.796875 29.203125 -20.796875 
Q 24.46875 -20.796875 20.265625 -20.09375 
Q 16.0625 -19.390625 12.109375 -17.921875 
L 12.109375 -9.1875 
Q 16.0625 -11.328125 19.921875 -12.34375 
Q 23.78125 -13.375 27.78125 -13.375 
Q 36.625 -13.375 41.015625 -8.765625 
Q 45.40625 -4.15625 45.40625 5.171875 
L 45.40625 9.625 
Q 42.625 4.78125 38.28125 2.390625 
Q 33.9375 0 27.875 0 
Q 17.828125 0 11.671875 7.65625 
Q 5.515625 15.328125 5.515625 27.984375 
Q 5.515625 40.671875 11.671875 48.328125 
Q 17.828125 56 27.875 56 
Q 33.9375 56 38.28125 53.609375 
Q 42.625 51.21875 45.40625 46.390625 
L 45.40625 54.6875 
L 54.390625 54.6875 
z
" id="DejaVuSans-67"/>
     <path d="M 34.28125 27.484375 
Q 23.390625 27.484375 19.1875 25 
Q 14.984375 22.515625 14.984375 16.5 
Q 14.984375 11.71875 18.140625 8.90625 
Q 21.296875 6.109375 26.703125 6.109375 
Q 34.1875 6.109375 38.703125 11.40625 
Q 43.21875 16.703125 43.21875 25.484375 
L 43.21875 27.484375 
z
M 52.203125 31.203125 
L 52.203125 0 
L 43.21875 0 
L 43.21875 8.296875 
Q 40.140625 3.328125 35.546875 0.953125 
Q 30.953125 -1.421875 24.3125 -1.421875 
Q 15.921875 -1.421875 10.953125 3.296875 
Q 6 8.015625 6 15.921875 
Q 6 25.140625 12.171875 29.828125 
Q 18.359375 34.515625 30.609375 34.515625 
L 43.21875 34.515625 
L 43.21875 35.40625 
Q 43.21875 41.609375 39.140625 45 
Q 35.0625 48.390625 27.6875 48.390625 
Q 23 48.390625 18.546875 47.265625 
Q 14.109375 46.140625 10.015625 43.890625 
L 10.015625 52.203125 
Q 14.9375 54.109375 19.578125 55.046875 
Q 24.21875 56 28.609375 56 
Q 40.484375 56 46.34375 49.84375 
Q 52.203125 43.703125 52.203125 31.203125 
z
" id="DejaVuSans-61"/>
     <path d="M 18.3125 70.21875 
L 18.3125 54.6875 
L 36.8125 54.6875 
L 36.8125 47.703125 
L 18.3125 47.703125 
L 18.3125 18.015625 
Q 18.3125 11.328125 20.140625 9.421875 
Q 21.96875 7.515625 27.59375 7.515625 
L 36.8125 7.515625 
L 36.8125 0 
L 27.59375 0 
Q 17.1875 0 13.234375 3.875 
Q 9.28125 7.765625 9.28125 18.015625 
L 9.28125 47.703125 
L 2.6875 47.703125 
L 2.6875 54.6875 
L 9.28125 54.6875 
L 9.28125 70.21875 
z
" id="DejaVuSans-74"/>
     <path d="M 9.421875 54.6875 
L 18.40625 54.6875 
L 18.40625 0 
L 9.421875 0 
z
M 9.421875 75.984375 
L 18.40625 75.984375 
L 18.40625 64.59375 
L 9.421875 64.59375 
z
" id="DejaVuSans-69"/>
     <path d="M 2.984375 54.6875 
L 12.5 54.6875 
L 29.59375 8.796875 
L 46.6875 54.6875 
L 56.203125 54.6875 
L 35.6875 0 
L 23.484375 0 
z
" id="DejaVuSans-76"/>
     <path id="DejaVuSans-20"/>
     <path d="M 9.8125 72.90625 
L 24.515625 72.90625 
L 43.109375 23.296875 
L 61.8125 72.90625 
L 76.515625 72.90625 
L 76.515625 0 
L 66.890625 0 
L 66.890625 64.015625 
L 48.09375 14.015625 
L 38.1875 14.015625 
L 19.390625 64.015625 
L 19.390625 0 
L 9.8125 0 
z
" id="DejaVuSans-4d"/>
     <path d="M 9.421875 75.984375 
L 18.40625 75.984375 
L 18.40625 0 
L 9.421875 0 
z
" id="DejaVuSans-6c"/>
     <path d="M 9.8125 72.90625 
L 19.671875 72.90625 
L 19.671875 8.296875 
L 55.171875 8.296875 
L 55.171875 0 
L 9.8125 0 
z
" id="DejaVuSans-4c"/>
     <path d="M 9.078125 75.984375 
L 18.109375 75.984375 
L 18.109375 31.109375 
L 44.921875 54.6875 
L 56.390625 54.6875 
L 27.390625 29.109375 
L 57.625 0 
L 45.90625 0 
L 18.109375 26.703125 
L 18.109375 0 
L 9.078125 0 
z
" id="DejaVuSans-6b"/>
     <path d="M 54.890625 33.015625 
L 54.890625 0 
L 45.90625 0 
L 45.90625 32.71875 
Q 45.90625 40.484375 42.875 44.328125 
Q 39.84375 48.1875 33.796875 48.1875 
Q 26.515625 48.1875 22.3125 43.546875 
Q 18.109375 38.921875 18.109375 30.90625 
L 18.109375 0 
L 9.078125 0 
L 9.078125 75.984375 
L 18.109375 75.984375 
L 18.109375 46.1875 
Q 21.34375 51.125 25.703125 53.5625 
Q 30.078125 56 35.796875 56 
Q 45.21875 56 50.046875 50.171875 
Q 54.890625 44.34375 54.890625 33.015625 
z
" id="DejaVuSans-68"/>
     <path d="M 30.609375 48.390625 
Q 23.390625 48.390625 19.1875 42.75 
Q 14.984375 37.109375 14.984375 27.296875 
Q 14.984375 17.484375 19.15625 11.84375 
Q 23.34375 6.203125 30.609375 6.203125 
Q 37.796875 6.203125 41.984375 11.859375 
Q 46.1875 17.53125 46.1875 27.296875 
Q 46.1875 37.015625 41.984375 42.703125 
Q 37.796875 48.390625 30.609375 48.390625 
z
M 30.609375 56 
Q 42.328125 56 49.015625 48.375 
Q 55.71875 40.765625 55.71875 27.296875 
Q 55.71875 13.875 49.015625 6.21875 
Q 42.328125 -1.421875 30.609375 -1.421875 
Q 18.84375 -1.421875 12.171875 6.21875 
Q 5.515625 13.875 5.515625 27.296875 
Q 5.515625 40.765625 12.171875 48.375 
Q 18.84375 56 30.609375 56 
z
" id="DejaVuSans-6f"/>
     <path d="M 45.40625 46.390625 
L 45.40625 75.984375 
L 54.390625 75.984375 
L 54.390625 0 
L 45.40625 0 
L 45.40625 8.203125 
Q 42.578125 3.328125 38.25 0.953125 
Q 33.9375 -1.421875 27.875 -1.421875 
Q 17.96875 -1.421875 11.734375 6.484375 
Q 5.515625 14.40625 5.515625 27.296875 
Q 5.515625 40.1875 11.734375 48.09375 
Q 17.96875 56 27.875 56 
Q 33.9375 56 38.25 53.625 
Q 42.578125 51.265625 45.40625 46.390625 
z
M 14.796875 27.296875 
Q 14.796875 17.390625 18.875 11.75 
Q 22.953125 6.109375 30.078125 6.109375 
Q 37.203125 6.109375 41.296875 11.75 
Q 45.40625 17.390625 45.40625 27.296875 
Q 45.40625 37.203125 41.296875 42.84375 
Q 37.203125 48.484375 30.078125 48.484375 
Q 22.953125 48.484375 18.875 42.84375 
Q 14.796875 37.203125 14.796875 27.296875 
z
" id="DejaVuSans-64"/>
    </defs>
    <g transform="translate(375.939631 37.2)scale(0.2 -0.2)">
     <use xlink:href="#DejaVuSans-4e"/>
     <use x="74.804688" xlink:href="#DejaVuSans-65"/>
     <use x="136.328125" xlink:href="#DejaVuSans-67"/>
     <use x="199.804688" xlink:href="#DejaVuSans-61"/>
     <use x="261.083984" xlink:href="#DejaVuSans-74"/>
     <use x="300.292969" xlink:href="#DejaVuSans-69"/>
     <use x="328.076172" xlink:href="#DejaVuSans-76"/>
     <use x="387.255859" xlink:href="#DejaVuSans-65"/>
     <use x="448.779297" xlink:href="#DejaVuSans-20"/>
     <use x="480.566406" xlink:href="#DejaVuSans-4d"/>
     <use x="566.845703" xlink:href="#DejaVuSans-61"/>
     <use x="628.125" xlink:href="#DejaVuSans-72"/>
     <use x="669.222656" xlink:href="#DejaVuSans-67"/>
     <use x="732.699219" xlink:href="#DejaVuSans-69"/>
     <use x="760.482422" xlink:href="#DejaVuSans-6e"/>
     <use x="823.861328" xlink:href="#DejaVuSans-61"/>
     <use x="885.140625" xlink:href="#DejaVuSans-6c"/>
     <use x="912.923828" xlink:href="#DejaVuSans-20"/>
     <use x="944.710938" xlink:href="#DejaVuSans-4c"/>
     <use x="1000.423828" xlink:href="#DejaVuSans-69"/>
     <use x="1028.207031" xlink:href="#DejaVuSans-6b"/>
     <use x="1086.070312" xlink:href="#DejaVuSans-65"/>
     <use x="1147.59375" xlink:href="#DejaVuSans-6c"/>
     <use x="1175.376953" xlink:href="#DejaVuSans-69"/>
     <use x="1203.160156" xlink:href="#DejaVuSans-68"/>
     <use x="1266.539062" xlink:href="#DejaVuSans-6f"/>
     <use x="1327.720703" xlink:href="#DejaVuSans-6f"/>
     <use x="1388.902344" xlink:href="#DejaVuSans-64"/>
    </g>
   </g>
  </g>
 </g>
 <defs>
  <clipPath id="p75002b7015">
   <rect height="271.8" width="253.636364" x="90" y="43.2"/>
  </clipPath>
  <clipPath id="pbba4fc261d">
   <rect height="271.8" width="253.636364" x="394.363636" y="43.2"/>
  </clipPath>
 </defs>
</svg>
