<?xml version="1.0" encoding="utf-8" standalone="no"?>
<!DOCTYPE svg PUBLIC "-//W3C//DTD SVG 1.1//EN"
  "http://www.w3.org/Graphics/SVG/1.1/DTD/svg11.dtd">
<!-- Created with matplotlib (http://matplotlib.org/) -->
<svg height="360pt" version="1.1" viewBox="0 0 720 360" width="720pt" xmlns="http://www.w3.org/2000/svg" xmlns:xlink="http://www.w3.org/1999/xlink">
 <defs>
  <style type="text/css">
*{stroke-linecap:butt;stroke-linejoin:round;}
  </style>
 </defs>
 <g id="figure_1">
  <g id="patch_1">
   <path d="M 0 360 
L 720 360 
L 720 0 
L 0 0 
z
" style="fill:none;"/>
  </g>
  <g id="axes_1">
   <g id="patch_2">
    <path d="M 90 315 
L 343.636364 315 
L 343.636364 43.2 
L 90 43.2 
z
" style="fill:none;"/>
   </g>
   <g id="patch_3">
    <path clip-path="url(#pfa959719d2)" d="M 101.528926 53.138765 
L 103.316356 63.081581 
L 105.103786 71.751205 
L 106.891217 79.219645 
L 108.678647 85.527306 
L 110.466077 90.718127 
L 112.253508 94.905499 
L 114.040938 98.335424 
L 115.828368 101.369351 
L 117.615799 104.372586 
L 119.403229 107.607568 
L 121.190659 111.205304 
L 122.97809 115.193536 
L 124.76552 119.537201 
L 126.55295 124.170129 
L 128.340381 129.015158 
L 130.127811 133.995594 
L 131.915241 139.041205 
L 133.702672 144.090987 
L 135.490102 149.094089 
L 137.277532 154.009673 
L 139.064963 158.8062 
L 140.852393 163.460402 
L 142.639823 167.956124 
L 144.427254 172.283145 
L 146.214684 176.436046 
L 148.002114 180.413185 
L 149.789544 184.215795 
L 151.576975 187.847232 
L 153.364405 191.312358 
L 155.151835 194.617054 
L 156.939266 197.767849 
L 158.726696 200.771641 
L 160.514126 203.635497 
L 162.301557 206.366506 
L 164.088987 208.971685 
L 165.876417 211.457902 
L 167.663848 213.831843 
L 169.451278 216.099971 
L 171.238708 218.268515 
L 173.026139 220.343454 
L 174.813569 222.330512 
L 176.600999 224.235154 
L 178.38843 226.062582 
L 180.17586 227.817736 
L 181.96329 229.505295 
L 183.750721 231.129678 
L 185.538151 232.695046 
L 187.325581 234.205305 
L 189.113012 235.664113 
L 190.900442 237.07488 
L 192.687872 238.440775 
L 194.475303 239.764735 
L 196.262733 241.049469 
L 198.050163 242.297466 
L 199.837594 243.511002 
L 201.625024 244.692149 
L 203.412454 245.842786 
L 205.199885 246.964603 
L 206.987315 248.059116 
L 208.774745 249.127673 
L 210.562176 250.171464 
L 212.349606 251.191535 
L 214.137036 252.188793 
L 215.924467 253.164018 
L 217.711897 254.117876 
L 219.499327 255.050924 
L 221.286758 255.963627 
L 223.074188 256.856361 
L 224.861618 257.729428 
L 226.649049 258.583061 
L 228.436479 259.417437 
L 230.223909 260.232683 
L 232.01134 261.028882 
L 233.79877 261.806083 
L 235.5862 262.564306 
L 237.373631 263.303543 
L 239.161061 264.023767 
L 240.948491 264.724926 
L 242.735922 265.406953 
L 244.523352 266.069753 
L 246.310782 266.713212 
L 248.098213 267.337179 
L 249.885643 267.941467 
L 251.673073 268.525844 
L 253.460504 269.090014 
L 255.247934 269.633612 
L 257.035364 270.156185 
L 258.822795 270.657179 
L 260.610225 271.13592 
L 262.397655 271.591602 
L 264.185086 272.023276 
L 265.972516 272.429838 
L 267.759946 272.810035 
L 269.547377 273.162473 
L 271.334807 273.485646 
L 273.122237 273.77798 
L 274.909667 274.037912 
L 276.697098 274.26399 
L 278.484528 274.45501 
L 280.271958 274.610199 
L 282.059389 274.729421 
L 283.846819 274.813426 
L 285.634249 274.86411 
L 287.42168 274.884787 
L 289.20911 274.880415 
L 290.99654 274.857752 
L 292.783971 274.825366 
L 294.571401 274.793381 
L 296.358831 274.772809 
L 298.146262 274.774197 
L 299.933692 274.805193 
L 301.721122 274.86639 
L 303.508553 274.944536 
L 305.295983 275.001906 
L 307.083413 274.960835 
L 308.870844 274.683989 
L 310.658274 273.955667 
L 312.445704 272.476777 
L 314.233135 269.887813 
L 316.020565 265.816176 
L 317.807995 259.916444 
L 319.595426 251.874619 
L 321.382856 241.381676 
L 323.170286 228.100648 
L 324.957717 211.64189 
L 326.745147 191.547531 
L 328.532577 167.281233 
L 330.320008 138.219837 
L 332.107438 103.645 
L 332.107438 491.906284 
L 330.320008 458.66719 
L 328.532577 430.447212 
L 326.745147 406.628766 
L 324.957717 386.672788 
L 323.170286 370.112603 
L 321.382856 356.547558 
L 319.595426 345.63454 
L 317.807995 337.073987 
L 316.020565 330.586526 
L 314.233135 325.881265 
L 312.445704 322.630403 
L 310.658274 320.474396 
L 308.870844 319.06303 
L 307.083413 318.103439 
L 305.295983 317.383673 
L 303.508553 316.768189 
L 301.721122 316.179582 
L 299.933692 315.579234 
L 298.146262 314.952143 
L 296.358831 314.296558 
L 294.571401 313.617393 
L 292.783971 312.922252 
L 290.99654 312.21912 
L 289.20911 311.515127 
L 287.42168 310.815956 
L 285.634249 310.125655 
L 283.846819 309.446689 
L 282.059389 308.780122 
L 280.271958 308.125862 
L 278.484528 307.482941 
L 276.697098 306.849769 
L 274.909667 306.224377 
L 273.122237 305.604614 
L 271.334807 304.988308 
L 269.547377 304.373385 
L 267.759946 303.757955 
L 265.972516 303.14036 
L 264.185086 302.519204 
L 262.397655 301.893356 
L 260.610225 301.261937 
L 258.822795 300.624309 
L 257.035364 299.980037 
L 255.247934 299.328867 
L 253.460504 298.670691 
L 251.673073 298.005511 
L 249.885643 297.333414 
L 248.098213 296.65454 
L 246.310782 295.969057 
L 244.523352 295.277134 
L 242.735922 294.578926 
L 240.948491 293.874548 
L 239.161061 293.164068 
L 237.373631 292.447487 
L 235.5862 291.724732 
L 233.79877 290.995645 
L 232.01134 290.259976 
L 230.223909 289.517382 
L 228.436479 288.767415 
L 226.649049 288.009528 
L 224.861618 287.243066 
L 223.074188 286.467267 
L 221.286758 285.681263 
L 219.499327 284.884076 
L 217.711897 284.074622 
L 215.924467 283.251705 
L 214.137036 282.414021 
L 212.349606 281.560155 
L 210.562176 280.688581 
L 208.774745 279.797656 
L 206.987315 278.885623 
L 205.199885 277.950606 
L 203.412454 276.990603 
L 201.625024 276.003488 
L 199.837594 274.987 
L 198.050163 273.938741 
L 196.262733 272.856167 
L 194.475303 271.736586 
L 192.687872 270.577146 
L 190.900442 269.374831 
L 189.113012 268.126452 
L 187.325581 266.828644 
L 185.538151 265.477856 
L 183.750721 264.070352 
L 181.96329 262.602203 
L 180.17586 261.069294 
L 178.38843 259.467322 
L 176.600999 257.791811 
L 174.813569 256.038123 
L 173.026139 254.201483 
L 171.238708 252.27701 
L 169.451278 250.259757 
L 167.663848 248.144769 
L 165.876417 245.927147 
L 164.088987 243.602131 
L 162.301557 241.165202 
L 160.514126 238.61219 
L 158.726696 235.939409 
L 156.939266 233.143793 
L 155.151835 230.223047 
L 153.364405 227.175799 
L 151.576975 224.001741 
L 149.789544 220.701756 
L 148.002114 217.278018 
L 146.214684 213.734049 
L 144.427254 210.074728 
L 142.639823 206.306264 
L 140.852393 202.436114 
L 139.064963 198.472901 
L 137.277532 194.426351 
L 135.490102 190.307328 
L 133.702672 186.12804 
L 131.915241 181.902561 
L 130.127811 177.647847 
L 128.340381 173.38555 
L 126.55295 169.145115 
L 124.76552 164.968978 
L 122.97809 160.921278 
L 121.190659 157.102322 
L 119.403229 153.672047 
L 117.615799 150.88543 
L 115.828368 149.137038 
L 114.040938 148.99372 
L 112.253508 151.171033 
L 110.466077 156.431996 
L 108.678647 165.481536 
L 106.891217 178.95593 
L 105.103786 197.493215 
L 103.316356 221.80702 
L 101.528926 252.730378 
z
" style="fill:#cc3300;opacity:0.3;stroke:#cc3300;stroke-linejoin:miter;stroke-width:0.5;"/>
   </g>
   <g id="matplotlib.axis_1">
    <g id="xtick_1">
     <g id="line2d_1">
      <defs>
       <path d="M 0 0 
L 0 3.5 
" id="m971fcb4094" style="stroke:#000000;stroke-width:0.8;"/>
      </defs>
      <g>
       <use style="stroke:#000000;stroke-width:0.8;" x="115.940083" xlink:href="#m971fcb4094" y="315"/>
      </g>
     </g>
     <g id="text_1">
      <!-- 1900 -->
      <defs>
       <path d="M 12.40625 8.296875 
L 28.515625 8.296875 
L 28.515625 63.921875 
L 10.984375 60.40625 
L 10.984375 69.390625 
L 28.421875 72.90625 
L 38.28125 72.90625 
L 38.28125 8.296875 
L 54.390625 8.296875 
L 54.390625 0 
L 12.40625 0 
z
" id="DejaVuSans-31"/>
       <path d="M 10.984375 1.515625 
L 10.984375 10.5 
Q 14.703125 8.734375 18.5 7.8125 
Q 22.3125 6.890625 25.984375 6.890625 
Q 35.75 6.890625 40.890625 13.453125 
Q 46.046875 20.015625 46.78125 33.40625 
Q 43.953125 29.203125 39.59375 26.953125 
Q 35.25 24.703125 29.984375 24.703125 
Q 19.046875 24.703125 12.671875 31.3125 
Q 6.296875 37.9375 6.296875 49.421875 
Q 6.296875 60.640625 12.9375 67.421875 
Q 19.578125 74.21875 30.609375 74.21875 
Q 43.265625 74.21875 49.921875 64.515625 
Q 56.59375 54.828125 56.59375 36.375 
Q 56.59375 19.140625 48.40625 8.859375 
Q 40.234375 -1.421875 26.421875 -1.421875 
Q 22.703125 -1.421875 18.890625 -0.6875 
Q 15.09375 0.046875 10.984375 1.515625 
z
M 30.609375 32.421875 
Q 37.25 32.421875 41.125 36.953125 
Q 45.015625 41.5 45.015625 49.421875 
Q 45.015625 57.28125 41.125 61.84375 
Q 37.25 66.40625 30.609375 66.40625 
Q 23.96875 66.40625 20.09375 61.84375 
Q 16.21875 57.28125 16.21875 49.421875 
Q 16.21875 41.5 20.09375 36.953125 
Q 23.96875 32.421875 30.609375 32.421875 
z
" id="DejaVuSans-39"/>
       <path d="M 31.78125 66.40625 
Q 24.171875 66.40625 20.328125 58.90625 
Q 16.5 51.421875 16.5 36.375 
Q 16.5 21.390625 20.328125 13.890625 
Q 24.171875 6.390625 31.78125 6.390625 
Q 39.453125 6.390625 43.28125 13.890625 
Q 47.125 21.390625 47.125 36.375 
Q 47.125 51.421875 43.28125 58.90625 
Q 39.453125 66.40625 31.78125 66.40625 
z
M 31.78125 74.21875 
Q 44.046875 74.21875 50.515625 64.515625 
Q 56.984375 54.828125 56.984375 36.375 
Q 56.984375 17.96875 50.515625 8.265625 
Q 44.046875 -1.421875 31.78125 -1.421875 
Q 19.53125 -1.421875 13.0625 8.265625 
Q 6.59375 17.96875 6.59375 36.375 
Q 6.59375 54.828125 13.0625 64.515625 
Q 19.53125 74.21875 31.78125 74.21875 
z
" id="DejaVuSans-30"/>
      </defs>
      <g transform="translate(103.215083 329.598437)scale(0.1 -0.1)">
       <use xlink:href="#DejaVuSans-31"/>
       <use x="63.623047" xlink:href="#DejaVuSans-39"/>
       <use x="127.246094" xlink:href="#DejaVuSans-30"/>
       <use x="190.869141" xlink:href="#DejaVuSans-30"/>
      </g>
     </g>
    </g>
    <g id="xtick_2">
     <g id="line2d_2">
      <g>
       <use style="stroke:#000000;stroke-width:0.8;" x="151.967975" xlink:href="#m971fcb4094" y="315"/>
      </g>
     </g>
     <g id="text_2">
      <!-- 1920 -->
      <defs>
       <path d="M 19.1875 8.296875 
L 53.609375 8.296875 
L 53.609375 0 
L 7.328125 0 
L 7.328125 8.296875 
Q 12.9375 14.109375 22.625 23.890625 
Q 32.328125 33.6875 34.8125 36.53125 
Q 39.546875 41.84375 41.421875 45.53125 
Q 43.3125 49.21875 43.3125 52.78125 
Q 43.3125 58.59375 39.234375 62.25 
Q 35.15625 65.921875 28.609375 65.921875 
Q 23.96875 65.921875 18.8125 64.3125 
Q 13.671875 62.703125 7.8125 59.421875 
L 7.8125 69.390625 
Q 13.765625 71.78125 18.9375 73 
Q 24.125 74.21875 28.421875 74.21875 
Q 39.75 74.21875 46.484375 68.546875 
Q 53.21875 62.890625 53.21875 53.421875 
Q 53.21875 48.921875 51.53125 44.890625 
Q 49.859375 40.875 45.40625 35.40625 
Q 44.1875 33.984375 37.640625 27.21875 
Q 31.109375 20.453125 19.1875 8.296875 
z
" id="DejaVuSans-32"/>
      </defs>
      <g transform="translate(139.242975 329.598437)scale(0.1 -0.1)">
       <use xlink:href="#DejaVuSans-31"/>
       <use x="63.623047" xlink:href="#DejaVuSans-39"/>
       <use x="127.246094" xlink:href="#DejaVuSans-32"/>
       <use x="190.869141" xlink:href="#DejaVuSans-30"/>
      </g>
     </g>
    </g>
    <g id="xtick_3">
     <g id="line2d_3">
      <g>
       <use style="stroke:#000000;stroke-width:0.8;" x="187.995868" xlink:href="#m971fcb4094" y="315"/>
      </g>
     </g>
     <g id="text_3">
      <!-- 1940 -->
      <defs>
       <path d="M 37.796875 64.3125 
L 12.890625 25.390625 
L 37.796875 25.390625 
z
M 35.203125 72.90625 
L 47.609375 72.90625 
L 47.609375 25.390625 
L 58.015625 25.390625 
L 58.015625 17.1875 
L 47.609375 17.1875 
L 47.609375 0 
L 37.796875 0 
L 37.796875 17.1875 
L 4.890625 17.1875 
L 4.890625 26.703125 
z
" id="DejaVuSans-34"/>
      </defs>
      <g transform="translate(175.270868 329.598437)scale(0.1 -0.1)">
       <use xlink:href="#DejaVuSans-31"/>
       <use x="63.623047" xlink:href="#DejaVuSans-39"/>
       <use x="127.246094" xlink:href="#DejaVuSans-34"/>
       <use x="190.869141" xlink:href="#DejaVuSans-30"/>
      </g>
     </g>
    </g>
    <g id="xtick_4">
     <g id="line2d_4">
      <g>
       <use style="stroke:#000000;stroke-width:0.8;" x="224.02376" xlink:href="#m971fcb4094" y="315"/>
      </g>
     </g>
     <g id="text_4">
      <!-- 1960 -->
      <defs>
       <path d="M 33.015625 40.375 
Q 26.375 40.375 22.484375 35.828125 
Q 18.609375 31.296875 18.609375 23.390625 
Q 18.609375 15.53125 22.484375 10.953125 
Q 26.375 6.390625 33.015625 6.390625 
Q 39.65625 6.390625 43.53125 10.953125 
Q 47.40625 15.53125 47.40625 23.390625 
Q 47.40625 31.296875 43.53125 35.828125 
Q 39.65625 40.375 33.015625 40.375 
z
M 52.59375 71.296875 
L 52.59375 62.3125 
Q 48.875 64.0625 45.09375 64.984375 
Q 41.3125 65.921875 37.59375 65.921875 
Q 27.828125 65.921875 22.671875 59.328125 
Q 17.53125 52.734375 16.796875 39.40625 
Q 19.671875 43.65625 24.015625 45.921875 
Q 28.375 48.1875 33.59375 48.1875 
Q 44.578125 48.1875 50.953125 41.515625 
Q 57.328125 34.859375 57.328125 23.390625 
Q 57.328125 12.15625 50.6875 5.359375 
Q 44.046875 -1.421875 33.015625 -1.421875 
Q 20.359375 -1.421875 13.671875 8.265625 
Q 6.984375 17.96875 6.984375 36.375 
Q 6.984375 53.65625 15.1875 63.9375 
Q 23.390625 74.21875 37.203125 74.21875 
Q 40.921875 74.21875 44.703125 73.484375 
Q 48.484375 72.75 52.59375 71.296875 
z
" id="DejaVuSans-36"/>
      </defs>
      <g transform="translate(211.29876 329.598437)scale(0.1 -0.1)">
       <use xlink:href="#DejaVuSans-31"/>
       <use x="63.623047" xlink:href="#DejaVuSans-39"/>
       <use x="127.246094" xlink:href="#DejaVuSans-36"/>
       <use x="190.869141" xlink:href="#DejaVuSans-30"/>
      </g>
     </g>
    </g>
    <g id="xtick_5">
     <g id="line2d_5">
      <g>
       <use style="stroke:#000000;stroke-width:0.8;" x="260.051653" xlink:href="#m971fcb4094" y="315"/>
      </g>
     </g>
     <g id="text_5">
      <!-- 1980 -->
      <defs>
       <path d="M 31.78125 34.625 
Q 24.75 34.625 20.71875 30.859375 
Q 16.703125 27.09375 16.703125 20.515625 
Q 16.703125 13.921875 20.71875 10.15625 
Q 24.75 6.390625 31.78125 6.390625 
Q 38.8125 6.390625 42.859375 10.171875 
Q 46.921875 13.96875 46.921875 20.515625 
Q 46.921875 27.09375 42.890625 30.859375 
Q 38.875 34.625 31.78125 34.625 
z
M 21.921875 38.8125 
Q 15.578125 40.375 12.03125 44.71875 
Q 8.5 49.078125 8.5 55.328125 
Q 8.5 64.0625 14.71875 69.140625 
Q 20.953125 74.21875 31.78125 74.21875 
Q 42.671875 74.21875 48.875 69.140625 
Q 55.078125 64.0625 55.078125 55.328125 
Q 55.078125 49.078125 51.53125 44.71875 
Q 48 40.375 41.703125 38.8125 
Q 48.828125 37.15625 52.796875 32.3125 
Q 56.78125 27.484375 56.78125 20.515625 
Q 56.78125 9.90625 50.3125 4.234375 
Q 43.84375 -1.421875 31.78125 -1.421875 
Q 19.734375 -1.421875 13.25 4.234375 
Q 6.78125 9.90625 6.78125 20.515625 
Q 6.78125 27.484375 10.78125 32.3125 
Q 14.796875 37.15625 21.921875 38.8125 
z
M 18.3125 54.390625 
Q 18.3125 48.734375 21.84375 45.5625 
Q 25.390625 42.390625 31.78125 42.390625 
Q 38.140625 42.390625 41.71875 45.5625 
Q 45.3125 48.734375 45.3125 54.390625 
Q 45.3125 60.0625 41.71875 63.234375 
Q 38.140625 66.40625 31.78125 66.40625 
Q 25.390625 66.40625 21.84375 63.234375 
Q 18.3125 60.0625 18.3125 54.390625 
z
" id="DejaVuSans-38"/>
      </defs>
      <g transform="translate(247.326653 329.598437)scale(0.1 -0.1)">
       <use xlink:href="#DejaVuSans-31"/>
       <use x="63.623047" xlink:href="#DejaVuSans-39"/>
       <use x="127.246094" xlink:href="#DejaVuSans-38"/>
       <use x="190.869141" xlink:href="#DejaVuSans-30"/>
      </g>
     </g>
    </g>
    <g id="xtick_6">
     <g id="line2d_6">
      <g>
       <use style="stroke:#000000;stroke-width:0.8;" x="296.079545" xlink:href="#m971fcb4094" y="315"/>
      </g>
     </g>
     <g id="text_6">
      <!-- 2000 -->
      <g transform="translate(283.354545 329.598437)scale(0.1 -0.1)">
       <use xlink:href="#DejaVuSans-32"/>
       <use x="63.623047" xlink:href="#DejaVuSans-30"/>
       <use x="127.246094" xlink:href="#DejaVuSans-30"/>
       <use x="190.869141" xlink:href="#DejaVuSans-30"/>
      </g>
     </g>
    </g>
    <g id="xtick_7">
     <g id="line2d_7">
      <g>
       <use style="stroke:#000000;stroke-width:0.8;" x="332.107438" xlink:href="#m971fcb4094" y="315"/>
      </g>
     </g>
     <g id="text_7">
      <!-- 2020 -->
      <g transform="translate(319.382438 329.598437)scale(0.1 -0.1)">
       <use xlink:href="#DejaVuSans-32"/>
       <use x="63.623047" xlink:href="#DejaVuSans-30"/>
       <use x="127.246094" xlink:href="#DejaVuSans-32"/>
       <use x="190.869141" xlink:href="#DejaVuSans-30"/>
      </g>
     </g>
    </g>
   </g>
   <g id="matplotlib.axis_2">
    <g id="ytick_1">
     <g id="line2d_8">
      <defs>
       <path d="M 0 0 
L -3.5 0 
" id="mdee28221a0" style="stroke:#000000;stroke-width:0.8;"/>
      </defs>
      <g>
       <use style="stroke:#000000;stroke-width:0.8;" x="90" xlink:href="#mdee28221a0" y="302.509371"/>
      </g>
     </g>
     <g id="text_8">
      <!-- 3.0 -->
      <defs>
       <path d="M 40.578125 39.3125 
Q 47.65625 37.796875 51.625 33 
Q 55.609375 28.21875 55.609375 21.1875 
Q 55.609375 10.40625 48.1875 4.484375 
Q 40.765625 -1.421875 27.09375 -1.421875 
Q 22.515625 -1.421875 17.65625 -0.515625 
Q 12.796875 0.390625 7.625 2.203125 
L 7.625 11.71875 
Q 11.71875 9.328125 16.59375 8.109375 
Q 21.484375 6.890625 26.8125 6.890625 
Q 36.078125 6.890625 40.9375 10.546875 
Q 45.796875 14.203125 45.796875 21.1875 
Q 45.796875 27.640625 41.28125 31.265625 
Q 36.765625 34.90625 28.71875 34.90625 
L 20.21875 34.90625 
L 20.21875 43.015625 
L 29.109375 43.015625 
Q 36.375 43.015625 40.234375 45.921875 
Q 44.09375 48.828125 44.09375 54.296875 
Q 44.09375 59.90625 40.109375 62.90625 
Q 36.140625 65.921875 28.71875 65.921875 
Q 24.65625 65.921875 20.015625 65.03125 
Q 15.375 64.15625 9.8125 62.3125 
L 9.8125 71.09375 
Q 15.4375 72.65625 20.34375 73.4375 
Q 25.25 74.21875 29.59375 74.21875 
Q 40.828125 74.21875 47.359375 69.109375 
Q 53.90625 64.015625 53.90625 55.328125 
Q 53.90625 49.265625 50.4375 45.09375 
Q 46.96875 40.921875 40.578125 39.3125 
z
" id="DejaVuSans-33"/>
       <path d="M 10.6875 12.40625 
L 21 12.40625 
L 21 0 
L 10.6875 0 
z
" id="DejaVuSans-2e"/>
      </defs>
      <g transform="translate(67.096875 306.308589)scale(0.1 -0.1)">
       <use xlink:href="#DejaVuSans-33"/>
       <use x="63.623047" xlink:href="#DejaVuSans-2e"/>
       <use x="95.410156" xlink:href="#DejaVuSans-30"/>
      </g>
     </g>
    </g>
    <g id="ytick_2">
     <g id="line2d_9">
      <g>
       <use style="stroke:#000000;stroke-width:0.8;" x="90" xlink:href="#mdee28221a0" y="246.941062"/>
      </g>
     </g>
     <g id="text_9">
      <!-- 3.5 -->
      <defs>
       <path d="M 10.796875 72.90625 
L 49.515625 72.90625 
L 49.515625 64.59375 
L 19.828125 64.59375 
L 19.828125 46.734375 
Q 21.96875 47.46875 24.109375 47.828125 
Q 26.265625 48.1875 28.421875 48.1875 
Q 40.625 48.1875 47.75 41.5 
Q 54.890625 34.8125 54.890625 23.390625 
Q 54.890625 11.625 47.5625 5.09375 
Q 40.234375 -1.421875 26.90625 -1.421875 
Q 22.3125 -1.421875 17.546875 -0.640625 
Q 12.796875 0.140625 7.71875 1.703125 
L 7.71875 11.625 
Q 12.109375 9.234375 16.796875 8.0625 
Q 21.484375 6.890625 26.703125 6.890625 
Q 35.15625 6.890625 40.078125 11.328125 
Q 45.015625 15.765625 45.015625 23.390625 
Q 45.015625 31 40.078125 35.4375 
Q 35.15625 39.890625 26.703125 39.890625 
Q 22.75 39.890625 18.8125 39.015625 
Q 14.890625 38.140625 10.796875 36.28125 
z
" id="DejaVuSans-35"/>
      </defs>
      <g transform="translate(67.096875 250.740281)scale(0.1 -0.1)">
       <use xlink:href="#DejaVuSans-33"/>
       <use x="63.623047" xlink:href="#DejaVuSans-2e"/>
       <use x="95.410156" xlink:href="#DejaVuSans-35"/>
      </g>
     </g>
    </g>
    <g id="ytick_3">
     <g id="line2d_10">
      <g>
       <use style="stroke:#000000;stroke-width:0.8;" x="90" xlink:href="#mdee28221a0" y="191.372753"/>
      </g>
     </g>
     <g id="text_10">
      <!-- 4.0 -->
      <g transform="translate(67.096875 195.171972)scale(0.1 -0.1)">
       <use xlink:href="#DejaVuSans-34"/>
       <use x="63.623047" xlink:href="#DejaVuSans-2e"/>
       <use x="95.410156" xlink:href="#DejaVuSans-30"/>
      </g>
     </g>
    </g>
    <g id="ytick_4">
     <g id="line2d_11">
      <g>
       <use style="stroke:#000000;stroke-width:0.8;" x="90" xlink:href="#mdee28221a0" y="135.804445"/>
      </g>
     </g>
     <g id="text_11">
      <!-- 4.5 -->
      <g transform="translate(67.096875 139.603663)scale(0.1 -0.1)">
       <use xlink:href="#DejaVuSans-34"/>
       <use x="63.623047" xlink:href="#DejaVuSans-2e"/>
       <use x="95.410156" xlink:href="#DejaVuSans-35"/>
      </g>
     </g>
    </g>
    <g id="ytick_5">
     <g id="line2d_12">
      <g>
       <use style="stroke:#000000;stroke-width:0.8;" x="90" xlink:href="#mdee28221a0" y="80.236136"/>
      </g>
     </g>
     <g id="text_12">
      <!-- 5.0 -->
      <g transform="translate(67.096875 84.035355)scale(0.1 -0.1)">
       <use xlink:href="#DejaVuSans-35"/>
       <use x="63.623047" xlink:href="#DejaVuSans-2e"/>
       <use x="95.410156" xlink:href="#DejaVuSans-30"/>
      </g>
     </g>
    </g>
   </g>
   <g id="line2d_13">
    <defs>
     <path d="M 0 3 
C 0.795609 3 1.55874 2.683901 2.12132 2.12132 
C 2.683901 1.55874 3 0.795609 3 0 
C 3 -0.795609 2.683901 -1.55874 2.12132 -2.12132 
C 1.55874 -2.683901 0.795609 -3 0 -3 
C -0.795609 -3 -1.55874 -2.683901 -2.12132 -2.12132 
C -2.683901 -1.55874 -3 -0.795609 -3 0 
C -3 0.795609 -2.683901 1.55874 -2.12132 2.12132 
C -1.55874 2.683901 -0.795609 3 0 3 
z
" id="mb3dcbe8ab9" style="stroke:#ff0000;"/>
    </defs>
    <g clip-path="url(#pfa959719d2)">
     <use style="fill:#ff0000;stroke:#ff0000;" x="108.734504" xlink:href="#mb3dcbe8ab9" y="139.045929"/>
     <use style="fill:#ff0000;stroke:#ff0000;" x="115.940083" xlink:href="#mb3dcbe8ab9" y="139.724315"/>
     <use style="fill:#ff0000;stroke:#ff0000;" x="123.145661" xlink:href="#mb3dcbe8ab9" y="55.554545"/>
     <use style="fill:#ff0000;stroke:#ff0000;" x="130.35124" xlink:href="#mb3dcbe8ab9" y="174.182289"/>
     <use style="fill:#ff0000;stroke:#ff0000;" x="137.556818" xlink:href="#mb3dcbe8ab9" y="202.117803"/>
     <use style="fill:#ff0000;stroke:#ff0000;" x="151.967975" xlink:href="#mb3dcbe8ab9" y="239.215659"/>
     <use style="fill:#ff0000;stroke:#ff0000;" x="159.173554" xlink:href="#mb3dcbe8ab9" y="210.872254"/>
     <use style="fill:#ff0000;stroke:#ff0000;" x="166.379132" xlink:href="#mb3dcbe8ab9" y="233.067093"/>
     <use style="fill:#ff0000;stroke:#ff0000;" x="173.584711" xlink:href="#mb3dcbe8ab9" y="236.622832"/>
     <use style="fill:#ff0000;stroke:#ff0000;" x="180.790289" xlink:href="#mb3dcbe8ab9" y="242.628082"/>
     <use style="fill:#ff0000;stroke:#ff0000;" x="202.407025" xlink:href="#mb3dcbe8ab9" y="228.03638"/>
     <use style="fill:#ff0000;stroke:#ff0000;" x="209.612603" xlink:href="#mb3dcbe8ab9" y="259.133737"/>
     <use style="fill:#ff0000;stroke:#ff0000;" x="216.818182" xlink:href="#mb3dcbe8ab9" y="254.006448"/>
     <use style="fill:#ff0000;stroke:#ff0000;" x="224.02376" xlink:href="#mb3dcbe8ab9" y="279.634112"/>
     <use style="fill:#ff0000;stroke:#ff0000;" x="231.229339" xlink:href="#mb3dcbe8ab9" y="287.755246"/>
     <use style="fill:#ff0000;stroke:#ff0000;" x="238.434917" xlink:href="#mb3dcbe8ab9" y="266.034506"/>
     <use style="fill:#ff0000;stroke:#ff0000;" x="245.640496" xlink:href="#mb3dcbe8ab9" y="287.412842"/>
     <use style="fill:#ff0000;stroke:#ff0000;" x="252.846074" xlink:href="#mb3dcbe8ab9" y="293.734156"/>
     <use style="fill:#ff0000;stroke:#ff0000;" x="260.051653" xlink:href="#mb3dcbe8ab9" y="290.749091"/>
     <use style="fill:#ff0000;stroke:#ff0000;" x="267.257231" xlink:href="#mb3dcbe8ab9" y="295.226689"/>
     <use style="fill:#ff0000;stroke:#ff0000;" x="274.46281" xlink:href="#mb3dcbe8ab9" y="292.10993"/>
     <use style="fill:#ff0000;stroke:#ff0000;" x="281.668388" xlink:href="#mb3dcbe8ab9" y="284.603368"/>
     <use style="fill:#ff0000;stroke:#ff0000;" x="288.873967" xlink:href="#mb3dcbe8ab9" y="286.666575"/>
     <use style="fill:#ff0000;stroke:#ff0000;" x="296.079545" xlink:href="#mb3dcbe8ab9" y="293.031788"/>
     <use style="fill:#ff0000;stroke:#ff0000;" x="303.285124" xlink:href="#mb3dcbe8ab9" y="291.100275"/>
     <use style="fill:#ff0000;stroke:#ff0000;" x="310.490702" xlink:href="#mb3dcbe8ab9" y="302.645455"/>
     <use style="fill:#ff0000;stroke:#ff0000;" x="317.696281" xlink:href="#mb3dcbe8ab9" y="298.738531"/>
    </g>
   </g>
   <g id="line2d_14">
    <path clip-path="url(#pfa959719d2)" d="M 101.528926 152.934571 
L 103.316356 142.444301 
L 105.103786 134.62221 
L 106.891217 129.087788 
L 108.678647 125.504421 
L 110.466077 123.575061 
L 112.253508 123.038266 
L 114.040938 123.664572 
L 115.828368 125.253194 
L 117.615799 127.629008 
L 119.403229 130.639808 
L 121.190659 134.153813 
L 122.97809 138.057407 
L 126.55295 146.657622 
L 133.702672 165.109513 
L 139.064963 178.639551 
L 142.639823 187.131194 
L 146.214684 195.085047 
L 149.789544 202.458776 
L 153.364405 209.244079 
L 156.939266 215.455821 
L 160.514126 221.123843 
L 164.088987 226.286908 
L 167.663848 230.988306 
L 171.238708 235.272762 
L 174.813569 239.184317 
L 178.38843 242.764952 
L 181.96329 246.053749 
L 185.538151 249.086451 
L 189.113012 251.895283 
L 194.475303 255.750661 
L 199.837594 259.249001 
L 205.199885 262.457604 
L 210.562176 265.430023 
L 217.711897 269.096249 
L 224.861618 272.486247 
L 232.01134 275.644429 
L 239.161061 278.593917 
L 246.310782 281.341134 
L 253.460504 283.880352 
L 260.610225 286.198928 
L 267.759946 288.283995 
L 274.909667 290.131145 
L 282.059389 291.754771 
L 290.99654 293.538436 
L 317.807995 298.495216 
L 321.382856 298.964617 
L 324.957717 299.157339 
L 326.745147 299.088149 
L 328.532577 298.864223 
L 330.320008 298.443514 
L 332.107438 297.775642 
L 332.107438 297.775642 
" style="fill:none;stroke:#3300ff;stroke-linecap:square;stroke-width:2;"/>
   </g>
   <g id="line2d_15">
    <path clip-path="url(#pfa959719d2)" d="M 101.528926 53.138765 
L 103.316356 63.081581 
L 105.103786 71.751205 
L 106.891217 79.219645 
L 108.678647 85.527306 
L 110.466077 90.718127 
L 112.253508 94.905499 
L 114.040938 98.335424 
L 119.403229 107.607568 
L 121.190659 111.205304 
L 122.97809 115.193536 
L 126.55295 124.170129 
L 130.127811 133.995594 
L 137.277532 154.009673 
L 140.852393 163.460402 
L 144.427254 172.283145 
L 148.002114 180.413185 
L 151.576975 187.847232 
L 155.151835 194.617054 
L 158.726696 200.771641 
L 162.301557 206.366506 
L 165.876417 211.457902 
L 169.451278 216.099971 
L 173.026139 220.343454 
L 176.600999 224.235154 
L 180.17586 227.817736 
L 183.750721 231.129678 
L 187.325581 234.205305 
L 192.687872 238.440775 
L 198.050163 242.297466 
L 203.412454 245.842786 
L 208.774745 249.127673 
L 214.137036 252.188793 
L 221.286758 255.963627 
L 228.436479 259.417437 
L 235.5862 262.564306 
L 242.735922 265.406953 
L 249.885643 267.941467 
L 255.247934 269.633612 
L 260.610225 271.13592 
L 265.972516 272.429838 
L 271.334807 273.485646 
L 276.697098 274.26399 
L 282.059389 274.729421 
L 287.42168 274.884787 
L 303.508553 274.944536 
L 307.083413 274.960835 
L 308.870844 274.683989 
L 310.658274 273.955667 
L 312.445704 272.476777 
L 314.233135 269.887813 
L 316.020565 265.816176 
L 317.807995 259.916444 
L 319.595426 251.874619 
L 321.382856 241.381676 
L 323.170286 228.100648 
L 324.957717 211.64189 
L 326.745147 191.547531 
L 328.532577 167.281233 
L 330.320008 138.219837 
L 332.107438 103.645 
L 332.107438 103.645 
" style="fill:none;stroke:#3300ff;stroke-linecap:square;stroke-width:0.2;"/>
   </g>
   <g id="line2d_16">
    <path clip-path="url(#pfa959719d2)" d="M 101.528926 252.730378 
L 103.316356 221.80702 
L 105.103786 197.493215 
L 106.891217 178.95593 
L 108.678647 165.481536 
L 110.466077 156.431996 
L 112.253508 151.171033 
L 114.040938 148.99372 
L 115.828368 149.137038 
L 117.615799 150.88543 
L 119.403229 153.672047 
L 121.190659 157.102322 
L 124.76552 164.968978 
L 140.852393 202.436114 
L 144.427254 210.074728 
L 148.002114 217.278018 
L 151.576975 224.001741 
L 155.151835 230.223047 
L 158.726696 235.939409 
L 162.301557 241.165202 
L 165.876417 245.927147 
L 169.451278 250.259757 
L 173.026139 254.201483 
L 176.600999 257.791811 
L 180.17586 261.069294 
L 183.750721 264.070352 
L 187.325581 266.828644 
L 190.900442 269.374831 
L 196.262733 272.856167 
L 201.625024 276.003488 
L 206.987315 278.885623 
L 214.137036 282.414021 
L 221.286758 285.681263 
L 230.223909 289.517382 
L 240.948491 293.874548 
L 251.673073 298.005511 
L 262.397655 301.893356 
L 285.634249 310.125655 
L 299.933692 315.579234 
L 305.295983 317.383673 
L 307.083413 318.103439 
L 308.870844 319.06303 
L 310.658274 320.474396 
L 312.445704 322.630403 
L 314.233135 325.881265 
L 316.020565 330.586526 
L 317.807995 337.073987 
L 319.595426 345.63454 
L 321.382856 356.547558 
L 321.969543 361 
L 321.969543 361 
" style="fill:none;stroke:#3300ff;stroke-linecap:square;stroke-width:0.2;"/>
   </g>
   <g id="patch_4">
    <path d="M 90 315 
L 90 43.2 
" style="fill:none;stroke:#000000;stroke-linecap:square;stroke-linejoin:miter;stroke-width:0.8;"/>
   </g>
   <g id="patch_5">
    <path d="M 343.636364 315 
L 343.636364 43.2 
" style="fill:none;stroke:#000000;stroke-linecap:square;stroke-linejoin:miter;stroke-width:0.8;"/>
   </g>
   <g id="patch_6">
    <path d="M 90 315 
L 343.636364 315 
" style="fill:none;stroke:#000000;stroke-linecap:square;stroke-linejoin:miter;stroke-width:0.8;"/>
   </g>
   <g id="patch_7">
    <path d="M 90 43.2 
L 343.636364 43.2 
" style="fill:none;stroke:#000000;stroke-linecap:square;stroke-linejoin:miter;stroke-width:0.8;"/>
   </g>
  </g>
  <g id="axes_2">
   <g id="patch_8">
    <path d="M 394.363636 315 
L 648 315 
L 648 43.2 
L 394.363636 43.2 
z
" style="fill:none;"/>
   </g>
   <g id="matplotlib.axis_3">
    <g id="xtick_8">
     <g id="line2d_17">
      <g>
       <use style="stroke:#000000;stroke-width:0.8;" x="394.363636" xlink:href="#m971fcb4094" y="315"/>
      </g>
     </g>
     <g id="text_13">
      <!-- 0 -->
      <g transform="translate(391.182386 329.598437)scale(0.1 -0.1)">
       <use xlink:href="#DejaVuSans-30"/>
      </g>
     </g>
    </g>
    <g id="xtick_9">
     <g id="line2d_18">
      <g>
       <use style="stroke:#000000;stroke-width:0.8;" x="439.655844" xlink:href="#m971fcb4094" y="315"/>
      </g>
     </g>
     <g id="text_14">
      <!-- 5 -->
      <g transform="translate(436.474594 329.598437)scale(0.1 -0.1)">
       <use xlink:href="#DejaVuSans-35"/>
      </g>
     </g>
    </g>
    <g id="xtick_10">
     <g id="line2d_19">
      <g>
       <use style="stroke:#000000;stroke-width:0.8;" x="484.948052" xlink:href="#m971fcb4094" y="315"/>
      </g>
     </g>
     <g id="text_15">
      <!-- 10 -->
      <g transform="translate(478.585552 329.598437)scale(0.1 -0.1)">
       <use xlink:href="#DejaVuSans-31"/>
       <use x="63.623047" xlink:href="#DejaVuSans-30"/>
      </g>
     </g>
    </g>
    <g id="xtick_11">
     <g id="line2d_20">
      <g>
       <use style="stroke:#000000;stroke-width:0.8;" x="530.24026" xlink:href="#m971fcb4094" y="315"/>
      </g>
     </g>
     <g id="text_16">
      <!-- 15 -->
      <g transform="translate(523.87776 329.598437)scale(0.1 -0.1)">
       <use xlink:href="#DejaVuSans-31"/>
       <use x="63.623047" xlink:href="#DejaVuSans-35"/>
      </g>
     </g>
    </g>
    <g id="xtick_12">
     <g id="line2d_21">
      <g>
       <use style="stroke:#000000;stroke-width:0.8;" x="575.532468" xlink:href="#m971fcb4094" y="315"/>
      </g>
     </g>
     <g id="text_17">
      <!-- 20 -->
      <g transform="translate(569.169968 329.598437)scale(0.1 -0.1)">
       <use xlink:href="#DejaVuSans-32"/>
       <use x="63.623047" xlink:href="#DejaVuSans-30"/>
      </g>
     </g>
    </g>
    <g id="xtick_13">
     <g id="line2d_22">
      <g>
       <use style="stroke:#000000;stroke-width:0.8;" x="620.824675" xlink:href="#m971fcb4094" y="315"/>
      </g>
     </g>
     <g id="text_18">
      <!-- 25 -->
      <g transform="translate(614.462175 329.598437)scale(0.1 -0.1)">
       <use xlink:href="#DejaVuSans-32"/>
       <use x="63.623047" xlink:href="#DejaVuSans-35"/>
      </g>
     </g>
    </g>
    <g id="text_19">
     <!-- number -->
     <defs>
      <path d="M 54.890625 33.015625 
L 54.890625 0 
L 45.90625 0 
L 45.90625 32.71875 
Q 45.90625 40.484375 42.875 44.328125 
Q 39.84375 48.1875 33.796875 48.1875 
Q 26.515625 48.1875 22.3125 43.546875 
Q 18.109375 38.921875 18.109375 30.90625 
L 18.109375 0 
L 9.078125 0 
L 9.078125 54.6875 
L 18.109375 54.6875 
L 18.109375 46.1875 
Q 21.34375 51.125 25.703125 53.5625 
Q 30.078125 56 35.796875 56 
Q 45.21875 56 50.046875 50.171875 
Q 54.890625 44.34375 54.890625 33.015625 
z
" id="DejaVuSans-6e"/>
      <path d="M 8.5 21.578125 
L 8.5 54.6875 
L 17.484375 54.6875 
L 17.484375 21.921875 
Q 17.484375 14.15625 20.5 10.265625 
Q 23.53125 6.390625 29.59375 6.390625 
Q 36.859375 6.390625 41.078125 11.03125 
Q 45.3125 15.671875 45.3125 23.6875 
L 45.3125 54.6875 
L 54.296875 54.6875 
L 54.296875 0 
L 45.3125 0 
L 45.3125 8.40625 
Q 42.046875 3.421875 37.71875 1 
Q 33.40625 -1.421875 27.6875 -1.421875 
Q 18.265625 -1.421875 13.375 4.4375 
Q 8.5 10.296875 8.5 21.578125 
z
M 31.109375 56 
z
" id="DejaVuSans-75"/>
      <path d="M 52 44.1875 
Q 55.375 50.25 60.0625 53.125 
Q 64.75 56 71.09375 56 
Q 79.640625 56 84.28125 50.015625 
Q 88.921875 44.046875 88.921875 33.015625 
L 88.921875 0 
L 79.890625 0 
L 79.890625 32.71875 
Q 79.890625 40.578125 77.09375 44.375 
Q 74.3125 48.1875 68.609375 48.1875 
Q 61.625 48.1875 57.5625 43.546875 
Q 53.515625 38.921875 53.515625 30.90625 
L 53.515625 0 
L 44.484375 0 
L 44.484375 32.71875 
Q 44.484375 40.625 41.703125 44.40625 
Q 38.921875 48.1875 33.109375 48.1875 
Q 26.21875 48.1875 22.15625 43.53125 
Q 18.109375 38.875 18.109375 30.90625 
L 18.109375 0 
L 9.078125 0 
L 9.078125 54.6875 
L 18.109375 54.6875 
L 18.109375 46.1875 
Q 21.1875 51.21875 25.484375 53.609375 
Q 29.78125 56 35.6875 56 
Q 41.65625 56 45.828125 52.96875 
Q 50 49.953125 52 44.1875 
z
" id="DejaVuSans-6d"/>
      <path d="M 48.6875 27.296875 
Q 48.6875 37.203125 44.609375 42.84375 
Q 40.53125 48.484375 33.40625 48.484375 
Q 26.265625 48.484375 22.1875 42.84375 
Q 18.109375 37.203125 18.109375 27.296875 
Q 18.109375 17.390625 22.1875 11.75 
Q 26.265625 6.109375 33.40625 6.109375 
Q 40.53125 6.109375 44.609375 11.75 
Q 48.6875 17.390625 48.6875 27.296875 
z
M 18.109375 46.390625 
Q 20.953125 51.265625 25.265625 53.625 
Q 29.59375 56 35.59375 56 
Q 45.5625 56 51.78125 48.09375 
Q 58.015625 40.1875 58.015625 27.296875 
Q 58.015625 14.40625 51.78125 6.484375 
Q 45.5625 -1.421875 35.59375 -1.421875 
Q 29.59375 -1.421875 25.265625 0.953125 
Q 20.953125 3.328125 18.109375 8.203125 
L 18.109375 0 
L 9.078125 0 
L 9.078125 75.984375 
L 18.109375 75.984375 
z
" id="DejaVuSans-62"/>
      <path d="M 56.203125 29.59375 
L 56.203125 25.203125 
L 14.890625 25.203125 
Q 15.484375 15.921875 20.484375 11.0625 
Q 25.484375 6.203125 34.421875 6.203125 
Q 39.59375 6.203125 44.453125 7.46875 
Q 49.3125 8.734375 54.109375 11.28125 
L 54.109375 2.78125 
Q 49.265625 0.734375 44.1875 -0.34375 
Q 39.109375 -1.421875 33.890625 -1.421875 
Q 20.796875 -1.421875 13.15625 6.1875 
Q 5.515625 13.8125 5.515625 26.8125 
Q 5.515625 40.234375 12.765625 48.109375 
Q 20.015625 56 32.328125 56 
Q 43.359375 56 49.78125 48.890625 
Q 56.203125 41.796875 56.203125 29.59375 
z
M 47.21875 32.234375 
Q 47.125 39.59375 43.09375 43.984375 
Q 39.0625 48.390625 32.421875 48.390625 
Q 24.90625 48.390625 20.390625 44.140625 
Q 15.875 39.890625 15.1875 32.171875 
z
" id="DejaVuSans-65"/>
      <path d="M 41.109375 46.296875 
Q 39.59375 47.171875 37.8125 47.578125 
Q 36.03125 48 33.890625 48 
Q 26.265625 48 22.1875 43.046875 
Q 18.109375 38.09375 18.109375 28.8125 
L 18.109375 0 
L 9.078125 0 
L 9.078125 54.6875 
L 18.109375 54.6875 
L 18.109375 46.1875 
Q 20.953125 51.171875 25.484375 53.578125 
Q 30.03125 56 36.53125 56 
Q 37.453125 56 38.578125 55.875 
Q 39.703125 55.765625 41.0625 55.515625 
z
" id="DejaVuSans-72"/>
     </defs>
     <g transform="translate(482.153693 350.875)scale(0.2 -0.2)">
      <use xlink:href="#DejaVuSans-6e"/>
      <use x="63.378906" xlink:href="#DejaVuSans-75"/>
      <use x="126.757812" xlink:href="#DejaVuSans-6d"/>
      <use x="224.169922" xlink:href="#DejaVuSans-62"/>
      <use x="287.646484" xlink:href="#DejaVuSans-65"/>
      <use x="349.169922" xlink:href="#DejaVuSans-72"/>
     </g>
    </g>
   </g>
   <g id="matplotlib.axis_4">
    <g id="ytick_6">
     <g id="line2d_23">
      <g>
       <use style="stroke:#000000;stroke-width:0.8;" x="394.363636" xlink:href="#mdee28221a0" y="315"/>
      </g>
     </g>
     <g id="text_20">
      <!-- 0.1 -->
      <g transform="translate(371.460511 318.799219)scale(0.1 -0.1)">
       <use xlink:href="#DejaVuSans-30"/>
       <use x="63.623047" xlink:href="#DejaVuSans-2e"/>
       <use x="95.410156" xlink:href="#DejaVuSans-31"/>
      </g>
     </g>
    </g>
    <g id="ytick_7">
     <g id="line2d_24">
      <g>
       <use style="stroke:#000000;stroke-width:0.8;" x="394.363636" xlink:href="#mdee28221a0" y="276.171429"/>
      </g>
     </g>
     <g id="text_21">
      <!-- 0.2 -->
      <g transform="translate(371.460511 279.970647)scale(0.1 -0.1)">
       <use xlink:href="#DejaVuSans-30"/>
       <use x="63.623047" xlink:href="#DejaVuSans-2e"/>
       <use x="95.410156" xlink:href="#DejaVuSans-32"/>
      </g>
     </g>
    </g>
    <g id="ytick_8">
     <g id="line2d_25">
      <g>
       <use style="stroke:#000000;stroke-width:0.8;" x="394.363636" xlink:href="#mdee28221a0" y="237.342857"/>
      </g>
     </g>
     <g id="text_22">
      <!-- 0.3 -->
      <g transform="translate(371.460511 241.142076)scale(0.1 -0.1)">
       <use xlink:href="#DejaVuSans-30"/>
       <use x="63.623047" xlink:href="#DejaVuSans-2e"/>
       <use x="95.410156" xlink:href="#DejaVuSans-33"/>
      </g>
     </g>
    </g>
    <g id="ytick_9">
     <g id="line2d_26">
      <g>
       <use style="stroke:#000000;stroke-width:0.8;" x="394.363636" xlink:href="#mdee28221a0" y="198.514286"/>
      </g>
     </g>
     <g id="text_23">
      <!-- 0.4 -->
      <g transform="translate(371.460511 202.313504)scale(0.1 -0.1)">
       <use xlink:href="#DejaVuSans-30"/>
       <use x="63.623047" xlink:href="#DejaVuSans-2e"/>
       <use x="95.410156" xlink:href="#DejaVuSans-34"/>
      </g>
     </g>
    </g>
    <g id="ytick_10">
     <g id="line2d_27">
      <g>
       <use style="stroke:#000000;stroke-width:0.8;" x="394.363636" xlink:href="#mdee28221a0" y="159.685714"/>
      </g>
     </g>
     <g id="text_24">
      <!-- 0.5 -->
      <g transform="translate(371.460511 163.484933)scale(0.1 -0.1)">
       <use xlink:href="#DejaVuSans-30"/>
       <use x="63.623047" xlink:href="#DejaVuSans-2e"/>
       <use x="95.410156" xlink:href="#DejaVuSans-35"/>
      </g>
     </g>
    </g>
    <g id="ytick_11">
     <g id="line2d_28">
      <g>
       <use style="stroke:#000000;stroke-width:0.8;" x="394.363636" xlink:href="#mdee28221a0" y="120.857143"/>
      </g>
     </g>
     <g id="text_25">
      <!-- 0.6 -->
      <g transform="translate(371.460511 124.656362)scale(0.1 -0.1)">
       <use xlink:href="#DejaVuSans-30"/>
       <use x="63.623047" xlink:href="#DejaVuSans-2e"/>
       <use x="95.410156" xlink:href="#DejaVuSans-36"/>
      </g>
     </g>
    </g>
    <g id="ytick_12">
     <g id="line2d_29">
      <g>
       <use style="stroke:#000000;stroke-width:0.8;" x="394.363636" xlink:href="#mdee28221a0" y="82.028571"/>
      </g>
     </g>
     <g id="text_26">
      <!-- 0.7 -->
      <defs>
       <path d="M 8.203125 72.90625 
L 55.078125 72.90625 
L 55.078125 68.703125 
L 28.609375 0 
L 18.3125 0 
L 43.21875 64.59375 
L 8.203125 64.59375 
z
" id="DejaVuSans-37"/>
      </defs>
      <g transform="translate(371.460511 85.82779)scale(0.1 -0.1)">
       <use xlink:href="#DejaVuSans-30"/>
       <use x="63.623047" xlink:href="#DejaVuSans-2e"/>
       <use x="95.410156" xlink:href="#DejaVuSans-37"/>
      </g>
     </g>
    </g>
    <g id="ytick_13">
     <g id="line2d_30">
      <g>
       <use style="stroke:#000000;stroke-width:0.8;" x="394.363636" xlink:href="#mdee28221a0" y="43.2"/>
      </g>
     </g>
     <g id="text_27">
      <!-- 0.8 -->
      <g transform="translate(371.460511 46.999219)scale(0.1 -0.1)">
       <use xlink:href="#DejaVuSans-30"/>
       <use x="63.623047" xlink:href="#DejaVuSans-2e"/>
       <use x="95.410156" xlink:href="#DejaVuSans-38"/>
      </g>
     </g>
    </g>
   </g>
   <g id="line2d_31">
    <g clip-path="url(#p31de561ef6)">
     <use style="fill:#ff0000;stroke:#ff0000;" x="403.422078" xlink:href="#mb3dcbe8ab9" y="146.168051"/>
    </g>
   </g>
   <g id="line2d_32">
    <g clip-path="url(#p31de561ef6)">
     <use style="fill:#ff0000;stroke:#ff0000;" x="412.480519" xlink:href="#mb3dcbe8ab9" y="248.657834"/>
    </g>
   </g>
   <g id="line2d_33">
    <g clip-path="url(#p31de561ef6)">
     <use style="fill:#ff0000;stroke:#ff0000;" x="421.538961" xlink:href="#mb3dcbe8ab9" y="273.644931"/>
    </g>
   </g>
   <g id="line2d_34">
    <g clip-path="url(#p31de561ef6)">
     <use style="fill:#ff0000;stroke:#ff0000;" x="430.597403" xlink:href="#mb3dcbe8ab9" y="276.001615"/>
    </g>
   </g>
   <g id="line2d_35">
    <g clip-path="url(#p31de561ef6)">
     <use style="fill:#ff0000;stroke:#ff0000;" x="439.655844" xlink:href="#mb3dcbe8ab9" y="276.101525"/>
    </g>
   </g>
   <g id="line2d_36">
    <g clip-path="url(#p31de561ef6)">
     <use style="fill:#ff0000;stroke:#ff0000;" x="448.714286" xlink:href="#mb3dcbe8ab9" y="276.133655"/>
    </g>
   </g>
   <g id="line2d_37">
    <g clip-path="url(#p31de561ef6)">
     <use style="fill:#ff0000;stroke:#ff0000;" x="457.772727" xlink:href="#mb3dcbe8ab9" y="276.83674"/>
    </g>
   </g>
   <g id="line2d_38">
    <g clip-path="url(#p31de561ef6)">
     <use style="fill:#ff0000;stroke:#ff0000;" x="466.831169" xlink:href="#mb3dcbe8ab9" y="277.437957"/>
    </g>
   </g>
   <g id="line2d_39">
    <g clip-path="url(#p31de561ef6)">
     <use style="fill:#ff0000;stroke:#ff0000;" x="475.88961" xlink:href="#mb3dcbe8ab9" y="278.747147"/>
    </g>
   </g>
   <g id="line2d_40">
    <g clip-path="url(#p31de561ef6)">
     <use style="fill:#ff0000;stroke:#ff0000;" x="484.948052" xlink:href="#mb3dcbe8ab9" y="279.598839"/>
    </g>
   </g>
   <g id="line2d_41">
    <g clip-path="url(#p31de561ef6)">
     <use style="fill:#ff0000;stroke:#ff0000;" x="494.006494" xlink:href="#mb3dcbe8ab9" y="280.876121"/>
    </g>
   </g>
   <g id="line2d_42">
    <g clip-path="url(#p31de561ef6)">
     <use style="fill:#ff0000;stroke:#ff0000;" x="503.064935" xlink:href="#mb3dcbe8ab9" y="281.67996"/>
    </g>
   </g>
   <g id="patch_9">
    <path d="M 394.363636 315 
L 394.363636 43.2 
" style="fill:none;stroke:#000000;stroke-linecap:square;stroke-linejoin:miter;stroke-width:0.8;"/>
   </g>
   <g id="patch_10">
    <path d="M 648 315 
L 648 43.2 
" style="fill:none;stroke:#000000;stroke-linecap:square;stroke-linejoin:miter;stroke-width:0.8;"/>
   </g>
   <g id="patch_11">
    <path d="M 394.363636 315 
L 648 315 
" style="fill:none;stroke:#000000;stroke-linecap:square;stroke-linejoin:miter;stroke-width:0.8;"/>
   </g>
   <g id="patch_12">
    <path d="M 394.363636 43.2 
L 648 43.2 
" style="fill:none;stroke:#000000;stroke-linecap:square;stroke-linejoin:miter;stroke-width:0.8;"/>
   </g>
   <g id="text_28">
    <!-- Negative Marginal Likelihood -->
    <defs>
     <path d="M 9.8125 72.90625 
L 23.09375 72.90625 
L 55.421875 11.921875 
L 55.421875 72.90625 
L 64.984375 72.90625 
L 64.984375 0 
L 51.703125 0 
L 19.390625 60.984375 
L 19.390625 0 
L 9.8125 0 
z
" id="DejaVuSans-4e"/>
     <path d="M 45.40625 27.984375 
Q 45.40625 37.75 41.375 43.109375 
Q 37.359375 48.484375 30.078125 48.484375 
Q 22.859375 48.484375 18.828125 43.109375 
Q 14.796875 37.75 14.796875 27.984375 
Q 14.796875 18.265625 18.828125 12.890625 
Q 22.859375 7.515625 30.078125 7.515625 
Q 37.359375 7.515625 41.375 12.890625 
Q 45.40625 18.265625 45.40625 27.984375 
z
M 54.390625 6.78125 
Q 54.390625 -7.171875 48.1875 -13.984375 
Q 42 -20.796875 29.203125 -20.796875 
Q 24.46875 -20.796875 20.265625 -20.09375 
Q 16.0625 -19.390625 12.109375 -17.921875 
L 12.109375 -9.1875 
Q 16.0625 -11.328125 19.921875 -12.34375 
Q 23.78125 -13.375 27.78125 -13.375 
Q 36.625 -13.375 41.015625 -8.765625 
Q 45.40625 -4.15625 45.40625 5.171875 
L 45.40625 9.625 
Q 42.625 4.78125 38.28125 2.390625 
Q 33.9375 0 27.875 0 
Q 17.828125 0 11.671875 7.65625 
Q 5.515625 15.328125 5.515625 27.984375 
Q 5.515625 40.671875 11.671875 48.328125 
Q 17.828125 56 27.875 56 
Q 33.9375 56 38.28125 53.609375 
Q 42.625 51.21875 45.40625 46.390625 
L 45.40625 54.6875 
L 54.390625 54.6875 
z
" id="DejaVuSans-67"/>
     <path d="M 34.28125 27.484375 
Q 23.390625 27.484375 19.1875 25 
Q 14.984375 22.515625 14.984375 16.5 
Q 14.984375 11.71875 18.140625 8.90625 
Q 21.296875 6.109375 26.703125 6.109375 
Q 34.1875 6.109375 38.703125 11.40625 
Q 43.21875 16.703125 43.21875 25.484375 
L 43.21875 27.484375 
z
M 52.203125 31.203125 
L 52.203125 0 
L 43.21875 0 
L 43.21875 8.296875 
Q 40.140625 3.328125 35.546875 0.953125 
Q 30.953125 -1.421875 24.3125 -1.421875 
Q 15.921875 -1.421875 10.953125 3.296875 
Q 6 8.015625 6 15.921875 
Q 6 25.140625 12.171875 29.828125 
Q 18.359375 34.515625 30.609375 34.515625 
L 43.21875 34.515625 
L 43.21875 35.40625 
Q 43.21875 41.609375 39.140625 45 
Q 35.0625 48.390625 27.6875 48.390625 
Q 23 48.390625 18.546875 47.265625 
Q 14.109375 46.140625 10.015625 43.890625 
L 10.015625 52.203125 
Q 14.9375 54.109375 19.578125 55.046875 
Q 24.21875 56 28.609375 56 
Q 40.484375 56 46.34375 49.84375 
Q 52.203125 43.703125 52.203125 31.203125 
z
" id="DejaVuSans-61"/>
     <path d="M 18.3125 70.21875 
L 18.3125 54.6875 
L 36.8125 54.6875 
L 36.8125 47.703125 
L 18.3125 47.703125 
L 18.3125 18.015625 
Q 18.3125 11.328125 20.140625 9.421875 
Q 21.96875 7.515625 27.59375 7.515625 
L 36.8125 7.515625 
L 36.8125 0 
L 27.59375 0 
Q 17.1875 0 13.234375 3.875 
Q 9.28125 7.765625 9.28125 18.015625 
L 9.28125 47.703125 
L 2.6875 47.703125 
L 2.6875 54.6875 
L 9.28125 54.6875 
L 9.28125 70.21875 
z
" id="DejaVuSans-74"/>
     <path d="M 9.421875 54.6875 
L 18.40625 54.6875 
L 18.40625 0 
L 9.421875 0 
z
M 9.421875 75.984375 
L 18.40625 75.984375 
L 18.40625 64.59375 
L 9.421875 64.59375 
z
" id="DejaVuSans-69"/>
     <path d="M 2.984375 54.6875 
L 12.5 54.6875 
L 29.59375 8.796875 
L 46.6875 54.6875 
L 56.203125 54.6875 
L 35.6875 0 
L 23.484375 0 
z
" id="DejaVuSans-76"/>
     <path id="DejaVuSans-20"/>
     <path d="M 9.8125 72.90625 
L 24.515625 72.90625 
L 43.109375 23.296875 
L 61.8125 72.90625 
L 76.515625 72.90625 
L 76.515625 0 
L 66.890625 0 
L 66.890625 64.015625 
L 48.09375 14.015625 
L 38.1875 14.015625 
L 19.390625 64.015625 
L 19.390625 0 
L 9.8125 0 
z
" id="DejaVuSans-4d"/>
     <path d="M 9.421875 75.984375 
L 18.40625 75.984375 
L 18.40625 0 
L 9.421875 0 
z
" id="DejaVuSans-6c"/>
     <path d="M 9.8125 72.90625 
L 19.671875 72.90625 
L 19.671875 8.296875 
L 55.171875 8.296875 
L 55.171875 0 
L 9.8125 0 
z
" id="DejaVuSans-4c"/>
     <path d="M 9.078125 75.984375 
L 18.109375 75.984375 
L 18.109375 31.109375 
L 44.921875 54.6875 
L 56.390625 54.6875 
L 27.390625 29.109375 
L 57.625 0 
L 45.90625 0 
L 18.109375 26.703125 
L 18.109375 0 
L 9.078125 0 
z
" id="DejaVuSans-6b"/>
     <path d="M 54.890625 33.015625 
L 54.890625 0 
L 45.90625 0 
L 45.90625 32.71875 
Q 45.90625 40.484375 42.875 44.328125 
Q 39.84375 48.1875 33.796875 48.1875 
Q 26.515625 48.1875 22.3125 43.546875 
Q 18.109375 38.921875 18.109375 30.90625 
L 18.109375 0 
L 9.078125 0 
L 9.078125 75.984375 
L 18.109375 75.984375 
L 18.109375 46.1875 
Q 21.34375 51.125 25.703125 53.5625 
Q 30.078125 56 35.796875 56 
Q 45.21875 56 50.046875 50.171875 
Q 54.890625 44.34375 54.890625 33.015625 
z
" id="DejaVuSans-68"/>
     <path d="M 30.609375 48.390625 
Q 23.390625 48.390625 19.1875 42.75 
Q 14.984375 37.109375 14.984375 27.296875 
Q 14.984375 17.484375 19.15625 11.84375 
Q 23.34375 6.203125 30.609375 6.203125 
Q 37.796875 6.203125 41.984375 11.859375 
Q 46.1875 17.53125 46.1875 27.296875 
Q 46.1875 37.015625 41.984375 42.703125 
Q 37.796875 48.390625 30.609375 48.390625 
z
M 30.609375 56 
Q 42.328125 56 49.015625 48.375 
Q 55.71875 40.765625 55.71875 27.296875 
Q 55.71875 13.875 49.015625 6.21875 
Q 42.328125 -1.421875 30.609375 -1.421875 
Q 18.84375 -1.421875 12.171875 6.21875 
Q 5.515625 13.875 5.515625 27.296875 
Q 5.515625 40.765625 12.171875 48.375 
Q 18.84375 56 30.609375 56 
z
" id="DejaVuSans-6f"/>
     <path d="M 45.40625 46.390625 
L 45.40625 75.984375 
L 54.390625 75.984375 
L 54.390625 0 
L 45.40625 0 
L 45.40625 8.203125 
Q 42.578125 3.328125 38.25 0.953125 
Q 33.9375 -1.421875 27.875 -1.421875 
Q 17.96875 -1.421875 11.734375 6.484375 
Q 5.515625 14.40625 5.515625 27.296875 
Q 5.515625 40.1875 11.734375 48.09375 
Q 17.96875 56 27.875 56 
Q 33.9375 56 38.25 53.625 
Q 42.578125 51.265625 45.40625 46.390625 
z
M 14.796875 27.296875 
Q 14.796875 17.390625 18.875 11.75 
Q 22.953125 6.109375 30.078125 6.109375 
Q 37.203125 6.109375 41.296875 11.75 
Q 45.40625 17.390625 45.40625 27.296875 
Q 45.40625 37.203125 41.296875 42.84375 
Q 37.203125 48.484375 30.078125 48.484375 
Q 22.953125 48.484375 18.875 42.84375 
Q 14.796875 37.203125 14.796875 27.296875 
z
" id="DejaVuSans-64"/>
    </defs>
    <g transform="translate(375.939631 37.2)scale(0.2 -0.2)">
     <use xlink:href="#DejaVuSans-4e"/>
     <use x="74.804688" xlink:href="#DejaVuSans-65"/>
     <use x="136.328125" xlink:href="#DejaVuSans-67"/>
     <use x="199.804688" xlink:href="#DejaVuSans-61"/>
     <use x="261.083984" xlink:href="#DejaVuSans-74"/>
     <use x="300.292969" xlink:href="#DejaVuSans-69"/>
     <use x="328.076172" xlink:href="#DejaVuSans-76"/>
     <use x="387.255859" xlink:href="#DejaVuSans-65"/>
     <use x="448.779297" xlink:href="#DejaVuSans-20"/>
     <use x="480.566406" xlink:href="#DejaVuSans-4d"/>
     <use x="566.845703" xlink:href="#DejaVuSans-61"/>
     <use x="628.125" xlink:href="#DejaVuSans-72"/>
     <use x="669.222656" xlink:href="#DejaVuSans-67"/>
     <use x="732.699219" xlink:href="#DejaVuSans-69"/>
     <use x="760.482422" xlink:href="#DejaVuSans-6e"/>
     <use x="823.861328" xlink:href="#DejaVuSans-61"/>
     <use x="885.140625" xlink:href="#DejaVuSans-6c"/>
     <use x="912.923828" xlink:href="#DejaVuSans-20"/>
     <use x="944.710938" xlink:href="#DejaVuSans-4c"/>
     <use x="1000.423828" xlink:href="#DejaVuSans-69"/>
     <use x="1028.207031" xlink:href="#DejaVuSans-6b"/>
     <use x="1086.070312" xlink:href="#DejaVuSans-65"/>
     <use x="1147.59375" xlink:href="#DejaVuSans-6c"/>
     <use x="1175.376953" xlink:href="#DejaVuSans-69"/>
     <use x="1203.160156" xlink:href="#DejaVuSans-68"/>
     <use x="1266.539062" xlink:href="#DejaVuSans-6f"/>
     <use x="1327.720703" xlink:href="#DejaVuSans-6f"/>
     <use x="1388.902344" xlink:href="#DejaVuSans-64"/>
    </g>
   </g>
  </g>
 </g>
 <defs>
  <clipPath id="pfa959719d2">
   <rect height="271.8" width="253.636364" x="90" y="43.2"/>
  </clipPath>
  <clipPath id="p31de561ef6">
   <rect height="271.8" width="253.636364" x="394.363636" y="43.2"/>
  </clipPath>
 </defs>
</svg>
