<?xml version="1.0" encoding="utf-8" standalone="no"?>
<!DOCTYPE svg PUBLIC "-//W3C//DTD SVG 1.1//EN"
  "http://www.w3.org/Graphics/SVG/1.1/DTD/svg11.dtd">
<!-- Created with matplotlib (http://matplotlib.org/) -->
<svg height="360pt" version="1.1" viewBox="0 0 720 360" width="720pt" xmlns="http://www.w3.org/2000/svg" xmlns:xlink="http://www.w3.org/1999/xlink">
 <defs>
  <style type="text/css">
*{stroke-linecap:butt;stroke-linejoin:round;}
  </style>
 </defs>
 <g id="figure_1">
  <g id="patch_1">
   <path d="M 0 360 
L 720 360 
L 720 0 
L 0 0 
z
" style="fill:none;"/>
  </g>
  <g id="axes_1">
   <g id="patch_2">
    <path d="M 90 315 
L 343.636364 315 
L 343.636364 43.2 
L 90 43.2 
z
" style="fill:none;"/>
   </g>
   <g id="patch_3">
    <path clip-path="url(#p49783c1495)" d="M 101.528926 46.89309 
L 103.316356 60.648676 
L 105.103786 73.172773 
L 106.891217 84.506121 
L 108.678647 94.68769 
L 110.466077 103.760621 
L 112.253508 111.780713 
L 114.040938 118.825312 
L 115.828368 124.998246 
L 117.615799 130.426472 
L 119.403229 135.248267 
L 121.190659 139.597969 
L 122.97809 143.593646 
L 124.76552 147.330922 
L 126.55295 150.882409 
L 128.340381 154.300449 
L 130.127811 157.621061 
L 131.915241 160.867828 
L 133.702672 164.055189 
L 135.490102 167.191028 
L 137.277532 170.278619 
L 139.064963 173.318069 
L 140.852393 176.307367 
L 142.639823 179.243151 
L 144.427254 182.121278 
L 146.214684 184.937237 
L 148.002114 187.686465 
L 149.789544 190.364595 
L 151.576975 192.967635 
L 153.364405 195.49213 
L 155.151835 197.935278 
L 156.939266 200.295022 
L 158.726696 202.570128 
L 160.514126 204.760222 
L 162.301557 206.865807 
L 164.088987 208.888257 
L 165.876417 210.829767 
L 167.663848 212.693286 
L 169.451278 214.482422 
L 171.238708 216.201325 
L 173.026139 217.854561 
L 174.813569 219.446979 
L 176.600999 220.983585 
L 178.38843 222.469418 
L 180.17586 223.909446 
L 181.96329 225.308476 
L 183.750721 226.671084 
L 185.538151 228.001563 
L 187.325581 229.30388 
L 189.113012 230.581665 
L 190.900442 231.838188 
L 192.687872 233.076369 
L 194.475303 234.298782 
L 196.262733 235.507668 
L 198.050163 236.704948 
L 199.837594 237.892248 
L 201.625024 239.070915 
L 203.412454 240.242037 
L 205.199885 241.406464 
L 206.987315 242.564827 
L 208.774745 243.717551 
L 210.562176 244.864877 
L 212.349606 246.006872 
L 214.137036 247.143442 
L 215.924467 248.274344 
L 217.711897 249.399194 
L 219.499327 250.517473 
L 221.286758 251.628535 
L 223.074188 252.73161 
L 224.861618 253.825803 
L 226.649049 254.910101 
L 228.436479 255.98337 
L 230.223909 257.044353 
L 232.01134 258.091672 
L 233.79877 259.123823 
L 235.5862 260.139181 
L 237.373631 261.135994 
L 239.161061 262.112389 
L 240.948491 263.066377 
L 242.735922 263.995862 
L 244.523352 264.898654 
L 246.310782 265.772492 
L 248.098213 266.615067 
L 249.885643 267.424058 
L 251.673073 268.197175 
L 253.460504 268.932207 
L 255.247934 269.627083 
L 257.035364 270.27993 
L 258.822795 270.889143 
L 260.610225 271.45345 
L 262.397655 271.971977 
L 264.185086 272.444306 
L 265.972516 272.870525 
L 267.759946 273.251262 
L 269.547377 273.587709 
L 271.334807 273.881617 
L 273.122237 274.135286 
L 274.909667 274.351517 
L 276.697098 274.533546 
L 278.484528 274.68495 
L 280.271958 274.80951 
L 282.059389 274.911037 
L 283.846819 274.993138 
L 285.634249 275.058912 
L 287.42168 275.110549 
L 289.20911 275.148816 
L 290.99654 275.172377 
L 292.783971 275.176936 
L 294.571401 275.154151 
L 296.358831 275.090313 
L 298.146262 274.964822 
L 299.933692 274.748565 
L 301.721122 274.402456 
L 303.508553 273.876561 
L 305.295983 273.110364 
L 307.083413 272.034682 
L 308.870844 270.57534 
L 310.658274 268.657991 
L 312.445704 266.212783 
L 314.233135 263.177469 
L 316.020565 259.498218 
L 317.807995 255.128352 
L 319.595426 250.025917 
L 321.382856 244.151017 
L 323.170286 237.463538 
L 324.957717 229.921489 
L 326.745147 221.479911 
L 328.532577 212.090253 
L 330.320008 201.700033 
L 332.107438 190.252685 
L 332.107438 393.217839 
L 330.320008 382.726319 
L 328.532577 373.230918 
L 326.745147 364.674566 
L 324.957717 357.004342 
L 323.170286 350.171319 
L 321.382856 344.130233 
L 319.595426 338.838842 
L 317.807995 334.256849 
L 316.020565 330.344236 
L 314.233135 327.058987 
L 312.445704 324.354424 
L 310.658274 322.176772 
L 308.870844 320.463899 
L 307.083413 319.146127 
L 305.295983 318.149334 
L 303.508553 317.39963 
L 301.721122 316.828165 
L 299.933692 316.37481 
L 298.146262 315.990067 
L 296.358831 315.635336 
L 294.571401 315.282036 
L 292.783971 314.910144 
L 290.99654 314.506572 
L 289.20911 314.06364 
L 287.42168 313.577755 
L 285.634249 313.048323 
L 283.846819 312.476885 
L 282.059389 311.866442 
L 280.271958 311.220935 
L 278.484528 310.544842 
L 276.697098 309.842874 
L 274.909667 309.119734 
L 273.122237 308.379946 
L 271.334807 307.627712 
L 269.547377 306.866817 
L 267.759946 306.100557 
L 265.972516 305.331697 
L 264.185086 304.562447 
L 262.397655 303.794463 
L 260.610225 303.028862 
L 258.822795 302.266258 
L 257.035364 301.506807 
L 255.247934 300.750261 
L 253.460504 299.996029 
L 251.673073 299.243244 
L 249.885643 298.490823 
L 248.098213 297.737526 
L 246.310782 296.982013 
L 244.523352 296.222888 
L 242.735922 295.458736 
L 240.948491 294.68816 
L 239.161061 293.909797 
L 237.373631 293.122339 
L 235.5862 292.324542 
L 233.79877 291.51523 
L 232.01134 290.693297 
L 230.223909 289.857706 
L 228.436479 289.007487 
L 226.649049 288.141729 
L 224.861618 287.259574 
L 223.074188 286.360216 
L 221.286758 285.442892 
L 219.499327 284.506881 
L 217.711897 283.551497 
L 215.924467 282.576088 
L 214.137036 281.580039 
L 212.349606 280.562766 
L 210.562176 279.523724 
L 208.774745 278.462411 
L 206.987315 277.378369 
L 205.199885 276.271196 
L 203.412454 275.140554 
L 201.625024 273.986176 
L 199.837594 272.807886 
L 198.050163 271.605606 
L 196.262733 270.379369 
L 194.475303 269.129342 
L 192.687872 267.855831 
L 190.900442 266.559301 
L 189.113012 265.240383 
L 187.325581 263.899882 
L 185.538151 262.53878 
L 183.750721 261.158231 
L 181.96329 259.75954 
L 180.17586 258.344142 
L 178.38843 256.913554 
L 176.600999 255.469319 
L 174.813569 254.012927 
L 173.026139 252.545722 
L 171.238708 251.068785 
L 169.451278 249.582813 
L 167.663848 248.087981 
L 165.876417 246.583804 
L 164.088987 245.069003 
L 162.301557 243.541384 
L 160.514126 241.997736 
L 158.726696 240.433754 
L 156.939266 238.843987 
L 155.151835 237.221823 
L 153.364405 235.559494 
L 151.576975 233.848119 
L 149.789544 232.077762 
L 148.002114 230.23752 
L 146.214684 228.315642 
L 144.427254 226.299665 
L 142.639823 224.176605 
L 140.852393 221.933184 
L 139.064963 219.556144 
L 137.277532 217.032655 
L 135.490102 214.350872 
L 133.702672 211.500697 
L 131.915241 208.474821 
L 130.127811 205.270156 
L 128.340381 201.889778 
L 126.55295 198.345502 
L 124.76552 194.66117 
L 122.97809 190.87653 
L 121.190659 187.05117 
L 119.403229 183.267259 
L 117.615799 179.628965 
L 115.828368 176.256277 
L 114.040938 173.272661 
L 112.253508 170.789797 
L 110.466077 168.895758 
L 108.678647 167.651654 
L 106.891217 167.096548 
L 105.103786 167.256351 
L 103.316356 168.152284 
L 101.528926 169.806823 
z
" style="fill:#cc3300;opacity:0.3;stroke:#cc3300;stroke-linejoin:miter;stroke-width:0.5;"/>
   </g>
   <g id="matplotlib.axis_1">
    <g id="xtick_1">
     <g id="line2d_1">
      <defs>
       <path d="M 0 0 
L 0 3.5 
" id="m6ca73f8864" style="stroke:#000000;stroke-width:0.8;"/>
      </defs>
      <g>
       <use style="stroke:#000000;stroke-width:0.8;" x="115.940083" xlink:href="#m6ca73f8864" y="315"/>
      </g>
     </g>
     <g id="text_1">
      <!-- 1900 -->
      <defs>
       <path d="M 12.40625 8.296875 
L 28.515625 8.296875 
L 28.515625 63.921875 
L 10.984375 60.40625 
L 10.984375 69.390625 
L 28.421875 72.90625 
L 38.28125 72.90625 
L 38.28125 8.296875 
L 54.390625 8.296875 
L 54.390625 0 
L 12.40625 0 
z
" id="DejaVuSans-31"/>
       <path d="M 10.984375 1.515625 
L 10.984375 10.5 
Q 14.703125 8.734375 18.5 7.8125 
Q 22.3125 6.890625 25.984375 6.890625 
Q 35.75 6.890625 40.890625 13.453125 
Q 46.046875 20.015625 46.78125 33.40625 
Q 43.953125 29.203125 39.59375 26.953125 
Q 35.25 24.703125 29.984375 24.703125 
Q 19.046875 24.703125 12.671875 31.3125 
Q 6.296875 37.9375 6.296875 49.421875 
Q 6.296875 60.640625 12.9375 67.421875 
Q 19.578125 74.21875 30.609375 74.21875 
Q 43.265625 74.21875 49.921875 64.515625 
Q 56.59375 54.828125 56.59375 36.375 
Q 56.59375 19.140625 48.40625 8.859375 
Q 40.234375 -1.421875 26.421875 -1.421875 
Q 22.703125 -1.421875 18.890625 -0.6875 
Q 15.09375 0.046875 10.984375 1.515625 
z
M 30.609375 32.421875 
Q 37.25 32.421875 41.125 36.953125 
Q 45.015625 41.5 45.015625 49.421875 
Q 45.015625 57.28125 41.125 61.84375 
Q 37.25 66.40625 30.609375 66.40625 
Q 23.96875 66.40625 20.09375 61.84375 
Q 16.21875 57.28125 16.21875 49.421875 
Q 16.21875 41.5 20.09375 36.953125 
Q 23.96875 32.421875 30.609375 32.421875 
z
" id="DejaVuSans-39"/>
       <path d="M 31.78125 66.40625 
Q 24.171875 66.40625 20.328125 58.90625 
Q 16.5 51.421875 16.5 36.375 
Q 16.5 21.390625 20.328125 13.890625 
Q 24.171875 6.390625 31.78125 6.390625 
Q 39.453125 6.390625 43.28125 13.890625 
Q 47.125 21.390625 47.125 36.375 
Q 47.125 51.421875 43.28125 58.90625 
Q 39.453125 66.40625 31.78125 66.40625 
z
M 31.78125 74.21875 
Q 44.046875 74.21875 50.515625 64.515625 
Q 56.984375 54.828125 56.984375 36.375 
Q 56.984375 17.96875 50.515625 8.265625 
Q 44.046875 -1.421875 31.78125 -1.421875 
Q 19.53125 -1.421875 13.0625 8.265625 
Q 6.59375 17.96875 6.59375 36.375 
Q 6.59375 54.828125 13.0625 64.515625 
Q 19.53125 74.21875 31.78125 74.21875 
z
" id="DejaVuSans-30"/>
      </defs>
      <g transform="translate(103.215083 329.598437)scale(0.1 -0.1)">
       <use xlink:href="#DejaVuSans-31"/>
       <use x="63.623047" xlink:href="#DejaVuSans-39"/>
       <use x="127.246094" xlink:href="#DejaVuSans-30"/>
       <use x="190.869141" xlink:href="#DejaVuSans-30"/>
      </g>
     </g>
    </g>
    <g id="xtick_2">
     <g id="line2d_2">
      <g>
       <use style="stroke:#000000;stroke-width:0.8;" x="151.967975" xlink:href="#m6ca73f8864" y="315"/>
      </g>
     </g>
     <g id="text_2">
      <!-- 1920 -->
      <defs>
       <path d="M 19.1875 8.296875 
L 53.609375 8.296875 
L 53.609375 0 
L 7.328125 0 
L 7.328125 8.296875 
Q 12.9375 14.109375 22.625 23.890625 
Q 32.328125 33.6875 34.8125 36.53125 
Q 39.546875 41.84375 41.421875 45.53125 
Q 43.3125 49.21875 43.3125 52.78125 
Q 43.3125 58.59375 39.234375 62.25 
Q 35.15625 65.921875 28.609375 65.921875 
Q 23.96875 65.921875 18.8125 64.3125 
Q 13.671875 62.703125 7.8125 59.421875 
L 7.8125 69.390625 
Q 13.765625 71.78125 18.9375 73 
Q 24.125 74.21875 28.421875 74.21875 
Q 39.75 74.21875 46.484375 68.546875 
Q 53.21875 62.890625 53.21875 53.421875 
Q 53.21875 48.921875 51.53125 44.890625 
Q 49.859375 40.875 45.40625 35.40625 
Q 44.1875 33.984375 37.640625 27.21875 
Q 31.109375 20.453125 19.1875 8.296875 
z
" id="DejaVuSans-32"/>
      </defs>
      <g transform="translate(139.242975 329.598437)scale(0.1 -0.1)">
       <use xlink:href="#DejaVuSans-31"/>
       <use x="63.623047" xlink:href="#DejaVuSans-39"/>
       <use x="127.246094" xlink:href="#DejaVuSans-32"/>
       <use x="190.869141" xlink:href="#DejaVuSans-30"/>
      </g>
     </g>
    </g>
    <g id="xtick_3">
     <g id="line2d_3">
      <g>
       <use style="stroke:#000000;stroke-width:0.8;" x="187.995868" xlink:href="#m6ca73f8864" y="315"/>
      </g>
     </g>
     <g id="text_3">
      <!-- 1940 -->
      <defs>
       <path d="M 37.796875 64.3125 
L 12.890625 25.390625 
L 37.796875 25.390625 
z
M 35.203125 72.90625 
L 47.609375 72.90625 
L 47.609375 25.390625 
L 58.015625 25.390625 
L 58.015625 17.1875 
L 47.609375 17.1875 
L 47.609375 0 
L 37.796875 0 
L 37.796875 17.1875 
L 4.890625 17.1875 
L 4.890625 26.703125 
z
" id="DejaVuSans-34"/>
      </defs>
      <g transform="translate(175.270868 329.598437)scale(0.1 -0.1)">
       <use xlink:href="#DejaVuSans-31"/>
       <use x="63.623047" xlink:href="#DejaVuSans-39"/>
       <use x="127.246094" xlink:href="#DejaVuSans-34"/>
       <use x="190.869141" xlink:href="#DejaVuSans-30"/>
      </g>
     </g>
    </g>
    <g id="xtick_4">
     <g id="line2d_4">
      <g>
       <use style="stroke:#000000;stroke-width:0.8;" x="224.02376" xlink:href="#m6ca73f8864" y="315"/>
      </g>
     </g>
     <g id="text_4">
      <!-- 1960 -->
      <defs>
       <path d="M 33.015625 40.375 
Q 26.375 40.375 22.484375 35.828125 
Q 18.609375 31.296875 18.609375 23.390625 
Q 18.609375 15.53125 22.484375 10.953125 
Q 26.375 6.390625 33.015625 6.390625 
Q 39.65625 6.390625 43.53125 10.953125 
Q 47.40625 15.53125 47.40625 23.390625 
Q 47.40625 31.296875 43.53125 35.828125 
Q 39.65625 40.375 33.015625 40.375 
z
M 52.59375 71.296875 
L 52.59375 62.3125 
Q 48.875 64.0625 45.09375 64.984375 
Q 41.3125 65.921875 37.59375 65.921875 
Q 27.828125 65.921875 22.671875 59.328125 
Q 17.53125 52.734375 16.796875 39.40625 
Q 19.671875 43.65625 24.015625 45.921875 
Q 28.375 48.1875 33.59375 48.1875 
Q 44.578125 48.1875 50.953125 41.515625 
Q 57.328125 34.859375 57.328125 23.390625 
Q 57.328125 12.15625 50.6875 5.359375 
Q 44.046875 -1.421875 33.015625 -1.421875 
Q 20.359375 -1.421875 13.671875 8.265625 
Q 6.984375 17.96875 6.984375 36.375 
Q 6.984375 53.65625 15.1875 63.9375 
Q 23.390625 74.21875 37.203125 74.21875 
Q 40.921875 74.21875 44.703125 73.484375 
Q 48.484375 72.75 52.59375 71.296875 
z
" id="DejaVuSans-36"/>
      </defs>
      <g transform="translate(211.29876 329.598437)scale(0.1 -0.1)">
       <use xlink:href="#DejaVuSans-31"/>
       <use x="63.623047" xlink:href="#DejaVuSans-39"/>
       <use x="127.246094" xlink:href="#DejaVuSans-36"/>
       <use x="190.869141" xlink:href="#DejaVuSans-30"/>
      </g>
     </g>
    </g>
    <g id="xtick_5">
     <g id="line2d_5">
      <g>
       <use style="stroke:#000000;stroke-width:0.8;" x="260.051653" xlink:href="#m6ca73f8864" y="315"/>
      </g>
     </g>
     <g id="text_5">
      <!-- 1980 -->
      <defs>
       <path d="M 31.78125 34.625 
Q 24.75 34.625 20.71875 30.859375 
Q 16.703125 27.09375 16.703125 20.515625 
Q 16.703125 13.921875 20.71875 10.15625 
Q 24.75 6.390625 31.78125 6.390625 
Q 38.8125 6.390625 42.859375 10.171875 
Q 46.921875 13.96875 46.921875 20.515625 
Q 46.921875 27.09375 42.890625 30.859375 
Q 38.875 34.625 31.78125 34.625 
z
M 21.921875 38.8125 
Q 15.578125 40.375 12.03125 44.71875 
Q 8.5 49.078125 8.5 55.328125 
Q 8.5 64.0625 14.71875 69.140625 
Q 20.953125 74.21875 31.78125 74.21875 
Q 42.671875 74.21875 48.875 69.140625 
Q 55.078125 64.0625 55.078125 55.328125 
Q 55.078125 49.078125 51.53125 44.71875 
Q 48 40.375 41.703125 38.8125 
Q 48.828125 37.15625 52.796875 32.3125 
Q 56.78125 27.484375 56.78125 20.515625 
Q 56.78125 9.90625 50.3125 4.234375 
Q 43.84375 -1.421875 31.78125 -1.421875 
Q 19.734375 -1.421875 13.25 4.234375 
Q 6.78125 9.90625 6.78125 20.515625 
Q 6.78125 27.484375 10.78125 32.3125 
Q 14.796875 37.15625 21.921875 38.8125 
z
M 18.3125 54.390625 
Q 18.3125 48.734375 21.84375 45.5625 
Q 25.390625 42.390625 31.78125 42.390625 
Q 38.140625 42.390625 41.71875 45.5625 
Q 45.3125 48.734375 45.3125 54.390625 
Q 45.3125 60.0625 41.71875 63.234375 
Q 38.140625 66.40625 31.78125 66.40625 
Q 25.390625 66.40625 21.84375 63.234375 
Q 18.3125 60.0625 18.3125 54.390625 
z
" id="DejaVuSans-38"/>
      </defs>
      <g transform="translate(247.326653 329.598437)scale(0.1 -0.1)">
       <use xlink:href="#DejaVuSans-31"/>
       <use x="63.623047" xlink:href="#DejaVuSans-39"/>
       <use x="127.246094" xlink:href="#DejaVuSans-38"/>
       <use x="190.869141" xlink:href="#DejaVuSans-30"/>
      </g>
     </g>
    </g>
    <g id="xtick_6">
     <g id="line2d_6">
      <g>
       <use style="stroke:#000000;stroke-width:0.8;" x="296.079545" xlink:href="#m6ca73f8864" y="315"/>
      </g>
     </g>
     <g id="text_6">
      <!-- 2000 -->
      <g transform="translate(283.354545 329.598437)scale(0.1 -0.1)">
       <use xlink:href="#DejaVuSans-32"/>
       <use x="63.623047" xlink:href="#DejaVuSans-30"/>
       <use x="127.246094" xlink:href="#DejaVuSans-30"/>
       <use x="190.869141" xlink:href="#DejaVuSans-30"/>
      </g>
     </g>
    </g>
    <g id="xtick_7">
     <g id="line2d_7">
      <g>
       <use style="stroke:#000000;stroke-width:0.8;" x="332.107438" xlink:href="#m6ca73f8864" y="315"/>
      </g>
     </g>
     <g id="text_7">
      <!-- 2020 -->
      <g transform="translate(319.382438 329.598437)scale(0.1 -0.1)">
       <use xlink:href="#DejaVuSans-32"/>
       <use x="63.623047" xlink:href="#DejaVuSans-30"/>
       <use x="127.246094" xlink:href="#DejaVuSans-32"/>
       <use x="190.869141" xlink:href="#DejaVuSans-30"/>
      </g>
     </g>
    </g>
   </g>
   <g id="matplotlib.axis_2">
    <g id="ytick_1">
     <g id="line2d_8">
      <defs>
       <path d="M 0 0 
L -3.5 0 
" id="m4d5a8d5626" style="stroke:#000000;stroke-width:0.8;"/>
      </defs>
      <g>
       <use style="stroke:#000000;stroke-width:0.8;" x="90" xlink:href="#m4d5a8d5626" y="302.509371"/>
      </g>
     </g>
     <g id="text_8">
      <!-- 3.0 -->
      <defs>
       <path d="M 40.578125 39.3125 
Q 47.65625 37.796875 51.625 33 
Q 55.609375 28.21875 55.609375 21.1875 
Q 55.609375 10.40625 48.1875 4.484375 
Q 40.765625 -1.421875 27.09375 -1.421875 
Q 22.515625 -1.421875 17.65625 -0.515625 
Q 12.796875 0.390625 7.625 2.203125 
L 7.625 11.71875 
Q 11.71875 9.328125 16.59375 8.109375 
Q 21.484375 6.890625 26.8125 6.890625 
Q 36.078125 6.890625 40.9375 10.546875 
Q 45.796875 14.203125 45.796875 21.1875 
Q 45.796875 27.640625 41.28125 31.265625 
Q 36.765625 34.90625 28.71875 34.90625 
L 20.21875 34.90625 
L 20.21875 43.015625 
L 29.109375 43.015625 
Q 36.375 43.015625 40.234375 45.921875 
Q 44.09375 48.828125 44.09375 54.296875 
Q 44.09375 59.90625 40.109375 62.90625 
Q 36.140625 65.921875 28.71875 65.921875 
Q 24.65625 65.921875 20.015625 65.03125 
Q 15.375 64.15625 9.8125 62.3125 
L 9.8125 71.09375 
Q 15.4375 72.65625 20.34375 73.4375 
Q 25.25 74.21875 29.59375 74.21875 
Q 40.828125 74.21875 47.359375 69.109375 
Q 53.90625 64.015625 53.90625 55.328125 
Q 53.90625 49.265625 50.4375 45.09375 
Q 46.96875 40.921875 40.578125 39.3125 
z
" id="DejaVuSans-33"/>
       <path d="M 10.6875 12.40625 
L 21 12.40625 
L 21 0 
L 10.6875 0 
z
" id="DejaVuSans-2e"/>
      </defs>
      <g transform="translate(67.096875 306.308589)scale(0.1 -0.1)">
       <use xlink:href="#DejaVuSans-33"/>
       <use x="63.623047" xlink:href="#DejaVuSans-2e"/>
       <use x="95.410156" xlink:href="#DejaVuSans-30"/>
      </g>
     </g>
    </g>
    <g id="ytick_2">
     <g id="line2d_9">
      <g>
       <use style="stroke:#000000;stroke-width:0.8;" x="90" xlink:href="#m4d5a8d5626" y="246.941062"/>
      </g>
     </g>
     <g id="text_9">
      <!-- 3.5 -->
      <defs>
       <path d="M 10.796875 72.90625 
L 49.515625 72.90625 
L 49.515625 64.59375 
L 19.828125 64.59375 
L 19.828125 46.734375 
Q 21.96875 47.46875 24.109375 47.828125 
Q 26.265625 48.1875 28.421875 48.1875 
Q 40.625 48.1875 47.75 41.5 
Q 54.890625 34.8125 54.890625 23.390625 
Q 54.890625 11.625 47.5625 5.09375 
Q 40.234375 -1.421875 26.90625 -1.421875 
Q 22.3125 -1.421875 17.546875 -0.640625 
Q 12.796875 0.140625 7.71875 1.703125 
L 7.71875 11.625 
Q 12.109375 9.234375 16.796875 8.0625 
Q 21.484375 6.890625 26.703125 6.890625 
Q 35.15625 6.890625 40.078125 11.328125 
Q 45.015625 15.765625 45.015625 23.390625 
Q 45.015625 31 40.078125 35.4375 
Q 35.15625 39.890625 26.703125 39.890625 
Q 22.75 39.890625 18.8125 39.015625 
Q 14.890625 38.140625 10.796875 36.28125 
z
" id="DejaVuSans-35"/>
      </defs>
      <g transform="translate(67.096875 250.740281)scale(0.1 -0.1)">
       <use xlink:href="#DejaVuSans-33"/>
       <use x="63.623047" xlink:href="#DejaVuSans-2e"/>
       <use x="95.410156" xlink:href="#DejaVuSans-35"/>
      </g>
     </g>
    </g>
    <g id="ytick_3">
     <g id="line2d_10">
      <g>
       <use style="stroke:#000000;stroke-width:0.8;" x="90" xlink:href="#m4d5a8d5626" y="191.372753"/>
      </g>
     </g>
     <g id="text_10">
      <!-- 4.0 -->
      <g transform="translate(67.096875 195.171972)scale(0.1 -0.1)">
       <use xlink:href="#DejaVuSans-34"/>
       <use x="63.623047" xlink:href="#DejaVuSans-2e"/>
       <use x="95.410156" xlink:href="#DejaVuSans-30"/>
      </g>
     </g>
    </g>
    <g id="ytick_4">
     <g id="line2d_11">
      <g>
       <use style="stroke:#000000;stroke-width:0.8;" x="90" xlink:href="#m4d5a8d5626" y="135.804445"/>
      </g>
     </g>
     <g id="text_11">
      <!-- 4.5 -->
      <g transform="translate(67.096875 139.603663)scale(0.1 -0.1)">
       <use xlink:href="#DejaVuSans-34"/>
       <use x="63.623047" xlink:href="#DejaVuSans-2e"/>
       <use x="95.410156" xlink:href="#DejaVuSans-35"/>
      </g>
     </g>
    </g>
    <g id="ytick_5">
     <g id="line2d_12">
      <g>
       <use style="stroke:#000000;stroke-width:0.8;" x="90" xlink:href="#m4d5a8d5626" y="80.236136"/>
      </g>
     </g>
     <g id="text_12">
      <!-- 5.0 -->
      <g transform="translate(67.096875 84.035355)scale(0.1 -0.1)">
       <use xlink:href="#DejaVuSans-35"/>
       <use x="63.623047" xlink:href="#DejaVuSans-2e"/>
       <use x="95.410156" xlink:href="#DejaVuSans-30"/>
      </g>
     </g>
    </g>
   </g>
   <g id="line2d_13">
    <defs>
     <path d="M 0 3 
C 0.795609 3 1.55874 2.683901 2.12132 2.12132 
C 2.683901 1.55874 3 0.795609 3 0 
C 3 -0.795609 2.683901 -1.55874 2.12132 -2.12132 
C 1.55874 -2.683901 0.795609 -3 0 -3 
C -0.795609 -3 -1.55874 -2.683901 -2.12132 -2.12132 
C -2.683901 -1.55874 -3 -0.795609 -3 0 
C -3 0.795609 -2.683901 1.55874 -2.12132 2.12132 
C -1.55874 2.683901 -0.795609 3 0 3 
z
" id="mc1953da208" style="stroke:#ff0000;"/>
    </defs>
    <g clip-path="url(#p49783c1495)">
     <use style="fill:#ff0000;stroke:#ff0000;" x="303.285124" xlink:href="#mc1953da208" y="291.100275"/>
     <use style="fill:#ff0000;stroke:#ff0000;" x="267.257231" xlink:href="#mc1953da208" y="295.226689"/>
     <use style="fill:#ff0000;stroke:#ff0000;" x="202.407025" xlink:href="#mc1953da208" y="228.03638"/>
     <use style="fill:#ff0000;stroke:#ff0000;" x="288.873967" xlink:href="#mc1953da208" y="286.666575"/>
     <use style="fill:#ff0000;stroke:#ff0000;" x="108.734504" xlink:href="#mc1953da208" y="139.045929"/>
     <use style="fill:#ff0000;stroke:#ff0000;" x="159.173554" xlink:href="#mc1953da208" y="210.872254"/>
     <use style="fill:#ff0000;stroke:#ff0000;" x="130.35124" xlink:href="#mc1953da208" y="174.182289"/>
     <use style="fill:#ff0000;stroke:#ff0000;" x="238.434917" xlink:href="#mc1953da208" y="266.034506"/>
     <use style="fill:#ff0000;stroke:#ff0000;" x="151.967975" xlink:href="#mc1953da208" y="239.215659"/>
     <use style="fill:#ff0000;stroke:#ff0000;" x="252.846074" xlink:href="#mc1953da208" y="293.734156"/>
     <use style="fill:#ff0000;stroke:#ff0000;" x="274.46281" xlink:href="#mc1953da208" y="292.10993"/>
     <use style="fill:#ff0000;stroke:#ff0000;" x="317.696281" xlink:href="#mc1953da208" y="298.738531"/>
     <use style="fill:#ff0000;stroke:#ff0000;" x="245.640496" xlink:href="#mc1953da208" y="287.412842"/>
     <use style="fill:#ff0000;stroke:#ff0000;" x="260.051653" xlink:href="#mc1953da208" y="290.749091"/>
     <use style="fill:#ff0000;stroke:#ff0000;" x="173.584711" xlink:href="#mc1953da208" y="236.622832"/>
     <use style="fill:#ff0000;stroke:#ff0000;" x="115.940083" xlink:href="#mc1953da208" y="139.724315"/>
     <use style="fill:#ff0000;stroke:#ff0000;" x="296.079545" xlink:href="#mc1953da208" y="293.031788"/>
     <use style="fill:#ff0000;stroke:#ff0000;" x="180.790289" xlink:href="#mc1953da208" y="242.628082"/>
     <use style="fill:#ff0000;stroke:#ff0000;" x="216.818182" xlink:href="#mc1953da208" y="254.006448"/>
     <use style="fill:#ff0000;stroke:#ff0000;" x="166.379132" xlink:href="#mc1953da208" y="233.067093"/>
     <use style="fill:#ff0000;stroke:#ff0000;" x="231.229339" xlink:href="#mc1953da208" y="287.755246"/>
    </g>
   </g>
   <g id="line2d_14">
    <defs>
     <path d="M 0 3 
C 0.795609 3 1.55874 2.683901 2.12132 2.12132 
C 2.683901 1.55874 3 0.795609 3 0 
C 3 -0.795609 2.683901 -1.55874 2.12132 -2.12132 
C 1.55874 -2.683901 0.795609 -3 0 -3 
C -0.795609 -3 -1.55874 -2.683901 -2.12132 -2.12132 
C -2.683901 -1.55874 -3 -0.795609 -3 0 
C -3 0.795609 -2.683901 1.55874 -2.12132 2.12132 
C -1.55874 2.683901 -0.795609 3 0 3 
z
" id="m1d98d0118f" style="stroke:#00ff00;"/>
    </defs>
    <g clip-path="url(#p49783c1495)">
     <use style="fill:#00ff00;stroke:#00ff00;" x="137.556818" xlink:href="#m1d98d0118f" y="202.117803"/>
     <use style="fill:#00ff00;stroke:#00ff00;" x="224.02376" xlink:href="#m1d98d0118f" y="279.634112"/>
     <use style="fill:#00ff00;stroke:#00ff00;" x="281.668388" xlink:href="#m1d98d0118f" y="284.603368"/>
     <use style="fill:#00ff00;stroke:#00ff00;" x="310.490702" xlink:href="#m1d98d0118f" y="302.645455"/>
     <use style="fill:#00ff00;stroke:#00ff00;" x="123.145661" xlink:href="#m1d98d0118f" y="55.554545"/>
     <use style="fill:#00ff00;stroke:#00ff00;" x="209.612603" xlink:href="#m1d98d0118f" y="259.133737"/>
    </g>
   </g>
   <g id="line2d_15">
    <path clip-path="url(#p49783c1495)" d="M 101.528926 108.349956 
L 105.103786 120.214562 
L 108.678647 131.169672 
L 112.253508 141.285255 
L 115.828368 150.627262 
L 119.403229 159.257763 
L 122.97809 167.235088 
L 126.55295 174.613955 
L 130.127811 181.445608 
L 133.702672 187.777943 
L 137.277532 193.655637 
L 140.852393 199.120275 
L 144.427254 204.210471 
L 148.002114 208.961993 
L 151.576975 213.407877 
L 155.151835 217.57855 
L 158.726696 221.501941 
L 164.088987 226.97863 
L 169.451278 232.032617 
L 174.813569 236.729953 
L 180.17586 241.126794 
L 185.538151 245.270171 
L 192.687872 250.4661 
L 199.837594 255.350067 
L 206.987315 259.971598 
L 214.137036 264.36174 
L 221.286758 268.535714 
L 228.436479 272.495429 
L 235.5862 276.231862 
L 242.735922 279.727299 
L 249.885643 282.957441 
L 257.035364 285.893368 
L 262.397655 287.88322 
L 267.759946 289.67591 
L 273.122237 291.257616 
L 278.484528 292.614896 
L 283.846819 293.735011 
L 289.20911 294.606228 
L 294.571401 295.218093 
L 299.933692 295.561687 
L 305.295983 295.629849 
L 310.658274 295.417381 
L 316.020565 294.921227 
L 321.382856 294.140625 
L 326.745147 293.077238 
L 332.107438 291.735262 
L 332.107438 291.735262 
" style="fill:none;stroke:#3300ff;stroke-linecap:square;stroke-width:2;"/>
   </g>
   <g id="line2d_16">
    <path clip-path="url(#p49783c1495)" d="M 101.528926 46.89309 
L 103.316356 60.648676 
L 105.103786 73.172773 
L 106.891217 84.506121 
L 108.678647 94.68769 
L 110.466077 103.760621 
L 112.253508 111.780713 
L 114.040938 118.825312 
L 115.828368 124.998246 
L 117.615799 130.426472 
L 119.403229 135.248267 
L 121.190659 139.597969 
L 124.76552 147.330922 
L 128.340381 154.300449 
L 133.702672 164.055189 
L 139.064963 173.318069 
L 144.427254 182.121278 
L 149.789544 190.364595 
L 153.364405 195.49213 
L 156.939266 200.295022 
L 160.514126 204.760222 
L 164.088987 208.888257 
L 167.663848 212.693286 
L 171.238708 216.201325 
L 174.813569 219.446979 
L 178.38843 222.469418 
L 183.750721 226.671084 
L 189.113012 230.581665 
L 196.262733 235.507668 
L 206.987315 242.564827 
L 219.499327 250.517473 
L 228.436479 255.98337 
L 235.5862 260.139181 
L 240.948491 263.066377 
L 246.310782 265.772492 
L 251.673073 268.197175 
L 255.247934 269.627083 
L 258.822795 270.889143 
L 262.397655 271.971977 
L 265.972516 272.870525 
L 269.547377 273.587709 
L 273.122237 274.135286 
L 278.484528 274.68495 
L 283.846819 274.993138 
L 290.99654 275.172377 
L 296.358831 275.090313 
L 299.933692 274.748565 
L 301.721122 274.402456 
L 303.508553 273.876561 
L 305.295983 273.110364 
L 307.083413 272.034682 
L 308.870844 270.57534 
L 310.658274 268.657991 
L 312.445704 266.212783 
L 314.233135 263.177469 
L 316.020565 259.498218 
L 317.807995 255.128352 
L 319.595426 250.025917 
L 321.382856 244.151017 
L 323.170286 237.463538 
L 324.957717 229.921489 
L 326.745147 221.479911 
L 328.532577 212.090253 
L 330.320008 201.700033 
L 332.107438 190.252685 
L 332.107438 190.252685 
" style="fill:none;stroke:#3300ff;stroke-linecap:square;stroke-width:0.2;"/>
   </g>
   <g id="line2d_17">
    <path clip-path="url(#p49783c1495)" d="M 101.528926 169.806823 
L 103.316356 168.152284 
L 105.103786 167.256351 
L 106.891217 167.096548 
L 108.678647 167.651654 
L 110.466077 168.895758 
L 112.253508 170.789797 
L 114.040938 173.272661 
L 115.828368 176.256277 
L 117.615799 179.628965 
L 121.190659 187.05117 
L 126.55295 198.345502 
L 130.127811 205.270156 
L 133.702672 211.500697 
L 137.277532 217.032655 
L 140.852393 221.933184 
L 144.427254 226.299665 
L 148.002114 230.23752 
L 151.576975 233.848119 
L 156.939266 238.843987 
L 164.088987 245.069003 
L 174.813569 254.012927 
L 183.750721 261.158231 
L 190.900442 266.559301 
L 196.262733 270.379369 
L 201.625024 273.986176 
L 206.987315 277.378369 
L 212.349606 280.562766 
L 219.499327 284.506881 
L 226.649049 288.141729 
L 233.79877 291.51523 
L 242.735922 295.458736 
L 274.909667 309.119734 
L 280.271958 311.220935 
L 285.634249 313.048323 
L 289.20911 314.06364 
L 294.571401 315.282036 
L 299.933692 316.37481 
L 301.721122 316.828165 
L 303.508553 317.39963 
L 305.295983 318.149334 
L 307.083413 319.146127 
L 308.870844 320.463899 
L 310.658274 322.176772 
L 312.445704 324.354424 
L 314.233135 327.058987 
L 316.020565 330.344236 
L 317.807995 334.256849 
L 319.595426 338.838842 
L 321.382856 344.130233 
L 323.170286 350.171319 
L 325.888845 361 
L 325.888845 361 
" style="fill:none;stroke:#3300ff;stroke-linecap:square;stroke-width:0.2;"/>
   </g>
   <g id="patch_4">
    <path d="M 90 315 
L 90 43.2 
" style="fill:none;stroke:#000000;stroke-linecap:square;stroke-linejoin:miter;stroke-width:0.8;"/>
   </g>
   <g id="patch_5">
    <path d="M 343.636364 315 
L 343.636364 43.2 
" style="fill:none;stroke:#000000;stroke-linecap:square;stroke-linejoin:miter;stroke-width:0.8;"/>
   </g>
   <g id="patch_6">
    <path d="M 90 315 
L 343.636364 315 
" style="fill:none;stroke:#000000;stroke-linecap:square;stroke-linejoin:miter;stroke-width:0.8;"/>
   </g>
   <g id="patch_7">
    <path d="M 90 43.2 
L 343.636364 43.2 
" style="fill:none;stroke:#000000;stroke-linecap:square;stroke-linejoin:miter;stroke-width:0.8;"/>
   </g>
  </g>
  <g id="axes_2">
   <g id="patch_8">
    <path d="M 394.363636 315 
L 648 315 
L 648 43.2 
L 394.363636 43.2 
z
" style="fill:none;"/>
   </g>
   <g id="matplotlib.axis_3">
    <g id="xtick_8">
     <g id="line2d_18">
      <g>
       <use style="stroke:#000000;stroke-width:0.8;" x="394.363636" xlink:href="#m6ca73f8864" y="315"/>
      </g>
     </g>
     <g id="text_13">
      <!-- 0 -->
      <g transform="translate(391.182386 329.598437)scale(0.1 -0.1)">
       <use xlink:href="#DejaVuSans-30"/>
      </g>
     </g>
    </g>
    <g id="xtick_9">
     <g id="line2d_19">
      <g>
       <use style="stroke:#000000;stroke-width:0.8;" x="441.333333" xlink:href="#m6ca73f8864" y="315"/>
      </g>
     </g>
     <g id="text_14">
      <!-- 5 -->
      <g transform="translate(438.152083 329.598437)scale(0.1 -0.1)">
       <use xlink:href="#DejaVuSans-35"/>
      </g>
     </g>
    </g>
    <g id="xtick_10">
     <g id="line2d_20">
      <g>
       <use style="stroke:#000000;stroke-width:0.8;" x="488.30303" xlink:href="#m6ca73f8864" y="315"/>
      </g>
     </g>
     <g id="text_15">
      <!-- 10 -->
      <g transform="translate(481.94053 329.598437)scale(0.1 -0.1)">
       <use xlink:href="#DejaVuSans-31"/>
       <use x="63.623047" xlink:href="#DejaVuSans-30"/>
      </g>
     </g>
    </g>
    <g id="xtick_11">
     <g id="line2d_21">
      <g>
       <use style="stroke:#000000;stroke-width:0.8;" x="535.272727" xlink:href="#m6ca73f8864" y="315"/>
      </g>
     </g>
     <g id="text_16">
      <!-- 15 -->
      <g transform="translate(528.910227 329.598437)scale(0.1 -0.1)">
       <use xlink:href="#DejaVuSans-31"/>
       <use x="63.623047" xlink:href="#DejaVuSans-35"/>
      </g>
     </g>
    </g>
    <g id="xtick_12">
     <g id="line2d_22">
      <g>
       <use style="stroke:#000000;stroke-width:0.8;" x="582.242424" xlink:href="#m6ca73f8864" y="315"/>
      </g>
     </g>
     <g id="text_17">
      <!-- 20 -->
      <g transform="translate(575.879924 329.598437)scale(0.1 -0.1)">
       <use xlink:href="#DejaVuSans-32"/>
       <use x="63.623047" xlink:href="#DejaVuSans-30"/>
      </g>
     </g>
    </g>
    <g id="xtick_13">
     <g id="line2d_23">
      <g>
       <use style="stroke:#000000;stroke-width:0.8;" x="629.212121" xlink:href="#m6ca73f8864" y="315"/>
      </g>
     </g>
     <g id="text_18">
      <!-- 25 -->
      <g transform="translate(622.849621 329.598437)scale(0.1 -0.1)">
       <use xlink:href="#DejaVuSans-32"/>
       <use x="63.623047" xlink:href="#DejaVuSans-35"/>
      </g>
     </g>
    </g>
    <g id="text_19">
     <!-- number -->
     <defs>
      <path d="M 54.890625 33.015625 
L 54.890625 0 
L 45.90625 0 
L 45.90625 32.71875 
Q 45.90625 40.484375 42.875 44.328125 
Q 39.84375 48.1875 33.796875 48.1875 
Q 26.515625 48.1875 22.3125 43.546875 
Q 18.109375 38.921875 18.109375 30.90625 
L 18.109375 0 
L 9.078125 0 
L 9.078125 54.6875 
L 18.109375 54.6875 
L 18.109375 46.1875 
Q 21.34375 51.125 25.703125 53.5625 
Q 30.078125 56 35.796875 56 
Q 45.21875 56 50.046875 50.171875 
Q 54.890625 44.34375 54.890625 33.015625 
z
" id="DejaVuSans-6e"/>
      <path d="M 8.5 21.578125 
L 8.5 54.6875 
L 17.484375 54.6875 
L 17.484375 21.921875 
Q 17.484375 14.15625 20.5 10.265625 
Q 23.53125 6.390625 29.59375 6.390625 
Q 36.859375 6.390625 41.078125 11.03125 
Q 45.3125 15.671875 45.3125 23.6875 
L 45.3125 54.6875 
L 54.296875 54.6875 
L 54.296875 0 
L 45.3125 0 
L 45.3125 8.40625 
Q 42.046875 3.421875 37.71875 1 
Q 33.40625 -1.421875 27.6875 -1.421875 
Q 18.265625 -1.421875 13.375 4.4375 
Q 8.5 10.296875 8.5 21.578125 
z
M 31.109375 56 
z
" id="DejaVuSans-75"/>
      <path d="M 52 44.1875 
Q 55.375 50.25 60.0625 53.125 
Q 64.75 56 71.09375 56 
Q 79.640625 56 84.28125 50.015625 
Q 88.921875 44.046875 88.921875 33.015625 
L 88.921875 0 
L 79.890625 0 
L 79.890625 32.71875 
Q 79.890625 40.578125 77.09375 44.375 
Q 74.3125 48.1875 68.609375 48.1875 
Q 61.625 48.1875 57.5625 43.546875 
Q 53.515625 38.921875 53.515625 30.90625 
L 53.515625 0 
L 44.484375 0 
L 44.484375 32.71875 
Q 44.484375 40.625 41.703125 44.40625 
Q 38.921875 48.1875 33.109375 48.1875 
Q 26.21875 48.1875 22.15625 43.53125 
Q 18.109375 38.875 18.109375 30.90625 
L 18.109375 0 
L 9.078125 0 
L 9.078125 54.6875 
L 18.109375 54.6875 
L 18.109375 46.1875 
Q 21.1875 51.21875 25.484375 53.609375 
Q 29.78125 56 35.6875 56 
Q 41.65625 56 45.828125 52.96875 
Q 50 49.953125 52 44.1875 
z
" id="DejaVuSans-6d"/>
      <path d="M 48.6875 27.296875 
Q 48.6875 37.203125 44.609375 42.84375 
Q 40.53125 48.484375 33.40625 48.484375 
Q 26.265625 48.484375 22.1875 42.84375 
Q 18.109375 37.203125 18.109375 27.296875 
Q 18.109375 17.390625 22.1875 11.75 
Q 26.265625 6.109375 33.40625 6.109375 
Q 40.53125 6.109375 44.609375 11.75 
Q 48.6875 17.390625 48.6875 27.296875 
z
M 18.109375 46.390625 
Q 20.953125 51.265625 25.265625 53.625 
Q 29.59375 56 35.59375 56 
Q 45.5625 56 51.78125 48.09375 
Q 58.015625 40.1875 58.015625 27.296875 
Q 58.015625 14.40625 51.78125 6.484375 
Q 45.5625 -1.421875 35.59375 -1.421875 
Q 29.59375 -1.421875 25.265625 0.953125 
Q 20.953125 3.328125 18.109375 8.203125 
L 18.109375 0 
L 9.078125 0 
L 9.078125 75.984375 
L 18.109375 75.984375 
z
" id="DejaVuSans-62"/>
      <path d="M 56.203125 29.59375 
L 56.203125 25.203125 
L 14.890625 25.203125 
Q 15.484375 15.921875 20.484375 11.0625 
Q 25.484375 6.203125 34.421875 6.203125 
Q 39.59375 6.203125 44.453125 7.46875 
Q 49.3125 8.734375 54.109375 11.28125 
L 54.109375 2.78125 
Q 49.265625 0.734375 44.1875 -0.34375 
Q 39.109375 -1.421875 33.890625 -1.421875 
Q 20.796875 -1.421875 13.15625 6.1875 
Q 5.515625 13.8125 5.515625 26.8125 
Q 5.515625 40.234375 12.765625 48.109375 
Q 20.015625 56 32.328125 56 
Q 43.359375 56 49.78125 48.890625 
Q 56.203125 41.796875 56.203125 29.59375 
z
M 47.21875 32.234375 
Q 47.125 39.59375 43.09375 43.984375 
Q 39.0625 48.390625 32.421875 48.390625 
Q 24.90625 48.390625 20.390625 44.140625 
Q 15.875 39.890625 15.1875 32.171875 
z
" id="DejaVuSans-65"/>
      <path d="M 41.109375 46.296875 
Q 39.59375 47.171875 37.8125 47.578125 
Q 36.03125 48 33.890625 48 
Q 26.265625 48 22.1875 43.046875 
Q 18.109375 38.09375 18.109375 28.8125 
L 18.109375 0 
L 9.078125 0 
L 9.078125 54.6875 
L 18.109375 54.6875 
L 18.109375 46.1875 
Q 20.953125 51.171875 25.484375 53.578125 
Q 30.03125 56 36.53125 56 
Q 37.453125 56 38.578125 55.875 
Q 39.703125 55.765625 41.0625 55.515625 
z
" id="DejaVuSans-72"/>
     </defs>
     <g transform="translate(482.153693 350.875)scale(0.2 -0.2)">
      <use xlink:href="#DejaVuSans-6e"/>
      <use x="63.378906" xlink:href="#DejaVuSans-75"/>
      <use x="126.757812" xlink:href="#DejaVuSans-6d"/>
      <use x="224.169922" xlink:href="#DejaVuSans-62"/>
      <use x="287.646484" xlink:href="#DejaVuSans-65"/>
      <use x="349.169922" xlink:href="#DejaVuSans-72"/>
     </g>
    </g>
   </g>
   <g id="matplotlib.axis_4">
    <g id="ytick_6">
     <g id="line2d_24">
      <g>
       <use style="stroke:#000000;stroke-width:0.8;" x="394.363636" xlink:href="#m4d5a8d5626" y="315"/>
      </g>
     </g>
     <g id="text_20">
      <!-- 0.20 -->
      <g transform="translate(365.098011 318.799219)scale(0.1 -0.1)">
       <use xlink:href="#DejaVuSans-30"/>
       <use x="63.623047" xlink:href="#DejaVuSans-2e"/>
       <use x="95.410156" xlink:href="#DejaVuSans-32"/>
       <use x="159.033203" xlink:href="#DejaVuSans-30"/>
      </g>
     </g>
    </g>
    <g id="ytick_7">
     <g id="line2d_25">
      <g>
       <use style="stroke:#000000;stroke-width:0.8;" x="394.363636" xlink:href="#m4d5a8d5626" y="281.025"/>
      </g>
     </g>
     <g id="text_21">
      <!-- 0.25 -->
      <g transform="translate(365.098011 284.824219)scale(0.1 -0.1)">
       <use xlink:href="#DejaVuSans-30"/>
       <use x="63.623047" xlink:href="#DejaVuSans-2e"/>
       <use x="95.410156" xlink:href="#DejaVuSans-32"/>
       <use x="159.033203" xlink:href="#DejaVuSans-35"/>
      </g>
     </g>
    </g>
    <g id="ytick_8">
     <g id="line2d_26">
      <g>
       <use style="stroke:#000000;stroke-width:0.8;" x="394.363636" xlink:href="#m4d5a8d5626" y="247.05"/>
      </g>
     </g>
     <g id="text_22">
      <!-- 0.30 -->
      <g transform="translate(365.098011 250.849219)scale(0.1 -0.1)">
       <use xlink:href="#DejaVuSans-30"/>
       <use x="63.623047" xlink:href="#DejaVuSans-2e"/>
       <use x="95.410156" xlink:href="#DejaVuSans-33"/>
       <use x="159.033203" xlink:href="#DejaVuSans-30"/>
      </g>
     </g>
    </g>
    <g id="ytick_9">
     <g id="line2d_27">
      <g>
       <use style="stroke:#000000;stroke-width:0.8;" x="394.363636" xlink:href="#m4d5a8d5626" y="213.075"/>
      </g>
     </g>
     <g id="text_23">
      <!-- 0.35 -->
      <g transform="translate(365.098011 216.874219)scale(0.1 -0.1)">
       <use xlink:href="#DejaVuSans-30"/>
       <use x="63.623047" xlink:href="#DejaVuSans-2e"/>
       <use x="95.410156" xlink:href="#DejaVuSans-33"/>
       <use x="159.033203" xlink:href="#DejaVuSans-35"/>
      </g>
     </g>
    </g>
    <g id="ytick_10">
     <g id="line2d_28">
      <g>
       <use style="stroke:#000000;stroke-width:0.8;" x="394.363636" xlink:href="#m4d5a8d5626" y="179.1"/>
      </g>
     </g>
     <g id="text_24">
      <!-- 0.40 -->
      <g transform="translate(365.098011 182.899219)scale(0.1 -0.1)">
       <use xlink:href="#DejaVuSans-30"/>
       <use x="63.623047" xlink:href="#DejaVuSans-2e"/>
       <use x="95.410156" xlink:href="#DejaVuSans-34"/>
       <use x="159.033203" xlink:href="#DejaVuSans-30"/>
      </g>
     </g>
    </g>
    <g id="ytick_11">
     <g id="line2d_29">
      <g>
       <use style="stroke:#000000;stroke-width:0.8;" x="394.363636" xlink:href="#m4d5a8d5626" y="145.125"/>
      </g>
     </g>
     <g id="text_25">
      <!-- 0.45 -->
      <g transform="translate(365.098011 148.924219)scale(0.1 -0.1)">
       <use xlink:href="#DejaVuSans-30"/>
       <use x="63.623047" xlink:href="#DejaVuSans-2e"/>
       <use x="95.410156" xlink:href="#DejaVuSans-34"/>
       <use x="159.033203" xlink:href="#DejaVuSans-35"/>
      </g>
     </g>
    </g>
    <g id="ytick_12">
     <g id="line2d_30">
      <g>
       <use style="stroke:#000000;stroke-width:0.8;" x="394.363636" xlink:href="#m4d5a8d5626" y="111.15"/>
      </g>
     </g>
     <g id="text_26">
      <!-- 0.50 -->
      <g transform="translate(365.098011 114.949219)scale(0.1 -0.1)">
       <use xlink:href="#DejaVuSans-30"/>
       <use x="63.623047" xlink:href="#DejaVuSans-2e"/>
       <use x="95.410156" xlink:href="#DejaVuSans-35"/>
       <use x="159.033203" xlink:href="#DejaVuSans-30"/>
      </g>
     </g>
    </g>
    <g id="ytick_13">
     <g id="line2d_31">
      <g>
       <use style="stroke:#000000;stroke-width:0.8;" x="394.363636" xlink:href="#m4d5a8d5626" y="77.175"/>
      </g>
     </g>
     <g id="text_27">
      <!-- 0.55 -->
      <g transform="translate(365.098011 80.974219)scale(0.1 -0.1)">
       <use xlink:href="#DejaVuSans-30"/>
       <use x="63.623047" xlink:href="#DejaVuSans-2e"/>
       <use x="95.410156" xlink:href="#DejaVuSans-35"/>
       <use x="159.033203" xlink:href="#DejaVuSans-35"/>
      </g>
     </g>
    </g>
    <g id="ytick_14">
     <g id="line2d_32">
      <g>
       <use style="stroke:#000000;stroke-width:0.8;" x="394.363636" xlink:href="#m4d5a8d5626" y="43.2"/>
      </g>
     </g>
     <g id="text_28">
      <!-- 0.60 -->
      <g transform="translate(365.098011 46.999219)scale(0.1 -0.1)">
       <use xlink:href="#DejaVuSans-30"/>
       <use x="63.623047" xlink:href="#DejaVuSans-2e"/>
       <use x="95.410156" xlink:href="#DejaVuSans-36"/>
       <use x="159.033203" xlink:href="#DejaVuSans-30"/>
      </g>
     </g>
    </g>
   </g>
   <g id="line2d_33">
    <g clip-path="url(#paa9eef9c46)">
     <use style="fill:#ff0000;stroke:#ff0000;" x="0" xlink:href="#mc1953da208" y="0"/>
    </g>
   </g>
   <g id="line2d_34">
    <g clip-path="url(#paa9eef9c46)">
     <use style="fill:#ff0000;stroke:#ff0000;" x="0" xlink:href="#mc1953da208" y="0"/>
    </g>
   </g>
   <g id="line2d_35">
    <g clip-path="url(#paa9eef9c46)">
     <use style="fill:#ff0000;stroke:#ff0000;" x="0" xlink:href="#mc1953da208" y="0"/>
    </g>
   </g>
   <g id="line2d_36">
    <g clip-path="url(#paa9eef9c46)">
     <use style="fill:#ff0000;stroke:#ff0000;" x="0" xlink:href="#mc1953da208" y="0"/>
    </g>
   </g>
   <g id="line2d_37">
    <g clip-path="url(#paa9eef9c46)">
     <use style="fill:#ff0000;stroke:#ff0000;" x="0" xlink:href="#mc1953da208" y="0"/>
    </g>
   </g>
   <g id="line2d_38">
    <g clip-path="url(#paa9eef9c46)">
     <use style="fill:#ff0000;stroke:#ff0000;" x="403.757576" xlink:href="#mc1953da208" y="88.986382"/>
    </g>
   </g>
   <g id="line2d_39">
    <g clip-path="url(#paa9eef9c46)">
     <use style="fill:#ff0000;stroke:#ff0000;" x="0" xlink:href="#mc1953da208" y="0"/>
    </g>
   </g>
   <g id="line2d_40">
    <g clip-path="url(#paa9eef9c46)">
     <use style="fill:#ff0000;stroke:#ff0000;" x="0" xlink:href="#mc1953da208" y="0"/>
    </g>
   </g>
   <g id="line2d_41">
    <g clip-path="url(#paa9eef9c46)">
     <use style="fill:#ff0000;stroke:#ff0000;" x="0" xlink:href="#mc1953da208" y="0"/>
    </g>
   </g>
   <g id="line2d_42">
    <g clip-path="url(#paa9eef9c46)">
     <use style="fill:#ff0000;stroke:#ff0000;" x="0" xlink:href="#mc1953da208" y="0"/>
    </g>
   </g>
   <g id="line2d_43">
    <g clip-path="url(#paa9eef9c46)">
     <use style="fill:#ff0000;stroke:#ff0000;" x="0" xlink:href="#mc1953da208" y="0"/>
    </g>
   </g>
   <g id="line2d_44">
    <g clip-path="url(#paa9eef9c46)">
     <use style="fill:#ff0000;stroke:#ff0000;" x="413.151515" xlink:href="#mc1953da208" y="257.313521"/>
    </g>
   </g>
   <g id="line2d_45">
    <g clip-path="url(#paa9eef9c46)">
     <use style="fill:#ff0000;stroke:#ff0000;" x="0" xlink:href="#mc1953da208" y="0"/>
    </g>
   </g>
   <g id="line2d_46">
    <g clip-path="url(#paa9eef9c46)">
     <use style="fill:#ff0000;stroke:#ff0000;" x="0" xlink:href="#mc1953da208" y="0"/>
    </g>
   </g>
   <g id="line2d_47">
    <g clip-path="url(#paa9eef9c46)">
     <use style="fill:#ff0000;stroke:#ff0000;" x="0" xlink:href="#mc1953da208" y="0"/>
    </g>
   </g>
   <g id="line2d_48">
    <g clip-path="url(#paa9eef9c46)">
     <use style="fill:#ff0000;stroke:#ff0000;" x="0" xlink:href="#mc1953da208" y="0"/>
    </g>
   </g>
   <g id="line2d_49">
    <g clip-path="url(#paa9eef9c46)">
     <use style="fill:#ff0000;stroke:#ff0000;" x="0" xlink:href="#mc1953da208" y="0"/>
    </g>
   </g>
   <g id="line2d_50">
    <g clip-path="url(#paa9eef9c46)">
     <use style="fill:#ff0000;stroke:#ff0000;" x="422.545455" xlink:href="#mc1953da208" y="297.73384"/>
    </g>
   </g>
   <g id="line2d_51">
    <g clip-path="url(#paa9eef9c46)">
     <use style="fill:#ff0000;stroke:#ff0000;" x="0" xlink:href="#mc1953da208" y="0"/>
    </g>
   </g>
   <g id="line2d_52">
    <g clip-path="url(#paa9eef9c46)">
     <use style="fill:#ff0000;stroke:#ff0000;" x="0" xlink:href="#mc1953da208" y="0"/>
    </g>
   </g>
   <g id="line2d_53">
    <g clip-path="url(#paa9eef9c46)">
     <use style="fill:#ff0000;stroke:#ff0000;" x="0" xlink:href="#mc1953da208" y="0"/>
    </g>
   </g>
   <g id="line2d_54">
    <g clip-path="url(#paa9eef9c46)">
     <use style="fill:#ff0000;stroke:#ff0000;" x="0" xlink:href="#mc1953da208" y="0"/>
    </g>
   </g>
   <g id="line2d_55">
    <g clip-path="url(#paa9eef9c46)">
     <use style="fill:#ff0000;stroke:#ff0000;" x="0" xlink:href="#mc1953da208" y="0"/>
    </g>
   </g>
   <g id="line2d_56">
    <g clip-path="url(#paa9eef9c46)">
     <use style="fill:#ff0000;stroke:#ff0000;" x="431.939394" xlink:href="#mc1953da208" y="290.913794"/>
    </g>
   </g>
   <g id="line2d_57">
    <g clip-path="url(#paa9eef9c46)">
     <use style="fill:#ff0000;stroke:#ff0000;" x="0" xlink:href="#mc1953da208" y="0"/>
    </g>
   </g>
   <g id="line2d_58">
    <g clip-path="url(#paa9eef9c46)">
     <use style="fill:#ff0000;stroke:#ff0000;" x="0" xlink:href="#mc1953da208" y="0"/>
    </g>
   </g>
   <g id="line2d_59">
    <g clip-path="url(#paa9eef9c46)">
     <use style="fill:#ff0000;stroke:#ff0000;" x="0" xlink:href="#mc1953da208" y="0"/>
    </g>
   </g>
   <g id="line2d_60">
    <g clip-path="url(#paa9eef9c46)">
     <use style="fill:#ff0000;stroke:#ff0000;" x="0" xlink:href="#mc1953da208" y="0"/>
    </g>
   </g>
   <g id="line2d_61">
    <g clip-path="url(#paa9eef9c46)">
     <use style="fill:#ff0000;stroke:#ff0000;" x="0" xlink:href="#mc1953da208" y="0"/>
    </g>
   </g>
   <g id="line2d_62">
    <g clip-path="url(#paa9eef9c46)">
     <use style="fill:#ff0000;stroke:#ff0000;" x="441.333333" xlink:href="#mc1953da208" y="283.812719"/>
    </g>
   </g>
   <g id="line2d_63">
    <g clip-path="url(#paa9eef9c46)">
     <use style="fill:#ff0000;stroke:#ff0000;" x="0" xlink:href="#mc1953da208" y="0"/>
    </g>
   </g>
   <g id="line2d_64">
    <g clip-path="url(#paa9eef9c46)">
     <use style="fill:#ff0000;stroke:#ff0000;" x="0" xlink:href="#mc1953da208" y="0"/>
    </g>
   </g>
   <g id="line2d_65">
    <g clip-path="url(#paa9eef9c46)">
     <use style="fill:#ff0000;stroke:#ff0000;" x="0" xlink:href="#mc1953da208" y="0"/>
    </g>
   </g>
   <g id="line2d_66">
    <g clip-path="url(#paa9eef9c46)">
     <use style="fill:#ff0000;stroke:#ff0000;" x="0" xlink:href="#mc1953da208" y="0"/>
    </g>
   </g>
   <g id="line2d_67">
    <g clip-path="url(#paa9eef9c46)">
     <use style="fill:#ff0000;stroke:#ff0000;" x="0" xlink:href="#mc1953da208" y="0"/>
    </g>
   </g>
   <g id="line2d_68">
    <g clip-path="url(#paa9eef9c46)">
     <use style="fill:#ff0000;stroke:#ff0000;" x="450.727273" xlink:href="#mc1953da208" y="279.361969"/>
    </g>
   </g>
   <g id="line2d_69">
    <g clip-path="url(#paa9eef9c46)">
     <use style="fill:#ff0000;stroke:#ff0000;" x="0" xlink:href="#mc1953da208" y="0"/>
    </g>
   </g>
   <g id="line2d_70">
    <g clip-path="url(#paa9eef9c46)">
     <use style="fill:#ff0000;stroke:#ff0000;" x="0" xlink:href="#mc1953da208" y="0"/>
    </g>
   </g>
   <g id="line2d_71">
    <g clip-path="url(#paa9eef9c46)">
     <use style="fill:#ff0000;stroke:#ff0000;" x="0" xlink:href="#mc1953da208" y="0"/>
    </g>
   </g>
   <g id="line2d_72">
    <g clip-path="url(#paa9eef9c46)">
     <use style="fill:#ff0000;stroke:#ff0000;" x="0" xlink:href="#mc1953da208" y="0"/>
    </g>
   </g>
   <g id="patch_9">
    <path d="M 394.363636 315 
L 394.363636 43.2 
" style="fill:none;stroke:#000000;stroke-linecap:square;stroke-linejoin:miter;stroke-width:0.8;"/>
   </g>
   <g id="patch_10">
    <path d="M 648 315 
L 648 43.2 
" style="fill:none;stroke:#000000;stroke-linecap:square;stroke-linejoin:miter;stroke-width:0.8;"/>
   </g>
   <g id="patch_11">
    <path d="M 394.363636 315 
L 648 315 
" style="fill:none;stroke:#000000;stroke-linecap:square;stroke-linejoin:miter;stroke-width:0.8;"/>
   </g>
   <g id="patch_12">
    <path d="M 394.363636 43.2 
L 648 43.2 
" style="fill:none;stroke:#000000;stroke-linecap:square;stroke-linejoin:miter;stroke-width:0.8;"/>
   </g>
   <g id="text_29">
    <!-- 5-fold Cross Validation -->
    <defs>
     <path d="M 4.890625 31.390625 
L 31.203125 31.390625 
L 31.203125 23.390625 
L 4.890625 23.390625 
z
" id="DejaVuSans-2d"/>
     <path d="M 37.109375 75.984375 
L 37.109375 68.5 
L 28.515625 68.5 
Q 23.6875 68.5 21.796875 66.546875 
Q 19.921875 64.59375 19.921875 59.515625 
L 19.921875 54.6875 
L 34.71875 54.6875 
L 34.71875 47.703125 
L 19.921875 47.703125 
L 19.921875 0 
L 10.890625 0 
L 10.890625 47.703125 
L 2.296875 47.703125 
L 2.296875 54.6875 
L 10.890625 54.6875 
L 10.890625 58.5 
Q 10.890625 67.625 15.140625 71.796875 
Q 19.390625 75.984375 28.609375 75.984375 
z
" id="DejaVuSans-66"/>
     <path d="M 30.609375 48.390625 
Q 23.390625 48.390625 19.1875 42.75 
Q 14.984375 37.109375 14.984375 27.296875 
Q 14.984375 17.484375 19.15625 11.84375 
Q 23.34375 6.203125 30.609375 6.203125 
Q 37.796875 6.203125 41.984375 11.859375 
Q 46.1875 17.53125 46.1875 27.296875 
Q 46.1875 37.015625 41.984375 42.703125 
Q 37.796875 48.390625 30.609375 48.390625 
z
M 30.609375 56 
Q 42.328125 56 49.015625 48.375 
Q 55.71875 40.765625 55.71875 27.296875 
Q 55.71875 13.875 49.015625 6.21875 
Q 42.328125 -1.421875 30.609375 -1.421875 
Q 18.84375 -1.421875 12.171875 6.21875 
Q 5.515625 13.875 5.515625 27.296875 
Q 5.515625 40.765625 12.171875 48.375 
Q 18.84375 56 30.609375 56 
z
" id="DejaVuSans-6f"/>
     <path d="M 9.421875 75.984375 
L 18.40625 75.984375 
L 18.40625 0 
L 9.421875 0 
z
" id="DejaVuSans-6c"/>
     <path d="M 45.40625 46.390625 
L 45.40625 75.984375 
L 54.390625 75.984375 
L 54.390625 0 
L 45.40625 0 
L 45.40625 8.203125 
Q 42.578125 3.328125 38.25 0.953125 
Q 33.9375 -1.421875 27.875 -1.421875 
Q 17.96875 -1.421875 11.734375 6.484375 
Q 5.515625 14.40625 5.515625 27.296875 
Q 5.515625 40.1875 11.734375 48.09375 
Q 17.96875 56 27.875 56 
Q 33.9375 56 38.25 53.625 
Q 42.578125 51.265625 45.40625 46.390625 
z
M 14.796875 27.296875 
Q 14.796875 17.390625 18.875 11.75 
Q 22.953125 6.109375 30.078125 6.109375 
Q 37.203125 6.109375 41.296875 11.75 
Q 45.40625 17.390625 45.40625 27.296875 
Q 45.40625 37.203125 41.296875 42.84375 
Q 37.203125 48.484375 30.078125 48.484375 
Q 22.953125 48.484375 18.875 42.84375 
Q 14.796875 37.203125 14.796875 27.296875 
z
" id="DejaVuSans-64"/>
     <path id="DejaVuSans-20"/>
     <path d="M 64.40625 67.28125 
L 64.40625 56.890625 
Q 59.421875 61.53125 53.78125 63.8125 
Q 48.140625 66.109375 41.796875 66.109375 
Q 29.296875 66.109375 22.65625 58.46875 
Q 16.015625 50.828125 16.015625 36.375 
Q 16.015625 21.96875 22.65625 14.328125 
Q 29.296875 6.6875 41.796875 6.6875 
Q 48.140625 6.6875 53.78125 8.984375 
Q 59.421875 11.28125 64.40625 15.921875 
L 64.40625 5.609375 
Q 59.234375 2.09375 53.4375 0.328125 
Q 47.65625 -1.421875 41.21875 -1.421875 
Q 24.65625 -1.421875 15.125 8.703125 
Q 5.609375 18.84375 5.609375 36.375 
Q 5.609375 53.953125 15.125 64.078125 
Q 24.65625 74.21875 41.21875 74.21875 
Q 47.75 74.21875 53.53125 72.484375 
Q 59.328125 70.75 64.40625 67.28125 
z
" id="DejaVuSans-43"/>
     <path d="M 44.28125 53.078125 
L 44.28125 44.578125 
Q 40.484375 46.53125 36.375 47.5 
Q 32.28125 48.484375 27.875 48.484375 
Q 21.1875 48.484375 17.84375 46.4375 
Q 14.5 44.390625 14.5 40.28125 
Q 14.5 37.15625 16.890625 35.375 
Q 19.28125 33.59375 26.515625 31.984375 
L 29.59375 31.296875 
Q 39.15625 29.25 43.1875 25.515625 
Q 47.21875 21.78125 47.21875 15.09375 
Q 47.21875 7.46875 41.1875 3.015625 
Q 35.15625 -1.421875 24.609375 -1.421875 
Q 20.21875 -1.421875 15.453125 -0.5625 
Q 10.6875 0.296875 5.421875 2 
L 5.421875 11.28125 
Q 10.40625 8.6875 15.234375 7.390625 
Q 20.0625 6.109375 24.8125 6.109375 
Q 31.15625 6.109375 34.5625 8.28125 
Q 37.984375 10.453125 37.984375 14.40625 
Q 37.984375 18.0625 35.515625 20.015625 
Q 33.0625 21.96875 24.703125 23.78125 
L 21.578125 24.515625 
Q 13.234375 26.265625 9.515625 29.90625 
Q 5.8125 33.546875 5.8125 39.890625 
Q 5.8125 47.609375 11.28125 51.796875 
Q 16.75 56 26.8125 56 
Q 31.78125 56 36.171875 55.265625 
Q 40.578125 54.546875 44.28125 53.078125 
z
" id="DejaVuSans-73"/>
     <path d="M 28.609375 0 
L 0.78125 72.90625 
L 11.078125 72.90625 
L 34.1875 11.53125 
L 57.328125 72.90625 
L 67.578125 72.90625 
L 39.796875 0 
z
" id="DejaVuSans-56"/>
     <path d="M 34.28125 27.484375 
Q 23.390625 27.484375 19.1875 25 
Q 14.984375 22.515625 14.984375 16.5 
Q 14.984375 11.71875 18.140625 8.90625 
Q 21.296875 6.109375 26.703125 6.109375 
Q 34.1875 6.109375 38.703125 11.40625 
Q 43.21875 16.703125 43.21875 25.484375 
L 43.21875 27.484375 
z
M 52.203125 31.203125 
L 52.203125 0 
L 43.21875 0 
L 43.21875 8.296875 
Q 40.140625 3.328125 35.546875 0.953125 
Q 30.953125 -1.421875 24.3125 -1.421875 
Q 15.921875 -1.421875 10.953125 3.296875 
Q 6 8.015625 6 15.921875 
Q 6 25.140625 12.171875 29.828125 
Q 18.359375 34.515625 30.609375 34.515625 
L 43.21875 34.515625 
L 43.21875 35.40625 
Q 43.21875 41.609375 39.140625 45 
Q 35.0625 48.390625 27.6875 48.390625 
Q 23 48.390625 18.546875 47.265625 
Q 14.109375 46.140625 10.015625 43.890625 
L 10.015625 52.203125 
Q 14.9375 54.109375 19.578125 55.046875 
Q 24.21875 56 28.609375 56 
Q 40.484375 56 46.34375 49.84375 
Q 52.203125 43.703125 52.203125 31.203125 
z
" id="DejaVuSans-61"/>
     <path d="M 9.421875 54.6875 
L 18.40625 54.6875 
L 18.40625 0 
L 9.421875 0 
z
M 9.421875 75.984375 
L 18.40625 75.984375 
L 18.40625 64.59375 
L 9.421875 64.59375 
z
" id="DejaVuSans-69"/>
     <path d="M 18.3125 70.21875 
L 18.3125 54.6875 
L 36.8125 54.6875 
L 36.8125 47.703125 
L 18.3125 47.703125 
L 18.3125 18.015625 
Q 18.3125 11.328125 20.140625 9.421875 
Q 21.96875 7.515625 27.59375 7.515625 
L 36.8125 7.515625 
L 36.8125 0 
L 27.59375 0 
Q 17.1875 0 13.234375 3.875 
Q 9.28125 7.765625 9.28125 18.015625 
L 9.28125 47.703125 
L 2.6875 47.703125 
L 2.6875 54.6875 
L 9.28125 54.6875 
L 9.28125 70.21875 
z
" id="DejaVuSans-74"/>
    </defs>
    <g transform="translate(408.316193 37.2)scale(0.2 -0.2)">
     <use xlink:href="#DejaVuSans-35"/>
     <use x="63.623047" xlink:href="#DejaVuSans-2d"/>
     <use x="99.707031" xlink:href="#DejaVuSans-66"/>
     <use x="134.912109" xlink:href="#DejaVuSans-6f"/>
     <use x="196.09375" xlink:href="#DejaVuSans-6c"/>
     <use x="223.876953" xlink:href="#DejaVuSans-64"/>
     <use x="287.353516" xlink:href="#DejaVuSans-20"/>
     <use x="319.140625" xlink:href="#DejaVuSans-43"/>
     <use x="388.964844" xlink:href="#DejaVuSans-72"/>
     <use x="430.046875" xlink:href="#DejaVuSans-6f"/>
     <use x="491.228516" xlink:href="#DejaVuSans-73"/>
     <use x="543.328125" xlink:href="#DejaVuSans-73"/>
     <use x="595.427734" xlink:href="#DejaVuSans-20"/>
     <use x="627.214844" xlink:href="#DejaVuSans-56"/>
     <use x="695.513672" xlink:href="#DejaVuSans-61"/>
     <use x="756.792969" xlink:href="#DejaVuSans-6c"/>
     <use x="784.576172" xlink:href="#DejaVuSans-69"/>
     <use x="812.359375" xlink:href="#DejaVuSans-64"/>
     <use x="875.835938" xlink:href="#DejaVuSans-61"/>
     <use x="937.115234" xlink:href="#DejaVuSans-74"/>
     <use x="976.324219" xlink:href="#DejaVuSans-69"/>
     <use x="1004.107422" xlink:href="#DejaVuSans-6f"/>
     <use x="1065.289062" xlink:href="#DejaVuSans-6e"/>
    </g>
   </g>
  </g>
 </g>
 <defs>
  <clipPath id="p49783c1495">
   <rect height="271.8" width="253.636364" x="90" y="43.2"/>
  </clipPath>
  <clipPath id="paa9eef9c46">
   <rect height="271.8" width="253.636364" x="394.363636" y="43.2"/>
  </clipPath>
 </defs>
</svg>
