<?xml version="1.0" encoding="utf-8" standalone="no"?>
<!DOCTYPE svg PUBLIC "-//W3C//DTD SVG 1.1//EN"
  "http://www.w3.org/Graphics/SVG/1.1/DTD/svg11.dtd">
<!-- Created with matplotlib (https://matplotlib.org/) -->
<svg height="432pt" version="1.1" viewBox="0 0 720 432" width="720pt" xmlns="http://www.w3.org/2000/svg" xmlns:xlink="http://www.w3.org/1999/xlink">
 <defs>
  <style type="text/css">
*{stroke-linecap:butt;stroke-linejoin:round;}
  </style>
 </defs>
 <g id="figure_1">
  <g id="patch_1">
   <path d="M 0 432 
L 720 432 
L 720 0 
L 0 0 
z
" style="fill:none;"/>
  </g>
  <g id="axes_1">
   <g id="patch_2">
    <path d="M 90 378 
L 648 378 
L 648 51.84 
L 90 51.84 
z
" style="fill:none;"/>
   </g>
   <g id="matplotlib.axis_1">
    <g id="xtick_1">
     <g id="line2d_1">
      <defs>
       <path d="M 0 0 
L 0 3.5 
" id="m4da84cb17e" style="stroke:#000000;stroke-width:0.8;"/>
      </defs>
      <g>
       <use style="stroke:#000000;stroke-width:0.8;" x="154.384615" xlink:href="#m4da84cb17e" y="378"/>
      </g>
     </g>
     <g id="text_1">
      <!-- −1.0 -->
      <defs>
       <path d="M 10.59375 35.5 
L 73.1875 35.5 
L 73.1875 27.203125 
L 10.59375 27.203125 
z
" id="DejaVuSans-8722"/>
       <path d="M 12.40625 8.296875 
L 28.515625 8.296875 
L 28.515625 63.921875 
L 10.984375 60.40625 
L 10.984375 69.390625 
L 28.421875 72.90625 
L 38.28125 72.90625 
L 38.28125 8.296875 
L 54.390625 8.296875 
L 54.390625 0 
L 12.40625 0 
z
" id="DejaVuSans-49"/>
       <path d="M 10.6875 12.40625 
L 21 12.40625 
L 21 0 
L 10.6875 0 
z
" id="DejaVuSans-46"/>
       <path d="M 31.78125 66.40625 
Q 24.171875 66.40625 20.328125 58.90625 
Q 16.5 51.421875 16.5 36.375 
Q 16.5 21.390625 20.328125 13.890625 
Q 24.171875 6.390625 31.78125 6.390625 
Q 39.453125 6.390625 43.28125 13.890625 
Q 47.125 21.390625 47.125 36.375 
Q 47.125 51.421875 43.28125 58.90625 
Q 39.453125 66.40625 31.78125 66.40625 
z
M 31.78125 74.21875 
Q 44.046875 74.21875 50.515625 64.515625 
Q 56.984375 54.828125 56.984375 36.375 
Q 56.984375 17.96875 50.515625 8.265625 
Q 44.046875 -1.421875 31.78125 -1.421875 
Q 19.53125 -1.421875 13.0625 8.265625 
Q 6.59375 17.96875 6.59375 36.375 
Q 6.59375 54.828125 13.0625 64.515625 
Q 19.53125 74.21875 31.78125 74.21875 
z
" id="DejaVuSans-48"/>
      </defs>
      <g transform="translate(142.243209 392.598437)scale(0.1 -0.1)">
       <use xlink:href="#DejaVuSans-8722"/>
       <use x="83.789062" xlink:href="#DejaVuSans-49"/>
       <use x="147.412109" xlink:href="#DejaVuSans-46"/>
       <use x="179.199219" xlink:href="#DejaVuSans-48"/>
      </g>
     </g>
    </g>
    <g id="xtick_2">
     <g id="line2d_2">
      <g>
       <use style="stroke:#000000;stroke-width:0.8;" x="261.692308" xlink:href="#m4da84cb17e" y="378"/>
      </g>
     </g>
     <g id="text_2">
      <!-- −0.5 -->
      <defs>
       <path d="M 10.796875 72.90625 
L 49.515625 72.90625 
L 49.515625 64.59375 
L 19.828125 64.59375 
L 19.828125 46.734375 
Q 21.96875 47.46875 24.109375 47.828125 
Q 26.265625 48.1875 28.421875 48.1875 
Q 40.625 48.1875 47.75 41.5 
Q 54.890625 34.8125 54.890625 23.390625 
Q 54.890625 11.625 47.5625 5.09375 
Q 40.234375 -1.421875 26.90625 -1.421875 
Q 22.3125 -1.421875 17.546875 -0.640625 
Q 12.796875 0.140625 7.71875 1.703125 
L 7.71875 11.625 
Q 12.109375 9.234375 16.796875 8.0625 
Q 21.484375 6.890625 26.703125 6.890625 
Q 35.15625 6.890625 40.078125 11.328125 
Q 45.015625 15.765625 45.015625 23.390625 
Q 45.015625 31 40.078125 35.4375 
Q 35.15625 39.890625 26.703125 39.890625 
Q 22.75 39.890625 18.8125 39.015625 
Q 14.890625 38.140625 10.796875 36.28125 
z
" id="DejaVuSans-53"/>
      </defs>
      <g transform="translate(249.550901 392.598437)scale(0.1 -0.1)">
       <use xlink:href="#DejaVuSans-8722"/>
       <use x="83.789062" xlink:href="#DejaVuSans-48"/>
       <use x="147.412109" xlink:href="#DejaVuSans-46"/>
       <use x="179.199219" xlink:href="#DejaVuSans-53"/>
      </g>
     </g>
    </g>
    <g id="xtick_3">
     <g id="line2d_3">
      <g>
       <use style="stroke:#000000;stroke-width:0.8;" x="369" xlink:href="#m4da84cb17e" y="378"/>
      </g>
     </g>
     <g id="text_3">
      <!-- 0.0 -->
      <g transform="translate(361.048437 392.598437)scale(0.1 -0.1)">
       <use xlink:href="#DejaVuSans-48"/>
       <use x="63.623047" xlink:href="#DejaVuSans-46"/>
       <use x="95.410156" xlink:href="#DejaVuSans-48"/>
      </g>
     </g>
    </g>
    <g id="xtick_4">
     <g id="line2d_4">
      <g>
       <use style="stroke:#000000;stroke-width:0.8;" x="476.307692" xlink:href="#m4da84cb17e" y="378"/>
      </g>
     </g>
     <g id="text_4">
      <!-- 0.5 -->
      <g transform="translate(468.35613 392.598437)scale(0.1 -0.1)">
       <use xlink:href="#DejaVuSans-48"/>
       <use x="63.623047" xlink:href="#DejaVuSans-46"/>
       <use x="95.410156" xlink:href="#DejaVuSans-53"/>
      </g>
     </g>
    </g>
    <g id="xtick_5">
     <g id="line2d_5">
      <g>
       <use style="stroke:#000000;stroke-width:0.8;" x="583.615385" xlink:href="#m4da84cb17e" y="378"/>
      </g>
     </g>
     <g id="text_5">
      <!-- 1.0 -->
      <g transform="translate(575.663822 392.598437)scale(0.1 -0.1)">
       <use xlink:href="#DejaVuSans-49"/>
       <use x="63.623047" xlink:href="#DejaVuSans-46"/>
       <use x="95.410156" xlink:href="#DejaVuSans-48"/>
      </g>
     </g>
    </g>
    <g id="text_6">
     <!-- $x$ -->
     <defs>
      <path d="M 60.015625 54.6875 
L 34.90625 27.875 
L 50.296875 0 
L 39.984375 0 
L 28.421875 21.6875 
L 8.296875 0 
L -2.59375 0 
L 24.3125 28.8125 
L 10.015625 54.6875 
L 20.3125 54.6875 
L 30.8125 34.90625 
L 49.125 54.6875 
z
" id="DejaVuSans-Oblique-120"/>
     </defs>
     <g transform="translate(363 413.875)scale(0.2 -0.2)">
      <use transform="translate(0 0.3125)" xlink:href="#DejaVuSans-Oblique-120"/>
     </g>
    </g>
   </g>
   <g id="matplotlib.axis_2">
    <g id="ytick_1">
     <g id="line2d_6">
      <defs>
       <path d="M 0 0 
L -3.5 0 
" id="m96da68f043" style="stroke:#000000;stroke-width:0.8;"/>
      </defs>
      <g>
       <use style="stroke:#000000;stroke-width:0.8;" x="90" xlink:href="#m96da68f043" y="374.841266"/>
      </g>
     </g>
     <g id="text_7">
      <!-- −4 -->
      <defs>
       <path d="M 37.796875 64.3125 
L 12.890625 25.390625 
L 37.796875 25.390625 
z
M 35.203125 72.90625 
L 47.609375 72.90625 
L 47.609375 25.390625 
L 58.015625 25.390625 
L 58.015625 17.1875 
L 47.609375 17.1875 
L 47.609375 0 
L 37.796875 0 
L 37.796875 17.1875 
L 4.890625 17.1875 
L 4.890625 26.703125 
z
" id="DejaVuSans-52"/>
      </defs>
      <g transform="translate(68.257812 378.640485)scale(0.1 -0.1)">
       <use xlink:href="#DejaVuSans-8722"/>
       <use x="83.789062" xlink:href="#DejaVuSans-52"/>
      </g>
     </g>
    </g>
    <g id="ytick_2">
     <g id="line2d_7">
      <g>
       <use style="stroke:#000000;stroke-width:0.8;" x="90" xlink:href="#m96da68f043" y="334.860949"/>
      </g>
     </g>
     <g id="text_8">
      <!-- −3 -->
      <defs>
       <path d="M 40.578125 39.3125 
Q 47.65625 37.796875 51.625 33 
Q 55.609375 28.21875 55.609375 21.1875 
Q 55.609375 10.40625 48.1875 4.484375 
Q 40.765625 -1.421875 27.09375 -1.421875 
Q 22.515625 -1.421875 17.65625 -0.515625 
Q 12.796875 0.390625 7.625 2.203125 
L 7.625 11.71875 
Q 11.71875 9.328125 16.59375 8.109375 
Q 21.484375 6.890625 26.8125 6.890625 
Q 36.078125 6.890625 40.9375 10.546875 
Q 45.796875 14.203125 45.796875 21.1875 
Q 45.796875 27.640625 41.28125 31.265625 
Q 36.765625 34.90625 28.71875 34.90625 
L 20.21875 34.90625 
L 20.21875 43.015625 
L 29.109375 43.015625 
Q 36.375 43.015625 40.234375 45.921875 
Q 44.09375 48.828125 44.09375 54.296875 
Q 44.09375 59.90625 40.109375 62.90625 
Q 36.140625 65.921875 28.71875 65.921875 
Q 24.65625 65.921875 20.015625 65.03125 
Q 15.375 64.15625 9.8125 62.3125 
L 9.8125 71.09375 
Q 15.4375 72.65625 20.34375 73.4375 
Q 25.25 74.21875 29.59375 74.21875 
Q 40.828125 74.21875 47.359375 69.109375 
Q 53.90625 64.015625 53.90625 55.328125 
Q 53.90625 49.265625 50.4375 45.09375 
Q 46.96875 40.921875 40.578125 39.3125 
z
" id="DejaVuSans-51"/>
      </defs>
      <g transform="translate(68.257812 338.660168)scale(0.1 -0.1)">
       <use xlink:href="#DejaVuSans-8722"/>
       <use x="83.789062" xlink:href="#DejaVuSans-51"/>
      </g>
     </g>
    </g>
    <g id="ytick_3">
     <g id="line2d_8">
      <g>
       <use style="stroke:#000000;stroke-width:0.8;" x="90" xlink:href="#m96da68f043" y="294.880633"/>
      </g>
     </g>
     <g id="text_9">
      <!-- −2 -->
      <defs>
       <path d="M 19.1875 8.296875 
L 53.609375 8.296875 
L 53.609375 0 
L 7.328125 0 
L 7.328125 8.296875 
Q 12.9375 14.109375 22.625 23.890625 
Q 32.328125 33.6875 34.8125 36.53125 
Q 39.546875 41.84375 41.421875 45.53125 
Q 43.3125 49.21875 43.3125 52.78125 
Q 43.3125 58.59375 39.234375 62.25 
Q 35.15625 65.921875 28.609375 65.921875 
Q 23.96875 65.921875 18.8125 64.3125 
Q 13.671875 62.703125 7.8125 59.421875 
L 7.8125 69.390625 
Q 13.765625 71.78125 18.9375 73 
Q 24.125 74.21875 28.421875 74.21875 
Q 39.75 74.21875 46.484375 68.546875 
Q 53.21875 62.890625 53.21875 53.421875 
Q 53.21875 48.921875 51.53125 44.890625 
Q 49.859375 40.875 45.40625 35.40625 
Q 44.1875 33.984375 37.640625 27.21875 
Q 31.109375 20.453125 19.1875 8.296875 
z
" id="DejaVuSans-50"/>
      </defs>
      <g transform="translate(68.257812 298.679852)scale(0.1 -0.1)">
       <use xlink:href="#DejaVuSans-8722"/>
       <use x="83.789062" xlink:href="#DejaVuSans-50"/>
      </g>
     </g>
    </g>
    <g id="ytick_4">
     <g id="line2d_9">
      <g>
       <use style="stroke:#000000;stroke-width:0.8;" x="90" xlink:href="#m96da68f043" y="254.900316"/>
      </g>
     </g>
     <g id="text_10">
      <!-- −1 -->
      <g transform="translate(68.257812 258.699535)scale(0.1 -0.1)">
       <use xlink:href="#DejaVuSans-8722"/>
       <use x="83.789062" xlink:href="#DejaVuSans-49"/>
      </g>
     </g>
    </g>
    <g id="ytick_5">
     <g id="line2d_10">
      <g>
       <use style="stroke:#000000;stroke-width:0.8;" x="90" xlink:href="#m96da68f043" y="214.92"/>
      </g>
     </g>
     <g id="text_11">
      <!-- 0 -->
      <g transform="translate(76.6375 218.719219)scale(0.1 -0.1)">
       <use xlink:href="#DejaVuSans-48"/>
      </g>
     </g>
    </g>
    <g id="ytick_6">
     <g id="line2d_11">
      <g>
       <use style="stroke:#000000;stroke-width:0.8;" x="90" xlink:href="#m96da68f043" y="174.939684"/>
      </g>
     </g>
     <g id="text_12">
      <!-- 1 -->
      <g transform="translate(76.6375 178.738902)scale(0.1 -0.1)">
       <use xlink:href="#DejaVuSans-49"/>
      </g>
     </g>
    </g>
    <g id="ytick_7">
     <g id="line2d_12">
      <g>
       <use style="stroke:#000000;stroke-width:0.8;" x="90" xlink:href="#m96da68f043" y="134.959367"/>
      </g>
     </g>
     <g id="text_13">
      <!-- 2 -->
      <g transform="translate(76.6375 138.758586)scale(0.1 -0.1)">
       <use xlink:href="#DejaVuSans-50"/>
      </g>
     </g>
    </g>
    <g id="ytick_8">
     <g id="line2d_13">
      <g>
       <use style="stroke:#000000;stroke-width:0.8;" x="90" xlink:href="#m96da68f043" y="94.979051"/>
      </g>
     </g>
     <g id="text_14">
      <!-- 3 -->
      <g transform="translate(76.6375 98.778269)scale(0.1 -0.1)">
       <use xlink:href="#DejaVuSans-51"/>
      </g>
     </g>
    </g>
    <g id="ytick_9">
     <g id="line2d_14">
      <g>
       <use style="stroke:#000000;stroke-width:0.8;" x="90" xlink:href="#m96da68f043" y="54.998734"/>
      </g>
     </g>
     <g id="text_15">
      <!-- 4 -->
      <g transform="translate(76.6375 58.797953)scale(0.1 -0.1)">
       <use xlink:href="#DejaVuSans-52"/>
      </g>
     </g>
    </g>
    <g id="text_16">
     <!-- $f(x)$ -->
     <defs>
      <path d="M 47.796875 75.984375 
L 46.390625 68.5 
L 37.796875 68.5 
Q 32.90625 68.5 30.6875 66.578125 
Q 28.46875 64.65625 27.390625 59.515625 
L 26.421875 54.6875 
L 41.21875 54.6875 
L 39.890625 47.703125 
L 25.09375 47.703125 
L 15.828125 0 
L 6.78125 0 
L 16.109375 47.703125 
L 7.515625 47.703125 
L 8.796875 54.6875 
L 17.390625 54.6875 
L 18.109375 58.5 
Q 19.96875 68.171875 24.625 72.078125 
Q 29.296875 75.984375 39.3125 75.984375 
z
" id="DejaVuSans-Oblique-102"/>
      <path d="M 31 75.875 
Q 24.46875 64.65625 21.28125 53.65625 
Q 18.109375 42.671875 18.109375 31.390625 
Q 18.109375 20.125 21.3125 9.0625 
Q 24.515625 -2 31 -13.1875 
L 23.1875 -13.1875 
Q 15.875 -1.703125 12.234375 9.375 
Q 8.59375 20.453125 8.59375 31.390625 
Q 8.59375 42.28125 12.203125 53.3125 
Q 15.828125 64.359375 23.1875 75.875 
z
" id="DejaVuSans-40"/>
      <path d="M 8.015625 75.875 
L 15.828125 75.875 
Q 23.140625 64.359375 26.78125 53.3125 
Q 30.421875 42.28125 30.421875 31.390625 
Q 30.421875 20.453125 26.78125 9.375 
Q 23.140625 -1.703125 15.828125 -13.1875 
L 8.015625 -13.1875 
Q 14.5 -2 17.703125 9.0625 
Q 20.90625 20.125 20.90625 31.390625 
Q 20.90625 42.671875 17.703125 53.65625 
Q 14.5 64.65625 8.015625 75.875 
z
" id="DejaVuSans-41"/>
     </defs>
     <g transform="translate(60.098438 232.22)rotate(-90)scale(0.2 -0.2)">
      <use transform="translate(0 0.015625)" xlink:href="#DejaVuSans-Oblique-102"/>
      <use transform="translate(35.205078 0.015625)" xlink:href="#DejaVuSans-40"/>
      <use transform="translate(74.21875 0.015625)" xlink:href="#DejaVuSans-Oblique-120"/>
      <use transform="translate(133.398438 0.015625)" xlink:href="#DejaVuSans-41"/>
     </g>
    </g>
   </g>
   <g id="line2d_15">
    <path clip-path="url(#p94bd44a59f)" d="M 90 196.808753 
L 95.636364 197.35154 
L 101.272727 197.877688 
L 106.909091 198.387197 
L 112.545455 198.880067 
L 118.181818 199.356298 
L 123.818182 199.81589 
L 129.454545 200.258843 
L 135.090909 200.685158 
L 140.727273 201.094833 
L 146.363636 201.487869 
L 152 201.864267 
L 157.636364 202.224025 
L 163.272727 202.567145 
L 168.909091 202.893625 
L 174.545455 203.203467 
L 180.181818 203.49667 
L 185.818182 203.773234 
L 191.454545 204.033159 
L 197.090909 204.276445 
L 202.727273 204.503092 
L 208.363636 204.7131 
L 214 204.906469 
L 219.636364 205.083199 
L 225.272727 205.24329 
L 230.909091 205.386742 
L 236.545455 205.513556 
L 242.181818 205.62373 
L 247.818182 205.717266 
L 253.454545 205.794162 
L 259.090909 205.85442 
L 264.727273 205.898039 
L 270.363636 205.925018 
L 276 205.935359 
L 281.636364 205.929061 
L 287.272727 205.906124 
L 292.909091 205.866548 
L 298.545455 205.810333 
L 304.181818 205.737479 
L 309.818182 205.647986 
L 315.454545 205.541854 
L 321.090909 205.419084 
L 326.727273 205.279674 
L 332.363636 205.123626 
L 338 204.950938 
L 343.636364 204.761612 
L 349.272727 204.555646 
L 354.909091 204.333042 
L 360.545455 204.093799 
L 366.181818 203.837916 
L 371.818182 203.565395 
L 377.454545 203.276235 
L 383.090909 202.970436 
L 388.727273 202.647998 
L 394.363636 202.308921 
L 400 201.953205 
L 405.636364 201.580851 
L 411.272727 201.191857 
L 416.909091 200.786224 
L 422.545455 200.363953 
L 428.181818 199.925042 
L 433.818182 199.469493 
L 439.454545 198.997304 
L 445.090909 198.508477 
L 450.727273 198.003011 
L 456.363636 197.480906 
L 462 196.942161 
L 467.636364 196.386778 
L 473.272727 195.814756 
L 478.909091 195.226095 
L 484.545455 194.620796 
L 490.181818 193.998857 
L 495.818182 193.360279 
L 501.454545 192.705062 
L 507.090909 192.033207 
L 512.727273 191.344712 
L 518.363636 190.639578 
L 524 189.917806 
L 529.636364 189.179395 
L 535.272727 188.424344 
L 540.909091 187.652655 
L 546.545455 186.864327 
L 552.181818 186.05936 
L 557.818182 185.237754 
L 563.454545 184.399508 
L 569.090909 183.544625 
L 574.727273 182.673102 
L 580.363636 181.78494 
L 586 180.880139 
L 591.636364 179.958699 
L 597.272727 179.020621 
L 602.909091 178.065903 
L 608.545455 177.094547 
L 614.181818 176.106551 
L 619.818182 175.101917 
L 625.454545 174.080643 
L 631.090909 173.042731 
L 636.727273 171.98818 
L 642.363636 170.91699 
L 648 169.829161 
" style="fill:none;stroke:#000000;stroke-linecap:square;stroke-width:3;"/>
   </g>
   <g id="line2d_16">
    <path clip-path="url(#p94bd44a59f)" d="M 90 174.939684 
L 95.636364 174.939684 
L 101.272727 174.939684 
L 106.909091 174.939684 
L 112.545455 174.939684 
L 118.181818 174.939684 
L 123.818182 174.939684 
L 129.454545 174.939684 
L 135.090909 174.939684 
L 140.727273 174.939684 
L 146.363636 174.939684 
L 152 174.939684 
L 157.636364 174.939684 
L 163.272727 174.939684 
L 168.909091 174.939684 
L 174.545455 174.939684 
L 180.181818 174.939684 
L 185.818182 174.939684 
L 191.454545 174.939684 
L 197.090909 174.939684 
L 202.727273 174.939684 
L 208.363636 174.939684 
L 214 174.939684 
L 219.636364 174.939684 
L 225.272727 174.939684 
L 230.909091 174.939684 
L 236.545455 174.939684 
L 242.181818 174.939684 
L 247.818182 174.939684 
L 253.454545 174.939684 
L 259.090909 174.939684 
L 264.727273 174.939684 
L 270.363636 174.939684 
L 276 174.939684 
L 281.636364 174.939684 
L 287.272727 174.939684 
L 292.909091 174.939684 
L 298.545455 174.939684 
L 304.181818 174.939684 
L 309.818182 174.939684 
L 315.454545 174.939684 
L 321.090909 174.939684 
L 326.727273 174.939684 
L 332.363636 174.939684 
L 338 174.939684 
L 343.636364 174.939684 
L 349.272727 174.939684 
L 354.909091 174.939684 
L 360.545455 174.939684 
L 366.181818 174.939684 
L 371.818182 174.939684 
L 377.454545 174.939684 
L 383.090909 174.939684 
L 388.727273 174.939684 
L 394.363636 174.939684 
L 400 174.939684 
L 405.636364 174.939684 
L 411.272727 174.939684 
L 416.909091 174.939684 
L 422.545455 174.939684 
L 428.181818 174.939684 
L 433.818182 174.939684 
L 439.454545 174.939684 
L 445.090909 174.939684 
L 450.727273 174.939684 
L 456.363636 174.939684 
L 462 174.939684 
L 467.636364 174.939684 
L 473.272727 174.939684 
L 478.909091 174.939684 
L 484.545455 174.939684 
L 490.181818 174.939684 
L 495.818182 174.939684 
L 501.454545 174.939684 
L 507.090909 174.939684 
L 512.727273 174.939684 
L 518.363636 174.939684 
L 524 174.939684 
L 529.636364 174.939684 
L 535.272727 174.939684 
L 540.909091 174.939684 
L 546.545455 174.939684 
L 552.181818 174.939684 
L 557.818182 174.939684 
L 563.454545 174.939684 
L 569.090909 174.939684 
L 574.727273 174.939684 
L 580.363636 174.939684 
L 586 174.939684 
L 591.636364 174.939684 
L 597.272727 174.939684 
L 602.909091 174.939684 
L 608.545455 174.939684 
L 614.181818 174.939684 
L 619.818182 174.939684 
L 625.454545 174.939684 
L 631.090909 174.939684 
L 636.727273 174.939684 
L 642.363636 174.939684 
L 648 174.939684 
" style="fill:none;stroke:#ff0000;stroke-linecap:square;"/>
   </g>
   <g id="line2d_17">
    <path clip-path="url(#p94bd44a59f)" d="M 90 266.894411 
L 95.636364 265.844423 
L 101.272727 264.794435 
L 106.909091 263.744447 
L 112.545455 262.694459 
L 118.181818 261.644471 
L 123.818182 260.594483 
L 129.454545 259.544495 
L 135.090909 258.494507 
L 140.727273 257.444518 
L 146.363636 256.39453 
L 152 255.344542 
L 157.636364 254.294554 
L 163.272727 253.244566 
L 168.909091 252.194578 
L 174.545455 251.14459 
L 180.181818 250.094602 
L 185.818182 249.044614 
L 191.454545 247.994625 
L 197.090909 246.944637 
L 202.727273 245.894649 
L 208.363636 244.844661 
L 214 243.794673 
L 219.636364 242.744685 
L 225.272727 241.694697 
L 230.909091 240.644709 
L 236.545455 239.594721 
L 242.181818 238.544732 
L 247.818182 237.494744 
L 253.454545 236.444756 
L 259.090909 235.394768 
L 264.727273 234.34478 
L 270.363636 233.294792 
L 276 232.244804 
L 281.636364 231.194816 
L 287.272727 230.144828 
L 292.909091 229.094839 
L 298.545455 228.044851 
L 304.181818 226.994863 
L 309.818182 225.944875 
L 315.454545 224.894887 
L 321.090909 223.844899 
L 326.727273 222.794911 
L 332.363636 221.744923 
L 338 220.694935 
L 343.636364 219.644946 
L 349.272727 218.594958 
L 354.909091 217.54497 
L 360.545455 216.494982 
L 366.181818 215.444994 
L 371.818182 214.395006 
L 377.454545 213.345018 
L 383.090909 212.29503 
L 388.727273 211.245042 
L 394.363636 210.195054 
L 400 209.145065 
L 405.636364 208.095077 
L 411.272727 207.045089 
L 416.909091 205.995101 
L 422.545455 204.945113 
L 428.181818 203.895125 
L 433.818182 202.845137 
L 439.454545 201.795149 
L 445.090909 200.745161 
L 450.727273 199.695172 
L 456.363636 198.645184 
L 462 197.595196 
L 467.636364 196.545208 
L 473.272727 195.49522 
L 478.909091 194.445232 
L 484.545455 193.395244 
L 490.181818 192.345256 
L 495.818182 191.295268 
L 501.454545 190.245279 
L 507.090909 189.195291 
L 512.727273 188.145303 
L 518.363636 187.095315 
L 524 186.045327 
L 529.636364 184.995339 
L 535.272727 183.945351 
L 540.909091 182.895363 
L 546.545455 181.845375 
L 552.181818 180.795386 
L 557.818182 179.745398 
L 563.454545 178.69541 
L 569.090909 177.645422 
L 574.727273 176.595434 
L 580.363636 175.545446 
L 586 174.495458 
L 591.636364 173.44547 
L 597.272727 172.395482 
L 602.909091 171.345493 
L 608.545455 170.295505 
L 614.181818 169.245517 
L 619.818182 168.195529 
L 625.454545 167.145541 
L 631.090909 166.095553 
L 636.727273 165.045565 
L 642.363636 163.995577 
L 648 162.945589 
" style="fill:none;stroke:#ff00ff;stroke-linecap:square;"/>
   </g>
   <g id="line2d_18">
    <path clip-path="url(#p94bd44a59f)" d="M 90 147.353265 
L 95.636364 150.055659 
L 101.272727 152.702902 
L 106.909091 155.294993 
L 112.545455 157.831934 
L 118.181818 160.313724 
L 123.818182 162.740364 
L 129.454545 165.111852 
L 135.090909 167.428189 
L 140.727273 169.689376 
L 146.363636 171.895411 
L 152 174.046296 
L 157.636364 176.14203 
L 163.272727 178.182613 
L 168.909091 180.168045 
L 174.545455 182.098326 
L 180.181818 183.973457 
L 185.818182 185.793436 
L 191.454545 187.558264 
L 197.090909 189.267942 
L 202.727273 190.922469 
L 208.363636 192.521845 
L 214 194.066069 
L 219.636364 195.555144 
L 225.272727 196.989067 
L 230.909091 198.367839 
L 236.545455 199.69146 
L 242.181818 200.959931 
L 247.818182 202.17325 
L 253.454545 203.331419 
L 259.090909 204.434437 
L 264.727273 205.482304 
L 270.363636 206.47502 
L 276 207.412585 
L 281.636364 208.294999 
L 287.272727 209.122263 
L 292.909091 209.894375 
L 298.545455 210.611337 
L 304.181818 211.273147 
L 309.818182 211.879807 
L 315.454545 212.431316 
L 321.090909 212.927674 
L 326.727273 213.368881 
L 332.363636 213.754937 
L 338 214.085843 
L 343.636364 214.361597 
L 349.272727 214.582201 
L 354.909091 214.747653 
L 360.545455 214.857955 
L 366.181818 214.913106 
L 371.818182 214.913106 
L 377.454545 214.857955 
L 383.090909 214.747653 
L 388.727273 214.582201 
L 394.363636 214.361597 
L 400 214.085843 
L 405.636364 213.754937 
L 411.272727 213.368881 
L 416.909091 212.927674 
L 422.545455 212.431316 
L 428.181818 211.879807 
L 433.818182 211.273147 
L 439.454545 210.611337 
L 445.090909 209.894375 
L 450.727273 209.122263 
L 456.363636 208.294999 
L 462 207.412585 
L 467.636364 206.47502 
L 473.272727 205.482304 
L 478.909091 204.434437 
L 484.545455 203.331419 
L 490.181818 202.17325 
L 495.818182 200.959931 
L 501.454545 199.69146 
L 507.090909 198.367839 
L 512.727273 196.989067 
L 518.363636 195.555144 
L 524 194.066069 
L 529.636364 192.521845 
L 535.272727 190.922469 
L 540.909091 189.267942 
L 546.545455 187.558264 
L 552.181818 185.793436 
L 557.818182 183.973457 
L 563.454545 182.098326 
L 569.090909 180.168045 
L 574.727273 178.182613 
L 580.363636 176.14203 
L 586 174.046296 
L 591.636364 171.895411 
L 597.272727 169.689376 
L 602.909091 167.428189 
L 608.545455 165.111852 
L 614.181818 162.740364 
L 619.818182 160.313724 
L 625.454545 157.831934 
L 631.090909 155.294993 
L 636.727273 152.702902 
L 642.363636 150.055659 
L 648 147.353265 
" style="fill:none;stroke:#0000ff;stroke-linecap:square;"/>
   </g>
   <g id="patch_3">
    <path d="M 90 378 
L 90 51.84 
" style="fill:none;stroke:#000000;stroke-linecap:square;stroke-linejoin:miter;stroke-width:0.8;"/>
   </g>
   <g id="patch_4">
    <path d="M 648 378 
L 648 51.84 
" style="fill:none;stroke:#000000;stroke-linecap:square;stroke-linejoin:miter;stroke-width:0.8;"/>
   </g>
   <g id="patch_5">
    <path d="M 90 378 
L 648 378 
" style="fill:none;stroke:#000000;stroke-linecap:square;stroke-linejoin:miter;stroke-width:0.8;"/>
   </g>
   <g id="patch_6">
    <path d="M 90 51.84 
L 648 51.84 
" style="fill:none;stroke:#000000;stroke-linecap:square;stroke-linejoin:miter;stroke-width:0.8;"/>
   </g>
   <g id="text_17">
    <!-- $w_0 = 0.281$ -->
    <defs>
     <path d="M 8.5 54.6875 
L 17.390625 54.6875 
L 19.671875 10.6875 
L 40.09375 54.6875 
L 50.484375 54.6875 
L 53.515625 10.6875 
L 72.90625 54.6875 
L 81.890625 54.6875 
L 56.890625 0 
L 46.390625 0 
L 43.703125 45.3125 
L 22.796875 0 
L 12.203125 0 
z
" id="DejaVuSans-Oblique-119"/>
     <path d="M 10.59375 45.40625 
L 73.1875 45.40625 
L 73.1875 37.203125 
L 10.59375 37.203125 
z
M 10.59375 25.484375 
L 73.1875 25.484375 
L 73.1875 17.1875 
L 10.59375 17.1875 
z
" id="DejaVuSans-61"/>
     <path d="M 31.78125 34.625 
Q 24.75 34.625 20.71875 30.859375 
Q 16.703125 27.09375 16.703125 20.515625 
Q 16.703125 13.921875 20.71875 10.15625 
Q 24.75 6.390625 31.78125 6.390625 
Q 38.8125 6.390625 42.859375 10.171875 
Q 46.921875 13.96875 46.921875 20.515625 
Q 46.921875 27.09375 42.890625 30.859375 
Q 38.875 34.625 31.78125 34.625 
z
M 21.921875 38.8125 
Q 15.578125 40.375 12.03125 44.71875 
Q 8.5 49.078125 8.5 55.328125 
Q 8.5 64.0625 14.71875 69.140625 
Q 20.953125 74.21875 31.78125 74.21875 
Q 42.671875 74.21875 48.875 69.140625 
Q 55.078125 64.0625 55.078125 55.328125 
Q 55.078125 49.078125 51.53125 44.71875 
Q 48 40.375 41.703125 38.8125 
Q 48.828125 37.15625 52.796875 32.3125 
Q 56.78125 27.484375 56.78125 20.515625 
Q 56.78125 9.90625 50.3125 4.234375 
Q 43.84375 -1.421875 31.78125 -1.421875 
Q 19.734375 -1.421875 13.25 4.234375 
Q 6.78125 9.90625 6.78125 20.515625 
Q 6.78125 27.484375 10.78125 32.3125 
Q 14.796875 37.15625 21.921875 38.8125 
z
M 18.3125 54.390625 
Q 18.3125 48.734375 21.84375 45.5625 
Q 25.390625 42.390625 31.78125 42.390625 
Q 38.140625 42.390625 41.71875 45.5625 
Q 45.3125 48.734375 45.3125 54.390625 
Q 45.3125 60.0625 41.71875 63.234375 
Q 38.140625 66.40625 31.78125 66.40625 
Q 25.390625 66.40625 21.84375 63.234375 
Q 18.3125 60.0625 18.3125 54.390625 
z
" id="DejaVuSans-56"/>
    </defs>
    <g style="fill:#ff0000;" transform="translate(315.1 164.466307)scale(0.2 -0.2)">
     <use transform="translate(0 0.78125)" xlink:href="#DejaVuSans-Oblique-119"/>
     <use transform="translate(81.787109 -15.625)scale(0.7)" xlink:href="#DejaVuSans-48"/>
     <use transform="translate(148.540039 0.78125)" xlink:href="#DejaVuSans-61"/>
     <use transform="translate(251.811523 0.78125)" xlink:href="#DejaVuSans-48"/>
     <use transform="translate(315.43457 0.78125)" xlink:href="#DejaVuSans-46"/>
     <use transform="translate(347.143555 0.78125)" xlink:href="#DejaVuSans-50"/>
     <use transform="translate(410.766602 0.78125)" xlink:href="#DejaVuSans-56"/>
     <use transform="translate(474.389648 0.78125)" xlink:href="#DejaVuSans-49"/>
    </g>
   </g>
   <g id="text_18">
    <!-- $w_1 = 0.26$ -->
    <defs>
     <path d="M 33.015625 40.375 
Q 26.375 40.375 22.484375 35.828125 
Q 18.609375 31.296875 18.609375 23.390625 
Q 18.609375 15.53125 22.484375 10.953125 
Q 26.375 6.390625 33.015625 6.390625 
Q 39.65625 6.390625 43.53125 10.953125 
Q 47.40625 15.53125 47.40625 23.390625 
Q 47.40625 31.296875 43.53125 35.828125 
Q 39.65625 40.375 33.015625 40.375 
z
M 52.59375 71.296875 
L 52.59375 62.3125 
Q 48.875 64.0625 45.09375 64.984375 
Q 41.3125 65.921875 37.59375 65.921875 
Q 27.828125 65.921875 22.671875 59.328125 
Q 17.53125 52.734375 16.796875 39.40625 
Q 19.671875 43.65625 24.015625 45.921875 
Q 28.375 48.1875 33.59375 48.1875 
Q 44.578125 48.1875 50.953125 41.515625 
Q 57.328125 34.859375 57.328125 23.390625 
Q 57.328125 12.15625 50.6875 5.359375 
Q 44.046875 -1.421875 33.015625 -1.421875 
Q 20.359375 -1.421875 13.671875 8.265625 
Q 6.984375 17.96875 6.984375 36.375 
Q 6.984375 53.65625 15.1875 63.9375 
Q 23.390625 74.21875 37.203125 74.21875 
Q 40.921875 74.21875 44.703125 73.484375 
Q 48.484375 72.75 52.59375 71.296875 
z
" id="DejaVuSans-54"/>
    </defs>
    <g style="fill:#ff00ff;" transform="translate(321.5 248.424972)scale(0.2 -0.2)">
     <use transform="translate(0 0.78125)" xlink:href="#DejaVuSans-Oblique-119"/>
     <use transform="translate(81.787109 -15.625)scale(0.7)" xlink:href="#DejaVuSans-49"/>
     <use transform="translate(148.540039 0.78125)" xlink:href="#DejaVuSans-61"/>
     <use transform="translate(251.811523 0.78125)" xlink:href="#DejaVuSans-48"/>
     <use transform="translate(315.43457 0.78125)" xlink:href="#DejaVuSans-46"/>
     <use transform="translate(347.143555 0.78125)" xlink:href="#DejaVuSans-50"/>
     <use transform="translate(410.766602 0.78125)" xlink:href="#DejaVuSans-54"/>
    </g>
   </g>
   <g id="text_19">
    <!-- $w_2 = 0.302$ -->
    <g style="fill:#0000ff;" transform="translate(476.061538 228.434813)scale(0.2 -0.2)">
     <use transform="translate(0 0.78125)" xlink:href="#DejaVuSans-Oblique-119"/>
     <use transform="translate(81.787109 -15.625)scale(0.7)" xlink:href="#DejaVuSans-50"/>
     <use transform="translate(148.540039 0.78125)" xlink:href="#DejaVuSans-61"/>
     <use transform="translate(251.811523 0.78125)" xlink:href="#DejaVuSans-48"/>
     <use transform="translate(315.43457 0.78125)" xlink:href="#DejaVuSans-46"/>
     <use transform="translate(347.22168 0.78125)" xlink:href="#DejaVuSans-51"/>
     <use transform="translate(410.844727 0.78125)" xlink:href="#DejaVuSans-48"/>
     <use transform="translate(474.467773 0.78125)" xlink:href="#DejaVuSans-50"/>
    </g>
   </g>
  </g>
 </g>
 <defs>
  <clipPath id="p94bd44a59f">
   <rect height="326.16" width="558" x="90" y="51.84"/>
  </clipPath>
 </defs>
</svg>
