<?xml version="1.0" encoding="utf-8" standalone="no"?>
<!DOCTYPE svg PUBLIC "-//W3C//DTD SVG 1.1//EN"
  "http://www.w3.org/Graphics/SVG/1.1/DTD/svg11.dtd">
<!-- Created with matplotlib (http://matplotlib.org/) -->
<svg height="432pt" version="1.1" viewBox="0 0 864 432" width="864pt" xmlns="http://www.w3.org/2000/svg" xmlns:xlink="http://www.w3.org/1999/xlink">
 <defs>
  <style type="text/css">
*{stroke-linecap:butt;stroke-linejoin:round;}
  </style>
 </defs>
 <g id="figure_1">
  <g id="patch_1">
   <path d="M 0 432 
L 864 432 
L 864 0 
L 0 0 
z
" style="fill:none;"/>
  </g>
  <g id="axes_1">
   <g id="patch_2">
    <path d="M 108 378 
L 777.6 378 
L 777.6 51.84 
L 108 51.84 
z
" style="fill:none;"/>
   </g>
   <g id="matplotlib.axis_1">
    <g id="xtick_1">
     <g id="line2d_1">
      <defs>
       <path d="M 0 0 
L 0 3.5 
" id="m5fcb1baec5" style="stroke:#000000;stroke-width:0.8;"/>
      </defs>
      <g>
       <use style="stroke:#000000;stroke-width:0.8;" x="108" xlink:href="#m5fcb1baec5" y="378"/>
      </g>
     </g>
     <g id="text_1">
      <!-- −2.0 -->
      <defs>
       <path d="M 10.59375 35.5 
L 73.1875 35.5 
L 73.1875 27.203125 
L 10.59375 27.203125 
z
" id="DejaVuSans-2212"/>
       <path d="M 19.1875 8.296875 
L 53.609375 8.296875 
L 53.609375 0 
L 7.328125 0 
L 7.328125 8.296875 
Q 12.9375 14.109375 22.625 23.890625 
Q 32.328125 33.6875 34.8125 36.53125 
Q 39.546875 41.84375 41.421875 45.53125 
Q 43.3125 49.21875 43.3125 52.78125 
Q 43.3125 58.59375 39.234375 62.25 
Q 35.15625 65.921875 28.609375 65.921875 
Q 23.96875 65.921875 18.8125 64.3125 
Q 13.671875 62.703125 7.8125 59.421875 
L 7.8125 69.390625 
Q 13.765625 71.78125 18.9375 73 
Q 24.125 74.21875 28.421875 74.21875 
Q 39.75 74.21875 46.484375 68.546875 
Q 53.21875 62.890625 53.21875 53.421875 
Q 53.21875 48.921875 51.53125 44.890625 
Q 49.859375 40.875 45.40625 35.40625 
Q 44.1875 33.984375 37.640625 27.21875 
Q 31.109375 20.453125 19.1875 8.296875 
z
" id="DejaVuSans-32"/>
       <path d="M 10.6875 12.40625 
L 21 12.40625 
L 21 0 
L 10.6875 0 
z
" id="DejaVuSans-2e"/>
       <path d="M 31.78125 66.40625 
Q 24.171875 66.40625 20.328125 58.90625 
Q 16.5 51.421875 16.5 36.375 
Q 16.5 21.390625 20.328125 13.890625 
Q 24.171875 6.390625 31.78125 6.390625 
Q 39.453125 6.390625 43.28125 13.890625 
Q 47.125 21.390625 47.125 36.375 
Q 47.125 51.421875 43.28125 58.90625 
Q 39.453125 66.40625 31.78125 66.40625 
z
M 31.78125 74.21875 
Q 44.046875 74.21875 50.515625 64.515625 
Q 56.984375 54.828125 56.984375 36.375 
Q 56.984375 17.96875 50.515625 8.265625 
Q 44.046875 -1.421875 31.78125 -1.421875 
Q 19.53125 -1.421875 13.0625 8.265625 
Q 6.59375 17.96875 6.59375 36.375 
Q 6.59375 54.828125 13.0625 64.515625 
Q 19.53125 74.21875 31.78125 74.21875 
z
" id="DejaVuSans-30"/>
      </defs>
      <g transform="translate(95.858594 392.598437)scale(0.1 -0.1)">
       <use xlink:href="#DejaVuSans-2212"/>
       <use x="83.789062" xlink:href="#DejaVuSans-32"/>
       <use x="147.412109" xlink:href="#DejaVuSans-2e"/>
       <use x="179.199219" xlink:href="#DejaVuSans-30"/>
      </g>
     </g>
    </g>
    <g id="xtick_2">
     <g id="line2d_2">
      <g>
       <use style="stroke:#000000;stroke-width:0.8;" x="191.7" xlink:href="#m5fcb1baec5" y="378"/>
      </g>
     </g>
     <g id="text_2">
      <!-- −1.5 -->
      <defs>
       <path d="M 12.40625 8.296875 
L 28.515625 8.296875 
L 28.515625 63.921875 
L 10.984375 60.40625 
L 10.984375 69.390625 
L 28.421875 72.90625 
L 38.28125 72.90625 
L 38.28125 8.296875 
L 54.390625 8.296875 
L 54.390625 0 
L 12.40625 0 
z
" id="DejaVuSans-31"/>
       <path d="M 10.796875 72.90625 
L 49.515625 72.90625 
L 49.515625 64.59375 
L 19.828125 64.59375 
L 19.828125 46.734375 
Q 21.96875 47.46875 24.109375 47.828125 
Q 26.265625 48.1875 28.421875 48.1875 
Q 40.625 48.1875 47.75 41.5 
Q 54.890625 34.8125 54.890625 23.390625 
Q 54.890625 11.625 47.5625 5.09375 
Q 40.234375 -1.421875 26.90625 -1.421875 
Q 22.3125 -1.421875 17.546875 -0.640625 
Q 12.796875 0.140625 7.71875 1.703125 
L 7.71875 11.625 
Q 12.109375 9.234375 16.796875 8.0625 
Q 21.484375 6.890625 26.703125 6.890625 
Q 35.15625 6.890625 40.078125 11.328125 
Q 45.015625 15.765625 45.015625 23.390625 
Q 45.015625 31 40.078125 35.4375 
Q 35.15625 39.890625 26.703125 39.890625 
Q 22.75 39.890625 18.8125 39.015625 
Q 14.890625 38.140625 10.796875 36.28125 
z
" id="DejaVuSans-35"/>
      </defs>
      <g transform="translate(179.558594 392.598437)scale(0.1 -0.1)">
       <use xlink:href="#DejaVuSans-2212"/>
       <use x="83.789062" xlink:href="#DejaVuSans-31"/>
       <use x="147.412109" xlink:href="#DejaVuSans-2e"/>
       <use x="179.199219" xlink:href="#DejaVuSans-35"/>
      </g>
     </g>
    </g>
    <g id="xtick_3">
     <g id="line2d_3">
      <g>
       <use style="stroke:#000000;stroke-width:0.8;" x="275.4" xlink:href="#m5fcb1baec5" y="378"/>
      </g>
     </g>
     <g id="text_3">
      <!-- −1.0 -->
      <g transform="translate(263.258594 392.598437)scale(0.1 -0.1)">
       <use xlink:href="#DejaVuSans-2212"/>
       <use x="83.789062" xlink:href="#DejaVuSans-31"/>
       <use x="147.412109" xlink:href="#DejaVuSans-2e"/>
       <use x="179.199219" xlink:href="#DejaVuSans-30"/>
      </g>
     </g>
    </g>
    <g id="xtick_4">
     <g id="line2d_4">
      <g>
       <use style="stroke:#000000;stroke-width:0.8;" x="359.1" xlink:href="#m5fcb1baec5" y="378"/>
      </g>
     </g>
     <g id="text_4">
      <!-- −0.5 -->
      <g transform="translate(346.958594 392.598437)scale(0.1 -0.1)">
       <use xlink:href="#DejaVuSans-2212"/>
       <use x="83.789062" xlink:href="#DejaVuSans-30"/>
       <use x="147.412109" xlink:href="#DejaVuSans-2e"/>
       <use x="179.199219" xlink:href="#DejaVuSans-35"/>
      </g>
     </g>
    </g>
    <g id="xtick_5">
     <g id="line2d_5">
      <g>
       <use style="stroke:#000000;stroke-width:0.8;" x="442.8" xlink:href="#m5fcb1baec5" y="378"/>
      </g>
     </g>
     <g id="text_5">
      <!-- 0.0 -->
      <g transform="translate(434.848437 392.598437)scale(0.1 -0.1)">
       <use xlink:href="#DejaVuSans-30"/>
       <use x="63.623047" xlink:href="#DejaVuSans-2e"/>
       <use x="95.410156" xlink:href="#DejaVuSans-30"/>
      </g>
     </g>
    </g>
    <g id="xtick_6">
     <g id="line2d_6">
      <g>
       <use style="stroke:#000000;stroke-width:0.8;" x="526.5" xlink:href="#m5fcb1baec5" y="378"/>
      </g>
     </g>
     <g id="text_6">
      <!-- 0.5 -->
      <g transform="translate(518.548437 392.598437)scale(0.1 -0.1)">
       <use xlink:href="#DejaVuSans-30"/>
       <use x="63.623047" xlink:href="#DejaVuSans-2e"/>
       <use x="95.410156" xlink:href="#DejaVuSans-35"/>
      </g>
     </g>
    </g>
    <g id="xtick_7">
     <g id="line2d_7">
      <g>
       <use style="stroke:#000000;stroke-width:0.8;" x="610.2" xlink:href="#m5fcb1baec5" y="378"/>
      </g>
     </g>
     <g id="text_7">
      <!-- 1.0 -->
      <g transform="translate(602.248438 392.598437)scale(0.1 -0.1)">
       <use xlink:href="#DejaVuSans-31"/>
       <use x="63.623047" xlink:href="#DejaVuSans-2e"/>
       <use x="95.410156" xlink:href="#DejaVuSans-30"/>
      </g>
     </g>
    </g>
    <g id="xtick_8">
     <g id="line2d_8">
      <g>
       <use style="stroke:#000000;stroke-width:0.8;" x="693.9" xlink:href="#m5fcb1baec5" y="378"/>
      </g>
     </g>
     <g id="text_8">
      <!-- 1.5 -->
      <g transform="translate(685.948438 392.598437)scale(0.1 -0.1)">
       <use xlink:href="#DejaVuSans-31"/>
       <use x="63.623047" xlink:href="#DejaVuSans-2e"/>
       <use x="95.410156" xlink:href="#DejaVuSans-35"/>
      </g>
     </g>
    </g>
    <g id="xtick_9">
     <g id="line2d_9">
      <g>
       <use style="stroke:#000000;stroke-width:0.8;" x="777.6" xlink:href="#m5fcb1baec5" y="378"/>
      </g>
     </g>
     <g id="text_9">
      <!-- 2.0 -->
      <g transform="translate(769.648438 392.598437)scale(0.1 -0.1)">
       <use xlink:href="#DejaVuSans-32"/>
       <use x="63.623047" xlink:href="#DejaVuSans-2e"/>
       <use x="95.410156" xlink:href="#DejaVuSans-30"/>
      </g>
     </g>
    </g>
    <g id="text_10">
     <!-- $x$ -->
     <defs>
      <path d="M 60.015625 54.6875 
L 34.90625 27.875 
L 50.296875 0 
L 39.984375 0 
L 28.421875 21.6875 
L 8.296875 0 
L -2.59375 0 
L 24.3125 28.8125 
L 10.015625 54.6875 
L 20.3125 54.6875 
L 30.8125 34.90625 
L 49.125 54.6875 
z
" id="DejaVuSans-Oblique-78"/>
     </defs>
     <g transform="translate(436.8 413.875)scale(0.2 -0.2)">
      <use transform="translate(0 0.3125)" xlink:href="#DejaVuSans-Oblique-78"/>
     </g>
    </g>
   </g>
   <g id="matplotlib.axis_2">
    <g id="ytick_1">
     <g id="line2d_10">
      <defs>
       <path d="M 0 0 
L -3.5 0 
" id="m8b8aa443b3" style="stroke:#000000;stroke-width:0.8;"/>
      </defs>
      <g>
       <use style="stroke:#000000;stroke-width:0.8;" x="108" xlink:href="#m8b8aa443b3" y="375.186455"/>
      </g>
     </g>
     <g id="text_11">
      <!-- −3 -->
      <defs>
       <path d="M 40.578125 39.3125 
Q 47.65625 37.796875 51.625 33 
Q 55.609375 28.21875 55.609375 21.1875 
Q 55.609375 10.40625 48.1875 4.484375 
Q 40.765625 -1.421875 27.09375 -1.421875 
Q 22.515625 -1.421875 17.65625 -0.515625 
Q 12.796875 0.390625 7.625 2.203125 
L 7.625 11.71875 
Q 11.71875 9.328125 16.59375 8.109375 
Q 21.484375 6.890625 26.8125 6.890625 
Q 36.078125 6.890625 40.9375 10.546875 
Q 45.796875 14.203125 45.796875 21.1875 
Q 45.796875 27.640625 41.28125 31.265625 
Q 36.765625 34.90625 28.71875 34.90625 
L 20.21875 34.90625 
L 20.21875 43.015625 
L 29.109375 43.015625 
Q 36.375 43.015625 40.234375 45.921875 
Q 44.09375 48.828125 44.09375 54.296875 
Q 44.09375 59.90625 40.109375 62.90625 
Q 36.140625 65.921875 28.71875 65.921875 
Q 24.65625 65.921875 20.015625 65.03125 
Q 15.375 64.15625 9.8125 62.3125 
L 9.8125 71.09375 
Q 15.4375 72.65625 20.34375 73.4375 
Q 25.25 74.21875 29.59375 74.21875 
Q 40.828125 74.21875 47.359375 69.109375 
Q 53.90625 64.015625 53.90625 55.328125 
Q 53.90625 49.265625 50.4375 45.09375 
Q 46.96875 40.921875 40.578125 39.3125 
z
" id="DejaVuSans-33"/>
      </defs>
      <g transform="translate(86.257812 378.985674)scale(0.1 -0.1)">
       <use xlink:href="#DejaVuSans-2212"/>
       <use x="83.789062" xlink:href="#DejaVuSans-33"/>
      </g>
     </g>
    </g>
    <g id="ytick_2">
     <g id="line2d_11">
      <g>
       <use style="stroke:#000000;stroke-width:0.8;" x="108" xlink:href="#m8b8aa443b3" y="321.764303"/>
      </g>
     </g>
     <g id="text_12">
      <!-- −2 -->
      <g transform="translate(86.257812 325.563522)scale(0.1 -0.1)">
       <use xlink:href="#DejaVuSans-2212"/>
       <use x="83.789062" xlink:href="#DejaVuSans-32"/>
      </g>
     </g>
    </g>
    <g id="ytick_3">
     <g id="line2d_12">
      <g>
       <use style="stroke:#000000;stroke-width:0.8;" x="108" xlink:href="#m8b8aa443b3" y="268.342152"/>
      </g>
     </g>
     <g id="text_13">
      <!-- −1 -->
      <g transform="translate(86.257812 272.14137)scale(0.1 -0.1)">
       <use xlink:href="#DejaVuSans-2212"/>
       <use x="83.789062" xlink:href="#DejaVuSans-31"/>
      </g>
     </g>
    </g>
    <g id="ytick_4">
     <g id="line2d_13">
      <g>
       <use style="stroke:#000000;stroke-width:0.8;" x="108" xlink:href="#m8b8aa443b3" y="214.92"/>
      </g>
     </g>
     <g id="text_14">
      <!-- 0 -->
      <g transform="translate(94.6375 218.719219)scale(0.1 -0.1)">
       <use xlink:href="#DejaVuSans-30"/>
      </g>
     </g>
    </g>
    <g id="ytick_5">
     <g id="line2d_14">
      <g>
       <use style="stroke:#000000;stroke-width:0.8;" x="108" xlink:href="#m8b8aa443b3" y="161.497848"/>
      </g>
     </g>
     <g id="text_15">
      <!-- 1 -->
      <g transform="translate(94.6375 165.297067)scale(0.1 -0.1)">
       <use xlink:href="#DejaVuSans-31"/>
      </g>
     </g>
    </g>
    <g id="ytick_6">
     <g id="line2d_15">
      <g>
       <use style="stroke:#000000;stroke-width:0.8;" x="108" xlink:href="#m8b8aa443b3" y="108.075697"/>
      </g>
     </g>
     <g id="text_16">
      <!-- 2 -->
      <g transform="translate(94.6375 111.874915)scale(0.1 -0.1)">
       <use xlink:href="#DejaVuSans-32"/>
      </g>
     </g>
    </g>
    <g id="ytick_7">
     <g id="line2d_16">
      <g>
       <use style="stroke:#000000;stroke-width:0.8;" x="108" xlink:href="#m8b8aa443b3" y="54.653545"/>
      </g>
     </g>
     <g id="text_17">
      <!-- 3 -->
      <g transform="translate(94.6375 58.452764)scale(0.1 -0.1)">
       <use xlink:href="#DejaVuSans-33"/>
      </g>
     </g>
    </g>
    <g id="text_18">
     <!-- $f(x)$ -->
     <defs>
      <path d="M 47.796875 75.984375 
L 46.390625 68.5 
L 37.796875 68.5 
Q 32.90625 68.5 30.6875 66.578125 
Q 28.46875 64.65625 27.390625 59.515625 
L 26.421875 54.6875 
L 41.21875 54.6875 
L 39.890625 47.703125 
L 25.09375 47.703125 
L 15.828125 0 
L 6.78125 0 
L 16.109375 47.703125 
L 7.515625 47.703125 
L 8.796875 54.6875 
L 17.390625 54.6875 
L 18.109375 58.5 
Q 19.96875 68.171875 24.625 72.078125 
Q 29.296875 75.984375 39.3125 75.984375 
z
" id="DejaVuSans-Oblique-66"/>
      <path d="M 31 75.875 
Q 24.46875 64.65625 21.28125 53.65625 
Q 18.109375 42.671875 18.109375 31.390625 
Q 18.109375 20.125 21.3125 9.0625 
Q 24.515625 -2 31 -13.1875 
L 23.1875 -13.1875 
Q 15.875 -1.703125 12.234375 9.375 
Q 8.59375 20.453125 8.59375 31.390625 
Q 8.59375 42.28125 12.203125 53.3125 
Q 15.828125 64.359375 23.1875 75.875 
z
" id="DejaVuSans-28"/>
      <path d="M 8.015625 75.875 
L 15.828125 75.875 
Q 23.140625 64.359375 26.78125 53.3125 
Q 30.421875 42.28125 30.421875 31.390625 
Q 30.421875 20.453125 26.78125 9.375 
Q 23.140625 -1.703125 15.828125 -13.1875 
L 8.015625 -13.1875 
Q 14.5 -2 17.703125 9.0625 
Q 20.90625 20.125 20.90625 31.390625 
Q 20.90625 42.671875 17.703125 53.65625 
Q 14.5 64.65625 8.015625 75.875 
z
" id="DejaVuSans-29"/>
     </defs>
     <g transform="translate(78.098438 232.22)rotate(-90)scale(0.2 -0.2)">
      <use transform="translate(0 0.015625)" xlink:href="#DejaVuSans-Oblique-66"/>
      <use transform="translate(35.205078 0.015625)" xlink:href="#DejaVuSans-28"/>
      <use transform="translate(74.21875 0.015625)" xlink:href="#DejaVuSans-Oblique-78"/>
      <use transform="translate(133.398438 0.015625)" xlink:href="#DejaVuSans-29"/>
     </g>
    </g>
   </g>
   <g id="line2d_17">
    <path clip-path="url(#p7b0df73866)" d="M 108 222.446759 
L 114.763636 223.738683 
L 121.527273 225.185211 
L 128.290909 226.791379 
L 135.054545 228.55969 
L 141.818182 230.489654 
L 148.581818 232.577358 
L 155.345455 234.815107 
L 162.109091 237.191132 
L 168.872727 239.689415 
L 175.636364 242.289634 
L 182.4 244.967252 
L 189.163636 247.693759 
L 195.927273 250.43708 
L 202.690909 253.162139 
L 209.454545 255.831574 
L 216.218182 258.406591 
L 222.981818 260.84792 
L 229.745455 263.11686 
L 236.509091 265.17635 
L 243.272727 266.992053 
L 250.036364 268.533381 
L 256.8 269.774439 
L 263.563636 270.694834 
L 270.327273 271.280315 
L 277.090909 271.523213 
L 283.854545 271.422661 
L 290.618182 270.984583 
L 297.381818 270.221445 
L 304.145455 269.151791 
L 310.909091 267.799564 
L 317.672727 266.19326 
L 324.436364 264.364947 
L 331.2 262.349186 
L 337.963636 260.181901 
L 344.727273 257.899258 
L 351.490909 255.53658 
L 358.254545 253.12735 
L 365.018182 250.702338 
L 371.781818 248.288882 
L 378.545455 245.910333 
L 385.309091 243.58569 
L 392.072727 241.329418 
L 398.836364 239.151452 
L 405.6 237.057366 
L 412.363636 235.048694 
L 419.127273 233.123379 
L 425.890909 231.276318 
L 432.654545 229.499986 
L 439.418182 227.785097 
L 446.181818 226.121283 
L 452.945455 224.497763 
L 459.709091 222.903973 
L 466.472727 221.330154 
L 473.236364 219.767855 
L 480 218.210367 
L 486.763636 216.653059 
L 493.527273 215.093616 
L 500.290909 213.532182 
L 507.054545 211.971405 
L 513.818182 210.416378 
L 520.581818 208.874499 
L 527.345455 207.355247 
L 534.109091 205.869873 
L 540.872727 204.431048 
L 547.636364 203.052443 
L 554.4 201.748279 
L 561.163636 200.532863 
L 567.927273 199.420102 
L 574.690909 198.423044 
L 581.454545 197.553432 
L 588.218182 196.821304 
L 594.981818 196.234648 
L 601.745455 195.799122 
L 608.509091 195.517851 
L 615.272727 195.391304 
L 622.036364 195.417266 
L 628.8 195.590888 
L 635.563636 195.904822 
L 642.327273 196.349442 
L 649.090909 196.913121 
L 655.854545 197.582569 
L 662.618182 198.343212 
L 669.381818 199.179598 
L 676.145455 200.075806 
L 682.909091 201.015857 
L 689.672727 201.984099 
L 696.436364 202.965562 
L 703.2 203.946264 
L 709.963636 204.913469 
L 716.727273 205.855886 
L 723.490909 206.763801 
L 730.254545 207.629163 
L 737.018182 208.445597 
L 743.781818 209.208378 
L 750.545455 209.914348 
L 757.309091 210.561804 
L 764.072727 211.150355 
L 770.836364 211.68075 
L 777.6 212.15471 
" style="fill:none;stroke:#000000;stroke-linecap:square;stroke-width:3;"/>
   </g>
   <g id="line2d_18">
    <path clip-path="url(#p7b0df73866)" d="M 108 207.690098 
L 114.763636 206.449609 
L 121.527273 205.06087 
L 128.290909 203.519135 
L 135.054545 201.822118 
L 141.818182 199.970438 
L 148.581818 197.968041 
L 155.345455 195.822548 
L 162.109091 193.545545 
L 168.872727 191.152761 
L 175.636364 188.664124 
L 182.4 186.10369 
L 189.163636 183.499413 
L 195.927273 180.882762 
L 202.690909 178.288188 
L 209.454545 175.752435 
L 216.218182 173.313725 
L 222.981818 171.010836 
L 229.745455 168.882091 
L 236.509091 166.964317 
L 243.272727 165.291784 
L 250.036364 163.895199 
L 256.8 162.800762 
L 263.563636 162.029354 
L 270.327273 161.595871 
L 277.090909 161.508749 
L 283.854545 161.769689 
L 290.618182 162.373602 
L 297.381818 163.308774 
L 304.145455 164.557245 
L 310.909091 166.095381 
L 317.672727 167.894619 
L 324.436364 169.922346 
L 331.2 172.142885 
L 337.963636 174.518527 
L 344.727273 177.010594 
L 351.490909 179.580464 
L 358.254545 182.190544 
L 365.018182 184.805142 
L 371.781818 187.391222 
L 378.545455 189.919015 
L 385.309091 192.362478 
L 392.072727 194.699601 
L 398.836364 196.912552 
L 405.6 198.987693 
L 412.363636 200.915447 
L 419.127273 202.690071 
L 425.890909 204.309333 
L 432.654545 205.77412 
L 439.418182 207.088005 
L 446.181818 208.256791 
L 452.945455 209.288054 
L 459.709091 210.190691 
L 466.472727 210.974511 
L 473.236364 211.649846 
L 480 212.227228 
L 486.763636 212.717099 
L 493.527273 213.129581 
L 500.290909 213.4743 
L 507.054545 213.760246 
L 513.818182 213.99569 
L 520.581818 214.18813 
L 527.345455 214.344277 
L 534.109091 214.470057 
L 540.872727 214.570646 
L 547.636364 214.650513 
L 554.4 214.713474 
L 561.163636 214.762756 
L 567.927273 214.801057 
L 574.690909 214.830614 
L 581.454545 214.853264 
L 588.218182 214.870499 
L 594.981818 214.883521 
L 601.745455 214.893293 
L 608.509091 214.900575 
L 615.272727 214.905963 
L 622.036364 214.909922 
L 628.8 214.912812 
L 635.563636 214.914907 
L 642.327273 214.916414 
L 649.090909 214.917492 
L 655.854545 214.918257 
L 662.618182 214.918797 
L 669.381818 214.919175 
L 676.145455 214.919438 
L 682.909091 214.919619 
L 689.672727 214.919744 
L 696.436364 214.919829 
L 703.2 214.919886 
L 709.963636 214.919925 
L 716.727273 214.919951 
L 723.490909 214.919968 
L 730.254545 214.919979 
L 737.018182 214.919987 
L 743.781818 214.919992 
L 750.545455 214.919995 
L 757.309091 214.919997 
L 764.072727 214.919998 
L 770.836364 214.919999 
L 777.6 214.919999 
" style="fill:none;stroke:#ff0000;stroke-linecap:square;"/>
   </g>
   <g id="line2d_19">
    <path clip-path="url(#p7b0df73866)" d="M 108 214.902079 
L 114.763636 214.895321 
L 121.527273 214.886236 
L 128.290909 214.874108 
L 135.054545 214.858029 
L 141.818182 214.836861 
L 148.581818 214.809188 
L 155.345455 214.773266 
L 162.109091 214.726963 
L 168.872727 214.667703 
L 175.636364 214.592396 
L 182.4 214.49738 
L 189.163636 214.378354 
L 195.927273 214.230325 
L 202.690909 214.047556 
L 209.454545 213.823535 
L 216.218182 213.55096 
L 222.981818 213.221751 
L 229.745455 212.827089 
L 236.509091 212.357497 
L 243.272727 211.802963 
L 250.036364 211.153104 
L 256.8 210.397388 
L 263.563636 209.525401 
L 270.327273 208.527171 
L 277.090909 207.393535 
L 283.854545 206.116546 
L 290.618182 204.689915 
L 297.381818 203.109467 
L 304.145455 201.373603 
L 310.909091 199.483736 
L 317.672727 197.444699 
L 324.436364 195.265083 
L 331.2 192.957497 
L 337.963636 190.538717 
L 344.727273 188.029719 
L 351.490909 185.455558 
L 358.254545 182.845111 
L 365.018182 180.230647 
L 371.781818 177.64726 
L 378.545455 175.132147 
L 385.309091 172.723757 
L 392.072727 170.460851 
L 398.836364 168.381479 
L 405.6 166.521924 
L 412.363636 164.915661 
L 419.127273 163.592351 
L 425.890909 162.576938 
L 432.654545 161.88886 
L 439.418182 161.541436 
L 446.181818 161.541436 
L 452.945455 161.88886 
L 459.709091 162.576938 
L 466.472727 163.592351 
L 473.236364 164.915661 
L 480 166.521924 
L 486.763636 168.381479 
L 493.527273 170.460851 
L 500.290909 172.723757 
L 507.054545 175.132147 
L 513.818182 177.64726 
L 520.581818 180.230647 
L 527.345455 182.845111 
L 534.109091 185.455558 
L 540.872727 188.029719 
L 547.636364 190.538717 
L 554.4 192.957497 
L 561.163636 195.265083 
L 567.927273 197.444699 
L 574.690909 199.483736 
L 581.454545 201.373603 
L 588.218182 203.109467 
L 594.981818 204.689915 
L 601.745455 206.116546 
L 608.509091 207.393535 
L 615.272727 208.527171 
L 622.036364 209.525401 
L 628.8 210.397388 
L 635.563636 211.153104 
L 642.327273 211.802963 
L 649.090909 212.357497 
L 655.854545 212.827089 
L 662.618182 213.221751 
L 669.381818 213.55096 
L 676.145455 213.823535 
L 682.909091 214.047556 
L 689.672727 214.230325 
L 696.436364 214.378354 
L 703.2 214.49738 
L 709.963636 214.592396 
L 716.727273 214.667703 
L 723.490909 214.726963 
L 730.254545 214.773266 
L 737.018182 214.809188 
L 743.781818 214.836861 
L 750.545455 214.858029 
L 757.309091 214.874108 
L 764.072727 214.886236 
L 770.836364 214.895321 
L 777.6 214.902079 
" style="fill:none;stroke:#ff00ff;stroke-linecap:square;"/>
   </g>
   <g id="line2d_20">
    <path clip-path="url(#p7b0df73866)" d="M 108 214.919999 
L 114.763636 214.919999 
L 121.527273 214.919998 
L 128.290909 214.919997 
L 135.054545 214.919995 
L 141.818182 214.919992 
L 148.581818 214.919987 
L 155.345455 214.919979 
L 162.109091 214.919968 
L 168.872727 214.919951 
L 175.636364 214.919925 
L 182.4 214.919886 
L 189.163636 214.919829 
L 195.927273 214.919744 
L 202.690909 214.919619 
L 209.454545 214.919438 
L 216.218182 214.919175 
L 222.981818 214.918797 
L 229.745455 214.918257 
L 236.509091 214.917492 
L 243.272727 214.916414 
L 250.036364 214.914907 
L 256.8 214.912812 
L 263.563636 214.909922 
L 270.327273 214.905963 
L 277.090909 214.900575 
L 283.854545 214.893293 
L 290.618182 214.883521 
L 297.381818 214.870499 
L 304.145455 214.853264 
L 310.909091 214.830614 
L 317.672727 214.801057 
L 324.436364 214.762756 
L 331.2 214.713474 
L 337.963636 214.650513 
L 344.727273 214.570646 
L 351.490909 214.470057 
L 358.254545 214.344277 
L 365.018182 214.18813 
L 371.781818 213.99569 
L 378.545455 213.760246 
L 385.309091 213.4743 
L 392.072727 213.129581 
L 398.836364 212.717099 
L 405.6 212.227228 
L 412.363636 211.649846 
L 419.127273 210.974511 
L 425.890909 210.190691 
L 432.654545 209.288054 
L 439.418182 208.256791 
L 446.181818 207.088005 
L 452.945455 205.77412 
L 459.709091 204.309333 
L 466.472727 202.690071 
L 473.236364 200.915447 
L 480 198.987693 
L 486.763636 196.912552 
L 493.527273 194.699601 
L 500.290909 192.362478 
L 507.054545 189.919015 
L 513.818182 187.391222 
L 520.581818 184.805142 
L 527.345455 182.190544 
L 534.109091 179.580464 
L 540.872727 177.010594 
L 547.636364 174.518527 
L 554.4 172.142885 
L 561.163636 169.922346 
L 567.927273 167.894619 
L 574.690909 166.095381 
L 581.454545 164.557245 
L 588.218182 163.308774 
L 594.981818 162.373602 
L 601.745455 161.769689 
L 608.509091 161.508749 
L 615.272727 161.595871 
L 622.036364 162.029354 
L 628.8 162.800762 
L 635.563636 163.895199 
L 642.327273 165.291784 
L 649.090909 166.964317 
L 655.854545 168.882091 
L 662.618182 171.010836 
L 669.381818 173.313725 
L 676.145455 175.752435 
L 682.909091 178.288188 
L 689.672727 180.882762 
L 696.436364 183.499413 
L 703.2 186.10369 
L 709.963636 188.664124 
L 716.727273 191.152761 
L 723.490909 193.545545 
L 730.254545 195.822548 
L 737.018182 197.968041 
L 743.781818 199.970438 
L 750.545455 201.822118 
L 757.309091 203.519135 
L 764.072727 205.06087 
L 770.836364 206.449609 
L 777.6 207.690098 
" style="fill:none;stroke:#0000ff;stroke-linecap:square;"/>
   </g>
   <g id="patch_3">
    <path d="M 108 378 
L 108 51.84 
" style="fill:none;stroke:#000000;stroke-linecap:square;stroke-linejoin:miter;stroke-width:0.8;"/>
   </g>
   <g id="patch_4">
    <path d="M 777.6 378 
L 777.6 51.84 
" style="fill:none;stroke:#000000;stroke-linecap:square;stroke-linejoin:miter;stroke-width:0.8;"/>
   </g>
   <g id="patch_5">
    <path d="M 108 378 
L 777.6 378 
" style="fill:none;stroke:#000000;stroke-linecap:square;stroke-linejoin:miter;stroke-width:0.8;"/>
   </g>
   <g id="patch_6">
    <path d="M 108 51.84 
L 777.6 51.84 
" style="fill:none;stroke:#000000;stroke-linecap:square;stroke-linejoin:miter;stroke-width:0.8;"/>
   </g>
   <g id="text_19">
    <!-- $w_0 = -1.04$ -->
    <defs>
     <path d="M 8.5 54.6875 
L 17.390625 54.6875 
L 19.671875 10.6875 
L 40.09375 54.6875 
L 50.484375 54.6875 
L 53.515625 10.6875 
L 72.90625 54.6875 
L 81.890625 54.6875 
L 56.890625 0 
L 46.390625 0 
L 43.703125 45.3125 
L 22.796875 0 
L 12.203125 0 
z
" id="DejaVuSans-Oblique-77"/>
     <path d="M 10.59375 45.40625 
L 73.1875 45.40625 
L 73.1875 37.203125 
L 10.59375 37.203125 
z
M 10.59375 25.484375 
L 73.1875 25.484375 
L 73.1875 17.1875 
L 10.59375 17.1875 
z
" id="DejaVuSans-3d"/>
     <path d="M 37.796875 64.3125 
L 12.890625 25.390625 
L 37.796875 25.390625 
z
M 35.203125 72.90625 
L 47.609375 72.90625 
L 47.609375 25.390625 
L 58.015625 25.390625 
L 58.015625 17.1875 
L 47.609375 17.1875 
L 47.609375 0 
L 37.796875 0 
L 37.796875 17.1875 
L 4.890625 17.1875 
L 4.890625 26.703125 
z
" id="DejaVuSans-34"/>
    </defs>
    <g style="fill:#ff0000;" transform="translate(173.75 241.807611)scale(0.2 -0.2)">
     <use transform="translate(0 0.78125)" xlink:href="#DejaVuSans-Oblique-77"/>
     <use transform="translate(81.787109 -15.625)scale(0.7)" xlink:href="#DejaVuSans-30"/>
     <use transform="translate(148.540039 0.78125)" xlink:href="#DejaVuSans-3d"/>
     <use transform="translate(271.293945 0.78125)" xlink:href="#DejaVuSans-2212"/>
     <use transform="translate(374.56543 0.78125)" xlink:href="#DejaVuSans-31"/>
     <use transform="translate(438.188477 0.78125)" xlink:href="#DejaVuSans-2e"/>
     <use transform="translate(469.975586 0.78125)" xlink:href="#DejaVuSans-30"/>
     <use transform="translate(533.598633 0.78125)" xlink:href="#DejaVuSans-34"/>
    </g>
   </g>
   <g id="text_20">
    <!-- $w_1 = -0.136$ -->
    <defs>
     <path d="M 33.015625 40.375 
Q 26.375 40.375 22.484375 35.828125 
Q 18.609375 31.296875 18.609375 23.390625 
Q 18.609375 15.53125 22.484375 10.953125 
Q 26.375 6.390625 33.015625 6.390625 
Q 39.65625 6.390625 43.53125 10.953125 
Q 47.40625 15.53125 47.40625 23.390625 
Q 47.40625 31.296875 43.53125 35.828125 
Q 39.65625 40.375 33.015625 40.375 
z
M 52.59375 71.296875 
L 52.59375 62.3125 
Q 48.875 64.0625 45.09375 64.984375 
Q 41.3125 65.921875 37.59375 65.921875 
Q 27.828125 65.921875 22.671875 59.328125 
Q 17.53125 52.734375 16.796875 39.40625 
Q 19.671875 43.65625 24.015625 45.921875 
Q 28.375 48.1875 33.59375 48.1875 
Q 44.578125 48.1875 50.953125 41.515625 
Q 57.328125 34.859375 57.328125 23.390625 
Q 57.328125 12.15625 50.6875 5.359375 
Q 44.046875 -1.421875 33.015625 -1.421875 
Q 20.359375 -1.421875 13.671875 8.265625 
Q 6.984375 17.96875 6.984375 36.375 
Q 6.984375 53.65625 15.1875 63.9375 
Q 23.390625 74.21875 37.203125 74.21875 
Q 40.921875 74.21875 44.703125 73.484375 
Q 48.484375 72.75 52.59375 71.296875 
z
" id="DejaVuSans-36"/>
    </defs>
    <g style="fill:#ff00ff;" transform="translate(376.7 153.66106)scale(0.2 -0.2)">
     <use transform="translate(0 0.78125)" xlink:href="#DejaVuSans-Oblique-77"/>
     <use transform="translate(81.787109 -15.625)scale(0.7)" xlink:href="#DejaVuSans-31"/>
     <use transform="translate(148.540039 0.78125)" xlink:href="#DejaVuSans-3d"/>
     <use transform="translate(271.293945 0.78125)" xlink:href="#DejaVuSans-2212"/>
     <use transform="translate(374.56543 0.78125)" xlink:href="#DejaVuSans-30"/>
     <use transform="translate(438.188477 0.78125)" xlink:href="#DejaVuSans-2e"/>
     <use transform="translate(469.975586 0.78125)" xlink:href="#DejaVuSans-31"/>
     <use transform="translate(533.598633 0.78125)" xlink:href="#DejaVuSans-33"/>
     <use transform="translate(597.22168 0.78125)" xlink:href="#DejaVuSans-36"/>
    </g>
   </g>
   <g id="text_21">
    <!-- $w_2 = 0.383$ -->
    <defs>
     <path d="M 31.78125 34.625 
Q 24.75 34.625 20.71875 30.859375 
Q 16.703125 27.09375 16.703125 20.515625 
Q 16.703125 13.921875 20.71875 10.15625 
Q 24.75 6.390625 31.78125 6.390625 
Q 38.8125 6.390625 42.859375 10.171875 
Q 46.921875 13.96875 46.921875 20.515625 
Q 46.921875 27.09375 42.890625 30.859375 
Q 38.875 34.625 31.78125 34.625 
z
M 21.921875 38.8125 
Q 15.578125 40.375 12.03125 44.71875 
Q 8.5 49.078125 8.5 55.328125 
Q 8.5 64.0625 14.71875 69.140625 
Q 20.953125 74.21875 31.78125 74.21875 
Q 42.671875 74.21875 48.875 69.140625 
Q 55.078125 64.0625 55.078125 55.328125 
Q 55.078125 49.078125 51.53125 44.71875 
Q 48 40.375 41.703125 38.8125 
Q 48.828125 37.15625 52.796875 32.3125 
Q 56.78125 27.484375 56.78125 20.515625 
Q 56.78125 9.90625 50.3125 4.234375 
Q 43.84375 -1.421875 31.78125 -1.421875 
Q 19.734375 -1.421875 13.25 4.234375 
Q 6.78125 9.90625 6.78125 20.515625 
Q 6.78125 27.484375 10.78125 32.3125 
Q 14.796875 37.15625 21.921875 38.8125 
z
M 18.3125 54.390625 
Q 18.3125 48.734375 21.84375 45.5625 
Q 25.390625 42.390625 31.78125 42.390625 
Q 38.140625 42.390625 41.71875 45.5625 
Q 45.3125 48.734375 45.3125 54.390625 
Q 45.3125 60.0625 41.71875 63.234375 
Q 38.140625 66.40625 31.78125 66.40625 
Q 25.390625 66.40625 21.84375 63.234375 
Q 18.3125 60.0625 18.3125 54.390625 
z
" id="DejaVuSans-38"/>
    </defs>
    <g style="fill:#0000ff;" transform="translate(598.15 241.807611)scale(0.2 -0.2)">
     <use transform="translate(0 0.78125)" xlink:href="#DejaVuSans-Oblique-77"/>
     <use transform="translate(81.787109 -15.625)scale(0.7)" xlink:href="#DejaVuSans-32"/>
     <use transform="translate(148.540039 0.78125)" xlink:href="#DejaVuSans-3d"/>
     <use transform="translate(251.811523 0.78125)" xlink:href="#DejaVuSans-30"/>
     <use transform="translate(315.43457 0.78125)" xlink:href="#DejaVuSans-2e"/>
     <use transform="translate(347.22168 0.78125)" xlink:href="#DejaVuSans-33"/>
     <use transform="translate(410.844727 0.78125)" xlink:href="#DejaVuSans-38"/>
     <use transform="translate(474.467773 0.78125)" xlink:href="#DejaVuSans-33"/>
    </g>
   </g>
  </g>
 </g>
 <defs>
  <clipPath id="p7b0df73866">
   <rect height="326.16" width="669.6" x="108" y="51.84"/>
  </clipPath>
 </defs>
</svg>
