<?xml version="1.0" encoding="utf-8" standalone="no"?>
<!DOCTYPE svg PUBLIC "-//W3C//DTD SVG 1.1//EN"
  "http://www.w3.org/Graphics/SVG/1.1/DTD/svg11.dtd">
<!-- Created with matplotlib (http://matplotlib.org/) -->
<svg height="360pt" version="1.1" viewBox="0 0 720 360" width="720pt" xmlns="http://www.w3.org/2000/svg" xmlns:xlink="http://www.w3.org/1999/xlink">
 <defs>
  <style type="text/css">
*{stroke-linecap:butt;stroke-linejoin:round;}
  </style>
 </defs>
 <g id="figure_1">
  <g id="patch_1">
   <path d="M 0 360 
L 720 360 
L 720 0 
L 0 0 
z
" style="fill:none;"/>
  </g>
  <g id="axes_1">
   <g id="patch_2">
    <path d="M 90 315 
L 343.636364 315 
L 343.636364 43.2 
L 90 43.2 
z
" style="fill:none;"/>
   </g>
   <g id="matplotlib.axis_1">
    <g id="xtick_1">
     <g id="line2d_1">
      <defs>
       <path d="M 0 0 
L 0 3.5 
" id="ma481b9a6fe" style="stroke:#000000;stroke-width:0.8;"/>
      </defs>
      <g>
       <use style="stroke:#000000;stroke-width:0.8;" x="115.363636" xlink:href="#ma481b9a6fe" y="315"/>
      </g>
     </g>
     <g id="text_1">
      <!-- −1 -->
      <defs>
       <path d="M 10.59375 35.5 
L 73.1875 35.5 
L 73.1875 27.203125 
L 10.59375 27.203125 
z
" id="DejaVuSans-2212"/>
       <path d="M 12.40625 8.296875 
L 28.515625 8.296875 
L 28.515625 63.921875 
L 10.984375 60.40625 
L 10.984375 69.390625 
L 28.421875 72.90625 
L 38.28125 72.90625 
L 38.28125 8.296875 
L 54.390625 8.296875 
L 54.390625 0 
L 12.40625 0 
z
" id="DejaVuSans-31"/>
      </defs>
      <g transform="translate(107.992543 329.598437)scale(0.1 -0.1)">
       <use xlink:href="#DejaVuSans-2212"/>
       <use x="83.789062" xlink:href="#DejaVuSans-31"/>
      </g>
     </g>
    </g>
    <g id="xtick_2">
     <g id="line2d_2">
      <g>
       <use style="stroke:#000000;stroke-width:0.8;" x="157.636364" xlink:href="#ma481b9a6fe" y="315"/>
      </g>
     </g>
     <g id="text_2">
      <!-- 0 -->
      <defs>
       <path d="M 31.78125 66.40625 
Q 24.171875 66.40625 20.328125 58.90625 
Q 16.5 51.421875 16.5 36.375 
Q 16.5 21.390625 20.328125 13.890625 
Q 24.171875 6.390625 31.78125 6.390625 
Q 39.453125 6.390625 43.28125 13.890625 
Q 47.125 21.390625 47.125 36.375 
Q 47.125 51.421875 43.28125 58.90625 
Q 39.453125 66.40625 31.78125 66.40625 
z
M 31.78125 74.21875 
Q 44.046875 74.21875 50.515625 64.515625 
Q 56.984375 54.828125 56.984375 36.375 
Q 56.984375 17.96875 50.515625 8.265625 
Q 44.046875 -1.421875 31.78125 -1.421875 
Q 19.53125 -1.421875 13.0625 8.265625 
Q 6.59375 17.96875 6.59375 36.375 
Q 6.59375 54.828125 13.0625 64.515625 
Q 19.53125 74.21875 31.78125 74.21875 
z
" id="DejaVuSans-30"/>
      </defs>
      <g transform="translate(154.455114 329.598437)scale(0.1 -0.1)">
       <use xlink:href="#DejaVuSans-30"/>
      </g>
     </g>
    </g>
    <g id="xtick_3">
     <g id="line2d_3">
      <g>
       <use style="stroke:#000000;stroke-width:0.8;" x="199.909091" xlink:href="#ma481b9a6fe" y="315"/>
      </g>
     </g>
     <g id="text_3">
      <!-- 1 -->
      <g transform="translate(196.727841 329.598437)scale(0.1 -0.1)">
       <use xlink:href="#DejaVuSans-31"/>
      </g>
     </g>
    </g>
    <g id="xtick_4">
     <g id="line2d_4">
      <g>
       <use style="stroke:#000000;stroke-width:0.8;" x="242.181818" xlink:href="#ma481b9a6fe" y="315"/>
      </g>
     </g>
     <g id="text_4">
      <!-- 2 -->
      <defs>
       <path d="M 19.1875 8.296875 
L 53.609375 8.296875 
L 53.609375 0 
L 7.328125 0 
L 7.328125 8.296875 
Q 12.9375 14.109375 22.625 23.890625 
Q 32.328125 33.6875 34.8125 36.53125 
Q 39.546875 41.84375 41.421875 45.53125 
Q 43.3125 49.21875 43.3125 52.78125 
Q 43.3125 58.59375 39.234375 62.25 
Q 35.15625 65.921875 28.609375 65.921875 
Q 23.96875 65.921875 18.8125 64.3125 
Q 13.671875 62.703125 7.8125 59.421875 
L 7.8125 69.390625 
Q 13.765625 71.78125 18.9375 73 
Q 24.125 74.21875 28.421875 74.21875 
Q 39.75 74.21875 46.484375 68.546875 
Q 53.21875 62.890625 53.21875 53.421875 
Q 53.21875 48.921875 51.53125 44.890625 
Q 49.859375 40.875 45.40625 35.40625 
Q 44.1875 33.984375 37.640625 27.21875 
Q 31.109375 20.453125 19.1875 8.296875 
z
" id="DejaVuSans-32"/>
      </defs>
      <g transform="translate(239.000568 329.598437)scale(0.1 -0.1)">
       <use xlink:href="#DejaVuSans-32"/>
      </g>
     </g>
    </g>
    <g id="xtick_5">
     <g id="line2d_5">
      <g>
       <use style="stroke:#000000;stroke-width:0.8;" x="284.454545" xlink:href="#ma481b9a6fe" y="315"/>
      </g>
     </g>
     <g id="text_5">
      <!-- 3 -->
      <defs>
       <path d="M 40.578125 39.3125 
Q 47.65625 37.796875 51.625 33 
Q 55.609375 28.21875 55.609375 21.1875 
Q 55.609375 10.40625 48.1875 4.484375 
Q 40.765625 -1.421875 27.09375 -1.421875 
Q 22.515625 -1.421875 17.65625 -0.515625 
Q 12.796875 0.390625 7.625 2.203125 
L 7.625 11.71875 
Q 11.71875 9.328125 16.59375 8.109375 
Q 21.484375 6.890625 26.8125 6.890625 
Q 36.078125 6.890625 40.9375 10.546875 
Q 45.796875 14.203125 45.796875 21.1875 
Q 45.796875 27.640625 41.28125 31.265625 
Q 36.765625 34.90625 28.71875 34.90625 
L 20.21875 34.90625 
L 20.21875 43.015625 
L 29.109375 43.015625 
Q 36.375 43.015625 40.234375 45.921875 
Q 44.09375 48.828125 44.09375 54.296875 
Q 44.09375 59.90625 40.109375 62.90625 
Q 36.140625 65.921875 28.71875 65.921875 
Q 24.65625 65.921875 20.015625 65.03125 
Q 15.375 64.15625 9.8125 62.3125 
L 9.8125 71.09375 
Q 15.4375 72.65625 20.34375 73.4375 
Q 25.25 74.21875 29.59375 74.21875 
Q 40.828125 74.21875 47.359375 69.109375 
Q 53.90625 64.015625 53.90625 55.328125 
Q 53.90625 49.265625 50.4375 45.09375 
Q 46.96875 40.921875 40.578125 39.3125 
z
" id="DejaVuSans-33"/>
      </defs>
      <g transform="translate(281.273295 329.598437)scale(0.1 -0.1)">
       <use xlink:href="#DejaVuSans-33"/>
      </g>
     </g>
    </g>
    <g id="xtick_6">
     <g id="line2d_6">
      <g>
       <use style="stroke:#000000;stroke-width:0.8;" x="326.727273" xlink:href="#ma481b9a6fe" y="315"/>
      </g>
     </g>
     <g id="text_6">
      <!-- 4 -->
      <defs>
       <path d="M 37.796875 64.3125 
L 12.890625 25.390625 
L 37.796875 25.390625 
z
M 35.203125 72.90625 
L 47.609375 72.90625 
L 47.609375 25.390625 
L 58.015625 25.390625 
L 58.015625 17.1875 
L 47.609375 17.1875 
L 47.609375 0 
L 37.796875 0 
L 37.796875 17.1875 
L 4.890625 17.1875 
L 4.890625 26.703125 
z
" id="DejaVuSans-34"/>
      </defs>
      <g transform="translate(323.546023 329.598437)scale(0.1 -0.1)">
       <use xlink:href="#DejaVuSans-34"/>
      </g>
     </g>
    </g>
    <g id="text_7">
     <!-- $m$ -->
     <defs>
      <path d="M 89.796875 33.015625 
L 83.40625 0 
L 74.421875 0 
L 80.71875 32.71875 
Q 81.109375 34.8125 81.296875 36.328125 
Q 81.5 37.84375 81.5 38.921875 
Q 81.5 43.3125 79.046875 45.75 
Q 76.609375 48.1875 72.21875 48.1875 
Q 65.671875 48.1875 60.546875 43.28125 
Q 55.421875 38.375 53.90625 30.515625 
L 47.90625 0 
L 38.921875 0 
L 45.3125 32.71875 
Q 45.703125 34.515625 45.890625 36.046875 
Q 46.09375 37.59375 46.09375 38.8125 
Q 46.09375 43.265625 43.65625 45.71875 
Q 41.21875 48.1875 36.921875 48.1875 
Q 30.28125 48.1875 25.140625 43.28125 
Q 20.015625 38.375 18.5 30.515625 
L 12.5 0 
L 3.515625 0 
L 14.203125 54.6875 
L 23.1875 54.6875 
L 21.484375 46.1875 
Q 25.140625 50.984375 30.046875 53.484375 
Q 34.96875 56 40.578125 56 
Q 46.53125 56 50.359375 52.875 
Q 54.203125 49.75 54.984375 44.1875 
Q 59.078125 49.953125 64.46875 52.96875 
Q 69.875 56 75.875 56 
Q 82.90625 56 86.734375 51.953125 
Q 90.578125 47.90625 90.578125 40.484375 
Q 90.578125 38.875 90.375 36.9375 
Q 90.1875 35.015625 89.796875 33.015625 
z
" id="DejaVuSans-Oblique-6d"/>
     </defs>
     <g transform="translate(207.018182 350.875)scale(0.2 -0.2)">
      <use xlink:href="#DejaVuSans-Oblique-6d"/>
     </g>
    </g>
   </g>
   <g id="matplotlib.axis_2">
    <g id="ytick_1">
     <g id="line2d_7">
      <defs>
       <path d="M 0 0 
L -3.5 0 
" id="m2ae2e4f14c" style="stroke:#000000;stroke-width:0.8;"/>
      </defs>
      <g>
       <use style="stroke:#000000;stroke-width:0.8;" x="90" xlink:href="#m2ae2e4f14c" y="310.47"/>
      </g>
     </g>
     <g id="text_8">
      <!-- −6 -->
      <defs>
       <path d="M 33.015625 40.375 
Q 26.375 40.375 22.484375 35.828125 
Q 18.609375 31.296875 18.609375 23.390625 
Q 18.609375 15.53125 22.484375 10.953125 
Q 26.375 6.390625 33.015625 6.390625 
Q 39.65625 6.390625 43.53125 10.953125 
Q 47.40625 15.53125 47.40625 23.390625 
Q 47.40625 31.296875 43.53125 35.828125 
Q 39.65625 40.375 33.015625 40.375 
z
M 52.59375 71.296875 
L 52.59375 62.3125 
Q 48.875 64.0625 45.09375 64.984375 
Q 41.3125 65.921875 37.59375 65.921875 
Q 27.828125 65.921875 22.671875 59.328125 
Q 17.53125 52.734375 16.796875 39.40625 
Q 19.671875 43.65625 24.015625 45.921875 
Q 28.375 48.1875 33.59375 48.1875 
Q 44.578125 48.1875 50.953125 41.515625 
Q 57.328125 34.859375 57.328125 23.390625 
Q 57.328125 12.15625 50.6875 5.359375 
Q 44.046875 -1.421875 33.015625 -1.421875 
Q 20.359375 -1.421875 13.671875 8.265625 
Q 6.984375 17.96875 6.984375 36.375 
Q 6.984375 53.65625 15.1875 63.9375 
Q 23.390625 74.21875 37.203125 74.21875 
Q 40.921875 74.21875 44.703125 73.484375 
Q 48.484375 72.75 52.59375 71.296875 
z
" id="DejaVuSans-36"/>
      </defs>
      <g transform="translate(68.257812 314.269219)scale(0.1 -0.1)">
       <use xlink:href="#DejaVuSans-2212"/>
       <use x="83.789062" xlink:href="#DejaVuSans-36"/>
      </g>
     </g>
    </g>
    <g id="ytick_2">
     <g id="line2d_8">
      <g>
       <use style="stroke:#000000;stroke-width:0.8;" x="90" xlink:href="#m2ae2e4f14c" y="265.17"/>
      </g>
     </g>
     <g id="text_9">
      <!-- −5 -->
      <defs>
       <path d="M 10.796875 72.90625 
L 49.515625 72.90625 
L 49.515625 64.59375 
L 19.828125 64.59375 
L 19.828125 46.734375 
Q 21.96875 47.46875 24.109375 47.828125 
Q 26.265625 48.1875 28.421875 48.1875 
Q 40.625 48.1875 47.75 41.5 
Q 54.890625 34.8125 54.890625 23.390625 
Q 54.890625 11.625 47.5625 5.09375 
Q 40.234375 -1.421875 26.90625 -1.421875 
Q 22.3125 -1.421875 17.546875 -0.640625 
Q 12.796875 0.140625 7.71875 1.703125 
L 7.71875 11.625 
Q 12.109375 9.234375 16.796875 8.0625 
Q 21.484375 6.890625 26.703125 6.890625 
Q 35.15625 6.890625 40.078125 11.328125 
Q 45.015625 15.765625 45.015625 23.390625 
Q 45.015625 31 40.078125 35.4375 
Q 35.15625 39.890625 26.703125 39.890625 
Q 22.75 39.890625 18.8125 39.015625 
Q 14.890625 38.140625 10.796875 36.28125 
z
" id="DejaVuSans-35"/>
      </defs>
      <g transform="translate(68.257812 268.969219)scale(0.1 -0.1)">
       <use xlink:href="#DejaVuSans-2212"/>
       <use x="83.789062" xlink:href="#DejaVuSans-35"/>
      </g>
     </g>
    </g>
    <g id="ytick_3">
     <g id="line2d_9">
      <g>
       <use style="stroke:#000000;stroke-width:0.8;" x="90" xlink:href="#m2ae2e4f14c" y="219.87"/>
      </g>
     </g>
     <g id="text_10">
      <!-- −4 -->
      <g transform="translate(68.257812 223.669219)scale(0.1 -0.1)">
       <use xlink:href="#DejaVuSans-2212"/>
       <use x="83.789062" xlink:href="#DejaVuSans-34"/>
      </g>
     </g>
    </g>
    <g id="ytick_4">
     <g id="line2d_10">
      <g>
       <use style="stroke:#000000;stroke-width:0.8;" x="90" xlink:href="#m2ae2e4f14c" y="174.57"/>
      </g>
     </g>
     <g id="text_11">
      <!-- −3 -->
      <g transform="translate(68.257812 178.369219)scale(0.1 -0.1)">
       <use xlink:href="#DejaVuSans-2212"/>
       <use x="83.789062" xlink:href="#DejaVuSans-33"/>
      </g>
     </g>
    </g>
    <g id="ytick_5">
     <g id="line2d_11">
      <g>
       <use style="stroke:#000000;stroke-width:0.8;" x="90" xlink:href="#m2ae2e4f14c" y="129.27"/>
      </g>
     </g>
     <g id="text_12">
      <!-- −2 -->
      <g transform="translate(68.257812 133.069219)scale(0.1 -0.1)">
       <use xlink:href="#DejaVuSans-2212"/>
       <use x="83.789062" xlink:href="#DejaVuSans-32"/>
      </g>
     </g>
    </g>
    <g id="ytick_6">
     <g id="line2d_12">
      <g>
       <use style="stroke:#000000;stroke-width:0.8;" x="90" xlink:href="#m2ae2e4f14c" y="83.97"/>
      </g>
     </g>
     <g id="text_13">
      <!-- −1 -->
      <g transform="translate(68.257812 87.769219)scale(0.1 -0.1)">
       <use xlink:href="#DejaVuSans-2212"/>
       <use x="83.789062" xlink:href="#DejaVuSans-31"/>
      </g>
     </g>
    </g>
    <g id="text_14">
     <!-- $c$ -->
     <defs>
      <path d="M 53.609375 52.59375 
L 51.8125 43.703125 
Q 48.578125 46.046875 44.9375 47.21875 
Q 41.3125 48.390625 37.40625 48.390625 
Q 33.109375 48.390625 29.21875 46.875 
Q 25.34375 45.359375 22.703125 42.578125 
Q 18.5 38.328125 16.203125 32.609375 
Q 13.921875 26.90625 13.921875 20.796875 
Q 13.921875 13.421875 17.609375 9.8125 
Q 21.296875 6.203125 28.8125 6.203125 
Q 32.515625 6.203125 36.6875 7.328125 
Q 40.875 8.453125 45.40625 10.6875 
L 43.703125 1.8125 
Q 39.796875 0.203125 35.671875 -0.609375 
Q 31.546875 -1.421875 27.203125 -1.421875 
Q 16.3125 -1.421875 10.453125 4.015625 
Q 4.59375 9.46875 4.59375 19.578125 
Q 4.59375 28.078125 7.640625 35.234375 
Q 10.6875 42.390625 16.703125 48.09375 
Q 20.796875 52 26.3125 54 
Q 31.84375 56 38.375 56 
Q 42.1875 56 45.9375 55.140625 
Q 49.703125 54.296875 53.609375 52.59375 
z
" id="DejaVuSans-Oblique-63"/>
     </defs>
     <g transform="translate(60.098438 184.6)rotate(-90)scale(0.2 -0.2)">
      <use xlink:href="#DejaVuSans-Oblique-63"/>
     </g>
    </g>
   </g>
   <g id="LineCollection_1">
    <path clip-path="url(#pac89778761)" d="M 218.099174 177.965412 
L 217.047907 177.727273 
L 215.53719 177.243628 
L 212.975207 175.285348 
L 212.707542 174.981818 
L 211.244083 172.236364 
L 210.955865 169.490909 
L 212.975207 167.076628 
L 215.53719 167.164827 
L 218.099174 168.629964 
L 219.014836 169.490909 
L 220.661157 171.815946 
L 220.880581 172.236364 
L 221.262179 174.981818 
L 220.661157 176.551629 
L 219.029996 177.727273 
L 218.099174 177.965412 
" style="fill:none;stroke:#440154;stroke-width:1.5;"/>
   </g>
   <g id="LineCollection_2">
    <path clip-path="url(#pac89778761)" d="M 215.53719 189.009143 
L 214.912094 188.709091 
L 212.975207 187.680818 
L 210.413223 186.043112 
L 210.309104 185.963636 
L 207.85124 183.879911 
L 207.161086 183.218182 
L 205.289256 181.200142 
L 204.684569 180.472727 
L 202.727273 177.78359 
L 202.690136 177.727273 
L 201.199622 174.981818 
L 200.165289 172.643222 
L 200.001712 172.236364 
L 199.242878 169.490909 
L 198.835297 166.745455 
L 198.85386 164 
L 199.396377 161.254545 
L 200.165289 159.440904 
L 200.707822 158.509091 
L 202.727273 156.362907 
L 203.627067 155.763636 
L 205.289256 154.962153 
L 207.85124 154.361382 
L 210.413223 154.29884 
L 212.975207 154.675196 
L 215.53719 155.414145 
L 216.36466 155.763636 
L 218.099174 156.574134 
L 220.661157 158.072657 
L 221.280874 158.509091 
L 223.22314 160.028799 
L 224.594447 161.254545 
L 225.785124 162.451764 
L 227.154248 164 
L 228.347107 165.541434 
L 229.185893 166.745455 
L 230.819811 169.490909 
L 230.909091 169.681715 
L 231.98926 172.236364 
L 232.847831 174.981818 
L 233.345616 177.727273 
L 233.400117 180.472727 
L 232.901605 183.218182 
L 231.700882 185.963636 
L 230.909091 187.054662 
L 229.144608 188.709091 
L 228.347107 189.234546 
L 225.785124 190.229458 
L 223.22314 190.595332 
L 220.661157 190.455458 
L 218.099174 189.902882 
L 215.53719 189.009143 
" style="fill:none;stroke:#450457;stroke-width:1.5;"/>
   </g>
   <g id="LineCollection_3">
    <path clip-path="url(#pac89778761)" d="M 187.202553 157.673795 
L 187.355372 156.543028 
L 187.478288 155.763636 
L 188.274489 153.018182 
L 189.506496 150.272727 
L 189.917355 149.597456 
L 191.461442 147.527273 
L 192.479339 146.470172 
L 194.579455 144.781818 
L 195.041322 144.478807 
L 197.603306 143.228509 
L 200.165289 142.412658 
L 202.350488 142.036364 
L 202.727273 141.980772 
L 205.289256 141.883127 
L 207.678954 142.036364 
L 207.85124 142.048147 
L 210.413223 142.486895 
L 212.975207 143.15368 
L 215.53719 144.023975 
L 217.363286 144.781818 
L 218.099174 145.106527 
L 220.661157 146.440963 
L 222.51293 147.527273 
L 223.22314 147.970928 
L 225.785124 149.758208 
L 226.45615 150.272727 
L 228.347107 151.819173 
L 229.702512 153.018182 
L 230.909091 154.161663 
L 232.480775 155.763636 
L 233.471074 156.850539 
L 234.883073 158.509091 
L 236.033058 159.972246 
L 236.978847 161.254545 
L 238.595041 163.644602 
L 238.821429 164 
L 240.382679 166.745455 
L 241.157025 168.277512 
L 241.735462 169.490909 
L 242.857243 172.236364 
L 243.719008 174.757502 
L 243.791413 174.981818 
L 244.459891 177.727273 
L 244.916884 180.472727 
L 245.136895 183.218182 
L 245.090159 185.963636 
L 244.741708 188.709091 
L 244.050184 191.454545 
L 243.719008 192.320903 
L 242.861478 194.2 
L 241.157025 196.852475 
L 241.082913 196.945455 
L 238.595041 199.365348 
L 238.154396 199.690909 
L 236.033058 200.970655 
L 233.471074 202.046585 
L 231.983305 202.436364 
L 230.909091 202.675939 
L 228.347107 202.941831 
L 225.785124 202.924213 
L 223.22314 202.653902 
L 222.123017 202.436364 
L 220.661157 202.128814 
L 218.099174 201.36106 
L 216.05936 200.593805 
" style="fill:none;stroke:#460a5d;stroke-width:1.5;"/>
   </g>
   <g id="LineCollection_4">
    <path clip-path="url(#pac89778761)" d="M 235.616735 142.060323 
L 236.033058 142.429176 
L 238.556402 144.781818 
L 238.595041 144.819589 
L 241.157025 147.450792 
L 241.228191 147.527273 
L 243.660961 150.272727 
L 243.719008 150.341808 
L 245.870556 153.018182 
L 246.280992 153.55768 
L 247.889604 155.763636 
L 248.842975 157.14961 
L 249.740874 158.509091 
L 251.404959 161.189739 
L 251.443648 161.254545 
L 252.952859 164 
L 253.966942 165.987556 
L 254.339021 166.745455 
L 255.559886 169.490909 
L 256.528926 171.897231 
L 256.660404 172.236364 
L 257.586649 174.981818 
L 258.387831 177.727273 
L 259.054243 180.472727 
L 259.090909 180.67074 
L 259.544396 183.218182 
L 259.883425 185.963636 
L 260.061914 188.709091 
L 260.066917 191.454545 
L 259.884058 194.2 
L 259.497329 196.945455 
L 259.090909 198.79667 
L 258.872547 199.690909 
L 257.95092 202.436364 
L 256.737408 205.181818 
L 256.528926 205.565659 
L 255.071582 207.927273 
L 253.966942 209.404227 
L 252.868684 210.672727 
L 251.404959 212.111657 
L 249.827269 213.418182 
L 248.842975 214.127675 
L 246.280992 215.64718 
L 245.187557 216.163636 
L 243.719008 216.780116 
L 241.157025 217.598872 
L 238.595041 218.169811 
L 236.033058 218.513646 
L 233.471074 218.648844 
L 230.909091 218.591925 
L 228.347107 218.357707 
L 225.785124 217.959523 
L 223.22314 217.409403 
L 220.661157 216.718226 
L 218.946726 216.163636 
L 218.099174 215.878165 
L 215.53719 214.8731 
L 212.975207 213.749663 
L 212.298489 213.418182 
L 210.413223 212.45696 
L 207.85124 211.036649 
L 207.248156 210.672727 
L 205.289256 209.441541 
L 203.029842 207.927273 
L 202.727273 207.715698 
L 200.165289 205.796682 
L 199.390445 205.181818 
L 197.603306 203.701105 
L 196.154248 202.436364 
L 195.041322 201.420173 
L 193.238857 199.690909 
L 192.479339 198.926982 
L 190.599959 196.945455 
L 189.917355 196.18916 
L 188.201041 194.2 
L 187.355372 193.167394 
L 186.01175 191.454545 
L 184.793388 189.813477 
L 184.006641 188.709091 
L 182.231405 186.06763 
L 182.164232 185.963636 
L 180.518493 183.218182 
L 179.669421 181.699455 
L 179.0099 180.472727 
L 177.652259 177.727273 
L 177.107438 176.514497 
L 176.444957 174.981818 
L 175.382171 172.236364 
L 174.545455 169.792932 
L 174.445892 169.490909 
L 173.683867 166.745455 
L 173.055352 164 
L 172.570724 161.254545 
L 172.241463 158.509091 
L 172.080302 155.763636 
L 172.101408 153.018182 
L 172.320583 150.272727 
L 172.75551 147.527273 
L 173.426043 144.781818 
L 174.354549 142.036364 
L 174.545455 141.591991 
L 175.659241 139.290909 
L 177.107438 136.900155 
L 177.353463 136.545455 
L 179.639166 133.8 
L 179.669421 133.768938 
L 182.231405 131.517546 
L 182.865591 131.054545 
L 184.793388 129.823563 
L 185.296533 129.566545 
" style="fill:none;stroke:#481668;stroke-width:1.5;"/>
   </g>
   <g id="LineCollection_5">
    <path clip-path="url(#pac89778761)" d="M 200.782324 226.694891 
L 197.338818 224.4 
L 192.479339 220.784531 
L 189.917355 218.716389 
L 184.793388 214.151778 
L 181.267688 210.672727 
L 177.107438 206.157327 
L 173.986342 202.436364 
L 171.842408 199.690909 
L 167.959579 194.2 
L 166.186362 191.454545 
L 162.979703 185.963636 
L 161.523511 183.218182 
L 158.936321 177.727273 
L 156.61157 171.856269 
L 154.958451 166.745455 
L 154.049587 163.372494 
L 153.015656 158.509091 
L 152.240348 153.018182 
L 152.017232 150.272727 
L 151.911931 147.527273 
L 151.931108 144.781818 
L 152.081943 142.036364 
L 152.372175 139.290909 
L 152.810165 136.545455 
L 153.404953 133.8 
L 154.172889 131.054545 
L 155.165521 128.309091 
L 156.61157 125.065909 
L 157.846331 122.818182 
L 159.629931 120.072727 
L 161.808025 117.327273 
L 164.524319 114.581818 
L 168.001969 111.836364 
L 169.421488 110.900657 
L 172.688536 109.090909 
L 174.545455 108.251214 
L 177.107438 107.282517 
L 180.3017 106.345455 
L 182.231405 105.911228 
L 184.793388 105.485735 
L 187.355372 105.205507 
L 189.917355 105.062638 
L 192.479339 105.049783 
L 195.041322 105.160114 
L 200.165289 105.72532 
L 203.550909 106.345455 
L 207.85124 107.396266 
L 213.199511 109.090909 
L 218.099174 111.041335 
L 220.661157 112.196158 
L 225.785124 114.815753 
L 230.909091 117.85372 
L 236.033058 121.324521 
L 238.595041 123.220287 
L 243.719008 127.402873 
L 247.737466 131.054545 
L 251.404959 134.708733 
L 255.572552 139.290909 
L 259.090909 143.576151 
L 262.054535 147.527273 
L 265.737737 153.018182 
L 267.415179 155.763636 
L 270.439173 161.254545 
L 271.900826 164.19642 
L 274.46281 170.104675 
L 276.236508 174.981818 
L 277.109241 177.727273 
L 278.523713 183.218182 
L 279.553215 188.709091 
L 279.896155 191.454545 
L 280.129413 194.2 
L 280.248615 196.945455 
L 280.247498 199.690909 
L 280.119329 202.436364 
L 279.586777 207.026388 
L 279.445314 207.927273 
L 278.860617 210.672727 
L 278.10639 213.418182 
L 277.024793 216.528011 
L 275.985337 218.909091 
L 274.46281 221.834612 
L 271.900826 225.63894 
L 270.680762 227.145455 
L 268.052141 229.890909 
L 266.77686 231.025161 
L 264.214876 233.005203 
L 260.251297 235.381818 
L 259.090909 235.961269 
L 256.528926 237.049916 
L 252.978227 238.217979 
L 252.978227 238.217979 
" style="fill:none;stroke:#472a7a;stroke-width:1.5;"/>
   </g>
   <g id="LineCollection_6">
    <path clip-path="url(#pac89778761)" d="M 123.990549 135.281479 
L 124.086919 131.054545 
L 124.558252 125.563636 
L 125.433555 120.072727 
L 126.039513 117.327273 
L 126.780642 114.581818 
L 128.429752 109.670161 
L 128.651043 109.090909 
L 129.830222 106.345455 
L 131.167049 103.6 
L 133.553719 99.519774 
L 134.492276 98.109091 
L 136.519404 95.363636 
L 138.860165 92.618182 
L 141.591875 89.872727 
L 144.819542 87.127273 
L 146.363636 85.969547 
L 148.92562 84.230381 
L 153.575415 81.636364 
L 154.049587 81.401772 
L 156.61157 80.263148 
L 160.263097 78.890909 
L 164.297521 77.700221 
L 169.421488 76.616088 
L 174.545455 75.965945 
L 179.669421 75.71266 
L 184.793388 75.812125 
L 189.917355 76.242303 
L 195.041322 76.997504 
L 200.165289 78.044628 
L 205.289256 79.378485 
L 210.413223 80.999025 
L 215.53719 82.899371 
L 220.661157 85.07085 
L 225.785124 87.519761 
L 230.909091 90.252599 
L 236.033058 93.276061 
L 241.157025 96.597059 
L 246.280992 100.222725 
L 251.404959 104.179254 
L 256.528926 108.487973 
L 260.227543 111.836364 
L 264.214876 115.682394 
L 268.459069 120.072727 
L 271.900826 123.883954 
L 275.642706 128.309091 
L 279.941629 133.8 
L 283.874454 139.290909 
L 287.486218 144.781818 
L 290.774051 150.272727 
L 293.770003 155.763636 
L 296.479842 161.254545 
L 298.909187 166.745455 
L 301.063509 172.236364 
L 302.948141 177.727273 
L 304.548782 183.218182 
L 305.873165 188.709091 
L 306.909971 194.2 
L 307.658627 199.690909 
L 308.086624 205.181818 
L 308.186669 210.672727 
L 307.936771 216.163636 
L 307.668554 218.909091 
L 306.81028 224.4 
L 306.217168 227.145455 
L 305.206612 230.899119 
L 304.658405 232.636364 
L 303.664724 235.381818 
L 302.528033 238.127273 
L 300.082645 242.931714 
L 299.687861 243.618182 
L 297.520661 246.985344 
L 294.958678 250.342554 
L 292.396694 253.19876 
L 289.834711 255.659482 
L 287.272727 257.802551 
L 284.073463 260.090909 
L 282.14876 261.291691 
L 279.377838 262.836364 
L 277.024793 263.962753 
L 273.028165 265.581818 
L 269.338843 266.766315 
L 264.214876 267.985683 
L 261.652893 268.424492 
L 256.528926 268.977165 
L 251.404959 269.153643 
L 246.280992 268.981315 
L 241.157025 268.484978 
L 236.033058 267.666807 
L 230.909091 266.554934 
L 225.785124 265.161482 
L 220.661157 263.480381 
L 215.53719 261.520784 
L 210.413223 259.289304 
L 205.289256 256.779629 
L 200.165289 253.985252 
L 195.041322 250.899459 
L 189.917355 247.515324 
L 184.519844 243.618182 
L 179.669421 239.787965 
L 174.512561 235.381818 
L 168.671429 229.890909 
L 164.297521 225.413916 
L 160.864737 221.654545 
L 156.206436 216.163636 
L 151.487603 210.059883 
L 148.030502 205.181818 
L 144.445632 199.690909 
L 142.154628 195.888833 
L 142.154628 195.888833 
" style="fill:none;stroke:#3c508b;stroke-width:1.5;"/>
   </g>
   <g id="LineCollection_7">
    <path clip-path="url(#pac89778761)" d="M 343.636364 253.626515 
L 343.366834 254.6 
L 342.524076 257.345455 
L 341.590834 260.090909 
L 341.07438 261.479351 
L 340.549767 262.836364 
L 339.394408 265.581818 
L 338.512397 267.51225 
L 338.124593 268.327273 
L 336.717948 271.072727 
L 336.190338 272.030362 
" style="fill:none;stroke:#218f8d;stroke-width:1.5;"/>
    <path clip-path="url(#pac89778761)" d="M 285.931442 308.267503 
L 282.14876 308.977104 
L 277.024793 309.664348 
L 271.900826 310.064813 
L 266.77686 310.20593 
L 261.652893 310.101081 
L 256.528926 309.762742 
L 251.404959 309.195633 
L 246.280992 308.407472 
L 241.157025 307.414709 
L 236.033058 306.215486 
L 230.909091 304.813187 
L 225.785124 303.214312 
L 220.258215 301.272727 
L 213.355164 298.527273 
L 210.413223 297.246264 
L 205.289256 294.869201 
L 200.165289 292.295961 
L 195.041322 289.523342 
L 189.917355 286.548071 
L 184.793388 283.366803 
L 178.700778 279.309091 
L 174.545455 276.368131 
L 167.560921 271.072727 
L 164.145009 268.327273 
L 157.7116 262.836364 
L 154.049587 259.52839 
L 148.868265 254.6 
L 143.456769 249.109091 
L 138.37782 243.618182 
L 133.553719 238.067742 
L 128.429752 231.758457 
L 123.305785 224.985981 
L 120.743802 221.401535 
L 117.187853 216.163636 
L 113.057851 209.668925 
L 110.375985 205.181818 
L 107.295389 199.690909 
L 104.416507 194.2 
L 101.736552 188.709091 
L 99.252787 183.218182 
L 96.962528 177.727273 
L 94.863135 172.236364 
L 92.561983 165.510092 
L 91.252674 161.254545 
L 90 156.772668 
L 90 156.772668 
" style="fill:none;stroke:#218f8d;stroke-width:1.5;"/>
    <path clip-path="url(#pac89778761)" d="M 90 86.441262 
L 90.722925 84.381818 
L 91.779737 81.636364 
L 92.561983 79.771392 
L 92.946248 78.890909 
L 94.241195 76.145455 
L 95.123967 74.412534 
L 95.661794 73.4 
L 97.227247 70.654545 
L 97.68595 69.901772 
L 98.955055 67.909091 
L 100.247934 66.008627 
L 100.849979 65.163636 
L 102.809917 62.577812 
L 102.93692 62.418182 
L 105.250543 59.672727 
L 105.371901 59.53644 
L 107.818496 56.927273 
L 107.933884 56.810561 
L 110.495868 54.354228 
L 110.686063 54.181818 
L 113.057851 52.135838 
L 113.918971 51.436364 
L 115.619835 50.118535 
L 117.584166 48.690909 
L 118.181818 48.275711 
L 120.743802 46.605514 
L 121.828558 45.945455 
L 123.305785 45.084124 
L 125.867769 43.695996 
L 126.854555 43.2 
" style="fill:none;stroke:#218f8d;stroke-width:1.5;"/>
    <path clip-path="url(#pac89778761)" d="M 210.854449 43.2 
L 212.975207 43.991435 
L 215.53719 44.9901 
L 217.891635 45.945455 
L 218.099174 46.030812 
L 220.661157 47.132268 
L 223.22314 48.272505 
L 224.128335 48.690909 
L 225.785124 49.467107 
L 228.347107 50.708209 
L 229.508487 51.28935 
" style="fill:none;stroke:#218f8d;stroke-width:1.5;"/>
    <path clip-path="url(#pac89778761)" d="M 281.365489 88.393437 
L 282.14876 89.143162 
L 282.898788 89.872727 
L 284.710744 91.662982 
L 285.662314 92.618182 
L 287.272727 94.260581 
L 288.33755 95.363636 
L 289.834711 96.93975 
L 290.928536 98.109091 
L 292.396694 99.704529 
L 293.439068 100.854545 
L 294.958678 102.559233 
L 295.872719 103.6 
L 297.520661 105.508468 
L 298.232851 106.345455 
L 300.082645 108.557162 
L 300.522636 109.090909 
L 302.644628 111.710591 
L 302.745062 111.836364 
L 304.895816 114.581818 
L 305.206612 114.986079 
L 306.981144 117.327273 
L 307.768595 118.385803 
L 309.006068 120.072727 
L 310.330579 121.913059 
L 310.973075 122.818182 
L 312.884331 125.563636 
L 312.892562 125.575736 
L 314.72664 128.309091 
L 315.454545 129.416338 
L 316.517006 131.054545 
L 318.016529 133.415496 
L 318.257497 133.8 
L 319.936235 136.545455 
L 320.578512 137.620661 
L 321.563049 139.290909 
L 323.140496 142.028201 
L 323.145139 142.036364 
L 324.662207 144.781818 
L 325.702479 146.710222 
L 326.137511 147.527273 
L 327.557861 150.272727 
L 328.264463 151.677619 
L 328.929993 153.018182 
L 330.252844 155.763636 
L 330.826446 156.992413 
L 331.525332 158.509091 
L 332.749939 161.254545 
L 333.38843 162.735994 
L 333.926226 164 
L 335.051876 166.745455 
L 335.950413 169.017335 
L 336.135325 169.490909 
L 337.161336 172.236364 
L 338.147618 174.981818 
L 338.512397 176.04643 
L 339.08095 177.727273 
L 339.965458 180.472727 
L 340.807718 183.218182 
L 341.07438 184.139673 
L 341.59542 185.963636 
L 342.333775 188.709091 
L 343.027265 191.454545 
L 343.636364 194.038528 
" style="fill:none;stroke:#218f8d;stroke-width:1.5;"/>
   </g>
   <g id="LineCollection_8">
    <path clip-path="url(#pac89778761)" d="M 150.520682 315 
L 148.92562 313.766582 
L 146.995738 312.254545 
L 146.363636 311.754209 
L 143.801653 309.698674 
L 143.568687 309.509091 
L 141.239669 307.59421 
L 140.242037 306.763636 
L 138.677686 305.447654 
L 136.999312 304.018182 
L 136.115702 303.257675 
L 133.837455 301.272727 
L 133.553719 301.022885 
L 130.991736 298.738193 
L 130.758162 298.527273 
L 128.429752 296.402186 
L 127.757933 295.781818 
L 125.867769 294.017531 
L 124.82868 293.036364 
L 123.305785 291.582633 
L 121.967983 290.290909 
L 120.743802 289.095824 
L 119.173531 287.545455 
L 118.181818 286.555363 
L 116.443117 284.8 
L 115.619835 283.959431 
L 113.774627 282.054545 
L 113.057851 281.306125 
L 111.166044 279.309091 
L 110.495868 278.593454 
L 108.615435 276.563636 
L 107.933884 275.819332 
L 106.120949 273.818182 
L 105.371901 272.981579 
L 103.680813 271.072727 
L 102.809917 270.077904 
L 101.29333 268.327273 
L 100.247934 267.105911 
L 98.956871 265.581818 
L 97.68595 264.063083 
L 96.669873 262.836364 
L 95.123967 260.946777 
L 94.430839 260.090909 
L 92.561983 257.75422 
L 92.238327 257.345455 
L 90.092463 254.6 
L 90 254.480044 
" style="fill:none;stroke:#fde725;stroke-width:1.5;"/>
    <path clip-path="url(#pac89778761)" d="M 297.889819 43.2 
L 300.082645 45.143219 
L 300.977199 45.945455 
L 302.644628 47.45681 
L 303.990222 48.690909 
L 305.206612 49.818581 
L 306.931469 51.436364 
L 307.768595 52.230112 
L 309.803405 54.181818 
L 310.330579 54.693054 
L 312.608383 56.927273 
L 312.892562 57.209132 
L 315.348649 59.672727 
L 315.454545 59.780148 
L 318.016529 62.408173 
L 318.026177 62.418182 
L 320.578512 65.095885 
L 320.642398 65.163636 
L 323.140496 67.843362 
L 323.201118 67.909091 
L 325.702479 70.65269 
L 325.704153 70.654545 
L 328.151307 73.4 
L 328.264463 73.528472 
L 330.545294 76.145455 
L 330.826446 76.471958 
L 332.887798 78.890909 
L 333.38843 79.485605 
L 335.180405 81.636364 
L 335.950413 82.572032 
L 337.424637 84.381818 
L 338.512397 85.733988 
L 339.621954 87.127273 
L 341.07438 88.974361 
L 341.773758 89.872727 
L 343.636364 92.296191 
" style="fill:none;stroke:#fde725;stroke-width:1.5;"/>
   </g>
   <g id="line2d_13">
    <defs>
     <path d="M 0 -3 
L -0.673542 -0.927051 
L -2.85317 -0.927051 
L -1.089814 0.354102 
L -1.763356 2.427051 
L -0 1.145898 
L 1.763356 2.427051 
L 1.089814 0.354102 
L 2.85317 -0.927051 
L 0.673542 -0.927051 
z
" id="mfaf1d4fdf2" style="stroke:#008000;stroke-linejoin:bevel;"/>
    </defs>
    <g clip-path="url(#pac89778761)">
     <use style="fill:#008000;stroke:#008000;stroke-linejoin:bevel;" x="156.850603" xlink:href="#mfaf1d4fdf2" y="264.22991"/>
    </g>
   </g>
   <g id="line2d_14">
    <g clip-path="url(#pac89778761)">
     <use style="fill:#008000;stroke:#008000;stroke-linejoin:bevel;" x="163.324405" xlink:href="#mfaf1d4fdf2" y="260.323524"/>
    </g>
   </g>
   <g id="line2d_15">
    <g clip-path="url(#pac89778761)">
     <use style="fill:#008000;stroke:#008000;stroke-linejoin:bevel;" x="162.529952" xlink:href="#mfaf1d4fdf2" y="259.373034"/>
    </g>
   </g>
   <g id="line2d_16">
    <g clip-path="url(#pac89778761)">
     <use style="fill:#008000;stroke:#008000;stroke-linejoin:bevel;" x="161.763495" xlink:href="#mfaf1d4fdf2" y="258.456038"/>
    </g>
   </g>
   <g id="line2d_17">
    <g clip-path="url(#pac89778761)">
     <use style="fill:#008000;stroke:#008000;stroke-linejoin:bevel;" x="162.236046" xlink:href="#mfaf1d4fdf2" y="256.887518"/>
    </g>
   </g>
   <g id="line2d_18">
    <g clip-path="url(#pac89778761)">
     <use style="fill:#008000;stroke:#008000;stroke-linejoin:bevel;" x="161.515063" xlink:href="#mfaf1d4fdf2" y="256.024928"/>
    </g>
   </g>
   <g id="line2d_19">
    <g clip-path="url(#pac89778761)">
     <use style="fill:#008000;stroke:#008000;stroke-linejoin:bevel;" x="161.973511" xlink:href="#mfaf1d4fdf2" y="254.503217"/>
    </g>
   </g>
   <g id="line2d_20">
    <g clip-path="url(#pac89778761)">
     <use style="fill:#008000;stroke:#008000;stroke-linejoin:bevel;" x="162.421858" xlink:href="#mfaf1d4fdf2" y="253.015036"/>
    </g>
   </g>
   <g id="line2d_21">
    <g clip-path="url(#pac89778761)">
     <use style="fill:#008000;stroke:#008000;stroke-linejoin:bevel;" x="168.231793" xlink:href="#mfaf1d4fdf2" y="249.509237"/>
    </g>
   </g>
   <g id="line2d_22">
    <g clip-path="url(#pac89778761)">
     <use style="fill:#008000;stroke:#008000;stroke-linejoin:bevel;" x="173.605608" xlink:href="#mfaf1d4fdf2" y="246.266598"/>
    </g>
   </g>
   <g id="line2d_23">
    <g clip-path="url(#pac89778761)">
     <use style="fill:#008000;stroke:#008000;stroke-linejoin:bevel;" x="178.576041" xlink:href="#mfaf1d4fdf2" y="243.267366"/>
    </g>
   </g>
   <g id="line2d_24">
    <g clip-path="url(#pac89778761)">
     <use style="fill:#008000;stroke:#008000;stroke-linejoin:bevel;" x="193.046586" xlink:href="#mfaf1d4fdf2" y="229.435168"/>
    </g>
   </g>
   <g id="patch_3">
    <path d="M 90 315 
L 90 43.2 
" style="fill:none;stroke:#000000;stroke-linecap:square;stroke-linejoin:miter;stroke-width:0.8;"/>
   </g>
   <g id="patch_4">
    <path d="M 343.636364 315 
L 343.636364 43.2 
" style="fill:none;stroke:#000000;stroke-linecap:square;stroke-linejoin:miter;stroke-width:0.8;"/>
   </g>
   <g id="patch_5">
    <path d="M 90 315 
L 343.636364 315 
" style="fill:none;stroke:#000000;stroke-linecap:square;stroke-linejoin:miter;stroke-width:0.8;"/>
   </g>
   <g id="patch_6">
    <path d="M 90 43.2 
L 343.636364 43.2 
" style="fill:none;stroke:#000000;stroke-linecap:square;stroke-linejoin:miter;stroke-width:0.8;"/>
   </g>
   <g id="text_15">
    <g clip-path="url(#pac89778761)">
     <!-- 2.000 -->
     <defs>
      <path d="M 10.6875 12.40625 
L 21 12.40625 
L 21 0 
L 10.6875 0 
z
" id="DejaVuSans-2e"/>
     </defs>
     <g style="fill:#460a5d;" transform="translate(179.504024 168.038176)rotate(-304.368868)scale(0.15 -0.15)">
      <use xlink:href="#DejaVuSans-32"/>
      <use x="63.623047" xlink:href="#DejaVuSans-2e"/>
      <use x="95.410156" xlink:href="#DejaVuSans-30"/>
      <use x="159.033203" xlink:href="#DejaVuSans-30"/>
      <use x="222.65625" xlink:href="#DejaVuSans-30"/>
     </g>
    </g>
   </g>
   <g id="text_16">
    <g clip-path="url(#pac89778761)">
     <!-- 4.000 -->
     <g style="fill:#481668;" transform="translate(190.220446 126.714867)rotate(-344.907727)scale(0.15 -0.15)">
      <use xlink:href="#DejaVuSans-34"/>
      <use x="63.623047" xlink:href="#DejaVuSans-2e"/>
      <use x="95.410156" xlink:href="#DejaVuSans-30"/>
      <use x="159.033203" xlink:href="#DejaVuSans-30"/>
      <use x="222.65625" xlink:href="#DejaVuSans-30"/>
     </g>
    </g>
   </g>
   <g id="text_17">
    <g clip-path="url(#pac89778761)">
     <!-- 8.000 -->
     <defs>
      <path d="M 31.78125 34.625 
Q 24.75 34.625 20.71875 30.859375 
Q 16.703125 27.09375 16.703125 20.515625 
Q 16.703125 13.921875 20.71875 10.15625 
Q 24.75 6.390625 31.78125 6.390625 
Q 38.8125 6.390625 42.859375 10.171875 
Q 46.921875 13.96875 46.921875 20.515625 
Q 46.921875 27.09375 42.890625 30.859375 
Q 38.875 34.625 31.78125 34.625 
z
M 21.921875 38.8125 
Q 15.578125 40.375 12.03125 44.71875 
Q 8.5 49.078125 8.5 55.328125 
Q 8.5 64.0625 14.71875 69.140625 
Q 20.953125 74.21875 31.78125 74.21875 
Q 42.671875 74.21875 48.875 69.140625 
Q 55.078125 64.0625 55.078125 55.328125 
Q 55.078125 49.078125 51.53125 44.71875 
Q 48 40.375 41.703125 38.8125 
Q 48.828125 37.15625 52.796875 32.3125 
Q 56.78125 27.484375 56.78125 20.515625 
Q 56.78125 9.90625 50.3125 4.234375 
Q 43.84375 -1.421875 31.78125 -1.421875 
Q 19.734375 -1.421875 13.25 4.234375 
Q 6.78125 9.90625 6.78125 20.515625 
Q 6.78125 27.484375 10.78125 32.3125 
Q 14.796875 37.15625 21.921875 38.8125 
z
M 18.3125 54.390625 
Q 18.3125 48.734375 21.84375 45.5625 
Q 25.390625 42.390625 31.78125 42.390625 
Q 38.140625 42.390625 41.71875 45.5625 
Q 45.3125 48.734375 45.3125 54.390625 
Q 45.3125 60.0625 41.71875 63.234375 
Q 38.140625 66.40625 31.78125 66.40625 
Q 25.390625 66.40625 21.84375 63.234375 
Q 18.3125 60.0625 18.3125 54.390625 
z
" id="DejaVuSans-38"/>
     </defs>
     <g style="fill:#472a7a;" transform="translate(203.933756 237.054455)rotate(-346.963662)scale(0.15 -0.15)">
      <use xlink:href="#DejaVuSans-38"/>
      <use x="63.623047" xlink:href="#DejaVuSans-2e"/>
      <use x="95.410156" xlink:href="#DejaVuSans-30"/>
      <use x="159.033203" xlink:href="#DejaVuSans-30"/>
      <use x="222.65625" xlink:href="#DejaVuSans-30"/>
     </g>
    </g>
   </g>
   <g id="text_18">
    <g clip-path="url(#pac89778761)">
     <!-- 16.000 -->
     <g style="fill:#3c508b;" transform="translate(117.517449 142.837551)rotate(-286.89254)scale(0.15 -0.15)">
      <use xlink:href="#DejaVuSans-31"/>
      <use x="63.623047" xlink:href="#DejaVuSans-36"/>
      <use x="127.246094" xlink:href="#DejaVuSans-2e"/>
      <use x="159.033203" xlink:href="#DejaVuSans-30"/>
      <use x="222.65625" xlink:href="#DejaVuSans-30"/>
      <use x="286.279297" xlink:href="#DejaVuSans-30"/>
     </g>
    </g>
   </g>
   <g id="text_19">
    <g clip-path="url(#pac89778761)">
     <!-- 32.000 -->
     <g style="fill:#218f8d;" transform="translate(296.25182 314.462044)rotate(-35.715489)scale(0.15 -0.15)">
      <use xlink:href="#DejaVuSans-33"/>
      <use x="63.623047" xlink:href="#DejaVuSans-32"/>
      <use x="127.246094" xlink:href="#DejaVuSans-2e"/>
      <use x="159.033203" xlink:href="#DejaVuSans-30"/>
      <use x="222.65625" xlink:href="#DejaVuSans-30"/>
      <use x="286.279297" xlink:href="#DejaVuSans-30"/>
     </g>
    </g>
   </g>
   <g id="text_20">
    <g clip-path="url(#pac89778761)">
     <!-- 32.000 -->
     <g style="fill:#218f8d;" transform="translate(233.073742 55.986219)rotate(-324.371739)scale(0.15 -0.15)">
      <use xlink:href="#DejaVuSans-33"/>
      <use x="63.623047" xlink:href="#DejaVuSans-32"/>
      <use x="127.246094" xlink:href="#DejaVuSans-2e"/>
      <use x="159.033203" xlink:href="#DejaVuSans-30"/>
      <use x="222.65625" xlink:href="#DejaVuSans-30"/>
      <use x="286.279297" xlink:href="#DejaVuSans-30"/>
     </g>
    </g>
   </g>
   <g id="text_21">
    <!-- Iteration 20 -->
    <defs>
     <path d="M 9.8125 72.90625 
L 19.671875 72.90625 
L 19.671875 0 
L 9.8125 0 
z
" id="DejaVuSans-49"/>
     <path d="M 18.3125 70.21875 
L 18.3125 54.6875 
L 36.8125 54.6875 
L 36.8125 47.703125 
L 18.3125 47.703125 
L 18.3125 18.015625 
Q 18.3125 11.328125 20.140625 9.421875 
Q 21.96875 7.515625 27.59375 7.515625 
L 36.8125 7.515625 
L 36.8125 0 
L 27.59375 0 
Q 17.1875 0 13.234375 3.875 
Q 9.28125 7.765625 9.28125 18.015625 
L 9.28125 47.703125 
L 2.6875 47.703125 
L 2.6875 54.6875 
L 9.28125 54.6875 
L 9.28125 70.21875 
z
" id="DejaVuSans-74"/>
     <path d="M 56.203125 29.59375 
L 56.203125 25.203125 
L 14.890625 25.203125 
Q 15.484375 15.921875 20.484375 11.0625 
Q 25.484375 6.203125 34.421875 6.203125 
Q 39.59375 6.203125 44.453125 7.46875 
Q 49.3125 8.734375 54.109375 11.28125 
L 54.109375 2.78125 
Q 49.265625 0.734375 44.1875 -0.34375 
Q 39.109375 -1.421875 33.890625 -1.421875 
Q 20.796875 -1.421875 13.15625 6.1875 
Q 5.515625 13.8125 5.515625 26.8125 
Q 5.515625 40.234375 12.765625 48.109375 
Q 20.015625 56 32.328125 56 
Q 43.359375 56 49.78125 48.890625 
Q 56.203125 41.796875 56.203125 29.59375 
z
M 47.21875 32.234375 
Q 47.125 39.59375 43.09375 43.984375 
Q 39.0625 48.390625 32.421875 48.390625 
Q 24.90625 48.390625 20.390625 44.140625 
Q 15.875 39.890625 15.1875 32.171875 
z
" id="DejaVuSans-65"/>
     <path d="M 41.109375 46.296875 
Q 39.59375 47.171875 37.8125 47.578125 
Q 36.03125 48 33.890625 48 
Q 26.265625 48 22.1875 43.046875 
Q 18.109375 38.09375 18.109375 28.8125 
L 18.109375 0 
L 9.078125 0 
L 9.078125 54.6875 
L 18.109375 54.6875 
L 18.109375 46.1875 
Q 20.953125 51.171875 25.484375 53.578125 
Q 30.03125 56 36.53125 56 
Q 37.453125 56 38.578125 55.875 
Q 39.703125 55.765625 41.0625 55.515625 
z
" id="DejaVuSans-72"/>
     <path d="M 34.28125 27.484375 
Q 23.390625 27.484375 19.1875 25 
Q 14.984375 22.515625 14.984375 16.5 
Q 14.984375 11.71875 18.140625 8.90625 
Q 21.296875 6.109375 26.703125 6.109375 
Q 34.1875 6.109375 38.703125 11.40625 
Q 43.21875 16.703125 43.21875 25.484375 
L 43.21875 27.484375 
z
M 52.203125 31.203125 
L 52.203125 0 
L 43.21875 0 
L 43.21875 8.296875 
Q 40.140625 3.328125 35.546875 0.953125 
Q 30.953125 -1.421875 24.3125 -1.421875 
Q 15.921875 -1.421875 10.953125 3.296875 
Q 6 8.015625 6 15.921875 
Q 6 25.140625 12.171875 29.828125 
Q 18.359375 34.515625 30.609375 34.515625 
L 43.21875 34.515625 
L 43.21875 35.40625 
Q 43.21875 41.609375 39.140625 45 
Q 35.0625 48.390625 27.6875 48.390625 
Q 23 48.390625 18.546875 47.265625 
Q 14.109375 46.140625 10.015625 43.890625 
L 10.015625 52.203125 
Q 14.9375 54.109375 19.578125 55.046875 
Q 24.21875 56 28.609375 56 
Q 40.484375 56 46.34375 49.84375 
Q 52.203125 43.703125 52.203125 31.203125 
z
" id="DejaVuSans-61"/>
     <path d="M 9.421875 54.6875 
L 18.40625 54.6875 
L 18.40625 0 
L 9.421875 0 
z
M 9.421875 75.984375 
L 18.40625 75.984375 
L 18.40625 64.59375 
L 9.421875 64.59375 
z
" id="DejaVuSans-69"/>
     <path d="M 30.609375 48.390625 
Q 23.390625 48.390625 19.1875 42.75 
Q 14.984375 37.109375 14.984375 27.296875 
Q 14.984375 17.484375 19.15625 11.84375 
Q 23.34375 6.203125 30.609375 6.203125 
Q 37.796875 6.203125 41.984375 11.859375 
Q 46.1875 17.53125 46.1875 27.296875 
Q 46.1875 37.015625 41.984375 42.703125 
Q 37.796875 48.390625 30.609375 48.390625 
z
M 30.609375 56 
Q 42.328125 56 49.015625 48.375 
Q 55.71875 40.765625 55.71875 27.296875 
Q 55.71875 13.875 49.015625 6.21875 
Q 42.328125 -1.421875 30.609375 -1.421875 
Q 18.84375 -1.421875 12.171875 6.21875 
Q 5.515625 13.875 5.515625 27.296875 
Q 5.515625 40.765625 12.171875 48.375 
Q 18.84375 56 30.609375 56 
z
" id="DejaVuSans-6f"/>
     <path d="M 54.890625 33.015625 
L 54.890625 0 
L 45.90625 0 
L 45.90625 32.71875 
Q 45.90625 40.484375 42.875 44.328125 
Q 39.84375 48.1875 33.796875 48.1875 
Q 26.515625 48.1875 22.3125 43.546875 
Q 18.109375 38.921875 18.109375 30.90625 
L 18.109375 0 
L 9.078125 0 
L 9.078125 54.6875 
L 18.109375 54.6875 
L 18.109375 46.1875 
Q 21.34375 51.125 25.703125 53.5625 
Q 30.078125 56 35.796875 56 
Q 45.21875 56 50.046875 50.171875 
Q 54.890625 44.34375 54.890625 33.015625 
z
" id="DejaVuSans-6e"/>
     <path id="DejaVuSans-20"/>
    </defs>
    <g transform="translate(158.497869 37.2)scale(0.2 -0.2)">
     <use xlink:href="#DejaVuSans-49"/>
     <use x="29.492188" xlink:href="#DejaVuSans-74"/>
     <use x="68.701172" xlink:href="#DejaVuSans-65"/>
     <use x="130.224609" xlink:href="#DejaVuSans-72"/>
     <use x="171.337891" xlink:href="#DejaVuSans-61"/>
     <use x="232.617188" xlink:href="#DejaVuSans-74"/>
     <use x="271.826172" xlink:href="#DejaVuSans-69"/>
     <use x="299.609375" xlink:href="#DejaVuSans-6f"/>
     <use x="360.791016" xlink:href="#DejaVuSans-6e"/>
     <use x="424.169922" xlink:href="#DejaVuSans-20"/>
     <use x="455.957031" xlink:href="#DejaVuSans-32"/>
     <use x="519.580078" xlink:href="#DejaVuSans-30"/>
    </g>
   </g>
  </g>
  <g id="axes_2">
   <g id="patch_7">
    <path d="M 394.363636 315 
L 648 315 
L 648 43.2 
L 394.363636 43.2 
z
" style="fill:none;"/>
   </g>
   <g id="matplotlib.axis_3">
    <g id="xtick_7">
     <g id="line2d_25">
      <g>
       <use style="stroke:#000000;stroke-width:0.8;" x="406.684031" xlink:href="#ma481b9a6fe" y="315"/>
      </g>
     </g>
     <g id="text_22">
      <!-- −1.0 -->
      <g transform="translate(394.542625 329.598437)scale(0.1 -0.1)">
       <use xlink:href="#DejaVuSans-2212"/>
       <use x="83.789062" xlink:href="#DejaVuSans-31"/>
       <use x="147.412109" xlink:href="#DejaVuSans-2e"/>
       <use x="179.199219" xlink:href="#DejaVuSans-30"/>
      </g>
     </g>
    </g>
    <g id="xtick_8">
     <g id="line2d_26">
      <g>
       <use style="stroke:#000000;stroke-width:0.8;" x="447.658547" xlink:href="#ma481b9a6fe" y="315"/>
      </g>
     </g>
     <g id="text_23">
      <!-- −0.5 -->
      <g transform="translate(435.51714 329.598437)scale(0.1 -0.1)">
       <use xlink:href="#DejaVuSans-2212"/>
       <use x="83.789062" xlink:href="#DejaVuSans-30"/>
       <use x="147.412109" xlink:href="#DejaVuSans-2e"/>
       <use x="179.199219" xlink:href="#DejaVuSans-35"/>
      </g>
     </g>
    </g>
    <g id="xtick_9">
     <g id="line2d_27">
      <g>
       <use style="stroke:#000000;stroke-width:0.8;" x="488.633062" xlink:href="#ma481b9a6fe" y="315"/>
      </g>
     </g>
     <g id="text_24">
      <!-- 0.0 -->
      <g transform="translate(480.6815 329.598437)scale(0.1 -0.1)">
       <use xlink:href="#DejaVuSans-30"/>
       <use x="63.623047" xlink:href="#DejaVuSans-2e"/>
       <use x="95.410156" xlink:href="#DejaVuSans-30"/>
      </g>
     </g>
    </g>
    <g id="xtick_10">
     <g id="line2d_28">
      <g>
       <use style="stroke:#000000;stroke-width:0.8;" x="529.607578" xlink:href="#ma481b9a6fe" y="315"/>
      </g>
     </g>
     <g id="text_25">
      <!-- 0.5 -->
      <g transform="translate(521.656015 329.598437)scale(0.1 -0.1)">
       <use xlink:href="#DejaVuSans-30"/>
       <use x="63.623047" xlink:href="#DejaVuSans-2e"/>
       <use x="95.410156" xlink:href="#DejaVuSans-35"/>
      </g>
     </g>
    </g>
    <g id="xtick_11">
     <g id="line2d_29">
      <g>
       <use style="stroke:#000000;stroke-width:0.8;" x="570.582094" xlink:href="#ma481b9a6fe" y="315"/>
      </g>
     </g>
     <g id="text_26">
      <!-- 1.0 -->
      <g transform="translate(562.630531 329.598437)scale(0.1 -0.1)">
       <use xlink:href="#DejaVuSans-31"/>
       <use x="63.623047" xlink:href="#DejaVuSans-2e"/>
       <use x="95.410156" xlink:href="#DejaVuSans-30"/>
      </g>
     </g>
    </g>
    <g id="xtick_12">
     <g id="line2d_30">
      <g>
       <use style="stroke:#000000;stroke-width:0.8;" x="611.556609" xlink:href="#ma481b9a6fe" y="315"/>
      </g>
     </g>
     <g id="text_27">
      <!-- 1.5 -->
      <g transform="translate(603.605047 329.598437)scale(0.1 -0.1)">
       <use xlink:href="#DejaVuSans-31"/>
       <use x="63.623047" xlink:href="#DejaVuSans-2e"/>
       <use x="95.410156" xlink:href="#DejaVuSans-35"/>
      </g>
     </g>
    </g>
    <g id="text_28">
     <!-- $x$ -->
     <defs>
      <path d="M 60.015625 54.6875 
L 34.90625 27.875 
L 50.296875 0 
L 39.984375 0 
L 28.421875 21.6875 
L 8.296875 0 
L -2.59375 0 
L 24.3125 28.8125 
L 10.015625 54.6875 
L 20.3125 54.6875 
L 30.8125 34.90625 
L 49.125 54.6875 
z
" id="DejaVuSans-Oblique-78"/>
     </defs>
     <g transform="translate(515.181818 350.875)scale(0.2 -0.2)">
      <use transform="translate(0 0.3125)" xlink:href="#DejaVuSans-Oblique-78"/>
     </g>
    </g>
   </g>
   <g id="matplotlib.axis_4">
    <g id="ytick_7">
     <g id="line2d_31">
      <g>
       <use style="stroke:#000000;stroke-width:0.8;" x="394.363636" xlink:href="#m2ae2e4f14c" y="315"/>
      </g>
     </g>
     <g id="text_29">
      <!-- −9 -->
      <defs>
       <path d="M 10.984375 1.515625 
L 10.984375 10.5 
Q 14.703125 8.734375 18.5 7.8125 
Q 22.3125 6.890625 25.984375 6.890625 
Q 35.75 6.890625 40.890625 13.453125 
Q 46.046875 20.015625 46.78125 33.40625 
Q 43.953125 29.203125 39.59375 26.953125 
Q 35.25 24.703125 29.984375 24.703125 
Q 19.046875 24.703125 12.671875 31.3125 
Q 6.296875 37.9375 6.296875 49.421875 
Q 6.296875 60.640625 12.9375 67.421875 
Q 19.578125 74.21875 30.609375 74.21875 
Q 43.265625 74.21875 49.921875 64.515625 
Q 56.59375 54.828125 56.59375 36.375 
Q 56.59375 19.140625 48.40625 8.859375 
Q 40.234375 -1.421875 26.421875 -1.421875 
Q 22.703125 -1.421875 18.890625 -0.6875 
Q 15.09375 0.046875 10.984375 1.515625 
z
M 30.609375 32.421875 
Q 37.25 32.421875 41.125 36.953125 
Q 45.015625 41.5 45.015625 49.421875 
Q 45.015625 57.28125 41.125 61.84375 
Q 37.25 66.40625 30.609375 66.40625 
Q 23.96875 66.40625 20.09375 61.84375 
Q 16.21875 57.28125 16.21875 49.421875 
Q 16.21875 41.5 20.09375 36.953125 
Q 23.96875 32.421875 30.609375 32.421875 
z
" id="DejaVuSans-39"/>
      </defs>
      <g transform="translate(372.621449 318.799219)scale(0.1 -0.1)">
       <use xlink:href="#DejaVuSans-2212"/>
       <use x="83.789062" xlink:href="#DejaVuSans-39"/>
      </g>
     </g>
    </g>
    <g id="ytick_8">
     <g id="line2d_32">
      <g>
       <use style="stroke:#000000;stroke-width:0.8;" x="394.363636" xlink:href="#m2ae2e4f14c" y="281.025"/>
      </g>
     </g>
     <g id="text_30">
      <!-- −8 -->
      <g transform="translate(372.621449 284.824219)scale(0.1 -0.1)">
       <use xlink:href="#DejaVuSans-2212"/>
       <use x="83.789062" xlink:href="#DejaVuSans-38"/>
      </g>
     </g>
    </g>
    <g id="ytick_9">
     <g id="line2d_33">
      <g>
       <use style="stroke:#000000;stroke-width:0.8;" x="394.363636" xlink:href="#m2ae2e4f14c" y="247.05"/>
      </g>
     </g>
     <g id="text_31">
      <!-- −7 -->
      <defs>
       <path d="M 8.203125 72.90625 
L 55.078125 72.90625 
L 55.078125 68.703125 
L 28.609375 0 
L 18.3125 0 
L 43.21875 64.59375 
L 8.203125 64.59375 
z
" id="DejaVuSans-37"/>
      </defs>
      <g transform="translate(372.621449 250.849219)scale(0.1 -0.1)">
       <use xlink:href="#DejaVuSans-2212"/>
       <use x="83.789062" xlink:href="#DejaVuSans-37"/>
      </g>
     </g>
    </g>
    <g id="ytick_10">
     <g id="line2d_34">
      <g>
       <use style="stroke:#000000;stroke-width:0.8;" x="394.363636" xlink:href="#m2ae2e4f14c" y="213.075"/>
      </g>
     </g>
     <g id="text_32">
      <!-- −6 -->
      <g transform="translate(372.621449 216.874219)scale(0.1 -0.1)">
       <use xlink:href="#DejaVuSans-2212"/>
       <use x="83.789062" xlink:href="#DejaVuSans-36"/>
      </g>
     </g>
    </g>
    <g id="ytick_11">
     <g id="line2d_35">
      <g>
       <use style="stroke:#000000;stroke-width:0.8;" x="394.363636" xlink:href="#m2ae2e4f14c" y="179.1"/>
      </g>
     </g>
     <g id="text_33">
      <!-- −5 -->
      <g transform="translate(372.621449 182.899219)scale(0.1 -0.1)">
       <use xlink:href="#DejaVuSans-2212"/>
       <use x="83.789062" xlink:href="#DejaVuSans-35"/>
      </g>
     </g>
    </g>
    <g id="ytick_12">
     <g id="line2d_36">
      <g>
       <use style="stroke:#000000;stroke-width:0.8;" x="394.363636" xlink:href="#m2ae2e4f14c" y="145.125"/>
      </g>
     </g>
     <g id="text_34">
      <!-- −4 -->
      <g transform="translate(372.621449 148.924219)scale(0.1 -0.1)">
       <use xlink:href="#DejaVuSans-2212"/>
       <use x="83.789062" xlink:href="#DejaVuSans-34"/>
      </g>
     </g>
    </g>
    <g id="ytick_13">
     <g id="line2d_37">
      <g>
       <use style="stroke:#000000;stroke-width:0.8;" x="394.363636" xlink:href="#m2ae2e4f14c" y="111.15"/>
      </g>
     </g>
     <g id="text_35">
      <!-- −3 -->
      <g transform="translate(372.621449 114.949219)scale(0.1 -0.1)">
       <use xlink:href="#DejaVuSans-2212"/>
       <use x="83.789062" xlink:href="#DejaVuSans-33"/>
      </g>
     </g>
    </g>
    <g id="ytick_14">
     <g id="line2d_38">
      <g>
       <use style="stroke:#000000;stroke-width:0.8;" x="394.363636" xlink:href="#m2ae2e4f14c" y="77.175"/>
      </g>
     </g>
     <g id="text_36">
      <!-- −2 -->
      <g transform="translate(372.621449 80.974219)scale(0.1 -0.1)">
       <use xlink:href="#DejaVuSans-2212"/>
       <use x="83.789062" xlink:href="#DejaVuSans-32"/>
      </g>
     </g>
    </g>
    <g id="ytick_15">
     <g id="line2d_39">
      <g>
       <use style="stroke:#000000;stroke-width:0.8;" x="394.363636" xlink:href="#m2ae2e4f14c" y="43.2"/>
      </g>
     </g>
     <g id="text_37">
      <!-- −1 -->
      <g transform="translate(372.621449 46.999219)scale(0.1 -0.1)">
       <use xlink:href="#DejaVuSans-2212"/>
       <use x="83.789062" xlink:href="#DejaVuSans-31"/>
      </g>
     </g>
    </g>
    <g id="text_38">
     <!-- $y$ -->
     <defs>
      <path d="M 24.8125 -5.078125 
Q 18.5625 -15.578125 14.625 -18.1875 
Q 10.6875 -20.796875 4.59375 -20.796875 
L -2.484375 -20.796875 
L -0.984375 -13.28125 
L 4.203125 -13.28125 
Q 7.953125 -13.28125 10.59375 -11.234375 
Q 13.234375 -9.1875 16.5 -3.21875 
L 19.28125 2 
L 7.171875 54.6875 
L 16.703125 54.6875 
L 25.78125 12.796875 
L 50.875 54.6875 
L 60.296875 54.6875 
z
" id="DejaVuSans-Oblique-79"/>
     </defs>
     <g transform="translate(364.421449 185.1)rotate(-90)scale(0.2 -0.2)">
      <use transform="translate(0 0.3125)" xlink:href="#DejaVuSans-Oblique-79"/>
     </g>
    </g>
   </g>
   <g id="line2d_40">
    <defs>
     <path d="M 0 2.5 
C 0.663008 2.5 1.29895 2.236584 1.767767 1.767767 
C 2.236584 1.29895 2.5 0.663008 2.5 0 
C 2.5 -0.663008 2.236584 -1.29895 1.767767 -1.767767 
C 1.29895 -2.236584 0.663008 -2.5 0 -2.5 
C -0.663008 -2.5 -1.29895 -2.236584 -1.767767 -1.767767 
C -2.236584 -1.29895 -2.5 -0.663008 -2.5 0 
C -2.5 0.663008 -2.236584 1.29895 -1.767767 1.767767 
C -1.29895 2.236584 -0.663008 2.5 0 2.5 
z
" id="m95d9b52022" style="stroke:#ff0000;"/>
    </defs>
    <g clip-path="url(#pe0cb9b2d32)">
     <use style="fill:#ff0000;stroke:#ff0000;" x="625.990233" xlink:href="#m95d9b52022" y="24.242965"/>
     <use style="fill:#ff0000;stroke:#ff0000;" x="416.373403" xlink:href="#m95d9b52022" y="143.289768"/>
     <use style="fill:#ff0000;stroke:#ff0000;" x="515.035118" xlink:href="#m95d9b52022" y="114.053994"/>
     <use style="fill:#ff0000;stroke:#ff0000;" x="520.429844" xlink:href="#m95d9b52022" y="85.918698"/>
    </g>
   </g>
   <g id="line2d_41">
    <path clip-path="url(#pe0cb9b2d32)" d="M 405.892562 185.037082 
L 636.471074 96.953384 
" style="fill:none;stroke:#0000ff;stroke-linecap:square;stroke-width:3;"/>
   </g>
   <g id="patch_8">
    <path d="M 394.363636 315 
L 394.363636 43.2 
" style="fill:none;stroke:#000000;stroke-linecap:square;stroke-linejoin:miter;stroke-width:0.8;"/>
   </g>
   <g id="patch_9">
    <path d="M 648 315 
L 648 43.2 
" style="fill:none;stroke:#000000;stroke-linecap:square;stroke-linejoin:miter;stroke-width:0.8;"/>
   </g>
   <g id="patch_10">
    <path d="M 394.363636 315 
L 648 315 
" style="fill:none;stroke:#000000;stroke-linecap:square;stroke-linejoin:miter;stroke-width:0.8;"/>
   </g>
   <g id="patch_11">
    <path d="M 394.363636 43.2 
L 648 43.2 
" style="fill:none;stroke:#000000;stroke-linecap:square;stroke-linejoin:miter;stroke-width:0.8;"/>
   </g>
   <g id="text_39">
    <!-- Best Fit -->
    <defs>
     <path d="M 19.671875 34.8125 
L 19.671875 8.109375 
L 35.5 8.109375 
Q 43.453125 8.109375 47.28125 11.40625 
Q 51.125 14.703125 51.125 21.484375 
Q 51.125 28.328125 47.28125 31.5625 
Q 43.453125 34.8125 35.5 34.8125 
z
M 19.671875 64.796875 
L 19.671875 42.828125 
L 34.28125 42.828125 
Q 41.5 42.828125 45.03125 45.53125 
Q 48.578125 48.25 48.578125 53.8125 
Q 48.578125 59.328125 45.03125 62.0625 
Q 41.5 64.796875 34.28125 64.796875 
z
M 9.8125 72.90625 
L 35.015625 72.90625 
Q 46.296875 72.90625 52.390625 68.21875 
Q 58.5 63.53125 58.5 54.890625 
Q 58.5 48.1875 55.375 44.234375 
Q 52.25 40.28125 46.1875 39.3125 
Q 53.46875 37.75 57.5 32.78125 
Q 61.53125 27.828125 61.53125 20.40625 
Q 61.53125 10.640625 54.890625 5.3125 
Q 48.25 0 35.984375 0 
L 9.8125 0 
z
" id="DejaVuSans-42"/>
     <path d="M 44.28125 53.078125 
L 44.28125 44.578125 
Q 40.484375 46.53125 36.375 47.5 
Q 32.28125 48.484375 27.875 48.484375 
Q 21.1875 48.484375 17.84375 46.4375 
Q 14.5 44.390625 14.5 40.28125 
Q 14.5 37.15625 16.890625 35.375 
Q 19.28125 33.59375 26.515625 31.984375 
L 29.59375 31.296875 
Q 39.15625 29.25 43.1875 25.515625 
Q 47.21875 21.78125 47.21875 15.09375 
Q 47.21875 7.46875 41.1875 3.015625 
Q 35.15625 -1.421875 24.609375 -1.421875 
Q 20.21875 -1.421875 15.453125 -0.5625 
Q 10.6875 0.296875 5.421875 2 
L 5.421875 11.28125 
Q 10.40625 8.6875 15.234375 7.390625 
Q 20.0625 6.109375 24.8125 6.109375 
Q 31.15625 6.109375 34.5625 8.28125 
Q 37.984375 10.453125 37.984375 14.40625 
Q 37.984375 18.0625 35.515625 20.015625 
Q 33.0625 21.96875 24.703125 23.78125 
L 21.578125 24.515625 
Q 13.234375 26.265625 9.515625 29.90625 
Q 5.8125 33.546875 5.8125 39.890625 
Q 5.8125 47.609375 11.28125 51.796875 
Q 16.75 56 26.8125 56 
Q 31.78125 56 36.171875 55.265625 
Q 40.578125 54.546875 44.28125 53.078125 
z
" id="DejaVuSans-73"/>
     <path d="M 9.8125 72.90625 
L 51.703125 72.90625 
L 51.703125 64.59375 
L 19.671875 64.59375 
L 19.671875 43.109375 
L 48.578125 43.109375 
L 48.578125 34.8125 
L 19.671875 34.8125 
L 19.671875 0 
L 9.8125 0 
z
" id="DejaVuSans-46"/>
    </defs>
    <g transform="translate(483.420881 37.2)scale(0.2 -0.2)">
     <use xlink:href="#DejaVuSans-42"/>
     <use x="68.603516" xlink:href="#DejaVuSans-65"/>
     <use x="130.126953" xlink:href="#DejaVuSans-73"/>
     <use x="182.226562" xlink:href="#DejaVuSans-74"/>
     <use x="221.435547" xlink:href="#DejaVuSans-20"/>
     <use x="253.222656" xlink:href="#DejaVuSans-46"/>
     <use x="310.632812" xlink:href="#DejaVuSans-69"/>
     <use x="338.416016" xlink:href="#DejaVuSans-74"/>
    </g>
   </g>
  </g>
 </g>
 <defs>
  <clipPath id="pac89778761">
   <rect height="271.8" width="253.636364" x="90" y="43.2"/>
  </clipPath>
  <clipPath id="pe0cb9b2d32">
   <rect height="271.8" width="253.636364" x="394.363636" y="43.2"/>
  </clipPath>
 </defs>
</svg>
