<?xml version="1.0" encoding="utf-8" standalone="no"?>
<!DOCTYPE svg PUBLIC "-//W3C//DTD SVG 1.1//EN"
  "http://www.w3.org/Graphics/SVG/1.1/DTD/svg11.dtd">
<!-- Created with matplotlib (https://matplotlib.org/) -->
<svg height="425.19685pt" version="1.1" viewBox="0 0 283.464567 425.19685" width="283.464567pt" xmlns="http://www.w3.org/2000/svg" xmlns:xlink="http://www.w3.org/1999/xlink">
 <defs>
  <style type="text/css">
*{stroke-linecap:butt;stroke-linejoin:round;}
  </style>
 </defs>
 <g id="figure_1">
  <g id="patch_1">
   <path d="M 0 425.19685 
L 283.464567 425.19685 
L 283.464567 0 
L 0 0 
z
" style="fill:none;"/>
  </g>
  <g id="axes_1">
   <g id="patch_2">
    <path clip-path="url(#pef9d317e7a)" d="M 70.866142 381.259843 
C 78.007832 381.259843 84.857978 378.422419 89.907915 373.372482 
C 94.957852 368.322545 97.795276 361.472398 97.795276 354.330709 
C 97.795276 347.189019 94.957852 340.338873 89.907915 335.288935 
C 84.857978 330.238998 78.007832 327.401575 70.866142 327.401575 
C 63.724452 327.401575 56.874306 330.238998 51.824369 335.288935 
C 46.774431 340.338873 43.937008 347.189019 43.937008 354.330709 
C 43.937008 361.472398 46.774431 368.322545 51.824369 373.372482 
C 56.874306 378.422419 63.724452 381.259843 70.866142 381.259843 
z
" style="fill:#b2b2b2;stroke:#000000;stroke-linejoin:miter;stroke-width:3;"/>
   </g>
   <g id="patch_3">
    <path clip-path="url(#pef9d317e7a)" d="M 70.866142 381.259843 
C 78.007832 381.259843 84.857978 378.422419 89.907915 373.372482 
C 94.957852 368.322545 97.795276 361.472398 97.795276 354.330709 
C 97.795276 347.189019 94.957852 340.338873 89.907915 335.288935 
C 84.857978 330.238998 78.007832 327.401575 70.866142 327.401575 
C 63.724452 327.401575 56.874306 330.238998 51.824369 335.288935 
C 46.774431 340.338873 43.937008 347.189019 43.937008 354.330709 
C 43.937008 361.472398 46.774431 368.322545 51.824369 373.372482 
C 56.874306 378.422419 63.724452 381.259843 70.866142 381.259843 
z
" style="fill:none;stroke:#000000;stroke-linejoin:miter;stroke-width:3;"/>
   </g>
   <g id="patch_4">
    <path clip-path="url(#pef9d317e7a)" d="M 70.866142 239.527559 
C 78.007832 239.527559 84.857978 236.690136 89.907915 231.640198 
C 94.957852 226.590261 97.795276 219.740115 97.795276 212.598425 
C 97.795276 205.456735 94.957852 198.606589 89.907915 193.556652 
C 84.857978 188.506715 78.007832 185.669291 70.866142 185.669291 
C 63.724452 185.669291 56.874306 188.506715 51.824369 193.556652 
C 46.774431 198.606589 43.937008 205.456735 43.937008 212.598425 
C 43.937008 219.740115 46.774431 226.590261 51.824369 231.640198 
C 56.874306 236.690136 63.724452 239.527559 70.866142 239.527559 
z
" style="fill:none;stroke:#000000;stroke-linejoin:miter;stroke-width:3;"/>
   </g>
   <g id="patch_5">
    <path clip-path="url(#pef9d317e7a)" d="M 212.598425 381.259843 
C 219.740115 381.259843 226.590261 378.422419 231.640198 373.372482 
C 236.690136 368.322545 239.527559 361.472398 239.527559 354.330709 
C 239.527559 347.189019 236.690136 340.338873 231.640198 335.288935 
C 226.590261 330.238998 219.740115 327.401575 212.598425 327.401575 
C 205.456735 327.401575 198.606589 330.238998 193.556652 335.288935 
C 188.506715 340.338873 185.669291 347.189019 185.669291 354.330709 
C 185.669291 361.472398 188.506715 368.322545 193.556652 373.372482 
C 198.606589 378.422419 205.456735 381.259843 212.598425 381.259843 
z
" style="fill:none;stroke:#000000;stroke-linejoin:miter;stroke-width:3;"/>
   </g>
   <g id="patch_6">
    <path clip-path="url(#pef9d317e7a)" d="M 212.598425 239.527559 
C 219.740115 239.527559 226.590261 236.690136 231.640198 231.640198 
C 236.690136 226.590261 239.527559 219.740115 239.527559 212.598425 
C 239.527559 205.456735 236.690136 198.606589 231.640198 193.556652 
C 226.590261 188.506715 219.740115 185.669291 212.598425 185.669291 
C 205.456735 185.669291 198.606589 188.506715 193.556652 193.556652 
C 188.506715 198.606589 185.669291 205.456735 185.669291 212.598425 
C 185.669291 219.740115 188.506715 226.590261 193.556652 231.640198 
C 198.606589 236.690136 205.456735 239.527559 212.598425 239.527559 
z
" style="fill:none;stroke:#000000;stroke-linejoin:miter;stroke-width:3;"/>
   </g>
   <g id="matplotlib.axis_1"/>
   <g id="matplotlib.axis_2"/>
   <g id="line2d_1">
    <path clip-path="url(#pef9d317e7a)" d="M 70.866142 239.527559 
L 70.866142 327.401575 
" style="fill:none;stroke:#000000;stroke-linecap:square;stroke-width:3;"/>
   </g>
   <g id="line2d_2">
    <path clip-path="url(#pef9d317e7a)" d="M 193.556652 231.640198 
L 89.907915 335.288935 
" style="fill:none;stroke:#000000;stroke-linecap:square;stroke-width:3;"/>
   </g>
   <g id="line2d_3">
    <path clip-path="url(#pef9d317e7a)" d="M 97.795276 212.598425 
L 185.669291 212.598425 
" style="fill:none;stroke:#000000;stroke-linecap:square;stroke-width:3;"/>
   </g>
   <g id="line2d_4">
    <path clip-path="url(#pef9d317e7a)" d="M 185.669291 354.330709 
L 97.795276 354.330709 
" style="fill:none;stroke:#000000;stroke-linecap:square;stroke-width:3;"/>
   </g>
   <g id="line2d_5">
    <path clip-path="url(#pef9d317e7a)" d="M 212.598425 239.527559 
L 212.598425 327.401575 
" style="fill:none;stroke:#000000;stroke-linecap:square;stroke-width:3;"/>
   </g>
   <g id="line2d_6">
    <path clip-path="url(#pef9d317e7a)" d="M 89.907915 231.640198 
L 193.556652 335.288935 
" style="fill:none;stroke:#000000;stroke-linecap:square;stroke-width:3;"/>
   </g>
   <g id="text_1">
    <!-- $\mathbf{y}$ -->
    <defs>
     <path d="M 49.5 37.5 
C 50.09375 38.890625 50.5 39.6875 56.90625 39.6875 
L 56.90625 44 
C 53.5 43.796875 53.09375 43.796875 49 43.796875 
C 46.296875 43.796875 46.09375 43.796875 40.40625 44 
L 40.40625 39.6875 
C 40.5 39.6875 45.203125 39.6875 45.203125 38.390625 
C 45.203125 38.09375 44.90625 37.5 44.796875 37.203125 
L 33.09375 12.1875 
L 20.296875 39.6875 
L 25.796875 39.6875 
L 25.796875 44 
C 23.40625 43.796875 16.59375 43.796875 13.796875 43.796875 
C 10.90625 43.796875 5 43.796875 2.40625 44 
L 2.40625 39.6875 
L 8.796875 39.6875 
L 27.296875 -0.125 
C 26.796875 -1.3125 25.40625 -4.203125 24.90625 -5.390625 
C 22.796875 -9.859375 19.59375 -16.703125 12.59375 -16.703125 
C 12.203125 -16.703125 11 -16.703125 9.90625 -16.109375 
C 10.09375 -16.015625 13.09375 -14.828125 13.09375 -11.046875 
C 13.09375 -7.765625 10.703125 -5.6875 7.703125 -5.6875 
C 4.59375 -5.6875 2.203125 -7.765625 2.203125 -11.140625 
C 2.203125 -15.8125 6.59375 -20 12.59375 -20 
C 20.796875 -20 26.203125 -12.640625 28.203125 -8.265625 
z
" id="CMBX12-121"/>
    </defs>
    <g transform="translate(61.993165 361.795209)scale(0.3 -0.3)">
     <use transform="scale(0.996264)" xlink:href="#CMBX12-121"/>
    </g>
   </g>
   <g id="text_2">
    <!-- $\mathbf{u}$ -->
    <defs>
     <path d="M 35.296875 44.1875 
L 35.296875 39.890625 
C 41.5 39.890625 42.203125 39.890625 42.203125 35.953125 
L 42.203125 16.140625 
C 42.203125 8.453125 37.703125 2.296875 29.90625 2.296875 
C 22.40625 2.296875 22 4.8125 22 10.375 
L 22 45 
L 4.203125 44.1875 
L 4.203125 39.890625 
C 10.40625 39.890625 11.09375 39.890625 11.09375 35.953125 
L 11.09375 12 
C 11.09375 1.890625 17.796875 -1 28.5 -1 
C 30.90625 -1 38.296875 -1 42.59375 7.140625 
L 42.703125 7.140625 
L 42.703125 -1 
L 60 -0.40625 
L 60 3.90625 
C 53.796875 3.90625 53.09375 3.90625 53.09375 7.84375 
L 53.09375 45 
z
" id="CMBX12-117"/>
    </defs>
    <g transform="translate(61.526167 220.062926)scale(0.3 -0.3)">
     <use transform="scale(0.996264)" xlink:href="#CMBX12-117"/>
    </g>
   </g>
   <g id="text_3">
    <!-- $\mathbf{y}^*$ -->
    <defs>
     <path d="M 27.5 43.15625 
C 27.59375 44.578125 27.59375 47 25 47 
C 23.40625 47 22.09375 45.6875 22.40625 44.375 
L 22.40625 43.046875 
L 23.796875 27.1875 
L 11 36.703125 
C 10.09375 37.21875 9.90625 37.421875 9.203125 37.421875 
C 7.796875 37.421875 6.5 35.984375 6.5 34.5625 
C 6.5 32.921875 7.5 32.515625 8.5 32 
L 22.703125 25.046875 
L 8.90625 18.1875 
C 7.296875 17.375 6.5 16.953125 6.5 15.421875 
C 6.5 13.890625 7.796875 12.5625 9.203125 12.5625 
C 9.90625 12.5625 10.09375 12.5625 12.59375 14.5 
L 23.796875 22.796875 
L 22.296875 5.609375 
C 22.296875 3.5 24.09375 3 24.90625 3 
C 26.09375 3 27.59375 3.6875 27.59375 5.609375 
L 26.09375 22.796875 
L 38.90625 13.28125 
C 39.796875 12.765625 40 12.5625 40.703125 12.5625 
C 42.09375 12.5625 43.40625 14 43.40625 15.421875 
C 43.40625 16.953125 42.5 17.46875 41.296875 18.078125 
C 35.296875 21.15625 35.09375 21.15625 27.203125 24.9375 
L 41 31.796875 
C 42.59375 32.609375 43.40625 33.015625 43.40625 34.5625 
C 43.40625 36.09375 42.09375 37.421875 40.703125 37.421875 
C 40 37.421875 39.796875 37.421875 37.296875 35.484375 
L 26.09375 27.1875 
z
" id="CMSY10-3"/>
    </defs>
    <g transform="translate(198.261571 361.795209)scale(0.3 -0.3)">
     <use transform="scale(0.996264)" xlink:href="#CMBX12-121"/>
     <use transform="translate(60.709838 36.153639)scale(0.697382)" xlink:href="#CMSY10-3"/>
    </g>
   </g>
   <g id="text_4">
    <!-- $\mathbf{u}^*$ -->
    <g transform="translate(198.028072 220.062926)scale(0.3 -0.3)">
     <use transform="scale(0.996264)" xlink:href="#CMBX12-117"/>
     <use transform="translate(62.266501 36.153639)scale(0.697382)" xlink:href="#CMSY10-3"/>
    </g>
   </g>
  </g>
 </g>
 <defs>
  <clipPath id="pef9d317e7a">
   <rect height="425.19685" width="283.464567" x="0" y="0"/>
  </clipPath>
 </defs>
</svg>
