<?xml version="1.0" encoding="utf-8" standalone="no"?>
<!DOCTYPE svg PUBLIC "-//W3C//DTD SVG 1.1//EN"
  "http://www.w3.org/Graphics/SVG/1.1/DTD/svg11.dtd">
<!-- Created with matplotlib (https://matplotlib.org/) -->
<svg height="425.19685pt" version="1.1" viewBox="0 0 283.464567 425.19685" width="283.464567pt" xmlns="http://www.w3.org/2000/svg" xmlns:xlink="http://www.w3.org/1999/xlink">
 <defs>
  <style type="text/css">
*{stroke-linecap:butt;stroke-linejoin:round;}
  </style>
 </defs>
 <g id="figure_1">
  <g id="patch_1">
   <path d="M 0 425.19685 
L 283.464567 425.19685 
L 283.464567 0 
L 0 0 
z
" style="fill:none;"/>
  </g>
  <g id="axes_1">
   <g id="patch_2">
    <path clip-path="url(#pfbf16d1335)" d="M 70.866142 381.259843 
C 78.007832 381.259843 84.857978 378.422419 89.907915 373.372482 
C 94.957852 368.322545 97.795276 361.472398 97.795276 354.330709 
C 97.795276 347.189019 94.957852 340.338873 89.907915 335.288935 
C 84.857978 330.238998 78.007832 327.401575 70.866142 327.401575 
C 63.724452 327.401575 56.874306 330.238998 51.824369 335.288935 
C 46.774431 340.338873 43.937008 347.189019 43.937008 354.330709 
C 43.937008 361.472398 46.774431 368.322545 51.824369 373.372482 
C 56.874306 378.422419 63.724452 381.259843 70.866142 381.259843 
z
" style="fill:#b2b2b2;stroke:#000000;stroke-linejoin:miter;stroke-width:3;"/>
   </g>
   <g id="patch_3">
    <path clip-path="url(#pfbf16d1335)" d="M 70.866142 381.259843 
C 78.007832 381.259843 84.857978 378.422419 89.907915 373.372482 
C 94.957852 368.322545 97.795276 361.472398 97.795276 354.330709 
C 97.795276 347.189019 94.957852 340.338873 89.907915 335.288935 
C 84.857978 330.238998 78.007832 327.401575 70.866142 327.401575 
C 63.724452 327.401575 56.874306 330.238998 51.824369 335.288935 
C 46.774431 340.338873 43.937008 347.189019 43.937008 354.330709 
C 43.937008 361.472398 46.774431 368.322545 51.824369 373.372482 
C 56.874306 378.422419 63.724452 381.259843 70.866142 381.259843 
z
" style="fill:none;stroke:#000000;stroke-linejoin:miter;stroke-width:3;"/>
   </g>
   <g id="matplotlib.axis_1"/>
   <g id="matplotlib.axis_2"/>
   <g id="text_1">
    <!-- $\mathbf{y}$ -->
    <defs>
     <path d="M 49.5 37.5 
C 50.09375 38.890625 50.5 39.6875 56.90625 39.6875 
L 56.90625 44 
C 53.5 43.796875 53.09375 43.796875 49 43.796875 
C 46.296875 43.796875 46.09375 43.796875 40.40625 44 
L 40.40625 39.6875 
C 40.5 39.6875 45.203125 39.6875 45.203125 38.390625 
C 45.203125 38.09375 44.90625 37.5 44.796875 37.203125 
L 33.09375 12.1875 
L 20.296875 39.6875 
L 25.796875 39.6875 
L 25.796875 44 
C 23.40625 43.796875 16.59375 43.796875 13.796875 43.796875 
C 10.90625 43.796875 5 43.796875 2.40625 44 
L 2.40625 39.6875 
L 8.796875 39.6875 
L 27.296875 -0.125 
C 26.796875 -1.3125 25.40625 -4.203125 24.90625 -5.390625 
C 22.796875 -9.859375 19.59375 -16.703125 12.59375 -16.703125 
C 12.203125 -16.703125 11 -16.703125 9.90625 -16.109375 
C 10.09375 -16.015625 13.09375 -14.828125 13.09375 -11.046875 
C 13.09375 -7.765625 10.703125 -5.6875 7.703125 -5.6875 
C 4.59375 -5.6875 2.203125 -7.765625 2.203125 -11.140625 
C 2.203125 -15.8125 6.59375 -20 12.59375 -20 
C 20.796875 -20 26.203125 -12.640625 28.203125 -8.265625 
z
" id="CMBX12-121"/>
    </defs>
    <g transform="translate(61.993165 361.795209)scale(0.3 -0.3)">
     <use transform="scale(0.996264)" xlink:href="#CMBX12-121"/>
    </g>
   </g>
  </g>
 </g>
 <defs>
  <clipPath id="pfbf16d1335">
   <rect height="425.19685" width="283.464567" x="0" y="0"/>
  </clipPath>
 </defs>
</svg>
