<?xml version="1.0" encoding="utf-8" standalone="no"?>
<!DOCTYPE svg PUBLIC "-//W3C//DTD SVG 1.1//EN"
  "http://www.w3.org/Graphics/SVG/1.1/DTD/svg11.dtd">
<!-- Created with matplotlib (http://matplotlib.org/) -->
<svg height="360pt" version="1.1" viewBox="0 0 360 360" width="360pt" xmlns="http://www.w3.org/2000/svg" xmlns:xlink="http://www.w3.org/1999/xlink">
 <defs>
  <style type="text/css">
*{stroke-linecap:butt;stroke-linejoin:round;}
  </style>
 </defs>
 <g id="figure_1">
  <g id="patch_1">
   <path d="M 0 360 
L 360 360 
L 360 0 
L 0 0 
z
" style="fill:none;"/>
  </g>
  <g id="axes_1">
   <g id="patch_2">
    <path d="M 45 315 
L 324 315 
L 324 43.2 
L 45 43.2 
z
" style="fill:none;"/>
   </g>
   <g id="patch_3">
    <path clip-path="url(#pb15c17ba46)" d="M 57.681818 181.23324 
L 58.956373 180.846507 
L 60.230927 180.441035 
L 61.505482 180.016986 
L 62.780037 179.574538 
L 64.054591 179.113872 
L 65.329146 178.635184 
L 66.6037 178.138674 
L 67.878255 177.624555 
L 69.15281 177.093046 
L 70.427364 176.544377 
L 71.701919 175.978783 
L 72.976473 175.396512 
L 74.251028 174.797816 
L 75.525582 174.182958 
L 76.800137 173.552207 
L 78.074692 172.905842 
L 79.349246 172.244148 
L 80.623801 171.567419 
L 81.898355 170.875955 
L 83.17291 170.170066 
L 84.447465 169.450067 
L 85.722019 168.716283 
L 86.996574 167.969046 
L 88.271128 167.208696 
L 89.545683 166.43558 
L 90.820238 165.650055 
L 92.094792 164.852485 
L 93.369347 164.043245 
L 94.643901 163.222718 
L 95.918456 162.391296 
L 97.193011 161.549383 
L 98.467565 160.697393 
L 99.74212 159.835753 
L 101.016674 158.9649 
L 102.291229 158.085287 
L 103.565783 157.19738 
L 104.840338 156.301659 
L 106.114893 155.398623 
L 107.389447 154.488784 
L 108.664002 153.572676 
L 109.938556 152.65085 
L 111.213111 151.723876 
L 112.487666 150.792348 
L 113.76222 149.856878 
L 115.036775 148.918103 
L 116.311329 147.976682 
L 117.585884 147.033295 
L 118.860439 146.088649 
L 120.134993 145.143471 
L 121.409548 144.198512 
L 122.684102 143.254546 
L 123.958657 142.312365 
L 125.233212 141.372786 
L 126.507766 140.436641 
L 127.782321 139.504779 
L 129.056875 138.578068 
L 130.33143 137.657384 
L 131.605984 136.743617 
L 132.880539 135.837663 
L 134.155094 134.940427 
L 135.429648 134.052813 
L 136.704203 133.175728 
L 137.978757 132.310074 
L 139.253312 131.456752 
L 140.527867 130.616651 
L 141.802421 129.790651 
L 143.076976 128.979621 
L 144.35153 128.184413 
L 145.626085 127.405863 
L 146.90064 126.644789 
L 148.175194 125.901986 
L 149.449749 125.178229 
L 150.724303 124.474268 
L 151.998858 123.790829 
L 153.273413 123.128612 
L 154.547967 122.48829 
L 155.822522 121.870511 
L 157.097076 121.275891 
L 158.371631 120.70502 
L 159.646185 120.15846 
L 160.92074 119.636743 
L 162.195295 119.140372 
L 163.469849 118.66982 
L 164.744404 118.225534 
L 166.018958 117.807928 
L 167.293513 117.417389 
L 168.568068 117.054276 
L 169.842622 116.718919 
L 171.117177 116.411617 
L 172.391731 116.132644 
L 173.666286 115.882244 
L 174.940841 115.660635 
L 176.215395 115.468004 
L 177.48995 115.304515 
L 178.764504 115.1703 
L 180.039059 115.065468 
L 181.313614 114.990098 
L 182.588168 114.944243 
L 183.862723 114.927929 
L 185.137277 114.941157 
L 186.411832 114.983898 
L 187.686386 115.0561 
L 188.960941 115.157681 
L 190.235496 115.288534 
L 191.51005 115.448526 
L 192.784605 115.637495 
L 194.059159 115.855254 
L 195.333714 116.101588 
L 196.608269 116.376255 
L 197.882823 116.678986 
L 199.157378 117.009485 
L 200.431932 117.367428 
L 201.706487 117.752462 
L 202.981042 118.164208 
L 204.255596 118.602258 
L 205.530151 119.066177 
L 206.804705 119.5555 
L 208.07926 120.069736 
L 209.353815 120.608363 
L 210.628369 121.170833 
L 211.902924 121.756568 
L 213.177478 122.364965 
L 214.452033 122.995389 
L 215.726587 123.647182 
L 217.001142 124.319656 
L 218.275697 125.012097 
L 219.550251 125.723769 
L 220.824806 126.453906 
L 222.09936 127.201723 
L 223.373915 127.966409 
L 224.64847 128.747136 
L 225.923024 129.543053 
L 227.197579 130.353294 
L 228.472133 131.176975 
L 229.746688 132.0132 
L 231.021243 132.861062 
L 232.295797 133.719645 
L 233.570352 134.588026 
L 234.844906 135.465277 
L 236.119461 136.350473 
L 237.394016 137.242687 
L 238.66857 138.140998 
L 239.943125 139.044492 
L 241.217679 139.952264 
L 242.492234 140.863423 
L 243.766788 141.777091 
L 245.041343 142.692407 
L 246.315898 143.608528 
L 247.590452 144.524633 
L 248.865007 145.439922 
L 250.139561 146.353617 
L 251.414116 147.264964 
L 252.688671 148.173233 
L 253.963225 149.077721 
L 255.23778 149.977747 
L 256.512334 150.872656 
L 257.786889 151.761817 
L 259.061444 152.644623 
L 260.335998 153.520489 
L 261.610553 154.388855 
L 262.885107 155.249179 
L 264.159662 156.100943 
L 265.434217 156.943646 
L 266.708771 157.776806 
L 267.983326 158.59996 
L 269.25788 159.41266 
L 270.532435 160.214475 
L 271.806989 161.004986 
L 273.081544 161.783791 
L 274.356099 162.550499 
L 275.630653 163.304733 
L 276.905208 164.046126 
L 278.179762 164.774322 
L 279.454317 165.488978 
L 280.728872 166.18976 
L 282.003426 166.876341 
L 283.277981 167.548408 
L 284.552535 168.205655 
L 285.82709 168.847784 
L 287.101645 169.474508 
L 288.376199 170.085548 
L 289.650754 170.680632 
L 290.925308 171.259499 
L 292.199863 171.821896 
L 293.474418 172.367578 
L 294.748972 172.896309 
L 296.023527 173.407862 
L 297.298081 173.902018 
L 298.572636 174.378567 
L 299.84719 174.837309 
L 301.121745 175.278053 
L 302.3963 175.700615 
L 303.670854 176.104822 
L 304.945409 176.490511 
L 306.219963 176.857527 
L 307.494518 177.205725 
L 308.769073 177.53497 
L 310.043627 177.845135 
L 311.318182 178.136105 
L 311.318182 259.677725 
L 310.043627 257.946754 
L 308.769073 256.208097 
L 307.494518 254.46234 
L 306.219963 252.710078 
L 304.945409 250.951914 
L 303.670854 249.188464 
L 302.3963 247.420351 
L 301.121745 245.64821 
L 299.84719 243.872681 
L 298.572636 242.094416 
L 297.298081 240.314076 
L 296.023527 238.532327 
L 294.748972 236.749845 
L 293.474418 234.967315 
L 292.199863 233.185426 
L 290.925308 231.404878 
L 289.650754 229.626373 
L 288.376199 227.850623 
L 287.101645 226.078345 
L 285.82709 224.310258 
L 284.552535 222.547091 
L 283.277981 220.789571 
L 282.003426 219.038434 
L 280.728872 217.294415 
L 279.454317 215.558253 
L 278.179762 213.830686 
L 276.905208 212.112454 
L 275.630653 210.404297 
L 274.356099 208.70695 
L 273.081544 207.021149 
L 271.806989 205.347623 
L 270.532435 203.687097 
L 269.25788 202.04029 
L 267.983326 200.40791 
L 266.708771 198.790658 
L 265.434217 197.189223 
L 264.159662 195.604281 
L 262.885107 194.036494 
L 261.610553 192.486507 
L 260.335998 190.954948 
L 259.061444 189.442425 
L 257.786889 187.949524 
L 256.512334 186.47681 
L 255.23778 185.024821 
L 253.963225 183.594072 
L 252.688671 182.18505 
L 251.414116 180.798214 
L 250.139561 179.433994 
L 248.865007 178.092791 
L 247.590452 176.774976 
L 246.315898 175.48089 
L 245.041343 174.210844 
L 243.766788 172.965121 
L 242.492234 171.743973 
L 241.217679 170.547626 
L 239.943125 169.37628 
L 238.66857 168.230109 
L 237.394016 167.109263 
L 236.119461 166.013872 
L 234.844906 164.944046 
L 233.570352 163.899875 
L 232.295797 162.881435 
L 231.021243 161.88879 
L 229.746688 160.921991 
L 228.472133 159.981077 
L 227.197579 159.066083 
L 225.923024 158.177036 
L 224.64847 157.313959 
L 223.373915 156.476873 
L 222.09936 155.665795 
L 220.824806 154.880746 
L 219.550251 154.121743 
L 218.275697 153.388807 
L 217.001142 152.681961 
L 215.726587 152.00123 
L 214.452033 151.346643 
L 213.177478 150.718231 
L 211.902924 150.116028 
L 210.628369 149.540074 
L 209.353815 148.99041 
L 208.07926 148.467079 
L 206.804705 147.97013 
L 205.530151 147.499612 
L 204.255596 147.055577 
L 202.981042 146.638078 
L 201.706487 146.24717 
L 200.431932 145.882908 
L 199.157378 145.545348 
L 197.882823 145.234545 
L 196.608269 144.950556 
L 195.333714 144.693433 
L 194.059159 144.46323 
L 192.784605 144.259997 
L 191.51005 144.083784 
L 190.235496 143.934636 
L 188.960941 143.812598 
L 187.686386 143.717709 
L 186.411832 143.650008 
L 185.137277 143.609528 
L 183.862723 143.5963 
L 182.588168 143.610352 
L 181.313614 143.651707 
L 180.039059 143.720385 
L 178.764504 143.816402 
L 177.48995 143.939773 
L 176.215395 144.090507 
L 174.940841 144.268611 
L 173.666286 144.47409 
L 172.391731 144.706945 
L 171.117177 144.967176 
L 169.842622 145.254781 
L 168.568068 145.569756 
L 167.293513 145.912097 
L 166.018958 146.281798 
L 164.744404 146.678853 
L 163.469849 147.103256 
L 162.195295 147.555002 
L 160.92074 148.034087 
L 159.646185 148.540507 
L 158.371631 149.074262 
L 157.097076 149.635351 
L 155.822522 150.223777 
L 154.547967 150.839544 
L 153.273413 151.48266 
L 151.998858 152.153134 
L 150.724303 152.850977 
L 149.449749 153.576203 
L 148.175194 154.328826 
L 146.90064 155.108862 
L 145.626085 155.916326 
L 144.35153 156.751236 
L 143.076976 157.613603 
L 141.802421 158.50344 
L 140.527867 159.420753 
L 139.253312 160.365542 
L 137.978757 161.337802 
L 136.704203 162.337518 
L 135.429648 163.364662 
L 134.155094 164.419195 
L 132.880539 165.501063 
L 131.605984 166.610193 
L 130.33143 167.746495 
L 129.056875 168.909856 
L 127.782321 170.100142 
L 126.507766 171.317191 
L 125.233212 172.560816 
L 123.958657 173.830803 
L 122.684102 175.126907 
L 121.409548 176.448855 
L 120.134993 177.79634 
L 118.860439 179.169027 
L 117.585884 180.566546 
L 116.311329 181.988499 
L 115.036775 183.434454 
L 113.76222 184.903952 
L 112.487666 186.396501 
L 111.213111 187.911584 
L 109.938556 189.448652 
L 108.664002 191.007136 
L 107.389447 192.586437 
L 106.114893 194.185938 
L 104.840338 195.804998 
L 103.565783 197.442957 
L 102.291229 199.099139 
L 101.016674 200.77285 
L 99.74212 202.463382 
L 98.467565 204.170016 
L 97.193011 205.89202 
L 95.918456 207.628654 
L 94.643901 209.379169 
L 93.369347 211.142809 
L 92.094792 212.918814 
L 90.820238 214.706418 
L 89.545683 216.504854 
L 88.271128 218.313351 
L 86.996574 220.131139 
L 85.722019 221.957446 
L 84.447465 223.791503 
L 83.17291 225.63254 
L 81.898355 227.479792 
L 80.623801 229.332495 
L 79.349246 231.189889 
L 78.074692 233.05122 
L 76.800137 234.915737 
L 75.525582 236.782694 
L 74.251028 238.651352 
L 72.976473 240.520976 
L 71.701919 242.390841 
L 70.427364 244.260226 
L 69.15281 246.128418 
L 67.878255 247.994712 
L 66.6037 249.858411 
L 65.329146 251.718825 
L 64.054591 253.575275 
L 62.780037 255.427088 
L 61.505482 257.273602 
L 60.230927 259.114162 
L 58.956373 260.948126 
L 57.681818 262.774859 
z
" style="fill:#cc3300;opacity:0.3;stroke:#cc3300;stroke-linejoin:miter;stroke-width:0.5;"/>
   </g>
   <g id="matplotlib.axis_1">
    <g id="xtick_1">
     <g id="line2d_1">
      <defs>
       <path d="M 0 0 
L 0 3.5 
" id="mdd2fec123b" style="stroke:#000000;stroke-width:0.8;"/>
      </defs>
      <g>
       <use style="stroke:#000000;stroke-width:0.8;" x="57.681818" xlink:href="#mdd2fec123b" y="315"/>
      </g>
     </g>
     <g id="text_1">
      <!-- −2 -->
      <defs>
       <path d="M 10.59375 35.5 
L 73.1875 35.5 
L 73.1875 27.203125 
L 10.59375 27.203125 
z
" id="DejaVuSans-2212"/>
       <path d="M 19.1875 8.296875 
L 53.609375 8.296875 
L 53.609375 0 
L 7.328125 0 
L 7.328125 8.296875 
Q 12.9375 14.109375 22.625 23.890625 
Q 32.328125 33.6875 34.8125 36.53125 
Q 39.546875 41.84375 41.421875 45.53125 
Q 43.3125 49.21875 43.3125 52.78125 
Q 43.3125 58.59375 39.234375 62.25 
Q 35.15625 65.921875 28.609375 65.921875 
Q 23.96875 65.921875 18.8125 64.3125 
Q 13.671875 62.703125 7.8125 59.421875 
L 7.8125 69.390625 
Q 13.765625 71.78125 18.9375 73 
Q 24.125 74.21875 28.421875 74.21875 
Q 39.75 74.21875 46.484375 68.546875 
Q 53.21875 62.890625 53.21875 53.421875 
Q 53.21875 48.921875 51.53125 44.890625 
Q 49.859375 40.875 45.40625 35.40625 
Q 44.1875 33.984375 37.640625 27.21875 
Q 31.109375 20.453125 19.1875 8.296875 
z
" id="DejaVuSans-32"/>
      </defs>
      <g transform="translate(50.310724 329.598437)scale(0.1 -0.1)">
       <use xlink:href="#DejaVuSans-2212"/>
       <use x="83.789062" xlink:href="#DejaVuSans-32"/>
      </g>
     </g>
    </g>
    <g id="xtick_2">
     <g id="line2d_2">
      <g>
       <use style="stroke:#000000;stroke-width:0.8;" x="121.090909" xlink:href="#mdd2fec123b" y="315"/>
      </g>
     </g>
     <g id="text_2">
      <!-- −1 -->
      <defs>
       <path d="M 12.40625 8.296875 
L 28.515625 8.296875 
L 28.515625 63.921875 
L 10.984375 60.40625 
L 10.984375 69.390625 
L 28.421875 72.90625 
L 38.28125 72.90625 
L 38.28125 8.296875 
L 54.390625 8.296875 
L 54.390625 0 
L 12.40625 0 
z
" id="DejaVuSans-31"/>
      </defs>
      <g transform="translate(113.719815 329.598437)scale(0.1 -0.1)">
       <use xlink:href="#DejaVuSans-2212"/>
       <use x="83.789062" xlink:href="#DejaVuSans-31"/>
      </g>
     </g>
    </g>
    <g id="xtick_3">
     <g id="line2d_3">
      <g>
       <use style="stroke:#000000;stroke-width:0.8;" x="184.5" xlink:href="#mdd2fec123b" y="315"/>
      </g>
     </g>
     <g id="text_3">
      <!-- 0 -->
      <defs>
       <path d="M 31.78125 66.40625 
Q 24.171875 66.40625 20.328125 58.90625 
Q 16.5 51.421875 16.5 36.375 
Q 16.5 21.390625 20.328125 13.890625 
Q 24.171875 6.390625 31.78125 6.390625 
Q 39.453125 6.390625 43.28125 13.890625 
Q 47.125 21.390625 47.125 36.375 
Q 47.125 51.421875 43.28125 58.90625 
Q 39.453125 66.40625 31.78125 66.40625 
z
M 31.78125 74.21875 
Q 44.046875 74.21875 50.515625 64.515625 
Q 56.984375 54.828125 56.984375 36.375 
Q 56.984375 17.96875 50.515625 8.265625 
Q 44.046875 -1.421875 31.78125 -1.421875 
Q 19.53125 -1.421875 13.0625 8.265625 
Q 6.59375 17.96875 6.59375 36.375 
Q 6.59375 54.828125 13.0625 64.515625 
Q 19.53125 74.21875 31.78125 74.21875 
z
" id="DejaVuSans-30"/>
      </defs>
      <g transform="translate(181.31875 329.598437)scale(0.1 -0.1)">
       <use xlink:href="#DejaVuSans-30"/>
      </g>
     </g>
    </g>
    <g id="xtick_4">
     <g id="line2d_4">
      <g>
       <use style="stroke:#000000;stroke-width:0.8;" x="247.909091" xlink:href="#mdd2fec123b" y="315"/>
      </g>
     </g>
     <g id="text_4">
      <!-- 1 -->
      <g transform="translate(244.727841 329.598437)scale(0.1 -0.1)">
       <use xlink:href="#DejaVuSans-31"/>
      </g>
     </g>
    </g>
    <g id="xtick_5">
     <g id="line2d_5">
      <g>
       <use style="stroke:#000000;stroke-width:0.8;" x="311.318182" xlink:href="#mdd2fec123b" y="315"/>
      </g>
     </g>
     <g id="text_5">
      <!-- 2 -->
      <g transform="translate(308.136932 329.598437)scale(0.1 -0.1)">
       <use xlink:href="#DejaVuSans-32"/>
      </g>
     </g>
    </g>
    <g id="text_6">
     <!-- $x$ -->
     <defs>
      <path d="M 60.015625 54.6875 
L 34.90625 27.875 
L 50.296875 0 
L 39.984375 0 
L 28.421875 21.6875 
L 8.296875 0 
L -2.59375 0 
L 24.3125 28.8125 
L 10.015625 54.6875 
L 20.3125 54.6875 
L 30.8125 34.90625 
L 49.125 54.6875 
z
" id="DejaVuSans-Oblique-78"/>
     </defs>
     <g transform="translate(179.1 349.355313)scale(0.18 -0.18)">
      <use transform="translate(0 0.3125)" xlink:href="#DejaVuSans-Oblique-78"/>
     </g>
    </g>
   </g>
   <g id="matplotlib.axis_2">
    <g id="ytick_1">
     <g id="line2d_6">
      <defs>
       <path d="M 0 0 
L -3.5 0 
" id="m08d9c0ddf1" style="stroke:#000000;stroke-width:0.8;"/>
      </defs>
      <g>
       <use style="stroke:#000000;stroke-width:0.8;" x="45" xlink:href="#m08d9c0ddf1" y="302.645455"/>
      </g>
     </g>
     <g id="text_7">
      <!-- −2.0 -->
      <defs>
       <path d="M 10.6875 12.40625 
L 21 12.40625 
L 21 0 
L 10.6875 0 
z
" id="DejaVuSans-2e"/>
      </defs>
      <g transform="translate(13.717187 306.444673)scale(0.1 -0.1)">
       <use xlink:href="#DejaVuSans-2212"/>
       <use x="83.789062" xlink:href="#DejaVuSans-32"/>
       <use x="147.412109" xlink:href="#DejaVuSans-2e"/>
       <use x="179.199219" xlink:href="#DejaVuSans-30"/>
      </g>
     </g>
    </g>
    <g id="ytick_2">
     <g id="line2d_7">
      <g>
       <use style="stroke:#000000;stroke-width:0.8;" x="45" xlink:href="#m08d9c0ddf1" y="271.759091"/>
      </g>
     </g>
     <g id="text_8">
      <!-- −1.5 -->
      <defs>
       <path d="M 10.796875 72.90625 
L 49.515625 72.90625 
L 49.515625 64.59375 
L 19.828125 64.59375 
L 19.828125 46.734375 
Q 21.96875 47.46875 24.109375 47.828125 
Q 26.265625 48.1875 28.421875 48.1875 
Q 40.625 48.1875 47.75 41.5 
Q 54.890625 34.8125 54.890625 23.390625 
Q 54.890625 11.625 47.5625 5.09375 
Q 40.234375 -1.421875 26.90625 -1.421875 
Q 22.3125 -1.421875 17.546875 -0.640625 
Q 12.796875 0.140625 7.71875 1.703125 
L 7.71875 11.625 
Q 12.109375 9.234375 16.796875 8.0625 
Q 21.484375 6.890625 26.703125 6.890625 
Q 35.15625 6.890625 40.078125 11.328125 
Q 45.015625 15.765625 45.015625 23.390625 
Q 45.015625 31 40.078125 35.4375 
Q 35.15625 39.890625 26.703125 39.890625 
Q 22.75 39.890625 18.8125 39.015625 
Q 14.890625 38.140625 10.796875 36.28125 
z
" id="DejaVuSans-35"/>
      </defs>
      <g transform="translate(13.717187 275.55831)scale(0.1 -0.1)">
       <use xlink:href="#DejaVuSans-2212"/>
       <use x="83.789062" xlink:href="#DejaVuSans-31"/>
       <use x="147.412109" xlink:href="#DejaVuSans-2e"/>
       <use x="179.199219" xlink:href="#DejaVuSans-35"/>
      </g>
     </g>
    </g>
    <g id="ytick_3">
     <g id="line2d_8">
      <g>
       <use style="stroke:#000000;stroke-width:0.8;" x="45" xlink:href="#m08d9c0ddf1" y="240.872727"/>
      </g>
     </g>
     <g id="text_9">
      <!-- −1.0 -->
      <g transform="translate(13.717187 244.671946)scale(0.1 -0.1)">
       <use xlink:href="#DejaVuSans-2212"/>
       <use x="83.789062" xlink:href="#DejaVuSans-31"/>
       <use x="147.412109" xlink:href="#DejaVuSans-2e"/>
       <use x="179.199219" xlink:href="#DejaVuSans-30"/>
      </g>
     </g>
    </g>
    <g id="ytick_4">
     <g id="line2d_9">
      <g>
       <use style="stroke:#000000;stroke-width:0.8;" x="45" xlink:href="#m08d9c0ddf1" y="209.986364"/>
      </g>
     </g>
     <g id="text_10">
      <!-- −0.5 -->
      <g transform="translate(13.717187 213.785582)scale(0.1 -0.1)">
       <use xlink:href="#DejaVuSans-2212"/>
       <use x="83.789062" xlink:href="#DejaVuSans-30"/>
       <use x="147.412109" xlink:href="#DejaVuSans-2e"/>
       <use x="179.199219" xlink:href="#DejaVuSans-35"/>
      </g>
     </g>
    </g>
    <g id="ytick_5">
     <g id="line2d_10">
      <g>
       <use style="stroke:#000000;stroke-width:0.8;" x="45" xlink:href="#m08d9c0ddf1" y="179.1"/>
      </g>
     </g>
     <g id="text_11">
      <!-- 0.0 -->
      <g transform="translate(22.096875 182.899219)scale(0.1 -0.1)">
       <use xlink:href="#DejaVuSans-30"/>
       <use x="63.623047" xlink:href="#DejaVuSans-2e"/>
       <use x="95.410156" xlink:href="#DejaVuSans-30"/>
      </g>
     </g>
    </g>
    <g id="ytick_6">
     <g id="line2d_11">
      <g>
       <use style="stroke:#000000;stroke-width:0.8;" x="45" xlink:href="#m08d9c0ddf1" y="148.213636"/>
      </g>
     </g>
     <g id="text_12">
      <!-- 0.5 -->
      <g transform="translate(22.096875 152.012855)scale(0.1 -0.1)">
       <use xlink:href="#DejaVuSans-30"/>
       <use x="63.623047" xlink:href="#DejaVuSans-2e"/>
       <use x="95.410156" xlink:href="#DejaVuSans-35"/>
      </g>
     </g>
    </g>
    <g id="ytick_7">
     <g id="line2d_12">
      <g>
       <use style="stroke:#000000;stroke-width:0.8;" x="45" xlink:href="#m08d9c0ddf1" y="117.327273"/>
      </g>
     </g>
     <g id="text_13">
      <!-- 1.0 -->
      <g transform="translate(22.096875 121.126491)scale(0.1 -0.1)">
       <use xlink:href="#DejaVuSans-31"/>
       <use x="63.623047" xlink:href="#DejaVuSans-2e"/>
       <use x="95.410156" xlink:href="#DejaVuSans-30"/>
      </g>
     </g>
    </g>
    <g id="ytick_8">
     <g id="line2d_13">
      <g>
       <use style="stroke:#000000;stroke-width:0.8;" x="45" xlink:href="#m08d9c0ddf1" y="86.440909"/>
      </g>
     </g>
     <g id="text_14">
      <!-- 1.5 -->
      <g transform="translate(22.096875 90.240128)scale(0.1 -0.1)">
       <use xlink:href="#DejaVuSans-31"/>
       <use x="63.623047" xlink:href="#DejaVuSans-2e"/>
       <use x="95.410156" xlink:href="#DejaVuSans-35"/>
      </g>
     </g>
    </g>
    <g id="ytick_9">
     <g id="line2d_14">
      <g>
       <use style="stroke:#000000;stroke-width:0.8;" x="45" xlink:href="#m08d9c0ddf1" y="55.554545"/>
      </g>
     </g>
     <g id="text_15">
      <!-- 2.0 -->
      <g transform="translate(22.096875 59.353764)scale(0.1 -0.1)">
       <use xlink:href="#DejaVuSans-32"/>
       <use x="63.623047" xlink:href="#DejaVuSans-2e"/>
       <use x="95.410156" xlink:href="#DejaVuSans-30"/>
      </g>
     </g>
    </g>
    <g id="text_16">
     <!-- $f(x)$ -->
     <defs>
      <path d="M 47.796875 75.984375 
L 46.390625 68.5 
L 37.796875 68.5 
Q 32.90625 68.5 30.6875 66.578125 
Q 28.46875 64.65625 27.390625 59.515625 
L 26.421875 54.6875 
L 41.21875 54.6875 
L 39.890625 47.703125 
L 25.09375 47.703125 
L 15.828125 0 
L 6.78125 0 
L 16.109375 47.703125 
L 7.515625 47.703125 
L 8.796875 54.6875 
L 17.390625 54.6875 
L 18.109375 58.5 
Q 19.96875 68.171875 24.625 72.078125 
Q 29.296875 75.984375 39.3125 75.984375 
z
" id="DejaVuSans-Oblique-66"/>
      <path d="M 31 75.875 
Q 24.46875 64.65625 21.28125 53.65625 
Q 18.109375 42.671875 18.109375 31.390625 
Q 18.109375 20.125 21.3125 9.0625 
Q 24.515625 -2 31 -13.1875 
L 23.1875 -13.1875 
Q 15.875 -1.703125 12.234375 9.375 
Q 8.59375 20.453125 8.59375 31.390625 
Q 8.59375 42.28125 12.203125 53.3125 
Q 15.828125 64.359375 23.1875 75.875 
z
" id="DejaVuSans-28"/>
      <path d="M 8.015625 75.875 
L 15.828125 75.875 
Q 23.140625 64.359375 26.78125 53.3125 
Q 30.421875 42.28125 30.421875 31.390625 
Q 30.421875 20.453125 26.78125 9.375 
Q 23.140625 -1.703125 15.828125 -13.1875 
L 8.015625 -13.1875 
Q 14.5 -2 17.703125 9.0625 
Q 20.90625 20.125 20.90625 31.390625 
Q 20.90625 42.671875 17.703125 53.65625 
Q 14.5 64.65625 8.015625 75.875 
z
" id="DejaVuSans-29"/>
     </defs>
     <g transform="translate(5.97375 194.67)rotate(-90)scale(0.18 -0.18)">
      <use transform="translate(0 0.015625)" xlink:href="#DejaVuSans-Oblique-66"/>
      <use transform="translate(35.205078 0.015625)" xlink:href="#DejaVuSans-28"/>
      <use transform="translate(74.21875 0.015625)" xlink:href="#DejaVuSans-Oblique-78"/>
      <use transform="translate(133.398438 0.015625)" xlink:href="#DejaVuSans-29"/>
     </g>
    </g>
   </g>
   <g id="line2d_15">
    <path clip-path="url(#pb15c17ba46)" d="M 57.681818 222.004049 
L 64.054591 216.344574 
L 70.427364 210.402301 
L 78.074692 202.978531 
L 89.545683 191.470217 
L 107.389447 173.537611 
L 115.036775 166.176279 
L 121.409548 160.323684 
L 127.782321 154.802461 
L 132.880539 150.669363 
L 137.978757 146.823938 
L 143.076976 143.296612 
L 146.90064 140.876825 
L 150.724303 138.662622 
L 154.547967 136.663917 
L 158.371631 134.889641 
L 162.195295 133.347687 
L 166.018958 132.044863 
L 169.842622 130.98685 
L 173.666286 130.178167 
L 177.48995 129.622144 
L 181.313614 129.320902 
L 185.137277 129.275342 
L 188.960941 129.485139 
L 192.784605 129.948746 
L 196.608269 130.663405 
L 200.431932 131.625168 
L 204.255596 132.828918 
L 208.07926 134.268408 
L 211.902924 135.936298 
L 215.726587 137.824206 
L 219.550251 139.922756 
L 223.373915 142.221641 
L 228.472133 145.579026 
L 233.570352 149.24395 
L 238.66857 153.185553 
L 245.041343 158.451625 
L 251.414116 164.031589 
L 259.061444 171.043524 
L 269.25788 180.726475 
L 288.376199 198.968086 
L 296.023527 205.970094 
L 302.3963 211.560483 
L 308.769073 216.871533 
L 311.318182 218.906915 
L 311.318182 218.906915 
" style="fill:none;stroke:#3300ff;stroke-linecap:square;stroke-width:2;"/>
   </g>
   <g id="line2d_16">
    <path clip-path="url(#pb15c17ba46)" d="M 57.681818 181.23324 
L 62.780037 179.574538 
L 67.878255 177.624555 
L 72.976473 175.396512 
L 78.074692 172.905842 
L 83.17291 170.170066 
L 88.271128 167.208696 
L 94.643901 163.222718 
L 101.016674 158.9649 
L 108.664002 153.572676 
L 120.134993 145.143471 
L 131.605984 136.743617 
L 137.978757 132.310074 
L 143.076976 128.979621 
L 148.175194 125.901986 
L 153.273413 123.128612 
L 157.097076 121.275891 
L 160.92074 119.636743 
L 164.744404 118.225534 
L 168.568068 117.054276 
L 172.391731 116.132644 
L 176.215395 115.468004 
L 180.039059 115.065468 
L 183.862723 114.927929 
L 187.686386 115.0561 
L 191.51005 115.448526 
L 195.333714 116.101588 
L 199.157378 117.009485 
L 202.981042 118.164208 
L 206.804705 119.5555 
L 210.628369 121.170833 
L 214.452033 122.995389 
L 219.550251 125.723769 
L 224.64847 128.747136 
L 229.746688 132.0132 
L 236.119461 136.350473 
L 246.315898 143.608528 
L 259.061444 152.644623 
L 266.708771 157.776806 
L 273.081544 161.783791 
L 279.454317 165.488978 
L 284.552535 168.205655 
L 289.650754 170.680632 
L 294.748972 172.896309 
L 299.84719 174.837309 
L 304.945409 176.490511 
L 310.043627 177.845135 
L 311.318182 178.136105 
L 311.318182 178.136105 
" style="fill:none;stroke:#3300ff;stroke-linecap:square;stroke-width:0.2;"/>
   </g>
   <g id="line2d_17">
    <path clip-path="url(#pb15c17ba46)" d="M 57.681818 262.774859 
L 67.878255 247.994712 
L 88.271128 218.313351 
L 95.918456 207.628654 
L 102.291229 199.099139 
L 107.389447 192.586437 
L 112.487666 186.396501 
L 117.585884 180.566546 
L 122.684102 175.126907 
L 127.782321 170.100142 
L 131.605984 166.610193 
L 135.429648 163.364662 
L 139.253312 160.365542 
L 143.076976 157.613603 
L 146.90064 155.108862 
L 150.724303 152.850977 
L 154.547967 150.839544 
L 158.371631 149.074262 
L 162.195295 147.555002 
L 166.018958 146.281798 
L 169.842622 145.254781 
L 173.666286 144.47409 
L 177.48995 143.939773 
L 181.313614 143.651707 
L 185.137277 143.609528 
L 188.960941 143.812598 
L 192.784605 144.259997 
L 196.608269 144.950556 
L 200.431932 145.882908 
L 204.255596 147.055577 
L 208.07926 148.467079 
L 211.902924 150.116028 
L 215.726587 152.00123 
L 219.550251 154.121743 
L 223.373915 156.476873 
L 227.197579 159.066083 
L 231.021243 161.88879 
L 234.844906 164.944046 
L 238.66857 168.230109 
L 242.492234 171.743973 
L 247.590452 176.774976 
L 252.688671 182.18505 
L 257.786889 187.949524 
L 262.885107 194.036494 
L 269.25788 202.04029 
L 275.630653 210.404297 
L 284.552535 222.547091 
L 302.3963 247.420351 
L 311.318182 259.677725 
L 311.318182 259.677725 
" style="fill:none;stroke:#3300ff;stroke-linecap:square;stroke-width:0.2;"/>
   </g>
   <g id="line2d_18">
    <defs>
     <path d="M 0 3.75 
C 0.994512 3.75 1.948425 3.354876 2.65165 2.65165 
C 3.354876 1.948425 3.75 0.994512 3.75 0 
C 3.75 -0.994512 3.354876 -1.948425 2.65165 -2.65165 
C 1.948425 -3.354876 0.994512 -3.75 0 -3.75 
C -0.994512 -3.75 -1.948425 -3.354876 -2.65165 -2.65165 
C -3.354876 -1.948425 -3.75 -0.994512 -3.75 0 
C -3.75 0.994512 -3.354876 1.948425 -2.65165 2.65165 
C -1.948425 3.354876 -0.994512 3.75 0 3.75 
z
" id="m49272408a7" style="stroke:#000000;"/>
    </defs>
    <g clip-path="url(#pb15c17ba46)">
     <use style="stroke:#000000;" x="121.090909" xlink:href="#m49272408a7" y="167.109843"/>
     <use style="stroke:#000000;" x="146.454545" xlink:href="#m49272408a7" y="140.223859"/>
     <use style="stroke:#000000;" x="171.818182" xlink:href="#m49272408a7" y="124.584754"/>
     <use style="stroke:#000000;" x="197.181818" xlink:href="#m49272408a7" y="124.315116"/>
     <use style="stroke:#000000;" x="222.545455" xlink:href="#m49272408a7" y="146.0995"/>
     <use style="stroke:#000000;" x="247.909091" xlink:href="#m49272408a7" y="164.120625"/>
    </g>
   </g>
   <g id="line2d_19">
    <path clip-path="url(#pb15c17ba46)" d="M 45 315 
L 45 43.2 
" style="fill:none;stroke:#000000;stroke-linecap:square;stroke-width:1.5;"/>
   </g>
   <g id="line2d_20">
    <path clip-path="url(#pb15c17ba46)" d="M 45 315 
L 324 315 
" style="fill:none;stroke:#000000;stroke-linecap:square;stroke-width:1.5;"/>
   </g>
   <g id="patch_4">
    <path d="M 45 315 
L 45 43.2 
" style="fill:none;stroke:#000000;stroke-linecap:square;stroke-linejoin:miter;stroke-width:0.8;"/>
   </g>
   <g id="patch_5">
    <path d="M 324 315 
L 324 43.2 
" style="fill:none;stroke:#000000;stroke-linecap:square;stroke-linejoin:miter;stroke-width:0.8;"/>
   </g>
   <g id="patch_6">
    <path d="M 45 315 
L 324 315 
" style="fill:none;stroke:#000000;stroke-linecap:square;stroke-linejoin:miter;stroke-width:0.8;"/>
   </g>
   <g id="patch_7">
    <path d="M 45 43.2 
L 324 43.2 
" style="fill:none;stroke:#000000;stroke-linecap:square;stroke-linejoin:miter;stroke-width:0.8;"/>
   </g>
  </g>
 </g>
 <defs>
  <clipPath id="pb15c17ba46">
   <rect height="271.8" width="279" x="45" y="43.2"/>
  </clipPath>
 </defs>
</svg>
