<?xml version="1.0" encoding="utf-8" standalone="no"?>
<!DOCTYPE svg PUBLIC "-//W3C//DTD SVG 1.1//EN"
  "http://www.w3.org/Graphics/SVG/1.1/DTD/svg11.dtd">
<!-- Created with matplotlib (http://matplotlib.org/) -->
<svg height="360pt" version="1.1" viewBox="0 0 360 360" width="360pt" xmlns="http://www.w3.org/2000/svg" xmlns:xlink="http://www.w3.org/1999/xlink">
 <defs>
  <style type="text/css">
*{stroke-linecap:butt;stroke-linejoin:round;}
  </style>
 </defs>
 <g id="figure_1">
  <g id="patch_1">
   <path d="M 0 360 
L 360 360 
L 360 0 
L 0 0 
z
" style="fill:none;"/>
  </g>
  <g id="axes_1">
   <g id="patch_2">
    <path d="M 45 315 
L 324 315 
L 324 43.2 
L 45 43.2 
z
" style="fill:none;"/>
   </g>
   <g id="patch_3">
    <path clip-path="url(#p9aa3d8e767)" d="M 57.681818 54.938355 
L 58.956373 54.938355 
L 60.230927 54.938355 
L 61.505482 54.938355 
L 62.780037 54.938355 
L 64.054591 54.938355 
L 65.329146 54.938355 
L 66.6037 54.938355 
L 67.878255 54.938355 
L 69.15281 54.938355 
L 70.427364 54.938355 
L 71.701919 54.938355 
L 72.976473 54.938355 
L 74.251028 54.938355 
L 75.525582 54.938355 
L 76.800137 54.938355 
L 78.074692 54.938355 
L 79.349246 54.938355 
L 80.623801 54.938355 
L 81.898355 54.938355 
L 83.17291 54.938355 
L 84.447465 54.938354 
L 85.722019 54.938353 
L 86.996574 54.938349 
L 88.271128 54.938337 
L 89.545683 54.938305 
L 90.820238 54.938221 
L 92.094792 54.938013 
L 93.369347 54.937516 
L 94.643901 54.936377 
L 95.918456 54.933878 
L 97.193011 54.928632 
L 98.467565 54.918124 
L 99.74212 54.898104 
L 101.016674 54.862046 
L 102.291229 54.80131 
L 103.565783 54.707454 
L 104.840338 54.579428 
L 106.114893 54.439534 
L 107.389447 54.362001 
L 108.664002 54.514436 
L 109.938556 55.204235 
L 111.213111 56.911036 
L 112.487666 60.27932 
L 113.76222 66.049672 
L 115.036775 74.924422 
L 116.311329 87.384481 
L 117.585884 103.479067 
L 118.860439 122.533775 
L 120.134993 142.004225 
L 121.409548 148.750768 
L 122.684102 132.528506 
L 123.958657 112.652795 
L 125.233212 94.857445 
L 126.507766 80.42161 
L 127.782321 69.570131 
L 129.056875 61.961547 
L 130.33143 56.924809 
L 131.605984 53.674853 
L 132.880539 51.509035 
L 134.155094 49.962284 
L 135.429648 48.905361 
L 136.704203 48.578717 
L 137.978757 49.557653 
L 139.253312 52.646778 
L 140.527867 58.709218 
L 141.802421 68.447438 
L 143.076976 82.151152 
L 144.35153 99.335784 
L 145.626085 117.285682 
L 146.90064 121.247063 
L 148.175194 104.866253 
L 149.449749 86.912801 
L 150.724303 71.979114 
L 151.998858 60.903234 
L 153.273413 53.53173 
L 154.547967 49.191777 
L 155.822522 46.95482 
L 157.097076 45.86755 
L 158.371631 45.147367 
L 159.646185 44.325164 
L 160.92074 43.326886 
L 162.195295 42.491817 
L 163.469849 42.525448 
L 164.744404 44.384139 
L 166.018958 49.094656 
L 167.293513 57.522502 
L 168.568068 70.099757 
L 169.842622 86.411164 
L 171.117177 103.376692 
L 172.391731 104.679078 
L 173.666286 88.166192 
L 174.940841 71.548058 
L 176.215395 58.525537 
L 177.48995 49.632024 
L 178.764504 44.478665 
L 180.039059 42.204744 
L 181.313614 41.754359 
L 182.588168 42.112935 
L 183.862723 42.496863 
L 185.137277 42.482204 
L 186.411832 42.068393 
L 187.686386 41.678448 
L 188.960941 42.095633 
L 190.235496 44.33502 
L 191.51005 49.453924 
L 192.784605 58.315269 
L 194.059159 71.310599 
L 195.333714 87.909248 
L 196.608269 104.412669 
L 197.882823 103.112417 
L 199.157378 86.161407 
L 200.431932 69.877188 
L 201.706487 57.340247 
L 202.981042 48.967446 
L 204.255596 44.330582 
L 205.530151 42.571308 
L 206.804705 42.673875 
L 208.07926 43.69658 
L 209.353815 44.950868 
L 210.628369 46.113967 
L 211.902924 47.27207 
L 213.177478 48.89733 
L 214.452033 51.761791 
L 215.726587 56.791588 
L 217.001142 64.871259 
L 218.275697 76.61625 
L 219.550251 92.116439 
L 220.824806 110.473883 
L 222.09936 127.050353 
L 223.373915 123.053056 
L 224.64847 104.839387 
L 225.923024 87.192852 
L 227.197579 72.878751 
L 228.472133 62.441564 
L 229.746688 55.650931 
L 231.021243 51.853694 
L 232.295797 50.219748 
L 233.570352 49.959085 
L 234.844906 50.494437 
L 236.119461 51.571659 
L 237.394016 53.301058 
L 238.66857 56.130196 
L 239.943125 60.751216 
L 241.217679 67.94923 
L 242.492234 78.406788 
L 243.766788 92.486461 
L 245.041343 109.989903 
L 246.315898 129.664139 
L 247.590452 145.795334 
L 248.865007 139.077189 
L 250.139561 119.75034 
L 251.414116 100.937277 
L 252.688671 85.15538 
L 253.963225 73.046993 
L 255.23778 64.531062 
L 256.512334 59.099596 
L 257.786889 56.030866 
L 259.061444 54.57356 
L 260.335998 54.080428 
L 261.610553 54.075158 
L 262.885107 54.257463 
L 264.159662 54.468435 
L 265.434217 54.642472 
L 266.708771 54.764771 
L 267.983326 54.842314 
L 269.25788 54.88787 
L 270.532435 54.913027 
L 271.806989 54.926193 
L 273.081544 54.932757 
L 274.356099 54.935883 
L 275.630653 54.937307 
L 276.905208 54.937928 
L 278.179762 54.938188 
L 279.454317 54.938292 
L 280.728872 54.938332 
L 282.003426 54.938347 
L 283.277981 54.938352 
L 284.552535 54.938354 
L 285.82709 54.938355 
L 287.101645 54.938355 
L 288.376199 54.938355 
L 289.650754 54.938355 
L 290.925308 54.938355 
L 292.199863 54.938355 
L 293.474418 54.938355 
L 294.748972 54.938355 
L 296.023527 54.938355 
L 297.298081 54.938355 
L 298.572636 54.938355 
L 299.84719 54.938355 
L 301.121745 54.938355 
L 302.3963 54.938355 
L 303.670854 54.938355 
L 304.945409 54.938355 
L 306.219963 54.938355 
L 307.494518 54.938355 
L 308.769073 54.938355 
L 310.043627 54.938355 
L 311.318182 54.938355 
L 311.318182 303.261645 
L 310.043627 303.261645 
L 308.769073 303.261645 
L 307.494518 303.261645 
L 306.219963 303.261645 
L 304.945409 303.261645 
L 303.670854 303.261645 
L 302.3963 303.261645 
L 301.121745 303.261645 
L 299.84719 303.261645 
L 298.572636 303.261645 
L 297.298081 303.261645 
L 296.023527 303.261645 
L 294.748972 303.261645 
L 293.474418 303.261645 
L 292.199863 303.261645 
L 290.925308 303.261645 
L 289.650754 303.261645 
L 288.376199 303.261645 
L 287.101645 303.261645 
L 285.82709 303.261645 
L 284.552535 303.261644 
L 283.277981 303.261643 
L 282.003426 303.261637 
L 280.728872 303.261623 
L 279.454317 303.261583 
L 278.179762 303.261478 
L 276.905208 303.261218 
L 275.630653 303.260597 
L 274.356099 303.25917 
L 273.081544 303.25603 
L 271.806989 303.249401 
L 270.532435 303.235956 
L 269.25788 303.209707 
L 267.983326 303.160202 
L 266.708771 303.069533 
L 265.434217 302.907155 
L 264.159662 302.620708 
L 262.885107 302.120293 
L 261.610553 301.254007 
L 260.335998 299.77584 
L 259.061444 297.314379 
L 257.786889 293.360011 
L 256.512334 287.29318 
L 255.23778 278.469864 
L 253.963225 266.362359 
L 252.688671 250.733346 
L 251.414116 231.819569 
L 250.139561 210.582374 
L 248.865007 189.805429 
L 247.590452 182.774878 
L 246.315898 199.758418 
L 245.041343 221.330405 
L 243.766788 241.527098 
L 242.492234 258.751075 
L 241.217679 272.41071 
L 239.943125 282.470398 
L 238.66857 289.243383 
L 237.394016 293.195434 
L 236.119461 294.761381 
L 234.844906 294.204086 
L 233.570352 291.538338 
L 232.295797 286.529403 
L 231.021243 278.765429 
L 229.746688 267.793351 
L 228.472133 253.296632 
L 227.197579 235.283719 
L 225.923024 214.265989 
L 224.64847 191.508869 
L 223.373915 170.362252 
L 222.09936 165.953819 
L 220.824806 184.677922 
L 219.550251 207.458875 
L 218.275697 229.099311 
L 217.001142 247.952394 
L 215.726587 263.274947 
L 214.452033 274.864257 
L 213.177478 282.87551 
L 211.902924 287.637085 
L 210.628369 289.473601 
L 209.353815 288.570146 
L 208.07926 284.903149 
L 206.804705 278.24905 
L 205.530151 268.268785 
L 204.255596 254.653523 
L 202.981042 237.303879 
L 201.706487 216.506618 
L 200.431932 193.089299 
L 199.157378 168.665485 
L 197.882823 147.263765 
L 196.608269 145.735634 
L 195.333714 166.254393 
L 194.059159 190.611418 
L 192.784605 214.173984 
L 191.51005 235.199095 
L 190.235496 252.771914 
L 188.960941 266.523779 
L 187.686386 276.476874 
L 186.411832 282.870503 
L 185.137277 285.984907 
L 183.862723 285.999566 
L 182.588168 282.915045 
L 181.313614 276.552786 
L 180.039059 266.63289 
L 178.764504 252.91556 
L 177.48995 235.377196 
L 176.215395 214.384252 
L 174.940841 190.848876 
L 173.666286 166.511337 
L 172.391731 146.002044 
L 171.117177 147.52804 
L 169.842622 168.915241 
L 168.568068 193.311868 
L 167.293513 216.688873 
L 166.018958 237.431089 
L 164.744404 254.70708 
L 163.469849 268.222926 
L 162.195295 278.066992 
L 160.92074 284.533455 
L 159.646185 287.944442 
L 158.371631 288.507 
L 157.097076 286.232565 
L 155.822522 280.933 
L 154.547967 272.294242 
L 153.273413 260.015089 
L 151.998858 243.984369 
L 150.724303 224.462175 
L 149.449749 202.255238 
L 148.175194 179.070291 
L 146.90064 160.150529 
L 145.626085 164.594878 
L 144.35153 186.005267 
L 143.076976 209.224289 
L 141.802421 230.852406 
L 140.527867 249.564286 
L 139.253312 264.789199 
L 137.978757 276.469387 
L 136.704203 284.888372 
L 135.429648 290.484614 
L 134.155094 293.671934 
L 132.880539 294.698757 
L 131.605984 293.569229 
L 130.33143 290.037996 
L 129.056875 283.680728 
L 127.782321 274.031612 
L 126.507766 260.765897 
L 125.233212 243.898082 
L 123.958657 223.993297 
L 122.684102 202.622785 
L 121.409548 185.730312 
L 120.134993 192.732465 
L 118.860439 213.365809 
L 117.585884 234.361358 
L 116.311329 252.962447 
L 115.036775 268.239789 
L 113.76222 279.988475 
L 112.487666 288.472903 
L 111.213111 294.240182 
L 109.938556 297.945055 
L 108.664002 300.209848 
L 107.389447 301.540849 
L 106.114893 302.302365 
L 104.840338 302.7317 
L 103.565783 302.972137 
L 102.291229 303.106072 
L 101.016674 303.179933 
L 99.74212 303.219941 
L 98.467565 303.241054 
L 97.193011 303.25184 
L 95.918456 303.25715 
L 94.643901 303.259664 
L 93.369347 303.260806 
L 92.094792 303.261304 
L 90.820238 303.261512 
L 89.545683 303.261595 
L 88.271128 303.261627 
L 86.996574 303.261639 
L 85.722019 303.261643 
L 84.447465 303.261645 
L 83.17291 303.261645 
L 81.898355 303.261645 
L 80.623801 303.261645 
L 79.349246 303.261645 
L 78.074692 303.261645 
L 76.800137 303.261645 
L 75.525582 303.261645 
L 74.251028 303.261645 
L 72.976473 303.261645 
L 71.701919 303.261645 
L 70.427364 303.261645 
L 69.15281 303.261645 
L 67.878255 303.261645 
L 66.6037 303.261645 
L 65.329146 303.261645 
L 64.054591 303.261645 
L 62.780037 303.261645 
L 61.505482 303.261645 
L 60.230927 303.261645 
L 58.956373 303.261645 
L 57.681818 303.261645 
z
" style="fill:#cc3300;opacity:0.3;stroke:#cc3300;stroke-linejoin:miter;stroke-width:0.5;"/>
   </g>
   <g id="matplotlib.axis_1">
    <g id="xtick_1">
     <g id="line2d_1">
      <defs>
       <path d="M 0 0 
L 0 3.5 
" id="m7d92e8e547" style="stroke:#000000;stroke-width:0.8;"/>
      </defs>
      <g>
       <use style="stroke:#000000;stroke-width:0.8;" x="57.681818" xlink:href="#m7d92e8e547" y="315"/>
      </g>
     </g>
     <g id="text_1">
      <!-- −2 -->
      <defs>
       <path d="M 10.59375 35.5 
L 73.1875 35.5 
L 73.1875 27.203125 
L 10.59375 27.203125 
z
" id="DejaVuSans-2212"/>
       <path d="M 19.1875 8.296875 
L 53.609375 8.296875 
L 53.609375 0 
L 7.328125 0 
L 7.328125 8.296875 
Q 12.9375 14.109375 22.625 23.890625 
Q 32.328125 33.6875 34.8125 36.53125 
Q 39.546875 41.84375 41.421875 45.53125 
Q 43.3125 49.21875 43.3125 52.78125 
Q 43.3125 58.59375 39.234375 62.25 
Q 35.15625 65.921875 28.609375 65.921875 
Q 23.96875 65.921875 18.8125 64.3125 
Q 13.671875 62.703125 7.8125 59.421875 
L 7.8125 69.390625 
Q 13.765625 71.78125 18.9375 73 
Q 24.125 74.21875 28.421875 74.21875 
Q 39.75 74.21875 46.484375 68.546875 
Q 53.21875 62.890625 53.21875 53.421875 
Q 53.21875 48.921875 51.53125 44.890625 
Q 49.859375 40.875 45.40625 35.40625 
Q 44.1875 33.984375 37.640625 27.21875 
Q 31.109375 20.453125 19.1875 8.296875 
z
" id="DejaVuSans-32"/>
      </defs>
      <g transform="translate(50.310724 329.598437)scale(0.1 -0.1)">
       <use xlink:href="#DejaVuSans-2212"/>
       <use x="83.789062" xlink:href="#DejaVuSans-32"/>
      </g>
     </g>
    </g>
    <g id="xtick_2">
     <g id="line2d_2">
      <g>
       <use style="stroke:#000000;stroke-width:0.8;" x="121.090909" xlink:href="#m7d92e8e547" y="315"/>
      </g>
     </g>
     <g id="text_2">
      <!-- −1 -->
      <defs>
       <path d="M 12.40625 8.296875 
L 28.515625 8.296875 
L 28.515625 63.921875 
L 10.984375 60.40625 
L 10.984375 69.390625 
L 28.421875 72.90625 
L 38.28125 72.90625 
L 38.28125 8.296875 
L 54.390625 8.296875 
L 54.390625 0 
L 12.40625 0 
z
" id="DejaVuSans-31"/>
      </defs>
      <g transform="translate(113.719815 329.598437)scale(0.1 -0.1)">
       <use xlink:href="#DejaVuSans-2212"/>
       <use x="83.789062" xlink:href="#DejaVuSans-31"/>
      </g>
     </g>
    </g>
    <g id="xtick_3">
     <g id="line2d_3">
      <g>
       <use style="stroke:#000000;stroke-width:0.8;" x="184.5" xlink:href="#m7d92e8e547" y="315"/>
      </g>
     </g>
     <g id="text_3">
      <!-- 0 -->
      <defs>
       <path d="M 31.78125 66.40625 
Q 24.171875 66.40625 20.328125 58.90625 
Q 16.5 51.421875 16.5 36.375 
Q 16.5 21.390625 20.328125 13.890625 
Q 24.171875 6.390625 31.78125 6.390625 
Q 39.453125 6.390625 43.28125 13.890625 
Q 47.125 21.390625 47.125 36.375 
Q 47.125 51.421875 43.28125 58.90625 
Q 39.453125 66.40625 31.78125 66.40625 
z
M 31.78125 74.21875 
Q 44.046875 74.21875 50.515625 64.515625 
Q 56.984375 54.828125 56.984375 36.375 
Q 56.984375 17.96875 50.515625 8.265625 
Q 44.046875 -1.421875 31.78125 -1.421875 
Q 19.53125 -1.421875 13.0625 8.265625 
Q 6.59375 17.96875 6.59375 36.375 
Q 6.59375 54.828125 13.0625 64.515625 
Q 19.53125 74.21875 31.78125 74.21875 
z
" id="DejaVuSans-30"/>
      </defs>
      <g transform="translate(181.31875 329.598437)scale(0.1 -0.1)">
       <use xlink:href="#DejaVuSans-30"/>
      </g>
     </g>
    </g>
    <g id="xtick_4">
     <g id="line2d_4">
      <g>
       <use style="stroke:#000000;stroke-width:0.8;" x="247.909091" xlink:href="#m7d92e8e547" y="315"/>
      </g>
     </g>
     <g id="text_4">
      <!-- 1 -->
      <g transform="translate(244.727841 329.598437)scale(0.1 -0.1)">
       <use xlink:href="#DejaVuSans-31"/>
      </g>
     </g>
    </g>
    <g id="xtick_5">
     <g id="line2d_5">
      <g>
       <use style="stroke:#000000;stroke-width:0.8;" x="311.318182" xlink:href="#m7d92e8e547" y="315"/>
      </g>
     </g>
     <g id="text_5">
      <!-- 2 -->
      <g transform="translate(308.136932 329.598437)scale(0.1 -0.1)">
       <use xlink:href="#DejaVuSans-32"/>
      </g>
     </g>
    </g>
    <g id="text_6">
     <!-- $x$ -->
     <defs>
      <path d="M 60.015625 54.6875 
L 34.90625 27.875 
L 50.296875 0 
L 39.984375 0 
L 28.421875 21.6875 
L 8.296875 0 
L -2.59375 0 
L 24.3125 28.8125 
L 10.015625 54.6875 
L 20.3125 54.6875 
L 30.8125 34.90625 
L 49.125 54.6875 
z
" id="DejaVuSans-Oblique-78"/>
     </defs>
     <g transform="translate(179.1 349.355313)scale(0.18 -0.18)">
      <use transform="translate(0 0.3125)" xlink:href="#DejaVuSans-Oblique-78"/>
     </g>
    </g>
   </g>
   <g id="matplotlib.axis_2">
    <g id="ytick_1">
     <g id="line2d_6">
      <defs>
       <path d="M 0 0 
L -3.5 0 
" id="m78236ff3db" style="stroke:#000000;stroke-width:0.8;"/>
      </defs>
      <g>
       <use style="stroke:#000000;stroke-width:0.8;" x="45" xlink:href="#m78236ff3db" y="302.645455"/>
      </g>
     </g>
     <g id="text_7">
      <!-- −2.0 -->
      <defs>
       <path d="M 10.6875 12.40625 
L 21 12.40625 
L 21 0 
L 10.6875 0 
z
" id="DejaVuSans-2e"/>
      </defs>
      <g transform="translate(13.717187 306.444673)scale(0.1 -0.1)">
       <use xlink:href="#DejaVuSans-2212"/>
       <use x="83.789062" xlink:href="#DejaVuSans-32"/>
       <use x="147.412109" xlink:href="#DejaVuSans-2e"/>
       <use x="179.199219" xlink:href="#DejaVuSans-30"/>
      </g>
     </g>
    </g>
    <g id="ytick_2">
     <g id="line2d_7">
      <g>
       <use style="stroke:#000000;stroke-width:0.8;" x="45" xlink:href="#m78236ff3db" y="271.759091"/>
      </g>
     </g>
     <g id="text_8">
      <!-- −1.5 -->
      <defs>
       <path d="M 10.796875 72.90625 
L 49.515625 72.90625 
L 49.515625 64.59375 
L 19.828125 64.59375 
L 19.828125 46.734375 
Q 21.96875 47.46875 24.109375 47.828125 
Q 26.265625 48.1875 28.421875 48.1875 
Q 40.625 48.1875 47.75 41.5 
Q 54.890625 34.8125 54.890625 23.390625 
Q 54.890625 11.625 47.5625 5.09375 
Q 40.234375 -1.421875 26.90625 -1.421875 
Q 22.3125 -1.421875 17.546875 -0.640625 
Q 12.796875 0.140625 7.71875 1.703125 
L 7.71875 11.625 
Q 12.109375 9.234375 16.796875 8.0625 
Q 21.484375 6.890625 26.703125 6.890625 
Q 35.15625 6.890625 40.078125 11.328125 
Q 45.015625 15.765625 45.015625 23.390625 
Q 45.015625 31 40.078125 35.4375 
Q 35.15625 39.890625 26.703125 39.890625 
Q 22.75 39.890625 18.8125 39.015625 
Q 14.890625 38.140625 10.796875 36.28125 
z
" id="DejaVuSans-35"/>
      </defs>
      <g transform="translate(13.717187 275.55831)scale(0.1 -0.1)">
       <use xlink:href="#DejaVuSans-2212"/>
       <use x="83.789062" xlink:href="#DejaVuSans-31"/>
       <use x="147.412109" xlink:href="#DejaVuSans-2e"/>
       <use x="179.199219" xlink:href="#DejaVuSans-35"/>
      </g>
     </g>
    </g>
    <g id="ytick_3">
     <g id="line2d_8">
      <g>
       <use style="stroke:#000000;stroke-width:0.8;" x="45" xlink:href="#m78236ff3db" y="240.872727"/>
      </g>
     </g>
     <g id="text_9">
      <!-- −1.0 -->
      <g transform="translate(13.717187 244.671946)scale(0.1 -0.1)">
       <use xlink:href="#DejaVuSans-2212"/>
       <use x="83.789062" xlink:href="#DejaVuSans-31"/>
       <use x="147.412109" xlink:href="#DejaVuSans-2e"/>
       <use x="179.199219" xlink:href="#DejaVuSans-30"/>
      </g>
     </g>
    </g>
    <g id="ytick_4">
     <g id="line2d_9">
      <g>
       <use style="stroke:#000000;stroke-width:0.8;" x="45" xlink:href="#m78236ff3db" y="209.986364"/>
      </g>
     </g>
     <g id="text_10">
      <!-- −0.5 -->
      <g transform="translate(13.717187 213.785582)scale(0.1 -0.1)">
       <use xlink:href="#DejaVuSans-2212"/>
       <use x="83.789062" xlink:href="#DejaVuSans-30"/>
       <use x="147.412109" xlink:href="#DejaVuSans-2e"/>
       <use x="179.199219" xlink:href="#DejaVuSans-35"/>
      </g>
     </g>
    </g>
    <g id="ytick_5">
     <g id="line2d_10">
      <g>
       <use style="stroke:#000000;stroke-width:0.8;" x="45" xlink:href="#m78236ff3db" y="179.1"/>
      </g>
     </g>
     <g id="text_11">
      <!-- 0.0 -->
      <g transform="translate(22.096875 182.899219)scale(0.1 -0.1)">
       <use xlink:href="#DejaVuSans-30"/>
       <use x="63.623047" xlink:href="#DejaVuSans-2e"/>
       <use x="95.410156" xlink:href="#DejaVuSans-30"/>
      </g>
     </g>
    </g>
    <g id="ytick_6">
     <g id="line2d_11">
      <g>
       <use style="stroke:#000000;stroke-width:0.8;" x="45" xlink:href="#m78236ff3db" y="148.213636"/>
      </g>
     </g>
     <g id="text_12">
      <!-- 0.5 -->
      <g transform="translate(22.096875 152.012855)scale(0.1 -0.1)">
       <use xlink:href="#DejaVuSans-30"/>
       <use x="63.623047" xlink:href="#DejaVuSans-2e"/>
       <use x="95.410156" xlink:href="#DejaVuSans-35"/>
      </g>
     </g>
    </g>
    <g id="ytick_7">
     <g id="line2d_12">
      <g>
       <use style="stroke:#000000;stroke-width:0.8;" x="45" xlink:href="#m78236ff3db" y="117.327273"/>
      </g>
     </g>
     <g id="text_13">
      <!-- 1.0 -->
      <g transform="translate(22.096875 121.126491)scale(0.1 -0.1)">
       <use xlink:href="#DejaVuSans-31"/>
       <use x="63.623047" xlink:href="#DejaVuSans-2e"/>
       <use x="95.410156" xlink:href="#DejaVuSans-30"/>
      </g>
     </g>
    </g>
    <g id="ytick_8">
     <g id="line2d_13">
      <g>
       <use style="stroke:#000000;stroke-width:0.8;" x="45" xlink:href="#m78236ff3db" y="86.440909"/>
      </g>
     </g>
     <g id="text_14">
      <!-- 1.5 -->
      <g transform="translate(22.096875 90.240128)scale(0.1 -0.1)">
       <use xlink:href="#DejaVuSans-31"/>
       <use x="63.623047" xlink:href="#DejaVuSans-2e"/>
       <use x="95.410156" xlink:href="#DejaVuSans-35"/>
      </g>
     </g>
    </g>
    <g id="ytick_9">
     <g id="line2d_14">
      <g>
       <use style="stroke:#000000;stroke-width:0.8;" x="45" xlink:href="#m78236ff3db" y="55.554545"/>
      </g>
     </g>
     <g id="text_15">
      <!-- 2.0 -->
      <g transform="translate(22.096875 59.353764)scale(0.1 -0.1)">
       <use xlink:href="#DejaVuSans-32"/>
       <use x="63.623047" xlink:href="#DejaVuSans-2e"/>
       <use x="95.410156" xlink:href="#DejaVuSans-30"/>
      </g>
     </g>
    </g>
    <g id="text_16">
     <!-- $f(x)$ -->
     <defs>
      <path d="M 47.796875 75.984375 
L 46.390625 68.5 
L 37.796875 68.5 
Q 32.90625 68.5 30.6875 66.578125 
Q 28.46875 64.65625 27.390625 59.515625 
L 26.421875 54.6875 
L 41.21875 54.6875 
L 39.890625 47.703125 
L 25.09375 47.703125 
L 15.828125 0 
L 6.78125 0 
L 16.109375 47.703125 
L 7.515625 47.703125 
L 8.796875 54.6875 
L 17.390625 54.6875 
L 18.109375 58.5 
Q 19.96875 68.171875 24.625 72.078125 
Q 29.296875 75.984375 39.3125 75.984375 
z
" id="DejaVuSans-Oblique-66"/>
      <path d="M 31 75.875 
Q 24.46875 64.65625 21.28125 53.65625 
Q 18.109375 42.671875 18.109375 31.390625 
Q 18.109375 20.125 21.3125 9.0625 
Q 24.515625 -2 31 -13.1875 
L 23.1875 -13.1875 
Q 15.875 -1.703125 12.234375 9.375 
Q 8.59375 20.453125 8.59375 31.390625 
Q 8.59375 42.28125 12.203125 53.3125 
Q 15.828125 64.359375 23.1875 75.875 
z
" id="DejaVuSans-28"/>
      <path d="M 8.015625 75.875 
L 15.828125 75.875 
Q 23.140625 64.359375 26.78125 53.3125 
Q 30.421875 42.28125 30.421875 31.390625 
Q 30.421875 20.453125 26.78125 9.375 
Q 23.140625 -1.703125 15.828125 -13.1875 
L 8.015625 -13.1875 
Q 14.5 -2 17.703125 9.0625 
Q 20.90625 20.125 20.90625 31.390625 
Q 20.90625 42.671875 17.703125 53.65625 
Q 14.5 64.65625 8.015625 75.875 
z
" id="DejaVuSans-29"/>
     </defs>
     <g transform="translate(5.97375 194.67)rotate(-90)scale(0.18 -0.18)">
      <use transform="translate(0 0.015625)" xlink:href="#DejaVuSans-Oblique-66"/>
      <use transform="translate(35.205078 0.015625)" xlink:href="#DejaVuSans-28"/>
      <use transform="translate(74.21875 0.015625)" xlink:href="#DejaVuSans-Oblique-78"/>
      <use transform="translate(133.398438 0.015625)" xlink:href="#DejaVuSans-29"/>
     </g>
    </g>
   </g>
   <g id="line2d_15">
    <path clip-path="url(#p9aa3d8e767)" d="M 57.681818 179.1 
L 101.016674 179.02099 
L 103.565783 178.839796 
L 106.114893 178.370949 
L 107.389447 177.951425 
L 108.664002 177.362142 
L 109.938556 176.574645 
L 111.213111 175.575609 
L 112.487666 174.376111 
L 117.585884 168.920212 
L 118.860439 167.949792 
L 120.134993 167.368345 
L 121.409548 167.24054 
L 122.684102 167.575645 
L 123.958657 168.323046 
L 125.233212 169.377763 
L 127.782321 171.800871 
L 129.056875 172.821138 
L 130.33143 173.481402 
L 131.605984 173.622041 
L 132.880539 173.103896 
L 134.155094 171.817109 
L 135.429648 169.694987 
L 136.704203 166.733544 
L 137.978757 163.01352 
L 140.527867 154.136752 
L 141.802421 149.649922 
L 143.076976 145.68772 
L 144.35153 142.670526 
L 145.626085 140.94028 
L 146.90064 140.698796 
L 148.175194 141.968272 
L 149.449749 144.584019 
L 150.724303 148.220644 
L 154.547967 160.74301 
L 155.822522 163.94391 
L 157.097076 166.050057 
L 158.371631 166.827183 
L 159.646185 166.134803 
L 160.92074 163.93017 
L 162.195295 160.279405 
L 163.469849 155.374187 
L 166.018958 143.262872 
L 167.293513 137.105688 
L 168.568068 131.705812 
L 169.842622 127.663203 
L 171.117177 125.452366 
L 172.391731 125.340561 
L 173.666286 127.338765 
L 174.940841 131.198467 
L 176.215395 136.454895 
L 180.039059 154.418817 
L 181.313614 159.153573 
L 182.588168 162.51399 
L 183.862723 164.248214 
L 185.137277 164.233555 
L 186.411832 162.469448 
L 187.686386 159.077661 
L 188.960941 154.309706 
L 191.51005 142.32651 
L 192.784605 136.244627 
L 194.059159 130.961008 
L 195.333714 127.08182 
L 196.608269 125.074151 
L 197.882823 125.188091 
L 199.157378 127.413446 
L 200.431932 131.483243 
L 201.706487 136.923432 
L 205.530151 155.420046 
L 206.804705 160.461462 
L 208.07926 164.299864 
L 209.353815 166.760507 
L 210.628369 167.793784 
L 211.902924 167.454577 
L 213.177478 165.88642 
L 214.452033 163.313024 
L 215.726587 160.033268 
L 218.275697 152.85778 
L 219.550251 149.787657 
L 220.824806 147.575903 
L 222.09936 146.502086 
L 223.373915 146.707654 
L 224.64847 148.174128 
L 225.923024 150.729421 
L 227.197579 154.081235 
L 231.021243 165.309561 
L 232.295797 168.374576 
L 233.570352 170.748712 
L 234.844906 172.349262 
L 236.119461 173.16652 
L 237.394016 173.248246 
L 238.66857 172.68679 
L 239.943125 171.610807 
L 241.217679 170.17997 
L 243.766788 167.00678 
L 245.041343 165.660154 
L 246.315898 164.711279 
L 247.590452 164.285106 
L 248.865007 164.441309 
L 250.139561 165.166357 
L 251.414116 166.378423 
L 252.688671 167.944363 
L 256.512334 173.196388 
L 257.786889 174.695439 
L 259.061444 175.94397 
L 260.335998 176.928134 
L 261.610553 177.664583 
L 262.885107 178.188878 
L 264.159662 178.544572 
L 266.708771 178.917152 
L 270.532435 179.074492 
L 283.277981 179.099997 
L 311.318182 179.1 
L 311.318182 179.1 
" style="fill:none;stroke:#3300ff;stroke-linecap:square;stroke-width:2;"/>
   </g>
   <g id="line2d_16">
    <path clip-path="url(#p9aa3d8e767)" d="M 57.681818 54.938355 
L 101.016674 54.862046 
L 104.840338 54.579428 
L 107.389447 54.362001 
L 108.664002 54.514436 
L 109.938556 55.204235 
L 111.213111 56.911036 
L 112.487666 60.27932 
L 113.76222 66.049672 
L 115.036775 74.924422 
L 116.311329 87.384481 
L 117.585884 103.479067 
L 120.134993 142.004225 
L 121.409548 148.750768 
L 122.684102 132.528506 
L 123.958657 112.652795 
L 125.233212 94.857445 
L 126.507766 80.42161 
L 127.782321 69.570131 
L 129.056875 61.961547 
L 130.33143 56.924809 
L 131.605984 53.674853 
L 132.880539 51.509035 
L 134.155094 49.962284 
L 135.429648 48.905361 
L 136.704203 48.578717 
L 137.978757 49.557653 
L 139.253312 52.646778 
L 140.527867 58.709218 
L 141.802421 68.447438 
L 143.076976 82.151152 
L 145.626085 117.285682 
L 146.90064 121.247063 
L 148.175194 104.866253 
L 149.449749 86.912801 
L 150.724303 71.979114 
L 151.998858 60.903234 
L 153.273413 53.53173 
L 154.547967 49.191777 
L 155.822522 46.95482 
L 157.097076 45.86755 
L 159.646185 44.325164 
L 160.92074 43.326886 
L 162.195295 42.491817 
L 163.469849 42.525448 
L 164.744404 44.384139 
L 166.018958 49.094656 
L 167.293513 57.522502 
L 168.568068 70.099757 
L 171.117177 103.376692 
L 172.391731 104.679078 
L 174.940841 71.548058 
L 176.215395 58.525537 
L 177.48995 49.632024 
L 178.764504 44.478665 
L 180.039059 42.204744 
L 181.313614 41.754359 
L 183.862723 42.496863 
L 185.137277 42.482204 
L 187.686386 41.678448 
L 188.960941 42.095633 
L 190.235496 44.33502 
L 191.51005 49.453924 
L 192.784605 58.315269 
L 194.059159 71.310599 
L 196.608269 104.412669 
L 197.882823 103.112417 
L 200.431932 69.877188 
L 201.706487 57.340247 
L 202.981042 48.967446 
L 204.255596 44.330582 
L 205.530151 42.571308 
L 206.804705 42.673875 
L 208.07926 43.69658 
L 210.628369 46.113967 
L 211.902924 47.27207 
L 213.177478 48.89733 
L 214.452033 51.761791 
L 215.726587 56.791588 
L 217.001142 64.871259 
L 218.275697 76.61625 
L 219.550251 92.116439 
L 220.824806 110.473883 
L 222.09936 127.050353 
L 223.373915 123.053056 
L 225.923024 87.192852 
L 227.197579 72.878751 
L 228.472133 62.441564 
L 229.746688 55.650931 
L 231.021243 51.853694 
L 232.295797 50.219748 
L 233.570352 49.959085 
L 234.844906 50.494437 
L 236.119461 51.571659 
L 237.394016 53.301058 
L 238.66857 56.130196 
L 239.943125 60.751216 
L 241.217679 67.94923 
L 242.492234 78.406788 
L 243.766788 92.486461 
L 245.041343 109.989903 
L 246.315898 129.664139 
L 247.590452 145.795334 
L 248.865007 139.077189 
L 251.414116 100.937277 
L 252.688671 85.15538 
L 253.963225 73.046993 
L 255.23778 64.531062 
L 256.512334 59.099596 
L 257.786889 56.030866 
L 259.061444 54.57356 
L 260.335998 54.080428 
L 261.610553 54.075158 
L 266.708771 54.764771 
L 270.532435 54.913027 
L 283.277981 54.938352 
L 311.318182 54.938355 
L 311.318182 54.938355 
" style="fill:none;stroke:#3300ff;stroke-linecap:square;stroke-width:0.2;"/>
   </g>
   <g id="line2d_17">
    <path clip-path="url(#p9aa3d8e767)" d="M 57.681818 303.261645 
L 101.016674 303.179933 
L 103.565783 302.972137 
L 104.840338 302.7317 
L 106.114893 302.302365 
L 107.389447 301.540849 
L 108.664002 300.209848 
L 109.938556 297.945055 
L 111.213111 294.240182 
L 112.487666 288.472903 
L 113.76222 279.988475 
L 115.036775 268.239789 
L 116.311329 252.962447 
L 117.585884 234.361358 
L 120.134993 192.732465 
L 121.409548 185.730312 
L 122.684102 202.622785 
L 125.233212 243.898082 
L 126.507766 260.765897 
L 127.782321 274.031612 
L 129.056875 283.680728 
L 130.33143 290.037996 
L 131.605984 293.569229 
L 132.880539 294.698757 
L 134.155094 293.671934 
L 135.429648 290.484614 
L 136.704203 284.888372 
L 137.978757 276.469387 
L 139.253312 264.789199 
L 140.527867 249.564286 
L 141.802421 230.852406 
L 145.626085 164.594878 
L 146.90064 160.150529 
L 148.175194 179.070291 
L 150.724303 224.462175 
L 151.998858 243.984369 
L 153.273413 260.015089 
L 154.547967 272.294242 
L 155.822522 280.933 
L 157.097076 286.232565 
L 158.371631 288.507 
L 159.646185 287.944442 
L 160.92074 284.533455 
L 162.195295 278.066992 
L 163.469849 268.222926 
L 164.744404 254.70708 
L 166.018958 237.431089 
L 167.293513 216.688873 
L 171.117177 147.52804 
L 172.391731 146.002044 
L 173.666286 166.511337 
L 176.215395 214.384252 
L 177.48995 235.377196 
L 178.764504 252.91556 
L 180.039059 266.63289 
L 181.313614 276.552786 
L 182.588168 282.915045 
L 183.862723 285.999566 
L 185.137277 285.984907 
L 186.411832 282.870503 
L 187.686386 276.476874 
L 188.960941 266.523779 
L 190.235496 252.771914 
L 191.51005 235.199095 
L 192.784605 214.173984 
L 195.333714 166.254393 
L 196.608269 145.735634 
L 197.882823 147.263765 
L 199.157378 168.665485 
L 201.706487 216.506618 
L 202.981042 237.303879 
L 204.255596 254.653523 
L 205.530151 268.268785 
L 206.804705 278.24905 
L 208.07926 284.903149 
L 209.353815 288.570146 
L 210.628369 289.473601 
L 211.902924 287.637085 
L 213.177478 282.87551 
L 214.452033 274.864257 
L 215.726587 263.274947 
L 217.001142 247.952394 
L 218.275697 229.099311 
L 222.09936 165.953819 
L 223.373915 170.362252 
L 228.472133 253.296632 
L 229.746688 267.793351 
L 231.021243 278.765429 
L 232.295797 286.529403 
L 233.570352 291.538338 
L 234.844906 294.204086 
L 236.119461 294.761381 
L 237.394016 293.195434 
L 238.66857 289.243383 
L 239.943125 282.470398 
L 241.217679 272.41071 
L 242.492234 258.751075 
L 243.766788 241.527098 
L 246.315898 199.758418 
L 247.590452 182.774878 
L 248.865007 189.805429 
L 252.688671 250.733346 
L 253.963225 266.362359 
L 255.23778 278.469864 
L 256.512334 287.29318 
L 257.786889 293.360011 
L 259.061444 297.314379 
L 260.335998 299.77584 
L 261.610553 301.254007 
L 262.885107 302.120293 
L 264.159662 302.620708 
L 265.434217 302.907155 
L 267.983326 303.160202 
L 273.081544 303.25603 
L 311.318182 303.261645 
L 311.318182 303.261645 
" style="fill:none;stroke:#3300ff;stroke-linecap:square;stroke-width:0.2;"/>
   </g>
   <g id="line2d_18">
    <defs>
     <path d="M 0 3.75 
C 0.994512 3.75 1.948425 3.354876 2.65165 2.65165 
C 3.354876 1.948425 3.75 0.994512 3.75 0 
C 3.75 -0.994512 3.354876 -1.948425 2.65165 -2.65165 
C 1.948425 -3.354876 0.994512 -3.75 0 -3.75 
C -0.994512 -3.75 -1.948425 -3.354876 -2.65165 -2.65165 
C -3.354876 -1.948425 -3.75 -0.994512 -3.75 0 
C -3.75 0.994512 -3.354876 1.948425 -2.65165 2.65165 
C -1.948425 3.354876 -0.994512 3.75 0 3.75 
z
" id="m49240f5374" style="stroke:#000000;"/>
    </defs>
    <g clip-path="url(#p9aa3d8e767)">
     <use style="stroke:#000000;" x="121.090909" xlink:href="#m49240f5374" y="167.109843"/>
     <use style="stroke:#000000;" x="146.454545" xlink:href="#m49240f5374" y="140.223859"/>
     <use style="stroke:#000000;" x="171.818182" xlink:href="#m49240f5374" y="124.584754"/>
     <use style="stroke:#000000;" x="197.181818" xlink:href="#m49240f5374" y="124.315116"/>
     <use style="stroke:#000000;" x="222.545455" xlink:href="#m49240f5374" y="146.0995"/>
     <use style="stroke:#000000;" x="247.909091" xlink:href="#m49240f5374" y="164.120625"/>
    </g>
   </g>
   <g id="line2d_19">
    <path clip-path="url(#p9aa3d8e767)" d="M 45 315 
L 45 43.2 
" style="fill:none;stroke:#000000;stroke-linecap:square;stroke-width:1.5;"/>
   </g>
   <g id="line2d_20">
    <path clip-path="url(#p9aa3d8e767)" d="M 45 315 
L 324 315 
" style="fill:none;stroke:#000000;stroke-linecap:square;stroke-width:1.5;"/>
   </g>
   <g id="patch_4">
    <path d="M 45 315 
L 45 43.2 
" style="fill:none;stroke:#000000;stroke-linecap:square;stroke-linejoin:miter;stroke-width:0.8;"/>
   </g>
   <g id="patch_5">
    <path d="M 324 315 
L 324 43.2 
" style="fill:none;stroke:#000000;stroke-linecap:square;stroke-linejoin:miter;stroke-width:0.8;"/>
   </g>
   <g id="patch_6">
    <path d="M 45 315 
L 324 315 
" style="fill:none;stroke:#000000;stroke-linecap:square;stroke-linejoin:miter;stroke-width:0.8;"/>
   </g>
   <g id="patch_7">
    <path d="M 45 43.2 
L 324 43.2 
" style="fill:none;stroke:#000000;stroke-linecap:square;stroke-linejoin:miter;stroke-width:0.8;"/>
   </g>
  </g>
 </g>
 <defs>
  <clipPath id="p9aa3d8e767">
   <rect height="271.8" width="279" x="45" y="43.2"/>
  </clipPath>
 </defs>
</svg>
