<?xml version="1.0" encoding="utf-8" standalone="no"?>
<!DOCTYPE svg PUBLIC "-//W3C//DTD SVG 1.1//EN"
  "http://www.w3.org/Graphics/SVG/1.1/DTD/svg11.dtd">
<!-- Created with matplotlib (http://matplotlib.org/) -->
<svg height="360pt" version="1.1" viewBox="0 0 360 360" width="360pt" xmlns="http://www.w3.org/2000/svg" xmlns:xlink="http://www.w3.org/1999/xlink">
 <defs>
  <style type="text/css">
*{stroke-linecap:butt;stroke-linejoin:round;}
  </style>
 </defs>
 <g id="figure_1">
  <g id="patch_1">
   <path d="M 0 360 
L 360 360 
L 360 0 
L 0 0 
z
" style="fill:none;"/>
  </g>
  <g id="axes_1">
   <g id="patch_2">
    <path d="M 45 315 
L 324 315 
L 324 43.2 
L 45 43.2 
z
" style="fill:none;"/>
   </g>
   <g id="patch_3">
    <path clip-path="url(#p93dd66709d)" d="M 57.681818 54.938355 
L 58.956373 54.938355 
L 60.230927 54.938355 
L 61.505482 54.938355 
L 62.780037 54.938355 
L 64.054591 54.938355 
L 65.329146 54.938355 
L 66.6037 54.938355 
L 67.878255 54.938355 
L 69.15281 54.938355 
L 70.427364 54.938355 
L 71.701919 54.938355 
L 72.976473 54.938355 
L 74.251028 54.938355 
L 75.525582 54.938355 
L 76.800137 54.938355 
L 78.074692 54.938355 
L 79.349246 54.938355 
L 80.623801 54.938355 
L 81.898355 54.938355 
L 83.17291 54.938355 
L 84.447465 54.938355 
L 85.722019 54.938355 
L 86.996574 54.938355 
L 88.271128 54.938355 
L 89.545683 54.938355 
L 90.820238 54.938355 
L 92.094792 54.938355 
L 93.369347 54.938355 
L 94.643901 54.938355 
L 95.918456 54.938355 
L 97.193011 54.938355 
L 98.467565 54.938355 
L 99.74212 54.938355 
L 101.016674 54.938355 
L 102.291229 54.938355 
L 103.565783 54.938352 
L 104.840338 54.938331 
L 106.114893 54.938185 
L 107.389447 54.937311 
L 108.664002 54.932892 
L 109.938556 54.914198 
L 111.213111 54.849442 
L 112.487666 54.678028 
L 113.76222 54.408831 
L 115.036775 54.618781 
L 116.311329 57.565149 
L 117.585884 67.946357 
L 118.860439 91.068895 
L 120.134993 127.544391 
L 121.409548 145.942725 
L 122.684102 108.004932 
L 123.958657 77.684038 
L 125.233212 61.461932 
L 126.507766 55.509979 
L 127.782321 54.367892 
L 129.056875 54.543278 
L 130.33143 54.780927 
L 131.605984 54.890185 
L 132.880539 54.922591 
L 134.155094 54.915168 
L 135.429648 54.847156 
L 136.704203 54.60295 
L 137.978757 53.906243 
L 139.253312 52.370599 
L 140.527867 50.092934 
L 141.802421 49.102208 
L 143.076976 54.523368 
L 144.35153 72.823566 
L 145.626085 105.828474 
L 146.90064 116.492952 
L 148.175194 81.387145 
L 149.449749 58.414482 
L 150.724303 49.750425 
L 151.998858 49.488308 
L 153.273413 51.726241 
L 154.547967 53.548229 
L 155.822522 54.458792 
L 157.097076 54.800431 
L 158.371631 54.898784 
L 159.646185 54.897674 
L 160.92074 54.790832 
L 162.195295 54.40503 
L 163.469849 53.312683 
L 164.744404 50.878757 
L 166.018958 46.969951 
L 167.293513 43.653831 
L 168.568068 46.524794 
L 169.842622 62.77033 
L 171.117177 94.415425 
L 172.391731 97.887784 
L 173.666286 65.313406 
L 174.940841 47.442524 
L 176.215395 43.542091 
L 177.48995 46.547812 
L 178.764504 50.544213 
L 180.039059 53.139919 
L 181.313614 54.337184 
L 182.588168 54.769156 
L 183.862723 54.890758 
L 185.137277 54.890601 
L 186.411832 54.768329 
L 187.686386 54.334175 
L 188.960941 53.130662 
L 190.235496 50.519998 
L 191.51005 46.493921 
L 192.784605 43.440054 
L 194.059159 47.278158 
L 195.333714 65.08815 
L 196.608269 97.625148 
L 197.882823 94.154903 
L 199.157378 62.550469 
L 200.431932 46.366937 
L 201.706487 43.557405 
L 202.981042 46.91984 
L 204.255596 50.856602 
L 205.530151 53.304352 
L 206.804705 54.402388 
L 208.07926 54.790281 
L 209.353815 54.898518 
L 210.628369 54.903725 
L 211.902924 54.821219 
L 213.177478 54.532733 
L 214.452033 53.771931 
L 215.726587 52.302034 
L 217.001142 50.749191 
L 218.275697 52.099493 
L 219.550251 62.137794 
L 220.824806 86.407977 
L 222.09936 122.253116 
L 223.373915 111.45068 
L 224.64847 77.492217 
L 225.923024 57.821659 
L 227.197579 51.084644 
L 228.472133 51.106664 
L 229.746688 52.811618 
L 231.021243 54.069474 
L 232.295797 54.654335 
L 233.570352 54.860819 
L 234.844906 54.917699 
L 236.119461 54.920258 
L 237.394016 54.878188 
L 238.66857 54.738613 
L 239.943125 54.417273 
L 241.217679 54.048761 
L 242.492234 54.822344 
L 243.766788 60.201383 
L 245.041343 75.718078 
L 246.315898 105.396362 
L 247.590452 142.998012 
L 248.865007 124.716282 
L 250.139561 88.758097 
L 251.414116 66.340004 
L 252.688671 56.61513 
L 253.963225 54.140771 
L 255.23778 54.204209 
L 256.512334 54.603506 
L 257.786889 54.826351 
L 259.061444 54.908111 
L 260.335998 54.931527 
L 261.610553 54.93705 
L 262.885107 54.938143 
L 264.159662 54.938326 
L 265.434217 54.938351 
L 266.708771 54.938354 
L 267.983326 54.938355 
L 269.25788 54.938355 
L 270.532435 54.938355 
L 271.806989 54.938355 
L 273.081544 54.938355 
L 274.356099 54.938355 
L 275.630653 54.938355 
L 276.905208 54.938355 
L 278.179762 54.938355 
L 279.454317 54.938355 
L 280.728872 54.938355 
L 282.003426 54.938355 
L 283.277981 54.938355 
L 284.552535 54.938355 
L 285.82709 54.938355 
L 287.101645 54.938355 
L 288.376199 54.938355 
L 289.650754 54.938355 
L 290.925308 54.938355 
L 292.199863 54.938355 
L 293.474418 54.938355 
L 294.748972 54.938355 
L 296.023527 54.938355 
L 297.298081 54.938355 
L 298.572636 54.938355 
L 299.84719 54.938355 
L 301.121745 54.938355 
L 302.3963 54.938355 
L 303.670854 54.938355 
L 304.945409 54.938355 
L 306.219963 54.938355 
L 307.494518 54.938355 
L 308.769073 54.938355 
L 310.043627 54.938355 
L 311.318182 54.938355 
L 311.318182 303.261645 
L 310.043627 303.261645 
L 308.769073 303.261645 
L 307.494518 303.261645 
L 306.219963 303.261645 
L 304.945409 303.261645 
L 303.670854 303.261645 
L 302.3963 303.261645 
L 301.121745 303.261645 
L 299.84719 303.261645 
L 298.572636 303.261645 
L 297.298081 303.261645 
L 296.023527 303.261645 
L 294.748972 303.261645 
L 293.474418 303.261645 
L 292.199863 303.261645 
L 290.925308 303.261645 
L 289.650754 303.261645 
L 288.376199 303.261645 
L 287.101645 303.261645 
L 285.82709 303.261645 
L 284.552535 303.261645 
L 283.277981 303.261645 
L 282.003426 303.261645 
L 280.728872 303.261645 
L 279.454317 303.261645 
L 278.179762 303.261645 
L 276.905208 303.261645 
L 275.630653 303.261645 
L 274.356099 303.261645 
L 273.081544 303.261645 
L 271.806989 303.261645 
L 270.532435 303.261645 
L 269.25788 303.261645 
L 267.983326 303.261645 
L 266.708771 303.261645 
L 265.434217 303.261642 
L 264.159662 303.261616 
L 262.885107 303.261433 
L 261.610553 303.26034 
L 260.335998 303.254792 
L 259.061444 303.230887 
L 257.786889 303.142233 
L 256.512334 302.849616 
L 255.23778 301.945009 
L 253.963225 299.268489 
L 252.688671 292.063524 
L 251.414116 275.760702 
L 250.139561 246.28246 
L 248.865007 205.139651 
L 247.590452 185.689286 
L 246.315898 226.659848 
L 245.041343 262.778536 
L 243.766788 285.365051 
L 242.492234 296.485995 
L 241.217679 300.952824 
L 239.943125 302.51984 
L 238.66857 303.037006 
L 237.394016 303.199445 
L 236.119461 303.243427 
L 234.844906 303.240948 
L 233.570352 303.183427 
L 232.295797 302.968123 
L 231.021243 302.296918 
L 229.746688 300.434412 
L 228.472133 295.706124 
L 227.197579 284.846679 
L 225.923024 263.328682 
L 224.64847 228.264874 
L 223.373915 183.59514 
L 222.09936 171.243025 
L 220.824806 215.393071 
L 219.550251 254.238295 
L 218.275697 279.713445 
L 217.001142 293.287322 
L 215.726587 299.43008 
L 214.452033 301.915178 
L 213.177478 302.836359 
L 211.902924 303.142954 
L 210.628369 303.226925 
L 209.353815 303.221757 
L 208.07926 303.112671 
L 206.804705 302.713531 
L 205.530151 301.509 
L 204.255596 298.340167 
L 202.981042 290.917066 
L 201.706487 275.4592 
L 200.431932 247.68654 
L 199.157378 206.307267 
L 197.882823 158.179817 
L 196.608269 153.850651 
L 195.333714 201.577303 
L 194.059159 244.130537 
L 192.784605 273.29629 
L 191.51005 289.806891 
L 190.235496 297.839859 
L 188.960941 301.307564 
L 187.686386 302.641984 
L 186.411832 303.090434 
L 185.137277 303.213823 
L 183.862723 303.21398 
L 182.588168 303.091261 
L 181.313614 302.644994 
L 180.039059 301.316821 
L 178.764504 297.864074 
L 177.48995 289.860782 
L 176.215395 273.398328 
L 174.940841 244.294902 
L 173.666286 201.802558 
L 172.391731 154.113287 
L 171.117177 158.440339 
L 169.842622 206.527128 
L 168.568068 247.844397 
L 167.293513 275.555626 
L 166.018958 290.967177 
L 164.744404 298.362322 
L 163.469849 301.51733 
L 162.195295 302.716172 
L 160.92074 303.113221 
L 159.646185 303.220912 
L 158.371631 303.221983 
L 157.097076 303.122167 
L 155.822522 302.762419 
L 154.547967 301.691476 
L 153.273413 298.854286 
L 151.998858 292.026439 
L 150.724303 277.364377 
L 149.449749 250.514984 
L 148.175194 210.372239 
L 146.90064 165.482861 
L 145.626085 177.972934 
L 144.35153 223.596222 
L 143.076976 260.030391 
L 141.802421 282.864243 
L 140.527867 294.692395 
L 139.253312 299.993393 
L 137.978757 302.133688 
L 136.704203 302.916738 
L 135.429648 303.169764 
L 134.155094 303.238418 
L 132.880539 303.24576 
L 131.605984 303.211442 
L 130.33143 303.07932 
L 129.056875 302.645844 
L 127.782321 301.271955 
L 126.507766 297.17363 
L 125.233212 286.6256 
L 123.958657 264.744497 
L 122.684102 229.268418 
L 121.409548 188.633999 
L 120.134993 207.96776 
L 118.860439 248.593259 
L 117.585884 277.367054 
L 116.311329 293.013543 
L 115.036775 299.746499 
L 113.76222 302.149631 
L 112.487666 302.924138 
L 111.213111 303.165323 
L 109.938556 303.236973 
L 108.664002 303.256157 
L 107.389447 303.2606 
L 106.114893 303.261476 
L 104.840338 303.261622 
L 103.565783 303.261642 
L 102.291229 303.261645 
L 101.016674 303.261645 
L 99.74212 303.261645 
L 98.467565 303.261645 
L 97.193011 303.261645 
L 95.918456 303.261645 
L 94.643901 303.261645 
L 93.369347 303.261645 
L 92.094792 303.261645 
L 90.820238 303.261645 
L 89.545683 303.261645 
L 88.271128 303.261645 
L 86.996574 303.261645 
L 85.722019 303.261645 
L 84.447465 303.261645 
L 83.17291 303.261645 
L 81.898355 303.261645 
L 80.623801 303.261645 
L 79.349246 303.261645 
L 78.074692 303.261645 
L 76.800137 303.261645 
L 75.525582 303.261645 
L 74.251028 303.261645 
L 72.976473 303.261645 
L 71.701919 303.261645 
L 70.427364 303.261645 
L 69.15281 303.261645 
L 67.878255 303.261645 
L 66.6037 303.261645 
L 65.329146 303.261645 
L 64.054591 303.261645 
L 62.780037 303.261645 
L 61.505482 303.261645 
L 60.230927 303.261645 
L 58.956373 303.261645 
L 57.681818 303.261645 
z
" style="fill:#cc3300;opacity:0.3;stroke:#cc3300;stroke-linejoin:miter;stroke-width:0.5;"/>
   </g>
   <g id="matplotlib.axis_1">
    <g id="xtick_1">
     <g id="line2d_1">
      <defs>
       <path d="M 0 0 
L 0 3.5 
" id="m92bb1c1c1a" style="stroke:#000000;stroke-width:0.8;"/>
      </defs>
      <g>
       <use style="stroke:#000000;stroke-width:0.8;" x="57.681818" xlink:href="#m92bb1c1c1a" y="315"/>
      </g>
     </g>
     <g id="text_1">
      <!-- −2 -->
      <defs>
       <path d="M 10.59375 35.5 
L 73.1875 35.5 
L 73.1875 27.203125 
L 10.59375 27.203125 
z
" id="DejaVuSans-2212"/>
       <path d="M 19.1875 8.296875 
L 53.609375 8.296875 
L 53.609375 0 
L 7.328125 0 
L 7.328125 8.296875 
Q 12.9375 14.109375 22.625 23.890625 
Q 32.328125 33.6875 34.8125 36.53125 
Q 39.546875 41.84375 41.421875 45.53125 
Q 43.3125 49.21875 43.3125 52.78125 
Q 43.3125 58.59375 39.234375 62.25 
Q 35.15625 65.921875 28.609375 65.921875 
Q 23.96875 65.921875 18.8125 64.3125 
Q 13.671875 62.703125 7.8125 59.421875 
L 7.8125 69.390625 
Q 13.765625 71.78125 18.9375 73 
Q 24.125 74.21875 28.421875 74.21875 
Q 39.75 74.21875 46.484375 68.546875 
Q 53.21875 62.890625 53.21875 53.421875 
Q 53.21875 48.921875 51.53125 44.890625 
Q 49.859375 40.875 45.40625 35.40625 
Q 44.1875 33.984375 37.640625 27.21875 
Q 31.109375 20.453125 19.1875 8.296875 
z
" id="DejaVuSans-32"/>
      </defs>
      <g transform="translate(50.310724 329.598437)scale(0.1 -0.1)">
       <use xlink:href="#DejaVuSans-2212"/>
       <use x="83.789062" xlink:href="#DejaVuSans-32"/>
      </g>
     </g>
    </g>
    <g id="xtick_2">
     <g id="line2d_2">
      <g>
       <use style="stroke:#000000;stroke-width:0.8;" x="121.090909" xlink:href="#m92bb1c1c1a" y="315"/>
      </g>
     </g>
     <g id="text_2">
      <!-- −1 -->
      <defs>
       <path d="M 12.40625 8.296875 
L 28.515625 8.296875 
L 28.515625 63.921875 
L 10.984375 60.40625 
L 10.984375 69.390625 
L 28.421875 72.90625 
L 38.28125 72.90625 
L 38.28125 8.296875 
L 54.390625 8.296875 
L 54.390625 0 
L 12.40625 0 
z
" id="DejaVuSans-31"/>
      </defs>
      <g transform="translate(113.719815 329.598437)scale(0.1 -0.1)">
       <use xlink:href="#DejaVuSans-2212"/>
       <use x="83.789062" xlink:href="#DejaVuSans-31"/>
      </g>
     </g>
    </g>
    <g id="xtick_3">
     <g id="line2d_3">
      <g>
       <use style="stroke:#000000;stroke-width:0.8;" x="184.5" xlink:href="#m92bb1c1c1a" y="315"/>
      </g>
     </g>
     <g id="text_3">
      <!-- 0 -->
      <defs>
       <path d="M 31.78125 66.40625 
Q 24.171875 66.40625 20.328125 58.90625 
Q 16.5 51.421875 16.5 36.375 
Q 16.5 21.390625 20.328125 13.890625 
Q 24.171875 6.390625 31.78125 6.390625 
Q 39.453125 6.390625 43.28125 13.890625 
Q 47.125 21.390625 47.125 36.375 
Q 47.125 51.421875 43.28125 58.90625 
Q 39.453125 66.40625 31.78125 66.40625 
z
M 31.78125 74.21875 
Q 44.046875 74.21875 50.515625 64.515625 
Q 56.984375 54.828125 56.984375 36.375 
Q 56.984375 17.96875 50.515625 8.265625 
Q 44.046875 -1.421875 31.78125 -1.421875 
Q 19.53125 -1.421875 13.0625 8.265625 
Q 6.59375 17.96875 6.59375 36.375 
Q 6.59375 54.828125 13.0625 64.515625 
Q 19.53125 74.21875 31.78125 74.21875 
z
" id="DejaVuSans-30"/>
      </defs>
      <g transform="translate(181.31875 329.598437)scale(0.1 -0.1)">
       <use xlink:href="#DejaVuSans-30"/>
      </g>
     </g>
    </g>
    <g id="xtick_4">
     <g id="line2d_4">
      <g>
       <use style="stroke:#000000;stroke-width:0.8;" x="247.909091" xlink:href="#m92bb1c1c1a" y="315"/>
      </g>
     </g>
     <g id="text_4">
      <!-- 1 -->
      <g transform="translate(244.727841 329.598437)scale(0.1 -0.1)">
       <use xlink:href="#DejaVuSans-31"/>
      </g>
     </g>
    </g>
    <g id="xtick_5">
     <g id="line2d_5">
      <g>
       <use style="stroke:#000000;stroke-width:0.8;" x="311.318182" xlink:href="#m92bb1c1c1a" y="315"/>
      </g>
     </g>
     <g id="text_5">
      <!-- 2 -->
      <g transform="translate(308.136932 329.598437)scale(0.1 -0.1)">
       <use xlink:href="#DejaVuSans-32"/>
      </g>
     </g>
    </g>
    <g id="text_6">
     <!-- $inputScalar$ -->
     <defs>
      <path d="M 18.3125 75.984375 
L 27.296875 75.984375 
L 25.09375 64.59375 
L 16.109375 64.59375 
z
M 14.203125 54.6875 
L 23.1875 54.6875 
L 12.5 0 
L 3.515625 0 
z
" id="DejaVuSans-Oblique-69"/>
      <path d="M 55.71875 33.015625 
L 49.3125 0 
L 40.28125 0 
L 46.6875 32.671875 
Q 47.125 34.96875 47.359375 36.71875 
Q 47.609375 38.484375 47.609375 39.5 
Q 47.609375 43.609375 45.015625 45.890625 
Q 42.4375 48.1875 37.796875 48.1875 
Q 30.5625 48.1875 25.34375 43.375 
Q 20.125 38.578125 18.5 30.328125 
L 12.5 0 
L 3.515625 0 
L 14.109375 54.6875 
L 23.09375 54.6875 
L 21.296875 46.09375 
Q 25.046875 50.828125 30.3125 53.40625 
Q 35.59375 56 41.40625 56 
Q 48.640625 56 52.609375 52.09375 
Q 56.59375 48.1875 56.59375 41.109375 
Q 56.59375 39.359375 56.375 37.359375 
Q 56.15625 35.359375 55.71875 33.015625 
z
" id="DejaVuSans-Oblique-6e"/>
      <path d="M 49.609375 33.6875 
Q 49.609375 40.875 46.484375 44.671875 
Q 43.359375 48.484375 37.5 48.484375 
Q 33.5 48.484375 29.859375 46.4375 
Q 26.21875 44.390625 23.390625 40.484375 
Q 20.609375 36.625 18.9375 31.15625 
Q 17.28125 25.6875 17.28125 20.3125 
Q 17.28125 13.484375 20.40625 9.796875 
Q 23.53125 6.109375 29.296875 6.109375 
Q 33.546875 6.109375 37.1875 8.109375 
Q 40.828125 10.109375 43.40625 13.921875 
Q 46.1875 17.921875 47.890625 23.34375 
Q 49.609375 28.765625 49.609375 33.6875 
z
M 21.78125 46.390625 
Q 25.390625 51.125 30.296875 53.5625 
Q 35.203125 56 41.21875 56 
Q 49.609375 56 54.25 50.5 
Q 58.890625 45.015625 58.890625 35.109375 
Q 58.890625 27 56 19.65625 
Q 53.125 12.3125 47.703125 6.5 
Q 44.09375 2.640625 39.546875 0.609375 
Q 35.015625 -1.421875 29.984375 -1.421875 
Q 24.171875 -1.421875 20.21875 1 
Q 16.265625 3.421875 14.3125 8.203125 
L 8.6875 -20.796875 
L -0.296875 -20.796875 
L 14.40625 54.6875 
L 23.390625 54.6875 
z
" id="DejaVuSans-Oblique-70"/>
      <path d="M 6.6875 21.6875 
L 13.09375 54.6875 
L 22.125 54.6875 
L 15.71875 22.015625 
Q 15.234375 19.625 15.015625 17.921875 
Q 14.796875 16.21875 14.796875 15.09375 
Q 14.796875 10.9375 17.328125 8.65625 
Q 19.875 6.390625 24.515625 6.390625 
Q 31.734375 6.390625 37 11.265625 
Q 42.28125 16.15625 43.890625 24.421875 
L 49.90625 54.6875 
L 58.890625 54.6875 
L 48.296875 0 
L 39.3125 0 
L 41.109375 8.59375 
Q 37.3125 3.8125 32.0625 1.1875 
Q 26.8125 -1.421875 20.90625 -1.421875 
Q 13.71875 -1.421875 9.71875 2.515625 
Q 5.71875 6.453125 5.71875 13.484375 
Q 5.71875 14.9375 5.953125 17.140625 
Q 6.203125 19.34375 6.6875 21.6875 
z
" id="DejaVuSans-Oblique-75"/>
      <path d="M 42.28125 54.6875 
L 40.921875 47.703125 
L 23 47.703125 
L 17.1875 18.015625 
Q 16.890625 16.359375 16.75 15.234375 
Q 16.609375 14.109375 16.609375 13.484375 
Q 16.609375 10.359375 18.484375 8.9375 
Q 20.359375 7.515625 24.515625 7.515625 
L 33.59375 7.515625 
L 32.078125 0 
L 23.484375 0 
Q 15.484375 0 11.546875 3.125 
Q 7.625 6.25 7.625 12.59375 
Q 7.625 13.71875 7.765625 15.0625 
Q 7.90625 16.40625 8.203125 18.015625 
L 14.015625 47.703125 
L 6.390625 47.703125 
L 7.8125 54.6875 
L 15.28125 54.6875 
L 18.3125 70.21875 
L 27.296875 70.21875 
L 24.3125 54.6875 
z
" id="DejaVuSans-Oblique-74"/>
      <path d="M 60.296875 70.515625 
L 58.40625 60.890625 
Q 53.46875 63.53125 48.609375 64.875 
Q 43.75 66.21875 39.203125 66.21875 
Q 30.375 66.21875 25.140625 62.359375 
Q 19.921875 58.5 19.921875 52.09375 
Q 19.921875 48.578125 21.84375 46.703125 
Q 23.78125 44.828125 31.78125 42.671875 
L 37.703125 41.21875 
Q 47.703125 38.625 51.609375 34.640625 
Q 55.515625 30.671875 55.515625 23.484375 
Q 55.515625 12.453125 46.84375 5.515625 
Q 38.1875 -1.421875 24.03125 -1.421875 
Q 18.21875 -1.421875 12.359375 -0.265625 
Q 6.5 0.875 0.59375 3.21875 
L 2.59375 13.375 
Q 8.015625 10.015625 13.453125 8.296875 
Q 18.890625 6.59375 24.3125 6.59375 
Q 33.546875 6.59375 39.109375 10.6875 
Q 44.671875 14.796875 44.671875 21.390625 
Q 44.671875 25.78125 42.453125 28.046875 
Q 40.234375 30.328125 32.90625 32.171875 
L 27 33.6875 
Q 16.890625 36.328125 13.203125 39.765625 
Q 9.515625 43.21875 9.515625 49.421875 
Q 9.515625 60.296875 17.890625 67.25 
Q 26.265625 74.21875 39.703125 74.21875 
Q 44.921875 74.21875 50.046875 73.28125 
Q 55.171875 72.359375 60.296875 70.515625 
z
" id="DejaVuSans-Oblique-53"/>
      <path d="M 53.609375 52.59375 
L 51.8125 43.703125 
Q 48.578125 46.046875 44.9375 47.21875 
Q 41.3125 48.390625 37.40625 48.390625 
Q 33.109375 48.390625 29.21875 46.875 
Q 25.34375 45.359375 22.703125 42.578125 
Q 18.5 38.328125 16.203125 32.609375 
Q 13.921875 26.90625 13.921875 20.796875 
Q 13.921875 13.421875 17.609375 9.8125 
Q 21.296875 6.203125 28.8125 6.203125 
Q 32.515625 6.203125 36.6875 7.328125 
Q 40.875 8.453125 45.40625 10.6875 
L 43.703125 1.8125 
Q 39.796875 0.203125 35.671875 -0.609375 
Q 31.546875 -1.421875 27.203125 -1.421875 
Q 16.3125 -1.421875 10.453125 4.015625 
Q 4.59375 9.46875 4.59375 19.578125 
Q 4.59375 28.078125 7.640625 35.234375 
Q 10.6875 42.390625 16.703125 48.09375 
Q 20.796875 52 26.3125 54 
Q 31.84375 56 38.375 56 
Q 42.1875 56 45.9375 55.140625 
Q 49.703125 54.296875 53.609375 52.59375 
z
" id="DejaVuSans-Oblique-63"/>
      <path d="M 53.71875 31.203125 
L 47.609375 0 
L 38.625 0 
L 40.28125 8.296875 
Q 36.328125 3.421875 31.265625 1 
Q 26.21875 -1.421875 20.015625 -1.421875 
Q 13.03125 -1.421875 8.5625 2.84375 
Q 4.109375 7.125 4.109375 13.8125 
Q 4.109375 23.390625 11.75 28.953125 
Q 19.390625 34.515625 32.8125 34.515625 
L 45.3125 34.515625 
L 45.796875 36.921875 
Q 45.90625 37.3125 45.953125 37.765625 
Q 46 38.234375 46 39.203125 
Q 46 43.5625 42.453125 45.96875 
Q 38.921875 48.390625 32.515625 48.390625 
Q 28.125 48.390625 23.5 47.265625 
Q 18.890625 46.140625 14.015625 43.890625 
L 15.578125 52.203125 
Q 20.65625 54.109375 25.515625 55.046875 
Q 30.375 56 34.90625 56 
Q 44.578125 56 49.625 51.796875 
Q 54.6875 47.609375 54.6875 39.59375 
Q 54.6875 37.984375 54.4375 35.8125 
Q 54.203125 33.640625 53.71875 31.203125 
z
M 44 27.484375 
L 35.015625 27.484375 
Q 23.96875 27.484375 18.671875 24.53125 
Q 13.375 21.578125 13.375 15.375 
Q 13.375 11.078125 16.078125 8.640625 
Q 18.796875 6.203125 23.578125 6.203125 
Q 30.90625 6.203125 36.375 11.453125 
Q 41.84375 16.703125 43.609375 25.484375 
z
" id="DejaVuSans-Oblique-61"/>
      <path d="M 18.3125 75.984375 
L 27.296875 75.984375 
L 12.5 0 
L 3.515625 0 
z
" id="DejaVuSans-Oblique-6c"/>
      <path d="M 44.578125 46.390625 
Q 43.21875 47.125 41.453125 47.515625 
Q 39.703125 47.90625 37.703125 47.90625 
Q 30.515625 47.90625 25.140625 42.453125 
Q 19.78125 37.015625 18.015625 27.875 
L 12.5 0 
L 3.515625 0 
L 14.203125 54.6875 
L 23.1875 54.6875 
L 21.484375 46.1875 
Q 25.046875 50.921875 30 53.453125 
Q 34.96875 56 40.578125 56 
Q 42.046875 56 43.453125 55.828125 
Q 44.875 55.671875 46.296875 55.28125 
z
" id="DejaVuSans-Oblique-72"/>
     </defs>
     <g transform="translate(133.38 349.358125)scale(0.18 -0.18)">
      <use transform="translate(0 0.015625)" xlink:href="#DejaVuSans-Oblique-69"/>
      <use transform="translate(27.783203 0.015625)" xlink:href="#DejaVuSans-Oblique-6e"/>
      <use transform="translate(91.162109 0.015625)" xlink:href="#DejaVuSans-Oblique-70"/>
      <use transform="translate(154.638672 0.015625)" xlink:href="#DejaVuSans-Oblique-75"/>
      <use transform="translate(218.017578 0.015625)" xlink:href="#DejaVuSans-Oblique-74"/>
      <use transform="translate(257.226562 0.015625)" xlink:href="#DejaVuSans-Oblique-53"/>
      <use transform="translate(320.703125 0.015625)" xlink:href="#DejaVuSans-Oblique-63"/>
      <use transform="translate(375.683594 0.015625)" xlink:href="#DejaVuSans-Oblique-61"/>
      <use transform="translate(436.962891 0.015625)" xlink:href="#DejaVuSans-Oblique-6c"/>
      <use transform="translate(464.746094 0.015625)" xlink:href="#DejaVuSans-Oblique-61"/>
      <use transform="translate(526.025391 0.015625)" xlink:href="#DejaVuSans-Oblique-72"/>
     </g>
    </g>
   </g>
   <g id="matplotlib.axis_2">
    <g id="ytick_1">
     <g id="line2d_6">
      <defs>
       <path d="M 0 0 
L -3.5 0 
" id="m3195a7bdac" style="stroke:#000000;stroke-width:0.8;"/>
      </defs>
      <g>
       <use style="stroke:#000000;stroke-width:0.8;" x="45" xlink:href="#m3195a7bdac" y="302.645455"/>
      </g>
     </g>
     <g id="text_7">
      <!-- −2.0 -->
      <defs>
       <path d="M 10.6875 12.40625 
L 21 12.40625 
L 21 0 
L 10.6875 0 
z
" id="DejaVuSans-2e"/>
      </defs>
      <g transform="translate(13.717187 306.444673)scale(0.1 -0.1)">
       <use xlink:href="#DejaVuSans-2212"/>
       <use x="83.789062" xlink:href="#DejaVuSans-32"/>
       <use x="147.412109" xlink:href="#DejaVuSans-2e"/>
       <use x="179.199219" xlink:href="#DejaVuSans-30"/>
      </g>
     </g>
    </g>
    <g id="ytick_2">
     <g id="line2d_7">
      <g>
       <use style="stroke:#000000;stroke-width:0.8;" x="45" xlink:href="#m3195a7bdac" y="271.759091"/>
      </g>
     </g>
     <g id="text_8">
      <!-- −1.5 -->
      <defs>
       <path d="M 10.796875 72.90625 
L 49.515625 72.90625 
L 49.515625 64.59375 
L 19.828125 64.59375 
L 19.828125 46.734375 
Q 21.96875 47.46875 24.109375 47.828125 
Q 26.265625 48.1875 28.421875 48.1875 
Q 40.625 48.1875 47.75 41.5 
Q 54.890625 34.8125 54.890625 23.390625 
Q 54.890625 11.625 47.5625 5.09375 
Q 40.234375 -1.421875 26.90625 -1.421875 
Q 22.3125 -1.421875 17.546875 -0.640625 
Q 12.796875 0.140625 7.71875 1.703125 
L 7.71875 11.625 
Q 12.109375 9.234375 16.796875 8.0625 
Q 21.484375 6.890625 26.703125 6.890625 
Q 35.15625 6.890625 40.078125 11.328125 
Q 45.015625 15.765625 45.015625 23.390625 
Q 45.015625 31 40.078125 35.4375 
Q 35.15625 39.890625 26.703125 39.890625 
Q 22.75 39.890625 18.8125 39.015625 
Q 14.890625 38.140625 10.796875 36.28125 
z
" id="DejaVuSans-35"/>
      </defs>
      <g transform="translate(13.717187 275.55831)scale(0.1 -0.1)">
       <use xlink:href="#DejaVuSans-2212"/>
       <use x="83.789062" xlink:href="#DejaVuSans-31"/>
       <use x="147.412109" xlink:href="#DejaVuSans-2e"/>
       <use x="179.199219" xlink:href="#DejaVuSans-35"/>
      </g>
     </g>
    </g>
    <g id="ytick_3">
     <g id="line2d_8">
      <g>
       <use style="stroke:#000000;stroke-width:0.8;" x="45" xlink:href="#m3195a7bdac" y="240.872727"/>
      </g>
     </g>
     <g id="text_9">
      <!-- −1.0 -->
      <g transform="translate(13.717187 244.671946)scale(0.1 -0.1)">
       <use xlink:href="#DejaVuSans-2212"/>
       <use x="83.789062" xlink:href="#DejaVuSans-31"/>
       <use x="147.412109" xlink:href="#DejaVuSans-2e"/>
       <use x="179.199219" xlink:href="#DejaVuSans-30"/>
      </g>
     </g>
    </g>
    <g id="ytick_4">
     <g id="line2d_9">
      <g>
       <use style="stroke:#000000;stroke-width:0.8;" x="45" xlink:href="#m3195a7bdac" y="209.986364"/>
      </g>
     </g>
     <g id="text_10">
      <!-- −0.5 -->
      <g transform="translate(13.717187 213.785582)scale(0.1 -0.1)">
       <use xlink:href="#DejaVuSans-2212"/>
       <use x="83.789062" xlink:href="#DejaVuSans-30"/>
       <use x="147.412109" xlink:href="#DejaVuSans-2e"/>
       <use x="179.199219" xlink:href="#DejaVuSans-35"/>
      </g>
     </g>
    </g>
    <g id="ytick_5">
     <g id="line2d_10">
      <g>
       <use style="stroke:#000000;stroke-width:0.8;" x="45" xlink:href="#m3195a7bdac" y="179.1"/>
      </g>
     </g>
     <g id="text_11">
      <!-- 0.0 -->
      <g transform="translate(22.096875 182.899219)scale(0.1 -0.1)">
       <use xlink:href="#DejaVuSans-30"/>
       <use x="63.623047" xlink:href="#DejaVuSans-2e"/>
       <use x="95.410156" xlink:href="#DejaVuSans-30"/>
      </g>
     </g>
    </g>
    <g id="ytick_6">
     <g id="line2d_11">
      <g>
       <use style="stroke:#000000;stroke-width:0.8;" x="45" xlink:href="#m3195a7bdac" y="148.213636"/>
      </g>
     </g>
     <g id="text_12">
      <!-- 0.5 -->
      <g transform="translate(22.096875 152.012855)scale(0.1 -0.1)">
       <use xlink:href="#DejaVuSans-30"/>
       <use x="63.623047" xlink:href="#DejaVuSans-2e"/>
       <use x="95.410156" xlink:href="#DejaVuSans-35"/>
      </g>
     </g>
    </g>
    <g id="ytick_7">
     <g id="line2d_12">
      <g>
       <use style="stroke:#000000;stroke-width:0.8;" x="45" xlink:href="#m3195a7bdac" y="117.327273"/>
      </g>
     </g>
     <g id="text_13">
      <!-- 1.0 -->
      <g transform="translate(22.096875 121.126491)scale(0.1 -0.1)">
       <use xlink:href="#DejaVuSans-31"/>
       <use x="63.623047" xlink:href="#DejaVuSans-2e"/>
       <use x="95.410156" xlink:href="#DejaVuSans-30"/>
      </g>
     </g>
    </g>
    <g id="ytick_8">
     <g id="line2d_13">
      <g>
       <use style="stroke:#000000;stroke-width:0.8;" x="45" xlink:href="#m3195a7bdac" y="86.440909"/>
      </g>
     </g>
     <g id="text_14">
      <!-- 1.5 -->
      <g transform="translate(22.096875 90.240128)scale(0.1 -0.1)">
       <use xlink:href="#DejaVuSans-31"/>
       <use x="63.623047" xlink:href="#DejaVuSans-2e"/>
       <use x="95.410156" xlink:href="#DejaVuSans-35"/>
      </g>
     </g>
    </g>
    <g id="ytick_9">
     <g id="line2d_14">
      <g>
       <use style="stroke:#000000;stroke-width:0.8;" x="45" xlink:href="#m3195a7bdac" y="55.554545"/>
      </g>
     </g>
     <g id="text_15">
      <!-- 2.0 -->
      <g transform="translate(22.096875 59.353764)scale(0.1 -0.1)">
       <use xlink:href="#DejaVuSans-32"/>
       <use x="63.623047" xlink:href="#DejaVuSans-2e"/>
       <use x="95.410156" xlink:href="#DejaVuSans-30"/>
      </g>
     </g>
    </g>
    <g id="text_16">
     <!-- $dataScalar(inputScalar)$ -->
     <defs>
      <path d="M 41.796875 8.203125 
Q 38.1875 3.46875 33.25 1.015625 
Q 28.328125 -1.421875 22.3125 -1.421875 
Q 14.109375 -1.421875 9.34375 4.171875 
Q 4.59375 9.765625 4.59375 19.484375 
Q 4.59375 27.59375 7.46875 34.9375 
Q 10.359375 42.28125 15.828125 48.09375 
Q 19.4375 51.953125 23.96875 53.96875 
Q 28.515625 56 33.5 56 
Q 38.765625 56 42.796875 53.453125 
Q 46.828125 50.921875 49.03125 46.1875 
L 54.890625 75.984375 
L 63.921875 75.984375 
L 49.125 0 
L 40.09375 0 
z
M 13.921875 21.09375 
Q 13.921875 14.015625 17.109375 10.0625 
Q 20.3125 6.109375 25.984375 6.109375 
Q 30.171875 6.109375 33.765625 8.125 
Q 37.359375 10.15625 40.09375 14.109375 
Q 42.96875 18.21875 44.625 23.578125 
Q 46.296875 28.953125 46.296875 34.1875 
Q 46.296875 40.96875 43.09375 44.765625 
Q 39.890625 48.578125 34.28125 48.578125 
Q 30.03125 48.578125 26.359375 46.578125 
Q 22.703125 44.578125 20.125 40.828125 
Q 17.28125 36.765625 15.59375 31.390625 
Q 13.921875 26.03125 13.921875 21.09375 
z
" id="DejaVuSans-Oblique-64"/>
      <path d="M 31 75.875 
Q 24.46875 64.65625 21.28125 53.65625 
Q 18.109375 42.671875 18.109375 31.390625 
Q 18.109375 20.125 21.3125 9.0625 
Q 24.515625 -2 31 -13.1875 
L 23.1875 -13.1875 
Q 15.875 -1.703125 12.234375 9.375 
Q 8.59375 20.453125 8.59375 31.390625 
Q 8.59375 42.28125 12.203125 53.3125 
Q 15.828125 64.359375 23.1875 75.875 
z
" id="DejaVuSans-28"/>
      <path d="M 8.015625 75.875 
L 15.828125 75.875 
Q 23.140625 64.359375 26.78125 53.3125 
Q 30.421875 42.28125 30.421875 31.390625 
Q 30.421875 20.453125 26.78125 9.375 
Q 23.140625 -1.703125 15.828125 -13.1875 
L 8.015625 -13.1875 
Q 14.5 -2 17.703125 9.0625 
Q 20.90625 20.125 20.90625 31.390625 
Q 20.90625 42.671875 17.703125 53.65625 
Q 14.5 64.65625 8.015625 75.875 
z
" id="DejaVuSans-29"/>
     </defs>
     <g transform="translate(5.937187 285.39)rotate(-90)scale(0.18 -0.18)">
      <use transform="translate(0 0.015625)" xlink:href="#DejaVuSans-Oblique-64"/>
      <use transform="translate(63.476562 0.015625)" xlink:href="#DejaVuSans-Oblique-61"/>
      <use transform="translate(124.755859 0.015625)" xlink:href="#DejaVuSans-Oblique-74"/>
      <use transform="translate(163.964844 0.015625)" xlink:href="#DejaVuSans-Oblique-61"/>
      <use transform="translate(225.244141 0.015625)" xlink:href="#DejaVuSans-Oblique-53"/>
      <use transform="translate(288.720703 0.015625)" xlink:href="#DejaVuSans-Oblique-63"/>
      <use transform="translate(343.701172 0.015625)" xlink:href="#DejaVuSans-Oblique-61"/>
      <use transform="translate(404.980469 0.015625)" xlink:href="#DejaVuSans-Oblique-6c"/>
      <use transform="translate(432.763672 0.015625)" xlink:href="#DejaVuSans-Oblique-61"/>
      <use transform="translate(494.042969 0.015625)" xlink:href="#DejaVuSans-Oblique-72"/>
      <use transform="translate(535.15625 0.015625)" xlink:href="#DejaVuSans-28"/>
      <use transform="translate(574.169922 0.015625)" xlink:href="#DejaVuSans-Oblique-69"/>
      <use transform="translate(601.953125 0.015625)" xlink:href="#DejaVuSans-Oblique-6e"/>
      <use transform="translate(665.332031 0.015625)" xlink:href="#DejaVuSans-Oblique-70"/>
      <use transform="translate(728.808594 0.015625)" xlink:href="#DejaVuSans-Oblique-75"/>
      <use transform="translate(792.1875 0.015625)" xlink:href="#DejaVuSans-Oblique-74"/>
      <use transform="translate(831.396484 0.015625)" xlink:href="#DejaVuSans-Oblique-53"/>
      <use transform="translate(894.873047 0.015625)" xlink:href="#DejaVuSans-Oblique-63"/>
      <use transform="translate(949.853516 0.015625)" xlink:href="#DejaVuSans-Oblique-61"/>
      <use transform="translate(1011.132812 0.015625)" xlink:href="#DejaVuSans-Oblique-6c"/>
      <use transform="translate(1038.916016 0.015625)" xlink:href="#DejaVuSans-Oblique-61"/>
      <use transform="translate(1100.195312 0.015625)" xlink:href="#DejaVuSans-Oblique-72"/>
      <use transform="translate(1141.308594 0.015625)" xlink:href="#DejaVuSans-29"/>
     </g>
    </g>
   </g>
   <g id="line2d_15">
    <path clip-path="url(#p93dd66709d)" d="M 57.681818 179.1 
L 111.213111 179.007382 
L 112.487666 178.801083 
L 113.76222 178.279231 
L 115.036775 177.18264 
L 116.311329 175.289346 
L 118.860439 169.831077 
L 120.134993 167.756076 
L 121.409548 167.288362 
L 122.684102 168.636675 
L 123.958657 171.214267 
L 125.233212 174.043766 
L 126.507766 176.341805 
L 127.782321 177.819923 
L 129.056875 178.594561 
L 130.33143 178.930123 
L 132.880539 179.084175 
L 135.429648 179.00846 
L 136.704203 178.759844 
L 137.978757 178.019966 
L 139.253312 176.181996 
L 140.527867 172.392664 
L 141.802421 165.983225 
L 144.35153 148.209894 
L 145.626085 141.900704 
L 146.90064 140.987907 
L 148.175194 145.879692 
L 150.724303 163.557401 
L 151.998858 170.757373 
L 153.273413 175.290264 
L 154.547967 177.619852 
L 155.822522 178.610606 
L 157.097076 178.961299 
L 159.646185 179.059293 
L 160.92074 178.952027 
L 162.195295 178.560601 
L 163.469849 177.415007 
L 164.744404 174.62054 
L 166.018958 168.968564 
L 167.293513 159.604729 
L 169.842622 134.648729 
L 171.117177 126.427882 
L 172.391731 126.000535 
L 173.666286 133.557982 
L 176.215395 158.470209 
L 177.48995 168.204297 
L 178.764504 174.204144 
L 180.039059 177.22837 
L 181.313614 178.491089 
L 182.588168 178.930208 
L 183.862723 179.052369 
L 185.137277 179.052212 
L 186.411832 178.929382 
L 187.686386 178.488079 
L 188.960941 177.219113 
L 190.235496 174.179928 
L 191.51005 168.150406 
L 192.784605 158.368172 
L 195.333714 133.332726 
L 196.608269 125.7379 
L 197.882823 126.16736 
L 199.157378 134.428868 
L 201.706487 159.508303 
L 202.981042 168.918453 
L 204.255596 174.598384 
L 205.530151 177.406676 
L 206.804705 178.55796 
L 208.07926 178.951476 
L 210.628369 179.065325 
L 211.902924 178.982087 
L 213.177478 178.684546 
L 214.452033 177.843555 
L 215.726587 175.866057 
L 217.001142 172.018257 
L 218.275697 165.906469 
L 220.824806 150.900524 
L 222.09936 146.748071 
L 223.373915 147.52291 
L 224.64847 152.878545 
L 227.197579 167.965661 
L 228.472133 173.406394 
L 229.746688 176.623015 
L 231.021243 178.183196 
L 232.295797 178.811229 
L 233.570352 179.022123 
L 236.119461 179.081843 
L 238.66857 178.887809 
L 239.943125 178.468557 
L 241.217679 177.500793 
L 242.492234 175.65417 
L 243.766788 172.783217 
L 246.315898 166.028105 
L 247.590452 164.343649 
L 248.865007 164.927967 
L 250.139561 167.520278 
L 252.688671 174.339327 
L 253.963225 176.70463 
L 255.23778 178.074609 
L 256.512334 178.726561 
L 257.786889 178.984292 
L 260.335998 179.09316 
L 287.101645 179.1 
L 311.318182 179.1 
L 311.318182 179.1 
" style="fill:none;stroke:#3300ff;stroke-linecap:square;stroke-width:2;"/>
   </g>
   <g id="line2d_16">
    <path clip-path="url(#p93dd66709d)" d="M 57.681818 54.938355 
L 111.213111 54.849442 
L 113.76222 54.408831 
L 115.036775 54.618781 
L 116.311329 57.565149 
L 117.585884 67.946357 
L 118.860439 91.068895 
L 120.134993 127.544391 
L 121.409548 145.942725 
L 122.684102 108.004932 
L 123.958657 77.684038 
L 125.233212 61.461932 
L 126.507766 55.509979 
L 127.782321 54.367892 
L 131.605984 54.890185 
L 134.155094 54.915168 
L 135.429648 54.847156 
L 136.704203 54.60295 
L 137.978757 53.906243 
L 139.253312 52.370599 
L 140.527867 50.092934 
L 141.802421 49.102208 
L 143.076976 54.523368 
L 144.35153 72.823566 
L 145.626085 105.828474 
L 146.90064 116.492952 
L 148.175194 81.387145 
L 149.449749 58.414482 
L 150.724303 49.750425 
L 151.998858 49.488308 
L 153.273413 51.726241 
L 154.547967 53.548229 
L 155.822522 54.458792 
L 157.097076 54.800431 
L 159.646185 54.897674 
L 160.92074 54.790832 
L 162.195295 54.40503 
L 163.469849 53.312683 
L 164.744404 50.878757 
L 166.018958 46.969951 
L 167.293513 43.653831 
L 168.568068 46.524794 
L 169.842622 62.77033 
L 171.117177 94.415425 
L 172.391731 97.887784 
L 173.666286 65.313406 
L 174.940841 47.442524 
L 176.215395 43.542091 
L 177.48995 46.547812 
L 178.764504 50.544213 
L 180.039059 53.139919 
L 181.313614 54.337184 
L 182.588168 54.769156 
L 183.862723 54.890758 
L 185.137277 54.890601 
L 186.411832 54.768329 
L 187.686386 54.334175 
L 188.960941 53.130662 
L 190.235496 50.519998 
L 191.51005 46.493921 
L 192.784605 43.440054 
L 194.059159 47.278158 
L 195.333714 65.08815 
L 196.608269 97.625148 
L 197.882823 94.154903 
L 199.157378 62.550469 
L 200.431932 46.366937 
L 201.706487 43.557405 
L 202.981042 46.91984 
L 204.255596 50.856602 
L 205.530151 53.304352 
L 206.804705 54.402388 
L 208.07926 54.790281 
L 210.628369 54.903725 
L 211.902924 54.821219 
L 213.177478 54.532733 
L 214.452033 53.771931 
L 217.001142 50.749191 
L 218.275697 52.099493 
L 219.550251 62.137794 
L 220.824806 86.407977 
L 222.09936 122.253116 
L 223.373915 111.45068 
L 224.64847 77.492217 
L 225.923024 57.821659 
L 227.197579 51.084644 
L 228.472133 51.106664 
L 229.746688 52.811618 
L 231.021243 54.069474 
L 232.295797 54.654335 
L 233.570352 54.860819 
L 236.119461 54.920258 
L 238.66857 54.738613 
L 241.217679 54.048761 
L 242.492234 54.822344 
L 243.766788 60.201383 
L 245.041343 75.718078 
L 246.315898 105.396362 
L 247.590452 142.998012 
L 248.865007 124.716282 
L 250.139561 88.758097 
L 251.414116 66.340004 
L 252.688671 56.61513 
L 253.963225 54.140771 
L 255.23778 54.204209 
L 256.512334 54.603506 
L 257.786889 54.826351 
L 260.335998 54.931527 
L 287.101645 54.938355 
L 311.318182 54.938355 
L 311.318182 54.938355 
" style="fill:none;stroke:#3300ff;stroke-linecap:square;stroke-width:0.2;"/>
   </g>
   <g id="line2d_17">
    <path clip-path="url(#p93dd66709d)" d="M 57.681818 303.261645 
L 111.213111 303.165323 
L 112.487666 302.924138 
L 113.76222 302.149631 
L 115.036775 299.746499 
L 116.311329 293.013543 
L 117.585884 277.367054 
L 118.860439 248.593259 
L 120.134993 207.96776 
L 121.409548 188.633999 
L 122.684102 229.268418 
L 123.958657 264.744497 
L 125.233212 286.6256 
L 126.507766 297.17363 
L 127.782321 301.271955 
L 129.056875 302.645844 
L 130.33143 303.07932 
L 132.880539 303.24576 
L 135.429648 303.169764 
L 136.704203 302.916738 
L 137.978757 302.133688 
L 139.253312 299.993393 
L 140.527867 294.692395 
L 141.802421 282.864243 
L 143.076976 260.030391 
L 144.35153 223.596222 
L 145.626085 177.972934 
L 146.90064 165.482861 
L 148.175194 210.372239 
L 149.449749 250.514984 
L 150.724303 277.364377 
L 151.998858 292.026439 
L 153.273413 298.854286 
L 154.547967 301.691476 
L 155.822522 302.762419 
L 157.097076 303.122167 
L 159.646185 303.220912 
L 160.92074 303.113221 
L 162.195295 302.716172 
L 163.469849 301.51733 
L 164.744404 298.362322 
L 166.018958 290.967177 
L 167.293513 275.555626 
L 168.568068 247.844397 
L 169.842622 206.527128 
L 171.117177 158.440339 
L 172.391731 154.113287 
L 173.666286 201.802558 
L 174.940841 244.294902 
L 176.215395 273.398328 
L 177.48995 289.860782 
L 178.764504 297.864074 
L 180.039059 301.316821 
L 181.313614 302.644994 
L 182.588168 303.091261 
L 183.862723 303.21398 
L 185.137277 303.213823 
L 186.411832 303.090434 
L 187.686386 302.641984 
L 188.960941 301.307564 
L 190.235496 297.839859 
L 191.51005 289.806891 
L 192.784605 273.29629 
L 194.059159 244.130537 
L 195.333714 201.577303 
L 196.608269 153.850651 
L 197.882823 158.179817 
L 199.157378 206.307267 
L 200.431932 247.68654 
L 201.706487 275.4592 
L 202.981042 290.917066 
L 204.255596 298.340167 
L 205.530151 301.509 
L 206.804705 302.713531 
L 208.07926 303.112671 
L 210.628369 303.226925 
L 211.902924 303.142954 
L 213.177478 302.836359 
L 214.452033 301.915178 
L 215.726587 299.43008 
L 217.001142 293.287322 
L 218.275697 279.713445 
L 219.550251 254.238295 
L 220.824806 215.393071 
L 222.09936 171.243025 
L 223.373915 183.59514 
L 224.64847 228.264874 
L 225.923024 263.328682 
L 227.197579 284.846679 
L 228.472133 295.706124 
L 229.746688 300.434412 
L 231.021243 302.296918 
L 232.295797 302.968123 
L 233.570352 303.183427 
L 236.119461 303.243427 
L 237.394016 303.199445 
L 238.66857 303.037006 
L 239.943125 302.51984 
L 241.217679 300.952824 
L 242.492234 296.485995 
L 243.766788 285.365051 
L 245.041343 262.778536 
L 246.315898 226.659848 
L 247.590452 185.689286 
L 248.865007 205.139651 
L 250.139561 246.28246 
L 251.414116 275.760702 
L 252.688671 292.063524 
L 253.963225 299.268489 
L 255.23778 301.945009 
L 256.512334 302.849616 
L 257.786889 303.142233 
L 260.335998 303.254792 
L 287.101645 303.261645 
L 311.318182 303.261645 
L 311.318182 303.261645 
" style="fill:none;stroke:#3300ff;stroke-linecap:square;stroke-width:0.2;"/>
   </g>
   <g id="line2d_18">
    <defs>
     <path d="M 0 3.75 
C 0.994512 3.75 1.948425 3.354876 2.65165 2.65165 
C 3.354876 1.948425 3.75 0.994512 3.75 0 
C 3.75 -0.994512 3.354876 -1.948425 2.65165 -2.65165 
C 1.948425 -3.354876 0.994512 -3.75 0 -3.75 
C -0.994512 -3.75 -1.948425 -3.354876 -2.65165 -2.65165 
C -3.354876 -1.948425 -3.75 -0.994512 -3.75 0 
C -3.75 0.994512 -3.354876 1.948425 -2.65165 2.65165 
C -1.948425 3.354876 -0.994512 3.75 0 3.75 
z
" id="m7c88acadc8" style="stroke:#000000;"/>
    </defs>
    <g clip-path="url(#p93dd66709d)">
     <use style="stroke:#000000;" x="121.090909" xlink:href="#m7c88acadc8" y="167.109843"/>
     <use style="stroke:#000000;" x="146.454545" xlink:href="#m7c88acadc8" y="140.223859"/>
     <use style="stroke:#000000;" x="171.818182" xlink:href="#m7c88acadc8" y="124.584754"/>
     <use style="stroke:#000000;" x="197.181818" xlink:href="#m7c88acadc8" y="124.315116"/>
     <use style="stroke:#000000;" x="222.545455" xlink:href="#m7c88acadc8" y="146.0995"/>
     <use style="stroke:#000000;" x="247.909091" xlink:href="#m7c88acadc8" y="164.120625"/>
    </g>
   </g>
   <g id="line2d_19">
    <path clip-path="url(#p93dd66709d)" d="M 45 315 
L 45 43.2 
" style="fill:none;stroke:#000000;stroke-linecap:square;stroke-width:1.5;"/>
   </g>
   <g id="line2d_20">
    <path clip-path="url(#p93dd66709d)" d="M 45 315 
L 324 315 
" style="fill:none;stroke:#000000;stroke-linecap:square;stroke-width:1.5;"/>
   </g>
   <g id="patch_4">
    <path d="M 45 315 
L 45 43.2 
" style="fill:none;stroke:#000000;stroke-linecap:square;stroke-linejoin:miter;stroke-width:0.8;"/>
   </g>
   <g id="patch_5">
    <path d="M 324 315 
L 324 43.2 
" style="fill:none;stroke:#000000;stroke-linecap:square;stroke-linejoin:miter;stroke-width:0.8;"/>
   </g>
   <g id="patch_6">
    <path d="M 45 315 
L 324 315 
" style="fill:none;stroke:#000000;stroke-linecap:square;stroke-linejoin:miter;stroke-width:0.8;"/>
   </g>
   <g id="patch_7">
    <path d="M 45 43.2 
L 324 43.2 
" style="fill:none;stroke:#000000;stroke-linecap:square;stroke-linejoin:miter;stroke-width:0.8;"/>
   </g>
  </g>
 </g>
 <defs>
  <clipPath id="p93dd66709d">
   <rect height="271.8" width="279" x="45" y="43.2"/>
  </clipPath>
 </defs>
</svg>
