<?xml version="1.0" encoding="utf-8" standalone="no"?>
<!DOCTYPE svg PUBLIC "-//W3C//DTD SVG 1.1//EN"
  "http://www.w3.org/Graphics/SVG/1.1/DTD/svg11.dtd">
<!-- Created with matplotlib (http://matplotlib.org/) -->
<svg height="360pt" version="1.1" viewBox="0 0 360 360" width="360pt" xmlns="http://www.w3.org/2000/svg" xmlns:xlink="http://www.w3.org/1999/xlink">
 <defs>
  <style type="text/css">
*{stroke-linecap:butt;stroke-linejoin:round;}
  </style>
 </defs>
 <g id="figure_1">
  <g id="patch_1">
   <path d="M 0 360 
L 360 360 
L 360 0 
L 0 0 
z
" style="fill:none;"/>
  </g>
  <g id="axes_1">
   <g id="patch_2">
    <path d="M 45 315 
L 324 315 
L 324 43.2 
L 45 43.2 
z
" style="fill:none;"/>
   </g>
   <g id="patch_3">
    <path clip-path="url(#p4faf067e21)" d="M 57.681818 54.93697 
L 58.956373 54.936453 
L 60.230927 54.935763 
L 61.505482 54.934848 
L 62.780037 54.933646 
L 64.054591 54.932081 
L 65.329146 54.930067 
L 66.6037 54.927502 
L 67.878255 54.924281 
L 69.15281 54.920294 
L 70.427364 54.915449 
L 71.701919 54.909687 
L 72.976473 54.90302 
L 74.251028 54.895582 
L 75.525582 54.887704 
L 76.800137 54.880013 
L 78.074692 54.873573 
L 79.349246 54.870065 
L 80.623801 54.872019 
L 81.898355 54.883094 
L 83.17291 54.908426 
L 84.447465 54.955016 
L 85.722019 55.032172 
L 86.996574 55.151975 
L 88.271128 55.329747 
L 89.545683 55.58448 
L 90.820238 55.939204 
L 92.094792 56.42121 
L 93.369347 57.06212 
L 94.643901 57.897709 
L 95.918456 58.96748 
L 97.193011 60.313924 
L 98.467565 61.981468 
L 99.74212 64.01511 
L 101.016674 66.458753 
L 102.291229 69.35328 
L 103.565783 72.734422 
L 104.840338 76.630481 
L 106.114893 81.059956 
L 107.389447 86.029149 
L 108.664002 91.529729 
L 109.938556 97.536233 
L 111.213111 104.003248 
L 112.487666 110.861779 
L 113.76222 118.013479 
L 115.036775 125.319677 
L 116.311329 132.577397 
L 117.585884 139.461777 
L 118.860439 145.383868 
L 120.134993 149.211777 
L 121.409548 149.358232 
L 122.684102 145.558849 
L 123.958657 139.481386 
L 125.233212 132.653572 
L 126.507766 125.885553 
L 127.782321 119.600111 
L 129.056875 114.04712 
L 130.33143 109.389832 
L 131.605984 105.738196 
L 132.880539 103.161948 
L 134.155094 101.695586 
L 135.429648 101.339819 
L 136.704203 102.061161 
L 137.978757 103.789899 
L 139.253312 106.415446 
L 140.527867 109.776138 
L 141.802421 113.636092 
L 143.076976 117.63161 
L 144.35153 121.153376 
L 145.626085 123.175191 
L 146.90064 122.468059 
L 148.175194 118.812413 
L 149.449749 113.311307 
L 150.724303 107.122388 
L 151.998858 100.962883 
L 153.273413 95.252477 
L 154.547967 90.256308 
L 155.822522 86.153337 
L 157.097076 83.065649 
L 158.371631 81.070957 
L 159.646185 80.207888 
L 160.92074 80.477969 
L 162.195295 81.845752 
L 163.469849 84.237215 
L 164.744404 87.535301 
L 166.018958 91.569379 
L 167.293513 96.090689 
L 168.568068 100.715203 
L 169.842622 104.800725 
L 171.117177 107.288986 
L 172.391731 107.005074 
L 173.666286 103.872525 
L 174.940841 99.019116 
L 176.215395 93.544875 
L 177.48995 88.128012 
L 178.764504 83.172096 
L 180.039059 78.936989 
L 181.313614 75.600905 
L 182.588168 73.28711 
L 183.862723 72.075321 
L 185.137277 72.0065 
L 186.411832 73.084551 
L 187.686386 75.276232 
L 188.960941 78.509254 
L 190.235496 82.66731 
L 191.51005 87.578499 
L 192.784605 92.988459 
L 194.059159 98.498163 
L 195.333714 103.432857 
L 196.608269 106.694771 
L 197.882823 107.157111 
L 199.157378 104.895995 
L 200.431932 101.084633 
L 201.706487 96.778244 
L 202.981042 92.614669 
L 204.255596 88.972349 
L 205.530151 86.093328 
L 206.804705 84.140536 
L 208.07926 83.222505 
L 209.353815 83.404106 
L 210.628369 84.711216 
L 211.902924 87.132561 
L 213.177478 90.619824 
L 214.452033 95.085906 
L 215.726587 100.399889 
L 217.001142 106.374764 
L 218.275697 112.738344 
L 219.550251 119.065092 
L 220.824806 124.633289 
L 222.09936 128.282283 
L 223.373915 128.907593 
L 224.64847 126.72898 
L 225.923024 122.977257 
L 227.197579 118.682017 
L 228.472133 114.457464 
L 229.746688 110.673544 
L 231.021243 107.573583 
L 232.295797 105.32769 
L 233.570352 104.055668 
L 234.844906 103.836986 
L 236.119461 104.715169 
L 237.394016 106.699581 
L 238.66857 109.765581 
L 239.943125 113.852843 
L 241.217679 118.860165 
L 242.492234 124.632192 
L 243.766788 130.92594 
L 245.041343 137.324387 
L 246.315898 143.021934 
L 247.590452 146.494133 
L 248.865007 146.075244 
L 250.139561 142.030416 
L 251.414116 135.946505 
L 252.688671 128.953895 
L 253.963225 121.639047 
L 255.23778 114.323484 
L 256.512334 107.206151 
L 257.786889 100.421147 
L 259.061444 94.061866 
L 260.335998 88.192127 
L 261.610553 82.852087 
L 262.885107 78.062025 
L 264.159662 73.825265 
L 265.434217 70.13079 
L 266.708771 66.955757 
L 267.983326 64.267964 
L 269.25788 62.028256 
L 270.532435 60.192838 
L 271.806989 58.715406 
L 273.081544 57.549068 
L 274.356099 56.647983 
L 275.630653 55.968697 
L 276.905208 55.471148 
L 278.179762 55.119358 
L 279.454317 54.881812 
L 280.728872 54.731574 
L 282.003426 54.646178 
L 283.277981 54.607341 
L 284.552535 54.600564 
L 285.82709 54.614654 
L 287.101645 54.641221 
L 288.376199 54.674187 
L 289.650754 54.709319 
L 290.925308 54.743815 
L 292.199863 54.775954 
L 293.474418 54.804799 
L 294.748972 54.829962 
L 296.023527 54.851418 
L 297.298081 54.869373 
L 298.572636 54.884158 
L 299.84719 54.896165 
L 301.121745 54.905794 
L 302.3963 54.91343 
L 303.670854 54.919425 
L 304.945409 54.924085 
L 306.219963 54.927677 
L 307.494518 54.930421 
L 308.769073 54.932501 
L 310.043627 54.934065 
L 311.318182 54.935232 
L 311.318182 303.258508 
L 310.043627 303.257327 
L 308.769073 303.255739 
L 307.494518 303.253614 
L 306.219963 303.250791 
L 304.945409 303.247059 
L 303.670854 303.242155 
L 302.3963 303.235741 
L 301.121745 303.227393 
L 299.84719 303.216572 
L 298.572636 303.202598 
L 297.298081 303.184607 
L 296.023527 303.1615 
L 294.748972 303.131875 
L 293.474418 303.093937 
L 292.199863 303.045384 
L 290.925308 302.983256 
L 289.650754 302.903752 
L 288.376199 302.801996 
L 287.101645 302.671763 
L 285.82709 302.505146 
L 284.552535 302.29219 
L 283.277981 302.020477 
L 282.003426 301.674708 
L 280.728872 301.236272 
L 279.454317 300.682875 
L 278.179762 299.988235 
L 276.905208 299.121911 
L 275.630653 298.049309 
L 274.356099 296.731908 
L 273.081544 295.127744 
L 271.806989 293.192194 
L 270.532435 290.879055 
L 269.25788 288.141926 
L 267.983326 284.935869 
L 266.708771 281.219308 
L 265.434217 276.95612 
L 264.159662 272.117853 
L 262.885107 266.686017 
L 261.610553 260.654397 
L 260.335998 254.031392 
L 259.061444 246.842437 
L 257.786889 239.132723 
L 256.512334 230.970786 
L 255.23778 222.454234 
L 253.963225 213.720715 
L 252.688671 204.97193 
L 251.414116 196.531289 
L 250.139561 188.986214 
L 248.865007 183.467148 
L 247.590452 181.560151 
L 246.315898 183.52882 
L 245.041343 187.705238 
L 243.766788 192.562311 
L 242.492234 197.291493 
L 241.217679 201.472684 
L 239.943125 204.859836 
L 238.66857 207.294687 
L 237.394016 208.673369 
L 236.119461 208.933198 
L 234.844906 208.047501 
L 233.570352 206.023918 
L 232.295797 202.904519 
L 231.021243 198.767525 
L 229.746688 193.731635 
L 228.472133 187.96595 
L 227.197579 181.71286 
L 225.923024 175.341467 
L 224.64847 169.465294 
L 223.373915 165.113541 
L 222.09936 163.517103 
L 220.824806 164.896525 
L 219.550251 168.149083 
L 218.275697 172.117136 
L 217.001142 176.083515 
L 215.726587 179.629009 
L 214.452033 182.489725 
L 213.177478 184.489013 
L 211.902924 185.508374 
L 210.628369 185.475071 
L 209.353815 184.356833 
L 208.07926 182.159748 
L 206.804705 178.927884 
L 205.530151 174.744561 
L 204.255596 169.736391 
L 202.981042 164.083357 
L 201.706487 158.042904 
L 200.431932 152.006643 
L 199.157378 146.622887 
L 197.882823 142.954276 
L 196.608269 142.178207 
L 195.333714 144.371722 
L 194.059159 148.405842 
L 192.784605 153.177806 
L 191.51005 158.005503 
L 190.235496 162.480738 
L 188.960941 166.33878 
L 187.686386 169.396796 
L 186.411832 171.527604 
L 185.137277 172.648644 
L 183.862723 172.717465 
L 182.588168 171.730162 
L 181.313614 169.721469 
L 180.039059 166.766515 
L 178.764504 162.985523 
L 177.48995 158.555017 
L 176.215395 153.734222 
L 174.940841 148.926795 
L 173.666286 144.81139 
L 172.391731 142.48851 
L 171.117177 143.08615 
L 169.842622 146.527616 
L 168.568068 151.637213 
L 167.293513 157.355349 
L 166.018958 163.038067 
L 164.744404 168.299344 
L 163.469849 172.888449 
L 162.195295 176.6331 
L 160.92074 179.415211 
L 159.646185 181.160616 
L 158.371631 181.834811 
L 157.097076 181.441461 
L 155.822522 180.022526 
L 154.547967 177.660127 
L 153.273413 174.481597 
L 151.998858 170.671634 
L 150.724303 166.501181 
L 149.449749 162.395298 
L 148.175194 159.07565 
L 146.90064 157.702879 
L 145.626085 159.381139 
L 144.35153 163.88969 
L 143.076976 169.995821 
L 141.802421 176.666935 
L 140.527867 183.284624 
L 139.253312 189.473537 
L 137.978757 194.98384 
L 136.704203 199.63799 
L 135.429648 203.308069 
L 134.155094 205.906101 
L 132.880539 207.379977 
L 131.605984 207.711984 
L 130.33143 206.918938 
L 129.056875 205.054113 
L 127.782321 202.21263 
L 126.507766 198.544854 
L 125.233212 194.289943 
L 123.958657 189.862237 
L 122.684102 186.065736 
L 121.409548 184.424249 
L 120.134993 186.603682 
L 118.860439 192.339667 
L 117.585884 200.046561 
L 116.311329 208.595432 
L 115.036775 217.401345 
L 113.76222 226.14423 
L 112.487666 234.626414 
L 111.213111 242.714823 
L 109.938556 250.316803 
L 108.664002 257.368995 
L 107.389447 263.831458 
L 106.114893 269.683947 
L 104.840338 274.923069 
L 103.565783 279.559753 
L 102.291229 283.61683 
L 101.016674 287.126658 
L 99.74212 290.12878 
L 98.467565 292.667685 
L 97.193011 294.790712 
L 95.918456 296.546156 
L 94.643901 297.981633 
L 93.369347 299.142732 
L 92.094792 300.071974 
L 90.820238 300.808081 
L 89.545683 301.385544 
L 88.271128 301.834445 
L 86.996574 302.180505 
L 85.722019 302.445308 
L 84.447465 302.646641 
L 83.17291 302.798918 
L 81.898355 302.913636 
L 80.623801 302.999828 
L 79.349246 303.064499 
L 78.074692 303.113014 
L 76.800137 303.149442 
L 75.525582 303.176841 
L 74.251028 303.197495 
L 72.976473 303.213101 
L 71.701919 303.224921 
L 70.427364 303.233889 
L 69.15281 303.240702 
L 67.878255 303.24588 
L 66.6037 303.249813 
L 65.329146 303.252797 
L 64.054591 303.255056 
L 62.780037 303.25676 
L 61.505482 303.258042 
L 60.230927 303.259001 
L 58.956373 303.259715 
L 57.681818 303.260245 
z
" style="fill:#cc3300;opacity:0.3;stroke:#cc3300;stroke-linejoin:miter;stroke-width:0.5;"/>
   </g>
   <g id="matplotlib.axis_1">
    <g id="xtick_1">
     <g id="line2d_1">
      <defs>
       <path d="M 0 0 
L 0 3.5 
" id="m96f50be80c" style="stroke:#000000;stroke-width:0.8;"/>
      </defs>
      <g>
       <use style="stroke:#000000;stroke-width:0.8;" x="57.681818" xlink:href="#m96f50be80c" y="315"/>
      </g>
     </g>
     <g id="text_1">
      <!-- −2 -->
      <defs>
       <path d="M 10.59375 35.5 
L 73.1875 35.5 
L 73.1875 27.203125 
L 10.59375 27.203125 
z
" id="DejaVuSans-2212"/>
       <path d="M 19.1875 8.296875 
L 53.609375 8.296875 
L 53.609375 0 
L 7.328125 0 
L 7.328125 8.296875 
Q 12.9375 14.109375 22.625 23.890625 
Q 32.328125 33.6875 34.8125 36.53125 
Q 39.546875 41.84375 41.421875 45.53125 
Q 43.3125 49.21875 43.3125 52.78125 
Q 43.3125 58.59375 39.234375 62.25 
Q 35.15625 65.921875 28.609375 65.921875 
Q 23.96875 65.921875 18.8125 64.3125 
Q 13.671875 62.703125 7.8125 59.421875 
L 7.8125 69.390625 
Q 13.765625 71.78125 18.9375 73 
Q 24.125 74.21875 28.421875 74.21875 
Q 39.75 74.21875 46.484375 68.546875 
Q 53.21875 62.890625 53.21875 53.421875 
Q 53.21875 48.921875 51.53125 44.890625 
Q 49.859375 40.875 45.40625 35.40625 
Q 44.1875 33.984375 37.640625 27.21875 
Q 31.109375 20.453125 19.1875 8.296875 
z
" id="DejaVuSans-32"/>
      </defs>
      <g transform="translate(50.310724 329.598437)scale(0.1 -0.1)">
       <use xlink:href="#DejaVuSans-2212"/>
       <use x="83.789062" xlink:href="#DejaVuSans-32"/>
      </g>
     </g>
    </g>
    <g id="xtick_2">
     <g id="line2d_2">
      <g>
       <use style="stroke:#000000;stroke-width:0.8;" x="121.090909" xlink:href="#m96f50be80c" y="315"/>
      </g>
     </g>
     <g id="text_2">
      <!-- −1 -->
      <defs>
       <path d="M 12.40625 8.296875 
L 28.515625 8.296875 
L 28.515625 63.921875 
L 10.984375 60.40625 
L 10.984375 69.390625 
L 28.421875 72.90625 
L 38.28125 72.90625 
L 38.28125 8.296875 
L 54.390625 8.296875 
L 54.390625 0 
L 12.40625 0 
z
" id="DejaVuSans-31"/>
      </defs>
      <g transform="translate(113.719815 329.598437)scale(0.1 -0.1)">
       <use xlink:href="#DejaVuSans-2212"/>
       <use x="83.789062" xlink:href="#DejaVuSans-31"/>
      </g>
     </g>
    </g>
    <g id="xtick_3">
     <g id="line2d_3">
      <g>
       <use style="stroke:#000000;stroke-width:0.8;" x="184.5" xlink:href="#m96f50be80c" y="315"/>
      </g>
     </g>
     <g id="text_3">
      <!-- 0 -->
      <defs>
       <path d="M 31.78125 66.40625 
Q 24.171875 66.40625 20.328125 58.90625 
Q 16.5 51.421875 16.5 36.375 
Q 16.5 21.390625 20.328125 13.890625 
Q 24.171875 6.390625 31.78125 6.390625 
Q 39.453125 6.390625 43.28125 13.890625 
Q 47.125 21.390625 47.125 36.375 
Q 47.125 51.421875 43.28125 58.90625 
Q 39.453125 66.40625 31.78125 66.40625 
z
M 31.78125 74.21875 
Q 44.046875 74.21875 50.515625 64.515625 
Q 56.984375 54.828125 56.984375 36.375 
Q 56.984375 17.96875 50.515625 8.265625 
Q 44.046875 -1.421875 31.78125 -1.421875 
Q 19.53125 -1.421875 13.0625 8.265625 
Q 6.59375 17.96875 6.59375 36.375 
Q 6.59375 54.828125 13.0625 64.515625 
Q 19.53125 74.21875 31.78125 74.21875 
z
" id="DejaVuSans-30"/>
      </defs>
      <g transform="translate(181.31875 329.598437)scale(0.1 -0.1)">
       <use xlink:href="#DejaVuSans-30"/>
      </g>
     </g>
    </g>
    <g id="xtick_4">
     <g id="line2d_4">
      <g>
       <use style="stroke:#000000;stroke-width:0.8;" x="247.909091" xlink:href="#m96f50be80c" y="315"/>
      </g>
     </g>
     <g id="text_4">
      <!-- 1 -->
      <g transform="translate(244.727841 329.598437)scale(0.1 -0.1)">
       <use xlink:href="#DejaVuSans-31"/>
      </g>
     </g>
    </g>
    <g id="xtick_5">
     <g id="line2d_5">
      <g>
       <use style="stroke:#000000;stroke-width:0.8;" x="311.318182" xlink:href="#m96f50be80c" y="315"/>
      </g>
     </g>
     <g id="text_5">
      <!-- 2 -->
      <g transform="translate(308.136932 329.598437)scale(0.1 -0.1)">
       <use xlink:href="#DejaVuSans-32"/>
      </g>
     </g>
    </g>
    <g id="text_6">
     <!-- $x$ -->
     <defs>
      <path d="M 60.015625 54.6875 
L 34.90625 27.875 
L 50.296875 0 
L 39.984375 0 
L 28.421875 21.6875 
L 8.296875 0 
L -2.59375 0 
L 24.3125 28.8125 
L 10.015625 54.6875 
L 20.3125 54.6875 
L 30.8125 34.90625 
L 49.125 54.6875 
z
" id="DejaVuSans-Oblique-78"/>
     </defs>
     <g transform="translate(179.1 349.355313)scale(0.18 -0.18)">
      <use transform="translate(0 0.3125)" xlink:href="#DejaVuSans-Oblique-78"/>
     </g>
    </g>
   </g>
   <g id="matplotlib.axis_2">
    <g id="ytick_1">
     <g id="line2d_6">
      <defs>
       <path d="M 0 0 
L -3.5 0 
" id="me9bc7e2235" style="stroke:#000000;stroke-width:0.8;"/>
      </defs>
      <g>
       <use style="stroke:#000000;stroke-width:0.8;" x="45" xlink:href="#me9bc7e2235" y="302.645455"/>
      </g>
     </g>
     <g id="text_7">
      <!-- −2.0 -->
      <defs>
       <path d="M 10.6875 12.40625 
L 21 12.40625 
L 21 0 
L 10.6875 0 
z
" id="DejaVuSans-2e"/>
      </defs>
      <g transform="translate(13.717187 306.444673)scale(0.1 -0.1)">
       <use xlink:href="#DejaVuSans-2212"/>
       <use x="83.789062" xlink:href="#DejaVuSans-32"/>
       <use x="147.412109" xlink:href="#DejaVuSans-2e"/>
       <use x="179.199219" xlink:href="#DejaVuSans-30"/>
      </g>
     </g>
    </g>
    <g id="ytick_2">
     <g id="line2d_7">
      <g>
       <use style="stroke:#000000;stroke-width:0.8;" x="45" xlink:href="#me9bc7e2235" y="271.759091"/>
      </g>
     </g>
     <g id="text_8">
      <!-- −1.5 -->
      <defs>
       <path d="M 10.796875 72.90625 
L 49.515625 72.90625 
L 49.515625 64.59375 
L 19.828125 64.59375 
L 19.828125 46.734375 
Q 21.96875 47.46875 24.109375 47.828125 
Q 26.265625 48.1875 28.421875 48.1875 
Q 40.625 48.1875 47.75 41.5 
Q 54.890625 34.8125 54.890625 23.390625 
Q 54.890625 11.625 47.5625 5.09375 
Q 40.234375 -1.421875 26.90625 -1.421875 
Q 22.3125 -1.421875 17.546875 -0.640625 
Q 12.796875 0.140625 7.71875 1.703125 
L 7.71875 11.625 
Q 12.109375 9.234375 16.796875 8.0625 
Q 21.484375 6.890625 26.703125 6.890625 
Q 35.15625 6.890625 40.078125 11.328125 
Q 45.015625 15.765625 45.015625 23.390625 
Q 45.015625 31 40.078125 35.4375 
Q 35.15625 39.890625 26.703125 39.890625 
Q 22.75 39.890625 18.8125 39.015625 
Q 14.890625 38.140625 10.796875 36.28125 
z
" id="DejaVuSans-35"/>
      </defs>
      <g transform="translate(13.717187 275.55831)scale(0.1 -0.1)">
       <use xlink:href="#DejaVuSans-2212"/>
       <use x="83.789062" xlink:href="#DejaVuSans-31"/>
       <use x="147.412109" xlink:href="#DejaVuSans-2e"/>
       <use x="179.199219" xlink:href="#DejaVuSans-35"/>
      </g>
     </g>
    </g>
    <g id="ytick_3">
     <g id="line2d_8">
      <g>
       <use style="stroke:#000000;stroke-width:0.8;" x="45" xlink:href="#me9bc7e2235" y="240.872727"/>
      </g>
     </g>
     <g id="text_9">
      <!-- −1.0 -->
      <g transform="translate(13.717187 244.671946)scale(0.1 -0.1)">
       <use xlink:href="#DejaVuSans-2212"/>
       <use x="83.789062" xlink:href="#DejaVuSans-31"/>
       <use x="147.412109" xlink:href="#DejaVuSans-2e"/>
       <use x="179.199219" xlink:href="#DejaVuSans-30"/>
      </g>
     </g>
    </g>
    <g id="ytick_4">
     <g id="line2d_9">
      <g>
       <use style="stroke:#000000;stroke-width:0.8;" x="45" xlink:href="#me9bc7e2235" y="209.986364"/>
      </g>
     </g>
     <g id="text_10">
      <!-- −0.5 -->
      <g transform="translate(13.717187 213.785582)scale(0.1 -0.1)">
       <use xlink:href="#DejaVuSans-2212"/>
       <use x="83.789062" xlink:href="#DejaVuSans-30"/>
       <use x="147.412109" xlink:href="#DejaVuSans-2e"/>
       <use x="179.199219" xlink:href="#DejaVuSans-35"/>
      </g>
     </g>
    </g>
    <g id="ytick_5">
     <g id="line2d_10">
      <g>
       <use style="stroke:#000000;stroke-width:0.8;" x="45" xlink:href="#me9bc7e2235" y="179.1"/>
      </g>
     </g>
     <g id="text_11">
      <!-- 0.0 -->
      <g transform="translate(22.096875 182.899219)scale(0.1 -0.1)">
       <use xlink:href="#DejaVuSans-30"/>
       <use x="63.623047" xlink:href="#DejaVuSans-2e"/>
       <use x="95.410156" xlink:href="#DejaVuSans-30"/>
      </g>
     </g>
    </g>
    <g id="ytick_6">
     <g id="line2d_11">
      <g>
       <use style="stroke:#000000;stroke-width:0.8;" x="45" xlink:href="#me9bc7e2235" y="148.213636"/>
      </g>
     </g>
     <g id="text_12">
      <!-- 0.5 -->
      <g transform="translate(22.096875 152.012855)scale(0.1 -0.1)">
       <use xlink:href="#DejaVuSans-30"/>
       <use x="63.623047" xlink:href="#DejaVuSans-2e"/>
       <use x="95.410156" xlink:href="#DejaVuSans-35"/>
      </g>
     </g>
    </g>
    <g id="ytick_7">
     <g id="line2d_12">
      <g>
       <use style="stroke:#000000;stroke-width:0.8;" x="45" xlink:href="#me9bc7e2235" y="117.327273"/>
      </g>
     </g>
     <g id="text_13">
      <!-- 1.0 -->
      <g transform="translate(22.096875 121.126491)scale(0.1 -0.1)">
       <use xlink:href="#DejaVuSans-31"/>
       <use x="63.623047" xlink:href="#DejaVuSans-2e"/>
       <use x="95.410156" xlink:href="#DejaVuSans-30"/>
      </g>
     </g>
    </g>
    <g id="ytick_8">
     <g id="line2d_13">
      <g>
       <use style="stroke:#000000;stroke-width:0.8;" x="45" xlink:href="#me9bc7e2235" y="86.440909"/>
      </g>
     </g>
     <g id="text_14">
      <!-- 1.5 -->
      <g transform="translate(22.096875 90.240128)scale(0.1 -0.1)">
       <use xlink:href="#DejaVuSans-31"/>
       <use x="63.623047" xlink:href="#DejaVuSans-2e"/>
       <use x="95.410156" xlink:href="#DejaVuSans-35"/>
      </g>
     </g>
    </g>
    <g id="ytick_9">
     <g id="line2d_14">
      <g>
       <use style="stroke:#000000;stroke-width:0.8;" x="45" xlink:href="#me9bc7e2235" y="55.554545"/>
      </g>
     </g>
     <g id="text_15">
      <!-- 2.0 -->
      <g transform="translate(22.096875 59.353764)scale(0.1 -0.1)">
       <use xlink:href="#DejaVuSans-32"/>
       <use x="63.623047" xlink:href="#DejaVuSans-2e"/>
       <use x="95.410156" xlink:href="#DejaVuSans-30"/>
      </g>
     </g>
    </g>
    <g id="text_16">
     <!-- $f(x)$ -->
     <defs>
      <path d="M 47.796875 75.984375 
L 46.390625 68.5 
L 37.796875 68.5 
Q 32.90625 68.5 30.6875 66.578125 
Q 28.46875 64.65625 27.390625 59.515625 
L 26.421875 54.6875 
L 41.21875 54.6875 
L 39.890625 47.703125 
L 25.09375 47.703125 
L 15.828125 0 
L 6.78125 0 
L 16.109375 47.703125 
L 7.515625 47.703125 
L 8.796875 54.6875 
L 17.390625 54.6875 
L 18.109375 58.5 
Q 19.96875 68.171875 24.625 72.078125 
Q 29.296875 75.984375 39.3125 75.984375 
z
" id="DejaVuSans-Oblique-66"/>
      <path d="M 31 75.875 
Q 24.46875 64.65625 21.28125 53.65625 
Q 18.109375 42.671875 18.109375 31.390625 
Q 18.109375 20.125 21.3125 9.0625 
Q 24.515625 -2 31 -13.1875 
L 23.1875 -13.1875 
Q 15.875 -1.703125 12.234375 9.375 
Q 8.59375 20.453125 8.59375 31.390625 
Q 8.59375 42.28125 12.203125 53.3125 
Q 15.828125 64.359375 23.1875 75.875 
z
" id="DejaVuSans-28"/>
      <path d="M 8.015625 75.875 
L 15.828125 75.875 
Q 23.140625 64.359375 26.78125 53.3125 
Q 30.421875 42.28125 30.421875 31.390625 
Q 30.421875 20.453125 26.78125 9.375 
Q 23.140625 -1.703125 15.828125 -13.1875 
L 8.015625 -13.1875 
Q 14.5 -2 17.703125 9.0625 
Q 20.90625 20.125 20.90625 31.390625 
Q 20.90625 42.671875 17.703125 53.65625 
Q 14.5 64.65625 8.015625 75.875 
z
" id="DejaVuSans-29"/>
     </defs>
     <g transform="translate(5.97375 194.67)rotate(-90)scale(0.18 -0.18)">
      <use transform="translate(0 0.015625)" xlink:href="#DejaVuSans-Oblique-66"/>
      <use transform="translate(35.205078 0.015625)" xlink:href="#DejaVuSans-28"/>
      <use transform="translate(74.21875 0.015625)" xlink:href="#DejaVuSans-Oblique-78"/>
      <use transform="translate(133.398438 0.015625)" xlink:href="#DejaVuSans-29"/>
     </g>
    </g>
   </g>
   <g id="line2d_15">
    <path clip-path="url(#p4faf067e21)" d="M 57.681818 179.098607 
L 78.074692 178.993293 
L 85.722019 178.73874 
L 90.820238 178.373642 
L 95.918456 177.756818 
L 99.74212 177.071945 
L 103.565783 176.147088 
L 107.389447 174.930303 
L 109.938556 173.926518 
L 112.487666 172.744097 
L 115.036775 171.360511 
L 117.585884 169.754169 
L 120.134993 167.907729 
L 122.684102 165.812293 
L 125.233212 163.471758 
L 129.056875 159.550617 
L 132.880539 155.270963 
L 140.527867 146.530381 
L 144.35153 142.521533 
L 148.175194 138.944032 
L 151.998858 135.817259 
L 155.822522 133.087931 
L 159.646185 130.684252 
L 163.469849 128.562832 
L 167.293513 126.723019 
L 171.117177 125.187568 
L 174.940841 123.972955 
L 178.764504 123.07881 
L 182.588168 122.508636 
L 185.137277 122.327572 
L 187.686386 122.336514 
L 190.235496 122.574024 
L 192.784605 123.083132 
L 195.333714 123.902289 
L 197.882823 125.055694 
L 200.431932 126.545638 
L 202.981042 128.349013 
L 205.530151 130.418945 
L 209.353815 133.88047 
L 222.09936 145.899693 
L 227.197579 150.197438 
L 232.295797 154.116104 
L 237.394016 157.686475 
L 242.492234 160.961843 
L 248.865007 164.771196 
L 256.512334 169.088469 
L 261.610553 171.753242 
L 265.434217 173.543455 
L 269.25788 175.085091 
L 273.081544 176.338406 
L 276.905208 177.29653 
L 280.728872 177.983923 
L 284.552535 178.446377 
L 289.650754 178.806535 
L 296.023527 179.006459 
L 307.494518 179.092018 
L 311.318182 179.09687 
L 311.318182 179.09687 
" style="fill:none;stroke:#3300ff;stroke-linecap:square;stroke-width:2;"/>
   </g>
   <g id="line2d_16">
    <path clip-path="url(#p4faf067e21)" d="M 57.681818 54.93697 
L 85.722019 55.032172 
L 88.271128 55.329747 
L 90.820238 55.939204 
L 92.094792 56.42121 
L 93.369347 57.06212 
L 94.643901 57.897709 
L 95.918456 58.96748 
L 97.193011 60.313924 
L 98.467565 61.981468 
L 99.74212 64.01511 
L 101.016674 66.458753 
L 102.291229 69.35328 
L 103.565783 72.734422 
L 104.840338 76.630481 
L 106.114893 81.059956 
L 107.389447 86.029149 
L 108.664002 91.529729 
L 111.213111 104.003248 
L 113.76222 118.013479 
L 117.585884 139.461777 
L 118.860439 145.383868 
L 120.134993 149.211777 
L 121.409548 149.358232 
L 122.684102 145.558849 
L 123.958657 139.481386 
L 127.782321 119.600111 
L 129.056875 114.04712 
L 130.33143 109.389832 
L 131.605984 105.738196 
L 132.880539 103.161948 
L 134.155094 101.695586 
L 135.429648 101.339819 
L 136.704203 102.061161 
L 137.978757 103.789899 
L 139.253312 106.415446 
L 140.527867 109.776138 
L 144.35153 121.153376 
L 145.626085 123.175191 
L 146.90064 122.468059 
L 148.175194 118.812413 
L 149.449749 113.311307 
L 153.273413 95.252477 
L 154.547967 90.256308 
L 155.822522 86.153337 
L 157.097076 83.065649 
L 158.371631 81.070957 
L 159.646185 80.207888 
L 160.92074 80.477969 
L 162.195295 81.845752 
L 163.469849 84.237215 
L 164.744404 87.535301 
L 166.018958 91.569379 
L 169.842622 104.800725 
L 171.117177 107.288986 
L 172.391731 107.005074 
L 173.666286 103.872525 
L 174.940841 99.019116 
L 177.48995 88.128012 
L 178.764504 83.172096 
L 180.039059 78.936989 
L 181.313614 75.600905 
L 182.588168 73.28711 
L 183.862723 72.075321 
L 185.137277 72.0065 
L 186.411832 73.084551 
L 187.686386 75.276232 
L 188.960941 78.509254 
L 190.235496 82.66731 
L 191.51005 87.578499 
L 195.333714 103.432857 
L 196.608269 106.694771 
L 197.882823 107.157111 
L 199.157378 104.895995 
L 200.431932 101.084633 
L 202.981042 92.614669 
L 204.255596 88.972349 
L 205.530151 86.093328 
L 206.804705 84.140536 
L 208.07926 83.222505 
L 209.353815 83.404106 
L 210.628369 84.711216 
L 211.902924 87.132561 
L 213.177478 90.619824 
L 214.452033 95.085906 
L 215.726587 100.399889 
L 218.275697 112.738344 
L 219.550251 119.065092 
L 220.824806 124.633289 
L 222.09936 128.282283 
L 223.373915 128.907593 
L 224.64847 126.72898 
L 225.923024 122.977257 
L 228.472133 114.457464 
L 229.746688 110.673544 
L 231.021243 107.573583 
L 232.295797 105.32769 
L 233.570352 104.055668 
L 234.844906 103.836986 
L 236.119461 104.715169 
L 237.394016 106.699581 
L 238.66857 109.765581 
L 239.943125 113.852843 
L 241.217679 118.860165 
L 242.492234 124.632192 
L 246.315898 143.021934 
L 247.590452 146.494133 
L 248.865007 146.075244 
L 250.139561 142.030416 
L 251.414116 135.946505 
L 253.963225 121.639047 
L 256.512334 107.206151 
L 259.061444 94.061866 
L 260.335998 88.192127 
L 261.610553 82.852087 
L 262.885107 78.062025 
L 264.159662 73.825265 
L 265.434217 70.13079 
L 266.708771 66.955757 
L 267.983326 64.267964 
L 269.25788 62.028256 
L 270.532435 60.192838 
L 271.806989 58.715406 
L 273.081544 57.549068 
L 274.356099 56.647983 
L 275.630653 55.968697 
L 276.905208 55.471148 
L 279.454317 54.881812 
L 282.003426 54.646178 
L 285.82709 54.614654 
L 304.945409 54.924085 
L 311.318182 54.935232 
L 311.318182 54.935232 
" style="fill:none;stroke:#3300ff;stroke-linecap:square;stroke-width:0.2;"/>
   </g>
   <g id="line2d_17">
    <path clip-path="url(#p4faf067e21)" d="M 57.681818 303.260245 
L 76.800137 303.149442 
L 81.898355 302.913636 
L 84.447465 302.646641 
L 86.996574 302.180505 
L 89.545683 301.385544 
L 90.820238 300.808081 
L 92.094792 300.071974 
L 93.369347 299.142732 
L 94.643901 297.981633 
L 95.918456 296.546156 
L 97.193011 294.790712 
L 98.467565 292.667685 
L 99.74212 290.12878 
L 101.016674 287.126658 
L 102.291229 283.61683 
L 103.565783 279.559753 
L 104.840338 274.923069 
L 106.114893 269.683947 
L 107.389447 263.831458 
L 108.664002 257.368995 
L 111.213111 242.714823 
L 113.76222 226.14423 
L 117.585884 200.046561 
L 118.860439 192.339667 
L 120.134993 186.603682 
L 121.409548 184.424249 
L 122.684102 186.065736 
L 123.958657 189.862237 
L 126.507766 198.544854 
L 127.782321 202.21263 
L 129.056875 205.054113 
L 130.33143 206.918938 
L 131.605984 207.711984 
L 132.880539 207.379977 
L 134.155094 205.906101 
L 135.429648 203.308069 
L 136.704203 199.63799 
L 137.978757 194.98384 
L 139.253312 189.473537 
L 141.802421 176.666935 
L 144.35153 163.88969 
L 145.626085 159.381139 
L 146.90064 157.702879 
L 148.175194 159.07565 
L 149.449749 162.395298 
L 153.273413 174.481597 
L 154.547967 177.660127 
L 155.822522 180.022526 
L 157.097076 181.441461 
L 158.371631 181.834811 
L 159.646185 181.160616 
L 160.92074 179.415211 
L 162.195295 176.6331 
L 163.469849 172.888449 
L 164.744404 168.299344 
L 167.293513 157.355349 
L 168.568068 151.637213 
L 169.842622 146.527616 
L 171.117177 143.08615 
L 172.391731 142.48851 
L 173.666286 144.81139 
L 174.940841 148.926795 
L 178.764504 162.985523 
L 180.039059 166.766515 
L 181.313614 169.721469 
L 182.588168 171.730162 
L 183.862723 172.717465 
L 185.137277 172.648644 
L 186.411832 171.527604 
L 187.686386 169.396796 
L 188.960941 166.33878 
L 190.235496 162.480738 
L 192.784605 153.177806 
L 194.059159 148.405842 
L 195.333714 144.371722 
L 196.608269 142.178207 
L 197.882823 142.954276 
L 199.157378 146.622887 
L 200.431932 152.006643 
L 204.255596 169.736391 
L 205.530151 174.744561 
L 206.804705 178.927884 
L 208.07926 182.159748 
L 209.353815 184.356833 
L 210.628369 185.475071 
L 211.902924 185.508374 
L 213.177478 184.489013 
L 214.452033 182.489725 
L 215.726587 179.629009 
L 217.001142 176.083515 
L 219.550251 168.149083 
L 220.824806 164.896525 
L 222.09936 163.517103 
L 223.373915 165.113541 
L 224.64847 169.465294 
L 227.197579 181.71286 
L 229.746688 193.731635 
L 231.021243 198.767525 
L 232.295797 202.904519 
L 233.570352 206.023918 
L 234.844906 208.047501 
L 236.119461 208.933198 
L 237.394016 208.673369 
L 238.66857 207.294687 
L 239.943125 204.859836 
L 241.217679 201.472684 
L 242.492234 197.291493 
L 246.315898 183.52882 
L 247.590452 181.560151 
L 248.865007 183.467148 
L 250.139561 188.986214 
L 251.414116 196.531289 
L 259.061444 246.842437 
L 261.610553 260.654397 
L 262.885107 266.686017 
L 264.159662 272.117853 
L 265.434217 276.95612 
L 266.708771 281.219308 
L 267.983326 284.935869 
L 269.25788 288.141926 
L 270.532435 290.879055 
L 271.806989 293.192194 
L 273.081544 295.127744 
L 274.356099 296.731908 
L 275.630653 298.049309 
L 276.905208 299.121911 
L 278.179762 299.988235 
L 279.454317 300.682875 
L 282.003426 301.674708 
L 284.552535 302.29219 
L 287.101645 302.671763 
L 290.925308 302.983256 
L 297.298081 303.184607 
L 310.043627 303.257327 
L 311.318182 303.258508 
L 311.318182 303.258508 
" style="fill:none;stroke:#3300ff;stroke-linecap:square;stroke-width:0.2;"/>
   </g>
   <g id="line2d_18">
    <defs>
     <path d="M 0 3.75 
C 0.994512 3.75 1.948425 3.354876 2.65165 2.65165 
C 3.354876 1.948425 3.75 0.994512 3.75 0 
C 3.75 -0.994512 3.354876 -1.948425 2.65165 -2.65165 
C 1.948425 -3.354876 0.994512 -3.75 0 -3.75 
C -0.994512 -3.75 -1.948425 -3.354876 -2.65165 -2.65165 
C -3.354876 -1.948425 -3.75 -0.994512 -3.75 0 
C -3.75 0.994512 -3.354876 1.948425 -2.65165 2.65165 
C -1.948425 3.354876 -0.994512 3.75 0 3.75 
z
" id="m00ec78cbd0" style="stroke:#000000;"/>
    </defs>
    <g clip-path="url(#p4faf067e21)">
     <use style="stroke:#000000;" x="121.090909" xlink:href="#m00ec78cbd0" y="167.109843"/>
     <use style="stroke:#000000;" x="146.454545" xlink:href="#m00ec78cbd0" y="140.223859"/>
     <use style="stroke:#000000;" x="171.818182" xlink:href="#m00ec78cbd0" y="124.584754"/>
     <use style="stroke:#000000;" x="197.181818" xlink:href="#m00ec78cbd0" y="124.315116"/>
     <use style="stroke:#000000;" x="222.545455" xlink:href="#m00ec78cbd0" y="146.0995"/>
     <use style="stroke:#000000;" x="247.909091" xlink:href="#m00ec78cbd0" y="164.120625"/>
    </g>
   </g>
   <g id="line2d_19">
    <path clip-path="url(#p4faf067e21)" d="M 45 315 
L 45 43.2 
" style="fill:none;stroke:#000000;stroke-linecap:square;stroke-width:1.5;"/>
   </g>
   <g id="line2d_20">
    <path clip-path="url(#p4faf067e21)" d="M 45 315 
L 324 315 
" style="fill:none;stroke:#000000;stroke-linecap:square;stroke-width:1.5;"/>
   </g>
   <g id="patch_4">
    <path d="M 45 315 
L 45 43.2 
" style="fill:none;stroke:#000000;stroke-linecap:square;stroke-linejoin:miter;stroke-width:0.8;"/>
   </g>
   <g id="patch_5">
    <path d="M 324 315 
L 324 43.2 
" style="fill:none;stroke:#000000;stroke-linecap:square;stroke-linejoin:miter;stroke-width:0.8;"/>
   </g>
   <g id="patch_6">
    <path d="M 45 315 
L 324 315 
" style="fill:none;stroke:#000000;stroke-linecap:square;stroke-linejoin:miter;stroke-width:0.8;"/>
   </g>
   <g id="patch_7">
    <path d="M 45 43.2 
L 324 43.2 
" style="fill:none;stroke:#000000;stroke-linecap:square;stroke-linejoin:miter;stroke-width:0.8;"/>
   </g>
  </g>
 </g>
 <defs>
  <clipPath id="p4faf067e21">
   <rect height="271.8" width="279" x="45" y="43.2"/>
  </clipPath>
 </defs>
</svg>
