<?xml version="1.0" encoding="utf-8" standalone="no"?>
<!DOCTYPE svg PUBLIC "-//W3C//DTD SVG 1.1//EN"
  "http://www.w3.org/Graphics/SVG/1.1/DTD/svg11.dtd">
<!-- Created with matplotlib (http://matplotlib.org/) -->
<svg height="432pt" version="1.1" viewBox="0 0 864 432" width="864pt" xmlns="http://www.w3.org/2000/svg" xmlns:xlink="http://www.w3.org/1999/xlink">
 <defs>
  <style type="text/css">
*{stroke-linecap:butt;stroke-linejoin:round;}
  </style>
 </defs>
 <g id="figure_1">
  <g id="patch_1">
   <path d="M 0 432 
L 864 432 
L 864 0 
L 0 0 
z
" style="fill:none;"/>
  </g>
  <g id="axes_1">
   <g id="patch_2">
    <path clip-path="url(#p466604b675)" d="M 0 85.715469 
L 3.46988 84.787311 
L 6.939759 83.857556 
L 10.409639 82.929575 
L 13.879518 82.006952 
L 17.349398 81.093482 
L 20.819277 80.193164 
L 24.289157 79.310186 
L 27.759036 78.44892 
L 31.228916 77.613906 
L 34.698795 76.809836 
L 38.168675 76.041545 
L 41.638554 75.313986 
L 45.108434 74.632216 
L 48.578313 74.001374 
L 52.048193 73.426662 
L 55.518072 72.913319 
L 58.987952 72.466602 
L 62.457831 72.091758 
L 65.927711 71.794004 
L 69.39759 71.578496 
L 72.86747 71.450306 
L 76.337349 71.414396 
L 79.807229 71.475592 
L 83.277108 71.638557 
L 86.746988 71.907765 
L 90.216867 72.287476 
L 93.686747 72.781711 
L 97.156627 73.394229 
L 100.626506 74.128501 
L 104.096386 74.98769 
L 107.566265 75.974631 
L 111.036145 77.09181 
L 114.506024 78.341344 
L 117.975904 79.72497 
L 121.445783 81.244029 
L 124.915663 82.899448 
L 128.385542 84.691739 
L 131.855422 86.620984 
L 135.325301 88.68683 
L 138.795181 90.888488 
L 142.26506 93.224731 
L 145.73494 95.693891 
L 149.204819 98.293867 
L 152.674699 101.022128 
L 156.144578 103.875725 
L 159.614458 106.851294 
L 163.084337 109.945076 
L 166.554217 113.152928 
L 170.024096 116.470339 
L 173.493976 119.892452 
L 176.963855 116.476189 
L 180.433735 113.164706 
L 183.903614 109.962926 
L 187.373494 106.875425 
L 190.843373 103.906413 
L 194.313253 101.059721 
L 197.783133 98.338781 
L 201.253012 95.746621 
L 204.722892 93.285849 
L 208.192771 90.958648 
L 211.662651 88.766771 
L 215.13253 86.711538 
L 218.60241 84.793837 
L 222.072289 83.01412 
L 225.542169 81.372415 
L 229.012048 79.868328 
L 232.481928 78.501053 
L 235.951807 77.269383 
L 239.421687 76.171722 
L 242.891566 75.206102 
L 246.361446 74.370199 
L 249.831325 73.661351 
L 253.301205 73.076578 
L 256.771084 72.612606 
L 260.240964 72.265889 
L 263.710843 72.032632 
L 267.180723 71.908817 
L 270.650602 71.890229 
L 274.120482 71.972486 
L 277.590361 72.15106 
L 281.060241 72.421311 
L 284.53012 72.778508 
L 288 73.217866 
L 291.46988 73.734564 
L 294.939759 74.32378 
L 298.409639 74.980713 
L 301.879518 75.700613 
L 305.349398 76.478803 
L 308.819277 77.310707 
L 312.289157 78.19187 
L 315.759036 79.117987 
L 319.228916 80.084914 
L 322.698795 81.088698 
L 326.168675 82.12559 
L 329.638554 83.192061 
L 333.108434 84.284821 
L 336.578313 85.400829 
L 340.048193 86.537304 
L 343.518072 87.691739 
L 346.987952 88.861902 
L 350.457831 90.045847 
L 353.927711 91.241914 
L 357.39759 92.448731 
L 360.86747 93.665217 
L 364.337349 94.890572 
L 367.807229 96.124278 
L 371.277108 97.366088 
L 374.746988 98.616021 
L 378.216867 99.874348 
L 381.686747 101.141578 
L 385.156627 102.418445 
L 388.626506 103.705892 
L 392.096386 105.00505 
L 395.566265 106.317221 
L 399.036145 107.643853 
L 402.506024 108.986521 
L 405.975904 110.3469 
L 409.445783 111.726743 
L 412.915663 113.127851 
L 416.385542 114.552052 
L 419.855422 116.001168 
L 423.325301 117.476994 
L 426.795181 118.981265 
L 430.26506 120.515631 
L 433.73494 122.08163 
L 437.204819 123.68066 
L 440.674699 125.313956 
L 444.144578 126.98256 
L 447.614458 128.687298 
L 451.084337 130.42876 
L 454.554217 132.207275 
L 458.024096 134.02289 
L 461.493976 135.875353 
L 464.963855 137.764098 
L 468.433735 139.688226 
L 471.903614 141.646494 
L 475.373494 143.637305 
L 478.843373 145.658701 
L 482.313253 147.708355 
L 485.783133 149.783568 
L 489.253012 151.881273 
L 492.722892 153.998029 
L 496.192771 156.130035 
L 499.662651 158.273133 
L 503.13253 160.422819 
L 506.60241 162.574255 
L 510.072289 164.72229 
L 513.542169 166.861473 
L 517.012048 168.986079 
L 520.481928 171.09013 
L 523.951807 173.167423 
L 527.421687 175.211555 
L 530.891566 177.21596 
L 534.361446 179.173937 
L 537.831325 181.078686 
L 541.301205 182.923341 
L 544.771084 184.701015 
L 548.240964 186.40483 
L 551.710843 188.027959 
L 555.180723 189.563671 
L 558.650602 191.005363 
L 562.120482 192.346607 
L 565.590361 193.581185 
L 569.060241 194.703134 
L 572.53012 195.70678 
L 576 196.586776 
L 579.46988 192.620501 
L 582.939759 188.718979 
L 586.409639 184.893175 
L 589.879518 181.153968 
L 593.349398 177.512104 
L 596.819277 173.978147 
L 600.289157 170.562426 
L 603.759036 167.274995 
L 607.228916 164.125578 
L 610.698795 161.123527 
L 614.168675 158.277778 
L 617.638554 155.596806 
L 621.108434 153.088586 
L 624.578313 150.760556 
L 628.048193 148.619579 
L 631.518072 146.671911 
L 634.987952 144.923174 
L 638.457831 143.378325 
L 641.927711 142.041638 
L 645.39759 140.916683 
L 648.86747 140.00631 
L 652.337349 139.312636 
L 655.807229 138.837042 
L 659.277108 138.580164 
L 662.746988 138.541899 
L 666.216867 138.721402 
L 669.686747 139.117101 
L 673.156627 139.726703 
L 676.626506 140.547216 
L 680.096386 141.574963 
L 683.566265 142.805607 
L 687.036145 144.234178 
L 690.506024 145.855098 
L 693.975904 147.662219 
L 697.445783 144.748778 
L 700.915663 141.841238 
L 704.385542 138.948222 
L 707.855422 136.078159 
L 711.325301 133.239241 
L 714.795181 130.439385 
L 718.26506 127.686203 
L 721.73494 124.986964 
L 725.204819 122.348566 
L 728.674699 119.777509 
L 732.144578 117.27987 
L 735.614458 114.861279 
L 739.084337 112.526905 
L 742.554217 110.281438 
L 746.024096 108.129075 
L 749.493976 106.073514 
L 752.963855 104.117946 
L 756.433735 102.265054 
L 759.903614 100.517012 
L 763.373494 98.875488 
L 766.843373 97.341653 
L 770.313253 95.916185 
L 773.783133 94.599287 
L 777.253012 93.390695 
L 780.722892 92.2897 
L 784.192771 91.295162 
L 787.662651 90.405537 
L 791.13253 89.61889 
L 794.60241 88.932931 
L 798.072289 88.34503 
L 801.542169 87.852249 
L 805.012048 87.45137 
L 808.481928 87.13892 
L 811.951807 86.911203 
L 815.421687 86.764327 
L 818.891566 86.694234 
L 822.361446 86.69673 
L 825.831325 86.767512 
L 829.301205 86.902196 
L 832.771084 87.096347 
L 836.240964 87.345503 
L 839.710843 87.645203 
L 843.180723 87.991009 
L 846.650602 88.37853 
L 850.120482 88.803446 
L 853.590361 89.261525 
L 857.060241 89.748643 
L 860.53012 90.260802 
L 864 90.794143 
L 864 294.742843 
L 860.53012 292.947241 
L 857.060241 291.068765 
L 853.590361 289.105883 
L 850.120482 287.057249 
L 846.650602 284.921722 
L 843.180723 282.698385 
L 839.710843 280.386568 
L 836.240964 277.985869 
L 832.771084 275.496174 
L 829.301205 272.917674 
L 825.831325 270.250888 
L 822.361446 267.496681 
L 818.891566 264.656277 
L 815.421687 261.731282 
L 811.951807 258.72369 
L 808.481928 255.635905 
L 805.012048 252.470746 
L 801.542169 249.231457 
L 798.072289 245.921717 
L 794.60241 242.545641 
L 791.13253 239.107787 
L 787.662651 235.613152 
L 784.192771 232.06717 
L 780.722892 228.475709 
L 777.253012 224.845061 
L 773.783133 221.181931 
L 770.313253 217.493422 
L 766.843373 213.787022 
L 763.373494 210.070582 
L 759.903614 206.352294 
L 756.433735 202.640663 
L 752.963855 198.944487 
L 749.493976 195.272817 
L 746.024096 191.634932 
L 742.554217 188.040299 
L 739.084337 184.498539 
L 735.614458 181.019384 
L 732.144578 177.612641 
L 728.674699 174.288146 
L 725.204819 171.05572 
L 721.73494 167.925126 
L 718.26506 164.906022 
L 714.795181 162.007919 
L 711.325301 159.240126 
L 707.855422 156.611714 
L 704.385542 154.131464 
L 700.915663 151.807822 
L 697.445783 149.648857 
L 693.975904 147.662222 
L 690.506024 150.572784 
L 687.036145 153.471578 
L 683.566265 156.349639 
L 680.096386 159.197981 
L 676.626506 162.007637 
L 673.156627 164.769705 
L 669.686747 167.475396 
L 666.216867 170.116074 
L 662.746988 172.683305 
L 659.277108 175.168897 
L 655.807229 177.564947 
L 652.337349 179.863875 
L 648.86747 182.058468 
L 645.39759 184.141913 
L 641.927711 186.107836 
L 638.457831 187.950328 
L 634.987952 189.663978 
L 631.518072 191.243899 
L 628.048193 192.685746 
L 624.578313 193.98574 
L 621.108434 195.140684 
L 617.638554 196.147972 
L 614.168675 197.005597 
L 610.698795 197.712163 
L 607.228916 198.266877 
L 603.759036 198.669554 
L 600.289157 198.920605 
L 596.819277 199.021031 
L 593.349398 198.97241 
L 589.879518 198.776879 
L 586.409639 198.437114 
L 582.939759 197.956309 
L 579.46988 197.338147 
L 576 196.586778 
L 572.53012 200.606806 
L 569.060241 204.669597 
L 565.590361 208.76422 
L 562.120482 212.879848 
L 558.650602 217.005803 
L 555.180723 221.131596 
L 551.710843 225.246972 
L 548.240964 229.341943 
L 544.771084 233.406828 
L 541.301205 237.432286 
L 537.831325 241.409341 
L 534.361446 245.329419 
L 530.891566 249.184363 
L 527.421687 252.966461 
L 523.951807 256.668461 
L 520.481928 260.283589 
L 517.012048 263.805558 
L 513.542169 267.228576 
L 510.072289 270.547357 
L 506.60241 273.757115 
L 503.13253 276.853572 
L 499.662651 279.832945 
L 496.192771 282.69195 
L 492.722892 285.427781 
L 489.253012 288.038107 
L 485.783133 290.521054 
L 482.313253 292.875187 
L 478.843373 295.099493 
L 475.373494 297.19336 
L 471.903614 299.156553 
L 468.433735 300.989191 
L 464.963855 302.691721 
L 461.493976 304.264893 
L 458.024096 305.709731 
L 454.554217 307.027503 
L 451.084337 308.219699 
L 447.614458 309.287993 
L 444.144578 310.234224 
L 440.674699 311.060359 
L 437.204819 311.76847 
L 433.73494 312.360705 
L 430.26506 312.83926 
L 426.795181 313.206354 
L 423.325301 313.464205 
L 419.855422 313.615005 
L 416.385542 313.6609 
L 412.915663 313.603967 
L 409.445783 313.446197 
L 405.975904 313.18948 
L 402.506024 312.835584 
L 399.036145 312.386149 
L 395.566265 311.842674 
L 392.096386 311.206504 
L 388.626506 310.478832 
L 385.156627 309.660687 
L 381.686747 308.752936 
L 378.216867 307.756285 
L 374.746988 306.671279 
L 371.277108 305.498308 
L 367.807229 304.237615 
L 364.337349 302.889303 
L 360.86747 301.453346 
L 357.39759 299.929603 
L 353.927711 298.317833 
L 350.457831 296.617708 
L 346.987952 294.828831 
L 343.518072 292.95076 
L 340.048193 290.983018 
L 336.578313 288.925124 
L 333.108434 286.776606 
L 329.638554 284.537029 
L 326.168675 282.206014 
L 322.698795 279.783261 
L 319.228916 277.268572 
L 315.759036 274.661873 
L 312.289157 271.963235 
L 308.819277 269.172896 
L 305.349398 266.291281 
L 301.879518 263.319022 
L 298.409639 260.256974 
L 294.939759 257.106235 
L 291.46988 253.868159 
L 288 250.544371 
L 284.53012 247.136778 
L 281.060241 243.647581 
L 277.590361 240.079282 
L 274.120482 236.434689 
L 270.650602 232.716926 
L 267.180723 228.929427 
L 263.710843 225.075942 
L 260.240964 221.160532 
L 256.771084 217.187565 
L 253.301205 213.161708 
L 249.831325 209.087922 
L 246.361446 204.971444 
L 242.891566 200.81778 
L 239.421687 196.632687 
L 235.951807 192.422154 
L 232.481928 188.192386 
L 229.012048 183.949779 
L 225.542169 179.700903 
L 222.072289 175.45247 
L 218.60241 171.211315 
L 215.13253 166.984368 
L 211.662651 162.778621 
L 208.192771 158.601106 
L 204.722892 154.458863 
L 201.253012 150.358907 
L 197.783133 146.308204 
L 194.313253 142.313634 
L 190.843373 138.381966 
L 187.373494 134.519827 
L 183.903614 130.73367 
L 180.433735 127.029748 
L 176.963855 123.414086 
L 173.493976 119.892455 
L 170.024096 123.408252 
L 166.554217 127.018031 
L 163.084337 130.71596 
L 159.614458 134.495949 
L 156.144578 138.351683 
L 152.674699 142.276643 
L 149.204819 146.264137 
L 145.73494 150.30733 
L 142.26506 154.399271 
L 138.795181 158.532926 
L 135.325301 162.701205 
L 131.855422 166.896995 
L 128.385542 171.113189 
L 124.915663 175.342712 
L 121.445783 179.578556 
L 117.975904 183.813802 
L 114.506024 188.041652 
L 111.036145 192.255451 
L 107.566265 196.448714 
L 104.096386 200.615146 
L 100.626506 204.74867 
L 97.156627 208.843441 
L 93.686747 212.893865 
L 90.216867 216.89462 
L 86.746988 220.840664 
L 83.277108 224.727255 
L 79.807229 228.549954 
L 76.337349 232.30464 
L 72.86747 235.987514 
L 69.39759 239.595102 
L 65.927711 243.124262 
L 62.457831 246.572182 
L 58.987952 249.93638 
L 55.518072 253.214699 
L 52.048193 256.405307 
L 48.578313 259.506688 
L 45.108434 262.517634 
L 41.638554 265.437238 
L 38.168675 268.264884 
L 34.698795 271.000232 
L 31.228916 273.643213 
L 27.759036 276.194008 
L 24.289157 278.653039 
L 20.819277 281.020952 
L 17.349398 283.298606 
L 13.879518 285.487054 
L 10.409639 287.587528 
L 6.939759 289.601425 
L 3.46988 291.530291 
L 0 293.375808 
z
" style="fill:#cc3300;opacity:0.3;stroke:#cc3300;stroke-linejoin:miter;stroke-width:0.5;"/>
   </g>
   <g id="line2d_1">
    <path clip-path="url(#p466604b675)" d="M 0 207.42438 
L 6.939759 207.386404 
L 13.879518 207.031026 
L 20.819277 206.344626 
L 27.759036 205.311758 
L 34.698795 203.915815 
L 41.638554 202.140269 
L 48.578313 199.969966 
L 55.518072 197.392695 
L 62.457831 194.400642 
L 69.39759 190.991877 
L 76.337349 187.171675 
L 83.277108 182.953422 
L 90.216867 178.359294 
L 97.156627 173.420523 
L 104.096386 168.177076 
L 111.036145 162.677027 
L 121.445783 154.067579 
L 156.144578 124.806627 
L 163.084337 119.310544 
L 170.024096 114.052467 
L 176.963855 109.066854 
L 183.903614 104.377478 
L 190.843373 99.996977 
L 197.783133 95.926792 
L 204.722892 92.157783 
L 211.662651 88.671248 
L 218.60241 85.440475 
L 225.542169 82.432653 
L 232.481928 79.611214 
L 242.891566 75.646005 
L 256.771084 70.67653 
L 274.120482 64.714175 
L 288 60.117311 
L 298.409639 56.891518 
L 305.349398 54.93481 
L 312.289157 53.208641 
L 319.228916 51.78996 
L 326.168675 50.764185 
L 329.638554 50.426976 
L 333.108434 50.222423 
L 336.578313 50.162259 
L 340.048193 50.258174 
L 343.518072 50.521649 
L 346.987952 50.963861 
L 350.457831 51.595574 
L 353.927711 52.426967 
L 357.39759 53.467584 
L 360.86747 54.726171 
L 364.337349 56.210561 
L 367.807229 57.927568 
L 371.277108 59.882885 
L 374.746988 62.080986 
L 378.216867 64.525017 
L 381.686747 67.216746 
L 385.156627 70.156431 
L 388.626506 73.342825 
L 392.096386 76.773081 
L 395.566265 80.442706 
L 399.036145 84.345571 
L 402.506024 88.47387 
L 405.975904 92.818114 
L 409.445783 97.367181 
L 416.385542 107.027163 
L 423.325301 117.333169 
L 430.26506 128.141523 
L 440.674699 144.933537 
L 454.554217 167.43222 
L 461.493976 178.287847 
L 468.433735 188.61907 
L 471.903614 193.528948 
L 475.373494 198.238407 
L 478.843373 202.726234 
L 482.313253 206.972511 
L 485.783133 210.95869 
L 489.253012 214.667736 
L 492.722892 218.084316 
L 496.192771 221.194903 
L 499.662651 223.987859 
L 503.13253 226.453568 
L 506.60241 228.584446 
L 510.072289 230.375093 
L 513.542169 231.822235 
L 517.012048 232.924818 
L 520.481928 233.683963 
L 523.951807 234.102933 
L 527.421687 234.18716 
L 530.891566 233.944108 
L 534.361446 233.383271 
L 537.831325 232.515995 
L 541.301205 231.35547 
L 544.771084 229.916512 
L 548.240964 228.215466 
L 551.710843 226.270037 
L 555.180723 224.099186 
L 558.650602 221.722889 
L 562.120482 219.161943 
L 569.060241 213.572708 
L 576 207.5083 
L 586.409639 197.910614 
L 600.289157 185.069638 
L 607.228916 178.972754 
L 614.168675 173.261128 
L 621.108434 168.034189 
L 624.578313 165.626873 
L 628.048193 163.366887 
L 631.518072 161.259672 
L 634.987952 159.309161 
L 638.457831 157.517729 
L 641.927711 155.88633 
L 645.39759 154.414497 
L 648.86747 153.100429 
L 652.337349 151.941107 
L 655.807229 150.932376 
L 659.277108 150.06901 
L 662.746988 149.344906 
L 666.216867 148.753085 
L 669.686747 148.285959 
L 676.626506 147.692488 
L 683.566265 147.49442 
L 690.506024 147.618587 
L 697.445783 147.992464 
L 707.855422 148.873805 
L 721.73494 150.350537 
L 749.493976 153.357579 
L 770.313253 155.614477 
L 780.722892 156.969208 
L 787.662651 158.038139 
L 794.60241 159.281719 
L 801.542169 160.732203 
L 808.481928 162.416317 
L 815.421687 164.353681 
L 822.361446 166.55557 
L 829.301205 169.024271 
L 836.240964 171.752871 
L 843.180723 174.725503 
L 850.120482 177.918078 
L 857.060241 181.299354 
L 864 184.832291 
L 864 184.832291 
" style="fill:none;stroke:#1f77b4;stroke-linecap:square;stroke-width:1.5;"/>
   </g>
   <g id="line2d_2">
    <path clip-path="url(#p466604b675)" d="M 0 225.709799 
L 17.349398 216.425075 
L 38.168675 205.311724 
L 48.578313 199.553459 
L 58.987952 193.543916 
L 69.39759 187.224771 
L 79.807229 180.57659 
L 90.216867 173.627738 
L 104.096386 164.041548 
L 121.445783 152.03624 
L 128.385542 147.415669 
L 135.325301 143.002138 
L 142.26506 138.869033 
L 149.204819 135.090115 
L 156.144578 131.737048 
L 159.614458 130.241406 
L 163.084337 128.876886 
L 166.554217 127.65075 
L 170.024096 126.569669 
L 173.493976 125.63968 
L 176.963855 124.86609 
L 180.433735 124.25344 
L 183.903614 123.805424 
L 187.373494 123.524895 
L 190.843373 123.41378 
L 194.313253 123.473063 
L 197.783133 123.702764 
L 201.253012 124.101915 
L 204.722892 124.668566 
L 208.192771 125.399784 
L 211.662651 126.291614 
L 215.13253 127.33919 
L 218.60241 128.536661 
L 222.072289 129.87728 
L 225.542169 131.353442 
L 232.481928 134.67791 
L 239.421687 138.433767 
L 246.361446 142.534542 
L 253.301205 146.885874 
L 281.060241 164.781602 
L 288 168.880309 
L 294.939759 172.646855 
L 301.879518 176.00531 
L 305.349398 177.510959 
L 308.819277 178.891517 
L 312.289157 180.141048 
L 315.759036 181.254483 
L 319.228916 182.227677 
L 322.698795 183.05743 
L 326.168675 183.741448 
L 329.638554 184.278428 
L 333.108434 184.667988 
L 336.578313 184.910681 
L 340.048193 185.007962 
L 343.518072 184.962244 
L 346.987952 184.776759 
L 350.457831 184.455614 
L 353.927711 184.003727 
L 357.39759 183.426761 
L 364.337349 181.923921 
L 371.277108 180.006149 
L 378.216867 177.741604 
L 385.156627 175.205644 
L 395.566265 171.069888 
L 412.915663 163.992269 
L 419.855422 161.337517 
L 426.795181 158.898848 
L 433.73494 156.744227 
L 440.674699 154.932945 
L 447.614458 153.514045 
L 454.554217 152.525189 
L 458.024096 152.200439 
L 461.493976 151.991678 
L 464.963855 151.900035 
L 468.433735 151.925802 
L 471.903614 152.068417 
L 475.373494 152.32653 
L 482.313253 153.179637 
L 489.253012 154.458077 
L 496.192771 156.122934 
L 503.13253 158.124594 
L 510.072289 160.404378 
L 517.012048 162.896456 
L 527.421687 166.877065 
L 544.771084 173.548113 
L 551.710843 176.024651 
L 558.650602 178.297749 
L 565.590361 180.315514 
L 572.53012 182.035599 
L 579.46988 183.425924 
L 586.409639 184.465046 
L 593.349398 185.141908 
L 600.289157 185.455242 
L 607.228916 185.412602 
L 614.168675 185.029093 
L 621.108434 184.326035 
L 628.048193 183.329503 
L 634.987952 182.069118 
L 641.927711 180.576893 
L 648.86747 178.886433 
L 659.277108 176.055333 
L 669.686747 172.978287 
L 697.445783 164.587977 
L 704.385542 162.692981 
L 711.325301 160.98287 
L 718.26506 159.516033 
L 725.204819 158.353855 
L 732.144578 157.559344 
L 735.614458 157.319745 
L 739.084337 157.195643 
L 742.554217 157.194624 
L 746.024096 157.323998 
L 749.493976 157.590803 
L 752.963855 158.001586 
L 756.433735 158.562467 
L 759.903614 159.279013 
L 763.373494 160.156147 
L 766.843373 161.198096 
L 770.313253 162.408336 
L 773.783133 163.789546 
L 777.253012 165.34353 
L 780.722892 167.071163 
L 784.192771 168.97245 
L 787.662651 171.046385 
L 791.13253 173.291002 
L 794.60241 175.703373 
L 798.072289 178.279613 
L 801.542169 181.014875 
L 805.012048 183.903398 
L 811.951807 190.112937 
L 818.891566 196.845725 
L 825.831325 204.028272 
L 832.771084 211.578506 
L 843.180723 223.40068 
L 864 247.729531 
L 864 247.729531 
" style="fill:none;stroke:#e377c2;stroke-linecap:square;stroke-width:1.5;"/>
   </g>
   <g id="line2d_3">
    <path clip-path="url(#p466604b675)" d="M 0 133.863831 
L 3.46988 131.303313 
L 6.939759 128.939076 
L 10.409639 126.765505 
L 13.879518 124.77621 
L 17.349398 122.96427 
L 20.819277 121.322261 
L 24.289157 119.842317 
L 27.759036 118.516253 
L 31.228916 117.335659 
L 34.698795 116.291928 
L 38.168675 115.37641 
L 45.108434 113.895471 
L 52.048193 112.824979 
L 58.987952 112.10032 
L 65.927711 111.662018 
L 72.86747 111.457037 
L 79.807229 111.43981 
L 90.216867 111.686222 
L 100.626506 112.180945 
L 111.036145 112.873074 
L 121.445783 113.748745 
L 131.855422 114.825546 
L 142.26506 116.145809 
L 152.674699 117.769291 
L 159.614458 119.054232 
L 166.554217 120.526237 
L 173.493976 122.206188 
L 180.433735 124.113355 
L 187.373494 126.264453 
L 194.313253 128.672712 
L 201.253012 131.346956 
L 208.192771 134.290806 
L 215.13253 137.50203 
L 222.072289 140.971933 
L 229.012048 144.685064 
L 235.951807 148.619031 
L 246.361446 154.868397 
L 256.771084 161.422239 
L 284.53012 179.170364 
L 291.46988 183.383266 
L 298.409639 187.400453 
L 305.349398 191.173016 
L 312.289157 194.65665 
L 319.228916 197.812786 
L 326.168675 200.609609 
L 333.108434 203.022803 
L 340.048193 205.036008 
L 346.987952 206.641069 
L 353.927711 207.838088 
L 360.86747 208.635126 
L 367.807229 209.047812 
L 374.746988 209.098725 
L 381.686747 208.816673 
L 388.626506 208.235754 
L 395.566265 207.394507 
L 402.506024 206.334773 
L 412.915663 204.432284 
L 426.795181 201.548492 
L 447.614458 197.170678 
L 458.024096 195.219676 
L 468.433735 193.54005 
L 478.843373 192.173348 
L 489.253012 191.123241 
L 499.662651 190.35615 
L 510.072289 189.805285 
L 544.771084 188.241317 
L 555.180723 187.435339 
L 562.120482 186.726656 
L 569.060241 185.861623 
L 576 184.831664 
L 582.939759 183.635977 
L 593.349398 181.549817 
L 603.759036 179.167555 
L 617.638554 175.703249 
L 634.987952 171.373872 
L 645.39759 169.071462 
L 652.337349 167.768579 
L 659.277108 166.711105 
L 666.216867 165.946656 
L 673.156627 165.517577 
L 680.096386 165.459147 
L 687.036145 165.79773 
L 693.975904 166.549211 
L 700.915663 167.717446 
L 707.855422 169.293254 
L 714.795181 171.253642 
L 721.73494 173.561547 
L 728.674699 176.166118 
L 735.614458 179.003605 
L 746.024096 183.529638 
L 759.903614 189.607932 
L 766.843373 192.454983 
L 773.783133 195.049127 
L 780.722892 197.302781 
L 787.662651 199.137645 
L 791.13253 199.876978 
L 794.60241 200.48822 
L 798.072289 200.965692 
L 801.542169 201.304838 
L 805.012048 201.50236 
L 808.481928 201.556177 
L 811.951807 201.465552 
L 815.421687 201.231062 
L 818.891566 200.854585 
L 822.361446 200.33938 
L 825.831325 199.689967 
L 829.301205 198.912185 
L 836.240964 197.000811 
L 843.180723 194.675195 
L 850.120482 192.021333 
L 860.53012 187.643782 
L 864 186.133125 
L 864 186.133125 
" style="fill:none;stroke:#9467bd;stroke-linecap:square;stroke-width:1.5;"/>
   </g>
   <g id="line2d_4">
    <path clip-path="url(#p466604b675)" d="M 0 23.94902 
L 3.46988 25.129749 
L 6.939759 26.444066 
L 10.409639 27.88796 
L 17.349398 31.146974 
L 24.289157 34.868062 
L 31.228916 39.006879 
L 38.168675 43.513636 
L 45.108434 48.333537 
L 52.048193 53.407347 
L 62.457831 61.355863 
L 90.216867 82.962546 
L 97.156627 88.112109 
L 104.096386 93.048723 
L 111.036145 97.728787 
L 117.975904 102.118568 
L 124.915663 106.19527 
L 131.855422 109.947997 
L 138.795181 113.378205 
L 145.73494 116.4995 
L 152.674699 119.337099 
L 159.614458 121.926639 
L 166.554217 124.312517 
L 176.963855 127.622199 
L 204.722892 136.186927 
L 215.13253 139.777903 
L 222.072289 142.381638 
L 229.012048 145.170738 
L 235.951807 148.146244 
L 246.361446 152.930637 
L 256.771084 158.017522 
L 284.53012 171.891952 
L 291.46988 175.127555 
L 298.409639 178.154525 
L 305.349398 180.920646 
L 312.289157 183.380249 
L 319.228916 185.495879 
L 326.168675 187.239622 
L 333.108434 188.594025 
L 340.048193 189.552482 
L 346.987952 190.119435 
L 353.927711 190.309953 
L 360.86747 190.149058 
L 367.807229 189.670715 
L 374.746988 188.916591 
L 381.686747 187.934525 
L 392.096386 186.149434 
L 426.795181 179.729497 
L 433.73494 178.736732 
L 440.674699 177.933625 
L 447.614458 177.345164 
L 454.554217 176.987442 
L 461.493976 176.867297 
L 468.433735 176.982101 
L 475.373494 177.319971 
L 482.313253 177.860084 
L 489.253012 178.57346 
L 499.662651 179.887368 
L 530.891566 184.119664 
L 537.831325 184.796828 
L 544.771084 185.274613 
L 551.710843 185.513089 
L 558.650602 185.479122 
L 565.590361 185.147347 
L 572.53012 184.501016 
L 579.46988 183.53246 
L 586.409639 182.243128 
L 593.349398 180.643434 
L 600.289157 178.752075 
L 607.228916 176.595318 
L 614.168675 174.205871 
L 621.108434 171.621706 
L 631.518072 167.473311 
L 666.216867 153.168953 
L 673.156627 150.570654 
L 680.096386 148.164506 
L 687.036145 145.992404 
L 693.975904 144.094457 
L 700.915663 142.508833 
L 707.855422 141.271452 
L 714.795181 140.415578 
L 721.73494 139.971288 
L 725.204819 139.911828 
L 728.674699 139.964691 
L 732.144578 140.132426 
L 735.614458 140.417161 
L 739.084337 140.82068 
L 742.554217 141.344322 
L 746.024096 141.989003 
L 749.493976 142.755161 
L 752.963855 143.642733 
L 756.433735 144.65115 
L 759.903614 145.779265 
L 766.843373 148.387368 
L 773.783133 151.446874 
L 780.722892 154.928519 
L 787.662651 158.794236 
L 794.60241 162.997831 
L 801.542169 167.485994 
L 808.481928 172.199573 
L 818.891566 179.553545 
L 843.180723 196.892308 
L 850.120482 201.613584 
L 857.060241 206.132451 
L 864 210.405472 
L 864 210.405472 
" style="fill:none;stroke:#bcbd22;stroke-linecap:square;stroke-width:1.5;"/>
   </g>
   <g id="line2d_5">
    <path clip-path="url(#p466604b675)" d="M 0 229.913182 
L 10.409639 224.705789 
L 17.349398 221.43332 
L 24.289157 218.329503 
L 34.698795 213.980813 
L 45.108434 209.948808 
L 58.987952 204.876346 
L 72.86747 199.806598 
L 83.277108 195.739655 
L 90.216867 192.797606 
L 97.156627 189.613014 
L 104.096386 186.146306 
L 111.036145 182.370089 
L 117.975904 178.272042 
L 124.915663 173.856881 
L 131.855422 169.147765 
L 138.795181 164.186832 
L 149.204819 156.411035 
L 166.554217 143.287796 
L 173.493976 138.290821 
L 180.433735 133.614033 
L 187.373494 129.376972 
L 190.843373 127.459649 
L 194.313253 125.694885 
L 197.783133 124.095709 
L 201.253012 122.674316 
L 204.722892 121.441963 
L 208.192771 120.408903 
L 211.662651 119.584222 
L 215.13253 118.975779 
L 218.60241 118.590144 
L 222.072289 118.4325 
L 225.542169 118.506642 
L 229.012048 118.814922 
L 232.481928 119.358196 
L 235.951807 120.135864 
L 239.421687 121.145891 
L 242.891566 122.384781 
L 246.361446 123.847668 
L 249.831325 125.528375 
L 253.301205 127.419418 
L 256.771084 129.512157 
L 260.240964 131.79687 
L 263.710843 134.262814 
L 267.180723 136.898412 
L 270.650602 139.691282 
L 277.590361 145.696371 
L 284.53012 152.168732 
L 291.46988 158.99498 
L 301.879518 169.650669 
L 322.698795 191.17579 
L 329.638554 198.091202 
L 336.578313 204.763212 
L 343.518072 211.1434 
L 350.457831 217.195939 
L 357.39759 222.896235 
L 364.337349 228.229178 
L 371.277108 233.187136 
L 378.216867 237.767737 
L 385.156627 241.971745 
L 392.096386 245.801114 
L 399.036145 249.257391 
L 405.975904 252.340467 
L 412.915663 255.047819 
L 419.855422 257.374165 
L 426.795181 259.311572 
L 433.73494 260.849866 
L 440.674699 261.977377 
L 447.614458 262.681706 
L 454.554217 262.950705 
L 458.024096 262.918447 
L 461.493976 262.773325 
L 464.963855 262.514279 
L 468.433735 262.140386 
L 471.903614 261.650875 
L 475.373494 261.045212 
L 478.843373 260.323013 
L 482.313253 259.484124 
L 485.783133 258.528599 
L 492.722892 256.268959 
L 499.662651 253.548948 
L 506.60241 250.377004 
L 513.542169 246.765276 
L 520.481928 242.729662 
L 527.421687 238.290017 
L 534.361446 233.470381 
L 541.301205 228.29931 
L 548.240964 222.810249 
L 555.180723 217.041821 
L 562.120482 211.038204 
L 572.53012 201.702343 
L 603.759036 173.23498 
L 610.698795 167.256027 
L 617.638554 161.559351 
L 624.578313 156.214643 
L 631.518072 151.287112 
L 638.457831 146.835749 
L 641.927711 144.804933 
L 645.39759 142.911596 
L 648.86747 141.160639 
L 652.337349 139.556307 
L 655.807229 138.102181 
L 659.277108 136.801115 
L 662.746988 135.655262 
L 666.216867 134.666093 
L 669.686747 133.83432 
L 673.156627 133.159982 
L 676.626506 132.642422 
L 680.096386 132.280319 
L 683.566265 132.071728 
L 687.036145 132.014095 
L 690.506024 132.104333 
L 693.975904 132.338813 
L 697.445783 132.713437 
L 700.915663 133.223734 
L 704.385542 133.864823 
L 707.855422 134.631549 
L 714.795181 136.520056 
L 721.73494 138.843903 
L 728.674699 141.556365 
L 735.614458 144.61093 
L 742.554217 147.962667 
L 749.493976 151.569438 
L 756.433735 155.392642 
L 766.843373 161.459283 
L 777.253012 167.839211 
L 787.662651 174.456689 
L 801.542169 183.553292 
L 818.891566 195.231223 
L 846.650602 214.28217 
L 864 226.157484 
L 864 226.157484 
" style="fill:none;stroke:#d62728;stroke-linecap:square;stroke-width:1.5;"/>
   </g>
   <g id="line2d_6">
    <path clip-path="url(#p466604b675)" d="M 0 169.291713 
L 6.939759 167.648856 
L 13.879518 166.390822 
L 20.819277 165.505843 
L 27.759036 164.964675 
L 34.698795 164.721117 
L 41.638554 164.713566 
L 52.048193 164.978419 
L 65.927711 165.386034 
L 72.86747 165.405313 
L 79.807229 165.182905 
L 86.746988 164.640132 
L 93.686747 163.711823 
L 97.156627 163.087273 
L 100.626506 162.349751 
L 104.096386 161.496378 
L 107.566265 160.52563 
L 114.506024 158.232998 
L 121.445783 155.488069 
L 128.385542 152.32955 
L 135.325301 148.817332 
L 142.26506 145.030123 
L 152.674699 139.043312 
L 166.554217 131.063998 
L 173.493976 127.33384 
L 180.433735 123.92557 
L 187.373494 120.940822 
L 190.843373 119.635638 
L 194.313253 118.468495 
L 197.783133 117.448023 
L 201.253012 116.581675 
L 204.722892 115.875742 
L 208.192771 115.335262 
L 211.662651 114.964036 
L 215.13253 114.764577 
L 218.60241 114.73815 
L 222.072289 114.884768 
L 225.542169 115.203219 
L 229.012048 115.691132 
L 232.481928 116.344989 
L 235.951807 117.16022 
L 239.421687 118.131271 
L 242.891566 119.251659 
L 246.361446 120.514068 
L 249.831325 121.910447 
L 256.771084 125.069777 
L 263.710843 128.654028 
L 270.650602 132.581937 
L 277.590361 136.769686 
L 288 143.35686 
L 308.819277 156.693214 
L 319.228916 163.019813 
L 326.168675 167.005872 
L 333.108434 170.772918 
L 340.048193 174.303681 
L 346.987952 177.590618 
L 353.927711 180.634795 
L 360.86747 183.444725 
L 367.807229 186.034891 
L 374.746988 188.424147 
L 381.686747 190.634091 
L 392.096386 193.662053 
L 402.506024 196.40918 
L 412.915663 198.933062 
L 423.325301 201.267655 
L 433.73494 203.41686 
L 444.144578 205.351644 
L 454.554217 207.010874 
L 461.493976 207.921128 
L 468.433735 208.638615 
L 475.373494 209.129553 
L 482.313253 209.359412 
L 489.253012 209.294696 
L 496.192771 208.90475 
L 503.13253 208.1636 
L 510.072289 207.051657 
L 517.012048 205.557222 
L 523.951807 203.677714 
L 530.891566 201.420625 
L 537.831325 198.803953 
L 544.771084 195.856242 
L 551.710843 192.616295 
L 558.650602 189.132201 
L 569.060241 183.573121 
L 596.819277 168.374881 
L 603.759036 164.863256 
L 610.698795 161.595991 
L 617.638554 158.627864 
L 624.578313 156.005435 
L 631.518072 153.766011 
L 638.457831 151.936937 
L 645.39759 150.535315 
L 652.337349 149.568075 
L 659.277108 149.032457 
L 666.216867 148.916761 
L 673.156627 149.201337 
L 680.096386 149.859767 
L 687.036145 150.860116 
L 693.975904 152.166284 
L 700.915663 153.739181 
L 707.855422 155.537985 
L 714.795181 157.521137 
L 725.204819 160.751186 
L 742.554217 166.485227 
L 759.903614 172.164747 
L 770.313253 175.335114 
L 780.722892 178.208843 
L 787.662651 179.916384 
L 794.60241 181.428955 
L 801.542169 182.723866 
L 808.481928 183.779804 
L 815.421687 184.577026 
L 822.361446 185.097538 
L 829.301205 185.325485 
L 836.240964 185.247532 
L 843.180723 184.853431 
L 850.120482 184.136593 
L 857.060241 183.094679 
L 864 181.73034 
L 864 181.73034 
" style="fill:none;stroke:#17becf;stroke-linecap:square;stroke-width:1.5;"/>
   </g>
   <g id="line2d_7">
    <path clip-path="url(#p466604b675)" d="M 0 163.319683 
L 27.759036 145.251787 
L 38.168675 138.861251 
L 45.108434 134.855075 
L 52.048193 131.105031 
L 58.987952 127.649386 
L 65.927711 124.518458 
L 72.86747 121.733545 
L 79.807229 119.306169 
L 86.746988 117.237943 
L 93.686747 115.520825 
L 100.626506 114.138023 
L 107.566265 113.065058 
L 114.506024 112.271429 
L 121.445783 111.72244 
L 128.385542 111.38116 
L 138.795181 111.177774 
L 149.204819 111.242124 
L 163.084337 111.584311 
L 180.433735 112.249307 
L 194.313253 112.95967 
L 204.722892 113.661148 
L 215.13253 114.590483 
L 222.072289 115.382097 
L 229.012048 116.345575 
L 235.951807 117.5105 
L 242.891566 118.90527 
L 249.831325 120.556225 
L 256.771084 122.486552 
L 263.710843 124.715564 
L 270.650602 127.257873 
L 277.590361 130.12274 
L 284.53012 133.313527 
L 291.46988 136.827074 
L 298.409639 140.653238 
L 305.349398 144.774496 
L 312.289157 149.165574 
L 319.228916 153.793278 
L 329.638554 161.086428 
L 343.518072 171.191877 
L 357.39759 181.273359 
L 364.337349 186.13042 
L 371.277108 190.768346 
L 378.216867 195.116316 
L 385.156627 199.107902 
L 392.096386 202.683616 
L 399.036145 205.793543 
L 402.506024 207.161387 
L 405.975904 208.399563 
L 409.445783 209.505434 
L 412.915663 210.477392 
L 416.385542 211.31479 
L 419.855422 212.017999 
L 423.325301 212.588394 
L 426.795181 213.028413 
L 430.26506 213.341424 
L 433.73494 213.531866 
L 440.674699 213.56711 
L 447.614458 213.186947 
L 454.554217 212.456032 
L 461.493976 211.447973 
L 471.903614 209.589957 
L 496.192771 204.996863 
L 503.13253 203.909728 
L 510.072289 203.00057 
L 517.012048 202.284596 
L 523.951807 201.758376 
L 534.361446 201.271875 
L 565.590361 200.272919 
L 572.53012 199.673306 
L 579.46988 198.768571 
L 586.409639 197.492756 
L 593.349398 195.793252 
L 596.819277 194.772724 
L 600.289157 193.634331 
L 603.759036 192.376655 
L 610.698795 189.504466 
L 617.638554 186.171771 
L 624.578313 182.41584 
L 631.518072 178.294653 
L 638.457831 173.884942 
L 648.86747 166.935717 
L 662.746988 157.618944 
L 669.686747 153.201335 
L 676.626506 149.099729 
L 683.566265 145.423947 
L 687.036145 143.777503 
L 690.506024 142.274144 
L 693.975904 140.924423 
L 697.445783 139.737949 
L 700.915663 138.723372 
L 704.385542 137.888329 
L 707.855422 137.239438 
L 711.325301 136.782262 
L 714.795181 136.521366 
L 718.26506 136.460243 
L 721.73494 136.601386 
L 725.204819 136.946358 
L 728.674699 137.495718 
L 732.144578 138.249188 
L 735.614458 139.205594 
L 739.084337 140.363035 
L 742.554217 141.71882 
L 746.024096 143.269614 
L 749.493976 145.011426 
L 752.963855 146.939774 
L 756.433735 149.049597 
L 759.903614 151.335431 
L 763.373494 153.791356 
L 766.843373 156.411151 
L 770.313253 159.188212 
L 777.253012 165.186384 
L 784.192771 171.727806 
L 791.13253 178.750736 
L 798.072289 186.189908 
L 805.012048 193.97668 
L 815.421687 206.149292 
L 829.301205 222.887871 
L 843.180723 239.585689 
L 850.120482 247.692948 
L 857.060241 255.513752 
L 864 262.953568 
L 864 262.953568 
" style="fill:none;stroke:#8c564b;stroke-linecap:square;stroke-width:1.5;"/>
   </g>
   <g id="line2d_8">
    <path clip-path="url(#p466604b675)" d="M 0 110.300963 
L 3.46988 108.957576 
L 6.939759 107.745646 
L 13.879518 105.679169 
L 20.819277 104.027229 
L 27.759036 102.717559 
L 34.698795 101.683515 
L 41.638554 100.867173 
L 52.048193 99.951172 
L 62.457831 99.315266 
L 72.86747 98.915786 
L 83.277108 98.764626 
L 93.686747 98.914661 
L 100.626506 99.218657 
L 107.566265 99.713004 
L 114.506024 100.418887 
L 121.445783 101.353021 
L 128.385542 102.526128 
L 135.325301 103.941668 
L 142.26506 105.595384 
L 149.204819 107.475315 
L 156.144578 109.562297 
L 163.084337 111.831096 
L 173.493976 115.508523 
L 187.373494 120.745024 
L 215.13253 131.358881 
L 225.542169 135.103081 
L 235.951807 138.618622 
L 246.361446 141.868277 
L 256.771084 144.829456 
L 267.180723 147.489877 
L 277.590361 149.843974 
L 288 151.890999 
L 298.409639 153.635081 
L 308.819277 155.087089 
L 319.228916 156.26744 
L 329.638554 157.208968 
L 343.518072 158.175727 
L 388.626506 160.888446 
L 399.036145 161.830347 
L 409.445783 162.989838 
L 419.855422 164.375501 
L 430.26506 165.973194 
L 444.144578 168.375672 
L 461.493976 171.670657 
L 489.253012 177.236894 
L 510.072289 181.596305 
L 523.951807 184.689768 
L 537.831325 187.998078 
L 555.180723 192.401333 
L 572.53012 196.819735 
L 582.939759 199.235741 
L 589.879518 200.641664 
L 596.819277 201.815219 
L 603.759036 202.69556 
L 610.698795 203.222765 
L 617.638554 203.340706 
L 621.108434 203.230375 
L 624.578313 202.999772 
L 628.048193 202.644137 
L 631.518072 202.159416 
L 634.987952 201.542336 
L 638.457831 200.790438 
L 641.927711 199.902156 
L 645.39759 198.876817 
L 648.86747 197.714682 
L 652.337349 196.416967 
L 655.807229 194.985868 
L 659.277108 193.424474 
L 666.216867 189.928058 
L 673.156627 185.971104 
L 680.096386 181.610413 
L 687.036145 176.914561 
L 693.975904 171.96178 
L 704.385542 164.239069 
L 718.26506 153.870936 
L 725.204819 148.860542 
L 732.144578 144.08068 
L 739.084337 139.609337 
L 746.024096 135.515656 
L 752.963855 131.858349 
L 756.433735 130.208505 
L 759.903614 128.684397 
L 763.373494 127.289931 
L 766.843373 126.028166 
L 770.313253 124.901315 
L 773.783133 123.91077 
L 777.253012 123.05705 
L 780.722892 122.339851 
L 784.192771 121.758035 
L 787.662651 121.309631 
L 791.13253 120.991849 
L 794.60241 120.801133 
L 798.072289 120.733154 
L 801.542169 120.782815 
L 808.481928 121.211357 
L 815.421687 122.032664 
L 822.361446 123.18316 
L 829.301205 124.591259 
L 839.710843 127.014677 
L 857.060241 131.186426 
L 864 132.655436 
L 864 132.655436 
" style="fill:none;stroke:#ff7f0e;stroke-linecap:square;stroke-width:1.5;"/>
   </g>
   <g id="line2d_9">
    <path clip-path="url(#p466604b675)" d="M 0 177.599805 
L 6.939759 183.003528 
L 13.879518 188.153837 
L 20.819277 192.967601 
L 27.759036 197.36706 
L 31.228916 199.388784 
L 34.698795 201.280564 
L 38.168675 203.034473 
L 41.638554 204.643043 
L 45.108434 206.099232 
L 48.578313 207.396511 
L 52.048193 208.528818 
L 55.518072 209.490635 
L 58.987952 210.276956 
L 62.457831 210.883333 
L 65.927711 211.30588 
L 69.39759 211.541316 
L 72.86747 211.586891 
L 76.337349 211.440616 
L 79.807229 211.100987 
L 83.277108 210.567312 
L 86.746988 209.839423 
L 90.216867 208.917928 
L 93.686747 207.804135 
L 97.156627 206.499946 
L 100.626506 205.008071 
L 104.096386 203.331886 
L 107.566265 201.475521 
L 111.036145 199.443642 
L 114.506024 197.241818 
L 117.975904 194.876143 
L 121.445783 192.353419 
L 124.915663 189.681065 
L 131.855422 183.920184 
L 138.795181 177.664453 
L 145.73494 170.992834 
L 152.674699 163.990882 
L 163.084337 153.067651 
L 187.373494 127.269294 
L 194.313253 120.233887 
L 201.253012 113.503735 
L 208.192771 107.153077 
L 215.13253 101.247402 
L 222.072289 95.842601 
L 225.542169 93.342718 
L 229.012048 90.984361 
L 232.481928 88.771635 
L 235.951807 86.707973 
L 239.421687 84.796188 
L 242.891566 83.038495 
L 246.361446 81.436491 
L 249.831325 79.99125 
L 253.301205 78.703294 
L 256.771084 77.572676 
L 260.240964 76.598983 
L 263.710843 75.781393 
L 267.180723 75.118731 
L 270.650602 74.609501 
L 274.120482 74.251926 
L 277.590361 74.044003 
L 281.060241 73.983548 
L 284.53012 74.068261 
L 288 74.295694 
L 291.46988 74.663387 
L 294.939759 75.168816 
L 298.409639 75.809513 
L 301.879518 76.582986 
L 305.349398 77.486836 
L 308.819277 78.51871 
L 312.289157 79.676356 
L 315.759036 80.95759 
L 322.698795 83.882501 
L 329.638554 87.277443 
L 336.578313 91.127038 
L 343.518072 95.415678 
L 350.457831 100.126364 
L 357.39759 105.239412 
L 364.337349 110.731051 
L 371.277108 116.572003 
L 378.216867 122.72625 
L 385.156627 129.150101 
L 395.566265 139.17517 
L 426.795181 169.880356 
L 433.73494 176.313078 
L 440.674699 182.417611 
L 447.614458 188.111836 
L 454.554217 193.320419 
L 458.024096 195.7216 
L 461.493976 197.977552 
L 464.963855 200.08194 
L 468.433735 202.029284 
L 471.903614 203.815035 
L 475.373494 205.435624 
L 478.843373 206.888442 
L 482.313253 208.171926 
L 485.783133 209.285514 
L 489.253012 210.229669 
L 492.722892 211.005883 
L 496.192771 211.616594 
L 499.662651 212.065224 
L 503.13253 212.356084 
L 506.60241 212.494326 
L 510.072289 212.485891 
L 513.542169 212.337449 
L 517.012048 212.056285 
L 520.481928 211.650247 
L 527.421687 210.497153 
L 534.361446 208.948471 
L 541.301205 207.077345 
L 548.240964 204.956755 
L 558.650602 201.459283 
L 579.46988 194.038304 
L 593.349398 189.197033 
L 607.228916 184.574923 
L 638.457831 174.320604 
L 648.86747 170.554091 
L 655.807229 167.837143 
L 662.746988 164.918377 
L 669.686747 161.774267 
L 676.626506 158.391202 
L 683.566265 154.767627 
L 690.506024 150.915817 
L 697.445783 146.86335 
L 707.855422 140.508675 
L 725.204819 129.768536 
L 732.144578 125.692347 
L 739.084337 121.910212 
L 746.024096 118.546405 
L 749.493976 117.061377 
L 752.963855 115.729051 
L 756.433735 114.565291 
L 759.903614 113.58564 
L 763.373494 112.805137 
L 766.843373 112.238164 
L 770.313253 111.898284 
L 773.783133 111.798088 
L 777.253012 111.949019 
L 780.722892 112.361268 
L 784.192771 113.04361 
L 787.662651 114.003276 
L 791.13253 115.245851 
L 794.60241 116.77516 
L 798.072289 118.593194 
L 801.542169 120.700043 
L 805.012048 123.093835 
L 808.481928 125.770709 
L 811.951807 128.724829 
L 815.421687 131.948368 
L 818.891566 135.431529 
L 822.361446 139.162667 
L 825.831325 143.128288 
L 829.301205 147.313181 
L 832.771084 151.700507 
L 839.710843 161.007964 
L 846.650602 170.889287 
L 853.590361 181.167334 
L 864 196.918522 
L 864 196.918522 
" style="fill:none;stroke:#7f7f7f;stroke-linecap:square;stroke-width:1.5;"/>
   </g>
   <g id="line2d_10">
    <path clip-path="url(#p466604b675)" d="M 0 205.605264 
L 3.46988 204.134111 
L 6.939759 202.507994 
L 10.409639 200.729573 
L 13.879518 198.802423 
L 17.349398 196.731167 
L 20.819277 194.52143 
L 27.759036 189.713858 
L 34.698795 184.444285 
L 41.638554 178.792429 
L 48.578313 172.851999 
L 62.457831 160.539909 
L 72.86747 151.405164 
L 79.807229 145.603873 
L 86.746988 140.186066 
L 90.216867 137.661149 
L 93.686747 135.279682 
L 97.156627 133.056616 
L 100.626506 131.006379 
L 104.096386 129.142629 
L 107.566265 127.478293 
L 111.036145 126.025367 
L 114.506024 124.794898 
L 117.975904 123.796831 
L 121.445783 123.040035 
L 124.915663 122.532103 
L 128.385542 122.279372 
L 131.855422 122.286833 
L 135.325301 122.558069 
L 138.795181 123.095217 
L 142.26506 123.898955 
L 145.73494 124.968413 
L 149.204819 126.301217 
L 152.674699 127.893417 
L 156.144578 129.739551 
L 159.614458 131.832595 
L 163.084337 134.164 
L 166.554217 136.723745 
L 170.024096 139.500347 
L 173.493976 142.48092 
L 176.963855 145.651209 
L 180.433735 148.995735 
L 187.373494 156.139572 
L 194.313253 163.766265 
L 204.722892 175.758063 
L 218.60241 191.867574 
L 225.542169 199.576565 
L 232.481928 206.826739 
L 235.951807 210.229725 
L 239.421687 213.459821 
L 242.891566 216.499734 
L 246.361446 219.333516 
L 249.831325 221.946548 
L 253.301205 224.325766 
L 256.771084 226.459626 
L 260.240964 228.338311 
L 263.710843 229.953712 
L 267.180723 231.299496 
L 270.650602 232.371182 
L 274.120482 233.166085 
L 277.590361 233.683409 
L 281.060241 233.924139 
L 284.53012 233.891079 
L 288 233.588772 
L 291.46988 233.023445 
L 294.939759 232.202941 
L 298.409639 231.136596 
L 301.879518 229.835184 
L 305.349398 228.310797 
L 308.819277 226.57665 
L 312.289157 224.647064 
L 315.759036 222.537253 
L 319.228916 220.263208 
L 326.168675 215.289447 
L 333.108434 209.863856 
L 340.048193 204.12797 
L 364.337349 183.591087 
L 371.277108 178.107672 
L 378.216867 172.991226 
L 385.156627 168.327042 
L 388.626506 166.187305 
L 392.096386 164.186115 
L 395.566265 162.330111 
L 399.036145 160.625054 
L 402.506024 159.075838 
L 405.975904 157.686548 
L 409.445783 156.460413 
L 412.915663 155.399878 
L 416.385542 154.506625 
L 419.855422 153.78155 
L 423.325301 153.22482 
L 426.795181 152.835926 
L 430.26506 152.613577 
L 433.73494 152.555815 
L 437.204819 152.660029 
L 440.674699 152.922885 
L 444.144578 153.34042 
L 447.614458 153.908003 
L 451.084337 154.620361 
L 454.554217 155.471547 
L 458.024096 156.455041 
L 461.493976 157.563618 
L 468.433735 160.124285 
L 475.373494 163.084127 
L 482.313253 166.36485 
L 489.253012 169.880238 
L 517.012048 184.374147 
L 523.951807 187.608498 
L 530.891566 190.495126 
L 537.831325 192.949269 
L 541.301205 193.990613 
L 544.771084 194.897212 
L 548.240964 195.661979 
L 551.710843 196.278873 
L 555.180723 196.742835 
L 558.650602 197.04998 
L 562.120482 197.197529 
L 565.590361 197.183909 
L 569.060241 197.008706 
L 572.53012 196.67276 
L 576 196.178108 
L 579.46988 195.527976 
L 582.939759 194.726776 
L 586.409639 193.780089 
L 589.879518 192.694571 
L 593.349398 191.47794 
L 600.289157 188.687206 
L 607.228916 185.488239 
L 614.168675 181.973599 
L 624.578313 176.334042 
L 638.457831 168.700548 
L 645.39759 165.081101 
L 652.337349 161.732023 
L 659.277108 158.747867 
L 662.746988 157.419316 
L 666.216867 156.212484 
L 669.686747 155.13588 
L 673.156627 154.197085 
L 676.626506 153.402768 
L 680.096386 152.758645 
L 683.566265 152.269449 
L 687.036145 151.938943 
L 690.506024 151.769881 
L 693.975904 151.764043 
L 697.445783 151.922223 
L 700.915663 152.244265 
L 704.385542 152.729074 
L 707.855422 153.374647 
L 711.325301 154.178124 
L 714.795181 155.135789 
L 718.26506 156.243176 
L 721.73494 157.495061 
L 725.204819 158.885547 
L 728.674699 160.408102 
L 735.614458 163.820592 
L 742.554217 167.670094 
L 749.493976 171.888056 
L 756.433735 176.40187 
L 766.843373 183.563707 
L 798.072289 205.591116 
L 805.012048 210.183618 
L 811.951807 214.552009 
L 818.891566 218.65662 
L 825.831325 222.46497 
L 832.771084 225.951551 
L 839.710843 229.097387 
L 846.650602 231.889496 
L 853.590361 234.320291 
L 860.53012 236.386945 
L 864 237.283997 
L 864 237.283997 
" style="fill:none;stroke:#2ca02c;stroke-linecap:square;stroke-width:1.5;"/>
   </g>
   <g id="line2d_11">
    <defs>
     <path d="M 0 12.5 
C 3.315039 12.5 6.494748 11.182921 8.838835 8.838835 
C 11.182921 6.494748 12.5 3.315039 12.5 0 
C 12.5 -3.315039 11.182921 -6.494748 8.838835 -8.838835 
C 6.494748 -11.182921 3.315039 -12.5 0 -12.5 
C -3.315039 -12.5 -6.494748 -11.182921 -8.838835 -8.838835 
C -11.182921 -6.494748 -12.5 -3.315039 -12.5 0 
C -12.5 3.315039 -11.182921 6.494748 -8.838835 8.838835 
C -6.494748 11.182921 -3.315039 12.5 0 12.5 
z
" id="me0088f7f5b" style="stroke:#000000;"/>
    </defs>
    <g clip-path="url(#p466604b675)">
     <use style="stroke:#000000;" x="173.493976" xlink:href="#me0088f7f5b" y="119.892454"/>
     <use style="stroke:#000000;" x="576" xlink:href="#me0088f7f5b" y="196.586777"/>
     <use style="stroke:#000000;" x="693.975904" xlink:href="#me0088f7f5b" y="147.66222"/>
    </g>
   </g>
   <g id="line2d_12">
    <path clip-path="url(#p466604b675)" d="M 0 189.545639 
L 6.939759 186.72949 
L 17.349398 182.196044 
L 27.759036 177.321464 
L 38.168675 172.153214 
L 48.578313 166.754031 
L 65.927711 157.459133 
L 83.277108 148.182906 
L 93.686747 142.837788 
L 104.096386 137.801418 
L 111.036145 134.673631 
L 117.975904 131.769386 
L 124.915663 129.12108 
L 131.855422 126.758989 
L 138.795181 124.710707 
L 145.73494 123.00061 
L 152.674699 121.649386 
L 159.614458 120.673622 
L 166.554217 120.085479 
L 173.493976 119.892454 
L 180.433735 120.097227 
L 187.373494 120.697626 
L 194.313253 121.686677 
L 201.253012 123.052764 
L 208.192771 124.779877 
L 215.13253 126.847953 
L 222.072289 129.233295 
L 229.012048 131.909054 
L 235.951807 134.845769 
L 242.891566 138.011941 
L 249.831325 141.374636 
L 260.240964 146.713211 
L 270.650602 152.303578 
L 315.759036 176.88993 
L 326.168675 182.165802 
L 336.578313 187.162976 
L 346.987952 191.845367 
L 357.39759 196.189167 
L 367.807229 200.180946 
L 374.746988 202.64365 
L 381.686747 204.947257 
L 388.626506 207.092362 
L 395.566265 209.079947 
L 402.506024 210.911052 
L 409.445783 212.58647 
L 416.385542 214.106476 
L 423.325301 215.470599 
L 430.26506 216.677445 
L 437.204819 217.724565 
L 444.144578 218.608392 
L 451.084337 219.324229 
L 458.024096 219.86631 
L 464.963855 220.22791 
L 471.903614 220.401523 
L 478.843373 220.379097 
L 485.783133 220.152311 
L 492.722892 219.712905 
L 499.662651 219.053039 
L 506.60241 218.165685 
L 513.542169 217.045025 
L 520.481928 215.68686 
L 527.421687 214.089008 
L 534.361446 212.251678 
L 541.301205 210.177814 
L 548.240964 207.873386 
L 555.180723 205.347633 
L 562.120482 202.613227 
L 569.060241 199.686365 
L 579.46988 194.979324 
L 589.879518 189.965424 
L 603.759036 182.972274 
L 628.048193 170.652662 
L 638.457831 165.664326 
L 645.39759 162.529298 
L 652.337349 159.588255 
L 659.277108 156.874531 
L 666.216867 154.418738 
L 673.156627 152.248204 
L 680.096386 150.386472 
L 687.036145 148.852878 
L 693.975904 147.66222 
L 700.915663 146.82453 
L 707.855422 146.344937 
L 714.795181 146.223652 
L 721.73494 146.456045 
L 728.674699 147.032828 
L 735.614458 147.940332 
L 742.554217 149.160869 
L 749.493976 150.673165 
L 756.433735 152.452859 
L 763.373494 154.473035 
L 770.313253 156.704804 
L 777.253012 159.117878 
L 787.662651 163.009344 
L 801.542169 168.541853 
L 836.240964 182.665686 
L 846.650602 186.650126 
L 857.060241 190.408704 
L 864 192.768493 
L 864 192.768493 
" style="fill:none;stroke:#3300ff;stroke-linecap:square;stroke-width:2;"/>
   </g>
   <g id="line2d_13">
    <path clip-path="url(#p466604b675)" d="M 0 85.715469 
L 24.289157 79.310186 
L 34.698795 76.809836 
L 41.638554 75.313986 
L 48.578313 74.001374 
L 55.518072 72.913319 
L 62.457831 72.091758 
L 69.39759 71.578496 
L 76.337349 71.414396 
L 83.277108 71.638557 
L 90.216867 72.287476 
L 93.686747 72.781711 
L 97.156627 73.394229 
L 100.626506 74.128501 
L 104.096386 74.98769 
L 107.566265 75.974631 
L 111.036145 77.09181 
L 114.506024 78.341344 
L 117.975904 79.72497 
L 121.445783 81.244029 
L 124.915663 82.899448 
L 128.385542 84.691739 
L 131.855422 86.620984 
L 135.325301 88.68683 
L 138.795181 90.888488 
L 145.73494 95.693891 
L 152.674699 101.022128 
L 159.614458 106.851294 
L 166.554217 113.152928 
L 173.493976 119.892452 
L 180.433735 113.164706 
L 187.373494 106.875425 
L 194.313253 101.059721 
L 201.253012 95.746621 
L 208.192771 90.958648 
L 211.662651 88.766771 
L 215.13253 86.711538 
L 218.60241 84.793837 
L 222.072289 83.01412 
L 225.542169 81.372415 
L 229.012048 79.868328 
L 232.481928 78.501053 
L 235.951807 77.269383 
L 239.421687 76.171722 
L 242.891566 75.206102 
L 246.361446 74.370199 
L 249.831325 73.661351 
L 253.301205 73.076578 
L 256.771084 72.612606 
L 260.240964 72.265889 
L 267.180723 71.908817 
L 274.120482 71.972486 
L 281.060241 72.421311 
L 288 73.217866 
L 294.939759 74.32378 
L 301.879518 75.700613 
L 308.819277 77.310707 
L 315.759036 79.117987 
L 326.168675 82.12559 
L 336.578313 85.400829 
L 350.457831 90.045847 
L 367.807229 96.124278 
L 385.156627 102.418445 
L 399.036145 107.643853 
L 412.915663 113.127851 
L 423.325301 117.476994 
L 433.73494 122.08163 
L 444.144578 126.98256 
L 454.554217 132.207275 
L 464.963855 137.764098 
L 475.373494 143.637305 
L 485.783133 149.783568 
L 499.662651 158.273133 
L 520.481928 171.09013 
L 530.891566 177.21596 
L 537.831325 181.078686 
L 544.771084 184.701015 
L 551.710843 188.027959 
L 558.650602 191.005363 
L 565.590361 193.581185 
L 569.060241 194.703134 
L 572.53012 195.70678 
L 576 196.586776 
L 582.939759 188.718979 
L 589.879518 181.153968 
L 596.819277 173.978147 
L 603.759036 167.274995 
L 610.698795 161.123527 
L 614.168675 158.277778 
L 617.638554 155.596806 
L 621.108434 153.088586 
L 624.578313 150.760556 
L 628.048193 148.619579 
L 631.518072 146.671911 
L 634.987952 144.923174 
L 638.457831 143.378325 
L 641.927711 142.041638 
L 645.39759 140.916683 
L 648.86747 140.00631 
L 652.337349 139.312636 
L 655.807229 138.837042 
L 659.277108 138.580164 
L 662.746988 138.541899 
L 666.216867 138.721402 
L 669.686747 139.117101 
L 673.156627 139.726703 
L 676.626506 140.547216 
L 680.096386 141.574963 
L 683.566265 142.805607 
L 687.036145 144.234178 
L 690.506024 145.855098 
L 693.975904 147.662219 
L 711.325301 133.239241 
L 718.26506 127.686203 
L 725.204819 122.348566 
L 732.144578 117.27987 
L 739.084337 112.526905 
L 746.024096 108.129075 
L 752.963855 104.117946 
L 759.903614 100.517012 
L 766.843373 97.341653 
L 773.783133 94.599287 
L 780.722892 92.2897 
L 787.662651 90.405537 
L 794.60241 88.932931 
L 801.542169 87.852249 
L 808.481928 87.13892 
L 815.421687 86.764327 
L 822.361446 86.69673 
L 829.301205 86.902196 
L 836.240964 87.345503 
L 843.180723 87.991009 
L 853.590361 89.261525 
L 864 90.794143 
L 864 90.794143 
" style="fill:none;stroke:#3300ff;stroke-linecap:square;stroke-width:0.2;"/>
   </g>
   <g id="line2d_14">
    <path clip-path="url(#p466604b675)" d="M 0 293.375808 
L 6.939759 289.601425 
L 13.879518 285.487054 
L 20.819277 281.020952 
L 27.759036 276.194008 
L 34.698795 271.000232 
L 41.638554 265.437238 
L 48.578313 259.506688 
L 55.518072 253.214699 
L 62.457831 246.572182 
L 69.39759 239.595102 
L 76.337349 232.30464 
L 83.277108 224.727255 
L 90.216867 216.89462 
L 100.626506 204.74867 
L 111.036145 192.255451 
L 142.26506 154.399271 
L 152.674699 142.276643 
L 159.614458 134.495949 
L 166.554217 127.018031 
L 173.493976 119.892455 
L 180.433735 127.029748 
L 187.373494 134.519827 
L 194.313253 142.313634 
L 204.722892 154.458863 
L 215.13253 166.984368 
L 249.831325 209.087922 
L 260.240964 221.160532 
L 267.180723 228.929427 
L 274.120482 236.434689 
L 281.060241 243.647581 
L 288 250.544371 
L 294.939759 257.106235 
L 301.879518 263.319022 
L 308.819277 269.172896 
L 315.759036 274.661873 
L 322.698795 279.783261 
L 329.638554 284.537029 
L 336.578313 288.925124 
L 343.518072 292.95076 
L 350.457831 296.617708 
L 357.39759 299.929603 
L 364.337349 302.889303 
L 371.277108 305.498308 
L 378.216867 307.756285 
L 385.156627 309.660687 
L 392.096386 311.206504 
L 399.036145 312.386149 
L 405.975904 313.18948 
L 412.915663 313.603967 
L 419.855422 313.615005 
L 426.795181 313.206354 
L 433.73494 312.360705 
L 437.204819 311.76847 
L 440.674699 311.060359 
L 444.144578 310.234224 
L 447.614458 309.287993 
L 451.084337 308.219699 
L 454.554217 307.027503 
L 458.024096 305.709731 
L 461.493976 304.264893 
L 464.963855 302.691721 
L 468.433735 300.989191 
L 471.903614 299.156553 
L 475.373494 297.19336 
L 478.843373 295.099493 
L 485.783133 290.521054 
L 492.722892 285.427781 
L 499.662651 279.832945 
L 506.60241 273.757115 
L 513.542169 267.228576 
L 520.481928 260.283589 
L 527.421687 252.966461 
L 534.361446 245.329419 
L 544.771084 233.406828 
L 558.650602 217.005803 
L 572.53012 200.606806 
L 576 196.586778 
L 579.46988 197.338147 
L 582.939759 197.956309 
L 586.409639 198.437114 
L 589.879518 198.776879 
L 593.349398 198.97241 
L 596.819277 199.021031 
L 600.289157 198.920605 
L 603.759036 198.669554 
L 607.228916 198.266877 
L 610.698795 197.712163 
L 614.168675 197.005597 
L 617.638554 196.147972 
L 621.108434 195.140684 
L 624.578313 193.98574 
L 628.048193 192.685746 
L 631.518072 191.243899 
L 634.987952 189.663978 
L 638.457831 187.950328 
L 645.39759 184.141913 
L 652.337349 179.863875 
L 659.277108 175.168897 
L 666.216867 170.116074 
L 673.156627 164.769705 
L 683.566265 156.349639 
L 693.975904 147.662222 
L 697.445783 149.648857 
L 700.915663 151.807822 
L 704.385542 154.131464 
L 707.855422 156.611714 
L 714.795181 162.007919 
L 721.73494 167.925126 
L 728.674699 174.288146 
L 735.614458 181.019384 
L 742.554217 188.040299 
L 752.963855 198.944487 
L 784.192771 232.06717 
L 791.13253 239.107787 
L 798.072289 245.921717 
L 805.012048 252.470746 
L 811.951807 258.72369 
L 818.891566 264.656277 
L 825.831325 270.250888 
L 832.771084 275.496174 
L 839.710843 280.386568 
L 846.650602 284.921722 
L 853.590361 289.105883 
L 860.53012 292.947241 
L 864 294.742843 
L 864 294.742843 
" style="fill:none;stroke:#3300ff;stroke-linecap:square;stroke-width:0.2;"/>
   </g>
  </g>
 </g>
 <defs>
  <clipPath id="p466604b675">
   <rect height="432" width="864" x="0" y="0"/>
  </clipPath>
 </defs>
</svg>
