<?xml version="1.0" encoding="utf-8" standalone="no"?>
<!DOCTYPE svg PUBLIC "-//W3C//DTD SVG 1.1//EN"
  "http://www.w3.org/Graphics/SVG/1.1/DTD/svg11.dtd">
<!-- Created with matplotlib (http://matplotlib.org/) -->
<svg height="432pt" version="1.1" viewBox="0 0 864 432" width="864pt" xmlns="http://www.w3.org/2000/svg" xmlns:xlink="http://www.w3.org/1999/xlink">
 <defs>
  <style type="text/css">
*{stroke-linecap:butt;stroke-linejoin:round;}
  </style>
 </defs>
 <g id="figure_1">
  <g id="patch_1">
   <path d="M 0 432 
L 864 432 
L 864 0 
L 0 0 
z
" style="fill:none;"/>
  </g>
  <g id="axes_1">
   <g id="patch_2">
    <path d="M 108 378 
L 777.6 378 
L 777.6 51.84 
L 108 51.84 
z
" style="fill:none;"/>
   </g>
   <g id="patch_3">
    <path clip-path="url(#pfc1b4249cd)" d="M 98.496 179.734943 
L 102.021467 178.623606 
L 105.546935 177.517437 
L 109.072402 176.421649 
L 112.597869 175.341654 
L 116.123337 174.283031 
L 119.648804 173.251487 
L 123.174271 172.252817 
L 126.699739 171.292858 
L 130.225206 170.377444 
L 133.750673 169.512357 
L 137.276141 168.703274 
L 140.801608 167.955717 
L 144.327075 167.275004 
L 147.852543 166.666201 
L 151.37801 166.134077 
L 154.903477 165.68307 
L 158.428945 165.317258 
L 161.954412 165.040343 
L 165.479879 164.855647 
L 169.005347 164.766129 
L 172.530814 164.774412 
L 176.056281 164.882836 
L 179.581749 165.093518 
L 183.107216 165.408436 
L 186.632683 165.82951 
L 190.158151 166.358688 
L 193.683618 166.998021 
L 197.209085 167.749712 
L 200.734553 168.616134 
L 204.26002 169.599802 
L 207.785487 170.703303 
L 211.310955 171.92917 
L 214.836422 173.279718 
L 218.361889 174.756847 
L 221.887357 176.361827 
L 225.412824 178.09508 
L 228.938291 179.955981 
L 232.463759 181.942685 
L 235.989226 184.051991 
L 239.514693 186.27926 
L 243.040161 188.618369 
L 246.565628 191.061722 
L 250.091095 193.600302 
L 253.616563 196.223756 
L 257.14203 198.920522 
L 260.667497 201.677974 
L 264.192965 204.482588 
L 267.718432 207.320127 
L 271.243899 210.175825 
L 274.769367 213.034587 
L 278.294834 215.881182 
L 281.820302 218.700438 
L 285.345769 221.47743 
L 288.871236 224.197664 
L 292.396704 226.84725 
L 295.922171 229.413071 
L 299.447638 231.882939 
L 302.973106 234.245738 
L 306.498573 236.491557 
L 310.02404 238.611815 
L 313.549508 240.599358 
L 317.074975 242.448556 
L 320.600442 244.155369 
L 324.12591 245.717402 
L 327.651377 247.133936 
L 331.176844 248.405934 
L 334.702312 249.536025 
L 338.227779 250.528462 
L 341.753246 251.389052 
L 345.278714 252.125061 
L 348.804181 252.745096 
L 352.329648 253.258962 
L 355.855116 253.677494 
L 359.380583 254.012383 
L 362.90605 254.275981 
L 366.431518 254.481094 
L 369.956985 254.64078 
L 373.482452 254.768142 
L 377.00792 254.876126 
L 380.533387 254.977325 
L 384.058854 255.083801 
L 387.584322 255.206919 
L 391.109789 255.357196 
L 394.635256 255.54418 
L 398.160724 255.776338 
L 401.686191 256.060978 
L 405.211658 256.404187 
L 408.737126 256.810797 
L 412.262593 257.284376 
L 415.78806 257.827234 
L 419.313528 258.440455 
L 422.838995 259.123954 
L 426.364462 259.876538 
L 429.88993 260.695997 
L 433.415397 261.579193 
L 436.940864 262.522169 
L 440.466332 263.52026 
L 443.991799 264.568205 
L 447.517266 265.66026 
L 451.042734 266.79031 
L 454.568201 267.951974 
L 458.093668 269.138704 
L 461.619136 270.343872 
L 465.144603 271.560852 
L 468.67007 272.78309 
L 472.195538 274.004167 
L 475.721005 275.217846 
L 479.246472 276.418123 
L 482.77194 277.599264 
L 486.297407 278.755835 
L 489.822874 279.882737 
L 493.348342 280.975225 
L 496.873809 282.02894 
L 500.399276 283.039927 
L 503.924744 284.004656 
L 507.450211 284.920042 
L 510.975678 285.783465 
L 514.501146 286.592781 
L 518.026613 287.346339 
L 521.55208 288.042989 
L 525.077548 288.682083 
L 528.603015 289.263482 
L 532.128482 289.787546 
L 535.65395 290.255124 
L 539.179417 290.667538 
L 542.704884 291.026563 
L 546.230352 291.334395 
L 549.755819 291.593622 
L 553.281286 291.807182 
L 556.806754 291.978329 
L 560.332221 292.110582 
L 563.857688 292.207685 
L 567.383156 292.273558 
L 570.908623 292.31225 
L 574.43409 292.327894 
L 577.959558 292.324661 
L 581.485025 292.306716 
L 585.010492 292.278177 
L 588.53596 292.243075 
L 592.061427 292.205312 
L 595.586894 292.168625 
L 599.112362 292.136545 
L 602.637829 292.112358 
L 606.163296 292.099063 
L 609.688764 292.099333 
L 613.214231 292.115463 
L 616.739698 292.149324 
L 620.265166 292.202309 
L 623.790633 292.275283 
L 627.316101 292.368515 
L 630.841568 292.481627 
L 634.367035 292.613529 
L 637.892503 292.762364 
L 641.41797 292.925445 
L 644.943437 293.099215 
L 648.468905 293.279199 
L 651.994372 293.459983 
L 655.519839 293.635198 
L 659.045307 293.79754 
L 662.570774 293.938804 
L 666.096241 294.04996 
L 669.621709 294.121258 
L 673.147176 294.142375 
L 676.672643 294.102607 
L 680.198111 293.991093 
L 683.723578 293.797076 
L 687.249045 293.510188 
L 690.774513 293.120746 
L 694.29998 292.620046 
L 697.825447 292.000629 
L 701.350915 291.256512 
L 704.876382 290.383365 
L 708.401849 289.378626 
L 711.927317 288.241539 
L 715.452784 286.973141 
L 718.978251 285.576177 
L 722.503719 284.054975 
L 726.029186 282.415284 
L 729.554653 280.664087 
L 733.080121 278.809411 
L 736.605588 276.860123 
L 740.131055 274.825748 
L 743.656523 272.716285 
L 747.18199 270.542049 
L 750.707457 268.313516 
L 754.232925 266.041198 
L 757.758392 263.735519 
L 761.283859 261.406717 
L 764.809327 259.064753 
L 768.334794 256.719236 
L 771.860261 254.379351 
L 775.385729 252.053812 
L 778.911196 249.750809 
L 782.436663 247.477971 
L 785.962131 245.24234 
L 789.487598 243.050349 
L 793.013065 240.907802 
L 796.538533 238.819875 
L 800.064 236.791108 
L 800.064 395.23479 
L 796.538533 394.900608 
L 793.013065 394.509226 
L 789.487598 394.059634 
L 785.962131 393.551292 
L 782.436663 392.984166 
L 778.911196 392.358765 
L 775.385729 391.676173 
L 771.860261 390.938068 
L 768.334794 390.146753 
L 764.809327 389.305161 
L 761.283859 388.416864 
L 757.758392 387.48607 
L 754.232925 386.517611 
L 750.707457 385.516914 
L 747.18199 384.489963 
L 743.656523 383.443248 
L 740.131055 382.383688 
L 736.605588 381.318544 
L 733.080121 380.255306 
L 729.554653 379.201568 
L 726.029186 378.16487 
L 722.503719 377.152536 
L 718.978251 376.171492 
L 715.452784 375.22808 
L 711.927317 374.327876 
L 708.401849 373.475523 
L 704.876382 372.674592 
L 701.350915 371.927479 
L 697.825447 371.235361 
L 694.29998 370.598205 
L 690.774513 370.014838 
L 687.249045 369.483075 
L 683.723578 368.999894 
L 680.198111 368.561646 
L 676.672643 368.164275 
L 673.147176 367.803549 
L 669.621709 367.475268 
L 666.096241 367.175444 
L 662.570774 366.900452 
L 659.045307 366.647133 
L 655.519839 366.412862 
L 651.994372 366.195573 
L 648.468905 365.993751 
L 644.943437 365.806397 
L 641.41797 365.632966 
L 637.892503 365.47329 
L 634.367035 365.327486 
L 630.841568 365.195861 
L 627.316101 365.078814 
L 623.790633 364.976737 
L 620.265166 364.889928 
L 616.739698 364.818501 
L 613.214231 364.762319 
L 609.688764 364.720929 
L 606.163296 364.693513 
L 602.637829 364.678858 
L 599.112362 364.675331 
L 595.586894 364.68087 
L 592.061427 364.692995 
L 588.53596 364.708819 
L 585.010492 364.725083 
L 581.485025 364.738187 
L 577.959558 364.744239 
L 574.43409 364.739107 
L 570.908623 364.718474 
L 567.383156 364.677904 
L 563.857688 364.612898 
L 560.332221 364.518963 
L 556.806754 364.39168 
L 553.281286 364.226762 
L 549.755819 364.020125 
L 546.230352 363.767947 
L 542.704884 363.466732 
L 539.179417 363.113367 
L 535.65395 362.705179 
L 532.128482 362.239988 
L 528.603015 361.716157 
L 525.077548 361.132636 
L 521.55208 360.489 
L 518.026613 359.785488 
L 514.501146 359.023021 
L 510.975678 358.203223 
L 507.450211 357.328429 
L 503.924744 356.401684 
L 500.399276 355.426721 
L 496.873809 354.407942 
L 493.348342 353.350375 
L 489.822874 352.259618 
L 486.297407 351.141778 
L 482.77194 350.003386 
L 479.246472 348.851313 
L 475.721005 347.692664 
L 472.195538 346.534671 
L 468.67007 345.384579 
L 465.144603 344.249529 
L 461.619136 343.136439 
L 458.093668 342.051889 
L 454.568201 341.002012 
L 451.042734 339.992394 
L 447.517266 339.02798 
L 443.991799 338.113002 
L 440.466332 337.25091 
L 436.940864 336.444328 
L 433.415397 335.695018 
L 429.88993 335.003863 
L 426.364462 334.370859 
L 422.838995 333.795131 
L 419.313528 333.274947 
L 415.78806 332.807753 
L 412.262593 332.390209 
L 408.737126 332.018239 
L 405.211658 331.687084 
L 401.686191 331.391355 
L 398.160724 331.125096 
L 394.635256 330.881844 
L 391.109789 330.654692 
L 387.584322 330.436349 
L 384.058854 330.219204 
L 380.533387 329.995387 
L 377.00792 329.756822 
L 373.482452 329.495287 
L 369.956985 329.202471 
L 366.431518 328.87002 
L 362.90605 328.489598 
L 359.380583 328.052934 
L 355.855116 327.551875 
L 352.329648 326.978447 
L 348.804181 326.32491 
L 345.278714 325.583826 
L 341.753246 324.748126 
L 338.227779 323.811191 
L 334.702312 322.76693 
L 331.176844 321.609878 
L 327.651377 320.335284 
L 324.12591 318.939212 
L 320.600442 317.418643 
L 317.074975 315.771571 
L 313.549508 313.997098 
L 310.02404 312.095522 
L 306.498573 310.068411 
L 302.973106 307.91867 
L 299.447638 305.650587 
L 295.922171 303.269866 
L 292.396704 300.783645 
L 288.871236 298.200489 
L 285.345769 295.530373 
L 281.820302 292.784644 
L 278.294834 289.975971 
L 274.769367 287.118276 
L 271.243899 284.226659 
L 267.718432 281.317304 
L 264.192965 278.407388 
L 260.667497 275.514968 
L 257.14203 272.658868 
L 253.616563 269.85856 
L 250.091095 267.134034 
L 246.565628 264.505657 
L 243.040161 261.994023 
L 239.514693 259.619792 
L 235.989226 257.403506 
L 232.463759 255.365386 
L 228.938291 253.52511 
L 225.412824 251.901566 
L 221.887357 250.512578 
L 218.361889 249.374619 
L 214.836422 248.502511 
L 211.310955 247.90913 
L 207.785487 247.605116 
L 204.26002 247.598629 
L 200.734553 247.895144 
L 197.209085 248.497304 
L 193.683618 249.404859 
L 190.158151 250.614666 
L 186.632683 252.12077 
L 183.107216 253.914554 
L 179.581749 255.984936 
L 176.056281 258.318617 
L 172.530814 260.90035 
L 169.005347 263.71323 
L 165.479879 266.738981 
L 161.954412 269.958245 
L 158.428945 273.350858 
L 154.903477 276.896104 
L 151.37801 280.572966 
L 147.852543 284.360343 
L 144.327075 288.237263 
L 140.801608 292.18306 
L 137.276141 296.17755 
L 133.750673 300.201181 
L 130.225206 304.23516 
L 126.699739 308.261577 
L 123.174271 312.263501 
L 119.648804 316.225064 
L 116.123337 320.131531 
L 112.597869 323.969354 
L 109.072402 327.726208 
L 105.546935 331.391019 
L 102.021467 334.953975 
L 98.496 338.406522 
z
" style="fill:#cc3300;opacity:0.3;stroke:#cc3300;stroke-linejoin:miter;stroke-width:0.5;"/>
   </g>
   <g id="matplotlib.axis_1">
    <g id="xtick_1">
     <g id="line2d_1">
      <defs>
       <path d="M 0 0 
L 0 3.5 
" id="mc8970e448c" style="stroke:#000000;stroke-width:0.8;"/>
      </defs>
      <g>
       <use style="stroke:#000000;stroke-width:0.8;" x="129.6" xlink:href="#mc8970e448c" y="378"/>
      </g>
     </g>
     <g id="text_1">
      <!-- 1880 -->
      <defs>
       <path d="M 12.40625 8.296875 
L 28.515625 8.296875 
L 28.515625 63.921875 
L 10.984375 60.40625 
L 10.984375 69.390625 
L 28.421875 72.90625 
L 38.28125 72.90625 
L 38.28125 8.296875 
L 54.390625 8.296875 
L 54.390625 0 
L 12.40625 0 
z
" id="DejaVuSans-31"/>
       <path d="M 31.78125 34.625 
Q 24.75 34.625 20.71875 30.859375 
Q 16.703125 27.09375 16.703125 20.515625 
Q 16.703125 13.921875 20.71875 10.15625 
Q 24.75 6.390625 31.78125 6.390625 
Q 38.8125 6.390625 42.859375 10.171875 
Q 46.921875 13.96875 46.921875 20.515625 
Q 46.921875 27.09375 42.890625 30.859375 
Q 38.875 34.625 31.78125 34.625 
z
M 21.921875 38.8125 
Q 15.578125 40.375 12.03125 44.71875 
Q 8.5 49.078125 8.5 55.328125 
Q 8.5 64.0625 14.71875 69.140625 
Q 20.953125 74.21875 31.78125 74.21875 
Q 42.671875 74.21875 48.875 69.140625 
Q 55.078125 64.0625 55.078125 55.328125 
Q 55.078125 49.078125 51.53125 44.71875 
Q 48 40.375 41.703125 38.8125 
Q 48.828125 37.15625 52.796875 32.3125 
Q 56.78125 27.484375 56.78125 20.515625 
Q 56.78125 9.90625 50.3125 4.234375 
Q 43.84375 -1.421875 31.78125 -1.421875 
Q 19.734375 -1.421875 13.25 4.234375 
Q 6.78125 9.90625 6.78125 20.515625 
Q 6.78125 27.484375 10.78125 32.3125 
Q 14.796875 37.15625 21.921875 38.8125 
z
M 18.3125 54.390625 
Q 18.3125 48.734375 21.84375 45.5625 
Q 25.390625 42.390625 31.78125 42.390625 
Q 38.140625 42.390625 41.71875 45.5625 
Q 45.3125 48.734375 45.3125 54.390625 
Q 45.3125 60.0625 41.71875 63.234375 
Q 38.140625 66.40625 31.78125 66.40625 
Q 25.390625 66.40625 21.84375 63.234375 
Q 18.3125 60.0625 18.3125 54.390625 
z
" id="DejaVuSans-38"/>
       <path d="M 31.78125 66.40625 
Q 24.171875 66.40625 20.328125 58.90625 
Q 16.5 51.421875 16.5 36.375 
Q 16.5 21.390625 20.328125 13.890625 
Q 24.171875 6.390625 31.78125 6.390625 
Q 39.453125 6.390625 43.28125 13.890625 
Q 47.125 21.390625 47.125 36.375 
Q 47.125 51.421875 43.28125 58.90625 
Q 39.453125 66.40625 31.78125 66.40625 
z
M 31.78125 74.21875 
Q 44.046875 74.21875 50.515625 64.515625 
Q 56.984375 54.828125 56.984375 36.375 
Q 56.984375 17.96875 50.515625 8.265625 
Q 44.046875 -1.421875 31.78125 -1.421875 
Q 19.53125 -1.421875 13.0625 8.265625 
Q 6.59375 17.96875 6.59375 36.375 
Q 6.59375 54.828125 13.0625 64.515625 
Q 19.53125 74.21875 31.78125 74.21875 
z
" id="DejaVuSans-30"/>
      </defs>
      <g transform="translate(116.875 392.598437)scale(0.1 -0.1)">
       <use xlink:href="#DejaVuSans-31"/>
       <use x="63.623047" xlink:href="#DejaVuSans-38"/>
       <use x="127.246094" xlink:href="#DejaVuSans-38"/>
       <use x="190.869141" xlink:href="#DejaVuSans-30"/>
      </g>
     </g>
    </g>
    <g id="xtick_2">
     <g id="line2d_2">
      <g>
       <use style="stroke:#000000;stroke-width:0.8;" x="216" xlink:href="#mc8970e448c" y="378"/>
      </g>
     </g>
     <g id="text_2">
      <!-- 1900 -->
      <defs>
       <path d="M 10.984375 1.515625 
L 10.984375 10.5 
Q 14.703125 8.734375 18.5 7.8125 
Q 22.3125 6.890625 25.984375 6.890625 
Q 35.75 6.890625 40.890625 13.453125 
Q 46.046875 20.015625 46.78125 33.40625 
Q 43.953125 29.203125 39.59375 26.953125 
Q 35.25 24.703125 29.984375 24.703125 
Q 19.046875 24.703125 12.671875 31.3125 
Q 6.296875 37.9375 6.296875 49.421875 
Q 6.296875 60.640625 12.9375 67.421875 
Q 19.578125 74.21875 30.609375 74.21875 
Q 43.265625 74.21875 49.921875 64.515625 
Q 56.59375 54.828125 56.59375 36.375 
Q 56.59375 19.140625 48.40625 8.859375 
Q 40.234375 -1.421875 26.421875 -1.421875 
Q 22.703125 -1.421875 18.890625 -0.6875 
Q 15.09375 0.046875 10.984375 1.515625 
z
M 30.609375 32.421875 
Q 37.25 32.421875 41.125 36.953125 
Q 45.015625 41.5 45.015625 49.421875 
Q 45.015625 57.28125 41.125 61.84375 
Q 37.25 66.40625 30.609375 66.40625 
Q 23.96875 66.40625 20.09375 61.84375 
Q 16.21875 57.28125 16.21875 49.421875 
Q 16.21875 41.5 20.09375 36.953125 
Q 23.96875 32.421875 30.609375 32.421875 
z
" id="DejaVuSans-39"/>
      </defs>
      <g transform="translate(203.275 392.598437)scale(0.1 -0.1)">
       <use xlink:href="#DejaVuSans-31"/>
       <use x="63.623047" xlink:href="#DejaVuSans-39"/>
       <use x="127.246094" xlink:href="#DejaVuSans-30"/>
       <use x="190.869141" xlink:href="#DejaVuSans-30"/>
      </g>
     </g>
    </g>
    <g id="xtick_3">
     <g id="line2d_3">
      <g>
       <use style="stroke:#000000;stroke-width:0.8;" x="302.4" xlink:href="#mc8970e448c" y="378"/>
      </g>
     </g>
     <g id="text_3">
      <!-- 1920 -->
      <defs>
       <path d="M 19.1875 8.296875 
L 53.609375 8.296875 
L 53.609375 0 
L 7.328125 0 
L 7.328125 8.296875 
Q 12.9375 14.109375 22.625 23.890625 
Q 32.328125 33.6875 34.8125 36.53125 
Q 39.546875 41.84375 41.421875 45.53125 
Q 43.3125 49.21875 43.3125 52.78125 
Q 43.3125 58.59375 39.234375 62.25 
Q 35.15625 65.921875 28.609375 65.921875 
Q 23.96875 65.921875 18.8125 64.3125 
Q 13.671875 62.703125 7.8125 59.421875 
L 7.8125 69.390625 
Q 13.765625 71.78125 18.9375 73 
Q 24.125 74.21875 28.421875 74.21875 
Q 39.75 74.21875 46.484375 68.546875 
Q 53.21875 62.890625 53.21875 53.421875 
Q 53.21875 48.921875 51.53125 44.890625 
Q 49.859375 40.875 45.40625 35.40625 
Q 44.1875 33.984375 37.640625 27.21875 
Q 31.109375 20.453125 19.1875 8.296875 
z
" id="DejaVuSans-32"/>
      </defs>
      <g transform="translate(289.675 392.598437)scale(0.1 -0.1)">
       <use xlink:href="#DejaVuSans-31"/>
       <use x="63.623047" xlink:href="#DejaVuSans-39"/>
       <use x="127.246094" xlink:href="#DejaVuSans-32"/>
       <use x="190.869141" xlink:href="#DejaVuSans-30"/>
      </g>
     </g>
    </g>
    <g id="xtick_4">
     <g id="line2d_4">
      <g>
       <use style="stroke:#000000;stroke-width:0.8;" x="388.8" xlink:href="#mc8970e448c" y="378"/>
      </g>
     </g>
     <g id="text_4">
      <!-- 1940 -->
      <defs>
       <path d="M 37.796875 64.3125 
L 12.890625 25.390625 
L 37.796875 25.390625 
z
M 35.203125 72.90625 
L 47.609375 72.90625 
L 47.609375 25.390625 
L 58.015625 25.390625 
L 58.015625 17.1875 
L 47.609375 17.1875 
L 47.609375 0 
L 37.796875 0 
L 37.796875 17.1875 
L 4.890625 17.1875 
L 4.890625 26.703125 
z
" id="DejaVuSans-34"/>
      </defs>
      <g transform="translate(376.075 392.598437)scale(0.1 -0.1)">
       <use xlink:href="#DejaVuSans-31"/>
       <use x="63.623047" xlink:href="#DejaVuSans-39"/>
       <use x="127.246094" xlink:href="#DejaVuSans-34"/>
       <use x="190.869141" xlink:href="#DejaVuSans-30"/>
      </g>
     </g>
    </g>
    <g id="xtick_5">
     <g id="line2d_5">
      <g>
       <use style="stroke:#000000;stroke-width:0.8;" x="475.2" xlink:href="#mc8970e448c" y="378"/>
      </g>
     </g>
     <g id="text_5">
      <!-- 1960 -->
      <defs>
       <path d="M 33.015625 40.375 
Q 26.375 40.375 22.484375 35.828125 
Q 18.609375 31.296875 18.609375 23.390625 
Q 18.609375 15.53125 22.484375 10.953125 
Q 26.375 6.390625 33.015625 6.390625 
Q 39.65625 6.390625 43.53125 10.953125 
Q 47.40625 15.53125 47.40625 23.390625 
Q 47.40625 31.296875 43.53125 35.828125 
Q 39.65625 40.375 33.015625 40.375 
z
M 52.59375 71.296875 
L 52.59375 62.3125 
Q 48.875 64.0625 45.09375 64.984375 
Q 41.3125 65.921875 37.59375 65.921875 
Q 27.828125 65.921875 22.671875 59.328125 
Q 17.53125 52.734375 16.796875 39.40625 
Q 19.671875 43.65625 24.015625 45.921875 
Q 28.375 48.1875 33.59375 48.1875 
Q 44.578125 48.1875 50.953125 41.515625 
Q 57.328125 34.859375 57.328125 23.390625 
Q 57.328125 12.15625 50.6875 5.359375 
Q 44.046875 -1.421875 33.015625 -1.421875 
Q 20.359375 -1.421875 13.671875 8.265625 
Q 6.984375 17.96875 6.984375 36.375 
Q 6.984375 53.65625 15.1875 63.9375 
Q 23.390625 74.21875 37.203125 74.21875 
Q 40.921875 74.21875 44.703125 73.484375 
Q 48.484375 72.75 52.59375 71.296875 
z
" id="DejaVuSans-36"/>
      </defs>
      <g transform="translate(462.475 392.598437)scale(0.1 -0.1)">
       <use xlink:href="#DejaVuSans-31"/>
       <use x="63.623047" xlink:href="#DejaVuSans-39"/>
       <use x="127.246094" xlink:href="#DejaVuSans-36"/>
       <use x="190.869141" xlink:href="#DejaVuSans-30"/>
      </g>
     </g>
    </g>
    <g id="xtick_6">
     <g id="line2d_6">
      <g>
       <use style="stroke:#000000;stroke-width:0.8;" x="561.6" xlink:href="#mc8970e448c" y="378"/>
      </g>
     </g>
     <g id="text_6">
      <!-- 1980 -->
      <g transform="translate(548.875 392.598437)scale(0.1 -0.1)">
       <use xlink:href="#DejaVuSans-31"/>
       <use x="63.623047" xlink:href="#DejaVuSans-39"/>
       <use x="127.246094" xlink:href="#DejaVuSans-38"/>
       <use x="190.869141" xlink:href="#DejaVuSans-30"/>
      </g>
     </g>
    </g>
    <g id="xtick_7">
     <g id="line2d_7">
      <g>
       <use style="stroke:#000000;stroke-width:0.8;" x="648" xlink:href="#mc8970e448c" y="378"/>
      </g>
     </g>
     <g id="text_7">
      <!-- 2000 -->
      <g transform="translate(635.275 392.598437)scale(0.1 -0.1)">
       <use xlink:href="#DejaVuSans-32"/>
       <use x="63.623047" xlink:href="#DejaVuSans-30"/>
       <use x="127.246094" xlink:href="#DejaVuSans-30"/>
       <use x="190.869141" xlink:href="#DejaVuSans-30"/>
      </g>
     </g>
    </g>
    <g id="xtick_8">
     <g id="line2d_8">
      <g>
       <use style="stroke:#000000;stroke-width:0.8;" x="734.4" xlink:href="#mc8970e448c" y="378"/>
      </g>
     </g>
     <g id="text_8">
      <!-- 2020 -->
      <g transform="translate(721.675 392.598437)scale(0.1 -0.1)">
       <use xlink:href="#DejaVuSans-32"/>
       <use x="63.623047" xlink:href="#DejaVuSans-30"/>
       <use x="127.246094" xlink:href="#DejaVuSans-32"/>
       <use x="190.869141" xlink:href="#DejaVuSans-30"/>
      </g>
     </g>
    </g>
    <g id="text_9">
     <!-- year -->
     <defs>
      <path d="M 32.171875 -5.078125 
Q 28.375 -14.84375 24.75 -17.8125 
Q 21.140625 -20.796875 15.09375 -20.796875 
L 7.90625 -20.796875 
L 7.90625 -13.28125 
L 13.1875 -13.28125 
Q 16.890625 -13.28125 18.9375 -11.515625 
Q 21 -9.765625 23.484375 -3.21875 
L 25.09375 0.875 
L 2.984375 54.6875 
L 12.5 54.6875 
L 29.59375 11.921875 
L 46.6875 54.6875 
L 56.203125 54.6875 
z
" id="DejaVuSans-79"/>
      <path d="M 56.203125 29.59375 
L 56.203125 25.203125 
L 14.890625 25.203125 
Q 15.484375 15.921875 20.484375 11.0625 
Q 25.484375 6.203125 34.421875 6.203125 
Q 39.59375 6.203125 44.453125 7.46875 
Q 49.3125 8.734375 54.109375 11.28125 
L 54.109375 2.78125 
Q 49.265625 0.734375 44.1875 -0.34375 
Q 39.109375 -1.421875 33.890625 -1.421875 
Q 20.796875 -1.421875 13.15625 6.1875 
Q 5.515625 13.8125 5.515625 26.8125 
Q 5.515625 40.234375 12.765625 48.109375 
Q 20.015625 56 32.328125 56 
Q 43.359375 56 49.78125 48.890625 
Q 56.203125 41.796875 56.203125 29.59375 
z
M 47.21875 32.234375 
Q 47.125 39.59375 43.09375 43.984375 
Q 39.0625 48.390625 32.421875 48.390625 
Q 24.90625 48.390625 20.390625 44.140625 
Q 15.875 39.890625 15.1875 32.171875 
z
" id="DejaVuSans-65"/>
      <path d="M 34.28125 27.484375 
Q 23.390625 27.484375 19.1875 25 
Q 14.984375 22.515625 14.984375 16.5 
Q 14.984375 11.71875 18.140625 8.90625 
Q 21.296875 6.109375 26.703125 6.109375 
Q 34.1875 6.109375 38.703125 11.40625 
Q 43.21875 16.703125 43.21875 25.484375 
L 43.21875 27.484375 
z
M 52.203125 31.203125 
L 52.203125 0 
L 43.21875 0 
L 43.21875 8.296875 
Q 40.140625 3.328125 35.546875 0.953125 
Q 30.953125 -1.421875 24.3125 -1.421875 
Q 15.921875 -1.421875 10.953125 3.296875 
Q 6 8.015625 6 15.921875 
Q 6 25.140625 12.171875 29.828125 
Q 18.359375 34.515625 30.609375 34.515625 
L 43.21875 34.515625 
L 43.21875 35.40625 
Q 43.21875 41.609375 39.140625 45 
Q 35.0625 48.390625 27.6875 48.390625 
Q 23 48.390625 18.546875 47.265625 
Q 14.109375 46.140625 10.015625 43.890625 
L 10.015625 52.203125 
Q 14.9375 54.109375 19.578125 55.046875 
Q 24.21875 56 28.609375 56 
Q 40.484375 56 46.34375 49.84375 
Q 52.203125 43.703125 52.203125 31.203125 
z
" id="DejaVuSans-61"/>
      <path d="M 41.109375 46.296875 
Q 39.59375 47.171875 37.8125 47.578125 
Q 36.03125 48 33.890625 48 
Q 26.265625 48 22.1875 43.046875 
Q 18.109375 38.09375 18.109375 28.8125 
L 18.109375 0 
L 9.078125 0 
L 9.078125 54.6875 
L 18.109375 54.6875 
L 18.109375 46.1875 
Q 20.953125 51.171875 25.484375 53.578125 
Q 30.03125 56 36.53125 56 
Q 37.453125 56 38.578125 55.875 
Q 39.703125 55.765625 41.0625 55.515625 
z
" id="DejaVuSans-72"/>
     </defs>
     <g transform="translate(420.489062 413.875)scale(0.2 -0.2)">
      <use xlink:href="#DejaVuSans-79"/>
      <use x="59.179688" xlink:href="#DejaVuSans-65"/>
      <use x="120.703125" xlink:href="#DejaVuSans-61"/>
      <use x="181.982422" xlink:href="#DejaVuSans-72"/>
     </g>
    </g>
   </g>
   <g id="matplotlib.axis_2">
    <g id="ytick_1">
     <g id="line2d_9">
      <defs>
       <path d="M 0 0 
L -3.5 0 
" id="mc0a82e076e" style="stroke:#000000;stroke-width:0.8;"/>
      </defs>
      <g>
       <use style="stroke:#000000;stroke-width:0.8;" x="108" xlink:href="#mc0a82e076e" y="378"/>
      </g>
     </g>
     <g id="text_10">
      <!-- 2.5 -->
      <defs>
       <path d="M 10.6875 12.40625 
L 21 12.40625 
L 21 0 
L 10.6875 0 
z
" id="DejaVuSans-2e"/>
       <path d="M 10.796875 72.90625 
L 49.515625 72.90625 
L 49.515625 64.59375 
L 19.828125 64.59375 
L 19.828125 46.734375 
Q 21.96875 47.46875 24.109375 47.828125 
Q 26.265625 48.1875 28.421875 48.1875 
Q 40.625 48.1875 47.75 41.5 
Q 54.890625 34.8125 54.890625 23.390625 
Q 54.890625 11.625 47.5625 5.09375 
Q 40.234375 -1.421875 26.90625 -1.421875 
Q 22.3125 -1.421875 17.546875 -0.640625 
Q 12.796875 0.140625 7.71875 1.703125 
L 7.71875 11.625 
Q 12.109375 9.234375 16.796875 8.0625 
Q 21.484375 6.890625 26.703125 6.890625 
Q 35.15625 6.890625 40.078125 11.328125 
Q 45.015625 15.765625 45.015625 23.390625 
Q 45.015625 31 40.078125 35.4375 
Q 35.15625 39.890625 26.703125 39.890625 
Q 22.75 39.890625 18.8125 39.015625 
Q 14.890625 38.140625 10.796875 36.28125 
z
" id="DejaVuSans-35"/>
      </defs>
      <g transform="translate(85.096875 381.799219)scale(0.1 -0.1)">
       <use xlink:href="#DejaVuSans-32"/>
       <use x="63.623047" xlink:href="#DejaVuSans-2e"/>
       <use x="95.410156" xlink:href="#DejaVuSans-35"/>
      </g>
     </g>
    </g>
    <g id="ytick_2">
     <g id="line2d_10">
      <g>
       <use style="stroke:#000000;stroke-width:0.8;" x="108" xlink:href="#mc0a82e076e" y="337.23"/>
      </g>
     </g>
     <g id="text_11">
      <!-- 3.0 -->
      <defs>
       <path d="M 40.578125 39.3125 
Q 47.65625 37.796875 51.625 33 
Q 55.609375 28.21875 55.609375 21.1875 
Q 55.609375 10.40625 48.1875 4.484375 
Q 40.765625 -1.421875 27.09375 -1.421875 
Q 22.515625 -1.421875 17.65625 -0.515625 
Q 12.796875 0.390625 7.625 2.203125 
L 7.625 11.71875 
Q 11.71875 9.328125 16.59375 8.109375 
Q 21.484375 6.890625 26.8125 6.890625 
Q 36.078125 6.890625 40.9375 10.546875 
Q 45.796875 14.203125 45.796875 21.1875 
Q 45.796875 27.640625 41.28125 31.265625 
Q 36.765625 34.90625 28.71875 34.90625 
L 20.21875 34.90625 
L 20.21875 43.015625 
L 29.109375 43.015625 
Q 36.375 43.015625 40.234375 45.921875 
Q 44.09375 48.828125 44.09375 54.296875 
Q 44.09375 59.90625 40.109375 62.90625 
Q 36.140625 65.921875 28.71875 65.921875 
Q 24.65625 65.921875 20.015625 65.03125 
Q 15.375 64.15625 9.8125 62.3125 
L 9.8125 71.09375 
Q 15.4375 72.65625 20.34375 73.4375 
Q 25.25 74.21875 29.59375 74.21875 
Q 40.828125 74.21875 47.359375 69.109375 
Q 53.90625 64.015625 53.90625 55.328125 
Q 53.90625 49.265625 50.4375 45.09375 
Q 46.96875 40.921875 40.578125 39.3125 
z
" id="DejaVuSans-33"/>
      </defs>
      <g transform="translate(85.096875 341.029219)scale(0.1 -0.1)">
       <use xlink:href="#DejaVuSans-33"/>
       <use x="63.623047" xlink:href="#DejaVuSans-2e"/>
       <use x="95.410156" xlink:href="#DejaVuSans-30"/>
      </g>
     </g>
    </g>
    <g id="ytick_3">
     <g id="line2d_11">
      <g>
       <use style="stroke:#000000;stroke-width:0.8;" x="108" xlink:href="#mc0a82e076e" y="296.46"/>
      </g>
     </g>
     <g id="text_12">
      <!-- 3.5 -->
      <g transform="translate(85.096875 300.259219)scale(0.1 -0.1)">
       <use xlink:href="#DejaVuSans-33"/>
       <use x="63.623047" xlink:href="#DejaVuSans-2e"/>
       <use x="95.410156" xlink:href="#DejaVuSans-35"/>
      </g>
     </g>
    </g>
    <g id="ytick_4">
     <g id="line2d_12">
      <g>
       <use style="stroke:#000000;stroke-width:0.8;" x="108" xlink:href="#mc0a82e076e" y="255.69"/>
      </g>
     </g>
     <g id="text_13">
      <!-- 4.0 -->
      <g transform="translate(85.096875 259.489219)scale(0.1 -0.1)">
       <use xlink:href="#DejaVuSans-34"/>
       <use x="63.623047" xlink:href="#DejaVuSans-2e"/>
       <use x="95.410156" xlink:href="#DejaVuSans-30"/>
      </g>
     </g>
    </g>
    <g id="ytick_5">
     <g id="line2d_13">
      <g>
       <use style="stroke:#000000;stroke-width:0.8;" x="108" xlink:href="#mc0a82e076e" y="214.92"/>
      </g>
     </g>
     <g id="text_14">
      <!-- 4.5 -->
      <g transform="translate(85.096875 218.719219)scale(0.1 -0.1)">
       <use xlink:href="#DejaVuSans-34"/>
       <use x="63.623047" xlink:href="#DejaVuSans-2e"/>
       <use x="95.410156" xlink:href="#DejaVuSans-35"/>
      </g>
     </g>
    </g>
    <g id="ytick_6">
     <g id="line2d_14">
      <g>
       <use style="stroke:#000000;stroke-width:0.8;" x="108" xlink:href="#mc0a82e076e" y="174.15"/>
      </g>
     </g>
     <g id="text_15">
      <!-- 5.0 -->
      <g transform="translate(85.096875 177.949219)scale(0.1 -0.1)">
       <use xlink:href="#DejaVuSans-35"/>
       <use x="63.623047" xlink:href="#DejaVuSans-2e"/>
       <use x="95.410156" xlink:href="#DejaVuSans-30"/>
      </g>
     </g>
    </g>
    <g id="ytick_7">
     <g id="line2d_15">
      <g>
       <use style="stroke:#000000;stroke-width:0.8;" x="108" xlink:href="#mc0a82e076e" y="133.38"/>
      </g>
     </g>
     <g id="text_16">
      <!-- 5.5 -->
      <g transform="translate(85.096875 137.179219)scale(0.1 -0.1)">
       <use xlink:href="#DejaVuSans-35"/>
       <use x="63.623047" xlink:href="#DejaVuSans-2e"/>
       <use x="95.410156" xlink:href="#DejaVuSans-35"/>
      </g>
     </g>
    </g>
    <g id="ytick_8">
     <g id="line2d_16">
      <g>
       <use style="stroke:#000000;stroke-width:0.8;" x="108" xlink:href="#mc0a82e076e" y="92.61"/>
      </g>
     </g>
     <g id="text_17">
      <!-- 6.0 -->
      <g transform="translate(85.096875 96.409219)scale(0.1 -0.1)">
       <use xlink:href="#DejaVuSans-36"/>
       <use x="63.623047" xlink:href="#DejaVuSans-2e"/>
       <use x="95.410156" xlink:href="#DejaVuSans-30"/>
      </g>
     </g>
    </g>
    <g id="ytick_9">
     <g id="line2d_17">
      <g>
       <use style="stroke:#000000;stroke-width:0.8;" x="108" xlink:href="#mc0a82e076e" y="51.84"/>
      </g>
     </g>
     <g id="text_18">
      <!-- 6.5 -->
      <g transform="translate(85.096875 55.639219)scale(0.1 -0.1)">
       <use xlink:href="#DejaVuSans-36"/>
       <use x="63.623047" xlink:href="#DejaVuSans-2e"/>
       <use x="95.410156" xlink:href="#DejaVuSans-35"/>
      </g>
     </g>
    </g>
    <g id="text_19">
     <!-- pace min/km -->
     <defs>
      <path d="M 18.109375 8.203125 
L 18.109375 -20.796875 
L 9.078125 -20.796875 
L 9.078125 54.6875 
L 18.109375 54.6875 
L 18.109375 46.390625 
Q 20.953125 51.265625 25.265625 53.625 
Q 29.59375 56 35.59375 56 
Q 45.5625 56 51.78125 48.09375 
Q 58.015625 40.1875 58.015625 27.296875 
Q 58.015625 14.40625 51.78125 6.484375 
Q 45.5625 -1.421875 35.59375 -1.421875 
Q 29.59375 -1.421875 25.265625 0.953125 
Q 20.953125 3.328125 18.109375 8.203125 
z
M 48.6875 27.296875 
Q 48.6875 37.203125 44.609375 42.84375 
Q 40.53125 48.484375 33.40625 48.484375 
Q 26.265625 48.484375 22.1875 42.84375 
Q 18.109375 37.203125 18.109375 27.296875 
Q 18.109375 17.390625 22.1875 11.75 
Q 26.265625 6.109375 33.40625 6.109375 
Q 40.53125 6.109375 44.609375 11.75 
Q 48.6875 17.390625 48.6875 27.296875 
z
" id="DejaVuSans-70"/>
      <path d="M 48.78125 52.59375 
L 48.78125 44.1875 
Q 44.96875 46.296875 41.140625 47.34375 
Q 37.3125 48.390625 33.40625 48.390625 
Q 24.65625 48.390625 19.8125 42.84375 
Q 14.984375 37.3125 14.984375 27.296875 
Q 14.984375 17.28125 19.8125 11.734375 
Q 24.65625 6.203125 33.40625 6.203125 
Q 37.3125 6.203125 41.140625 7.25 
Q 44.96875 8.296875 48.78125 10.40625 
L 48.78125 2.09375 
Q 45.015625 0.34375 40.984375 -0.53125 
Q 36.96875 -1.421875 32.421875 -1.421875 
Q 20.0625 -1.421875 12.78125 6.34375 
Q 5.515625 14.109375 5.515625 27.296875 
Q 5.515625 40.671875 12.859375 48.328125 
Q 20.21875 56 33.015625 56 
Q 37.15625 56 41.109375 55.140625 
Q 45.0625 54.296875 48.78125 52.59375 
z
" id="DejaVuSans-63"/>
      <path id="DejaVuSans-20"/>
      <path d="M 52 44.1875 
Q 55.375 50.25 60.0625 53.125 
Q 64.75 56 71.09375 56 
Q 79.640625 56 84.28125 50.015625 
Q 88.921875 44.046875 88.921875 33.015625 
L 88.921875 0 
L 79.890625 0 
L 79.890625 32.71875 
Q 79.890625 40.578125 77.09375 44.375 
Q 74.3125 48.1875 68.609375 48.1875 
Q 61.625 48.1875 57.5625 43.546875 
Q 53.515625 38.921875 53.515625 30.90625 
L 53.515625 0 
L 44.484375 0 
L 44.484375 32.71875 
Q 44.484375 40.625 41.703125 44.40625 
Q 38.921875 48.1875 33.109375 48.1875 
Q 26.21875 48.1875 22.15625 43.53125 
Q 18.109375 38.875 18.109375 30.90625 
L 18.109375 0 
L 9.078125 0 
L 9.078125 54.6875 
L 18.109375 54.6875 
L 18.109375 46.1875 
Q 21.1875 51.21875 25.484375 53.609375 
Q 29.78125 56 35.6875 56 
Q 41.65625 56 45.828125 52.96875 
Q 50 49.953125 52 44.1875 
z
" id="DejaVuSans-6d"/>
      <path d="M 9.421875 54.6875 
L 18.40625 54.6875 
L 18.40625 0 
L 9.421875 0 
z
M 9.421875 75.984375 
L 18.40625 75.984375 
L 18.40625 64.59375 
L 9.421875 64.59375 
z
" id="DejaVuSans-69"/>
      <path d="M 54.890625 33.015625 
L 54.890625 0 
L 45.90625 0 
L 45.90625 32.71875 
Q 45.90625 40.484375 42.875 44.328125 
Q 39.84375 48.1875 33.796875 48.1875 
Q 26.515625 48.1875 22.3125 43.546875 
Q 18.109375 38.921875 18.109375 30.90625 
L 18.109375 0 
L 9.078125 0 
L 9.078125 54.6875 
L 18.109375 54.6875 
L 18.109375 46.1875 
Q 21.34375 51.125 25.703125 53.5625 
Q 30.078125 56 35.796875 56 
Q 45.21875 56 50.046875 50.171875 
Q 54.890625 44.34375 54.890625 33.015625 
z
" id="DejaVuSans-6e"/>
      <path d="M 25.390625 72.90625 
L 33.6875 72.90625 
L 8.296875 -9.28125 
L 0 -9.28125 
z
" id="DejaVuSans-2f"/>
      <path d="M 9.078125 75.984375 
L 18.109375 75.984375 
L 18.109375 31.109375 
L 44.921875 54.6875 
L 56.390625 54.6875 
L 27.390625 29.109375 
L 57.625 0 
L 45.90625 0 
L 18.109375 26.703125 
L 18.109375 0 
L 9.078125 0 
z
" id="DejaVuSans-6b"/>
     </defs>
     <g transform="translate(76.9375 279.9825)rotate(-90)scale(0.2 -0.2)">
      <use xlink:href="#DejaVuSans-70"/>
      <use x="63.476562" xlink:href="#DejaVuSans-61"/>
      <use x="124.755859" xlink:href="#DejaVuSans-63"/>
      <use x="179.736328" xlink:href="#DejaVuSans-65"/>
      <use x="241.259766" xlink:href="#DejaVuSans-20"/>
      <use x="273.046875" xlink:href="#DejaVuSans-6d"/>
      <use x="370.458984" xlink:href="#DejaVuSans-69"/>
      <use x="398.242188" xlink:href="#DejaVuSans-6e"/>
      <use x="461.621094" xlink:href="#DejaVuSans-2f"/>
      <use x="495.3125" xlink:href="#DejaVuSans-6b"/>
      <use x="553.222656" xlink:href="#DejaVuSans-6d"/>
     </g>
    </g>
   </g>
   <g id="line2d_18">
    <defs>
     <path d="M 0 2.5 
C 0.663008 2.5 1.29895 2.236584 1.767767 1.767767 
C 2.236584 1.29895 2.5 0.663008 2.5 0 
C 2.5 -0.663008 2.236584 -1.29895 1.767767 -1.767767 
C 1.29895 -2.236584 0.663008 -2.5 0 -2.5 
C -0.663008 -2.5 -1.29895 -2.236584 -1.767767 -1.767767 
C -2.236584 -1.29895 -2.5 -0.663008 -2.5 0 
C -2.5 0.663008 -2.236584 1.29895 -1.767767 1.767767 
C -1.29895 2.236584 -0.663008 2.5 0 2.5 
z
" id="mcb67f6322d" style="stroke:#ff0000;"/>
    </defs>
    <g clip-path="url(#pfc1b4249cd)">
     <use style="fill:#ff0000;stroke:#ff0000;" x="198.72" xlink:href="#mcb67f6322d" y="217.29825"/>
     <use style="fill:#ff0000;stroke:#ff0000;" x="216" xlink:href="#mcb67f6322d" y="217.795976"/>
     <use style="fill:#ff0000;stroke:#ff0000;" x="233.28" xlink:href="#mcb67f6322d" y="156.041325"/>
     <use style="fill:#ff0000;stroke:#ff0000;" x="250.56" xlink:href="#mcb67f6322d" y="243.077501"/>
     <use style="fill:#ff0000;stroke:#ff0000;" x="267.84" xlink:href="#mcb67f6322d" y="263.573552"/>
     <use style="fill:#ff0000;stroke:#ff0000;" x="302.4" xlink:href="#mcb67f6322d" y="290.791937"/>
     <use style="fill:#ff0000;stroke:#ff0000;" x="319.68" xlink:href="#mcb67f6322d" y="269.996619"/>
     <use style="fill:#ff0000;stroke:#ff0000;" x="336.96" xlink:href="#mcb67f6322d" y="286.280786"/>
     <use style="fill:#ff0000;stroke:#ff0000;" x="354.24" xlink:href="#mcb67f6322d" y="288.889602"/>
     <use style="fill:#ff0000;stroke:#ff0000;" x="371.52" xlink:href="#mcb67f6322d" y="293.295603"/>
     <use style="fill:#ff0000;stroke:#ff0000;" x="423.36" xlink:href="#mcb67f6322d" y="282.589794"/>
     <use style="fill:#ff0000;stroke:#ff0000;" x="440.64" xlink:href="#mcb67f6322d" y="305.405663"/>
     <use style="fill:#ff0000;stroke:#ff0000;" x="457.92" xlink:href="#mcb67f6322d" y="301.643814"/>
     <use style="fill:#ff0000;stroke:#ff0000;" x="475.2" xlink:href="#mcb67f6322d" y="320.446616"/>
     <use style="fill:#ff0000;stroke:#ff0000;" x="492.48" xlink:href="#mcb67f6322d" y="326.405023"/>
     <use style="fill:#ff0000;stroke:#ff0000;" x="509.76" xlink:href="#mcb67f6322d" y="310.468699"/>
     <use style="fill:#ff0000;stroke:#ff0000;" x="527.04" xlink:href="#mcb67f6322d" y="326.153804"/>
     <use style="fill:#ff0000;stroke:#ff0000;" x="544.32" xlink:href="#mcb67f6322d" y="330.791699"/>
     <use style="fill:#ff0000;stroke:#ff0000;" x="561.6" xlink:href="#mcb67f6322d" y="328.601582"/>
     <use style="fill:#ff0000;stroke:#ff0000;" x="578.88" xlink:href="#mcb67f6322d" y="331.886758"/>
     <use style="fill:#ff0000;stroke:#ff0000;" x="596.16" xlink:href="#mcb67f6322d" y="329.600018"/>
     <use style="fill:#ff0000;stroke:#ff0000;" x="613.44" xlink:href="#mcb67f6322d" y="324.092517"/>
     <use style="fill:#ff0000;stroke:#ff0000;" x="630.72" xlink:href="#mcb67f6322d" y="325.606274"/>
     <use style="fill:#ff0000;stroke:#ff0000;" x="648" xlink:href="#mcb67f6322d" y="330.276378"/>
     <use style="fill:#ff0000;stroke:#ff0000;" x="665.28" xlink:href="#mcb67f6322d" y="328.859243"/>
     <use style="fill:#ff0000;stroke:#ff0000;" x="682.56" xlink:href="#mcb67f6322d" y="337.329844"/>
     <use style="fill:#ff0000;stroke:#ff0000;" x="699.84" xlink:href="#mcb67f6322d" y="334.463367"/>
    </g>
   </g>
   <g id="line2d_19">
    <path clip-path="url(#pfc1b4249cd)" d="M 98.496 259.070733 
L 105.546935 254.454228 
L 116.123337 247.207281 
L 137.276141 232.440412 
L 144.327075 227.756133 
L 151.37801 223.353521 
L 158.428945 219.334058 
L 161.954412 217.499294 
L 165.479879 215.797314 
L 169.005347 214.239679 
L 172.530814 212.837381 
L 176.056281 211.600726 
L 179.581749 210.539227 
L 183.107216 209.661495 
L 186.632683 208.97514 
L 190.158151 208.486677 
L 193.683618 208.20144 
L 197.209085 208.123508 
L 200.734553 208.255639 
L 204.26002 208.599216 
L 207.785487 209.15421 
L 211.310955 209.91915 
L 214.836422 210.891115 
L 218.361889 212.065733 
L 221.887357 213.437202 
L 225.412824 214.998323 
L 228.938291 216.740546 
L 232.463759 218.654035 
L 235.989226 220.727749 
L 239.514693 222.949526 
L 246.565628 227.78369 
L 253.616563 233.041158 
L 260.667497 238.596471 
L 285.345769 258.503902 
L 292.396704 263.815448 
L 299.447638 268.766763 
L 306.498573 273.279984 
L 310.02404 275.353668 
L 313.549508 277.298228 
L 317.074975 279.110063 
L 320.600442 280.787006 
L 324.12591 282.328307 
L 327.651377 283.73461 
L 331.176844 285.007906 
L 334.702312 286.151478 
L 338.227779 287.169826 
L 345.278714 288.854444 
L 352.329648 290.118704 
L 359.380583 291.032659 
L 366.431518 291.675557 
L 377.00792 292.316474 
L 394.635256 293.213012 
L 401.686191 293.726167 
L 408.737126 294.414518 
L 415.78806 295.317493 
L 422.838995 296.459542 
L 429.88993 297.84993 
L 436.940864 299.483249 
L 443.991799 301.340603 
L 451.042734 303.391352 
L 461.619136 306.740155 
L 493.348342 317.1628 
L 500.399276 319.233324 
L 507.450211 321.124236 
L 514.501146 322.807901 
L 521.55208 324.265995 
L 528.603015 325.48982 
L 535.65395 326.480151 
L 542.704884 327.246648 
L 549.755819 327.806873 
L 556.806754 328.185004 
L 567.383156 328.475731 
L 577.959558 328.53445 
L 616.739698 328.483913 
L 630.841568 328.838744 
L 644.943437 329.452806 
L 683.723578 331.398485 
L 694.29998 331.609125 
L 704.876382 331.528979 
L 711.927317 331.284708 
L 718.978251 330.873834 
L 726.029186 330.290077 
L 733.080121 329.532359 
L 740.131055 328.604718 
L 747.18199 327.516006 
L 757.758392 325.610794 
L 768.334794 323.432994 
L 782.436663 320.231068 
L 800.064 316.012949 
L 800.064 316.012949 
" style="fill:none;stroke:#3300ff;stroke-linecap:square;stroke-width:2;"/>
   </g>
   <g id="line2d_20">
    <path clip-path="url(#pfc1b4249cd)" d="M 98.496 179.734943 
L 116.123337 174.283031 
L 126.699739 171.292858 
L 133.750673 169.512357 
L 140.801608 167.955717 
L 147.852543 166.666201 
L 154.903477 165.68307 
L 161.954412 165.040343 
L 169.005347 164.766129 
L 176.056281 164.882836 
L 183.107216 165.408436 
L 190.158151 166.358688 
L 197.209085 167.749712 
L 200.734553 168.616134 
L 204.26002 169.599802 
L 207.785487 170.703303 
L 211.310955 171.92917 
L 214.836422 173.279718 
L 218.361889 174.756847 
L 221.887357 176.361827 
L 225.412824 178.09508 
L 228.938291 179.955981 
L 235.989226 184.051991 
L 243.040161 188.618369 
L 250.091095 193.600302 
L 257.14203 198.920522 
L 267.718432 207.320127 
L 285.345769 221.47743 
L 292.396704 226.84725 
L 299.447638 231.882939 
L 306.498573 236.491557 
L 310.02404 238.611815 
L 313.549508 240.599358 
L 317.074975 242.448556 
L 320.600442 244.155369 
L 324.12591 245.717402 
L 327.651377 247.133936 
L 331.176844 248.405934 
L 334.702312 249.536025 
L 338.227779 250.528462 
L 341.753246 251.389052 
L 345.278714 252.125061 
L 352.329648 253.258962 
L 359.380583 254.012383 
L 366.431518 254.481094 
L 377.00792 254.876126 
L 391.109789 255.357196 
L 398.160724 255.776338 
L 405.211658 256.404187 
L 412.262593 257.284376 
L 419.313528 258.440455 
L 426.364462 259.876538 
L 433.415397 261.579193 
L 440.466332 263.52026 
L 447.517266 265.66026 
L 458.093668 269.138704 
L 489.822874 279.882737 
L 496.873809 282.02894 
L 503.924744 284.004656 
L 510.975678 285.783465 
L 518.026613 287.346339 
L 525.077548 288.682083 
L 532.128482 289.787546 
L 539.179417 290.667538 
L 546.230352 291.334395 
L 553.281286 291.807182 
L 560.332221 292.110582 
L 570.908623 292.31225 
L 585.010492 292.278177 
L 609.688764 292.099333 
L 620.265166 292.202309 
L 630.841568 292.481627 
L 644.943437 293.099215 
L 662.570774 293.938804 
L 669.621709 294.121258 
L 676.672643 294.102607 
L 683.723578 293.797076 
L 690.774513 293.120746 
L 694.29998 292.620046 
L 697.825447 292.000629 
L 701.350915 291.256512 
L 704.876382 290.383365 
L 708.401849 289.378626 
L 711.927317 288.241539 
L 715.452784 286.973141 
L 718.978251 285.576177 
L 726.029186 282.415284 
L 733.080121 278.809411 
L 740.131055 274.825748 
L 747.18199 270.542049 
L 757.758392 263.735519 
L 782.436663 247.477971 
L 789.487598 243.050349 
L 796.538533 238.819875 
L 800.064 236.791108 
L 800.064 236.791108 
" style="fill:none;stroke:#3300ff;stroke-linecap:square;stroke-width:0.2;"/>
   </g>
   <g id="line2d_21">
    <path clip-path="url(#pfc1b4249cd)" d="M 98.496 338.406522 
L 105.546935 331.391019 
L 112.597869 323.969354 
L 119.648804 316.225064 
L 130.225206 304.23516 
L 144.327075 288.237263 
L 151.37801 280.572966 
L 158.428945 273.350858 
L 161.954412 269.958245 
L 165.479879 266.738981 
L 169.005347 263.71323 
L 172.530814 260.90035 
L 176.056281 258.318617 
L 179.581749 255.984936 
L 183.107216 253.914554 
L 186.632683 252.12077 
L 190.158151 250.614666 
L 193.683618 249.404859 
L 197.209085 248.497304 
L 200.734553 247.895144 
L 204.26002 247.598629 
L 207.785487 247.605116 
L 211.310955 247.90913 
L 214.836422 248.502511 
L 218.361889 249.374619 
L 221.887357 250.512578 
L 225.412824 251.901566 
L 228.938291 253.52511 
L 232.463759 255.365386 
L 235.989226 257.403506 
L 239.514693 259.619792 
L 243.040161 261.994023 
L 250.091095 267.134034 
L 257.14203 272.658868 
L 267.718432 281.317304 
L 278.294834 289.975971 
L 285.345769 295.530373 
L 292.396704 300.783645 
L 299.447638 305.650587 
L 306.498573 310.068411 
L 313.549508 313.997098 
L 317.074975 315.771571 
L 320.600442 317.418643 
L 324.12591 318.939212 
L 327.651377 320.335284 
L 334.702312 322.76693 
L 341.753246 324.748126 
L 348.804181 326.32491 
L 355.855116 327.551875 
L 362.90605 328.489598 
L 369.956985 329.202471 
L 380.533387 329.995387 
L 401.686191 331.391355 
L 408.737126 332.018239 
L 415.78806 332.807753 
L 422.838995 333.795131 
L 429.88993 335.003863 
L 436.940864 336.444328 
L 443.991799 338.113002 
L 451.042734 339.992394 
L 461.619136 343.136439 
L 475.721005 347.692664 
L 489.822874 352.259618 
L 500.399276 355.426721 
L 507.450211 357.328429 
L 514.501146 359.023021 
L 521.55208 360.489 
L 528.603015 361.716157 
L 535.65395 362.705179 
L 542.704884 363.466732 
L 549.755819 364.020125 
L 556.806754 364.39168 
L 567.383156 364.677904 
L 581.485025 364.738187 
L 609.688764 364.720929 
L 623.790633 364.976737 
L 637.892503 365.47329 
L 651.994372 366.195573 
L 666.096241 367.175444 
L 676.672643 368.164275 
L 683.723578 368.999894 
L 690.774513 370.014838 
L 697.825447 371.235361 
L 704.876382 372.674592 
L 711.927317 374.327876 
L 718.978251 376.171492 
L 729.554653 379.201568 
L 754.232925 386.517611 
L 761.283859 388.416864 
L 768.334794 390.146753 
L 775.385729 391.676173 
L 782.436663 392.984166 
L 789.487598 394.059634 
L 796.538533 394.900608 
L 800.064 395.23479 
L 800.064 395.23479 
" style="fill:none;stroke:#3300ff;stroke-linecap:square;stroke-width:0.2;"/>
   </g>
   <g id="patch_4">
    <path d="M 108 378 
L 108 51.84 
" style="fill:none;stroke:#000000;stroke-linecap:square;stroke-linejoin:miter;stroke-width:0.8;"/>
   </g>
   <g id="patch_5">
    <path d="M 777.6 378 
L 777.6 51.84 
" style="fill:none;stroke:#000000;stroke-linecap:square;stroke-linejoin:miter;stroke-width:0.8;"/>
   </g>
   <g id="patch_6">
    <path d="M 108 378 
L 777.6 378 
" style="fill:none;stroke:#000000;stroke-linecap:square;stroke-linejoin:miter;stroke-width:0.8;"/>
   </g>
   <g id="patch_7">
    <path d="M 108 51.84 
L 777.6 51.84 
" style="fill:none;stroke:#000000;stroke-linecap:square;stroke-linejoin:miter;stroke-width:0.8;"/>
   </g>
  </g>
 </g>
 <defs>
  <clipPath id="pfc1b4249cd">
   <rect height="326.16" width="669.6" x="108" y="51.84"/>
  </clipPath>
 </defs>
</svg>
