<?xml version="1.0" encoding="utf-8" standalone="no"?>
<!DOCTYPE svg PUBLIC "-//W3C//DTD SVG 1.1//EN"
  "http://www.w3.org/Graphics/SVG/1.1/DTD/svg11.dtd">
<!-- Created with matplotlib (http://matplotlib.org/) -->
<svg height="504pt" version="1.1" viewBox="0 0 504 504" width="504pt" xmlns="http://www.w3.org/2000/svg" xmlns:xlink="http://www.w3.org/1999/xlink">
 <defs>
  <style type="text/css">
*{stroke-linecap:butt;stroke-linejoin:round;}
  </style>
 </defs>
 <g id="figure_1">
  <g id="patch_1">
   <path d="M 0 504 
L 504 504 
L 504 0 
L 0 0 
z
" style="fill:none;"/>
  </g>
  <g id="axes_1">
   <g id="patch_2">
    <path d="M 63 441 
L 453.6 441 
L 453.6 60.48 
L 63 60.48 
z
" style="fill:none;"/>
   </g>
   <g id="patch_3">
    <path clip-path="url(#p5e181f85bd)" d="M 69.8355 112.042637 
L 71.827756 110.435396 
L 73.820013 108.835627 
L 75.812269 107.250872 
L 77.804525 105.688958 
L 79.796781 104.157952 
L 81.789038 102.666109 
L 83.781294 101.221808 
L 85.77355 99.833493 
L 87.765807 98.5096 
L 89.758063 97.258491 
L 91.750319 96.088375 
L 93.742575 95.007241 
L 95.734832 94.022778 
L 97.727088 93.142312 
L 99.719344 92.372742 
L 101.711601 91.720485 
L 103.703857 91.191439 
L 105.696113 90.790957 
L 107.688369 90.523846 
L 109.680626 90.394382 
L 111.672882 90.406362 
L 113.665138 90.563167 
L 115.657394 90.86786 
L 117.649651 91.323302 
L 119.641907 91.932269 
L 121.634163 92.697579 
L 123.62642 93.622198 
L 125.618676 94.709311 
L 127.610932 95.962351 
L 129.603188 97.384956 
L 131.595445 98.980865 
L 133.587701 100.753743 
L 135.579957 102.706937 
L 137.572214 104.843196 
L 139.56447 107.164356 
L 141.556726 109.671028 
L 143.548982 112.362307 
L 145.541239 115.235525 
L 147.533495 118.286055 
L 149.525751 121.507184 
L 151.518008 124.890059 
L 153.510264 128.423694 
L 155.50252 132.095048 
L 157.494776 135.88915 
L 159.487033 139.789277 
L 161.479289 143.77717 
L 163.471545 147.83327 
L 165.463802 151.936985 
L 167.456058 156.066963 
L 169.448314 160.201373 
L 171.44057 164.318187 
L 173.432827 168.395462 
L 175.425083 172.411614 
L 177.417339 176.345681 
L 179.409595 180.177575 
L 181.401852 183.888327 
L 183.394108 187.460308 
L 185.386364 190.877444 
L 187.378621 194.125401 
L 189.370877 197.191768 
L 191.363133 200.066201 
L 193.355389 202.740554 
L 195.347646 205.208988 
L 197.339902 207.468037 
L 199.332158 209.516662 
L 201.324415 211.356256 
L 203.316671 212.990621 
L 205.308927 214.425906 
L 207.301183 215.670512 
L 209.29344 216.734946 
L 211.285696 217.631656 
L 213.277952 218.37482 
L 215.270209 218.980111 
L 217.262465 219.464437 
L 219.254721 219.845657 
L 221.246977 220.142296 
L 223.239234 220.373238 
L 225.23149 220.557433 
L 227.223746 220.713602 
L 229.216003 220.859958 
L 231.208259 221.013946 
L 233.200515 221.192002 
L 235.192771 221.409337 
L 237.185028 221.679757 
L 239.177284 222.01551 
L 241.16954 222.427162 
L 243.161796 222.923519 
L 245.154053 223.511569 
L 247.146309 224.196471 
L 249.138565 224.981564 
L 251.130822 225.868419 
L 253.123078 226.856911 
L 255.115334 227.945316 
L 257.10759 229.130437 
L 259.099847 230.407736 
L 261.092103 231.771491 
L 263.084359 233.214954 
L 265.076616 234.730516 
L 267.068872 236.309872 
L 269.061128 237.944177 
L 271.053384 239.624203 
L 273.045641 241.34048 
L 275.037897 243.083423 
L 277.030153 244.843448 
L 279.02241 246.611079 
L 281.014666 248.377028 
L 283.006922 250.13228 
L 284.999178 251.868149 
L 286.991435 253.576343 
L 288.983691 255.249004 
L 290.975947 256.878756 
L 292.968204 258.458739 
L 294.96046 259.982647 
L 296.952716 261.44476 
L 298.944972 262.839974 
L 300.937229 264.163827 
L 302.929485 265.412529 
L 304.921741 266.582982 
L 306.913997 267.672796 
L 308.906254 268.680307 
L 310.89851 269.60458 
L 312.890766 270.445413 
L 314.883023 271.203326 
L 316.875279 271.879548 
L 318.867535 272.475992 
L 320.859791 272.995223 
L 322.852048 273.440417 
L 324.844304 273.815316 
L 326.83656 274.124172 
L 328.828817 274.371688 
L 330.821073 274.562956 
L 332.813329 274.703389 
L 334.805585 274.798657 
L 336.797842 274.854614 
L 338.790098 274.877239 
L 340.782354 274.872562 
L 342.774611 274.84661 
L 344.766867 274.805336 
L 346.759123 274.754571 
L 348.751379 274.699957 
L 350.743636 274.6469 
L 352.735892 274.600505 
L 354.728148 274.565524 
L 356.720405 274.546298 
L 358.712661 274.546689 
L 360.704917 274.570016 
L 362.697173 274.618986 
L 364.68943 274.695615 
L 366.681686 274.80115 
L 368.673942 274.935985 
L 370.666198 275.09957 
L 372.658455 275.290331 
L 374.650711 275.505579 
L 376.642967 275.741431 
L 378.635224 275.992741 
L 380.62748 276.253039 
L 382.619736 276.514492 
L 384.611992 276.767892 
L 386.604249 277.002675 
L 388.596505 277.206975 
L 390.588761 277.367732 
L 392.581018 277.470844 
L 394.573274 277.501384 
L 396.56553 277.443871 
L 398.557786 277.282597 
L 400.550043 277.002005 
L 402.542299 276.5871 
L 404.534555 276.02388 
L 406.526812 275.299756 
L 408.519068 274.403939 
L 410.511324 273.32778 
L 412.50358 272.065015 
L 414.495837 270.611937 
L 416.488093 268.967455 
L 418.480349 267.133068 
L 420.472606 265.112745 
L 422.464862 262.912746 
L 424.457118 260.541386 
L 426.449374 258.008764 
L 428.441631 255.326487 
L 430.433887 252.507381 
L 432.426143 249.565219 
L 434.418399 246.514464 
L 436.410656 243.370031 
L 438.402912 240.147075 
L 440.395168 236.860794 
L 442.387425 233.526266 
L 444.379681 230.158297 
L 446.371937 226.771294 
L 448.364193 223.37915 
L 450.35645 219.995154 
L 452.348706 216.631904 
L 454.340962 213.301246 
L 456.333219 210.014213 
L 458.325475 206.780992 
L 460.317731 203.610881 
L 462.309987 200.512279 
L 464.302244 197.49267 
L 466.2945 194.558618 
L 466.2945 423.703636 
L 464.302244 423.220335 
L 462.309987 422.654309 
L 460.317731 422.004098 
L 458.325475 421.268921 
L 456.333219 420.448731 
L 454.340962 419.544262 
L 452.348706 418.55708 
L 450.35645 417.489616 
L 448.364193 416.345197 
L 446.371937 415.128066 
L 444.379681 413.84339 
L 442.387425 412.497254 
L 440.395168 411.096645 
L 438.402912 409.649413 
L 436.410656 408.164213 
L 434.418399 406.650429 
L 432.426143 405.118067 
L 430.433887 403.57763 
L 428.441631 402.039952 
L 426.449374 400.516011 
L 424.457118 399.016713 
L 422.464862 397.552651 
L 420.472606 396.133842 
L 418.480349 394.769457 
L 416.488093 393.467561 
L 414.495837 392.234868 
L 412.50358 391.076542 
L 410.511324 389.996049 
L 408.519068 388.995092 
L 406.526812 388.073621 
L 404.534555 387.229942 
L 402.542299 386.460894 
L 400.550043 385.762107 
L 398.557786 385.128302 
L 396.56553 384.553614 
L 394.573274 384.031924 
L 392.581018 383.557156 
L 390.588761 383.123544 
L 388.596505 382.725844 
L 386.604249 382.359488 
L 384.611992 382.02068 
L 382.619736 381.706431 
L 380.62748 381.414551 
L 378.635224 381.143595 
L 376.642967 380.892776 
L 374.650711 380.661848 
L 372.658455 380.450982 
L 370.666198 380.260623 
L 368.673942 380.091347 
L 366.681686 379.943722 
L 364.68943 379.818176 
L 362.697173 379.714877 
L 360.704917 379.633625 
L 358.712661 379.573765 
L 356.720405 379.534116 
L 354.728148 379.512922 
L 352.735892 379.507821 
L 350.743636 379.515831 
L 348.751379 379.533366 
L 346.759123 379.556252 
L 344.766867 379.579774 
L 342.774611 379.598725 
L 340.782354 379.607477 
L 338.790098 379.600055 
L 336.797842 379.570216 
L 334.805585 379.511542 
L 332.813329 379.417528 
L 330.821073 379.281678 
L 328.828817 379.097598 
L 326.83656 378.859089 
L 324.844304 378.560246 
L 322.852048 378.195541 
L 320.859791 377.759917 
L 318.867535 377.248872 
L 316.875279 376.658541 
L 314.883023 375.98577 
L 312.890766 375.228193 
L 310.89851 374.384291 
L 308.906254 373.45345 
L 306.913997 372.436014 
L 304.921741 371.333315 
L 302.929485 370.147704 
L 300.937229 368.882557 
L 298.944972 367.542275 
L 296.952716 366.132261 
L 294.96046 364.658879 
L 292.968204 363.1294 
L 290.975947 361.551922 
L 288.983691 359.935275 
L 286.991435 358.288906 
L 284.999178 356.622751 
L 283.006922 354.947084 
L 281.014666 353.272367 
L 279.02241 351.609076 
L 277.030153 349.96754 
L 275.037897 348.357763 
L 273.045641 346.789261 
L 271.053384 345.270904 
L 269.061128 343.81077 
L 267.068872 342.416012 
L 265.076616 341.092749 
L 263.084359 339.845972 
L 261.092103 338.679474 
L 259.099847 337.595804 
L 257.10759 336.596238 
L 255.115334 335.680774 
L 253.123078 334.848142 
L 251.130822 334.09584 
L 249.138565 333.420172 
L 247.146309 332.81631 
L 245.154053 332.278359 
L 243.161796 331.799434 
L 241.16954 331.371744 
L 239.177284 330.986674 
L 237.185028 330.634877 
L 235.192771 330.306364 
L 233.200515 329.990591 
L 231.208259 329.676552 
L 229.216003 329.352862 
L 227.223746 329.007843 
L 225.23149 328.629606 
L 223.239234 328.206127 
L 221.246977 327.72533 
L 219.254721 327.175155 
L 217.262465 326.54364 
L 215.270209 325.818997 
L 213.277952 324.989691 
L 211.285696 324.044531 
L 209.29344 322.972758 
L 207.301183 321.764149 
L 205.308927 320.40913 
L 203.316671 318.898896 
L 201.324415 317.22554 
L 199.332158 315.382191 
L 197.339902 313.363159 
L 195.347646 311.164075 
L 193.355389 308.782041 
L 191.363133 306.215756 
L 189.370877 303.465652 
L 187.378621 300.533996 
L 185.386364 297.424989 
L 183.394108 294.144834 
L 181.401852 290.701779 
L 179.409595 287.106147 
L 177.417339 283.370325 
L 175.425083 279.50874 
L 173.432827 275.537802 
L 171.44057 271.475832 
L 169.448314 267.342966 
L 167.456058 263.161039 
L 165.463802 258.953462 
L 163.471545 254.745072 
L 161.479289 250.561985 
L 159.487033 246.431425 
L 157.494776 242.381554 
L 155.50252 238.44128 
L 153.510264 234.640058 
L 151.518008 231.007673 
L 149.525751 227.574004 
L 147.533495 224.368758 
L 145.541239 221.42118 
L 143.548982 218.75973 
L 141.556726 216.411723 
L 139.56447 214.402935 
L 137.572214 212.757191 
L 135.579957 211.495929 
L 133.587701 210.637766 
L 131.595445 210.198094 
L 129.603188 210.188713 
L 127.610932 210.617539 
L 125.618676 211.488397 
L 123.62642 212.800925 
L 121.634163 214.550576 
L 119.641907 216.72874 
L 117.649651 219.322953 
L 115.657394 222.317189 
L 113.665138 225.692214 
L 111.672882 229.425978 
L 109.680626 233.494031 
L 107.688369 237.869944 
L 105.696113 242.525721 
L 103.703857 247.432197 
L 101.711601 252.559417 
L 99.719344 257.876982 
L 97.727088 263.354377 
L 95.734832 268.96127 
L 93.742575 274.667775 
L 91.750319 280.444703 
L 89.758063 286.263773 
L 87.765807 292.097809 
L 85.77355 297.92091 
L 83.781294 303.708587 
L 81.789038 309.437894 
L 79.796781 315.087519 
L 77.804525 320.63787 
L 75.812269 326.071121 
L 73.820013 331.371258 
L 71.827756 336.524089 
L 69.8355 341.517245 
z
" style="fill:#cc3300;opacity:0.3;stroke:#cc3300;stroke-linejoin:miter;stroke-width:0.5;"/>
   </g>
   <g id="matplotlib.axis_1">
    <g id="xtick_1">
     <g id="line2d_1">
      <defs>
       <path d="M 0 0 
L 0 3.5 
" id="m9d95f23da9" style="stroke:#000000;stroke-width:0.8;"/>
      </defs>
      <g>
       <use style="stroke:#000000;stroke-width:0.8;" x="87.4125" xlink:href="#m9d95f23da9" y="441"/>
      </g>
     </g>
     <g id="text_1">
      <!-- 1880 -->
      <defs>
       <path d="M 12.40625 8.296875 
L 28.515625 8.296875 
L 28.515625 63.921875 
L 10.984375 60.40625 
L 10.984375 69.390625 
L 28.421875 72.90625 
L 38.28125 72.90625 
L 38.28125 8.296875 
L 54.390625 8.296875 
L 54.390625 0 
L 12.40625 0 
z
" id="DejaVuSans-31"/>
       <path d="M 31.78125 34.625 
Q 24.75 34.625 20.71875 30.859375 
Q 16.703125 27.09375 16.703125 20.515625 
Q 16.703125 13.921875 20.71875 10.15625 
Q 24.75 6.390625 31.78125 6.390625 
Q 38.8125 6.390625 42.859375 10.171875 
Q 46.921875 13.96875 46.921875 20.515625 
Q 46.921875 27.09375 42.890625 30.859375 
Q 38.875 34.625 31.78125 34.625 
z
M 21.921875 38.8125 
Q 15.578125 40.375 12.03125 44.71875 
Q 8.5 49.078125 8.5 55.328125 
Q 8.5 64.0625 14.71875 69.140625 
Q 20.953125 74.21875 31.78125 74.21875 
Q 42.671875 74.21875 48.875 69.140625 
Q 55.078125 64.0625 55.078125 55.328125 
Q 55.078125 49.078125 51.53125 44.71875 
Q 48 40.375 41.703125 38.8125 
Q 48.828125 37.15625 52.796875 32.3125 
Q 56.78125 27.484375 56.78125 20.515625 
Q 56.78125 9.90625 50.3125 4.234375 
Q 43.84375 -1.421875 31.78125 -1.421875 
Q 19.734375 -1.421875 13.25 4.234375 
Q 6.78125 9.90625 6.78125 20.515625 
Q 6.78125 27.484375 10.78125 32.3125 
Q 14.796875 37.15625 21.921875 38.8125 
z
M 18.3125 54.390625 
Q 18.3125 48.734375 21.84375 45.5625 
Q 25.390625 42.390625 31.78125 42.390625 
Q 38.140625 42.390625 41.71875 45.5625 
Q 45.3125 48.734375 45.3125 54.390625 
Q 45.3125 60.0625 41.71875 63.234375 
Q 38.140625 66.40625 31.78125 66.40625 
Q 25.390625 66.40625 21.84375 63.234375 
Q 18.3125 60.0625 18.3125 54.390625 
z
" id="DejaVuSans-38"/>
       <path d="M 31.78125 66.40625 
Q 24.171875 66.40625 20.328125 58.90625 
Q 16.5 51.421875 16.5 36.375 
Q 16.5 21.390625 20.328125 13.890625 
Q 24.171875 6.390625 31.78125 6.390625 
Q 39.453125 6.390625 43.28125 13.890625 
Q 47.125 21.390625 47.125 36.375 
Q 47.125 51.421875 43.28125 58.90625 
Q 39.453125 66.40625 31.78125 66.40625 
z
M 31.78125 74.21875 
Q 44.046875 74.21875 50.515625 64.515625 
Q 56.984375 54.828125 56.984375 36.375 
Q 56.984375 17.96875 50.515625 8.265625 
Q 44.046875 -1.421875 31.78125 -1.421875 
Q 19.53125 -1.421875 13.0625 8.265625 
Q 6.59375 17.96875 6.59375 36.375 
Q 6.59375 54.828125 13.0625 64.515625 
Q 19.53125 74.21875 31.78125 74.21875 
z
" id="DejaVuSans-30"/>
      </defs>
      <g transform="translate(74.6875 455.598437)scale(0.1 -0.1)">
       <use xlink:href="#DejaVuSans-31"/>
       <use x="63.623047" xlink:href="#DejaVuSans-38"/>
       <use x="127.246094" xlink:href="#DejaVuSans-38"/>
       <use x="190.869141" xlink:href="#DejaVuSans-30"/>
      </g>
     </g>
    </g>
    <g id="xtick_2">
     <g id="line2d_2">
      <g>
       <use style="stroke:#000000;stroke-width:0.8;" x="136.2375" xlink:href="#m9d95f23da9" y="441"/>
      </g>
     </g>
     <g id="text_2">
      <!-- 1900 -->
      <defs>
       <path d="M 10.984375 1.515625 
L 10.984375 10.5 
Q 14.703125 8.734375 18.5 7.8125 
Q 22.3125 6.890625 25.984375 6.890625 
Q 35.75 6.890625 40.890625 13.453125 
Q 46.046875 20.015625 46.78125 33.40625 
Q 43.953125 29.203125 39.59375 26.953125 
Q 35.25 24.703125 29.984375 24.703125 
Q 19.046875 24.703125 12.671875 31.3125 
Q 6.296875 37.9375 6.296875 49.421875 
Q 6.296875 60.640625 12.9375 67.421875 
Q 19.578125 74.21875 30.609375 74.21875 
Q 43.265625 74.21875 49.921875 64.515625 
Q 56.59375 54.828125 56.59375 36.375 
Q 56.59375 19.140625 48.40625 8.859375 
Q 40.234375 -1.421875 26.421875 -1.421875 
Q 22.703125 -1.421875 18.890625 -0.6875 
Q 15.09375 0.046875 10.984375 1.515625 
z
M 30.609375 32.421875 
Q 37.25 32.421875 41.125 36.953125 
Q 45.015625 41.5 45.015625 49.421875 
Q 45.015625 57.28125 41.125 61.84375 
Q 37.25 66.40625 30.609375 66.40625 
Q 23.96875 66.40625 20.09375 61.84375 
Q 16.21875 57.28125 16.21875 49.421875 
Q 16.21875 41.5 20.09375 36.953125 
Q 23.96875 32.421875 30.609375 32.421875 
z
" id="DejaVuSans-39"/>
      </defs>
      <g transform="translate(123.5125 455.598437)scale(0.1 -0.1)">
       <use xlink:href="#DejaVuSans-31"/>
       <use x="63.623047" xlink:href="#DejaVuSans-39"/>
       <use x="127.246094" xlink:href="#DejaVuSans-30"/>
       <use x="190.869141" xlink:href="#DejaVuSans-30"/>
      </g>
     </g>
    </g>
    <g id="xtick_3">
     <g id="line2d_3">
      <g>
       <use style="stroke:#000000;stroke-width:0.8;" x="185.0625" xlink:href="#m9d95f23da9" y="441"/>
      </g>
     </g>
     <g id="text_3">
      <!-- 1920 -->
      <defs>
       <path d="M 19.1875 8.296875 
L 53.609375 8.296875 
L 53.609375 0 
L 7.328125 0 
L 7.328125 8.296875 
Q 12.9375 14.109375 22.625 23.890625 
Q 32.328125 33.6875 34.8125 36.53125 
Q 39.546875 41.84375 41.421875 45.53125 
Q 43.3125 49.21875 43.3125 52.78125 
Q 43.3125 58.59375 39.234375 62.25 
Q 35.15625 65.921875 28.609375 65.921875 
Q 23.96875 65.921875 18.8125 64.3125 
Q 13.671875 62.703125 7.8125 59.421875 
L 7.8125 69.390625 
Q 13.765625 71.78125 18.9375 73 
Q 24.125 74.21875 28.421875 74.21875 
Q 39.75 74.21875 46.484375 68.546875 
Q 53.21875 62.890625 53.21875 53.421875 
Q 53.21875 48.921875 51.53125 44.890625 
Q 49.859375 40.875 45.40625 35.40625 
Q 44.1875 33.984375 37.640625 27.21875 
Q 31.109375 20.453125 19.1875 8.296875 
z
" id="DejaVuSans-32"/>
      </defs>
      <g transform="translate(172.3375 455.598437)scale(0.1 -0.1)">
       <use xlink:href="#DejaVuSans-31"/>
       <use x="63.623047" xlink:href="#DejaVuSans-39"/>
       <use x="127.246094" xlink:href="#DejaVuSans-32"/>
       <use x="190.869141" xlink:href="#DejaVuSans-30"/>
      </g>
     </g>
    </g>
    <g id="xtick_4">
     <g id="line2d_4">
      <g>
       <use style="stroke:#000000;stroke-width:0.8;" x="233.8875" xlink:href="#m9d95f23da9" y="441"/>
      </g>
     </g>
     <g id="text_4">
      <!-- 1940 -->
      <defs>
       <path d="M 37.796875 64.3125 
L 12.890625 25.390625 
L 37.796875 25.390625 
z
M 35.203125 72.90625 
L 47.609375 72.90625 
L 47.609375 25.390625 
L 58.015625 25.390625 
L 58.015625 17.1875 
L 47.609375 17.1875 
L 47.609375 0 
L 37.796875 0 
L 37.796875 17.1875 
L 4.890625 17.1875 
L 4.890625 26.703125 
z
" id="DejaVuSans-34"/>
      </defs>
      <g transform="translate(221.1625 455.598437)scale(0.1 -0.1)">
       <use xlink:href="#DejaVuSans-31"/>
       <use x="63.623047" xlink:href="#DejaVuSans-39"/>
       <use x="127.246094" xlink:href="#DejaVuSans-34"/>
       <use x="190.869141" xlink:href="#DejaVuSans-30"/>
      </g>
     </g>
    </g>
    <g id="xtick_5">
     <g id="line2d_5">
      <g>
       <use style="stroke:#000000;stroke-width:0.8;" x="282.7125" xlink:href="#m9d95f23da9" y="441"/>
      </g>
     </g>
     <g id="text_5">
      <!-- 1960 -->
      <defs>
       <path d="M 33.015625 40.375 
Q 26.375 40.375 22.484375 35.828125 
Q 18.609375 31.296875 18.609375 23.390625 
Q 18.609375 15.53125 22.484375 10.953125 
Q 26.375 6.390625 33.015625 6.390625 
Q 39.65625 6.390625 43.53125 10.953125 
Q 47.40625 15.53125 47.40625 23.390625 
Q 47.40625 31.296875 43.53125 35.828125 
Q 39.65625 40.375 33.015625 40.375 
z
M 52.59375 71.296875 
L 52.59375 62.3125 
Q 48.875 64.0625 45.09375 64.984375 
Q 41.3125 65.921875 37.59375 65.921875 
Q 27.828125 65.921875 22.671875 59.328125 
Q 17.53125 52.734375 16.796875 39.40625 
Q 19.671875 43.65625 24.015625 45.921875 
Q 28.375 48.1875 33.59375 48.1875 
Q 44.578125 48.1875 50.953125 41.515625 
Q 57.328125 34.859375 57.328125 23.390625 
Q 57.328125 12.15625 50.6875 5.359375 
Q 44.046875 -1.421875 33.015625 -1.421875 
Q 20.359375 -1.421875 13.671875 8.265625 
Q 6.984375 17.96875 6.984375 36.375 
Q 6.984375 53.65625 15.1875 63.9375 
Q 23.390625 74.21875 37.203125 74.21875 
Q 40.921875 74.21875 44.703125 73.484375 
Q 48.484375 72.75 52.59375 71.296875 
z
" id="DejaVuSans-36"/>
      </defs>
      <g transform="translate(269.9875 455.598437)scale(0.1 -0.1)">
       <use xlink:href="#DejaVuSans-31"/>
       <use x="63.623047" xlink:href="#DejaVuSans-39"/>
       <use x="127.246094" xlink:href="#DejaVuSans-36"/>
       <use x="190.869141" xlink:href="#DejaVuSans-30"/>
      </g>
     </g>
    </g>
    <g id="xtick_6">
     <g id="line2d_6">
      <g>
       <use style="stroke:#000000;stroke-width:0.8;" x="331.5375" xlink:href="#m9d95f23da9" y="441"/>
      </g>
     </g>
     <g id="text_6">
      <!-- 1980 -->
      <g transform="translate(318.8125 455.598437)scale(0.1 -0.1)">
       <use xlink:href="#DejaVuSans-31"/>
       <use x="63.623047" xlink:href="#DejaVuSans-39"/>
       <use x="127.246094" xlink:href="#DejaVuSans-38"/>
       <use x="190.869141" xlink:href="#DejaVuSans-30"/>
      </g>
     </g>
    </g>
    <g id="xtick_7">
     <g id="line2d_7">
      <g>
       <use style="stroke:#000000;stroke-width:0.8;" x="380.3625" xlink:href="#m9d95f23da9" y="441"/>
      </g>
     </g>
     <g id="text_7">
      <!-- 2000 -->
      <g transform="translate(367.6375 455.598437)scale(0.1 -0.1)">
       <use xlink:href="#DejaVuSans-32"/>
       <use x="63.623047" xlink:href="#DejaVuSans-30"/>
       <use x="127.246094" xlink:href="#DejaVuSans-30"/>
       <use x="190.869141" xlink:href="#DejaVuSans-30"/>
      </g>
     </g>
    </g>
    <g id="xtick_8">
     <g id="line2d_8">
      <g>
       <use style="stroke:#000000;stroke-width:0.8;" x="429.1875" xlink:href="#m9d95f23da9" y="441"/>
      </g>
     </g>
     <g id="text_8">
      <!-- 2020 -->
      <g transform="translate(416.4625 455.598437)scale(0.1 -0.1)">
       <use xlink:href="#DejaVuSans-32"/>
       <use x="63.623047" xlink:href="#DejaVuSans-30"/>
       <use x="127.246094" xlink:href="#DejaVuSans-32"/>
       <use x="190.869141" xlink:href="#DejaVuSans-30"/>
      </g>
     </g>
    </g>
    <g id="text_9">
     <!-- year -->
     <defs>
      <path d="M 32.171875 -5.078125 
Q 28.375 -14.84375 24.75 -17.8125 
Q 21.140625 -20.796875 15.09375 -20.796875 
L 7.90625 -20.796875 
L 7.90625 -13.28125 
L 13.1875 -13.28125 
Q 16.890625 -13.28125 18.9375 -11.515625 
Q 21 -9.765625 23.484375 -3.21875 
L 25.09375 0.875 
L 2.984375 54.6875 
L 12.5 54.6875 
L 29.59375 11.921875 
L 46.6875 54.6875 
L 56.203125 54.6875 
z
" id="DejaVuSans-79"/>
      <path d="M 56.203125 29.59375 
L 56.203125 25.203125 
L 14.890625 25.203125 
Q 15.484375 15.921875 20.484375 11.0625 
Q 25.484375 6.203125 34.421875 6.203125 
Q 39.59375 6.203125 44.453125 7.46875 
Q 49.3125 8.734375 54.109375 11.28125 
L 54.109375 2.78125 
Q 49.265625 0.734375 44.1875 -0.34375 
Q 39.109375 -1.421875 33.890625 -1.421875 
Q 20.796875 -1.421875 13.15625 6.1875 
Q 5.515625 13.8125 5.515625 26.8125 
Q 5.515625 40.234375 12.765625 48.109375 
Q 20.015625 56 32.328125 56 
Q 43.359375 56 49.78125 48.890625 
Q 56.203125 41.796875 56.203125 29.59375 
z
M 47.21875 32.234375 
Q 47.125 39.59375 43.09375 43.984375 
Q 39.0625 48.390625 32.421875 48.390625 
Q 24.90625 48.390625 20.390625 44.140625 
Q 15.875 39.890625 15.1875 32.171875 
z
" id="DejaVuSans-65"/>
      <path d="M 34.28125 27.484375 
Q 23.390625 27.484375 19.1875 25 
Q 14.984375 22.515625 14.984375 16.5 
Q 14.984375 11.71875 18.140625 8.90625 
Q 21.296875 6.109375 26.703125 6.109375 
Q 34.1875 6.109375 38.703125 11.40625 
Q 43.21875 16.703125 43.21875 25.484375 
L 43.21875 27.484375 
z
M 52.203125 31.203125 
L 52.203125 0 
L 43.21875 0 
L 43.21875 8.296875 
Q 40.140625 3.328125 35.546875 0.953125 
Q 30.953125 -1.421875 24.3125 -1.421875 
Q 15.921875 -1.421875 10.953125 3.296875 
Q 6 8.015625 6 15.921875 
Q 6 25.140625 12.171875 29.828125 
Q 18.359375 34.515625 30.609375 34.515625 
L 43.21875 34.515625 
L 43.21875 35.40625 
Q 43.21875 41.609375 39.140625 45 
Q 35.0625 48.390625 27.6875 48.390625 
Q 23 48.390625 18.546875 47.265625 
Q 14.109375 46.140625 10.015625 43.890625 
L 10.015625 52.203125 
Q 14.9375 54.109375 19.578125 55.046875 
Q 24.21875 56 28.609375 56 
Q 40.484375 56 46.34375 49.84375 
Q 52.203125 43.703125 52.203125 31.203125 
z
" id="DejaVuSans-61"/>
      <path d="M 41.109375 46.296875 
Q 39.59375 47.171875 37.8125 47.578125 
Q 36.03125 48 33.890625 48 
Q 26.265625 48 22.1875 43.046875 
Q 18.109375 38.09375 18.109375 28.8125 
L 18.109375 0 
L 9.078125 0 
L 9.078125 54.6875 
L 18.109375 54.6875 
L 18.109375 46.1875 
Q 20.953125 51.171875 25.484375 53.578125 
Q 30.03125 56 36.53125 56 
Q 37.453125 56 38.578125 55.875 
Q 39.703125 55.765625 41.0625 55.515625 
z
" id="DejaVuSans-72"/>
     </defs>
     <g transform="translate(235.989063 476.875)scale(0.2 -0.2)">
      <use xlink:href="#DejaVuSans-79"/>
      <use x="59.179688" xlink:href="#DejaVuSans-65"/>
      <use x="120.703125" xlink:href="#DejaVuSans-61"/>
      <use x="181.982422" xlink:href="#DejaVuSans-72"/>
     </g>
    </g>
   </g>
   <g id="matplotlib.axis_2">
    <g id="ytick_1">
     <g id="line2d_9">
      <defs>
       <path d="M 0 0 
L -3.5 0 
" id="m5b99973110" style="stroke:#000000;stroke-width:0.8;"/>
      </defs>
      <g>
       <use style="stroke:#000000;stroke-width:0.8;" x="63" xlink:href="#m5b99973110" y="406.83546"/>
      </g>
     </g>
     <g id="text_10">
      <!-- −2 -->
      <defs>
       <path d="M 10.59375 35.5 
L 73.1875 35.5 
L 73.1875 27.203125 
L 10.59375 27.203125 
z
" id="DejaVuSans-2212"/>
      </defs>
      <g transform="translate(41.257812 410.634679)scale(0.1 -0.1)">
       <use xlink:href="#DejaVuSans-2212"/>
       <use x="83.789062" xlink:href="#DejaVuSans-32"/>
      </g>
     </g>
    </g>
    <g id="ytick_2">
     <g id="line2d_10">
      <g>
       <use style="stroke:#000000;stroke-width:0.8;" x="63" xlink:href="#m5b99973110" y="343.770466"/>
      </g>
     </g>
     <g id="text_11">
      <!-- −1 -->
      <g transform="translate(41.257812 347.569685)scale(0.1 -0.1)">
       <use xlink:href="#DejaVuSans-2212"/>
       <use x="83.789062" xlink:href="#DejaVuSans-31"/>
      </g>
     </g>
    </g>
    <g id="ytick_3">
     <g id="line2d_11">
      <g>
       <use style="stroke:#000000;stroke-width:0.8;" x="63" xlink:href="#m5b99973110" y="280.705472"/>
      </g>
     </g>
     <g id="text_12">
      <!-- 0 -->
      <g transform="translate(49.6375 284.504691)scale(0.1 -0.1)">
       <use xlink:href="#DejaVuSans-30"/>
      </g>
     </g>
    </g>
    <g id="ytick_4">
     <g id="line2d_12">
      <g>
       <use style="stroke:#000000;stroke-width:0.8;" x="63" xlink:href="#m5b99973110" y="217.640478"/>
      </g>
     </g>
     <g id="text_13">
      <!-- 1 -->
      <g transform="translate(49.6375 221.439697)scale(0.1 -0.1)">
       <use xlink:href="#DejaVuSans-31"/>
      </g>
     </g>
    </g>
    <g id="ytick_5">
     <g id="line2d_13">
      <g>
       <use style="stroke:#000000;stroke-width:0.8;" x="63" xlink:href="#m5b99973110" y="154.575484"/>
      </g>
     </g>
     <g id="text_14">
      <!-- 2 -->
      <g transform="translate(49.6375 158.374703)scale(0.1 -0.1)">
       <use xlink:href="#DejaVuSans-32"/>
      </g>
     </g>
    </g>
    <g id="ytick_6">
     <g id="line2d_14">
      <g>
       <use style="stroke:#000000;stroke-width:0.8;" x="63" xlink:href="#m5b99973110" y="91.51049"/>
      </g>
     </g>
     <g id="text_15">
      <!-- 3 -->
      <defs>
       <path d="M 40.578125 39.3125 
Q 47.65625 37.796875 51.625 33 
Q 55.609375 28.21875 55.609375 21.1875 
Q 55.609375 10.40625 48.1875 4.484375 
Q 40.765625 -1.421875 27.09375 -1.421875 
Q 22.515625 -1.421875 17.65625 -0.515625 
Q 12.796875 0.390625 7.625 2.203125 
L 7.625 11.71875 
Q 11.71875 9.328125 16.59375 8.109375 
Q 21.484375 6.890625 26.8125 6.890625 
Q 36.078125 6.890625 40.9375 10.546875 
Q 45.796875 14.203125 45.796875 21.1875 
Q 45.796875 27.640625 41.28125 31.265625 
Q 36.765625 34.90625 28.71875 34.90625 
L 20.21875 34.90625 
L 20.21875 43.015625 
L 29.109375 43.015625 
Q 36.375 43.015625 40.234375 45.921875 
Q 44.09375 48.828125 44.09375 54.296875 
Q 44.09375 59.90625 40.109375 62.90625 
Q 36.140625 65.921875 28.71875 65.921875 
Q 24.65625 65.921875 20.015625 65.03125 
Q 15.375 64.15625 9.8125 62.3125 
L 9.8125 71.09375 
Q 15.4375 72.65625 20.34375 73.4375 
Q 25.25 74.21875 29.59375 74.21875 
Q 40.828125 74.21875 47.359375 69.109375 
Q 53.90625 64.015625 53.90625 55.328125 
Q 53.90625 49.265625 50.4375 45.09375 
Q 46.96875 40.921875 40.578125 39.3125 
z
" id="DejaVuSans-33"/>
      </defs>
      <g transform="translate(49.6375 95.309709)scale(0.1 -0.1)">
       <use xlink:href="#DejaVuSans-33"/>
      </g>
     </g>
    </g>
    <g id="text_16">
     <!-- pace min/km -->
     <defs>
      <path d="M 18.109375 8.203125 
L 18.109375 -20.796875 
L 9.078125 -20.796875 
L 9.078125 54.6875 
L 18.109375 54.6875 
L 18.109375 46.390625 
Q 20.953125 51.265625 25.265625 53.625 
Q 29.59375 56 35.59375 56 
Q 45.5625 56 51.78125 48.09375 
Q 58.015625 40.1875 58.015625 27.296875 
Q 58.015625 14.40625 51.78125 6.484375 
Q 45.5625 -1.421875 35.59375 -1.421875 
Q 29.59375 -1.421875 25.265625 0.953125 
Q 20.953125 3.328125 18.109375 8.203125 
z
M 48.6875 27.296875 
Q 48.6875 37.203125 44.609375 42.84375 
Q 40.53125 48.484375 33.40625 48.484375 
Q 26.265625 48.484375 22.1875 42.84375 
Q 18.109375 37.203125 18.109375 27.296875 
Q 18.109375 17.390625 22.1875 11.75 
Q 26.265625 6.109375 33.40625 6.109375 
Q 40.53125 6.109375 44.609375 11.75 
Q 48.6875 17.390625 48.6875 27.296875 
z
" id="DejaVuSans-70"/>
      <path d="M 48.78125 52.59375 
L 48.78125 44.1875 
Q 44.96875 46.296875 41.140625 47.34375 
Q 37.3125 48.390625 33.40625 48.390625 
Q 24.65625 48.390625 19.8125 42.84375 
Q 14.984375 37.3125 14.984375 27.296875 
Q 14.984375 17.28125 19.8125 11.734375 
Q 24.65625 6.203125 33.40625 6.203125 
Q 37.3125 6.203125 41.140625 7.25 
Q 44.96875 8.296875 48.78125 10.40625 
L 48.78125 2.09375 
Q 45.015625 0.34375 40.984375 -0.53125 
Q 36.96875 -1.421875 32.421875 -1.421875 
Q 20.0625 -1.421875 12.78125 6.34375 
Q 5.515625 14.109375 5.515625 27.296875 
Q 5.515625 40.671875 12.859375 48.328125 
Q 20.21875 56 33.015625 56 
Q 37.15625 56 41.109375 55.140625 
Q 45.0625 54.296875 48.78125 52.59375 
z
" id="DejaVuSans-63"/>
      <path id="DejaVuSans-20"/>
      <path d="M 52 44.1875 
Q 55.375 50.25 60.0625 53.125 
Q 64.75 56 71.09375 56 
Q 79.640625 56 84.28125 50.015625 
Q 88.921875 44.046875 88.921875 33.015625 
L 88.921875 0 
L 79.890625 0 
L 79.890625 32.71875 
Q 79.890625 40.578125 77.09375 44.375 
Q 74.3125 48.1875 68.609375 48.1875 
Q 61.625 48.1875 57.5625 43.546875 
Q 53.515625 38.921875 53.515625 30.90625 
L 53.515625 0 
L 44.484375 0 
L 44.484375 32.71875 
Q 44.484375 40.625 41.703125 44.40625 
Q 38.921875 48.1875 33.109375 48.1875 
Q 26.21875 48.1875 22.15625 43.53125 
Q 18.109375 38.875 18.109375 30.90625 
L 18.109375 0 
L 9.078125 0 
L 9.078125 54.6875 
L 18.109375 54.6875 
L 18.109375 46.1875 
Q 21.1875 51.21875 25.484375 53.609375 
Q 29.78125 56 35.6875 56 
Q 41.65625 56 45.828125 52.96875 
Q 50 49.953125 52 44.1875 
z
" id="DejaVuSans-6d"/>
      <path d="M 9.421875 54.6875 
L 18.40625 54.6875 
L 18.40625 0 
L 9.421875 0 
z
M 9.421875 75.984375 
L 18.40625 75.984375 
L 18.40625 64.59375 
L 9.421875 64.59375 
z
" id="DejaVuSans-69"/>
      <path d="M 54.890625 33.015625 
L 54.890625 0 
L 45.90625 0 
L 45.90625 32.71875 
Q 45.90625 40.484375 42.875 44.328125 
Q 39.84375 48.1875 33.796875 48.1875 
Q 26.515625 48.1875 22.3125 43.546875 
Q 18.109375 38.921875 18.109375 30.90625 
L 18.109375 0 
L 9.078125 0 
L 9.078125 54.6875 
L 18.109375 54.6875 
L 18.109375 46.1875 
Q 21.34375 51.125 25.703125 53.5625 
Q 30.078125 56 35.796875 56 
Q 45.21875 56 50.046875 50.171875 
Q 54.890625 44.34375 54.890625 33.015625 
z
" id="DejaVuSans-6e"/>
      <path d="M 25.390625 72.90625 
L 33.6875 72.90625 
L 8.296875 -9.28125 
L 0 -9.28125 
z
" id="DejaVuSans-2f"/>
      <path d="M 9.078125 75.984375 
L 18.109375 75.984375 
L 18.109375 31.109375 
L 44.921875 54.6875 
L 56.390625 54.6875 
L 27.390625 29.109375 
L 57.625 0 
L 45.90625 0 
L 18.109375 26.703125 
L 18.109375 0 
L 9.078125 0 
z
" id="DejaVuSans-6b"/>
     </defs>
     <g transform="translate(33.098437 315.8025)rotate(-90)scale(0.2 -0.2)">
      <use xlink:href="#DejaVuSans-70"/>
      <use x="63.476562" xlink:href="#DejaVuSans-61"/>
      <use x="124.755859" xlink:href="#DejaVuSans-63"/>
      <use x="179.736328" xlink:href="#DejaVuSans-65"/>
      <use x="241.259766" xlink:href="#DejaVuSans-20"/>
      <use x="273.046875" xlink:href="#DejaVuSans-6d"/>
      <use x="370.458984" xlink:href="#DejaVuSans-69"/>
      <use x="398.242188" xlink:href="#DejaVuSans-6e"/>
      <use x="461.621094" xlink:href="#DejaVuSans-2f"/>
      <use x="495.3125" xlink:href="#DejaVuSans-6b"/>
      <use x="553.222656" xlink:href="#DejaVuSans-6d"/>
     </g>
    </g>
   </g>
   <g id="line2d_15">
    <defs>
     <path d="M 0 2.5 
C 0.663008 2.5 1.29895 2.236584 1.767767 1.767767 
C 2.236584 1.29895 2.5 0.663008 2.5 0 
C 2.5 -0.663008 2.236584 -1.29895 1.767767 -1.767767 
C 1.29895 -2.236584 0.663008 -2.5 0 -2.5 
C -0.663008 -2.5 -1.29895 -2.236584 -1.767767 -1.767767 
C -2.236584 -1.29895 -2.5 -0.663008 -2.5 0 
C -2.5 0.663008 -2.236584 1.29895 -1.767767 1.767767 
C -1.29895 2.236584 -0.663008 2.5 0 2.5 
z
" id="m1a9682487f" style="stroke:#ff0000;"/>
    </defs>
    <g clip-path="url(#p5e181f85bd)">
     <use style="fill:#ff0000;stroke:#ff0000;" x="126.4725" xlink:href="#m1a9682487f" y="166.367584"/>
     <use style="fill:#ff0000;stroke:#ff0000;" x="136.2375" xlink:href="#m1a9682487f" y="167.087408"/>
     <use style="fill:#ff0000;stroke:#ff0000;" x="146.0025" xlink:href="#m1a9682487f" y="77.776364"/>
     <use style="fill:#ff0000;stroke:#ff0000;" x="155.7675" xlink:href="#m1a9682487f" y="203.650149"/>
     <use style="fill:#ff0000;stroke:#ff0000;" x="165.5325" xlink:href="#m1a9682487f" y="233.292026"/>
     <use style="fill:#ff0000;stroke:#ff0000;" x="185.0625" xlink:href="#m1a9682487f" y="272.655901"/>
     <use style="fill:#ff0000;stroke:#ff0000;" x="194.8275" xlink:href="#m1a9682487f" y="242.581218"/>
     <use style="fill:#ff0000;stroke:#ff0000;" x="204.5925" xlink:href="#m1a9682487f" y="266.131767"/>
     <use style="fill:#ff0000;stroke:#ff0000;" x="214.3575" xlink:href="#m1a9682487f" y="269.904699"/>
     <use style="fill:#ff0000;stroke:#ff0000;" x="224.1225" xlink:href="#m1a9682487f" y="276.276761"/>
     <use style="fill:#ff0000;stroke:#ff0000;" x="253.4175" xlink:href="#m1a9682487f" y="260.793766"/>
     <use style="fill:#ff0000;stroke:#ff0000;" x="263.1825" xlink:href="#m1a9682487f" y="293.790619"/>
     <use style="fill:#ff0000;stroke:#ff0000;" x="272.9475" xlink:href="#m1a9682487f" y="288.350144"/>
     <use style="fill:#ff0000;stroke:#ff0000;" x="282.7125" xlink:href="#m1a9682487f" y="315.543202"/>
     <use style="fill:#ff0000;stroke:#ff0000;" x="292.4775" xlink:href="#m1a9682487f" y="324.160392"/>
     <use style="fill:#ff0000;stroke:#ff0000;" x="302.2425" xlink:href="#m1a9682487f" y="301.112901"/>
     <use style="fill:#ff0000;stroke:#ff0000;" x="312.0075" xlink:href="#m1a9682487f" y="323.797073"/>
     <use style="fill:#ff0000;stroke:#ff0000;" x="321.7725" xlink:href="#m1a9682487f" y="330.504508"/>
     <use style="fill:#ff0000;stroke:#ff0000;" x="331.5375" xlink:href="#m1a9682487f" y="327.337108"/>
     <use style="fill:#ff0000;stroke:#ff0000;" x="341.3025" xlink:href="#m1a9682487f" y="332.088207"/>
     <use style="fill:#ff0000;stroke:#ff0000;" x="351.0675" xlink:href="#m1a9682487f" y="328.781069"/>
     <use style="fill:#ff0000;stroke:#ff0000;" x="360.8325" xlink:href="#m1a9682487f" y="320.815991"/>
     <use style="fill:#ff0000;stroke:#ff0000;" x="370.5975" xlink:href="#m1a9682487f" y="323.005223"/>
     <use style="fill:#ff0000;stroke:#ff0000;" x="380.3625" xlink:href="#m1a9682487f" y="329.759237"/>
     <use style="fill:#ff0000;stroke:#ff0000;" x="390.1275" xlink:href="#m1a9682487f" y="327.709743"/>
     <use style="fill:#ff0000;stroke:#ff0000;" x="399.8925" xlink:href="#m1a9682487f" y="339.960127"/>
     <use style="fill:#ff0000;stroke:#ff0000;" x="409.6575" xlink:href="#m1a9682487f" y="335.81456"/>
    </g>
   </g>
   <g id="line2d_16">
    <path clip-path="url(#p5e181f85bd)" d="M 69.8355 226.779941 
L 73.820013 220.103443 
L 79.796781 209.622736 
L 93.742575 184.837508 
L 97.727088 178.248345 
L 101.711601 172.139951 
L 105.696113 166.658339 
L 107.688369 164.196895 
L 109.680626 161.944207 
L 111.672882 159.91617 
L 113.665138 158.12769 
L 115.657394 156.592525 
L 117.649651 155.323128 
L 119.641907 154.330505 
L 121.634163 153.624077 
L 123.62642 153.211561 
L 125.618676 153.098854 
L 127.610932 153.289945 
L 129.603188 153.786834 
L 131.595445 154.589479 
L 133.587701 155.695754 
L 135.579957 157.101433 
L 137.572214 158.800194 
L 139.56447 160.783645 
L 141.556726 163.041375 
L 143.548982 165.561019 
L 145.541239 168.328353 
L 147.533495 171.327407 
L 151.518008 177.948866 
L 155.50252 185.268164 
L 159.487033 193.110351 
L 165.463802 205.445224 
L 173.432827 221.966632 
L 177.417339 229.858003 
L 181.401852 237.295053 
L 185.386364 244.151216 
L 189.370877 250.32871 
L 193.355389 255.761298 
L 195.347646 258.186532 
L 197.339902 260.415598 
L 199.332158 262.449427 
L 201.324415 264.290898 
L 203.316671 265.944758 
L 205.308927 267.417518 
L 207.301183 268.71733 
L 209.29344 269.853852 
L 211.285696 270.838094 
L 213.277952 271.682256 
L 217.262465 273.004038 
L 221.246977 273.933813 
L 225.23149 274.593519 
L 239.177284 276.501092 
L 243.161796 277.361477 
L 247.146309 278.50639 
L 251.130822 279.98213 
L 255.115334 281.813045 
L 259.099847 284.00177 
L 263.084359 286.530463 
L 267.068872 289.362942 
L 271.053384 292.447554 
L 277.030153 297.405494 
L 290.975947 309.215339 
L 294.96046 312.320763 
L 298.944972 315.191125 
L 302.929485 317.780117 
L 306.913997 320.054405 
L 310.89851 321.994435 
L 314.883023 323.594548 
L 318.867535 324.862432 
L 322.852048 325.817979 
L 326.83656 326.491631 
L 330.821073 326.922317 
L 334.805585 327.155099 
L 340.782354 327.24002 
L 360.704917 327.101821 
L 366.681686 327.372436 
L 372.658455 327.870657 
L 380.62748 328.833795 
L 396.56553 330.998743 
L 402.542299 331.523997 
L 406.526812 331.686689 
L 410.511324 331.661914 
L 414.495837 331.423402 
L 418.480349 330.951262 
L 422.464862 330.232699 
L 426.449374 329.262387 
L 430.433887 328.042505 
L 434.418399 326.582446 
L 438.402912 324.898244 
L 442.387425 323.01176 
L 448.364193 319.862174 
L 454.340962 316.422754 
L 464.302244 310.356502 
L 466.2945 309.131127 
L 466.2945 309.131127 
" style="fill:none;stroke:#3300ff;stroke-linecap:square;stroke-width:2;"/>
   </g>
   <g id="line2d_17">
    <path clip-path="url(#p5e181f85bd)" d="M 69.8355 112.042637 
L 77.804525 105.688958 
L 83.781294 101.221808 
L 87.765807 98.5096 
L 91.750319 96.088375 
L 95.734832 94.022778 
L 99.719344 92.372742 
L 101.711601 91.720485 
L 103.703857 91.191439 
L 105.696113 90.790957 
L 107.688369 90.523846 
L 109.680626 90.394382 
L 111.672882 90.406362 
L 113.665138 90.563167 
L 115.657394 90.86786 
L 117.649651 91.323302 
L 119.641907 91.932269 
L 121.634163 92.697579 
L 123.62642 93.622198 
L 125.618676 94.709311 
L 127.610932 95.962351 
L 129.603188 97.384956 
L 131.595445 98.980865 
L 133.587701 100.753743 
L 135.579957 102.706937 
L 137.572214 104.843196 
L 139.56447 107.164356 
L 141.556726 109.671028 
L 145.541239 115.235525 
L 149.525751 121.507184 
L 153.510264 128.423694 
L 157.494776 135.88915 
L 163.471545 147.83327 
L 177.417339 176.345681 
L 181.401852 183.888327 
L 185.386364 190.877444 
L 189.370877 197.191768 
L 191.363133 200.066201 
L 193.355389 202.740554 
L 195.347646 205.208988 
L 197.339902 207.468037 
L 199.332158 209.516662 
L 201.324415 211.356256 
L 203.316671 212.990621 
L 205.308927 214.425906 
L 207.301183 215.670512 
L 209.29344 216.734946 
L 211.285696 217.631656 
L 213.277952 218.37482 
L 215.270209 218.980111 
L 219.254721 219.845657 
L 223.239234 220.373238 
L 237.185028 221.679757 
L 241.16954 222.427162 
L 245.154053 223.511569 
L 249.138565 224.981564 
L 253.123078 226.856911 
L 257.10759 229.130437 
L 261.092103 231.771491 
L 265.076616 234.730516 
L 269.061128 237.944177 
L 275.037897 243.083423 
L 286.991435 253.576343 
L 292.968204 258.458739 
L 296.952716 261.44476 
L 300.937229 264.163827 
L 304.921741 266.582982 
L 308.906254 268.680307 
L 312.890766 270.445413 
L 316.875279 271.879548 
L 320.859791 272.995223 
L 324.844304 273.815316 
L 328.828817 274.371688 
L 332.813329 274.703389 
L 336.797842 274.854614 
L 342.774611 274.84661 
L 360.704917 274.570016 
L 366.681686 274.80115 
L 372.658455 275.290331 
L 380.62748 276.253039 
L 388.596505 277.206975 
L 392.581018 277.470844 
L 396.56553 277.443871 
L 398.557786 277.282597 
L 400.550043 277.002005 
L 402.542299 276.5871 
L 404.534555 276.02388 
L 406.526812 275.299756 
L 408.519068 274.403939 
L 410.511324 273.32778 
L 412.50358 272.065015 
L 414.495837 270.611937 
L 416.488093 268.967455 
L 418.480349 267.133068 
L 420.472606 265.112745 
L 422.464862 262.912746 
L 426.449374 258.008764 
L 430.433887 252.507381 
L 434.418399 246.514464 
L 438.402912 240.147075 
L 444.379681 230.158297 
L 456.333219 210.014213 
L 462.309987 200.512279 
L 466.2945 194.558618 
L 466.2945 194.558618 
" style="fill:none;stroke:#3300ff;stroke-linecap:square;stroke-width:0.2;"/>
   </g>
   <g id="line2d_18">
    <path clip-path="url(#p5e181f85bd)" d="M 69.8355 341.517245 
L 73.820013 331.371258 
L 77.804525 320.63787 
L 83.781294 303.708587 
L 97.727088 263.354377 
L 101.711601 252.559417 
L 105.696113 242.525721 
L 109.680626 233.494031 
L 111.672882 229.425978 
L 113.665138 225.692214 
L 115.657394 222.317189 
L 117.649651 219.322953 
L 119.641907 216.72874 
L 121.634163 214.550576 
L 123.62642 212.800925 
L 125.618676 211.488397 
L 127.610932 210.617539 
L 129.603188 210.188713 
L 131.595445 210.198094 
L 133.587701 210.637766 
L 135.579957 211.495929 
L 137.572214 212.757191 
L 139.56447 214.402935 
L 141.556726 216.411723 
L 143.548982 218.75973 
L 145.541239 221.42118 
L 147.533495 224.368758 
L 149.525751 227.574004 
L 153.510264 234.640058 
L 157.494776 242.381554 
L 163.471545 254.745072 
L 173.432827 275.537802 
L 177.417339 283.370325 
L 181.401852 290.701779 
L 185.386364 297.424989 
L 189.370877 303.465652 
L 193.355389 308.782041 
L 195.347646 311.164075 
L 197.339902 313.363159 
L 199.332158 315.382191 
L 201.324415 317.22554 
L 203.316671 318.898896 
L 205.308927 320.40913 
L 207.301183 321.764149 
L 209.29344 322.972758 
L 211.285696 324.044531 
L 215.270209 325.818997 
L 219.254721 327.175155 
L 223.239234 328.206127 
L 227.223746 329.007843 
L 243.161796 331.799434 
L 247.146309 332.81631 
L 251.130822 334.09584 
L 255.115334 335.680774 
L 259.099847 337.595804 
L 263.084359 339.845972 
L 267.068872 342.416012 
L 271.053384 345.270904 
L 275.037897 348.357763 
L 281.014666 353.272367 
L 290.975947 361.551922 
L 294.96046 364.658879 
L 298.944972 367.542275 
L 302.929485 370.147704 
L 306.913997 372.436014 
L 310.89851 374.384291 
L 314.883023 375.98577 
L 318.867535 377.248872 
L 322.852048 378.195541 
L 326.83656 378.859089 
L 330.821073 379.281678 
L 334.805585 379.511542 
L 340.782354 379.607477 
L 358.712661 379.573765 
L 364.68943 379.818176 
L 370.666198 380.260623 
L 376.642967 380.892776 
L 382.619736 381.706431 
L 388.596505 382.725844 
L 394.573274 384.031924 
L 398.557786 385.128302 
L 402.542299 386.460894 
L 406.526812 388.073621 
L 410.511324 389.996049 
L 414.495837 392.234868 
L 418.480349 394.769457 
L 422.464862 397.552651 
L 428.441631 402.039952 
L 438.402912 409.649413 
L 442.387425 412.497254 
L 446.371937 415.128066 
L 450.35645 417.489616 
L 454.340962 419.544262 
L 458.325475 421.268921 
L 462.309987 422.654309 
L 466.2945 423.703636 
L 466.2945 423.703636 
" style="fill:none;stroke:#3300ff;stroke-linecap:square;stroke-width:0.2;"/>
   </g>
   <g id="patch_4">
    <path d="M 63 441 
L 63 60.48 
" style="fill:none;stroke:#000000;stroke-linecap:square;stroke-linejoin:miter;stroke-width:0.8;"/>
   </g>
   <g id="patch_5">
    <path d="M 453.6 441 
L 453.6 60.48 
" style="fill:none;stroke:#000000;stroke-linecap:square;stroke-linejoin:miter;stroke-width:0.8;"/>
   </g>
   <g id="patch_6">
    <path d="M 63 441 
L 453.6 441 
" style="fill:none;stroke:#000000;stroke-linecap:square;stroke-linejoin:miter;stroke-width:0.8;"/>
   </g>
   <g id="patch_7">
    <path d="M 63 60.48 
L 453.6 60.48 
" style="fill:none;stroke:#000000;stroke-linecap:square;stroke-linejoin:miter;stroke-width:0.8;"/>
   </g>
  </g>
 </g>
 <defs>
  <clipPath id="p5e181f85bd">
   <rect height="380.52" width="390.6" x="63" y="60.48"/>
  </clipPath>
 </defs>
</svg>
