<?xml version="1.0" encoding="utf-8" standalone="no"?>
<!DOCTYPE svg PUBLIC "-//W3C//DTD SVG 1.1//EN"
  "http://www.w3.org/Graphics/SVG/1.1/DTD/svg11.dtd">
<!-- Created with matplotlib (https://matplotlib.org/) -->
<svg height="432pt" version="1.1" viewBox="0 0 720 432" width="720pt" xmlns="http://www.w3.org/2000/svg" xmlns:xlink="http://www.w3.org/1999/xlink">
 <defs>
  <style type="text/css">
*{stroke-linecap:butt;stroke-linejoin:round;}
  </style>
 </defs>
 <g id="figure_1">
  <g id="patch_1">
   <path d="M 0 432 
L 720 432 
L 720 0 
L 0 0 
z
" style="fill:none;"/>
  </g>
  <g id="axes_1">
   <g id="patch_2">
    <path d="M 90 378 
L 648 378 
L 648 51.84 
L 90 51.84 
z
" style="fill:none;"/>
   </g>
   <g id="PathCollection_1">
    <defs>
     <path d="M -3 3 
L 3 -3 
M -3 -3 
L 3 3 
" id="m22033eadd8" style="stroke:#000000;stroke-width:1.5;"/>
    </defs>
    <g clip-path="url(#paa742b4bde)">
     <use style="stroke:#000000;stroke-width:1.5;" x="183" xlink:href="#m22033eadd8" y="137.174076"/>
     <use style="stroke:#000000;stroke-width:1.5;" x="195.827586" xlink:href="#m22033eadd8" y="137.740045"/>
     <use style="stroke:#000000;stroke-width:1.5;" x="208.655172" xlink:href="#m22033eadd8" y="67.518286"/>
     <use style="stroke:#000000;stroke-width:1.5;" x="221.482759" xlink:href="#m22033eadd8" y="166.487889"/>
     <use style="stroke:#000000;stroke-width:1.5;" x="234.310345" xlink:href="#m22033eadd8" y="189.79413"/>
     <use style="stroke:#000000;stroke-width:1.5;" x="259.965517" xlink:href="#m22033eadd8" y="220.744395"/>
     <use style="stroke:#000000;stroke-width:1.5;" x="272.793103" xlink:href="#m22033eadd8" y="197.097856"/>
     <use style="stroke:#000000;stroke-width:1.5;" x="285.62069" xlink:href="#m22033eadd8" y="215.614726"/>
     <use style="stroke:#000000;stroke-width:1.5;" x="298.448276" xlink:href="#m22033eadd8" y="218.581234"/>
     <use style="stroke:#000000;stroke-width:1.5;" x="311.275862" xlink:href="#m22033eadd8" y="223.591336"/>
     <use style="stroke:#000000;stroke-width:1.5;" x="349.758621" xlink:href="#m22033eadd8" y="211.417666"/>
     <use style="stroke:#000000;stroke-width:1.5;" x="362.586207" xlink:href="#m22033eadd8" y="237.361792"/>
     <use style="stroke:#000000;stroke-width:1.5;" x="375.413793" xlink:href="#m22033eadd8" y="233.084161"/>
     <use style="stroke:#000000;stroke-width:1.5;" x="388.241379" xlink:href="#m22033eadd8" y="254.464992"/>
     <use style="stroke:#000000;stroke-width:1.5;" x="401.068966" xlink:href="#m22033eadd8" y="261.24035"/>
     <use style="stroke:#000000;stroke-width:1.5;" x="413.896552" xlink:href="#m22033eadd8" y="243.119015"/>
     <use style="stroke:#000000;stroke-width:1.5;" x="426.724138" xlink:href="#m22033eadd8" y="260.954686"/>
     <use style="stroke:#000000;stroke-width:1.5;" x="439.551724" xlink:href="#m22033eadd8" y="266.228478"/>
     <use style="stroke:#000000;stroke-width:1.5;" x="452.37931" xlink:href="#m22033eadd8" y="263.738076"/>
     <use style="stroke:#000000;stroke-width:1.5;" x="465.206897" xlink:href="#m22033eadd8" y="267.473679"/>
     <use style="stroke:#000000;stroke-width:1.5;" x="478.034483" xlink:href="#m22033eadd8" y="264.873407"/>
     <use style="stroke:#000000;stroke-width:1.5;" x="490.862069" xlink:href="#m22033eadd8" y="258.610779"/>
     <use style="stroke:#000000;stroke-width:1.5;" x="503.689655" xlink:href="#m22033eadd8" y="260.332086"/>
     <use style="stroke:#000000;stroke-width:1.5;" x="516.517241" xlink:href="#m22033eadd8" y="265.642501"/>
     <use style="stroke:#000000;stroke-width:1.5;" x="529.344828" xlink:href="#m22033eadd8" y="264.031065"/>
     <use style="stroke:#000000;stroke-width:1.5;" x="542.172414" xlink:href="#m22033eadd8" y="273.66306"/>
     <use style="stroke:#000000;stroke-width:1.5;" x="555" xlink:href="#m22033eadd8" y="270.403563"/>
    </g>
   </g>
   <g id="PolyCollection_1">
    <defs>
     <path d="M 90 -307.406782 
L 90 -121.163599 
L 92.80402 -104.521462 
L 95.60804 -105.683705 
L 98.41206 -119.29646 
L 101.21608 -124.094372 
L 104.020101 -125.556695 
L 106.824121 -133.727095 
L 109.628141 -124.48423 
L 112.432161 -140.772644 
L 115.236181 -140.834187 
L 118.040201 -147.724551 
L 120.844221 -147.607376 
L 123.648241 -159.721963 
L 126.452261 -170.044353 
L 129.256281 -157.510375 
L 132.060302 -179.867345 
L 134.864322 -186.122273 
L 137.668342 -194.655901 
L 140.472362 -198.23982 
L 143.276382 -201.313475 
L 146.080402 -211.974053 
L 148.884422 -221.452737 
L 151.688442 -221.695857 
L 154.492462 -233.04705 
L 157.296482 -240.258356 
L 160.100503 -232.054807 
L 162.904523 -238.061968 
L 165.708543 -252.320326 
L 168.512563 -258.559004 
L 171.316583 -258.891111 
L 174.120603 -255.963422 
L 176.924623 -257.165625 
L 179.728643 -266.684811 
L 182.532663 -264.999064 
L 185.336683 -266.006911 
L 188.140704 -258.923254 
L 190.944724 -259.106197 
L 193.748744 -255.991195 
L 196.552764 -263.217992 
L 199.356784 -265.186351 
L 202.160804 -258.227899 
L 204.964824 -248.973699 
L 207.768844 -252.033191 
L 210.572864 -258.971322 
L 213.376884 -242.858343 
L 216.180905 -235.83192 
L 218.984925 -242.102115 
L 221.788945 -221.032473 
L 224.592965 -229.05404 
L 227.396985 -228.537214 
L 230.201005 -225.941253 
L 233.005025 -216.809343 
L 235.809045 -192.207838 
L 238.613065 -207.252426 
L 241.417085 -201.044312 
L 244.221106 -203.270141 
L 247.025126 -193.520785 
L 249.829146 -181.056207 
L 252.633166 -187.968633 
L 255.437186 -187.389754 
L 258.241206 -178.362324 
L 261.045226 -183.378419 
L 263.849246 -185.783755 
L 266.653266 -185.340914 
L 269.457286 -166.053419 
L 272.261307 -185.105085 
L 275.065327 -175.865044 
L 277.869347 -173.577639 
L 280.673367 -167.610476 
L 283.477387 -181.288777 
L 286.281407 -179.097367 
L 289.085427 -166.146407 
L 291.889447 -184.709445 
L 294.693467 -186.525833 
L 297.497487 -183.473755 
L 300.301508 -179.014478 
L 303.105528 -183.001362 
L 305.909548 -181.662162 
L 308.713568 -185.886166 
L 311.517588 -181.348763 
L 314.321608 -189.161548 
L 317.125628 -193.263974 
L 319.929648 -191.983126 
L 322.733668 -192.262738 
L 325.537688 -186.455523 
L 328.341709 -188.564197 
L 331.145729 -185.407441 
L 333.949749 -187.264375 
L 336.753769 -183.847173 
L 339.557789 -184.119627 
L 342.361809 -189.307881 
L 345.165829 -188.160443 
L 347.969849 -177.807272 
L 350.773869 -180.183717 
L 353.577889 -168.81229 
L 356.38191 -172.505122 
L 359.18593 -166.72581 
L 361.98995 -169.492501 
L 364.79397 -173.531863 
L 367.59799 -169.118104 
L 370.40201 -166.755588 
L 373.20603 -161.226857 
L 376.01005 -159.354853 
L 378.81407 -165.262589 
L 381.61809 -157.058746 
L 384.422111 -154.399351 
L 387.226131 -154.253947 
L 390.030151 -142.170664 
L 392.834171 -145.82411 
L 395.638191 -141.500747 
L 398.442211 -143.498107 
L 401.246231 -142.074554 
L 404.050251 -143.632494 
L 406.854271 -144.182645 
L 409.658291 -145.238563 
L 412.462312 -145.391422 
L 415.266332 -138.022187 
L 418.070352 -137.666006 
L 420.874372 -131.015456 
L 423.678392 -144.792821 
L 426.482412 -143.859406 
L 429.286432 -133.752647 
L 432.090452 -133.052247 
L 434.894472 -133.226992 
L 437.698492 -138.331755 
L 440.502513 -135.234481 
L 443.306533 -145.982107 
L 446.110553 -143.811884 
L 448.914573 -141.752613 
L 451.718593 -139.54707 
L 454.522613 -145.345542 
L 457.326633 -145.469751 
L 460.130653 -133.522326 
L 462.934673 -136.651545 
L 465.738693 -142.894109 
L 468.542714 -141.492875 
L 471.346734 -142.544783 
L 474.150754 -130.291796 
L 476.954774 -145.651875 
L 479.758794 -138.838887 
L 482.562814 -140.069756 
L 485.366834 -143.001545 
L 488.170854 -141.002844 
L 490.974874 -141.423058 
L 493.778894 -146.915827 
L 496.582915 -140.480731 
L 499.386935 -134.384788 
L 502.190955 -148.625078 
L 504.994975 -141.734657 
L 507.798995 -147.429655 
L 510.603015 -145.036952 
L 513.407035 -138.177151 
L 516.211055 -126.987144 
L 519.015075 -136.451792 
L 521.819095 -138.808305 
L 524.623116 -133.301663 
L 527.427136 -142.203784 
L 530.231156 -137.008416 
L 533.035176 -142.88751 
L 535.839196 -122.983806 
L 538.643216 -135.028913 
L 541.447236 -136.115743 
L 544.251256 -132.291879 
L 547.055276 -133.104651 
L 549.859296 -136.885675 
L 552.663317 -129.537101 
L 555.467337 -121.682911 
L 558.271357 -133.820606 
L 561.075377 -123.748424 
L 563.879397 -126.00165 
L 566.683417 -128.382256 
L 569.487437 -114.33166 
L 572.291457 -128.624296 
L 575.095477 -122.052758 
L 577.899497 -120.57937 
L 580.703518 -118.508856 
L 583.507538 -117.121622 
L 586.311558 -116.540071 
L 589.115578 -93.83003 
L 591.919598 -117.412129 
L 594.723618 -102.986824 
L 597.527638 -107.503745 
L 600.331658 -98.671814 
L 603.135678 -100.286144 
L 605.939698 -108.287287 
L 608.743719 -93.571877 
L 611.547739 -82.181858 
L 614.351759 -102.502708 
L 617.155779 -92.179168 
L 619.959799 -76.340291 
L 622.763819 -89.453541 
L 625.567839 -68.825455 
L 628.371859 -90.060528 
L 631.175879 -75.704394 
L 633.979899 -80.802418 
L 636.78392 -73.9476 
L 639.58794 -80.144384 
L 642.39196 -72.545518 
L 645.19598 -85.800369 
L 648 -89.40949 
L 648 -290.217858 
L 648 -290.217858 
L 645.19598 -289.288082 
L 642.39196 -301.638978 
L 639.58794 -279.923414 
L 636.78392 -289.081135 
L 633.979899 -284.046383 
L 631.175879 -275.340613 
L 628.371859 -257.495706 
L 625.567839 -266.18223 
L 622.763819 -261.635835 
L 619.959799 -263.869563 
L 617.155779 -249.708398 
L 614.351759 -249.366404 
L 611.547739 -243.096515 
L 608.743719 -239.320473 
L 605.939698 -248.789802 
L 603.135678 -233.642996 
L 600.331658 -224.228223 
L 597.527638 -226.984395 
L 594.723618 -214.542182 
L 591.919598 -225.465234 
L 589.115578 -210.969965 
L 586.311558 -208.033453 
L 583.507538 -205.573086 
L 580.703518 -202.774641 
L 577.899497 -199.052347 
L 575.095477 -192.062391 
L 572.291457 -191.659166 
L 569.487437 -184.991345 
L 566.683417 -187.333991 
L 563.879397 -191.414527 
L 561.075377 -183.677926 
L 558.271357 -185.062682 
L 555.467337 -185.438923 
L 552.663317 -186.098381 
L 549.859296 -188.610888 
L 547.055276 -195.252465 
L 544.251256 -186.733117 
L 541.447236 -182.799064 
L 538.643216 -202.814687 
L 535.839196 -183.93272 
L 533.035176 -185.550971 
L 530.231156 -193.635288 
L 527.427136 -185.160087 
L 524.623116 -192.298165 
L 521.819095 -203.989176 
L 519.015075 -208.39553 
L 516.211055 -187.463942 
L 513.407035 -188.108645 
L 510.603015 -197.850324 
L 507.798995 -191.245645 
L 504.994975 -187.153445 
L 502.190955 -198.12356 
L 499.386935 -205.136322 
L 496.582915 -210.913104 
L 493.778894 -197.419223 
L 490.974874 -203.121518 
L 488.170854 -195.867145 
L 485.366834 -196.970636 
L 482.562814 -195.074695 
L 479.758794 -204.791539 
L 476.954774 -205.991418 
L 474.150754 -190.565609 
L 471.346734 -191.463078 
L 468.542714 -204.138027 
L 465.738693 -198.610892 
L 462.934673 -193.800826 
L 460.130653 -201.357926 
L 457.326633 -192.192285 
L 454.522613 -196.109489 
L 451.718593 -194.395954 
L 448.914573 -189.342475 
L 446.110553 -193.61928 
L 443.306533 -203.44223 
L 440.502513 -194.050301 
L 437.698492 -193.900526 
L 434.894472 -201.915567 
L 432.090452 -198.743388 
L 429.286432 -197.840205 
L 426.482412 -193.425158 
L 423.678392 -200.796605 
L 420.874372 -192.995978 
L 418.070352 -204.355323 
L 415.266332 -194.826795 
L 412.462312 -199.596647 
L 409.658291 -198.319435 
L 406.854271 -201.656024 
L 404.050251 -207.956997 
L 401.246231 -192.440999 
L 398.442211 -197.767224 
L 395.638191 -200.534567 
L 392.834171 -216.617765 
L 390.030151 -211.771666 
L 387.226131 -214.229157 
L 384.422111 -215.633905 
L 381.61809 -213.978701 
L 378.81407 -220.010122 
L 376.01005 -214.536857 
L 373.20603 -223.089285 
L 370.40201 -226.838112 
L 367.59799 -230.884614 
L 364.79397 -231.12087 
L 361.98995 -238.746856 
L 359.18593 -258.10941 
L 356.38191 -243.319445 
L 353.577889 -246.529307 
L 350.773869 -243.225016 
L 347.969849 -242.905803 
L 345.165829 -245.589173 
L 342.361809 -252.962021 
L 339.557789 -254.8838 
L 336.753769 -246.802418 
L 333.949749 -254.533543 
L 331.145729 -254.587773 
L 328.341709 -255.176333 
L 325.537688 -250.307294 
L 322.733668 -257.119348 
L 319.929648 -254.962522 
L 317.125628 -248.836289 
L 314.321608 -244.768767 
L 311.517588 -247.857395 
L 308.713568 -247.319051 
L 305.909548 -247.88761 
L 303.105528 -243.843738 
L 300.301508 -239.107942 
L 297.497487 -234.203174 
L 294.693467 -258.57694 
L 291.889447 -240.105973 
L 289.085427 -246.662663 
L 286.281407 -245.243784 
L 283.477387 -232.179082 
L 280.673367 -232.468088 
L 277.869347 -233.499215 
L 275.065327 -231.011111 
L 272.261307 -240.481452 
L 269.457286 -231.646352 
L 266.653266 -236.445529 
L 263.849246 -240.283672 
L 261.045226 -247.10172 
L 258.241206 -240.366745 
L 255.437186 -243.307322 
L 252.633166 -248.820877 
L 249.829146 -245.576762 
L 247.025126 -254.233563 
L 244.221106 -255.711293 
L 241.417085 -255.583518 
L 238.613065 -268.572026 
L 235.809045 -276.137368 
L 233.005025 -277.620793 
L 230.201005 -284.201817 
L 227.396985 -286.5387 
L 224.592965 -284.16781 
L 221.788945 -299.742449 
L 218.984925 -295.106051 
L 216.180905 -303.258493 
L 213.376884 -307.541995 
L 210.572864 -308.086408 
L 207.768844 -310.286329 
L 204.964824 -318.433043 
L 202.160804 -315.337993 
L 199.356784 -321.843207 
L 196.552764 -322.484223 
L 193.748744 -318.944977 
L 190.944724 -313.885538 
L 188.140704 -330.417195 
L 185.336683 -326.899868 
L 182.532663 -328.05792 
L 179.728643 -339.271405 
L 176.924623 -323.343105 
L 174.120603 -315.756207 
L 171.316583 -314.461118 
L 168.512563 -316.928629 
L 165.708543 -325.732248 
L 162.904523 -319.45615 
L 160.100503 -319.144124 
L 157.296482 -310.541127 
L 154.492462 -321.394146 
L 151.688442 -316.048991 
L 148.884422 -318.863426 
L 146.080402 -324.534747 
L 143.276382 -316.247054 
L 140.472362 -315.218175 
L 137.668342 -326.997023 
L 134.864322 -321.013523 
L 132.060302 -326.707767 
L 129.256281 -316.640466 
L 126.452261 -321.782358 
L 123.648241 -324.63574 
L 120.844221 -343.446689 
L 118.040201 -323.790507 
L 115.236181 -305.637971 
L 112.432161 -323.799745 
L 109.628141 -311.15753 
L 106.824121 -305.522791 
L 104.020101 -313.193132 
L 101.21608 -321.788659 
L 98.41206 -319.178265 
L 95.60804 -331.677238 
L 92.80402 -322.606591 
L 90 -307.406782 
z
" id="m6c24bc9458" style="stroke:#204a87;stroke-opacity:0.2;stroke-width:0.5;"/>
    </defs>
    <g clip-path="url(#paa742b4bde)">
     <use style="fill:#729fcf;fill-opacity:0.2;stroke:#204a87;stroke-opacity:0.2;stroke-width:0.5;" x="0" xlink:href="#m6c24bc9458" y="432"/>
    </g>
   </g>
   <g id="matplotlib.axis_1">
    <g id="xtick_1">
     <g id="line2d_1">
      <defs>
       <path d="M 0 0 
L 0 3.5 
" id="me32dcb0806" style="stroke:#000000;stroke-width:0.8;"/>
      </defs>
      <g>
       <use style="stroke:#000000;stroke-width:0.8;" x="131.689655" xlink:href="#me32dcb0806" y="378"/>
      </g>
     </g>
     <g id="text_1">
      <!-- 1880 -->
      <defs>
       <path d="M 12.40625 8.296875 
L 28.515625 8.296875 
L 28.515625 63.921875 
L 10.984375 60.40625 
L 10.984375 69.390625 
L 28.421875 72.90625 
L 38.28125 72.90625 
L 38.28125 8.296875 
L 54.390625 8.296875 
L 54.390625 0 
L 12.40625 0 
z
" id="DejaVuSans-49"/>
       <path d="M 31.78125 34.625 
Q 24.75 34.625 20.71875 30.859375 
Q 16.703125 27.09375 16.703125 20.515625 
Q 16.703125 13.921875 20.71875 10.15625 
Q 24.75 6.390625 31.78125 6.390625 
Q 38.8125 6.390625 42.859375 10.171875 
Q 46.921875 13.96875 46.921875 20.515625 
Q 46.921875 27.09375 42.890625 30.859375 
Q 38.875 34.625 31.78125 34.625 
z
M 21.921875 38.8125 
Q 15.578125 40.375 12.03125 44.71875 
Q 8.5 49.078125 8.5 55.328125 
Q 8.5 64.0625 14.71875 69.140625 
Q 20.953125 74.21875 31.78125 74.21875 
Q 42.671875 74.21875 48.875 69.140625 
Q 55.078125 64.0625 55.078125 55.328125 
Q 55.078125 49.078125 51.53125 44.71875 
Q 48 40.375 41.703125 38.8125 
Q 48.828125 37.15625 52.796875 32.3125 
Q 56.78125 27.484375 56.78125 20.515625 
Q 56.78125 9.90625 50.3125 4.234375 
Q 43.84375 -1.421875 31.78125 -1.421875 
Q 19.734375 -1.421875 13.25 4.234375 
Q 6.78125 9.90625 6.78125 20.515625 
Q 6.78125 27.484375 10.78125 32.3125 
Q 14.796875 37.15625 21.921875 38.8125 
z
M 18.3125 54.390625 
Q 18.3125 48.734375 21.84375 45.5625 
Q 25.390625 42.390625 31.78125 42.390625 
Q 38.140625 42.390625 41.71875 45.5625 
Q 45.3125 48.734375 45.3125 54.390625 
Q 45.3125 60.0625 41.71875 63.234375 
Q 38.140625 66.40625 31.78125 66.40625 
Q 25.390625 66.40625 21.84375 63.234375 
Q 18.3125 60.0625 18.3125 54.390625 
z
" id="DejaVuSans-56"/>
       <path d="M 31.78125 66.40625 
Q 24.171875 66.40625 20.328125 58.90625 
Q 16.5 51.421875 16.5 36.375 
Q 16.5 21.390625 20.328125 13.890625 
Q 24.171875 6.390625 31.78125 6.390625 
Q 39.453125 6.390625 43.28125 13.890625 
Q 47.125 21.390625 47.125 36.375 
Q 47.125 51.421875 43.28125 58.90625 
Q 39.453125 66.40625 31.78125 66.40625 
z
M 31.78125 74.21875 
Q 44.046875 74.21875 50.515625 64.515625 
Q 56.984375 54.828125 56.984375 36.375 
Q 56.984375 17.96875 50.515625 8.265625 
Q 44.046875 -1.421875 31.78125 -1.421875 
Q 19.53125 -1.421875 13.0625 8.265625 
Q 6.59375 17.96875 6.59375 36.375 
Q 6.59375 54.828125 13.0625 64.515625 
Q 19.53125 74.21875 31.78125 74.21875 
z
" id="DejaVuSans-48"/>
      </defs>
      <g transform="translate(118.964655 392.598437)scale(0.1 -0.1)">
       <use xlink:href="#DejaVuSans-49"/>
       <use x="63.623047" xlink:href="#DejaVuSans-56"/>
       <use x="127.246094" xlink:href="#DejaVuSans-56"/>
       <use x="190.869141" xlink:href="#DejaVuSans-48"/>
      </g>
     </g>
    </g>
    <g id="xtick_2">
     <g id="line2d_2">
      <g>
       <use style="stroke:#000000;stroke-width:0.8;" x="195.827586" xlink:href="#me32dcb0806" y="378"/>
      </g>
     </g>
     <g id="text_2">
      <!-- 1900 -->
      <defs>
       <path d="M 10.984375 1.515625 
L 10.984375 10.5 
Q 14.703125 8.734375 18.5 7.8125 
Q 22.3125 6.890625 25.984375 6.890625 
Q 35.75 6.890625 40.890625 13.453125 
Q 46.046875 20.015625 46.78125 33.40625 
Q 43.953125 29.203125 39.59375 26.953125 
Q 35.25 24.703125 29.984375 24.703125 
Q 19.046875 24.703125 12.671875 31.3125 
Q 6.296875 37.9375 6.296875 49.421875 
Q 6.296875 60.640625 12.9375 67.421875 
Q 19.578125 74.21875 30.609375 74.21875 
Q 43.265625 74.21875 49.921875 64.515625 
Q 56.59375 54.828125 56.59375 36.375 
Q 56.59375 19.140625 48.40625 8.859375 
Q 40.234375 -1.421875 26.421875 -1.421875 
Q 22.703125 -1.421875 18.890625 -0.6875 
Q 15.09375 0.046875 10.984375 1.515625 
z
M 30.609375 32.421875 
Q 37.25 32.421875 41.125 36.953125 
Q 45.015625 41.5 45.015625 49.421875 
Q 45.015625 57.28125 41.125 61.84375 
Q 37.25 66.40625 30.609375 66.40625 
Q 23.96875 66.40625 20.09375 61.84375 
Q 16.21875 57.28125 16.21875 49.421875 
Q 16.21875 41.5 20.09375 36.953125 
Q 23.96875 32.421875 30.609375 32.421875 
z
" id="DejaVuSans-57"/>
      </defs>
      <g transform="translate(183.102586 392.598437)scale(0.1 -0.1)">
       <use xlink:href="#DejaVuSans-49"/>
       <use x="63.623047" xlink:href="#DejaVuSans-57"/>
       <use x="127.246094" xlink:href="#DejaVuSans-48"/>
       <use x="190.869141" xlink:href="#DejaVuSans-48"/>
      </g>
     </g>
    </g>
    <g id="xtick_3">
     <g id="line2d_3">
      <g>
       <use style="stroke:#000000;stroke-width:0.8;" x="259.965517" xlink:href="#me32dcb0806" y="378"/>
      </g>
     </g>
     <g id="text_3">
      <!-- 1920 -->
      <defs>
       <path d="M 19.1875 8.296875 
L 53.609375 8.296875 
L 53.609375 0 
L 7.328125 0 
L 7.328125 8.296875 
Q 12.9375 14.109375 22.625 23.890625 
Q 32.328125 33.6875 34.8125 36.53125 
Q 39.546875 41.84375 41.421875 45.53125 
Q 43.3125 49.21875 43.3125 52.78125 
Q 43.3125 58.59375 39.234375 62.25 
Q 35.15625 65.921875 28.609375 65.921875 
Q 23.96875 65.921875 18.8125 64.3125 
Q 13.671875 62.703125 7.8125 59.421875 
L 7.8125 69.390625 
Q 13.765625 71.78125 18.9375 73 
Q 24.125 74.21875 28.421875 74.21875 
Q 39.75 74.21875 46.484375 68.546875 
Q 53.21875 62.890625 53.21875 53.421875 
Q 53.21875 48.921875 51.53125 44.890625 
Q 49.859375 40.875 45.40625 35.40625 
Q 44.1875 33.984375 37.640625 27.21875 
Q 31.109375 20.453125 19.1875 8.296875 
z
" id="DejaVuSans-50"/>
      </defs>
      <g transform="translate(247.240517 392.598437)scale(0.1 -0.1)">
       <use xlink:href="#DejaVuSans-49"/>
       <use x="63.623047" xlink:href="#DejaVuSans-57"/>
       <use x="127.246094" xlink:href="#DejaVuSans-50"/>
       <use x="190.869141" xlink:href="#DejaVuSans-48"/>
      </g>
     </g>
    </g>
    <g id="xtick_4">
     <g id="line2d_4">
      <g>
       <use style="stroke:#000000;stroke-width:0.8;" x="324.103448" xlink:href="#me32dcb0806" y="378"/>
      </g>
     </g>
     <g id="text_4">
      <!-- 1940 -->
      <defs>
       <path d="M 37.796875 64.3125 
L 12.890625 25.390625 
L 37.796875 25.390625 
z
M 35.203125 72.90625 
L 47.609375 72.90625 
L 47.609375 25.390625 
L 58.015625 25.390625 
L 58.015625 17.1875 
L 47.609375 17.1875 
L 47.609375 0 
L 37.796875 0 
L 37.796875 17.1875 
L 4.890625 17.1875 
L 4.890625 26.703125 
z
" id="DejaVuSans-52"/>
      </defs>
      <g transform="translate(311.378448 392.598437)scale(0.1 -0.1)">
       <use xlink:href="#DejaVuSans-49"/>
       <use x="63.623047" xlink:href="#DejaVuSans-57"/>
       <use x="127.246094" xlink:href="#DejaVuSans-52"/>
       <use x="190.869141" xlink:href="#DejaVuSans-48"/>
      </g>
     </g>
    </g>
    <g id="xtick_5">
     <g id="line2d_5">
      <g>
       <use style="stroke:#000000;stroke-width:0.8;" x="388.241379" xlink:href="#me32dcb0806" y="378"/>
      </g>
     </g>
     <g id="text_5">
      <!-- 1960 -->
      <defs>
       <path d="M 33.015625 40.375 
Q 26.375 40.375 22.484375 35.828125 
Q 18.609375 31.296875 18.609375 23.390625 
Q 18.609375 15.53125 22.484375 10.953125 
Q 26.375 6.390625 33.015625 6.390625 
Q 39.65625 6.390625 43.53125 10.953125 
Q 47.40625 15.53125 47.40625 23.390625 
Q 47.40625 31.296875 43.53125 35.828125 
Q 39.65625 40.375 33.015625 40.375 
z
M 52.59375 71.296875 
L 52.59375 62.3125 
Q 48.875 64.0625 45.09375 64.984375 
Q 41.3125 65.921875 37.59375 65.921875 
Q 27.828125 65.921875 22.671875 59.328125 
Q 17.53125 52.734375 16.796875 39.40625 
Q 19.671875 43.65625 24.015625 45.921875 
Q 28.375 48.1875 33.59375 48.1875 
Q 44.578125 48.1875 50.953125 41.515625 
Q 57.328125 34.859375 57.328125 23.390625 
Q 57.328125 12.15625 50.6875 5.359375 
Q 44.046875 -1.421875 33.015625 -1.421875 
Q 20.359375 -1.421875 13.671875 8.265625 
Q 6.984375 17.96875 6.984375 36.375 
Q 6.984375 53.65625 15.1875 63.9375 
Q 23.390625 74.21875 37.203125 74.21875 
Q 40.921875 74.21875 44.703125 73.484375 
Q 48.484375 72.75 52.59375 71.296875 
z
" id="DejaVuSans-54"/>
      </defs>
      <g transform="translate(375.516379 392.598437)scale(0.1 -0.1)">
       <use xlink:href="#DejaVuSans-49"/>
       <use x="63.623047" xlink:href="#DejaVuSans-57"/>
       <use x="127.246094" xlink:href="#DejaVuSans-54"/>
       <use x="190.869141" xlink:href="#DejaVuSans-48"/>
      </g>
     </g>
    </g>
    <g id="xtick_6">
     <g id="line2d_6">
      <g>
       <use style="stroke:#000000;stroke-width:0.8;" x="452.37931" xlink:href="#me32dcb0806" y="378"/>
      </g>
     </g>
     <g id="text_6">
      <!-- 1980 -->
      <g transform="translate(439.65431 392.598437)scale(0.1 -0.1)">
       <use xlink:href="#DejaVuSans-49"/>
       <use x="63.623047" xlink:href="#DejaVuSans-57"/>
       <use x="127.246094" xlink:href="#DejaVuSans-56"/>
       <use x="190.869141" xlink:href="#DejaVuSans-48"/>
      </g>
     </g>
    </g>
    <g id="xtick_7">
     <g id="line2d_7">
      <g>
       <use style="stroke:#000000;stroke-width:0.8;" x="516.517241" xlink:href="#me32dcb0806" y="378"/>
      </g>
     </g>
     <g id="text_7">
      <!-- 2000 -->
      <g transform="translate(503.792241 392.598437)scale(0.1 -0.1)">
       <use xlink:href="#DejaVuSans-50"/>
       <use x="63.623047" xlink:href="#DejaVuSans-48"/>
       <use x="127.246094" xlink:href="#DejaVuSans-48"/>
       <use x="190.869141" xlink:href="#DejaVuSans-48"/>
      </g>
     </g>
    </g>
    <g id="xtick_8">
     <g id="line2d_8">
      <g>
       <use style="stroke:#000000;stroke-width:0.8;" x="580.655172" xlink:href="#me32dcb0806" y="378"/>
      </g>
     </g>
     <g id="text_8">
      <!-- 2020 -->
      <g transform="translate(567.930172 392.598437)scale(0.1 -0.1)">
       <use xlink:href="#DejaVuSans-50"/>
       <use x="63.623047" xlink:href="#DejaVuSans-48"/>
       <use x="127.246094" xlink:href="#DejaVuSans-50"/>
       <use x="190.869141" xlink:href="#DejaVuSans-48"/>
      </g>
     </g>
    </g>
    <g id="xtick_9">
     <g id="line2d_9">
      <g>
       <use style="stroke:#000000;stroke-width:0.8;" x="644.793103" xlink:href="#me32dcb0806" y="378"/>
      </g>
     </g>
     <g id="text_9">
      <!-- 2040 -->
      <g transform="translate(632.068103 392.598437)scale(0.1 -0.1)">
       <use xlink:href="#DejaVuSans-50"/>
       <use x="63.623047" xlink:href="#DejaVuSans-48"/>
       <use x="127.246094" xlink:href="#DejaVuSans-52"/>
       <use x="190.869141" xlink:href="#DejaVuSans-48"/>
      </g>
     </g>
    </g>
   </g>
   <g id="matplotlib.axis_2">
    <g id="ytick_1">
     <g id="line2d_10">
      <defs>
       <path d="M 0 0 
L -3.5 0 
" id="mc89d1b1d6d" style="stroke:#000000;stroke-width:0.8;"/>
      </defs>
      <g>
       <use style="stroke:#000000;stroke-width:0.8;" x="90" xlink:href="#mc89d1b1d6d" y="366.26938"/>
      </g>
     </g>
     <g id="text_10">
      <!-- 2.0 -->
      <defs>
       <path d="M 10.6875 12.40625 
L 21 12.40625 
L 21 0 
L 10.6875 0 
z
" id="DejaVuSans-46"/>
      </defs>
      <g transform="translate(67.096875 370.068599)scale(0.1 -0.1)">
       <use xlink:href="#DejaVuSans-50"/>
       <use x="63.623047" xlink:href="#DejaVuSans-46"/>
       <use x="95.410156" xlink:href="#DejaVuSans-48"/>
      </g>
     </g>
    </g>
    <g id="ytick_2">
     <g id="line2d_11">
      <g>
       <use style="stroke:#000000;stroke-width:0.8;" x="90" xlink:href="#mc89d1b1d6d" y="319.909453"/>
      </g>
     </g>
     <g id="text_11">
      <!-- 2.5 -->
      <defs>
       <path d="M 10.796875 72.90625 
L 49.515625 72.90625 
L 49.515625 64.59375 
L 19.828125 64.59375 
L 19.828125 46.734375 
Q 21.96875 47.46875 24.109375 47.828125 
Q 26.265625 48.1875 28.421875 48.1875 
Q 40.625 48.1875 47.75 41.5 
Q 54.890625 34.8125 54.890625 23.390625 
Q 54.890625 11.625 47.5625 5.09375 
Q 40.234375 -1.421875 26.90625 -1.421875 
Q 22.3125 -1.421875 17.546875 -0.640625 
Q 12.796875 0.140625 7.71875 1.703125 
L 7.71875 11.625 
Q 12.109375 9.234375 16.796875 8.0625 
Q 21.484375 6.890625 26.703125 6.890625 
Q 35.15625 6.890625 40.078125 11.328125 
Q 45.015625 15.765625 45.015625 23.390625 
Q 45.015625 31 40.078125 35.4375 
Q 35.15625 39.890625 26.703125 39.890625 
Q 22.75 39.890625 18.8125 39.015625 
Q 14.890625 38.140625 10.796875 36.28125 
z
" id="DejaVuSans-53"/>
      </defs>
      <g transform="translate(67.096875 323.708672)scale(0.1 -0.1)">
       <use xlink:href="#DejaVuSans-50"/>
       <use x="63.623047" xlink:href="#DejaVuSans-46"/>
       <use x="95.410156" xlink:href="#DejaVuSans-53"/>
      </g>
     </g>
    </g>
    <g id="ytick_3">
     <g id="line2d_12">
      <g>
       <use style="stroke:#000000;stroke-width:0.8;" x="90" xlink:href="#mc89d1b1d6d" y="273.549527"/>
      </g>
     </g>
     <g id="text_12">
      <!-- 3.0 -->
      <defs>
       <path d="M 40.578125 39.3125 
Q 47.65625 37.796875 51.625 33 
Q 55.609375 28.21875 55.609375 21.1875 
Q 55.609375 10.40625 48.1875 4.484375 
Q 40.765625 -1.421875 27.09375 -1.421875 
Q 22.515625 -1.421875 17.65625 -0.515625 
Q 12.796875 0.390625 7.625 2.203125 
L 7.625 11.71875 
Q 11.71875 9.328125 16.59375 8.109375 
Q 21.484375 6.890625 26.8125 6.890625 
Q 36.078125 6.890625 40.9375 10.546875 
Q 45.796875 14.203125 45.796875 21.1875 
Q 45.796875 27.640625 41.28125 31.265625 
Q 36.765625 34.90625 28.71875 34.90625 
L 20.21875 34.90625 
L 20.21875 43.015625 
L 29.109375 43.015625 
Q 36.375 43.015625 40.234375 45.921875 
Q 44.09375 48.828125 44.09375 54.296875 
Q 44.09375 59.90625 40.109375 62.90625 
Q 36.140625 65.921875 28.71875 65.921875 
Q 24.65625 65.921875 20.015625 65.03125 
Q 15.375 64.15625 9.8125 62.3125 
L 9.8125 71.09375 
Q 15.4375 72.65625 20.34375 73.4375 
Q 25.25 74.21875 29.59375 74.21875 
Q 40.828125 74.21875 47.359375 69.109375 
Q 53.90625 64.015625 53.90625 55.328125 
Q 53.90625 49.265625 50.4375 45.09375 
Q 46.96875 40.921875 40.578125 39.3125 
z
" id="DejaVuSans-51"/>
      </defs>
      <g transform="translate(67.096875 277.348745)scale(0.1 -0.1)">
       <use xlink:href="#DejaVuSans-51"/>
       <use x="63.623047" xlink:href="#DejaVuSans-46"/>
       <use x="95.410156" xlink:href="#DejaVuSans-48"/>
      </g>
     </g>
    </g>
    <g id="ytick_4">
     <g id="line2d_13">
      <g>
       <use style="stroke:#000000;stroke-width:0.8;" x="90" xlink:href="#mc89d1b1d6d" y="227.1896"/>
      </g>
     </g>
     <g id="text_13">
      <!-- 3.5 -->
      <g transform="translate(67.096875 230.988819)scale(0.1 -0.1)">
       <use xlink:href="#DejaVuSans-51"/>
       <use x="63.623047" xlink:href="#DejaVuSans-46"/>
       <use x="95.410156" xlink:href="#DejaVuSans-53"/>
      </g>
     </g>
    </g>
    <g id="ytick_5">
     <g id="line2d_14">
      <g>
       <use style="stroke:#000000;stroke-width:0.8;" x="90" xlink:href="#mc89d1b1d6d" y="180.829673"/>
      </g>
     </g>
     <g id="text_14">
      <!-- 4.0 -->
      <g transform="translate(67.096875 184.628892)scale(0.1 -0.1)">
       <use xlink:href="#DejaVuSans-52"/>
       <use x="63.623047" xlink:href="#DejaVuSans-46"/>
       <use x="95.410156" xlink:href="#DejaVuSans-48"/>
      </g>
     </g>
    </g>
    <g id="ytick_6">
     <g id="line2d_15">
      <g>
       <use style="stroke:#000000;stroke-width:0.8;" x="90" xlink:href="#mc89d1b1d6d" y="134.469747"/>
      </g>
     </g>
     <g id="text_15">
      <!-- 4.5 -->
      <g transform="translate(67.096875 138.268966)scale(0.1 -0.1)">
       <use xlink:href="#DejaVuSans-52"/>
       <use x="63.623047" xlink:href="#DejaVuSans-46"/>
       <use x="95.410156" xlink:href="#DejaVuSans-53"/>
      </g>
     </g>
    </g>
    <g id="ytick_7">
     <g id="line2d_16">
      <g>
       <use style="stroke:#000000;stroke-width:0.8;" x="90" xlink:href="#mc89d1b1d6d" y="88.10982"/>
      </g>
     </g>
     <g id="text_16">
      <!-- 5.0 -->
      <g transform="translate(67.096875 91.909039)scale(0.1 -0.1)">
       <use xlink:href="#DejaVuSans-53"/>
       <use x="63.623047" xlink:href="#DejaVuSans-46"/>
       <use x="95.410156" xlink:href="#DejaVuSans-48"/>
      </g>
     </g>
    </g>
   </g>
   <g id="line2d_17">
    <path clip-path="url(#paa742b4bde)" d="M 90 221.6291 
L 92.80402 220.098986 
L 95.60804 218.437638 
L 98.41206 216.640461 
L 101.21608 214.703686 
L 104.020101 212.624522 
L 106.824121 210.401322 
L 112.432161 205.522925 
L 118.040201 200.08438 
L 123.648241 194.129953 
L 129.256281 187.736352 
L 134.864322 181.015399 
L 151.688442 160.530837 
L 157.296482 154.291905 
L 160.100503 151.416102 
L 162.904523 148.743725 
L 165.708543 146.304922 
L 168.512563 144.128798 
L 171.316583 142.242918 
L 174.120603 140.672806 
L 176.924623 139.441457 
L 179.728643 138.568862 
L 182.532663 138.071563 
L 185.336683 137.962256 
L 188.140704 138.249435 
L 190.944724 138.937106 
L 193.748744 140.02457 
L 196.552764 141.506283 
L 199.356784 143.371808 
L 202.160804 145.605844 
L 204.964824 148.188361 
L 207.768844 151.094817 
L 210.572864 154.296469 
L 213.376884 157.760763 
L 216.180905 161.451808 
L 221.788945 169.357186 
L 238.613065 194.203681 
L 244.221106 201.754685 
L 247.025126 205.229164 
L 249.829146 208.465006 
L 252.633166 211.438867 
L 255.437186 214.131806 
L 258.241206 216.529448 
L 261.045226 218.62205 
L 263.849246 220.404499 
L 266.653266 221.876216 
L 269.457286 223.041006 
L 272.261307 223.906837 
L 275.065327 224.485561 
L 277.869347 224.792604 
L 280.673367 224.846606 
L 283.477387 224.669047 
L 286.281407 224.28385 
L 289.085427 223.716978 
L 291.889447 222.996028 
L 297.497487 221.208051 
L 314.321608 215.223755 
L 317.125628 214.437222 
L 319.929648 213.779662 
L 322.733668 213.272746 
L 325.537688 212.935784 
L 328.341709 212.785485 
L 331.145729 212.835732 
L 333.949749 213.097388 
L 336.753769 213.578129 
L 339.557789 214.282304 
L 342.361809 215.210848 
L 345.165829 216.361225 
L 347.969849 217.727432 
L 350.773869 219.300061 
L 353.577889 221.066405 
L 356.38191 223.010646 
L 361.98995 227.355471 
L 367.59799 232.156332 
L 384.422111 247.178916 
L 390.030151 251.687543 
L 392.834171 253.745515 
L 395.638191 255.650079 
L 398.442211 257.388236 
L 401.246231 258.95032 
L 404.050251 260.330079 
L 406.854271 261.524677 
L 409.658291 262.53461 
L 412.462312 263.363534 
L 415.266332 264.018032 
L 418.070352 264.507304 
L 420.874372 264.842815 
L 423.678392 265.037893 
L 429.286432 265.066839 
L 434.894472 264.721777 
L 440.502513 264.132991 
L 460.130653 261.728768 
L 465.738693 261.249456 
L 471.346734 260.931147 
L 476.954774 260.782903 
L 482.562814 260.804472 
L 488.170854 260.991618 
L 493.778894 261.340021 
L 499.386935 261.847216 
L 504.994975 262.512437 
L 510.603015 263.334633 
L 519.015075 264.850455 
L 527.427136 266.658529 
L 552.663317 272.451799 
L 558.271357 273.407277 
L 563.879397 274.087535 
L 569.487437 274.43127 
L 575.095477 274.391313 
L 580.703518 273.938347 
L 586.311558 273.063099 
L 591.919598 271.776835 
L 597.527638 270.11021 
L 603.135678 268.110672 
L 608.743719 265.838775 
L 617.155779 262.073064 
L 639.58794 251.6292 
L 645.19598 249.256704 
L 648 248.136671 
L 648 248.136671 
" style="fill:none;stroke:#3465a4;stroke-linecap:square;stroke-width:2;"/>
   </g>
   <g id="patch_3">
    <path d="M 90 378 
L 90 51.84 
" style="fill:none;stroke:#000000;stroke-linecap:square;stroke-linejoin:miter;stroke-width:0.8;"/>
   </g>
   <g id="patch_4">
    <path d="M 648 378 
L 648 51.84 
" style="fill:none;stroke:#000000;stroke-linecap:square;stroke-linejoin:miter;stroke-width:0.8;"/>
   </g>
   <g id="patch_5">
    <path d="M 90 378 
L 648 378 
" style="fill:none;stroke:#000000;stroke-linecap:square;stroke-linejoin:miter;stroke-width:0.8;"/>
   </g>
   <g id="patch_6">
    <path d="M 90 51.84 
L 648 51.84 
" style="fill:none;stroke:#000000;stroke-linecap:square;stroke-linejoin:miter;stroke-width:0.8;"/>
   </g>
   <g id="legend_1">
    <g id="patch_7">
     <path d="M 552.771875 103.874375 
L 641 103.874375 
Q 643 103.874375 643 101.874375 
L 643 58.84 
Q 643 56.84 641 56.84 
L 552.771875 56.84 
Q 550.771875 56.84 550.771875 58.84 
L 550.771875 101.874375 
Q 550.771875 103.874375 552.771875 103.874375 
z
" style="fill:#ffffff;opacity:0.8;stroke:#cccccc;stroke-linejoin:miter;"/>
    </g>
    <g id="line2d_18">
     <path d="M 554.771875 64.938437 
L 574.771875 64.938437 
" style="fill:none;stroke:#3465a4;stroke-linecap:square;stroke-width:2;"/>
    </g>
    <g id="line2d_19"/>
    <g id="text_17">
     <!-- Mean -->
     <defs>
      <path d="M 9.8125 72.90625 
L 24.515625 72.90625 
L 43.109375 23.296875 
L 61.8125 72.90625 
L 76.515625 72.90625 
L 76.515625 0 
L 66.890625 0 
L 66.890625 64.015625 
L 48.09375 14.015625 
L 38.1875 14.015625 
L 19.390625 64.015625 
L 19.390625 0 
L 9.8125 0 
z
" id="DejaVuSans-77"/>
      <path d="M 56.203125 29.59375 
L 56.203125 25.203125 
L 14.890625 25.203125 
Q 15.484375 15.921875 20.484375 11.0625 
Q 25.484375 6.203125 34.421875 6.203125 
Q 39.59375 6.203125 44.453125 7.46875 
Q 49.3125 8.734375 54.109375 11.28125 
L 54.109375 2.78125 
Q 49.265625 0.734375 44.1875 -0.34375 
Q 39.109375 -1.421875 33.890625 -1.421875 
Q 20.796875 -1.421875 13.15625 6.1875 
Q 5.515625 13.8125 5.515625 26.8125 
Q 5.515625 40.234375 12.765625 48.109375 
Q 20.015625 56 32.328125 56 
Q 43.359375 56 49.78125 48.890625 
Q 56.203125 41.796875 56.203125 29.59375 
z
M 47.21875 32.234375 
Q 47.125 39.59375 43.09375 43.984375 
Q 39.0625 48.390625 32.421875 48.390625 
Q 24.90625 48.390625 20.390625 44.140625 
Q 15.875 39.890625 15.1875 32.171875 
z
" id="DejaVuSans-101"/>
      <path d="M 34.28125 27.484375 
Q 23.390625 27.484375 19.1875 25 
Q 14.984375 22.515625 14.984375 16.5 
Q 14.984375 11.71875 18.140625 8.90625 
Q 21.296875 6.109375 26.703125 6.109375 
Q 34.1875 6.109375 38.703125 11.40625 
Q 43.21875 16.703125 43.21875 25.484375 
L 43.21875 27.484375 
z
M 52.203125 31.203125 
L 52.203125 0 
L 43.21875 0 
L 43.21875 8.296875 
Q 40.140625 3.328125 35.546875 0.953125 
Q 30.953125 -1.421875 24.3125 -1.421875 
Q 15.921875 -1.421875 10.953125 3.296875 
Q 6 8.015625 6 15.921875 
Q 6 25.140625 12.171875 29.828125 
Q 18.359375 34.515625 30.609375 34.515625 
L 43.21875 34.515625 
L 43.21875 35.40625 
Q 43.21875 41.609375 39.140625 45 
Q 35.0625 48.390625 27.6875 48.390625 
Q 23 48.390625 18.546875 47.265625 
Q 14.109375 46.140625 10.015625 43.890625 
L 10.015625 52.203125 
Q 14.9375 54.109375 19.578125 55.046875 
Q 24.21875 56 28.609375 56 
Q 40.484375 56 46.34375 49.84375 
Q 52.203125 43.703125 52.203125 31.203125 
z
" id="DejaVuSans-97"/>
      <path d="M 54.890625 33.015625 
L 54.890625 0 
L 45.90625 0 
L 45.90625 32.71875 
Q 45.90625 40.484375 42.875 44.328125 
Q 39.84375 48.1875 33.796875 48.1875 
Q 26.515625 48.1875 22.3125 43.546875 
Q 18.109375 38.921875 18.109375 30.90625 
L 18.109375 0 
L 9.078125 0 
L 9.078125 54.6875 
L 18.109375 54.6875 
L 18.109375 46.1875 
Q 21.34375 51.125 25.703125 53.5625 
Q 30.078125 56 35.796875 56 
Q 45.21875 56 50.046875 50.171875 
Q 54.890625 44.34375 54.890625 33.015625 
z
" id="DejaVuSans-110"/>
     </defs>
     <g transform="translate(582.771875 68.438437)scale(0.1 -0.1)">
      <use xlink:href="#DejaVuSans-77"/>
      <use x="86.279297" xlink:href="#DejaVuSans-101"/>
      <use x="147.802734" xlink:href="#DejaVuSans-97"/>
      <use x="209.082031" xlink:href="#DejaVuSans-110"/>
     </g>
    </g>
    <g id="PathCollection_2">
     <g>
      <use style="stroke:#000000;stroke-width:1.5;" x="564.771875" xlink:href="#m22033eadd8" y="80.491562"/>
     </g>
    </g>
    <g id="text_18">
     <!-- Data -->
     <defs>
      <path d="M 19.671875 64.796875 
L 19.671875 8.109375 
L 31.59375 8.109375 
Q 46.6875 8.109375 53.6875 14.9375 
Q 60.6875 21.78125 60.6875 36.53125 
Q 60.6875 51.171875 53.6875 57.984375 
Q 46.6875 64.796875 31.59375 64.796875 
z
M 9.8125 72.90625 
L 30.078125 72.90625 
Q 51.265625 72.90625 61.171875 64.09375 
Q 71.09375 55.28125 71.09375 36.53125 
Q 71.09375 17.671875 61.125 8.828125 
Q 51.171875 0 30.078125 0 
L 9.8125 0 
z
" id="DejaVuSans-68"/>
      <path d="M 18.3125 70.21875 
L 18.3125 54.6875 
L 36.8125 54.6875 
L 36.8125 47.703125 
L 18.3125 47.703125 
L 18.3125 18.015625 
Q 18.3125 11.328125 20.140625 9.421875 
Q 21.96875 7.515625 27.59375 7.515625 
L 36.8125 7.515625 
L 36.8125 0 
L 27.59375 0 
Q 17.1875 0 13.234375 3.875 
Q 9.28125 7.765625 9.28125 18.015625 
L 9.28125 47.703125 
L 2.6875 47.703125 
L 2.6875 54.6875 
L 9.28125 54.6875 
L 9.28125 70.21875 
z
" id="DejaVuSans-116"/>
     </defs>
     <g transform="translate(582.771875 83.116562)scale(0.1 -0.1)">
      <use xlink:href="#DejaVuSans-68"/>
      <use x="77.001953" xlink:href="#DejaVuSans-97"/>
      <use x="138.28125" xlink:href="#DejaVuSans-116"/>
      <use x="177.490234" xlink:href="#DejaVuSans-97"/>
     </g>
    </g>
    <g id="patch_8">
     <path d="M 554.771875 97.794687 
L 574.771875 97.794687 
L 574.771875 90.794687 
L 554.771875 90.794687 
z
" style="fill:#729fcf;opacity:0.2;stroke:#204a87;stroke-linejoin:miter;stroke-width:0.5;"/>
    </g>
    <g id="text_19">
     <!-- Confidence -->
     <defs>
      <path d="M 64.40625 67.28125 
L 64.40625 56.890625 
Q 59.421875 61.53125 53.78125 63.8125 
Q 48.140625 66.109375 41.796875 66.109375 
Q 29.296875 66.109375 22.65625 58.46875 
Q 16.015625 50.828125 16.015625 36.375 
Q 16.015625 21.96875 22.65625 14.328125 
Q 29.296875 6.6875 41.796875 6.6875 
Q 48.140625 6.6875 53.78125 8.984375 
Q 59.421875 11.28125 64.40625 15.921875 
L 64.40625 5.609375 
Q 59.234375 2.09375 53.4375 0.328125 
Q 47.65625 -1.421875 41.21875 -1.421875 
Q 24.65625 -1.421875 15.125 8.703125 
Q 5.609375 18.84375 5.609375 36.375 
Q 5.609375 53.953125 15.125 64.078125 
Q 24.65625 74.21875 41.21875 74.21875 
Q 47.75 74.21875 53.53125 72.484375 
Q 59.328125 70.75 64.40625 67.28125 
z
" id="DejaVuSans-67"/>
      <path d="M 30.609375 48.390625 
Q 23.390625 48.390625 19.1875 42.75 
Q 14.984375 37.109375 14.984375 27.296875 
Q 14.984375 17.484375 19.15625 11.84375 
Q 23.34375 6.203125 30.609375 6.203125 
Q 37.796875 6.203125 41.984375 11.859375 
Q 46.1875 17.53125 46.1875 27.296875 
Q 46.1875 37.015625 41.984375 42.703125 
Q 37.796875 48.390625 30.609375 48.390625 
z
M 30.609375 56 
Q 42.328125 56 49.015625 48.375 
Q 55.71875 40.765625 55.71875 27.296875 
Q 55.71875 13.875 49.015625 6.21875 
Q 42.328125 -1.421875 30.609375 -1.421875 
Q 18.84375 -1.421875 12.171875 6.21875 
Q 5.515625 13.875 5.515625 27.296875 
Q 5.515625 40.765625 12.171875 48.375 
Q 18.84375 56 30.609375 56 
z
" id="DejaVuSans-111"/>
      <path d="M 37.109375 75.984375 
L 37.109375 68.5 
L 28.515625 68.5 
Q 23.6875 68.5 21.796875 66.546875 
Q 19.921875 64.59375 19.921875 59.515625 
L 19.921875 54.6875 
L 34.71875 54.6875 
L 34.71875 47.703125 
L 19.921875 47.703125 
L 19.921875 0 
L 10.890625 0 
L 10.890625 47.703125 
L 2.296875 47.703125 
L 2.296875 54.6875 
L 10.890625 54.6875 
L 10.890625 58.5 
Q 10.890625 67.625 15.140625 71.796875 
Q 19.390625 75.984375 28.609375 75.984375 
z
" id="DejaVuSans-102"/>
      <path d="M 9.421875 54.6875 
L 18.40625 54.6875 
L 18.40625 0 
L 9.421875 0 
z
M 9.421875 75.984375 
L 18.40625 75.984375 
L 18.40625 64.59375 
L 9.421875 64.59375 
z
" id="DejaVuSans-105"/>
      <path d="M 45.40625 46.390625 
L 45.40625 75.984375 
L 54.390625 75.984375 
L 54.390625 0 
L 45.40625 0 
L 45.40625 8.203125 
Q 42.578125 3.328125 38.25 0.953125 
Q 33.9375 -1.421875 27.875 -1.421875 
Q 17.96875 -1.421875 11.734375 6.484375 
Q 5.515625 14.40625 5.515625 27.296875 
Q 5.515625 40.1875 11.734375 48.09375 
Q 17.96875 56 27.875 56 
Q 33.9375 56 38.25 53.625 
Q 42.578125 51.265625 45.40625 46.390625 
z
M 14.796875 27.296875 
Q 14.796875 17.390625 18.875 11.75 
Q 22.953125 6.109375 30.078125 6.109375 
Q 37.203125 6.109375 41.296875 11.75 
Q 45.40625 17.390625 45.40625 27.296875 
Q 45.40625 37.203125 41.296875 42.84375 
Q 37.203125 48.484375 30.078125 48.484375 
Q 22.953125 48.484375 18.875 42.84375 
Q 14.796875 37.203125 14.796875 27.296875 
z
" id="DejaVuSans-100"/>
      <path d="M 48.78125 52.59375 
L 48.78125 44.1875 
Q 44.96875 46.296875 41.140625 47.34375 
Q 37.3125 48.390625 33.40625 48.390625 
Q 24.65625 48.390625 19.8125 42.84375 
Q 14.984375 37.3125 14.984375 27.296875 
Q 14.984375 17.28125 19.8125 11.734375 
Q 24.65625 6.203125 33.40625 6.203125 
Q 37.3125 6.203125 41.140625 7.25 
Q 44.96875 8.296875 48.78125 10.40625 
L 48.78125 2.09375 
Q 45.015625 0.34375 40.984375 -0.53125 
Q 36.96875 -1.421875 32.421875 -1.421875 
Q 20.0625 -1.421875 12.78125 6.34375 
Q 5.515625 14.109375 5.515625 27.296875 
Q 5.515625 40.671875 12.859375 48.328125 
Q 20.21875 56 33.015625 56 
Q 37.15625 56 41.109375 55.140625 
Q 45.0625 54.296875 48.78125 52.59375 
z
" id="DejaVuSans-99"/>
     </defs>
     <g transform="translate(582.771875 97.794687)scale(0.1 -0.1)">
      <use xlink:href="#DejaVuSans-67"/>
      <use x="69.824219" xlink:href="#DejaVuSans-111"/>
      <use x="131.005859" xlink:href="#DejaVuSans-110"/>
      <use x="194.384766" xlink:href="#DejaVuSans-102"/>
      <use x="229.589844" xlink:href="#DejaVuSans-105"/>
      <use x="257.373047" xlink:href="#DejaVuSans-100"/>
      <use x="320.849609" xlink:href="#DejaVuSans-101"/>
      <use x="382.373047" xlink:href="#DejaVuSans-110"/>
      <use x="445.751953" xlink:href="#DejaVuSans-99"/>
      <use x="500.732422" xlink:href="#DejaVuSans-101"/>
     </g>
    </g>
   </g>
  </g>
 </g>
 <defs>
  <clipPath id="paa742b4bde">
   <rect height="326.16" width="558" x="90" y="51.84"/>
  </clipPath>
 </defs>
</svg>
