<?xml version="1.0" encoding="utf-8" standalone="no"?>
<!DOCTYPE svg PUBLIC "-//W3C//DTD SVG 1.1//EN"
  "http://www.w3.org/Graphics/SVG/1.1/DTD/svg11.dtd">
<!-- Created with matplotlib (http://matplotlib.org/) -->
<svg height="432pt" version="1.1" viewBox="0 0 864 432" width="864pt" xmlns="http://www.w3.org/2000/svg" xmlns:xlink="http://www.w3.org/1999/xlink">
 <defs>
  <style type="text/css">
*{stroke-linecap:butt;stroke-linejoin:round;}
  </style>
 </defs>
 <g id="figure_1">
  <g id="patch_1">
   <path d="M 0 432 
L 864 432 
L 864 0 
L 0 0 
z
" style="fill:none;"/>
  </g>
  <g id="axes_1">
   <g id="patch_2">
    <path d="M 108 378 
L 777.6 378 
L 777.6 51.84 
L 108 51.84 
z
" style="fill:none;"/>
   </g>
   <g id="patch_3">
    <path clip-path="url(#pcfba0673e6)" d="M 138.436364 93.704938 
L 141.495295 98.230687 
L 144.554226 102.842384 
L 147.613157 107.526616 
L 150.672088 112.269072 
L 153.731019 117.054657 
L 156.78995 121.867631 
L 159.848881 126.691755 
L 162.907812 131.51044 
L 165.966743 136.306905 
L 169.025674 141.064339 
L 172.084605 145.766049 
L 175.143536 150.395606 
L 178.202467 154.936991 
L 181.261398 159.374717 
L 184.320329 163.693951 
L 187.37926 167.880643 
L 190.438191 171.921645 
L 193.497122 175.804875 
L 196.556053 179.519512 
L 199.614984 183.056271 
L 202.673915 186.407777 
L 205.732846 189.569064 
L 208.791777 192.538209 
L 211.850708 195.317077 
L 214.909639 197.912116 
L 217.96857 200.335075 
L 221.027501 202.603481 
L 224.086432 204.740685 
L 227.145363 206.77533 
L 230.204294 208.740176 
L 233.263225 210.670354 
L 236.322156 212.601245 
L 239.381087 214.566238 
L 242.440018 216.594657 
L 245.498949 218.710036 
L 248.55788 220.92889 
L 251.616811 223.259985 
L 254.675742 225.704094 
L 257.734673 228.254148 
L 260.793604 230.895719 
L 263.852535 233.607733 
L 266.911466 236.363364 
L 269.970397 239.131041 
L 273.029328 241.875525 
L 276.088259 244.559022 
L 279.14719 247.142292 
L 282.206122 249.585726 
L 285.265053 251.850372 
L 288.323984 253.89887 
L 291.382915 255.69628 
L 294.441846 257.210784 
L 297.500777 258.414243 
L 300.559708 259.282593 
L 303.618639 259.79609 
L 306.67757 259.939383 
L 309.736501 259.701428 
L 312.795432 259.07526 
L 315.854363 258.057618 
L 318.913294 256.648456 
L 321.972225 254.850348 
L 325.031156 252.66783 
L 328.090087 250.106703 
L 331.149018 247.17336 
L 334.207949 243.874196 
L 337.26688 240.215178 
L 340.325811 236.201668 
L 343.384742 231.838583 
L 346.443673 227.130956 
L 349.502604 222.084895 
L 352.561535 216.708885 
L 355.620466 211.015268 
L 358.679397 205.021664 
L 361.738328 198.752076 
L 364.797259 192.237483 
L 367.85619 185.515805 
L 370.915121 178.631269 
L 373.974052 171.633321 
L 377.032983 164.575257 
L 380.091914 157.512773 
L 383.150845 150.502582 
L 386.209776 143.601185 
L 389.268707 136.863848 
L 392.327638 130.343778 
L 395.386569 124.091498 
L 398.4455 118.154369 
L 401.504431 112.576252 
L 404.563362 107.397269 
L 407.622293 102.653647 
L 410.681224 98.377618 
L 413.740155 94.597377 
L 416.799086 91.337062 
L 419.858017 88.616771 
L 422.916948 86.452591 
L 425.975879 84.85665 
L 429.03481 83.837167 
L 432.093741 83.398519 
L 435.152672 83.541299 
L 438.211603 84.262388 
L 441.270534 85.555018 
L 444.329466 87.408832 
L 447.388397 89.809953 
L 450.447328 92.741042 
L 453.506259 96.181358 
L 456.56519 100.106827 
L 459.624121 104.490104 
L 462.683052 109.30065 
L 465.741983 114.504809 
L 468.800914 120.065906 
L 471.859845 125.944351 
L 474.918776 132.097765 
L 477.977707 138.481124 
L 481.036638 145.046935 
L 484.095569 151.745436 
L 487.1545 158.524832 
L 490.213431 165.331585 
L 493.272362 172.11075 
L 496.331293 178.806388 
L 499.390224 185.362069 
L 502.449155 191.721481 
L 505.508086 197.829189 
L 508.567017 203.631539 
L 511.625948 209.077755 
L 514.684879 214.121188 
L 517.74381 218.720694 
L 520.802741 222.842033 
L 523.861672 226.459146 
L 526.920603 229.555113 
L 529.979534 232.122604 
L 533.038465 234.163697 
L 536.097396 235.68903 
L 539.156327 236.716387 
L 542.215258 237.268955 
L 545.274189 237.373476 
L 548.33312 237.058567 
L 551.392051 236.35335 
L 554.450982 235.28648 
L 557.509913 233.885566 
L 560.568844 232.176929 
L 563.627775 230.185632 
L 566.686706 227.935679 
L 569.745637 225.450326 
L 572.804568 222.752452 
L 575.863499 219.864923 
L 578.92243 216.810938 
L 581.981361 213.614322 
L 585.040292 210.29975 
L 588.099223 206.892885 
L 591.158154 203.420423 
L 594.217085 199.910037 
L 597.276016 196.390212 
L 600.334947 192.889967 
L 603.393878 189.438473 
L 606.45281 186.064575 
L 609.511741 182.796222 
L 612.570672 179.659818 
L 615.629603 176.679527 
L 618.688534 173.876529 
L 621.747465 171.268265 
L 624.806396 168.867687 
L 627.865327 166.682532 
L 630.924258 164.714664 
L 633.983189 162.959519 
L 637.04212 161.405688 
L 640.101051 160.034732 
L 643.159982 158.821271 
L 646.218913 157.733454 
L 649.277844 156.733857 
L 652.336775 155.780855 
L 655.395706 154.830442 
L 658.454637 153.838361 
L 661.513568 152.762362 
L 664.572499 151.564299 
L 667.63143 150.211824 
L 670.690361 148.679467 
L 673.749292 146.949058 
L 676.808223 145.009538 
L 679.867154 142.856322 
L 682.926085 140.49041 
L 685.985016 137.917408 
L 689.043947 135.146594 
L 692.102878 132.1901 
L 695.161809 129.062228 
L 698.22074 125.7789 
L 701.279671 122.35722 
L 704.338602 118.815128 
L 707.397533 115.171108 
L 710.456464 111.443947 
L 713.515395 107.652521 
L 716.574326 103.815593 
L 719.633257 99.95164 
L 722.692188 96.078673 
L 725.751119 92.214085 
L 728.81005 88.3745 
L 731.868981 84.575635 
L 734.927912 80.832187 
L 737.986843 77.157726 
L 741.045774 73.564612 
L 744.104705 70.063932 
L 747.163636 66.665455 
L 747.163636 336.135062 
L 744.104705 334.671438 
L 741.045774 332.971205 
L 737.986843 331.027683 
L 734.927912 328.836552 
L 731.868981 326.396113 
L 728.81005 323.707543 
L 725.751119 320.775112 
L 722.692188 317.606386 
L 719.633257 314.21239 
L 716.574326 310.607732 
L 713.515395 306.810692 
L 710.456464 302.843257 
L 707.397533 298.731111 
L 704.338602 294.503567 
L 701.279671 290.193425 
L 698.22074 285.836765 
L 695.161809 281.472651 
L 692.102878 277.142724 
L 689.043947 272.890674 
L 685.985016 268.761561 
L 682.926085 264.800965 
L 679.867154 261.053932 
L 676.808223 257.563739 
L 673.749292 254.370483 
L 670.690361 251.509596 
L 667.63143 249.010387 
L 664.572499 246.89483 
L 661.513568 245.176768 
L 658.454637 243.861714 
L 655.395706 242.947321 
L 652.336775 242.424467 
L 649.277844 242.278772 
L 646.218913 242.492299 
L 643.159982 243.045186 
L 640.101051 243.917002 
L 637.04212 245.087731 
L 633.983189 246.538347 
L 630.924258 248.251042 
L 627.865327 250.209151 
L 624.806396 252.396892 
L 621.747465 254.798964 
L 618.688534 257.4001 
L 615.629603 260.184602 
L 612.570672 263.135895 
L 609.511741 266.236146 
L 606.45281 269.465946 
L 603.393878 272.804079 
L 600.334947 276.2274 
L 597.276016 279.710807 
L 594.217085 283.227342 
L 591.158154 286.7484 
L 588.099223 290.244064 
L 585.040292 293.683547 
L 581.981361 297.035739 
L 578.92243 300.269847 
L 575.863499 303.35611 
L 572.804568 306.266564 
L 569.745637 308.975856 
L 566.686706 311.462057 
L 563.627775 313.70747 
L 560.568844 315.699401 
L 557.509913 317.430841 
L 554.450982 318.901026 
L 551.392051 320.115815 
L 548.33312 321.087807 
L 545.274189 321.836121 
L 542.215258 322.385763 
L 539.156327 322.766539 
L 536.097396 323.011501 
L 533.038465 323.155024 
L 529.979534 323.230686 
L 526.920603 323.269177 
L 523.861672 323.29654 
L 520.802741 323.33293 
L 517.74381 323.392028 
L 514.684879 323.481081 
L 511.625948 323.60145 
L 508.567017 323.749476 
L 505.508086 323.917493 
L 502.449155 324.094823 
L 499.390224 324.268691 
L 496.331293 324.424989 
L 493.272362 324.548905 
L 490.213431 324.625422 
L 487.1545 324.639715 
L 484.095569 324.577479 
L 481.036638 324.425191 
L 477.977707 324.170345 
L 474.918776 323.801657 
L 471.859845 323.309254 
L 468.800914 322.684848 
L 465.741983 321.921906 
L 462.683052 321.015793 
L 459.624121 319.963918 
L 456.56519 318.765849 
L 453.506259 317.423424 
L 450.447328 315.940827 
L 447.388397 314.324649 
L 444.329466 312.583919 
L 441.270534 310.730105 
L 438.211603 308.777084 
L 435.152672 306.741084 
L 432.093741 304.640584 
L 429.03481 302.496189 
L 425.975879 300.330463 
L 422.916948 298.167735 
L 419.858017 296.033868 
L 416.799086 293.956005 
L 413.740155 291.96228 
L 410.681224 290.081511 
L 407.622293 288.342868 
L 404.563362 286.775525 
L 401.504431 285.408296 
L 398.4455 284.269252 
L 395.386569 283.385335 
L 392.327638 282.781934 
L 389.268707 282.482449 
L 386.209776 282.507808 
L 383.150845 282.875924 
L 380.091914 283.601077 
L 377.032983 284.693194 
L 373.974052 286.157015 
L 370.915121 287.991162 
L 367.85619 290.187139 
L 364.797259 292.72838 
L 361.738328 295.58947 
L 358.679397 298.735728 
L 355.620466 302.12335 
L 352.561535 305.700212 
L 349.502604 309.407366 
L 346.443673 313.181108 
L 343.384742 316.955392 
L 340.325811 320.664313 
L 337.26688 324.244418 
L 334.207949 327.636661 
L 331.149018 330.787905 
L 328.090087 333.651978 
L 325.031156 336.190302 
L 321.972225 338.372186 
L 318.913294 340.174834 
L 315.854363 341.583149 
L 312.795432 342.589372 
L 309.736501 343.192615 
L 306.67757 343.398292 
L 303.618639 343.217507 
L 300.559708 342.66639 
L 297.500777 341.765422 
L 294.441846 340.538762 
L 291.382915 339.013585 
L 288.323984 337.219465 
L 285.265053 335.187805 
L 282.206122 332.951332 
L 279.14719 330.543662 
L 276.088259 327.998947 
L 273.029328 325.351602 
L 269.970397 322.636116 
L 266.911466 319.886936 
L 263.852535 317.138432 
L 260.793604 314.424924 
L 257.734673 311.780768 
L 254.675742 309.240471 
L 251.616811 306.838814 
L 248.55788 304.610933 
L 245.498949 302.592307 
L 242.440018 300.818572 
L 239.381087 299.325083 
L 236.322156 298.14616 
L 233.263225 297.313967 
L 230.204294 296.857055 
L 227.145363 296.798683 
L 224.086432 297.155092 
L 221.027501 297.934012 
L 217.96857 299.133639 
L 214.909639 300.742245 
L 211.850708 302.738503 
L 208.791777 305.09241 
L 205.732846 307.766674 
L 202.673915 310.718332 
L 199.614984 313.900424 
L 196.556053 317.263591 
L 193.497122 320.757498 
L 190.438191 324.332068 
L 187.37926 327.938508 
L 184.320329 331.530156 
L 181.261398 335.063156 
L 178.202467 338.496995 
L 175.143536 341.794916 
L 172.084605 344.92422 
L 169.025674 347.856479 
L 165.966743 350.567656 
L 162.907812 353.038153 
L 159.848881 355.252782 
L 156.78995 357.200674 
L 153.731019 358.875135 
L 150.672088 360.273437 
L 147.613157 361.396574 
L 144.554226 362.248977 
L 141.495295 362.838193 
L 138.436364 363.174545 
z
" style="fill:#cc3300;opacity:0.3;stroke:#cc3300;stroke-linejoin:miter;stroke-width:0.5;"/>
   </g>
   <g id="matplotlib.axis_1">
    <g id="xtick_1">
     <g id="line2d_1">
      <defs>
       <path d="M 0 0 
L 0 3.5 
" id="me4bd689f46" style="stroke:#000000;stroke-width:0.8;"/>
      </defs>
      <g>
       <use style="stroke:#000000;stroke-width:0.8;" x="138.436364" xlink:href="#me4bd689f46" y="378"/>
      </g>
     </g>
     <g id="text_1">
      <!-- −2 -->
      <defs>
       <path d="M 10.59375 35.5 
L 73.1875 35.5 
L 73.1875 27.203125 
L 10.59375 27.203125 
z
" id="DejaVuSans-2212"/>
       <path d="M 19.1875 8.296875 
L 53.609375 8.296875 
L 53.609375 0 
L 7.328125 0 
L 7.328125 8.296875 
Q 12.9375 14.109375 22.625 23.890625 
Q 32.328125 33.6875 34.8125 36.53125 
Q 39.546875 41.84375 41.421875 45.53125 
Q 43.3125 49.21875 43.3125 52.78125 
Q 43.3125 58.59375 39.234375 62.25 
Q 35.15625 65.921875 28.609375 65.921875 
Q 23.96875 65.921875 18.8125 64.3125 
Q 13.671875 62.703125 7.8125 59.421875 
L 7.8125 69.390625 
Q 13.765625 71.78125 18.9375 73 
Q 24.125 74.21875 28.421875 74.21875 
Q 39.75 74.21875 46.484375 68.546875 
Q 53.21875 62.890625 53.21875 53.421875 
Q 53.21875 48.921875 51.53125 44.890625 
Q 49.859375 40.875 45.40625 35.40625 
Q 44.1875 33.984375 37.640625 27.21875 
Q 31.109375 20.453125 19.1875 8.296875 
z
" id="DejaVuSans-32"/>
      </defs>
      <g transform="translate(131.06527 392.598437)scale(0.1 -0.1)">
       <use xlink:href="#DejaVuSans-2212"/>
       <use x="83.789062" xlink:href="#DejaVuSans-32"/>
      </g>
     </g>
    </g>
    <g id="xtick_2">
     <g id="line2d_2">
      <g>
       <use style="stroke:#000000;stroke-width:0.8;" x="225.397403" xlink:href="#me4bd689f46" y="378"/>
      </g>
     </g>
     <g id="text_2">
      <!-- 0 -->
      <defs>
       <path d="M 31.78125 66.40625 
Q 24.171875 66.40625 20.328125 58.90625 
Q 16.5 51.421875 16.5 36.375 
Q 16.5 21.390625 20.328125 13.890625 
Q 24.171875 6.390625 31.78125 6.390625 
Q 39.453125 6.390625 43.28125 13.890625 
Q 47.125 21.390625 47.125 36.375 
Q 47.125 51.421875 43.28125 58.90625 
Q 39.453125 66.40625 31.78125 66.40625 
z
M 31.78125 74.21875 
Q 44.046875 74.21875 50.515625 64.515625 
Q 56.984375 54.828125 56.984375 36.375 
Q 56.984375 17.96875 50.515625 8.265625 
Q 44.046875 -1.421875 31.78125 -1.421875 
Q 19.53125 -1.421875 13.0625 8.265625 
Q 6.59375 17.96875 6.59375 36.375 
Q 6.59375 54.828125 13.0625 64.515625 
Q 19.53125 74.21875 31.78125 74.21875 
z
" id="DejaVuSans-30"/>
      </defs>
      <g transform="translate(222.216153 392.598437)scale(0.1 -0.1)">
       <use xlink:href="#DejaVuSans-30"/>
      </g>
     </g>
    </g>
    <g id="xtick_3">
     <g id="line2d_3">
      <g>
       <use style="stroke:#000000;stroke-width:0.8;" x="312.358442" xlink:href="#me4bd689f46" y="378"/>
      </g>
     </g>
     <g id="text_3">
      <!-- 2 -->
      <g transform="translate(309.177192 392.598437)scale(0.1 -0.1)">
       <use xlink:href="#DejaVuSans-32"/>
      </g>
     </g>
    </g>
    <g id="xtick_4">
     <g id="line2d_4">
      <g>
       <use style="stroke:#000000;stroke-width:0.8;" x="399.319481" xlink:href="#me4bd689f46" y="378"/>
      </g>
     </g>
     <g id="text_4">
      <!-- 4 -->
      <defs>
       <path d="M 37.796875 64.3125 
L 12.890625 25.390625 
L 37.796875 25.390625 
z
M 35.203125 72.90625 
L 47.609375 72.90625 
L 47.609375 25.390625 
L 58.015625 25.390625 
L 58.015625 17.1875 
L 47.609375 17.1875 
L 47.609375 0 
L 37.796875 0 
L 37.796875 17.1875 
L 4.890625 17.1875 
L 4.890625 26.703125 
z
" id="DejaVuSans-34"/>
      </defs>
      <g transform="translate(396.138231 392.598437)scale(0.1 -0.1)">
       <use xlink:href="#DejaVuSans-34"/>
      </g>
     </g>
    </g>
    <g id="xtick_5">
     <g id="line2d_5">
      <g>
       <use style="stroke:#000000;stroke-width:0.8;" x="486.280519" xlink:href="#me4bd689f46" y="378"/>
      </g>
     </g>
     <g id="text_5">
      <!-- 6 -->
      <defs>
       <path d="M 33.015625 40.375 
Q 26.375 40.375 22.484375 35.828125 
Q 18.609375 31.296875 18.609375 23.390625 
Q 18.609375 15.53125 22.484375 10.953125 
Q 26.375 6.390625 33.015625 6.390625 
Q 39.65625 6.390625 43.53125 10.953125 
Q 47.40625 15.53125 47.40625 23.390625 
Q 47.40625 31.296875 43.53125 35.828125 
Q 39.65625 40.375 33.015625 40.375 
z
M 52.59375 71.296875 
L 52.59375 62.3125 
Q 48.875 64.0625 45.09375 64.984375 
Q 41.3125 65.921875 37.59375 65.921875 
Q 27.828125 65.921875 22.671875 59.328125 
Q 17.53125 52.734375 16.796875 39.40625 
Q 19.671875 43.65625 24.015625 45.921875 
Q 28.375 48.1875 33.59375 48.1875 
Q 44.578125 48.1875 50.953125 41.515625 
Q 57.328125 34.859375 57.328125 23.390625 
Q 57.328125 12.15625 50.6875 5.359375 
Q 44.046875 -1.421875 33.015625 -1.421875 
Q 20.359375 -1.421875 13.671875 8.265625 
Q 6.984375 17.96875 6.984375 36.375 
Q 6.984375 53.65625 15.1875 63.9375 
Q 23.390625 74.21875 37.203125 74.21875 
Q 40.921875 74.21875 44.703125 73.484375 
Q 48.484375 72.75 52.59375 71.296875 
z
" id="DejaVuSans-36"/>
      </defs>
      <g transform="translate(483.099269 392.598437)scale(0.1 -0.1)">
       <use xlink:href="#DejaVuSans-36"/>
      </g>
     </g>
    </g>
    <g id="xtick_6">
     <g id="line2d_6">
      <g>
       <use style="stroke:#000000;stroke-width:0.8;" x="573.241558" xlink:href="#me4bd689f46" y="378"/>
      </g>
     </g>
     <g id="text_6">
      <!-- 8 -->
      <defs>
       <path d="M 31.78125 34.625 
Q 24.75 34.625 20.71875 30.859375 
Q 16.703125 27.09375 16.703125 20.515625 
Q 16.703125 13.921875 20.71875 10.15625 
Q 24.75 6.390625 31.78125 6.390625 
Q 38.8125 6.390625 42.859375 10.171875 
Q 46.921875 13.96875 46.921875 20.515625 
Q 46.921875 27.09375 42.890625 30.859375 
Q 38.875 34.625 31.78125 34.625 
z
M 21.921875 38.8125 
Q 15.578125 40.375 12.03125 44.71875 
Q 8.5 49.078125 8.5 55.328125 
Q 8.5 64.0625 14.71875 69.140625 
Q 20.953125 74.21875 31.78125 74.21875 
Q 42.671875 74.21875 48.875 69.140625 
Q 55.078125 64.0625 55.078125 55.328125 
Q 55.078125 49.078125 51.53125 44.71875 
Q 48 40.375 41.703125 38.8125 
Q 48.828125 37.15625 52.796875 32.3125 
Q 56.78125 27.484375 56.78125 20.515625 
Q 56.78125 9.90625 50.3125 4.234375 
Q 43.84375 -1.421875 31.78125 -1.421875 
Q 19.734375 -1.421875 13.25 4.234375 
Q 6.78125 9.90625 6.78125 20.515625 
Q 6.78125 27.484375 10.78125 32.3125 
Q 14.796875 37.15625 21.921875 38.8125 
z
M 18.3125 54.390625 
Q 18.3125 48.734375 21.84375 45.5625 
Q 25.390625 42.390625 31.78125 42.390625 
Q 38.140625 42.390625 41.71875 45.5625 
Q 45.3125 48.734375 45.3125 54.390625 
Q 45.3125 60.0625 41.71875 63.234375 
Q 38.140625 66.40625 31.78125 66.40625 
Q 25.390625 66.40625 21.84375 63.234375 
Q 18.3125 60.0625 18.3125 54.390625 
z
" id="DejaVuSans-38"/>
      </defs>
      <g transform="translate(570.060308 392.598437)scale(0.1 -0.1)">
       <use xlink:href="#DejaVuSans-38"/>
      </g>
     </g>
    </g>
    <g id="xtick_7">
     <g id="line2d_7">
      <g>
       <use style="stroke:#000000;stroke-width:0.8;" x="660.202597" xlink:href="#me4bd689f46" y="378"/>
      </g>
     </g>
     <g id="text_7">
      <!-- 10 -->
      <defs>
       <path d="M 12.40625 8.296875 
L 28.515625 8.296875 
L 28.515625 63.921875 
L 10.984375 60.40625 
L 10.984375 69.390625 
L 28.421875 72.90625 
L 38.28125 72.90625 
L 38.28125 8.296875 
L 54.390625 8.296875 
L 54.390625 0 
L 12.40625 0 
z
" id="DejaVuSans-31"/>
      </defs>
      <g transform="translate(653.840097 392.598437)scale(0.1 -0.1)">
       <use xlink:href="#DejaVuSans-31"/>
       <use x="63.623047" xlink:href="#DejaVuSans-30"/>
      </g>
     </g>
    </g>
    <g id="xtick_8">
     <g id="line2d_8">
      <g>
       <use style="stroke:#000000;stroke-width:0.8;" x="747.163636" xlink:href="#me4bd689f46" y="378"/>
      </g>
     </g>
     <g id="text_8">
      <!-- 12 -->
      <g transform="translate(740.801136 392.598437)scale(0.1 -0.1)">
       <use xlink:href="#DejaVuSans-31"/>
       <use x="63.623047" xlink:href="#DejaVuSans-32"/>
      </g>
     </g>
    </g>
    <g id="text_9">
     <!-- $x$ -->
     <defs>
      <path d="M 60.015625 54.6875 
L 34.90625 27.875 
L 50.296875 0 
L 39.984375 0 
L 28.421875 21.6875 
L 8.296875 0 
L -2.59375 0 
L 24.3125 28.8125 
L 10.015625 54.6875 
L 20.3125 54.6875 
L 30.8125 34.90625 
L 49.125 54.6875 
z
" id="DejaVuSans-Oblique-78"/>
     </defs>
     <g transform="translate(436.8 413.875)scale(0.2 -0.2)">
      <use transform="translate(0 0.3125)" xlink:href="#DejaVuSans-Oblique-78"/>
     </g>
    </g>
   </g>
   <g id="matplotlib.axis_2">
    <g id="ytick_1">
     <g id="line2d_9">
      <defs>
       <path d="M 0 0 
L -3.5 0 
" id="m244887c148" style="stroke:#000000;stroke-width:0.8;"/>
      </defs>
      <g>
       <use style="stroke:#000000;stroke-width:0.8;" x="108" xlink:href="#m244887c148" y="347.844697"/>
      </g>
     </g>
     <g id="text_10">
      <!-- −3 -->
      <defs>
       <path d="M 40.578125 39.3125 
Q 47.65625 37.796875 51.625 33 
Q 55.609375 28.21875 55.609375 21.1875 
Q 55.609375 10.40625 48.1875 4.484375 
Q 40.765625 -1.421875 27.09375 -1.421875 
Q 22.515625 -1.421875 17.65625 -0.515625 
Q 12.796875 0.390625 7.625 2.203125 
L 7.625 11.71875 
Q 11.71875 9.328125 16.59375 8.109375 
Q 21.484375 6.890625 26.8125 6.890625 
Q 36.078125 6.890625 40.9375 10.546875 
Q 45.796875 14.203125 45.796875 21.1875 
Q 45.796875 27.640625 41.28125 31.265625 
Q 36.765625 34.90625 28.71875 34.90625 
L 20.21875 34.90625 
L 20.21875 43.015625 
L 29.109375 43.015625 
Q 36.375 43.015625 40.234375 45.921875 
Q 44.09375 48.828125 44.09375 54.296875 
Q 44.09375 59.90625 40.109375 62.90625 
Q 36.140625 65.921875 28.71875 65.921875 
Q 24.65625 65.921875 20.015625 65.03125 
Q 15.375 64.15625 9.8125 62.3125 
L 9.8125 71.09375 
Q 15.4375 72.65625 20.34375 73.4375 
Q 25.25 74.21875 29.59375 74.21875 
Q 40.828125 74.21875 47.359375 69.109375 
Q 53.90625 64.015625 53.90625 55.328125 
Q 53.90625 49.265625 50.4375 45.09375 
Q 46.96875 40.921875 40.578125 39.3125 
z
" id="DejaVuSans-33"/>
      </defs>
      <g transform="translate(86.257812 351.643916)scale(0.1 -0.1)">
       <use xlink:href="#DejaVuSans-2212"/>
       <use x="83.789062" xlink:href="#DejaVuSans-33"/>
      </g>
     </g>
    </g>
    <g id="ytick_2">
     <g id="line2d_10">
      <g>
       <use style="stroke:#000000;stroke-width:0.8;" x="108" xlink:href="#m244887c148" y="289.049127"/>
      </g>
     </g>
     <g id="text_11">
      <!-- −2 -->
      <g transform="translate(86.257812 292.848346)scale(0.1 -0.1)">
       <use xlink:href="#DejaVuSans-2212"/>
       <use x="83.789062" xlink:href="#DejaVuSans-32"/>
      </g>
     </g>
    </g>
    <g id="ytick_3">
     <g id="line2d_11">
      <g>
       <use style="stroke:#000000;stroke-width:0.8;" x="108" xlink:href="#m244887c148" y="230.253557"/>
      </g>
     </g>
     <g id="text_12">
      <!-- −1 -->
      <g transform="translate(86.257812 234.052776)scale(0.1 -0.1)">
       <use xlink:href="#DejaVuSans-2212"/>
       <use x="83.789062" xlink:href="#DejaVuSans-31"/>
      </g>
     </g>
    </g>
    <g id="ytick_4">
     <g id="line2d_12">
      <g>
       <use style="stroke:#000000;stroke-width:0.8;" x="108" xlink:href="#m244887c148" y="171.457987"/>
      </g>
     </g>
     <g id="text_13">
      <!-- 0 -->
      <g transform="translate(94.6375 175.257205)scale(0.1 -0.1)">
       <use xlink:href="#DejaVuSans-30"/>
      </g>
     </g>
    </g>
    <g id="ytick_5">
     <g id="line2d_13">
      <g>
       <use style="stroke:#000000;stroke-width:0.8;" x="108" xlink:href="#m244887c148" y="112.662416"/>
      </g>
     </g>
     <g id="text_14">
      <!-- 1 -->
      <g transform="translate(94.6375 116.461635)scale(0.1 -0.1)">
       <use xlink:href="#DejaVuSans-31"/>
      </g>
     </g>
    </g>
    <g id="ytick_6">
     <g id="line2d_14">
      <g>
       <use style="stroke:#000000;stroke-width:0.8;" x="108" xlink:href="#m244887c148" y="53.866846"/>
      </g>
     </g>
     <g id="text_15">
      <!-- 2 -->
      <g transform="translate(94.6375 57.666065)scale(0.1 -0.1)">
       <use xlink:href="#DejaVuSans-32"/>
      </g>
     </g>
    </g>
    <g id="text_16">
     <!-- $y$ -->
     <defs>
      <path d="M 24.8125 -5.078125 
Q 18.5625 -15.578125 14.625 -18.1875 
Q 10.6875 -20.796875 4.59375 -20.796875 
L -2.484375 -20.796875 
L -0.984375 -13.28125 
L 4.203125 -13.28125 
Q 7.953125 -13.28125 10.59375 -11.234375 
Q 13.234375 -9.1875 16.5 -3.21875 
L 19.28125 2 
L 7.171875 54.6875 
L 16.703125 54.6875 
L 25.78125 12.796875 
L 50.875 54.6875 
L 60.296875 54.6875 
z
" id="DejaVuSans-Oblique-79"/>
     </defs>
     <g transform="translate(78.057812 220.92)rotate(-90)scale(0.2 -0.2)">
      <use transform="translate(0 0.3125)" xlink:href="#DejaVuSans-Oblique-79"/>
     </g>
    </g>
   </g>
   <g id="line2d_15">
    <defs>
     <path d="M 0 2.5 
C 0.663008 2.5 1.29895 2.236584 1.767767 1.767767 
C 2.236584 1.29895 2.5 0.663008 2.5 0 
C 2.5 -0.663008 2.236584 -1.29895 1.767767 -1.767767 
C 1.29895 -2.236584 0.663008 -2.5 0 -2.5 
C -0.663008 -2.5 -1.29895 -2.236584 -1.767767 -1.767767 
C -2.236584 -1.29895 -2.5 -0.663008 -2.5 0 
C -2.5 0.663008 -2.236584 1.29895 -1.767767 1.767767 
C -1.29895 2.236584 -0.663008 2.5 0 2.5 
z
" id="m7f5bca9738" style="stroke:#ff0000;"/>
    </defs>
    <g clip-path="url(#pcfba0673e6)">
     <use style="fill:#ff0000;stroke:#ff0000;" x="225.397403" xlink:href="#m7f5bca9738" y="269.362158"/>
     <use style="fill:#ff0000;stroke:#ff0000;" x="230.832468" xlink:href="#m7f5bca9738" y="268.265655"/>
     <use style="fill:#ff0000;stroke:#ff0000;" x="236.267532" xlink:href="#m7f5bca9738" y="249.70435"/>
     <use style="fill:#ff0000;stroke:#ff0000;" x="241.702597" xlink:href="#m7f5bca9738" y="257.728058"/>
     <use style="fill:#ff0000;stroke:#ff0000;" x="247.137662" xlink:href="#m7f5bca9738" y="251.63509"/>
     <use style="fill:#ff0000;stroke:#ff0000;" x="252.572727" xlink:href="#m7f5bca9738" y="251.619536"/>
     <use style="fill:#ff0000;stroke:#ff0000;" x="258.007792" xlink:href="#m7f5bca9738" y="271.225686"/>
     <use style="fill:#ff0000;stroke:#ff0000;" x="263.442857" xlink:href="#m7f5bca9738" y="288.672909"/>
     <use style="fill:#ff0000;stroke:#ff0000;" x="268.877922" xlink:href="#m7f5bca9738" y="253.193816"/>
     <use style="fill:#ff0000;stroke:#ff0000;" x="274.312987" xlink:href="#m7f5bca9738" y="255.06835"/>
     <use style="fill:#ff0000;stroke:#ff0000;" x="279.748052" xlink:href="#m7f5bca9738" y="278.076366"/>
     <use style="fill:#ff0000;stroke:#ff0000;" x="285.183117" xlink:href="#m7f5bca9738" y="277.506227"/>
     <use style="fill:#ff0000;stroke:#ff0000;" x="290.618182" xlink:href="#m7f5bca9738" y="327.314785"/>
     <use style="fill:#ff0000;stroke:#ff0000;" x="296.053247" xlink:href="#m7f5bca9738" y="349.701219"/>
     <use style="fill:#ff0000;stroke:#ff0000;" x="301.488312" xlink:href="#m7f5bca9738" y="340.43842"/>
     <use style="fill:#ff0000;stroke:#ff0000;" x="306.923377" xlink:href="#m7f5bca9738" y="294.3865"/>
     <use style="fill:#ff0000;stroke:#ff0000;" x="312.358442" xlink:href="#m7f5bca9738" y="302.158933"/>
     <use style="fill:#ff0000;stroke:#ff0000;" x="317.793506" xlink:href="#m7f5bca9738" y="289.168648"/>
     <use style="fill:#ff0000;stroke:#ff0000;" x="323.228571" xlink:href="#m7f5bca9738" y="249.716095"/>
     <use style="fill:#ff0000;stroke:#ff0000;" x="328.663636" xlink:href="#m7f5bca9738" y="321.921237"/>
     <use style="fill:#ff0000;stroke:#ff0000;" x="334.098701" xlink:href="#m7f5bca9738" y="289.354782"/>
     <use style="fill:#ff0000;stroke:#ff0000;" x="339.533766" xlink:href="#m7f5bca9738" y="266.096826"/>
     <use style="fill:#ff0000;stroke:#ff0000;" x="344.968831" xlink:href="#m7f5bca9738" y="259.193073"/>
     <use style="fill:#ff0000;stroke:#ff0000;" x="350.403896" xlink:href="#m7f5bca9738" y="267.262984"/>
     <use style="fill:#ff0000;stroke:#ff0000;" x="355.838961" xlink:href="#m7f5bca9738" y="264.571627"/>
     <use style="fill:#ff0000;stroke:#ff0000;" x="529.761039" xlink:href="#m7f5bca9738" y="283.990624"/>
     <use style="fill:#ff0000;stroke:#ff0000;" x="535.196104" xlink:href="#m7f5bca9738" y="272.743238"/>
     <use style="fill:#ff0000;stroke:#ff0000;" x="540.631169" xlink:href="#m7f5bca9738" y="280.768911"/>
     <use style="fill:#ff0000;stroke:#ff0000;" x="546.066234" xlink:href="#m7f5bca9738" y="284.211031"/>
     <use style="fill:#ff0000;stroke:#ff0000;" x="551.501299" xlink:href="#m7f5bca9738" y="287.616976"/>
     <use style="fill:#ff0000;stroke:#ff0000;" x="556.936364" xlink:href="#m7f5bca9738" y="257.754818"/>
     <use style="fill:#ff0000;stroke:#ff0000;" x="562.371429" xlink:href="#m7f5bca9738" y="257.818567"/>
     <use style="fill:#ff0000;stroke:#ff0000;" x="567.806494" xlink:href="#m7f5bca9738" y="289.237444"/>
     <use style="fill:#ff0000;stroke:#ff0000;" x="573.241558" xlink:href="#m7f5bca9738" y="254.597734"/>
     <use style="fill:#ff0000;stroke:#ff0000;" x="578.676623" xlink:href="#m7f5bca9738" y="289.370588"/>
     <use style="fill:#ff0000;stroke:#ff0000;" x="584.111688" xlink:href="#m7f5bca9738" y="242.369923"/>
     <use style="fill:#ff0000;stroke:#ff0000;" x="589.546753" xlink:href="#m7f5bca9738" y="271.227673"/>
     <use style="fill:#ff0000;stroke:#ff0000;" x="594.981818" xlink:href="#m7f5bca9738" y="220.950356"/>
     <use style="fill:#ff0000;stroke:#ff0000;" x="600.416883" xlink:href="#m7f5bca9738" y="229.304475"/>
     <use style="fill:#ff0000;stroke:#ff0000;" x="605.851948" xlink:href="#m7f5bca9738" y="214.90351"/>
     <use style="fill:#ff0000;stroke:#ff0000;" x="611.287013" xlink:href="#m7f5bca9738" y="224.862071"/>
     <use style="fill:#ff0000;stroke:#ff0000;" x="616.722078" xlink:href="#m7f5bca9738" y="234.841941"/>
     <use style="fill:#ff0000;stroke:#ff0000;" x="622.157143" xlink:href="#m7f5bca9738" y="221.051874"/>
     <use style="fill:#ff0000;stroke:#ff0000;" x="627.592208" xlink:href="#m7f5bca9738" y="197.124322"/>
     <use style="fill:#ff0000;stroke:#ff0000;" x="633.027273" xlink:href="#m7f5bca9738" y="201.697747"/>
     <use style="fill:#ff0000;stroke:#ff0000;" x="638.462338" xlink:href="#m7f5bca9738" y="170.501527"/>
     <use style="fill:#ff0000;stroke:#ff0000;" x="643.897403" xlink:href="#m7f5bca9738" y="204.880837"/>
     <use style="fill:#ff0000;stroke:#ff0000;" x="649.332468" xlink:href="#m7f5bca9738" y="206.446822"/>
     <use style="fill:#ff0000;stroke:#ff0000;" x="654.767532" xlink:href="#m7f5bca9738" y="211.551759"/>
     <use style="fill:#ff0000;stroke:#ff0000;" x="660.202597" xlink:href="#m7f5bca9738" y="204.33735"/>
    </g>
   </g>
   <g id="line2d_16">
    <path clip-path="url(#pcfba0673e6)" d="M 138.436364 228.439741 
L 144.554226 232.54568 
L 150.672088 236.271254 
L 156.78995 239.534153 
L 159.848881 240.972268 
L 162.907812 242.274296 
L 165.966743 243.437281 
L 169.025674 244.460409 
L 172.084605 245.345134 
L 175.143536 246.095261 
L 178.202467 246.716993 
L 184.320329 247.612054 
L 190.438191 248.126856 
L 196.556053 248.391552 
L 208.791777 248.815309 
L 214.909639 249.327181 
L 217.96857 249.734357 
L 221.027501 250.268747 
L 224.086432 250.947888 
L 227.145363 251.787006 
L 230.204294 252.798616 
L 233.263225 253.99216 
L 236.322156 255.373702 
L 239.381087 256.945661 
L 242.440018 258.706614 
L 245.498949 260.651172 
L 248.55788 262.769911 
L 251.616811 265.0494 
L 257.734673 270.017458 
L 263.852535 275.373083 
L 276.088259 286.278984 
L 282.206122 291.268529 
L 285.265053 293.519089 
L 288.323984 295.559167 
L 291.382915 297.354932 
L 294.441846 298.874773 
L 297.500777 300.089832 
L 300.559708 300.974491 
L 303.618639 301.506799 
L 306.67757 301.668837 
L 309.736501 301.447021 
L 312.795432 300.832316 
L 315.854363 299.820383 
L 318.913294 298.411645 
L 321.972225 296.611267 
L 325.031156 294.429066 
L 328.090087 291.87934 
L 331.149018 288.980632 
L 334.207949 285.755428 
L 337.26688 282.229798 
L 340.325811 278.43299 
L 343.384742 274.396988 
L 349.502604 265.74613 
L 355.620466 256.569309 
L 370.915121 233.311215 
L 377.032983 224.634225 
L 380.091914 220.556925 
L 383.150845 216.689253 
L 386.209776 213.054496 
L 389.268707 209.673148 
L 392.327638 206.562856 
L 395.386569 203.738417 
L 398.4455 201.211811 
L 401.504431 198.992274 
L 404.563362 197.086397 
L 407.622293 195.498258 
L 410.681224 194.229565 
L 413.740155 193.279829 
L 416.799086 192.646534 
L 419.858017 192.325319 
L 422.916948 192.310163 
L 425.975879 192.593557 
L 429.03481 193.166678 
L 432.093741 194.019552 
L 435.152672 195.141191 
L 438.211603 196.519736 
L 441.270534 198.142561 
L 444.329466 199.996376 
L 447.388397 202.067301 
L 450.447328 204.340934 
L 453.506259 206.802391 
L 456.56519 209.436338 
L 462.683052 215.158222 
L 468.800914 221.375377 
L 474.918776 227.949711 
L 499.390224 254.81538 
L 505.508086 260.873341 
L 508.567017 263.690508 
L 511.625948 266.339603 
L 514.684879 268.801135 
L 517.74381 271.056361 
L 520.802741 273.087482 
L 523.861672 274.877843 
L 526.920603 276.412145 
L 529.979534 277.676645 
L 533.038465 278.659361 
L 536.097396 279.350265 
L 539.156327 279.741463 
L 542.215258 279.827359 
L 545.274189 279.604798 
L 548.33312 279.073187 
L 551.392051 278.234583 
L 554.450982 277.093753 
L 557.509913 275.658203 
L 560.568844 273.938165 
L 563.627775 271.946551 
L 566.686706 269.698868 
L 569.745637 267.213091 
L 572.804568 264.509508 
L 575.863499 261.610516 
L 581.981361 255.325031 
L 588.099223 248.568475 
L 606.45281 227.765261 
L 612.570672 221.397857 
L 615.629603 218.432064 
L 618.688534 215.638314 
L 621.747465 213.033614 
L 624.806396 210.632289 
L 627.865327 208.445841 
L 630.924258 206.482853 
L 633.983189 204.748933 
L 637.04212 203.246709 
L 640.101051 201.975867 
L 643.159982 200.933229 
L 646.218913 200.112877 
L 649.277844 199.506314 
L 652.336775 199.102661 
L 655.395706 198.888882 
L 658.454637 198.850038 
L 661.513568 198.969565 
L 664.572499 199.229565 
L 670.690361 200.094531 
L 676.808223 201.286638 
L 695.161809 205.26744 
L 701.279671 206.275322 
L 707.397533 206.95111 
L 713.515395 207.231606 
L 719.633257 207.082015 
L 725.751119 206.494598 
L 731.868981 205.485874 
L 737.986843 204.092705 
L 744.104705 202.367685 
L 747.163636 201.400259 
L 747.163636 201.400259 
" style="fill:none;stroke:#3300ff;stroke-linecap:square;stroke-width:2;"/>
   </g>
   <g id="line2d_17">
    <path clip-path="url(#pcfba0673e6)" d="M 138.436364 93.704938 
L 144.554226 102.842384 
L 153.731019 117.054657 
L 172.084605 145.766049 
L 178.202467 154.936991 
L 184.320329 163.693951 
L 190.438191 171.921645 
L 196.556053 179.519512 
L 199.614984 183.056271 
L 202.673915 186.407777 
L 205.732846 189.569064 
L 208.791777 192.538209 
L 211.850708 195.317077 
L 214.909639 197.912116 
L 217.96857 200.335075 
L 224.086432 204.740685 
L 230.204294 208.740176 
L 239.381087 214.566238 
L 245.498949 218.710036 
L 251.616811 223.259985 
L 257.734673 228.254148 
L 263.852535 233.607733 
L 276.088259 244.559022 
L 282.206122 249.585726 
L 285.265053 251.850372 
L 288.323984 253.89887 
L 291.382915 255.69628 
L 294.441846 257.210784 
L 297.500777 258.414243 
L 300.559708 259.282593 
L 303.618639 259.79609 
L 306.67757 259.939383 
L 309.736501 259.701428 
L 312.795432 259.07526 
L 315.854363 258.057618 
L 318.913294 256.648456 
L 321.972225 254.850348 
L 325.031156 252.66783 
L 328.090087 250.106703 
L 331.149018 247.17336 
L 334.207949 243.874196 
L 337.26688 240.215178 
L 340.325811 236.201668 
L 343.384742 231.838583 
L 346.443673 227.130956 
L 349.502604 222.084895 
L 352.561535 216.708885 
L 355.620466 211.015268 
L 358.679397 205.021664 
L 364.797259 192.237483 
L 370.915121 178.631269 
L 389.268707 136.863848 
L 392.327638 130.343778 
L 395.386569 124.091498 
L 398.4455 118.154369 
L 401.504431 112.576252 
L 404.563362 107.397269 
L 407.622293 102.653647 
L 410.681224 98.377618 
L 413.740155 94.597377 
L 416.799086 91.337062 
L 419.858017 88.616771 
L 422.916948 86.452591 
L 425.975879 84.85665 
L 429.03481 83.837167 
L 432.093741 83.398519 
L 435.152672 83.541299 
L 438.211603 84.262388 
L 441.270534 85.555018 
L 444.329466 87.408832 
L 447.388397 89.809953 
L 450.447328 92.741042 
L 453.506259 96.181358 
L 456.56519 100.106827 
L 459.624121 104.490104 
L 462.683052 109.30065 
L 465.741983 114.504809 
L 468.800914 120.065906 
L 471.859845 125.944351 
L 477.977707 138.481124 
L 484.095569 151.745436 
L 496.331293 178.806388 
L 502.449155 191.721481 
L 505.508086 197.829189 
L 508.567017 203.631539 
L 511.625948 209.077755 
L 514.684879 214.121188 
L 517.74381 218.720694 
L 520.802741 222.842033 
L 523.861672 226.459146 
L 526.920603 229.555113 
L 529.979534 232.122604 
L 533.038465 234.163697 
L 536.097396 235.68903 
L 539.156327 236.716387 
L 542.215258 237.268955 
L 545.274189 237.373476 
L 548.33312 237.058567 
L 551.392051 236.35335 
L 554.450982 235.28648 
L 557.509913 233.885566 
L 560.568844 232.176929 
L 563.627775 230.185632 
L 566.686706 227.935679 
L 569.745637 225.450326 
L 572.804568 222.752452 
L 575.863499 219.864923 
L 581.981361 213.614322 
L 588.099223 206.892885 
L 606.45281 186.064575 
L 612.570672 179.659818 
L 615.629603 176.679527 
L 618.688534 173.876529 
L 621.747465 171.268265 
L 624.806396 168.867687 
L 627.865327 166.682532 
L 630.924258 164.714664 
L 633.983189 162.959519 
L 637.04212 161.405688 
L 640.101051 160.034732 
L 643.159982 158.821271 
L 649.277844 156.733857 
L 658.454637 153.838361 
L 661.513568 152.762362 
L 664.572499 151.564299 
L 667.63143 150.211824 
L 670.690361 148.679467 
L 673.749292 146.949058 
L 676.808223 145.009538 
L 679.867154 142.856322 
L 682.926085 140.49041 
L 685.985016 137.917408 
L 689.043947 135.146594 
L 692.102878 132.1901 
L 698.22074 125.7789 
L 704.338602 118.815128 
L 710.456464 111.443947 
L 719.633257 99.95164 
L 731.868981 84.575635 
L 737.986843 77.157726 
L 744.104705 70.063932 
L 747.163636 66.665455 
L 747.163636 66.665455 
" style="fill:none;stroke:#3300ff;stroke-linecap:square;stroke-width:0.2;"/>
   </g>
   <g id="line2d_18">
    <path clip-path="url(#pcfba0673e6)" d="M 138.436364 363.174545 
L 141.495295 362.838193 
L 144.554226 362.248977 
L 147.613157 361.396574 
L 150.672088 360.273437 
L 153.731019 358.875135 
L 156.78995 357.200674 
L 159.848881 355.252782 
L 162.907812 353.038153 
L 165.966743 350.567656 
L 169.025674 347.856479 
L 172.084605 344.92422 
L 175.143536 341.794916 
L 181.261398 335.063156 
L 190.438191 324.332068 
L 196.556053 317.263591 
L 199.614984 313.900424 
L 202.673915 310.718332 
L 205.732846 307.766674 
L 208.791777 305.09241 
L 211.850708 302.738503 
L 214.909639 300.742245 
L 217.96857 299.133639 
L 221.027501 297.934012 
L 224.086432 297.155092 
L 227.145363 296.798683 
L 230.204294 296.857055 
L 233.263225 297.313967 
L 236.322156 298.14616 
L 239.381087 299.325083 
L 242.440018 300.818572 
L 245.498949 302.592307 
L 248.55788 304.610933 
L 251.616811 306.838814 
L 257.734673 311.780768 
L 263.852535 317.138432 
L 276.088259 327.998947 
L 282.206122 332.951332 
L 285.265053 335.187805 
L 288.323984 337.219465 
L 291.382915 339.013585 
L 294.441846 340.538762 
L 297.500777 341.765422 
L 300.559708 342.66639 
L 303.618639 343.217507 
L 306.67757 343.398292 
L 309.736501 343.192615 
L 312.795432 342.589372 
L 315.854363 341.583149 
L 318.913294 340.174834 
L 321.972225 338.372186 
L 325.031156 336.190302 
L 328.090087 333.651978 
L 331.149018 330.787905 
L 334.207949 327.636661 
L 337.26688 324.244418 
L 343.384742 316.955392 
L 352.561535 305.700212 
L 355.620466 302.12335 
L 358.679397 298.735728 
L 361.738328 295.58947 
L 364.797259 292.72838 
L 367.85619 290.187139 
L 370.915121 287.991162 
L 373.974052 286.157015 
L 377.032983 284.693194 
L 380.091914 283.601077 
L 383.150845 282.875924 
L 386.209776 282.507808 
L 389.268707 282.482449 
L 392.327638 282.781934 
L 395.386569 283.385335 
L 398.4455 284.269252 
L 401.504431 285.408296 
L 404.563362 286.775525 
L 407.622293 288.342868 
L 410.681224 290.081511 
L 416.799086 293.956005 
L 422.916948 298.167735 
L 435.152672 306.741084 
L 441.270534 310.730105 
L 447.388397 314.324649 
L 450.447328 315.940827 
L 453.506259 317.423424 
L 456.56519 318.765849 
L 459.624121 319.963918 
L 462.683052 321.015793 
L 465.741983 321.921906 
L 468.800914 322.684848 
L 471.859845 323.309254 
L 474.918776 323.801657 
L 477.977707 324.170345 
L 484.095569 324.577479 
L 490.213431 324.625422 
L 496.331293 324.424989 
L 517.74381 323.392028 
L 536.097396 323.011501 
L 539.156327 322.766539 
L 542.215258 322.385763 
L 545.274189 321.836121 
L 548.33312 321.087807 
L 551.392051 320.115815 
L 554.450982 318.901026 
L 557.509913 317.430841 
L 560.568844 315.699401 
L 563.627775 313.70747 
L 566.686706 311.462057 
L 569.745637 308.975856 
L 572.804568 306.266564 
L 575.863499 303.35611 
L 581.981361 297.035739 
L 588.099223 290.244064 
L 603.393878 272.804079 
L 609.511741 266.236146 
L 615.629603 260.184602 
L 618.688534 257.4001 
L 621.747465 254.798964 
L 624.806396 252.396892 
L 627.865327 250.209151 
L 630.924258 248.251042 
L 633.983189 246.538347 
L 637.04212 245.087731 
L 640.101051 243.917002 
L 643.159982 243.045186 
L 646.218913 242.492299 
L 649.277844 242.278772 
L 652.336775 242.424467 
L 655.395706 242.947321 
L 658.454637 243.861714 
L 661.513568 245.176768 
L 664.572499 246.89483 
L 667.63143 249.010387 
L 670.690361 251.509596 
L 673.749292 254.370483 
L 676.808223 257.563739 
L 679.867154 261.053932 
L 682.926085 264.800965 
L 689.043947 272.890674 
L 698.22074 285.836765 
L 707.397533 298.731111 
L 713.515395 306.810692 
L 716.574326 310.607732 
L 719.633257 314.21239 
L 722.692188 317.606386 
L 725.751119 320.775112 
L 728.81005 323.707543 
L 731.868981 326.396113 
L 734.927912 328.836552 
L 737.986843 331.027683 
L 741.045774 332.971205 
L 744.104705 334.671438 
L 747.163636 336.135062 
L 747.163636 336.135062 
" style="fill:none;stroke:#3300ff;stroke-linecap:square;stroke-width:0.2;"/>
   </g>
   <g id="patch_4">
    <path d="M 108 378 
L 108 51.84 
" style="fill:none;stroke:#000000;stroke-linecap:square;stroke-linejoin:miter;stroke-width:0.8;"/>
   </g>
   <g id="patch_5">
    <path d="M 777.6 378 
L 777.6 51.84 
" style="fill:none;stroke:#000000;stroke-linecap:square;stroke-linejoin:miter;stroke-width:0.8;"/>
   </g>
   <g id="patch_6">
    <path d="M 108 378 
L 777.6 378 
" style="fill:none;stroke:#000000;stroke-linecap:square;stroke-linejoin:miter;stroke-width:0.8;"/>
   </g>
   <g id="patch_7">
    <path d="M 108 51.84 
L 777.6 51.84 
" style="fill:none;stroke:#000000;stroke-linecap:square;stroke-linejoin:miter;stroke-width:0.8;"/>
   </g>
  </g>
 </g>
 <defs>
  <clipPath id="pcfba0673e6">
   <rect height="326.16" width="669.6" x="108" y="51.84"/>
  </clipPath>
 </defs>
</svg>
