<?xml version="1.0" encoding="utf-8" standalone="no"?>
<!DOCTYPE svg PUBLIC "-//W3C//DTD SVG 1.1//EN"
  "http://www.w3.org/Graphics/SVG/1.1/DTD/svg11.dtd">
<!-- Created with matplotlib (http://matplotlib.org/) -->
<svg height="432pt" version="1.1" viewBox="0 0 864 432" width="864pt" xmlns="http://www.w3.org/2000/svg" xmlns:xlink="http://www.w3.org/1999/xlink">
 <defs>
  <style type="text/css">
*{stroke-linecap:butt;stroke-linejoin:round;}
  </style>
 </defs>
 <g id="figure_1">
  <g id="patch_1">
   <path d="M 0 432 
L 864 432 
L 864 0 
L 0 0 
z
" style="fill:none;"/>
  </g>
  <g id="axes_1">
   <g id="patch_2">
    <path d="M 108 378 
L 777.6 378 
L 777.6 51.84 
L 108 51.84 
z
" style="fill:none;"/>
   </g>
   <g id="patch_3">
    <path clip-path="url(#pee64fe7ff8)" d="M 108 97.597568 
L 111.364824 101.983537 
L 114.729648 106.431604 
L 118.094472 110.92852 
L 121.459296 115.460492 
L 124.824121 120.013333 
L 128.188945 124.572618 
L 131.553769 129.123846 
L 134.918593 133.65261 
L 138.283417 138.144747 
L 141.648241 142.586506 
L 145.013065 146.964678 
L 148.377889 151.266734 
L 151.742714 155.480931 
L 155.107538 159.596408 
L 158.472362 163.603262 
L 161.837186 167.492615 
L 165.20201 171.256669 
L 168.566834 174.888769 
L 171.931658 178.383487 
L 175.296482 181.736739 
L 178.661307 184.94595 
L 182.026131 188.010291 
L 185.390955 190.930986 
L 188.755779 193.711668 
L 192.120603 196.358779 
L 195.485427 198.88191 
L 198.850251 201.294043 
L 202.215075 203.611562 
L 205.579899 205.853977 
L 208.944724 208.043298 
L 212.309548 210.203082 
L 215.674372 212.357218 
L 219.039196 214.528567 
L 222.40402 216.737606 
L 225.768844 219.001186 
L 229.133668 221.331521 
L 232.498492 223.735442 
L 235.863317 226.213948 
L 239.228141 228.762036 
L 242.592965 231.368782 
L 245.957789 234.017639 
L 249.322613 236.686925 
L 252.687437 239.350459 
L 256.052261 241.978335 
L 259.417085 244.537785 
L 262.78191 246.994131 
L 266.146734 249.311779 
L 269.511558 251.455229 
L 272.876382 253.39006 
L 276.241206 255.083856 
L 279.60603 256.507018 
L 282.970854 257.63343 
L 286.335678 258.44094 
L 289.700503 258.911633 
L 293.065327 259.03188 
L 296.430151 258.792174 
L 299.794975 258.186746 
L 303.159799 257.213009 
L 306.524623 255.870848 
L 309.889447 254.1618 
L 313.254271 252.088172 
L 316.619095 249.652164 
L 319.98392 246.855056 
L 323.348744 243.696559 
L 326.713568 240.174449 
L 330.078392 236.284581 
L 333.443216 232.021435 
L 336.80804 227.37924 
L 340.172864 222.353684 
L 343.537688 216.944066 
L 346.902513 211.155603 
L 350.267337 205.001505 
L 353.632161 198.504444 
L 356.996985 191.697127 
L 360.361809 184.62192 
L 363.726633 177.32965 
L 367.091457 169.877861 
L 370.456281 162.328829 
L 373.821106 154.747607 
L 377.18593 147.200255 
L 380.550754 139.752352 
L 383.915578 132.467799 
L 387.280402 125.407899 
L 390.645226 118.630649 
L 394.01005 112.190236 
L 397.374874 106.136659 
L 400.739698 100.515477 
L 404.104523 95.367635 
L 407.469347 90.729362 
L 410.834171 86.632125 
L 414.198995 83.102619 
L 417.563819 80.162802 
L 420.928643 77.829942 
L 424.293467 76.1167 
L 427.658291 75.031223 
L 431.023116 74.577238 
L 434.38794 74.754176 
L 437.752764 75.557273 
L 441.117588 76.977695 
L 444.482412 79.002649 
L 447.847236 81.615494 
L 451.21206 84.795852 
L 454.576884 88.519717 
L 457.941709 92.759557 
L 461.306533 97.484424 
L 464.671357 102.660056 
L 468.036181 108.248993 
L 471.401005 114.210693 
L 474.765829 120.501667 
L 478.130653 127.075617 
L 481.495477 133.883606 
L 484.860302 140.874242 
L 488.225126 147.993894 
L 491.58995 155.18695 
L 494.954774 162.396114 
L 498.319598 169.562771 
L 501.684422 176.627416 
L 505.049246 183.5302 
L 508.41407 190.211578 
L 511.778894 196.613136 
L 515.143719 202.678577 
L 518.508543 208.354929 
L 521.873367 213.593925 
L 525.238191 218.353531 
L 528.603015 222.599499 
L 531.967839 226.30676 
L 535.332663 229.460437 
L 538.697487 232.056267 
L 542.062312 234.100263 
L 545.427136 235.607622 
L 548.79196 236.601007 
L 552.156784 237.108477 
L 555.521608 237.161357 
L 558.886432 236.792346 
L 562.251256 236.034006 
L 565.61608 234.917744 
L 568.980905 233.473233 
L 572.345729 231.728231 
L 575.710553 229.708693 
L 579.075377 227.439071 
L 582.440201 224.942749 
L 585.805025 222.242503 
L 589.169849 219.36098 
L 592.534673 216.321112 
L 595.899497 213.146462 
L 599.264322 209.861466 
L 602.629146 206.491552 
L 605.99397 203.06314 
L 609.358794 199.6035 
L 612.723618 196.140494 
L 616.088442 192.702202 
L 619.453266 189.316453 
L 622.81809 186.01028 
L 626.182915 182.809332 
L 629.547739 179.73725 
L 632.912563 176.815051 
L 636.277387 174.060515 
L 639.642211 171.487608 
L 643.007035 169.105956 
L 646.371859 166.920376 
L 649.736683 164.930486 
L 653.101508 163.130422 
L 656.466332 161.508685 
L 659.831156 160.048153 
L 663.19598 158.726307 
L 666.560804 157.515706 
L 669.925628 156.384751 
L 673.290452 155.298739 
L 676.655276 154.22119 
L 680.020101 153.115357 
L 683.384925 151.945812 
L 686.749749 150.679931 
L 690.114573 149.289151 
L 693.479397 147.749854 
L 696.844221 146.043839 
L 700.209045 144.158397 
L 703.573869 142.086048 
L 706.938693 139.824076 
L 710.303518 137.373924 
L 713.668342 134.740579 
L 717.033166 131.93198 
L 720.39799 128.958488 
L 723.762814 125.83243 
L 727.127638 122.567709 
L 730.492462 119.179474 
L 733.857286 115.683834 
L 737.222111 112.097596 
L 740.586935 108.438037 
L 743.951759 104.722681 
L 747.316583 100.969099 
L 750.681407 97.194706 
L 754.046231 93.416578 
L 757.411055 89.651275 
L 760.775879 85.91468 
L 764.140704 82.22185 
L 767.505528 78.586883 
L 770.870352 75.022808 
L 774.235176 71.541492 
L 777.6 68.153565 
L 777.6 330.000809 
L 774.235176 328.268493 
L 770.870352 326.322804 
L 767.505528 324.161396 
L 764.140704 321.784159 
L 760.775879 319.193401 
L 757.411055 316.394001 
L 754.046231 313.393549 
L 750.681407 310.202445 
L 747.316583 306.833981 
L 743.951759 303.304375 
L 740.586935 299.632784 
L 737.222111 295.841264 
L 733.857286 291.954695 
L 730.492462 288.000656 
L 727.127638 284.009245 
L 723.762814 280.012843 
L 720.39799 276.045806 
L 717.033166 272.144071 
L 713.668342 268.344677 
L 710.303518 264.68517 
L 706.938693 261.202893 
L 703.573869 257.934159 
L 700.209045 254.913306 
L 696.844221 252.171687 
L 693.479397 249.736651 
L 690.114573 247.630601 
L 686.749749 245.870256 
L 683.384925 244.466214 
L 680.020101 243.422909 
L 676.655276 242.738977 
L 673.290452 242.407995 
L 669.925628 242.419469 
L 666.560804 242.759936 
L 663.19598 243.41404 
L 659.831156 244.365441 
L 656.466332 245.597518 
L 653.101508 247.093827 
L 649.736683 248.838333 
L 646.371859 250.81546 
L 643.007035 253.009999 
L 639.642211 255.406921 
L 636.277387 257.991136 
L 632.912563 260.747224 
L 629.547739 263.65916 
L 626.182915 266.710054 
L 622.81809 269.881906 
L 619.453266 273.1554 
L 616.088442 276.50974 
L 612.723618 279.92254 
L 609.358794 283.369786 
L 605.99397 286.825882 
L 602.629146 290.263794 
L 599.264322 293.65531 
L 595.899497 296.971413 
L 592.534673 300.182781 
L 589.169849 303.260402 
L 585.805025 306.176297 
L 582.440201 308.904331 
L 579.075377 311.421087 
L 575.710553 313.70677 
L 572.345729 315.746113 
L 568.980905 317.529223 
L 565.61608 319.052321 
L 562.251256 320.318307 
L 558.886432 321.337051 
L 555.521608 322.125338 
L 552.156784 322.706348 
L 548.79196 323.108629 
L 545.427136 323.364532 
L 542.062312 323.508184 
L 538.697487 323.573203 
L 535.332663 323.590401 
L 531.967839 323.585812 
L 528.603015 323.579313 
L 525.238191 323.583966 
L 521.873367 323.606104 
L 518.508543 323.645993 
L 515.143719 323.698868 
L 511.778894 323.756122 
L 508.41407 323.80648 
L 505.049246 323.837035 
L 501.684422 323.834112 
L 498.319598 323.78395 
L 494.954774 323.673214 
L 491.58995 323.489383 
L 488.225126 323.221025 
L 484.860302 322.858004 
L 481.495477 322.391626 
L 478.130653 321.814755 
L 474.765829 321.121889 
L 471.401005 320.309225 
L 468.036181 319.374705 
L 464.671357 318.318042 
L 461.306533 317.140743 
L 457.941709 315.846112 
L 454.576884 314.439244 
L 451.21206 312.92701 
L 447.847236 311.31802 
L 444.482412 309.622587 
L 441.117588 307.852666 
L 437.752764 306.021786 
L 434.38794 304.144968 
L 431.023116 302.238632 
L 427.658291 300.320486 
L 424.293467 298.409407 
L 420.928643 296.525311 
L 417.563819 294.68901 
L 414.198995 292.922055 
L 410.834171 291.246581 
L 407.469347 289.685132 
L 404.104523 288.260486 
L 400.739698 286.995475 
L 397.374874 285.912793 
L 394.01005 285.034803 
L 390.645226 284.383326 
L 387.280402 283.979417 
L 383.915578 283.843104 
L 380.550754 283.993081 
L 377.18593 284.44632 
L 373.821106 285.217568 
L 370.456281 286.318691 
L 367.091457 287.757822 
L 363.726633 289.538291 
L 360.361809 291.65735 
L 356.996985 294.104767 
L 353.632161 296.861472 
L 350.267337 299.898495 
L 346.902513 303.176496 
L 343.537688 306.646164 
L 340.172864 310.249593 
L 336.80804 313.92257 
L 333.443216 317.597474 
L 330.078392 321.206404 
L 326.713568 324.684124 
L 323.348744 327.970531 
L 319.98392 331.012493 
L 316.619095 333.76503 
L 313.254271 336.191912 
L 309.889447 338.265759 
L 306.524623 339.967783 
L 303.159799 341.287252 
L 299.794975 342.220772 
L 296.430151 342.771452 
L 293.065327 342.948004 
L 289.700503 342.763842 
L 286.335678 342.236197 
L 282.970854 341.385314 
L 279.60603 340.233737 
L 276.241206 338.80572 
L 272.876382 337.126773 
L 269.511558 335.223332 
L 266.146734 333.122559 
L 262.78191 330.852237 
L 259.417085 328.440748 
L 256.052261 325.917098 
L 252.687437 323.310964 
L 249.322613 320.652754 
L 245.957789 317.973652 
L 242.592965 315.305632 
L 239.228141 312.681442 
L 235.863317 310.134539 
L 232.498492 307.698955 
L 229.133668 305.409081 
L 225.768844 303.299336 
L 222.40402 301.403702 
L 219.039196 299.755085 
L 215.674372 298.384503 
L 212.309548 297.320117 
L 208.944724 296.586145 
L 205.579899 296.201756 
L 202.215075 296.180064 
L 198.850251 296.527347 
L 195.485427 297.242606 
L 192.120603 298.317508 
L 188.755779 299.736736 
L 185.390955 301.478662 
L 182.026131 303.516258 
L 178.661307 305.818143 
L 175.296482 308.349657 
L 171.931658 311.073894 
L 168.566834 313.952652 
L 165.20201 316.947268 
L 161.837186 320.019349 
L 158.472362 323.131382 
L 155.107538 326.24726 
L 151.742714 329.332718 
L 148.377889 332.355684 
L 145.013065 335.286585 
L 141.648241 338.098572 
L 138.283417 340.767705 
L 134.918593 343.273083 
L 131.553769 345.596924 
L 128.188945 347.724602 
L 124.824121 349.64464 
L 121.459296 351.348665 
L 118.094472 352.831319 
L 114.729648 354.09014 
L 111.364824 355.125406 
L 108 355.93996 
z
" style="fill:#cc3300;opacity:0.3;stroke:#cc3300;stroke-linejoin:miter;stroke-width:0.5;"/>
   </g>
   <g id="matplotlib.axis_1">
    <g id="xtick_1">
     <g id="line2d_1">
      <defs>
       <path d="M 0 0 
L 0 3.5 
" id="m57f64be28b" style="stroke:#000000;stroke-width:0.8;"/>
      </defs>
      <g>
       <use style="stroke:#000000;stroke-width:0.8;" x="108" xlink:href="#m57f64be28b" y="378"/>
      </g>
     </g>
     <g id="text_1">
      <!-- −2 -->
      <defs>
       <path d="M 10.59375 35.5 
L 73.1875 35.5 
L 73.1875 27.203125 
L 10.59375 27.203125 
z
" id="DejaVuSans-2212"/>
       <path d="M 19.1875 8.296875 
L 53.609375 8.296875 
L 53.609375 0 
L 7.328125 0 
L 7.328125 8.296875 
Q 12.9375 14.109375 22.625 23.890625 
Q 32.328125 33.6875 34.8125 36.53125 
Q 39.546875 41.84375 41.421875 45.53125 
Q 43.3125 49.21875 43.3125 52.78125 
Q 43.3125 58.59375 39.234375 62.25 
Q 35.15625 65.921875 28.609375 65.921875 
Q 23.96875 65.921875 18.8125 64.3125 
Q 13.671875 62.703125 7.8125 59.421875 
L 7.8125 69.390625 
Q 13.765625 71.78125 18.9375 73 
Q 24.125 74.21875 28.421875 74.21875 
Q 39.75 74.21875 46.484375 68.546875 
Q 53.21875 62.890625 53.21875 53.421875 
Q 53.21875 48.921875 51.53125 44.890625 
Q 49.859375 40.875 45.40625 35.40625 
Q 44.1875 33.984375 37.640625 27.21875 
Q 31.109375 20.453125 19.1875 8.296875 
z
" id="DejaVuSans-32"/>
      </defs>
      <g transform="translate(100.628906 392.598437)scale(0.1 -0.1)">
       <use xlink:href="#DejaVuSans-2212"/>
       <use x="83.789062" xlink:href="#DejaVuSans-32"/>
      </g>
     </g>
    </g>
    <g id="xtick_2">
     <g id="line2d_2">
      <g>
       <use style="stroke:#000000;stroke-width:0.8;" x="203.657143" xlink:href="#m57f64be28b" y="378"/>
      </g>
     </g>
     <g id="text_2">
      <!-- 0 -->
      <defs>
       <path d="M 31.78125 66.40625 
Q 24.171875 66.40625 20.328125 58.90625 
Q 16.5 51.421875 16.5 36.375 
Q 16.5 21.390625 20.328125 13.890625 
Q 24.171875 6.390625 31.78125 6.390625 
Q 39.453125 6.390625 43.28125 13.890625 
Q 47.125 21.390625 47.125 36.375 
Q 47.125 51.421875 43.28125 58.90625 
Q 39.453125 66.40625 31.78125 66.40625 
z
M 31.78125 74.21875 
Q 44.046875 74.21875 50.515625 64.515625 
Q 56.984375 54.828125 56.984375 36.375 
Q 56.984375 17.96875 50.515625 8.265625 
Q 44.046875 -1.421875 31.78125 -1.421875 
Q 19.53125 -1.421875 13.0625 8.265625 
Q 6.59375 17.96875 6.59375 36.375 
Q 6.59375 54.828125 13.0625 64.515625 
Q 19.53125 74.21875 31.78125 74.21875 
z
" id="DejaVuSans-30"/>
      </defs>
      <g transform="translate(200.475893 392.598437)scale(0.1 -0.1)">
       <use xlink:href="#DejaVuSans-30"/>
      </g>
     </g>
    </g>
    <g id="xtick_3">
     <g id="line2d_3">
      <g>
       <use style="stroke:#000000;stroke-width:0.8;" x="299.314286" xlink:href="#m57f64be28b" y="378"/>
      </g>
     </g>
     <g id="text_3">
      <!-- 2 -->
      <g transform="translate(296.133036 392.598437)scale(0.1 -0.1)">
       <use xlink:href="#DejaVuSans-32"/>
      </g>
     </g>
    </g>
    <g id="xtick_4">
     <g id="line2d_4">
      <g>
       <use style="stroke:#000000;stroke-width:0.8;" x="394.971429" xlink:href="#m57f64be28b" y="378"/>
      </g>
     </g>
     <g id="text_4">
      <!-- 4 -->
      <defs>
       <path d="M 37.796875 64.3125 
L 12.890625 25.390625 
L 37.796875 25.390625 
z
M 35.203125 72.90625 
L 47.609375 72.90625 
L 47.609375 25.390625 
L 58.015625 25.390625 
L 58.015625 17.1875 
L 47.609375 17.1875 
L 47.609375 0 
L 37.796875 0 
L 37.796875 17.1875 
L 4.890625 17.1875 
L 4.890625 26.703125 
z
" id="DejaVuSans-34"/>
      </defs>
      <g transform="translate(391.790179 392.598437)scale(0.1 -0.1)">
       <use xlink:href="#DejaVuSans-34"/>
      </g>
     </g>
    </g>
    <g id="xtick_5">
     <g id="line2d_5">
      <g>
       <use style="stroke:#000000;stroke-width:0.8;" x="490.628571" xlink:href="#m57f64be28b" y="378"/>
      </g>
     </g>
     <g id="text_5">
      <!-- 6 -->
      <defs>
       <path d="M 33.015625 40.375 
Q 26.375 40.375 22.484375 35.828125 
Q 18.609375 31.296875 18.609375 23.390625 
Q 18.609375 15.53125 22.484375 10.953125 
Q 26.375 6.390625 33.015625 6.390625 
Q 39.65625 6.390625 43.53125 10.953125 
Q 47.40625 15.53125 47.40625 23.390625 
Q 47.40625 31.296875 43.53125 35.828125 
Q 39.65625 40.375 33.015625 40.375 
z
M 52.59375 71.296875 
L 52.59375 62.3125 
Q 48.875 64.0625 45.09375 64.984375 
Q 41.3125 65.921875 37.59375 65.921875 
Q 27.828125 65.921875 22.671875 59.328125 
Q 17.53125 52.734375 16.796875 39.40625 
Q 19.671875 43.65625 24.015625 45.921875 
Q 28.375 48.1875 33.59375 48.1875 
Q 44.578125 48.1875 50.953125 41.515625 
Q 57.328125 34.859375 57.328125 23.390625 
Q 57.328125 12.15625 50.6875 5.359375 
Q 44.046875 -1.421875 33.015625 -1.421875 
Q 20.359375 -1.421875 13.671875 8.265625 
Q 6.984375 17.96875 6.984375 36.375 
Q 6.984375 53.65625 15.1875 63.9375 
Q 23.390625 74.21875 37.203125 74.21875 
Q 40.921875 74.21875 44.703125 73.484375 
Q 48.484375 72.75 52.59375 71.296875 
z
" id="DejaVuSans-36"/>
      </defs>
      <g transform="translate(487.447321 392.598437)scale(0.1 -0.1)">
       <use xlink:href="#DejaVuSans-36"/>
      </g>
     </g>
    </g>
    <g id="xtick_6">
     <g id="line2d_6">
      <g>
       <use style="stroke:#000000;stroke-width:0.8;" x="586.285714" xlink:href="#m57f64be28b" y="378"/>
      </g>
     </g>
     <g id="text_6">
      <!-- 8 -->
      <defs>
       <path d="M 31.78125 34.625 
Q 24.75 34.625 20.71875 30.859375 
Q 16.703125 27.09375 16.703125 20.515625 
Q 16.703125 13.921875 20.71875 10.15625 
Q 24.75 6.390625 31.78125 6.390625 
Q 38.8125 6.390625 42.859375 10.171875 
Q 46.921875 13.96875 46.921875 20.515625 
Q 46.921875 27.09375 42.890625 30.859375 
Q 38.875 34.625 31.78125 34.625 
z
M 21.921875 38.8125 
Q 15.578125 40.375 12.03125 44.71875 
Q 8.5 49.078125 8.5 55.328125 
Q 8.5 64.0625 14.71875 69.140625 
Q 20.953125 74.21875 31.78125 74.21875 
Q 42.671875 74.21875 48.875 69.140625 
Q 55.078125 64.0625 55.078125 55.328125 
Q 55.078125 49.078125 51.53125 44.71875 
Q 48 40.375 41.703125 38.8125 
Q 48.828125 37.15625 52.796875 32.3125 
Q 56.78125 27.484375 56.78125 20.515625 
Q 56.78125 9.90625 50.3125 4.234375 
Q 43.84375 -1.421875 31.78125 -1.421875 
Q 19.734375 -1.421875 13.25 4.234375 
Q 6.78125 9.90625 6.78125 20.515625 
Q 6.78125 27.484375 10.78125 32.3125 
Q 14.796875 37.15625 21.921875 38.8125 
z
M 18.3125 54.390625 
Q 18.3125 48.734375 21.84375 45.5625 
Q 25.390625 42.390625 31.78125 42.390625 
Q 38.140625 42.390625 41.71875 45.5625 
Q 45.3125 48.734375 45.3125 54.390625 
Q 45.3125 60.0625 41.71875 63.234375 
Q 38.140625 66.40625 31.78125 66.40625 
Q 25.390625 66.40625 21.84375 63.234375 
Q 18.3125 60.0625 18.3125 54.390625 
z
" id="DejaVuSans-38"/>
      </defs>
      <g transform="translate(583.104464 392.598437)scale(0.1 -0.1)">
       <use xlink:href="#DejaVuSans-38"/>
      </g>
     </g>
    </g>
    <g id="xtick_7">
     <g id="line2d_7">
      <g>
       <use style="stroke:#000000;stroke-width:0.8;" x="681.942857" xlink:href="#m57f64be28b" y="378"/>
      </g>
     </g>
     <g id="text_7">
      <!-- 10 -->
      <defs>
       <path d="M 12.40625 8.296875 
L 28.515625 8.296875 
L 28.515625 63.921875 
L 10.984375 60.40625 
L 10.984375 69.390625 
L 28.421875 72.90625 
L 38.28125 72.90625 
L 38.28125 8.296875 
L 54.390625 8.296875 
L 54.390625 0 
L 12.40625 0 
z
" id="DejaVuSans-31"/>
      </defs>
      <g transform="translate(675.580357 392.598437)scale(0.1 -0.1)">
       <use xlink:href="#DejaVuSans-31"/>
       <use x="63.623047" xlink:href="#DejaVuSans-30"/>
      </g>
     </g>
    </g>
    <g id="xtick_8">
     <g id="line2d_8">
      <g>
       <use style="stroke:#000000;stroke-width:0.8;" x="777.6" xlink:href="#m57f64be28b" y="378"/>
      </g>
     </g>
     <g id="text_8">
      <!-- 12 -->
      <g transform="translate(771.2375 392.598437)scale(0.1 -0.1)">
       <use xlink:href="#DejaVuSans-31"/>
       <use x="63.623047" xlink:href="#DejaVuSans-32"/>
      </g>
     </g>
    </g>
    <g id="text_9">
     <!-- $x$ -->
     <defs>
      <path d="M 60.015625 54.6875 
L 34.90625 27.875 
L 50.296875 0 
L 39.984375 0 
L 28.421875 21.6875 
L 8.296875 0 
L -2.59375 0 
L 24.3125 28.8125 
L 10.015625 54.6875 
L 20.3125 54.6875 
L 30.8125 34.90625 
L 49.125 54.6875 
z
" id="DejaVuSans-Oblique-78"/>
     </defs>
     <g transform="translate(436.8 413.875)scale(0.2 -0.2)">
      <use transform="translate(0 0.3125)" xlink:href="#DejaVuSans-Oblique-78"/>
     </g>
    </g>
   </g>
   <g id="matplotlib.axis_2">
    <g id="ytick_1">
     <g id="line2d_9">
      <defs>
       <path d="M 0 0 
L -3.5 0 
" id="m0e12a6c8ac" style="stroke:#000000;stroke-width:0.8;"/>
      </defs>
      <g>
       <use style="stroke:#000000;stroke-width:0.8;" x="108" xlink:href="#m0e12a6c8ac" y="347.844697"/>
      </g>
     </g>
     <g id="text_10">
      <!-- −3 -->
      <defs>
       <path d="M 40.578125 39.3125 
Q 47.65625 37.796875 51.625 33 
Q 55.609375 28.21875 55.609375 21.1875 
Q 55.609375 10.40625 48.1875 4.484375 
Q 40.765625 -1.421875 27.09375 -1.421875 
Q 22.515625 -1.421875 17.65625 -0.515625 
Q 12.796875 0.390625 7.625 2.203125 
L 7.625 11.71875 
Q 11.71875 9.328125 16.59375 8.109375 
Q 21.484375 6.890625 26.8125 6.890625 
Q 36.078125 6.890625 40.9375 10.546875 
Q 45.796875 14.203125 45.796875 21.1875 
Q 45.796875 27.640625 41.28125 31.265625 
Q 36.765625 34.90625 28.71875 34.90625 
L 20.21875 34.90625 
L 20.21875 43.015625 
L 29.109375 43.015625 
Q 36.375 43.015625 40.234375 45.921875 
Q 44.09375 48.828125 44.09375 54.296875 
Q 44.09375 59.90625 40.109375 62.90625 
Q 36.140625 65.921875 28.71875 65.921875 
Q 24.65625 65.921875 20.015625 65.03125 
Q 15.375 64.15625 9.8125 62.3125 
L 9.8125 71.09375 
Q 15.4375 72.65625 20.34375 73.4375 
Q 25.25 74.21875 29.59375 74.21875 
Q 40.828125 74.21875 47.359375 69.109375 
Q 53.90625 64.015625 53.90625 55.328125 
Q 53.90625 49.265625 50.4375 45.09375 
Q 46.96875 40.921875 40.578125 39.3125 
z
" id="DejaVuSans-33"/>
      </defs>
      <g transform="translate(86.257812 351.643916)scale(0.1 -0.1)">
       <use xlink:href="#DejaVuSans-2212"/>
       <use x="83.789062" xlink:href="#DejaVuSans-33"/>
      </g>
     </g>
    </g>
    <g id="ytick_2">
     <g id="line2d_10">
      <g>
       <use style="stroke:#000000;stroke-width:0.8;" x="108" xlink:href="#m0e12a6c8ac" y="289.049127"/>
      </g>
     </g>
     <g id="text_11">
      <!-- −2 -->
      <g transform="translate(86.257812 292.848346)scale(0.1 -0.1)">
       <use xlink:href="#DejaVuSans-2212"/>
       <use x="83.789062" xlink:href="#DejaVuSans-32"/>
      </g>
     </g>
    </g>
    <g id="ytick_3">
     <g id="line2d_11">
      <g>
       <use style="stroke:#000000;stroke-width:0.8;" x="108" xlink:href="#m0e12a6c8ac" y="230.253557"/>
      </g>
     </g>
     <g id="text_12">
      <!-- −1 -->
      <g transform="translate(86.257812 234.052776)scale(0.1 -0.1)">
       <use xlink:href="#DejaVuSans-2212"/>
       <use x="83.789062" xlink:href="#DejaVuSans-31"/>
      </g>
     </g>
    </g>
    <g id="ytick_4">
     <g id="line2d_12">
      <g>
       <use style="stroke:#000000;stroke-width:0.8;" x="108" xlink:href="#m0e12a6c8ac" y="171.457987"/>
      </g>
     </g>
     <g id="text_13">
      <!-- 0 -->
      <g transform="translate(94.6375 175.257205)scale(0.1 -0.1)">
       <use xlink:href="#DejaVuSans-30"/>
      </g>
     </g>
    </g>
    <g id="ytick_5">
     <g id="line2d_13">
      <g>
       <use style="stroke:#000000;stroke-width:0.8;" x="108" xlink:href="#m0e12a6c8ac" y="112.662416"/>
      </g>
     </g>
     <g id="text_14">
      <!-- 1 -->
      <g transform="translate(94.6375 116.461635)scale(0.1 -0.1)">
       <use xlink:href="#DejaVuSans-31"/>
      </g>
     </g>
    </g>
    <g id="ytick_6">
     <g id="line2d_14">
      <g>
       <use style="stroke:#000000;stroke-width:0.8;" x="108" xlink:href="#m0e12a6c8ac" y="53.866846"/>
      </g>
     </g>
     <g id="text_15">
      <!-- 2 -->
      <g transform="translate(94.6375 57.666065)scale(0.1 -0.1)">
       <use xlink:href="#DejaVuSans-32"/>
      </g>
     </g>
    </g>
    <g id="text_16">
     <!-- $y$ -->
     <defs>
      <path d="M 24.8125 -5.078125 
Q 18.5625 -15.578125 14.625 -18.1875 
Q 10.6875 -20.796875 4.59375 -20.796875 
L -2.484375 -20.796875 
L -0.984375 -13.28125 
L 4.203125 -13.28125 
Q 7.953125 -13.28125 10.59375 -11.234375 
Q 13.234375 -9.1875 16.5 -3.21875 
L 19.28125 2 
L 7.171875 54.6875 
L 16.703125 54.6875 
L 25.78125 12.796875 
L 50.875 54.6875 
L 60.296875 54.6875 
z
" id="DejaVuSans-Oblique-79"/>
     </defs>
     <g transform="translate(78.057812 220.92)rotate(-90)scale(0.2 -0.2)">
      <use transform="translate(0 0.3125)" xlink:href="#DejaVuSans-Oblique-79"/>
     </g>
    </g>
   </g>
   <g id="line2d_15">
    <defs>
     <path d="M 0 2.5 
C 0.663008 2.5 1.29895 2.236584 1.767767 1.767767 
C 2.236584 1.29895 2.5 0.663008 2.5 0 
C 2.5 -0.663008 2.236584 -1.29895 1.767767 -1.767767 
C 1.29895 -2.236584 0.663008 -2.5 0 -2.5 
C -0.663008 -2.5 -1.29895 -2.236584 -1.767767 -1.767767 
C -2.236584 -1.29895 -2.5 -0.663008 -2.5 0 
C -2.5 0.663008 -2.236584 1.29895 -1.767767 1.767767 
C -1.29895 2.236584 -0.663008 2.5 0 2.5 
z
" id="mf11e219a6c" style="stroke:#ff0000;"/>
    </defs>
    <g clip-path="url(#pee64fe7ff8)">
     <use style="fill:#ff0000;stroke:#ff0000;" x="203.657143" xlink:href="#mf11e219a6c" y="269.362158"/>
     <use style="fill:#ff0000;stroke:#ff0000;" x="209.635714" xlink:href="#mf11e219a6c" y="268.265655"/>
     <use style="fill:#ff0000;stroke:#ff0000;" x="215.614286" xlink:href="#mf11e219a6c" y="249.70435"/>
     <use style="fill:#ff0000;stroke:#ff0000;" x="221.592857" xlink:href="#mf11e219a6c" y="257.728058"/>
     <use style="fill:#ff0000;stroke:#ff0000;" x="227.571429" xlink:href="#mf11e219a6c" y="251.63509"/>
     <use style="fill:#ff0000;stroke:#ff0000;" x="233.55" xlink:href="#mf11e219a6c" y="251.619536"/>
     <use style="fill:#ff0000;stroke:#ff0000;" x="239.528571" xlink:href="#mf11e219a6c" y="271.225686"/>
     <use style="fill:#ff0000;stroke:#ff0000;" x="245.507143" xlink:href="#mf11e219a6c" y="288.672909"/>
     <use style="fill:#ff0000;stroke:#ff0000;" x="251.485714" xlink:href="#mf11e219a6c" y="253.193816"/>
     <use style="fill:#ff0000;stroke:#ff0000;" x="257.464286" xlink:href="#mf11e219a6c" y="255.06835"/>
     <use style="fill:#ff0000;stroke:#ff0000;" x="263.442857" xlink:href="#mf11e219a6c" y="278.076366"/>
     <use style="fill:#ff0000;stroke:#ff0000;" x="269.421429" xlink:href="#mf11e219a6c" y="277.506227"/>
     <use style="fill:#ff0000;stroke:#ff0000;" x="275.4" xlink:href="#mf11e219a6c" y="327.314785"/>
     <use style="fill:#ff0000;stroke:#ff0000;" x="281.378571" xlink:href="#mf11e219a6c" y="349.701219"/>
     <use style="fill:#ff0000;stroke:#ff0000;" x="287.357143" xlink:href="#mf11e219a6c" y="340.43842"/>
     <use style="fill:#ff0000;stroke:#ff0000;" x="293.335714" xlink:href="#mf11e219a6c" y="294.3865"/>
     <use style="fill:#ff0000;stroke:#ff0000;" x="299.314286" xlink:href="#mf11e219a6c" y="302.158933"/>
     <use style="fill:#ff0000;stroke:#ff0000;" x="305.292857" xlink:href="#mf11e219a6c" y="289.168648"/>
     <use style="fill:#ff0000;stroke:#ff0000;" x="311.271429" xlink:href="#mf11e219a6c" y="249.716095"/>
     <use style="fill:#ff0000;stroke:#ff0000;" x="317.25" xlink:href="#mf11e219a6c" y="321.921237"/>
     <use style="fill:#ff0000;stroke:#ff0000;" x="323.228571" xlink:href="#mf11e219a6c" y="289.354782"/>
     <use style="fill:#ff0000;stroke:#ff0000;" x="329.207143" xlink:href="#mf11e219a6c" y="266.096826"/>
     <use style="fill:#ff0000;stroke:#ff0000;" x="335.185714" xlink:href="#mf11e219a6c" y="259.193073"/>
     <use style="fill:#ff0000;stroke:#ff0000;" x="341.164286" xlink:href="#mf11e219a6c" y="267.262984"/>
     <use style="fill:#ff0000;stroke:#ff0000;" x="347.142857" xlink:href="#mf11e219a6c" y="264.571627"/>
     <use style="fill:#ff0000;stroke:#ff0000;" x="538.457143" xlink:href="#mf11e219a6c" y="283.990624"/>
     <use style="fill:#ff0000;stroke:#ff0000;" x="544.435714" xlink:href="#mf11e219a6c" y="272.743238"/>
     <use style="fill:#ff0000;stroke:#ff0000;" x="550.414286" xlink:href="#mf11e219a6c" y="280.768911"/>
     <use style="fill:#ff0000;stroke:#ff0000;" x="556.392857" xlink:href="#mf11e219a6c" y="284.211031"/>
     <use style="fill:#ff0000;stroke:#ff0000;" x="562.371429" xlink:href="#mf11e219a6c" y="287.616976"/>
     <use style="fill:#ff0000;stroke:#ff0000;" x="568.35" xlink:href="#mf11e219a6c" y="257.754818"/>
     <use style="fill:#ff0000;stroke:#ff0000;" x="574.328571" xlink:href="#mf11e219a6c" y="257.818567"/>
     <use style="fill:#ff0000;stroke:#ff0000;" x="580.307143" xlink:href="#mf11e219a6c" y="289.237444"/>
     <use style="fill:#ff0000;stroke:#ff0000;" x="586.285714" xlink:href="#mf11e219a6c" y="254.597734"/>
     <use style="fill:#ff0000;stroke:#ff0000;" x="592.264286" xlink:href="#mf11e219a6c" y="289.370588"/>
     <use style="fill:#ff0000;stroke:#ff0000;" x="598.242857" xlink:href="#mf11e219a6c" y="242.369923"/>
     <use style="fill:#ff0000;stroke:#ff0000;" x="604.221429" xlink:href="#mf11e219a6c" y="271.227673"/>
     <use style="fill:#ff0000;stroke:#ff0000;" x="610.2" xlink:href="#mf11e219a6c" y="220.950356"/>
     <use style="fill:#ff0000;stroke:#ff0000;" x="616.178571" xlink:href="#mf11e219a6c" y="229.304475"/>
     <use style="fill:#ff0000;stroke:#ff0000;" x="622.157143" xlink:href="#mf11e219a6c" y="214.90351"/>
     <use style="fill:#ff0000;stroke:#ff0000;" x="628.135714" xlink:href="#mf11e219a6c" y="224.862071"/>
     <use style="fill:#ff0000;stroke:#ff0000;" x="634.114286" xlink:href="#mf11e219a6c" y="234.841941"/>
     <use style="fill:#ff0000;stroke:#ff0000;" x="640.092857" xlink:href="#mf11e219a6c" y="221.051874"/>
     <use style="fill:#ff0000;stroke:#ff0000;" x="646.071429" xlink:href="#mf11e219a6c" y="197.124322"/>
     <use style="fill:#ff0000;stroke:#ff0000;" x="652.05" xlink:href="#mf11e219a6c" y="201.697747"/>
     <use style="fill:#ff0000;stroke:#ff0000;" x="658.028571" xlink:href="#mf11e219a6c" y="170.501527"/>
     <use style="fill:#ff0000;stroke:#ff0000;" x="664.007143" xlink:href="#mf11e219a6c" y="204.880837"/>
     <use style="fill:#ff0000;stroke:#ff0000;" x="669.985714" xlink:href="#mf11e219a6c" y="206.446822"/>
     <use style="fill:#ff0000;stroke:#ff0000;" x="675.964286" xlink:href="#mf11e219a6c" y="211.551759"/>
     <use style="fill:#ff0000;stroke:#ff0000;" x="681.942857" xlink:href="#mf11e219a6c" y="204.33735"/>
    </g>
   </g>
   <g id="line2d_16">
    <path clip-path="url(#pee64fe7ff8)" d="M 108 226.768764 
L 114.729648 230.260872 
L 121.459296 233.404579 
L 128.188945 236.14861 
L 134.918593 238.462846 
L 141.648241 240.342539 
L 148.377889 241.811209 
L 155.107538 242.921834 
L 161.837186 243.755982 
L 185.390955 246.204824 
L 192.120603 247.338143 
L 195.485427 248.062258 
L 198.850251 248.910695 
L 202.215075 249.895813 
L 205.579899 251.027867 
L 208.944724 252.314722 
L 212.309548 253.7616 
L 215.674372 255.37086 
L 219.039196 257.141826 
L 222.40402 259.070654 
L 225.768844 261.150261 
L 232.498492 265.717198 
L 239.228141 270.721739 
L 249.322613 278.669839 
L 256.052261 283.947716 
L 262.78191 288.923184 
L 266.146734 291.217169 
L 269.511558 293.33928 
L 272.876382 295.258416 
L 276.241206 296.944788 
L 279.60603 298.370377 
L 282.970854 299.509372 
L 286.335678 300.338569 
L 289.700503 300.837737 
L 293.065327 300.989942 
L 296.430151 300.781813 
L 299.794975 300.203759 
L 303.159799 299.25013 
L 306.524623 297.919316 
L 309.889447 296.213779 
L 313.254271 294.140042 
L 316.619095 291.708597 
L 319.98392 288.933774 
L 323.348744 285.833545 
L 326.713568 282.429286 
L 330.078392 278.745493 
L 333.443216 274.809455 
L 336.80804 270.650905 
L 343.537688 261.795115 
L 350.267337 252.45 
L 363.726633 233.433971 
L 370.456281 224.32376 
L 373.821106 219.982588 
L 377.18593 215.823288 
L 380.550754 211.872717 
L 383.915578 208.155452 
L 387.280402 204.693658 
L 390.645226 201.506988 
L 394.01005 198.61252 
L 397.374874 196.024726 
L 400.739698 193.755476 
L 404.104523 191.81406 
L 407.469347 190.207247 
L 410.834171 188.939353 
L 414.198995 188.012337 
L 417.563819 187.425906 
L 420.928643 187.177626 
L 424.293467 187.263054 
L 427.658291 187.675854 
L 431.023116 188.407935 
L 434.38794 189.449572 
L 437.752764 190.789529 
L 441.117588 192.415181 
L 444.482412 194.312618 
L 447.847236 196.466757 
L 451.21206 198.861431 
L 454.576884 201.47948 
L 457.941709 204.302835 
L 461.306533 207.312584 
L 468.036181 213.811849 
L 474.765829 220.811778 
L 484.860302 231.866123 
L 498.319598 246.67336 
L 505.049246 253.683617 
L 511.778894 260.184629 
L 515.143719 263.188722 
L 518.508543 266.000461 
L 521.873367 268.600014 
L 525.238191 270.968748 
L 528.603015 273.089406 
L 531.967839 274.946286 
L 535.332663 276.525419 
L 538.697487 277.814735 
L 542.062312 278.804224 
L 545.427136 279.486077 
L 548.79196 279.854818 
L 552.156784 279.907412 
L 555.521608 279.643348 
L 558.886432 279.064699 
L 562.251256 278.176157 
L 565.61608 276.985033 
L 568.980905 275.501228 
L 572.345729 273.737172 
L 575.710553 271.707731 
L 579.075377 269.430079 
L 582.440201 266.92354 
L 585.805025 264.2094 
L 589.169849 261.310691 
L 595.899497 255.058937 
L 602.629146 248.377673 
L 619.453266 231.235927 
L 626.182915 224.759693 
L 632.912563 218.781138 
L 636.277387 216.025826 
L 639.642211 213.447265 
L 643.007035 211.057978 
L 646.371859 208.867918 
L 649.736683 206.884409 
L 653.101508 205.112125 
L 656.466332 203.553102 
L 659.831156 202.206797 
L 663.19598 201.070173 
L 666.560804 200.137821 
L 669.925628 199.40211 
L 673.290452 198.853367 
L 676.655276 198.480084 
L 680.020101 198.269133 
L 683.384925 198.206013 
L 686.749749 198.275093 
L 693.479397 198.743253 
L 700.209045 199.535851 
L 713.668342 201.542628 
L 723.762814 202.922637 
L 730.492462 203.590065 
L 737.222111 203.96943 
L 743.951759 204.013528 
L 750.681407 203.698576 
L 757.411055 203.022638 
L 764.140704 202.003005 
L 770.870352 200.672806 
L 777.6 199.077187 
L 777.6 199.077187 
" style="fill:none;stroke:#3300ff;stroke-linecap:square;stroke-width:2;"/>
   </g>
   <g id="line2d_17">
    <path clip-path="url(#pee64fe7ff8)" d="M 108 97.597568 
L 118.094472 110.92852 
L 141.648241 142.586506 
L 148.377889 151.266734 
L 155.107538 159.596408 
L 161.837186 167.492615 
L 168.566834 174.888769 
L 175.296482 181.736739 
L 182.026131 188.010291 
L 188.755779 193.711668 
L 195.485427 198.88191 
L 202.215075 203.611562 
L 208.944724 208.043298 
L 222.40402 216.737606 
L 229.133668 221.331521 
L 235.863317 226.213948 
L 242.592965 231.368782 
L 259.417085 244.537785 
L 262.78191 246.994131 
L 266.146734 249.311779 
L 269.511558 251.455229 
L 272.876382 253.39006 
L 276.241206 255.083856 
L 279.60603 256.507018 
L 282.970854 257.63343 
L 286.335678 258.44094 
L 289.700503 258.911633 
L 293.065327 259.03188 
L 296.430151 258.792174 
L 299.794975 258.186746 
L 303.159799 257.213009 
L 306.524623 255.870848 
L 309.889447 254.1618 
L 313.254271 252.088172 
L 316.619095 249.652164 
L 319.98392 246.855056 
L 323.348744 243.696559 
L 326.713568 240.174449 
L 330.078392 236.284581 
L 333.443216 232.021435 
L 336.80804 227.37924 
L 340.172864 222.353684 
L 343.537688 216.944066 
L 346.902513 211.155603 
L 350.267337 205.001505 
L 353.632161 198.504444 
L 356.996985 191.697127 
L 363.726633 177.32965 
L 373.821106 154.747607 
L 380.550754 139.752352 
L 387.280402 125.407899 
L 390.645226 118.630649 
L 394.01005 112.190236 
L 397.374874 106.136659 
L 400.739698 100.515477 
L 404.104523 95.367635 
L 407.469347 90.729362 
L 410.834171 86.632125 
L 414.198995 83.102619 
L 417.563819 80.162802 
L 420.928643 77.829942 
L 424.293467 76.1167 
L 427.658291 75.031223 
L 431.023116 74.577238 
L 434.38794 74.754176 
L 437.752764 75.557273 
L 441.117588 76.977695 
L 444.482412 79.002649 
L 447.847236 81.615494 
L 451.21206 84.795852 
L 454.576884 88.519717 
L 457.941709 92.759557 
L 461.306533 97.484424 
L 464.671357 102.660056 
L 468.036181 108.248993 
L 471.401005 114.210693 
L 474.765829 120.501667 
L 481.495477 133.883606 
L 488.225126 147.993894 
L 501.684422 176.627416 
L 508.41407 190.211578 
L 511.778894 196.613136 
L 515.143719 202.678577 
L 518.508543 208.354929 
L 521.873367 213.593925 
L 525.238191 218.353531 
L 528.603015 222.599499 
L 531.967839 226.30676 
L 535.332663 229.460437 
L 538.697487 232.056267 
L 542.062312 234.100263 
L 545.427136 235.607622 
L 548.79196 236.601007 
L 552.156784 237.108477 
L 555.521608 237.161357 
L 558.886432 236.792346 
L 562.251256 236.034006 
L 565.61608 234.917744 
L 568.980905 233.473233 
L 572.345729 231.728231 
L 575.710553 229.708693 
L 579.075377 227.439071 
L 582.440201 224.942749 
L 585.805025 222.242503 
L 589.169849 219.36098 
L 595.899497 213.146462 
L 602.629146 206.491552 
L 622.81809 186.01028 
L 629.547739 179.73725 
L 632.912563 176.815051 
L 636.277387 174.060515 
L 639.642211 171.487608 
L 643.007035 169.105956 
L 646.371859 166.920376 
L 649.736683 164.930486 
L 653.101508 163.130422 
L 656.466332 161.508685 
L 659.831156 160.048153 
L 666.560804 157.515706 
L 676.655276 154.22119 
L 683.384925 151.945812 
L 686.749749 150.679931 
L 690.114573 149.289151 
L 693.479397 147.749854 
L 696.844221 146.043839 
L 700.209045 144.158397 
L 703.573869 142.086048 
L 706.938693 139.824076 
L 710.303518 137.373924 
L 713.668342 134.740579 
L 717.033166 131.93198 
L 720.39799 128.958488 
L 727.127638 122.567709 
L 733.857286 115.683834 
L 740.586935 108.438037 
L 754.046231 93.416578 
L 764.140704 82.22185 
L 770.870352 75.022808 
L 777.6 68.153565 
L 777.6 68.153565 
" style="fill:none;stroke:#3300ff;stroke-linecap:square;stroke-width:0.2;"/>
   </g>
   <g id="line2d_18">
    <path clip-path="url(#pee64fe7ff8)" d="M 108 355.93996 
L 111.364824 355.125406 
L 114.729648 354.09014 
L 118.094472 352.831319 
L 121.459296 351.348665 
L 124.824121 349.64464 
L 128.188945 347.724602 
L 131.553769 345.596924 
L 134.918593 343.273083 
L 138.283417 340.767705 
L 141.648241 338.098572 
L 148.377889 332.355684 
L 155.107538 326.24726 
L 165.20201 316.947268 
L 171.931658 311.073894 
L 175.296482 308.349657 
L 178.661307 305.818143 
L 182.026131 303.516258 
L 185.390955 301.478662 
L 188.755779 299.736736 
L 192.120603 298.317508 
L 195.485427 297.242606 
L 198.850251 296.527347 
L 202.215075 296.180064 
L 205.579899 296.201756 
L 208.944724 296.586145 
L 212.309548 297.320117 
L 215.674372 298.384503 
L 219.039196 299.755085 
L 222.40402 301.403702 
L 225.768844 303.299336 
L 229.133668 305.409081 
L 232.498492 307.698955 
L 239.228141 312.681442 
L 259.417085 328.440748 
L 262.78191 330.852237 
L 266.146734 333.122559 
L 269.511558 335.223332 
L 272.876382 337.126773 
L 276.241206 338.80572 
L 279.60603 340.233737 
L 282.970854 341.385314 
L 286.335678 342.236197 
L 289.700503 342.763842 
L 293.065327 342.948004 
L 296.430151 342.771452 
L 299.794975 342.220772 
L 303.159799 341.287252 
L 306.524623 339.967783 
L 309.889447 338.265759 
L 313.254271 336.191912 
L 316.619095 333.76503 
L 319.98392 331.012493 
L 323.348744 327.970531 
L 326.713568 324.684124 
L 333.443216 317.597474 
L 343.537688 306.646164 
L 346.902513 303.176496 
L 350.267337 299.898495 
L 353.632161 296.861472 
L 356.996985 294.104767 
L 360.361809 291.65735 
L 363.726633 289.538291 
L 367.091457 287.757822 
L 370.456281 286.318691 
L 373.821106 285.217568 
L 377.18593 284.44632 
L 380.550754 283.993081 
L 383.915578 283.843104 
L 387.280402 283.979417 
L 390.645226 284.383326 
L 394.01005 285.034803 
L 397.374874 285.912793 
L 400.739698 286.995475 
L 404.104523 288.260486 
L 407.469347 289.685132 
L 414.198995 292.922055 
L 420.928643 296.525311 
L 444.482412 309.622587 
L 451.21206 312.92701 
L 457.941709 315.846112 
L 464.671357 318.318042 
L 468.036181 319.374705 
L 471.401005 320.309225 
L 474.765829 321.121889 
L 478.130653 321.814755 
L 484.860302 322.858004 
L 491.58995 323.489383 
L 498.319598 323.78395 
L 505.049246 323.837035 
L 545.427136 323.364532 
L 548.79196 323.108629 
L 552.156784 322.706348 
L 555.521608 322.125338 
L 558.886432 321.337051 
L 562.251256 320.318307 
L 565.61608 319.052321 
L 568.980905 317.529223 
L 572.345729 315.746113 
L 575.710553 313.70677 
L 579.075377 311.421087 
L 582.440201 308.904331 
L 585.805025 306.176297 
L 589.169849 303.260402 
L 595.899497 296.971413 
L 602.629146 290.263794 
L 619.453266 273.1554 
L 626.182915 266.710054 
L 632.912563 260.747224 
L 636.277387 257.991136 
L 639.642211 255.406921 
L 643.007035 253.009999 
L 646.371859 250.81546 
L 649.736683 248.838333 
L 653.101508 247.093827 
L 656.466332 245.597518 
L 659.831156 244.365441 
L 663.19598 243.41404 
L 666.560804 242.759936 
L 669.925628 242.419469 
L 673.290452 242.407995 
L 676.655276 242.738977 
L 680.020101 243.422909 
L 683.384925 244.466214 
L 686.749749 245.870256 
L 690.114573 247.630601 
L 693.479397 249.736651 
L 696.844221 252.171687 
L 700.209045 254.913306 
L 703.573869 257.934159 
L 706.938693 261.202893 
L 710.303518 264.68517 
L 717.033166 272.144071 
L 727.127638 284.009245 
L 737.222111 295.841264 
L 743.951759 303.304375 
L 747.316583 306.833981 
L 750.681407 310.202445 
L 754.046231 313.393549 
L 757.411055 316.394001 
L 760.775879 319.193401 
L 764.140704 321.784159 
L 767.505528 324.161396 
L 770.870352 326.322804 
L 774.235176 328.268493 
L 777.6 330.000809 
L 777.6 330.000809 
" style="fill:none;stroke:#3300ff;stroke-linecap:square;stroke-width:0.2;"/>
   </g>
   <g id="line2d_19">
    <path clip-path="url(#pee64fe7ff8)" d="M 548.899083 378 
L 203.9102 378 
L 643.62161 378 
L 677.485224 378 
L 284.751175 378 
L 594.148138 378 
L 333.901658 378 
L 234.95721 378 
" style="fill:none;stroke:#1f77b4;stroke-linecap:square;stroke-width:1.5;"/>
    <defs>
     <path d="M 0 -10 
L -10 10 
L 10 10 
z
" id="mfa7147c6f6" style="stroke:#1f77b4;stroke-linejoin:miter;"/>
    </defs>
    <g clip-path="url(#pee64fe7ff8)">
     <use style="fill:#1f77b4;stroke:#1f77b4;stroke-linejoin:miter;" x="548.899083" xlink:href="#mfa7147c6f6" y="378"/>
     <use style="fill:#1f77b4;stroke:#1f77b4;stroke-linejoin:miter;" x="203.9102" xlink:href="#mfa7147c6f6" y="378"/>
     <use style="fill:#1f77b4;stroke:#1f77b4;stroke-linejoin:miter;" x="643.62161" xlink:href="#mfa7147c6f6" y="378"/>
     <use style="fill:#1f77b4;stroke:#1f77b4;stroke-linejoin:miter;" x="677.485224" xlink:href="#mfa7147c6f6" y="378"/>
     <use style="fill:#1f77b4;stroke:#1f77b4;stroke-linejoin:miter;" x="284.751175" xlink:href="#mfa7147c6f6" y="378"/>
     <use style="fill:#1f77b4;stroke:#1f77b4;stroke-linejoin:miter;" x="594.148138" xlink:href="#mfa7147c6f6" y="378"/>
     <use style="fill:#1f77b4;stroke:#1f77b4;stroke-linejoin:miter;" x="333.901658" xlink:href="#mfa7147c6f6" y="378"/>
     <use style="fill:#1f77b4;stroke:#1f77b4;stroke-linejoin:miter;" x="234.95721" xlink:href="#mfa7147c6f6" y="378"/>
    </g>
   </g>
   <g id="patch_4">
    <path d="M 108 378 
L 108 51.84 
" style="fill:none;stroke:#000000;stroke-linecap:square;stroke-linejoin:miter;stroke-width:0.8;"/>
   </g>
   <g id="patch_5">
    <path d="M 777.6 378 
L 777.6 51.84 
" style="fill:none;stroke:#000000;stroke-linecap:square;stroke-linejoin:miter;stroke-width:0.8;"/>
   </g>
   <g id="patch_6">
    <path d="M 108 378 
L 777.6 378 
" style="fill:none;stroke:#000000;stroke-linecap:square;stroke-linejoin:miter;stroke-width:0.8;"/>
   </g>
   <g id="patch_7">
    <path d="M 108 51.84 
L 777.6 51.84 
" style="fill:none;stroke:#000000;stroke-linecap:square;stroke-linejoin:miter;stroke-width:0.8;"/>
   </g>
  </g>
 </g>
 <defs>
  <clipPath id="pee64fe7ff8">
   <rect height="326.16" width="669.6" x="108" y="51.84"/>
  </clipPath>
 </defs>
</svg>
