<?xml version="1.0" encoding="utf-8" standalone="no"?>
<!DOCTYPE svg PUBLIC "-//W3C//DTD SVG 1.1//EN"
  "http://www.w3.org/Graphics/SVG/1.1/DTD/svg11.dtd">
<!-- Created with matplotlib (http://matplotlib.org/) -->
<svg height="432pt" version="1.1" viewBox="0 0 864 432" width="864pt" xmlns="http://www.w3.org/2000/svg" xmlns:xlink="http://www.w3.org/1999/xlink">
 <defs>
  <style type="text/css">
*{stroke-linecap:butt;stroke-linejoin:round;}
  </style>
 </defs>
 <g id="figure_1">
  <g id="patch_1">
   <path d="M 0 432 
L 864 432 
L 864 0 
L 0 0 
z
" style="fill:none;"/>
  </g>
  <g id="axes_1">
   <g id="patch_2">
    <path d="M 108 378 
L 777.6 378 
L 777.6 51.84 
L 108 51.84 
z
" style="fill:none;"/>
   </g>
   <g id="patch_3">
    <path clip-path="url(#p004c464f3c)" d="M 138.436364 97.59498 
L 141.495295 101.981052 
L 144.554226 106.429213 
L 147.613157 110.926212 
L 150.672088 115.458259 
L 153.731019 120.011167 
L 156.78995 124.570513 
L 159.848881 129.121798 
L 162.907812 133.650614 
L 165.966743 138.142805 
L 169.025674 142.584618 
L 172.084605 146.962847 
L 175.143536 151.264966 
L 178.202467 155.479233 
L 181.261398 159.594789 
L 184.320329 163.601733 
L 187.37926 167.491188 
L 190.438191 171.255354 
L 193.497122 174.887579 
L 196.556053 178.382433 
L 199.614984 181.73583 
L 202.673915 184.945191 
L 205.732846 188.009685 
L 208.791777 190.93053 
L 211.850708 193.711357 
L 214.909639 196.3586 
L 217.96857 198.881847 
L 221.027501 201.294074 
L 224.086432 203.611664 
L 227.145363 205.854123 
L 230.204294 208.043464 
L 233.263225 210.203246 
L 236.322156 212.357359 
L 239.381087 214.528672 
L 242.440018 216.737665 
L 245.498949 219.001197 
L 248.55788 221.331484 
L 251.616811 223.735362 
L 254.675742 226.213835 
L 257.734673 228.7619 
L 260.793604 231.368635 
L 263.852535 234.017492 
L 266.911466 236.686788 
L 269.970397 239.350342 
L 273.029328 241.978243 
L 276.088259 244.53772 
L 279.14719 246.994094 
L 282.206122 249.311767 
L 285.265053 251.455236 
L 288.323984 253.390079 
L 291.382915 255.083879 
L 294.441846 256.507036 
L 297.500777 257.633433 
L 300.559708 258.440921 
L 303.618639 258.911586 
L 306.67757 259.031803 
L 309.736501 258.792065 
L 312.795432 258.186608 
L 315.854363 257.212847 
L 318.913294 255.870669 
L 321.972225 254.161614 
L 325.031156 252.087989 
L 328.090087 249.651994 
L 331.149018 246.854908 
L 334.207949 243.696442 
L 337.26688 240.174366 
L 340.325811 236.284533 
L 343.384742 232.021418 
L 346.443673 227.379242 
L 349.502604 222.35369 
L 352.561535 216.944055 
L 355.620466 211.155549 
L 358.679397 205.001383 
L 361.738328 198.504225 
L 364.797259 191.696785 
L 367.85619 184.62143 
L 370.915121 177.32899 
L 373.974052 169.877013 
L 377.032983 162.327781 
L 380.091914 154.746348 
L 383.150845 147.198779 
L 386.209776 139.750656 
L 389.268707 132.465885 
L 392.327638 125.405769 
L 395.386569 118.62831 
L 398.4455 112.187695 
L 401.504431 106.133928 
L 404.563362 100.512567 
L 407.622293 95.364561 
L 410.681224 90.72614 
L 413.740155 86.628772 
L 416.799086 83.099155 
L 419.858017 80.159246 
L 422.916948 77.826316 
L 425.975879 76.113026 
L 429.03481 75.027522 
L 432.093741 74.573534 
L 435.152672 74.75049 
L 438.211603 75.553629 
L 441.270534 76.974114 
L 444.329466 78.999151 
L 447.388397 81.612099 
L 450.447328 84.792578 
L 453.506259 88.51658 
L 456.56519 92.756571 
L 459.624121 97.4816 
L 462.683052 102.657403 
L 465.741983 108.246516 
L 468.800914 114.208398 
L 471.859845 120.499553 
L 474.918776 127.073682 
L 477.977707 133.881846 
L 481.036638 140.87265 
L 484.095569 147.99246 
L 487.1545 155.185664 
L 490.213431 162.394964 
L 493.272362 169.561742 
L 496.331293 176.626497 
L 499.390224 183.529375 
L 502.449155 190.210837 
L 505.508086 196.612468 
L 508.567017 202.677974 
L 511.625948 208.354385 
L 514.684879 213.593437 
L 517.74381 218.353101 
L 520.802741 222.59913 
L 523.861672 226.306455 
L 526.920603 229.460204 
L 529.979534 232.05611 
L 533.038465 234.100186 
L 536.097396 235.607626 
L 539.156327 236.601089 
L 542.215258 237.108629 
L 545.274189 237.16157 
L 548.33312 236.792604 
L 551.392051 236.034294 
L 554.450982 234.918044 
L 557.509913 233.473526 
L 560.568844 231.728501 
L 563.627775 229.708924 
L 566.686706 227.439251 
L 569.745637 224.942868 
L 572.804568 222.242555 
L 575.863499 219.360963 
L 578.92243 216.321027 
L 581.981361 213.146314 
L 585.040292 209.861262 
L 588.099223 206.491302 
L 591.158154 203.062855 
L 594.217085 199.603192 
L 597.276016 196.140176 
L 600.334947 192.701886 
L 603.393878 189.316149 
L 606.45281 186.009999 
L 609.511741 182.809082 
L 612.570672 179.73704 
L 615.629603 176.814886 
L 618.688534 174.060399 
L 621.747465 171.487545 
L 624.806396 169.105948 
L 627.865327 166.920422 
L 630.924258 164.930585 
L 633.983189 163.130569 
L 637.04212 161.508872 
L 640.101051 160.048367 
L 643.159982 158.72653 
L 646.218913 157.515914 
L 649.277844 156.384912 
L 652.336775 155.298814 
L 655.395706 154.221132 
L 658.454637 153.115111 
L 661.513568 151.945318 
L 664.572499 150.679126 
L 667.63143 149.287971 
L 670.690361 147.748236 
L 673.749292 146.041723 
L 676.808223 144.155729 
L 679.867154 142.082784 
L 682.926085 139.820177 
L 685.985016 137.369363 
L 689.043947 134.735338 
L 692.102878 131.92605 
L 695.161809 128.951869 
L 698.22074 125.82513 
L 701.279671 122.559744 
L 704.338602 119.170868 
L 707.397533 115.674616 
L 710.456464 112.0878 
L 713.515395 108.427702 
L 716.574326 104.71185 
L 719.633257 100.957816 
L 722.692188 97.183018 
L 725.751119 93.404533 
L 728.81005 89.638921 
L 731.868981 85.902065 
L 734.927912 82.209021 
L 737.986843 78.573887 
L 741.045774 75.009688 
L 744.104705 71.528289 
L 747.163636 68.140319 
L 747.163636 330.007566 
L 744.104705 328.275207 
L 741.045774 326.329463 
L 737.986843 324.167985 
L 734.927912 321.790663 
L 731.868981 319.199801 
L 728.81005 316.400279 
L 725.751119 313.399683 
L 722.692188 310.208412 
L 719.633257 306.839757 
L 716.574326 303.309937 
L 713.515395 299.638107 
L 710.456464 295.846323 
L 707.397533 291.959467 
L 704.338602 288.00512 
L 701.279671 284.013381 
L 698.22074 280.016635 
L 695.161809 276.049241 
L 692.102878 272.14714 
L 689.043947 268.347377 
L 685.985016 264.687503 
L 682.926085 261.20487 
L 679.867154 257.935793 
L 676.808223 254.914619 
L 673.749292 252.172709 
L 670.690361 249.737414 
L 667.63143 247.631144 
L 664.572499 245.870618 
L 661.513568 244.466437 
L 658.454637 243.423031 
L 655.395706 242.739034 
L 652.336775 242.408016 
L 649.277844 242.419477 
L 646.218913 242.75995 
L 643.159982 243.41407 
L 640.101051 244.365491 
L 637.04212 245.597589 
L 633.983189 247.093917 
L 630.924258 248.838438 
L 627.865327 250.815575 
L 624.806396 253.010119 
L 621.747465 255.407041 
L 618.688534 257.991253 
L 615.629603 260.747335 
L 612.570672 263.659264 
L 609.511741 266.710151 
L 606.45281 269.881995 
L 603.393878 273.155482 
L 600.334947 276.509815 
L 597.276016 279.922608 
L 594.217085 283.369846 
L 591.158154 286.825932 
L 588.099223 290.263834 
L 585.040292 293.655339 
L 581.981361 296.971431 
L 578.92243 300.182787 
L 575.863499 303.260398 
L 572.804568 306.176286 
L 569.745637 308.904317 
L 566.686706 311.421075 
L 563.627775 313.706767 
L 560.568844 315.746126 
L 557.509913 317.529259 
L 554.450982 319.052387 
L 551.392051 320.318409 
L 548.33312 321.337193 
L 545.274189 322.125519 
L 542.215258 322.706566 
L 539.156327 323.108877 
L 536.097396 323.364796 
L 533.038465 323.508449 
L 529.979534 323.573448 
L 526.920603 323.590602 
L 523.861672 323.585947 
L 520.802741 323.579359 
L 517.74381 323.583903 
L 514.684879 323.605915 
L 511.625948 323.645666 
L 508.567017 323.698397 
L 505.508086 323.755507 
L 502.449155 323.805725 
L 499.390224 323.836151 
L 496.331293 323.833114 
L 493.272362 323.782856 
L 490.213431 323.672047 
L 487.1545 323.488167 
L 484.095569 323.219786 
L 481.036638 322.85677 
L 477.977707 322.390425 
L 474.918776 321.813614 
L 471.859845 321.120835 
L 468.800914 320.308285 
L 465.741983 319.373902 
L 462.683052 318.317397 
L 459.624121 317.140275 
L 456.56519 315.845837 
L 453.506259 314.439176 
L 450.447328 312.927156 
L 447.388397 311.318388 
L 444.329466 309.62318 
L 441.270534 307.853482 
L 438.211603 306.02282 
L 435.152672 304.146214 
L 432.093741 302.240079 
L 429.03481 300.322119 
L 425.975879 298.411211 
L 422.916948 296.527267 
L 419.858017 294.691096 
L 416.799086 292.924249 
L 413.740155 291.248858 
L 410.681224 289.687467 
L 407.622293 288.262853 
L 404.563362 286.997846 
L 401.504431 285.915142 
L 398.4455 285.037104 
L 395.386569 284.385553 
L 392.327638 283.981546 
L 389.268707 283.845113 
L 386.209776 283.994951 
L 383.150845 284.448034 
L 380.091914 285.219113 
L 377.032983 286.320058 
L 373.974052 287.759008 
L 370.915121 289.539297 
L 367.85619 291.658182 
L 364.797259 294.105438 
L 361.738328 296.861999 
L 358.679397 299.898898 
L 355.620466 303.176799 
L 352.561535 306.646392 
L 349.502604 310.24977 
L 346.443673 313.922717 
L 343.384742 317.597608 
L 340.325811 321.206539 
L 337.26688 324.68427 
L 334.207949 327.970692 
L 331.149018 331.01267 
L 328.090087 333.765222 
L 325.031156 336.192113 
L 321.972225 338.265965 
L 318.913294 339.967989 
L 315.854363 341.287453 
L 312.795432 342.220963 
L 309.736501 342.77163 
L 306.67757 342.948169 
L 303.618639 342.763993 
L 300.559708 342.236337 
L 297.500777 341.385447 
L 294.441846 340.233866 
L 291.382915 338.805851 
L 288.323984 337.12691 
L 285.265053 335.223478 
L 282.206122 333.122716 
L 279.14719 330.852406 
L 276.088259 328.440926 
L 273.029328 325.917281 
L 269.970397 323.311146 
L 266.911466 320.652928 
L 263.852535 317.973809 
L 260.793604 315.305763 
L 257.734673 312.68154 
L 254.675742 310.134598 
L 251.616811 307.698972 
L 248.55788 305.409058 
L 245.498949 303.299282 
L 242.440018 301.403631 
L 239.381087 299.755018 
L 236.322156 298.384469 
L 233.263225 297.320154 
L 230.204294 296.586295 
L 227.145363 296.202067 
L 224.086432 296.180588 
L 221.027501 296.528136 
L 217.96857 297.24371 
L 214.909639 298.318976 
L 211.850708 299.738611 
L 208.791777 301.48098 
L 205.732846 303.51905 
L 202.673915 305.821432 
L 199.614984 308.353458 
L 196.556053 311.078218 
L 193.497122 313.957503 
L 190.438191 316.952644 
L 187.37926 320.025244 
L 184.320329 323.137787 
L 181.261398 326.254162 
L 178.202467 329.340098 
L 175.143536 332.363526 
L 172.084605 335.294867 
L 169.025674 338.107272 
L 165.966743 340.7768 
L 162.907812 343.282547 
L 159.848881 345.606732 
L 156.78995 347.734728 
L 153.731019 349.655057 
L 150.672088 351.359347 
L 147.613157 352.842239 
L 144.554226 354.101271 
L 141.495295 355.136724 
L 138.436364 355.951437 
z
" style="fill:#cc3300;opacity:0.3;stroke:#cc3300;stroke-linejoin:miter;stroke-width:0.5;"/>
   </g>
   <g id="matplotlib.axis_1">
    <g id="xtick_1">
     <g id="line2d_1">
      <defs>
       <path d="M 0 0 
L 0 3.5 
" id="m54a37ba4bb" style="stroke:#000000;stroke-width:0.8;"/>
      </defs>
      <g>
       <use style="stroke:#000000;stroke-width:0.8;" x="138.436364" xlink:href="#m54a37ba4bb" y="378"/>
      </g>
     </g>
     <g id="text_1">
      <!-- −2 -->
      <defs>
       <path d="M 10.59375 35.5 
L 73.1875 35.5 
L 73.1875 27.203125 
L 10.59375 27.203125 
z
" id="DejaVuSans-2212"/>
       <path d="M 19.1875 8.296875 
L 53.609375 8.296875 
L 53.609375 0 
L 7.328125 0 
L 7.328125 8.296875 
Q 12.9375 14.109375 22.625 23.890625 
Q 32.328125 33.6875 34.8125 36.53125 
Q 39.546875 41.84375 41.421875 45.53125 
Q 43.3125 49.21875 43.3125 52.78125 
Q 43.3125 58.59375 39.234375 62.25 
Q 35.15625 65.921875 28.609375 65.921875 
Q 23.96875 65.921875 18.8125 64.3125 
Q 13.671875 62.703125 7.8125 59.421875 
L 7.8125 69.390625 
Q 13.765625 71.78125 18.9375 73 
Q 24.125 74.21875 28.421875 74.21875 
Q 39.75 74.21875 46.484375 68.546875 
Q 53.21875 62.890625 53.21875 53.421875 
Q 53.21875 48.921875 51.53125 44.890625 
Q 49.859375 40.875 45.40625 35.40625 
Q 44.1875 33.984375 37.640625 27.21875 
Q 31.109375 20.453125 19.1875 8.296875 
z
" id="DejaVuSans-32"/>
      </defs>
      <g transform="translate(131.06527 392.598437)scale(0.1 -0.1)">
       <use xlink:href="#DejaVuSans-2212"/>
       <use x="83.789062" xlink:href="#DejaVuSans-32"/>
      </g>
     </g>
    </g>
    <g id="xtick_2">
     <g id="line2d_2">
      <g>
       <use style="stroke:#000000;stroke-width:0.8;" x="225.397403" xlink:href="#m54a37ba4bb" y="378"/>
      </g>
     </g>
     <g id="text_2">
      <!-- 0 -->
      <defs>
       <path d="M 31.78125 66.40625 
Q 24.171875 66.40625 20.328125 58.90625 
Q 16.5 51.421875 16.5 36.375 
Q 16.5 21.390625 20.328125 13.890625 
Q 24.171875 6.390625 31.78125 6.390625 
Q 39.453125 6.390625 43.28125 13.890625 
Q 47.125 21.390625 47.125 36.375 
Q 47.125 51.421875 43.28125 58.90625 
Q 39.453125 66.40625 31.78125 66.40625 
z
M 31.78125 74.21875 
Q 44.046875 74.21875 50.515625 64.515625 
Q 56.984375 54.828125 56.984375 36.375 
Q 56.984375 17.96875 50.515625 8.265625 
Q 44.046875 -1.421875 31.78125 -1.421875 
Q 19.53125 -1.421875 13.0625 8.265625 
Q 6.59375 17.96875 6.59375 36.375 
Q 6.59375 54.828125 13.0625 64.515625 
Q 19.53125 74.21875 31.78125 74.21875 
z
" id="DejaVuSans-30"/>
      </defs>
      <g transform="translate(222.216153 392.598437)scale(0.1 -0.1)">
       <use xlink:href="#DejaVuSans-30"/>
      </g>
     </g>
    </g>
    <g id="xtick_3">
     <g id="line2d_3">
      <g>
       <use style="stroke:#000000;stroke-width:0.8;" x="312.358442" xlink:href="#m54a37ba4bb" y="378"/>
      </g>
     </g>
     <g id="text_3">
      <!-- 2 -->
      <g transform="translate(309.177192 392.598437)scale(0.1 -0.1)">
       <use xlink:href="#DejaVuSans-32"/>
      </g>
     </g>
    </g>
    <g id="xtick_4">
     <g id="line2d_4">
      <g>
       <use style="stroke:#000000;stroke-width:0.8;" x="399.319481" xlink:href="#m54a37ba4bb" y="378"/>
      </g>
     </g>
     <g id="text_4">
      <!-- 4 -->
      <defs>
       <path d="M 37.796875 64.3125 
L 12.890625 25.390625 
L 37.796875 25.390625 
z
M 35.203125 72.90625 
L 47.609375 72.90625 
L 47.609375 25.390625 
L 58.015625 25.390625 
L 58.015625 17.1875 
L 47.609375 17.1875 
L 47.609375 0 
L 37.796875 0 
L 37.796875 17.1875 
L 4.890625 17.1875 
L 4.890625 26.703125 
z
" id="DejaVuSans-34"/>
      </defs>
      <g transform="translate(396.138231 392.598437)scale(0.1 -0.1)">
       <use xlink:href="#DejaVuSans-34"/>
      </g>
     </g>
    </g>
    <g id="xtick_5">
     <g id="line2d_5">
      <g>
       <use style="stroke:#000000;stroke-width:0.8;" x="486.280519" xlink:href="#m54a37ba4bb" y="378"/>
      </g>
     </g>
     <g id="text_5">
      <!-- 6 -->
      <defs>
       <path d="M 33.015625 40.375 
Q 26.375 40.375 22.484375 35.828125 
Q 18.609375 31.296875 18.609375 23.390625 
Q 18.609375 15.53125 22.484375 10.953125 
Q 26.375 6.390625 33.015625 6.390625 
Q 39.65625 6.390625 43.53125 10.953125 
Q 47.40625 15.53125 47.40625 23.390625 
Q 47.40625 31.296875 43.53125 35.828125 
Q 39.65625 40.375 33.015625 40.375 
z
M 52.59375 71.296875 
L 52.59375 62.3125 
Q 48.875 64.0625 45.09375 64.984375 
Q 41.3125 65.921875 37.59375 65.921875 
Q 27.828125 65.921875 22.671875 59.328125 
Q 17.53125 52.734375 16.796875 39.40625 
Q 19.671875 43.65625 24.015625 45.921875 
Q 28.375 48.1875 33.59375 48.1875 
Q 44.578125 48.1875 50.953125 41.515625 
Q 57.328125 34.859375 57.328125 23.390625 
Q 57.328125 12.15625 50.6875 5.359375 
Q 44.046875 -1.421875 33.015625 -1.421875 
Q 20.359375 -1.421875 13.671875 8.265625 
Q 6.984375 17.96875 6.984375 36.375 
Q 6.984375 53.65625 15.1875 63.9375 
Q 23.390625 74.21875 37.203125 74.21875 
Q 40.921875 74.21875 44.703125 73.484375 
Q 48.484375 72.75 52.59375 71.296875 
z
" id="DejaVuSans-36"/>
      </defs>
      <g transform="translate(483.099269 392.598437)scale(0.1 -0.1)">
       <use xlink:href="#DejaVuSans-36"/>
      </g>
     </g>
    </g>
    <g id="xtick_6">
     <g id="line2d_6">
      <g>
       <use style="stroke:#000000;stroke-width:0.8;" x="573.241558" xlink:href="#m54a37ba4bb" y="378"/>
      </g>
     </g>
     <g id="text_6">
      <!-- 8 -->
      <defs>
       <path d="M 31.78125 34.625 
Q 24.75 34.625 20.71875 30.859375 
Q 16.703125 27.09375 16.703125 20.515625 
Q 16.703125 13.921875 20.71875 10.15625 
Q 24.75 6.390625 31.78125 6.390625 
Q 38.8125 6.390625 42.859375 10.171875 
Q 46.921875 13.96875 46.921875 20.515625 
Q 46.921875 27.09375 42.890625 30.859375 
Q 38.875 34.625 31.78125 34.625 
z
M 21.921875 38.8125 
Q 15.578125 40.375 12.03125 44.71875 
Q 8.5 49.078125 8.5 55.328125 
Q 8.5 64.0625 14.71875 69.140625 
Q 20.953125 74.21875 31.78125 74.21875 
Q 42.671875 74.21875 48.875 69.140625 
Q 55.078125 64.0625 55.078125 55.328125 
Q 55.078125 49.078125 51.53125 44.71875 
Q 48 40.375 41.703125 38.8125 
Q 48.828125 37.15625 52.796875 32.3125 
Q 56.78125 27.484375 56.78125 20.515625 
Q 56.78125 9.90625 50.3125 4.234375 
Q 43.84375 -1.421875 31.78125 -1.421875 
Q 19.734375 -1.421875 13.25 4.234375 
Q 6.78125 9.90625 6.78125 20.515625 
Q 6.78125 27.484375 10.78125 32.3125 
Q 14.796875 37.15625 21.921875 38.8125 
z
M 18.3125 54.390625 
Q 18.3125 48.734375 21.84375 45.5625 
Q 25.390625 42.390625 31.78125 42.390625 
Q 38.140625 42.390625 41.71875 45.5625 
Q 45.3125 48.734375 45.3125 54.390625 
Q 45.3125 60.0625 41.71875 63.234375 
Q 38.140625 66.40625 31.78125 66.40625 
Q 25.390625 66.40625 21.84375 63.234375 
Q 18.3125 60.0625 18.3125 54.390625 
z
" id="DejaVuSans-38"/>
      </defs>
      <g transform="translate(570.060308 392.598437)scale(0.1 -0.1)">
       <use xlink:href="#DejaVuSans-38"/>
      </g>
     </g>
    </g>
    <g id="xtick_7">
     <g id="line2d_7">
      <g>
       <use style="stroke:#000000;stroke-width:0.8;" x="660.202597" xlink:href="#m54a37ba4bb" y="378"/>
      </g>
     </g>
     <g id="text_7">
      <!-- 10 -->
      <defs>
       <path d="M 12.40625 8.296875 
L 28.515625 8.296875 
L 28.515625 63.921875 
L 10.984375 60.40625 
L 10.984375 69.390625 
L 28.421875 72.90625 
L 38.28125 72.90625 
L 38.28125 8.296875 
L 54.390625 8.296875 
L 54.390625 0 
L 12.40625 0 
z
" id="DejaVuSans-31"/>
      </defs>
      <g transform="translate(653.840097 392.598437)scale(0.1 -0.1)">
       <use xlink:href="#DejaVuSans-31"/>
       <use x="63.623047" xlink:href="#DejaVuSans-30"/>
      </g>
     </g>
    </g>
    <g id="xtick_8">
     <g id="line2d_8">
      <g>
       <use style="stroke:#000000;stroke-width:0.8;" x="747.163636" xlink:href="#m54a37ba4bb" y="378"/>
      </g>
     </g>
     <g id="text_8">
      <!-- 12 -->
      <g transform="translate(740.801136 392.598437)scale(0.1 -0.1)">
       <use xlink:href="#DejaVuSans-31"/>
       <use x="63.623047" xlink:href="#DejaVuSans-32"/>
      </g>
     </g>
    </g>
    <g id="text_9">
     <!-- $x$ -->
     <defs>
      <path d="M 60.015625 54.6875 
L 34.90625 27.875 
L 50.296875 0 
L 39.984375 0 
L 28.421875 21.6875 
L 8.296875 0 
L -2.59375 0 
L 24.3125 28.8125 
L 10.015625 54.6875 
L 20.3125 54.6875 
L 30.8125 34.90625 
L 49.125 54.6875 
z
" id="DejaVuSans-Oblique-78"/>
     </defs>
     <g transform="translate(436.8 413.875)scale(0.2 -0.2)">
      <use transform="translate(0 0.3125)" xlink:href="#DejaVuSans-Oblique-78"/>
     </g>
    </g>
   </g>
   <g id="matplotlib.axis_2">
    <g id="ytick_1">
     <g id="line2d_9">
      <defs>
       <path d="M 0 0 
L -3.5 0 
" id="m4642909f10" style="stroke:#000000;stroke-width:0.8;"/>
      </defs>
      <g>
       <use style="stroke:#000000;stroke-width:0.8;" x="108" xlink:href="#m4642909f10" y="347.844697"/>
      </g>
     </g>
     <g id="text_10">
      <!-- −3 -->
      <defs>
       <path d="M 40.578125 39.3125 
Q 47.65625 37.796875 51.625 33 
Q 55.609375 28.21875 55.609375 21.1875 
Q 55.609375 10.40625 48.1875 4.484375 
Q 40.765625 -1.421875 27.09375 -1.421875 
Q 22.515625 -1.421875 17.65625 -0.515625 
Q 12.796875 0.390625 7.625 2.203125 
L 7.625 11.71875 
Q 11.71875 9.328125 16.59375 8.109375 
Q 21.484375 6.890625 26.8125 6.890625 
Q 36.078125 6.890625 40.9375 10.546875 
Q 45.796875 14.203125 45.796875 21.1875 
Q 45.796875 27.640625 41.28125 31.265625 
Q 36.765625 34.90625 28.71875 34.90625 
L 20.21875 34.90625 
L 20.21875 43.015625 
L 29.109375 43.015625 
Q 36.375 43.015625 40.234375 45.921875 
Q 44.09375 48.828125 44.09375 54.296875 
Q 44.09375 59.90625 40.109375 62.90625 
Q 36.140625 65.921875 28.71875 65.921875 
Q 24.65625 65.921875 20.015625 65.03125 
Q 15.375 64.15625 9.8125 62.3125 
L 9.8125 71.09375 
Q 15.4375 72.65625 20.34375 73.4375 
Q 25.25 74.21875 29.59375 74.21875 
Q 40.828125 74.21875 47.359375 69.109375 
Q 53.90625 64.015625 53.90625 55.328125 
Q 53.90625 49.265625 50.4375 45.09375 
Q 46.96875 40.921875 40.578125 39.3125 
z
" id="DejaVuSans-33"/>
      </defs>
      <g transform="translate(86.257812 351.643916)scale(0.1 -0.1)">
       <use xlink:href="#DejaVuSans-2212"/>
       <use x="83.789062" xlink:href="#DejaVuSans-33"/>
      </g>
     </g>
    </g>
    <g id="ytick_2">
     <g id="line2d_10">
      <g>
       <use style="stroke:#000000;stroke-width:0.8;" x="108" xlink:href="#m4642909f10" y="289.049127"/>
      </g>
     </g>
     <g id="text_11">
      <!-- −2 -->
      <g transform="translate(86.257812 292.848346)scale(0.1 -0.1)">
       <use xlink:href="#DejaVuSans-2212"/>
       <use x="83.789062" xlink:href="#DejaVuSans-32"/>
      </g>
     </g>
    </g>
    <g id="ytick_3">
     <g id="line2d_11">
      <g>
       <use style="stroke:#000000;stroke-width:0.8;" x="108" xlink:href="#m4642909f10" y="230.253557"/>
      </g>
     </g>
     <g id="text_12">
      <!-- −1 -->
      <g transform="translate(86.257812 234.052776)scale(0.1 -0.1)">
       <use xlink:href="#DejaVuSans-2212"/>
       <use x="83.789062" xlink:href="#DejaVuSans-31"/>
      </g>
     </g>
    </g>
    <g id="ytick_4">
     <g id="line2d_12">
      <g>
       <use style="stroke:#000000;stroke-width:0.8;" x="108" xlink:href="#m4642909f10" y="171.457987"/>
      </g>
     </g>
     <g id="text_13">
      <!-- 0 -->
      <g transform="translate(94.6375 175.257205)scale(0.1 -0.1)">
       <use xlink:href="#DejaVuSans-30"/>
      </g>
     </g>
    </g>
    <g id="ytick_5">
     <g id="line2d_13">
      <g>
       <use style="stroke:#000000;stroke-width:0.8;" x="108" xlink:href="#m4642909f10" y="112.662416"/>
      </g>
     </g>
     <g id="text_14">
      <!-- 1 -->
      <g transform="translate(94.6375 116.461635)scale(0.1 -0.1)">
       <use xlink:href="#DejaVuSans-31"/>
      </g>
     </g>
    </g>
    <g id="ytick_6">
     <g id="line2d_14">
      <g>
       <use style="stroke:#000000;stroke-width:0.8;" x="108" xlink:href="#m4642909f10" y="53.866846"/>
      </g>
     </g>
     <g id="text_15">
      <!-- 2 -->
      <g transform="translate(94.6375 57.666065)scale(0.1 -0.1)">
       <use xlink:href="#DejaVuSans-32"/>
      </g>
     </g>
    </g>
    <g id="text_16">
     <!-- $y$ -->
     <defs>
      <path d="M 24.8125 -5.078125 
Q 18.5625 -15.578125 14.625 -18.1875 
Q 10.6875 -20.796875 4.59375 -20.796875 
L -2.484375 -20.796875 
L -0.984375 -13.28125 
L 4.203125 -13.28125 
Q 7.953125 -13.28125 10.59375 -11.234375 
Q 13.234375 -9.1875 16.5 -3.21875 
L 19.28125 2 
L 7.171875 54.6875 
L 16.703125 54.6875 
L 25.78125 12.796875 
L 50.875 54.6875 
L 60.296875 54.6875 
z
" id="DejaVuSans-Oblique-79"/>
     </defs>
     <g transform="translate(78.057812 220.92)rotate(-90)scale(0.2 -0.2)">
      <use transform="translate(0 0.3125)" xlink:href="#DejaVuSans-Oblique-79"/>
     </g>
    </g>
   </g>
   <g id="line2d_15">
    <defs>
     <path d="M 0 2.5 
C 0.663008 2.5 1.29895 2.236584 1.767767 1.767767 
C 2.236584 1.29895 2.5 0.663008 2.5 0 
C 2.5 -0.663008 2.236584 -1.29895 1.767767 -1.767767 
C 1.29895 -2.236584 0.663008 -2.5 0 -2.5 
C -0.663008 -2.5 -1.29895 -2.236584 -1.767767 -1.767767 
C -2.236584 -1.29895 -2.5 -0.663008 -2.5 0 
C -2.5 0.663008 -2.236584 1.29895 -1.767767 1.767767 
C -1.29895 2.236584 -0.663008 2.5 0 2.5 
z
" id="m8ef4240f0d" style="stroke:#ff0000;"/>
    </defs>
    <g clip-path="url(#p004c464f3c)">
     <use style="fill:#ff0000;stroke:#ff0000;" x="225.397403" xlink:href="#m8ef4240f0d" y="269.362158"/>
     <use style="fill:#ff0000;stroke:#ff0000;" x="230.832468" xlink:href="#m8ef4240f0d" y="268.265655"/>
     <use style="fill:#ff0000;stroke:#ff0000;" x="236.267532" xlink:href="#m8ef4240f0d" y="249.70435"/>
     <use style="fill:#ff0000;stroke:#ff0000;" x="241.702597" xlink:href="#m8ef4240f0d" y="257.728058"/>
     <use style="fill:#ff0000;stroke:#ff0000;" x="247.137662" xlink:href="#m8ef4240f0d" y="251.63509"/>
     <use style="fill:#ff0000;stroke:#ff0000;" x="252.572727" xlink:href="#m8ef4240f0d" y="251.619536"/>
     <use style="fill:#ff0000;stroke:#ff0000;" x="258.007792" xlink:href="#m8ef4240f0d" y="271.225686"/>
     <use style="fill:#ff0000;stroke:#ff0000;" x="263.442857" xlink:href="#m8ef4240f0d" y="288.672909"/>
     <use style="fill:#ff0000;stroke:#ff0000;" x="268.877922" xlink:href="#m8ef4240f0d" y="253.193816"/>
     <use style="fill:#ff0000;stroke:#ff0000;" x="274.312987" xlink:href="#m8ef4240f0d" y="255.06835"/>
     <use style="fill:#ff0000;stroke:#ff0000;" x="279.748052" xlink:href="#m8ef4240f0d" y="278.076366"/>
     <use style="fill:#ff0000;stroke:#ff0000;" x="285.183117" xlink:href="#m8ef4240f0d" y="277.506227"/>
     <use style="fill:#ff0000;stroke:#ff0000;" x="290.618182" xlink:href="#m8ef4240f0d" y="327.314785"/>
     <use style="fill:#ff0000;stroke:#ff0000;" x="296.053247" xlink:href="#m8ef4240f0d" y="349.701219"/>
     <use style="fill:#ff0000;stroke:#ff0000;" x="301.488312" xlink:href="#m8ef4240f0d" y="340.43842"/>
     <use style="fill:#ff0000;stroke:#ff0000;" x="306.923377" xlink:href="#m8ef4240f0d" y="294.3865"/>
     <use style="fill:#ff0000;stroke:#ff0000;" x="312.358442" xlink:href="#m8ef4240f0d" y="302.158933"/>
     <use style="fill:#ff0000;stroke:#ff0000;" x="317.793506" xlink:href="#m8ef4240f0d" y="289.168648"/>
     <use style="fill:#ff0000;stroke:#ff0000;" x="323.228571" xlink:href="#m8ef4240f0d" y="249.716095"/>
     <use style="fill:#ff0000;stroke:#ff0000;" x="328.663636" xlink:href="#m8ef4240f0d" y="321.921237"/>
     <use style="fill:#ff0000;stroke:#ff0000;" x="334.098701" xlink:href="#m8ef4240f0d" y="289.354782"/>
     <use style="fill:#ff0000;stroke:#ff0000;" x="339.533766" xlink:href="#m8ef4240f0d" y="266.096826"/>
     <use style="fill:#ff0000;stroke:#ff0000;" x="344.968831" xlink:href="#m8ef4240f0d" y="259.193073"/>
     <use style="fill:#ff0000;stroke:#ff0000;" x="350.403896" xlink:href="#m8ef4240f0d" y="267.262984"/>
     <use style="fill:#ff0000;stroke:#ff0000;" x="355.838961" xlink:href="#m8ef4240f0d" y="264.571627"/>
     <use style="fill:#ff0000;stroke:#ff0000;" x="529.761039" xlink:href="#m8ef4240f0d" y="283.990624"/>
     <use style="fill:#ff0000;stroke:#ff0000;" x="535.196104" xlink:href="#m8ef4240f0d" y="272.743238"/>
     <use style="fill:#ff0000;stroke:#ff0000;" x="540.631169" xlink:href="#m8ef4240f0d" y="280.768911"/>
     <use style="fill:#ff0000;stroke:#ff0000;" x="546.066234" xlink:href="#m8ef4240f0d" y="284.211031"/>
     <use style="fill:#ff0000;stroke:#ff0000;" x="551.501299" xlink:href="#m8ef4240f0d" y="287.616976"/>
     <use style="fill:#ff0000;stroke:#ff0000;" x="556.936364" xlink:href="#m8ef4240f0d" y="257.754818"/>
     <use style="fill:#ff0000;stroke:#ff0000;" x="562.371429" xlink:href="#m8ef4240f0d" y="257.818567"/>
     <use style="fill:#ff0000;stroke:#ff0000;" x="567.806494" xlink:href="#m8ef4240f0d" y="289.237444"/>
     <use style="fill:#ff0000;stroke:#ff0000;" x="573.241558" xlink:href="#m8ef4240f0d" y="254.597734"/>
     <use style="fill:#ff0000;stroke:#ff0000;" x="578.676623" xlink:href="#m8ef4240f0d" y="289.370588"/>
     <use style="fill:#ff0000;stroke:#ff0000;" x="584.111688" xlink:href="#m8ef4240f0d" y="242.369923"/>
     <use style="fill:#ff0000;stroke:#ff0000;" x="589.546753" xlink:href="#m8ef4240f0d" y="271.227673"/>
     <use style="fill:#ff0000;stroke:#ff0000;" x="594.981818" xlink:href="#m8ef4240f0d" y="220.950356"/>
     <use style="fill:#ff0000;stroke:#ff0000;" x="600.416883" xlink:href="#m8ef4240f0d" y="229.304475"/>
     <use style="fill:#ff0000;stroke:#ff0000;" x="605.851948" xlink:href="#m8ef4240f0d" y="214.90351"/>
     <use style="fill:#ff0000;stroke:#ff0000;" x="611.287013" xlink:href="#m8ef4240f0d" y="224.862071"/>
     <use style="fill:#ff0000;stroke:#ff0000;" x="616.722078" xlink:href="#m8ef4240f0d" y="234.841941"/>
     <use style="fill:#ff0000;stroke:#ff0000;" x="622.157143" xlink:href="#m8ef4240f0d" y="221.051874"/>
     <use style="fill:#ff0000;stroke:#ff0000;" x="627.592208" xlink:href="#m8ef4240f0d" y="197.124322"/>
     <use style="fill:#ff0000;stroke:#ff0000;" x="633.027273" xlink:href="#m8ef4240f0d" y="201.697747"/>
     <use style="fill:#ff0000;stroke:#ff0000;" x="638.462338" xlink:href="#m8ef4240f0d" y="170.501527"/>
     <use style="fill:#ff0000;stroke:#ff0000;" x="643.897403" xlink:href="#m8ef4240f0d" y="204.880837"/>
     <use style="fill:#ff0000;stroke:#ff0000;" x="649.332468" xlink:href="#m8ef4240f0d" y="206.446822"/>
     <use style="fill:#ff0000;stroke:#ff0000;" x="654.767532" xlink:href="#m8ef4240f0d" y="211.551759"/>
     <use style="fill:#ff0000;stroke:#ff0000;" x="660.202597" xlink:href="#m8ef4240f0d" y="204.33735"/>
    </g>
   </g>
   <g id="line2d_16">
    <path clip-path="url(#p004c464f3c)" d="M 138.436364 226.773209 
L 144.554226 230.265242 
L 150.672088 233.408803 
L 156.78995 236.15262 
L 162.907812 238.466581 
L 169.025674 240.345945 
L 175.143536 241.814246 
L 181.261398 242.924475 
L 187.37926 243.758216 
L 208.791777 246.205755 
L 214.909639 247.338788 
L 217.96857 248.062778 
L 221.027501 248.911105 
L 224.086432 249.896126 
L 227.145363 251.028095 
L 230.204294 252.31488 
L 233.263225 253.7617 
L 236.322156 255.370914 
L 239.381087 257.141845 
L 242.440018 259.070648 
L 245.498949 261.150239 
L 251.616811 265.717167 
L 257.734673 270.72172 
L 266.911466 278.669858 
L 273.029328 283.947762 
L 279.14719 288.92325 
L 282.206122 291.217242 
L 285.265053 293.339357 
L 288.323984 295.258495 
L 291.382915 296.944865 
L 294.441846 298.370451 
L 297.500777 299.50944 
L 300.559708 300.338629 
L 303.618639 300.83779 
L 306.67757 300.989986 
L 309.736501 300.781848 
L 312.795432 300.203785 
L 315.854363 299.25015 
L 318.913294 297.919329 
L 321.972225 296.21379 
L 325.031156 294.140051 
L 328.090087 291.708608 
L 331.149018 288.933789 
L 334.207949 285.833567 
L 337.26688 282.429318 
L 340.325811 278.745536 
L 343.384742 274.809513 
L 346.443673 270.650979 
L 352.561535 261.795223 
L 358.679397 252.45014 
L 373.974052 228.818011 
L 380.091914 219.982731 
L 383.150845 215.823407 
L 386.209776 211.872804 
L 389.268707 208.155499 
L 392.327638 204.693657 
L 395.386569 201.506931 
L 398.4455 198.6124 
L 401.504431 196.024535 
L 404.563362 193.755207 
L 407.622293 191.813707 
L 410.681224 190.206803 
L 413.740155 188.938815 
L 416.799086 188.011702 
L 419.858017 187.425171 
L 422.916948 187.176791 
L 425.975879 187.262119 
L 429.03481 187.674821 
L 432.093741 188.406806 
L 435.152672 189.448352 
L 438.211603 190.788225 
L 441.270534 192.413798 
L 444.329466 194.311165 
L 447.388397 196.465244 
L 450.447328 198.859867 
L 453.506259 201.477878 
L 456.56519 204.301204 
L 459.624121 207.310938 
L 465.741983 213.810209 
L 471.859845 220.810194 
L 481.036638 231.86471 
L 493.272362 246.672299 
L 499.390224 253.682763 
L 505.508086 260.183987 
L 508.567017 263.188186 
L 511.625948 266.000026 
L 514.684879 268.599676 
L 517.74381 270.968502 
L 520.802741 273.089244 
L 523.861672 274.946201 
L 526.920603 276.525403 
L 529.979534 277.814779 
L 533.038465 278.804317 
L 536.097396 279.486211 
L 539.156327 279.854983 
L 542.215258 279.907598 
L 545.274189 279.643545 
L 548.33312 279.064899 
L 551.392051 278.176352 
L 554.450982 276.985216 
L 557.509913 275.501392 
L 560.568844 273.737314 
L 563.627775 271.707845 
L 566.686706 269.430163 
L 569.745637 266.923592 
L 572.804568 264.20942 
L 575.863499 261.31068 
L 581.981361 255.058872 
L 588.099223 248.377568 
L 603.393878 231.235816 
L 609.511741 224.759616 
L 615.629603 218.78111 
L 618.688534 216.025826 
L 621.747465 213.447293 
L 624.806396 211.058033 
L 627.865327 208.867999 
L 630.924258 206.884511 
L 633.983189 205.112243 
L 637.04212 203.553231 
L 640.101051 202.206929 
L 643.159982 201.0703 
L 646.218913 200.137932 
L 649.277844 199.402195 
L 652.336775 198.853415 
L 655.395706 198.480083 
L 658.454637 198.269071 
L 661.513568 198.205877 
L 664.572499 198.274872 
L 670.690361 198.742825 
L 676.808223 199.535174 
L 689.043947 201.541357 
L 698.22074 202.920882 
L 704.338602 203.587994 
L 710.456464 203.967062 
L 716.574326 204.010893 
L 722.692188 203.695715 
L 728.81005 203.0196 
L 734.927912 201.999842 
L 741.045774 200.669576 
L 747.163636 199.073943 
L 747.163636 199.073943 
" style="fill:none;stroke:#3300ff;stroke-linecap:square;stroke-width:2;"/>
   </g>
   <g id="line2d_17">
    <path clip-path="url(#p004c464f3c)" d="M 138.436364 97.59498 
L 147.613157 110.926212 
L 169.025674 142.584618 
L 175.143536 151.264966 
L 181.261398 159.594789 
L 187.37926 167.491188 
L 193.497122 174.887579 
L 199.614984 181.73583 
L 205.732846 188.009685 
L 211.850708 193.711357 
L 217.96857 198.881847 
L 224.086432 203.611664 
L 233.263225 210.203246 
L 242.440018 216.737665 
L 248.55788 221.331484 
L 254.675742 226.213835 
L 260.793604 231.368635 
L 276.088259 244.53772 
L 282.206122 249.311767 
L 285.265053 251.455236 
L 288.323984 253.390079 
L 291.382915 255.083879 
L 294.441846 256.507036 
L 297.500777 257.633433 
L 300.559708 258.440921 
L 303.618639 258.911586 
L 306.67757 259.031803 
L 309.736501 258.792065 
L 312.795432 258.186608 
L 315.854363 257.212847 
L 318.913294 255.870669 
L 321.972225 254.161614 
L 325.031156 252.087989 
L 328.090087 249.651994 
L 331.149018 246.854908 
L 334.207949 243.696442 
L 337.26688 240.174366 
L 340.325811 236.284533 
L 343.384742 232.021418 
L 346.443673 227.379242 
L 349.502604 222.35369 
L 352.561535 216.944055 
L 355.620466 211.155549 
L 358.679397 205.001383 
L 361.738328 198.504225 
L 367.85619 184.62143 
L 373.974052 169.877013 
L 386.209776 139.750656 
L 392.327638 125.405769 
L 395.386569 118.62831 
L 398.4455 112.187695 
L 401.504431 106.133928 
L 404.563362 100.512567 
L 407.622293 95.364561 
L 410.681224 90.72614 
L 413.740155 86.628772 
L 416.799086 83.099155 
L 419.858017 80.159246 
L 422.916948 77.826316 
L 425.975879 76.113026 
L 429.03481 75.027522 
L 432.093741 74.573534 
L 435.152672 74.75049 
L 438.211603 75.553629 
L 441.270534 76.974114 
L 444.329466 78.999151 
L 447.388397 81.612099 
L 450.447328 84.792578 
L 453.506259 88.51658 
L 456.56519 92.756571 
L 459.624121 97.4816 
L 462.683052 102.657403 
L 465.741983 108.246516 
L 468.800914 114.208398 
L 471.859845 120.499553 
L 477.977707 133.881846 
L 484.095569 147.99246 
L 496.331293 176.626497 
L 502.449155 190.210837 
L 505.508086 196.612468 
L 508.567017 202.677974 
L 511.625948 208.354385 
L 514.684879 213.593437 
L 517.74381 218.353101 
L 520.802741 222.59913 
L 523.861672 226.306455 
L 526.920603 229.460204 
L 529.979534 232.05611 
L 533.038465 234.100186 
L 536.097396 235.607626 
L 539.156327 236.601089 
L 542.215258 237.108629 
L 545.274189 237.16157 
L 548.33312 236.792604 
L 551.392051 236.034294 
L 554.450982 234.918044 
L 557.509913 233.473526 
L 560.568844 231.728501 
L 563.627775 229.708924 
L 566.686706 227.439251 
L 569.745637 224.942868 
L 572.804568 222.242555 
L 575.863499 219.360963 
L 581.981361 213.146314 
L 588.099223 206.491302 
L 606.45281 186.009999 
L 612.570672 179.73704 
L 615.629603 176.814886 
L 618.688534 174.060399 
L 621.747465 171.487545 
L 624.806396 169.105948 
L 627.865327 166.920422 
L 630.924258 164.930585 
L 633.983189 163.130569 
L 637.04212 161.508872 
L 640.101051 160.048367 
L 646.218913 157.515914 
L 655.395706 154.221132 
L 661.513568 151.945318 
L 664.572499 150.679126 
L 667.63143 149.287971 
L 670.690361 147.748236 
L 673.749292 146.041723 
L 676.808223 144.155729 
L 679.867154 142.082784 
L 682.926085 139.820177 
L 685.985016 137.369363 
L 689.043947 134.735338 
L 692.102878 131.92605 
L 698.22074 125.82513 
L 704.338602 119.170868 
L 710.456464 112.0878 
L 719.633257 100.957816 
L 734.927912 82.209021 
L 741.045774 75.009688 
L 747.163636 68.140319 
L 747.163636 68.140319 
" style="fill:none;stroke:#3300ff;stroke-linecap:square;stroke-width:0.2;"/>
   </g>
   <g id="line2d_18">
    <path clip-path="url(#p004c464f3c)" d="M 138.436364 355.951437 
L 141.495295 355.136724 
L 144.554226 354.101271 
L 147.613157 352.842239 
L 150.672088 351.359347 
L 153.731019 349.655057 
L 156.78995 347.734728 
L 159.848881 345.606732 
L 162.907812 343.282547 
L 165.966743 340.7768 
L 172.084605 335.294867 
L 178.202467 329.340098 
L 193.497122 313.957503 
L 196.556053 311.078218 
L 199.614984 308.353458 
L 202.673915 305.821432 
L 205.732846 303.51905 
L 208.791777 301.48098 
L 211.850708 299.738611 
L 214.909639 298.318976 
L 217.96857 297.24371 
L 221.027501 296.528136 
L 224.086432 296.180588 
L 227.145363 296.202067 
L 230.204294 296.586295 
L 233.263225 297.320154 
L 236.322156 298.384469 
L 239.381087 299.755018 
L 242.440018 301.403631 
L 245.498949 303.299282 
L 248.55788 305.409058 
L 251.616811 307.698972 
L 257.734673 312.68154 
L 276.088259 328.440926 
L 282.206122 333.122716 
L 285.265053 335.223478 
L 288.323984 337.12691 
L 291.382915 338.805851 
L 294.441846 340.233866 
L 297.500777 341.385447 
L 300.559708 342.236337 
L 303.618639 342.763993 
L 306.67757 342.948169 
L 309.736501 342.77163 
L 312.795432 342.220963 
L 315.854363 341.287453 
L 318.913294 339.967989 
L 321.972225 338.265965 
L 325.031156 336.192113 
L 328.090087 333.765222 
L 331.149018 331.01267 
L 334.207949 327.970692 
L 337.26688 324.68427 
L 343.384742 317.597608 
L 352.561535 306.646392 
L 355.620466 303.176799 
L 358.679397 299.898898 
L 361.738328 296.861999 
L 364.797259 294.105438 
L 367.85619 291.658182 
L 370.915121 289.539297 
L 373.974052 287.759008 
L 377.032983 286.320058 
L 380.091914 285.219113 
L 383.150845 284.448034 
L 386.209776 283.994951 
L 389.268707 283.845113 
L 392.327638 283.981546 
L 395.386569 284.385553 
L 398.4455 285.037104 
L 401.504431 285.915142 
L 404.563362 286.997846 
L 407.622293 288.262853 
L 410.681224 289.687467 
L 416.799086 292.924249 
L 422.916948 296.527267 
L 444.329466 309.62318 
L 450.447328 312.927156 
L 456.56519 315.845837 
L 462.683052 318.317397 
L 465.741983 319.373902 
L 468.800914 320.308285 
L 471.859845 321.120835 
L 474.918776 321.813614 
L 481.036638 322.85677 
L 487.1545 323.488167 
L 493.272362 323.782856 
L 499.390224 323.836151 
L 536.097396 323.364796 
L 539.156327 323.108877 
L 542.215258 322.706566 
L 545.274189 322.125519 
L 548.33312 321.337193 
L 551.392051 320.318409 
L 554.450982 319.052387 
L 557.509913 317.529259 
L 560.568844 315.746126 
L 563.627775 313.706767 
L 566.686706 311.421075 
L 569.745637 308.904317 
L 572.804568 306.176286 
L 575.863499 303.260398 
L 581.981361 296.971431 
L 588.099223 290.263834 
L 603.393878 273.155482 
L 609.511741 266.710151 
L 615.629603 260.747335 
L 618.688534 257.991253 
L 621.747465 255.407041 
L 624.806396 253.010119 
L 627.865327 250.815575 
L 630.924258 248.838438 
L 633.983189 247.093917 
L 637.04212 245.597589 
L 640.101051 244.365491 
L 643.159982 243.41407 
L 646.218913 242.75995 
L 649.277844 242.419477 
L 652.336775 242.408016 
L 655.395706 242.739034 
L 658.454637 243.423031 
L 661.513568 244.466437 
L 664.572499 245.870618 
L 667.63143 247.631144 
L 670.690361 249.737414 
L 673.749292 252.172709 
L 676.808223 254.914619 
L 679.867154 257.935793 
L 682.926085 261.20487 
L 685.985016 264.687503 
L 692.102878 272.14714 
L 701.279671 284.013381 
L 710.456464 295.846323 
L 716.574326 303.309937 
L 722.692188 310.208412 
L 725.751119 313.399683 
L 728.81005 316.400279 
L 731.868981 319.199801 
L 734.927912 321.790663 
L 737.986843 324.167985 
L 741.045774 326.329463 
L 744.104705 328.275207 
L 747.163636 330.007566 
L 747.163636 330.007566 
" style="fill:none;stroke:#3300ff;stroke-linecap:square;stroke-width:0.2;"/>
   </g>
   <g id="line2d_19">
    <path clip-path="url(#p004c464f3c)" d="M 580.372524 378 
L 539.255807 378 
L 625.375354 378 
L 343.802152 378 
L 299.113876 378 
L 225.645729 378 
L 656.129261 378 
L 253.830264 378 
" style="fill:none;stroke:#1f77b4;stroke-linecap:square;stroke-width:1.5;"/>
    <defs>
     <path d="M 0 -10 
L -10 10 
L 10 10 
z
" id="mb377deb2d3" style="stroke:#1f77b4;stroke-linejoin:miter;"/>
    </defs>
    <g clip-path="url(#p004c464f3c)">
     <use style="fill:#1f77b4;stroke:#1f77b4;stroke-linejoin:miter;" x="580.372524" xlink:href="#mb377deb2d3" y="378"/>
     <use style="fill:#1f77b4;stroke:#1f77b4;stroke-linejoin:miter;" x="539.255807" xlink:href="#mb377deb2d3" y="378"/>
     <use style="fill:#1f77b4;stroke:#1f77b4;stroke-linejoin:miter;" x="625.375354" xlink:href="#mb377deb2d3" y="378"/>
     <use style="fill:#1f77b4;stroke:#1f77b4;stroke-linejoin:miter;" x="343.802152" xlink:href="#mb377deb2d3" y="378"/>
     <use style="fill:#1f77b4;stroke:#1f77b4;stroke-linejoin:miter;" x="299.113876" xlink:href="#mb377deb2d3" y="378"/>
     <use style="fill:#1f77b4;stroke:#1f77b4;stroke-linejoin:miter;" x="225.645729" xlink:href="#mb377deb2d3" y="378"/>
     <use style="fill:#1f77b4;stroke:#1f77b4;stroke-linejoin:miter;" x="656.129261" xlink:href="#mb377deb2d3" y="378"/>
     <use style="fill:#1f77b4;stroke:#1f77b4;stroke-linejoin:miter;" x="253.830264" xlink:href="#mb377deb2d3" y="378"/>
    </g>
   </g>
   <g id="patch_4">
    <path d="M 108 378 
L 108 51.84 
" style="fill:none;stroke:#000000;stroke-linecap:square;stroke-linejoin:miter;stroke-width:0.8;"/>
   </g>
   <g id="patch_5">
    <path d="M 777.6 378 
L 777.6 51.84 
" style="fill:none;stroke:#000000;stroke-linecap:square;stroke-linejoin:miter;stroke-width:0.8;"/>
   </g>
   <g id="patch_6">
    <path d="M 108 378 
L 777.6 378 
" style="fill:none;stroke:#000000;stroke-linecap:square;stroke-linejoin:miter;stroke-width:0.8;"/>
   </g>
   <g id="patch_7">
    <path d="M 108 51.84 
L 777.6 51.84 
" style="fill:none;stroke:#000000;stroke-linecap:square;stroke-linejoin:miter;stroke-width:0.8;"/>
   </g>
  </g>
 </g>
 <defs>
  <clipPath id="p004c464f3c">
   <rect height="326.16" width="669.6" x="108" y="51.84"/>
  </clipPath>
 </defs>
</svg>
