<?xml version="1.0" encoding="utf-8" standalone="no"?>
<!DOCTYPE svg PUBLIC "-//W3C//DTD SVG 1.1//EN"
  "http://www.w3.org/Graphics/SVG/1.1/DTD/svg11.dtd">
<!-- Created with matplotlib (http://matplotlib.org/) -->
<svg height="432pt" version="1.1" viewBox="0 0 720 432" width="720pt" xmlns="http://www.w3.org/2000/svg" xmlns:xlink="http://www.w3.org/1999/xlink">
 <defs>
  <style type="text/css">
*{stroke-linecap:butt;stroke-linejoin:round;}
  </style>
 </defs>
 <g id="figure_1">
  <g id="patch_1">
   <path d="M 0 432 
L 720 432 
L 720 0 
L 0 0 
z
" style="fill:none;"/>
  </g>
  <g id="axes_1">
   <g id="patch_2">
    <path d="M 90 378 
L 648 378 
L 648 51.84 
L 90 51.84 
z
" style="fill:none;"/>
   </g>
   <g id="patch_3">
    <path clip-path="url(#pc25be0a2c3)" d="M 90 163.623951 
L 92.80402 165.658065 
L 95.60804 167.669659 
L 98.41206 169.657848 
L 101.21608 171.62179 
L 104.020101 173.560688 
L 106.824121 175.473797 
L 109.628141 177.360423 
L 112.432161 179.219926 
L 115.236181 181.051728 
L 118.040201 182.855309 
L 120.844221 184.630215 
L 123.648241 186.376056 
L 126.452261 188.09251 
L 129.256281 189.779322 
L 132.060302 191.436308 
L 134.864322 193.063353 
L 137.668342 194.660413 
L 140.472362 196.22751 
L 143.276382 197.764736 
L 146.080402 199.272247 
L 148.884422 200.750263 
L 151.688442 202.199066 
L 154.492462 203.61899 
L 157.296482 205.010427 
L 160.100503 206.373815 
L 162.904523 207.709634 
L 165.708543 209.018405 
L 168.512563 210.300681 
L 171.316583 211.557042 
L 174.120603 212.788089 
L 176.924623 213.994441 
L 179.728643 215.176725 
L 182.532663 216.335573 
L 185.336683 217.471618 
L 188.140704 218.585486 
L 190.944724 219.67779 
L 193.748744 220.74913 
L 196.552764 221.800086 
L 199.356784 222.831214 
L 202.160804 223.843042 
L 204.964824 224.836071 
L 207.768844 225.810766 
L 210.572864 226.767559 
L 213.376884 227.706847 
L 216.180905 228.628986 
L 218.984925 229.534297 
L 221.788945 230.423058 
L 224.592965 231.295512 
L 227.396985 232.151858 
L 230.201005 232.992259 
L 233.005025 233.816839 
L 235.809045 234.625683 
L 238.613065 235.418841 
L 241.417085 236.196328 
L 244.221106 236.958122 
L 247.025126 237.704172 
L 249.829146 238.434393 
L 252.633166 239.148672 
L 255.437186 239.846867 
L 258.241206 240.52881 
L 261.045226 241.19431 
L 263.849246 241.843149 
L 266.653266 242.475092 
L 269.457286 243.089881 
L 272.261307 243.687241 
L 275.065327 244.266879 
L 277.869347 244.828487 
L 280.673367 245.371742 
L 283.477387 245.896309 
L 286.281407 246.401839 
L 289.085427 246.887974 
L 291.889447 247.354344 
L 294.693467 247.800572 
L 297.497487 248.22627 
L 300.301508 248.631044 
L 303.105528 249.014493 
L 305.909548 249.376209 
L 308.713568 249.715776 
L 311.517588 250.032777 
L 314.321608 250.326786 
L 317.125628 250.597375 
L 319.929648 250.844108 
L 322.733668 251.066549 
L 325.537688 251.264255 
L 328.341709 251.436782 
L 331.145729 251.583682 
L 333.949749 251.704504 
L 336.753769 251.798793 
L 339.557789 251.866095 
L 342.361809 251.905952 
L 345.165829 251.917904 
L 347.969849 251.901492 
L 350.773869 251.856255 
L 353.577889 251.781732 
L 356.38191 251.677464 
L 359.18593 251.542991 
L 361.98995 251.377856 
L 364.79397 251.181605 
L 367.59799 250.953786 
L 370.40201 250.693952 
L 373.20603 250.401661 
L 376.01005 250.076477 
L 378.81407 249.71797 
L 381.61809 249.32572 
L 384.422111 248.899315 
L 387.226131 248.438352 
L 390.030151 247.942441 
L 392.834171 247.411205 
L 395.638191 246.84428 
L 398.442211 246.241316 
L 401.246231 245.601982 
L 404.050251 244.925963 
L 406.854271 244.212962 
L 409.658291 243.462704 
L 412.462312 242.674935 
L 415.266332 241.849424 
L 418.070352 240.985962 
L 420.874372 240.084367 
L 423.678392 239.144482 
L 426.482412 238.166178 
L 429.286432 237.149353 
L 432.090452 236.093935 
L 434.894472 234.999881 
L 437.698492 233.867178 
L 440.502513 232.695845 
L 443.306533 231.485931 
L 446.110553 230.237518 
L 448.914573 228.950719 
L 451.718593 227.62568 
L 454.522613 226.262578 
L 457.326633 224.86162 
L 460.130653 223.423048 
L 462.934673 221.947131 
L 465.738693 220.434169 
L 468.542714 218.884492 
L 471.346734 217.298456 
L 474.150754 215.676447 
L 476.954774 214.018872 
L 479.758794 212.326166 
L 482.562814 210.598785 
L 485.366834 208.837204 
L 488.170854 207.041919 
L 490.974874 205.213442 
L 493.778894 203.352301 
L 496.582915 201.459036 
L 499.386935 199.534197 
L 502.190955 197.578344 
L 504.994975 195.592044 
L 507.798995 193.575866 
L 510.603015 191.530384 
L 513.407035 189.456171 
L 516.211055 187.353799 
L 519.015075 185.223837 
L 521.819095 183.066849 
L 524.623116 180.883394 
L 527.427136 178.674021 
L 530.231156 176.439275 
L 533.035176 174.179689 
L 535.839196 171.895788 
L 538.643216 169.588087 
L 541.447236 167.257093 
L 544.251256 164.903306 
L 547.055276 162.527215 
L 549.859296 160.129307 
L 552.663317 157.710062 
L 555.467337 155.26996 
L 558.271357 152.809477 
L 561.075377 150.329096 
L 563.879397 147.829303 
L 566.683417 145.310592 
L 569.487437 142.77347 
L 572.291457 140.218459 
L 575.095477 137.646098 
L 577.899497 135.056949 
L 580.703518 132.451599 
L 583.507538 129.830662 
L 586.311558 127.194786 
L 589.115578 124.544651 
L 591.919598 121.880976 
L 594.723618 119.204518 
L 597.527638 116.516074 
L 600.331658 113.816486 
L 603.135678 111.106636 
L 605.939698 108.387454 
L 608.743719 105.659912 
L 611.547739 102.925025 
L 614.351759 100.183852 
L 617.155779 97.437495 
L 619.959799 94.687094 
L 622.763819 91.933828 
L 625.567839 89.178912 
L 628.371859 86.423595 
L 631.175879 83.669154 
L 633.979899 80.916895 
L 636.78392 78.168148 
L 639.58794 75.424261 
L 642.39196 72.686603 
L 645.19598 69.956553 
L 648 67.235501 
L 648 207.804017 
L 645.19598 208.387773 
L 642.39196 209.031146 
L 639.58794 209.734051 
L 636.78392 210.49633 
L 633.979899 211.317742 
L 631.175879 212.197966 
L 628.371859 213.136597 
L 625.567839 214.133145 
L 622.763819 215.187031 
L 619.959799 216.297588 
L 617.155779 217.46406 
L 614.351759 218.685599 
L 611.547739 219.961266 
L 608.743719 221.290033 
L 605.939698 222.670778 
L 603.135678 224.102293 
L 600.331658 225.58328 
L 597.527638 227.112355 
L 594.723618 228.688051 
L 591.919598 230.30882 
L 589.115578 231.973038 
L 586.311558 233.679006 
L 583.507538 235.424959 
L 580.703518 237.209067 
L 577.899497 239.029442 
L 575.095477 240.884143 
L 572.291457 242.771182 
L 569.487437 244.688532 
L 566.683417 246.634128 
L 563.879397 248.60588 
L 561.075377 250.601675 
L 558.271357 252.619383 
L 555.467337 254.656865 
L 552.663317 256.711979 
L 549.859296 258.782585 
L 547.055276 260.866548 
L 544.251256 262.961749 
L 541.447236 265.066084 
L 538.643216 267.177471 
L 535.839196 269.293856 
L 533.035176 271.413212 
L 530.231156 273.533547 
L 527.427136 275.652904 
L 524.623116 277.769365 
L 521.819095 279.881052 
L 519.015075 281.986132 
L 516.211055 284.082814 
L 513.407035 286.169353 
L 510.603015 288.244052 
L 507.798995 290.305259 
L 504.994975 292.351372 
L 502.190955 294.380834 
L 499.386935 296.39214 
L 496.582915 298.383831 
L 493.778894 300.354495 
L 490.974874 302.302769 
L 488.170854 304.227336 
L 485.366834 306.126926 
L 482.562814 308.000317 
L 479.758794 309.846329 
L 476.954774 311.663829 
L 474.150754 313.451728 
L 471.346734 315.208982 
L 468.542714 316.934587 
L 465.738693 318.627584 
L 462.934673 320.287056 
L 460.130653 321.912126 
L 457.326633 323.501961 
L 454.522613 325.055766 
L 451.718593 326.572787 
L 448.914573 328.052312 
L 446.110553 329.493667 
L 443.306533 330.896217 
L 440.502513 332.25937 
L 437.698492 333.58257 
L 434.894472 334.865303 
L 432.090452 336.107092 
L 429.286432 337.307502 
L 426.482412 338.466136 
L 423.678392 339.582637 
L 420.874372 340.656686 
L 418.070352 341.688007 
L 415.266332 342.67636 
L 412.462312 343.621548 
L 409.658291 344.523411 
L 406.854271 345.38183 
L 404.050251 346.196727 
L 401.246231 346.968061 
L 398.442211 347.695833 
L 395.638191 348.380081 
L 392.834171 349.020885 
L 390.030151 349.618363 
L 387.226131 350.172669 
L 384.422111 350.683999 
L 381.61809 351.152584 
L 378.81407 351.578695 
L 376.01005 351.962636 
L 373.20603 352.30475 
L 370.40201 352.605413 
L 367.59799 352.865037 
L 364.79397 353.084067 
L 361.98995 353.262981 
L 359.18593 353.402285 
L 356.38191 353.502521 
L 353.577889 353.564255 
L 350.773869 353.588083 
L 347.969849 353.574629 
L 345.165829 353.52454 
L 342.361809 353.438487 
L 339.557789 353.317165 
L 336.753769 353.161289 
L 333.949749 352.971593 
L 331.145729 352.74883 
L 328.341709 352.493769 
L 325.537688 352.207194 
L 322.733668 351.889903 
L 319.929648 351.542704 
L 317.125628 351.166419 
L 314.321608 350.761877 
L 311.517588 350.329914 
L 308.713568 349.871375 
L 305.909548 349.387108 
L 303.105528 348.877966 
L 300.301508 348.344805 
L 297.497487 347.788484 
L 294.693467 347.209862 
L 291.889447 346.609799 
L 289.085427 345.989155 
L 286.281407 345.348789 
L 283.477387 344.689559 
L 280.673367 344.012322 
L 277.869347 343.317935 
L 275.065327 342.60725 
L 272.261307 341.881122 
L 269.457286 341.140403 
L 266.653266 340.385945 
L 263.849246 339.618601 
L 261.045226 338.839225 
L 258.241206 338.048672 
L 255.437186 337.247801 
L 252.633166 336.437475 
L 249.829146 335.618562 
L 247.025126 334.791935 
L 244.221106 333.958476 
L 241.417085 333.119078 
L 238.613065 332.274641 
L 235.809045 331.426078 
L 233.005025 330.574315 
L 230.201005 329.720294 
L 227.396985 328.864969 
L 224.592965 328.009313 
L 221.788945 327.154316 
L 218.984925 326.300986 
L 216.180905 325.450348 
L 213.376884 324.603448 
L 210.572864 323.76135 
L 207.768844 322.925136 
L 204.964824 322.095905 
L 202.160804 321.274776 
L 199.356784 320.462879 
L 196.552764 319.661361 
L 193.748744 318.871379 
L 190.944724 318.0941 
L 188.140704 317.330695 
L 185.336683 316.58234 
L 182.532663 315.850207 
L 179.728643 315.135466 
L 176.924623 314.439275 
L 174.120603 313.762778 
L 171.316583 313.1071 
L 168.512563 312.473343 
L 165.708543 311.862577 
L 162.904523 311.27584 
L 160.100503 310.714129 
L 157.296482 310.178395 
L 154.492462 309.669541 
L 151.688442 309.188414 
L 148.884422 308.735805 
L 146.080402 308.31244 
L 143.276382 307.91898 
L 140.472362 307.556016 
L 137.668342 307.224069 
L 134.864322 306.923586 
L 132.060302 306.654938 
L 129.256281 306.418422 
L 126.452261 306.214257 
L 123.648241 306.042588 
L 120.844221 305.903486 
L 118.040201 305.796945 
L 115.236181 305.722889 
L 112.432161 305.681172 
L 109.628141 305.671579 
L 106.824121 305.693832 
L 104.020101 305.74759 
L 101.21608 305.832452 
L 98.41206 305.947963 
L 95.60804 306.093615 
L 92.80402 306.26885 
L 90 306.473068 
z
" style="fill:#cc3300;opacity:0.3;stroke:#cc3300;stroke-linejoin:miter;stroke-width:0.5;"/>
   </g>
   <g id="matplotlib.axis_1">
    <g id="xtick_1">
     <g id="line2d_1">
      <defs>
       <path d="M 0 0 
L 0 3.5 
" id="m90a32da1e8" style="stroke:#000000;stroke-width:0.8;"/>
      </defs>
      <g>
       <use style="stroke:#000000;stroke-width:0.8;" x="90" xlink:href="#m90a32da1e8" y="378"/>
      </g>
     </g>
     <g id="text_1">
      <!-- −2 -->
      <defs>
       <path d="M 10.59375 35.5 
L 73.1875 35.5 
L 73.1875 27.203125 
L 10.59375 27.203125 
z
" id="DejaVuSans-2212"/>
       <path d="M 19.1875 8.296875 
L 53.609375 8.296875 
L 53.609375 0 
L 7.328125 0 
L 7.328125 8.296875 
Q 12.9375 14.109375 22.625 23.890625 
Q 32.328125 33.6875 34.8125 36.53125 
Q 39.546875 41.84375 41.421875 45.53125 
Q 43.3125 49.21875 43.3125 52.78125 
Q 43.3125 58.59375 39.234375 62.25 
Q 35.15625 65.921875 28.609375 65.921875 
Q 23.96875 65.921875 18.8125 64.3125 
Q 13.671875 62.703125 7.8125 59.421875 
L 7.8125 69.390625 
Q 13.765625 71.78125 18.9375 73 
Q 24.125 74.21875 28.421875 74.21875 
Q 39.75 74.21875 46.484375 68.546875 
Q 53.21875 62.890625 53.21875 53.421875 
Q 53.21875 48.921875 51.53125 44.890625 
Q 49.859375 40.875 45.40625 35.40625 
Q 44.1875 33.984375 37.640625 27.21875 
Q 31.109375 20.453125 19.1875 8.296875 
z
" id="DejaVuSans-32"/>
      </defs>
      <g transform="translate(82.628906 392.598437)scale(0.1 -0.1)">
       <use xlink:href="#DejaVuSans-2212"/>
       <use x="83.789062" xlink:href="#DejaVuSans-32"/>
      </g>
     </g>
    </g>
    <g id="xtick_2">
     <g id="line2d_2">
      <g>
       <use style="stroke:#000000;stroke-width:0.8;" x="169.714286" xlink:href="#m90a32da1e8" y="378"/>
      </g>
     </g>
     <g id="text_2">
      <!-- 0 -->
      <defs>
       <path d="M 31.78125 66.40625 
Q 24.171875 66.40625 20.328125 58.90625 
Q 16.5 51.421875 16.5 36.375 
Q 16.5 21.390625 20.328125 13.890625 
Q 24.171875 6.390625 31.78125 6.390625 
Q 39.453125 6.390625 43.28125 13.890625 
Q 47.125 21.390625 47.125 36.375 
Q 47.125 51.421875 43.28125 58.90625 
Q 39.453125 66.40625 31.78125 66.40625 
z
M 31.78125 74.21875 
Q 44.046875 74.21875 50.515625 64.515625 
Q 56.984375 54.828125 56.984375 36.375 
Q 56.984375 17.96875 50.515625 8.265625 
Q 44.046875 -1.421875 31.78125 -1.421875 
Q 19.53125 -1.421875 13.0625 8.265625 
Q 6.59375 17.96875 6.59375 36.375 
Q 6.59375 54.828125 13.0625 64.515625 
Q 19.53125 74.21875 31.78125 74.21875 
z
" id="DejaVuSans-30"/>
      </defs>
      <g transform="translate(166.533036 392.598437)scale(0.1 -0.1)">
       <use xlink:href="#DejaVuSans-30"/>
      </g>
     </g>
    </g>
    <g id="xtick_3">
     <g id="line2d_3">
      <g>
       <use style="stroke:#000000;stroke-width:0.8;" x="249.428571" xlink:href="#m90a32da1e8" y="378"/>
      </g>
     </g>
     <g id="text_3">
      <!-- 2 -->
      <g transform="translate(246.247321 392.598437)scale(0.1 -0.1)">
       <use xlink:href="#DejaVuSans-32"/>
      </g>
     </g>
    </g>
    <g id="xtick_4">
     <g id="line2d_4">
      <g>
       <use style="stroke:#000000;stroke-width:0.8;" x="329.142857" xlink:href="#m90a32da1e8" y="378"/>
      </g>
     </g>
     <g id="text_4">
      <!-- 4 -->
      <defs>
       <path d="M 37.796875 64.3125 
L 12.890625 25.390625 
L 37.796875 25.390625 
z
M 35.203125 72.90625 
L 47.609375 72.90625 
L 47.609375 25.390625 
L 58.015625 25.390625 
L 58.015625 17.1875 
L 47.609375 17.1875 
L 47.609375 0 
L 37.796875 0 
L 37.796875 17.1875 
L 4.890625 17.1875 
L 4.890625 26.703125 
z
" id="DejaVuSans-34"/>
      </defs>
      <g transform="translate(325.961607 392.598437)scale(0.1 -0.1)">
       <use xlink:href="#DejaVuSans-34"/>
      </g>
     </g>
    </g>
    <g id="xtick_5">
     <g id="line2d_5">
      <g>
       <use style="stroke:#000000;stroke-width:0.8;" x="408.857143" xlink:href="#m90a32da1e8" y="378"/>
      </g>
     </g>
     <g id="text_5">
      <!-- 6 -->
      <defs>
       <path d="M 33.015625 40.375 
Q 26.375 40.375 22.484375 35.828125 
Q 18.609375 31.296875 18.609375 23.390625 
Q 18.609375 15.53125 22.484375 10.953125 
Q 26.375 6.390625 33.015625 6.390625 
Q 39.65625 6.390625 43.53125 10.953125 
Q 47.40625 15.53125 47.40625 23.390625 
Q 47.40625 31.296875 43.53125 35.828125 
Q 39.65625 40.375 33.015625 40.375 
z
M 52.59375 71.296875 
L 52.59375 62.3125 
Q 48.875 64.0625 45.09375 64.984375 
Q 41.3125 65.921875 37.59375 65.921875 
Q 27.828125 65.921875 22.671875 59.328125 
Q 17.53125 52.734375 16.796875 39.40625 
Q 19.671875 43.65625 24.015625 45.921875 
Q 28.375 48.1875 33.59375 48.1875 
Q 44.578125 48.1875 50.953125 41.515625 
Q 57.328125 34.859375 57.328125 23.390625 
Q 57.328125 12.15625 50.6875 5.359375 
Q 44.046875 -1.421875 33.015625 -1.421875 
Q 20.359375 -1.421875 13.671875 8.265625 
Q 6.984375 17.96875 6.984375 36.375 
Q 6.984375 53.65625 15.1875 63.9375 
Q 23.390625 74.21875 37.203125 74.21875 
Q 40.921875 74.21875 44.703125 73.484375 
Q 48.484375 72.75 52.59375 71.296875 
z
" id="DejaVuSans-36"/>
      </defs>
      <g transform="translate(405.675893 392.598437)scale(0.1 -0.1)">
       <use xlink:href="#DejaVuSans-36"/>
      </g>
     </g>
    </g>
    <g id="xtick_6">
     <g id="line2d_6">
      <g>
       <use style="stroke:#000000;stroke-width:0.8;" x="488.571429" xlink:href="#m90a32da1e8" y="378"/>
      </g>
     </g>
     <g id="text_6">
      <!-- 8 -->
      <defs>
       <path d="M 31.78125 34.625 
Q 24.75 34.625 20.71875 30.859375 
Q 16.703125 27.09375 16.703125 20.515625 
Q 16.703125 13.921875 20.71875 10.15625 
Q 24.75 6.390625 31.78125 6.390625 
Q 38.8125 6.390625 42.859375 10.171875 
Q 46.921875 13.96875 46.921875 20.515625 
Q 46.921875 27.09375 42.890625 30.859375 
Q 38.875 34.625 31.78125 34.625 
z
M 21.921875 38.8125 
Q 15.578125 40.375 12.03125 44.71875 
Q 8.5 49.078125 8.5 55.328125 
Q 8.5 64.0625 14.71875 69.140625 
Q 20.953125 74.21875 31.78125 74.21875 
Q 42.671875 74.21875 48.875 69.140625 
Q 55.078125 64.0625 55.078125 55.328125 
Q 55.078125 49.078125 51.53125 44.71875 
Q 48 40.375 41.703125 38.8125 
Q 48.828125 37.15625 52.796875 32.3125 
Q 56.78125 27.484375 56.78125 20.515625 
Q 56.78125 9.90625 50.3125 4.234375 
Q 43.84375 -1.421875 31.78125 -1.421875 
Q 19.734375 -1.421875 13.25 4.234375 
Q 6.78125 9.90625 6.78125 20.515625 
Q 6.78125 27.484375 10.78125 32.3125 
Q 14.796875 37.15625 21.921875 38.8125 
z
M 18.3125 54.390625 
Q 18.3125 48.734375 21.84375 45.5625 
Q 25.390625 42.390625 31.78125 42.390625 
Q 38.140625 42.390625 41.71875 45.5625 
Q 45.3125 48.734375 45.3125 54.390625 
Q 45.3125 60.0625 41.71875 63.234375 
Q 38.140625 66.40625 31.78125 66.40625 
Q 25.390625 66.40625 21.84375 63.234375 
Q 18.3125 60.0625 18.3125 54.390625 
z
" id="DejaVuSans-38"/>
      </defs>
      <g transform="translate(485.390179 392.598437)scale(0.1 -0.1)">
       <use xlink:href="#DejaVuSans-38"/>
      </g>
     </g>
    </g>
    <g id="xtick_7">
     <g id="line2d_7">
      <g>
       <use style="stroke:#000000;stroke-width:0.8;" x="568.285714" xlink:href="#m90a32da1e8" y="378"/>
      </g>
     </g>
     <g id="text_7">
      <!-- 10 -->
      <defs>
       <path d="M 12.40625 8.296875 
L 28.515625 8.296875 
L 28.515625 63.921875 
L 10.984375 60.40625 
L 10.984375 69.390625 
L 28.421875 72.90625 
L 38.28125 72.90625 
L 38.28125 8.296875 
L 54.390625 8.296875 
L 54.390625 0 
L 12.40625 0 
z
" id="DejaVuSans-31"/>
      </defs>
      <g transform="translate(561.923214 392.598437)scale(0.1 -0.1)">
       <use xlink:href="#DejaVuSans-31"/>
       <use x="63.623047" xlink:href="#DejaVuSans-30"/>
      </g>
     </g>
    </g>
    <g id="xtick_8">
     <g id="line2d_8">
      <g>
       <use style="stroke:#000000;stroke-width:0.8;" x="648" xlink:href="#m90a32da1e8" y="378"/>
      </g>
     </g>
     <g id="text_8">
      <!-- 12 -->
      <g transform="translate(641.6375 392.598437)scale(0.1 -0.1)">
       <use xlink:href="#DejaVuSans-31"/>
       <use x="63.623047" xlink:href="#DejaVuSans-32"/>
      </g>
     </g>
    </g>
    <g id="text_9">
     <!-- $x$ -->
     <defs>
      <path d="M 60.015625 54.6875 
L 34.90625 27.875 
L 50.296875 0 
L 39.984375 0 
L 28.421875 21.6875 
L 8.296875 0 
L -2.59375 0 
L 24.3125 28.8125 
L 10.015625 54.6875 
L 20.3125 54.6875 
L 30.8125 34.90625 
L 49.125 54.6875 
z
" id="DejaVuSans-Oblique-78"/>
     </defs>
     <g transform="translate(363 413.875)scale(0.2 -0.2)">
      <use transform="translate(0 0.3125)" xlink:href="#DejaVuSans-Oblique-78"/>
     </g>
    </g>
   </g>
   <g id="matplotlib.axis_2">
    <g id="ytick_1">
     <g id="line2d_9">
      <defs>
       <path d="M 0 0 
L -3.5 0 
" id="m604fcf6ab7" style="stroke:#000000;stroke-width:0.8;"/>
      </defs>
      <g>
       <use style="stroke:#000000;stroke-width:0.8;" x="90" xlink:href="#m604fcf6ab7" y="347.844697"/>
      </g>
     </g>
     <g id="text_10">
      <!-- −3 -->
      <defs>
       <path d="M 40.578125 39.3125 
Q 47.65625 37.796875 51.625 33 
Q 55.609375 28.21875 55.609375 21.1875 
Q 55.609375 10.40625 48.1875 4.484375 
Q 40.765625 -1.421875 27.09375 -1.421875 
Q 22.515625 -1.421875 17.65625 -0.515625 
Q 12.796875 0.390625 7.625 2.203125 
L 7.625 11.71875 
Q 11.71875 9.328125 16.59375 8.109375 
Q 21.484375 6.890625 26.8125 6.890625 
Q 36.078125 6.890625 40.9375 10.546875 
Q 45.796875 14.203125 45.796875 21.1875 
Q 45.796875 27.640625 41.28125 31.265625 
Q 36.765625 34.90625 28.71875 34.90625 
L 20.21875 34.90625 
L 20.21875 43.015625 
L 29.109375 43.015625 
Q 36.375 43.015625 40.234375 45.921875 
Q 44.09375 48.828125 44.09375 54.296875 
Q 44.09375 59.90625 40.109375 62.90625 
Q 36.140625 65.921875 28.71875 65.921875 
Q 24.65625 65.921875 20.015625 65.03125 
Q 15.375 64.15625 9.8125 62.3125 
L 9.8125 71.09375 
Q 15.4375 72.65625 20.34375 73.4375 
Q 25.25 74.21875 29.59375 74.21875 
Q 40.828125 74.21875 47.359375 69.109375 
Q 53.90625 64.015625 53.90625 55.328125 
Q 53.90625 49.265625 50.4375 45.09375 
Q 46.96875 40.921875 40.578125 39.3125 
z
" id="DejaVuSans-33"/>
      </defs>
      <g transform="translate(68.257812 351.643916)scale(0.1 -0.1)">
       <use xlink:href="#DejaVuSans-2212"/>
       <use x="83.789062" xlink:href="#DejaVuSans-33"/>
      </g>
     </g>
    </g>
    <g id="ytick_2">
     <g id="line2d_10">
      <g>
       <use style="stroke:#000000;stroke-width:0.8;" x="90" xlink:href="#m604fcf6ab7" y="289.049127"/>
      </g>
     </g>
     <g id="text_11">
      <!-- −2 -->
      <g transform="translate(68.257812 292.848346)scale(0.1 -0.1)">
       <use xlink:href="#DejaVuSans-2212"/>
       <use x="83.789062" xlink:href="#DejaVuSans-32"/>
      </g>
     </g>
    </g>
    <g id="ytick_3">
     <g id="line2d_11">
      <g>
       <use style="stroke:#000000;stroke-width:0.8;" x="90" xlink:href="#m604fcf6ab7" y="230.253557"/>
      </g>
     </g>
     <g id="text_12">
      <!-- −1 -->
      <g transform="translate(68.257812 234.052776)scale(0.1 -0.1)">
       <use xlink:href="#DejaVuSans-2212"/>
       <use x="83.789062" xlink:href="#DejaVuSans-31"/>
      </g>
     </g>
    </g>
    <g id="ytick_4">
     <g id="line2d_12">
      <g>
       <use style="stroke:#000000;stroke-width:0.8;" x="90" xlink:href="#m604fcf6ab7" y="171.457987"/>
      </g>
     </g>
     <g id="text_13">
      <!-- 0 -->
      <g transform="translate(76.6375 175.257205)scale(0.1 -0.1)">
       <use xlink:href="#DejaVuSans-30"/>
      </g>
     </g>
    </g>
    <g id="ytick_5">
     <g id="line2d_13">
      <g>
       <use style="stroke:#000000;stroke-width:0.8;" x="90" xlink:href="#m604fcf6ab7" y="112.662416"/>
      </g>
     </g>
     <g id="text_14">
      <!-- 1 -->
      <g transform="translate(76.6375 116.461635)scale(0.1 -0.1)">
       <use xlink:href="#DejaVuSans-31"/>
      </g>
     </g>
    </g>
    <g id="ytick_6">
     <g id="line2d_14">
      <g>
       <use style="stroke:#000000;stroke-width:0.8;" x="90" xlink:href="#m604fcf6ab7" y="53.866846"/>
      </g>
     </g>
     <g id="text_15">
      <!-- 2 -->
      <g transform="translate(76.6375 57.666065)scale(0.1 -0.1)">
       <use xlink:href="#DejaVuSans-32"/>
      </g>
     </g>
    </g>
    <g id="text_16">
     <!-- $y$ -->
     <defs>
      <path d="M 24.8125 -5.078125 
Q 18.5625 -15.578125 14.625 -18.1875 
Q 10.6875 -20.796875 4.59375 -20.796875 
L -2.484375 -20.796875 
L -0.984375 -13.28125 
L 4.203125 -13.28125 
Q 7.953125 -13.28125 10.59375 -11.234375 
Q 13.234375 -9.1875 16.5 -3.21875 
L 19.28125 2 
L 7.171875 54.6875 
L 16.703125 54.6875 
L 25.78125 12.796875 
L 50.875 54.6875 
L 60.296875 54.6875 
z
" id="DejaVuSans-Oblique-79"/>
     </defs>
     <g transform="translate(60.057812 220.92)rotate(-90)scale(0.2 -0.2)">
      <use transform="translate(0 0.3125)" xlink:href="#DejaVuSans-Oblique-79"/>
     </g>
    </g>
   </g>
   <g id="line2d_15">
    <defs>
     <path d="M 0 2.5 
C 0.663008 2.5 1.29895 2.236584 1.767767 1.767767 
C 2.236584 1.29895 2.5 0.663008 2.5 0 
C 2.5 -0.663008 2.236584 -1.29895 1.767767 -1.767767 
C 1.29895 -2.236584 0.663008 -2.5 0 -2.5 
C -0.663008 -2.5 -1.29895 -2.236584 -1.767767 -1.767767 
C -2.236584 -1.29895 -2.5 -0.663008 -2.5 0 
C -2.5 0.663008 -2.236584 1.29895 -1.767767 1.767767 
C -1.29895 2.236584 -0.663008 2.5 0 2.5 
z
" id="mea5675b7a4" style="stroke:#ff0000;"/>
    </defs>
    <g clip-path="url(#pc25be0a2c3)">
     <use style="fill:#ff0000;stroke:#ff0000;" x="169.714286" xlink:href="#mea5675b7a4" y="269.362158"/>
     <use style="fill:#ff0000;stroke:#ff0000;" x="174.696429" xlink:href="#mea5675b7a4" y="268.265655"/>
     <use style="fill:#ff0000;stroke:#ff0000;" x="179.678571" xlink:href="#mea5675b7a4" y="249.70435"/>
     <use style="fill:#ff0000;stroke:#ff0000;" x="184.660714" xlink:href="#mea5675b7a4" y="257.728058"/>
     <use style="fill:#ff0000;stroke:#ff0000;" x="189.642857" xlink:href="#mea5675b7a4" y="251.63509"/>
     <use style="fill:#ff0000;stroke:#ff0000;" x="194.625" xlink:href="#mea5675b7a4" y="251.619536"/>
     <use style="fill:#ff0000;stroke:#ff0000;" x="199.607143" xlink:href="#mea5675b7a4" y="271.225686"/>
     <use style="fill:#ff0000;stroke:#ff0000;" x="204.589286" xlink:href="#mea5675b7a4" y="288.672909"/>
     <use style="fill:#ff0000;stroke:#ff0000;" x="209.571429" xlink:href="#mea5675b7a4" y="253.193816"/>
     <use style="fill:#ff0000;stroke:#ff0000;" x="214.553571" xlink:href="#mea5675b7a4" y="255.06835"/>
     <use style="fill:#ff0000;stroke:#ff0000;" x="219.535714" xlink:href="#mea5675b7a4" y="278.076366"/>
     <use style="fill:#ff0000;stroke:#ff0000;" x="224.517857" xlink:href="#mea5675b7a4" y="277.506227"/>
     <use style="fill:#ff0000;stroke:#ff0000;" x="229.5" xlink:href="#mea5675b7a4" y="327.314785"/>
     <use style="fill:#ff0000;stroke:#ff0000;" x="234.482143" xlink:href="#mea5675b7a4" y="349.701219"/>
     <use style="fill:#ff0000;stroke:#ff0000;" x="239.464286" xlink:href="#mea5675b7a4" y="340.43842"/>
     <use style="fill:#ff0000;stroke:#ff0000;" x="244.446429" xlink:href="#mea5675b7a4" y="294.3865"/>
     <use style="fill:#ff0000;stroke:#ff0000;" x="249.428571" xlink:href="#mea5675b7a4" y="302.158933"/>
     <use style="fill:#ff0000;stroke:#ff0000;" x="254.410714" xlink:href="#mea5675b7a4" y="289.168648"/>
     <use style="fill:#ff0000;stroke:#ff0000;" x="259.392857" xlink:href="#mea5675b7a4" y="249.716095"/>
     <use style="fill:#ff0000;stroke:#ff0000;" x="264.375" xlink:href="#mea5675b7a4" y="321.921237"/>
     <use style="fill:#ff0000;stroke:#ff0000;" x="269.357143" xlink:href="#mea5675b7a4" y="289.354782"/>
     <use style="fill:#ff0000;stroke:#ff0000;" x="274.339286" xlink:href="#mea5675b7a4" y="266.096826"/>
     <use style="fill:#ff0000;stroke:#ff0000;" x="279.321429" xlink:href="#mea5675b7a4" y="259.193073"/>
     <use style="fill:#ff0000;stroke:#ff0000;" x="284.303571" xlink:href="#mea5675b7a4" y="267.262984"/>
     <use style="fill:#ff0000;stroke:#ff0000;" x="289.285714" xlink:href="#mea5675b7a4" y="264.571627"/>
     <use style="fill:#ff0000;stroke:#ff0000;" x="448.714286" xlink:href="#mea5675b7a4" y="283.990624"/>
     <use style="fill:#ff0000;stroke:#ff0000;" x="453.696429" xlink:href="#mea5675b7a4" y="272.743238"/>
     <use style="fill:#ff0000;stroke:#ff0000;" x="458.678571" xlink:href="#mea5675b7a4" y="280.768911"/>
     <use style="fill:#ff0000;stroke:#ff0000;" x="463.660714" xlink:href="#mea5675b7a4" y="284.211031"/>
     <use style="fill:#ff0000;stroke:#ff0000;" x="468.642857" xlink:href="#mea5675b7a4" y="287.616976"/>
     <use style="fill:#ff0000;stroke:#ff0000;" x="473.625" xlink:href="#mea5675b7a4" y="257.754818"/>
     <use style="fill:#ff0000;stroke:#ff0000;" x="478.607143" xlink:href="#mea5675b7a4" y="257.818567"/>
     <use style="fill:#ff0000;stroke:#ff0000;" x="483.589286" xlink:href="#mea5675b7a4" y="289.237444"/>
     <use style="fill:#ff0000;stroke:#ff0000;" x="488.571429" xlink:href="#mea5675b7a4" y="254.597734"/>
     <use style="fill:#ff0000;stroke:#ff0000;" x="493.553571" xlink:href="#mea5675b7a4" y="289.370588"/>
     <use style="fill:#ff0000;stroke:#ff0000;" x="498.535714" xlink:href="#mea5675b7a4" y="242.369923"/>
     <use style="fill:#ff0000;stroke:#ff0000;" x="503.517857" xlink:href="#mea5675b7a4" y="271.227673"/>
     <use style="fill:#ff0000;stroke:#ff0000;" x="508.5" xlink:href="#mea5675b7a4" y="220.950356"/>
     <use style="fill:#ff0000;stroke:#ff0000;" x="513.482143" xlink:href="#mea5675b7a4" y="229.304475"/>
     <use style="fill:#ff0000;stroke:#ff0000;" x="518.464286" xlink:href="#mea5675b7a4" y="214.90351"/>
     <use style="fill:#ff0000;stroke:#ff0000;" x="523.446429" xlink:href="#mea5675b7a4" y="224.862071"/>
     <use style="fill:#ff0000;stroke:#ff0000;" x="528.428571" xlink:href="#mea5675b7a4" y="234.841941"/>
     <use style="fill:#ff0000;stroke:#ff0000;" x="533.410714" xlink:href="#mea5675b7a4" y="221.051874"/>
     <use style="fill:#ff0000;stroke:#ff0000;" x="538.392857" xlink:href="#mea5675b7a4" y="197.124322"/>
     <use style="fill:#ff0000;stroke:#ff0000;" x="543.375" xlink:href="#mea5675b7a4" y="201.697747"/>
     <use style="fill:#ff0000;stroke:#ff0000;" x="548.357143" xlink:href="#mea5675b7a4" y="170.501527"/>
     <use style="fill:#ff0000;stroke:#ff0000;" x="553.339286" xlink:href="#mea5675b7a4" y="204.880837"/>
     <use style="fill:#ff0000;stroke:#ff0000;" x="558.321429" xlink:href="#mea5675b7a4" y="206.446822"/>
     <use style="fill:#ff0000;stroke:#ff0000;" x="563.303571" xlink:href="#mea5675b7a4" y="211.551759"/>
     <use style="fill:#ff0000;stroke:#ff0000;" x="568.285714" xlink:href="#mea5675b7a4" y="204.33735"/>
    </g>
   </g>
   <g id="line2d_16">
    <path clip-path="url(#pc25be0a2c3)" d="M 90 235.04851 
L 115.236181 243.387308 
L 154.492462 256.644265 
L 190.944724 268.885945 
L 210.572864 275.264455 
L 227.396985 280.508413 
L 241.417085 284.657703 
L 255.437186 288.547334 
L 266.653266 291.430519 
L 277.869347 294.073211 
L 289.085427 296.438564 
L 297.497487 298.007377 
L 305.909548 299.381658 
L 314.321608 300.544332 
L 322.733668 301.478226 
L 331.145729 302.166256 
L 339.557789 302.59163 
L 347.969849 302.73806 
L 356.38191 302.589992 
L 364.79397 302.132836 
L 373.20603 301.353205 
L 378.81407 300.648332 
L 384.422111 299.791657 
L 390.030151 298.780402 
L 395.638191 297.612181 
L 401.246231 296.285022 
L 406.854271 294.797396 
L 412.462312 293.148241 
L 418.070352 291.336984 
L 423.678392 289.363559 
L 429.286432 287.228428 
L 434.894472 284.932592 
L 443.306533 281.191074 
L 451.718593 277.099234 
L 460.130653 272.667587 
L 468.542714 267.909539 
L 476.954774 262.841351 
L 485.366834 257.482065 
L 493.778894 251.853398 
L 502.190955 245.979589 
L 513.407035 237.812762 
L 524.623116 229.326379 
L 538.643216 218.382779 
L 558.271357 202.71443 
L 580.703518 184.830333 
L 594.723618 173.946284 
L 605.939698 165.529116 
L 614.351759 159.434726 
L 622.763819 153.560429 
L 631.175879 147.93356 
L 639.58794 142.579156 
L 648 137.519759 
L 648 137.519759 
" style="fill:none;stroke:#3300ff;stroke-linecap:square;stroke-width:2;"/>
   </g>
   <g id="line2d_17">
    <path clip-path="url(#pc25be0a2c3)" d="M 90 163.623951 
L 98.41206 169.657848 
L 106.824121 175.473797 
L 115.236181 181.051728 
L 123.648241 186.376056 
L 132.060302 191.436308 
L 140.472362 196.22751 
L 148.884422 200.750263 
L 157.296482 205.010427 
L 165.708543 209.018405 
L 174.120603 212.788089 
L 182.532663 216.335573 
L 190.944724 219.67779 
L 199.356784 222.831214 
L 210.572864 226.767559 
L 221.788945 230.423058 
L 233.005025 233.816839 
L 244.221106 236.958122 
L 255.437186 239.846867 
L 266.653266 242.475092 
L 277.869347 244.828487 
L 286.281407 246.401839 
L 294.693467 247.800572 
L 303.105528 249.014493 
L 311.517588 250.032777 
L 319.929648 250.844108 
L 328.341709 251.436782 
L 336.753769 251.798793 
L 345.165829 251.917904 
L 353.577889 251.781732 
L 361.98995 251.377856 
L 370.40201 250.693952 
L 378.81407 249.71797 
L 387.226131 248.438352 
L 395.638191 246.84428 
L 404.050251 244.925963 
L 412.462312 242.674935 
L 420.874372 240.084367 
L 429.286432 237.149353 
L 437.698492 233.867178 
L 446.110553 230.237518 
L 454.522613 226.262578 
L 462.934673 221.947131 
L 471.346734 217.298456 
L 479.758794 212.326166 
L 488.170854 207.041919 
L 496.582915 201.459036 
L 504.994975 195.592044 
L 513.407035 189.456171 
L 521.819095 183.066849 
L 530.231156 176.439275 
L 538.643216 169.588087 
L 549.859296 160.129307 
L 561.075377 150.329096 
L 572.291457 140.218459 
L 583.507538 129.830662 
L 597.527638 116.516074 
L 614.351759 100.183852 
L 648 67.235501 
L 648 67.235501 
" style="fill:none;stroke:#3300ff;stroke-linecap:square;stroke-width:0.2;"/>
   </g>
   <g id="line2d_18">
    <path clip-path="url(#pc25be0a2c3)" d="M 90 306.473068 
L 98.41206 305.947963 
L 106.824121 305.693832 
L 115.236181 305.722889 
L 123.648241 306.042588 
L 132.060302 306.654938 
L 140.472362 307.556016 
L 148.884422 308.735805 
L 157.296482 310.178395 
L 165.708543 311.862577 
L 174.120603 313.762778 
L 185.336683 316.58234 
L 196.552764 319.661361 
L 210.572864 323.76135 
L 261.045226 338.839225 
L 272.261307 341.881122 
L 283.477387 344.689559 
L 291.889447 346.609799 
L 300.301508 348.344805 
L 308.713568 349.871375 
L 317.125628 351.166419 
L 325.537688 352.207194 
L 333.949749 352.971593 
L 342.361809 353.438487 
L 350.773869 353.588083 
L 356.38191 353.502521 
L 361.98995 353.262981 
L 367.59799 352.865037 
L 373.20603 352.30475 
L 378.81407 351.578695 
L 384.422111 350.683999 
L 390.030151 349.618363 
L 395.638191 348.380081 
L 401.246231 346.968061 
L 406.854271 345.38183 
L 412.462312 343.621548 
L 418.070352 341.688007 
L 423.678392 339.582637 
L 429.286432 337.307502 
L 434.894472 334.865303 
L 443.306533 330.896217 
L 451.718593 326.572787 
L 460.130653 321.912126 
L 468.542714 316.934587 
L 476.954774 311.663829 
L 485.366834 306.126926 
L 493.778894 300.354495 
L 504.994975 292.351372 
L 519.015075 281.986132 
L 558.271357 252.619383 
L 566.683417 246.634128 
L 575.095477 240.884143 
L 583.507538 235.424959 
L 591.919598 230.30882 
L 597.527638 227.112355 
L 603.135678 224.102293 
L 608.743719 221.290033 
L 614.351759 218.685599 
L 619.959799 216.297588 
L 625.567839 214.133145 
L 631.175879 212.197966 
L 636.78392 210.49633 
L 642.39196 209.031146 
L 648 207.804017 
L 648 207.804017 
" style="fill:none;stroke:#3300ff;stroke-linecap:square;stroke-width:0.2;"/>
   </g>
   <g id="line2d_19">
    <defs>
     <path d="M 0 -10 
L -10 10 
L 10 10 
z
" id="me7e08e17bb" style="stroke:#000000;stroke-linejoin:miter;"/>
    </defs>
    <g clip-path="url(#pc25be0a2c3)">
     <use style="stroke:#000000;stroke-linejoin:miter;" x="269.357143" xlink:href="#me7e08e17bb" y="378"/>
     <use style="stroke:#000000;stroke-linejoin:miter;" x="299.25" xlink:href="#me7e08e17bb" y="378"/>
     <use style="stroke:#000000;stroke-linejoin:miter;" x="329.142857" xlink:href="#me7e08e17bb" y="378"/>
     <use style="stroke:#000000;stroke-linejoin:miter;" x="448.714286" xlink:href="#me7e08e17bb" y="378"/>
     <use style="stroke:#000000;stroke-linejoin:miter;" x="478.607143" xlink:href="#me7e08e17bb" y="378"/>
     <use style="stroke:#000000;stroke-linejoin:miter;" x="508.5" xlink:href="#me7e08e17bb" y="378"/>
    </g>
   </g>
   <g id="patch_4">
    <path d="M 90 378 
L 90 51.84 
" style="fill:none;stroke:#000000;stroke-linecap:square;stroke-linejoin:miter;stroke-width:0.8;"/>
   </g>
   <g id="patch_5">
    <path d="M 648 378 
L 648 51.84 
" style="fill:none;stroke:#000000;stroke-linecap:square;stroke-linejoin:miter;stroke-width:0.8;"/>
   </g>
   <g id="patch_6">
    <path d="M 90 378 
L 648 378 
" style="fill:none;stroke:#000000;stroke-linecap:square;stroke-linejoin:miter;stroke-width:0.8;"/>
   </g>
   <g id="patch_7">
    <path d="M 90 51.84 
L 648 51.84 
" style="fill:none;stroke:#000000;stroke-linecap:square;stroke-linejoin:miter;stroke-width:0.8;"/>
   </g>
  </g>
 </g>
 <defs>
  <clipPath id="pc25be0a2c3">
   <rect height="326.16" width="558" x="90" y="51.84"/>
  </clipPath>
 </defs>
</svg>
