<?xml version="1.0" encoding="utf-8" standalone="no"?>
<!DOCTYPE svg PUBLIC "-//W3C//DTD SVG 1.1//EN"
  "http://www.w3.org/Graphics/SVG/1.1/DTD/svg11.dtd">
<!-- Created with matplotlib (http://matplotlib.org/) -->
<svg height="432pt" version="1.1" viewBox="0 0 864 432" width="864pt" xmlns="http://www.w3.org/2000/svg" xmlns:xlink="http://www.w3.org/1999/xlink">
 <defs>
  <style type="text/css">
*{stroke-linecap:butt;stroke-linejoin:round;}
  </style>
 </defs>
 <g id="figure_1">
  <g id="patch_1">
   <path d="M 0 432 
L 864 432 
L 864 0 
L 0 0 
z
" style="fill:none;"/>
  </g>
  <g id="axes_1">
   <g id="patch_2">
    <path d="M 108 378 
L 777.6 378 
L 777.6 51.84 
L 108 51.84 
z
" style="fill:none;"/>
   </g>
   <g id="patch_3">
    <path clip-path="url(#p2e10533f3e)" d="M 108 167.970242 
L 111.364824 169.754425 
L 114.729648 171.518854 
L 118.094472 173.262754 
L 121.459296 174.985387 
L 124.824121 176.686053 
L 128.188945 178.364098 
L 131.553769 180.018913 
L 134.918593 181.64994 
L 138.283417 183.256668 
L 141.648241 184.838643 
L 145.013065 186.395467 
L 148.377889 187.926796 
L 151.742714 189.432349 
L 155.107538 190.911902 
L 158.472362 192.365294 
L 161.837186 193.792424 
L 165.20201 195.193253 
L 168.566834 196.567801 
L 171.931658 197.916148 
L 175.296482 199.238431 
L 178.661307 200.534844 
L 182.026131 201.805632 
L 185.390955 203.05109 
L 188.755779 204.271561 
L 192.120603 205.467429 
L 195.485427 206.639117 
L 198.850251 207.787079 
L 202.215075 208.911802 
L 205.579899 210.013793 
L 208.944724 211.093582 
L 212.309548 212.151709 
L 215.674372 213.188725 
L 219.039196 214.205186 
L 222.40402 215.201646 
L 225.768844 216.178652 
L 229.133668 217.136745 
L 232.498492 218.076449 
L 235.863317 218.998274 
L 239.228141 219.902707 
L 242.592965 220.790213 
L 245.957789 221.661228 
L 249.322613 222.516162 
L 252.687437 223.355394 
L 256.052261 224.179271 
L 259.417085 224.988107 
L 262.78191 225.782182 
L 266.146734 226.561742 
L 269.511558 227.326997 
L 272.876382 228.078123 
L 276.241206 228.815264 
L 279.60603 229.538528 
L 282.970854 230.24799 
L 286.335678 230.943693 
L 289.700503 231.625649 
L 293.065327 232.293842 
L 296.430151 232.948225 
L 299.794975 233.588723 
L 303.159799 234.215239 
L 306.524623 234.827646 
L 309.889447 235.4258 
L 313.254271 236.009529 
L 316.619095 236.578646 
L 319.98392 237.132942 
L 323.348744 237.672192 
L 326.713568 238.196154 
L 330.078392 238.704572 
L 333.443216 239.197175 
L 336.80804 239.673681 
L 340.172864 240.133794 
L 343.537688 240.577209 
L 346.902513 241.003613 
L 350.267337 241.41268 
L 353.632161 241.80408 
L 356.996985 242.177472 
L 360.361809 242.532512 
L 363.726633 242.868847 
L 367.091457 243.186118 
L 370.456281 243.483963 
L 373.821106 243.762014 
L 377.18593 244.019898 
L 380.550754 244.257239 
L 383.915578 244.473656 
L 387.280402 244.668766 
L 390.645226 244.84218 
L 394.01005 244.993509 
L 397.374874 245.122359 
L 400.739698 245.228335 
L 404.104523 245.31104 
L 407.469347 245.370072 
L 410.834171 245.405032 
L 414.198995 245.415515 
L 417.563819 245.40112 
L 420.928643 245.361441 
L 424.293467 245.296075 
L 427.658291 245.204618 
L 431.023116 245.086668 
L 434.38794 244.941823 
L 437.752764 244.769685 
L 441.117588 244.569858 
L 444.482412 244.34195 
L 447.847236 244.085573 
L 451.21206 243.800344 
L 454.576884 243.485887 
L 457.941709 243.141833 
L 461.306533 242.76782 
L 464.671357 242.363496 
L 468.036181 241.928518 
L 471.401005 241.462555 
L 474.765829 240.965287 
L 478.130653 240.43641 
L 481.495477 239.875631 
L 484.860302 239.282674 
L 488.225126 238.657279 
L 491.58995 237.999206 
L 494.954774 237.30823 
L 498.319598 236.584149 
L 501.684422 235.826781 
L 505.049246 235.035965 
L 508.41407 234.211564 
L 511.778894 233.353464 
L 515.143719 232.461577 
L 518.508543 231.535838 
L 521.873367 230.57621 
L 525.238191 229.582682 
L 528.603015 228.555271 
L 531.967839 227.494019 
L 535.332663 226.398999 
L 538.697487 225.270309 
L 542.062312 224.108077 
L 545.427136 222.912459 
L 548.79196 221.683638 
L 552.156784 220.421823 
L 555.521608 219.127251 
L 558.886432 217.800187 
L 562.251256 216.440919 
L 565.61608 215.04976 
L 568.980905 213.627047 
L 572.345729 212.173138 
L 575.710553 210.688415 
L 579.075377 209.173277 
L 582.440201 207.628141 
L 585.805025 206.053443 
L 589.169849 204.449632 
L 592.534673 202.817169 
L 595.899497 201.156529 
L 599.264322 199.468196 
L 602.629146 197.752658 
L 605.99397 196.010415 
L 609.358794 194.241965 
L 612.723618 192.447811 
L 616.088442 190.628456 
L 619.453266 188.784403 
L 622.81809 186.91615 
L 626.182915 185.024191 
L 629.547739 183.109017 
L 632.912563 181.17111 
L 636.277387 179.210947 
L 639.642211 177.228996 
L 643.007035 175.225718 
L 646.371859 173.201564 
L 649.736683 171.15698 
L 653.101508 169.092403 
L 656.466332 167.008262 
L 659.831156 164.904985 
L 663.19598 162.782993 
L 666.560804 160.642706 
L 669.925628 158.484543 
L 673.290452 156.308926 
L 676.655276 154.116283 
L 680.020101 151.907046 
L 683.384925 149.681661 
L 686.749749 147.440584 
L 690.114573 145.184289 
L 693.479397 142.913268 
L 696.844221 140.628037 
L 700.209045 138.329135 
L 703.573869 136.017129 
L 706.938693 133.692617 
L 710.303518 131.356228 
L 713.668342 129.008626 
L 717.033166 126.650511 
L 720.39799 124.282621 
L 723.762814 121.905731 
L 727.127638 119.520655 
L 730.492462 117.128246 
L 733.857286 114.729395 
L 737.222111 112.32503 
L 740.586935 109.916118 
L 743.951759 107.503658 
L 747.316583 105.088686 
L 750.681407 102.672267 
L 754.046231 100.255496 
L 757.411055 97.839493 
L 760.775879 95.425404 
L 764.140704 93.014395 
L 767.505528 90.607651 
L 770.870352 88.206369 
L 774.235176 85.81176 
L 777.6 83.425043 
L 777.6 206.721903 
L 774.235176 207.233933 
L 770.870352 207.798254 
L 767.505528 208.414793 
L 764.140704 209.083411 
L 760.775879 209.803896 
L 757.411055 210.575967 
L 754.046231 211.399268 
L 750.681407 212.27337 
L 747.316583 213.197765 
L 743.951759 214.171868 
L 740.586935 215.195016 
L 737.222111 216.266464 
L 733.857286 217.38539 
L 730.492462 218.550891 
L 727.127638 219.761984 
L 723.762814 221.017609 
L 720.39799 222.316627 
L 717.033166 223.657824 
L 713.668342 225.039914 
L 710.303518 226.46154 
L 706.938693 227.921275 
L 703.573869 229.417631 
L 700.209045 230.949059 
L 696.844221 232.513954 
L 693.479397 234.110659 
L 690.114573 235.737473 
L 686.749749 237.392652 
L 683.384925 239.074416 
L 680.020101 240.780957 
L 676.655276 242.51044 
L 673.290452 244.261011 
L 669.925628 246.030803 
L 666.560804 247.81794 
L 663.19598 249.620542 
L 659.831156 251.436732 
L 656.466332 253.264639 
L 653.101508 255.102403 
L 649.736683 256.948178 
L 646.371859 258.800139 
L 643.007035 260.656483 
L 639.642211 262.515434 
L 636.277387 264.375243 
L 632.912563 266.234195 
L 629.547739 268.090606 
L 626.182915 269.942831 
L 622.81809 271.789259 
L 619.453266 273.628322 
L 616.088442 275.458488 
L 612.723618 277.278269 
L 609.358794 279.086215 
L 605.99397 280.880922 
L 602.629146 282.661024 
L 599.264322 284.425201 
L 595.899497 286.172173 
L 592.534673 287.900701 
L 589.169849 289.60959 
L 585.805025 291.297686 
L 582.440201 292.963874 
L 579.075377 294.607081 
L 575.710553 296.226273 
L 572.345729 297.820457 
L 568.980905 299.388677 
L 565.61608 300.930017 
L 562.251256 302.443596 
L 558.886432 303.928575 
L 555.521608 305.384148 
L 552.156784 306.809546 
L 548.79196 308.204038 
L 545.427136 309.566926 
L 542.062312 310.897551 
L 538.697487 312.195287 
L 535.332663 313.459542 
L 531.967839 314.689761 
L 528.603015 315.885423 
L 525.238191 317.046042 
L 521.873367 318.171165 
L 518.508543 319.260376 
L 515.143719 320.313291 
L 511.778894 321.329564 
L 508.41407 322.30888 
L 505.049246 323.250961 
L 501.684422 324.155563 
L 498.319598 325.022478 
L 494.954774 325.85153 
L 491.58995 326.642581 
L 488.225126 327.395527 
L 484.860302 328.110297 
L 481.495477 328.786857 
L 478.130653 329.425207 
L 474.765829 330.025382 
L 471.401005 330.587451 
L 468.036181 331.111516 
L 464.671357 331.597715 
L 461.306533 332.046218 
L 457.941709 332.457228 
L 454.576884 332.830982 
L 451.21206 333.167748 
L 447.847236 333.467827 
L 444.482412 333.731548 
L 441.117588 333.959272 
L 437.752764 334.15139 
L 434.38794 334.30832 
L 431.023116 334.430508 
L 427.658291 334.518428 
L 424.293467 334.572576 
L 420.928643 334.593477 
L 417.563819 334.581676 
L 414.198995 334.537741 
L 410.834171 334.462262 
L 407.469347 334.355847 
L 404.104523 334.219123 
L 400.739698 334.052735 
L 397.374874 333.857343 
L 394.01005 333.633621 
L 390.645226 333.382258 
L 387.280402 333.103952 
L 383.915578 332.799414 
L 380.550754 332.469363 
L 377.18593 332.114527 
L 373.821106 331.735639 
L 370.456281 331.333441 
L 367.091457 330.908675 
L 363.726633 330.462092 
L 360.361809 329.994441 
L 356.996985 329.506475 
L 353.632161 328.998948 
L 350.267337 328.472615 
L 346.902513 327.928229 
L 343.537688 327.366545 
L 340.172864 326.788315 
L 336.80804 326.19429 
L 333.443216 325.585222 
L 330.078392 324.961859 
L 326.713568 324.32495 
L 323.348744 323.675243 
L 319.98392 323.013486 
L 316.619095 322.340425 
L 313.254271 321.656811 
L 309.889447 320.963394 
L 306.524623 320.260926 
L 303.159799 319.550165 
L 299.794975 318.831871 
L 296.430151 318.106812 
L 293.065327 317.375761 
L 289.700503 316.639499 
L 286.335678 315.898818 
L 282.970854 315.154518 
L 279.60603 314.407411 
L 276.241206 313.658323 
L 272.876382 312.908092 
L 269.511558 312.157571 
L 266.146734 311.407628 
L 262.78191 310.659146 
L 259.417085 309.913026 
L 256.052261 309.170185 
L 252.687437 308.431555 
L 249.322613 307.698087 
L 245.957789 306.970744 
L 242.592965 306.250506 
L 239.228141 305.538367 
L 235.863317 304.835332 
L 232.498492 304.142415 
L 229.133668 303.46064 
L 225.768844 302.791035 
L 222.40402 302.13463 
L 219.039196 301.492455 
L 215.674372 300.865534 
L 212.309548 300.254883 
L 208.944724 299.661508 
L 205.579899 299.086393 
L 202.215075 298.530506 
L 198.850251 297.994785 
L 195.485427 297.48014 
L 192.120603 296.987446 
L 188.755779 296.517538 
L 185.390955 296.071207 
L 182.026131 295.649196 
L 178.661307 295.2522 
L 175.296482 294.880853 
L 171.931658 294.535738 
L 168.566834 294.217371 
L 165.20201 293.926211 
L 161.837186 293.662648 
L 158.472362 293.427009 
L 155.107538 293.219553 
L 151.742714 293.040474 
L 148.377889 292.889898 
L 145.013065 292.767887 
L 141.648241 292.674437 
L 138.283417 292.60948 
L 134.918593 292.572889 
L 131.553769 292.564475 
L 128.188945 292.583994 
L 124.824121 292.631146 
L 121.459296 292.705582 
L 118.094472 292.8069 
L 114.729648 292.934655 
L 111.364824 293.08836 
L 108 293.267485 
z
" style="fill:#cc3300;opacity:0.3;stroke:#cc3300;stroke-linejoin:miter;stroke-width:0.5;"/>
   </g>
   <g id="matplotlib.axis_1">
    <g id="xtick_1">
     <g id="line2d_1">
      <defs>
       <path d="M 0 0 
L 0 3.5 
" id="mb05125b380" style="stroke:#000000;stroke-width:0.8;"/>
      </defs>
      <g>
       <use style="stroke:#000000;stroke-width:0.8;" x="108" xlink:href="#mb05125b380" y="378"/>
      </g>
     </g>
     <g id="text_1">
      <!-- −2 -->
      <defs>
       <path d="M 10.59375 35.5 
L 73.1875 35.5 
L 73.1875 27.203125 
L 10.59375 27.203125 
z
" id="DejaVuSans-2212"/>
       <path d="M 19.1875 8.296875 
L 53.609375 8.296875 
L 53.609375 0 
L 7.328125 0 
L 7.328125 8.296875 
Q 12.9375 14.109375 22.625 23.890625 
Q 32.328125 33.6875 34.8125 36.53125 
Q 39.546875 41.84375 41.421875 45.53125 
Q 43.3125 49.21875 43.3125 52.78125 
Q 43.3125 58.59375 39.234375 62.25 
Q 35.15625 65.921875 28.609375 65.921875 
Q 23.96875 65.921875 18.8125 64.3125 
Q 13.671875 62.703125 7.8125 59.421875 
L 7.8125 69.390625 
Q 13.765625 71.78125 18.9375 73 
Q 24.125 74.21875 28.421875 74.21875 
Q 39.75 74.21875 46.484375 68.546875 
Q 53.21875 62.890625 53.21875 53.421875 
Q 53.21875 48.921875 51.53125 44.890625 
Q 49.859375 40.875 45.40625 35.40625 
Q 44.1875 33.984375 37.640625 27.21875 
Q 31.109375 20.453125 19.1875 8.296875 
z
" id="DejaVuSans-32"/>
      </defs>
      <g transform="translate(100.628906 392.598437)scale(0.1 -0.1)">
       <use xlink:href="#DejaVuSans-2212"/>
       <use x="83.789062" xlink:href="#DejaVuSans-32"/>
      </g>
     </g>
    </g>
    <g id="xtick_2">
     <g id="line2d_2">
      <g>
       <use style="stroke:#000000;stroke-width:0.8;" x="203.657143" xlink:href="#mb05125b380" y="378"/>
      </g>
     </g>
     <g id="text_2">
      <!-- 0 -->
      <defs>
       <path d="M 31.78125 66.40625 
Q 24.171875 66.40625 20.328125 58.90625 
Q 16.5 51.421875 16.5 36.375 
Q 16.5 21.390625 20.328125 13.890625 
Q 24.171875 6.390625 31.78125 6.390625 
Q 39.453125 6.390625 43.28125 13.890625 
Q 47.125 21.390625 47.125 36.375 
Q 47.125 51.421875 43.28125 58.90625 
Q 39.453125 66.40625 31.78125 66.40625 
z
M 31.78125 74.21875 
Q 44.046875 74.21875 50.515625 64.515625 
Q 56.984375 54.828125 56.984375 36.375 
Q 56.984375 17.96875 50.515625 8.265625 
Q 44.046875 -1.421875 31.78125 -1.421875 
Q 19.53125 -1.421875 13.0625 8.265625 
Q 6.59375 17.96875 6.59375 36.375 
Q 6.59375 54.828125 13.0625 64.515625 
Q 19.53125 74.21875 31.78125 74.21875 
z
" id="DejaVuSans-30"/>
      </defs>
      <g transform="translate(200.475893 392.598437)scale(0.1 -0.1)">
       <use xlink:href="#DejaVuSans-30"/>
      </g>
     </g>
    </g>
    <g id="xtick_3">
     <g id="line2d_3">
      <g>
       <use style="stroke:#000000;stroke-width:0.8;" x="299.314286" xlink:href="#mb05125b380" y="378"/>
      </g>
     </g>
     <g id="text_3">
      <!-- 2 -->
      <g transform="translate(296.133036 392.598437)scale(0.1 -0.1)">
       <use xlink:href="#DejaVuSans-32"/>
      </g>
     </g>
    </g>
    <g id="xtick_4">
     <g id="line2d_4">
      <g>
       <use style="stroke:#000000;stroke-width:0.8;" x="394.971429" xlink:href="#mb05125b380" y="378"/>
      </g>
     </g>
     <g id="text_4">
      <!-- 4 -->
      <defs>
       <path d="M 37.796875 64.3125 
L 12.890625 25.390625 
L 37.796875 25.390625 
z
M 35.203125 72.90625 
L 47.609375 72.90625 
L 47.609375 25.390625 
L 58.015625 25.390625 
L 58.015625 17.1875 
L 47.609375 17.1875 
L 47.609375 0 
L 37.796875 0 
L 37.796875 17.1875 
L 4.890625 17.1875 
L 4.890625 26.703125 
z
" id="DejaVuSans-34"/>
      </defs>
      <g transform="translate(391.790179 392.598437)scale(0.1 -0.1)">
       <use xlink:href="#DejaVuSans-34"/>
      </g>
     </g>
    </g>
    <g id="xtick_5">
     <g id="line2d_5">
      <g>
       <use style="stroke:#000000;stroke-width:0.8;" x="490.628571" xlink:href="#mb05125b380" y="378"/>
      </g>
     </g>
     <g id="text_5">
      <!-- 6 -->
      <defs>
       <path d="M 33.015625 40.375 
Q 26.375 40.375 22.484375 35.828125 
Q 18.609375 31.296875 18.609375 23.390625 
Q 18.609375 15.53125 22.484375 10.953125 
Q 26.375 6.390625 33.015625 6.390625 
Q 39.65625 6.390625 43.53125 10.953125 
Q 47.40625 15.53125 47.40625 23.390625 
Q 47.40625 31.296875 43.53125 35.828125 
Q 39.65625 40.375 33.015625 40.375 
z
M 52.59375 71.296875 
L 52.59375 62.3125 
Q 48.875 64.0625 45.09375 64.984375 
Q 41.3125 65.921875 37.59375 65.921875 
Q 27.828125 65.921875 22.671875 59.328125 
Q 17.53125 52.734375 16.796875 39.40625 
Q 19.671875 43.65625 24.015625 45.921875 
Q 28.375 48.1875 33.59375 48.1875 
Q 44.578125 48.1875 50.953125 41.515625 
Q 57.328125 34.859375 57.328125 23.390625 
Q 57.328125 12.15625 50.6875 5.359375 
Q 44.046875 -1.421875 33.015625 -1.421875 
Q 20.359375 -1.421875 13.671875 8.265625 
Q 6.984375 17.96875 6.984375 36.375 
Q 6.984375 53.65625 15.1875 63.9375 
Q 23.390625 74.21875 37.203125 74.21875 
Q 40.921875 74.21875 44.703125 73.484375 
Q 48.484375 72.75 52.59375 71.296875 
z
" id="DejaVuSans-36"/>
      </defs>
      <g transform="translate(487.447321 392.598437)scale(0.1 -0.1)">
       <use xlink:href="#DejaVuSans-36"/>
      </g>
     </g>
    </g>
    <g id="xtick_6">
     <g id="line2d_6">
      <g>
       <use style="stroke:#000000;stroke-width:0.8;" x="586.285714" xlink:href="#mb05125b380" y="378"/>
      </g>
     </g>
     <g id="text_6">
      <!-- 8 -->
      <defs>
       <path d="M 31.78125 34.625 
Q 24.75 34.625 20.71875 30.859375 
Q 16.703125 27.09375 16.703125 20.515625 
Q 16.703125 13.921875 20.71875 10.15625 
Q 24.75 6.390625 31.78125 6.390625 
Q 38.8125 6.390625 42.859375 10.171875 
Q 46.921875 13.96875 46.921875 20.515625 
Q 46.921875 27.09375 42.890625 30.859375 
Q 38.875 34.625 31.78125 34.625 
z
M 21.921875 38.8125 
Q 15.578125 40.375 12.03125 44.71875 
Q 8.5 49.078125 8.5 55.328125 
Q 8.5 64.0625 14.71875 69.140625 
Q 20.953125 74.21875 31.78125 74.21875 
Q 42.671875 74.21875 48.875 69.140625 
Q 55.078125 64.0625 55.078125 55.328125 
Q 55.078125 49.078125 51.53125 44.71875 
Q 48 40.375 41.703125 38.8125 
Q 48.828125 37.15625 52.796875 32.3125 
Q 56.78125 27.484375 56.78125 20.515625 
Q 56.78125 9.90625 50.3125 4.234375 
Q 43.84375 -1.421875 31.78125 -1.421875 
Q 19.734375 -1.421875 13.25 4.234375 
Q 6.78125 9.90625 6.78125 20.515625 
Q 6.78125 27.484375 10.78125 32.3125 
Q 14.796875 37.15625 21.921875 38.8125 
z
M 18.3125 54.390625 
Q 18.3125 48.734375 21.84375 45.5625 
Q 25.390625 42.390625 31.78125 42.390625 
Q 38.140625 42.390625 41.71875 45.5625 
Q 45.3125 48.734375 45.3125 54.390625 
Q 45.3125 60.0625 41.71875 63.234375 
Q 38.140625 66.40625 31.78125 66.40625 
Q 25.390625 66.40625 21.84375 63.234375 
Q 18.3125 60.0625 18.3125 54.390625 
z
" id="DejaVuSans-38"/>
      </defs>
      <g transform="translate(583.104464 392.598437)scale(0.1 -0.1)">
       <use xlink:href="#DejaVuSans-38"/>
      </g>
     </g>
    </g>
    <g id="xtick_7">
     <g id="line2d_7">
      <g>
       <use style="stroke:#000000;stroke-width:0.8;" x="681.942857" xlink:href="#mb05125b380" y="378"/>
      </g>
     </g>
     <g id="text_7">
      <!-- 10 -->
      <defs>
       <path d="M 12.40625 8.296875 
L 28.515625 8.296875 
L 28.515625 63.921875 
L 10.984375 60.40625 
L 10.984375 69.390625 
L 28.421875 72.90625 
L 38.28125 72.90625 
L 38.28125 8.296875 
L 54.390625 8.296875 
L 54.390625 0 
L 12.40625 0 
z
" id="DejaVuSans-31"/>
      </defs>
      <g transform="translate(675.580357 392.598437)scale(0.1 -0.1)">
       <use xlink:href="#DejaVuSans-31"/>
       <use x="63.623047" xlink:href="#DejaVuSans-30"/>
      </g>
     </g>
    </g>
    <g id="xtick_8">
     <g id="line2d_8">
      <g>
       <use style="stroke:#000000;stroke-width:0.8;" x="777.6" xlink:href="#mb05125b380" y="378"/>
      </g>
     </g>
     <g id="text_8">
      <!-- 12 -->
      <g transform="translate(771.2375 392.598437)scale(0.1 -0.1)">
       <use xlink:href="#DejaVuSans-31"/>
       <use x="63.623047" xlink:href="#DejaVuSans-32"/>
      </g>
     </g>
    </g>
    <g id="text_9">
     <!-- $x$ -->
     <defs>
      <path d="M 60.015625 54.6875 
L 34.90625 27.875 
L 50.296875 0 
L 39.984375 0 
L 28.421875 21.6875 
L 8.296875 0 
L -2.59375 0 
L 24.3125 28.8125 
L 10.015625 54.6875 
L 20.3125 54.6875 
L 30.8125 34.90625 
L 49.125 54.6875 
z
" id="DejaVuSans-Oblique-78"/>
     </defs>
     <g transform="translate(436.8 413.875)scale(0.2 -0.2)">
      <use transform="translate(0 0.3125)" xlink:href="#DejaVuSans-Oblique-78"/>
     </g>
    </g>
   </g>
   <g id="matplotlib.axis_2">
    <g id="ytick_1">
     <g id="line2d_9">
      <defs>
       <path d="M 0 0 
L -3.5 0 
" id="meb9d38c747" style="stroke:#000000;stroke-width:0.8;"/>
      </defs>
      <g>
       <use style="stroke:#000000;stroke-width:0.8;" x="108" xlink:href="#meb9d38c747" y="378"/>
      </g>
     </g>
     <g id="text_10">
      <!-- −4.0 -->
      <defs>
       <path d="M 10.6875 12.40625 
L 21 12.40625 
L 21 0 
L 10.6875 0 
z
" id="DejaVuSans-2e"/>
      </defs>
      <g transform="translate(76.717187 381.799219)scale(0.1 -0.1)">
       <use xlink:href="#DejaVuSans-2212"/>
       <use x="83.789062" xlink:href="#DejaVuSans-34"/>
       <use x="147.412109" xlink:href="#DejaVuSans-2e"/>
       <use x="179.199219" xlink:href="#DejaVuSans-30"/>
      </g>
     </g>
    </g>
    <g id="ytick_2">
     <g id="line2d_10">
      <g>
       <use style="stroke:#000000;stroke-width:0.8;" x="108" xlink:href="#meb9d38c747" y="337.23"/>
      </g>
     </g>
     <g id="text_11">
      <!-- −3.5 -->
      <defs>
       <path d="M 40.578125 39.3125 
Q 47.65625 37.796875 51.625 33 
Q 55.609375 28.21875 55.609375 21.1875 
Q 55.609375 10.40625 48.1875 4.484375 
Q 40.765625 -1.421875 27.09375 -1.421875 
Q 22.515625 -1.421875 17.65625 -0.515625 
Q 12.796875 0.390625 7.625 2.203125 
L 7.625 11.71875 
Q 11.71875 9.328125 16.59375 8.109375 
Q 21.484375 6.890625 26.8125 6.890625 
Q 36.078125 6.890625 40.9375 10.546875 
Q 45.796875 14.203125 45.796875 21.1875 
Q 45.796875 27.640625 41.28125 31.265625 
Q 36.765625 34.90625 28.71875 34.90625 
L 20.21875 34.90625 
L 20.21875 43.015625 
L 29.109375 43.015625 
Q 36.375 43.015625 40.234375 45.921875 
Q 44.09375 48.828125 44.09375 54.296875 
Q 44.09375 59.90625 40.109375 62.90625 
Q 36.140625 65.921875 28.71875 65.921875 
Q 24.65625 65.921875 20.015625 65.03125 
Q 15.375 64.15625 9.8125 62.3125 
L 9.8125 71.09375 
Q 15.4375 72.65625 20.34375 73.4375 
Q 25.25 74.21875 29.59375 74.21875 
Q 40.828125 74.21875 47.359375 69.109375 
Q 53.90625 64.015625 53.90625 55.328125 
Q 53.90625 49.265625 50.4375 45.09375 
Q 46.96875 40.921875 40.578125 39.3125 
z
" id="DejaVuSans-33"/>
       <path d="M 10.796875 72.90625 
L 49.515625 72.90625 
L 49.515625 64.59375 
L 19.828125 64.59375 
L 19.828125 46.734375 
Q 21.96875 47.46875 24.109375 47.828125 
Q 26.265625 48.1875 28.421875 48.1875 
Q 40.625 48.1875 47.75 41.5 
Q 54.890625 34.8125 54.890625 23.390625 
Q 54.890625 11.625 47.5625 5.09375 
Q 40.234375 -1.421875 26.90625 -1.421875 
Q 22.3125 -1.421875 17.546875 -0.640625 
Q 12.796875 0.140625 7.71875 1.703125 
L 7.71875 11.625 
Q 12.109375 9.234375 16.796875 8.0625 
Q 21.484375 6.890625 26.703125 6.890625 
Q 35.15625 6.890625 40.078125 11.328125 
Q 45.015625 15.765625 45.015625 23.390625 
Q 45.015625 31 40.078125 35.4375 
Q 35.15625 39.890625 26.703125 39.890625 
Q 22.75 39.890625 18.8125 39.015625 
Q 14.890625 38.140625 10.796875 36.28125 
z
" id="DejaVuSans-35"/>
      </defs>
      <g transform="translate(76.717187 341.029219)scale(0.1 -0.1)">
       <use xlink:href="#DejaVuSans-2212"/>
       <use x="83.789062" xlink:href="#DejaVuSans-33"/>
       <use x="147.412109" xlink:href="#DejaVuSans-2e"/>
       <use x="179.199219" xlink:href="#DejaVuSans-35"/>
      </g>
     </g>
    </g>
    <g id="ytick_3">
     <g id="line2d_11">
      <g>
       <use style="stroke:#000000;stroke-width:0.8;" x="108" xlink:href="#meb9d38c747" y="296.46"/>
      </g>
     </g>
     <g id="text_12">
      <!-- −3.0 -->
      <g transform="translate(76.717187 300.259219)scale(0.1 -0.1)">
       <use xlink:href="#DejaVuSans-2212"/>
       <use x="83.789062" xlink:href="#DejaVuSans-33"/>
       <use x="147.412109" xlink:href="#DejaVuSans-2e"/>
       <use x="179.199219" xlink:href="#DejaVuSans-30"/>
      </g>
     </g>
    </g>
    <g id="ytick_4">
     <g id="line2d_12">
      <g>
       <use style="stroke:#000000;stroke-width:0.8;" x="108" xlink:href="#meb9d38c747" y="255.69"/>
      </g>
     </g>
     <g id="text_13">
      <!-- −2.5 -->
      <g transform="translate(76.717187 259.489219)scale(0.1 -0.1)">
       <use xlink:href="#DejaVuSans-2212"/>
       <use x="83.789062" xlink:href="#DejaVuSans-32"/>
       <use x="147.412109" xlink:href="#DejaVuSans-2e"/>
       <use x="179.199219" xlink:href="#DejaVuSans-35"/>
      </g>
     </g>
    </g>
    <g id="ytick_5">
     <g id="line2d_13">
      <g>
       <use style="stroke:#000000;stroke-width:0.8;" x="108" xlink:href="#meb9d38c747" y="214.92"/>
      </g>
     </g>
     <g id="text_14">
      <!-- −2.0 -->
      <g transform="translate(76.717187 218.719219)scale(0.1 -0.1)">
       <use xlink:href="#DejaVuSans-2212"/>
       <use x="83.789062" xlink:href="#DejaVuSans-32"/>
       <use x="147.412109" xlink:href="#DejaVuSans-2e"/>
       <use x="179.199219" xlink:href="#DejaVuSans-30"/>
      </g>
     </g>
    </g>
    <g id="ytick_6">
     <g id="line2d_14">
      <g>
       <use style="stroke:#000000;stroke-width:0.8;" x="108" xlink:href="#meb9d38c747" y="174.15"/>
      </g>
     </g>
     <g id="text_15">
      <!-- −1.5 -->
      <g transform="translate(76.717187 177.949219)scale(0.1 -0.1)">
       <use xlink:href="#DejaVuSans-2212"/>
       <use x="83.789062" xlink:href="#DejaVuSans-31"/>
       <use x="147.412109" xlink:href="#DejaVuSans-2e"/>
       <use x="179.199219" xlink:href="#DejaVuSans-35"/>
      </g>
     </g>
    </g>
    <g id="ytick_7">
     <g id="line2d_15">
      <g>
       <use style="stroke:#000000;stroke-width:0.8;" x="108" xlink:href="#meb9d38c747" y="133.38"/>
      </g>
     </g>
     <g id="text_16">
      <!-- −1.0 -->
      <g transform="translate(76.717187 137.179219)scale(0.1 -0.1)">
       <use xlink:href="#DejaVuSans-2212"/>
       <use x="83.789062" xlink:href="#DejaVuSans-31"/>
       <use x="147.412109" xlink:href="#DejaVuSans-2e"/>
       <use x="179.199219" xlink:href="#DejaVuSans-30"/>
      </g>
     </g>
    </g>
    <g id="ytick_8">
     <g id="line2d_16">
      <g>
       <use style="stroke:#000000;stroke-width:0.8;" x="108" xlink:href="#meb9d38c747" y="92.61"/>
      </g>
     </g>
     <g id="text_17">
      <!-- −0.5 -->
      <g transform="translate(76.717187 96.409219)scale(0.1 -0.1)">
       <use xlink:href="#DejaVuSans-2212"/>
       <use x="83.789062" xlink:href="#DejaVuSans-30"/>
       <use x="147.412109" xlink:href="#DejaVuSans-2e"/>
       <use x="179.199219" xlink:href="#DejaVuSans-35"/>
      </g>
     </g>
    </g>
    <g id="ytick_9">
     <g id="line2d_17">
      <g>
       <use style="stroke:#000000;stroke-width:0.8;" x="108" xlink:href="#meb9d38c747" y="51.84"/>
      </g>
     </g>
     <g id="text_18">
      <!-- 0.0 -->
      <g transform="translate(85.096875 55.639219)scale(0.1 -0.1)">
       <use xlink:href="#DejaVuSans-30"/>
       <use x="63.623047" xlink:href="#DejaVuSans-2e"/>
       <use x="95.410156" xlink:href="#DejaVuSans-30"/>
      </g>
     </g>
    </g>
    <g id="text_19">
     <!-- $y$ -->
     <defs>
      <path d="M 24.8125 -5.078125 
Q 18.5625 -15.578125 14.625 -18.1875 
Q 10.6875 -20.796875 4.59375 -20.796875 
L -2.484375 -20.796875 
L -0.984375 -13.28125 
L 4.203125 -13.28125 
Q 7.953125 -13.28125 10.59375 -11.234375 
Q 13.234375 -9.1875 16.5 -3.21875 
L 19.28125 2 
L 7.171875 54.6875 
L 16.703125 54.6875 
L 25.78125 12.796875 
L 50.875 54.6875 
L 60.296875 54.6875 
z
" id="DejaVuSans-Oblique-79"/>
     </defs>
     <g transform="translate(68.517187 220.92)rotate(-90)scale(0.2 -0.2)">
      <use transform="translate(0 0.3125)" xlink:href="#DejaVuSans-Oblique-79"/>
     </g>
    </g>
   </g>
   <g id="line2d_18">
    <defs>
     <path d="M 0 2.5 
C 0.663008 2.5 1.29895 2.236584 1.767767 1.767767 
C 2.236584 1.29895 2.5 0.663008 2.5 0 
C 2.5 -0.663008 2.236584 -1.29895 1.767767 -1.767767 
C 1.29895 -2.236584 0.663008 -2.5 0 -2.5 
C -0.663008 -2.5 -1.29895 -2.236584 -1.767767 -1.767767 
C -2.236584 -1.29895 -2.5 -0.663008 -2.5 0 
C -2.5 0.663008 -2.236584 1.29895 -1.767767 1.767767 
C -1.29895 2.236584 -0.663008 2.5 0 2.5 
z
" id="m6ce3722448" style="stroke:#ff0000;"/>
    </defs>
    <g clip-path="url(#p2e10533f3e)">
     <use style="fill:#ff0000;stroke:#ff0000;" x="203.657143" xlink:href="#m6ce3722448" y="260.716393"/>
     <use style="fill:#ff0000;stroke:#ff0000;" x="209.635714" xlink:href="#m6ce3722448" y="259.754618"/>
     <use style="fill:#ff0000;stroke:#ff0000;" x="215.614286" xlink:href="#m6ce3722448" y="243.473941"/>
     <use style="fill:#ff0000;stroke:#ff0000;" x="221.592857" xlink:href="#m6ce3722448" y="250.511776"/>
     <use style="fill:#ff0000;stroke:#ff0000;" x="227.571429" xlink:href="#m6ce3722448" y="245.167451"/>
     <use style="fill:#ff0000;stroke:#ff0000;" x="233.55" xlink:href="#m6ce3722448" y="245.153807"/>
     <use style="fill:#ff0000;stroke:#ff0000;" x="239.528571" xlink:href="#m6ce3722448" y="262.350949"/>
     <use style="fill:#ff0000;stroke:#ff0000;" x="245.507143" xlink:href="#m6ce3722448" y="277.654432"/>
     <use style="fill:#ff0000;stroke:#ff0000;" x="251.485714" xlink:href="#m6ce3722448" y="246.534656"/>
     <use style="fill:#ff0000;stroke:#ff0000;" x="257.464286" xlink:href="#m6ce3722448" y="248.178866"/>
     <use style="fill:#ff0000;stroke:#ff0000;" x="263.442857" xlink:href="#m6ce3722448" y="268.359886"/>
     <use style="fill:#ff0000;stroke:#ff0000;" x="269.421429" xlink:href="#m6ce3722448" y="267.8598"/>
     <use style="fill:#ff0000;stroke:#ff0000;" x="275.4" xlink:href="#m6ce3722448" y="311.548379"/>
     <use style="fill:#ff0000;stroke:#ff0000;" x="281.378571" xlink:href="#m6ce3722448" y="331.184192"/>
     <use style="fill:#ff0000;stroke:#ff0000;" x="287.357143" xlink:href="#m6ce3722448" y="323.059514"/>
     <use style="fill:#ff0000;stroke:#ff0000;" x="293.335714" xlink:href="#m6ce3722448" y="282.665993"/>
     <use style="fill:#ff0000;stroke:#ff0000;" x="299.314286" xlink:href="#m6ce3722448" y="289.483427"/>
     <use style="fill:#ff0000;stroke:#ff0000;" x="305.292857" xlink:href="#m6ce3722448" y="278.089259"/>
     <use style="fill:#ff0000;stroke:#ff0000;" x="311.271429" xlink:href="#m6ce3722448" y="243.484243"/>
     <use style="fill:#ff0000;stroke:#ff0000;" x="317.25" xlink:href="#m6ce3722448" y="306.817537"/>
     <use style="fill:#ff0000;stroke:#ff0000;" x="323.228571" xlink:href="#m6ce3722448" y="278.252524"/>
     <use style="fill:#ff0000;stroke:#ff0000;" x="329.207143" xlink:href="#m6ce3722448" y="257.852272"/>
     <use style="fill:#ff0000;stroke:#ff0000;" x="335.185714" xlink:href="#m6ce3722448" y="251.796784"/>
     <use style="fill:#ff0000;stroke:#ff0000;" x="341.164286" xlink:href="#m6ce3722448" y="258.875145"/>
     <use style="fill:#ff0000;stroke:#ff0000;" x="347.142857" xlink:href="#m6ce3722448" y="256.514475"/>
     <use style="fill:#ff0000;stroke:#ff0000;" x="538.457143" xlink:href="#m6ce3722448" y="273.547459"/>
     <use style="fill:#ff0000;stroke:#ff0000;" x="544.435714" xlink:href="#m6ce3722448" y="263.68204"/>
     <use style="fill:#ff0000;stroke:#ff0000;" x="550.414286" xlink:href="#m6ce3722448" y="270.721598"/>
     <use style="fill:#ff0000;stroke:#ff0000;" x="556.392857" xlink:href="#m6ce3722448" y="273.740785"/>
     <use style="fill:#ff0000;stroke:#ff0000;" x="562.371429" xlink:href="#m6ce3722448" y="276.728242"/>
     <use style="fill:#ff0000;stroke:#ff0000;" x="568.35" xlink:href="#m6ce3722448" y="250.535247"/>
     <use style="fill:#ff0000;stroke:#ff0000;" x="574.328571" xlink:href="#m6ce3722448" y="250.591163"/>
     <use style="fill:#ff0000;stroke:#ff0000;" x="580.307143" xlink:href="#m6ce3722448" y="278.149603"/>
     <use style="fill:#ff0000;stroke:#ff0000;" x="586.285714" xlink:href="#m6ce3722448" y="247.766075"/>
     <use style="fill:#ff0000;stroke:#ff0000;" x="592.264286" xlink:href="#m6ce3722448" y="278.266387"/>
     <use style="fill:#ff0000;stroke:#ff0000;" x="598.242857" xlink:href="#m6ce3722448" y="237.040695"/>
     <use style="fill:#ff0000;stroke:#ff0000;" x="604.221429" xlink:href="#m6ce3722448" y="262.352692"/>
     <use style="fill:#ff0000;stroke:#ff0000;" x="610.2" xlink:href="#m6ce3722448" y="218.252951"/>
     <use style="fill:#ff0000;stroke:#ff0000;" x="616.178571" xlink:href="#m6ce3722448" y="225.580599"/>
     <use style="fill:#ff0000;stroke:#ff0000;" x="622.157143" xlink:href="#m6ce3722448" y="212.949081"/>
     <use style="fill:#ff0000;stroke:#ff0000;" x="628.135714" xlink:href="#m6ce3722448" y="221.684033"/>
     <use style="fill:#ff0000;stroke:#ff0000;" x="634.114286" xlink:href="#m6ce3722448" y="230.437676"/>
     <use style="fill:#ff0000;stroke:#ff0000;" x="640.092857" xlink:href="#m6ce3722448" y="218.341995"/>
     <use style="fill:#ff0000;stroke:#ff0000;" x="646.071429" xlink:href="#m6ce3722448" y="197.354422"/>
     <use style="fill:#ff0000;stroke:#ff0000;" x="652.05" xlink:href="#m6ce3722448" y="201.36591"/>
     <use style="fill:#ff0000;stroke:#ff0000;" x="658.028571" xlink:href="#m6ce3722448" y="174.00277"/>
     <use style="fill:#ff0000;stroke:#ff0000;" x="664.007143" xlink:href="#m6ce3722448" y="204.157894"/>
     <use style="fill:#ff0000;stroke:#ff0000;" x="669.985714" xlink:href="#m6ce3722448" y="205.531466"/>
     <use style="fill:#ff0000;stroke:#ff0000;" x="675.964286" xlink:href="#m6ce3722448" y="210.00916"/>
     <use style="fill:#ff0000;stroke:#ff0000;" x="681.942857" xlink:href="#m6ce3722448" y="203.681185"/>
    </g>
   </g>
   <g id="line2d_19">
    <path clip-path="url(#p2e10533f3e)" d="M 108 230.618864 
L 141.648241 238.75654 
L 202.215075 253.721154 
L 235.863317 261.916803 
L 259.417085 267.450567 
L 279.60603 271.97297 
L 296.430151 275.527518 
L 313.254271 278.83317 
L 326.713568 281.260552 
L 340.172864 283.461054 
L 353.632161 285.401514 
L 363.726633 286.665469 
L 373.821106 287.748827 
L 383.915578 288.636535 
L 394.01005 289.313565 
L 404.104523 289.765081 
L 414.198995 289.976628 
L 424.293467 289.934326 
L 434.38794 289.625071 
L 444.482412 289.036749 
L 454.576884 288.158435 
L 464.671357 286.980605 
L 474.765829 285.495335 
L 484.860302 283.696485 
L 494.954774 281.57988 
L 505.049246 279.143463 
L 515.143719 276.387434 
L 525.238191 273.314362 
L 535.332663 269.92927 
L 545.427136 266.239693 
L 555.521608 262.255699 
L 565.61608 257.989888 
L 575.710553 253.457344 
L 585.805025 248.675565 
L 595.899497 243.664351 
L 605.99397 238.445668 
L 619.453266 231.206363 
L 632.912563 223.702653 
L 649.736683 214.052579 
L 683.384925 194.378038 
L 703.573869 182.71738 
L 717.033166 175.154168 
L 730.492462 167.839568 
L 740.586935 162.555567 
L 750.681407 157.472819 
L 760.775879 152.61465 
L 770.870352 148.002311 
L 777.6 145.073473 
L 777.6 145.073473 
" style="fill:none;stroke:#3300ff;stroke-linecap:square;stroke-width:2;"/>
   </g>
   <g id="line2d_20">
    <path clip-path="url(#p2e10533f3e)" d="M 108 167.970242 
L 121.459296 174.985387 
L 131.553769 180.018913 
L 141.648241 184.838643 
L 151.742714 189.432349 
L 161.837186 193.792424 
L 171.931658 197.916148 
L 182.026131 201.805632 
L 192.120603 205.467429 
L 202.215075 208.911802 
L 212.309548 212.151709 
L 222.40402 215.201646 
L 235.863317 218.998274 
L 249.322613 222.516162 
L 262.78191 225.782182 
L 276.241206 228.815264 
L 289.700503 231.625649 
L 303.159799 234.215239 
L 316.619095 236.578646 
L 330.078392 238.704572 
L 343.537688 240.577209 
L 356.996985 242.177472 
L 367.091457 243.186118 
L 377.18593 244.019898 
L 387.280402 244.668766 
L 397.374874 245.122359 
L 407.469347 245.370072 
L 417.563819 245.40112 
L 427.658291 245.204618 
L 437.752764 244.769685 
L 447.847236 244.085573 
L 457.941709 243.141833 
L 468.036181 241.928518 
L 478.130653 240.43641 
L 488.225126 238.657279 
L 498.319598 236.584149 
L 508.41407 234.211564 
L 518.508543 231.535838 
L 528.603015 228.555271 
L 538.697487 225.270309 
L 548.79196 221.683638 
L 558.886432 217.800187 
L 568.980905 213.627047 
L 579.075377 209.173277 
L 589.169849 204.449632 
L 599.264322 199.468196 
L 609.358794 194.241965 
L 619.453266 188.784403 
L 629.547739 183.109017 
L 639.642211 177.228996 
L 653.101508 169.092403 
L 666.560804 160.642706 
L 680.020101 151.907046 
L 693.479397 142.913268 
L 710.303518 131.356228 
L 727.127638 119.520655 
L 754.046231 100.255496 
L 777.6 83.425043 
L 777.6 83.425043 
" style="fill:none;stroke:#3300ff;stroke-linecap:square;stroke-width:0.2;"/>
   </g>
   <g id="line2d_21">
    <path clip-path="url(#p2e10533f3e)" d="M 108 293.267485 
L 118.094472 292.8069 
L 128.188945 292.583994 
L 138.283417 292.60948 
L 148.377889 292.889898 
L 158.472362 293.427009 
L 168.566834 294.217371 
L 178.661307 295.2522 
L 188.755779 296.517538 
L 198.850251 297.994785 
L 208.944724 299.661508 
L 222.40402 302.13463 
L 235.863317 304.835332 
L 252.687437 308.431555 
L 313.254271 321.656811 
L 330.078392 324.961859 
L 343.537688 327.366545 
L 356.996985 329.506475 
L 367.091457 330.908675 
L 377.18593 332.114527 
L 387.280402 333.103952 
L 397.374874 333.857343 
L 407.469347 334.355847 
L 417.563819 334.581676 
L 427.658291 334.518428 
L 437.752764 334.15139 
L 447.847236 333.467827 
L 457.941709 332.457228 
L 464.671357 331.597715 
L 471.401005 330.587451 
L 478.130653 329.425207 
L 484.860302 328.110297 
L 491.58995 326.642581 
L 501.684422 324.155563 
L 511.778894 321.329564 
L 521.873367 318.171165 
L 531.967839 314.689761 
L 542.062312 310.897551 
L 552.156784 306.809546 
L 562.251256 302.443596 
L 572.345729 297.820457 
L 582.440201 292.963874 
L 592.534673 287.900701 
L 605.99397 280.880922 
L 622.81809 271.789259 
L 669.925628 246.030803 
L 683.384925 239.074416 
L 693.479397 234.110659 
L 703.573869 229.417631 
L 713.668342 225.039914 
L 720.39799 222.316627 
L 727.127638 219.761984 
L 733.857286 217.38539 
L 740.586935 215.195016 
L 747.316583 213.197765 
L 754.046231 211.399268 
L 760.775879 209.803896 
L 767.505528 208.414793 
L 774.235176 207.233933 
L 777.6 206.721903 
L 777.6 206.721903 
" style="fill:none;stroke:#3300ff;stroke-linecap:square;stroke-width:0.2;"/>
   </g>
   <g id="patch_4">
    <path d="M 108 378 
L 108 51.84 
" style="fill:none;stroke:#000000;stroke-linecap:square;stroke-linejoin:miter;stroke-width:0.8;"/>
   </g>
   <g id="patch_5">
    <path d="M 777.6 378 
L 777.6 51.84 
" style="fill:none;stroke:#000000;stroke-linecap:square;stroke-linejoin:miter;stroke-width:0.8;"/>
   </g>
   <g id="patch_6">
    <path d="M 108 378 
L 777.6 378 
" style="fill:none;stroke:#000000;stroke-linecap:square;stroke-linejoin:miter;stroke-width:0.8;"/>
   </g>
   <g id="patch_7">
    <path d="M 108 51.84 
L 777.6 51.84 
" style="fill:none;stroke:#000000;stroke-linecap:square;stroke-linejoin:miter;stroke-width:0.8;"/>
   </g>
  </g>
 </g>
 <defs>
  <clipPath id="p2e10533f3e">
   <rect height="326.16" width="669.6" x="108" y="51.84"/>
  </clipPath>
 </defs>
</svg>
