<?xml version="1.0" encoding="utf-8" standalone="no"?>
<!DOCTYPE svg PUBLIC "-//W3C//DTD SVG 1.1//EN"
  "http://www.w3.org/Graphics/SVG/1.1/DTD/svg11.dtd">
<!-- Created with matplotlib (http://matplotlib.org/) -->
<svg height="432pt" version="1.1" viewBox="0 0 720 432" width="720pt" xmlns="http://www.w3.org/2000/svg" xmlns:xlink="http://www.w3.org/1999/xlink">
 <defs>
  <style type="text/css">
*{stroke-linecap:butt;stroke-linejoin:round;}
  </style>
 </defs>
 <g id="figure_1">
  <g id="patch_1">
   <path d="M 0 432 
L 720 432 
L 720 0 
L 0 0 
z
" style="fill:none;"/>
  </g>
  <g id="axes_1">
   <g id="patch_2">
    <path d="M 90 378 
L 648 378 
L 648 51.84 
L 90 51.84 
z
" style="fill:none;"/>
   </g>
   <g id="patch_3">
    <path clip-path="url(#p5b11828832)" d="M 90 93.704938 
L 92.80402 98.230687 
L 95.60804 102.842384 
L 98.41206 107.526616 
L 101.21608 112.269072 
L 104.020101 117.054657 
L 106.824121 121.867631 
L 109.628141 126.691755 
L 112.432161 131.51044 
L 115.236181 136.306905 
L 118.040201 141.064339 
L 120.844221 145.766049 
L 123.648241 150.395606 
L 126.452261 154.936991 
L 129.256281 159.374717 
L 132.060302 163.693951 
L 134.864322 167.880643 
L 137.668342 171.921645 
L 140.472362 175.804875 
L 143.276382 179.519512 
L 146.080402 183.056271 
L 148.884422 186.407777 
L 151.688442 189.569064 
L 154.492462 192.538209 
L 157.296482 195.317077 
L 160.100503 197.912116 
L 162.904523 200.335075 
L 165.708543 202.603481 
L 168.512563 204.740685 
L 171.316583 206.77533 
L 174.120603 208.740176 
L 176.924623 210.670354 
L 179.728643 212.601245 
L 182.532663 214.566238 
L 185.336683 216.594657 
L 188.140704 218.710036 
L 190.944724 220.92889 
L 193.748744 223.259985 
L 196.552764 225.704094 
L 199.356784 228.254148 
L 202.160804 230.895719 
L 204.964824 233.607733 
L 207.768844 236.363364 
L 210.572864 239.131041 
L 213.376884 241.875525 
L 216.180905 244.559022 
L 218.984925 247.142292 
L 221.788945 249.585726 
L 224.592965 251.850372 
L 227.396985 253.89887 
L 230.201005 255.69628 
L 233.005025 257.210784 
L 235.809045 258.414243 
L 238.613065 259.282593 
L 241.417085 259.79609 
L 244.221106 259.939383 
L 247.025126 259.701428 
L 249.829146 259.07526 
L 252.633166 258.057618 
L 255.437186 256.648456 
L 258.241206 254.850348 
L 261.045226 252.66783 
L 263.849246 250.106703 
L 266.653266 247.17336 
L 269.457286 243.874196 
L 272.261307 240.215178 
L 275.065327 236.201668 
L 277.869347 231.838583 
L 280.673367 227.130956 
L 283.477387 222.084895 
L 286.281407 216.708885 
L 289.085427 211.015268 
L 291.889447 205.021664 
L 294.693467 198.752076 
L 297.497487 192.237483 
L 300.301508 185.515805 
L 303.105528 178.631269 
L 305.909548 171.633321 
L 308.713568 164.575257 
L 311.517588 157.512773 
L 314.321608 150.502582 
L 317.125628 143.601185 
L 319.929648 136.863848 
L 322.733668 130.343778 
L 325.537688 124.091498 
L 328.341709 118.154369 
L 331.145729 112.576252 
L 333.949749 107.397269 
L 336.753769 102.653647 
L 339.557789 98.377618 
L 342.361809 94.597377 
L 345.165829 91.337062 
L 347.969849 88.616771 
L 350.773869 86.452591 
L 353.577889 84.85665 
L 356.38191 83.837167 
L 359.18593 83.398519 
L 361.98995 83.541299 
L 364.79397 84.262388 
L 367.59799 85.555018 
L 370.40201 87.408832 
L 373.20603 89.809953 
L 376.01005 92.741042 
L 378.81407 96.181358 
L 381.61809 100.106827 
L 384.422111 104.490104 
L 387.226131 109.30065 
L 390.030151 114.504809 
L 392.834171 120.065906 
L 395.638191 125.944351 
L 398.442211 132.097765 
L 401.246231 138.481124 
L 404.050251 145.046935 
L 406.854271 151.745436 
L 409.658291 158.524832 
L 412.462312 165.331585 
L 415.266332 172.11075 
L 418.070352 178.806388 
L 420.874372 185.362069 
L 423.678392 191.721481 
L 426.482412 197.829189 
L 429.286432 203.631539 
L 432.090452 209.077755 
L 434.894472 214.121188 
L 437.698492 218.720694 
L 440.502513 222.842033 
L 443.306533 226.459146 
L 446.110553 229.555113 
L 448.914573 232.122604 
L 451.718593 234.163697 
L 454.522613 235.68903 
L 457.326633 236.716387 
L 460.130653 237.268955 
L 462.934673 237.373476 
L 465.738693 237.058567 
L 468.542714 236.35335 
L 471.346734 235.28648 
L 474.150754 233.885566 
L 476.954774 232.176929 
L 479.758794 230.185632 
L 482.562814 227.935679 
L 485.366834 225.450326 
L 488.170854 222.752452 
L 490.974874 219.864923 
L 493.778894 216.810938 
L 496.582915 213.614322 
L 499.386935 210.29975 
L 502.190955 206.892885 
L 504.994975 203.420423 
L 507.798995 199.910037 
L 510.603015 196.390212 
L 513.407035 192.889967 
L 516.211055 189.438473 
L 519.015075 186.064575 
L 521.819095 182.796222 
L 524.623116 179.659818 
L 527.427136 176.679527 
L 530.231156 173.876529 
L 533.035176 171.268265 
L 535.839196 168.867687 
L 538.643216 166.682532 
L 541.447236 164.714664 
L 544.251256 162.959519 
L 547.055276 161.405688 
L 549.859296 160.034732 
L 552.663317 158.821271 
L 555.467337 157.733454 
L 558.271357 156.733857 
L 561.075377 155.780855 
L 563.879397 154.830442 
L 566.683417 153.838361 
L 569.487437 152.762362 
L 572.291457 151.564299 
L 575.095477 150.211824 
L 577.899497 148.679467 
L 580.703518 146.949058 
L 583.507538 145.009538 
L 586.311558 142.856322 
L 589.115578 140.49041 
L 591.919598 137.917408 
L 594.723618 135.146594 
L 597.527638 132.1901 
L 600.331658 129.062228 
L 603.135678 125.7789 
L 605.939698 122.35722 
L 608.743719 118.815128 
L 611.547739 115.171108 
L 614.351759 111.443947 
L 617.155779 107.652521 
L 619.959799 103.815593 
L 622.763819 99.95164 
L 625.567839 96.078673 
L 628.371859 92.214085 
L 631.175879 88.3745 
L 633.979899 84.575635 
L 636.78392 80.832187 
L 639.58794 77.157726 
L 642.39196 73.564612 
L 645.19598 70.063932 
L 648 66.665455 
L 648 336.135062 
L 645.19598 334.671438 
L 642.39196 332.971205 
L 639.58794 331.027683 
L 636.78392 328.836552 
L 633.979899 326.396113 
L 631.175879 323.707543 
L 628.371859 320.775112 
L 625.567839 317.606386 
L 622.763819 314.21239 
L 619.959799 310.607732 
L 617.155779 306.810692 
L 614.351759 302.843257 
L 611.547739 298.731111 
L 608.743719 294.503567 
L 605.939698 290.193425 
L 603.135678 285.836765 
L 600.331658 281.472651 
L 597.527638 277.142724 
L 594.723618 272.890674 
L 591.919598 268.761561 
L 589.115578 264.800965 
L 586.311558 261.053932 
L 583.507538 257.563739 
L 580.703518 254.370483 
L 577.899497 251.509596 
L 575.095477 249.010387 
L 572.291457 246.89483 
L 569.487437 245.176768 
L 566.683417 243.861714 
L 563.879397 242.947321 
L 561.075377 242.424467 
L 558.271357 242.278772 
L 555.467337 242.492299 
L 552.663317 243.045186 
L 549.859296 243.917002 
L 547.055276 245.087731 
L 544.251256 246.538347 
L 541.447236 248.251042 
L 538.643216 250.209151 
L 535.839196 252.396892 
L 533.035176 254.798964 
L 530.231156 257.4001 
L 527.427136 260.184602 
L 524.623116 263.135895 
L 521.819095 266.236146 
L 519.015075 269.465946 
L 516.211055 272.804079 
L 513.407035 276.2274 
L 510.603015 279.710807 
L 507.798995 283.227342 
L 504.994975 286.7484 
L 502.190955 290.244064 
L 499.386935 293.683547 
L 496.582915 297.035739 
L 493.778894 300.269847 
L 490.974874 303.35611 
L 488.170854 306.266564 
L 485.366834 308.975856 
L 482.562814 311.462057 
L 479.758794 313.70747 
L 476.954774 315.699401 
L 474.150754 317.430841 
L 471.346734 318.901026 
L 468.542714 320.115815 
L 465.738693 321.087807 
L 462.934673 321.836121 
L 460.130653 322.385763 
L 457.326633 322.766539 
L 454.522613 323.011501 
L 451.718593 323.155024 
L 448.914573 323.230686 
L 446.110553 323.269177 
L 443.306533 323.29654 
L 440.502513 323.33293 
L 437.698492 323.392028 
L 434.894472 323.481081 
L 432.090452 323.60145 
L 429.286432 323.749476 
L 426.482412 323.917493 
L 423.678392 324.094823 
L 420.874372 324.268691 
L 418.070352 324.424989 
L 415.266332 324.548905 
L 412.462312 324.625422 
L 409.658291 324.639715 
L 406.854271 324.577479 
L 404.050251 324.425191 
L 401.246231 324.170345 
L 398.442211 323.801657 
L 395.638191 323.309254 
L 392.834171 322.684848 
L 390.030151 321.921906 
L 387.226131 321.015793 
L 384.422111 319.963918 
L 381.61809 318.765849 
L 378.81407 317.423424 
L 376.01005 315.940827 
L 373.20603 314.324649 
L 370.40201 312.583919 
L 367.59799 310.730105 
L 364.79397 308.777084 
L 361.98995 306.741084 
L 359.18593 304.640584 
L 356.38191 302.496189 
L 353.577889 300.330463 
L 350.773869 298.167735 
L 347.969849 296.033868 
L 345.165829 293.956005 
L 342.361809 291.96228 
L 339.557789 290.081511 
L 336.753769 288.342868 
L 333.949749 286.775525 
L 331.145729 285.408296 
L 328.341709 284.269252 
L 325.537688 283.385335 
L 322.733668 282.781934 
L 319.929648 282.482449 
L 317.125628 282.507808 
L 314.321608 282.875924 
L 311.517588 283.601077 
L 308.713568 284.693194 
L 305.909548 286.157015 
L 303.105528 287.991162 
L 300.301508 290.187139 
L 297.497487 292.72838 
L 294.693467 295.58947 
L 291.889447 298.735728 
L 289.085427 302.12335 
L 286.281407 305.700212 
L 283.477387 309.407366 
L 280.673367 313.181108 
L 277.869347 316.955392 
L 275.065327 320.664313 
L 272.261307 324.244418 
L 269.457286 327.636661 
L 266.653266 330.787905 
L 263.849246 333.651978 
L 261.045226 336.190302 
L 258.241206 338.372186 
L 255.437186 340.174834 
L 252.633166 341.583149 
L 249.829146 342.589372 
L 247.025126 343.192615 
L 244.221106 343.398292 
L 241.417085 343.217507 
L 238.613065 342.66639 
L 235.809045 341.765422 
L 233.005025 340.538762 
L 230.201005 339.013585 
L 227.396985 337.219465 
L 224.592965 335.187805 
L 221.788945 332.951332 
L 218.984925 330.543662 
L 216.180905 327.998947 
L 213.376884 325.351602 
L 210.572864 322.636116 
L 207.768844 319.886936 
L 204.964824 317.138432 
L 202.160804 314.424924 
L 199.356784 311.780768 
L 196.552764 309.240471 
L 193.748744 306.838814 
L 190.944724 304.610933 
L 188.140704 302.592307 
L 185.336683 300.818572 
L 182.532663 299.325083 
L 179.728643 298.14616 
L 176.924623 297.313967 
L 174.120603 296.857055 
L 171.316583 296.798683 
L 168.512563 297.155092 
L 165.708543 297.934012 
L 162.904523 299.133639 
L 160.100503 300.742245 
L 157.296482 302.738503 
L 154.492462 305.09241 
L 151.688442 307.766674 
L 148.884422 310.718332 
L 146.080402 313.900424 
L 143.276382 317.263591 
L 140.472362 320.757498 
L 137.668342 324.332068 
L 134.864322 327.938508 
L 132.060302 331.530156 
L 129.256281 335.063156 
L 126.452261 338.496995 
L 123.648241 341.794916 
L 120.844221 344.92422 
L 118.040201 347.856479 
L 115.236181 350.567656 
L 112.432161 353.038153 
L 109.628141 355.252782 
L 106.824121 357.200674 
L 104.020101 358.875135 
L 101.21608 360.273437 
L 98.41206 361.396574 
L 95.60804 362.248977 
L 92.80402 362.838193 
L 90 363.174545 
z
" style="fill:#cc3300;opacity:0.3;stroke:#cc3300;stroke-linejoin:miter;stroke-width:0.5;"/>
   </g>
   <g id="matplotlib.axis_1">
    <g id="xtick_1">
     <g id="line2d_1">
      <defs>
       <path d="M 0 0 
L 0 3.5 
" id="m132fe45aad" style="stroke:#000000;stroke-width:0.8;"/>
      </defs>
      <g>
       <use style="stroke:#000000;stroke-width:0.8;" x="90" xlink:href="#m132fe45aad" y="378"/>
      </g>
     </g>
     <g id="text_1">
      <!-- −2 -->
      <defs>
       <path d="M 10.59375 35.5 
L 73.1875 35.5 
L 73.1875 27.203125 
L 10.59375 27.203125 
z
" id="DejaVuSans-2212"/>
       <path d="M 19.1875 8.296875 
L 53.609375 8.296875 
L 53.609375 0 
L 7.328125 0 
L 7.328125 8.296875 
Q 12.9375 14.109375 22.625 23.890625 
Q 32.328125 33.6875 34.8125 36.53125 
Q 39.546875 41.84375 41.421875 45.53125 
Q 43.3125 49.21875 43.3125 52.78125 
Q 43.3125 58.59375 39.234375 62.25 
Q 35.15625 65.921875 28.609375 65.921875 
Q 23.96875 65.921875 18.8125 64.3125 
Q 13.671875 62.703125 7.8125 59.421875 
L 7.8125 69.390625 
Q 13.765625 71.78125 18.9375 73 
Q 24.125 74.21875 28.421875 74.21875 
Q 39.75 74.21875 46.484375 68.546875 
Q 53.21875 62.890625 53.21875 53.421875 
Q 53.21875 48.921875 51.53125 44.890625 
Q 49.859375 40.875 45.40625 35.40625 
Q 44.1875 33.984375 37.640625 27.21875 
Q 31.109375 20.453125 19.1875 8.296875 
z
" id="DejaVuSans-32"/>
      </defs>
      <g transform="translate(82.628906 392.598437)scale(0.1 -0.1)">
       <use xlink:href="#DejaVuSans-2212"/>
       <use x="83.789062" xlink:href="#DejaVuSans-32"/>
      </g>
     </g>
    </g>
    <g id="xtick_2">
     <g id="line2d_2">
      <g>
       <use style="stroke:#000000;stroke-width:0.8;" x="169.714286" xlink:href="#m132fe45aad" y="378"/>
      </g>
     </g>
     <g id="text_2">
      <!-- 0 -->
      <defs>
       <path d="M 31.78125 66.40625 
Q 24.171875 66.40625 20.328125 58.90625 
Q 16.5 51.421875 16.5 36.375 
Q 16.5 21.390625 20.328125 13.890625 
Q 24.171875 6.390625 31.78125 6.390625 
Q 39.453125 6.390625 43.28125 13.890625 
Q 47.125 21.390625 47.125 36.375 
Q 47.125 51.421875 43.28125 58.90625 
Q 39.453125 66.40625 31.78125 66.40625 
z
M 31.78125 74.21875 
Q 44.046875 74.21875 50.515625 64.515625 
Q 56.984375 54.828125 56.984375 36.375 
Q 56.984375 17.96875 50.515625 8.265625 
Q 44.046875 -1.421875 31.78125 -1.421875 
Q 19.53125 -1.421875 13.0625 8.265625 
Q 6.59375 17.96875 6.59375 36.375 
Q 6.59375 54.828125 13.0625 64.515625 
Q 19.53125 74.21875 31.78125 74.21875 
z
" id="DejaVuSans-30"/>
      </defs>
      <g transform="translate(166.533036 392.598437)scale(0.1 -0.1)">
       <use xlink:href="#DejaVuSans-30"/>
      </g>
     </g>
    </g>
    <g id="xtick_3">
     <g id="line2d_3">
      <g>
       <use style="stroke:#000000;stroke-width:0.8;" x="249.428571" xlink:href="#m132fe45aad" y="378"/>
      </g>
     </g>
     <g id="text_3">
      <!-- 2 -->
      <g transform="translate(246.247321 392.598437)scale(0.1 -0.1)">
       <use xlink:href="#DejaVuSans-32"/>
      </g>
     </g>
    </g>
    <g id="xtick_4">
     <g id="line2d_4">
      <g>
       <use style="stroke:#000000;stroke-width:0.8;" x="329.142857" xlink:href="#m132fe45aad" y="378"/>
      </g>
     </g>
     <g id="text_4">
      <!-- 4 -->
      <defs>
       <path d="M 37.796875 64.3125 
L 12.890625 25.390625 
L 37.796875 25.390625 
z
M 35.203125 72.90625 
L 47.609375 72.90625 
L 47.609375 25.390625 
L 58.015625 25.390625 
L 58.015625 17.1875 
L 47.609375 17.1875 
L 47.609375 0 
L 37.796875 0 
L 37.796875 17.1875 
L 4.890625 17.1875 
L 4.890625 26.703125 
z
" id="DejaVuSans-34"/>
      </defs>
      <g transform="translate(325.961607 392.598437)scale(0.1 -0.1)">
       <use xlink:href="#DejaVuSans-34"/>
      </g>
     </g>
    </g>
    <g id="xtick_5">
     <g id="line2d_5">
      <g>
       <use style="stroke:#000000;stroke-width:0.8;" x="408.857143" xlink:href="#m132fe45aad" y="378"/>
      </g>
     </g>
     <g id="text_5">
      <!-- 6 -->
      <defs>
       <path d="M 33.015625 40.375 
Q 26.375 40.375 22.484375 35.828125 
Q 18.609375 31.296875 18.609375 23.390625 
Q 18.609375 15.53125 22.484375 10.953125 
Q 26.375 6.390625 33.015625 6.390625 
Q 39.65625 6.390625 43.53125 10.953125 
Q 47.40625 15.53125 47.40625 23.390625 
Q 47.40625 31.296875 43.53125 35.828125 
Q 39.65625 40.375 33.015625 40.375 
z
M 52.59375 71.296875 
L 52.59375 62.3125 
Q 48.875 64.0625 45.09375 64.984375 
Q 41.3125 65.921875 37.59375 65.921875 
Q 27.828125 65.921875 22.671875 59.328125 
Q 17.53125 52.734375 16.796875 39.40625 
Q 19.671875 43.65625 24.015625 45.921875 
Q 28.375 48.1875 33.59375 48.1875 
Q 44.578125 48.1875 50.953125 41.515625 
Q 57.328125 34.859375 57.328125 23.390625 
Q 57.328125 12.15625 50.6875 5.359375 
Q 44.046875 -1.421875 33.015625 -1.421875 
Q 20.359375 -1.421875 13.671875 8.265625 
Q 6.984375 17.96875 6.984375 36.375 
Q 6.984375 53.65625 15.1875 63.9375 
Q 23.390625 74.21875 37.203125 74.21875 
Q 40.921875 74.21875 44.703125 73.484375 
Q 48.484375 72.75 52.59375 71.296875 
z
" id="DejaVuSans-36"/>
      </defs>
      <g transform="translate(405.675893 392.598437)scale(0.1 -0.1)">
       <use xlink:href="#DejaVuSans-36"/>
      </g>
     </g>
    </g>
    <g id="xtick_6">
     <g id="line2d_6">
      <g>
       <use style="stroke:#000000;stroke-width:0.8;" x="488.571429" xlink:href="#m132fe45aad" y="378"/>
      </g>
     </g>
     <g id="text_6">
      <!-- 8 -->
      <defs>
       <path d="M 31.78125 34.625 
Q 24.75 34.625 20.71875 30.859375 
Q 16.703125 27.09375 16.703125 20.515625 
Q 16.703125 13.921875 20.71875 10.15625 
Q 24.75 6.390625 31.78125 6.390625 
Q 38.8125 6.390625 42.859375 10.171875 
Q 46.921875 13.96875 46.921875 20.515625 
Q 46.921875 27.09375 42.890625 30.859375 
Q 38.875 34.625 31.78125 34.625 
z
M 21.921875 38.8125 
Q 15.578125 40.375 12.03125 44.71875 
Q 8.5 49.078125 8.5 55.328125 
Q 8.5 64.0625 14.71875 69.140625 
Q 20.953125 74.21875 31.78125 74.21875 
Q 42.671875 74.21875 48.875 69.140625 
Q 55.078125 64.0625 55.078125 55.328125 
Q 55.078125 49.078125 51.53125 44.71875 
Q 48 40.375 41.703125 38.8125 
Q 48.828125 37.15625 52.796875 32.3125 
Q 56.78125 27.484375 56.78125 20.515625 
Q 56.78125 9.90625 50.3125 4.234375 
Q 43.84375 -1.421875 31.78125 -1.421875 
Q 19.734375 -1.421875 13.25 4.234375 
Q 6.78125 9.90625 6.78125 20.515625 
Q 6.78125 27.484375 10.78125 32.3125 
Q 14.796875 37.15625 21.921875 38.8125 
z
M 18.3125 54.390625 
Q 18.3125 48.734375 21.84375 45.5625 
Q 25.390625 42.390625 31.78125 42.390625 
Q 38.140625 42.390625 41.71875 45.5625 
Q 45.3125 48.734375 45.3125 54.390625 
Q 45.3125 60.0625 41.71875 63.234375 
Q 38.140625 66.40625 31.78125 66.40625 
Q 25.390625 66.40625 21.84375 63.234375 
Q 18.3125 60.0625 18.3125 54.390625 
z
" id="DejaVuSans-38"/>
      </defs>
      <g transform="translate(485.390179 392.598437)scale(0.1 -0.1)">
       <use xlink:href="#DejaVuSans-38"/>
      </g>
     </g>
    </g>
    <g id="xtick_7">
     <g id="line2d_7">
      <g>
       <use style="stroke:#000000;stroke-width:0.8;" x="568.285714" xlink:href="#m132fe45aad" y="378"/>
      </g>
     </g>
     <g id="text_7">
      <!-- 10 -->
      <defs>
       <path d="M 12.40625 8.296875 
L 28.515625 8.296875 
L 28.515625 63.921875 
L 10.984375 60.40625 
L 10.984375 69.390625 
L 28.421875 72.90625 
L 38.28125 72.90625 
L 38.28125 8.296875 
L 54.390625 8.296875 
L 54.390625 0 
L 12.40625 0 
z
" id="DejaVuSans-31"/>
      </defs>
      <g transform="translate(561.923214 392.598437)scale(0.1 -0.1)">
       <use xlink:href="#DejaVuSans-31"/>
       <use x="63.623047" xlink:href="#DejaVuSans-30"/>
      </g>
     </g>
    </g>
    <g id="xtick_8">
     <g id="line2d_8">
      <g>
       <use style="stroke:#000000;stroke-width:0.8;" x="648" xlink:href="#m132fe45aad" y="378"/>
      </g>
     </g>
     <g id="text_8">
      <!-- 12 -->
      <g transform="translate(641.6375 392.598437)scale(0.1 -0.1)">
       <use xlink:href="#DejaVuSans-31"/>
       <use x="63.623047" xlink:href="#DejaVuSans-32"/>
      </g>
     </g>
    </g>
    <g id="text_9">
     <!-- $x$ -->
     <defs>
      <path d="M 60.015625 54.6875 
L 34.90625 27.875 
L 50.296875 0 
L 39.984375 0 
L 28.421875 21.6875 
L 8.296875 0 
L -2.59375 0 
L 24.3125 28.8125 
L 10.015625 54.6875 
L 20.3125 54.6875 
L 30.8125 34.90625 
L 49.125 54.6875 
z
" id="DejaVuSans-Oblique-78"/>
     </defs>
     <g transform="translate(363 413.875)scale(0.2 -0.2)">
      <use transform="translate(0 0.3125)" xlink:href="#DejaVuSans-Oblique-78"/>
     </g>
    </g>
   </g>
   <g id="matplotlib.axis_2">
    <g id="ytick_1">
     <g id="line2d_9">
      <defs>
       <path d="M 0 0 
L -3.5 0 
" id="mec1ed17ca3" style="stroke:#000000;stroke-width:0.8;"/>
      </defs>
      <g>
       <use style="stroke:#000000;stroke-width:0.8;" x="90" xlink:href="#mec1ed17ca3" y="347.844697"/>
      </g>
     </g>
     <g id="text_10">
      <!-- −3 -->
      <defs>
       <path d="M 40.578125 39.3125 
Q 47.65625 37.796875 51.625 33 
Q 55.609375 28.21875 55.609375 21.1875 
Q 55.609375 10.40625 48.1875 4.484375 
Q 40.765625 -1.421875 27.09375 -1.421875 
Q 22.515625 -1.421875 17.65625 -0.515625 
Q 12.796875 0.390625 7.625 2.203125 
L 7.625 11.71875 
Q 11.71875 9.328125 16.59375 8.109375 
Q 21.484375 6.890625 26.8125 6.890625 
Q 36.078125 6.890625 40.9375 10.546875 
Q 45.796875 14.203125 45.796875 21.1875 
Q 45.796875 27.640625 41.28125 31.265625 
Q 36.765625 34.90625 28.71875 34.90625 
L 20.21875 34.90625 
L 20.21875 43.015625 
L 29.109375 43.015625 
Q 36.375 43.015625 40.234375 45.921875 
Q 44.09375 48.828125 44.09375 54.296875 
Q 44.09375 59.90625 40.109375 62.90625 
Q 36.140625 65.921875 28.71875 65.921875 
Q 24.65625 65.921875 20.015625 65.03125 
Q 15.375 64.15625 9.8125 62.3125 
L 9.8125 71.09375 
Q 15.4375 72.65625 20.34375 73.4375 
Q 25.25 74.21875 29.59375 74.21875 
Q 40.828125 74.21875 47.359375 69.109375 
Q 53.90625 64.015625 53.90625 55.328125 
Q 53.90625 49.265625 50.4375 45.09375 
Q 46.96875 40.921875 40.578125 39.3125 
z
" id="DejaVuSans-33"/>
      </defs>
      <g transform="translate(68.257812 351.643916)scale(0.1 -0.1)">
       <use xlink:href="#DejaVuSans-2212"/>
       <use x="83.789062" xlink:href="#DejaVuSans-33"/>
      </g>
     </g>
    </g>
    <g id="ytick_2">
     <g id="line2d_10">
      <g>
       <use style="stroke:#000000;stroke-width:0.8;" x="90" xlink:href="#mec1ed17ca3" y="289.049127"/>
      </g>
     </g>
     <g id="text_11">
      <!-- −2 -->
      <g transform="translate(68.257812 292.848346)scale(0.1 -0.1)">
       <use xlink:href="#DejaVuSans-2212"/>
       <use x="83.789062" xlink:href="#DejaVuSans-32"/>
      </g>
     </g>
    </g>
    <g id="ytick_3">
     <g id="line2d_11">
      <g>
       <use style="stroke:#000000;stroke-width:0.8;" x="90" xlink:href="#mec1ed17ca3" y="230.253557"/>
      </g>
     </g>
     <g id="text_12">
      <!-- −1 -->
      <g transform="translate(68.257812 234.052776)scale(0.1 -0.1)">
       <use xlink:href="#DejaVuSans-2212"/>
       <use x="83.789062" xlink:href="#DejaVuSans-31"/>
      </g>
     </g>
    </g>
    <g id="ytick_4">
     <g id="line2d_12">
      <g>
       <use style="stroke:#000000;stroke-width:0.8;" x="90" xlink:href="#mec1ed17ca3" y="171.457987"/>
      </g>
     </g>
     <g id="text_13">
      <!-- 0 -->
      <g transform="translate(76.6375 175.257205)scale(0.1 -0.1)">
       <use xlink:href="#DejaVuSans-30"/>
      </g>
     </g>
    </g>
    <g id="ytick_5">
     <g id="line2d_13">
      <g>
       <use style="stroke:#000000;stroke-width:0.8;" x="90" xlink:href="#mec1ed17ca3" y="112.662416"/>
      </g>
     </g>
     <g id="text_14">
      <!-- 1 -->
      <g transform="translate(76.6375 116.461635)scale(0.1 -0.1)">
       <use xlink:href="#DejaVuSans-31"/>
      </g>
     </g>
    </g>
    <g id="ytick_6">
     <g id="line2d_14">
      <g>
       <use style="stroke:#000000;stroke-width:0.8;" x="90" xlink:href="#mec1ed17ca3" y="53.866846"/>
      </g>
     </g>
     <g id="text_15">
      <!-- 2 -->
      <g transform="translate(76.6375 57.666065)scale(0.1 -0.1)">
       <use xlink:href="#DejaVuSans-32"/>
      </g>
     </g>
    </g>
    <g id="text_16">
     <!-- $y$ -->
     <defs>
      <path d="M 24.8125 -5.078125 
Q 18.5625 -15.578125 14.625 -18.1875 
Q 10.6875 -20.796875 4.59375 -20.796875 
L -2.484375 -20.796875 
L -0.984375 -13.28125 
L 4.203125 -13.28125 
Q 7.953125 -13.28125 10.59375 -11.234375 
Q 13.234375 -9.1875 16.5 -3.21875 
L 19.28125 2 
L 7.171875 54.6875 
L 16.703125 54.6875 
L 25.78125 12.796875 
L 50.875 54.6875 
L 60.296875 54.6875 
z
" id="DejaVuSans-Oblique-79"/>
     </defs>
     <g transform="translate(60.057812 220.92)rotate(-90)scale(0.2 -0.2)">
      <use transform="translate(0 0.3125)" xlink:href="#DejaVuSans-Oblique-79"/>
     </g>
    </g>
   </g>
   <g id="line2d_15">
    <defs>
     <path d="M 0 2.5 
C 0.663008 2.5 1.29895 2.236584 1.767767 1.767767 
C 2.236584 1.29895 2.5 0.663008 2.5 0 
C 2.5 -0.663008 2.236584 -1.29895 1.767767 -1.767767 
C 1.29895 -2.236584 0.663008 -2.5 0 -2.5 
C -0.663008 -2.5 -1.29895 -2.236584 -1.767767 -1.767767 
C -2.236584 -1.29895 -2.5 -0.663008 -2.5 0 
C -2.5 0.663008 -2.236584 1.29895 -1.767767 1.767767 
C -1.29895 2.236584 -0.663008 2.5 0 2.5 
z
" id="mcfb11a0afe" style="stroke:#ff0000;"/>
    </defs>
    <g clip-path="url(#p5b11828832)">
     <use style="fill:#ff0000;stroke:#ff0000;" x="169.714286" xlink:href="#mcfb11a0afe" y="269.362158"/>
     <use style="fill:#ff0000;stroke:#ff0000;" x="174.696429" xlink:href="#mcfb11a0afe" y="268.265655"/>
     <use style="fill:#ff0000;stroke:#ff0000;" x="179.678571" xlink:href="#mcfb11a0afe" y="249.70435"/>
     <use style="fill:#ff0000;stroke:#ff0000;" x="184.660714" xlink:href="#mcfb11a0afe" y="257.728058"/>
     <use style="fill:#ff0000;stroke:#ff0000;" x="189.642857" xlink:href="#mcfb11a0afe" y="251.63509"/>
     <use style="fill:#ff0000;stroke:#ff0000;" x="194.625" xlink:href="#mcfb11a0afe" y="251.619536"/>
     <use style="fill:#ff0000;stroke:#ff0000;" x="199.607143" xlink:href="#mcfb11a0afe" y="271.225686"/>
     <use style="fill:#ff0000;stroke:#ff0000;" x="204.589286" xlink:href="#mcfb11a0afe" y="288.672909"/>
     <use style="fill:#ff0000;stroke:#ff0000;" x="209.571429" xlink:href="#mcfb11a0afe" y="253.193816"/>
     <use style="fill:#ff0000;stroke:#ff0000;" x="214.553571" xlink:href="#mcfb11a0afe" y="255.06835"/>
     <use style="fill:#ff0000;stroke:#ff0000;" x="219.535714" xlink:href="#mcfb11a0afe" y="278.076366"/>
     <use style="fill:#ff0000;stroke:#ff0000;" x="224.517857" xlink:href="#mcfb11a0afe" y="277.506227"/>
     <use style="fill:#ff0000;stroke:#ff0000;" x="229.5" xlink:href="#mcfb11a0afe" y="327.314785"/>
     <use style="fill:#ff0000;stroke:#ff0000;" x="234.482143" xlink:href="#mcfb11a0afe" y="349.701219"/>
     <use style="fill:#ff0000;stroke:#ff0000;" x="239.464286" xlink:href="#mcfb11a0afe" y="340.43842"/>
     <use style="fill:#ff0000;stroke:#ff0000;" x="244.446429" xlink:href="#mcfb11a0afe" y="294.3865"/>
     <use style="fill:#ff0000;stroke:#ff0000;" x="249.428571" xlink:href="#mcfb11a0afe" y="302.158933"/>
     <use style="fill:#ff0000;stroke:#ff0000;" x="254.410714" xlink:href="#mcfb11a0afe" y="289.168648"/>
     <use style="fill:#ff0000;stroke:#ff0000;" x="259.392857" xlink:href="#mcfb11a0afe" y="249.716095"/>
     <use style="fill:#ff0000;stroke:#ff0000;" x="264.375" xlink:href="#mcfb11a0afe" y="321.921237"/>
     <use style="fill:#ff0000;stroke:#ff0000;" x="269.357143" xlink:href="#mcfb11a0afe" y="289.354782"/>
     <use style="fill:#ff0000;stroke:#ff0000;" x="274.339286" xlink:href="#mcfb11a0afe" y="266.096826"/>
     <use style="fill:#ff0000;stroke:#ff0000;" x="279.321429" xlink:href="#mcfb11a0afe" y="259.193073"/>
     <use style="fill:#ff0000;stroke:#ff0000;" x="284.303571" xlink:href="#mcfb11a0afe" y="267.262984"/>
     <use style="fill:#ff0000;stroke:#ff0000;" x="289.285714" xlink:href="#mcfb11a0afe" y="264.571627"/>
     <use style="fill:#ff0000;stroke:#ff0000;" x="448.714286" xlink:href="#mcfb11a0afe" y="283.990624"/>
     <use style="fill:#ff0000;stroke:#ff0000;" x="453.696429" xlink:href="#mcfb11a0afe" y="272.743238"/>
     <use style="fill:#ff0000;stroke:#ff0000;" x="458.678571" xlink:href="#mcfb11a0afe" y="280.768911"/>
     <use style="fill:#ff0000;stroke:#ff0000;" x="463.660714" xlink:href="#mcfb11a0afe" y="284.211031"/>
     <use style="fill:#ff0000;stroke:#ff0000;" x="468.642857" xlink:href="#mcfb11a0afe" y="287.616976"/>
     <use style="fill:#ff0000;stroke:#ff0000;" x="473.625" xlink:href="#mcfb11a0afe" y="257.754818"/>
     <use style="fill:#ff0000;stroke:#ff0000;" x="478.607143" xlink:href="#mcfb11a0afe" y="257.818567"/>
     <use style="fill:#ff0000;stroke:#ff0000;" x="483.589286" xlink:href="#mcfb11a0afe" y="289.237444"/>
     <use style="fill:#ff0000;stroke:#ff0000;" x="488.571429" xlink:href="#mcfb11a0afe" y="254.597734"/>
     <use style="fill:#ff0000;stroke:#ff0000;" x="493.553571" xlink:href="#mcfb11a0afe" y="289.370588"/>
     <use style="fill:#ff0000;stroke:#ff0000;" x="498.535714" xlink:href="#mcfb11a0afe" y="242.369923"/>
     <use style="fill:#ff0000;stroke:#ff0000;" x="503.517857" xlink:href="#mcfb11a0afe" y="271.227673"/>
     <use style="fill:#ff0000;stroke:#ff0000;" x="508.5" xlink:href="#mcfb11a0afe" y="220.950356"/>
     <use style="fill:#ff0000;stroke:#ff0000;" x="513.482143" xlink:href="#mcfb11a0afe" y="229.304475"/>
     <use style="fill:#ff0000;stroke:#ff0000;" x="518.464286" xlink:href="#mcfb11a0afe" y="214.90351"/>
     <use style="fill:#ff0000;stroke:#ff0000;" x="523.446429" xlink:href="#mcfb11a0afe" y="224.862071"/>
     <use style="fill:#ff0000;stroke:#ff0000;" x="528.428571" xlink:href="#mcfb11a0afe" y="234.841941"/>
     <use style="fill:#ff0000;stroke:#ff0000;" x="533.410714" xlink:href="#mcfb11a0afe" y="221.051874"/>
     <use style="fill:#ff0000;stroke:#ff0000;" x="538.392857" xlink:href="#mcfb11a0afe" y="197.124322"/>
     <use style="fill:#ff0000;stroke:#ff0000;" x="543.375" xlink:href="#mcfb11a0afe" y="201.697747"/>
     <use style="fill:#ff0000;stroke:#ff0000;" x="548.357143" xlink:href="#mcfb11a0afe" y="170.501527"/>
     <use style="fill:#ff0000;stroke:#ff0000;" x="553.339286" xlink:href="#mcfb11a0afe" y="204.880837"/>
     <use style="fill:#ff0000;stroke:#ff0000;" x="558.321429" xlink:href="#mcfb11a0afe" y="206.446822"/>
     <use style="fill:#ff0000;stroke:#ff0000;" x="563.303571" xlink:href="#mcfb11a0afe" y="211.551759"/>
     <use style="fill:#ff0000;stroke:#ff0000;" x="568.285714" xlink:href="#mcfb11a0afe" y="204.33735"/>
    </g>
   </g>
   <g id="line2d_16">
    <path clip-path="url(#p5b11828832)" d="M 90 228.439741 
L 95.60804 232.54568 
L 101.21608 236.271254 
L 106.824121 239.534153 
L 109.628141 240.972268 
L 112.432161 242.274296 
L 115.236181 243.437281 
L 118.040201 244.460409 
L 120.844221 245.345134 
L 123.648241 246.095261 
L 126.452261 246.716993 
L 132.060302 247.612054 
L 137.668342 248.126856 
L 143.276382 248.391552 
L 154.492462 248.815309 
L 160.100503 249.327181 
L 162.904523 249.734357 
L 165.708543 250.268747 
L 168.512563 250.947888 
L 171.316583 251.787006 
L 174.120603 252.798616 
L 176.924623 253.99216 
L 179.728643 255.373702 
L 182.532663 256.945661 
L 185.336683 258.706614 
L 188.140704 260.651172 
L 190.944724 262.769911 
L 193.748744 265.0494 
L 199.356784 270.017458 
L 204.964824 275.373083 
L 216.180905 286.278984 
L 221.788945 291.268529 
L 224.592965 293.519089 
L 227.396985 295.559167 
L 230.201005 297.354932 
L 233.005025 298.874773 
L 235.809045 300.089832 
L 238.613065 300.974491 
L 241.417085 301.506799 
L 244.221106 301.668837 
L 247.025126 301.447021 
L 249.829146 300.832316 
L 252.633166 299.820383 
L 255.437186 298.411645 
L 258.241206 296.611267 
L 261.045226 294.429066 
L 263.849246 291.87934 
L 266.653266 288.980632 
L 269.457286 285.755428 
L 272.261307 282.229798 
L 275.065327 278.43299 
L 277.869347 274.396988 
L 283.477387 265.74613 
L 289.085427 256.569309 
L 303.105528 233.311215 
L 308.713568 224.634225 
L 311.517588 220.556925 
L 314.321608 216.689253 
L 317.125628 213.054496 
L 319.929648 209.673148 
L 322.733668 206.562856 
L 325.537688 203.738417 
L 328.341709 201.211811 
L 331.145729 198.992274 
L 333.949749 197.086397 
L 336.753769 195.498258 
L 339.557789 194.229565 
L 342.361809 193.279829 
L 345.165829 192.646534 
L 347.969849 192.325319 
L 350.773869 192.310163 
L 353.577889 192.593557 
L 356.38191 193.166678 
L 359.18593 194.019552 
L 361.98995 195.141191 
L 364.79397 196.519736 
L 367.59799 198.142561 
L 370.40201 199.996376 
L 373.20603 202.067301 
L 376.01005 204.340934 
L 378.81407 206.802391 
L 381.61809 209.436338 
L 387.226131 215.158222 
L 392.834171 221.375377 
L 398.442211 227.949711 
L 420.874372 254.81538 
L 426.482412 260.873341 
L 429.286432 263.690508 
L 432.090452 266.339603 
L 434.894472 268.801135 
L 437.698492 271.056361 
L 440.502513 273.087482 
L 443.306533 274.877843 
L 446.110553 276.412145 
L 448.914573 277.676645 
L 451.718593 278.659361 
L 454.522613 279.350265 
L 457.326633 279.741463 
L 460.130653 279.827359 
L 462.934673 279.604798 
L 465.738693 279.073187 
L 468.542714 278.234583 
L 471.346734 277.093753 
L 474.150754 275.658203 
L 476.954774 273.938165 
L 479.758794 271.946551 
L 482.562814 269.698868 
L 485.366834 267.213091 
L 488.170854 264.509508 
L 490.974874 261.610516 
L 496.582915 255.325031 
L 502.190955 248.568475 
L 519.015075 227.765261 
L 524.623116 221.397857 
L 527.427136 218.432064 
L 530.231156 215.638314 
L 533.035176 213.033614 
L 535.839196 210.632289 
L 538.643216 208.445841 
L 541.447236 206.482853 
L 544.251256 204.748933 
L 547.055276 203.246709 
L 549.859296 201.975867 
L 552.663317 200.933229 
L 555.467337 200.112877 
L 558.271357 199.506314 
L 561.075377 199.102661 
L 563.879397 198.888882 
L 566.683417 198.850038 
L 569.487437 198.969565 
L 572.291457 199.229565 
L 577.899497 200.094531 
L 583.507538 201.286638 
L 600.331658 205.26744 
L 605.939698 206.275322 
L 611.547739 206.95111 
L 617.155779 207.231606 
L 622.763819 207.082015 
L 628.371859 206.494598 
L 633.979899 205.485874 
L 639.58794 204.092705 
L 645.19598 202.367685 
L 648 201.400259 
L 648 201.400259 
" style="fill:none;stroke:#3300ff;stroke-linecap:square;stroke-width:2;"/>
   </g>
   <g id="line2d_17">
    <path clip-path="url(#p5b11828832)" d="M 90 93.704938 
L 95.60804 102.842384 
L 104.020101 117.054657 
L 120.844221 145.766049 
L 126.452261 154.936991 
L 132.060302 163.693951 
L 137.668342 171.921645 
L 143.276382 179.519512 
L 146.080402 183.056271 
L 148.884422 186.407777 
L 151.688442 189.569064 
L 154.492462 192.538209 
L 157.296482 195.317077 
L 160.100503 197.912116 
L 162.904523 200.335075 
L 168.512563 204.740685 
L 174.120603 208.740176 
L 185.336683 216.594657 
L 190.944724 220.92889 
L 196.552764 225.704094 
L 202.160804 230.895719 
L 218.984925 247.142292 
L 221.788945 249.585726 
L 224.592965 251.850372 
L 227.396985 253.89887 
L 230.201005 255.69628 
L 233.005025 257.210784 
L 235.809045 258.414243 
L 238.613065 259.282593 
L 241.417085 259.79609 
L 244.221106 259.939383 
L 247.025126 259.701428 
L 249.829146 259.07526 
L 252.633166 258.057618 
L 255.437186 256.648456 
L 258.241206 254.850348 
L 261.045226 252.66783 
L 263.849246 250.106703 
L 266.653266 247.17336 
L 269.457286 243.874196 
L 272.261307 240.215178 
L 275.065327 236.201668 
L 277.869347 231.838583 
L 280.673367 227.130956 
L 283.477387 222.084895 
L 286.281407 216.708885 
L 289.085427 211.015268 
L 291.889447 205.021664 
L 297.497487 192.237483 
L 303.105528 178.631269 
L 319.929648 136.863848 
L 325.537688 124.091498 
L 328.341709 118.154369 
L 331.145729 112.576252 
L 333.949749 107.397269 
L 336.753769 102.653647 
L 339.557789 98.377618 
L 342.361809 94.597377 
L 345.165829 91.337062 
L 347.969849 88.616771 
L 350.773869 86.452591 
L 353.577889 84.85665 
L 356.38191 83.837167 
L 359.18593 83.398519 
L 361.98995 83.541299 
L 364.79397 84.262388 
L 367.59799 85.555018 
L 370.40201 87.408832 
L 373.20603 89.809953 
L 376.01005 92.741042 
L 378.81407 96.181358 
L 381.61809 100.106827 
L 384.422111 104.490104 
L 387.226131 109.30065 
L 390.030151 114.504809 
L 392.834171 120.065906 
L 395.638191 125.944351 
L 401.246231 138.481124 
L 406.854271 151.745436 
L 420.874372 185.362069 
L 426.482412 197.829189 
L 429.286432 203.631539 
L 432.090452 209.077755 
L 434.894472 214.121188 
L 437.698492 218.720694 
L 440.502513 222.842033 
L 443.306533 226.459146 
L 446.110553 229.555113 
L 448.914573 232.122604 
L 451.718593 234.163697 
L 454.522613 235.68903 
L 457.326633 236.716387 
L 460.130653 237.268955 
L 462.934673 237.373476 
L 465.738693 237.058567 
L 468.542714 236.35335 
L 471.346734 235.28648 
L 474.150754 233.885566 
L 476.954774 232.176929 
L 479.758794 230.185632 
L 482.562814 227.935679 
L 485.366834 225.450326 
L 488.170854 222.752452 
L 490.974874 219.864923 
L 496.582915 213.614322 
L 502.190955 206.892885 
L 519.015075 186.064575 
L 524.623116 179.659818 
L 527.427136 176.679527 
L 530.231156 173.876529 
L 533.035176 171.268265 
L 535.839196 168.867687 
L 538.643216 166.682532 
L 541.447236 164.714664 
L 544.251256 162.959519 
L 547.055276 161.405688 
L 549.859296 160.034732 
L 552.663317 158.821271 
L 558.271357 156.733857 
L 566.683417 153.838361 
L 569.487437 152.762362 
L 572.291457 151.564299 
L 575.095477 150.211824 
L 577.899497 148.679467 
L 580.703518 146.949058 
L 583.507538 145.009538 
L 586.311558 142.856322 
L 589.115578 140.49041 
L 591.919598 137.917408 
L 594.723618 135.146594 
L 597.527638 132.1901 
L 603.135678 125.7789 
L 608.743719 118.815128 
L 614.351759 111.443947 
L 622.763819 99.95164 
L 633.979899 84.575635 
L 639.58794 77.157726 
L 645.19598 70.063932 
L 648 66.665455 
L 648 66.665455 
" style="fill:none;stroke:#3300ff;stroke-linecap:square;stroke-width:0.2;"/>
   </g>
   <g id="line2d_18">
    <path clip-path="url(#p5b11828832)" d="M 90 363.174545 
L 92.80402 362.838193 
L 95.60804 362.248977 
L 98.41206 361.396574 
L 101.21608 360.273437 
L 104.020101 358.875135 
L 106.824121 357.200674 
L 109.628141 355.252782 
L 112.432161 353.038153 
L 115.236181 350.567656 
L 118.040201 347.856479 
L 120.844221 344.92422 
L 123.648241 341.794916 
L 129.256281 335.063156 
L 146.080402 313.900424 
L 148.884422 310.718332 
L 151.688442 307.766674 
L 154.492462 305.09241 
L 157.296482 302.738503 
L 160.100503 300.742245 
L 162.904523 299.133639 
L 165.708543 297.934012 
L 168.512563 297.155092 
L 171.316583 296.798683 
L 174.120603 296.857055 
L 176.924623 297.313967 
L 179.728643 298.14616 
L 182.532663 299.325083 
L 185.336683 300.818572 
L 188.140704 302.592307 
L 190.944724 304.610933 
L 193.748744 306.838814 
L 199.356784 311.780768 
L 204.964824 317.138432 
L 216.180905 327.998947 
L 221.788945 332.951332 
L 224.592965 335.187805 
L 227.396985 337.219465 
L 230.201005 339.013585 
L 233.005025 340.538762 
L 235.809045 341.765422 
L 238.613065 342.66639 
L 241.417085 343.217507 
L 244.221106 343.398292 
L 247.025126 343.192615 
L 249.829146 342.589372 
L 252.633166 341.583149 
L 255.437186 340.174834 
L 258.241206 338.372186 
L 261.045226 336.190302 
L 263.849246 333.651978 
L 266.653266 330.787905 
L 269.457286 327.636661 
L 272.261307 324.244418 
L 277.869347 316.955392 
L 286.281407 305.700212 
L 289.085427 302.12335 
L 291.889447 298.735728 
L 294.693467 295.58947 
L 297.497487 292.72838 
L 300.301508 290.187139 
L 303.105528 287.991162 
L 305.909548 286.157015 
L 308.713568 284.693194 
L 311.517588 283.601077 
L 314.321608 282.875924 
L 317.125628 282.507808 
L 319.929648 282.482449 
L 322.733668 282.781934 
L 325.537688 283.385335 
L 328.341709 284.269252 
L 331.145729 285.408296 
L 333.949749 286.775525 
L 336.753769 288.342868 
L 339.557789 290.081511 
L 345.165829 293.956005 
L 350.773869 298.167735 
L 361.98995 306.741084 
L 367.59799 310.730105 
L 373.20603 314.324649 
L 376.01005 315.940827 
L 378.81407 317.423424 
L 381.61809 318.765849 
L 384.422111 319.963918 
L 387.226131 321.015793 
L 390.030151 321.921906 
L 392.834171 322.684848 
L 395.638191 323.309254 
L 398.442211 323.801657 
L 401.246231 324.170345 
L 406.854271 324.577479 
L 412.462312 324.625422 
L 418.070352 324.424989 
L 437.698492 323.392028 
L 454.522613 323.011501 
L 457.326633 322.766539 
L 460.130653 322.385763 
L 462.934673 321.836121 
L 465.738693 321.087807 
L 468.542714 320.115815 
L 471.346734 318.901026 
L 474.150754 317.430841 
L 476.954774 315.699401 
L 479.758794 313.70747 
L 482.562814 311.462057 
L 485.366834 308.975856 
L 488.170854 306.266564 
L 490.974874 303.35611 
L 496.582915 297.035739 
L 502.190955 290.244064 
L 516.211055 272.804079 
L 521.819095 266.236146 
L 527.427136 260.184602 
L 530.231156 257.4001 
L 533.035176 254.798964 
L 535.839196 252.396892 
L 538.643216 250.209151 
L 541.447236 248.251042 
L 544.251256 246.538347 
L 547.055276 245.087731 
L 549.859296 243.917002 
L 552.663317 243.045186 
L 555.467337 242.492299 
L 558.271357 242.278772 
L 561.075377 242.424467 
L 563.879397 242.947321 
L 566.683417 243.861714 
L 569.487437 245.176768 
L 572.291457 246.89483 
L 575.095477 249.010387 
L 577.899497 251.509596 
L 580.703518 254.370483 
L 583.507538 257.563739 
L 586.311558 261.053932 
L 589.115578 264.800965 
L 594.723618 272.890674 
L 603.135678 285.836765 
L 611.547739 298.731111 
L 617.155779 306.810692 
L 619.959799 310.607732 
L 622.763819 314.21239 
L 625.567839 317.606386 
L 628.371859 320.775112 
L 631.175879 323.707543 
L 633.979899 326.396113 
L 636.78392 328.836552 
L 639.58794 331.027683 
L 642.39196 332.971205 
L 645.19598 334.671438 
L 648 336.135062 
L 648 336.135062 
" style="fill:none;stroke:#3300ff;stroke-linecap:square;stroke-width:0.2;"/>
   </g>
   <g id="patch_4">
    <path d="M 90 378 
L 90 51.84 
" style="fill:none;stroke:#000000;stroke-linecap:square;stroke-linejoin:miter;stroke-width:0.8;"/>
   </g>
   <g id="patch_5">
    <path d="M 648 378 
L 648 51.84 
" style="fill:none;stroke:#000000;stroke-linecap:square;stroke-linejoin:miter;stroke-width:0.8;"/>
   </g>
   <g id="patch_6">
    <path d="M 90 378 
L 648 378 
" style="fill:none;stroke:#000000;stroke-linecap:square;stroke-linejoin:miter;stroke-width:0.8;"/>
   </g>
   <g id="patch_7">
    <path d="M 90 51.84 
L 648 51.84 
" style="fill:none;stroke:#000000;stroke-linecap:square;stroke-linejoin:miter;stroke-width:0.8;"/>
   </g>
  </g>
 </g>
 <defs>
  <clipPath id="p5b11828832">
   <rect height="326.16" width="558" x="90" y="51.84"/>
  </clipPath>
 </defs>
</svg>
