<?xml version="1.0" encoding="utf-8" standalone="no"?>
<!DOCTYPE svg PUBLIC "-//W3C//DTD SVG 1.1//EN"
  "http://www.w3.org/Graphics/SVG/1.1/DTD/svg11.dtd">
<!-- Created with matplotlib (http://matplotlib.org/) -->
<svg height="432pt" version="1.1" viewBox="0 0 720 432" width="720pt" xmlns="http://www.w3.org/2000/svg" xmlns:xlink="http://www.w3.org/1999/xlink">
 <defs>
  <style type="text/css">
*{stroke-linecap:butt;stroke-linejoin:round;}
  </style>
 </defs>
 <g id="figure_1">
  <g id="patch_1">
   <path d="M 0 432 
L 720 432 
L 720 0 
L 0 0 
z
" style="fill:none;"/>
  </g>
  <g id="axes_1">
   <g id="patch_2">
    <path d="M 90 378 
L 648 378 
L 648 51.84 
L 90 51.84 
z
" style="fill:none;"/>
   </g>
   <g id="patch_3">
    <path clip-path="url(#p53abfaccf2)" d="M 90 73.842717 
L 92.80402 74.053166 
L 95.60804 74.296476 
L 98.41206 74.577114 
L 101.21608 74.900045 
L 104.020101 75.270768 
L 106.824121 75.695346 
L 109.628141 76.180439 
L 112.432161 76.733324 
L 115.236181 77.361908 
L 118.040201 78.074735 
L 120.844221 78.880978 
L 123.648241 79.790405 
L 126.452261 80.813344 
L 129.256281 81.960607 
L 132.060302 83.243403 
L 134.864322 84.673217 
L 137.668342 86.261662 
L 140.472362 88.020301 
L 143.276382 89.96044 
L 146.080402 92.092894 
L 148.884422 94.427721 
L 151.688442 96.973936 
L 154.492462 99.739206 
L 157.296482 102.729531 
L 160.100503 105.948919 
L 162.904523 109.399056 
L 165.708543 113.078992 
L 168.512563 116.984841 
L 171.316583 121.10951 
L 174.120603 125.442466 
L 176.924623 129.969546 
L 179.728643 134.67283 
L 182.532663 139.53058 
L 185.336683 144.517251 
L 188.140704 149.603598 
L 190.944724 154.756872 
L 193.748744 159.941126 
L 196.552764 165.117639 
L 199.356784 170.245466 
L 202.160804 175.282123 
L 204.964824 180.184415 
L 207.768844 184.909414 
L 210.572864 189.415576 
L 213.376884 193.663975 
L 216.180905 197.619632 
L 218.984925 201.252865 
L 221.788945 204.540574 
L 224.592965 207.467374 
L 227.396985 210.026427 
L 230.201005 212.219896 
L 233.005025 214.058917 
L 235.809045 215.563078 
L 238.613065 216.759428 
L 241.417085 217.681113 
L 244.221106 218.365769 
L 247.025126 218.853815 
L 249.829146 219.186779 
L 252.633166 219.405772 
L 255.437186 219.550154 
L 258.241206 219.65645 
L 261.045226 219.757488 
L 263.849246 219.881763 
L 266.653266 220.052983 
L 269.457286 220.28977 
L 272.261307 220.605491 
L 275.065327 221.008176 
L 277.869347 221.50053 
L 280.673367 222.079999 
L 283.477387 222.738898 
L 286.281407 223.464585 
L 289.085427 224.239692 
L 291.889447 225.042411 
L 294.693467 225.846831 
L 297.497487 226.623353 
L 300.301508 227.339158 
L 303.105528 227.958759 
L 305.909548 228.444619 
L 308.713568 228.75784 
L 311.517588 228.858911 
L 314.321608 228.708512 
L 317.125628 228.268349 
L 319.929648 227.502013 
L 322.733668 226.375835 
L 325.537688 224.859722 
L 328.341709 222.927951 
L 331.145729 220.559899 
L 333.949749 217.740696 
L 336.753769 214.461774 
L 339.557789 210.721311 
L 342.361809 206.524544 
L 345.165829 201.883951 
L 347.969849 196.819291 
L 350.773869 191.3575 
L 353.577889 185.532434 
L 356.38191 179.384463 
L 359.18593 172.959928 
L 361.98995 166.31044 
L 364.79397 159.49206 
L 367.59799 152.564344 
L 370.40201 145.589294 
L 373.20603 138.630216 
L 376.01005 131.750519 
L 378.81407 125.012486 
L 381.61809 118.476048 
L 384.422111 112.197594 
L 387.226131 106.228852 
L 390.030151 100.615881 
L 392.834171 95.398204 
L 395.638191 90.608095 
L 398.442211 86.270063 
L 401.246231 82.40053 
L 404.050251 79.007715 
L 406.854271 76.091723 
L 409.658291 73.644835 
L 412.462312 71.651976 
L 415.266332 70.091356 
L 418.070352 68.935252 
L 420.874372 68.150904 
L 423.678392 67.701506 
L 426.482412 67.547256 
L 429.286432 67.646438 
L 432.090452 67.956506 
L 434.894472 68.435143 
L 437.698492 69.041269 
L 440.502513 69.73596 
L 443.306533 70.483276 
L 446.110553 71.250943 
L 448.914573 72.010908 
L 451.718593 72.739707 
L 454.522613 73.418675 
L 457.326633 74.033956 
L 460.130653 74.576339 
L 462.934673 75.040905 
L 465.738693 75.426514 
L 468.542714 75.73514 
L 471.346734 75.971093 
L 474.150754 76.140159 
L 476.954774 76.2487 
L 479.758794 76.302774 
L 482.562814 76.307321 
L 485.366834 76.265487 
L 488.170854 76.178134 
L 490.974874 76.043611 
L 493.778894 75.857811 
L 496.582915 75.614544 
L 499.386935 75.306222 
L 502.190955 74.924788 
L 504.994975 74.462803 
L 507.798995 73.914576 
L 510.603015 73.277162 
L 513.407035 72.551141 
L 516.211055 71.741038 
L 519.015075 70.855376 
L 521.819095 69.906369 
L 524.623116 68.909313 
L 527.427136 67.881794 
L 530.231156 66.842791 
L 533.035176 65.811783 
L 535.839196 64.80793 
L 538.643216 63.849357 
L 541.447236 62.952588 
L 544.251256 62.132112 
L 547.055276 61.400093 
L 549.859296 60.766193 
L 552.663317 60.237506 
L 555.467337 59.818581 
L 558.271357 59.511513 
L 561.075377 59.31609 
L 563.879397 59.229993 
L 566.683417 59.249019 
L 569.487437 59.367329 
L 572.291457 59.577716 
L 575.095477 59.871876 
L 577.899497 60.240672 
L 580.703518 60.674404 
L 583.507538 61.163056 
L 586.311558 61.696532 
L 589.115578 62.264872 
L 591.919598 62.85844 
L 594.723618 63.468089 
L 597.527638 64.085296 
L 600.331658 64.702273 
L 603.135678 65.312042 
L 605.939698 65.908492 
L 608.743719 66.486398 
L 611.547739 67.041425 
L 614.351759 67.570109 
L 617.155779 68.069818 
L 619.959799 68.538695 
L 622.763819 68.975596 
L 625.567839 69.380016 
L 628.371859 69.752009 
L 631.175879 70.092106 
L 633.979899 70.401237 
L 636.78392 70.680653 
L 639.58794 70.931851 
L 642.39196 71.156508 
L 645.19598 71.35642 
L 648 71.533449 
L 648 355.997283 
L 645.19598 355.786834 
L 642.39196 355.543524 
L 639.58794 355.262886 
L 636.78392 354.939955 
L 633.979899 354.569232 
L 631.175879 354.144654 
L 628.371859 353.659561 
L 625.567839 353.106676 
L 622.763819 352.478092 
L 619.959799 351.765265 
L 617.155779 350.959022 
L 614.351759 350.049595 
L 611.547739 349.026656 
L 608.743719 347.879393 
L 605.939698 346.596597 
L 603.135678 345.166783 
L 600.331658 343.578338 
L 597.527638 341.819699 
L 594.723618 339.87956 
L 591.919598 337.747106 
L 589.115578 335.412279 
L 586.311558 332.866064 
L 583.507538 330.100794 
L 580.703518 327.110469 
L 577.899497 323.891081 
L 575.095477 320.440944 
L 572.291457 316.761008 
L 569.487437 312.855159 
L 566.683417 308.73049 
L 563.879397 304.397534 
L 561.075377 299.870454 
L 558.271357 295.16717 
L 555.467337 290.30942 
L 552.663317 285.322749 
L 549.859296 280.236402 
L 547.055276 275.083128 
L 544.251256 269.898874 
L 541.447236 264.722361 
L 538.643216 259.594534 
L 535.839196 254.557877 
L 533.035176 249.655585 
L 530.231156 244.930586 
L 527.427136 240.424424 
L 524.623116 236.176025 
L 521.819095 232.220368 
L 519.015075 228.587135 
L 516.211055 225.299426 
L 513.407035 222.372626 
L 510.603015 219.813573 
L 507.798995 217.620104 
L 504.994975 215.781083 
L 502.190955 214.276922 
L 499.386935 213.080572 
L 496.582915 212.158887 
L 493.778894 211.474231 
L 490.974874 210.986185 
L 488.170854 210.653221 
L 485.366834 210.434228 
L 482.562814 210.289846 
L 479.758794 210.18355 
L 476.954774 210.082512 
L 474.150754 209.958237 
L 471.346734 209.787017 
L 468.542714 209.55023 
L 465.738693 209.234509 
L 462.934673 208.831824 
L 460.130653 208.33947 
L 457.326633 207.760001 
L 454.522613 207.101102 
L 451.718593 206.375415 
L 448.914573 205.600308 
L 446.110553 204.797589 
L 443.306533 203.993169 
L 440.502513 203.216647 
L 437.698492 202.500842 
L 434.894472 201.881241 
L 432.090452 201.395381 
L 429.286432 201.08216 
L 426.482412 200.981089 
L 423.678392 201.131488 
L 420.874372 201.571651 
L 418.070352 202.337987 
L 415.266332 203.464165 
L 412.462312 204.980278 
L 409.658291 206.912049 
L 406.854271 209.280101 
L 404.050251 212.099304 
L 401.246231 215.378226 
L 398.442211 219.118689 
L 395.638191 223.315456 
L 392.834171 227.956049 
L 390.030151 233.020709 
L 387.226131 238.4825 
L 384.422111 244.307566 
L 381.61809 250.455537 
L 378.81407 256.880072 
L 376.01005 263.52956 
L 373.20603 270.34794 
L 370.40201 277.275656 
L 367.59799 284.250706 
L 364.79397 291.209784 
L 361.98995 298.089481 
L 359.18593 304.827514 
L 356.38191 311.363952 
L 353.577889 317.642406 
L 350.773869 323.611148 
L 347.969849 329.224119 
L 345.165829 334.441796 
L 342.361809 339.231905 
L 339.557789 343.569937 
L 336.753769 347.43947 
L 333.949749 350.832285 
L 331.145729 353.748277 
L 328.341709 356.195165 
L 325.537688 358.188024 
L 322.733668 359.748644 
L 319.929648 360.904748 
L 317.125628 361.689096 
L 314.321608 362.138494 
L 311.517588 362.292744 
L 308.713568 362.193562 
L 305.909548 361.883494 
L 303.105528 361.404857 
L 300.301508 360.798731 
L 297.497487 360.10404 
L 294.693467 359.356724 
L 291.889447 358.589057 
L 289.085427 357.829092 
L 286.281407 357.100293 
L 283.477387 356.421325 
L 280.673367 355.806044 
L 277.869347 355.263661 
L 275.065327 354.799095 
L 272.261307 354.413486 
L 269.457286 354.10486 
L 266.653266 353.868907 
L 263.849246 353.699841 
L 261.045226 353.5913 
L 258.241206 353.537226 
L 255.437186 353.532679 
L 252.633166 353.574513 
L 249.829146 353.661866 
L 247.025126 353.796389 
L 244.221106 353.982189 
L 241.417085 354.225456 
L 238.613065 354.533778 
L 235.809045 354.915212 
L 233.005025 355.377197 
L 230.201005 355.925424 
L 227.396985 356.562838 
L 224.592965 357.288859 
L 221.788945 358.098962 
L 218.984925 358.984624 
L 216.180905 359.933631 
L 213.376884 360.930687 
L 210.572864 361.958206 
L 207.768844 362.997209 
L 204.964824 364.028217 
L 202.160804 365.03207 
L 199.356784 365.990643 
L 196.552764 366.887412 
L 193.748744 367.707888 
L 190.944724 368.439907 
L 188.140704 369.073807 
L 185.336683 369.602494 
L 182.532663 370.021419 
L 179.728643 370.328487 
L 176.924623 370.52391 
L 174.120603 370.610007 
L 171.316583 370.590981 
L 168.512563 370.472671 
L 165.708543 370.262284 
L 162.904523 369.968124 
L 160.100503 369.599328 
L 157.296482 369.165596 
L 154.492462 368.676944 
L 151.688442 368.143468 
L 148.884422 367.575128 
L 146.080402 366.98156 
L 143.276382 366.371911 
L 140.472362 365.754704 
L 137.668342 365.137727 
L 134.864322 364.527958 
L 132.060302 363.931508 
L 129.256281 363.353602 
L 126.452261 362.798575 
L 123.648241 362.269891 
L 120.844221 361.770182 
L 118.040201 361.301305 
L 115.236181 360.864404 
L 112.432161 360.459984 
L 109.628141 360.087991 
L 106.824121 359.747894 
L 104.020101 359.438763 
L 101.21608 359.159347 
L 98.41206 358.908149 
L 95.60804 358.683492 
L 92.80402 358.48358 
L 90 358.306551 
z
" style="fill:#cc3300;opacity:0.3;stroke:#cc3300;stroke-linejoin:miter;stroke-width:0.5;"/>
   </g>
   <g id="matplotlib.axis_1">
    <g id="xtick_1">
     <g id="line2d_1">
      <defs>
       <path d="M 0 0 
L 0 3.5 
" id="ma294bae8ee" style="stroke:#000000;stroke-width:0.8;"/>
      </defs>
      <g>
       <use style="stroke:#000000;stroke-width:0.8;" x="90" xlink:href="#ma294bae8ee" y="378"/>
      </g>
     </g>
     <g id="text_1">
      <!-- −2.0 -->
      <defs>
       <path d="M 10.59375 35.5 
L 73.1875 35.5 
L 73.1875 27.203125 
L 10.59375 27.203125 
z
" id="DejaVuSans-2212"/>
       <path d="M 19.1875 8.296875 
L 53.609375 8.296875 
L 53.609375 0 
L 7.328125 0 
L 7.328125 8.296875 
Q 12.9375 14.109375 22.625 23.890625 
Q 32.328125 33.6875 34.8125 36.53125 
Q 39.546875 41.84375 41.421875 45.53125 
Q 43.3125 49.21875 43.3125 52.78125 
Q 43.3125 58.59375 39.234375 62.25 
Q 35.15625 65.921875 28.609375 65.921875 
Q 23.96875 65.921875 18.8125 64.3125 
Q 13.671875 62.703125 7.8125 59.421875 
L 7.8125 69.390625 
Q 13.765625 71.78125 18.9375 73 
Q 24.125 74.21875 28.421875 74.21875 
Q 39.75 74.21875 46.484375 68.546875 
Q 53.21875 62.890625 53.21875 53.421875 
Q 53.21875 48.921875 51.53125 44.890625 
Q 49.859375 40.875 45.40625 35.40625 
Q 44.1875 33.984375 37.640625 27.21875 
Q 31.109375 20.453125 19.1875 8.296875 
z
" id="DejaVuSans-32"/>
       <path d="M 10.6875 12.40625 
L 21 12.40625 
L 21 0 
L 10.6875 0 
z
" id="DejaVuSans-2e"/>
       <path d="M 31.78125 66.40625 
Q 24.171875 66.40625 20.328125 58.90625 
Q 16.5 51.421875 16.5 36.375 
Q 16.5 21.390625 20.328125 13.890625 
Q 24.171875 6.390625 31.78125 6.390625 
Q 39.453125 6.390625 43.28125 13.890625 
Q 47.125 21.390625 47.125 36.375 
Q 47.125 51.421875 43.28125 58.90625 
Q 39.453125 66.40625 31.78125 66.40625 
z
M 31.78125 74.21875 
Q 44.046875 74.21875 50.515625 64.515625 
Q 56.984375 54.828125 56.984375 36.375 
Q 56.984375 17.96875 50.515625 8.265625 
Q 44.046875 -1.421875 31.78125 -1.421875 
Q 19.53125 -1.421875 13.0625 8.265625 
Q 6.59375 17.96875 6.59375 36.375 
Q 6.59375 54.828125 13.0625 64.515625 
Q 19.53125 74.21875 31.78125 74.21875 
z
" id="DejaVuSans-30"/>
      </defs>
      <g transform="translate(77.858594 392.598437)scale(0.1 -0.1)">
       <use xlink:href="#DejaVuSans-2212"/>
       <use x="83.789062" xlink:href="#DejaVuSans-32"/>
       <use x="147.412109" xlink:href="#DejaVuSans-2e"/>
       <use x="179.199219" xlink:href="#DejaVuSans-30"/>
      </g>
     </g>
    </g>
    <g id="xtick_2">
     <g id="line2d_2">
      <g>
       <use style="stroke:#000000;stroke-width:0.8;" x="159.75" xlink:href="#ma294bae8ee" y="378"/>
      </g>
     </g>
     <g id="text_2">
      <!-- −1.5 -->
      <defs>
       <path d="M 12.40625 8.296875 
L 28.515625 8.296875 
L 28.515625 63.921875 
L 10.984375 60.40625 
L 10.984375 69.390625 
L 28.421875 72.90625 
L 38.28125 72.90625 
L 38.28125 8.296875 
L 54.390625 8.296875 
L 54.390625 0 
L 12.40625 0 
z
" id="DejaVuSans-31"/>
       <path d="M 10.796875 72.90625 
L 49.515625 72.90625 
L 49.515625 64.59375 
L 19.828125 64.59375 
L 19.828125 46.734375 
Q 21.96875 47.46875 24.109375 47.828125 
Q 26.265625 48.1875 28.421875 48.1875 
Q 40.625 48.1875 47.75 41.5 
Q 54.890625 34.8125 54.890625 23.390625 
Q 54.890625 11.625 47.5625 5.09375 
Q 40.234375 -1.421875 26.90625 -1.421875 
Q 22.3125 -1.421875 17.546875 -0.640625 
Q 12.796875 0.140625 7.71875 1.703125 
L 7.71875 11.625 
Q 12.109375 9.234375 16.796875 8.0625 
Q 21.484375 6.890625 26.703125 6.890625 
Q 35.15625 6.890625 40.078125 11.328125 
Q 45.015625 15.765625 45.015625 23.390625 
Q 45.015625 31 40.078125 35.4375 
Q 35.15625 39.890625 26.703125 39.890625 
Q 22.75 39.890625 18.8125 39.015625 
Q 14.890625 38.140625 10.796875 36.28125 
z
" id="DejaVuSans-35"/>
      </defs>
      <g transform="translate(147.608594 392.598437)scale(0.1 -0.1)">
       <use xlink:href="#DejaVuSans-2212"/>
       <use x="83.789062" xlink:href="#DejaVuSans-31"/>
       <use x="147.412109" xlink:href="#DejaVuSans-2e"/>
       <use x="179.199219" xlink:href="#DejaVuSans-35"/>
      </g>
     </g>
    </g>
    <g id="xtick_3">
     <g id="line2d_3">
      <g>
       <use style="stroke:#000000;stroke-width:0.8;" x="229.5" xlink:href="#ma294bae8ee" y="378"/>
      </g>
     </g>
     <g id="text_3">
      <!-- −1.0 -->
      <g transform="translate(217.358594 392.598437)scale(0.1 -0.1)">
       <use xlink:href="#DejaVuSans-2212"/>
       <use x="83.789062" xlink:href="#DejaVuSans-31"/>
       <use x="147.412109" xlink:href="#DejaVuSans-2e"/>
       <use x="179.199219" xlink:href="#DejaVuSans-30"/>
      </g>
     </g>
    </g>
    <g id="xtick_4">
     <g id="line2d_4">
      <g>
       <use style="stroke:#000000;stroke-width:0.8;" x="299.25" xlink:href="#ma294bae8ee" y="378"/>
      </g>
     </g>
     <g id="text_4">
      <!-- −0.5 -->
      <g transform="translate(287.108594 392.598437)scale(0.1 -0.1)">
       <use xlink:href="#DejaVuSans-2212"/>
       <use x="83.789062" xlink:href="#DejaVuSans-30"/>
       <use x="147.412109" xlink:href="#DejaVuSans-2e"/>
       <use x="179.199219" xlink:href="#DejaVuSans-35"/>
      </g>
     </g>
    </g>
    <g id="xtick_5">
     <g id="line2d_5">
      <g>
       <use style="stroke:#000000;stroke-width:0.8;" x="369" xlink:href="#ma294bae8ee" y="378"/>
      </g>
     </g>
     <g id="text_5">
      <!-- 0.0 -->
      <g transform="translate(361.048437 392.598437)scale(0.1 -0.1)">
       <use xlink:href="#DejaVuSans-30"/>
       <use x="63.623047" xlink:href="#DejaVuSans-2e"/>
       <use x="95.410156" xlink:href="#DejaVuSans-30"/>
      </g>
     </g>
    </g>
    <g id="xtick_6">
     <g id="line2d_6">
      <g>
       <use style="stroke:#000000;stroke-width:0.8;" x="438.75" xlink:href="#ma294bae8ee" y="378"/>
      </g>
     </g>
     <g id="text_6">
      <!-- 0.5 -->
      <g transform="translate(430.798437 392.598437)scale(0.1 -0.1)">
       <use xlink:href="#DejaVuSans-30"/>
       <use x="63.623047" xlink:href="#DejaVuSans-2e"/>
       <use x="95.410156" xlink:href="#DejaVuSans-35"/>
      </g>
     </g>
    </g>
    <g id="xtick_7">
     <g id="line2d_7">
      <g>
       <use style="stroke:#000000;stroke-width:0.8;" x="508.5" xlink:href="#ma294bae8ee" y="378"/>
      </g>
     </g>
     <g id="text_7">
      <!-- 1.0 -->
      <g transform="translate(500.548437 392.598437)scale(0.1 -0.1)">
       <use xlink:href="#DejaVuSans-31"/>
       <use x="63.623047" xlink:href="#DejaVuSans-2e"/>
       <use x="95.410156" xlink:href="#DejaVuSans-30"/>
      </g>
     </g>
    </g>
    <g id="xtick_8">
     <g id="line2d_8">
      <g>
       <use style="stroke:#000000;stroke-width:0.8;" x="578.25" xlink:href="#ma294bae8ee" y="378"/>
      </g>
     </g>
     <g id="text_8">
      <!-- 1.5 -->
      <g transform="translate(570.298437 392.598437)scale(0.1 -0.1)">
       <use xlink:href="#DejaVuSans-31"/>
       <use x="63.623047" xlink:href="#DejaVuSans-2e"/>
       <use x="95.410156" xlink:href="#DejaVuSans-35"/>
      </g>
     </g>
    </g>
    <g id="xtick_9">
     <g id="line2d_9">
      <g>
       <use style="stroke:#000000;stroke-width:0.8;" x="648" xlink:href="#ma294bae8ee" y="378"/>
      </g>
     </g>
     <g id="text_9">
      <!-- 2.0 -->
      <g transform="translate(640.048437 392.598437)scale(0.1 -0.1)">
       <use xlink:href="#DejaVuSans-32"/>
       <use x="63.623047" xlink:href="#DejaVuSans-2e"/>
       <use x="95.410156" xlink:href="#DejaVuSans-30"/>
      </g>
     </g>
    </g>
    <g id="text_10">
     <!-- $x$ -->
     <defs>
      <path d="M 60.015625 54.6875 
L 34.90625 27.875 
L 50.296875 0 
L 39.984375 0 
L 28.421875 21.6875 
L 8.296875 0 
L -2.59375 0 
L 24.3125 28.8125 
L 10.015625 54.6875 
L 20.3125 54.6875 
L 30.8125 34.90625 
L 49.125 54.6875 
z
" id="DejaVuSans-Oblique-78"/>
     </defs>
     <g transform="translate(363 413.875)scale(0.2 -0.2)">
      <use transform="translate(0 0.3125)" xlink:href="#DejaVuSans-Oblique-78"/>
     </g>
    </g>
   </g>
   <g id="matplotlib.axis_2">
    <g id="ytick_1">
     <g id="line2d_10">
      <defs>
       <path d="M 0 0 
L -3.5 0 
" id="m4339f5cc7b" style="stroke:#000000;stroke-width:0.8;"/>
      </defs>
      <g>
       <use style="stroke:#000000;stroke-width:0.8;" x="90" xlink:href="#m4339f5cc7b" y="363.174545"/>
      </g>
     </g>
     <g id="text_11">
      <!-- −0.50 -->
      <g transform="translate(52.354687 366.973764)scale(0.1 -0.1)">
       <use xlink:href="#DejaVuSans-2212"/>
       <use x="83.789062" xlink:href="#DejaVuSans-30"/>
       <use x="147.412109" xlink:href="#DejaVuSans-2e"/>
       <use x="179.199219" xlink:href="#DejaVuSans-35"/>
       <use x="242.822266" xlink:href="#DejaVuSans-30"/>
      </g>
     </g>
    </g>
    <g id="ytick_2">
     <g id="line2d_11">
      <g>
       <use style="stroke:#000000;stroke-width:0.8;" x="90" xlink:href="#m4339f5cc7b" y="326.110909"/>
      </g>
     </g>
     <g id="text_12">
      <!-- −0.25 -->
      <g transform="translate(52.354687 329.910128)scale(0.1 -0.1)">
       <use xlink:href="#DejaVuSans-2212"/>
       <use x="83.789062" xlink:href="#DejaVuSans-30"/>
       <use x="147.412109" xlink:href="#DejaVuSans-2e"/>
       <use x="179.199219" xlink:href="#DejaVuSans-32"/>
       <use x="242.822266" xlink:href="#DejaVuSans-35"/>
      </g>
     </g>
    </g>
    <g id="ytick_3">
     <g id="line2d_12">
      <g>
       <use style="stroke:#000000;stroke-width:0.8;" x="90" xlink:href="#m4339f5cc7b" y="289.047273"/>
      </g>
     </g>
     <g id="text_13">
      <!-- 0.00 -->
      <g transform="translate(60.734375 292.846491)scale(0.1 -0.1)">
       <use xlink:href="#DejaVuSans-30"/>
       <use x="63.623047" xlink:href="#DejaVuSans-2e"/>
       <use x="95.410156" xlink:href="#DejaVuSans-30"/>
       <use x="159.033203" xlink:href="#DejaVuSans-30"/>
      </g>
     </g>
    </g>
    <g id="ytick_4">
     <g id="line2d_13">
      <g>
       <use style="stroke:#000000;stroke-width:0.8;" x="90" xlink:href="#m4339f5cc7b" y="251.983636"/>
      </g>
     </g>
     <g id="text_14">
      <!-- 0.25 -->
      <g transform="translate(60.734375 255.782855)scale(0.1 -0.1)">
       <use xlink:href="#DejaVuSans-30"/>
       <use x="63.623047" xlink:href="#DejaVuSans-2e"/>
       <use x="95.410156" xlink:href="#DejaVuSans-32"/>
       <use x="159.033203" xlink:href="#DejaVuSans-35"/>
      </g>
     </g>
    </g>
    <g id="ytick_5">
     <g id="line2d_14">
      <g>
       <use style="stroke:#000000;stroke-width:0.8;" x="90" xlink:href="#m4339f5cc7b" y="214.92"/>
      </g>
     </g>
     <g id="text_15">
      <!-- 0.50 -->
      <g transform="translate(60.734375 218.719219)scale(0.1 -0.1)">
       <use xlink:href="#DejaVuSans-30"/>
       <use x="63.623047" xlink:href="#DejaVuSans-2e"/>
       <use x="95.410156" xlink:href="#DejaVuSans-35"/>
       <use x="159.033203" xlink:href="#DejaVuSans-30"/>
      </g>
     </g>
    </g>
    <g id="ytick_6">
     <g id="line2d_15">
      <g>
       <use style="stroke:#000000;stroke-width:0.8;" x="90" xlink:href="#m4339f5cc7b" y="177.856364"/>
      </g>
     </g>
     <g id="text_16">
      <!-- 0.75 -->
      <defs>
       <path d="M 8.203125 72.90625 
L 55.078125 72.90625 
L 55.078125 68.703125 
L 28.609375 0 
L 18.3125 0 
L 43.21875 64.59375 
L 8.203125 64.59375 
z
" id="DejaVuSans-37"/>
      </defs>
      <g transform="translate(60.734375 181.655582)scale(0.1 -0.1)">
       <use xlink:href="#DejaVuSans-30"/>
       <use x="63.623047" xlink:href="#DejaVuSans-2e"/>
       <use x="95.410156" xlink:href="#DejaVuSans-37"/>
       <use x="159.033203" xlink:href="#DejaVuSans-35"/>
      </g>
     </g>
    </g>
    <g id="ytick_7">
     <g id="line2d_16">
      <g>
       <use style="stroke:#000000;stroke-width:0.8;" x="90" xlink:href="#m4339f5cc7b" y="140.792727"/>
      </g>
     </g>
     <g id="text_17">
      <!-- 1.00 -->
      <g transform="translate(60.734375 144.591946)scale(0.1 -0.1)">
       <use xlink:href="#DejaVuSans-31"/>
       <use x="63.623047" xlink:href="#DejaVuSans-2e"/>
       <use x="95.410156" xlink:href="#DejaVuSans-30"/>
       <use x="159.033203" xlink:href="#DejaVuSans-30"/>
      </g>
     </g>
    </g>
    <g id="ytick_8">
     <g id="line2d_17">
      <g>
       <use style="stroke:#000000;stroke-width:0.8;" x="90" xlink:href="#m4339f5cc7b" y="103.729091"/>
      </g>
     </g>
     <g id="text_18">
      <!-- 1.25 -->
      <g transform="translate(60.734375 107.52831)scale(0.1 -0.1)">
       <use xlink:href="#DejaVuSans-31"/>
       <use x="63.623047" xlink:href="#DejaVuSans-2e"/>
       <use x="95.410156" xlink:href="#DejaVuSans-32"/>
       <use x="159.033203" xlink:href="#DejaVuSans-35"/>
      </g>
     </g>
    </g>
    <g id="ytick_9">
     <g id="line2d_18">
      <g>
       <use style="stroke:#000000;stroke-width:0.8;" x="90" xlink:href="#m4339f5cc7b" y="66.665455"/>
      </g>
     </g>
     <g id="text_19">
      <!-- 1.50 -->
      <g transform="translate(60.734375 70.464673)scale(0.1 -0.1)">
       <use xlink:href="#DejaVuSans-31"/>
       <use x="63.623047" xlink:href="#DejaVuSans-2e"/>
       <use x="95.410156" xlink:href="#DejaVuSans-35"/>
       <use x="159.033203" xlink:href="#DejaVuSans-30"/>
      </g>
     </g>
    </g>
    <g id="text_20">
     <!-- $y$ -->
     <defs>
      <path d="M 24.8125 -5.078125 
Q 18.5625 -15.578125 14.625 -18.1875 
Q 10.6875 -20.796875 4.59375 -20.796875 
L -2.484375 -20.796875 
L -0.984375 -13.28125 
L 4.203125 -13.28125 
Q 7.953125 -13.28125 10.59375 -11.234375 
Q 13.234375 -9.1875 16.5 -3.21875 
L 19.28125 2 
L 7.171875 54.6875 
L 16.703125 54.6875 
L 25.78125 12.796875 
L 50.875 54.6875 
L 60.296875 54.6875 
z
" id="DejaVuSans-Oblique-79"/>
     </defs>
     <g transform="translate(44.154687 220.92)rotate(-90)scale(0.2 -0.2)">
      <use transform="translate(0 0.3125)" xlink:href="#DejaVuSans-Oblique-79"/>
     </g>
    </g>
   </g>
   <g id="line2d_19">
    <defs>
     <path d="M 0 2.5 
C 0.663008 2.5 1.29895 2.236584 1.767767 1.767767 
C 2.236584 1.29895 2.5 0.663008 2.5 0 
C 2.5 -0.663008 2.236584 -1.29895 1.767767 -1.767767 
C 1.29895 -2.236584 0.663008 -2.5 0 -2.5 
C -0.663008 -2.5 -1.29895 -2.236584 -1.767767 -1.767767 
C -2.236584 -1.29895 -2.5 -0.663008 -2.5 0 
C -2.5 0.663008 -2.236584 1.29895 -1.767767 1.767767 
C -1.29895 2.236584 -0.663008 2.5 0 2.5 
z
" id="m1af08ada02" style="stroke:#ff0000;"/>
    </defs>
    <g clip-path="url(#p53abfaccf2)">
     <use style="fill:#ff0000;stroke:#ff0000;" x="229.5" xlink:href="#m1af08ada02" y="289.047273"/>
     <use style="fill:#ff0000;stroke:#ff0000;" x="235.603125" xlink:href="#m1af08ada02" y="289.047273"/>
     <use style="fill:#ff0000;stroke:#ff0000;" x="241.70625" xlink:href="#m1af08ada02" y="289.047273"/>
     <use style="fill:#ff0000;stroke:#ff0000;" x="247.809375" xlink:href="#m1af08ada02" y="289.047273"/>
     <use style="fill:#ff0000;stroke:#ff0000;" x="253.9125" xlink:href="#m1af08ada02" y="289.047273"/>
     <use style="fill:#ff0000;stroke:#ff0000;" x="260.015625" xlink:href="#m1af08ada02" y="289.047273"/>
     <use style="fill:#ff0000;stroke:#ff0000;" x="266.11875" xlink:href="#m1af08ada02" y="289.047273"/>
     <use style="fill:#ff0000;stroke:#ff0000;" x="272.221875" xlink:href="#m1af08ada02" y="289.047273"/>
     <use style="fill:#ff0000;stroke:#ff0000;" x="278.325" xlink:href="#m1af08ada02" y="289.047273"/>
     <use style="fill:#ff0000;stroke:#ff0000;" x="284.428125" xlink:href="#m1af08ada02" y="289.047273"/>
     <use style="fill:#ff0000;stroke:#ff0000;" x="290.53125" xlink:href="#m1af08ada02" y="289.047273"/>
     <use style="fill:#ff0000;stroke:#ff0000;" x="296.634375" xlink:href="#m1af08ada02" y="289.047273"/>
     <use style="fill:#ff0000;stroke:#ff0000;" x="302.7375" xlink:href="#m1af08ada02" y="289.047273"/>
     <use style="fill:#ff0000;stroke:#ff0000;" x="308.840625" xlink:href="#m1af08ada02" y="289.047273"/>
     <use style="fill:#ff0000;stroke:#ff0000;" x="314.94375" xlink:href="#m1af08ada02" y="289.047273"/>
     <use style="fill:#ff0000;stroke:#ff0000;" x="321.046875" xlink:href="#m1af08ada02" y="289.047273"/>
     <use style="fill:#ff0000;stroke:#ff0000;" x="327.15" xlink:href="#m1af08ada02" y="289.047273"/>
     <use style="fill:#ff0000;stroke:#ff0000;" x="333.253125" xlink:href="#m1af08ada02" y="289.047273"/>
     <use style="fill:#ff0000;stroke:#ff0000;" x="339.35625" xlink:href="#m1af08ada02" y="289.047273"/>
     <use style="fill:#ff0000;stroke:#ff0000;" x="345.459375" xlink:href="#m1af08ada02" y="289.047273"/>
     <use style="fill:#ff0000;stroke:#ff0000;" x="351.5625" xlink:href="#m1af08ada02" y="289.047273"/>
     <use style="fill:#ff0000;stroke:#ff0000;" x="357.665625" xlink:href="#m1af08ada02" y="289.047273"/>
     <use style="fill:#ff0000;stroke:#ff0000;" x="363.76875" xlink:href="#m1af08ada02" y="289.047273"/>
     <use style="fill:#ff0000;stroke:#ff0000;" x="369.871875" xlink:href="#m1af08ada02" y="289.047273"/>
     <use style="fill:#ff0000;stroke:#ff0000;" x="375.975" xlink:href="#m1af08ada02" y="289.047273"/>
     <use style="fill:#ff0000;stroke:#ff0000;" x="362.025" xlink:href="#m1af08ada02" y="140.792727"/>
     <use style="fill:#ff0000;stroke:#ff0000;" x="368.128125" xlink:href="#m1af08ada02" y="140.792727"/>
     <use style="fill:#ff0000;stroke:#ff0000;" x="374.23125" xlink:href="#m1af08ada02" y="140.792727"/>
     <use style="fill:#ff0000;stroke:#ff0000;" x="380.334375" xlink:href="#m1af08ada02" y="140.792727"/>
     <use style="fill:#ff0000;stroke:#ff0000;" x="386.4375" xlink:href="#m1af08ada02" y="140.792727"/>
     <use style="fill:#ff0000;stroke:#ff0000;" x="392.540625" xlink:href="#m1af08ada02" y="140.792727"/>
     <use style="fill:#ff0000;stroke:#ff0000;" x="398.64375" xlink:href="#m1af08ada02" y="140.792727"/>
     <use style="fill:#ff0000;stroke:#ff0000;" x="404.746875" xlink:href="#m1af08ada02" y="140.792727"/>
     <use style="fill:#ff0000;stroke:#ff0000;" x="410.85" xlink:href="#m1af08ada02" y="140.792727"/>
     <use style="fill:#ff0000;stroke:#ff0000;" x="416.953125" xlink:href="#m1af08ada02" y="140.792727"/>
     <use style="fill:#ff0000;stroke:#ff0000;" x="423.05625" xlink:href="#m1af08ada02" y="140.792727"/>
     <use style="fill:#ff0000;stroke:#ff0000;" x="429.159375" xlink:href="#m1af08ada02" y="140.792727"/>
     <use style="fill:#ff0000;stroke:#ff0000;" x="435.2625" xlink:href="#m1af08ada02" y="140.792727"/>
     <use style="fill:#ff0000;stroke:#ff0000;" x="441.365625" xlink:href="#m1af08ada02" y="140.792727"/>
     <use style="fill:#ff0000;stroke:#ff0000;" x="447.46875" xlink:href="#m1af08ada02" y="140.792727"/>
     <use style="fill:#ff0000;stroke:#ff0000;" x="453.571875" xlink:href="#m1af08ada02" y="140.792727"/>
     <use style="fill:#ff0000;stroke:#ff0000;" x="459.675" xlink:href="#m1af08ada02" y="140.792727"/>
     <use style="fill:#ff0000;stroke:#ff0000;" x="465.778125" xlink:href="#m1af08ada02" y="140.792727"/>
     <use style="fill:#ff0000;stroke:#ff0000;" x="471.88125" xlink:href="#m1af08ada02" y="140.792727"/>
     <use style="fill:#ff0000;stroke:#ff0000;" x="477.984375" xlink:href="#m1af08ada02" y="140.792727"/>
     <use style="fill:#ff0000;stroke:#ff0000;" x="484.0875" xlink:href="#m1af08ada02" y="140.792727"/>
     <use style="fill:#ff0000;stroke:#ff0000;" x="490.190625" xlink:href="#m1af08ada02" y="140.792727"/>
     <use style="fill:#ff0000;stroke:#ff0000;" x="496.29375" xlink:href="#m1af08ada02" y="140.792727"/>
     <use style="fill:#ff0000;stroke:#ff0000;" x="502.396875" xlink:href="#m1af08ada02" y="140.792727"/>
     <use style="fill:#ff0000;stroke:#ff0000;" x="508.5" xlink:href="#m1af08ada02" y="140.792727"/>
    </g>
   </g>
   <g id="line2d_20">
    <path clip-path="url(#p53abfaccf2)" d="M 90 216.074634 
L 98.41206 216.742631 
L 104.020101 217.354765 
L 109.628141 218.134215 
L 115.236181 219.113156 
L 120.844221 220.32558 
L 126.452261 221.80596 
L 132.060302 223.587455 
L 137.668342 225.699694 
L 143.276382 228.166176 
L 148.884422 231.001424 
L 154.492462 234.208075 
L 160.100503 237.774124 
L 165.708543 241.670638 
L 171.316583 245.850246 
L 179.728643 252.500659 
L 193.748744 263.824507 
L 199.356784 268.118055 
L 204.964824 272.106316 
L 210.572864 275.686891 
L 213.376884 277.297331 
L 216.180905 278.776632 
L 218.984925 280.118744 
L 221.788945 281.319768 
L 224.592965 282.378116 
L 227.396985 283.294632 
L 230.201005 284.07266 
L 233.005025 284.718057 
L 235.809045 285.239145 
L 241.417085 285.953285 
L 247.025126 286.325102 
L 255.437186 286.541416 
L 263.849246 286.790802 
L 269.457286 287.197315 
L 275.065327 287.903635 
L 280.673367 288.943022 
L 286.281407 290.282439 
L 303.105528 294.681808 
L 305.909548 295.164057 
L 308.713568 295.475701 
L 311.517588 295.575827 
L 314.321608 295.423503 
L 317.125628 294.978722 
L 319.929648 294.203381 
L 322.733668 293.06224 
L 325.537688 291.523873 
L 328.341709 289.561558 
L 331.145729 287.154088 
L 333.949749 284.28649 
L 336.753769 280.950622 
L 339.557789 277.145624 
L 342.361809 272.878224 
L 345.165829 268.162873 
L 347.969849 263.021705 
L 350.773869 257.484324 
L 353.577889 251.58742 
L 359.18593 238.893721 
L 364.79397 225.350922 
L 376.01005 197.640039 
L 381.61809 184.465793 
L 384.422111 178.25258 
L 387.226131 172.355676 
L 390.030151 166.818295 
L 392.834171 161.677127 
L 395.638191 156.961776 
L 398.442211 152.694376 
L 401.246231 148.889378 
L 404.050251 145.55351 
L 406.854271 142.685912 
L 409.658291 140.278442 
L 412.462312 138.316127 
L 415.266332 136.77776 
L 418.070352 135.636619 
L 420.874372 134.861278 
L 423.678392 134.416497 
L 426.482412 134.264173 
L 429.286432 134.364299 
L 432.090452 134.675943 
L 434.894472 135.158192 
L 440.502513 136.476304 
L 454.522613 140.259888 
L 460.130653 141.457905 
L 465.738693 142.330512 
L 471.346734 142.879055 
L 476.954774 143.165606 
L 493.778894 143.666021 
L 499.386935 144.193397 
L 502.190955 144.600855 
L 504.994975 145.121943 
L 507.798995 145.76734 
L 510.603015 146.545368 
L 513.407035 147.461884 
L 516.211055 148.520232 
L 519.015075 149.721256 
L 521.819095 151.063368 
L 524.623116 152.542669 
L 530.231156 155.886688 
L 535.839196 159.682904 
L 541.447236 163.837474 
L 549.859296 170.501297 
L 563.879397 181.813764 
L 569.487437 186.111244 
L 575.095477 190.15641 
L 580.703518 193.892436 
L 586.311558 197.281298 
L 591.919598 200.302773 
L 597.527638 202.952498 
L 603.135678 205.239413 
L 608.743719 207.182895 
L 614.351759 208.809852 
L 619.959799 210.15198 
L 625.567839 211.243346 
L 631.175879 212.11838 
L 636.78392 212.810304 
L 645.19598 213.571627 
L 648 213.765366 
L 648 213.765366 
" style="fill:none;stroke:#3300ff;stroke-linecap:square;stroke-width:2;"/>
   </g>
   <g id="line2d_21">
    <path clip-path="url(#p53abfaccf2)" d="M 90 73.842717 
L 98.41206 74.577114 
L 104.020101 75.270768 
L 109.628141 76.180439 
L 115.236181 77.361908 
L 120.844221 78.880978 
L 126.452261 80.813344 
L 129.256281 81.960607 
L 132.060302 83.243403 
L 134.864322 84.673217 
L 137.668342 86.261662 
L 140.472362 88.020301 
L 143.276382 89.96044 
L 146.080402 92.092894 
L 148.884422 94.427721 
L 151.688442 96.973936 
L 154.492462 99.739206 
L 157.296482 102.729531 
L 160.100503 105.948919 
L 162.904523 109.399056 
L 165.708543 113.078992 
L 168.512563 116.984841 
L 171.316583 121.10951 
L 176.924623 129.969546 
L 182.532663 139.53058 
L 188.140704 149.603598 
L 202.160804 175.282123 
L 207.768844 184.909414 
L 210.572864 189.415576 
L 213.376884 193.663975 
L 216.180905 197.619632 
L 218.984925 201.252865 
L 221.788945 204.540574 
L 224.592965 207.467374 
L 227.396985 210.026427 
L 230.201005 212.219896 
L 233.005025 214.058917 
L 235.809045 215.563078 
L 238.613065 216.759428 
L 241.417085 217.681113 
L 244.221106 218.365769 
L 247.025126 218.853815 
L 249.829146 219.186779 
L 255.437186 219.550154 
L 266.653266 220.052983 
L 272.261307 220.605491 
L 277.869347 221.50053 
L 283.477387 222.738898 
L 289.085427 224.239692 
L 300.301508 227.339158 
L 303.105528 227.958759 
L 305.909548 228.444619 
L 308.713568 228.75784 
L 311.517588 228.858911 
L 314.321608 228.708512 
L 317.125628 228.268349 
L 319.929648 227.502013 
L 322.733668 226.375835 
L 325.537688 224.859722 
L 328.341709 222.927951 
L 331.145729 220.559899 
L 333.949749 217.740696 
L 336.753769 214.461774 
L 339.557789 210.721311 
L 342.361809 206.524544 
L 345.165829 201.883951 
L 347.969849 196.819291 
L 350.773869 191.3575 
L 353.577889 185.532434 
L 356.38191 179.384463 
L 361.98995 166.31044 
L 370.40201 145.589294 
L 376.01005 131.750519 
L 381.61809 118.476048 
L 384.422111 112.197594 
L 387.226131 106.228852 
L 390.030151 100.615881 
L 392.834171 95.398204 
L 395.638191 90.608095 
L 398.442211 86.270063 
L 401.246231 82.40053 
L 404.050251 79.007715 
L 406.854271 76.091723 
L 409.658291 73.644835 
L 412.462312 71.651976 
L 415.266332 70.091356 
L 418.070352 68.935252 
L 420.874372 68.150904 
L 423.678392 67.701506 
L 426.482412 67.547256 
L 429.286432 67.646438 
L 432.090452 67.956506 
L 434.894472 68.435143 
L 440.502513 69.73596 
L 454.522613 73.418675 
L 460.130653 74.576339 
L 465.738693 75.426514 
L 471.346734 75.971093 
L 476.954774 76.2487 
L 482.562814 76.307321 
L 488.170854 76.178134 
L 493.778894 75.857811 
L 499.386935 75.306222 
L 504.994975 74.462803 
L 510.603015 73.277162 
L 516.211055 71.741038 
L 521.819095 69.906369 
L 541.447236 62.952588 
L 547.055276 61.400093 
L 552.663317 60.237506 
L 558.271357 59.511513 
L 563.879397 59.229993 
L 569.487437 59.367329 
L 575.095477 59.871876 
L 580.703518 60.674404 
L 586.311558 61.696532 
L 594.723618 63.468089 
L 608.743719 66.486398 
L 617.155779 68.069818 
L 625.567839 69.380016 
L 633.979899 70.401237 
L 642.39196 71.156508 
L 648 71.533449 
L 648 71.533449 
" style="fill:none;stroke:#3300ff;stroke-linecap:square;stroke-width:0.2;"/>
   </g>
   <g id="line2d_22">
    <path clip-path="url(#p53abfaccf2)" d="M 90 358.306551 
L 98.41206 358.908149 
L 106.824121 359.747894 
L 115.236181 360.864404 
L 123.648241 362.269891 
L 132.060302 363.931508 
L 154.492462 368.676944 
L 160.100503 369.599328 
L 165.708543 370.262284 
L 171.316583 370.590981 
L 176.924623 370.52391 
L 179.728643 370.328487 
L 182.532663 370.021419 
L 188.140704 369.073807 
L 193.748744 367.707888 
L 199.356784 365.990643 
L 204.964824 364.028217 
L 218.984925 358.984624 
L 224.592965 357.288859 
L 230.201005 355.925424 
L 235.809045 354.915212 
L 241.417085 354.225456 
L 247.025126 353.796389 
L 252.633166 353.574513 
L 258.241206 353.537226 
L 263.849246 353.699841 
L 269.457286 354.10486 
L 275.065327 354.799095 
L 280.673367 355.806044 
L 286.281407 357.100293 
L 303.105528 361.404857 
L 305.909548 361.883494 
L 308.713568 362.193562 
L 311.517588 362.292744 
L 314.321608 362.138494 
L 317.125628 361.689096 
L 319.929648 360.904748 
L 322.733668 359.748644 
L 325.537688 358.188024 
L 328.341709 356.195165 
L 331.145729 353.748277 
L 333.949749 350.832285 
L 336.753769 347.43947 
L 339.557789 343.569937 
L 342.361809 339.231905 
L 345.165829 334.441796 
L 347.969849 329.224119 
L 350.773869 323.611148 
L 353.577889 317.642406 
L 359.18593 304.827514 
L 364.79397 291.209784 
L 376.01005 263.52956 
L 381.61809 250.455537 
L 384.422111 244.307566 
L 387.226131 238.4825 
L 390.030151 233.020709 
L 392.834171 227.956049 
L 395.638191 223.315456 
L 398.442211 219.118689 
L 401.246231 215.378226 
L 404.050251 212.099304 
L 406.854271 209.280101 
L 409.658291 206.912049 
L 412.462312 204.980278 
L 415.266332 203.464165 
L 418.070352 202.337987 
L 420.874372 201.571651 
L 423.678392 201.131488 
L 426.482412 200.981089 
L 429.286432 201.08216 
L 432.090452 201.395381 
L 434.894472 201.881241 
L 440.502513 203.216647 
L 454.522613 207.101102 
L 460.130653 208.33947 
L 465.738693 209.234509 
L 471.346734 209.787017 
L 476.954774 210.082512 
L 485.366834 210.434228 
L 488.170854 210.653221 
L 490.974874 210.986185 
L 493.778894 211.474231 
L 496.582915 212.158887 
L 499.386935 213.080572 
L 502.190955 214.276922 
L 504.994975 215.781083 
L 507.798995 217.620104 
L 510.603015 219.813573 
L 513.407035 222.372626 
L 516.211055 225.299426 
L 519.015075 228.587135 
L 521.819095 232.220368 
L 524.623116 236.176025 
L 527.427136 240.424424 
L 530.231156 244.930586 
L 535.839196 254.557877 
L 541.447236 264.722361 
L 552.663317 285.322749 
L 558.271357 295.16717 
L 563.879397 304.397534 
L 566.683417 308.73049 
L 569.487437 312.855159 
L 572.291457 316.761008 
L 575.095477 320.440944 
L 577.899497 323.891081 
L 580.703518 327.110469 
L 583.507538 330.100794 
L 586.311558 332.866064 
L 589.115578 335.412279 
L 591.919598 337.747106 
L 594.723618 339.87956 
L 597.527638 341.819699 
L 600.331658 343.578338 
L 603.135678 345.166783 
L 605.939698 346.596597 
L 608.743719 347.879393 
L 611.547739 349.026656 
L 617.155779 350.959022 
L 622.763819 352.478092 
L 628.371859 353.659561 
L 633.979899 354.569232 
L 639.58794 355.262886 
L 648 355.997283 
L 648 355.997283 
" style="fill:none;stroke:#3300ff;stroke-linecap:square;stroke-width:0.2;"/>
   </g>
   <g id="patch_4">
    <path d="M 90 378 
L 90 51.84 
" style="fill:none;stroke:#000000;stroke-linecap:square;stroke-linejoin:miter;stroke-width:0.8;"/>
   </g>
   <g id="patch_5">
    <path d="M 648 378 
L 648 51.84 
" style="fill:none;stroke:#000000;stroke-linecap:square;stroke-linejoin:miter;stroke-width:0.8;"/>
   </g>
   <g id="patch_6">
    <path d="M 90 378 
L 648 378 
" style="fill:none;stroke:#000000;stroke-linecap:square;stroke-linejoin:miter;stroke-width:0.8;"/>
   </g>
   <g id="patch_7">
    <path d="M 90 51.84 
L 648 51.84 
" style="fill:none;stroke:#000000;stroke-linecap:square;stroke-linejoin:miter;stroke-width:0.8;"/>
   </g>
  </g>
 </g>
 <defs>
  <clipPath id="p53abfaccf2">
   <rect height="326.16" width="558" x="90" y="51.84"/>
  </clipPath>
 </defs>
</svg>
