<?xml version="1.0" encoding="utf-8" standalone="no"?>
<!DOCTYPE svg PUBLIC "-//W3C//DTD SVG 1.1//EN"
  "http://www.w3.org/Graphics/SVG/1.1/DTD/svg11.dtd">
<!-- Created with matplotlib (http://matplotlib.org/) -->
<svg height="432pt" version="1.1" viewBox="0 0 720 432" width="720pt" xmlns="http://www.w3.org/2000/svg" xmlns:xlink="http://www.w3.org/1999/xlink">
 <defs>
  <style type="text/css">
*{stroke-linecap:butt;stroke-linejoin:round;}
  </style>
 </defs>
 <g id="figure_1">
  <g id="patch_1">
   <path d="M 0 432 
L 720 432 
L 720 0 
L 0 0 
z
" style="fill:none;"/>
  </g>
  <g id="axes_1">
   <g id="patch_2">
    <path d="M 90 378 
L 648 378 
L 648 51.84 
L 90 51.84 
z
" style="fill:none;"/>
   </g>
   <g id="matplotlib.axis_1">
    <g id="xtick_1">
     <g id="line2d_1">
      <defs>
       <path d="M 0 0 
L 0 3.5 
" id="me91450726c" style="stroke:#000000;stroke-width:0.8;"/>
      </defs>
      <g>
       <use style="stroke:#000000;stroke-width:0.8;" x="90" xlink:href="#me91450726c" y="378"/>
      </g>
     </g>
     <g id="text_1">
      <!-- −20 -->
      <defs>
       <path d="M 10.59375 35.5 
L 73.1875 35.5 
L 73.1875 27.203125 
L 10.59375 27.203125 
z
" id="DejaVuSans-2212"/>
       <path d="M 19.1875 8.296875 
L 53.609375 8.296875 
L 53.609375 0 
L 7.328125 0 
L 7.328125 8.296875 
Q 12.9375 14.109375 22.625 23.890625 
Q 32.328125 33.6875 34.8125 36.53125 
Q 39.546875 41.84375 41.421875 45.53125 
Q 43.3125 49.21875 43.3125 52.78125 
Q 43.3125 58.59375 39.234375 62.25 
Q 35.15625 65.921875 28.609375 65.921875 
Q 23.96875 65.921875 18.8125 64.3125 
Q 13.671875 62.703125 7.8125 59.421875 
L 7.8125 69.390625 
Q 13.765625 71.78125 18.9375 73 
Q 24.125 74.21875 28.421875 74.21875 
Q 39.75 74.21875 46.484375 68.546875 
Q 53.21875 62.890625 53.21875 53.421875 
Q 53.21875 48.921875 51.53125 44.890625 
Q 49.859375 40.875 45.40625 35.40625 
Q 44.1875 33.984375 37.640625 27.21875 
Q 31.109375 20.453125 19.1875 8.296875 
z
" id="DejaVuSans-32"/>
       <path d="M 31.78125 66.40625 
Q 24.171875 66.40625 20.328125 58.90625 
Q 16.5 51.421875 16.5 36.375 
Q 16.5 21.390625 20.328125 13.890625 
Q 24.171875 6.390625 31.78125 6.390625 
Q 39.453125 6.390625 43.28125 13.890625 
Q 47.125 21.390625 47.125 36.375 
Q 47.125 51.421875 43.28125 58.90625 
Q 39.453125 66.40625 31.78125 66.40625 
z
M 31.78125 74.21875 
Q 44.046875 74.21875 50.515625 64.515625 
Q 56.984375 54.828125 56.984375 36.375 
Q 56.984375 17.96875 50.515625 8.265625 
Q 44.046875 -1.421875 31.78125 -1.421875 
Q 19.53125 -1.421875 13.0625 8.265625 
Q 6.59375 17.96875 6.59375 36.375 
Q 6.59375 54.828125 13.0625 64.515625 
Q 19.53125 74.21875 31.78125 74.21875 
z
" id="DejaVuSans-30"/>
      </defs>
      <g transform="translate(79.447656 392.598437)scale(0.1 -0.1)">
       <use xlink:href="#DejaVuSans-2212"/>
       <use x="83.789062" xlink:href="#DejaVuSans-32"/>
       <use x="147.412109" xlink:href="#DejaVuSans-30"/>
      </g>
     </g>
    </g>
    <g id="xtick_2">
     <g id="line2d_2">
      <g>
       <use style="stroke:#000000;stroke-width:0.8;" x="201.6" xlink:href="#me91450726c" y="378"/>
      </g>
     </g>
     <g id="text_2">
      <!-- 0 -->
      <g transform="translate(198.41875 392.598437)scale(0.1 -0.1)">
       <use xlink:href="#DejaVuSans-30"/>
      </g>
     </g>
    </g>
    <g id="xtick_3">
     <g id="line2d_3">
      <g>
       <use style="stroke:#000000;stroke-width:0.8;" x="313.2" xlink:href="#me91450726c" y="378"/>
      </g>
     </g>
     <g id="text_3">
      <!-- 20 -->
      <g transform="translate(306.8375 392.598437)scale(0.1 -0.1)">
       <use xlink:href="#DejaVuSans-32"/>
       <use x="63.623047" xlink:href="#DejaVuSans-30"/>
      </g>
     </g>
    </g>
    <g id="xtick_4">
     <g id="line2d_4">
      <g>
       <use style="stroke:#000000;stroke-width:0.8;" x="424.8" xlink:href="#me91450726c" y="378"/>
      </g>
     </g>
     <g id="text_4">
      <!-- 40 -->
      <defs>
       <path d="M 37.796875 64.3125 
L 12.890625 25.390625 
L 37.796875 25.390625 
z
M 35.203125 72.90625 
L 47.609375 72.90625 
L 47.609375 25.390625 
L 58.015625 25.390625 
L 58.015625 17.1875 
L 47.609375 17.1875 
L 47.609375 0 
L 37.796875 0 
L 37.796875 17.1875 
L 4.890625 17.1875 
L 4.890625 26.703125 
z
" id="DejaVuSans-34"/>
      </defs>
      <g transform="translate(418.4375 392.598437)scale(0.1 -0.1)">
       <use xlink:href="#DejaVuSans-34"/>
       <use x="63.623047" xlink:href="#DejaVuSans-30"/>
      </g>
     </g>
    </g>
    <g id="xtick_5">
     <g id="line2d_5">
      <g>
       <use style="stroke:#000000;stroke-width:0.8;" x="536.4" xlink:href="#me91450726c" y="378"/>
      </g>
     </g>
     <g id="text_5">
      <!-- 60 -->
      <defs>
       <path d="M 33.015625 40.375 
Q 26.375 40.375 22.484375 35.828125 
Q 18.609375 31.296875 18.609375 23.390625 
Q 18.609375 15.53125 22.484375 10.953125 
Q 26.375 6.390625 33.015625 6.390625 
Q 39.65625 6.390625 43.53125 10.953125 
Q 47.40625 15.53125 47.40625 23.390625 
Q 47.40625 31.296875 43.53125 35.828125 
Q 39.65625 40.375 33.015625 40.375 
z
M 52.59375 71.296875 
L 52.59375 62.3125 
Q 48.875 64.0625 45.09375 64.984375 
Q 41.3125 65.921875 37.59375 65.921875 
Q 27.828125 65.921875 22.671875 59.328125 
Q 17.53125 52.734375 16.796875 39.40625 
Q 19.671875 43.65625 24.015625 45.921875 
Q 28.375 48.1875 33.59375 48.1875 
Q 44.578125 48.1875 50.953125 41.515625 
Q 57.328125 34.859375 57.328125 23.390625 
Q 57.328125 12.15625 50.6875 5.359375 
Q 44.046875 -1.421875 33.015625 -1.421875 
Q 20.359375 -1.421875 13.671875 8.265625 
Q 6.984375 17.96875 6.984375 36.375 
Q 6.984375 53.65625 15.1875 63.9375 
Q 23.390625 74.21875 37.203125 74.21875 
Q 40.921875 74.21875 44.703125 73.484375 
Q 48.484375 72.75 52.59375 71.296875 
z
" id="DejaVuSans-36"/>
      </defs>
      <g transform="translate(530.0375 392.598437)scale(0.1 -0.1)">
       <use xlink:href="#DejaVuSans-36"/>
       <use x="63.623047" xlink:href="#DejaVuSans-30"/>
      </g>
     </g>
    </g>
    <g id="xtick_6">
     <g id="line2d_6">
      <g>
       <use style="stroke:#000000;stroke-width:0.8;" x="648" xlink:href="#me91450726c" y="378"/>
      </g>
     </g>
     <g id="text_6">
      <!-- 80 -->
      <defs>
       <path d="M 31.78125 34.625 
Q 24.75 34.625 20.71875 30.859375 
Q 16.703125 27.09375 16.703125 20.515625 
Q 16.703125 13.921875 20.71875 10.15625 
Q 24.75 6.390625 31.78125 6.390625 
Q 38.8125 6.390625 42.859375 10.171875 
Q 46.921875 13.96875 46.921875 20.515625 
Q 46.921875 27.09375 42.890625 30.859375 
Q 38.875 34.625 31.78125 34.625 
z
M 21.921875 38.8125 
Q 15.578125 40.375 12.03125 44.71875 
Q 8.5 49.078125 8.5 55.328125 
Q 8.5 64.0625 14.71875 69.140625 
Q 20.953125 74.21875 31.78125 74.21875 
Q 42.671875 74.21875 48.875 69.140625 
Q 55.078125 64.0625 55.078125 55.328125 
Q 55.078125 49.078125 51.53125 44.71875 
Q 48 40.375 41.703125 38.8125 
Q 48.828125 37.15625 52.796875 32.3125 
Q 56.78125 27.484375 56.78125 20.515625 
Q 56.78125 9.90625 50.3125 4.234375 
Q 43.84375 -1.421875 31.78125 -1.421875 
Q 19.734375 -1.421875 13.25 4.234375 
Q 6.78125 9.90625 6.78125 20.515625 
Q 6.78125 27.484375 10.78125 32.3125 
Q 14.796875 37.15625 21.921875 38.8125 
z
M 18.3125 54.390625 
Q 18.3125 48.734375 21.84375 45.5625 
Q 25.390625 42.390625 31.78125 42.390625 
Q 38.140625 42.390625 41.71875 45.5625 
Q 45.3125 48.734375 45.3125 54.390625 
Q 45.3125 60.0625 41.71875 63.234375 
Q 38.140625 66.40625 31.78125 66.40625 
Q 25.390625 66.40625 21.84375 63.234375 
Q 18.3125 60.0625 18.3125 54.390625 
z
" id="DejaVuSans-38"/>
      </defs>
      <g transform="translate(641.6375 392.598437)scale(0.1 -0.1)">
       <use xlink:href="#DejaVuSans-38"/>
       <use x="63.623047" xlink:href="#DejaVuSans-30"/>
      </g>
     </g>
    </g>
    <g id="text_7">
     <!-- time -->
     <defs>
      <path d="M 18.3125 70.21875 
L 18.3125 54.6875 
L 36.8125 54.6875 
L 36.8125 47.703125 
L 18.3125 47.703125 
L 18.3125 18.015625 
Q 18.3125 11.328125 20.140625 9.421875 
Q 21.96875 7.515625 27.59375 7.515625 
L 36.8125 7.515625 
L 36.8125 0 
L 27.59375 0 
Q 17.1875 0 13.234375 3.875 
Q 9.28125 7.765625 9.28125 18.015625 
L 9.28125 47.703125 
L 2.6875 47.703125 
L 2.6875 54.6875 
L 9.28125 54.6875 
L 9.28125 70.21875 
z
" id="DejaVuSans-74"/>
      <path d="M 9.421875 54.6875 
L 18.40625 54.6875 
L 18.40625 0 
L 9.421875 0 
z
M 9.421875 75.984375 
L 18.40625 75.984375 
L 18.40625 64.59375 
L 9.421875 64.59375 
z
" id="DejaVuSans-69"/>
      <path d="M 52 44.1875 
Q 55.375 50.25 60.0625 53.125 
Q 64.75 56 71.09375 56 
Q 79.640625 56 84.28125 50.015625 
Q 88.921875 44.046875 88.921875 33.015625 
L 88.921875 0 
L 79.890625 0 
L 79.890625 32.71875 
Q 79.890625 40.578125 77.09375 44.375 
Q 74.3125 48.1875 68.609375 48.1875 
Q 61.625 48.1875 57.5625 43.546875 
Q 53.515625 38.921875 53.515625 30.90625 
L 53.515625 0 
L 44.484375 0 
L 44.484375 32.71875 
Q 44.484375 40.625 41.703125 44.40625 
Q 38.921875 48.1875 33.109375 48.1875 
Q 26.21875 48.1875 22.15625 43.53125 
Q 18.109375 38.875 18.109375 30.90625 
L 18.109375 0 
L 9.078125 0 
L 9.078125 54.6875 
L 18.109375 54.6875 
L 18.109375 46.1875 
Q 21.1875 51.21875 25.484375 53.609375 
Q 29.78125 56 35.6875 56 
Q 41.65625 56 45.828125 52.96875 
Q 50 49.953125 52 44.1875 
z
" id="DejaVuSans-6d"/>
      <path d="M 56.203125 29.59375 
L 56.203125 25.203125 
L 14.890625 25.203125 
Q 15.484375 15.921875 20.484375 11.0625 
Q 25.484375 6.203125 34.421875 6.203125 
Q 39.59375 6.203125 44.453125 7.46875 
Q 49.3125 8.734375 54.109375 11.28125 
L 54.109375 2.78125 
Q 49.265625 0.734375 44.1875 -0.34375 
Q 39.109375 -1.421875 33.890625 -1.421875 
Q 20.796875 -1.421875 13.15625 6.1875 
Q 5.515625 13.8125 5.515625 26.8125 
Q 5.515625 40.234375 12.765625 48.109375 
Q 20.015625 56 32.328125 56 
Q 43.359375 56 49.78125 48.890625 
Q 56.203125 41.796875 56.203125 29.59375 
z
M 47.21875 32.234375 
Q 47.125 39.59375 43.09375 43.984375 
Q 39.0625 48.390625 32.421875 48.390625 
Q 24.90625 48.390625 20.390625 44.140625 
Q 15.875 39.890625 15.1875 32.171875 
z
" id="DejaVuSans-65"/>
     </defs>
     <g transform="translate(346.407812 413.875)scale(0.2 -0.2)">
      <use xlink:href="#DejaVuSans-74"/>
      <use x="39.208984" xlink:href="#DejaVuSans-69"/>
      <use x="66.992188" xlink:href="#DejaVuSans-6d"/>
      <use x="164.404297" xlink:href="#DejaVuSans-65"/>
     </g>
    </g>
   </g>
   <g id="matplotlib.axis_2">
    <g id="ytick_1">
     <g id="line2d_7">
      <defs>
       <path d="M 0 0 
L -3.5 0 
" id="m3864bdb1a0" style="stroke:#000000;stroke-width:0.8;"/>
      </defs>
      <g>
       <use style="stroke:#000000;stroke-width:0.8;" x="90" xlink:href="#m3864bdb1a0" y="350.82"/>
      </g>
     </g>
     <g id="text_8">
      <!-- −150 -->
      <defs>
       <path d="M 12.40625 8.296875 
L 28.515625 8.296875 
L 28.515625 63.921875 
L 10.984375 60.40625 
L 10.984375 69.390625 
L 28.421875 72.90625 
L 38.28125 72.90625 
L 38.28125 8.296875 
L 54.390625 8.296875 
L 54.390625 0 
L 12.40625 0 
z
" id="DejaVuSans-31"/>
       <path d="M 10.796875 72.90625 
L 49.515625 72.90625 
L 49.515625 64.59375 
L 19.828125 64.59375 
L 19.828125 46.734375 
Q 21.96875 47.46875 24.109375 47.828125 
Q 26.265625 48.1875 28.421875 48.1875 
Q 40.625 48.1875 47.75 41.5 
Q 54.890625 34.8125 54.890625 23.390625 
Q 54.890625 11.625 47.5625 5.09375 
Q 40.234375 -1.421875 26.90625 -1.421875 
Q 22.3125 -1.421875 17.546875 -0.640625 
Q 12.796875 0.140625 7.71875 1.703125 
L 7.71875 11.625 
Q 12.109375 9.234375 16.796875 8.0625 
Q 21.484375 6.890625 26.703125 6.890625 
Q 35.15625 6.890625 40.078125 11.328125 
Q 45.015625 15.765625 45.015625 23.390625 
Q 45.015625 31 40.078125 35.4375 
Q 35.15625 39.890625 26.703125 39.890625 
Q 22.75 39.890625 18.8125 39.015625 
Q 14.890625 38.140625 10.796875 36.28125 
z
" id="DejaVuSans-35"/>
      </defs>
      <g transform="translate(55.532812 354.619219)scale(0.1 -0.1)">
       <use xlink:href="#DejaVuSans-2212"/>
       <use x="83.789062" xlink:href="#DejaVuSans-31"/>
       <use x="147.412109" xlink:href="#DejaVuSans-35"/>
       <use x="211.035156" xlink:href="#DejaVuSans-30"/>
      </g>
     </g>
    </g>
    <g id="ytick_2">
     <g id="line2d_8">
      <g>
       <use style="stroke:#000000;stroke-width:0.8;" x="90" xlink:href="#m3864bdb1a0" y="296.46"/>
      </g>
     </g>
     <g id="text_9">
      <!-- −100 -->
      <g transform="translate(55.532812 300.259219)scale(0.1 -0.1)">
       <use xlink:href="#DejaVuSans-2212"/>
       <use x="83.789062" xlink:href="#DejaVuSans-31"/>
       <use x="147.412109" xlink:href="#DejaVuSans-30"/>
       <use x="211.035156" xlink:href="#DejaVuSans-30"/>
      </g>
     </g>
    </g>
    <g id="ytick_3">
     <g id="line2d_9">
      <g>
       <use style="stroke:#000000;stroke-width:0.8;" x="90" xlink:href="#m3864bdb1a0" y="242.1"/>
      </g>
     </g>
     <g id="text_10">
      <!-- −50 -->
      <g transform="translate(61.895313 245.899219)scale(0.1 -0.1)">
       <use xlink:href="#DejaVuSans-2212"/>
       <use x="83.789062" xlink:href="#DejaVuSans-35"/>
       <use x="147.412109" xlink:href="#DejaVuSans-30"/>
      </g>
     </g>
    </g>
    <g id="ytick_4">
     <g id="line2d_10">
      <g>
       <use style="stroke:#000000;stroke-width:0.8;" x="90" xlink:href="#m3864bdb1a0" y="187.74"/>
      </g>
     </g>
     <g id="text_11">
      <!-- 0 -->
      <g transform="translate(76.6375 191.539219)scale(0.1 -0.1)">
       <use xlink:href="#DejaVuSans-30"/>
      </g>
     </g>
    </g>
    <g id="ytick_5">
     <g id="line2d_11">
      <g>
       <use style="stroke:#000000;stroke-width:0.8;" x="90" xlink:href="#m3864bdb1a0" y="133.38"/>
      </g>
     </g>
     <g id="text_12">
      <!-- 50 -->
      <g transform="translate(70.275 137.179219)scale(0.1 -0.1)">
       <use xlink:href="#DejaVuSans-35"/>
       <use x="63.623047" xlink:href="#DejaVuSans-30"/>
      </g>
     </g>
    </g>
    <g id="ytick_6">
     <g id="line2d_12">
      <g>
       <use style="stroke:#000000;stroke-width:0.8;" x="90" xlink:href="#m3864bdb1a0" y="79.02"/>
      </g>
     </g>
     <g id="text_13">
      <!-- 100 -->
      <g transform="translate(63.9125 82.819219)scale(0.1 -0.1)">
       <use xlink:href="#DejaVuSans-31"/>
       <use x="63.623047" xlink:href="#DejaVuSans-30"/>
       <use x="127.246094" xlink:href="#DejaVuSans-30"/>
      </g>
     </g>
    </g>
    <g id="text_14">
     <!-- acceleration -->
     <defs>
      <path d="M 34.28125 27.484375 
Q 23.390625 27.484375 19.1875 25 
Q 14.984375 22.515625 14.984375 16.5 
Q 14.984375 11.71875 18.140625 8.90625 
Q 21.296875 6.109375 26.703125 6.109375 
Q 34.1875 6.109375 38.703125 11.40625 
Q 43.21875 16.703125 43.21875 25.484375 
L 43.21875 27.484375 
z
M 52.203125 31.203125 
L 52.203125 0 
L 43.21875 0 
L 43.21875 8.296875 
Q 40.140625 3.328125 35.546875 0.953125 
Q 30.953125 -1.421875 24.3125 -1.421875 
Q 15.921875 -1.421875 10.953125 3.296875 
Q 6 8.015625 6 15.921875 
Q 6 25.140625 12.171875 29.828125 
Q 18.359375 34.515625 30.609375 34.515625 
L 43.21875 34.515625 
L 43.21875 35.40625 
Q 43.21875 41.609375 39.140625 45 
Q 35.0625 48.390625 27.6875 48.390625 
Q 23 48.390625 18.546875 47.265625 
Q 14.109375 46.140625 10.015625 43.890625 
L 10.015625 52.203125 
Q 14.9375 54.109375 19.578125 55.046875 
Q 24.21875 56 28.609375 56 
Q 40.484375 56 46.34375 49.84375 
Q 52.203125 43.703125 52.203125 31.203125 
z
" id="DejaVuSans-61"/>
      <path d="M 48.78125 52.59375 
L 48.78125 44.1875 
Q 44.96875 46.296875 41.140625 47.34375 
Q 37.3125 48.390625 33.40625 48.390625 
Q 24.65625 48.390625 19.8125 42.84375 
Q 14.984375 37.3125 14.984375 27.296875 
Q 14.984375 17.28125 19.8125 11.734375 
Q 24.65625 6.203125 33.40625 6.203125 
Q 37.3125 6.203125 41.140625 7.25 
Q 44.96875 8.296875 48.78125 10.40625 
L 48.78125 2.09375 
Q 45.015625 0.34375 40.984375 -0.53125 
Q 36.96875 -1.421875 32.421875 -1.421875 
Q 20.0625 -1.421875 12.78125 6.34375 
Q 5.515625 14.109375 5.515625 27.296875 
Q 5.515625 40.671875 12.859375 48.328125 
Q 20.21875 56 33.015625 56 
Q 37.15625 56 41.109375 55.140625 
Q 45.0625 54.296875 48.78125 52.59375 
z
" id="DejaVuSans-63"/>
      <path d="M 9.421875 75.984375 
L 18.40625 75.984375 
L 18.40625 0 
L 9.421875 0 
z
" id="DejaVuSans-6c"/>
      <path d="M 41.109375 46.296875 
Q 39.59375 47.171875 37.8125 47.578125 
Q 36.03125 48 33.890625 48 
Q 26.265625 48 22.1875 43.046875 
Q 18.109375 38.09375 18.109375 28.8125 
L 18.109375 0 
L 9.078125 0 
L 9.078125 54.6875 
L 18.109375 54.6875 
L 18.109375 46.1875 
Q 20.953125 51.171875 25.484375 53.578125 
Q 30.03125 56 36.53125 56 
Q 37.453125 56 38.578125 55.875 
Q 39.703125 55.765625 41.0625 55.515625 
z
" id="DejaVuSans-72"/>
      <path d="M 30.609375 48.390625 
Q 23.390625 48.390625 19.1875 42.75 
Q 14.984375 37.109375 14.984375 27.296875 
Q 14.984375 17.484375 19.15625 11.84375 
Q 23.34375 6.203125 30.609375 6.203125 
Q 37.796875 6.203125 41.984375 11.859375 
Q 46.1875 17.53125 46.1875 27.296875 
Q 46.1875 37.015625 41.984375 42.703125 
Q 37.796875 48.390625 30.609375 48.390625 
z
M 30.609375 56 
Q 42.328125 56 49.015625 48.375 
Q 55.71875 40.765625 55.71875 27.296875 
Q 55.71875 13.875 49.015625 6.21875 
Q 42.328125 -1.421875 30.609375 -1.421875 
Q 18.84375 -1.421875 12.171875 6.21875 
Q 5.515625 13.875 5.515625 27.296875 
Q 5.515625 40.765625 12.171875 48.375 
Q 18.84375 56 30.609375 56 
z
" id="DejaVuSans-6f"/>
      <path d="M 54.890625 33.015625 
L 54.890625 0 
L 45.90625 0 
L 45.90625 32.71875 
Q 45.90625 40.484375 42.875 44.328125 
Q 39.84375 48.1875 33.796875 48.1875 
Q 26.515625 48.1875 22.3125 43.546875 
Q 18.109375 38.921875 18.109375 30.90625 
L 18.109375 0 
L 9.078125 0 
L 9.078125 54.6875 
L 18.109375 54.6875 
L 18.109375 46.1875 
Q 21.34375 51.125 25.703125 53.5625 
Q 30.078125 56 35.796875 56 
Q 45.21875 56 50.046875 50.171875 
Q 54.890625 44.34375 54.890625 33.015625 
z
" id="DejaVuSans-6e"/>
     </defs>
     <g transform="translate(47.373437 276.523125)rotate(-90)scale(0.2 -0.2)">
      <use xlink:href="#DejaVuSans-61"/>
      <use x="61.279297" xlink:href="#DejaVuSans-63"/>
      <use x="116.259766" xlink:href="#DejaVuSans-63"/>
      <use x="171.240234" xlink:href="#DejaVuSans-65"/>
      <use x="232.763672" xlink:href="#DejaVuSans-6c"/>
      <use x="260.546875" xlink:href="#DejaVuSans-65"/>
      <use x="322.070312" xlink:href="#DejaVuSans-72"/>
      <use x="363.183594" xlink:href="#DejaVuSans-61"/>
      <use x="424.462891" xlink:href="#DejaVuSans-74"/>
      <use x="463.671875" xlink:href="#DejaVuSans-69"/>
      <use x="491.455078" xlink:href="#DejaVuSans-6f"/>
      <use x="552.636719" xlink:href="#DejaVuSans-6e"/>
     </g>
    </g>
   </g>
   <g id="line2d_13">
    <defs>
     <path d="M 0 2.5 
C 0.663008 2.5 1.29895 2.236584 1.767767 1.767767 
C 2.236584 1.29895 2.5 0.663008 2.5 0 
C 2.5 -0.663008 2.236584 -1.29895 1.767767 -1.767767 
C 1.29895 -2.236584 0.663008 -2.5 0 -2.5 
C -0.663008 -2.5 -1.29895 -2.236584 -1.767767 -1.767767 
C -2.236584 -1.29895 -2.5 -0.663008 -2.5 0 
C -2.5 0.663008 -2.236584 1.29895 -1.767767 1.767767 
C -1.29895 2.236584 -0.663008 2.5 0 2.5 
z
" id="m60b4155fc1" style="stroke:#ff0000;"/>
    </defs>
    <g clip-path="url(#pa5d4577367)">
     <use style="fill:#ff0000;stroke:#ff0000;" x="398.016" xlink:href="#m60b4155fc1" y="205.1352"/>
     <use style="fill:#ff0000;stroke:#ff0000;" x="355.608" xlink:href="#m60b4155fc1" y="183.3912"/>
     <use style="fill:#ff0000;stroke:#ff0000;" x="400.248" xlink:href="#m60b4155fc1" y="149.90544"/>
     <use style="fill:#ff0000;stroke:#ff0000;" x="358.956" xlink:href="#m60b4155fc1" y="174.6936"/>
     <use style="fill:#ff0000;stroke:#ff0000;" x="523.008" xlink:href="#m60b4155fc1" y="176.10696"/>
     <use style="fill:#ff0000;stroke:#ff0000;" x="348.912" xlink:href="#m60b4155fc1" y="259.06032"/>
     <use style="fill:#ff0000;stroke:#ff0000;" x="461.628" xlink:href="#m60b4155fc1" y="176.10696"/>
     <use style="fill:#ff0000;stroke:#ff0000;" x="508.5" xlink:href="#m60b4155fc1" y="190.67544"/>
     <use style="fill:#ff0000;stroke:#ff0000;" x="294.228" xlink:href="#m60b4155fc1" y="251.8848"/>
     <use style="fill:#ff0000;stroke:#ff0000;" x="247.356" xlink:href="#m60b4155fc1" y="190.67544"/>
     <use style="fill:#ff0000;stroke:#ff0000;" x="384.624" xlink:href="#m60b4155fc1" y="136.75032"/>
     <use style="fill:#ff0000;stroke:#ff0000;" x="308.736" xlink:href="#m60b4155fc1" y="321.57432"/>
     <use style="fill:#ff0000;stroke:#ff0000;" x="283.068" xlink:href="#m60b4155fc1" y="202.19976"/>
     <use style="fill:#ff0000;stroke:#ff0000;" x="440.424" xlink:href="#m60b4155fc1" y="187.74"/>
     <use style="fill:#ff0000;stroke:#ff0000;" x="255.168" xlink:href="#m60b4155fc1" y="190.67544"/>
     <use style="fill:#ff0000;stroke:#ff0000;" x="483.948" xlink:href="#m60b4155fc1" y="187.74"/>
     <use style="fill:#ff0000;stroke:#ff0000;" x="214.992" xlink:href="#m60b4155fc1" y="187.74"/>
     <use style="fill:#ff0000;stroke:#ff0000;" x="395.784" xlink:href="#m60b4155fc1" y="106.2"/>
     <use style="fill:#ff0000;stroke:#ff0000;" x="387.972" xlink:href="#m60b4155fc1" y="170.3448"/>
     <use style="fill:#ff0000;stroke:#ff0000;" x="236.196" xlink:href="#m60b4155fc1" y="190.67544"/>
     <use style="fill:#ff0000;stroke:#ff0000;" x="393.552" xlink:href="#m60b4155fc1" y="186.32664"/>
     <use style="fill:#ff0000;stroke:#ff0000;" x="365.652" xlink:href="#m60b4155fc1" y="206.65728"/>
     <use style="fill:#ff0000;stroke:#ff0000;" x="344.448" xlink:href="#m60b4155fc1" y="216.87696"/>
     <use style="fill:#ff0000;stroke:#ff0000;" x="290.88" xlink:href="#m60b4155fc1" y="234.38088"/>
     <use style="fill:#ff0000;stroke:#ff0000;" x="278.604" xlink:href="#m60b4155fc1" y="187.74"/>
     <use style="fill:#ff0000;stroke:#ff0000;" x="288.648" xlink:href="#m60b4155fc1" y="231.44544"/>
     <use style="fill:#ff0000;stroke:#ff0000;" x="314.316" xlink:href="#m60b4155fc1" y="321.57432"/>
     <use style="fill:#ff0000;stroke:#ff0000;" x="449.352" xlink:href="#m60b4155fc1" y="187.74"/>
     <use style="fill:#ff0000;stroke:#ff0000;" x="221.688" xlink:href="#m60b4155fc1" y="187.74"/>
     <use style="fill:#ff0000;stroke:#ff0000;" x="319.896" xlink:href="#m60b4155fc1" y="333.4248"/>
     <use style="fill:#ff0000;stroke:#ff0000;" x="250.704" xlink:href="#m60b4155fc1" y="189.15336"/>
     <use style="fill:#ff0000;stroke:#ff0000;" x="336.636" xlink:href="#m60b4155fc1" y="291.13272"/>
     <use style="fill:#ff0000;stroke:#ff0000;" x="452.7" xlink:href="#m60b4155fc1" y="176.10696"/>
     <use style="fill:#ff0000;stroke:#ff0000;" x="390.204" xlink:href="#m60b4155fc1" y="138.16368"/>
     <use style="fill:#ff0000;stroke:#ff0000;" x="245.124" xlink:href="#m60b4155fc1" y="190.67544"/>
     <use style="fill:#ff0000;stroke:#ff0000;" x="413.64" xlink:href="#m60b4155fc1" y="136.75032"/>
     <use style="fill:#ff0000;stroke:#ff0000;" x="216.108" xlink:href="#m60b4155fc1" y="189.15336"/>
     <use style="fill:#ff0000;stroke:#ff0000;" x="433.728" xlink:href="#m60b4155fc1" y="154.25424"/>
     <use style="fill:#ff0000;stroke:#ff0000;" x="315.432" xlink:href="#m60b4155fc1" y="315.92088"/>
     <use style="fill:#ff0000;stroke:#ff0000;" x="331.056" xlink:href="#m60b4155fc1" y="321.57432"/>
     <use style="fill:#ff0000;stroke:#ff0000;" x="346.68" xlink:href="#m60b4155fc1" y="193.61088"/>
     <use style="fill:#ff0000;stroke:#ff0000;" x="424.8" xlink:href="#m60b4155fc1" y="211.1148"/>
     <use style="fill:#ff0000;stroke:#ff0000;" x="360.072" xlink:href="#m60b4155fc1" y="211.1148"/>
     <use style="fill:#ff0000;stroke:#ff0000;" x="510.732" xlink:href="#m60b4155fc1" y="190.67544"/>
     <use style="fill:#ff0000;stroke:#ff0000;" x="287.532" xlink:href="#m60b4155fc1" y="212.52816"/>
     <use style="fill:#ff0000;stroke:#ff0000;" x="498.456" xlink:href="#m60b4155fc1" y="203.72184"/>
     <use style="fill:#ff0000;stroke:#ff0000;" x="265.212" xlink:href="#m60b4155fc1" y="187.74"/>
     <use style="fill:#ff0000;stroke:#ff0000;" x="473.904" xlink:href="#m60b4155fc1" y="202.19976"/>
     <use style="fill:#ff0000;stroke:#ff0000;" x="343.332" xlink:href="#m60b4155fc1" y="266.34456"/>
     <use style="fill:#ff0000;stroke:#ff0000;" x="277.488" xlink:href="#m60b4155fc1" y="190.67544"/>
     <use style="fill:#ff0000;stroke:#ff0000;" x="420.336" xlink:href="#m60b4155fc1" y="181.86912"/>
     <use style="fill:#ff0000;stroke:#ff0000;" x="427.032" xlink:href="#m60b4155fc1" y="202.19976"/>
     <use style="fill:#ff0000;stroke:#ff0000;" x="295.344" xlink:href="#m60b4155fc1" y="264.9312"/>
     <use style="fill:#ff0000;stroke:#ff0000;" x="223.92" xlink:href="#m60b4155fc1" y="190.67544"/>
     <use style="fill:#ff0000;stroke:#ff0000;" x="441.54" xlink:href="#m60b4155fc1" y="171.75816"/>
     <use style="fill:#ff0000;stroke:#ff0000;" x="289.764" xlink:href="#m60b4155fc1" y="211.1148"/>
     <use style="fill:#ff0000;stroke:#ff0000;" x="338.868" xlink:href="#m60b4155fc1" y="245.9052"/>
     <use style="fill:#ff0000;stroke:#ff0000;" x="293.112" xlink:href="#m60b4155fc1" y="193.61088"/>
     <use style="fill:#ff0000;stroke:#ff0000;" x="361.188" xlink:href="#m60b4155fc1" y="136.75032"/>
     <use style="fill:#ff0000;stroke:#ff0000;" x="491.76" xlink:href="#m60b4155fc1" y="176.10696"/>
     <use style="fill:#ff0000;stroke:#ff0000;" x="370.116" xlink:href="#m60b4155fc1" y="148.38336"/>
     <use style="fill:#ff0000;stroke:#ff0000;" x="305.388" xlink:href="#m60b4155fc1" y="310.05"/>
     <use style="fill:#ff0000;stroke:#ff0000;" x="258.516" xlink:href="#m60b4155fc1" y="193.61088"/>
     <use style="fill:#ff0000;stroke:#ff0000;" x="380.16" xlink:href="#m60b4155fc1" y="128.05272"/>
     <use style="fill:#ff0000;stroke:#ff0000;" x="238.428" xlink:href="#m60b4155fc1" y="190.67544"/>
     <use style="fill:#ff0000;stroke:#ff0000;" x="299.808" xlink:href="#m60b4155fc1" y="228.51"/>
     <use style="fill:#ff0000;stroke:#ff0000;" x="310.968" xlink:href="#m60b4155fc1" y="326.03184"/>
     <use style="fill:#ff0000;stroke:#ff0000;" x="335.52" xlink:href="#m60b4155fc1" y="310.05"/>
     <use style="fill:#ff0000;stroke:#ff0000;" x="291.996" xlink:href="#m60b4155fc1" y="211.1148"/>
     <use style="fill:#ff0000;stroke:#ff0000;" x="438.192" xlink:href="#m60b4155fc1" y="155.77632"/>
     <use style="fill:#ff0000;stroke:#ff0000;" x="324.36" xlink:href="#m60b4155fc1" y="321.57432"/>
     <use style="fill:#ff0000;stroke:#ff0000;" x="332.172" xlink:href="#m60b4155fc1" y="327.4452"/>
     <use style="fill:#ff0000;stroke:#ff0000;" x="447.12" xlink:href="#m60b4155fc1" y="189.15336"/>
     <use style="fill:#ff0000;stroke:#ff0000;" x="239.544" xlink:href="#m60b4155fc1" y="189.15336"/>
     <use style="fill:#ff0000;stroke:#ff0000;" x="262.98" xlink:href="#m60b4155fc1" y="193.61088"/>
     <use style="fill:#ff0000;stroke:#ff0000;" x="260.748" xlink:href="#m60b4155fc1" y="190.67544"/>
     <use style="fill:#ff0000;stroke:#ff0000;" x="347.796" xlink:href="#m60b4155fc1" y="304.17912"/>
     <use style="fill:#ff0000;stroke:#ff0000;" x="421.452" xlink:href="#m60b4155fc1" y="189.15336"/>
     <use style="fill:#ff0000;stroke:#ff0000;" x="375.696" xlink:href="#m60b4155fc1" y="178.93368"/>
     <use style="fill:#ff0000;stroke:#ff0000;" x="309.852" xlink:href="#m60b4155fc1" y="280.80432"/>
     <use style="fill:#ff0000;stroke:#ff0000;" x="321.012" xlink:href="#m60b4155fc1" y="298.52568"/>
     <use style="fill:#ff0000;stroke:#ff0000;" x="353.376" xlink:href="#m60b4155fc1" y="237.31632"/>
     <use style="fill:#ff0000;stroke:#ff0000;" x="468.324" xlink:href="#m60b4155fc1" y="216.87696"/>
     <use style="fill:#ff0000;stroke:#ff0000;" x="399.132" xlink:href="#m60b4155fc1" y="112.07088"/>
     <use style="fill:#ff0000;stroke:#ff0000;" x="275.256" xlink:href="#m60b4155fc1" y="190.67544"/>
     <use style="fill:#ff0000;stroke:#ff0000;" x="374.58" xlink:href="#m60b4155fc1" y="106.2"/>
     <use style="fill:#ff0000;stroke:#ff0000;" x="403.596" xlink:href="#m60b4155fc1" y="228.51"/>
     <use style="fill:#ff0000;stroke:#ff0000;" x="284.184" xlink:href="#m60b4155fc1" y="190.67544"/>
     <use style="fill:#ff0000;stroke:#ff0000;" x="219.456" xlink:href="#m60b4155fc1" y="190.67544"/>
     <use style="fill:#ff0000;stroke:#ff0000;" x="341.1" xlink:href="#m60b4155fc1" y="257.75568"/>
     <use style="fill:#ff0000;stroke:#ff0000;" x="323.244" xlink:href="#m60b4155fc1" y="305.59248"/>
     <use style="fill:#ff0000;stroke:#ff0000;" x="300.924" xlink:href="#m60b4155fc1" y="295.48152"/>
     <use style="fill:#ff0000;stroke:#ff0000;" x="352.26" xlink:href="#m60b4155fc1" y="205.1352"/>
     <use style="fill:#ff0000;stroke:#ff0000;" x="257.4" xlink:href="#m60b4155fc1" y="190.67544"/>
    </g>
   </g>
   <g id="patch_3">
    <path d="M 90 378 
L 90 51.84 
" style="fill:none;stroke:#000000;stroke-linecap:square;stroke-linejoin:miter;stroke-width:0.8;"/>
   </g>
   <g id="patch_4">
    <path d="M 648 378 
L 648 51.84 
" style="fill:none;stroke:#000000;stroke-linecap:square;stroke-linejoin:miter;stroke-width:0.8;"/>
   </g>
   <g id="patch_5">
    <path d="M 90 378 
L 648 378 
" style="fill:none;stroke:#000000;stroke-linecap:square;stroke-linejoin:miter;stroke-width:0.8;"/>
   </g>
   <g id="patch_6">
    <path d="M 90 51.84 
L 648 51.84 
" style="fill:none;stroke:#000000;stroke-linecap:square;stroke-linejoin:miter;stroke-width:0.8;"/>
   </g>
  </g>
 </g>
 <defs>
  <clipPath id="pa5d4577367">
   <rect height="326.16" width="558" x="90" y="51.84"/>
  </clipPath>
 </defs>
</svg>
