<?xml version="1.0" encoding="UTF-8" standalone="no"?>
<!-- Created with Inkscape (http://www.inkscape.org/) -->

<svg
   xmlns:dc="http://purl.org/dc/elements/1.1/"
   xmlns:cc="http://creativecommons.org/ns#"
   xmlns:rdf="http://www.w3.org/1999/02/22-rdf-syntax-ns#"
   xmlns:svg="http://www.w3.org/2000/svg"
   xmlns="http://www.w3.org/2000/svg"
   xmlns:sodipodi="http://sodipodi.sourceforge.net/DTD/sodipodi-0.dtd"
   xmlns:inkscape="http://www.inkscape.org/namespaces/inkscape"
   id="svg3384"
   version="1.1"
   inkscape:version="0.91 r13725"
   xml:space="preserve"
   width="586.04297"
   height="386.95703"
   viewBox="0 0 586.04297 386.95704"
   sodipodi:docname="data-driven-and-mechanistic-models.svg"><metadata
     id="metadata3390"><rdf:RDF><cc:Work
         rdf:about=""><dc:format>image/svg+xml</dc:format><dc:type
           rdf:resource="http://purl.org/dc/dcmitype/StillImage" /><dc:title></dc:title></cc:Work></rdf:RDF></metadata><defs
     id="defs3388"><clipPath
       clipPathUnits="userSpaceOnUse"
       id="clipPath3400"><path
         d="m 6.66797,0.832031 4283.33003,0 0,1509.169969 -4283.33003,0 0,-1509.169969 z"
         id="path3402"
         inkscape:connector-curvature="0" /></clipPath><clipPath
       clipPathUnits="userSpaceOnUse"
       id="clipPath3410"><path
         d="m 6.66797,0.832031 4283.33003,0 0,1474.999969 -4283.33003,0 0,-1474.999969 z"
         id="path3412"
         inkscape:connector-curvature="0" /></clipPath></defs><sodipodi:namedview
     pagecolor="#ffffff"
     bordercolor="#666666"
     borderopacity="1"
     objecttolerance="10"
     gridtolerance="10"
     guidetolerance="10"
     inkscape:pageopacity="0"
     inkscape:pageshadow="2"
     inkscape:window-width="2309"
     inkscape:window-height="1238"
     id="namedview3386"
     showgrid="false"
     fit-margin-top="0"
     fit-margin-left="0"
     fit-margin-right="0"
     fit-margin-bottom="0"
     inkscape:zoom="1"
     inkscape:cx="267.2915"
     inkscape:cy="192.8374"
     inkscape:window-x="460"
     inkscape:window-y="26"
     inkscape:window-maximized="0"
     inkscape:current-layer="g3392" /><g
     id="g3392"
     inkscape:groupmode="layer"
     inkscape:label="twoGaussBumps"
     transform="matrix(1.25,0,0,-1.25,-0.83349625,288.49463)"><g
       id="g3394"
       transform="scale(0.1,0.1)"><g
         id="g3396"><g
           id="g3398"
           clip-path="url(#clipPath3400)"><path
             d="m 0,0 4290,0 0,1510 L 0,1510 0,0 Z"
             style="fill:#ffffff;fill-opacity:1;fill-rule:nonzero;stroke:none"
             id="path3404"
             inkscape:connector-curvature="0" /></g></g><g
         id="g3406"><g
           id="g3408"
           clip-path="url(#clipPath3410)"><path
             d="m 3800.83,698.332 4.17,-24.164 4.17,-23.336 4.16,-23.332 4.17,-22.5 4.17,-22.5 4.16,-21.668 4.17,-21.664 4.17,-21.668 4.16,-20.832 4.17,-20 4.17,-20 4.16,-19.168 4.17,-18.332 4.17,-18.336 4.16,-18.332 4.17,-17.5 4.17,-16.668 4.16,-15.832 4.17,-15.832 4.17,-15 4.16,-15 4.17,-14.168 4.17,-14.168 4.16,-12.5 4.17,-13.332 4.17,-11.668 4.16,-11.664 4.17,-11.668 4.17,-10.832 4.16,-10 4.17,-10 4.17,-9.168 4.16,-9.168 4.17,-9.164 4.17,-7.5 4.16,-8.336 4.17,-7.5 4.17,-6.664 4.16,-6.668 4.17,-6.668 4.17,-5.832 4.16,-5.832 4.17,-5 4.17,-5 4.16,-5 4.17,-5 4.17,-4.168 4.16,-4.168 4.17,-3.332 4.17,-3.332 4.16,-3.336 4.17,-3.332 4.17,-3.332 4.16,-2.5 4.17,-2.5 4.17,-2.5 4.16,-2.5 4.17,-1.668 4.17,-1.668 4.16,-2.5 4.17,-1.664 4.17,-1.668 4.16,-0.832 4.17,-1.668 4.17,-0.832 4.16,-1.668 4.17,-0.832 4.17,-0.836 4.16,-0.832 4.17,-0.832 4.17,-0.836 4.16,-0.832 4.17,-0.83203 4.17,-0.83594 4.16,-0.83203 4.17,0 4.17,-0.83203 4.16,0 4.17,-0.83594 4.17,0 4.16,-0.83203 8.34,0 4.16,-0.83203 12.5,0 4.17,-0.83594 25,0 4.17,-0.83203 16.66,0"
             style="fill:none;stroke:#000000;stroke-width:40;stroke-linecap:butt;stroke-linejoin:round;stroke-miterlimit:10;stroke-dasharray:none;stroke-opacity:1"
             id="path3414"
             inkscape:connector-curvature="0" /><path
             d="m 3387.5,445.832 4.17,19.168 4.16,20 4.17,20.832 4.17,20.836 4.16,21.664 4.17,21.668 4.17,21.668 4.16,23.332 4.17,22.5 4.17,23.332 4.16,23.336 4.17,24.164 4.17,24.168 4.16,24.168 4.17,25 4.17,24.164 4.16,25 4.17,25 4.17,25 4.16,25 4.17,25 4.17,25 4.16,25 4.17,24.998 4.17,24.17 4.16,25 4.17,23.33 4.17,24.17 4.16,23.33 4.17,23.34 4.17,22.5 4.16,21.66 4.17,21.67 4.17,20.83 4.16,20 4.17,20 4.17,19.17 4.16,18.33 4.17,16.67 4.17,16.67 4.16,15.83 4.17,15 4.17,14.17 4.16,12.5 4.17,11.66 4.17,11.67 4.16,9.17 4.17,9.16 4.17,7.5 4.16,6.67 4.17,5.83 4.17,4.17 4.16,3.33 4.17,1.67 4.17,0.83 4.16,0 4.17,-1.66 4.17,-2.5 4.16,-3.34 4.17,-5 4.17,-5.83 4.16,-7.5 4.17,-7.5 4.17,-9.17 4.16,-10.83 4.17,-10.83 4.17,-12.5 4.16,-13.34 4.17,-14.16 4.17,-15.84 4.16,-15.83 4.17,-16.67 4.17,-18.33 4.16,-18.33 4.17,-19.17 4.17,-20 4.16,-20.83 4.17,-20.84 4.17,-21.66 5,-22.5 4.16,-22.5 4.17,-23.34 4.17,-23.33 4.16,-24.17 4.17,-24.16 4.17,-24.17 4.16,-25 4.17,-25 4.17,-25 4.16,-25 4.17,-25 4.17,-25 4.16,-25 4.17,-25 4.17,-24.168 4.16,-25 4.17,-24.164 4.17,-25 4.16,-23.336"
             style="fill:none;stroke:#000000;stroke-width:40;stroke-linecap:butt;stroke-linejoin:round;stroke-miterlimit:10;stroke-dasharray:none;stroke-opacity:1"
             id="path3416"
             inkscape:connector-curvature="0" /><path
             d="m 2975,2.5 66.67,0 4.16,0.83203 20.84,0 4.16,0.83594 12.5,0 4.17,0.83203 8.33,0 4.17,0.83203 8.33,0 4.17,0.83594 4.17,0.83203 4.16,0 4.17,0.83203 4.17,0 4.16,0.83594 4.17,0.83203 4.17,0.832 4.16,0.836 4.17,0.832 4.17,0.832 4.16,0.836 4.17,1.664 4.17,0.836 4.16,1.664 4.17,0.836 4.17,1.664 4.16,1.668 4.17,1.668 4.17,2.5 4.16,1.664 4.17,2.5 4.17,1.668 4.16,2.5 4.17,2.5 4.17,3.332 4.16,2.5 4.17,3.336 4.17,3.332 4.16,4.168 4.17,4.164 4.17,3.336 4.16,5 4.17,4.164 4.17,5 4.16,5 4.17,5.836 4.17,5.832 4.16,6.668 4.17,5.832 4.17,7.5 4.16,6.668 4.17,7.5 4.17,8.332 4.16,8.332 4.17,8.336 4.17,9.164 4.16,10 4.17,10 4.17,10.836 4.16,10.832 4.17,11.668 4.17,11.664 4.16,12.5 4.17,12.5 4.17,13.336 4.16,14.164 4.17,14.168 4.17,15 4.16,15.832 4.17,15.836 4.17,16.664 4.16,16.668 4.17,17.5 4.17,18.332 4.16,18.336 4.17,19.164"
             style="fill:none;stroke:#000000;stroke-width:40;stroke-linecap:butt;stroke-linejoin:round;stroke-miterlimit:10;stroke-dasharray:none;stroke-opacity:1"
             id="path3418"
             inkscape:connector-curvature="0" /><path
             d="M 2561.67,2.5 2975,2.5"
             style="fill:none;stroke:#000000;stroke-width:40;stroke-linecap:butt;stroke-linejoin:round;stroke-miterlimit:10;stroke-dasharray:none;stroke-opacity:1"
             id="path3420"
             inkscape:connector-curvature="0" /><path
             d="m 2149.17,1.66797 195.83,0 4.17,0.83203 212.5,0"
             style="fill:none;stroke:#000000;stroke-width:40;stroke-linecap:butt;stroke-linejoin:round;stroke-miterlimit:10;stroke-dasharray:none;stroke-opacity:1"
             id="path3422"
             inkscape:connector-curvature="0" /><path
             d="m 1736.67,2.5 175,0 4.16,-0.83203 233.34,0"
             style="fill:none;stroke:#000000;stroke-width:40;stroke-linecap:butt;stroke-linejoin:round;stroke-miterlimit:10;stroke-dasharray:none;stroke-opacity:1"
             id="path3424"
             inkscape:connector-curvature="0" /><path
             d="m 1323.33,2.5 413.34,0"
             style="fill:none;stroke:#000000;stroke-width:40;stroke-linecap:butt;stroke-linejoin:round;stroke-miterlimit:10;stroke-dasharray:none;stroke-opacity:1"
             id="path3426"
             inkscape:connector-curvature="0" /><path
             d="m 910.832,292.5 4.168,-14.168 4.168,-14.164 4.164,-13.336 4.168,-12.5 4.168,-12.5 4.164,-11.664 4.168,-11.668 4.168,-10.832 4.164,-10.836 4.168,-10 4.168,-10 4.164,-9.164 4.168,-8.336 4.168,-8.332 4.164,-8.332 4.168,-7.5 4.168,-6.668 4.164,-7.5 4.168,-5.832 4.168,-6.668 4.164,-5.832 4.168,-5.836 4.17,-5 4.16,-5 4.17,-4.164 4.17,-5 4.16,-3.336 4.17,-4.164 4.17,-4.168 4.16,-3.332 4.17,-3.336 4.17,-2.5 4.16,-3.332 4.17,-2.5 4.17,-2.5 4.16,-1.668 4.17,-2.5 4.17,-1.664 4.16,-2.5 4.17,-1.668 4.17,-1.668 4.16,-1.664 4.17,-0.836 4.17,-1.664 4.16,-0.836 4.17,-1.664 4.17,-0.836 4.16,-0.832 4.17,-0.832 4.17,-0.836 4.16,-0.832 4.17,-0.83203 4.17,-0.83594 4.16,0 L 1140,7.5 l 4.17,0 4.16,-0.83203 4.17,-0.83594 8.33,0 L 1165,5 l 8.33,0 4.17,-0.83203 12.5,0 4.17,-0.83594 20.83,0 4.17,-0.83203 104.16,0"
             style="fill:none;stroke:#000000;stroke-width:40;stroke-linecap:butt;stroke-linejoin:round;stroke-miterlimit:10;stroke-dasharray:none;stroke-opacity:1"
             id="path3428"
             inkscape:connector-curvature="0" /><path
             d="m 497.5,920 4.168,25 4.164,25 4.168,25 4.168,25 4.164,24.17 4.168,24.16 4.168,24.17 4.164,23.33 4.168,23.34 4.168,22.5 5,22.5 4.164,21.66 4.168,20.84 4.168,20.83 4.164,20 4.168,19.17 4.168,18.33 4.164,18.33 4.168,16.67 4.168,15.83 4.164,15.84 4.168,14.16 4.168,13.34 4.164,12.5 4.168,10.83 4.168,10.83 4.164,9.17 4.168,7.5 4.168,7.5 4.164,5.83 4.168,5 4.168,3.34 4.164,2.5 4.168,1.66 4.168,0 4.164,-0.83 4.168,-1.67 4.168,-3.33 4.164,-4.17 4.168,-5.83 4.168,-6.67 4.164,-7.5 4.168,-9.16 4.168,-9.17 4.164,-11.67 4.168,-11.66 4.168,-12.5 4.164,-14.17 4.168,-15 4.168,-15.83 4.164,-16.67 4.168,-16.67 4.168,-18.33 4.164,-19.17 4.168,-20 4.168,-20 4.164,-20.83 4.168,-21.67 4.168,-21.66 4.164,-22.5 4.168,-23.34 4.168,-23.33 4.164,-24.17 4.168,-23.33 4.168,-25 4.164,-24.17 4.168,-24.998 4.168,-25 4.164,-25 4.168,-25 4.168,-25 4.164,-25 4.168,-25 4.168,-25 4.164,-24.164 4.168,-25 4.168,-24.168 4.164,-24.168 4.168,-24.164 4.168,-23.336 L 835.832,637.5 840,615 844.168,591.668 848.332,570 852.5,548.332 856.668,526.668 860.832,505.832 865,485 l 4.168,-20 4.164,-19.168 4.168,-19.164 4.168,-18.336 4.164,-18.332 4.168,-17.5 4.168,-16.668 4.164,-16.664 4.168,-15.836 4.168,-15.832 4.164,-15"
             style="fill:none;stroke:#000000;stroke-width:40;stroke-linecap:butt;stroke-linejoin:round;stroke-miterlimit:10;stroke-dasharray:none;stroke-opacity:1"
             id="path3430"
             inkscape:connector-curvature="0" /><path
             d="m 85,3.33203 8.332,0 4.168,0.83594 12.5,0 4.168,0.83203 8.332,0 4.168,0.83203 4.164,0 4.168,0.83594 4.168,0 4.164,0.83203 4.168,0 4.168,0.83203 4.164,0.83594 L 160,10 l 4.168,0.832 4.164,0.836 4.168,0.832 4.168,0.832 4.164,0.836 L 185,15 l 4.168,1.668 4.164,0.832 4.168,1.668 4.168,0.832 4.164,1.668 4.168,1.664 4.168,2.5 4.164,1.668 4.168,1.668 4.168,2.5 4.164,2.5 4.168,2.5 4.168,2.5 4.164,3.332 4.168,3.332 4.168,3.336 4.164,3.332 4.168,3.332 4.168,4.168 4.164,4.168 4.168,5 4.168,5 4.164,5 4.168,5 4.168,5.832 4.164,5.832 4.168,6.668 4.168,6.668 4.164,6.664 4.168,7.5 4.168,8.336 4.164,7.5 4.168,9.164 4.168,9.168 4.164,9.168 4.168,10 4.168,10 4.164,10.832 4.168,11.668 4.168,11.664 4.164,11.668 4.168,13.332 4.168,12.5 4.164,14.168 4.168,14.168 4.168,15 4.164,15 4.168,15.832 4.168,15.832 4.164,16.668 4.168,17.5 4.168,18.332 4.164,18.336 4.168,18.332 4.168,19.168 4.164,20 4.168,20 4.168,20.832 4.164,21.668 4.168,21.664 4.168,21.668 4.164,22.5 4.168,22.5 4.168,23.332 4.164,23.336 4.168,24.164 4.168,23.336 4.164,25 4.168,24.164 4.168,25 4.164,24.168 4.168,25 4.168,25 4.164,25 4.168,25"
             style="fill:none;stroke:#000000;stroke-width:40;stroke-linecap:butt;stroke-linejoin:round;stroke-miterlimit:10;stroke-dasharray:none;stroke-opacity:1"
             id="path3432"
             inkscape:connector-curvature="0" /><path
             d="m 47.5,2.5 16.668,0 4.164,0.83203 16.668,0"
             style="fill:none;stroke:#000000;stroke-width:40;stroke-linecap:butt;stroke-linejoin:round;stroke-miterlimit:10;stroke-dasharray:none;stroke-opacity:1"
             id="path3434"
             inkscape:connector-curvature="0" /></g></g></g><text
       xml:space="preserve"
       style="font-style:normal;font-weight:normal;font-size:32px;line-height:125%;font-family:sans-serif;letter-spacing:0px;word-spacing:0px;fill:#000000;fill-opacity:1;stroke:none;stroke-width:1px;stroke-linecap:butt;stroke-linejoin:miter;stroke-opacity:1"
       x="8.6667957"
       y="38.316795"
       id="text3455"
       sodipodi:linespacing="125%"
       transform="scale(1,-1)"><tspan
         sodipodi:role="line"
         id="tspan3457"
         x="8.6667957"
         y="38.316795">data</tspan><tspan
         sodipodi:role="line"
         x="8.6667957"
         y="78.316795"
         id="tspan3459">driven</tspan></text>
<text
       xml:space="preserve"
       style="font-style:normal;font-weight:normal;font-size:32px;line-height:125%;font-family:sans-serif;letter-spacing:0px;word-spacing:0px;fill:#000000;fill-opacity:1;stroke:none;stroke-width:1px;stroke-linecap:butt;stroke-linejoin:miter;stroke-opacity:1"
       x="278.26678"
       y="46.316795"
       id="text3461"
       sodipodi:linespacing="125%"
       transform="scale(1,-1)"><tspan
         sodipodi:role="line"
         id="tspan3463"
         x="278.26678"
         y="46.316795">mechanistic</tspan></text>
<text
       xml:space="preserve"
       style="font-style:normal;font-weight:normal;font-size:32px;line-height:125%;font-family:sans-serif;letter-spacing:0px;word-spacing:0px;fill:#000000;fill-opacity:1;stroke:none;stroke-width:1px;stroke-linecap:butt;stroke-linejoin:miter;stroke-opacity:1"
       x="140.66679"
       y="-206.4832"
       id="text3465"
       sodipodi:linespacing="125%"
       transform="scale(1,-1)"><tspan
         sodipodi:role="line"
         id="tspan3467"
         x="140.66679"
         y="-206.4832">accelerate</tspan><tspan
         sodipodi:role="line"
         x="140.66679"
         y="-166.4832"
         id="tspan3469">science</tspan></text>
<text
       xml:space="preserve"
       style="font-style:normal;font-weight:normal;font-size:32px;line-height:125%;font-family:sans-serif;letter-spacing:0px;word-spacing:0px;fill:#000000;fill-opacity:1;stroke:none;stroke-width:1px;stroke-linecap:butt;stroke-linejoin:miter;stroke-opacity:1"
       x="-52.933205"
       y="-207.2832"
       id="text3471"
       sodipodi:linespacing="125%"
       transform="scale(1,-1)"><tspan
         sodipodi:role="line"
         id="tspan3473"
         x="-52.933205"
         y="-207.2832" /></text>
</g></svg>