<?xml version="1.0" encoding="utf-8"?>
<!-- Svg Vector Icons : http://www.onlinewebfonts.com/icon -->
<!DOCTYPE svg PUBLIC "-//W3C//DTD SVG 1.1//EN" "http://www.w3.org/Graphics/SVG/1.1/DTD/svg11.dtd">
<svg version="1.1" xmlns="http://www.w3.org/2000/svg" xmlns:xlink="http://www.w3.org/1999/xlink" x="0px" y="0px" viewBox="0 0 1000 1000" enable-background="new 0 0 1000 1000" xml:space="preserve">
<metadata> Svg Vector Icons : http://www.onlinewebfonts.com/icon </metadata>
<g><path d="M869.4,910.7c-8.8,0-17.6-3.3-24.3-10l-1.1-1.1c-6.1-6.1-16-6.1-22.1,0c-6.5,6.5-15.1,10.1-24.3,10.1c-9.2,0-17.8-3.6-24.3-10.1l-1.5-1.5c-11.6-11.6-16.8-28.2-13.9-44.3c0.1-0.5,0.2-0.9,0.4-1.4l102.9-298.7c-34.5-7.4-140.8-38.2-213.3-144.9c-47.8-70.4-66.2-157.2-73-221.2c-3.9-2-7.4-4.6-10.5-7.7l-2-2c-9.6-9.6-25.3-9.6-35,0l-1.3,1.4c-17,17-44.5,17-61.5,0l-0.7-0.7c-9.6-9.6-25.3-9.6-35,0l-0.6,0.6c-0.7,0.7-1.4,1.4-2.2,2.1c-6.3,64.5-24.2,154.9-73.7,227.7C279.9,515.3,173.6,546.1,139,553.6l102.9,298.7c0.2,0.5,0.3,0.9,0.4,1.4c2.9,16.1-2.3,32.7-13.9,44.3l-1.5,1.5c-6.5,6.5-15.1,10.1-24.3,10.1c-9.2,0-17.8-3.6-24.3-10.1c-0.7-0.7-1.3-1.2-2.1-1.7c-0.7-0.3-1.4-0.7-2-1.2c-5.8-2.9-13.1-1.9-18,2.9l-1.1,1.1c-13.4,13.4-35.2,13.4-48.6,0l-1.2-1.2c-0.7-0.5-1.4-1.2-2-1.9c-6-5-15.5-4.7-21.1,0.9l-1.9,1.9c-13.4,13.4-35.2,13.4-48.6,0l-11.5-11.5c-6.5-6.5-10.1-15.1-10.1-24.3l-0.1-205.8c-0.2-1.1-0.1-2.2,0.1-3.2V501.8c-0.2-1.2-0.3-2.5,0-3.7v-17.7c-0.3-1.2-0.2-2.5,0-3.7v-37.4c-0.2-1.2-0.2-2.4,0-3.6v-33.8c-0.2-1.1-0.2-2.3,0-3.5V98.7c0-5.2,4.2-9.4,9.4-9.4h129.8c0,0,0.1,0,0.1,0h431c0.1,0,0.1,0,0.2,0h399.9c5.2,0,9.4,4.2,9.4,9.4v765.8c0,9-3.7,17.9-10.1,24.3l-11.5,11.5c-7.3,7.3-17,10.6-26.5,10c-0.4,0-0.7,0-1.1-0.1c-7.7-0.7-15.1-4-21-9.9l-1.9-1.9c-6.1-6.1-16-6.1-22.1,0l-2.1,2.2C887,907.3,878.2,910.7,869.4,910.7z M833.1,876.2c8.8,0,17.5,3.4,24.1,10l1.1,1.1c6.1,6.1,15.9,6.1,22,0l77.1-367.2l-29.4,12.7c-0.8,0.6-1.6,1-2.5,1.3L833.1,876.2z M119.4,886.9l0.4,0.4c6.1,6.1,16,6.1,22.1,0l1.1-1.1c6.6-6.6,15.1-9.9,23.8-10l-92.5-342c-0.9-0.3-1.7-0.8-2.5-1.3l-29.4-12.7L119.4,886.9z M776.2,857.7c-1.5,9.9,1.7,20,8.9,27.1l1.5,1.5c5.9,5.9,16.2,5.9,22.1,0c1-1,2-1.9,3-2.7l92-340.1l-22.6,9.8L776.2,857.7z M188.1,883.2c1.2,0.9,2.4,2,3.5,3.1c6.1,6.1,16,6.1,22.1,0l1.5-1.5c7.1-7.1,10.4-17.2,8.9-27.1L119.2,553.4l-23-10L188.1,883.2z M28.9,657.6l36.4,231.1c0.6-0.5,1.3-1,1.8-1.6l1.9-1.9c7.8-7.8,18.5-11.1,28.8-9.8l-68.9-328V657.6z M971.3,775.9l-17.7,112.7c0.6-0.4,1.1-0.9,1.6-1.4l11.5-11.5c2.9-2.9,4.6-6.9,4.6-11L971.3,775.9L971.3,775.9z M906.9,875.1c9.2,0,17.8,3.6,24.3,10.1l1.9,1.9c0.5,0.5,1,0.9,1.5,1.3l36.6-232.6c0-0.2,0.1-0.3,0.1-0.5V545.6L902,875.5C903.6,875.2,905.2,875.1,906.9,875.1z M28.9,778.2v86.3c0,4.1,1.7,8.1,4.6,11l11.5,11.5c0.4,0.4,0.8,0.7,1.2,1.1L28.9,778.2z M107.7,528l20,8.7c17.9-3.3,134.3-28.3,209.2-138.5c47.4-69.8,64.5-158.7,70.4-221.4c0-0.4,0-0.8,0-1.2c2.8-30.6,3-55,2.8-67.4h-44.1c0.7,38.8-2.2,181.6-73.3,286.3C233.7,481.4,151,515.5,107.7,528z M589.9,108.1c-0.5,37.5,2.4,185.4,73.5,290c74.7,110,190.1,135.1,208.9,138.5l19.9-8.6c-43.4-12.5-126.1-46.6-185.2-133.6c-71.1-104.7-73.9-247.4-73.3-286.3H589.9L589.9,108.1z M49.1,502.7l29.8,12.9c19.1-3.6,128-28.1,198.4-131.7c67.4-99.2,70.4-239.4,70-275.7h-47.5c0.6,37.2-2.4,169.8-68.6,267.1C171.6,463,86.3,493.3,49.1,502.7z M652.5,108.1c-0.4,36.4,2.6,176.5,70,275.7C792.9,487.4,901.7,512,920.9,515.6l29.8-12.9c-37.2-9.4-122.5-39.7-182.1-127.5c-66.1-97.4-69.1-229.9-68.6-267.1H652.5L652.5,108.1z M718.8,108.1c-0.4,34.8,2.8,164.6,65.3,256.6c69.6,102.5,179.7,122,187.2,123.2v-3.1c-38.9-17.5-91.5-50.3-131.7-109.6c-66.1-97.4-69.1-229.9-68.6-267.1H718.8z M28.9,484.6v3.2c10.2-1.7,118.2-22,186.8-123.1c62.5-92,65.6-221.7,65.3-256.6h-52.2c0.6,37.2-2.4,169.8-68.6,267.1C120.2,434.3,67.8,467.1,28.9,484.6z M789.8,108.1c-0.4,34.8,2.8,164.6,65.3,256.6c35.2,51.9,80.6,82.2,116.2,99.4v-21.8c-23.9-19.2-44.8-41.7-62-67.1c-66.1-97.4-69.1-229.9-68.6-267.1H789.8z M28.9,442v22c35.6-17.3,80.8-47.6,115.9-99.3c62.5-92,65.6-221.7,65.3-256.6h-51c0.6,37.2-2.4,169.8-68.6,267.1C73.4,400.4,52.7,422.8,28.9,442z M859.5,108.1c-0.4,34.8,2.8,164.6,65.3,256.6c13.3,19.5,28.9,37.3,46.5,53V403c-5.2-9.3-10-19.1-14.5-29.3c-42.1-96.9-44-228.7-43.6-265.6L859.5,108.1L859.5,108.1z M28.9,402.3v15c17.5-15.6,32.9-33.3,46.1-52.7c62.6-92.1,65.6-221.8,65.3-256.6H86.7c0.4,36.8-1.5,168.7-43.6,265.6C38.7,383.6,34,393.2,28.9,402.3z M931.9,108.1c-0.2,34.4,1.7,159.7,39.3,251.7V108.1H931.9z M28.9,108.1v250.8c37.3-91.9,39.2-216.5,39-250.8H28.9z M446.3,152.4c11.1,0,22.3,4.2,30.7,12.7l0.7,0.7c9.6,9.6,25.3,9.6,35,0l1.3-1.4c16-16,41.4-16.9,58.5-2.7c-1.7-24.1-1.8-42.9-1.7-53.6H429.1c0.2,10,0.1,26.9-1.2,48.3C433.8,153.7,440,152.4,446.3,152.4z"/><g></g><g></g><g></g><g></g><g></g><g></g><g></g><g></g><g></g><g></g><g></g><g></g><g></g><g></g><g></g></g>
</svg>