<?xml version="1.0" encoding="UTF-8" standalone="no"?>
<!-- Created with Inkscape (http://www.inkscape.org/) -->

<svg
   xmlns:dc="http://purl.org/dc/elements/1.1/"
   xmlns:cc="http://creativecommons.org/ns#"
   xmlns:rdf="http://www.w3.org/1999/02/22-rdf-syntax-ns#"
   xmlns:svg="http://www.w3.org/2000/svg"
   xmlns="http://www.w3.org/2000/svg"
   xmlns:sodipodi="http://sodipodi.sourceforge.net/DTD/sodipodi-0.dtd"
   xmlns:inkscape="http://www.inkscape.org/namespaces/inkscape"
   width="297mm"
   height="210mm"
   viewBox="0 0 1052.3622 744.09448"
   id="svg2"
   version="1.1"
   inkscape:version="0.91 r13725"
   sodipodi:docname="supply-chain-of-ideas.svg">
  <defs
     id="defs4" />
  <sodipodi:namedview
     id="base"
     pagecolor="#ffffff"
     bordercolor="#666666"
     borderopacity="1.0"
     inkscape:pageopacity="0.0"
     inkscape:pageshadow="2"
     inkscape:zoom="1"
     inkscape:cx="-83.571429"
     inkscape:cy="520"
     inkscape:document-units="px"
     inkscape:current-layer="layer1"
     showgrid="false"
     inkscape:window-width="3440"
     inkscape:window-height="1352"
     inkscape:window-x="0"
     inkscape:window-y="1"
     inkscape:window-maximized="1" />
  <metadata
     id="metadata7">
    <rdf:RDF>
      <cc:Work
         rdf:about="">
        <dc:format>image/svg+xml</dc:format>
        <dc:type
           rdf:resource="http://purl.org/dc/dcmitype/StillImage" />
        <dc:title></dc:title>
      </cc:Work>
    </rdf:RDF>
  </metadata>
  <g
     inkscape:label="Layer 1"
     inkscape:groupmode="layer"
     id="layer1"
     transform="translate(0,-308.26772)">
    <path
       style="opacity:1;fill:#280b0b;fill-opacity:1;stroke:none;stroke-width:5;stroke-miterlimit:4;stroke-dasharray:none;stroke-dashoffset:0;stroke-opacity:1"
       id="path3401"
       d="m 41.94144,347.76353 c 4.2e-4,5.23618 -0.05856,10.47211 0.04834,15.70783 0.146579,2.55156 -0.175778,5.03901 -0.574819,7.54564 -0.172939,1.99198 -0.805361,3.88322 -1.036243,5.86779 -0.502108,2.00746 -0.853952,4.03989 -1.402413,6.03517 -0.364718,1.95106 -0.981319,3.83621 -1.417555,5.77084 -0.264714,0.97086 -0.411276,1.97385 -0.504164,2.97433 0.0053,0.3312 -0.04277,0.66911 -6.53e-4,0.9954 -0.839591,2.034 -0.697987,0.52654 -5.942768,2.71568 -0.146123,-1.40278 -0.222346,-0.65503 0.43598,-2.21232 0,0 2.517388,-1.35302 2.517388,-1.35302 l 0,0 c 1.122731,0.4543 0.631629,0.18029 1.497987,0.77614 -0.761837,0.56312 -3.675134,4.88704 -4.75049,3.27697 0.0231,-0.35693 -0.01543,-0.71575 0.019,-1.07485 0.03192,-1.0329 0.277119,-2.04037 0.404496,-3.06445 0.506583,-1.94234 1.067295,-3.86706 1.485305,-5.8293 0.556955,-1.95924 0.921839,-3.95545 1.412109,-5.93284 0.305916,-2.01354 0.890845,-3.96038 1.200279,-5.96579 0.388353,-2.47866 0.899394,-4.93095 0.639898,-7.45975 0.105049,-5.25217 0.04931,-10.50447 0.04834,-15.75708 0,0 5.919989,-3.01639 5.919989,-3.01639 z"
       inkscape:connector-curvature="0" />
    <path
       style="opacity:1;fill:#280b0b;fill-opacity:1;stroke:none;stroke-width:5;stroke-miterlimit:4;stroke-dasharray:none;stroke-dashoffset:0;stroke-opacity:1"
       id="path3403"
       d="m 35.55817,356.29647 c 1.959035,-1.55341 3.941439,-3.08368 6.144622,-4.28128 4.542507,-2.46919 6.27909,-4.06345 10.64493,-4.44034 2.510826,0.0949 4.532127,1.19797 6.360936,2.83073 1.140487,1.23615 2.052041,2.61383 2.687947,4.16762 0.717615,1.45308 1.103345,3.02753 1.375581,4.61596 0.197538,1.38096 0.178431,2.77414 0.254674,4.16162 0.101913,1.43471 -0.04005,2.82123 -0.391709,4.20999 -0.441369,1.45121 -1.339565,2.67548 -2.10563,3.96436 -0.861207,1.42327 -2.01414,2.57875 -3.176447,3.74754 -3.150555,2.47528 -6.833208,4.4288 -10.658451,5.66644 -0.993283,0.24657 -2.444281,0.42382 -3.450563,0.29184 -0.523877,-0.0687 -1.009573,-0.31393 -1.52195,-0.44292 -1.318029,-0.62906 -2.241015,-1.63412 -3.204383,-2.69855 -0.365447,-0.57428 -1.018726,-1.01463 -1.257467,-1.66089 -0.0694,-0.32028 0.08986,-0.46136 0.32954,-0.64069 0,0 4.796617,-2.90274 4.796617,-2.90274 l 0,0 c 0.295996,-0.13755 0.53254,-0.20763 0.842174,-0.0546 0.606165,0.36319 0.973707,1.05315 1.452452,1.55736 0.777744,1.01575 1.74597,1.88064 2.976754,2.29389 1.60337,0.35276 3.192845,0.3777 4.761387,-0.19342 0.762796,-0.26917 1.495584,-0.59353 2.242424,-0.90394 0.254615,-0.10583 0.996855,-0.46605 0.762414,-0.32091 -9.663204,5.98247 -6.59416,3.97861 -4.704086,2.73498 1.250822,-1.11407 2.390037,-2.24084 3.357903,-3.62166 0.791403,-1.25308 1.629447,-2.45882 2.259957,-3.79991 0.340138,-1.37083 0.707943,-2.65053 0.539143,-4.08939 0.06107,-1.37417 0.04236,-2.7688 -0.104451,-4.136 -0.167726,-1.57206 -0.574289,-3.09035 -1.206487,-4.54261 -0.484899,-1.48052 -1.333834,-2.81944 -2.376538,-3.97278 -1.750863,-1.51847 -3.526522,-2.53373 -5.940708,-2.4779 -4.161674,0.48536 -4.257925,2.05665 0.266164,-1.57588 0.629677,-0.50559 -1.427251,0.75902 -2.110408,1.18961 -1.504803,0.94847 -2.749568,1.9509 -4.155581,3.02821 0,0 -5.69076,2.29622 -5.69076,2.29622 z"
       inkscape:connector-curvature="0" />
    <path
       style="opacity:1;fill:#280b0b;fill-opacity:1;stroke:none;stroke-width:5;stroke-miterlimit:4;stroke-dasharray:none;stroke-dashoffset:0;stroke-opacity:1"
       id="path3405"
       d="m 75.088936,370.51964 c -2.772087,3.86405 -5.696491,7.61744 -8.359958,11.55804 -0.982962,1.52591 -1.531703,3.18668 -1.682805,4.97956 -0.03703,1.09482 -0.06963,2.19285 0.07548,3.2821 0.294863,0.74349 0.557974,1.39028 1.023503,2.011 0.51326,0.63674 1.27625,1.05096 1.985542,1.44961 1.173116,0.36687 2.419652,0.61012 3.628462,0.33035 2.708564,-0.68682 9.073423,-4.67341 -1.361772,1.28884 1.431877,-0.76827 2.614525,-1.86856 3.487773,-3.23311 0.685166,-1.05138 0.753592,-2.21194 0.879983,-3.41265 -0.407185,-1.53996 -2.052827,-2.57157 -3.283793,-3.42579 -1.882787,-1.29478 -3.897999,-2.43634 -6.001348,-3.33968 -1.258164,-0.48848 -2.54833,-0.92963 -3.841812,-1.34192 -0.217975,-0.0489 -0.571002,-0.25379 -0.676965,-0.33708 -0.0071,-0.008 -0.01421,-0.0161 -0.02132,-0.0241 1.459625,-0.71557 2.919251,-1.43115 4.378876,-2.14672 0,0 -0.523786,0.38001 -0.523786,0.38001 l 0,0 c 0.716613,-0.72065 1.433227,-1.4413 2.149841,-2.16196 -0.002,-0.005 -0.004,-0.0106 -0.006,-0.016 0.216706,0.0297 0.526442,0.11698 0.76113,0.21688 1.252553,0.51836 2.603765,0.77646 3.810072,1.41647 2.125078,0.93208 4.091734,2.26127 6.04302,3.50252 1.420439,1.08681 3.167963,2.23843 3.571012,4.09333 -0.04522,1.27852 -0.26963,2.58861 -0.826639,3.74527 -0.79481,1.48383 -1.965916,2.80972 -3.473358,3.59092 -3.067551,1.79125 -6.821528,4.64812 -10.63068,5.35666 -1.332782,0.0383 -2.658756,-0.0951 -3.878792,-0.67274 -0.800349,-0.39887 -1.655714,-0.95687 -2.185246,-1.68214 -0.53268,-0.6844 -0.882212,-1.42656 -1.153508,-2.25237 -0.404031,-1.0863 -0.156098,-2.32937 -0.210653,-3.47449 0.117342,-1.91078 0.543824,-3.70741 1.611476,-5.33702 2.543191,-4.01834 5.64556,-7.64636 8.33179,-11.56572 0,0 6.380453,-2.7781 6.380453,-2.7781 z"
       inkscape:connector-curvature="0" />
    <path
       style="opacity:1;fill:#280b0b;fill-opacity:1;stroke:none;stroke-width:5;stroke-miterlimit:4;stroke-dasharray:none;stroke-dashoffset:0;stroke-opacity:1"
       id="path3407"
       d="m 90.210268,352.64586 c 0.06723,5.12335 0.816397,10.18455 1.372923,15.26514 0.369763,2.45623 0.43842,4.9316 0.564263,7.4059 -0.012,1.61801 0.08001,3.24114 0.03886,4.85846 0.02697,1.36053 -0.04878,2.72609 -0.0023,4.0859 0.192015,0.9052 0.650509,1.71942 0.811044,2.62787 0.20676,0.84822 0.201772,1.70183 0.218988,2.56667 -0.01032,0.58488 0.06927,1.19544 0.0245,1.78 -0.05483,0.17637 0.04775,0.29812 0.0024,0.45498 -0.04524,0.19971 0.0264,0.48927 -0.0041,0.72042 0.03454,0.69896 0.08071,1.23751 -0.491175,1.71666 -0.231867,0.10267 -0.402429,0.32812 -0.595679,0.45875 -0.268348,-0.46703 0.07497,0.0849 0.06175,0.38285 0.02941,0.37168 0.0132,0.73844 0.01478,1.11171 -0.0393,0.4325 0.05303,0.91068 -0.06836,1.3334 -0.695063,1.89252 -3.879693,1.88619 -5.397506,2.24482 -0.321844,0.076 0.357592,-0.55763 0.562115,-0.81751 0.248941,-0.31632 0.530639,-0.60543 0.795959,-0.90814 0,0 2.943553,-1.40104 2.943553,-1.40104 l 0,0 c 2.461033,1.84794 -3.570276,6.10677 -5.291274,4.13591 -0.152622,-0.37709 -0.01179,-0.86557 -0.06794,-1.26249 5.86e-4,-0.36539 -0.0138,-0.72494 -0.0062,-1.08947 -0.05723,-0.43657 0.328771,0.39448 -0.0497,-0.34665 -0.129249,-0.43499 0.0211,-0.81104 0.294252,-1.16674 0.691038,-0.38239 0.839387,-0.0836 0.767044,-1.06566 -0.03581,-0.2344 0.04258,-0.50428 -0.0038,-0.72422 0.0032,-0.137 0.02186,-0.29405 0.0084,-0.45686 -0.04251,-0.58874 0.05094,-1.2005 0.02662,-1.79028 -0.0068,-0.81913 -0.04591,-1.64084 -0.155012,-2.45177 -0.212522,-0.95798 -0.503336,-1.85348 -0.838751,-2.77351 0.04722,-1.362 -0.02155,-2.72942 0.01176,-4.09214 -0.03361,-1.61886 0.0784,-3.24062 0.01028,-4.86081 -0.0015,-2.46808 -0.231598,-4.93741 -0.451146,-7.39336 -0.610681,-5.08525 -1.138986,-10.18008 -1.390295,-15.29703 0,0 6.283808,-3.25176 6.283808,-3.25176 z"
       inkscape:connector-curvature="0" />
    <path
       style="opacity:1;fill:#280b0b;fill-opacity:1;stroke:none;stroke-width:5;stroke-miterlimit:4;stroke-dasharray:none;stroke-dashoffset:0;stroke-opacity:1"
       id="path3409"
       d="m 108.04377,375.776 c -0.38589,5.32941 -0.43148,10.69265 0.53073,15.96076 0.35181,1.86703 0.94648,3.8404 2.12416,5.37353 1.39002,1.63945 -4.78961,2.08856 -5.24516,2.24954 0.20124,-1.98568 1.04798,-3.21773 2.16542,-4.84789 0,0 0.17698,-0.0932 0.17698,-0.0932 l 0,0 c 1.94186,0.46078 2.31838,0.35649 2.73332,2.36107 -0.41696,0.35496 -4.35032,6.51355 -6.13755,4.0283 -1.03811,-1.76451 -1.86545,-3.62252 -2.23381,-5.66209 -0.8747,-5.33048 -0.8879,-10.764 -0.5366,-16.14539 0,0 6.42251,-3.22467 6.42251,-3.22467 z"
       inkscape:connector-curvature="0" />
    <path
       style="opacity:1;fill:#280b0b;fill-opacity:1;stroke:none;stroke-width:5;stroke-miterlimit:4;stroke-dasharray:none;stroke-dashoffset:0;stroke-opacity:1"
       id="path3411"
       d="m 132.88635,374.96155 c -3.72946,2.36716 -7.31135,5.08676 -10.05449,8.57779 -1.24153,1.80363 -1.54426,3.85994 -1.59242,5.99134 -0.0471,1.41597 -0.006,2.83194 0.0235,4.2472 -0.0237,0.91473 0.38803,1.60023 0.9336,2.28138 0.84275,0.87272 2.25754,0.94796 3.40817,1.05835 1.59661,0.0378 3.16109,-0.46263 4.73749,-0.70386 1.58213,-0.0821 3.05668,-0.68831 4.4653,-1.35966 0.62647,-0.36215 1.27532,-0.59056 1.9746,-0.75639 0.11861,-0.0281 0.46406,-0.13672 0.35734,-0.0778 -1.8103,0.99938 -3.65379,1.93745 -5.48068,2.90617 1.00708,-0.69194 1.44066,-1.75807 2.06086,-2.74435 0.66762,-0.99273 0.21336,-0.4324 1.52262,-1.5377 0,0 1.68997,-0.87339 1.68997,-0.87339 l 0,0 c 1.32361,-0.25511 0.80929,-0.38926 1.59417,-0.0359 0.87944,0.67054 0.50916,1.81505 -0.19967,2.47694 -3.44471,2.09953 -5.88343,3.85597 -9.29278,5.22879 -1.4717,0.64688 -3.01953,1.03377 -4.61797,1.22023 -1.58669,0.25083 -3.17992,0.74499 -4.7957,0.49729 -1.40598,-0.19925 -2.80828,-0.42047 -3.84507,-1.49095 -0.56159,-0.81652 -1.20347,-1.65892 -1.11655,-2.70727 -0.0273,-1.41821 -0.0878,-2.83599 -0.0922,-4.25618 0.0939,-2.2499 0.23432,-4.49212 1.49678,-6.44322 2.55263,-3.64402 6.21061,-6.32199 9.85481,-8.80067 0,0 6.96834,-2.69813 6.96834,-2.69813 z"
       inkscape:connector-curvature="0" />
    <path
       style="opacity:1;fill:#280b0b;fill-opacity:1;stroke:none;stroke-width:5;stroke-miterlimit:4;stroke-dasharray:none;stroke-dashoffset:0;stroke-opacity:1"
       id="path3413"
       d="m 147.14087,376.65413 c -0.0983,4.3679 0.0263,8.73817 1.40046,12.90729 0.5792,1.49469 1.40466,2.37826 2.9333,2.75391 1.01363,0.0441 2.03462,0.10697 3.01055,-0.19315 2.37785,-0.7876 1.32883,-0.47966 -4.59898,2.70208 -0.25306,0.13583 0.47882,-0.31839 0.70472,-0.49574 0.70632,-0.55455 1.26118,-1.20349 1.80289,-1.91224 1.02746,-1.5147 2.16906,-2.87905 3.49924,-4.13406 0,0 2.1044,-0.95612 2.1044,-0.95612 l 0,0 c 0.14384,0.12287 0.3437,0.20106 0.43151,0.36862 0.32736,0.62466 -0.28424,1.70612 -0.47671,2.26106 -1.54028,3.52461 -5.51979,5.49442 -9.12677,6.45831 -1.04376,0.12544 -2.14574,0.17317 -3.17268,-0.0862 -1.7088,-0.44485 -2.66407,-1.75942 -3.33302,-3.3445 -1.37724,-4.24088 -1.51697,-8.68289 -1.48311,-13.11709 0,0 6.3042,-3.21215 6.3042,-3.21215 z"
       inkscape:connector-curvature="0" />
    <path
       style="opacity:1;fill:#280b0b;fill-opacity:1;stroke:none;stroke-width:5;stroke-miterlimit:4;stroke-dasharray:none;stroke-dashoffset:0;stroke-opacity:1"
       id="path3415"
       d="m 162.64021,374.39961 c 1.17267,4.80922 2.44201,9.63346 3.09528,14.54722 0.48617,2.49148 0.36715,5.03945 0.65013,7.54561 0.32172,1.93613 0.7062,3.88544 0.78664,5.85064 0.11544,1.39822 0.1583,2.79773 0.16437,4.19995 0.0958,1.70399 -0.15979,3.43494 -0.65666,5.06316 -0.52374,1.78156 -1.14627,3.50874 -1.93309,5.19095 -0.77689,1.7188 -1.91171,3.20806 -3.35231,4.41309 -3.77921,2.18878 -7.51131,5.72587 -12.14638,5.31862 -2.88588,-0.3396 -5.5919,-1.47958 -8.30599,-2.45264 -2.19643,-0.6244 -4.068,-2.17316 -6.33694,-2.51442 -1.06896,-0.62343 -2.33332,-0.88874 -3.29563,-1.67923 -0.9188,-0.96415 -0.82007,-2.23782 -0.55851,-3.44506 0.14213,-0.32293 0.28426,-0.64585 0.42639,-0.96878 0,0 3.0904,-1.71601 3.0904,-1.71601 l 0,0 c 0.29087,0.0766 0.58175,0.15315 0.87262,0.22972 0.88685,0.5461 1.52522,1.42633 2.55827,1.74966 1.1804,0.38122 2.31983,0.83127 3.48265,1.27322 2.17979,0.65973 4.13714,1.91746 6.29303,2.6614 2.67428,0.96618 5.38733,2.05817 8.25617,2.19729 3.64023,-0.007 8.98828,-4.03476 -1.63622,2.30781 0.82475,-0.73636 0.38239,-0.38452 1.33305,-1.04796 0.96614,-0.82936 1.60724,-2.049 2.26248,-3.11343 0.79621,-1.68469 1.5812,-3.34418 2.07294,-5.15519 0.5692,-1.56343 0.84428,-3.19454 0.79157,-4.85369 -0.003,-1.3977 0.0165,-2.79629 -0.0589,-4.19283 -0.2186,-1.9519 -0.30549,-3.91403 -0.7265,-5.8404 -0.34412,-2.51361 -0.11481,-5.0764 -0.53502,-7.5883 -0.78899,-4.88124 -1.64034,-9.7435 -2.98812,-14.51158 0,0 6.3943,-3.46882 6.3943,-3.46882 z"
       inkscape:connector-curvature="0" />
    <path
       style="opacity:1;fill:#280b0b;fill-opacity:1;stroke:none;stroke-width:5;stroke-miterlimit:4;stroke-dasharray:none;stroke-dashoffset:0;stroke-opacity:1"
       id="path3429"
       d="m 32.241181,437.93244 c -3.14215,0.53138 -6.245037,1.41529 -9.141685,2.75757 -1.001907,0.46428 -1.928112,1.07849 -2.915059,1.57377 10.810559,-5.63968 5.573177,-3.75042 4.009703,-1.98812 -0.494179,0.55703 -0.857345,1.21984 -1.239813,1.85361 -0.521297,1.22062 -0.633033,2.5466 -0.648803,3.85781 -0.20922,1.33723 -0.540969,2.65884 -0.817449,3.98775 -0.04269,0.96556 -0.271551,1.94217 -0.102513,2.9019 0.38263,1.03376 0.728076,2.11017 0.77663,3.21755 0.08502,1.12068 0.35747,2.19544 0.734818,3.24995 0.197835,1.04867 0.731685,1.96168 1.15601,2.92792 0.670777,0.56682 0.775157,1.45764 1.227981,2.14756 0.333387,0.71592 0.907327,1.29239 1.284489,1.98989 0.626437,0.4167 1.199724,0.89086 1.819007,1.32413 0.702021,0.4399 1.389612,0.93294 2.191321,1.2333 0.848567,0.10674 1.450678,0.804 2.252986,1.02869 0.678997,0.19784 1.384786,0.1343 2.080595,0.19091 0.763495,-0.013 1.524725,-0.006 2.288201,-0.006 1.227279,0.0607 2.427057,-0.29354 3.528776,-0.83418 7.038864,-3.75609 -20.249506,11.55788 2.853015,-1.53311 1.887768,-1.0697 -3.755125,2.17566 -5.655031,3.22365 -0.343651,0.18956 0.655811,-0.4313 0.983717,-0.64696 0.97497,-0.70831 1.922105,-1.5008 2.562532,-2.53238 0.525737,-0.70379 1.065461,-1.36168 1.735936,-1.93087 0.564411,-0.45944 1.057434,-0.89936 1.309994,-1.59183 0.33811,-0.78166 0.764522,-1.53805 1.206675,-2.26991 0.520582,-0.82525 0.75456,-1.74327 0.830448,-2.70431 0.14667,-0.98925 0.06161,-1.98746 0.09447,-2.98288 -0.0049,-0.93184 0.06222,-1.82796 -0.254585,-2.71122 -0.162469,-0.94495 -0.754231,-1.69136 -1.155705,-2.54648 -0.710156,-0.80061 -1.162049,-1.80737 -1.885862,-2.58935 -0.567935,-0.61353 -1.013908,-1.3034 -1.647918,-1.84236 -0.821418,-0.60761 -1.527979,-1.36132 -2.206043,-2.12505 -0.493885,-0.39682 -1.034412,-0.95679 -1.637812,-1.15073 -0.803,-0.11036 -1.549766,-0.87851 -2.244335,-1.03778 -0.334845,-0.0742 -0.686257,-0.54476 -1.034418,-0.55994 -0.07299,-0.003 -0.09373,0.13717 -0.166608,0.14243 -0.252631,0.0182 -0.548804,-0.29763 -0.694619,-0.41687 -0.63662,-0.34728 -1.174309,-0.48053 -1.870433,-0.66292 -0.294778,0.29445 -0.617223,-0.12177 -0.941538,-0.0725 -0.102921,0.0156 -0.152023,0.16627 -0.255216,0.17999 -0.01706,0.002 -0.685156,-0.1741 -0.724653,-0.18444 -0.355311,0.51251 -0.881147,-0.18364 -1.28248,-0.0702 -0.744336,0.2104 0.693659,0.38254 -0.526461,0.13591 -0.687501,-0.29324 -0.452633,-10e-4 -0.653801,0.0641 -0.07837,0.0254 -0.911433,0.007 -0.999272,-0.0112 -1.314227,-0.26337 0.368143,-0.0169 -0.670432,0.0816 -0.619506,0.0588 -0.691959,-0.31664 -1.243847,0.12988 8.977231,-5.44423 5.767385,-2.97901 3.627587,-2.2905 0,0 -2.484872,1.62553 -2.484872,1.62553 l 0,0 c -4.025856,0.16726 0.652111,-1.52986 4.731224,-3.95924 0.696856,-0.091 1.415139,0.0198 2.116068,-10e-4 0.606339,-0.18153 1.107368,-0.12903 1.725586,-0.0929 0.528663,-0.16005 1.238966,0.14924 1.800805,0.0615 0.689664,0.0182 1.369471,-9.5e-4 2.058806,0.13952 0.646171,0.26489 1.332075,0.4324 1.907641,0.86062 0.639423,0.19359 1.268849,0.36654 1.871291,0.72534 0.703211,0.45179 1.436232,0.70522 2.183276,1.0876 0.689174,0.384 1.275172,0.90392 1.853875,1.43721 0.543171,0.8212 1.380482,1.33934 2.067061,2.03359 0.676621,0.58537 1.091621,1.34628 1.753411,1.94528 0.634322,0.91743 1.274643,1.82095 1.889445,2.75044 0.483777,0.8418 1.013119,1.67505 1.280187,2.61642 0.294248,0.98393 0.376803,1.92475 0.295267,2.95329 0.0384,1.01206 -0.03526,2.02035 -0.02545,3.03269 -0.124833,1.04118 -0.229642,2.08315 -0.721816,3.02822 -0.438866,0.67939 -0.749175,1.41973 -1.260216,2.04438 -0.154149,0.83256 -0.490123,1.54755 -1.206494,2.03224 -0.62759,0.5642 -1.289478,1.04223 -1.720612,1.7662 -0.847356,0.89626 -1.370889,2.14372 -2.543738,2.77641 -3.001093,2.13761 -1.412056,1.04857 -7.915711,4.71686 -1.848454,1.04259 7.349939,-4.24645 5.495038,-3.21537 -2.83819,1.57765 -5.429976,3.44984 -8.393267,4.70924 -1.212086,0.43091 -2.447068,0.73322 -3.745437,0.63339 -0.76929,0.004 -1.537119,0.0275 -2.306021,-0.009 -0.769038,0.0131 -1.577143,-0.087 -2.294636,-0.36123 -0.73053,-0.36054 -1.419808,-0.80625 -2.209916,-1.04128 -0.871221,-0.32908 -1.572769,-0.92595 -2.381756,-1.37633 -0.627339,-0.53774 -1.390328,-0.8894 -1.91066,-1.55429 -0.520245,-0.63477 -0.924371,-1.31852 -1.378668,-1.99507 -0.376816,-0.72552 -0.622038,-1.51359 -1.146542,-2.17455 -0.640254,-0.85903 -0.969054,-2.04466 -1.313046,-3.04736 -0.304068,-1.13254 -0.808659,-2.20401 -0.725917,-3.40216 -0.242572,-1.05042 -0.2759,-2.14435 -0.775177,-3.12506 -0.300347,-1.03225 -0.09487,-2.12268 0.01072,-3.18153 0.115371,-1.33215 0.506446,-2.60033 0.828941,-3.89239 0.05713,-1.41522 0.03777,-2.8481 0.574178,-4.18666 1.676296,-4.17764 5.954926,-5.50194 9.83811,-7.5944 3.828767,-1.95981 7.806252,-3.53011 12.103995,-4.11318 0,0 -5.863481,4.43945 -5.863481,4.43945 z"
       inkscape:connector-curvature="0" />
    <path
       style="opacity:1;fill:#280b0b;fill-opacity:1;stroke:none;stroke-width:5;stroke-miterlimit:4;stroke-dasharray:none;stroke-dashoffset:0;stroke-opacity:1"
       id="path3431"
       d="m 61.054165,450.67223 c -0.378106,4.32446 -0.456108,8.67039 -0.763382,12.99779 -0.0016,1.16453 -0.112928,2.32465 -0.119101,3.4867 0.348876,0.15082 0.650678,0.28726 0.940205,0.56908 0.344115,0.35536 0.67464,0.47852 1.14735,0.53762 0.512982,0.0324 1.026269,9.1e-4 1.539054,0.0176 1.079093,-0.0558 2.062079,-0.67825 3.004491,-1.16288 0.178131,-0.0918 0.356261,-0.18349 0.534392,-0.27524 -1.786194,1.00032 -3.545505,2.05023 -5.358583,3.00095 -0.225174,0.11808 0.394134,-0.32188 0.580104,-0.49526 0.41245,-0.38453 0.796235,-0.81178 1.196971,-1.20963 0.747454,-0.86121 1.373767,-1.78942 1.902848,-2.79776 0.706998,-1.25184 0.933443,-2.67609 1.027276,-4.0913 0.04844,-1.14008 0.07934,-2.2724 0.04115,-3.41294 0.02309,-0.76624 0.06234,-1.56234 3.9e-5,-2.32722 -0.01402,-0.32538 0.01193,-0.63394 -0.02152,-0.96304 0.03883,-0.15257 -0.02478,-0.3961 -0.03866,-0.4902 -0.0022,-0.0343 -0.01511,-0.18066 -0.01422,-0.29619 0.531555,-3.03402 -6.776879,1.98352 6.632892,-3.16302 0.02723,1.02749 -0.0241,2.05844 0.0063,3.08495 0.02367,1.36668 -0.101501,2.68612 0.258829,4.0188 0.279314,1.4695 0.720593,2.92778 1.334863,4.29001 0.588919,1.33978 1.277469,2.62305 1.882568,3.9545 0.238462,0.92948 0.401062,1.93045 0.926226,2.75021 0.193381,0.21976 0.279082,0.50863 0.459355,0.71404 -4.337393,0.94185 -6.606475,3.65299 -3.901681,0.1919 0,0 1.493372,-0.76072 1.493372,-0.76072 l 0,0 c 3.301992,0.86737 3.63911,2.31947 -3.964966,4.42395 -0.239369,-0.23976 -0.4291,-0.51311 -0.593271,-0.82228 -0.456093,-0.92083 -0.79412,-1.79545 -1.028644,-2.79785 -0.507537,-1.38053 -1.243006,-2.63267 -1.800522,-3.98787 -0.58239,-1.42843 -1.109229,-2.8656 -1.433033,-4.37343 -0.319673,-1.38785 -0.404982,-2.77105 -0.31537,-4.19647 0.02961,-1.02841 -0.02027,-2.0617 0.0064,-3.09143 15.499589,-9.8463 6.021596,-6.31984 6.632909,-3.59622 0.001,0.1321 -0.01001,0.27896 -0.0143,0.31108 -0.01667,0.12928 -0.07497,0.35348 -0.03878,0.52911 -0.03097,0.3372 -0.0092,0.64812 -0.01806,0.98025 -0.05196,0.7626 -0.01403,1.55416 0.02182,2.3168 -0.03104,1.17027 0.01197,2.339 -0.09273,3.50548 -0.13582,1.48017 -0.239964,2.98355 -0.908697,4.34308 -0.521173,1.07282 -1.10758,2.08831 -1.891847,2.99248 -2.269256,2.91679 -5.802265,4.55032 -9.047578,6.18166 -0.995033,0.50057 -2.053832,0.93161 -3.188948,0.8839 -0.547526,0.0162 -1.12661,0.0187 -1.658832,-0.1095 -0.543867,-0.15117 -0.941003,-0.38326 -1.34541,-0.77344 -0.523731,-0.276 -1.07868,-0.56502 -1.276891,-1.15802 0.01364,-1.17621 0.0089,-2.34487 0.121169,-3.52148 0.129657,-4.34208 0.618478,-8.67658 0.785119,-13.0186 0,0 6.359316,-3.18995 6.359316,-3.18995 z"
       inkscape:connector-curvature="0" />
    <path
       style="opacity:1;fill:#280b0b;fill-opacity:1;stroke:none;stroke-width:5;stroke-miterlimit:4;stroke-dasharray:none;stroke-dashoffset:0;stroke-opacity:1"
       id="path3433"
       d="m 42.358896,458.77759 c 3.176158,3.29381 6.576899,6.36626 9.673348,9.73664 1.050507,1.48535 2.54807,2.62666 3.564989,4.13129 0.56226,0.64934 1.165789,1.18624 1.490585,1.99576 0.05464,0.25113 0.304146,0.74037 0.165043,0.98414 -0.624724,1.8503 -4.02395,1.84455 -5.370225,2.14434 -0.423394,0.0943 0.561569,-0.66729 0.895368,-0.94429 0.660284,-0.54794 1.384114,-1.01443 2.076172,-1.52164 0,0 0.958633,-0.42659 0.958633,-0.42659 l 0,0 c 0.382709,0.0262 0.810206,-0.10302 1.148127,0.0785 0.16704,0.0897 0.212338,0.46464 0.05236,0.56645 -2.794985,1.77868 -4.869081,1.63119 -6.313733,3.4749 -0.03337,-0.11148 -0.146647,-0.49551 -0.178682,-0.7061 -0.247453,-0.71819 -0.859905,-1.22448 -1.300227,-1.84368 -1.201752,-1.32982 -2.30539,-2.76614 -3.459677,-4.13978 -2.970223,-3.44466 -6.388975,-6.49187 -9.537394,-9.77006 0,0 6.13531,-3.75991 6.13531,-3.75991 z"
       inkscape:connector-curvature="0" />
    <path
       style="opacity:1;fill:#280b0b;fill-opacity:1;stroke:none;stroke-width:5;stroke-miterlimit:4;stroke-dasharray:none;stroke-dashoffset:0;stroke-opacity:1"
       id="path3435"
       d="m 89.244196,459.96162 c 2.05918,3.54729 4.392088,6.99101 7.286706,9.91462 0.902522,0.83011 1.794402,1.3287 3.012014,1.28449 1.067464,-0.0922 2.286124,0.18625 3.271124,-0.25207 2.35784,-0.83557 5.751,-2.56658 -4.383812,2.61029 -0.340279,0.17382 0.564295,-0.51583 0.832893,-0.78759 0.388865,-0.56849 0.179247,-0.23947 0.608785,-0.99958 0,0 3.355524,-1.98301 3.355524,-1.98301 l 0,0 c 1.05179,0.12236 0.62819,-0.0458 1.32046,0.35478 1.79367,3.07136 -5.125567,4.4832 -7.877887,5.50691 -1.160853,0.10137 -2.320614,0.12469 -3.485919,0.10083 -1.293432,-0.22623 -2.33554,-0.88057 -3.264692,-1.81217 -2.774819,-3.11591 -5.208029,-6.46689 -7.371522,-10.04282 0,0 6.696326,-3.89468 6.696326,-3.89468 z"
       inkscape:connector-curvature="0" />
    <path
       style="opacity:1;fill:#280b0b;fill-opacity:1;stroke:none;stroke-width:5;stroke-miterlimit:4;stroke-dasharray:none;stroke-dashoffset:0;stroke-opacity:1"
       id="path3437"
       d="m 91.773157,459.86005 c 4.040761,-0.34947 8.001006,-1.20137 11.928913,-2.17959 2.39231,-0.74925 6.99532,-3.03467 -4.444218,2.60232 -0.400716,0.19746 0.361559,-0.41423 0.56533,-0.92198 -0.0021,-0.42099 -0.09916,-0.87288 -0.179957,-1.29654 0.02214,-0.59303 -0.414107,-1.1363 -0.772515,-1.57905 -0.454607,-0.45226 -1.138406,-0.55402 -1.615259,-1.04603 -0.259537,-0.60287 -0.687056,-0.38544 -1.079211,-0.53709 -0.751624,-0.1149 -1.297004,-0.66434 -1.907226,-1.08164 -0.09858,0.34624 -0.386478,-0.12578 -0.597426,-0.0581 -0.08517,0.0273 -0.06589,0.20184 -0.15345,0.22015 -0.225492,0.0471 -0.43878,-0.14265 -0.66348,-0.19344 -0.544354,0.40344 -1.467653,0.14137 -2.144436,0.011 -0.623051,-0.52822 -1.232701,-0.71675 -1.955375,-0.95307 0.546618,0.28472 -0.77848,0.57827 -0.750897,0.56282 1.898059,-1.06307 3.811371,-2.09933 5.738509,-3.10873 0.237363,-0.12432 -0.433348,0.31699 -0.665147,0.4514 -2.381935,1.38125 -4.782763,2.72966 -7.174145,4.09449 10.189364,-6.02413 5.90985,-3.98589 4.214078,-1.62826 -0.520242,0.4612 -0.600035,1.1677 -1.108479,1.62431 -0.376711,0.35547 -0.631173,0.85045 -0.680057,1.36722 -0.06669,0.60496 -0.05164,1.19271 -0.0259,1.8024 -0.172558,0.85801 0.172928,1.62272 0.514206,2.38965 0.35784,0.72058 0.266795,1.49369 0.68807,2.1902 0.249574,0.86092 0.641329,1.64491 1.095256,2.41562 0.400111,0.71251 0.889449,1.38786 1.423572,2.02276 0.290074,0.70453 0.94593,0.89378 1.465962,1.34969 0.504273,0.39321 0.98837,0.78239 1.490195,1.17934 0.252462,0.2725 1.195948,0.8889 1.336002,0.40147 -7.916443,6.66431 -5.599985,2.41147 -3.735758,0.61604 0,0 3.172599,-1.59434 3.172599,-1.59434 l 0,0 c 3.298608,0.32714 -3.308934,5.96117 -5.158534,5.4188 -0.736334,-0.1515 -1.367062,-0.3972 -1.952921,-0.88763 -0.47967,-0.43296 -1.047685,-0.69848 -1.487424,-1.17099 -0.593372,-0.44708 -1.183772,-0.79753 -1.614475,-1.45573 -0.498421,-0.71116 -1.010118,-1.4079 -1.45075,-2.14757 -0.381343,-0.79939 -0.850878,-1.5469 -1.167414,-2.37729 -0.357633,-0.74983 -0.442084,-1.51578 -0.663122,-2.30791 -0.28652,-0.87008 -0.79703,-1.63947 -0.713993,-2.5957 0.02223,-0.65196 0.01063,-1.28408 0.03833,-1.93094 0.106753,-0.58846 0.07542,-1.1921 0.442795,-1.71062 0.165494,-0.25882 0.629505,-0.40103 0.738502,-0.62652 0.166218,-0.34386 -0.06802,-0.80607 0.401745,-1.0282 0.34225,-0.34234 0.41001,-0.59255 0.667547,-0.98788 1.716546,-2.63492 8.718677,-1.01443 7.968798,-5.06482 -1.916669,1.1161 -3.841629,2.21809 -5.750007,3.34831 -0.206737,0.12243 0.436928,-0.20199 0.643802,-0.3242 2.432762,-1.43713 4.8407,-2.91601 7.273593,-4.35292 0.20541,-0.12132 0.4066,-0.29892 0.644886,-0.31036 0.150294,-0.007 0.288307,0.0863 0.432461,0.12939 0.65491,0.26155 1.262252,0.58449 1.918607,0.83344 0.705664,0.13404 1.367276,-0.0748 2.063345,0.006 0.575002,0.0334 1.137296,-0.033 1.659806,0.32718 0.48869,0.41944 1.0086,0.72472 1.65234,0.83928 0.58705,-0.005 1.01268,0.44937 1.38496,0.86312 0.49856,0.44804 1.25889,0.50337 1.59069,1.16325 0.45244,0.57178 0.8796,1.18441 1.05241,1.90857 0.0177,0.51354 0.1736,0.97674 0.27428,1.47861 -0.0929,3.49328 -5.64081,5.42169 -8.936474,6.23739 -3.956434,0.92756 -7.943526,1.65646 -11.983277,2.12152 0,0 6.049732,-4.51897 6.049732,-4.51897 z"
       inkscape:connector-curvature="0" />
    <path
       style="opacity:1;fill:#280b0b;fill-opacity:1;stroke:none;stroke-width:5;stroke-miterlimit:4;stroke-dasharray:none;stroke-dashoffset:0;stroke-opacity:1"
       id="path3439"
       d="m 122.21306,454.82006 c -2.99812,0.68018 -6.20101,0.94757 -9.06872,2.13807 -0.89546,0.37174 -1.6967,0.93939 -2.5583,1.38402 11.60717,-6.25002 4.44138,-3.71493 3.81719,-1.01413 0.15581,0.80704 0.7801,1.25065 1.5166,1.48639 1.24888,0.22211 2.44431,0.50047 3.65603,0.89403 1.36392,0.22648 2.71444,0.31376 4.0158,0.80576 0.90175,0.286 1.70492,0.63938 2.47904,1.18497 0.86953,0.16902 1.37931,0.46349 1.94053,1.13835 0.53214,0.25174 0.98474,0.78473 1.34058,1.24717 0.55072,0.49536 0.72897,1.12455 0.9831,1.7838 0.19623,0.90474 -0.26565,1.61893 -0.61062,2.40846 -0.27494,0.89675 -0.79385,1.7167 -1.45533,2.37796 -2.16109,2.33527 -6.24557,3.88685 -8.37942,5.03363 -1.11102,0.59708 -0.11544,-0.28697 -0.81818,0.40042 -0.63181,0.13597 -1.41332,-0.0733 -2.0424,0.11219 -1.05815,-0.0632 -2.09099,0.1388 -3.16624,-0.0383 -1.06604,-0.0353 -2.17448,0.12892 -3.22966,-0.073 -0.59773,0.13906 -1.89277,-0.50071 -2.29771,-0.0693 -0.63092,-0.46482 -1.39604,-0.6762 -1.99011,-1.21229 -0.56307,0.4786 -0.89417,-1.28257 -0.90388,-1.66793 0.0325,-0.70706 0.38654,-1.16883 0.79041,-1.72015 0,0 3.59205,-1.88885 3.59205,-1.88885 l 0,0 c 0.50866,0.06 0.85841,0.11283 1.24762,0.46183 0.57162,0.48786 0.99953,0.53239 1.68171,0.67115 0.56275,0.21972 1.21842,0.75436 1.82524,0.63219 0.79533,0.17587 1.57592,0.16793 2.38393,0.27722 1.0879,-0.0295 2.17431,0.0454 3.262,0.0563 1.0213,0.0119 2.02665,-0.051 3.04522,-0.08 0.63718,0.002 1.35348,-0.0217 1.88833,-0.37749 4.74885,-1.14057 -8.76805,5.70109 -4.01772,2.50237 0.25292,-0.34099 0.72923,-0.55522 0.93854,-0.90075 0.25287,-0.41744 0.30514,-0.86533 0.73961,-1.18589 0.0769,-0.83761 0.64865,-1.30812 0.71754,-2.08067 -0.0128,-0.59852 -0.31441,-1.03767 -0.67702,-1.49884 -0.47015,-0.44623 -0.85672,-0.92484 -1.37957,-1.29701 -0.36481,-0.57979 -1.1562,-0.55667 -1.70777,-0.92873 -0.78957,-0.38748 -1.52009,-0.85399 -2.39029,-1.06701 -1.28093,-0.40501 -2.62476,-0.40445 -3.91341,-0.80793 -1.26689,-0.27386 -2.53519,-0.61005 -3.7849,-0.92878 -0.9635,-0.48128 -1.70433,-1.13843 -1.9561,-2.2241 -0.79073,-4.15318 8.86665,-5.00326 8.71137,-7.10382 3.67426,-1.87137 7.66318,-2.69341 11.73111,-3.27888 0,0 -5.9562,4.44764 -5.9562,4.44764 z"
       inkscape:connector-curvature="0" />
    <path
       style="opacity:1;fill:#280b0b;fill-opacity:1;stroke:none;stroke-width:5;stroke-miterlimit:4;stroke-dasharray:none;stroke-dashoffset:0;stroke-opacity:1"
       id="path3441"
       d="m 144.04036,436.65663 c -0.34656,4.51984 -0.52645,9.0486 -0.76737,13.57442 -0.0221,1.68067 -0.13656,3.36369 -0.0877,5.04462 -0.0396,1.1558 0.49094,2.2035 0.69951,3.32427 0.25868,1.10735 0.17913,2.22476 0.54415,3.3028 0.26915,0.77698 0.56127,1.51682 0.9008,2.25543 0.47326,0.65528 0.64597,1.44946 0.82744,2.22152 0.0695,0.63735 0.13524,1.29774 0.0733,1.94041 0.0532,0.62073 -0.0178,1.23574 0.0308,1.85477 -0.0176,0.21621 0.0319,0.43758 -0.0171,0.64108 -0.003,0.20717 0.0343,0.5646 0.0337,0.69072 0.21404,0.37217 0.57606,0.60803 0.82226,0.94977 0.51393,0.54361 1.30972,0.63118 2.01746,0.70032 0.77977,0.10533 1.56585,0.032 2.34798,0.0817 0.44669,-0.0413 0.89558,0.003 1.3396,-0.0273 -7.12315,2.92431 -6.42646,4.50621 -4.45411,1.66319 0.51537,-0.7572 1.09864,-1.49302 1.47023,-2.33558 0.3782,-0.74429 1.12748,-1.19907 1.69134,-1.80849 0.84024,-0.80602 0.33517,-0.34563 1.54466,-1.34816 0,0 1.77418,-0.87745 1.77418,-0.87745 l 0,0 c 1.06353,-0.0808 0.63277,-0.15964 1.31306,0.0431 0.22535,0.48285 0.26609,0.87162 -0.27522,1.13479 -0.15091,0.84714 -0.40854,1.54175 -0.90859,2.2622 -1.46756,2.81407 -5.55605,5.13351 -8.04783,5.55767 -0.43155,-0.025 -0.86795,0.033 -1.30183,-0.0139 -0.81212,0.0372 -1.63324,-0.0386 -2.43669,-0.14713 -0.85108,-0.16782 -1.68575,-0.41162 -2.28276,-1.08365 -0.37686,-0.28551 -0.64265,-0.69331 -0.96751,-1.03463 -0.2269,-0.412 -0.25706,-0.62142 -0.20752,-1.08143 -0.0606,-0.19354 0.0139,-0.42172 -0.0141,-0.62761 0.0496,-0.63124 -0.0103,-1.2585 0.0451,-1.89139 -0.0649,-0.60757 0.0261,-1.2206 -0.0594,-1.82626 -0.0325,-0.70265 -0.33076,-1.39029 -0.62133,-2.02105 -0.51672,-0.72119 -0.66256,-1.54954 -0.99754,-2.35946 -0.39622,-1.11279 -0.46142,-2.21858 -0.58598,-3.38716 -0.26644,-1.14842 -0.72089,-2.2966 -0.77088,-3.45846 0.0617,-1.70339 0.008,-3.41004 0.15254,-5.11112 0.17482,-4.53561 0.55668,-9.06172 0.78113,-13.59498 0,0 6.3942,-3.20752 6.3942,-3.20752 z"
       inkscape:connector-curvature="0" />
    <path
       style="opacity:1;fill:#280b0b;fill-opacity:1;stroke:none;stroke-width:5;stroke-miterlimit:4;stroke-dasharray:none;stroke-dashoffset:0;stroke-opacity:1"
       id="path3443"
       d="m 143.83144,446.41086 c 4.60176,0.56126 9.13823,1.53017 13.71812,2.24015 1.37808,0.20857 3.02859,0.39978 4.26695,-0.4184 0.53765,-0.26535 0.48751,-0.34909 0.67456,0.93609 0.0149,0.10258 -0.16057,0.13335 -0.22548,0.21416 -0.0828,0.10312 -0.0998,0.26801 -0.21459,0.33373 -7.12688,4.08094 -4.70664,3.62138 -8.09324,4.16428 -0.58441,0.0586 -1.11632,0.23379 -1.52922,-0.3811 0.0297,-0.70336 0.82126,-1.07002 1.33186,-1.42399 0,0 2.33951,-1.43418 2.33951,-1.43418 l 0,0 c 0.65535,-0.40916 1.29243,-0.88532 2.0673,-1.02842 0.67002,-0.0702 1.25391,-0.25343 1.91181,-0.39236 2.79903,-0.84782 0.0705,-0.07 -5.32551,3.31915 -0.10771,0.0676 0.27605,0.0418 0.38031,-0.031 0.0954,-0.0666 0.0271,-0.38168 0.1284,-0.32445 1.17641,0.66485 0.91024,0.69413 0.47816,0.86026 -1.45492,0.38007 -2.97586,0.27001 -4.4421,-0.003 -4.54466,-0.75806 -9.05665,-1.7298 -13.63411,-2.27414 0,0 6.16727,-4.3572 6.16727,-4.3572 z"
       inkscape:connector-curvature="0" />
    <path
       style="opacity:1;fill:#280b0b;fill-opacity:1;stroke:none;stroke-width:5;stroke-miterlimit:4;stroke-dasharray:none;stroke-dashoffset:0;stroke-opacity:1"
       id="path3445"
       d="m 167.31794,459.53383 c 0.0761,4.03057 -0.21076,8.4348 1.69345,12.12123 0.82356,1.28057 2.13355,1.73899 3.58736,1.38911 -0.66919,0.80771 3.20597,-1.54043 2.11821,-0.9141 -10.56446,6.08303 -6.99274,4.21734 -4.82176,2.53552 1.19549,-0.928 1.88331,-2.15166 2.52046,-3.48295 0.33038,-0.95413 0.63458,-1.91653 0.96398,-2.87075 0.29103,-0.81218 0.80331,-1.45229 1.32213,-2.1294 0,0 2.55814,-1.30574 2.55814,-1.30574 l 0,0 c 0.60051,0.16512 0.98349,0.25188 1.34138,0.77739 0.37971,0.76186 0.59666,1.53642 0.45643,2.39701 -0.20861,1.46993 -0.88475,2.673 -1.97118,3.6864 -2.79248,2.80679 -6.74239,5.06839 -10.65484,5.89737 -1.71134,0.0279 -3.19575,-0.65119 -4.07413,-2.18434 -1.91872,-3.80703 -1.74285,-8.31716 -1.79807,-12.47315 0,0 6.75844,-3.4436 6.75844,-3.4436 z"
       inkscape:connector-curvature="0" />
    <path
       style="opacity:1;fill:#280b0b;fill-opacity:1;stroke:none;stroke-width:5;stroke-miterlimit:4;stroke-dasharray:none;stroke-dashoffset:0;stroke-opacity:1"
       id="path3447"
       d="m 189.69302,457.45697 c -1.33484,3.66502 -2.94233,7.28537 -3.73865,11.11986 0.0161,0.51225 -0.15136,1.11409 0.0123,1.62513 0.006,0.0187 0.42561,0.21666 0.52475,0.30683 0.60739,0.382 1.243,0.51851 1.94793,0.56546 1.17181,0.20054 2.21911,-0.21055 3.33311,-0.48914 1.23038,-0.38525 2.63702,-0.74519 3.73955,-1.43704 2.82995,-1.70665 -0.873,0.53618 -4.89685,2.73427 -0.22919,0.1252 0.43056,-0.29587 0.64061,-0.45106 0.44552,-0.32916 0.84947,-0.70723 1.28145,-1.05323 0.71371,-0.49859 0.86666,-1.19356 0.9618,-2.00261 0.10164,-0.96463 0.0192,-1.93095 0.0462,-2.89825 -0.003,-0.96512 -0.60533,-1.66889 -1.22426,-2.34382 -0.8538,-0.70802 -1.5696,-1.48268 -2.71874,-1.62598 -1.19237,-0.13916 -2.25899,-0.51017 -3.3452,-1.03191 -0.62151,-0.3369 -1.34337,-0.43072 -2.00824,-0.73538 -0.33726,-0.39526 -0.76592,-0.70783 -1.20481,-0.99017 0.13203,-0.026 -0.2818,-0.15619 -0.19815,-0.19732 13.45884,-6.61695 2.01594,-0.3516 -2.41011,2.12447 12.782,-6.4799 5.76249,-4.04732 4.21782,-1.92923 -0.45869,0.37404 -0.95332,0.72588 -1.20639,1.26499 0,0 -6.99885,2.74308 -6.99885,2.74308 l 0,0 c 0.0729,0.0292 0.16027,0.14003 0.21868,0.0876 0.11261,-0.10117 0.40203,-1.22792 0.79393,-1.22112 0.47654,-0.16584 0.45144,-0.51188 0.82184,-0.84071 2.39606,-2.12714 7.46813,-0.30114 8.1915,-4.97078 0.27211,-0.14504 1.08136,-0.59272 0.81632,-0.43513 -13.69812,8.14494 -0.53297,0.46138 2.15166,-0.98069 0.0896,-0.0481 0.17439,0.23297 0.26072,0.15845 0.32097,0.30148 0.68383,0.54099 1.00864,0.8368 0.71065,0.21336 1.42858,0.42917 2.09742,0.75286 1.04111,0.4811 2.09511,0.67809 3.21224,0.90721 1.21535,0.35274 2.10521,1.19265 3.02362,2.0342 0.66482,0.82967 1.47531,1.72766 1.42876,2.85645 0.0423,0.98897 -0.0107,1.97652 -0.01,2.96567 -0.0639,0.93151 -0.16378,1.86632 -0.77655,2.61233 -0.45595,0.34507 -0.84056,0.75182 -1.27977,1.10619 -2.67017,2.15436 -5.86348,3.64456 -8.87045,5.30697 -1.2513,0.50768 -2.51268,1.03696 -3.84117,1.30118 -1.15122,0.29257 -2.2986,0.47555 -3.48195,0.24302 -0.79553,-0.14716 -1.53459,-0.41647 -2.18651,-0.91078 -0.98577,-0.65618 -1.00705,-1.56083 -0.85686,-2.68075 0.57952,-3.91125 2.46499,-7.53783 3.66001,-11.27733 0,0 6.86217,-3.15055 6.86217,-3.15055 z"
       inkscape:connector-curvature="0" />
    <path
       style="opacity:1;fill:#280b0b;fill-opacity:1;stroke:none;stroke-width:5;stroke-miterlimit:4;stroke-dasharray:none;stroke-dashoffset:0;stroke-opacity:1"
       id="path3455"
       d="m 211.56904,457.81152 c 2.31597,3.57137 4.97662,6.96045 6.95031,10.74252 0.59011,1.03939 0.98432,2.1093 1.19571,3.27516 -0.0564,0.47548 0.1105,1.01801 -0.0254,1.48087 0.25858,2.64781 -1.96373,0.97742 -7.48858,3.09861 0.0286,-0.85283 -0.0476,-1.70607 0.003,-2.55804 -0.006,-0.50734 0.0564,-0.89911 -0.19445,-1.32928 -0.17285,-0.3455 -0.45352,-0.63475 -0.60934,-0.97644 -0.27865,-0.52468 -0.19813,-1.11297 -0.22433,-1.68733 0.057,-0.92958 -0.003,-1.85762 0.0608,-2.78712 -0.14754,-1.26427 0.20745,-2.47012 0.5408,-3.67583 0.32918,-0.72479 0.17724,-1.62232 0.58407,-2.3001 2.67424,-1.44454 5.32318,-2.93695 8.02273,-4.33362 0.1384,-0.0716 0.71123,-0.16122 0.93665,-0.13892 0.13739,0.0136 0.28883,0.251 0.38522,0.15216 0.07,-0.0718 0.015,-0.20008 0.0225,-0.30013 -15.40988,8.36817 -0.19442,0.2962 2.14852,-0.7738 0.31559,-0.14413 1.07859,-0.0113 1.42687,0.0914 0.56596,0.21398 0.91406,0.75027 1.48544,1.00984 0.52622,0.10675 1.05391,0.0987 1.58602,0.12441 0.70901,-0.12538 1.0807,0.56548 1.70699,0.74 0.64528,0.17548 1.16714,0.63505 1.71587,1.03128 0.46926,0.32357 0.85767,0.78804 1.20338,1.25465 0.35305,0.51788 0.46969,1.09126 0.82456,1.59435 0.51853,0.78315 0.68622,1.6442 0.79726,2.55992 0.0667,0.85362 0.14591,1.72939 0.0852,2.58506 0.0223,1.03146 -0.004,2.05759 -0.007,3.08901 0.0411,0.66649 -0.0215,1.33202 0.0345,1.99935 0.28688,0.40764 0.43526,0.9245 0.75793,1.30212 0.12156,0.0754 0.0544,0.16113 0.0519,0.18322 0.56139,2.91281 0.36451,1.17875 -7.11394,3.40771 -0.26311,0.0784 -0.16643,-0.52711 -0.19547,-0.80012 -0.12147,-1.1418 0.42496,-1.79275 1.0857,-2.65093 0,0 3.47114,-1.6628 3.47114,-1.6628 l 0,0 c 0.45624,0.32865 0.65096,0.68829 1.04902,1.07812 0.15653,0.1533 0.67317,0.27701 0.50636,0.41905 -5.70765,4.86032 -7.18379,2.09468 -5.88366,4.41325 -0.064,-0.0512 -0.17411,-0.076 -0.1884,-0.19674 -0.20093,-0.48352 -0.59829,-0.87785 -0.79059,-1.374 -0.40737,-0.6609 -0.18054,-1.5696 -0.20388,-2.33923 3.2e-4,-1.03094 -0.0207,-2.05662 0.006,-3.08758 -0.0638,-0.83136 0.0418,-1.67196 -0.0464,-2.50596 -0.0662,-0.73981 -0.13873,-1.5298 -0.57776,-2.15351 -0.40414,-0.4881 -0.5257,-1.0884 -0.8441,-1.63063 -0.25405,-0.40134 -0.59841,-0.77173 -1.0053,-1.00292 -0.55816,-0.33001 -0.99874,-0.77537 -1.6488,-0.9332 -0.49146,-0.30795 -0.89289,-0.54845 -1.49186,-0.49156 -0.61968,-0.0201 -1.2721,-0.15694 -1.81532,-0.45716 -0.41012,-0.29693 -0.79533,-0.72882 -1.30698,-0.74467 -0.63097,0.0139 -1.42354,0.13091 -1.25423,0.0124 10.48729,-7.33969 5.67281,-2.83891 -2.06013,1.08913 -2.0765,-0.96622 -10.65625,6.69305 4.82467,-3.65722 -0.0219,0.004 -0.43706,0.0759 -0.44555,0.0863 -0.33638,0.41072 -0.009,1.30489 -0.31972,1.7424 -0.34271,1.14354 -0.75174,2.27257 -0.6769,3.48455 0.0648,0.91003 -0.007,1.81837 0.0494,2.72855 -0.0165,0.39236 0.0619,0.96653 -0.0796,1.26425 0.28318,0.28633 0.46464,0.67249 0.70244,1.0059 0.35365,0.59605 0.48386,1.04303 0.37672,1.74048 0.0499,0.84926 -0.0348,1.70004 0.002,2.55015 -4.82491,2.96222 -8.19596,7.01529 -7.44548,4.44766 0.0117,-0.44257 0.0697,-0.90382 0.0549,-1.35652 0.0402,-1.08263 -0.51219,-2.05752 -0.94956,-3.01928 -2.02195,-3.72789 -4.36835,-7.2553 -6.87559,-10.67402 0,0 7.11323,-4.18521 7.11323,-4.18521 z"
       inkscape:connector-curvature="0" />
    <path
       style="opacity:1;fill:#280b0b;fill-opacity:1;stroke:none;stroke-width:5;stroke-miterlimit:4;stroke-dasharray:none;stroke-dashoffset:0;stroke-opacity:1"
       id="path3457"
       d="m 247.16163,462.26543 c -3.90819,1.24657 -7.81213,2.46439 -11.46991,4.34073 1.95049,-1.08982 3.90099,-2.17965 5.85149,-3.26948 -0.13326,0.17391 -0.6315,0.46486 -0.60105,0.77074 0.0107,0.10764 0.19605,0.10324 0.26624,0.18555 0.44588,0.51378 1.1905,0.70293 1.84907,0.77093 0.61265,0.48849 1.27755,0.7426 2.01777,0.93549 0.73564,0.0864 1.48037,0.0949 2.22078,0.0958 0.77263,0.007 1.5476,-0.0304 2.31999,-0.008 0.72446,0.0349 1.49058,-0.19567 2.0864,0.25787 0.48913,0.36961 0.96586,0.53878 1.5234,0.69361 0.46459,0.0464 0.94054,0.0615 1.40838,0.0325 0.38993,0.0195 0.78993,-0.0413 1.17897,-0.0112 0.57372,0.0156 0.93686,0.63495 1.31529,1.00669 0.32639,-0.006 0.681,0.33096 0.93153,0.75286 0.3743,0.23753 0.68978,0.7088 1.03225,1.10257 0.25873,0.34423 0.38965,0.89634 0.38761,1.33472 0.0184,0.54977 0.21078,1.25011 -0.29299,1.62692 -0.43373,0.68168 -0.87845,1.23779 -1.54861,1.72992 -2.95949,2.1595 -6.0372,4.58412 -9.67995,5.3092 -0.1152,0.0628 -0.23041,0.12551 -0.34561,0.18826 -0.10107,-0.0226 -0.20489,-0.10048 -0.30322,-0.0679 -0.0817,0.0271 -0.0574,0.20123 -0.14232,0.21545 -0.0903,0.0151 -0.86208,-0.0835 -0.96258,-0.12278 -0.82241,0.37511 -1.63104,-0.38639 -2.41625,-0.52468 -0.76202,-0.59167 -1.60677,-0.2818 -2.42213,-0.5139 -0.73205,0.0159 -1.21961,-0.6555 -1.83667,-0.88946 -0.19644,-0.0745 -0.42457,-0.0303 -0.62187,-0.10249 -0.18739,0.14014 -0.6776,-0.45113 -0.84616,-0.31957 -0.24649,0.1924 0.22627,0.38116 -0.54616,0.075 -0.60027,-0.28304 -0.40131,-0.0466 -0.51745,-0.01 -0.38904,0.12338 -0.13346,-0.35039 -0.30258,0.0701 -1.01595,-0.809 -0.75183,-1.08265 -0.28745,-1.95353 0,0 3.29463,-2.17263 3.29463,-2.17263 l 0,0 c 1.16266,-0.32301 1.79945,0.0965 2.68331,-0.41667 0.54703,-0.0628 1.05025,-0.25172 1.61948,-0.10592 0.13752,-0.0173 0.25722,-0.15037 0.39452,-0.13139 0.36704,0.0507 0.74182,0.46149 1.13904,0.45401 0.80985,0.22016 1.47247,0.83331 2.33662,0.89268 0.89343,-0.0381 1.71566,0.26995 2.5351,0.60355 0.75804,0.30936 1.45733,0.45866 2.27963,0.39235 0.54938,-0.20479 1.05051,-0.18509 1.61237,-0.40218 0.30709,-0.0892 1.17605,-0.48525 0.90713,-0.31221 -10.57397,6.80425 -6.7337,4.65855 -4.98235,2.69213 0.50482,-0.22407 0.69873,-0.49622 1.1347,-0.79323 0.085,-0.0579 0.23912,0.0285 0.30438,-0.0511 0.13926,-0.16971 -0.0813,-0.50672 0.20683,-0.62529 0.34958,-0.59691 0.71921,0.0401 0.61627,-1.1088 -0.0552,-0.31593 0.023,-0.66716 -0.16952,-0.95087 -0.26365,-0.43888 -0.67681,-0.73587 -0.96962,-1.15008 -0.27912,-0.30458 -0.63355,-0.37012 -0.90291,-0.69897 -0.21705,-0.33452 -0.52144,-0.51979 -0.90699,-0.45942 -0.39151,0.029 -0.79331,-0.0171 -1.18487,-0.002 -0.49857,-0.0486 -0.9963,-0.0207 -1.47616,-0.20358 -0.59209,-0.13518 -1.06006,-0.57966 -1.61418,-0.82704 -0.61592,0.10717 -1.25923,-0.0184 -1.88074,0.0268 -0.77607,0.0254 -1.55541,0.001 -2.33149,-10e-4 -0.785,-0.0225 -1.56478,-0.0567 -2.33016,-0.2541 -0.70857,-0.19819 -1.2936,-0.64836 -1.98713,-0.8914 -0.80456,-0.2355 -1.53314,-0.52146 -2.10816,-1.16737 -3.03152,-2.88184 6.88796,-6.56197 6.98852,-6.43616 3.70057,-1.79963 7.64978,-2.9337 11.53639,-4.25689 0,0 -5.99085,4.65465 -5.99085,4.65465 z"
       inkscape:connector-curvature="0" />
    <path
       style="opacity:1;fill:#280b0b;fill-opacity:1;stroke:none;stroke-width:5;stroke-miterlimit:4;stroke-dasharray:none;stroke-dashoffset:0;stroke-opacity:1"
       id="path3459"
       d="m 795.30478,370.80562 c -0.29096,5.54637 -0.37715,11.10951 -1.03218,16.62868 -0.295,2.18528 -0.76443,4.37554 -0.82907,6.58472 -0.0565,1.50832 -0.10835,3.02959 -0.0476,4.53806 0.0249,1.46345 -0.0229,2.92919 0.0104,4.3915 0.003,1.75026 0.0546,3.50301 -0.004,5.25266 0.0374,1.48855 0.0272,2.97477 0.0274,4.46266 -0.0663,1.03358 0.0361,2.01304 0.22351,3.02582 0.26237,1.00114 0.59715,2.00563 0.701,3.04125 0.0779,0.26425 0.0384,0.56095 0.11942,0.81569 -0.50052,1.32761 -3.86995,0.90409 -4.43128,1.00743 0,0 2.07205,-1.03452 2.07205,-1.03452 l 0,0 c -4.03756,3.26295 -3.72188,4.02095 -4.65745,3.61437 0.0338,-0.23739 -0.006,-0.50651 -0.0253,-0.75654 -0.1775,-1.00632 -0.32217,-2.00927 -0.61095,-2.99276 -0.33549,-1.05257 -0.43187,-2.07128 -0.35064,-3.17463 3.5e-4,-1.49722 -0.009,-2.99269 0.0275,-4.4906 -0.0613,-1.74715 -0.006,-3.49755 -0.008,-5.24543 0.0293,-1.46304 -0.0249,-2.9294 -0.007,-4.39363 0.057,-1.53738 -0.002,-3.07968 0.095,-4.61838 0.21719,-2.22976 0.48037,-4.44646 0.85675,-6.65896 0.84155,-5.49181 0.94055,-11.05141 1.19315,-16.59507 0,0 6.67743,-3.40232 6.67743,-3.40232 z"
       inkscape:connector-curvature="0" />
    <path
       style="opacity:1;fill:#280b0b;fill-opacity:1;stroke:none;stroke-width:5;stroke-miterlimit:4;stroke-dasharray:none;stroke-dashoffset:0;stroke-opacity:1"
       id="path3461"
       d="m 822.09845,397.11859 c -3.39339,2.74891 -7.0676,5.13515 -10.05194,8.34726 -0.90225,1.05557 -1.65656,2.29869 -2.26315,3.55479 -0.34579,0.6419 -0.39726,1.0648 -0.0477,1.68212 0.29775,0.47392 1.06337,0.33158 1.57155,0.62152 0.78149,0.4518 1.62515,0.60783 2.51051,0.68456 1.10307,0.22541 1.97033,-0.07 2.91223,-0.62483 2.74061,-1.21756 1.20558,-0.56225 -5.27632,3.07378 -0.24054,0.13493 0.47298,-0.28385 0.70664,-0.43037 0.76369,-0.47886 1.48039,-1.00692 2.19441,-1.55598 1.63838,-1.14396 2.87774,-2.70428 4.1156,-4.24734 1.13327,-1.52784 1.95172,-3.25013 2.46566,-5.07648 0.49752,-1.90614 0.5987,-3.91123 0.60447,-5.87547 -0.0974,-2.20347 -0.56626,-4.33152 -1.32767,-6.39339 -0.64046,-2.04597 -1.36209,-4.08198 -2.27268,-6.02438 -0.52142,-1.09316 -0.79982,-2.27307 -1.24627,-3.39279 -0.20479,-2.85775 -9.93757,3.12076 6.72071,-2.92254 -0.0709,1.7417 0.19053,3.4188 0.47167,5.12647 0.42,2.50962 0.40541,5.06478 0.63444,7.59323 0.33142,2.74604 0.78408,5.46815 1.24491,8.19394 0.33904,2.15439 1.19505,4.15126 1.8422,6.21457 0.73253,1.48426 1.27873,3.03249 2.11863,4.46253 0.60234,1.02694 1.42203,1.89045 2.17803,2.80153 0.23095,0.23829 0.18653,0.24124 0.0698,-0.11387 -1.94679,0.89183 -3.79428,2.04394 -5.84038,2.67547 -0.3869,0.11942 0.39994,-0.7042 0.59798,-1.05738 0.85884,-1.53169 0.25445,-0.49911 1.18204,-2.04345 0.93789,-1.43857 0.42466,-0.73105 1.54802,-2.11649 0,0 3.47979,-1.61604 3.47979,-1.61604 l 0,0 c 0.34506,0.79382 0.25302,0.35436 0.19854,1.33227 -0.62726,2.96205 -2.97307,11.89437 -7.89361,6.97599 -0.8725,-0.88092 -1.63512,-1.87222 -2.30533,-2.91347 -0.86656,-1.47249 -1.45582,-3.07549 -2.16061,-4.62832 -0.73011,-2.08054 -1.5004,-4.13545 -1.91409,-6.31304 -0.45301,-2.74556 -0.92386,-5.48173 -1.23022,-8.24864 -0.3362,-2.50542 -0.21501,-5.04808 -0.63116,-7.54957 -0.29126,-1.75522 -0.65463,-3.47029 -0.45614,-5.26265 2.26935,-1.49039 4.5387,-2.98078 6.80805,-4.47116 -0.0249,0.0712 0.006,0.15474 0.0376,0.22299 0.22028,1.1573 0.74774,2.23445 1.12648,3.34324 0.83622,1.99336 1.72377,3.96171 2.39893,6.02023 0.73772,2.15501 1.29987,4.35143 1.46269,6.63349 -0.0639,2.01191 -0.0435,4.0289 -0.44801,6.01434 -0.51554,1.91172 -1.27396,3.76046 -2.40583,5.39585 -1.24262,1.53678 -2.37472,3.1789 -3.97193,4.38319 -3.33543,2.60037 -7.02867,4.76038 -10.84167,6.58251 -1.08671,0.40498 -2.0738,0.48534 -3.22421,0.29151 -0.90884,-0.1851 -1.79255,-0.43962 -2.60921,-0.88924 -0.73571,-0.21281 -1.41263,-0.28545 -1.85978,-1.01012 -0.44789,-0.79993 -0.63206,-1.47796 -0.29527,-2.36116 0.68037,-1.2816 1.32012,-2.58975 2.19153,-3.74782 2.92792,-3.31716 6.61454,-5.74657 10.07059,-8.4737 0,0 7.10947,-2.86769 7.10947,-2.86769 z"
       inkscape:connector-curvature="0" />
    <path
       style="opacity:1;fill:#280b0b;fill-opacity:1;stroke:none;stroke-width:5;stroke-miterlimit:4;stroke-dasharray:none;stroke-dashoffset:0;stroke-opacity:1"
       id="path3463"
       d="m 842.54134,396.7448 c 3.96858,-1.03094 8.00022,-1.95455 11.53712,-4.0972 3.30308,-1.6475 -3.39921,1.92063 -5.1703,2.73636 -0.1064,0.049 -0.008,-0.24387 -0.0679,-0.34482 -0.061,-0.1037 -0.17596,-0.16518 -0.27365,-0.23542 -0.48925,-0.35178 -0.39613,-0.27873 -0.93091,-0.44105 -1.56287,-0.20903 -3.03409,0.28705 -4.54087,0.60593 1.73659,-1.3236 -4.33043,2.36867 -2.43138,1.27573 1.87514,-1.07917 7.49548,-4.32509 5.63473,-3.22129 -2.44438,1.45 -4.95682,2.78432 -7.38578,4.26001 -1.87428,1.13869 3.81412,-2.1658 5.72118,-3.24871 -1.64605,0.96534 -2.72451,2.51974 -3.73686,4.08829 -0.80954,1.58886 -1.58135,3.17521 -2.11202,4.87916 -0.27196,1.27558 -0.33763,2.5731 -0.35669,3.87189 0.1121,1.09889 0.81688,1.79288 1.55428,2.54342 1.00691,0.92775 2.18466,1.32727 3.5121,1.49178 1.7272,0.19328 3.46386,0.11937 5.19744,0.14363 1.43631,-0.23098 2.75551,-0.73182 4.09076,-1.25834 -0.84926,0.81829 2.89151,-1.56489 1.76509,-0.92286 -11.60411,6.61399 -7.20573,4.6103 -5.29354,2.84669 0.76367,-0.53536 1.2607,-1.31522 1.86942,-1.99945 1.10626,-1.39937 2.4667,-2.30774 4.01117,-3.16877 0,0 1.27837,-0.52945 1.27837,-0.52945 l 0,0 c 1.48527,-0.26949 0.7935,-0.0133 0.90841,0.99104 -0.20265,0.61036 -0.19568,1.31946 -0.75743,1.72654 -0.27217,0.23578 -0.43357,0.59818 -0.74041,0.78665 -2.82886,1.73763 -6.03703,3.89177 -9.30177,5.1891 -1.33831,0.5317 -2.76411,0.88913 -4.20491,0.96755 -1.74977,0.0133 -3.51453,-0.0404 -5.24811,-0.2758 -1.39232,-0.32499 -2.68249,-0.85012 -3.69763,-1.8979 -0.9514,-0.79822 -1.66704,-1.86419 -1.90714,-3.09673 0.0148,-1.35615 0.0154,-2.72104 0.3245,-4.05018 0.32054,-1.85188 1.33684,-3.37973 2.01311,-5.11295 1.01959,-1.64639 2.08922,-3.39168 3.76155,-4.43436 2.42886,-1.44247 4.90431,-2.80921 7.28657,-4.32741 1.83222,-1.16765 -7.51712,4.36115 -5.63538,3.27512 2.80975,-1.62162 6.37881,-4.2516 9.83715,-5.31585 1.55912,-0.33983 3.1529,-0.73287 4.71723,-0.19056 4.94008,2.35185 -2.02394,5.28791 -5.28159,6.91708 -3.57245,1.92651 -7.57629,2.76982 -11.46918,3.80972 0,0 5.52325,-4.23659 5.52325,-4.23659 z"
       inkscape:connector-curvature="0" />
    <path
       style="opacity:1;fill:#280b0b;fill-opacity:1;stroke:none;stroke-width:5;stroke-miterlimit:4;stroke-dasharray:none;stroke-dashoffset:0;stroke-opacity:1"
       id="path3465"
       d="m 867.48672,397.36017 c -2.05135,3.25206 -5.24427,6.79763 -6.00197,10.66324 0.12808,2.0499 1.12945,1.91061 2.81528,1.70587 -0.91838,1.08989 5.41778,-2.61736 3.88677,-1.76538 -5.78704,3.22037 -7.52824,4.59601 -4.79084,2.53371 1.71937,-1.2224 2.97476,-2.83786 4.13985,-4.56493 1.08496,-1.76044 1.7558,-3.76364 2.33428,-5.74212 0.38758,-1.19505 0.476,-2.44033 0.6663,-3.66896 0.0247,-0.34993 0.0245,-0.69654 0.0191,-1.04843 -0.005,-0.0133 -0.0825,-0.17203 -0.0222,-0.19692 8.22921,-3.39199 6.88497,-5.05335 7.01408,-1.36711 0.0208,1.5044 0.0397,3.01529 0.0102,4.52119 -0.0116,1.7091 -0.11364,3.43041 0.48054,5.05732 0.50954,1.23205 1.20434,2.35817 1.9667,3.44777 0.59275,1.01787 1.57101,1.67977 2.55125,2.28693 0.63092,0.47708 1.29605,0.62487 2.03901,0.79359 2.41787,0.19315 1.90109,0.0878 -5.50767,2.82098 -0.38309,0.14132 0.52845,-0.62297 0.8058,-0.92264 0.47624,-0.51458 0.97999,-1.00311 1.46077,-1.51346 1.00982,-1.21486 2.22549,-1.88718 3.57503,-2.70955 0,0 0.22303,-0.0976 0.22303,-0.0976 l 0,0 c 1.28969,-0.24618 1.52731,-0.63492 1.55555,0.47093 -1.1561,3.32194 -5.29133,7.14949 -8.68711,6.55124 -0.8384,-0.12234 -1.56784,-0.57381 -2.26957,-1.02663 -1.0366,-0.70794 -2.06477,-1.4143 -2.70243,-2.53433 -0.84346,-1.10044 -1.49978,-2.391 -2.00043,-3.68116 -0.66998,-1.72235 -0.68189,-3.48581 -0.61015,-5.31534 -0.0314,-1.50844 -0.0136,-3.02167 0.004,-4.52877 0.13595,-4.01838 -0.67071,-1.12484 7.03234,-5.81028 0.0632,-0.0384 -0.0306,0.34094 -0.0132,0.22157 0.006,0.38523 0.0268,0.76323 -0.0222,1.14737 -0.0494,1.27858 -0.36223,2.5669 -0.64162,3.80732 -0.53895,2.01995 -1.13957,4.0604 -2.13061,5.9087 -1.12776,1.79012 -2.31427,3.53145 -4.047,4.80144 -3.25573,2.67076 -8.1352,5.81289 -12.59889,6.74645 -2.17548,0.0195 -3.22158,-0.68245 -3.52845,-2.91287 0.61365,-4.15425 3.73426,-7.50162 5.85902,-10.97225 0,0 7.1355,-3.10686 7.1355,-3.10686 z"
       inkscape:connector-curvature="0" />
    <path
       style="opacity:1;fill:#280b0b;fill-opacity:1;stroke:none;stroke-width:5;stroke-miterlimit:4;stroke-dasharray:none;stroke-dashoffset:0;stroke-opacity:1"
       id="path3467"
       d="m 900.07482,394.10977 c 1.57378,3.99578 3.31967,7.92994 4.7206,11.99176 0.46848,1.25088 0.72247,2.50985 0.83916,3.82941 -0.60819,4.25541 -6.12931,5.86309 -10.00227,6.68877 -2.41026,0.29307 -4.85268,0.23098 -7.27645,0.18846 -1.7955,0.13567 -3.50361,-0.51219 -5.24784,-0.72169 -0.63331,-0.34994 -1.51301,-1.48809 -0.9032,-2.24448 0.36763,-0.456 0.87369,-0.7804 1.31054,-1.1706 0,0 1.18009,-0.66523 1.18009,-0.66523 l 0,0 c 0.52904,-0.18413 1.04382,-0.41595 1.58711,-0.55241 0.94009,-0.23612 1.96442,0.36385 2.91042,0.25168 1.93568,-0.008 3.86532,0.39456 5.80826,0.28139 2.39903,-0.009 4.82355,0.0784 7.19075,-0.38583 3.25394,-0.95952 1.11596,-0.42038 -5.07171,3.41713 -0.007,0.004 0.59144,-0.2215 1.01734,-1.0295 0.0562,-0.1067 0.12862,-0.20407 0.19293,-0.30611 0.0321,-1.24988 -0.25171,-2.50063 -0.5853,-3.69682 -1.32643,-4.08146 -2.75522,-8.12084 -4.4598,-12.06423 0,0 6.78937,-3.8117 6.78937,-3.8117 z"
       inkscape:connector-curvature="0" />
    <path
       style="opacity:1;fill:#280b0b;fill-opacity:1;stroke:none;stroke-width:5;stroke-miterlimit:4;stroke-dasharray:none;stroke-dashoffset:0;stroke-opacity:1"
       id="path3469"
       d="m 839.91009,398.81177 c 4.18593,1.4955 8.4236,2.76924 12.84431,3.28901 1.05326,0.11238 2.10039,0.11689 3.14953,-0.0168 0.27628,-0.1264 0.58644,-0.0375 0.8912,-0.0626 0.0811,-0.0213 0.30139,0.0356 0.31492,0.0371 1.72728,2.30218 -5.68668,6.59451 -6.20802,3.40817 0,0 3.33026,-2.30087 3.33026,-2.30087 l 0,0 c 4.18965,-1.06924 -5.24837,1.42012 -3.4048,3.4539 -0.12527,0.0306 -0.25495,0.043 -0.39045,0.0474 -0.27656,-0.0121 -0.52293,0.0814 -0.79107,0.0622 -1.06523,0.0886 -2.15243,-0.0557 -3.20835,-0.1652 -4.40771,-0.65215 -8.64493,-1.98689 -12.83809,-3.47094 0,0 6.31056,-4.28129 6.31056,-4.28129 z"
       inkscape:connector-curvature="0" />
    <path
       style="opacity:1;fill:#280b0b;fill-opacity:1;stroke:none;stroke-width:5;stroke-miterlimit:4;stroke-dasharray:none;stroke-dashoffset:0;stroke-opacity:1"
       id="path3471"
       d="m 393.77558,390.68904 c 4.63171,-0.85811 9.26528,-1.68363 13.93993,-2.26705 2.41127,-0.29107 4.84305,-0.31709 7.26839,-0.356 1.66161,0.0183 3.32393,0.0217 4.98587,0.0245 1.68908,-0.0149 3.37662,0.004 5.06603,-0.0154 2.37746,0.018 4.75609,0.0178 7.13409,0.0169 2.52103,-0.0107 5.04149,0.002 7.56249,-0.025 1.7536,-0.001 3.50958,0.0344 5.26289,0.006 1.68838,-0.005 3.37552,0.0106 5.06412,-0.01 2.15187,0.0103 4.30559,0.0367 6.45757,0.0151 2.3246,-0.009 4.64931,-0.0122 6.97398,-0.009 2.7692,0.004 5.53907,0.0246 8.30819,0.001 2.12119,0.005 4.24199,-0.007 6.36314,-0.007 1.4456,-0.0111 2.89326,0.0247 4.33864,-0.006 0.91189,0.005 1.82305,-0.001 2.73504,-2e-5 1.59389,0.0766 3.14231,-0.40239 4.71034,-0.65489 2.31252,-0.28229 4.64862,-0.30927 6.97553,-0.33928 2.42191,-0.0405 4.84435,0.009 7.26615,-0.0176 1.75082,0.0144 3.50309,-0.0269 5.25377,-7.4e-4 0.89155,-0.0128 1.78207,-0.005 2.6736,-0.002 1.6195,0.008 3.23945,-0.006 4.85919,-0.005 2.40461,-0.0662 4.79016,-0.51284 7.19287,-0.73103 2.20232,-0.1818 4.41971,-0.2619 6.63001,-0.26205 1.42646,-0.0192 2.85293,0.0164 4.27909,-0.006 1.64586,0.0196 3.2923,-0.0142 4.93822,0.008 2.25302,-0.0107 4.50647,0.023 6.75952,0.005 1.85384,-0.0478 3.70355,-0.11517 5.46592,0.53452 0.72794,0.26423 1.48793,0.38554 2.25625,0.44243 0.87464,0.0183 1.75055,-0.009 2.62544,0.009 1.06136,0.095 2.23429,-0.25508 3.21536,0.21104 0.42539,0.40685 0.81488,0.57481 1.32188,0.79383 0.82137,-0.008 1.64233,0.0102 2.46481,0.0117 1.27889,0.0231 2.55975,-0.0392 3.83839,0.007 1.07136,-0.12465 1.88973,0.007 2.78397,0.60543 0.322,0.33872 0.80454,0.25046 1.19481,0.41234 0.31938,-0.0292 0.62879,-0.0401 0.95527,-0.041 1.09507,0.14436 2.0094,-0.16456 3.01627,-0.54471 0.59209,-0.30331 1.26861,-0.36379 1.91451,-0.48839 0.14603,-0.031 0.26419,-0.003 0.36047,0.0535 0.74104,2.73548 0.44184,0.65006 -5.50463,3.10573 0,0 2.84887,-1.93348 2.84887,-1.93348 l 0,0 c -4.15842,3.02751 -4.76948,1.4506 -3.75958,3.4067 -0.033,0.0242 -0.0969,0.17311 -0.26213,0.13171 -0.60904,0.10016 -1.18162,0.32644 -1.76093,0.53182 -1.04861,0.35275 -2.11602,0.40768 -3.2171,0.3632 -0.34748,5.8e-4 -0.70935,0.0354 -1.02925,-0.11933 -0.48488,-0.0545 -0.96435,-0.34108 -1.3603,-0.60582 -0.7811,-0.40413 -1.63762,-0.24957 -2.49667,-0.28717 -1.29168,0.0456 -2.58554,-0.003 -3.87739,0.0158 -0.86226,-0.006 -1.76877,0.0623 -2.59168,-0.23011 -0.51826,-0.14401 -0.83851,-0.57128 -1.33587,-0.76227 -1.02,-0.0778 -2.04961,0.0176 -3.0717,-0.0207 -0.89366,0.0193 -1.79713,0.0203 -2.686,-0.0695 -0.80163,-0.11114 -1.56195,-0.33016 -2.33194,-0.57584 -1.75199,-0.43978 -3.50137,-0.39481 -5.30101,-0.36236 -2.25744,-0.0185 -4.51527,0.016 -6.77269,0.004 -1.65024,0.0204 -3.30106,-0.0134 -4.95123,1.2e-4 -1.4199,-0.0283 -2.84107,3.8e-4 -4.26106,0.006 -2.18382,0.0534 -4.36742,0.0694 -6.54489,0.27973 -2.42648,0.24331 -4.83731,0.71251 -7.28212,0.70435 -1.61547,9.7e-4 -3.23117,-0.0127 -4.84641,-0.005 -0.88909,0.002 -1.77716,0.0105 -2.66623,-0.003 -1.74579,0.0232 -3.49304,-0.0196 -5.23894,-0.0105 -2.4154,-0.0329 -4.83256,0.008 -7.24788,0.0202 -2.31207,0.0421 -4.63409,0.0742 -6.92289,0.44062 -1.59649,0.25962 -3.16962,0.68305 -4.80243,0.56728 -0.91197,0.002 -1.82312,-0.005 -2.735,-10e-6 -1.4396,-0.0327 -2.88172,0.006 -4.32157,-0.006 -2.11467,-2.2e-4 -4.229,-0.012 -6.34372,-0.007 -2.77022,-0.0239 -5.54121,-0.002 -8.31152,0.001 -2.31633,0.003 -4.63273,-4.5e-4 -6.94899,-0.009 -2.16583,-0.0224 -4.33339,0.005 -6.49914,0.0151 -1.6799,-0.0207 -3.35839,-0.004 -5.03809,-0.01 -1.75888,-0.0297 -3.52054,0.008 -5.27973,0.006 -2.4981,-0.0274 -4.99567,-0.0137 -7.49382,-0.0249 -2.39347,-8.2e-4 -4.78747,-8.8e-4 -7.18044,0.0165 -1.67067,-0.0211 -3.33984,-0.002 -5.01007,-0.0283 -1.66737,-0.009 -3.33551,-0.0271 -5.00241,-0.002 -2.38035,-0.004 -4.75752,0.0859 -7.12447,0.35773 -4.67675,0.54931 -9.31373,1.42224 -13.93137,2.3328 0,0 6.08241,-4.60433 6.08241,-4.60433 z"
       inkscape:connector-curvature="0" />
    <path
       style="opacity:1;fill:#280b0b;fill-opacity:1;stroke:none;stroke-width:5;stroke-miterlimit:4;stroke-dasharray:none;stroke-dashoffset:0;stroke-opacity:1"
       id="path3473"
       d="m 407.83184,420.73078 c 5.0794,1.29806 10.23357,2.5772 15.48231,2.88932 3.0447,0.0374 6.08105,-0.21691 9.11995,-0.3585 2.75661,-0.11432 5.51476,-0.10298 8.2728,-0.12989 3.08736,0.003 6.17453,-0.005 9.26189,-0.003 2.7873,-0.32588 5.5714,-0.64257 8.36912,-0.86797 1.71382,-0.12507 3.43273,-0.16166 5.15056,-0.17733 1.27941,-0.0244 2.56025,0.0286 3.83895,-0.005 2.37373,0.0156 4.74723,0.0112 7.12103,0.0149 3.22758,-0.002 6.45547,0.0123 9.68307,-0.0115 2.46508,0.0311 4.9308,-0.0363 7.39555,-0.01 1.91408,-0.017 3.82841,0.0205 5.7425,0.003 2.43242,0.0231 4.86577,-0.0336 7.29793,-0.0107 2.03042,-0.019 4.0619,0.024 6.09215,-0.005 1.44034,0.0167 2.88193,-0.0288 4.32202,-0.003 1.66713,-0.007 3.33382,0.003 5.00097,0.004 2.17727,0.008 4.35534,-0.0181 6.5326,0.003 1.88859,-0.01 3.77675,-0.002 5.66529,-0.006 1.38757,0.0165 2.77736,-0.0432 4.16408,6.7e-4 1.71009,-0.0102 3.42014,0.0121 5.13009,-0.0112 1.59394,-0.0226 3.14936,-0.0918 4.68612,0.37132 1.18426,0.29934 2.38287,0.53821 3.60311,0.60282 1.1209,0.11465 2.26838,-0.11831 3.34254,0.23584 1.36791,0.36915 2.76284,0.61663 4.1754,0.71445 1.09713,0.10943 2.2008,0.035 3.29903,0.0946 0.85948,-0.19095 1.3562,0.47712 2.12281,0.71355 1.12711,0.26666 2.28481,0.22442 3.43416,0.29194 1.30038,-0.007 2.59922,0.003 3.89918,-0.005 0.59678,0.0587 1.22745,-0.0914 1.81947,0.002 0.22867,-0.0233 0.36951,-0.0122 0.60205,-0.0114 0.85644,0.0183 1.7157,-0.0201 2.57306,0.0178 0.85019,-0.0288 1.70014,-0.0124 2.55043,-0.0161 0.61289,0.0101 1.22893,-0.0247 1.84152,9e-5 0.24046,-0.0239 0.48839,0.0117 0.72612,-0.0154 0.7497,2.04974 -8.91236,4.80865 -4.90604,1.46931 0.42187,-0.35164 0.90217,-0.62657 1.35325,-0.93985 0,0 2.00953,-0.92944 2.00953,-0.92944 l 0,0 c 0.35161,-0.0644 0.69773,-0.20967 1.05481,-0.19325 0.32227,0.0148 0.29808,0.50285 0.31815,0.65975 -2.06717,1.52574 -4.13433,3.05148 -6.20149,4.57722 -10e-4,-0.004 -0.002,-0.008 -0.004,-0.0118 -0.22445,-0.002 -0.45588,-0.0144 -0.6838,-0.0154 -0.61288,0.0223 -1.22867,-0.009 -1.84177,8e-5 -0.83549,-0.004 -1.67065,0.0132 -2.50602,-0.0161 -0.87381,0.0344 -1.74893,10e-4 -2.62189,0.0177 -0.19872,7.1e-4 -0.37509,0.0135 -0.5695,-0.0102 -0.60539,0.0684 -1.22952,-0.032 -1.83738,0.0114 -1.29169,-0.003 -2.58321,0.0149 -3.87433,-0.0432 -1.22001,-0.004 -2.4735,-0.0779 -3.63232,-0.48376 -0.66461,-0.31263 -1.15505,-0.60582 -1.92252,-0.49978 -1.12094,0.0417 -2.24851,-0.057 -3.36511,-0.1384 -1.41345,-0.18828 -2.81166,-0.41179 -4.18782,-0.79506 -1.11104,-0.0655 -2.22626,-0.0541 -3.33431,-0.14671 -1.2237,-0.16959 -2.43304,-0.36568 -3.62083,-0.7172 -1.53333,-0.25265 -3.06153,-0.23708 -4.61225,-0.2064 -1.6997,-0.024 -3.39955,-3.6e-4 -5.0994,-0.0112 -1.38756,0.0403 -2.77759,-0.0133 -4.16592,6.7e-4 -1.88278,-0.004 -3.76516,0.003 -5.64797,-0.006 -2.18043,0.021 -4.36164,-0.004 -6.54206,0.003 -1.67104,7.9e-4 -3.34163,0.011 -5.01265,0.004 -1.43741,0.0246 -2.8762,-0.0189 -4.31385,-0.003 -2.02577,-0.03 -4.05286,0.0148 -6.0788,-0.005 -2.42232,0.0222 -4.84579,-0.0336 -7.26837,-0.0107 -1.91659,-0.0183 -3.83344,0.0198 -5.75002,0.003 -2.45604,0.0258 -4.913,-0.0399 -7.36937,-0.009 -3.21691,-0.0242 -6.43411,-0.009 -9.65101,-0.0119 -2.3853,0.003 -4.77032,-10e-4 -7.15557,0.009 -1.2679,-0.04 -2.53926,0.007 -3.80782,-0.007 -1.69996,0.0167 -3.39882,0.0599 -5.0941,0.19846 -2.79344,0.19714 -5.56384,0.62658 -8.35955,0.78959 -3.08686,-4e-5 -6.17349,-0.0132 -9.26034,0.006 -2.74467,-0.005 -5.4921,0.0293 -8.23436,0.14166 -3.02079,0.14092 -6.04686,0.36285 -9.07084,0.21271 -5.28131,-0.45494 -10.43512,-1.73921 -15.57442,-2.99454 0,0 6.12378,-4.21036 6.12378,-4.21036 z"
       inkscape:connector-curvature="0" />
    <path
       style="opacity:1;fill:#280b0b;fill-opacity:1;stroke:none;stroke-width:5;stroke-miterlimit:4;stroke-dasharray:none;stroke-dashoffset:0;stroke-opacity:1"
       id="path3475"
       d="m 570.64932,370.59774 c 3.26252,3.19231 6.72652,6.15889 10.18872,9.12711 1.52773,1.19247 3.13578,2.38776 4.86888,3.27482 1.49197,0.99325 3.09456,1.76374 4.64105,2.6512 1.39007,0.74032 2.67308,1.64302 4.02884,2.42267 1.22278,0.46081 2.31713,1.15503 3.5552,1.58196 1.00045,0.35199 2.00021,0.78745 2.91044,1.34254 0.79481,0.54262 1.44663,1.18392 2.30437,1.6281 0.54894,0.52265 1.21904,0.99851 1.90635,1.32418 0.21265,0.0909 0.28567,0.2667 0.37356,0.009 0.49241,0.0988 0.71523,0.73087 0.98129,1.09532 0.31382,0.55903 -0.17992,-0.0151 0.19565,-0.0806 0.2431,0.0126 0.49314,0.004 0.73801,-0.007 0.46261,0.006 0.92388,-10e-4 1.38683,9.7e-4 0.45383,-0.0238 0.92355,0.0429 1.37545,-0.004 0.0864,0.0104 0.13163,-0.0212 0.20194,-0.0346 0.25251,0.0211 0.51882,0.0383 0.77644,0.0116 0.72202,0.0368 1.44635,0.0125 2.16988,0.0299 1.32199,0.0196 2.6208,0.48037 3.9091,0.78451 0.34221,0.16544 0.7903,0.10096 1.12161,0.27444 0.5584,0.0779 0.23448,0.82853 0.12943,1.15495 -0.0626,0.77904 -0.65354,1.58449 -1.1089,2.2233 -0.83191,1.37144 -2.09202,2.27183 -3.29943,3.27536 -1.40214,1.07661 -2.93037,1.9081 -4.2334,3.11479 -1.1984,1.2184 -2.64602,2.14497 -3.96956,3.21749 -1.06487,0.74346 -2.07311,1.55975 -3.11713,2.33086 -0.81641,0.86927 -1.77083,1.52649 -2.7658,2.1705 -17.87091,10.18994 -4.29768,2.4081 -1.67786,1.05617 0.25292,-0.13052 -0.43762,0.36516 -0.63944,0.56586 -0.50379,0.50097 -0.93436,1.01461 -1.48506,1.47043 -1.1371,0.8458 -2.25934,1.70702 -3.40611,2.53991 -0.90092,0.64334 -1.82602,1.22465 -2.52539,2.09636 -0.91157,0.91245 -1.69589,1.93304 -2.72227,2.72232 -0.90199,0.76855 -1.8743,1.44065 -2.80582,2.16431 -0.92008,0.76897 -1.77552,1.57715 -2.55441,2.49078 -1.07027,1.31068 -2.11816,2.62332 -3.24708,3.88856 -0.93614,1.07683 -2.03432,1.94863 -2.79433,3.16424 -0.3158,0.23704 -0.79625,1.23604 -1.2721,1.08788 -0.12067,0.17294 -0.17651,0.38565 -0.17071,0.59055 -6.69599,8.4504 -8.0729,3.74618 -7.29121,-0.0476 0.59969,-1.69268 0.13844,-0.78081 1.63609,-2.59259 0,0 1.70729,-0.86574 1.70729,-0.86574 l 0,0 c 1.46592,0.29376 0.99606,-0.10393 1.62755,0.87261 2.15063,3.95779 2.38582,1.25923 -5.01972,6.5811 -0.0479,0.0344 0.0286,-0.18127 -0.0601,-0.16628 0.0104,-0.32104 -0.025,-0.64438 0.0415,-0.9632 -0.0188,-0.63873 0.76428,-0.69826 1.15443,-1.21571 1.02141,-1.06844 -0.22429,0.33108 0.7229,-1.12605 0.38502,-0.5923 1.0716,-0.94378 1.54175,-1.43974 0.20662,-0.21797 0.35453,-0.48488 0.53179,-0.72732 1.2815,-1.07092 2.18511,-2.5014 3.24745,-3.76924 0.72165,-0.97955 1.56147,-2.01512 2.58583,-2.59575 0.74482,-0.96932 1.94387,-1.31946 2.71549,-2.29908 0.5925,-0.37086 1.2238,-0.70488 1.66304,-1.2679 0.13421,-0.17202 0.18633,-0.40284 0.3356,-0.56198 1.09758,-1.17008 -0.19529,0.8134 0.78003,-0.82972 1.0571,-0.58578 -0.20143,0.22011 0.64167,-0.72955 0.10294,-0.11596 0.29955,-0.11005 0.41102,-0.21783 0.47395,-0.45823 0.75885,-0.97871 1.48866,-1.15126 1.36932,-1.36383 -0.33688,0.21994 1.37106,-0.97395 0.68004,-0.47536 1.2037,-1.21442 1.9876,-1.55907 0.3389,-0.28394 0.74982,-0.47728 1.07539,-0.77642 0.12794,-0.11755 0.90981,-1.18752 1.06328,-1.28602 3.30397,-2.12063 15.69685,-9.35769 1.64165,-1.10727 0.99006,-0.70567 2.04655,-1.18805 2.87798,-2.07043 0.81198,-1.00689 2.10758,-1.54612 3.04136,-2.44095 1.79575,-1.04328 -0.50373,0.37578 1.249,-1.00365 0.91962,-0.72375 2.01559,-1.22333 2.81361,-2.10543 0.42032,-0.42397 0.775,-0.91704 1.23676,-1.29546 0.90291,-0.73995 2.07744,-1.11652 2.97934,-1.86188 1.1518,-1.02931 2.55645,-1.75641 3.3385,-3.13707 0.30634,-0.31649 0.6766,-0.73169 0.8861,-1.11467 0.15,-0.27421 0.0247,-0.64533 0.43697,-0.61459 -0.0909,-0.81893 -0.0752,-0.80071 0.4982,-0.22808 -0.38354,-0.0244 -0.74714,-0.23175 -1.13436,-0.26735 -1.23803,-0.3041 -2.47408,-0.70072 -3.76469,-0.65084 -0.75105,0.0169 -1.50245,-0.006 -2.25224,0.0299 -0.26879,-0.0333 -0.5461,-0.005 -0.8145,0.0115 -0.0335,-0.0116 -0.065,-0.0355 -0.10038,-0.0347 -0.45245,-0.003 -0.9105,-0.0178 -1.36455,-0.003 -0.46451,0.003 -0.92731,-0.004 -1.39146,0.009 -0.2686,-0.0104 -0.53735,-0.006 -0.80564,-0.0194 -0.31541,-0.093 -0.52343,-0.35784 -0.60687,-0.62854 -0.11648,-0.34591 -0.27331,-0.44663 -0.55261,-0.35835 -0.2053,-0.14628 -0.3582,-0.25524 -0.57311,-0.37858 -0.60797,-0.45314 -1.29267,-0.82364 -1.88296,-1.31195 -0.81265,-0.48873 -1.47483,-1.17243 -2.28275,-1.66998 -0.88232,-0.51833 -1.86038,-0.9379 -2.83612,-1.23597 -1.21097,-0.55104 -2.39654,-1.14716 -3.59395,-1.72674 -1.29783,-0.86852 -2.67262,-1.64102 -4.04318,-2.38442 -1.5218,-0.89416 -3.06406,-1.75263 -4.56537,-2.68317 -1.72442,-1.03711 -3.40908,-2.1354 -4.96535,-3.41826 -3.37213,-3.07724 -6.83786,-6.05469 -10.13322,-9.21849 0,0 6.73716,-4.12873 6.73716,-4.12873 z"
       inkscape:connector-curvature="0" />
    <path
       style="opacity:1;fill:#280b0b;fill-opacity:1;stroke:none;stroke-width:5;stroke-miterlimit:4;stroke-dasharray:none;stroke-dashoffset:0;stroke-opacity:1"
       id="path3477"
       d="m 411.20688,368.28907 c -3.78041,3.78678 -7.46495,7.683 -11.40983,11.30086 -2.05769,2.32696 -4.44598,4.2967 -6.78783,6.32157 -1.55959,1.24501 -3.29693,2.24848 -4.87286,3.4669 -1.12256,1.13672 -2.426,2.06554 -3.54557,3.20364 -2.94781,3.35287 -6.82088,4.83384 -10.72766,7.18021 -2.00982,1.20707 4.06747,-2.33261 6.10121,-3.49891 -21.30382,12.1882 -0.97678,0.612 -1.47686,0.89818 -2.5387,1.4528 -5.0599,2.93724 -7.62613,4.34085 -0.18313,0.10016 -0.7849,0.26725 -0.60509,0.16123 2.03515,-1.20001 8.19799,-4.69769 6.18928,-3.45392 -2.52189,1.56153 -5.1534,2.93866 -7.73011,4.40798 12.59895,-6.55423 6.05291,-4.09315 4.27276,-1.9366 -0.70003,0.87055 -1.55612,1.55641 -2.42623,2.2456 -2.88422,1.92664 -0.52454,0.36511 -8.15561,4.69621 -0.27285,0.15486 -0.57781,0.34171 -0.8842,0.36841 -0.29053,-0.0214 -0.55653,-0.18975 -0.84022,-0.24253 -0.0786,-0.0286 -0.14155,-0.0734 -0.2012,-0.12241 -4.16761,-1.70491 6.44088,-6.31525 8.27188,-3.82857 0.0817,0.11098 0.39246,1.05937 0.11776,0.29374 0.14649,-0.15211 0.47692,0.50322 0.76579,0.66839 0.53849,0.31904 0.98476,0.69807 1.5872,0.91443 0.98243,0.14663 1.84079,0.65072 2.77908,0.96634 1.34069,0.64767 2.73147,1.1297 4.04751,1.85468 1.79726,1.102 3.7944,1.72172 5.76585,2.43851 2.21369,0.61965 4.31224,1.54155 6.49715,2.24406 1.90299,0.88157 3.9747,1.45265 5.82125,2.43353 1.59926,0.56903 3.04277,1.41749 4.49526,2.28222 1.25365,0.93068 2.61518,1.68449 3.99318,2.40813 1.45755,0.69888 2.7189,1.7295 4.13492,2.50012 1.42983,1.04204 2.92503,1.97724 4.38768,2.96985 1.76654,1.08267 3.06717,2.69591 4.58478,4.07499 1.37227,1.35436 3.0026,2.43036 4.3382,3.81647 1.09186,1.16394 2.13223,2.36808 3.28823,3.47312 0.65637,0.87825 1.56478,1.31126 2.42878,1.90046 0.84651,0.36344 1.21763,1.02851 1.6535,1.78064 0.38033,0.84252 -0.21817,0.0708 0.36006,0.14043 2.76125,-0.13734 5.31092,-2.55551 -6.56931,3.56612 -0.52225,-1.40718 -0.33423,-2.82024 -0.0739,-4.25445 0,0 4.17898,-2.23936 4.17898,-2.23936 l 0,0 c 0.8415,0.94359 1.81636,1.75279 2.63206,2.71771 -4.13102,3.26341 -3.91224,5.5149 -6.91149,4.98915 -0.46255,-0.0542 -0.71722,-0.40543 -0.84056,-0.83108 -0.22242,-0.65447 -0.77141,-1.05941 -1.35534,-1.39047 -0.97868,-0.51645 -1.77496,-1.24979 -2.52137,-2.06314 -1.14001,-1.12037 -2.23415,-2.26306 -3.27568,-3.46986 -1.45283,-1.25482 -2.89795,-2.51785 -4.31915,-3.80973 -1.48133,-1.35531 -2.79198,-2.91227 -4.5256,-3.9606 -1.47407,-0.94675 -2.92185,-1.93836 -4.36379,-2.93372 -1.35202,-0.85122 -2.69097,-1.72929 -4.11536,-2.45533 -1.40815,-0.69984 -2.72619,-1.59123 -4.02845,-2.46687 -1.38765,-0.89814 -2.8882,-1.57076 -4.40109,-2.22734 -1.92482,-0.77664 -3.81259,-1.63853 -5.76002,-2.35791 -2.17588,-0.73307 -4.30107,-1.6143 -6.50527,-2.26078 -2.01263,-0.69541 -4.01617,-1.44994 -5.85415,-2.53949 -1.27534,-0.70095 -2.67603,-1.11171 -3.98911,-1.73469 -0.94165,-0.35271 -1.84834,-0.76216 -2.8221,-1.02177 -0.58059,-0.32008 -1.12422,-0.68454 -1.67969,-1.04318 -0.53251,-0.43684 -0.39323,-0.53464 -0.83001,-0.7545 -1.04954,-1.80729 -2.96883,1.01421 5.52877,-5.3315 0.0333,-0.007 0.0677,-0.0332 0.0997,-0.0216 0.19911,0.028 0.35619,0.0731 0.49303,-0.1026 0.22328,-0.19606 1.02942,-0.59413 0.77304,-0.44391 -5.70175,3.34067 -8.48084,4.8424 -5.80273,3.38932 0.35309,-0.20243 1.11734,-0.65843 1.4068,-0.9192 0.15152,-0.13652 0.18894,-0.37258 0.34206,-0.50732 0.91382,-0.80417 0.0449,0.53531 0.70068,-0.64 1.1501,-1.04166 -0.44662,0.47063 0.61314,-0.76985 0.51554,-0.60345 0.21243,-0.0218 0.82172,-0.46617 0.196,-0.14293 0.33796,-0.34809 0.50694,-0.52214 2.55353,-1.50368 5.10706,-3.00735 7.66059,-4.51103 -2.04039,1.19446 -8.20111,4.70756 -6.12117,3.58338 2.62005,-1.41611 5.15081,-2.99178 7.74227,-4.45957 0.18212,-0.10315 0.75452,-0.3597 0.57537,-0.25148 -2.07568,1.25393 -8.34062,4.95203 -6.26917,3.69114 3.93266,-2.39381 14.70448,-8.62868 1.50163,-0.95857 2.57627,-1.50015 5.13233,-3.03556 7.72881,-4.50046 2.02311,-1.14141 -3.99506,2.37153 -6.00852,3.52989 -0.29642,0.17054 0.58126,-0.36185 0.85594,-0.56556 0.76881,-0.57017 1.49811,-1.22381 2.12135,-1.94967 1.11233,-1.20168 2.38343,-2.18766 3.60489,-3.26615 0.81203,-0.96163 1.89588,-1.38028 2.90696,-2.10486 0.31359,-0.22474 0.56207,-0.53218 0.87592,-0.75656 0.34818,-0.24892 0.73509,-0.43864 1.10264,-0.65797 2.39287,-2.05121 4.90516,-3.97941 6.97487,-6.37551 3.98408,-3.57637 7.68056,-7.46278 11.46455,-11.24689 0,0 7.13833,-2.99264 7.13833,-2.99264 z"
       inkscape:connector-curvature="0" />
    <path
       style="opacity:1;fill:#280b0b;fill-opacity:1;stroke:none;stroke-width:5;stroke-miterlimit:4;stroke-dasharray:none;stroke-dashoffset:0;stroke-opacity:1"
       id="path3479"
       d="m 488.55412,455.4942 c 0.64961,5.34299 1.59324,10.64661 2.34335,15.97786 0.38309,3.08277 0.39179,6.19461 0.82017,9.27052 0.25321,2.25756 0.71587,4.45727 1.17392,6.67782 0.43255,2.49435 0.55336,5.01668 0.62871,7.54116 0.0907,2.27315 0.0595,4.54782 0.0914,6.82242 0.13527,2.17606 -0.23018,4.28131 -0.57428,6.41312 -0.07,1.22684 -0.60821,2.30745 -1.05922,3.42203 -0.16409,0.28086 -0.19351,0.63016 -0.32916,0.91069 -8.41262,3.16133 -8.0263,4.57756 -8.33602,-1.62345 -0.0817,-2.35266 0.24209,-2.81531 1.45327,-4.89185 0,0 1.11741,-0.58897 1.11741,-0.58897 l 0,0 c 2.01978,0.74571 1.79132,0.74894 2.82284,2.54752 2.8299,5.0089 3.34,2.69981 -4.43593,8.11906 0.011,-0.33732 0.19806,-0.66843 0.25994,-1.00933 0.38854,-1.11452 1.13416,-2.09506 1.17923,-3.31557 0.41365,-2.0749 0.84765,-4.16326 0.65439,-6.29149 0.0367,-2.28581 0.0243,-4.57008 0.024,-6.85599 -0.0592,-2.485 -0.12111,-4.99172 -0.53628,-7.44588 -0.38387,-2.25879 -0.87152,-4.49594 -1.04531,-6.78721 -0.44031,-3.09305 -0.4448,-6.20072 -0.78618,-9.30658 -0.53304,-5.3748 -1.58408,-10.67666 -2.21504,-16.03983 0,0 6.74885,-3.54605 6.74885,-3.54605 z"
       inkscape:connector-curvature="0" />
    <path
       style="opacity:1;fill:#280b0b;fill-opacity:1;stroke:none;stroke-width:5;stroke-miterlimit:4;stroke-dasharray:none;stroke-dashoffset:0;stroke-opacity:1"
       id="path3481"
       d="m 473.8148,464.32802 c 3.71317,-1.25806 7.38228,-2.66038 10.83767,-4.52633 0.70284,-0.37953 2.77244,-1.5879 2.07441,-1.1996 -1.61438,0.89801 -3.21573,1.81925 -4.82359,2.72887 1.56169,-1.08377 3.12559,-2.23667 4.259,-3.78508 0.38951,-0.45174 0.7599,-0.91243 1.13065,-1.38227 0.0542,-0.20658 0.15233,-0.12323 0.17466,-0.13121 -1.61988,4.37204 5.98835,-5.61554 8.54819,-3.79232 0.32416,0.23088 0.54604,0.66337 0.77347,0.98019 0.64516,0.95688 1.39598,1.85008 1.88516,2.89837 0.84336,1.27641 1.60326,2.58478 2.22047,3.98671 0.69782,1.42054 1.24441,2.91882 1.49173,4.48394 0.29327,1.31267 0.94761,2.48818 1.57125,3.66999 0.23207,0.72059 0.73179,1.22236 1.20474,1.77307 1.67176,2.45401 -5.27041,3.03861 -6.56979,3.41933 -0.26114,0.0765 -0.0502,-0.54193 -0.0753,-0.81289 0.24982,-1.05618 0.071,-0.52481 0.55998,-1.58601 0,0 3.78574,-2.00733 3.78574,-2.00733 l 0,0 c 0.73723,0.32962 0.38386,0.14136 1.06107,0.56299 2.52727,2.62473 -4.23968,5.96737 -5.74235,4.69876 -0.58163,-0.52124 -1.05906,-1.27804 -1.28119,-2.01462 -0.64925,-1.26534 -1.38588,-2.48113 -1.68483,-3.89268 -0.28933,-1.51421 -0.65721,-2.97084 -1.3725,-4.3541 -0.51569,-1.41539 -1.35002,-2.68315 -2.12546,-3.96831 -0.53012,-0.99269 -1.16922,-1.91389 -1.81769,-2.8294 -1.5905,-2.73476 -8.45742,4.47259 4.63224,-4.6206 0.0436,0.15393 -0.0205,0.25117 -0.10636,0.39313 -0.25694,0.53971 -0.65859,1.13771 -1.16368,1.44195 -1.14813,1.67301 -2.62622,2.96602 -4.28659,4.13106 -6.80927,3.98792 -13.44924,8.07967 -21.06624,10.3582 0,0 5.90512,-4.62381 5.90512,-4.62381 z"
       inkscape:connector-curvature="0" />
    <path
       style="opacity:1;fill:#280b0b;fill-opacity:1;stroke:none;stroke-width:5;stroke-miterlimit:4;stroke-dasharray:none;stroke-dashoffset:0;stroke-opacity:1"
       id="path3483"
       d="m 424.68375,534.34628 c 0.90554,5.06886 2.14322,10.0637 2.99936,15.1433 0.67031,2.89178 1.13685,5.81718 1.53677,8.75606 0.15633,2.10593 0.19734,4.21351 0.19796,6.32366 -0.10356,1.98098 -0.567,3.91374 -0.78827,5.88049 -0.17025,0.67085 -0.086,1.37876 -0.22343,2.05052 -6.42958,13.98623 -7.34907,0.26217 -7.29561,-1.28609 0.35643,-2.11226 -0.0303,-0.96037 1.57062,-3.28947 0,0 0.17598,-0.095 0.17598,-0.095 l 0,0 c 2.24436,0.2533 1.43369,-0.23697 2.65726,1.00845 1.45967,2.3375 6.17287,8.45117 -4.03978,7.14757 -0.0745,-0.69002 0.17951,-1.3905 0.15749,-2.0827 0.27995,-1.94124 0.64657,-3.86955 0.88552,-5.81626 -0.007,-2.08668 0.0325,-4.17842 -0.1616,-6.25859 -0.18203,-2.96938 -0.84945,-5.86574 -1.36962,-8.78889 -0.80101,-5.07738 -1.94701,-10.08714 -2.99692,-15.11656 0,0 6.69427,-3.57646 6.69427,-3.57646 z"
       inkscape:connector-curvature="0" />
    <path
       style="opacity:1;fill:#280b0b;fill-opacity:1;stroke:none;stroke-width:5;stroke-miterlimit:4;stroke-dasharray:none;stroke-dashoffset:0;stroke-opacity:1"
       id="path3485"
       d="m 417.50683,541.45703 c 5.99336,-3.70407 11.86392,-8.16217 18.72527,-10.06993 2.33904,-0.55881 4.58833,-0.16816 6.56803,1.16428 1.49703,1.2572 2.29242,3.07221 2.85449,4.90114 0.54263,2.0923 0.61598,4.2284 0.059,6.31787 -0.44313,2.13951 -1.69442,3.70646 -3.29979,5.10371 -1.17005,-0.8036 -6.73574,4.74594 -9.78643,5.23832 -0.54216,0.0875 -1.09821,0.048 -1.64383,0.11031 -1.14524,-0.11338 -2.21155,-0.11381 -3.32337,-0.42226 -0.25823,-0.11045 -0.65383,-0.16694 -0.82461,-0.37975 -0.86973,-0.37662 6.31721,-4.77593 8.9096,-5.77919 1.66567,-0.44774 3.41067,-0.51743 5.12737,-0.51303 1.93992,-0.16682 3.79304,-0.0438 5.62278,0.62878 1.73984,0.59246 3.18298,1.70469 4.56475,2.87941 1.38028,0.9842 2.48172,2.25787 3.39945,3.67311 0.6241,1.32466 0.8864,2.78515 0.94173,4.23994 0.0969,1.11 0.16288,2.21928 -0.15217,3.29661 -0.55629,1.29192 -1.8001,2.2411 -2.9424,3.01258 -4.86552,3.47548 -7.29319,4.59512 -12.34632,4.7916 -2.00953,-0.0179 -4.03209,0.19068 -6.0205,-0.14473 -1.64694,0.10215 -3.26382,-0.17092 -4.90272,-0.0504 -0.92596,0.1932 -1.76071,0.41843 -2.74043,0.30576 -0.53768,-0.0378 -0.37279,-0.35732 -0.48897,-0.85103 0.33818,-0.69372 0.8076,-1.12414 1.44406,-1.54778 0,0 4.23547,-1.71141 4.23547,-1.71141 l 0,0 c 0.21603,0.0253 0.32774,-0.28841 0.63194,-0.0584 -0.1565,-0.47396 0.17746,-0.45761 0.58401,-0.46543 0.93497,-0.0665 1.8196,-0.35032 2.75926,-0.37214 1.63337,0.0138 3.26933,0.10247 4.89816,0.2033 1.98581,0.14485 3.98547,0.0701 5.97435,0.0119 4.61222,-0.28365 8.38058,-2.67137 -1.37906,2.72147 1.20396,-0.61938 2.19515,-1.5536 3.15225,-2.48428 0.39329,-1.09725 0.44251,-1.90828 0.38902,-3.09153 -0.0986,-1.32948 -0.13935,-2.689 -0.75219,-3.90561 -0.79755,-1.38762 -1.91997,-2.51248 -3.15878,-3.51667 -1.36582,-1.07425 -2.7555,-2.13092 -4.4511,-2.63388 -1.74208,-0.5716 -3.51222,-0.54735 -5.3323,-0.49391 -1.68491,0.10048 -3.41573,0.0981 -4.99664,0.76995 -3.27351,1.55914 -3.8222,2.43774 3.33406,-3.02741 0.23047,0.0378 0.51568,0.11744 0.76425,0.18091 1.01787,0.21423 2.07559,0.2059 3.11309,0.23239 0.31353,-0.0432 1.27062,-0.16438 1.58113,-0.24937 2.58341,-0.70715 7.52406,-4.6003 -3.15308,2.20881 1.65502,-1.28416 3.04438,-2.66835 3.61411,-4.76167 0.66463,-1.95468 0.64233,-3.97881 0.19914,-5.98591 -0.41993,-1.6871 -1.06265,-3.37155 -2.41639,-4.53608 -1.94395,-1.07629 -3.86867,-1.43032 -6.06452,-0.80656 -1.81616,0.55408 -1.70474,0.45197 -3.53425,1.32153 -0.74052,0.35197 -2.84378,1.61429 -2.19065,1.11862 1.01209,-0.76809 2.16743,-1.32793 3.27851,-1.94421 1.64606,-0.91301 -6.27049,3.67973 -4.78617,2.99676 0,0 -6.03857,2.37352 -6.03857,2.37352 z"
       inkscape:connector-curvature="0" />
    <path
       style="opacity:1;fill:#280b0b;fill-opacity:1;stroke:none;stroke-width:5;stroke-miterlimit:4;stroke-dasharray:none;stroke-dashoffset:0;stroke-opacity:1"
       id="path3487"
       d="m 471.3703,554.23921 c -2.67601,3.31262 -5.67563,6.48529 -7.43436,10.4084 -0.43938,1.27286 -0.35627,2.56516 1.01937,3.07641 1.35104,0.4141 2.79763,0.34915 4.19632,0.33822 3.36134,-0.23474 10.8317,-4.95454 -0.43768,1.43442 2.05227,-1.16862 4.01071,-2.46356 5.55608,-4.26473 0.78223,-1.13275 1.2678,-2.52582 1.11312,-3.90913 -0.49671,-1.89979 -2.18767,-2.61785 -3.73894,-3.5512 -2.51177,-1.36376 -5.39177,-1.59628 -8.14396,-2.14667 -0.98124,0.0579 -2.00672,-0.31269 -2.97354,-0.30478 -0.55599,0.005 -1.5266,0.23989 -2.16263,0.28457 -0.25743,0.1535 -0.61941,-0.088 -0.88491,0.0412 -0.0937,0.0456 -0.2742,0.30156 -0.18078,0.25526 4.98986,-2.47318 7.26194,-5.10987 5.57356,-2.38829 0.2639,0.60797 0.91927,0.007 0.72191,1.13623 0,0 -2.18746,1.59933 -2.18746,1.59933 l 0,0 c -1.3563,0.5451 -3.41494,1.5938 -4.7675,0.53933 -1.31914,-2.65411 4.82442,-5.91891 8.04007,-5.84341 1.75507,-0.13887 3.49276,-0.12948 5.23293,0.21478 2.82647,0.57754 5.73923,0.90059 8.29446,2.36722 1.75472,1.0533 3.52963,2.03865 4.15542,4.12364 0.234,1.57019 -0.0798,3.05415 -0.82108,4.46217 -1.39811,1.99095 -3.40898,3.36397 -5.50441,4.55332 -4.33891,2.51449 -8.21821,5.67553 -13.29296,6.04174 -1.47976,-0.0451 -3.02348,-0.003 -4.38672,-0.6609 -1.501,-0.9878 -1.99642,-2.3149 -1.58831,-4.10064 1.61223,-4.04356 4.6959,-7.2635 7.36584,-10.63236 0,0 7.23616,-3.07417 7.23616,-3.07417 z"
       inkscape:connector-curvature="0" />
    <path
       style="opacity:1;fill:#280b0b;fill-opacity:1;stroke:none;stroke-width:5;stroke-miterlimit:4;stroke-dasharray:none;stroke-dashoffset:0;stroke-opacity:1"
       id="path3489"
       d="m 489.43082,541.48551 c -0.0894,4.84796 -0.0299,9.70645 0.70424,14.50752 0.30557,2.02999 0.9571,3.91857 2.00572,5.67541 0.71145,1.15851 1.74866,1.97389 2.78761,2.81408 1.15013,0.5006 2.25382,0.97275 3.48707,1.22659 1.89925,0.47933 3.64514,-0.0809 5.44753,-0.63875 0.29063,-0.097 0.58781,-0.17625 0.87189,-0.29101 0.39126,-0.15804 1.13087,-0.55447 1.51545,-0.76273 0.17345,-0.0939 0.68904,-0.38435 0.51721,-0.2875 -6.01977,3.393 -7.54015,4.64401 -5.26582,2.84104 0.75987,-0.61231 1.0435,-1.55503 1.44709,-2.4099 0.18946,-0.24575 0.37893,-0.49149 0.56839,-0.73723 0,0 3.10988,-1.62136 3.10988,-1.62136 l 0,0 c 0.21567,0.0338 0.43135,0.0676 0.64703,0.10142 0.62215,0.43282 1.38403,0.994 1.00468,1.84585 -1.81933,2.68822 -7.05744,4.84908 -10.61036,6.10721 -1.89274,0.56405 -3.78271,0.84491 -5.73254,0.33681 -1.27255,-0.33177 -2.52172,-0.80284 -3.63826,-1.50572 -1.18856,-0.79411 -2.20494,-1.87154 -2.97637,-3.07183 -1.08976,-1.85732 -1.82123,-3.80147 -2.10683,-5.95276 -0.84668,-4.81422 -0.70067,-9.75692 -0.75169,-14.62673 0,0 6.96808,-3.55041 6.96808,-3.55041 z"
       inkscape:connector-curvature="0" />
    <path
       style="opacity:1;fill:#280b0b;fill-opacity:1;stroke:none;stroke-width:5;stroke-miterlimit:4;stroke-dasharray:none;stroke-dashoffset:0;stroke-opacity:1"
       id="path3491"
       d="m 488.99854,550.26675 c 2.98636,-0.29186 1.49555,-0.16993 4.47237,-0.36657 0,0 -2.85758,2.15784 -2.85758,2.15784 l 0,0 c -4.15367,1.12762 -2.10884,0.5852 -6.13385,1.62962 0,0 4.51906,-3.42089 4.51906,-3.42089 z"
       inkscape:connector-curvature="0" />
    <path
       style="opacity:1;fill:#280b0b;fill-opacity:1;stroke:none;stroke-width:5;stroke-miterlimit:4;stroke-dasharray:none;stroke-dashoffset:0;stroke-opacity:1"
       id="path3493"
       d="m 514.41782,541.45474 c -0.0987,4.69989 -0.28888,9.44765 0.3115,14.12239 0.25961,1.84592 0.70881,3.72165 1.56225,5.39147 0.52163,0.79443 0.74391,1.82434 1.38009,2.53398 0.40675,0.3428 0.64948,0.77968 1.04848,1.12521 0.40891,0.42634 0.74974,1.00426 1.35874,1.16099 0.65289,0.18512 1.32533,0.14504 1.99507,0.14968 1.41241,0.22291 2.48775,-0.24632 3.71981,-0.84544 2.38685,-1.42187 6.57617,-3.6129 -4.51595,2.58087 -2.06959,1.15565 1.78877,-1.15131 2.1247,-1.38382 1.1285,-0.77188 1.92711,-1.88216 2.83801,-2.87814 0,0 3.38832,-1.68047 3.38832,-1.68047 l 0,0 c 1.00622,0.28229 1.19412,0.93236 0.60829,1.78513 -0.47379,0.53631 -1.0117,0.91124 -1.62946,1.28083 -3.0264,1.8106 -6.03426,3.70322 -9.16615,5.34484 -1.32452,0.58256 -2.61632,0.73035 -4.05712,0.63053 -0.73712,-0.032 -1.49903,-0.0941 -2.1591,-0.45183 -0.60213,-0.37516 -1.05395,-0.85196 -1.53385,-1.35666 -0.40439,-0.40563 -0.65211,-0.86525 -1.07699,-1.25896 -0.58061,-0.84877 -0.95311,-1.76349 -1.4458,-2.6723 -0.89335,-1.74434 -1.35121,-3.78075 -1.58591,-5.71017 -0.49108,-4.7423 -0.38915,-9.49066 -0.36533,-14.25619 0,0 7.2004,-3.61194 7.2004,-3.61194 z"
       inkscape:connector-curvature="0" />
    <path
       style="opacity:1;fill:#280b0b;fill-opacity:1;stroke:none;stroke-width:5;stroke-miterlimit:4;stroke-dasharray:none;stroke-dashoffset:0;stroke-opacity:1"
       id="path3495"
       d="m 512.74028,550.74829 c 4.50279,-0.88458 9.033,-1.61518 13.56762,-2.31391 0.68532,0.13418 2.04875,-0.675 2.66798,-0.14622 0.1241,0.11231 0.0765,0.049 0.14831,0.18568 0,0 -5.13611,3.72319 -5.13611,3.72319 l 0,0 c -0.3992,0.12665 -0.19782,0.0651 -0.60418,0.18461 -0.99667,0.35808 -2.06526,0.39787 -3.10522,0.5675 -4.51195,0.61389 -8.99646,1.40878 -13.46441,2.28595 0,0 5.92601,-4.4868 5.92601,-4.4868 z"
       inkscape:connector-curvature="0" />
    <path
       style="opacity:1;fill:#280b0b;fill-opacity:1;stroke:none;stroke-width:5;stroke-miterlimit:4;stroke-dasharray:none;stroke-dashoffset:0;stroke-opacity:1"
       id="path3497"
       d="m 536.05771,537.22995 c 1.60661,5.00395 2.97732,10.0985 3.85886,15.28248 0.49299,2.76291 0.3573,5.61126 1.1676,8.31209 0.5328,0.99655 0.62018,2.24993 1.46839,3.03913 0.18344,0.13334 0.42231,0.22774 0.61286,0.19159 -5.64993,4.26532 -7.8605,5.12189 -6.63369,0.47947 0.43605,-1.02351 0.13262,-0.51187 0.98291,-1.48946 0,0 3.08968,-1.48512 3.08968,-1.48512 l 0,0 c 0.64917,0.079 0.3597,-0.0461 0.86544,0.38201 2.78503,3.36437 1.19842,2.89164 -4.81309,6.75986 -0.37404,-0.12885 -0.71083,-0.30494 -0.99771,-0.58835 -0.92938,-0.89113 -1.11829,-2.28065 -1.64672,-3.41542 -0.86411,-2.74014 -0.75616,-5.6036 -1.17103,-8.42637 -0.90955,-5.14598 -2.07671,-10.24316 -3.77304,-15.19413 0,0 6.98954,-3.84778 6.98954,-3.84778 z"
       inkscape:connector-curvature="0" />
    <path
       style="opacity:1;fill:#280b0b;fill-opacity:1;stroke:none;stroke-width:5;stroke-miterlimit:4;stroke-dasharray:none;stroke-dashoffset:0;stroke-opacity:1"
       id="path3499"
       d="m 555.70114,555.66668 c 3.30181,3.88348 6.16658,6.9302 10.99484,8.773 2.12187,0.59744 4.40928,0.61512 6.32238,-0.54916 -16.65641,8.81435 -5.63173,4.22971 -5.26855,2.24592 0.0999,-0.5042 0.19559,-1.0067 0.31032,-1.50797 0,0 3.97319,-2.40103 3.97319,-2.40103 l 0,0 c 0.62653,0.0759 1.25295,0.14423 1.83185,0.41874 0.4195,0.30898 0.41418,0.24899 0.71791,0.75613 0.0864,0.14431 -0.0725,0.332 -0.14726,0.48266 -1.4036,2.82681 -7.41867,3.47798 -7.91451,5.19707 -2.1539,0.82877 -4.46245,0.70143 -6.61885,-0.0869 -4.74397,-1.93516 -7.9128,-5.29897 -11.24427,-9.09954 0,0 7.04295,-4.2289 7.04295,-4.2289 z"
       inkscape:connector-curvature="0" />
    <path
       style="opacity:1;fill:#280b0b;fill-opacity:1;stroke:none;stroke-width:5;stroke-miterlimit:4;stroke-dasharray:none;stroke-dashoffset:0;stroke-opacity:1"
       id="path3501"
       d="m 555.70676,557.63472 c 2.85765,-2.69173 6.60443,-4.78807 8.48585,-8.34311 0.51592,-1.41411 -0.62284,-1.74599 -1.60058,-2.41258 -1.05457,-0.37232 -2.17651,-0.5828 -3.29665,-0.47351 -0.77812,0.0838 -2.40324,-0.55451 -3.00891,-0.22216 0.44092,-0.79269 -2.05825,0.94064 -1.53238,0.65147 6.47447,-3.56025 8.20223,-5.39628 5.93261,-3.10862 -0.90162,0.89709 -1.73474,1.85437 -2.58454,2.79866 -0.95933,0.96801 -1.16819,2.32053 -1.27602,3.62436 -0.1036,1.37569 -0.0774,2.75474 -0.065,4.1326 0.0817,0.95074 0.56707,1.89689 1.21416,2.58833 0.75465,0.97261 1.44333,1.99443 2.21787,2.94869 0.80919,1.06281 1.42845,2.28839 2.33311,3.27619 0.41127,0.75245 0.87419,1.33189 1.60926,1.76788 0.34161,0.29514 0.58487,0.83252 1.07437,0.89465 1.6588,-2.05628 -0.15677,0.24931 -6.09199,3.09176 -0.34461,0.16504 0.59435,-0.48038 0.88827,-0.72453 0.74703,-0.62055 1.46917,-1.26896 2.19364,-1.91541 1.38584,-1.44904 2.78719,-2.78755 4.41658,-3.95892 0,0 1.75463,-0.80145 1.75463,-0.80145 l 0,0 c 0.36401,-0.0161 0.74559,-0.16129 1.09202,-0.0484 0.50124,0.16338 -0.26968,1.73879 -0.34701,1.93735 -2.49162,3.02963 -7.56095,8.02112 -10.94755,7.09897 -0.45544,-0.29258 -0.82353,-0.66957 -1.22294,-0.97412 -0.72093,-0.53471 -1.27147,-1.20751 -1.7211,-1.98214 -0.82341,-1.07296 -1.52654,-2.21961 -2.34385,-3.29585 -0.74789,-0.96337 -1.3784,-2.01791 -2.17437,-2.95071 -0.72104,-0.9515 -1.22912,-1.92703 -1.50094,-3.09778 -10e-4,-1.40903 0.0101,-2.81874 0.073,-4.22645 0.13813,-1.42301 0.19961,-2.91126 1.03964,-4.12877 0.90913,-0.94096 1.6354,-1.98935 2.64189,-2.78543 2.32322,-3.07864 6.20116,-5.5084 10.02041,-5.77902 1.00294,0.18436 1.99866,0.32339 3.02243,0.32851 1.21255,0.14051 2.40586,0.20958 3.45361,0.9198 1.3228,0.79204 2.53488,1.74122 2.14899,3.46909 -1.7579,3.78316 -5.49105,5.98834 -8.49813,8.71557 0,0 -7.40042,2.98505 -7.40042,2.98505 z"
       inkscape:connector-curvature="0" />
    <path
       style="opacity:1;fill:#280b0b;fill-opacity:1;stroke:none;stroke-width:5;stroke-miterlimit:4;stroke-dasharray:none;stroke-dashoffset:0;stroke-opacity:1"
       id="path3503"
       d="m 584.04891,547.21905 c 1.38702,4.6197 3.00432,9.20203 3.89849,13.95093 0.49475,1.30214 0.64469,2.86824 1.43948,4.04757 0.91057,1.34337 -4.92313,2.3958 -7.00585,3.06756 -0.23285,0.0751 0.002,-0.48979 -0.015,-0.73384 -0.017,-0.23979 -0.0586,-0.47721 -0.0879,-0.71581 -0.32945,-1.74429 -0.8955,-3.43789 -1.37498,-5.14735 -0.61007,-1.71287 -1.19791,-3.45348 -1.2662,-5.28156 0.005,-1.8669 0.72467,-3.35824 1.67615,-4.90542 1.16737,-1.53703 2.47543,-2.93286 3.99952,-4.11602 3.49635,-2.59129 7.16345,-5.43158 11.43398,-6.44896 0.59926,-0.11796 1.206,-0.0959 1.8071,-0.0159 0.97948,0.44855 1.61562,1.32328 2.28589,2.14004 1.16392,1.26771 1.48062,2.87595 1.65314,4.52942 0.0927,1.90485 0.30346,3.76652 0.62931,5.64381 0.54257,1.93063 0.98125,3.88603 1.57174,5.80238 0.42746,1.15251 0.76876,2.32843 0.96231,3.54227 0.52889,3.76094 -2.52869,2.4458 -7.71724,4.63321 -1.1048,-1.14746 -0.81029,-2.28807 0.24283,-3.31754 0.40432,-0.23283 0.80864,-0.46567 1.21295,-0.6985 0,0 2.18335,-0.94457 2.18335,-0.94457 l 0,0 c 0.30598,-0.0978 0.61197,-0.19552 0.91795,-0.29328 0.6585,0.16984 1.0685,1.02294 1.83179,1.05927 -2.09821,1.34025 -4.26025,2.58546 -6.29461,4.02076 -0.0945,0.0667 0.12892,0.2169 0.23938,0.25137 0.24622,0.0768 -0.33958,-0.83689 -0.0909,-0.76845 -0.14611,-1.18107 -0.45526,-2.31999 -0.79667,-3.46104 -0.68371,-1.9313 -1.02887,-3.94602 -1.66213,-5.8943 -0.3296,-1.90214 -0.63845,-3.78122 -0.58547,-5.72054 -0.19098,-1.50201 -0.32265,-2.98396 -1.37309,-4.16359 -0.46863,-0.62348 -0.99491,-1.48338 -1.8286,-1.61384 -0.55648,0.002 -1.09251,0.0261 -1.62382,0.22815 -2.59299,0.91196 -5.61481,3.03637 4.71576,-3.04089 0.22765,-0.13391 -0.44796,0.27998 -0.6693,0.42407 -0.95892,0.62419 -0.62556,0.39044 -1.50916,1.12838 -1.60336,1.05687 -2.85561,2.40431 -4.10758,3.84353 -0.97634,1.35795 -1.83674,2.72352 -1.83901,4.45769 -0.0928,1.78718 0.56139,3.44682 1.16696,5.10235 0.39641,1.76227 1.07625,3.43711 1.4171,5.21233 0.67978,3.76147 -3.64762,10.49335 -7.20271,6.25951 -0.58773,-1.40408 -1.1488,-2.81173 -1.41301,-4.32555 -1.03068,-4.69152 -2.26477,-9.3268 -3.84401,-13.86801 0,0 7.02209,-3.86965 7.02209,-3.86965 z"
       inkscape:connector-curvature="0" />
    <path
       style="opacity:1;fill:#280b0b;fill-opacity:1;stroke:none;stroke-width:5;stroke-miterlimit:4;stroke-dasharray:none;stroke-dashoffset:0;stroke-opacity:1"
       id="path3505"
       d="m 615.67066,552.24524 c 2.77215,-1.32726 5.7423,-2.27085 8.4839,-3.66278 0.40523,-0.20574 1.56183,-0.92899 1.16105,-0.71472 -1.96373,1.04986 -3.9011,2.14829 -5.85165,3.22244 1.04614,-0.81005 0.8649,-1.50511 -0.0236,-2.30529 -0.85024,-0.81194 -2.08415,-1.46464 -3.27744,-1.45628 -0.39077,-0.0724 -1.60089,-0.37653 -1.97721,-0.25571 -0.1392,0.0447 -0.19218,0.22036 -0.28827,0.33053 -0.17168,0.0437 -0.34336,0.0873 -0.51504,0.13093 -2.17958,1.46202 -6.04864,3.11251 5.36239,-2.97955 0.97237,-0.51912 -1.12052,0.91546 -1.72851,1.55456 -1.32499,1.61854 -2.41237,3.37517 -3.27644,5.27728 -0.67441,1.64995 -1.47724,3.23939 -1.83399,4.99534 -0.33262,1.24716 -0.11041,2.33726 0.36778,3.50096 0.63747,1.23489 1.68671,2.13414 2.70318,3.04532 1.52383,1.30735 3.26834,2.16717 5.21075,2.6293 1.59608,0.0545 3.36778,0.66577 4.97018,0.36145 0.45007,-0.0855 0.86696,-0.29643 1.30043,-0.44465 2.70855,-1.01592 8.13599,-4.20921 -3.52662,2.27881 -0.89354,0.49709 1.22288,-0.82995 2.0096,-1.56318 0.68157,-0.56368 1.16979,-1.24936 1.65563,-1.98712 0,0 3.42311,-2.10938 3.42311,-2.10938 l 0,0 c 0.56744,-0.0128 2.48885,-0.049 1.95561,1.08242 -0.33655,0.70775 -0.72914,1.21062 -1.42273,1.62458 -3.49521,2.08604 -6.83579,4.51675 -10.73085,5.75347 -2.14825,0.37794 -4.34765,0.21653 -6.47286,-0.29394 -2.0464,-0.59651 -3.84227,-1.52326 -5.46253,-2.93176 -1.09367,-0.97375 -2.2241,-1.96445 -2.84102,-3.3219 -0.70562,-1.19513 -0.87194,-2.61537 -0.65684,-3.97922 0.35952,-1.82432 0.98367,-3.53106 1.86648,-5.17202 0.67848,-2.04849 1.8677,-3.78484 3.15634,-5.4932 2.24585,-3.33059 6.97391,-5.22623 10.43772,-6.82147 0.94536,-0.34127 1.91462,-0.0349 2.86087,0.17255 1.32729,0.36998 2.50966,0.93813 3.49485,1.93463 0.88074,0.99011 1.70662,2.4077 0.50948,3.49521 -2.47971,1.5377 -4.94575,3.09767 -7.43913,4.6131 -3.0012,1.82406 -6.55466,2.63175 -9.65116,4.26953 0,0 6.04654,-4.78024 6.04654,-4.78024 z"
       inkscape:connector-curvature="0" />
    <path
       style="opacity:1;fill:#280b0b;fill-opacity:1;stroke:none;stroke-width:5;stroke-miterlimit:4;stroke-dasharray:none;stroke-dashoffset:0;stroke-opacity:1"
       id="path3507"
       d="m 646.56318,547.17931 c -2.62031,3.25173 -5.73289,6.36504 -7.17895,10.36185 -0.3176,2.17312 0.41707,2.98086 2.15377,4.03655 1.42644,0.94986 3.15582,1.20094 4.78589,1.64051 1.9134,0.54569 3.87964,0.37466 5.77162,-0.16096 1.89094,-0.40781 3.51708,-1.47836 5.21716,-2.34501 -11.94943,6.52745 -6.10701,4.50514 -4.82906,1.73583 0.14933,-0.8368 0.31829,-1.66279 0.57149,-2.4785 0.32358,-1.5714 1.2131,-2.26929 2.41136,-3.32107 0,0 1.05587,-0.53901 1.05587,-0.53901 l 0,0 c 1.3385,-0.19665 1.91764,-0.45337 2.47699,0.79822 0.36996,0.61149 0.64492,1.22785 0.74071,1.944 0.65002,3.81308 -10.31842,6.54818 -8.91046,7.05786 -1.72545,0.89271 -3.43142,1.84012 -5.36932,2.19751 -1.99937,0.34111 -3.99214,0.42827 -5.94866,-0.21102 -1.70979,-0.47022 -3.472,-0.8104 -4.96373,-1.8352 -1.81025,-1.27299 -2.85674,-2.67399 -2.62319,-5.00718 1.19397,-4.16407 4.44888,-7.3045 7.041,-10.64758 0,0 7.59751,-3.2268 7.59751,-3.2268 z"
       inkscape:connector-curvature="0" />
    <path
       style="opacity:1;fill:#280b0b;fill-opacity:1;stroke:none;stroke-width:5;stroke-miterlimit:4;stroke-dasharray:none;stroke-dashoffset:0;stroke-opacity:1"
       id="path3509"
       d="m 660.98399,524.32133 c 1.32483,5.54201 2.29471,11.1382 3.09768,16.7742 0.39575,2.73423 0.49985,5.49738 0.58098,8.25562 -0.003,1.53085 -0.0625,3.06807 -0.0217,4.59733 0.10739,1.12724 -0.0888,2.21199 -0.5779,3.22839 -1.20982,2.27312 -6.65444,6.01164 -7.20774,2.45087 0.13247,-0.29963 0.26495,-0.59927 0.39742,-0.89891 0,0 2.58295,-1.43138 2.58295,-1.43138 l 0,0 c 0.25019,0.0249 0.50038,0.0497 0.75057,0.0746 4.29027,1.26884 -5.91666,5.25947 -3.94573,3.14533 0.52256,-0.90081 0.73911,-1.77826 0.6541,-2.83142 0.0576,-1.52256 0.031,-3.05513 0.0143,-4.57922 0.029,-2.75781 -0.0795,-5.50702 -0.3801,-8.25104 -0.63952,-5.61229 -1.70673,-11.19235 -3.09632,-16.66539 0,0 7.15153,-3.869 7.15153,-3.869 z"
       inkscape:connector-curvature="0" />
    <path
       style="opacity:1;fill:#280b0b;fill-opacity:1;stroke:none;stroke-width:5;stroke-miterlimit:4;stroke-dasharray:none;stroke-dashoffset:0;stroke-opacity:1"
       id="path3511"
       d="m 663.95965,549.84038 c 4.39576,1.76704 8.82485,3.4343 13.10286,5.47676 1.71834,0.79656 3.23829,1.87952 4.69942,3.06538 0.21181,0.30701 0.67471,0.50329 0.73432,0.88448 0.497,3.26695 -7.48126,6.48263 -7.18159,2.17526 0.10447,-0.50019 0.004,-0.23678 0.37627,-0.75802 0,0 3.40743,-2.14652 3.40743,-2.14652 l 0,0 c 0.82511,-0.18706 0.43936,-0.16746 1.15289,-0.11619 4.7737,1.30639 -5.50932,2.0031 -4.77462,4.99566 -0.30754,-0.0204 -0.47237,-0.53818 -0.78257,-0.63535 -1.30703,-1.22292 -2.86923,-2.11548 -4.43038,-2.976 -4.23571,-2.04869 -8.58806,-3.83044 -12.97871,-5.51709 0,0 6.67468,-4.44837 6.67468,-4.44837 z"
       inkscape:connector-curvature="0" />
    <path
       style="opacity:1;fill:#280b0b;fill-opacity:1;stroke:none;stroke-width:5;stroke-miterlimit:4;stroke-dasharray:none;stroke-dashoffset:0;stroke-opacity:1"
       id="path3513"
       d="m 657.67302,555.5266 c 3.58283,-3.53541 7.05201,-7.18638 10.79274,-10.5568 3.7389,-3.17948 8.02129,-5.32654 12.29691,-7.75122 -12.76884,12.56111 -7.21372,3.60887 -5.36413,2.84025 0.14856,-0.0617 0.13451,0.0465 0.18507,0.16066 0.0862,0.21141 0.26711,0.40714 0.2373,0.63165 0.0158,-0.004 0.0315,-0.008 0.0473,-0.0113 1.62518,-0.95205 3.25036,-1.90411 4.87554,-2.85616 0,0 -4.54498,1.93067 -4.54498,1.93067 l 0,0 c 1.96766,-1.36244 3.93533,-2.72488 5.90299,-4.08732 0.0245,-0.008 0.0491,-0.0169 0.0736,-0.0254 0.25763,0.15805 0.44528,0.29311 0.57565,0.61215 1.13383,3.25866 -16.4664,3.8744 -8.26876,5.80983 12.48208,-7.37915 3.88116,-2.40166 1.33633,-0.24729 -3.83247,3.33542 -7.36329,6.98009 -10.95409,10.57162 0,0 -7.19152,2.97865 -7.19152,2.97865 z"
       inkscape:connector-curvature="0" />
  </g>
</svg>
