<?xml version="1.0" encoding="utf-8" standalone="no"?>
<!DOCTYPE svg PUBLIC "-//W3C//DTD SVG 1.1//EN"
  "http://www.w3.org/Graphics/SVG/1.1/DTD/svg11.dtd">
<!-- Created with matplotlib (http://matplotlib.org/) -->
<svg height="360pt" version="1.1" viewBox="0 0 720 360" width="720pt" xmlns="http://www.w3.org/2000/svg" xmlns:xlink="http://www.w3.org/1999/xlink">
 <defs>
  <style type="text/css">
*{stroke-linecap:butt;stroke-linejoin:round;}
  </style>
 </defs>
 <g id="figure_1">
  <g id="patch_1">
   <path d="M 0 360 
L 720 360 
L 720 0 
L 0 0 
z
" style="fill:none;"/>
  </g>
  <g id="axes_1">
   <g id="matplotlib.axis_1">
    <g id="xtick_1"/>
    <g id="xtick_2"/>
    <g id="xtick_3"/>
    <g id="text_1">
     <!-- $x$ -->
     <defs>
      <path d="M 47.40625 40.71875 
C 44.203125 40.109375 43 37.71875 43 35.828125 
C 43 33.421875 44.90625 32.625 46.296875 32.625 
C 49.296875 32.625 51.40625 35.21875 51.40625 37.921875 
C 51.40625 42.109375 46.59375 44 42.40625 44 
C 36.296875 44 32.90625 38.015625 32 36.125 
C 29.703125 44 23.5 44 21.703125 44 
C 11.5 44 6.09375 30.9375 6.09375 28.734375 
C 6.09375 28.34375 6.5 27.84375 7.203125 27.84375 
C 8 27.84375 8.203125 28.4375 8.40625 28.84375 
C 11.796875 39.921875 18.5 42.015625 21.40625 42.015625 
C 25.90625 42.015625 26.796875 37.8125 26.796875 35.421875 
C 26.796875 33.234375 26.203125 30.9375 25 26.140625 
L 21.59375 12.46875 
C 20.09375 6.484375 17.203125 1 11.90625 1 
C 11.40625 1 8.90625 1 6.796875 2.296875 
C 10.40625 3 11.203125 5.984375 11.203125 7.1875 
C 11.203125 9.1875 9.703125 10.375 7.796875 10.375 
C 5.40625 10.375 2.796875 8.28125 2.796875 5.09375 
C 2.796875 0.890625 7.5 -1 11.796875 -1 
C 16.59375 -1 20 2.796875 22.09375 6.890625 
C 23.703125 1 28.703125 -1 32.40625 -1 
C 42.59375 -1 48 12.078125 48 14.265625 
C 48 14.765625 47.59375 15.171875 47 15.171875 
C 46.09375 15.171875 46 14.671875 45.703125 13.875 
C 43 5.09375 37.203125 1 32.703125 1 
C 29.203125 1 27.296875 3.59375 27.296875 7.6875 
C 27.296875 9.875 27.703125 11.46875 29.296875 18.0625 
L 32.796875 31.625 
C 34.296875 37.625 37.703125 42.015625 42.296875 42.015625 
C 42.5 42.015625 45.296875 42.015625 47.40625 40.71875 
z
" id="CMMI12-120"/>
     </defs>
     <g transform="translate(163.743715 210.256305)scale(0.3 -0.3)">
      <use transform="scale(0.996264)" xlink:href="#CMMI12-120"/>
     </g>
    </g>
   </g>
   <g id="matplotlib.axis_2">
    <g id="ytick_1"/>
    <g id="ytick_2"/>
    <g id="ytick_3"/>
   </g>
   <g id="line2d_1">
    <path clip-path="url(#p0e6d2710c1)" d="M 101.722689 179.1 
L 103.129412 179.1 
L 104.536134 179.1 
L 105.942857 179.1 
L 107.34958 179.1 
L 108.756303 179.1 
L 110.163025 179.1 
L 111.569748 179.1 
L 112.976471 179.1 
L 114.383193 179.1 
L 115.789916 179.1 
L 117.196639 179.1 
L 118.603361 179.1 
L 120.010084 179.1 
L 121.416807 179.1 
L 122.823529 179.1 
L 124.230252 179.1 
L 125.636975 179.1 
L 127.043697 179.1 
L 128.45042 179.1 
L 129.857143 179.1 
L 131.263866 179.1 
L 132.670588 179.1 
L 134.077311 179.1 
L 135.484034 179.1 
L 136.890756 179.1 
L 138.297479 179.1 
L 139.704202 179.1 
L 141.110924 179.1 
L 142.517647 179.1 
L 143.92437 179.1 
L 145.331092 179.1 
L 146.737815 179.1 
L 148.144538 179.1 
L 149.551261 179.1 
L 150.957983 179.1 
L 152.364706 179.1 
L 153.771429 179.1 
L 155.178151 179.1 
L 156.584874 179.1 
L 157.991597 179.1 
L 159.398319 179.1 
L 160.805042 179.1 
L 162.211765 179.1 
L 163.618487 179.1 
L 165.02521 179.1 
L 166.431933 179.1 
L 167.838655 179.1 
L 169.245378 179.1 
L 170.652101 179.1 
L 172.058824 179.1 
L 173.465546 179.1 
L 174.872269 179.1 
L 176.278992 179.1 
L 177.685714 179.1 
L 179.092437 179.1 
L 180.49916 179.1 
L 181.905882 179.1 
L 183.312605 179.1 
L 184.719328 179.1 
L 186.12605 179.1 
L 187.532773 179.1 
L 188.939496 179.1 
L 190.346218 179.1 
L 191.752941 179.1 
L 193.159664 179.1 
L 194.566387 179.1 
L 195.973109 179.1 
L 197.379832 179.1 
L 198.786555 179.1 
L 200.193277 179.1 
L 201.6 179.1 
L 203.006723 179.1 
L 204.413445 179.1 
L 205.820168 179.1 
L 207.226891 179.1 
L 208.633613 179.1 
L 210.040336 179.1 
L 211.447059 179.1 
L 212.853782 179.1 
L 214.260504 179.1 
L 215.667227 179.1 
L 217.07395 179.1 
L 218.480672 179.1 
L 219.887395 179.1 
L 221.294118 179.1 
L 222.70084 179.1 
L 224.107563 179.1 
L 225.514286 179.1 
L 226.921008 179.1 
L 228.327731 179.1 
L 229.734454 179.1 
L 231.141176 179.1 
L 232.547899 179.1 
L 233.954622 179.1 
L 235.361345 179.1 
L 236.768067 179.1 
L 238.17479 179.1 
L 239.581513 179.1 
L 240.988235 179.1 
L 242.394958 179.1 
" style="fill:none;stroke:#ff0000;stroke-linecap:square;stroke-width:3;"/>
   </g>
   <g id="line2d_2">
    <defs>
     <path d="M 0 5 
C 1.326016 5 2.597899 4.473168 3.535534 3.535534 
C 4.473168 2.597899 5 1.326016 5 0 
C 5 -1.326016 4.473168 -2.597899 3.535534 -3.535534 
C 2.597899 -4.473168 1.326016 -5 0 -5 
C -1.326016 -5 -2.597899 -4.473168 -3.535534 -3.535534 
C -4.473168 -2.597899 -5 -1.326016 -5 0 
C -5 1.326016 -4.473168 2.597899 -3.535534 3.535534 
C -2.597899 4.473168 -1.326016 5 0 5 
z
" id="m57074ca4f7" style="stroke:#0000ff;"/>
    </defs>
    <g clip-path="url(#p0e6d2710c1)">
     <use style="fill:#0000ff;stroke:#0000ff;" x="101.722689" xlink:href="#m57074ca4f7" y="179.1"/>
     <use style="fill:#0000ff;stroke:#0000ff;" x="115.789916" xlink:href="#m57074ca4f7" y="179.1"/>
     <use style="fill:#0000ff;stroke:#0000ff;" x="129.857143" xlink:href="#m57074ca4f7" y="179.1"/>
     <use style="fill:#0000ff;stroke:#0000ff;" x="143.92437" xlink:href="#m57074ca4f7" y="179.1"/>
     <use style="fill:#0000ff;stroke:#0000ff;" x="157.991597" xlink:href="#m57074ca4f7" y="179.1"/>
     <use style="fill:#0000ff;stroke:#0000ff;" x="172.058824" xlink:href="#m57074ca4f7" y="179.1"/>
     <use style="fill:#0000ff;stroke:#0000ff;" x="186.12605" xlink:href="#m57074ca4f7" y="179.1"/>
     <use style="fill:#0000ff;stroke:#0000ff;" x="200.193277" xlink:href="#m57074ca4f7" y="179.1"/>
     <use style="fill:#0000ff;stroke:#0000ff;" x="214.260504" xlink:href="#m57074ca4f7" y="179.1"/>
     <use style="fill:#0000ff;stroke:#0000ff;" x="228.327731" xlink:href="#m57074ca4f7" y="179.1"/>
     <use style="fill:#0000ff;stroke:#0000ff;" x="242.394958" xlink:href="#m57074ca4f7" y="179.1"/>
    </g>
   </g>
  </g>
  <g id="axes_2">
   <g id="text_2">
    <!-- $y_1 = f_1(x)$ -->
    <defs>
     <path d="M 26.296875 -10.9375 
C 23.59375 -14.671875 19.703125 -18 14.796875 -18 
C 13.59375 -18 8.796875 -18 7.296875 -13.890625 
C 7.59375 -13.984375 8.09375 -13.984375 8.296875 -13.984375 
C 11.296875 -13.984375 13.296875 -11.390625 13.296875 -9.09375 
C 13.296875 -6.796875 11.40625 -6 9.90625 -6 
C 8.296875 -6 4.796875 -7.15625 4.796875 -11.859375 
C 4.796875 -16.734375 9.09375 -20.09375 14.796875 -20.09375 
C 24.796875 -20.09375 34.90625 -10.9375 37.703125 0.09375 
L 47.5 38.828125 
C 47.59375 39.328125 47.796875 39.9375 47.796875 40.53125 
C 47.796875 42.015625 46.59375 43.015625 45.09375 43.015625 
C 44.203125 43.015625 42.09375 42.609375 41.296875 39.609375 
L 33.90625 10.28125 
C 33.40625 8.484375 33.40625 8.28125 32.59375 7.1875 
C 30.59375 4.390625 27.296875 1 22.5 1 
C 16.90625 1 16.40625 6.484375 16.40625 9.1875 
C 16.40625 14.875 19.09375 22.546875 21.796875 29.734375 
C 22.90625 32.625 23.5 34.03125 23.5 36.015625 
C 23.5 40.21875 20.5 44 15.59375 44 
C 6.40625 44 2.703125 29.53125 2.703125 28.734375 
C 2.703125 28.34375 3.09375 27.84375 3.796875 27.84375 
C 4.703125 27.84375 4.796875 28.234375 5.203125 29.640625 
C 7.59375 38.015625 11.40625 42.015625 15.296875 42.015625 
C 16.203125 42.015625 17.90625 42.015625 17.90625 38.71875 
C 17.90625 36.125 16.796875 33.234375 15.296875 29.4375 
C 10.40625 16.359375 10.40625 13.078125 10.40625 10.671875 
C 10.40625 1.203125 17.203125 -1 22.203125 -1 
C 25.09375 -1 28.703125 -0.09375 32.203125 3.59375 
L 32.296875 3.5 
C 30.796875 -2.296875 29.796875 -6.125 26.296875 -10.9375 
z
" id="CMMI12-121"/>
     <path d="M 26.59375 63.40625 
C 26.59375 65.5 26.5 65.5 25.09375 65.5 
C 21.203125 61.1875 15.296875 59.796875 9.703125 59.796875 
C 9.40625 59.796875 8.90625 59.796875 8.796875 59.5 
C 8.703125 59.296875 8.703125 59.09375 8.703125 57 
C 11.796875 57 17 57.59375 21 59.984375 
L 21 7.203125 
C 21 3.6875 20.796875 2.5 12.203125 2.5 
L 9.203125 2.5 
L 9.203125 0 
C 14 0 19 0 23.796875 0 
C 28.59375 0 33.59375 0 38.40625 0 
L 38.40625 2.5 
L 35.40625 2.5 
C 26.796875 2.5 26.59375 3.59375 26.59375 7.15625 
z
" id="CMR17-49"/>
     <path d="M 64.296875 31.515625 
C 65.796875 31.515625 67.296875 31.515625 67.296875 33.203125 
C 67.296875 35 65.59375 35 63.90625 35 
L 8 35 
C 6.296875 35 4.59375 35 4.59375 33.203125 
C 4.59375 31.515625 6.09375 31.515625 7.59375 31.515625 
z
M 63.90625 14 
C 65.59375 14 67.296875 14 67.296875 15.796875 
C 67.296875 17.484375 65.796875 17.484375 64.296875 17.484375 
L 7.59375 17.484375 
C 6.09375 17.484375 4.59375 17.484375 4.59375 15.796875 
C 4.59375 14 6.296875 14 8 14 
z
" id="CMR17-61"/>
     <path d="M 44.59375 40.09375 
C 46.59375 40.09375 47.40625 40.09375 47.40625 42 
C 47.40625 43 46.59375 43 44.796875 43 
L 36.703125 43 
C 38.59375 53.578125 40 60.890625 40.796875 64.171875 
C 41.40625 66.640625 43.5 69 46.09375 69 
C 48.203125 69 50.296875 68.09375 51.296875 67.15625 
C 47.40625 66.75 46.203125 63.78125 46.203125 62.015625 
C 46.203125 59.953125 47.703125 58.734375 49.59375 58.734375 
C 51.59375 58.734375 54.59375 60.46875 54.59375 64.359375 
C 54.59375 68.640625 50.40625 71 46 71 
C 41.703125 71 37.5 67.71875 35.5 63.71875 
C 33.703125 60.125 32.703125 56.421875 30.40625 43 
L 23.703125 43 
C 21.796875 43 20.796875 43 20.796875 41.203125 
C 20.796875 40.09375 21.40625 40.09375 23.40625 40.09375 
L 29.796875 40.09375 
C 28 30.875 23.90625 8.46875 21.59375 -2.140625 
C 19.90625 -10.765625 18.40625 -18 13.40625 -18 
C 13.09375 -18 10.203125 -18 8.40625 -16.109375 
C 13.5 -15.703125 13.5 -11.34375 13.5 -11.25 
C 13.5 -9.265625 12 -8.078125 10.09375 -8.078125 
C 8.09375 -8.078125 5.09375 -9.765625 5.09375 -13.546875 
C 5.09375 -17.8125 9.5 -20 13.40625 -20 
C 23.59375 -20 27.796875 -1.84375 28.90625 3.109375 
C 30.703125 10.75 35.59375 37.125 36.09375 40.09375 
z
" id="CMMI12-102"/>
     <path d="M 30.59375 -24.390625 
C 30.59375 -24.296875 30.59375 -24.09375 30.296875 -23.796875 
C 25.703125 -19.125 13.40625 -6.359375 13.40625 24.703125 
C 13.40625 55.765625 25.5 68.421875 30.40625 73.390625 
C 30.40625 73.5 30.59375 73.703125 30.59375 74 
C 30.59375 74.296875 30.296875 74.5 29.90625 74.5 
C 28.796875 74.5 20.296875 67.125 15.40625 56.15625 
C 10.40625 45.109375 9 34.359375 9 24.8125 
C 9 17.625 9.703125 5.484375 15.703125 -7.359375 
C 20.5 -17.734375 28.703125 -25 29.90625 -25 
C 30.40625 -25 30.59375 -24.796875 30.59375 -24.390625 
z
" id="CMR17-40"/>
     <path d="M 26.296875 24.703125 
C 26.296875 31.875 25.59375 44.015625 19.59375 56.859375 
C 14.796875 67.234375 6.59375 74.5 5.40625 74.5 
C 5.09375 74.5 4.703125 74.390625 4.703125 73.890625 
C 4.703125 73.703125 4.796875 73.59375 4.90625 73.390625 
C 9.703125 68.40625 21.90625 55.75 21.90625 24.75 
C 21.90625 -6.359375 9.796875 -19.015625 4.90625 -24.015625 
C 4.796875 -24.203125 4.703125 -24.3125 4.703125 -24.5 
C 4.703125 -25 5.09375 -25 5.40625 -25 
C 6.5 -25 15 -17.625 19.90625 -6.65625 
C 24.90625 4.390625 26.296875 15.140625 26.296875 24.703125 
z
" id="CMR17-41"/>
    </defs>
    <g transform="translate(297.601107 126)scale(0.3 -0.3)">
     <use transform="translate(0 14.943915)scale(0.996264)" xlink:href="#CMMI12-121"/>
     <use transform="translate(47.564188 0)scale(0.697382)" xlink:href="#CMR17-49"/>
     <use transform="translate(107.719511 14.943915)scale(0.996264)" xlink:href="#CMR17-61"/>
     <use transform="translate(207.108308 14.943915)scale(0.996264)" xlink:href="#CMMI12-102"/>
     <use transform="translate(255.191545 0)scale(0.697382)" xlink:href="#CMR17-49"/>
     <use transform="translate(287.672859 14.943915)scale(0.996264)" xlink:href="#CMR17-40"/>
     <use transform="translate(322.953627 14.943915)scale(0.996264)" xlink:href="#CMMI12-120"/>
     <use transform="translate(378.387687 14.943915)scale(0.996264)" xlink:href="#CMR17-41"/>
    </g>
   </g>
   <g id="text_3">
    <!-- $\longrightarrow$ -->
    <defs>
     <path d="M 65.90625 23 
C 67.59375 23 69.40625 23 69.40625 25 
C 69.40625 27 67.59375 27 65.90625 27 
L 11.796875 27 
C 10.09375 27 8.296875 27 8.296875 25 
C 8.296875 23 10.09375 23 11.796875 23 
z
" id="CMSY10-0"/>
     <path d="M 83.40625 23 
C 77.90625 18.796875 75.203125 14.703125 74.40625 13.40625 
C 69.90625 6.5 69.09375 0.203125 69.09375 0.09375 
C 69.09375 -1.09375 70.296875 -1.09375 71.09375 -1.09375 
C 72.796875 -1.09375 72.90625 -0.90625 73.296875 0.90625 
C 75.59375 10.703125 81.5 19.09375 92.796875 23.703125 
C 94 24.09375 94.296875 24.296875 94.296875 25 
C 94.296875 25.703125 93.703125 26 93.5 26.09375 
C 89.09375 27.796875 77 32.796875 73.203125 49.59375 
C 72.90625 50.796875 72.796875 51.09375 71.09375 51.09375 
C 70.296875 51.09375 69.09375 51.09375 69.09375 49.890625 
C 69.09375 49.6875 70 43.390625 74.203125 36.703125 
C 76.203125 33.703125 79.09375 30.203125 83.40625 27 
L 9.09375 27 
C 7.296875 27 5.5 27 5.5 25 
C 5.5 23 7.296875 23 9.09375 23 
z
" id="CMSY10-33"/>
    </defs>
    <g transform="translate(327.898039 180)scale(0.4 -0.4)">
     <use transform="scale(0.996264)" xlink:href="#CMSY10-0"/>
     <use transform="translate(60.883062 0)scale(0.996264)" xlink:href="#CMSY10-33"/>
    </g>
   </g>
   <g id="text_4">
    <!-- $y_2 = f_2(x)$ -->
    <defs>
     <path d="M 41.703125 15.453125 
L 39.90625 15.453125 
C 38.90625 8.375 38.09375 7.171875 37.703125 6.5625 
C 37.203125 5.765625 30 5.765625 28.59375 5.765625 
L 9.40625 5.765625 
C 13 9.671875 20 16.75 28.5 24.953125 
C 34.59375 30.734375 41.703125 37.53125 41.703125 47.421875 
C 41.703125 59.21875 32.296875 66 21.796875 66 
C 10.796875 66 4.09375 56.3125 4.09375 47.34375 
C 4.09375 43.4375 7 42.9375 8.203125 42.9375 
C 9.203125 42.9375 12.203125 43.546875 12.203125 47.03125 
C 12.203125 50.109375 9.59375 51 8.203125 51 
C 7.59375 51 7 50.90625 6.59375 50.703125 
C 8.5 59.21875 14.296875 63.40625 20.40625 63.40625 
C 29.09375 63.40625 34.796875 56.515625 34.796875 47.421875 
C 34.796875 38.734375 29.703125 31.25 24 24.75 
L 4.09375 2.28125 
L 4.09375 0 
L 39.296875 0 
z
" id="CMR17-50"/>
    </defs>
    <g transform="translate(297.601107 234)scale(0.3 -0.3)">
     <use transform="translate(0 14.943915)scale(0.996264)" xlink:href="#CMMI12-121"/>
     <use transform="translate(47.564188 0)scale(0.697382)" xlink:href="#CMR17-50"/>
     <use transform="translate(107.719511 14.943915)scale(0.996264)" xlink:href="#CMR17-61"/>
     <use transform="translate(207.108308 14.943915)scale(0.996264)" xlink:href="#CMMI12-102"/>
     <use transform="translate(255.191545 0)scale(0.697382)" xlink:href="#CMR17-50"/>
     <use transform="translate(287.672859 14.943915)scale(0.996264)" xlink:href="#CMR17-40"/>
     <use transform="translate(322.953627 14.943915)scale(0.996264)" xlink:href="#CMMI12-120"/>
     <use transform="translate(378.387687 14.943915)scale(0.996264)" xlink:href="#CMR17-41"/>
    </g>
   </g>
  </g>
  <g id="axes_3">
   <g id="matplotlib.axis_3">
    <g id="xtick_4"/>
    <g id="xtick_5"/>
    <g id="xtick_6"/>
    <g id="text_5">
     <!-- $y_1$ -->
     <g transform="translate(554.009077 340.294961)scale(0.3 -0.3)">
      <use transform="translate(0 14.943915)scale(0.996264)" xlink:href="#CMMI12-121"/>
      <use transform="translate(47.564188 0)scale(0.697382)" xlink:href="#CMR17-49"/>
     </g>
    </g>
   </g>
   <g id="matplotlib.axis_4">
    <g id="ytick_4"/>
    <g id="ytick_5"/>
    <g id="ytick_6"/>
    <g id="ytick_7"/>
    <g id="ytick_8"/>
    <g id="ytick_9"/>
    <g id="text_6">
     <!-- $y_2$ -->
     <g transform="translate(485.89741 191.032099)rotate(-90)scale(0.3 -0.3)">
      <use transform="translate(0 14.943915)scale(0.996264)" xlink:href="#CMMI12-121"/>
      <use transform="translate(47.564188 0)scale(0.697382)" xlink:href="#CMR17-50"/>
     </g>
    </g>
   </g>
   <g id="line2d_3">
    <path clip-path="url(#pa9a1b2dbe4)" d="M 626.023537 279.345974 
L 625.992718 282.259206 
L 625.965013 285.104013 
L 625.941157 287.849646 
L 625.921925 290.464002 
L 625.90813 292.913953 
L 625.900611 295.165717 
L 625.900225 297.185259 
L 625.90784 298.938714 
L 625.924319 300.392832 
L 625.950506 301.515432 
L 625.987214 302.275862 
L 626.035204 302.645455 
L 626.095172 302.597966 
L 626.16772 302.110004 
L 626.253343 301.16142 
L 626.352397 299.735675 
L 626.465081 297.820157 
L 626.591402 295.406455 
L 626.731153 292.490586 
L 626.883879 289.073156 
L 627.048846 285.159471 
L 627.225008 280.759578 
L 627.410976 275.88825 
L 627.604978 270.564902 
L 627.804833 264.813443 
L 628.007908 258.662065 
L 628.211092 252.142974 
L 628.410755 245.292058 
L 628.602728 238.148499 
L 628.782266 230.754342 
L 628.944029 223.154007 
L 629.082058 215.393764 
L 629.189762 207.521182 
L 629.259913 199.584535 
L 629.284638 191.632203 
L 629.255431 183.712054 
L 629.163172 175.870825 
L 628.998152 168.15351 
L 628.750119 160.602773 
L 628.408328 153.258375 
L 627.961617 146.156654 
L 627.398485 139.330043 
L 626.707202 132.806656 
L 625.875923 126.609934 
L 624.892828 120.758379 
L 623.746273 115.265367 
L 622.424963 110.139054 
L 620.918142 105.382386 
L 619.21579 100.993199 
L 617.30884 96.964427 
L 615.189402 93.284413 
L 612.850998 89.937303 
L 610.28879 86.903547 
L 607.499822 84.160461 
L 604.483241 81.682874 
L 601.24052 79.443822 
L 597.775652 77.415287 
L 594.095332 75.568951 
L 590.209103 73.876965 
L 586.129469 72.312698 
L 581.871971 70.851453 
L 577.455212 69.471137 
L 572.900834 68.152852 
L 568.233443 66.881416 
L 563.48047 65.645765 
L 558.671982 64.439265 
L 553.840427 63.259888 
L 549.020323 62.110271 
L 544.247894 60.997647 
L 539.560651 59.93365 
L 534.996929 58.933996 
L 530.595388 58.018058 
L 526.394483 57.208333 
L 522.431911 56.529825 
L 518.744057 56.009363 
L 515.365434 55.67486 
L 512.328144 55.554545 
L 509.661361 55.676187 
L 507.390856 56.066324 
L 505.53857 56.749526 
L 504.122245 57.747711 
L 503.155124 59.079526 
L 502.645728 60.759806 
L 502.597715 62.79914 
L 503.009822 65.203536 
L 503.875891 67.974196 
L 505.184988 71.107412 
L 506.921602 74.594574 
L 509.065917 78.422295 
L 511.594161 82.572635 
L 514.479022 87.02343 
L 517.690109 91.7487 
L 521.194461 96.719139 
L 524.957085 101.902652 
L 528.941516 107.264947 
L 533.110376 112.770143 
L 537.425937 118.381395 
L 541.850661 124.061514 
L 546.347712 129.773568 
L 550.881437 135.481446 
" style="fill:none;stroke:#ff0000;stroke-linecap:square;stroke-width:3;"/>
   </g>
   <g id="line2d_4">
    <g clip-path="url(#pa9a1b2dbe4)">
     <use style="fill:#0000ff;stroke:#0000ff;" x="626.023537" xlink:href="#m57074ca4f7" y="279.345974"/>
     <use style="fill:#0000ff;stroke:#0000ff;" x="625.950506" xlink:href="#m57074ca4f7" y="301.515432"/>
     <use style="fill:#0000ff;stroke:#0000ff;" x="626.883879" xlink:href="#m57074ca4f7" y="289.073156"/>
     <use style="fill:#0000ff;stroke:#0000ff;" x="628.782266" xlink:href="#m57074ca4f7" y="230.754342"/>
     <use style="fill:#0000ff;stroke:#0000ff;" x="628.408328" xlink:href="#m57074ca4f7" y="153.258375"/>
     <use style="fill:#0000ff;stroke:#0000ff;" x="617.30884" xlink:href="#m57074ca4f7" y="96.964427"/>
     <use style="fill:#0000ff;stroke:#0000ff;" x="586.129469" xlink:href="#m57074ca4f7" y="72.312698"/>
     <use style="fill:#0000ff;stroke:#0000ff;" x="539.560651" xlink:href="#m57074ca4f7" y="59.93365"/>
     <use style="fill:#0000ff;stroke:#0000ff;" x="505.53857" xlink:href="#m57074ca4f7" y="56.749526"/>
     <use style="fill:#0000ff;stroke:#0000ff;" x="511.594161" xlink:href="#m57074ca4f7" y="82.572635"/>
     <use style="fill:#0000ff;stroke:#0000ff;" x="550.881437" xlink:href="#m57074ca4f7" y="135.481446"/>
    </g>
   </g>
  </g>
 </g>
 <defs>
  <clipPath id="p0e6d2710c1">
   <rect height="11.722689" width="164.117647" x="90" y="173.238655"/>
  </clipPath>
  <clipPath id="pa9a1b2dbe4">
   <rect height="271.8" width="139.355615" x="496.263369" y="43.2"/>
  </clipPath>
 </defs>
</svg>
