<?xml version="1.0" encoding="utf-8" standalone="no"?>
<!DOCTYPE svg PUBLIC "-//W3C//DTD SVG 1.1//EN"
  "http://www.w3.org/Graphics/SVG/1.1/DTD/svg11.dtd">
<!-- Created with matplotlib (http://matplotlib.org/) -->
<svg height="360pt" version="1.1" viewBox="0 0 360 360" width="360pt" xmlns="http://www.w3.org/2000/svg" xmlns:xlink="http://www.w3.org/1999/xlink">
 <defs>
  <style type="text/css">
*{stroke-linecap:butt;stroke-linejoin:round;}
  </style>
 </defs>
 <g id="figure_1">
  <g id="patch_1">
   <path d="M 0 360 
L 360 360 
L 360 0 
L 0 0 
z
" style="fill:none;"/>
  </g>
  <g id="axes_1">
   <g id="patch_2">
    <path d="M 0 360 
L 360 360 
L 360 0 
L 0 0 
z
" style="fill:none;"/>
   </g>
   <g id="matplotlib.axis_1">
    <g id="xtick_1"/>
    <g id="xtick_2"/>
    <g id="xtick_3"/>
    <g id="xtick_4"/>
    <g id="xtick_5"/>
    <g id="xtick_6"/>
   </g>
   <g id="matplotlib.axis_2">
    <g id="ytick_1"/>
    <g id="ytick_2"/>
    <g id="ytick_3"/>
    <g id="ytick_4"/>
    <g id="ytick_5"/>
    <g id="ytick_6"/>
   </g>
   <g id="text_1">
    <!-- $k(x_i, x_j)=\alpha\exp\left(-\frac{\left|\left|x_i-x_j\right|\right|^{2}}{2\ell^{2}}\right)$ -->
    <defs>
     <path d="M 18.3125 75.984375 
L 27.296875 75.984375 
L 18.703125 31.6875 
L 49.515625 54.6875 
L 61.1875 54.6875 
L 26.8125 28.515625 
L 51.90625 0 
L 41.015625 0 
L 17.671875 26.703125 
L 12.5 0 
L 3.515625 0 
z
" id="DejaVuSans-Oblique-6b"/>
     <path d="M 31 75.875 
Q 24.46875 64.65625 21.28125 53.65625 
Q 18.109375 42.671875 18.109375 31.390625 
Q 18.109375 20.125 21.3125 9.0625 
Q 24.515625 -2 31 -13.1875 
L 23.1875 -13.1875 
Q 15.875 -1.703125 12.234375 9.375 
Q 8.59375 20.453125 8.59375 31.390625 
Q 8.59375 42.28125 12.203125 53.3125 
Q 15.828125 64.359375 23.1875 75.875 
z
" id="DejaVuSans-28"/>
     <path d="M 60.015625 54.6875 
L 34.90625 27.875 
L 50.296875 0 
L 39.984375 0 
L 28.421875 21.6875 
L 8.296875 0 
L -2.59375 0 
L 24.3125 28.8125 
L 10.015625 54.6875 
L 20.3125 54.6875 
L 30.8125 34.90625 
L 49.125 54.6875 
z
" id="DejaVuSans-Oblique-78"/>
     <path d="M 18.3125 75.984375 
L 27.296875 75.984375 
L 25.09375 64.59375 
L 16.109375 64.59375 
z
M 14.203125 54.6875 
L 23.1875 54.6875 
L 12.5 0 
L 3.515625 0 
z
" id="DejaVuSans-Oblique-69"/>
     <path d="M 11.71875 12.40625 
L 22.015625 12.40625 
L 22.015625 4 
L 14.015625 -11.625 
L 7.71875 -11.625 
L 11.71875 4 
z
" id="DejaVuSans-2c"/>
     <path d="M 14.5 54.6875 
L 23.484375 54.6875 
L 12.703125 -0.984375 
L 12.640625 -1.21875 
Q 10.84375 -10.546875 8.5 -14.015625 
Q 6.296875 -17.28125 2.0625 -19.03125 
Q -2.15625 -20.796875 -7.90625 -20.796875 
L -11.28125 -20.796875 
L -9.8125 -13.1875 
L -7.515625 -13.1875 
Q -2.25 -13.1875 -0.015625 -10.984375 
Q 2.203125 -8.796875 3.71875 -0.984375 
z
M 18.703125 75.984375 
L 27.6875 75.984375 
L 25.484375 64.59375 
L 16.5 64.59375 
z
" id="DejaVuSans-Oblique-6a"/>
     <path d="M 8.015625 75.875 
L 15.828125 75.875 
Q 23.140625 64.359375 26.78125 53.3125 
Q 30.421875 42.28125 30.421875 31.390625 
Q 30.421875 20.453125 26.78125 9.375 
Q 23.140625 -1.703125 15.828125 -13.1875 
L 8.015625 -13.1875 
Q 14.5 -2 17.703125 9.0625 
Q 20.90625 20.125 20.90625 31.390625 
Q 20.90625 42.671875 17.703125 53.65625 
Q 14.5 64.65625 8.015625 75.875 
z
" id="DejaVuSans-29"/>
     <path d="M 10.59375 45.40625 
L 73.1875 45.40625 
L 73.1875 37.203125 
L 10.59375 37.203125 
z
M 10.59375 25.484375 
L 73.1875 25.484375 
L 73.1875 17.1875 
L 10.59375 17.1875 
z
" id="DejaVuSans-3d"/>
     <path d="M 40.921875 25.4375 
L 40.96875 36.71875 
Q 41.015625 48.25 32.328125 48.296875 
Q 25.828125 48.34375 21.78125 42.921875 
Q 16.703125 36.234375 14.984375 27.296875 
Q 12.890625 16.546875 15.53125 11.421875 
Q 18.265625 6.203125 24.171875 6.203125 
Q 30.71875 6.203125 36.234375 16.609375 
z
M 33.84375 55.90625 
Q 49.078125 56.15625 48.875 40.375 
Q 48.875 40.375 56.5 54.6875 
L 64.5 54.6875 
L 48.734375 25.046875 
L 48.578125 14.359375 
Q 48.578125 11.96875 49.90625 9.96875 
Q 51.421875 7.625 52.984375 7.625 
L 57.328125 7.625 
L 55.859375 0 
L 50.4375 0 
Q 45.84375 0 42.53125 4.109375 
Q 40.96875 6.15625 40.921875 10.453125 
Q 37.75 5.21875 32.28125 0.78125 
Q 29.6875 -1.265625 22.703125 -1.21875 
Q 11.28125 -1.125 7.125 6.203125 
Q 2.875 13.8125 5.515625 27.296875 
Q 8.34375 41.796875 15.765625 48.390625 
Q 24.125 55.765625 33.84375 55.90625 
z
" id="DejaVuSans-Oblique-3b1"/>
     <path d="M 56.203125 29.59375 
L 56.203125 25.203125 
L 14.890625 25.203125 
Q 15.484375 15.921875 20.484375 11.0625 
Q 25.484375 6.203125 34.421875 6.203125 
Q 39.59375 6.203125 44.453125 7.46875 
Q 49.3125 8.734375 54.109375 11.28125 
L 54.109375 2.78125 
Q 49.265625 0.734375 44.1875 -0.34375 
Q 39.109375 -1.421875 33.890625 -1.421875 
Q 20.796875 -1.421875 13.15625 6.1875 
Q 5.515625 13.8125 5.515625 26.8125 
Q 5.515625 40.234375 12.765625 48.109375 
Q 20.015625 56 32.328125 56 
Q 43.359375 56 49.78125 48.890625 
Q 56.203125 41.796875 56.203125 29.59375 
z
M 47.21875 32.234375 
Q 47.125 39.59375 43.09375 43.984375 
Q 39.0625 48.390625 32.421875 48.390625 
Q 24.90625 48.390625 20.390625 44.140625 
Q 15.875 39.890625 15.1875 32.171875 
z
" id="DejaVuSans-65"/>
     <path d="M 54.890625 54.6875 
L 35.109375 28.078125 
L 55.90625 0 
L 45.3125 0 
L 29.390625 21.484375 
L 13.484375 0 
L 2.875 0 
L 24.125 28.609375 
L 4.6875 54.6875 
L 15.28125 54.6875 
L 29.78125 35.203125 
L 44.28125 54.6875 
z
" id="DejaVuSans-78"/>
     <path d="M 18.109375 8.203125 
L 18.109375 -20.796875 
L 9.078125 -20.796875 
L 9.078125 54.6875 
L 18.109375 54.6875 
L 18.109375 46.390625 
Q 20.953125 51.265625 25.265625 53.625 
Q 29.59375 56 35.59375 56 
Q 45.5625 56 51.78125 48.09375 
Q 58.015625 40.1875 58.015625 27.296875 
Q 58.015625 14.40625 51.78125 6.484375 
Q 45.5625 -1.421875 35.59375 -1.421875 
Q 29.59375 -1.421875 25.265625 0.953125 
Q 20.953125 3.328125 18.109375 8.203125 
z
M 48.6875 27.296875 
Q 48.6875 37.203125 44.609375 42.84375 
Q 40.53125 48.484375 33.40625 48.484375 
Q 26.265625 48.484375 22.1875 42.84375 
Q 18.109375 37.203125 18.109375 27.296875 
Q 18.109375 17.390625 22.1875 11.75 
Q 26.265625 6.109375 33.40625 6.109375 
Q 40.53125 6.109375 44.609375 11.75 
Q 48.6875 17.390625 48.6875 27.296875 
z
" id="DejaVuSans-70"/>
     <path d="M 50.296875 -24.296875 
L 50.296875 -27.90625 
Q 33.5 -12.09375 23.703125 11.40625 
Q 13.90625 34.90625 13.90625 64.296875 
Q 13.90625 93.796875 23.953125 118.640625 
Q 34 143.5 50.296875 156.59375 
L 50.296875 153.296875 
Q 38.90625 141.59375 31.15625 118.84375 
Q 23.40625 96.09375 23.40625 64.296875 
Q 23.40625 8.796875 50.296875 -24.296875 
z
" id="STIXSizeTwoSym-Regular-28"/>
     <path d="M 10.59375 35.5 
L 73.1875 35.5 
L 73.1875 27.203125 
L 10.59375 27.203125 
z
" id="DejaVuSans-2212"/>
     <path d="M 21 76.421875 
L 21 -23.578125 
L 12.703125 -23.578125 
L 12.703125 76.421875 
z
" id="DejaVuSans-7c"/>
     <path d="M 19.1875 8.296875 
L 53.609375 8.296875 
L 53.609375 0 
L 7.328125 0 
L 7.328125 8.296875 
Q 12.9375 14.109375 22.625 23.890625 
Q 32.328125 33.6875 34.8125 36.53125 
Q 39.546875 41.84375 41.421875 45.53125 
Q 43.3125 49.21875 43.3125 52.78125 
Q 43.3125 58.59375 39.234375 62.25 
Q 35.15625 65.921875 28.609375 65.921875 
Q 23.96875 65.921875 18.8125 64.3125 
Q 13.671875 62.703125 7.8125 59.421875 
L 7.8125 69.390625 
Q 13.765625 71.78125 18.9375 73 
Q 24.125 74.21875 28.421875 74.21875 
Q 39.75 74.21875 46.484375 68.546875 
Q 53.21875 62.890625 53.21875 53.421875 
Q 53.21875 48.921875 51.53125 44.890625 
Q 49.859375 40.875 45.40625 35.40625 
Q 44.1875 33.984375 37.640625 27.21875 
Q 31.109375 20.453125 19.1875 8.296875 
z
" id="DejaVuSans-32"/>
     <path d="M 14.84375 13.09375 
Q 16.84375 3.328125 21.09375 3.328125 
Q 23.921875 3.328125 27.59375 8.9375 
L 34.078125 8.9375 
Q 31.15625 3.953125 27.734375 1.375 
Q 24.03125 -1.421875 20.609375 -1.421875 
Q 12.984375 -1.421875 9.90625 5.375 
L 6.25 0 
L -1.375 0 
Q 3.90625 7.171875 7.8125 13.875 
Q 7.328125 17.671875 7.328125 21.828125 
Q 7.328125 29.25 8.84375 36.671875 
Q 14.546875 64.546875 19.625 70.265625 
Q 23.140625 74.21875 29.15625 74.21875 
Q 35.25 74.21875 35.25 65.765625 
Q 35.203125 61.96875 34.328125 57.421875 
Q 30.8125 38.8125 14.84375 13.09375 
z
M 14.796875 25.875 
Q 23.921875 42.875 26.703125 56.453125 
Q 28.171875 63.625 28.171875 65.484375 
Q 28.171875 68.84375 26.953125 68.84375 
Q 21.625 64.59375 16.890625 39.3125 
Q 15.578125 32.234375 14.796875 25.875 
z
" id="DejaVuSans-Oblique-2113"/>
     <path d="M 11.40625 153 
L 11.40625 156.59375 
Q 28.203125 140.796875 38 117.296875 
Q 47.796875 93.796875 47.796875 64.296875 
Q 47.796875 34.90625 37.75 10.046875 
Q 27.703125 -14.796875 11.40625 -27.90625 
L 11.40625 -24.59375 
Q 22.796875 -12.90625 30.546875 9.890625 
Q 38.296875 32.703125 38.296875 64.296875 
Q 38.296875 119.90625 11.40625 153 
z
" id="STIXSizeTwoSym-Regular-29"/>
    </defs>
    <g transform="translate(53.5 36)scale(0.2 -0.2)">
     <use transform="translate(0 0.8)" xlink:href="#DejaVuSans-Oblique-6b"/>
     <use transform="translate(57.910156 0.8)" xlink:href="#DejaVuSans-28"/>
     <use transform="translate(96.923828 0.8)" xlink:href="#DejaVuSans-Oblique-78"/>
     <use transform="translate(156.103516 -15.60625)scale(0.7)" xlink:href="#DejaVuSans-Oblique-69"/>
     <use transform="translate(178.286133 0.8)" xlink:href="#DejaVuSans-2c"/>
     <use transform="translate(229.555664 0.8)" xlink:href="#DejaVuSans-Oblique-78"/>
     <use transform="translate(288.735352 -15.60625)scale(0.7)" xlink:href="#DejaVuSans-Oblique-6a"/>
     <use transform="translate(310.917969 0.8)" xlink:href="#DejaVuSans-29"/>
     <use transform="translate(369.414062 0.8)" xlink:href="#DejaVuSans-3d"/>
     <use transform="translate(472.685547 0.8)" xlink:href="#DejaVuSans-Oblique-3b1"/>
     <use transform="translate(538.603516 0.8)" xlink:href="#DejaVuSans-65"/>
     <use transform="translate(600.126953 0.8)" xlink:href="#DejaVuSans-78"/>
     <use transform="translate(659.306641 0.8)" xlink:href="#DejaVuSans-70"/>
     <use transform="translate(722.783203 -23.46875)scale(0.976955)" xlink:href="#STIXSizeTwoSym-Regular-28"/>
     <use transform="translate(780.357956 0.8)" xlink:href="#DejaVuSans-2212"/>
     <use transform="translate(864.147018 66.271719)scale(0.7)" xlink:href="#DejaVuSans-7c"/>
     <use transform="translate(887.731003 66.271719)scale(0.7)" xlink:href="#DejaVuSans-7c"/>
     <use transform="translate(911.314987 66.271719)scale(0.7)" xlink:href="#DejaVuSans-Oblique-78"/>
     <use transform="translate(952.740768 54.787344)scale(0.49)" xlink:href="#DejaVuSans-Oblique-69"/>
     <use transform="translate(981.906296 66.271719)scale(0.7)" xlink:href="#DejaVuSans-2212"/>
     <use transform="translate(1054.196335 66.271719)scale(0.7)" xlink:href="#DejaVuSans-Oblique-78"/>
     <use transform="translate(1095.622116 54.787344)scale(0.49)" xlink:href="#DejaVuSans-Oblique-6a"/>
     <use transform="translate(1111.149948 66.271719)scale(0.7)" xlink:href="#DejaVuSans-7c"/>
     <use transform="translate(1134.733932 66.271719)scale(0.7)" xlink:href="#DejaVuSans-7c"/>
     <use transform="translate(1158.987839 93.068594)scale(0.49)" xlink:href="#DejaVuSans-32"/>
     <use transform="translate(972.147018 -49.817188)scale(0.7)" xlink:href="#DejaVuSans-32"/>
     <use transform="translate(1016.683151 -49.817188)scale(0.7)" xlink:href="#DejaVuSans-Oblique-2113"/>
     <use transform="translate(1050.639531 -23.020313)scale(0.49)" xlink:href="#DejaVuSans-32"/>
     <use transform="translate(1204.577194 -23.46875)scale(0.976955)" xlink:href="#STIXSizeTwoSym-Regular-29"/>
     <path d="M 864.147018 19.596875 
L 864.147018 25.846875 
L 1192.077194 25.846875 
L 1192.077194 19.596875 
L 864.147018 19.596875 
z
"/>
    </g>
   </g>
   <g id="text_2">
    <!-- $x_0=-3.0$, $x_1=1.2$, $x_2=1.4$ and $x_3=2.0$ with $\ell=2.0$ and $\alpha=1.0$ -->
    <defs>
     <path d="M 31.78125 66.40625 
Q 24.171875 66.40625 20.328125 58.90625 
Q 16.5 51.421875 16.5 36.375 
Q 16.5 21.390625 20.328125 13.890625 
Q 24.171875 6.390625 31.78125 6.390625 
Q 39.453125 6.390625 43.28125 13.890625 
Q 47.125 21.390625 47.125 36.375 
Q 47.125 51.421875 43.28125 58.90625 
Q 39.453125 66.40625 31.78125 66.40625 
z
M 31.78125 74.21875 
Q 44.046875 74.21875 50.515625 64.515625 
Q 56.984375 54.828125 56.984375 36.375 
Q 56.984375 17.96875 50.515625 8.265625 
Q 44.046875 -1.421875 31.78125 -1.421875 
Q 19.53125 -1.421875 13.0625 8.265625 
Q 6.59375 17.96875 6.59375 36.375 
Q 6.59375 54.828125 13.0625 64.515625 
Q 19.53125 74.21875 31.78125 74.21875 
z
" id="DejaVuSans-30"/>
     <path d="M 40.578125 39.3125 
Q 47.65625 37.796875 51.625 33 
Q 55.609375 28.21875 55.609375 21.1875 
Q 55.609375 10.40625 48.1875 4.484375 
Q 40.765625 -1.421875 27.09375 -1.421875 
Q 22.515625 -1.421875 17.65625 -0.515625 
Q 12.796875 0.390625 7.625 2.203125 
L 7.625 11.71875 
Q 11.71875 9.328125 16.59375 8.109375 
Q 21.484375 6.890625 26.8125 6.890625 
Q 36.078125 6.890625 40.9375 10.546875 
Q 45.796875 14.203125 45.796875 21.1875 
Q 45.796875 27.640625 41.28125 31.265625 
Q 36.765625 34.90625 28.71875 34.90625 
L 20.21875 34.90625 
L 20.21875 43.015625 
L 29.109375 43.015625 
Q 36.375 43.015625 40.234375 45.921875 
Q 44.09375 48.828125 44.09375 54.296875 
Q 44.09375 59.90625 40.109375 62.90625 
Q 36.140625 65.921875 28.71875 65.921875 
Q 24.65625 65.921875 20.015625 65.03125 
Q 15.375 64.15625 9.8125 62.3125 
L 9.8125 71.09375 
Q 15.4375 72.65625 20.34375 73.4375 
Q 25.25 74.21875 29.59375 74.21875 
Q 40.828125 74.21875 47.359375 69.109375 
Q 53.90625 64.015625 53.90625 55.328125 
Q 53.90625 49.265625 50.4375 45.09375 
Q 46.96875 40.921875 40.578125 39.3125 
z
" id="DejaVuSans-33"/>
     <path d="M 10.6875 12.40625 
L 21 12.40625 
L 21 0 
L 10.6875 0 
z
" id="DejaVuSans-2e"/>
     <path id="DejaVuSans-20"/>
     <path d="M 12.40625 8.296875 
L 28.515625 8.296875 
L 28.515625 63.921875 
L 10.984375 60.40625 
L 10.984375 69.390625 
L 28.421875 72.90625 
L 38.28125 72.90625 
L 38.28125 8.296875 
L 54.390625 8.296875 
L 54.390625 0 
L 12.40625 0 
z
" id="DejaVuSans-31"/>
     <path d="M 37.796875 64.3125 
L 12.890625 25.390625 
L 37.796875 25.390625 
z
M 35.203125 72.90625 
L 47.609375 72.90625 
L 47.609375 25.390625 
L 58.015625 25.390625 
L 58.015625 17.1875 
L 47.609375 17.1875 
L 47.609375 0 
L 37.796875 0 
L 37.796875 17.1875 
L 4.890625 17.1875 
L 4.890625 26.703125 
z
" id="DejaVuSans-34"/>
     <path d="M 34.28125 27.484375 
Q 23.390625 27.484375 19.1875 25 
Q 14.984375 22.515625 14.984375 16.5 
Q 14.984375 11.71875 18.140625 8.90625 
Q 21.296875 6.109375 26.703125 6.109375 
Q 34.1875 6.109375 38.703125 11.40625 
Q 43.21875 16.703125 43.21875 25.484375 
L 43.21875 27.484375 
z
M 52.203125 31.203125 
L 52.203125 0 
L 43.21875 0 
L 43.21875 8.296875 
Q 40.140625 3.328125 35.546875 0.953125 
Q 30.953125 -1.421875 24.3125 -1.421875 
Q 15.921875 -1.421875 10.953125 3.296875 
Q 6 8.015625 6 15.921875 
Q 6 25.140625 12.171875 29.828125 
Q 18.359375 34.515625 30.609375 34.515625 
L 43.21875 34.515625 
L 43.21875 35.40625 
Q 43.21875 41.609375 39.140625 45 
Q 35.0625 48.390625 27.6875 48.390625 
Q 23 48.390625 18.546875 47.265625 
Q 14.109375 46.140625 10.015625 43.890625 
L 10.015625 52.203125 
Q 14.9375 54.109375 19.578125 55.046875 
Q 24.21875 56 28.609375 56 
Q 40.484375 56 46.34375 49.84375 
Q 52.203125 43.703125 52.203125 31.203125 
z
" id="DejaVuSans-61"/>
     <path d="M 54.890625 33.015625 
L 54.890625 0 
L 45.90625 0 
L 45.90625 32.71875 
Q 45.90625 40.484375 42.875 44.328125 
Q 39.84375 48.1875 33.796875 48.1875 
Q 26.515625 48.1875 22.3125 43.546875 
Q 18.109375 38.921875 18.109375 30.90625 
L 18.109375 0 
L 9.078125 0 
L 9.078125 54.6875 
L 18.109375 54.6875 
L 18.109375 46.1875 
Q 21.34375 51.125 25.703125 53.5625 
Q 30.078125 56 35.796875 56 
Q 45.21875 56 50.046875 50.171875 
Q 54.890625 44.34375 54.890625 33.015625 
z
" id="DejaVuSans-6e"/>
     <path d="M 45.40625 46.390625 
L 45.40625 75.984375 
L 54.390625 75.984375 
L 54.390625 0 
L 45.40625 0 
L 45.40625 8.203125 
Q 42.578125 3.328125 38.25 0.953125 
Q 33.9375 -1.421875 27.875 -1.421875 
Q 17.96875 -1.421875 11.734375 6.484375 
Q 5.515625 14.40625 5.515625 27.296875 
Q 5.515625 40.1875 11.734375 48.09375 
Q 17.96875 56 27.875 56 
Q 33.9375 56 38.25 53.625 
Q 42.578125 51.265625 45.40625 46.390625 
z
M 14.796875 27.296875 
Q 14.796875 17.390625 18.875 11.75 
Q 22.953125 6.109375 30.078125 6.109375 
Q 37.203125 6.109375 41.296875 11.75 
Q 45.40625 17.390625 45.40625 27.296875 
Q 45.40625 37.203125 41.296875 42.84375 
Q 37.203125 48.484375 30.078125 48.484375 
Q 22.953125 48.484375 18.875 42.84375 
Q 14.796875 37.203125 14.796875 27.296875 
z
" id="DejaVuSans-64"/>
     <path d="M 4.203125 54.6875 
L 13.1875 54.6875 
L 24.421875 12.015625 
L 35.59375 54.6875 
L 46.1875 54.6875 
L 57.421875 12.015625 
L 68.609375 54.6875 
L 77.59375 54.6875 
L 63.28125 0 
L 52.6875 0 
L 40.921875 44.828125 
L 29.109375 0 
L 18.5 0 
z
" id="DejaVuSans-77"/>
     <path d="M 9.421875 54.6875 
L 18.40625 54.6875 
L 18.40625 0 
L 9.421875 0 
z
M 9.421875 75.984375 
L 18.40625 75.984375 
L 18.40625 64.59375 
L 9.421875 64.59375 
z
" id="DejaVuSans-69"/>
     <path d="M 18.3125 70.21875 
L 18.3125 54.6875 
L 36.8125 54.6875 
L 36.8125 47.703125 
L 18.3125 47.703125 
L 18.3125 18.015625 
Q 18.3125 11.328125 20.140625 9.421875 
Q 21.96875 7.515625 27.59375 7.515625 
L 36.8125 7.515625 
L 36.8125 0 
L 27.59375 0 
Q 17.1875 0 13.234375 3.875 
Q 9.28125 7.765625 9.28125 18.015625 
L 9.28125 47.703125 
L 2.6875 47.703125 
L 2.6875 54.6875 
L 9.28125 54.6875 
L 9.28125 70.21875 
z
" id="DejaVuSans-74"/>
     <path d="M 54.890625 33.015625 
L 54.890625 0 
L 45.90625 0 
L 45.90625 32.71875 
Q 45.90625 40.484375 42.875 44.328125 
Q 39.84375 48.1875 33.796875 48.1875 
Q 26.515625 48.1875 22.3125 43.546875 
Q 18.109375 38.921875 18.109375 30.90625 
L 18.109375 0 
L 9.078125 0 
L 9.078125 75.984375 
L 18.109375 75.984375 
L 18.109375 46.1875 
Q 21.34375 51.125 25.703125 53.5625 
Q 30.078125 56 35.796875 56 
Q 45.21875 56 50.046875 50.171875 
Q 54.890625 44.34375 54.890625 33.015625 
z
" id="DejaVuSans-68"/>
    </defs>
    <g transform="translate(-15.18 288)scale(0.12 -0.12)">
     <use transform="translate(0 0.015625)" xlink:href="#DejaVuSans-Oblique-78"/>
     <use transform="translate(59.179688 -16.390625)scale(0.7)" xlink:href="#DejaVuSans-30"/>
     <use transform="translate(125.932617 0.015625)" xlink:href="#DejaVuSans-3d"/>
     <use transform="translate(248.686523 0.015625)" xlink:href="#DejaVuSans-2212"/>
     <use transform="translate(351.958008 0.015625)" xlink:href="#DejaVuSans-33"/>
     <use transform="translate(415.581055 0.015625)" xlink:href="#DejaVuSans-2e"/>
     <use transform="translate(447.368164 0.015625)" xlink:href="#DejaVuSans-30"/>
     <use transform="translate(510.991211 0.015625)" xlink:href="#DejaVuSans-2c"/>
     <use transform="translate(542.77832 0.015625)" xlink:href="#DejaVuSans-20"/>
     <use transform="translate(574.56543 0.015625)" xlink:href="#DejaVuSans-Oblique-78"/>
     <use transform="translate(633.745117 -16.390625)scale(0.7)" xlink:href="#DejaVuSans-31"/>
     <use transform="translate(700.498047 0.015625)" xlink:href="#DejaVuSans-3d"/>
     <use transform="translate(803.769531 0.015625)" xlink:href="#DejaVuSans-31"/>
     <use transform="translate(867.392578 0.015625)" xlink:href="#DejaVuSans-2e"/>
     <use transform="translate(899.101562 0.015625)" xlink:href="#DejaVuSans-32"/>
     <use transform="translate(962.724609 0.015625)" xlink:href="#DejaVuSans-2c"/>
     <use transform="translate(994.511719 0.015625)" xlink:href="#DejaVuSans-20"/>
     <use transform="translate(1026.298828 0.015625)" xlink:href="#DejaVuSans-Oblique-78"/>
     <use transform="translate(1085.478516 -16.390625)scale(0.7)" xlink:href="#DejaVuSans-32"/>
     <use transform="translate(1152.231445 0.015625)" xlink:href="#DejaVuSans-3d"/>
     <use transform="translate(1255.50293 0.015625)" xlink:href="#DejaVuSans-31"/>
     <use transform="translate(1319.125977 0.015625)" xlink:href="#DejaVuSans-2e"/>
     <use transform="translate(1350.913086 0.015625)" xlink:href="#DejaVuSans-34"/>
     <use transform="translate(1414.536133 0.015625)" xlink:href="#DejaVuSans-20"/>
     <use transform="translate(1446.323242 0.015625)" xlink:href="#DejaVuSans-61"/>
     <use transform="translate(1507.602539 0.015625)" xlink:href="#DejaVuSans-6e"/>
     <use transform="translate(1570.981445 0.015625)" xlink:href="#DejaVuSans-64"/>
     <use transform="translate(1634.458008 0.015625)" xlink:href="#DejaVuSans-20"/>
     <use transform="translate(1666.245117 0.015625)" xlink:href="#DejaVuSans-Oblique-78"/>
     <use transform="translate(1725.424805 -16.390625)scale(0.7)" xlink:href="#DejaVuSans-33"/>
     <use transform="translate(1792.177734 0.015625)" xlink:href="#DejaVuSans-3d"/>
     <use transform="translate(1895.449219 0.015625)" xlink:href="#DejaVuSans-32"/>
     <use transform="translate(1959.072266 0.015625)" xlink:href="#DejaVuSans-2e"/>
     <use transform="translate(1990.859375 0.015625)" xlink:href="#DejaVuSans-30"/>
     <use transform="translate(2054.482422 0.015625)" xlink:href="#DejaVuSans-20"/>
     <use transform="translate(2086.269531 0.015625)" xlink:href="#DejaVuSans-77"/>
     <use transform="translate(2168.056641 0.015625)" xlink:href="#DejaVuSans-69"/>
     <use transform="translate(2195.839844 0.015625)" xlink:href="#DejaVuSans-74"/>
     <use transform="translate(2235.048828 0.015625)" xlink:href="#DejaVuSans-68"/>
     <use transform="translate(2298.427734 0.015625)" xlink:href="#DejaVuSans-20"/>
     <use transform="translate(2330.214844 0.015625)" xlink:href="#DejaVuSans-Oblique-2113"/>
     <use transform="translate(2391.005859 0.015625)" xlink:href="#DejaVuSans-3d"/>
     <use transform="translate(2494.277344 0.015625)" xlink:href="#DejaVuSans-32"/>
     <use transform="translate(2557.900391 0.015625)" xlink:href="#DejaVuSans-2e"/>
     <use transform="translate(2589.6875 0.015625)" xlink:href="#DejaVuSans-30"/>
     <use transform="translate(2653.310547 0.015625)" xlink:href="#DejaVuSans-20"/>
     <use transform="translate(2685.097656 0.015625)" xlink:href="#DejaVuSans-61"/>
     <use transform="translate(2746.376953 0.015625)" xlink:href="#DejaVuSans-6e"/>
     <use transform="translate(2809.755859 0.015625)" xlink:href="#DejaVuSans-64"/>
     <use transform="translate(2873.232422 0.015625)" xlink:href="#DejaVuSans-20"/>
     <use transform="translate(2905.019531 0.015625)" xlink:href="#DejaVuSans-Oblique-3b1"/>
     <use transform="translate(2990.419922 0.015625)" xlink:href="#DejaVuSans-3d"/>
     <use transform="translate(3093.691406 0.015625)" xlink:href="#DejaVuSans-31"/>
     <use transform="translate(3157.314453 0.015625)" xlink:href="#DejaVuSans-2e"/>
     <use transform="translate(3189.101562 0.015625)" xlink:href="#DejaVuSans-30"/>
    </g>
   </g>
   <g id="text_3">
    <!-- $x_0=-3.0$, $x_2=1.4$ -->
    <g transform="translate(12.96 144)scale(0.16 -0.16)">
     <use transform="translate(0 0.78125)" xlink:href="#DejaVuSans-Oblique-78"/>
     <use transform="translate(59.179688 -15.625)scale(0.7)" xlink:href="#DejaVuSans-30"/>
     <use transform="translate(125.932617 0.78125)" xlink:href="#DejaVuSans-3d"/>
     <use transform="translate(248.686523 0.78125)" xlink:href="#DejaVuSans-2212"/>
     <use transform="translate(351.958008 0.78125)" xlink:href="#DejaVuSans-33"/>
     <use transform="translate(415.581055 0.78125)" xlink:href="#DejaVuSans-2e"/>
     <use transform="translate(447.368164 0.78125)" xlink:href="#DejaVuSans-30"/>
     <use transform="translate(510.991211 0.78125)" xlink:href="#DejaVuSans-2c"/>
     <use transform="translate(542.77832 0.78125)" xlink:href="#DejaVuSans-20"/>
     <use transform="translate(574.56543 0.78125)" xlink:href="#DejaVuSans-Oblique-78"/>
     <use transform="translate(633.745117 -15.625)scale(0.7)" xlink:href="#DejaVuSans-32"/>
     <use transform="translate(700.498047 0.78125)" xlink:href="#DejaVuSans-3d"/>
     <use transform="translate(803.769531 0.78125)" xlink:href="#DejaVuSans-31"/>
     <use transform="translate(867.392578 0.78125)" xlink:href="#DejaVuSans-2e"/>
     <use transform="translate(899.179688 0.78125)" xlink:href="#DejaVuSans-34"/>
    </g>
   </g>
  </g>
  <g id="axes_2">
   <g id="matplotlib.axis_3"/>
   <g id="matplotlib.axis_4"/>
   <g id="line2d_1">
    <path clip-path="url(#pf0fb894d58)" d="M 190 72 
L 180 72 
L 180 252 
L 190 252 
" style="fill:none;stroke:#000000;stroke-linecap:square;stroke-width:3;"/>
   </g>
   <g id="line2d_2">
    <path clip-path="url(#pf0fb894d58)" d="M 350 72 
L 360 72 
L 360 252 
L 350 252 
" style="fill:none;stroke:#000000;stroke-linecap:square;stroke-width:3;"/>
   </g>
   <g id="line2d_3">
    <path clip-path="url(#pf0fb894d58)" d="M 190 162 
L 190 202 
L 230 202 
L 230 162 
L 190 162 
" style="fill:none;stroke:#ff00ff;stroke-linecap:square;stroke-width:3;"/>
   </g>
   <g id="text_4">
    <!-- 1.0 -->
    <g transform="translate(197.2775 102)scale(0.16 -0.16)">
     <use xlink:href="#DejaVuSans-31"/>
     <use x="63.623047" xlink:href="#DejaVuSans-2e"/>
     <use x="95.410156" xlink:href="#DejaVuSans-30"/>
    </g>
   </g>
   <g id="text_5">
    <!-- 0.11 -->
    <g transform="translate(232.1875 102)scale(0.16 -0.16)">
     <use xlink:href="#DejaVuSans-30"/>
     <use x="63.623047" xlink:href="#DejaVuSans-2e"/>
     <use x="95.410156" xlink:href="#DejaVuSans-31"/>
     <use x="159.033203" xlink:href="#DejaVuSans-31"/>
    </g>
   </g>
   <g id="text_6">
    <!-- 0.089 -->
    <defs>
     <path d="M 31.78125 34.625 
Q 24.75 34.625 20.71875 30.859375 
Q 16.703125 27.09375 16.703125 20.515625 
Q 16.703125 13.921875 20.71875 10.15625 
Q 24.75 6.390625 31.78125 6.390625 
Q 38.8125 6.390625 42.859375 10.171875 
Q 46.921875 13.96875 46.921875 20.515625 
Q 46.921875 27.09375 42.890625 30.859375 
Q 38.875 34.625 31.78125 34.625 
z
M 21.921875 38.8125 
Q 15.578125 40.375 12.03125 44.71875 
Q 8.5 49.078125 8.5 55.328125 
Q 8.5 64.0625 14.71875 69.140625 
Q 20.953125 74.21875 31.78125 74.21875 
Q 42.671875 74.21875 48.875 69.140625 
Q 55.078125 64.0625 55.078125 55.328125 
Q 55.078125 49.078125 51.53125 44.71875 
Q 48 40.375 41.703125 38.8125 
Q 48.828125 37.15625 52.796875 32.3125 
Q 56.78125 27.484375 56.78125 20.515625 
Q 56.78125 9.90625 50.3125 4.234375 
Q 43.84375 -1.421875 31.78125 -1.421875 
Q 19.734375 -1.421875 13.25 4.234375 
Q 6.78125 9.90625 6.78125 20.515625 
Q 6.78125 27.484375 10.78125 32.3125 
Q 14.796875 37.15625 21.921875 38.8125 
z
M 18.3125 54.390625 
Q 18.3125 48.734375 21.84375 45.5625 
Q 25.390625 42.390625 31.78125 42.390625 
Q 38.140625 42.390625 41.71875 45.5625 
Q 45.3125 48.734375 45.3125 54.390625 
Q 45.3125 60.0625 41.71875 63.234375 
Q 38.140625 66.40625 31.78125 66.40625 
Q 25.390625 66.40625 21.84375 63.234375 
Q 18.3125 60.0625 18.3125 54.390625 
z
" id="DejaVuSans-38"/>
     <path d="M 10.984375 1.515625 
L 10.984375 10.5 
Q 14.703125 8.734375 18.5 7.8125 
Q 22.3125 6.890625 25.984375 6.890625 
Q 35.75 6.890625 40.890625 13.453125 
Q 46.046875 20.015625 46.78125 33.40625 
Q 43.953125 29.203125 39.59375 26.953125 
Q 35.25 24.703125 29.984375 24.703125 
Q 19.046875 24.703125 12.671875 31.3125 
Q 6.296875 37.9375 6.296875 49.421875 
Q 6.296875 60.640625 12.9375 67.421875 
Q 19.578125 74.21875 30.609375 74.21875 
Q 43.265625 74.21875 49.921875 64.515625 
Q 56.59375 54.828125 56.59375 36.375 
Q 56.59375 19.140625 48.40625 8.859375 
Q 40.234375 -1.421875 26.421875 -1.421875 
Q 22.703125 -1.421875 18.890625 -0.6875 
Q 15.09375 0.046875 10.984375 1.515625 
z
M 30.609375 32.421875 
Q 37.25 32.421875 41.125 36.953125 
Q 45.015625 41.5 45.015625 49.421875 
Q 45.015625 57.28125 41.125 61.84375 
Q 37.25 66.40625 30.609375 66.40625 
Q 23.96875 66.40625 20.09375 61.84375 
Q 16.21875 57.28125 16.21875 49.421875 
Q 16.21875 41.5 20.09375 36.953125 
Q 23.96875 32.421875 30.609375 32.421875 
z
" id="DejaVuSans-39"/>
    </defs>
    <g transform="translate(267.0975 102)scale(0.16 -0.16)">
     <use xlink:href="#DejaVuSans-30"/>
     <use x="63.623047" xlink:href="#DejaVuSans-2e"/>
     <use x="95.410156" xlink:href="#DejaVuSans-30"/>
     <use x="159.033203" xlink:href="#DejaVuSans-38"/>
     <use x="222.65625" xlink:href="#DejaVuSans-39"/>
    </g>
   </g>
   <g id="text_7">
    <!-- 0.11 -->
    <g transform="translate(192.1875 142)scale(0.16 -0.16)">
     <use xlink:href="#DejaVuSans-30"/>
     <use x="63.623047" xlink:href="#DejaVuSans-2e"/>
     <use x="95.410156" xlink:href="#DejaVuSans-31"/>
     <use x="159.033203" xlink:href="#DejaVuSans-31"/>
    </g>
   </g>
   <g id="text_8">
    <!-- 1.0 -->
    <g transform="translate(237.2775 142)scale(0.16 -0.16)">
     <use xlink:href="#DejaVuSans-31"/>
     <use x="63.623047" xlink:href="#DejaVuSans-2e"/>
     <use x="95.410156" xlink:href="#DejaVuSans-30"/>
    </g>
   </g>
   <g id="text_9">
    <!-- 0.089 -->
    <g transform="translate(187.0975 182)scale(0.16 -0.16)">
     <use xlink:href="#DejaVuSans-30"/>
     <use x="63.623047" xlink:href="#DejaVuSans-2e"/>
     <use x="95.410156" xlink:href="#DejaVuSans-30"/>
     <use x="159.033203" xlink:href="#DejaVuSans-38"/>
     <use x="222.65625" xlink:href="#DejaVuSans-39"/>
    </g>
   </g>
  </g>
 </g>
 <defs>
  <clipPath id="pf0fb894d58">
   <rect height="180" width="180" x="180" y="72"/>
  </clipPath>
 </defs>
</svg>
