<?xml version="1.0" encoding="utf-8" standalone="no"?>
<!DOCTYPE svg PUBLIC "-//W3C//DTD SVG 1.1//EN"
  "http://www.w3.org/Graphics/SVG/1.1/DTD/svg11.dtd">
<!-- Created with matplotlib (http://matplotlib.org/) -->
<svg height="360pt" version="1.1" viewBox="0 0 720 360" width="720pt" xmlns="http://www.w3.org/2000/svg" xmlns:xlink="http://www.w3.org/1999/xlink">
 <defs>
  <style type="text/css">
*{stroke-linecap:butt;stroke-linejoin:round;}
  </style>
 </defs>
 <g id="figure_1">
  <g id="patch_1">
   <path d="M 0 360 
L 720 360 
L 720 0 
L 0 0 
z
" style="fill:none;"/>
  </g>
  <g id="axes_1">
   <g id="patch_2">
    <path clip-path="url(#p7b2c7e839c)" d="M 180 0 
L 270 0 
L 270 90 
L 180 90 
z
" style="fill:#ff0000;stroke:#ff0000;stroke-linejoin:miter;"/>
   </g>
   <g id="patch_3">
    <path clip-path="url(#p7b2c7e839c)" d="M 180 90 
L 270 90 
L 270 180 
L 180 180 
z
" style="fill:#ffffff;stroke:#ffffff;stroke-linejoin:miter;"/>
   </g>
   <g id="patch_4">
    <path clip-path="url(#p7b2c7e839c)" d="M 180 180 
L 270 180 
L 270 270 
L 180 270 
z
" style="fill:#ffffff;stroke:#ffffff;stroke-linejoin:miter;"/>
   </g>
   <g id="patch_5">
    <path clip-path="url(#p7b2c7e839c)" d="M 180 270 
L 270 270 
L 270 360 
L 180 360 
z
" style="fill:#ff0000;stroke:#ff0000;stroke-linejoin:miter;"/>
   </g>
   <g id="patch_6">
    <path clip-path="url(#p7b2c7e839c)" d="M 180 360 
L 270 360 
L 270 450 
L 180 450 
z
" style="fill:#ffffff;stroke:#ffffff;stroke-linejoin:miter;"/>
   </g>
   <g id="patch_7">
    <path clip-path="url(#p7b2c7e839c)" d="M 180 450 
L 270 450 
L 270 540 
L 180 540 
z
" style="fill:#ffffff;stroke:#ffffff;stroke-linejoin:miter;"/>
   </g>
   <g id="patch_8">
    <path clip-path="url(#p7b2c7e839c)" d="M 180 540 
L 270 540 
L 270 630 
L 180 630 
z
" style="fill:#ff0000;stroke:#ff0000;stroke-linejoin:miter;"/>
   </g>
   <g id="patch_9">
    <path clip-path="url(#p7b2c7e839c)" d="M 180 630 
L 270 630 
L 270 720 
L 180 720 
z
" style="fill:#ffffff;stroke:#ffffff;stroke-linejoin:miter;"/>
   </g>
   <g id="patch_10">
    <path clip-path="url(#p7b2c7e839c)" d="M 180 720 
L 270 720 
L 270 810 
L 180 810 
z
" style="fill:#ffffff;stroke:#ffffff;stroke-linejoin:miter;"/>
   </g>
   <g id="patch_11">
    <path clip-path="url(#p7b2c7e839c)" d="M 270 0 
L 360 0 
L 360 90 
L 270 90 
z
" style="fill:#ffffff;stroke:#ffffff;stroke-linejoin:miter;"/>
   </g>
   <g id="patch_12">
    <path clip-path="url(#p7b2c7e839c)" d="M 270 90 
L 360 90 
L 360 180 
L 270 180 
z
" style="fill:#ff0000;stroke:#ff0000;stroke-linejoin:miter;"/>
   </g>
   <g id="patch_13">
    <path clip-path="url(#p7b2c7e839c)" d="M 270 180 
L 360 180 
L 360 270 
L 270 270 
z
" style="fill:#ffffff;stroke:#ffffff;stroke-linejoin:miter;"/>
   </g>
   <g id="patch_14">
    <path clip-path="url(#p7b2c7e839c)" d="M 270 270 
L 360 270 
L 360 360 
L 270 360 
z
" style="fill:#ffffff;stroke:#ffffff;stroke-linejoin:miter;"/>
   </g>
   <g id="patch_15">
    <path clip-path="url(#p7b2c7e839c)" d="M 270 360 
L 360 360 
L 360 450 
L 270 450 
z
" style="fill:#ff0000;stroke:#ff0000;stroke-linejoin:miter;"/>
   </g>
   <g id="patch_16">
    <path clip-path="url(#p7b2c7e839c)" d="M 270 450 
L 360 450 
L 360 540 
L 270 540 
z
" style="fill:#ffffff;stroke:#ffffff;stroke-linejoin:miter;"/>
   </g>
   <g id="patch_17">
    <path clip-path="url(#p7b2c7e839c)" d="M 270 540 
L 360 540 
L 360 630 
L 270 630 
z
" style="fill:#ffffff;stroke:#ffffff;stroke-linejoin:miter;"/>
   </g>
   <g id="patch_18">
    <path clip-path="url(#p7b2c7e839c)" d="M 270 630 
L 360 630 
L 360 720 
L 270 720 
z
" style="fill:#ff0000;stroke:#ff0000;stroke-linejoin:miter;"/>
   </g>
   <g id="patch_19">
    <path clip-path="url(#p7b2c7e839c)" d="M 270 720 
L 360 720 
L 360 810 
L 270 810 
z
" style="fill:#ffffff;stroke:#ffffff;stroke-linejoin:miter;"/>
   </g>
   <g id="patch_20">
    <path clip-path="url(#p7b2c7e839c)" d="M 360 0 
L 450 0 
L 450 90 
L 360 90 
z
" style="fill:#ffffff;stroke:#ffffff;stroke-linejoin:miter;"/>
   </g>
   <g id="patch_21">
    <path clip-path="url(#p7b2c7e839c)" d="M 360 90 
L 450 90 
L 450 180 
L 360 180 
z
" style="fill:#ffffff;stroke:#ffffff;stroke-linejoin:miter;"/>
   </g>
   <g id="patch_22">
    <path clip-path="url(#p7b2c7e839c)" d="M 360 180 
L 450 180 
L 450 270 
L 360 270 
z
" style="fill:#ff0000;stroke:#ff0000;stroke-linejoin:miter;"/>
   </g>
   <g id="patch_23">
    <path clip-path="url(#p7b2c7e839c)" d="M 360 270 
L 450 270 
L 450 360 
L 360 360 
z
" style="fill:#ffffff;stroke:#ffffff;stroke-linejoin:miter;"/>
   </g>
   <g id="patch_24">
    <path clip-path="url(#p7b2c7e839c)" d="M 360 360 
L 450 360 
L 450 450 
L 360 450 
z
" style="fill:#ffffff;stroke:#ffffff;stroke-linejoin:miter;"/>
   </g>
   <g id="patch_25">
    <path clip-path="url(#p7b2c7e839c)" d="M 360 450 
L 450 450 
L 450 540 
L 360 540 
z
" style="fill:#ff0000;stroke:#ff0000;stroke-linejoin:miter;"/>
   </g>
   <g id="patch_26">
    <path clip-path="url(#p7b2c7e839c)" d="M 360 540 
L 450 540 
L 450 630 
L 360 630 
z
" style="fill:#ffffff;stroke:#ffffff;stroke-linejoin:miter;"/>
   </g>
   <g id="patch_27">
    <path clip-path="url(#p7b2c7e839c)" d="M 360 630 
L 450 630 
L 450 720 
L 360 720 
z
" style="fill:#ffffff;stroke:#ffffff;stroke-linejoin:miter;"/>
   </g>
   <g id="patch_28">
    <path clip-path="url(#p7b2c7e839c)" d="M 360 720 
L 450 720 
L 450 810 
L 360 810 
z
" style="fill:#ff0000;stroke:#ff0000;stroke-linejoin:miter;"/>
   </g>
   <g id="patch_29">
    <path clip-path="url(#p7b2c7e839c)" d="M 450 0 
L 540 0 
L 540 90 
L 450 90 
z
" style="fill:#ff0000;stroke:#ff0000;stroke-linejoin:miter;"/>
   </g>
   <g id="patch_30">
    <path clip-path="url(#p7b2c7e839c)" d="M 450 90 
L 540 90 
L 540 180 
L 450 180 
z
" style="fill:#ffffff;stroke:#ffffff;stroke-linejoin:miter;"/>
   </g>
   <g id="patch_31">
    <path clip-path="url(#p7b2c7e839c)" d="M 450 180 
L 540 180 
L 540 270 
L 450 270 
z
" style="fill:#ffffff;stroke:#ffffff;stroke-linejoin:miter;"/>
   </g>
   <g id="patch_32">
    <path clip-path="url(#p7b2c7e839c)" d="M 450 270 
L 540 270 
L 540 360 
L 450 360 
z
" style="fill:#00ff00;stroke:#00ff00;stroke-linejoin:miter;"/>
   </g>
   <g id="patch_33">
    <path clip-path="url(#p7b2c7e839c)" d="M 450 360 
L 540 360 
L 540 450 
L 450 450 
z
" style="fill:#ffffff;stroke:#ffffff;stroke-linejoin:miter;"/>
   </g>
   <g id="patch_34">
    <path clip-path="url(#p7b2c7e839c)" d="M 450 450 
L 540 450 
L 540 540 
L 450 540 
z
" style="fill:#ffffff;stroke:#ffffff;stroke-linejoin:miter;"/>
   </g>
   <g id="patch_35">
    <path clip-path="url(#p7b2c7e839c)" d="M 450 540 
L 540 540 
L 540 630 
L 450 630 
z
" style="fill:#00ff00;stroke:#00ff00;stroke-linejoin:miter;"/>
   </g>
   <g id="patch_36">
    <path clip-path="url(#p7b2c7e839c)" d="M 450 630 
L 540 630 
L 540 720 
L 450 720 
z
" style="fill:#ffffff;stroke:#ffffff;stroke-linejoin:miter;"/>
   </g>
   <g id="patch_37">
    <path clip-path="url(#p7b2c7e839c)" d="M 450 720 
L 540 720 
L 540 810 
L 450 810 
z
" style="fill:#ffffff;stroke:#ffffff;stroke-linejoin:miter;"/>
   </g>
   <g id="patch_38">
    <path clip-path="url(#p7b2c7e839c)" d="M 540 0 
L 630 0 
L 630 90 
L 540 90 
z
" style="fill:#ffffff;stroke:#ffffff;stroke-linejoin:miter;"/>
   </g>
   <g id="patch_39">
    <path clip-path="url(#p7b2c7e839c)" d="M 540 90 
L 630 90 
L 630 180 
L 540 180 
z
" style="fill:#ff0000;stroke:#ff0000;stroke-linejoin:miter;"/>
   </g>
   <g id="patch_40">
    <path clip-path="url(#p7b2c7e839c)" d="M 540 180 
L 630 180 
L 630 270 
L 540 270 
z
" style="fill:#ffffff;stroke:#ffffff;stroke-linejoin:miter;"/>
   </g>
   <g id="patch_41">
    <path clip-path="url(#p7b2c7e839c)" d="M 540 270 
L 630 270 
L 630 360 
L 540 360 
z
" style="fill:#ffffff;stroke:#ffffff;stroke-linejoin:miter;"/>
   </g>
   <g id="patch_42">
    <path clip-path="url(#p7b2c7e839c)" d="M 540 360 
L 630 360 
L 630 450 
L 540 450 
z
" style="fill:#00ff00;stroke:#00ff00;stroke-linejoin:miter;"/>
   </g>
   <g id="patch_43">
    <path clip-path="url(#p7b2c7e839c)" d="M 540 450 
L 630 450 
L 630 540 
L 540 540 
z
" style="fill:#ffffff;stroke:#ffffff;stroke-linejoin:miter;"/>
   </g>
   <g id="patch_44">
    <path clip-path="url(#p7b2c7e839c)" d="M 540 540 
L 630 540 
L 630 630 
L 540 630 
z
" style="fill:#ffffff;stroke:#ffffff;stroke-linejoin:miter;"/>
   </g>
   <g id="patch_45">
    <path clip-path="url(#p7b2c7e839c)" d="M 540 630 
L 630 630 
L 630 720 
L 540 720 
z
" style="fill:#00ff00;stroke:#00ff00;stroke-linejoin:miter;"/>
   </g>
   <g id="patch_46">
    <path clip-path="url(#p7b2c7e839c)" d="M 540 720 
L 630 720 
L 630 810 
L 540 810 
z
" style="fill:#ffffff;stroke:#ffffff;stroke-linejoin:miter;"/>
   </g>
   <g id="patch_47">
    <path clip-path="url(#p7b2c7e839c)" d="M 630 0 
L 720 0 
L 720 90 
L 630 90 
z
" style="fill:#ffffff;stroke:#ffffff;stroke-linejoin:miter;"/>
   </g>
   <g id="patch_48">
    <path clip-path="url(#p7b2c7e839c)" d="M 630 90 
L 720 90 
L 720 180 
L 630 180 
z
" style="fill:#ffffff;stroke:#ffffff;stroke-linejoin:miter;"/>
   </g>
   <g id="patch_49">
    <path clip-path="url(#p7b2c7e839c)" d="M 630 180 
L 720 180 
L 720 270 
L 630 270 
z
" style="fill:#ff0000;stroke:#ff0000;stroke-linejoin:miter;"/>
   </g>
   <g id="patch_50">
    <path clip-path="url(#p7b2c7e839c)" d="M 630 270 
L 720 270 
L 720 360 
L 630 360 
z
" style="fill:#ffffff;stroke:#ffffff;stroke-linejoin:miter;"/>
   </g>
   <g id="patch_51">
    <path clip-path="url(#p7b2c7e839c)" d="M 630 360 
L 720 360 
L 720 450 
L 630 450 
z
" style="fill:#ffffff;stroke:#ffffff;stroke-linejoin:miter;"/>
   </g>
   <g id="patch_52">
    <path clip-path="url(#p7b2c7e839c)" d="M 630 450 
L 720 450 
L 720 540 
L 630 540 
z
" style="fill:#00ff00;stroke:#00ff00;stroke-linejoin:miter;"/>
   </g>
   <g id="patch_53">
    <path clip-path="url(#p7b2c7e839c)" d="M 630 540 
L 720 540 
L 720 630 
L 630 630 
z
" style="fill:#ffffff;stroke:#ffffff;stroke-linejoin:miter;"/>
   </g>
   <g id="patch_54">
    <path clip-path="url(#p7b2c7e839c)" d="M 630 630 
L 720 630 
L 720 720 
L 630 720 
z
" style="fill:#ffffff;stroke:#ffffff;stroke-linejoin:miter;"/>
   </g>
   <g id="patch_55">
    <path clip-path="url(#p7b2c7e839c)" d="M 630 720 
L 720 720 
L 720 810 
L 630 810 
z
" style="fill:#00ff00;stroke:#00ff00;stroke-linejoin:miter;"/>
   </g>
   <g id="patch_56">
    <path clip-path="url(#p7b2c7e839c)" d="M 720 0 
L 810 0 
L 810 90 
L 720 90 
z
" style="fill:#ff0000;stroke:#ff0000;stroke-linejoin:miter;"/>
   </g>
   <g id="patch_57">
    <path clip-path="url(#p7b2c7e839c)" d="M 720 90 
L 810 90 
L 810 180 
L 720 180 
z
" style="fill:#ffffff;stroke:#ffffff;stroke-linejoin:miter;"/>
   </g>
   <g id="patch_58">
    <path clip-path="url(#p7b2c7e839c)" d="M 720 180 
L 810 180 
L 810 270 
L 720 270 
z
" style="fill:#ffffff;stroke:#ffffff;stroke-linejoin:miter;"/>
   </g>
   <g id="patch_59">
    <path clip-path="url(#p7b2c7e839c)" d="M 720 270 
L 810 270 
L 810 360 
L 720 360 
z
" style="fill:#00ff00;stroke:#00ff00;stroke-linejoin:miter;"/>
   </g>
   <g id="patch_60">
    <path clip-path="url(#p7b2c7e839c)" d="M 720 360 
L 810 360 
L 810 450 
L 720 450 
z
" style="fill:#ffffff;stroke:#ffffff;stroke-linejoin:miter;"/>
   </g>
   <g id="patch_61">
    <path clip-path="url(#p7b2c7e839c)" d="M 720 450 
L 810 450 
L 810 540 
L 720 540 
z
" style="fill:#ffffff;stroke:#ffffff;stroke-linejoin:miter;"/>
   </g>
   <g id="patch_62">
    <path clip-path="url(#p7b2c7e839c)" d="M 720 540 
L 810 540 
L 810 630 
L 720 630 
z
" style="fill:#0000ff;stroke:#0000ff;stroke-linejoin:miter;"/>
   </g>
   <g id="patch_63">
    <path clip-path="url(#p7b2c7e839c)" d="M 720 630 
L 810 630 
L 810 720 
L 720 720 
z
" style="fill:#ffffff;stroke:#ffffff;stroke-linejoin:miter;"/>
   </g>
   <g id="patch_64">
    <path clip-path="url(#p7b2c7e839c)" d="M 720 720 
L 810 720 
L 810 810 
L 720 810 
z
" style="fill:#ffffff;stroke:#ffffff;stroke-linejoin:miter;"/>
   </g>
   <g id="patch_65">
    <path clip-path="url(#p7b2c7e839c)" d="M 810 0 
L 900 0 
L 900 90 
L 810 90 
z
" style="fill:#ffffff;stroke:#ffffff;stroke-linejoin:miter;"/>
   </g>
   <g id="patch_66">
    <path clip-path="url(#p7b2c7e839c)" d="M 810 90 
L 900 90 
L 900 180 
L 810 180 
z
" style="fill:#ff0000;stroke:#ff0000;stroke-linejoin:miter;"/>
   </g>
   <g id="patch_67">
    <path clip-path="url(#p7b2c7e839c)" d="M 810 180 
L 900 180 
L 900 270 
L 810 270 
z
" style="fill:#ffffff;stroke:#ffffff;stroke-linejoin:miter;"/>
   </g>
   <g id="patch_68">
    <path clip-path="url(#p7b2c7e839c)" d="M 810 270 
L 900 270 
L 900 360 
L 810 360 
z
" style="fill:#ffffff;stroke:#ffffff;stroke-linejoin:miter;"/>
   </g>
   <g id="patch_69">
    <path clip-path="url(#p7b2c7e839c)" d="M 810 360 
L 900 360 
L 900 450 
L 810 450 
z
" style="fill:#00ff00;stroke:#00ff00;stroke-linejoin:miter;"/>
   </g>
   <g id="patch_70">
    <path clip-path="url(#p7b2c7e839c)" d="M 810 450 
L 900 450 
L 900 540 
L 810 540 
z
" style="fill:#ffffff;stroke:#ffffff;stroke-linejoin:miter;"/>
   </g>
   <g id="patch_71">
    <path clip-path="url(#p7b2c7e839c)" d="M 810 540 
L 900 540 
L 900 630 
L 810 630 
z
" style="fill:#ffffff;stroke:#ffffff;stroke-linejoin:miter;"/>
   </g>
   <g id="patch_72">
    <path clip-path="url(#p7b2c7e839c)" d="M 810 630 
L 900 630 
L 900 720 
L 810 720 
z
" style="fill:#0000ff;stroke:#0000ff;stroke-linejoin:miter;"/>
   </g>
   <g id="patch_73">
    <path clip-path="url(#p7b2c7e839c)" d="M 810 720 
L 900 720 
L 900 810 
L 810 810 
z
" style="fill:#ffffff;stroke:#ffffff;stroke-linejoin:miter;"/>
   </g>
   <g id="patch_74">
    <path clip-path="url(#p7b2c7e839c)" d="M 900 0 
L 990 0 
L 990 90 
L 900 90 
z
" style="fill:#ffffff;stroke:#ffffff;stroke-linejoin:miter;"/>
   </g>
   <g id="patch_75">
    <path clip-path="url(#p7b2c7e839c)" d="M 900 90 
L 990 90 
L 990 180 
L 900 180 
z
" style="fill:#ffffff;stroke:#ffffff;stroke-linejoin:miter;"/>
   </g>
   <g id="patch_76">
    <path clip-path="url(#p7b2c7e839c)" d="M 900 180 
L 990 180 
L 990 270 
L 900 270 
z
" style="fill:#ff0000;stroke:#ff0000;stroke-linejoin:miter;"/>
   </g>
   <g id="patch_77">
    <path clip-path="url(#p7b2c7e839c)" d="M 900 270 
L 990 270 
L 990 360 
L 900 360 
z
" style="fill:#ffffff;stroke:#ffffff;stroke-linejoin:miter;"/>
   </g>
   <g id="patch_78">
    <path clip-path="url(#p7b2c7e839c)" d="M 900 360 
L 990 360 
L 990 450 
L 900 450 
z
" style="fill:#ffffff;stroke:#ffffff;stroke-linejoin:miter;"/>
   </g>
   <g id="patch_79">
    <path clip-path="url(#p7b2c7e839c)" d="M 900 450 
L 990 450 
L 990 540 
L 900 540 
z
" style="fill:#00ff00;stroke:#00ff00;stroke-linejoin:miter;"/>
   </g>
   <g id="patch_80">
    <path clip-path="url(#p7b2c7e839c)" d="M 900 540 
L 990 540 
L 990 630 
L 900 630 
z
" style="fill:#ffffff;stroke:#ffffff;stroke-linejoin:miter;"/>
   </g>
   <g id="patch_81">
    <path clip-path="url(#p7b2c7e839c)" d="M 900 630 
L 990 630 
L 990 720 
L 900 720 
z
" style="fill:#ffffff;stroke:#ffffff;stroke-linejoin:miter;"/>
   </g>
   <g id="patch_82">
    <path clip-path="url(#p7b2c7e839c)" d="M 900 720 
L 990 720 
L 990 810 
L 900 810 
z
" style="fill:#0000ff;stroke:#0000ff;stroke-linejoin:miter;"/>
   </g>
   <g id="matplotlib.axis_1"/>
   <g id="matplotlib.axis_2"/>
   <g id="line2d_1">
    <path clip-path="url(#p7b2c7e839c)" d="M 180 0 
L 180 270 
L 450 270 
L 450 0 
L 180 0 
" style="fill:none;stroke:#ff00ff;stroke-linecap:square;stroke-width:8;"/>
   </g>
  </g>
 </g>
 <defs>
  <clipPath id="p7b2c7e839c">
   <rect height="360" width="360" x="180" y="0"/>
  </clipPath>
 </defs>
</svg>
