<?xml version="1.0" encoding="UTF-8" standalone="no"?>
<!-- Created with matplotlib (http://matplotlib.org/) -->

<svg
   xmlns:dc="http://purl.org/dc/elements/1.1/"
   xmlns:cc="http://creativecommons.org/ns#"
   xmlns:rdf="http://www.w3.org/1999/02/22-rdf-syntax-ns#"
   xmlns:svg="http://www.w3.org/2000/svg"
   xmlns="http://www.w3.org/2000/svg"
   xmlns:xlink="http://www.w3.org/1999/xlink"
   xmlns:sodipodi="http://sodipodi.sourceforge.net/DTD/sodipodi-0.dtd"
   xmlns:inkscape="http://www.inkscape.org/namespaces/inkscape"
   height="360pt"
   version="1.1"
   viewBox="0 0 720 360"
   width="720pt"
   id="svg2"
   inkscape:version="0.91 r13725"
   sodipodi:docname="gp_rejection_samples_data.svg">
  <metadata
     id="metadata47">
    <rdf:RDF>
      <cc:Work
         rdf:about="">
        <dc:format>image/svg+xml</dc:format>
        <dc:type
           rdf:resource="http://purl.org/dc/dcmitype/StillImage" />
      </cc:Work>
    </rdf:RDF>
  </metadata>
  <sodipodi:namedview
     pagecolor="#ffffff"
     bordercolor="#666666"
     borderopacity="1"
     objecttolerance="10"
     gridtolerance="10"
     guidetolerance="10"
     inkscape:pageopacity="0"
     inkscape:pageshadow="2"
     inkscape:window-width="686"
     inkscape:window-height="480"
     id="namedview45"
     showgrid="false"
     inkscape:zoom="0.38222222"
     inkscape:cx="902.61628"
     inkscape:cy="225"
     inkscape:window-x="0"
     inkscape:window-y="0"
     inkscape:window-maximized="0"
     inkscape:current-layer="svg2" />
  <defs
     id="defs4">
    <style
       type="text/css"
       id="style6">
*{stroke-linecap:butt;stroke-linejoin:round;stroke-miterlimit:100000;}
  </style>
  </defs>
  <g
     style="stroke-linecap:butt;stroke-linejoin:round;stroke-miterlimit:100000"
     id="axes_1">
    <g
       style="stroke-linecap:butt;stroke-linejoin:round;stroke-miterlimit:100000"
       id="line2d_1">
      <path
         inkscape:connector-curvature="0"
         id="path14"
         style="fill:none;stroke:#0000ff;stroke-linecap:square;stroke-linejoin:round;stroke-miterlimit:100000"
         d="m 90,162.54105 5.636364,-1.40977 5.636366,-1.38977 5.63636,-1.38169 5.63637,-1.38633 5.63636,-1.40361 5.63636,-1.43275 5.63636,-1.47227 5.63637,-1.5201 5.63636,-1.57371 5.63637,-1.63026 5.63636,-1.68673 5.63636,-1.74006 5.63637,-1.78726 5.63636,-1.82562 5.63636,-1.85269 5.63637,-1.86645 5.63636,-1.86532 5.63636,-1.8482 5.63637,-1.8145 5.63636,-1.76411 5.63637,-1.69744 5.63636,-1.6153 5.63636,-1.5189 5.63637,-1.40988 5.63636,-1.29006 5.63636,-1.16161 5.63637,-1.02682 5.63636,-0.88809 5.63636,-0.74793 5.63637,-0.60876 5.63636,-0.47302 5.63637,-0.34292 5.63636,-0.22059 5.63636,-0.10786 5.63637,-0.006 5.63636,0.0828 5.63636,0.15844 5.63637,0.22003 5.63636,0.26725 5.63636,0.30013 5.63637,0.31895 5.63636,0.32432 5.63637,0.31706 5.63636,0.29821 5.63636,0.26894 5.63637,0.23066 5.63636,0.18477 5.63636,0.13286 5.63637,0.0766 5.63636,0.0176 5.63636,-0.0424 5.63637,-0.10152 5.63636,-0.15801 5.63637,-0.21002 5.63636,-0.25571 5.63636,-0.29326 5.63637,-0.32094 5.63636,-0.33707 5.63636,-0.34012 5.63637,-0.32881 5.63636,-0.30203 5.63636,-0.25898 5.63637,-0.19927 5.63636,-0.12277 5.63637,-0.0298 5.63636,0.0788 5.63636,0.20202 5.63637,0.33832 5.63636,0.48587 5.63636,0.64257 5.63637,0.80612 5.63636,0.97405 5.63636,1.1439 5.63637,1.31313 5.63636,1.4794 5.63637,1.6404 5.63636,1.79409 5.63636,1.93856 5.63637,2.07221 5.63636,2.19357 5.63636,2.30141 5.63637,2.3947 5.63636,2.47251 5.63637,2.53402 5.63636,2.57854 5.63636,2.6054 5.63637,2.61402 5.63636,2.6039 5.63636,2.57459 5.63637,2.52583 5.63636,2.45753 5.63636,2.36982 5.63637,2.26317 5.63636,2.1384 5.63637,1.9967 5.63636,1.83973 5.63636,1.66956 5.63637,1.4887 5.63636,1.3"
         clip-path="url(#pd2928c50bc)" />
    </g>
    <g
       style="stroke-linecap:butt;stroke-linejoin:round;stroke-miterlimit:100000"
       id="line2d_2">
      <path
         inkscape:connector-curvature="0"
         id="path17"
         style="fill:none;stroke:#008000;stroke-linecap:square;stroke-linejoin:round;stroke-miterlimit:100000"
         d="m 90,168.07745 5.636364,-3.14091 5.636366,-3.12256 5.63636,-3.05856 5.63637,-2.94949 5.63636,-2.79664 5.63636,-2.60213 5.63636,-2.36895 5.63637,-2.101 5.63636,-1.80314 5.63637,-1.48111 5.63636,-1.14153 5.63636,-0.79177 5.63637,-0.43985 5.63636,-0.0941 5.63636,0.23673 5.63637,0.54423 5.63636,0.82015 5.63636,1.05691 5.63637,1.24786 5.63636,1.38745 5.63637,1.4716 5.63636,1.49768 5.63636,1.46485 5.63637,1.37389 5.63636,1.22739 5.63636,1.02953 5.63637,0.78599 5.63636,0.50377 5.63636,0.19088 5.63637,-0.14382 5.63636,-0.4911 5.63637,-0.84148 5.63636,-1.18567 5.63636,-1.5148 5.63637,-1.82061 5.63636,-2.09577 5.63636,-2.33397 5.63637,-2.53003 5.63636,-2.68002 5.63636,-2.78115 5.63637,-2.83192 5.63636,-2.83193 5.63637,-2.78181 5.63636,-2.68318 5.63636,-2.53851 5.63637,-2.35095 5.63636,-2.12438 5.63636,-1.86314 5.63637,-1.57213 5.63636,-1.25662 5.63636,-0.92224 5.63637,-0.57506 5.63636,-0.22133 5.63637,0.13236 5.63636,0.4792 5.63636,0.81226 5.63637,1.12452 5.63636,1.40905 5.63636,1.65905 5.63637,1.86816 5.63636,2.03054 5.63636,2.14113 5.63637,2.19587 5.63636,2.19188 5.63637,2.12768 5.63636,2.00336 5.63636,1.82065 5.63637,1.58307 5.63636,1.29582 5.63636,0.96582 5.63637,0.60147 5.63636,0.21245 5.63636,-0.19049 5.63637,-0.59599 5.63636,-0.99239 5.63637,-1.36814 5.63636,-1.71231 5.63636,-2.01486 5.63637,-2.2671 5.63636,-2.46204 5.63636,-2.59453 5.63637,-2.66154 5.63636,-2.6622 5.63637,-2.5978 5.63636,-2.47162 5.63636,-2.28894 5.63637,-2.05652 5.63636,-1.78254 5.63636,-1.47607 5.63637,-1.14681 5.63636,-0.80465 5.63636,-0.45934 5.63637,-0.12022 5.63636,0.2042 5.63637,0.50625 5.63636,0.77948 5.63636,1.01858 5.63637,1.21958 5.63636,1.37968"
         clip-path="url(#pd2928c50bc)" />
    </g>
    <g
       style="stroke-linecap:butt;stroke-linejoin:round;stroke-miterlimit:100000"
       id="line2d_3">
      <path
         inkscape:connector-curvature="0"
         id="path20"
         style="fill:none;stroke:#ff0000;stroke-linecap:square;stroke-linejoin:round;stroke-miterlimit:100000"
         d="m 90,167.69789 5.636364,-0.91036 5.636366,-1.03054 5.63636,-1.12618 5.63637,-1.19889 5.63636,-1.2503 5.63636,-1.2821 5.63636,-1.29599 5.63637,-1.29357 5.63636,-1.2764 5.63637,-1.24595 5.63636,-1.20359 5.63636,-1.15061 5.63637,-1.08816 5.63636,-1.01743 5.63636,-0.93945 5.63637,-0.85533 5.63636,-0.76614 5.63636,-0.673 5.63637,-0.57709 5.63636,-0.4797 5.63637,-0.38221 5.63636,-0.2861 5.63636,-0.19301 5.63637,-0.10462 5.63636,-0.0228 5.63636,0.0507 5.63637,0.11392 5.63636,0.165 5.63636,0.20213 5.63637,0.22365 5.63636,0.22806 5.63637,0.21407 5.63636,0.18068 5.63636,0.12727 5.63637,0.0535 5.63636,-0.0403 5.63636,-0.15371 5.63637,-0.28543 5.63636,-0.43383 5.63636,-0.59671 5.63637,-0.77129 5.63636,-0.95434 5.63637,-1.14213 5.63636,-1.3305 5.63636,-1.515 5.63637,-1.69095 5.63636,-1.85358 5.63636,-1.99817 5.63637,-2.1202 5.63636,-2.21555 5.63636,-2.28059 5.63637,-2.31239 5.63636,-2.30882 5.63637,-2.26864 5.63636,-2.19163 5.63636,-2.0785 5.63637,-1.93103 5.63636,-1.75188 5.63636,-1.54454 5.63637,-1.31324 5.63636,-1.06273 5.63636,-0.79812 5.63637,-0.5247 5.63636,-0.24774 5.63637,0.0277 5.63636,0.29671 5.63636,0.55513 5.63637,0.79908 5.63636,1.02534 5.63636,1.23125 5.63637,1.41469 5.63636,1.57405 5.63636,1.70812 5.63637,1.81607 5.63636,1.89734 5.63637,1.95158 5.63636,1.97864 5.63636,1.97852 5.63637,1.95149 5.63636,1.89798 5.63636,1.81881 5.63637,1.71519 5.63636,1.58887 5.63637,1.44218 5.63636,1.27818 5.63636,1.10061 5.63637,0.91402 5.63636,0.72359 5.63636,0.53513 5.63637,0.35488 5.63636,0.18931 5.63636,0.0449 5.63637,-0.0723 5.63636,-0.15664 5.63637,-0.20356 5.63636,-0.20957 5.63636,-0.17271 5.63637,-0.0926 5.63636,0.0296"
         clip-path="url(#pd2928c50bc)" />
    </g>
    <g
       style="stroke-linecap:butt;stroke-linejoin:round;stroke-miterlimit:100000"
       id="line2d_4">
      <path
         inkscape:connector-curvature="0"
         id="path23"
         style="fill:none;stroke:#00bfbf;stroke-linecap:square;stroke-linejoin:round;stroke-miterlimit:100000"
         d="m 90,153.12691 5.636364,0.35051 5.636366,0.22042 5.63636,0.0853 5.63637,-0.0529 5.63636,-0.19268 5.63636,-0.3324 5.63636,-0.47062 5.63637,-0.60581 5.63636,-0.73647 5.63637,-0.86097 5.63636,-0.97761 5.63636,-1.08458 5.63637,-1.18008 5.63636,-1.2622 5.63636,-1.32914 5.63637,-1.37923 5.63636,-1.411 5.63636,-1.4233 5.63637,-1.41542 5.63636,-1.38707 5.63637,-1.33865 5.63636,-1.27111 5.63636,-1.18609 5.63637,-1.08597 5.63636,-0.97372 5.63636,-0.85301 5.63637,-0.72796 5.63636,-0.60323 5.63636,-0.48369 5.63637,-0.37437 5.63636,-0.2803 5.63637,-0.20626 5.63636,-0.1566 5.63636,-0.13513 5.63637,-0.14484 5.63636,-0.18786 5.63636,-0.26525 5.63637,-0.37697 5.63636,-0.52177 5.63636,-0.69727 5.63637,-0.8999 5.63636,-1.12501 5.63637,-1.36698 5.63636,-1.61939 5.63636,-1.87513 5.63637,-2.12665 5.63636,-2.36615 5.63636,-2.58584 5.63637,-2.77809 5.63636,-2.93572 5.63636,-3.05217 5.63637,-3.121723 5.63636,-3.139638 5.63637,-3.102331 L 400,90.70946 l 5.63636,-2.854079 5.63637,-2.642578 5.63636,-2.3748 5.63636,-2.053968 5.63637,-1.684644 5.63636,-1.272595 5.63636,-0.824707 5.63637,-0.348761 5.63636,0.14673 5.63637,0.652783 5.63636,1.160147 5.63636,1.659627 5.63637,2.14226 5.63636,2.599629 5.63636,3.024048 5.63637,3.408776 5.63636,3.748193 5.63636,4.037863 5.63637,4.274686 5.63636,4.45683 5.63637,4.58377 5.63636,4.65617 5.63636,4.67579 5.63637,4.64531 5.63636,4.56824 5.63636,4.4486 5.63637,4.29088 5.63636,4.09979 5.63637,3.88009 5.63636,3.63647 5.63636,3.37345 5.63637,3.09526 5.63636,2.80579 5.63636,2.5086 5.63637,2.20684 5.63636,1.90332 5.63636,1.60053 5.63637,1.30066 5.63636,1.00566 5.63637,0.71727 5.63636,0.43711 5.63636,0.16662 5.63637,-0.0928 L 648,172.13845"
         clip-path="url(#pd2928c50bc)" />
    </g>
    <g
       style="stroke-linecap:butt;stroke-linejoin:round;stroke-miterlimit:100000"
       id="line2d_5">
      <path
         inkscape:connector-curvature="0"
         id="path26"
         style="fill:none;stroke:#bf00bf;stroke-linecap:square;stroke-linejoin:round;stroke-miterlimit:100000"
         d="m 90,194.25262 5.636364,-2.82769 5.636366,-3.10172 5.63636,-3.32611 5.63637,-3.50113 5.63636,-3.62779 5.63636,-3.70778 5.63636,-3.74351 5.63637,-3.73796 5.63636,-3.69477 5.63637,-3.61802 5.63636,-3.51234 5.63636,-3.38264 5.63637,-3.23416 5.63636,-3.07226 5.63636,-2.90229 5.63637,-2.72942 5.63636,-2.55848 5.63636,-2.39377 5.63637,-2.23888 5.63636,-2.09657 5.63637,-1.96859 5.63636,-1.85563 5.63636,-1.75727 5.63637,-1.67203 5.63636,-1.59736 5.63636,-1.52986 5.63637,-1.46551 5.63636,-1.39974 5.63636,-1.32791 5.63637,-1.24547 5.63636,-1.14835 5.63637,-1.03314 5.63636,-0.89749 5.63636,-0.7402 5.63637,-0.56136 5.63636,-0.36251 5.63636,-0.14647 5.63637,0.0826 5.63636,0.31939 5.63636,0.55791 5.63637,0.79146 5.63636,1.01315 5.63637,1.21619 5.63636,1.39423 5.63636,1.54163 5.63637,1.65381 5.63636,1.72734 5.63636,1.7602 5.63637,1.75173 5.63636,1.70269 5.63636,1.6152 5.63637,1.49255 5.63636,1.33908 5.63637,1.15993 5.63636,0.96084 5.63636,0.74795 5.63637,0.52755 5.63636,0.30595 5.63636,0.0892 5.63637,-0.11671 5.63636,-0.30642 5.63636,-0.47485 5.63637,-0.61735 5.63636,-0.72982 5.63637,-0.80859 5.63636,-0.85051 5.63636,-0.85299 5.63637,-0.81394 5.63636,-0.73202 5.63636,-0.60654 5.63637,-0.43762 5.63636,-0.22634 5.63636,0.0253 5.63637,0.31409 5.63636,0.63584 5.63637,0.98515 5.63636,1.35555 5.63636,1.73951 5.63637,2.12871 5.63636,2.51407 5.63636,2.88616 5.63637,3.23537 5.63636,3.55227 5.63637,3.82795 5.63636,4.0543 5.63636,4.22434 5.63637,4.33253 5.63636,4.37493 5.63636,4.34939 5.63637,4.25565 5.63636,4.09532 5.63636,3.8719 5.63637,3.59049 5.63636,3.25778 5.63637,2.88166 5.63636,2.47095 5.63636,2.03511 5.63637,1.58386 5.63636,1.12691"
         clip-path="url(#pd2928c50bc)" />
    </g>
    <g
       style="stroke-linecap:butt;stroke-linejoin:round;stroke-miterlimit:100000"
       id="line2d_6">
      <defs
         id="defs29">
        <path
           inkscape:connector-curvature="0"
           style="stroke:#000000;stroke-width:0.5;stroke-linecap:butt;stroke-linejoin:round;stroke-miterlimit:100000"
           id="m7afc873cba"
           d="M 0,10 C 2.652031,10 5.195799,8.946337 7.071068,7.071068 8.946337,5.195799 10,2.652031 10,0 10,-2.652031 8.946337,-5.195799 7.071068,-7.071068 5.195799,-8.946337 2.652031,-10 0,-10 -2.652031,-10 -5.195799,-8.946337 -7.071068,-7.071068 -8.946337,-5.195799 -10,-2.652031 -10,0 -10,2.652031 -8.946337,5.195799 -7.071068,7.071068 -5.195799,8.946337 -2.652031,10 0,10 Z" />
      </defs>
      <g
         style="stroke-linecap:butt;stroke-linejoin:round;stroke-miterlimit:100000"
         id="g32"
         clip-path="url(#pd2928c50bc)">
        <use
           height="100%"
           width="100%"
           id="use34"
           y="152.05675"
           xlink:href="#m7afc873cba"
           x="146.36363"
           style="fill:#ffffff;stroke:#000000;stroke-width:0.5;stroke-linecap:butt;stroke-linejoin:round;stroke-miterlimit:100000" />
        <use
           height="100%"
           width="100%"
           id="use36"
           y="118.89289"
           xlink:href="#m7afc873cba"
           x="371.81818"
           style="fill:#ffffff;stroke:#000000;stroke-width:0.5;stroke-linecap:butt;stroke-linejoin:round;stroke-miterlimit:100000" />
        <use
           height="100%"
           width="100%"
           id="use38"
           y="127.32473"
           xlink:href="#m7afc873cba"
           x="540.90912"
           style="fill:#ffffff;stroke:#000000;stroke-width:0.5;stroke-linecap:butt;stroke-linejoin:round;stroke-miterlimit:100000" />
      </g>
    </g>
  </g>
  <defs
     id="defs40">
    <clipPath
       id="pd2928c50bc">
      <rect
         height="279.0"
         width="558.0"
         x="90.0"
         y="36.0"
         id="rect43" />
    </clipPath>
  </defs>
</svg>
