<?xml version="1.0" encoding="utf-8" standalone="no"?>
<!DOCTYPE svg PUBLIC "-//W3C//DTD SVG 1.1//EN"
  "http://www.w3.org/Graphics/SVG/1.1/DTD/svg11.dtd">
<!-- Created with matplotlib (https://matplotlib.org/) -->
<svg height="504pt" version="1.1" viewBox="0 0 504 504" width="504pt" xmlns="http://www.w3.org/2000/svg" xmlns:xlink="http://www.w3.org/1999/xlink">
 <metadata>
  <rdf:RDF xmlns:cc="http://creativecommons.org/ns#" xmlns:dc="http://purl.org/dc/elements/1.1/" xmlns:rdf="http://www.w3.org/1999/02/22-rdf-syntax-ns#">
   <cc:Work>
    <dc:type rdf:resource="http://purl.org/dc/dcmitype/StillImage"/>
    <dc:date>2021-06-16T11:16:53.202490</dc:date>
    <dc:format>image/svg+xml</dc:format>
    <dc:creator>
     <cc:Agent>
      <dc:title>Matplotlib v3.3.4, https://matplotlib.org/</dc:title>
     </cc:Agent>
    </dc:creator>
   </cc:Work>
  </rdf:RDF>
 </metadata>
 <defs>
  <style type="text/css">*{stroke-linecap:butt;stroke-linejoin:round;}</style>
 </defs>
 <g id="figure_1">
  <g id="patch_1">
   <path d="M 0 504 
L 504 504 
L 504 0 
L 0 0 
z
" style="fill:none;"/>
  </g>
  <g id="axes_1">
   <g id="patch_2">
    <path d="M 63 441 
L 453.6 441 
L 453.6 60.48 
L 63 60.48 
z
" style="fill:none;"/>
   </g>
   <g id="matplotlib.axis_1">
    <g id="xtick_1">
     <g id="line2d_1">
      <defs>
       <path d="M 0 0 
L 0 3.5 
" id="m45bc52348d" style="stroke:#000000;stroke-width:0.8;"/>
      </defs>
      <g>
       <use style="stroke:#000000;stroke-width:0.8;" x="90.9" xlink:href="#m45bc52348d" y="441"/>
      </g>
     </g>
     <g id="text_1">
      <!-- 2 -->
      <g transform="translate(83.90125 464.716563)scale(0.22 -0.22)">
       <defs>
        <path d="M 19.1875 8.296875 
L 53.609375 8.296875 
L 53.609375 0 
L 7.328125 0 
L 7.328125 8.296875 
Q 12.9375 14.109375 22.625 23.890625 
Q 32.328125 33.6875 34.8125 36.53125 
Q 39.546875 41.84375 41.421875 45.53125 
Q 43.3125 49.21875 43.3125 52.78125 
Q 43.3125 58.59375 39.234375 62.25 
Q 35.15625 65.921875 28.609375 65.921875 
Q 23.96875 65.921875 18.8125 64.3125 
Q 13.671875 62.703125 7.8125 59.421875 
L 7.8125 69.390625 
Q 13.765625 71.78125 18.9375 73 
Q 24.125 74.21875 28.421875 74.21875 
Q 39.75 74.21875 46.484375 68.546875 
Q 53.21875 62.890625 53.21875 53.421875 
Q 53.21875 48.921875 51.53125 44.890625 
Q 49.859375 40.875 45.40625 35.40625 
Q 44.1875 33.984375 37.640625 27.21875 
Q 31.109375 20.453125 19.1875 8.296875 
z
" id="DejaVuSans-50"/>
       </defs>
       <use xlink:href="#DejaVuSans-50"/>
      </g>
     </g>
    </g>
    <g id="xtick_2">
     <g id="line2d_2">
      <g>
       <use style="stroke:#000000;stroke-width:0.8;" x="202.5" xlink:href="#m45bc52348d" y="441"/>
      </g>
     </g>
     <g id="text_2">
      <!-- 4 -->
      <g transform="translate(195.50125 464.716563)scale(0.22 -0.22)">
       <defs>
        <path d="M 37.796875 64.3125 
L 12.890625 25.390625 
L 37.796875 25.390625 
z
M 35.203125 72.90625 
L 47.609375 72.90625 
L 47.609375 25.390625 
L 58.015625 25.390625 
L 58.015625 17.1875 
L 47.609375 17.1875 
L 47.609375 0 
L 37.796875 0 
L 37.796875 17.1875 
L 4.890625 17.1875 
L 4.890625 26.703125 
z
" id="DejaVuSans-52"/>
       </defs>
       <use xlink:href="#DejaVuSans-52"/>
      </g>
     </g>
    </g>
    <g id="xtick_3">
     <g id="line2d_3">
      <g>
       <use style="stroke:#000000;stroke-width:0.8;" x="314.1" xlink:href="#m45bc52348d" y="441"/>
      </g>
     </g>
     <g id="text_3">
      <!-- 6 -->
      <g transform="translate(307.10125 464.716563)scale(0.22 -0.22)">
       <defs>
        <path d="M 33.015625 40.375 
Q 26.375 40.375 22.484375 35.828125 
Q 18.609375 31.296875 18.609375 23.390625 
Q 18.609375 15.53125 22.484375 10.953125 
Q 26.375 6.390625 33.015625 6.390625 
Q 39.65625 6.390625 43.53125 10.953125 
Q 47.40625 15.53125 47.40625 23.390625 
Q 47.40625 31.296875 43.53125 35.828125 
Q 39.65625 40.375 33.015625 40.375 
z
M 52.59375 71.296875 
L 52.59375 62.3125 
Q 48.875 64.0625 45.09375 64.984375 
Q 41.3125 65.921875 37.59375 65.921875 
Q 27.828125 65.921875 22.671875 59.328125 
Q 17.53125 52.734375 16.796875 39.40625 
Q 19.671875 43.65625 24.015625 45.921875 
Q 28.375 48.1875 33.59375 48.1875 
Q 44.578125 48.1875 50.953125 41.515625 
Q 57.328125 34.859375 57.328125 23.390625 
Q 57.328125 12.15625 50.6875 5.359375 
Q 44.046875 -1.421875 33.015625 -1.421875 
Q 20.359375 -1.421875 13.671875 8.265625 
Q 6.984375 17.96875 6.984375 36.375 
Q 6.984375 53.65625 15.1875 63.9375 
Q 23.390625 74.21875 37.203125 74.21875 
Q 40.921875 74.21875 44.703125 73.484375 
Q 48.484375 72.75 52.59375 71.296875 
z
" id="DejaVuSans-54"/>
       </defs>
       <use xlink:href="#DejaVuSans-54"/>
      </g>
     </g>
    </g>
    <g id="xtick_4">
     <g id="line2d_4">
      <g>
       <use style="stroke:#000000;stroke-width:0.8;" x="425.7" xlink:href="#m45bc52348d" y="441"/>
      </g>
     </g>
     <g id="text_4">
      <!-- 8 -->
      <g transform="translate(418.70125 464.716563)scale(0.22 -0.22)">
       <defs>
        <path d="M 31.78125 34.625 
Q 24.75 34.625 20.71875 30.859375 
Q 16.703125 27.09375 16.703125 20.515625 
Q 16.703125 13.921875 20.71875 10.15625 
Q 24.75 6.390625 31.78125 6.390625 
Q 38.8125 6.390625 42.859375 10.171875 
Q 46.921875 13.96875 46.921875 20.515625 
Q 46.921875 27.09375 42.890625 30.859375 
Q 38.875 34.625 31.78125 34.625 
z
M 21.921875 38.8125 
Q 15.578125 40.375 12.03125 44.71875 
Q 8.5 49.078125 8.5 55.328125 
Q 8.5 64.0625 14.71875 69.140625 
Q 20.953125 74.21875 31.78125 74.21875 
Q 42.671875 74.21875 48.875 69.140625 
Q 55.078125 64.0625 55.078125 55.328125 
Q 55.078125 49.078125 51.53125 44.71875 
Q 48 40.375 41.703125 38.8125 
Q 48.828125 37.15625 52.796875 32.3125 
Q 56.78125 27.484375 56.78125 20.515625 
Q 56.78125 9.90625 50.3125 4.234375 
Q 43.84375 -1.421875 31.78125 -1.421875 
Q 19.734375 -1.421875 13.25 4.234375 
Q 6.78125 9.90625 6.78125 20.515625 
Q 6.78125 27.484375 10.78125 32.3125 
Q 14.796875 37.15625 21.921875 38.8125 
z
M 18.3125 54.390625 
Q 18.3125 48.734375 21.84375 45.5625 
Q 25.390625 42.390625 31.78125 42.390625 
Q 38.140625 42.390625 41.71875 45.5625 
Q 45.3125 48.734375 45.3125 54.390625 
Q 45.3125 60.0625 41.71875 63.234375 
Q 38.140625 66.40625 31.78125 66.40625 
Q 25.390625 66.40625 21.84375 63.234375 
Q 18.3125 60.0625 18.3125 54.390625 
z
" id="DejaVuSans-56"/>
       </defs>
       <use xlink:href="#DejaVuSans-56"/>
      </g>
     </g>
    </g>
   </g>
   <g id="matplotlib.axis_2">
    <g id="ytick_1">
     <g id="line2d_5">
      <defs>
       <path d="M 0 0 
L -3.5 0 
" id="mcc0fe50003" style="stroke:#000000;stroke-width:0.8;"/>
      </defs>
      <g>
       <use style="stroke:#000000;stroke-width:0.8;" x="63" xlink:href="#mcc0fe50003" y="413.82"/>
      </g>
     </g>
     <g id="text_5">
      <!-- 2 -->
      <g transform="translate(42.0025 422.178281)scale(0.22 -0.22)">
       <use xlink:href="#DejaVuSans-50"/>
      </g>
     </g>
    </g>
    <g id="ytick_2">
     <g id="line2d_6">
      <g>
       <use style="stroke:#000000;stroke-width:0.8;" x="63" xlink:href="#mcc0fe50003" y="359.46"/>
      </g>
     </g>
     <g id="text_6">
      <!-- 3 -->
      <g transform="translate(42.0025 367.818281)scale(0.22 -0.22)">
       <defs>
        <path d="M 40.578125 39.3125 
Q 47.65625 37.796875 51.625 33 
Q 55.609375 28.21875 55.609375 21.1875 
Q 55.609375 10.40625 48.1875 4.484375 
Q 40.765625 -1.421875 27.09375 -1.421875 
Q 22.515625 -1.421875 17.65625 -0.515625 
Q 12.796875 0.390625 7.625 2.203125 
L 7.625 11.71875 
Q 11.71875 9.328125 16.59375 8.109375 
Q 21.484375 6.890625 26.8125 6.890625 
Q 36.078125 6.890625 40.9375 10.546875 
Q 45.796875 14.203125 45.796875 21.1875 
Q 45.796875 27.640625 41.28125 31.265625 
Q 36.765625 34.90625 28.71875 34.90625 
L 20.21875 34.90625 
L 20.21875 43.015625 
L 29.109375 43.015625 
Q 36.375 43.015625 40.234375 45.921875 
Q 44.09375 48.828125 44.09375 54.296875 
Q 44.09375 59.90625 40.109375 62.90625 
Q 36.140625 65.921875 28.71875 65.921875 
Q 24.65625 65.921875 20.015625 65.03125 
Q 15.375 64.15625 9.8125 62.3125 
L 9.8125 71.09375 
Q 15.4375 72.65625 20.34375 73.4375 
Q 25.25 74.21875 29.59375 74.21875 
Q 40.828125 74.21875 47.359375 69.109375 
Q 53.90625 64.015625 53.90625 55.328125 
Q 53.90625 49.265625 50.4375 45.09375 
Q 46.96875 40.921875 40.578125 39.3125 
z
" id="DejaVuSans-51"/>
       </defs>
       <use xlink:href="#DejaVuSans-51"/>
      </g>
     </g>
    </g>
    <g id="ytick_3">
     <g id="line2d_7">
      <g>
       <use style="stroke:#000000;stroke-width:0.8;" x="63" xlink:href="#mcc0fe50003" y="305.1"/>
      </g>
     </g>
     <g id="text_7">
      <!-- 4 -->
      <g transform="translate(42.0025 313.458281)scale(0.22 -0.22)">
       <use xlink:href="#DejaVuSans-52"/>
      </g>
     </g>
    </g>
    <g id="ytick_4">
     <g id="line2d_8">
      <g>
       <use style="stroke:#000000;stroke-width:0.8;" x="63" xlink:href="#mcc0fe50003" y="250.74"/>
      </g>
     </g>
     <g id="text_8">
      <!-- 5 -->
      <g transform="translate(42.0025 259.098281)scale(0.22 -0.22)">
       <defs>
        <path d="M 10.796875 72.90625 
L 49.515625 72.90625 
L 49.515625 64.59375 
L 19.828125 64.59375 
L 19.828125 46.734375 
Q 21.96875 47.46875 24.109375 47.828125 
Q 26.265625 48.1875 28.421875 48.1875 
Q 40.625 48.1875 47.75 41.5 
Q 54.890625 34.8125 54.890625 23.390625 
Q 54.890625 11.625 47.5625 5.09375 
Q 40.234375 -1.421875 26.90625 -1.421875 
Q 22.3125 -1.421875 17.546875 -0.640625 
Q 12.796875 0.140625 7.71875 1.703125 
L 7.71875 11.625 
Q 12.109375 9.234375 16.796875 8.0625 
Q 21.484375 6.890625 26.703125 6.890625 
Q 35.15625 6.890625 40.078125 11.328125 
Q 45.015625 15.765625 45.015625 23.390625 
Q 45.015625 31 40.078125 35.4375 
Q 35.15625 39.890625 26.703125 39.890625 
Q 22.75 39.890625 18.8125 39.015625 
Q 14.890625 38.140625 10.796875 36.28125 
z
" id="DejaVuSans-53"/>
       </defs>
       <use xlink:href="#DejaVuSans-53"/>
      </g>
     </g>
    </g>
    <g id="ytick_5">
     <g id="line2d_9">
      <g>
       <use style="stroke:#000000;stroke-width:0.8;" x="63" xlink:href="#mcc0fe50003" y="196.38"/>
      </g>
     </g>
     <g id="text_9">
      <!-- 6 -->
      <g transform="translate(42.0025 204.738281)scale(0.22 -0.22)">
       <use xlink:href="#DejaVuSans-54"/>
      </g>
     </g>
    </g>
    <g id="ytick_6">
     <g id="line2d_10">
      <g>
       <use style="stroke:#000000;stroke-width:0.8;" x="63" xlink:href="#mcc0fe50003" y="142.02"/>
      </g>
     </g>
     <g id="text_10">
      <!-- 7 -->
      <g transform="translate(42.0025 150.378281)scale(0.22 -0.22)">
       <defs>
        <path d="M 8.203125 72.90625 
L 55.078125 72.90625 
L 55.078125 68.703125 
L 28.609375 0 
L 18.3125 0 
L 43.21875 64.59375 
L 8.203125 64.59375 
z
" id="DejaVuSans-55"/>
       </defs>
       <use xlink:href="#DejaVuSans-55"/>
      </g>
     </g>
    </g>
    <g id="ytick_7">
     <g id="line2d_11">
      <g>
       <use style="stroke:#000000;stroke-width:0.8;" x="63" xlink:href="#mcc0fe50003" y="87.66"/>
      </g>
     </g>
     <g id="text_11">
      <!-- 8 -->
      <g transform="translate(42.0025 96.018281)scale(0.22 -0.22)">
       <use xlink:href="#DejaVuSans-56"/>
      </g>
     </g>
    </g>
   </g>
   <g id="line2d_12">
    <defs>
     <path d="M 0 2.5 
C 0.663008 2.5 1.29895 2.236584 1.767767 1.767767 
C 2.236584 1.29895 2.5 0.663008 2.5 0 
C 2.5 -0.663008 2.236584 -1.29895 1.767767 -1.767767 
C 1.29895 -2.236584 0.663008 -2.5 0 -2.5 
C -0.663008 -2.5 -1.29895 -2.236584 -1.767767 -1.767767 
C -2.236584 -1.29895 -2.5 -0.663008 -2.5 0 
C -2.5 0.663008 -2.236584 1.29895 -1.767767 1.767767 
C -1.29895 2.236584 -0.663008 2.5 0 2.5 
z
" id="me6c67711cf" style="stroke:#ff0000;"/>
    </defs>
    <g clip-path="url(#pb51da66841)">
     <use style="fill:#ff0000;stroke:#ff0000;" x="388.21068" xlink:href="#me6c67711cf" y="97.320628"/>
     <use style="fill:#ff0000;stroke:#ff0000;" x="406.774687" xlink:href="#me6c67711cf" y="94.034191"/>
     <use style="fill:#ff0000;stroke:#ff0000;" x="300.979061" xlink:href="#me6c67711cf" y="114.839798"/>
     <use style="fill:#ff0000;stroke:#ff0000;" x="238.97343" xlink:href="#me6c67711cf" y="100.01613"/>
     <use style="fill:#ff0000;stroke:#ff0000;" x="333.611776" xlink:href="#me6c67711cf" y="118.712668"/>
     <use style="fill:#ff0000;stroke:#ff0000;" x="276.986409" xlink:href="#me6c67711cf" y="127.346897"/>
     <use style="fill:#ff0000;stroke:#ff0000;" x="274.203253" xlink:href="#me6c67711cf" y="127.135325"/>
     <use style="fill:#ff0000;stroke:#ff0000;" x="258.356226" xlink:href="#me6c67711cf" y="119.513571"/>
     <use style="fill:#ff0000;stroke:#ff0000;" x="298.839453" xlink:href="#me6c67711cf" y="123.002035"/>
     <use style="fill:#ff0000;stroke:#ff0000;" x="371.897664" xlink:href="#me6c67711cf" y="119.360754"/>
     <use style="fill:#ff0000;stroke:#ff0000;" x="276.535076" xlink:href="#me6c67711cf" y="121.697177"/>
     <use style="fill:#ff0000;stroke:#ff0000;" x="257.556486" xlink:href="#me6c67711cf" y="120.678328"/>
     <use style="fill:#ff0000;stroke:#ff0000;" x="315.803703" xlink:href="#me6c67711cf" y="142.485225"/>
     <use style="fill:#ff0000;stroke:#ff0000;" x="412.043788" xlink:href="#me6c67711cf" y="146.289886"/>
     <use style="fill:#ff0000;stroke:#ff0000;" x="280.673146" xlink:href="#me6c67711cf" y="140.339265"/>
     <use style="fill:#ff0000;stroke:#ff0000;" x="295.034154" xlink:href="#me6c67711cf" y="137.380062"/>
     <use style="fill:#ff0000;stroke:#ff0000;" x="180.926759" xlink:href="#me6c67711cf" y="141.617881"/>
     <use style="fill:#ff0000;stroke:#ff0000;" x="242.971796" xlink:href="#me6c67711cf" y="141.524536"/>
     <use style="fill:#ff0000;stroke:#ff0000;" x="291.519388" xlink:href="#me6c67711cf" y="144.331394"/>
     <use style="fill:#ff0000;stroke:#ff0000;" x="331.395479" xlink:href="#me6c67711cf" y="142.857381"/>
     <use style="fill:#ff0000;stroke:#ff0000;" x="328.66456" xlink:href="#me6c67711cf" y="148.588712"/>
     <use style="fill:#ff0000;stroke:#ff0000;" x="309.169291" xlink:href="#me6c67711cf" y="144.592896"/>
     <use style="fill:#ff0000;stroke:#ff0000;" x="407.749337" xlink:href="#me6c67711cf" y="159.546288"/>
     <use style="fill:#ff0000;stroke:#ff0000;" x="349.563448" xlink:href="#me6c67711cf" y="161.600127"/>
     <use style="fill:#ff0000;stroke:#ff0000;" x="277.594573" xlink:href="#me6c67711cf" y="157.893773"/>
     <use style="fill:#ff0000;stroke:#ff0000;" x="223.775155" xlink:href="#me6c67711cf" y="155.209607"/>
     <use style="fill:#ff0000;stroke:#ff0000;" x="312.441292" xlink:href="#me6c67711cf" y="160.612687"/>
     <use style="fill:#ff0000;stroke:#ff0000;" x="419.296543" xlink:href="#me6c67711cf" y="163.986882"/>
     <use style="fill:#ff0000;stroke:#ff0000;" x="256.521633" xlink:href="#me6c67711cf" y="157.233102"/>
     <use style="fill:#ff0000;stroke:#ff0000;" x="466.869791" xlink:href="#me6c67711cf" y="157.434448"/>
     <use style="fill:#ff0000;stroke:#ff0000;" x="294.817338" xlink:href="#me6c67711cf" y="167.458768"/>
     <use style="fill:#ff0000;stroke:#ff0000;" x="379.851849" xlink:href="#me6c67711cf" y="179.367218"/>
     <use style="fill:#ff0000;stroke:#ff0000;" x="310.676626" xlink:href="#me6c67711cf" y="174.812279"/>
     <use style="fill:#ff0000;stroke:#ff0000;" x="309.532683" xlink:href="#me6c67711cf" y="175.596854"/>
     <use style="fill:#ff0000;stroke:#ff0000;" x="386.013358" xlink:href="#me6c67711cf" y="177.64538"/>
     <use style="fill:#ff0000;stroke:#ff0000;" x="310.166822" xlink:href="#me6c67711cf" y="172.676903"/>
     <use style="fill:#ff0000;stroke:#ff0000;" x="371.661532" xlink:href="#me6c67711cf" y="181.34239"/>
     <use style="fill:#ff0000;stroke:#ff0000;" x="296.513735" xlink:href="#me6c67711cf" y="181.05205"/>
     <use style="fill:#ff0000;stroke:#ff0000;" x="311.332205" xlink:href="#me6c67711cf" y="179.622943"/>
     <use style="fill:#ff0000;stroke:#ff0000;" x="315.555354" xlink:href="#me6c67711cf" y="197.784119"/>
     <use style="fill:#ff0000;stroke:#ff0000;" x="296.574645" xlink:href="#me6c67711cf" y="200.866392"/>
     <use style="fill:#ff0000;stroke:#ff0000;" x="261.11288" xlink:href="#me6c67711cf" y="193.381133"/>
     <use style="fill:#ff0000;stroke:#ff0000;" x="334.387698" xlink:href="#me6c67711cf" y="197.632187"/>
     <use style="fill:#ff0000;stroke:#ff0000;" x="386.482117" xlink:href="#me6c67711cf" y="196.79592"/>
     <use style="fill:#ff0000;stroke:#ff0000;" x="144.298581" xlink:href="#me6c67711cf" y="193.081782"/>
     <use style="fill:#ff0000;stroke:#ff0000;" x="365.283077" xlink:href="#me6c67711cf" y="191.512623"/>
     <use style="fill:#ff0000;stroke:#ff0000;" x="352.915493" xlink:href="#me6c67711cf" y="202.155872"/>
     <use style="fill:#ff0000;stroke:#ff0000;" x="317.87869" xlink:href="#me6c67711cf" y="199.06398"/>
     <use style="fill:#ff0000;stroke:#ff0000;" x="235.500706" xlink:href="#me6c67711cf" y="189.210043"/>
     <use style="fill:#ff0000;stroke:#ff0000;" x="293.863966" xlink:href="#me6c67711cf" y="200.294759"/>
     <use style="fill:#ff0000;stroke:#ff0000;" x="277.16402" xlink:href="#me6c67711cf" y="195.87696"/>
     <use style="fill:#ff0000;stroke:#ff0000;" x="274.774421" xlink:href="#me6c67711cf" y="193.900808"/>
     <use style="fill:#ff0000;stroke:#ff0000;" x="388.553582" xlink:href="#me6c67711cf" y="195.57654"/>
     <use style="fill:#ff0000;stroke:#ff0000;" x="315.504972" xlink:href="#me6c67711cf" y="191.359167"/>
     <use style="fill:#ff0000;stroke:#ff0000;" x="241.298599" xlink:href="#me6c67711cf" y="205.443957"/>
     <use style="fill:#ff0000;stroke:#ff0000;" x="239.027598" xlink:href="#me6c67711cf" y="205.745226"/>
     <use style="fill:#ff0000;stroke:#ff0000;" x="224.079788" xlink:href="#me6c67711cf" y="207.751073"/>
     <use style="fill:#ff0000;stroke:#ff0000;" x="349.354388" xlink:href="#me6c67711cf" y="211.278951"/>
     <use style="fill:#ff0000;stroke:#ff0000;" x="258.884441" xlink:href="#me6c67711cf" y="205.406664"/>
     <use style="fill:#ff0000;stroke:#ff0000;" x="347.667629" xlink:href="#me6c67711cf" y="210.961311"/>
     <use style="fill:#ff0000;stroke:#ff0000;" x="272.508775" xlink:href="#me6c67711cf" y="212.693928"/>
     <use style="fill:#ff0000;stroke:#ff0000;" x="405.214166" xlink:href="#me6c67711cf" y="214.314892"/>
     <use style="fill:#ff0000;stroke:#ff0000;" x="354.753435" xlink:href="#me6c67711cf" y="213.183408"/>
     <use style="fill:#ff0000;stroke:#ff0000;" x="369.084392" xlink:href="#me6c67711cf" y="213.584394"/>
     <use style="fill:#ff0000;stroke:#ff0000;" x="232.111961" xlink:href="#me6c67711cf" y="211.66368"/>
     <use style="fill:#ff0000;stroke:#ff0000;" x="446.037281" xlink:href="#me6c67711cf" y="209.098592"/>
     <use style="fill:#ff0000;stroke:#ff0000;" x="241.489439" xlink:href="#me6c67711cf" y="217.311557"/>
     <use style="fill:#ff0000;stroke:#ff0000;" x="380.041617" xlink:href="#me6c67711cf" y="209.050484"/>
     <use style="fill:#ff0000;stroke:#ff0000;" x="254.24825" xlink:href="#me6c67711cf" y="232.986743"/>
     <use style="fill:#ff0000;stroke:#ff0000;" x="262.557881" xlink:href="#me6c67711cf" y="232.831893"/>
     <use style="fill:#ff0000;stroke:#ff0000;" x="282.715998" xlink:href="#me6c67711cf" y="235.93308"/>
     <use style="fill:#ff0000;stroke:#ff0000;" x="237.925565" xlink:href="#me6c67711cf" y="235.603171"/>
     <use style="fill:#ff0000;stroke:#ff0000;" x="270.988494" xlink:href="#me6c67711cf" y="231.120961"/>
     <use style="fill:#ff0000;stroke:#ff0000;" x="200.825354" xlink:href="#me6c67711cf" y="230.041181"/>
     <use style="fill:#ff0000;stroke:#ff0000;" x="352.662772" xlink:href="#me6c67711cf" y="232.826558"/>
     <use style="fill:#ff0000;stroke:#ff0000;" x="331.227503" xlink:href="#me6c67711cf" y="232.98828"/>
     <use style="fill:#ff0000;stroke:#ff0000;" x="289.283304" xlink:href="#me6c67711cf" y="241.077391"/>
     <use style="fill:#ff0000;stroke:#ff0000;" x="219.003075" xlink:href="#me6c67711cf" y="238.95131"/>
     <use style="fill:#ff0000;stroke:#ff0000;" x="220.655522" xlink:href="#me6c67711cf" y="233.104974"/>
     <use style="fill:#ff0000;stroke:#ff0000;" x="277.002184" xlink:href="#me6c67711cf" y="225.752344"/>
     <use style="fill:#ff0000;stroke:#ff0000;" x="349.643825" xlink:href="#me6c67711cf" y="250.020495"/>
     <use style="fill:#ff0000;stroke:#ff0000;" x="300.478941" xlink:href="#me6c67711cf" y="251.265047"/>
     <use style="fill:#ff0000;stroke:#ff0000;" x="312.25525" xlink:href="#me6c67711cf" y="254.608667"/>
     <use style="fill:#ff0000;stroke:#ff0000;" x="331.418474" xlink:href="#me6c67711cf" y="248.279902"/>
     <use style="fill:#ff0000;stroke:#ff0000;" x="229.656308" xlink:href="#me6c67711cf" y="247.551243"/>
     <use style="fill:#ff0000;stroke:#ff0000;" x="161.635104" xlink:href="#me6c67711cf" y="244.443736"/>
     <use style="fill:#ff0000;stroke:#ff0000;" x="148.926923" xlink:href="#me6c67711cf" y="252.624022"/>
     <use style="fill:#ff0000;stroke:#ff0000;" x="163.439224" xlink:href="#me6c67711cf" y="255.288523"/>
     <use style="fill:#ff0000;stroke:#ff0000;" x="277.992651" xlink:href="#me6c67711cf" y="250.223519"/>
     <use style="fill:#ff0000;stroke:#ff0000;" x="296.009032" xlink:href="#me6c67711cf" y="258.809946"/>
     <use style="fill:#ff0000;stroke:#ff0000;" x="220.945705" xlink:href="#me6c67711cf" y="249.865825"/>
     <use style="fill:#ff0000;stroke:#ff0000;" x="334.041294" xlink:href="#me6c67711cf" y="250.883107"/>
     <use style="fill:#ff0000;stroke:#ff0000;" x="314.518246" xlink:href="#me6c67711cf" y="266.391243"/>
     <use style="fill:#ff0000;stroke:#ff0000;" x="237.078525" xlink:href="#me6c67711cf" y="273.718439"/>
     <use style="fill:#ff0000;stroke:#ff0000;" x="231.212702" xlink:href="#me6c67711cf" y="270.466793"/>
     <use style="fill:#ff0000;stroke:#ff0000;" x="218.559904" xlink:href="#me6c67711cf" y="267.686673"/>
     <use style="fill:#ff0000;stroke:#ff0000;" x="243.38379" xlink:href="#me6c67711cf" y="267.253792"/>
     <use style="fill:#ff0000;stroke:#ff0000;" x="278.297251" xlink:href="#me6c67711cf" y="268.498465"/>
     <use style="fill:#ff0000;stroke:#ff0000;" x="368.699963" xlink:href="#me6c67711cf" y="268.634765"/>
     <use style="fill:#ff0000;stroke:#ff0000;" x="245.974541" xlink:href="#me6c67711cf" y="268.370943"/>
     <use style="fill:#ff0000;stroke:#ff0000;" x="236.746776" xlink:href="#me6c67711cf" y="270.726289"/>
     <use style="fill:#ff0000;stroke:#ff0000;" x="355.333308" xlink:href="#me6c67711cf" y="264.580161"/>
     <use style="fill:#ff0000;stroke:#ff0000;" x="224.830774" xlink:href="#me6c67711cf" y="266.208283"/>
     <use style="fill:#ff0000;stroke:#ff0000;" x="309.028643" xlink:href="#me6c67711cf" y="268.823242"/>
     <use style="fill:#ff0000;stroke:#ff0000;" x="298.911634" xlink:href="#me6c67711cf" y="269.038602"/>
     <use style="fill:#ff0000;stroke:#ff0000;" x="367.301336" xlink:href="#me6c67711cf" y="275.156173"/>
     <use style="fill:#ff0000;stroke:#ff0000;" x="259.198659" xlink:href="#me6c67711cf" y="280.314157"/>
     <use style="fill:#ff0000;stroke:#ff0000;" x="274.047342" xlink:href="#me6c67711cf" y="288.883632"/>
     <use style="fill:#ff0000;stroke:#ff0000;" x="106.497762" xlink:href="#me6c67711cf" y="287.166695"/>
     <use style="fill:#ff0000;stroke:#ff0000;" x="256.372395" xlink:href="#me6c67711cf" y="290.750764"/>
     <use style="fill:#ff0000;stroke:#ff0000;" x="230.001694" xlink:href="#me6c67711cf" y="289.08593"/>
     <use style="fill:#ff0000;stroke:#ff0000;" x="269.899157" xlink:href="#me6c67711cf" y="289.791766"/>
     <use style="fill:#ff0000;stroke:#ff0000;" x="314.109569" xlink:href="#me6c67711cf" y="285.406966"/>
     <use style="fill:#ff0000;stroke:#ff0000;" x="347.676255" xlink:href="#me6c67711cf" y="290.225958"/>
     <use style="fill:#ff0000;stroke:#ff0000;" x="186.05191" xlink:href="#me6c67711cf" y="287.643352"/>
     <use style="fill:#ff0000;stroke:#ff0000;" x="299.855078" xlink:href="#me6c67711cf" y="289.405291"/>
     <use style="fill:#ff0000;stroke:#ff0000;" x="217.978135" xlink:href="#me6c67711cf" y="287.586438"/>
     <use style="fill:#ff0000;stroke:#ff0000;" x="199.91472" xlink:href="#me6c67711cf" y="291.97335"/>
     <use style="fill:#ff0000;stroke:#ff0000;" x="198.48794" xlink:href="#me6c67711cf" y="289.454142"/>
     <use style="fill:#ff0000;stroke:#ff0000;" x="315.528521" xlink:href="#me6c67711cf" y="286.019975"/>
     <use style="fill:#ff0000;stroke:#ff0000;" x="333.250631" xlink:href="#me6c67711cf" y="307.879039"/>
     <use style="fill:#ff0000;stroke:#ff0000;" x="221.331653" xlink:href="#me6c67711cf" y="307.3361"/>
     <use style="fill:#ff0000;stroke:#ff0000;" x="188.042573" xlink:href="#me6c67711cf" y="304.883391"/>
     <use style="fill:#ff0000;stroke:#ff0000;" x="324.288265" xlink:href="#me6c67711cf" y="302.837108"/>
     <use style="fill:#ff0000;stroke:#ff0000;" x="181.837883" xlink:href="#me6c67711cf" y="306.101197"/>
     <use style="fill:#ff0000;stroke:#ff0000;" x="238.990397" xlink:href="#me6c67711cf" y="307.212168"/>
     <use style="fill:#ff0000;stroke:#ff0000;" x="350.534389" xlink:href="#me6c67711cf" y="305.960007"/>
     <use style="fill:#ff0000;stroke:#ff0000;" x="332.767902" xlink:href="#me6c67711cf" y="301.917278"/>
     <use style="fill:#ff0000;stroke:#ff0000;" x="182.550882" xlink:href="#me6c67711cf" y="304.424639"/>
     <use style="fill:#ff0000;stroke:#ff0000;" x="276.919181" xlink:href="#me6c67711cf" y="308.880209"/>
     <use style="fill:#ff0000;stroke:#ff0000;" x="216.866081" xlink:href="#me6c67711cf" y="311.196111"/>
     <use style="fill:#ff0000;stroke:#ff0000;" x="221.22965" xlink:href="#me6c67711cf" y="306.137839"/>
     <use style="fill:#ff0000;stroke:#ff0000;" x="239.555269" xlink:href="#me6c67711cf" y="308.41577"/>
     <use style="fill:#ff0000;stroke:#ff0000;" x="188.03005" xlink:href="#me6c67711cf" y="315.211271"/>
     <use style="fill:#ff0000;stroke:#ff0000;" x="348.568561" xlink:href="#me6c67711cf" y="318.58041"/>
     <use style="fill:#ff0000;stroke:#ff0000;" x="190.314214" xlink:href="#me6c67711cf" y="321.782833"/>
     <use style="fill:#ff0000;stroke:#ff0000;" x="185.104876" xlink:href="#me6c67711cf" y="320.450602"/>
     <use style="fill:#ff0000;stroke:#ff0000;" x="110.493493" xlink:href="#me6c67711cf" y="322.402346"/>
     <use style="fill:#ff0000;stroke:#ff0000;" x="147.224189" xlink:href="#me6c67711cf" y="329.720247"/>
     <use style="fill:#ff0000;stroke:#ff0000;" x="217.290856" xlink:href="#me6c67711cf" y="336.410645"/>
     <use style="fill:#ff0000;stroke:#ff0000;" x="160.273433" xlink:href="#me6c67711cf" y="341.656379"/>
     <use style="fill:#ff0000;stroke:#ff0000;" x="186.588454" xlink:href="#me6c67711cf" y="338.649285"/>
     <use style="fill:#ff0000;stroke:#ff0000;" x="216.167211" xlink:href="#me6c67711cf" y="340.077234"/>
     <use style="fill:#ff0000;stroke:#ff0000;" x="178.72918" xlink:href="#me6c67711cf" y="338.970926"/>
     <use style="fill:#ff0000;stroke:#ff0000;" x="220.090858" xlink:href="#me6c67711cf" y="346.272344"/>
     <use style="fill:#ff0000;stroke:#ff0000;" x="143.144107" xlink:href="#me6c67711cf" y="347.192216"/>
     <use style="fill:#ff0000;stroke:#ff0000;" x="162.201294" xlink:href="#me6c67711cf" y="348.387626"/>
     <use style="fill:#ff0000;stroke:#ff0000;" x="208.180149" xlink:href="#me6c67711cf" y="341.87237"/>
     <use style="fill:#ff0000;stroke:#ff0000;" x="146.443861" xlink:href="#me6c67711cf" y="338.2582"/>
     <use style="fill:#ff0000;stroke:#ff0000;" x="205.80998" xlink:href="#me6c67711cf" y="359.736536"/>
     <use style="fill:#ff0000;stroke:#ff0000;" x="178.833593" xlink:href="#me6c67711cf" y="354.159465"/>
     <use style="fill:#ff0000;stroke:#ff0000;" x="148.734271" xlink:href="#me6c67711cf" y="354.447792"/>
     <use style="fill:#ff0000;stroke:#ff0000;" x="233.406584" xlink:href="#me6c67711cf" y="352.073732"/>
     <use style="fill:#ff0000;stroke:#ff0000;" x="277.480691" xlink:href="#me6c67711cf" y="353.906011"/>
     <use style="fill:#ff0000;stroke:#ff0000;" x="149.703982" xlink:href="#me6c67711cf" y="359.530751"/>
     <use style="fill:#ff0000;stroke:#ff0000;" x="236.63803" xlink:href="#me6c67711cf" y="357.038177"/>
     <use style="fill:#ff0000;stroke:#ff0000;" x="242.665361" xlink:href="#me6c67711cf" y="378.295865"/>
     <use style="fill:#ff0000;stroke:#ff0000;" x="145.785513" xlink:href="#me6c67711cf" y="397.524719"/>
     <use style="fill:#ff0000;stroke:#ff0000;" x="84.204034" xlink:href="#me6c67711cf" y="435.022354"/>
    </g>
   </g>
   <g id="line2d_13">
    <path clip-path="url(#pb51da66841)" d="M 63 441 
L 453.6 60.48 
" style="fill:none;stroke:#ff0000;stroke-linecap:square;stroke-width:1.5;"/>
   </g>
   <g id="patch_3">
    <path d="M 63 441 
L 63 60.48 
" style="fill:none;stroke:#000000;stroke-linecap:square;stroke-linejoin:miter;stroke-width:0.8;"/>
   </g>
   <g id="patch_4">
    <path d="M 453.6 441 
L 453.6 60.48 
" style="fill:none;stroke:#000000;stroke-linecap:square;stroke-linejoin:miter;stroke-width:0.8;"/>
   </g>
   <g id="patch_5">
    <path d="M 63 441 
L 453.6 441 
" style="fill:none;stroke:#000000;stroke-linecap:square;stroke-linejoin:miter;stroke-width:0.8;"/>
   </g>
   <g id="patch_6">
    <path d="M 63 60.48 
L 453.6 60.48 
" style="fill:none;stroke:#000000;stroke-linecap:square;stroke-linejoin:miter;stroke-width:0.8;"/>
   </g>
   <g id="text_12">
    <!-- Correlation: 0.544 -->
    <g transform="translate(139.0875 54.48)scale(0.264 -0.264)">
     <defs>
      <path d="M 64.40625 67.28125 
L 64.40625 56.890625 
Q 59.421875 61.53125 53.78125 63.8125 
Q 48.140625 66.109375 41.796875 66.109375 
Q 29.296875 66.109375 22.65625 58.46875 
Q 16.015625 50.828125 16.015625 36.375 
Q 16.015625 21.96875 22.65625 14.328125 
Q 29.296875 6.6875 41.796875 6.6875 
Q 48.140625 6.6875 53.78125 8.984375 
Q 59.421875 11.28125 64.40625 15.921875 
L 64.40625 5.609375 
Q 59.234375 2.09375 53.4375 0.328125 
Q 47.65625 -1.421875 41.21875 -1.421875 
Q 24.65625 -1.421875 15.125 8.703125 
Q 5.609375 18.84375 5.609375 36.375 
Q 5.609375 53.953125 15.125 64.078125 
Q 24.65625 74.21875 41.21875 74.21875 
Q 47.75 74.21875 53.53125 72.484375 
Q 59.328125 70.75 64.40625 67.28125 
z
" id="DejaVuSans-67"/>
      <path d="M 30.609375 48.390625 
Q 23.390625 48.390625 19.1875 42.75 
Q 14.984375 37.109375 14.984375 27.296875 
Q 14.984375 17.484375 19.15625 11.84375 
Q 23.34375 6.203125 30.609375 6.203125 
Q 37.796875 6.203125 41.984375 11.859375 
Q 46.1875 17.53125 46.1875 27.296875 
Q 46.1875 37.015625 41.984375 42.703125 
Q 37.796875 48.390625 30.609375 48.390625 
z
M 30.609375 56 
Q 42.328125 56 49.015625 48.375 
Q 55.71875 40.765625 55.71875 27.296875 
Q 55.71875 13.875 49.015625 6.21875 
Q 42.328125 -1.421875 30.609375 -1.421875 
Q 18.84375 -1.421875 12.171875 6.21875 
Q 5.515625 13.875 5.515625 27.296875 
Q 5.515625 40.765625 12.171875 48.375 
Q 18.84375 56 30.609375 56 
z
" id="DejaVuSans-111"/>
      <path d="M 41.109375 46.296875 
Q 39.59375 47.171875 37.8125 47.578125 
Q 36.03125 48 33.890625 48 
Q 26.265625 48 22.1875 43.046875 
Q 18.109375 38.09375 18.109375 28.8125 
L 18.109375 0 
L 9.078125 0 
L 9.078125 54.6875 
L 18.109375 54.6875 
L 18.109375 46.1875 
Q 20.953125 51.171875 25.484375 53.578125 
Q 30.03125 56 36.53125 56 
Q 37.453125 56 38.578125 55.875 
Q 39.703125 55.765625 41.0625 55.515625 
z
" id="DejaVuSans-114"/>
      <path d="M 56.203125 29.59375 
L 56.203125 25.203125 
L 14.890625 25.203125 
Q 15.484375 15.921875 20.484375 11.0625 
Q 25.484375 6.203125 34.421875 6.203125 
Q 39.59375 6.203125 44.453125 7.46875 
Q 49.3125 8.734375 54.109375 11.28125 
L 54.109375 2.78125 
Q 49.265625 0.734375 44.1875 -0.34375 
Q 39.109375 -1.421875 33.890625 -1.421875 
Q 20.796875 -1.421875 13.15625 6.1875 
Q 5.515625 13.8125 5.515625 26.8125 
Q 5.515625 40.234375 12.765625 48.109375 
Q 20.015625 56 32.328125 56 
Q 43.359375 56 49.78125 48.890625 
Q 56.203125 41.796875 56.203125 29.59375 
z
M 47.21875 32.234375 
Q 47.125 39.59375 43.09375 43.984375 
Q 39.0625 48.390625 32.421875 48.390625 
Q 24.90625 48.390625 20.390625 44.140625 
Q 15.875 39.890625 15.1875 32.171875 
z
" id="DejaVuSans-101"/>
      <path d="M 9.421875 75.984375 
L 18.40625 75.984375 
L 18.40625 0 
L 9.421875 0 
z
" id="DejaVuSans-108"/>
      <path d="M 34.28125 27.484375 
Q 23.390625 27.484375 19.1875 25 
Q 14.984375 22.515625 14.984375 16.5 
Q 14.984375 11.71875 18.140625 8.90625 
Q 21.296875 6.109375 26.703125 6.109375 
Q 34.1875 6.109375 38.703125 11.40625 
Q 43.21875 16.703125 43.21875 25.484375 
L 43.21875 27.484375 
z
M 52.203125 31.203125 
L 52.203125 0 
L 43.21875 0 
L 43.21875 8.296875 
Q 40.140625 3.328125 35.546875 0.953125 
Q 30.953125 -1.421875 24.3125 -1.421875 
Q 15.921875 -1.421875 10.953125 3.296875 
Q 6 8.015625 6 15.921875 
Q 6 25.140625 12.171875 29.828125 
Q 18.359375 34.515625 30.609375 34.515625 
L 43.21875 34.515625 
L 43.21875 35.40625 
Q 43.21875 41.609375 39.140625 45 
Q 35.0625 48.390625 27.6875 48.390625 
Q 23 48.390625 18.546875 47.265625 
Q 14.109375 46.140625 10.015625 43.890625 
L 10.015625 52.203125 
Q 14.9375 54.109375 19.578125 55.046875 
Q 24.21875 56 28.609375 56 
Q 40.484375 56 46.34375 49.84375 
Q 52.203125 43.703125 52.203125 31.203125 
z
" id="DejaVuSans-97"/>
      <path d="M 18.3125 70.21875 
L 18.3125 54.6875 
L 36.8125 54.6875 
L 36.8125 47.703125 
L 18.3125 47.703125 
L 18.3125 18.015625 
Q 18.3125 11.328125 20.140625 9.421875 
Q 21.96875 7.515625 27.59375 7.515625 
L 36.8125 7.515625 
L 36.8125 0 
L 27.59375 0 
Q 17.1875 0 13.234375 3.875 
Q 9.28125 7.765625 9.28125 18.015625 
L 9.28125 47.703125 
L 2.6875 47.703125 
L 2.6875 54.6875 
L 9.28125 54.6875 
L 9.28125 70.21875 
z
" id="DejaVuSans-116"/>
      <path d="M 9.421875 54.6875 
L 18.40625 54.6875 
L 18.40625 0 
L 9.421875 0 
z
M 9.421875 75.984375 
L 18.40625 75.984375 
L 18.40625 64.59375 
L 9.421875 64.59375 
z
" id="DejaVuSans-105"/>
      <path d="M 54.890625 33.015625 
L 54.890625 0 
L 45.90625 0 
L 45.90625 32.71875 
Q 45.90625 40.484375 42.875 44.328125 
Q 39.84375 48.1875 33.796875 48.1875 
Q 26.515625 48.1875 22.3125 43.546875 
Q 18.109375 38.921875 18.109375 30.90625 
L 18.109375 0 
L 9.078125 0 
L 9.078125 54.6875 
L 18.109375 54.6875 
L 18.109375 46.1875 
Q 21.34375 51.125 25.703125 53.5625 
Q 30.078125 56 35.796875 56 
Q 45.21875 56 50.046875 50.171875 
Q 54.890625 44.34375 54.890625 33.015625 
z
" id="DejaVuSans-110"/>
      <path d="M 11.71875 12.40625 
L 22.015625 12.40625 
L 22.015625 0 
L 11.71875 0 
z
M 11.71875 51.703125 
L 22.015625 51.703125 
L 22.015625 39.3125 
L 11.71875 39.3125 
z
" id="DejaVuSans-58"/>
      <path id="DejaVuSans-32"/>
      <path d="M 31.78125 66.40625 
Q 24.171875 66.40625 20.328125 58.90625 
Q 16.5 51.421875 16.5 36.375 
Q 16.5 21.390625 20.328125 13.890625 
Q 24.171875 6.390625 31.78125 6.390625 
Q 39.453125 6.390625 43.28125 13.890625 
Q 47.125 21.390625 47.125 36.375 
Q 47.125 51.421875 43.28125 58.90625 
Q 39.453125 66.40625 31.78125 66.40625 
z
M 31.78125 74.21875 
Q 44.046875 74.21875 50.515625 64.515625 
Q 56.984375 54.828125 56.984375 36.375 
Q 56.984375 17.96875 50.515625 8.265625 
Q 44.046875 -1.421875 31.78125 -1.421875 
Q 19.53125 -1.421875 13.0625 8.265625 
Q 6.59375 17.96875 6.59375 36.375 
Q 6.59375 54.828125 13.0625 64.515625 
Q 19.53125 74.21875 31.78125 74.21875 
z
" id="DejaVuSans-48"/>
      <path d="M 10.6875 12.40625 
L 21 12.40625 
L 21 0 
L 10.6875 0 
z
" id="DejaVuSans-46"/>
     </defs>
     <use xlink:href="#DejaVuSans-67"/>
     <use x="69.824219" xlink:href="#DejaVuSans-111"/>
     <use x="131.005859" xlink:href="#DejaVuSans-114"/>
     <use x="170.369141" xlink:href="#DejaVuSans-114"/>
     <use x="209.232422" xlink:href="#DejaVuSans-101"/>
     <use x="270.755859" xlink:href="#DejaVuSans-108"/>
     <use x="298.539062" xlink:href="#DejaVuSans-97"/>
     <use x="359.818359" xlink:href="#DejaVuSans-116"/>
     <use x="399.027344" xlink:href="#DejaVuSans-105"/>
     <use x="426.810547" xlink:href="#DejaVuSans-111"/>
     <use x="487.992188" xlink:href="#DejaVuSans-110"/>
     <use x="551.371094" xlink:href="#DejaVuSans-58"/>
     <use x="585.0625" xlink:href="#DejaVuSans-32"/>
     <use x="616.849609" xlink:href="#DejaVuSans-48"/>
     <use x="680.472656" xlink:href="#DejaVuSans-46"/>
     <use x="712.259766" xlink:href="#DejaVuSans-53"/>
     <use x="775.882812" xlink:href="#DejaVuSans-52"/>
     <use x="839.505859" xlink:href="#DejaVuSans-52"/>
    </g>
   </g>
  </g>
 </g>
 <defs>
  <clipPath id="pb51da66841">
   <rect height="380.52" width="390.6" x="63" y="60.48"/>
  </clipPath>
 </defs>
</svg>
