<svg class="main-svg" xmlns="http://www.w3.org/2000/svg" xmlns:xlink="http://www.w3.org/1999/xlink" width="600" height="450" style="" viewBox="0 0 600 450"><rect x="0" y="0" width="600" height="450" style="fill: rgb(255, 255, 255); fill-opacity: 1;"/><defs id="defs-00786c"><g class="clips"/><g class="gradients"/><g class="patterns"/></defs><g class="bglayer"/><g class="layer-below"><g class="imagelayer"/><g class="shapelayer"/></g><g class="cartesianlayer"/><g class="polarlayer"/><g class="ternarylayer"/><g class="geolayer"/><g class="funnelarealayer"/><g class="pielayer"/><g class="iciclelayer"/><g class="treemaplayer"/><g class="sunburstlayer"/><g class="glimages"/><g class="sankey" transform="translate(80,100)matrix(1 0 0 1 0 0)" style="box-sizing: content-box; position: absolute; left: 0px; shape-rendering: geometricprecision; pointer-events: auto;"><g class="sankey-links" style="fill: none;"><path class="sankey-link" d="M54,151.94551845342704C88,151.94551845342704 88,265.52108963093144 122,265.52108963093144L122,266.57557117750434C88,266.57557117750434 88,153 54,153Z" style="stroke: rgb(68, 68, 68); stroke-opacity: 1; fill: rgb(0, 0, 0); fill-opacity: 0.2; stroke-width: 0; opacity: 1;"/><path class="sankey-link" d="M54,148.67662565905096C88,148.67662565905096 88,250.25219683655533 122,250.25219683655533L122,253.5210896309314C88,253.5210896309314 88,151.94551845342704 54,151.94551845342704Z" style="stroke: rgb(68, 68, 68); stroke-opacity: 1; fill: rgb(0, 0, 0); fill-opacity: 0.2; stroke-width: 0; opacity: 1;"/><path class="sankey-link" d="M54,131.17223198594024C88,131.17223198594024 88,220.74780316344467 122,220.74780316344467L122,238.25219683655538C88,238.25219683655538 88,148.67662565905096 54,148.67662565905096Z" style="stroke: rgb(68, 68, 68); stroke-opacity: 1; fill: rgb(0, 0, 0); fill-opacity: 0.2; stroke-width: 0; opacity: 1;"/><path class="sankey-link" d="M54,63C88,63 88,46.91388400702991 122,46.91388400702991L122,115.08611599297015C88,115.08611599297015 88,131.17223198594024 54,131.17223198594024Z" style="stroke: rgb(68, 68, 68); stroke-opacity: 1; fill: rgb(0, 0, 0); fill-opacity: 0.2; stroke-width: 0; opacity: 1;"/><path class="sankey-link" d="M142,46.913884007029914C176,46.913884007029914 176,0 210,0L210,30.7908611599297C176,30.7908611599297 176,77.70474516695961 142,77.70474516695961Z" style="stroke: rgb(68, 68, 68); stroke-opacity: 1; fill: rgb(0, 0, 0); fill-opacity: 0.2; stroke-width: 0; opacity: 1;"/><path class="sankey-link" d="M142,77.70474516695961C231,77.70474516695961 231,35.833919156414765 320,35.833919156414765L320,45.166080843585235C231,45.166080843585235 231,87.03690685413008 142,87.03690685413008Z" style="stroke: rgb(68, 68, 68); stroke-opacity: 1; fill: rgb(0, 0, 0); fill-opacity: 0.2; stroke-width: 0; opacity: 1;"/><path class="sankey-link" d="M142,87.03690685413008C231,87.03690685413008 231,57.166080843585235 320,57.166080843585235L320,61.17311072056239C231,61.17311072056239 231,91.04393673110724 142,91.04393673110724Z" style="stroke: rgb(68, 68, 68); stroke-opacity: 1; fill: rgb(0, 0, 0); fill-opacity: 0.2; stroke-width: 0; opacity: 1;"/><path class="sankey-link" d="M142,91.04393673110724C242,91.04393673110724 242,71.00193321616872 342,71.00193321616872L342,74.79806678383129C242,74.79806678383129 242,94.8400702987698 142,94.8400702987698Z" style="stroke: rgb(68, 68, 68); stroke-opacity: 1; fill: rgb(0, 0, 0); fill-opacity: 0.2; stroke-width: 0; opacity: 1;"/><path class="sankey-link" d="M142,94.8400702987698C242,94.8400702987698 242,86.79806678383129 342,86.79806678383129L342,89.80333919156415C242,89.80333919156415 242,97.84534270650266 142,97.84534270650266Z" style="stroke: rgb(68, 68, 68); stroke-opacity: 1; fill: rgb(0, 0, 0); fill-opacity: 0.2; stroke-width: 0; opacity: 1;"/><path class="sankey-link" d="M142,97.84534270650266C242,97.84534270650266 242,101.80333919156415 342,101.80333919156415L342,103.54323374340949C242,103.54323374340949 242,99.585237258348 142,99.585237258348Z" style="stroke: rgb(68, 68, 68); stroke-opacity: 1; fill: rgb(0, 0, 0); fill-opacity: 0.2; stroke-width: 0; opacity: 1;"/><path class="sankey-link" d="M142,99.585237258348C242,99.585237258348 242,115.54323374340949 342,115.54323374340949L342,116.43954305799649C242,116.43954305799649 242,100.481546572935 142,100.481546572935Z" style="stroke: rgb(0, 0, 0); stroke-opacity: 0.2; fill: rgb(0, 0, 0); fill-opacity: 0.2; stroke-width: 1; opacity: 1;"/><path class="sankey-link" d="M142,100.481546572935C242,100.481546572935 242,128.4395430579965 342,128.4395430579965L342,129.2304042179262C242,129.2304042179262 242,101.2724077328647 142,101.2724077328647Z" style="stroke: rgb(0, 0, 0); stroke-opacity: 0.2; fill: rgb(0, 0, 0); fill-opacity: 0.2; stroke-width: 1; opacity: 1;"/><path class="sankey-link" d="M142,101.2724077328647C242,101.2724077328647 242,141.2304042179262 342,141.2304042179262L342,141.96854130052725C242,141.96854130052725 242,102.01054481546575 142,102.01054481546575Z" style="stroke: rgb(0, 0, 0); stroke-opacity: 0.2; fill: rgb(0, 0, 0); fill-opacity: 0.2; stroke-width: 1; opacity: 1;"/><path class="sankey-link" d="M142,102.01054481546576C242,102.01054481546576 242,153.96854130052725 342,153.96854130052725L342,154.7066783831283C242,154.7066783831283 242,102.7486818980668 142,102.7486818980668Z" style="stroke: rgb(0, 0, 0); stroke-opacity: 0.2; fill: rgb(0, 0, 0); fill-opacity: 0.2; stroke-width: 1; opacity: 1;"/><path class="sankey-link" d="M142,102.74868189806682C242,102.74868189806682 242,166.7066783831283 342,166.7066783831283L342,167.39209138840067C242,167.39209138840067 242,103.43409490333923 142,103.43409490333923Z" style="stroke: rgb(0, 0, 0); stroke-opacity: 0.2; fill: rgb(0, 0, 0); fill-opacity: 0.2; stroke-width: 1; opacity: 1;"/><path class="sankey-link" d="M142,103.43409490333923C242,103.43409490333923 242,179.39209138840073 342,179.39209138840073L342,179.97205623901584C242,179.97205623901584 242,104.01405975395434 142,104.01405975395434Z" style="stroke: rgb(0, 0, 0); stroke-opacity: 0.2; fill: rgb(0, 0, 0); fill-opacity: 0.2; stroke-width: 1; opacity: 1;"/><path class="sankey-link" d="M142,104.01405975395434C242,104.01405975395434 242,191.97205623901584 342,191.97205623901584L342,192.39384885764503C242,192.39384885764503 242,104.43585237258353 142,104.43585237258353Z" style="stroke: rgb(0, 0, 0); stroke-opacity: 0.2; fill: rgb(0, 0, 0); fill-opacity: 0.2; stroke-width: 1; opacity: 1;"/><path class="sankey-link" d="M142,104.43585237258351C242,104.43585237258351 242,204.39384885764503 342,204.39384885764503L342,204.8156414762742C242,204.8156414762742 242,104.8576449912127 142,104.8576449912127Z" style="stroke: rgb(0, 0, 0); stroke-opacity: 0.2; fill: rgb(0, 0, 0); fill-opacity: 0.2; stroke-width: 1; opacity: 1;"/><path class="sankey-link" d="M142,104.85764499121268C242,104.85764499121268 242,216.8156414762742 342,216.8156414762742L342,217.2374340949034C242,217.2374340949034 242,105.27943760984186 142,105.27943760984186Z" style="stroke: rgb(0, 0, 0); stroke-opacity: 0.2; fill: rgb(0, 0, 0); fill-opacity: 0.2; stroke-width: 1; opacity: 1;"/><path class="sankey-link" d="M142,105.80667838312833C242,105.80667838312833 242,253.7646748681899 342,253.7646748681899L342,254.02829525483315C242,254.02829525483315 242,106.07029876977155 142,106.07029876977155Z" style="stroke: rgb(0, 0, 0); stroke-opacity: 0.2; fill: rgb(0, 0, 0); fill-opacity: 0.2; stroke-width: 1; opacity: 1;"/><path class="sankey-link" d="M142,105.27943760984185C242,105.27943760984185 242,229.2374340949034 342,229.2374340949034L342,229.50105448154665C242,229.50105448154665 242,105.54305799648508 142,105.54305799648508Z" style="stroke: rgb(0, 0, 0); stroke-opacity: 0.2; fill: rgb(0, 0, 0); fill-opacity: 0.2; stroke-width: 1; opacity: 1;"/><path class="sankey-link" d="M142,106.07029876977157C242,106.07029876977157 242,266.0282952548331 342,266.0282952548331L342,266.2919156414763C242,266.2919156414763 242,106.3339191564148 142,106.3339191564148Z" style="stroke: rgb(0, 0, 0); stroke-opacity: 0.2; fill: rgb(0, 0, 0); fill-opacity: 0.2; stroke-width: 1; opacity: 1;"/><path class="sankey-link" d="M142,105.54305799648509C242,105.54305799648509 242,241.50105448154665 342,241.50105448154665L342,241.7646748681899C242,241.7646748681899 242,105.80667838312831 142,105.80667838312831Z" style="stroke: rgb(0, 0, 0); stroke-opacity: 0.2; fill: rgb(0, 0, 0); fill-opacity: 0.2; stroke-width: 1; opacity: 1;"/><path class="sankey-link" d="M142,112.50263620386647C242,112.50263620386647 242,278.2919156414763 342,278.2919156414763L342,278.5555360281195C242,278.5555360281195 242,112.7662565905097 142,112.7662565905097Z" style="stroke: rgb(0, 0, 0); stroke-opacity: 0.2; fill: rgb(0, 0, 0); fill-opacity: 0.2; stroke-width: 1; opacity: 1;"/><path class="sankey-link" d="M142,112.76625659050971C242,112.76625659050971 242,290.5555360281195 342,290.5555360281195L342,290.8191564147627C242,290.8191564147627 242,113.02987697715294 142,113.02987697715294Z" style="stroke: rgb(0, 0, 0); stroke-opacity: 0.2; fill: rgb(0, 0, 0); fill-opacity: 0.2; stroke-width: 1; opacity: 1;"/><path class="sankey-link" d="M142,113.02987697715295C242,113.02987697715295 242,302.8191564147627 342,302.8191564147627L342,303.0300527240772C242,303.0300527240772 242,113.24077328646754 142,113.24077328646754Z" style="stroke: rgb(0, 0, 0); stroke-opacity: 0.2; fill: rgb(0, 0, 0); fill-opacity: 0.2; stroke-width: 1; opacity: 1;"/><path class="sankey-link" d="M142,113.24077328646754C242,113.24077328646754 242,315.0300527240773 342,315.0300527240773L342,315.2409490333918C242,315.2409490333918 242,113.45166959578214 142,113.45166959578214Z" style="stroke: rgb(0, 0, 0); stroke-opacity: 0.2; fill: rgb(0, 0, 0); fill-opacity: 0.2; stroke-width: 1; opacity: 1;"/><path class="sankey-link" d="M142,113.45166959578214C242,113.45166959578214 242,327.24094903339187 342,327.24094903339187L342,327.4518453427064C242,327.4518453427064 242,113.66256590509673 142,113.66256590509673Z" style="stroke: rgb(0, 0, 0); stroke-opacity: 0.2; fill: rgb(0, 0, 0); fill-opacity: 0.2; stroke-width: 1; opacity: 1;"/><path class="sankey-link" d="M142,113.82073813708267C242,113.82073813708267 242,351.6100175746925 342,351.6100175746925L342,351.7681898066785C242,351.7681898066785 242,113.9789103690686 142,113.9789103690686Z" style="stroke: rgb(0, 0, 0); stroke-opacity: 0.2; fill: rgb(0, 0, 0); fill-opacity: 0.2; stroke-width: 1; opacity: 1;"/><path class="sankey-link" d="M142,113.97891036906861C242,113.97891036906861 242,363.76818980667844 342,363.76818980667844L342,363.9263620386644C242,363.9263620386644 242,114.13708260105454 142,114.13708260105454Z" style="stroke: rgb(0, 0, 0); stroke-opacity: 0.2; fill: rgb(0, 0, 0); fill-opacity: 0.2; stroke-width: 1; opacity: 1;"/><path class="sankey-link" d="M142,114.13708260105456C242,114.13708260105456 242,375.92636203866437 342,375.92636203866437L342,376.08453427065035C242,376.08453427065035 242,114.29525483304049 142,114.29525483304049Z" style="stroke: rgb(0, 0, 0); stroke-opacity: 0.2; fill: rgb(0, 0, 0); fill-opacity: 0.2; stroke-width: 1; opacity: 1;"/><path class="sankey-link" d="M142,114.2952548330405C242,114.2952548330405 242,388.0845342706503 342,388.0845342706503L342,388.2427065026363C242,388.2427065026363 242,114.45342706502643 142,114.45342706502643Z" style="stroke: rgb(0, 0, 0); stroke-opacity: 0.2; fill: rgb(0, 0, 0); fill-opacity: 0.2; stroke-width: 1; opacity: 1;"/><path class="sankey-link" d="M142,114.45342706502645C242,114.45342706502645 242,400.2427065026362 342,400.2427065026362L342,400.4008787346222C242,400.4008787346222 242,114.61159929701238 142,114.61159929701238Z" style="stroke: rgb(0, 0, 0); stroke-opacity: 0.2; fill: rgb(0, 0, 0); fill-opacity: 0.2; stroke-width: 1; opacity: 1;"/><path class="sankey-link" d="M142,113.66256590509673C242,113.66256590509673 242,339.4518453427065 342,339.4518453427065L342,339.6100175746925C242,339.6100175746925 242,113.82073813708266 142,113.82073813708266Z" style="stroke: rgb(0, 0, 0); stroke-opacity: 0.2; fill: rgb(0, 0, 0); fill-opacity: 0.2; stroke-width: 1; opacity: 1;"/><path class="sankey-link" d="M142,114.61159929701239C242,114.61159929701239 242,412.40087873462215 342,412.40087873462215L342,412.55905096660814C242,412.55905096660814 242,114.76977152899832 142,114.76977152899832Z" style="stroke: rgb(0, 0, 0); stroke-opacity: 0.2; fill: rgb(0, 0, 0); fill-opacity: 0.2; stroke-width: 1; opacity: 1;"/><path class="sankey-link" d="M142,114.76977152899833C242,114.76977152899833 242,424.5590509666081 342,424.5590509666081L342,424.71722319859407C242,424.71722319859407 242,114.92794376098426 142,114.92794376098426Z" style="stroke: rgb(0, 0, 0); stroke-opacity: 0.2; fill: rgb(0, 0, 0); fill-opacity: 0.2; stroke-width: 1; opacity: 1;"/><path class="sankey-link" d="M142,114.92794376098428C242,114.92794376098428 242,436.717223198594 342,436.717223198594L342,436.87539543058C242,436.87539543058 242,115.0861159929702 142,115.0861159929702Z" style="stroke: rgb(0, 0, 0); stroke-opacity: 0.2; fill: rgb(0, 0, 0); fill-opacity: 0.2; stroke-width: 1; opacity: 1;"/><path class="sankey-link" d="M142,106.33391915641481C253,106.33391915641481 253,266.9156414762742 364,266.9156414762742L364,273.0843585237258C253,273.0843585237258 253,112.50263620386649 142,112.50263620386649Z" style="stroke: rgb(68, 68, 68); stroke-opacity: 1; fill: rgb(0, 0, 0); fill-opacity: 0.2; stroke-width: 0; opacity: 1;"/></g><g class="sankey-node-set" style="cursor: move;"><g class="sankey-node" transform="translate(34.000,63.000)" style="opacity: 1;"><rect class="node-rect" width="20" height="90" style="stroke-width: 0.5; stroke: rgb(68, 68, 68); stroke-opacity: 1; fill: rgb(99, 110, 250); fill-opacity: 0.8;"/><text class="node-label" data-notex="1" x="0" y="0" text-anchor="start" transform="translate(23.25,49.9)" style="cursor: default; font-family: 'sans serif'; font-size: 14px; fill: rgb(0, 0, 0); fill-opacity: 1; white-space: pre; text-shadow: white 1px 1px 1px, white -1px -1px 1px, white 1px -1px 1px, white -1px 1px 1px;">submitted</text></g><g class="sankey-node" transform="translate(122.000,265.521)" style="opacity: 1;"><rect class="node-rect" width="20" height="1.0544815465729016" style="stroke-width: 0.5; stroke: rgb(68, 68, 68); stroke-opacity: 1; fill: rgb(239, 85, 59); fill-opacity: 0.8;"/><text class="node-label" data-notex="1" x="0" y="0" text-anchor="start" transform="translate(23.25,5.42724077328645)" style="cursor: default; font-family: 'sans serif'; font-size: 14px; fill: rgb(0, 0, 0); fill-opacity: 1; white-space: pre; text-shadow: white 1px 1px 1px, white -1px -1px 1px, white 1px -1px 1px, white -1px 1px 1px;">oral</text></g><g class="sankey-node" transform="translate(122.000,250.252)" style="opacity: 1;"><rect class="node-rect" width="20" height="3.268892794376086" style="stroke-width: 0.5; stroke: rgb(68, 68, 68); stroke-opacity: 1; fill: rgb(0, 204, 150); fill-opacity: 0.8;"/><text class="node-label" data-notex="1" x="0" y="0" text-anchor="start" transform="translate(23.25,6.534446397188042)" style="cursor: default; font-family: 'sans serif'; font-size: 14px; fill: rgb(0, 0, 0); fill-opacity: 1; white-space: pre; text-shadow: white 1px 1px 1px, white -1px -1px 1px, white 1px -1px 1px, white -1px 1px 1px;">spotlight</text></g><g class="sankey-node" transform="translate(122.000,220.748)" style="opacity: 1;"><rect class="node-rect" width="20" height="17.504393673110656" style="stroke-width: 0.5; stroke: rgb(68, 68, 68); stroke-opacity: 1; fill: rgb(171, 99, 250); fill-opacity: 0.8;"/><text class="node-label" data-notex="1" x="0" y="0" text-anchor="start" transform="translate(23.25,13.652196836555326)" style="cursor: default; font-family: 'sans serif'; font-size: 14px; fill: rgb(0, 0, 0); fill-opacity: 1; white-space: pre; text-shadow: white 1px 1px 1px, white -1px -1px 1px, white 1px -1px 1px, white -1px 1px 1px;">poster</text></g><g class="sankey-node" transform="translate(122.000,46.914)" style="opacity: 1;"><rect class="node-rect" width="20" height="68.17223198594019" style="stroke-width: 0.5; stroke: rgb(68, 68, 68); stroke-opacity: 1; fill: rgb(255, 161, 90); fill-opacity: 0.8;"/><text class="node-label" data-notex="1" x="0" y="0" text-anchor="start" transform="translate(23.25,38.98611599297009)" style="cursor: default; font-family: 'sans serif'; font-size: 14px; fill: rgb(0, 0, 0); fill-opacity: 1; white-space: pre; text-shadow: white 1px 1px 1px, white -1px -1px 1px, white 1px -1px 1px, white -1px 1px 1px;">reject</text></g><g class="sankey-node" transform="translate(210.000,0.000)" style="opacity: 1;"><rect class="node-rect" width="20" height="30.79086115992971" style="stroke-width: 0.5; stroke: rgb(68, 68, 68); stroke-opacity: 1; fill: rgb(25, 211, 243); fill-opacity: 0.8;"/><text class="node-label" data-notex="1" x="0" y="0" text-anchor="start" transform="translate(23.25,20.295430579964854)" style="cursor: default; font-family: 'sans serif'; font-size: 14px; fill: rgb(0, 0, 0); fill-opacity: 1; white-space: pre; text-shadow: white 1px 1px 1px, white -1px -1px 1px, white 1px -1px 1px, white -1px 1px 1px;">/dev/null</text></g><g class="sankey-node" transform="translate(320.000,35.834)" style="opacity: 1;"><rect class="node-rect" width="20" height="9.33216168717047" style="stroke-width: 0.5; stroke: rgb(68, 68, 68); stroke-opacity: 1; fill: rgb(255, 102, 146); fill-opacity: 0.8;"/><text class="node-label" data-notex="1" x="0" y="0" text-anchor="start" transform="translate(23.25,9.566080843585233)" style="cursor: default; font-family: 'sans serif'; font-size: 14px; fill: rgb(0, 0, 0); fill-opacity: 1; white-space: pre; text-shadow: white 1px 1px 1px, white -1px -1px 1px, white 1px -1px 1px, white -1px 1px 1px;">ArXiv</text></g><g class="sankey-node" transform="translate(320.000,57.166)" style="opacity: 1;"><rect class="node-rect" width="20" height="4.007029876977128" style="stroke-width: 0.5; stroke: rgb(68, 68, 68); stroke-opacity: 1; fill: rgb(182, 232, 128); fill-opacity: 0.8;"/><text class="node-label" data-notex="1" x="0" y="0" text-anchor="start" transform="translate(23.25,6.903514938488564)" style="cursor: default; font-family: 'sans serif'; font-size: 14px; fill: rgb(0, 0, 0); fill-opacity: 1; white-space: pre; text-shadow: white 1px 1px 1px, white -1px -1px 1px, white 1px -1px 1px, white -1px 1px 1px;">None</text></g><g class="sankey-node" transform="translate(342.000,71.002)" style="opacity: 1;"><rect class="node-rect" width="20" height="3.796133567662565" style="stroke-width: 0.5; stroke: rgb(68, 68, 68); stroke-opacity: 1; fill: rgb(255, 151, 255); fill-opacity: 0.8;"/><text class="node-label" data-notex="1" x="0" y="0" text-anchor="start" transform="translate(23.25,6.798066783831282)" style="cursor: default; font-family: 'sans serif'; font-size: 14px; fill: rgb(0, 0, 0); fill-opacity: 1; white-space: pre; text-shadow: white 1px 1px 1px, white -1px -1px 1px, white 1px -1px 1px, white -1px 1px 1px;">AAAI</text></g><g class="sankey-node" transform="translate(342.000,86.798)" style="opacity: 1;"><rect class="node-rect" width="20" height="3.0052724077328605" style="stroke-width: 0.5; stroke: rgb(68, 68, 68); stroke-opacity: 1; fill: rgb(254, 203, 82); fill-opacity: 0.8;"/><text class="node-label" data-notex="1" x="0" y="0" text-anchor="start" transform="translate(23.25,6.40263620386643)" style="cursor: default; font-family: 'sans serif'; font-size: 14px; fill: rgb(0, 0, 0); fill-opacity: 1; white-space: pre; text-shadow: white 1px 1px 1px, white -1px -1px 1px, white 1px -1px 1px, white -1px 1px 1px;">AISTATS</text></g><g class="sankey-node" transform="translate(342.000,101.803)" style="opacity: 1;"><rect class="node-rect" width="20" height="1.7398945518453388" style="stroke-width: 0.5; stroke: rgb(68, 68, 68); stroke-opacity: 1; fill: rgb(99, 110, 250); fill-opacity: 0.8;"/><text class="node-label" data-notex="1" x="0" y="0" text-anchor="start" transform="translate(23.25,5.769947275922669)" style="cursor: default; font-family: 'sans serif'; font-size: 14px; fill: rgb(0, 0, 0); fill-opacity: 1; white-space: pre; text-shadow: white 1px 1px 1px, white -1px -1px 1px, white 1px -1px 1px, white -1px 1px 1px;">ICML</text></g><g class="sankey-node" transform="translate(342.000,115.543)" style="opacity: 1;"><rect class="node-rect" width="20" height="0.8963093145870005" style="stroke-width: 0.5; stroke: rgb(68, 68, 68); stroke-opacity: 1; fill: rgb(239, 85, 59); fill-opacity: 0.8;"/><text class="node-label" data-notex="1" x="0" y="0" text-anchor="start" transform="translate(23.25,5.3481546572935)" style="cursor: default; font-family: 'sans serif'; font-size: 14px; fill: rgb(0, 0, 0); fill-opacity: 1; white-space: pre; text-shadow: white 1px 1px 1px, white -1px -1px 1px, white 1px -1px 1px, white -1px 1px 1px;">CVPR</text></g><g class="sankey-node" transform="translate(342.000,128.440)" style="opacity: 1;"><rect class="node-rect" width="20" height="0.7908611599297046" style="stroke-width: 0.5; stroke: rgb(68, 68, 68); stroke-opacity: 1; fill: rgb(0, 204, 150); fill-opacity: 0.8;"/><text class="node-label" data-notex="1" x="0" y="0" text-anchor="start" transform="translate(23.25,5.295430579964852)" style="cursor: default; font-family: 'sans serif'; font-size: 14px; fill: rgb(0, 0, 0); fill-opacity: 1; white-space: pre; text-shadow: white 1px 1px 1px, white -1px -1px 1px, white 1px -1px 1px, white -1px 1px 1px;">NIPS</text></g><g class="sankey-node" transform="translate(342.000,141.230)" style="opacity: 1;"><rect class="node-rect" width="20" height="0.7381370826010425" style="stroke-width: 0.5; stroke: rgb(68, 68, 68); stroke-opacity: 1; fill: rgb(171, 99, 250); fill-opacity: 0.8;"/><text class="node-label" data-notex="1" x="0" y="0" text-anchor="start" transform="translate(23.25,5.269068541300521)" style="cursor: default; font-family: 'sans serif'; font-size: 14px; fill: rgb(0, 0, 0); fill-opacity: 1; white-space: pre; text-shadow: white 1px 1px 1px, white -1px -1px 1px, white 1px -1px 1px, white -1px 1px 1px;">IJCAI</text></g><g class="sankey-node" transform="translate(342.000,153.969)" style="opacity: 1;"><rect class="node-rect" width="20" height="0.7381370826010425" style="stroke-width: 0.5; stroke: rgb(68, 68, 68); stroke-opacity: 1; fill: rgb(255, 161, 90); fill-opacity: 0.8;"/><text class="node-label" data-notex="1" x="0" y="0" text-anchor="start" transform="translate(23.25,5.269068541300521)" style="cursor: default; font-family: 'sans serif'; font-size: 14px; fill: rgb(0, 0, 0); fill-opacity: 1; white-space: pre; text-shadow: white 1px 1px 1px, white -1px -1px 1px, white 1px -1px 1px, white -1px 1px 1px;">JMLR</text></g><g class="sankey-node" transform="translate(342.000,166.707)" style="opacity: 1;"><rect class="node-rect" width="20" height="0.6854130052724372" style="stroke-width: 0.5; stroke: rgb(68, 68, 68); stroke-opacity: 1; fill: rgb(25, 211, 243); fill-opacity: 0.8;"/><text class="node-label" data-notex="1" x="0" y="0" text-anchor="start" transform="translate(23.25,5.242706502636218)" style="cursor: default; font-family: 'sans serif'; font-size: 14px; fill: rgb(0, 0, 0); fill-opacity: 1; white-space: pre; text-shadow: white 1px 1px 1px, white -1px -1px 1px, white 1px -1px 1px, white -1px 1px 1px;">ICLR</text></g><g class="sankey-node" transform="translate(342.000,179.392)" style="opacity: 1;"><rect class="node-rect" width="20" height="0.5799648506151129" style="stroke-width: 0.5; stroke: rgb(68, 68, 68); stroke-opacity: 1; fill: rgb(255, 102, 146); fill-opacity: 0.8;"/><text class="node-label" data-notex="1" x="0" y="0" text-anchor="start" transform="translate(23.25,5.189982425307556)" style="cursor: default; font-family: 'sans serif'; font-size: 14px; fill: rgb(0, 0, 0); fill-opacity: 1; white-space: pre; text-shadow: white 1px 1px 1px, white -1px -1px 1px, white 1px -1px 1px, white -1px 1px 1px;">UAI</text></g><g class="sankey-node" transform="translate(342.000,191.972)" style="opacity: 1;"><rect class="node-rect" width="20" height="0.5" style="stroke-width: 0.5; stroke: rgb(68, 68, 68); stroke-opacity: 1; fill: rgb(182, 232, 128); fill-opacity: 0.8;"/><text class="node-label" data-notex="1" x="0" y="0" text-anchor="start" transform="translate(23.25,5.1499999999999995)" style="cursor: default; font-family: 'sans serif'; font-size: 14px; fill: rgb(0, 0, 0); fill-opacity: 1; white-space: pre; text-shadow: white 1px 1px 1px, white -1px -1px 1px, white 1px -1px 1px, white -1px 1px 1px;">SDM</text></g><g class="sankey-node" transform="translate(342.000,204.394)" style="opacity: 1;"><rect class="node-rect" width="20" height="0.5" style="stroke-width: 0.5; stroke: rgb(68, 68, 68); stroke-opacity: 1; fill: rgb(255, 151, 255); fill-opacity: 0.8;"/><text class="node-label" data-notex="1" x="0" y="0" text-anchor="start" transform="translate(23.25,5.1499999999999995)" style="cursor: default; font-family: 'sans serif'; font-size: 14px; fill: rgb(0, 0, 0); fill-opacity: 1; white-space: pre; text-shadow: white 1px 1px 1px, white -1px -1px 1px, white 1px -1px 1px, white -1px 1px 1px;">IJCNN</text></g><g class="sankey-node" transform="translate(342.000,216.816)" style="opacity: 1;"><rect class="node-rect" width="20" height="0.5" style="stroke-width: 0.5; stroke: rgb(68, 68, 68); stroke-opacity: 1; fill: rgb(254, 203, 82); fill-opacity: 0.8;"/><text class="node-label" data-notex="1" x="0" y="0" text-anchor="start" transform="translate(23.25,5.1499999999999995)" style="cursor: default; font-family: 'sans serif'; font-size: 14px; fill: rgb(0, 0, 0); fill-opacity: 1; white-space: pre; text-shadow: white 1px 1px 1px, white -1px -1px 1px, white 1px -1px 1px, white -1px 1px 1px;">ICASSP</text></g><g class="sankey-node" transform="translate(342.000,253.765)" style="opacity: 1;"><rect class="node-rect" width="20" height="0.5" style="stroke-width: 0.5; stroke: rgb(68, 68, 68); stroke-opacity: 1; fill: rgb(99, 110, 250); fill-opacity: 0.8;"/><text class="node-label" data-notex="1" x="0" y="0" text-anchor="start" transform="translate(23.25,5.1499999999999995)" style="cursor: default; font-family: 'sans serif'; font-size: 14px; fill: rgb(0, 0, 0); fill-opacity: 1; white-space: pre; text-shadow: white 1px 1px 1px, white -1px -1px 1px, white 1px -1px 1px, white -1px 1px 1px;">Neural Computation</text></g><g class="sankey-node" transform="translate(342.000,229.237)" style="opacity: 1;"><rect class="node-rect" width="20" height="0.5" style="stroke-width: 0.5; stroke: rgb(68, 68, 68); stroke-opacity: 1; fill: rgb(239, 85, 59); fill-opacity: 0.8;"/><text class="node-label" data-notex="1" x="0" y="0" text-anchor="start" transform="translate(23.25,5.1499999999999995)" style="cursor: default; font-family: 'sans serif'; font-size: 14px; fill: rgb(0, 0, 0); fill-opacity: 1; white-space: pre; text-shadow: white 1px 1px 1px, white -1px -1px 1px, white 1px -1px 1px, white -1px 1px 1px;">ICCV</text></g><g class="sankey-node" transform="translate(342.000,266.028)" style="opacity: 1;"><rect class="node-rect" width="20" height="0.5" style="stroke-width: 0.5; stroke: rgb(68, 68, 68); stroke-opacity: 1; fill: rgb(0, 204, 150); fill-opacity: 0.8;"/><text class="node-label" data-notex="1" x="0" y="0" text-anchor="start" transform="translate(23.25,5.1499999999999995)" style="cursor: default; font-family: 'sans serif'; font-size: 14px; fill: rgb(0, 0, 0); fill-opacity: 1; white-space: pre; text-shadow: white 1px 1px 1px, white -1px -1px 1px, white 1px -1px 1px, white -1px 1px 1px;">AAMAS</text></g><g class="sankey-node" transform="translate(342.000,241.501)" style="opacity: 1;"><rect class="node-rect" width="20" height="0.5" style="stroke-width: 0.5; stroke: rgb(68, 68, 68); stroke-opacity: 1; fill: rgb(171, 99, 250); fill-opacity: 0.8;"/><text class="node-label" data-notex="1" x="0" y="0" text-anchor="start" transform="translate(23.25,5.1499999999999995)" style="cursor: default; font-family: 'sans serif'; font-size: 14px; fill: rgb(0, 0, 0); fill-opacity: 1; white-space: pre; text-shadow: white 1px 1px 1px, white -1px -1px 1px, white 1px -1px 1px, white -1px 1px 1px;">Neurocomputing</text></g><g class="sankey-node" transform="translate(342.000,278.292)" style="opacity: 1;"><rect class="node-rect" width="20" height="0.5" style="stroke-width: 0.5; stroke: rgb(68, 68, 68); stroke-opacity: 1; fill: rgb(255, 161, 90); fill-opacity: 0.8;"/><text class="node-label" data-notex="1" x="0" y="0" text-anchor="start" transform="translate(23.25,5.1499999999999995)" style="cursor: default; font-family: 'sans serif'; font-size: 14px; fill: rgb(0, 0, 0); fill-opacity: 1; white-space: pre; text-shadow: white 1px 1px 1px, white -1px -1px 1px, white 1px -1px 1px, white -1px 1px 1px;">ACML</text></g><g class="sankey-node" transform="translate(342.000,290.556)" style="opacity: 1;"><rect class="node-rect" width="20" height="0.5" style="stroke-width: 0.5; stroke: rgb(68, 68, 68); stroke-opacity: 1; fill: rgb(25, 211, 243); fill-opacity: 0.8;"/><text class="node-label" data-notex="1" x="0" y="0" text-anchor="start" transform="translate(23.25,5.1499999999999995)" style="cursor: default; font-family: 'sans serif'; font-size: 14px; fill: rgb(0, 0, 0); fill-opacity: 1; white-space: pre; text-shadow: white 1px 1px 1px, white -1px -1px 1px, white 1px -1px 1px, white -1px 1px 1px;">ICIP</text></g><g class="sankey-node" transform="translate(342.000,302.819)" style="opacity: 1;"><rect class="node-rect" width="20" height="0.5" style="stroke-width: 0.5; stroke: rgb(68, 68, 68); stroke-opacity: 1; fill: rgb(255, 102, 146); fill-opacity: 0.8;"/><text class="node-label" data-notex="1" x="0" y="0" text-anchor="start" transform="translate(23.25,5.1499999999999995)" style="cursor: default; font-family: 'sans serif'; font-size: 14px; fill: rgb(0, 0, 0); fill-opacity: 1; white-space: pre; text-shadow: white 1px 1px 1px, white -1px -1px 1px, white 1px -1px 1px, white -1px 1px 1px;">ICDM</text></g><g class="sankey-node" transform="translate(342.000,315.030)" style="opacity: 1;"><rect class="node-rect" width="20" height="0.5" style="stroke-width: 0.5; stroke: rgb(68, 68, 68); stroke-opacity: 1; fill: rgb(182, 232, 128); fill-opacity: 0.8;"/><text class="node-label" data-notex="1" x="0" y="0" text-anchor="start" transform="translate(23.25,5.1499999999999995)" style="cursor: default; font-family: 'sans serif'; font-size: 14px; fill: rgb(0, 0, 0); fill-opacity: 1; white-space: pre; text-shadow: white 1px 1px 1px, white -1px -1px 1px, white 1px -1px 1px, white -1px 1px 1px;">PloS one</text></g><g class="sankey-node" transform="translate(342.000,327.241)" style="opacity: 1;"><rect class="node-rect" width="20" height="0.5" style="stroke-width: 0.5; stroke: rgb(68, 68, 68); stroke-opacity: 1; fill: rgb(255, 151, 255); fill-opacity: 0.8;"/><text class="node-label" data-notex="1" x="0" y="0" text-anchor="start" transform="translate(23.25,5.1499999999999995)" style="cursor: default; font-family: 'sans serif'; font-size: 14px; fill: rgb(0, 0, 0); fill-opacity: 1; white-space: pre; text-shadow: white 1px 1px 1px, white -1px -1px 1px, white 1px -1px 1px, white -1px 1px 1px;">Pattern Recognit.</text></g><g class="sankey-node" transform="translate(342.000,351.610)" style="opacity: 1;"><rect class="node-rect" width="20" height="0.5" style="stroke-width: 0.5; stroke: rgb(68, 68, 68); stroke-opacity: 1; fill: rgb(254, 203, 82); fill-opacity: 0.8;"/><text class="node-label" data-notex="1" x="0" y="0" text-anchor="start" transform="translate(23.25,5.1499999999999995)" style="cursor: default; font-family: 'sans serif'; font-size: 14px; fill: rgb(0, 0, 0); fill-opacity: 1; white-space: pre; text-shadow: white 1px 1px 1px, white -1px -1px 1px, white 1px -1px 1px, white -1px 1px 1px;">KDD</text></g><g class="sankey-node" transform="translate(342.000,363.768)" style="opacity: 1;"><rect class="node-rect" width="20" height="0.5" style="stroke-width: 0.5; stroke: rgb(68, 68, 68); stroke-opacity: 1; fill: rgb(99, 110, 250); fill-opacity: 0.8;"/><text class="node-label" data-notex="1" x="0" y="0" text-anchor="start" transform="translate(23.25,5.1499999999999995)" style="cursor: default; font-family: 'sans serif'; font-size: 14px; fill: rgb(0, 0, 0); fill-opacity: 1; white-space: pre; text-shadow: white 1px 1px 1px, white -1px -1px 1px, white 1px -1px 1px, white -1px 1px 1px;">TMI</text></g><g class="sankey-node" transform="translate(342.000,375.926)" style="opacity: 1;"><rect class="node-rect" width="20" height="0.5" style="stroke-width: 0.5; stroke: rgb(68, 68, 68); stroke-opacity: 1; fill: rgb(239, 85, 59); fill-opacity: 0.8;"/><text class="node-label" data-notex="1" x="0" y="0" text-anchor="start" transform="translate(23.25,5.1499999999999995)" style="cursor: default; font-family: 'sans serif'; font-size: 14px; fill: rgb(0, 0, 0); fill-opacity: 1; white-space: pre; text-shadow: white 1px 1px 1px, white -1px -1px 1px, white 1px -1px 1px, white -1px 1px 1px;">ICRA</text></g><g class="sankey-node" transform="translate(342.000,388.085)" style="opacity: 1;"><rect class="node-rect" width="20" height="0.5" style="stroke-width: 0.5; stroke: rgb(68, 68, 68); stroke-opacity: 1; fill: rgb(0, 204, 150); fill-opacity: 0.8;"/><text class="node-label" data-notex="1" x="0" y="0" text-anchor="start" transform="translate(23.25,5.1499999999999995)" style="cursor: default; font-family: 'sans serif'; font-size: 14px; fill: rgb(0, 0, 0); fill-opacity: 1; white-space: pre; text-shadow: white 1px 1px 1px, white -1px -1px 1px, white 1px -1px 1px, white -1px 1px 1px;">ISBI</text></g><g class="sankey-node" transform="translate(342.000,400.243)" style="opacity: 1;"><rect class="node-rect" width="20" height="0.5" style="stroke-width: 0.5; stroke: rgb(68, 68, 68); stroke-opacity: 1; fill: rgb(171, 99, 250); fill-opacity: 0.8;"/><text class="node-label" data-notex="1" x="0" y="0" text-anchor="start" transform="translate(23.25,5.1499999999999995)" style="cursor: default; font-family: 'sans serif'; font-size: 14px; fill: rgb(0, 0, 0); fill-opacity: 1; white-space: pre; text-shadow: white 1px 1px 1px, white -1px -1px 1px, white 1px -1px 1px, white -1px 1px 1px;">TIT</text></g><g class="sankey-node" transform="translate(342.000,339.452)" style="opacity: 1;"><rect class="node-rect" width="20" height="0.5" style="stroke-width: 0.5; stroke: rgb(68, 68, 68); stroke-opacity: 1; fill: rgb(255, 161, 90); fill-opacity: 0.8;"/><text class="node-label" data-notex="1" x="0" y="0" text-anchor="start" transform="translate(23.25,5.1499999999999995)" style="cursor: default; font-family: 'sans serif'; font-size: 14px; fill: rgb(0, 0, 0); fill-opacity: 1; white-space: pre; text-shadow: white 1px 1px 1px, white -1px -1px 1px, white 1px -1px 1px, white -1px 1px 1px;">AAAI Workshops</text></g><g class="sankey-node" transform="translate(342.000,412.401)" style="opacity: 1;"><rect class="node-rect" width="20" height="0.5" style="stroke-width: 0.5; stroke: rgb(68, 68, 68); stroke-opacity: 1; fill: rgb(25, 211, 243); fill-opacity: 0.8;"/><text class="node-label" data-notex="1" x="0" y="0" text-anchor="start" transform="translate(23.25,5.1499999999999995)" style="cursor: default; font-family: 'sans serif'; font-size: 14px; fill: rgb(0, 0, 0); fill-opacity: 1; white-space: pre; text-shadow: white 1px 1px 1px, white -1px -1px 1px, white 1px -1px 1px, white -1px 1px 1px;">COLT</text></g><g class="sankey-node" transform="translate(342.000,424.559)" style="opacity: 1;"><rect class="node-rect" width="20" height="0.5" style="stroke-width: 0.5; stroke: rgb(68, 68, 68); stroke-opacity: 1; fill: rgb(255, 102, 146); fill-opacity: 0.8;"/><text class="node-label" data-notex="1" x="0" y="0" text-anchor="start" transform="translate(23.25,5.1499999999999995)" style="cursor: default; font-family: 'sans serif'; font-size: 14px; fill: rgb(0, 0, 0); fill-opacity: 1; white-space: pre; text-shadow: white 1px 1px 1px, white -1px -1px 1px, white 1px -1px 1px, white -1px 1px 1px;">TPAMI</text></g><g class="sankey-node" transform="translate(342.000,436.717)" style="opacity: 1;"><rect class="node-rect" width="20" height="0.5" style="stroke-width: 0.5; stroke: rgb(68, 68, 68); stroke-opacity: 1; fill: rgb(182, 232, 128); fill-opacity: 0.8;"/><text class="node-label" data-notex="1" x="0" y="0" text-anchor="start" transform="translate(23.25,5.1499999999999995)" style="cursor: default; font-family: 'sans serif'; font-size: 14px; fill: rgb(0, 0, 0); fill-opacity: 1; white-space: pre; text-shadow: white 1px 1px 1px, white -1px -1px 1px, white 1px -1px 1px, white -1px 1px 1px;">Bioinform.</text></g><g class="sankey-node" transform="translate(364.000,266.916)" style="opacity: 1;"><rect class="node-rect" width="20" height="6.168717047451651" style="stroke-width: 0.5; stroke: rgb(68, 68, 68); stroke-opacity: 1; fill: rgb(255, 151, 255); fill-opacity: 0.8;"/><text class="node-label" data-notex="1" x="0" y="0" text-anchor="end" transform="translate(-3.25,7.984358523725825)" style="cursor: default; font-family: 'sans serif'; font-size: 14px; fill: rgb(0, 0, 0); fill-opacity: 1; white-space: pre; text-shadow: white 1px 1px 1px, white -1px -1px 1px, white 1px -1px 1px, white -1px 1px 1px;">other</text></g></g></g><defs id="topdefs-00786c"><g class="clips"/></defs><g class="layer-above"><g class="imagelayer"/><g class="shapelayer"/></g><g class="infolayer"><g class="g-gtitle"/><g class="first-render"/></g></svg>