<?xml version="1.0" encoding="UTF-8" standalone="no"?>
<svg
   xmlns:dc="http://purl.org/dc/elements/1.1/"
   xmlns:cc="http://creativecommons.org/ns#"
   xmlns:rdf="http://www.w3.org/1999/02/22-rdf-syntax-ns#"
   xmlns:svg="http://www.w3.org/2000/svg"
   xmlns="http://www.w3.org/2000/svg"
   xmlns:sodipodi="http://sodipodi.sourceforge.net/DTD/sodipodi-0.dtd"
   xmlns:inkscape="http://www.inkscape.org/namespaces/inkscape"
   viewBox="0 0 600 300"
   height="127mm"
   width="254mm">
  <defs
      id="defs22" />
  <path
      d="M 30, 0
    L 570, 0
    A 30 30 0 0 1, 600,30
    L 600, 270
    A 30 30 0 0 1 570, 300
    L 30, 300
    A 30 30 0 0 1 0, 270
    L 0, 30
    A 30 30 0 0 1 30, 0"
      id="all-models"
      class="dpath"
      style="fill:rgb(221,221,70);fill-oopacity:0.5;stroke:none"/>
  <text
     id="all-models-text"
     class="dtext"
     y="20"
     x="30"
     style="fill:rgb(78,221,78)">
    <tspan
       id="all-models-tspan"
       y="20"
       x="30">all models</tspan>
  </text>
  <path
      d="M 60, 30
    L 540, 30
    A 30 30 0 0 1, 570,60
    L 570, 240
    A 30 30 0 0 1 540, 270
    L 60, 270
    A 30 30 0 0 1 30, 240
    L 30, 60
    A 30 30 0 0 1 60, 30"
     class="dpath"
     id="all-models-we-can-sample-from"
     style="fill:rgb(78,221,78);fill-opacity:1;stroke:none" />
  <text
     id="computable-models-text"
     class="dtext"
     y="50"
     x="50"
     style="fill:rgb(221,221,78)">
    <tspan
       id="computable-models-tspan"
       y="50"
       x="50">computable models</tspan>
  </text>
  <path
      d="M 90, 60
    L 510, 60
    A 30 30 0 0 1, 540,90
    L 540, 210
    A 30 30 0 0 1 510, 240
    L 90, 240
    A 30 30 0 0 1 60, 210
    L 60, 90
    A 30 30 0 0 1 90, 60"
     class="dpath"
     id="analytic-models"
     style="fill:rgb(78,78,221);fill-opacity:1;stroke:none" />
  <text
     id="analytic-models-text"
     class="dtext"
     y="50"
     x="50"
     style="fill:rgb(221,78,78)">
    <tspan
       id="analytic-models-tspan"
       y="80"
       x="80">mathematically analytic models</tspan>
  </text>
  <path
      d="M 120, 90
    L 480, 90
    A 30 30 0 0 1, 510,120
    L 510, 180
    A 30 30 0 0 1 480, 210
    L 120, 210
    A 30 30 0 0 1 90, 180
    L 90, 120
    A 30 30 0 0 1 120, 90"
     class="dpath"
     id="gaussian-process-models"
     style="fill:rgb(221,78,78);fill-opacity:1;stroke:none" />
  <text
     id="gaussian-process-text"
     class="dtext"
     y="50"
     x="50"
     style="fill:rgb(221,221,78)">
    <tspan
       id="gaussian-process-tspan"
       y="110"
       x="110">Gaussian processes</tspan>
  </text>
</svg>
