<svg
   xmlns:dc="http://purl.org/dc/elements/1.1/"
   xmlns:cc="http://creativecommons.org/ns#"
   xmlns:rdf="http://www.w3.org/1999/02/22-rdf-syntax-ns#"
   xmlns:svg="http://www.w3.org/2000/svg"
   xmlns="http://www.w3.org/2000/svg"
   xmlns:xlink="http://www.w3.org/1999/xlink"
   xmlns:sodipodi="http://sodipodi.sourceforge.net/DTD/sodipodi-0.dtd"
   xmlns:inkscape="http://www.inkscape.org/namespaces/inkscape"
   viewBox="60 20 485 180"
   width="485"
   height="180"
   version="1.1"
   id="svg3885"
   sodipodi:docname="maxwells-demon.svg"
   inkscape:version="1.0.2 (e86c8708, 2021-01-15)">
  <metadata
     id="metadata3889">
    <rdf:RDF>
      <cc:Work
         rdf:about="">
        <dc:format>image/svg+xml</dc:format>
        <dc:type
           rdf:resource="http://purl.org/dc/dcmitype/StillImage" />
      </cc:Work>
    </rdf:RDF>
  </metadata>
  <sodipodi:namedview
     pagecolor="#ffffff"
     bordercolor="#666666"
     borderopacity="1"
     objecttolerance="10"
     gridtolerance="10"
     guidetolerance="10"
     inkscape:pageopacity="0"
     inkscape:pageshadow="2"
     inkscape:window-width="1278"
     inkscape:window-height="696"
     id="namedview3887"
     showgrid="false"
     inkscape:zoom="1.7302632"
     inkscape:cx="192.74525"
     inkscape:cy="112"
     inkscape:window-x="982"
     inkscape:window-y="435"
     inkscape:window-maximized="0"
     inkscape:current-layer="svg3885" />
  <style
     id="style3783">
.st1 { fill:none; stroke:#000; stroke-linecap:round; stroke-linejoin:round }
.st2 { fill:none; stroke:#E040E0; stroke-width:2px; stroke-linecap:round }
</style>
  <defs
     id="defs3804">
    <g
       id="blue">
      <circle
         cx="8.4"
         r="6"
         fill="#E0E0FF"
         id="circle3785" />
      <circle
         cx="5.6"
         r="6"
         fill="#C0C0FF"
         id="circle3787" />
      <circle
         cx="2.8"
         r="6"
         fill="#8080FF"
         id="circle3789" />
      <circle
         r="6"
         fill="#00F"
         id="circle3791" />
    </g>
    <g
       id="red">
      <g
         id="red3">
        <circle
           cx="25.5"
           r="6"
           fill="#FFE0E0"
           id="circle3794" />
        <circle
           cx="17"
           r="6"
           fill="#FFC0C0"
           id="circle3796" />
        <circle
           cx="8.5"
           r="6"
           fill="#FF8080"
           id="circle3798" />
      </g>
      <circle
         r="6"
         fill="#F00"
         id="circle3801" />
    </g>
  </defs>
  <rect
     x="64"
     y="64"
     width="192"
     height="128"
     fill="#F8E0FF"
     id="rect3806" />
  <rect
     x="352"
     y="64"
     width="96"
     height="128"
     fill="#E0E0FF"
     id="rect3808" />
  <rect
     x="448"
     y="64"
     width="96"
     height="128"
     fill="#FFE0E0"
     id="rect3810" />
  <path
     d="M336 128l-32 32V144H280V112h24V96Z"
     fill="#FFFF80"
     id="path3812"
     style="fill:#f0f00f;fill-opacity:1" />
  <use
     xlink:href="#blue"
     transform="translate(103.7,88) rotate(225)"
     id="use3814" />
  <use
     xlink:href="#blue"
     transform="translate(75.7,132) rotate(320)"
     id="use3816" />
  <use
     xlink:href="#blue"
     transform="translate(223.3,83.7) rotate(128)"
     id="use3818" />
  <use
     xlink:href="#blue"
     transform="translate(231.7,133.9) rotate(347)"
     id="use3820" />
  <use
     xlink:href="#blue"
     transform="translate(181.4,165.7) rotate(321)"
     id="use3822" />
  <use
     xlink:href="#blue"
     transform="translate(425.6,84.2) rotate(174)"
     id="use3824" />
  <use
     xlink:href="#blue"
     transform="translate(387.3,99.1) rotate(66)"
     id="use3826" />
  <use
     xlink:href="#blue"
     transform="translate(364.8,125.8) rotate(55)"
     id="use3828" />
  <use
     xlink:href="#blue"
     transform="translate(377.3,165.2) rotate(323)"
     id="use3830" />
  <use
     xlink:href="#blue"
     transform="translate(423.3,166.9) rotate(250)"
     id="use3832" />
  <use
     xlink:href="#red"
     transform="translate(101.4,116) rotate(66)"
     id="use3834" />
  <use
     xlink:href="#red"
     transform="translate(153.7,128) rotate(179)"
     id="use3836" />
  <use
     xlink:href="#red3"
     transform="translate(123.7,192) rotate(225)"
     id="use3838" />
  <circle
     cx="123.7"
     cy="180"
     r="6"
     fill="#F00"
     id="circle3840" />
  <use
     xlink:href="#red"
     transform="translate(195.7,89.1) rotate(132)"
     id="use3842" />
  <use
     xlink:href="#red"
     transform="translate(213.7,170) rotate(271)"
     id="use3844" />
  <use
     xlink:href="#red"
     transform="translate(526.5,92.2) rotate(188)"
     id="use3846" />
  <use
     xlink:href="#red"
     transform="translate(465.6,90.5) rotate(39)"
     id="use3848" />
  <use
     xlink:href="#red"
     transform="translate(462,134.9) rotate(7)"
     id="use3850" />
  <use
     xlink:href="#red"
     transform="translate(527.8,140) rotate(141)"
     id="use3852" />
  <use
     xlink:href="#red"
     transform="translate(476.2,154) rotate(86)"
     id="use3854" />
  <g
     id="box">
    <g
       class="st1"
       stroke-width="3"
       id="g3860">
      <rect
         x="64"
         y="64"
         width="192"
         height="128"
         id="rect3856" />
      <path
         d="M160 64v52m0 24v52"
         id="path3858" />
    </g>
    <path
       class="st2"
       d="M138.13 24.21c0 0-.62 6.24 1.87 8.2 2.5 1.96 5.7 2.12 8.13.08 2.42-2.03 2.01-8.11 2.01-8.11M144.13 24V60.2m12.78-15.99c0 0-5.59 3.75-8.78 2.75-3.2-1-4-6.76-4-6.7679"
       id="path3862" />
    <path
       d="M144.2 37.21a2 2 0 1 1-.02 0ZM155.69 60a2 2 0 1 1-4 0Zm12 0a2 2 0 1 1-4 0Z"
       fill="#E040E0"
       id="path3864" />
    <path
       d="M160.4 27.76l7.8-3.55v8h-16v-8Zm.01-1.64a10 8 0 1 1-.02 0ZM148.53 60.2c0 0-.97-6.47 2-11.99 2.96-5.51 9.87-10.09 9.87-10.09 0 0 7.06 4.56 10.12 10.08 3.06 5.52 2.12 12 2.12 12Z"
       fill="#E040E0"
       id="path3866" />
    <g
       font-family="Sans"
       font-size="24"
       font-weight="bold"
       fill="#FFF"
       id="g3872">
      <text
         x="96"
         y="56"
         id="text3868">A</text>
      <text
         x="208"
         y="56"
         id="text3870">B</text>
    </g>
  </g>
  <use
     xlink:href="#box"
     x="288"
     id="use3875" />
  <path
     d="M176 48c0 0-2.03 17.85-2 26.29.04 8.44 4.02 28.41 6.02 38.06 1.7 8.17-2.92 20.67-2.92 20.67M464 56c0 0-2.03 9.85-2 18.29.04 8.44 1.92 37.47-2.04 45.59C456 128 448 139.73 448 139.73"
     fill="none"
     stroke="#E040E0"
     id="path3877" />
  <path
     class="st2"
     d="M163.69 43.99c0 0 5.59-3.75 8.79-2.75 3.19 1 4 6.76 4 6.76m-5.81 9c0 0 3.94-.32 7.9-4.21 3.85-3.79 9.12-.79 9.12-.79M452 44c0 0 3.98-.28 7.18.73 3.19 1 3.81 10.76 3.81 10.76M458.67 57c0 0 3.94-.32 7.9-4.21 3.85-3.79 1.76-11.28 1.76-11.28"
     id="path3879" />
  <path
     d="M176.42 45.68a2 2 0 1 1-.02 0ZM196 56.33 185.01 54.6l4-6.93Zm267.77-2.79a2 2 0 1 1-.02 0ZM464 33l8.65 7-6.93 4Z"
     fill="#E040E0"
     id="path3881" />
  <path
     d="M160 116l17.5 17.5M448 116v24"
     class="st1"
     stroke-width="2"
     id="path3883" />
</svg>
