<svg viewBox="0 0 608 224" width="608" height="224" xmlns="http://www.w3.org/2000/svg" xmlns:xlink="http://www.w3.org/1999/xlink">
<style>
.st1 { fill:none; stroke:#000; stroke-linecap:round; stroke-linejoin:round }
.st2 { fill:none; stroke:#80FF80; stroke-width:2px; stroke-linecap:round }
</style>
<defs>
<g id="blue">
<circle cx="8.4" r="6" fill="#E0E0FF"/>
<circle cx="5.6" r="6" fill="#C0C0FF"/>
<circle cx="2.8" r="6" fill="#8080FF"/>
<circle r="6" fill="#00F"/>
</g>
<g id="red">
<g id="red3">
<circle cx="25.5" r="6" fill="#FFE0E0"/>
<circle cx="17" r="6" fill="#FFC0C0"/>
<circle cx="8.5" r="6" fill="#FF8080"/>
</g>
<circle r="6" fill="#F00"/>
</g>
</defs>

<rect x="64" y="64" width="192" height="128" fill="#F8E0FF"/>
<rect x="352" y="64" width="96" height="128" fill="#E0E0FF"/>
<rect x="448" y="64" width="96" height="128" fill="#FFE0E0"/>
<path d="M336 128l-32 32V144H280V112h24V96Z" fill="#FFFF80"/>

<use xlink:href="#blue" transform="translate(103.7,88) rotate(225)"/>
<use xlink:href="#blue" transform="translate(75.7,132) rotate(320)"/>
<use xlink:href="#blue" transform="translate(223.3,83.7) rotate(128)"/>
<use xlink:href="#blue" transform="translate(231.7,133.9) rotate(347)"/>
<use xlink:href="#blue" transform="translate(181.4,165.7) rotate(321)"/>

<use xlink:href="#blue" transform="translate(425.6,84.2) rotate(174)"/>
<use xlink:href="#blue" transform="translate(387.3,99.1) rotate(66)"/>
<use xlink:href="#blue" transform="translate(364.8,125.8) rotate(55)"/>
<use xlink:href="#blue" transform="translate(377.3,165.2) rotate(323)"/>
<use xlink:href="#blue" transform="translate(423.3,166.9) rotate(250)"/>


<use xlink:href="#red" transform="translate(101.4,116) rotate(66)"/>
<use xlink:href="#red" transform="translate(153.7,128) rotate(179)"/>
<use xlink:href="#red3" transform="translate(123.7,192) rotate(225)"/>
<circle cx="123.7" cy="180" r="6" fill="#F00"/>
<use xlink:href="#red" transform="translate(195.7,89.1) rotate(132)"/>
<use xlink:href="#red" transform="translate(213.7,170) rotate(271)"/>

<use xlink:href="#red" transform="translate(526.5,92.2) rotate(188)"/>
<use xlink:href="#red" transform="translate(465.6,90.5) rotate(39)"/>
<use xlink:href="#red" transform="translate(462,134.9) rotate(7)"/>
<use xlink:href="#red" transform="translate(527.8,140) rotate(141)"/>
<use xlink:href="#red" transform="translate(476.2,154) rotate(86)"/>


<g id="box">
<g class="st1" stroke-width="3">
<rect x="64" y="64" width="192" height="128"/>
<path d="M160 64v52m0 24v52"/>
</g>
<path class="st2" d="M138.13 24.21c0 0-.62 6.24 1.87 8.2 2.5 1.96 5.7 2.12 8.13.08 2.42-2.03 2.01-8.11 2.01-8.11M144.13 24V60.2m12.78-15.99c0 0-5.59 3.75-8.78 2.75-3.2-1-4-6.76-4-6.7679"/>
<path d="M144.2 37.21a2 2 0 1 1-.02 0ZM155.69 60a2 2 0 1 1-4 0Zm12 0a2 2 0 1 1-4 0Z" fill="#E040E0"/>
<path d="M160.4 27.76l7.8-3.55v8h-16v-8Zm.01-1.64a10 8 0 1 1-.02 0ZM148.53 60.2c0 0-.97-6.47 2-11.99 2.96-5.51 9.87-10.09 9.87-10.09 0 0 7.06 4.56 10.12 10.08 3.06 5.52 2.12 12 2.12 12Z" fill="#E040E0"/>
<g font-family="Sans" font-size="24" font-weight="bold" fill="#FFF">
<text x="96" y="56">A</text>
<text x="208" y="56">B</text>
</g>
</g>
<use xlink:href="#box" x="288"/>
<path d="M176 48c0 0-2.03 17.85-2 26.29.04 8.44 4.02 28.41 6.02 38.06 1.7 8.17-2.92 20.67-2.92 20.67M464 56c0 0-2.03 9.85-2 18.29.04 8.44 1.92 37.47-2.04 45.59C456 128 448 139.73 448 139.73" fill="none" stroke="#E040E0"/>
<path class="st2" d="M163.69 43.99c0 0 5.59-3.75 8.79-2.75 3.19 1 4 6.76 4 6.76m-5.81 9c0 0 3.94-.32 7.9-4.21 3.85-3.79 9.12-.79 9.12-.79M452 44c0 0 3.98-.28 7.18.73 3.19 1 3.81 10.76 3.81 10.76M458.67 57c0 0 3.94-.32 7.9-4.21 3.85-3.79 1.76-11.28 1.76-11.28"/>
<path d="M176.42 45.68a2 2 0 1 1-.02 0ZM196 56.33 185.01 54.6l4-6.93Zm267.77-2.79a2 2 0 1 1-.02 0ZM464 33l8.65 7-6.93 4Z" fill="#E040E0"/>
<path d="M160 116l17.5 17.5M448 116v24" class="st1" stroke-width="2"/>
</svg>
