<?xml version="1.0" encoding="utf-8" standalone="no"?>
<!DOCTYPE svg PUBLIC "-//W3C//DTD SVG 1.1//EN"
  "http://www.w3.org/Graphics/SVG/1.1/DTD/svg11.dtd">
<!-- Created with matplotlib (http://matplotlib.org/) -->
<svg height="360pt" version="1.1" viewBox="0 0 720 360" width="720pt" xmlns="http://www.w3.org/2000/svg" xmlns:xlink="http://www.w3.org/1999/xlink">
 <defs>
  <style type="text/css">
*{stroke-linecap:butt;stroke-linejoin:round;stroke-miterlimit:100000;}
  </style>
 </defs>
 <g id="figure_1">
  <g id="axes_1">
   <g id="line2d_1">
    <path clip-path="url(#p30af8c807e)" d="M 90 309.981847 
L 101.387755 309.110669 
L 112.77551 308.092063 
L 124.163265 306.902504 
L 135.55102 305.515241 
L 146.938776 303.900051 
L 158.326531 302.023049 
L 169.714286 299.846599 
L 181.102041 297.329369 
L 192.489796 294.426591 
L 203.877551 291.090597 
L 215.265306 287.271709 
L 226.653061 282.919566 
L 238.040816 277.984952 
L 249.428571 272.422183 
L 260.816327 266.192036 
L 272.204082 259.265179 
L 283.591837 251.625905 
L 294.979592 243.275929 
L 306.367347 234.237852 
L 317.755102 224.557816 
L 329.142857 214.306876 
L 340.530612 203.58062 
L 351.918367 192.496769 
L 363.306122 181.190718 
L 374.693878 169.809282 
L 386.081633 158.503231 
L 397.469388 147.41938 
L 408.857143 136.693124 
L 420.244898 126.442184 
L 431.632653 116.762148 
L 443.020408 107.724071 
L 454.408163 99.374095 
L 465.795918 91.734821 
L 477.183673 84.807964 
L 488.571429 78.577817 
L 499.959184 73.015048 
L 511.346939 68.080434 
L 522.734694 63.728291 
L 534.122449 59.909403 
L 545.510204 56.573409 
L 556.897959 53.670631 
L 568.285714 51.153401 
L 579.673469 48.976951 
L 591.061224 47.099949 
L 602.44898 45.484759 
L 613.836735 44.097496 
L 625.22449 42.907937 
L 636.612245 41.889331 
L 648 41.018153 
" style="fill:none;stroke:#bfbf00;stroke-linecap:square;stroke-width:3.0;"/>
   </g>
   <g id="line2d_2">
    <path clip-path="url(#p30af8c807e)" d="M 90 314.310138 
L 101.387755 314.188148 
L 112.77551 314.04466 
L 124.163265 313.875914 
L 135.55102 313.677503 
L 146.938776 313.444267 
L 158.326531 313.170169 
L 169.714286 312.848153 
L 181.102041 312.469986 
L 192.489796 312.026074 
L 203.877551 311.505257 
L 215.265306 310.894588 
L 226.653061 310.179078 
L 238.040816 309.341433 
L 249.428571 308.361769 
L 260.816327 307.217326 
L 272.204082 305.882183 
L 283.591837 304.327006 
L 294.979592 302.518838 
L 306.367347 300.420983 
L 317.755102 297.993018 
L 329.142857 295.190995 
L 340.530612 291.967902 
L 351.918367 288.27446 
L 363.306122 284.060326 
L 374.693878 279.275797 
L 386.081633 273.874051 
L 397.469388 267.813947 
L 408.857143 261.063338 
L 420.244898 253.602751 
L 431.632653 245.429201 
L 443.020408 236.559778 
L 454.408163 227.034552 
L 465.795918 216.91831 
L 477.183673 206.30065 
L 488.571429 195.294101 
L 499.959184 184.030161 
L 511.346939 172.653456 
L 522.734694 161.314507 
L 534.122449 150.161848 
L 545.510204 139.334375 
L 556.897959 128.954723 
L 568.285714 119.12432 
L 579.673469 109.920465 
L 591.061224 101.395463 
L 602.44898 93.577591 
L 613.836735 86.473486 
L 625.22449 80.071445 
L 636.612245 74.345183 
L 648 69.257615 
" style="fill:none;stroke:#00bfbf;stroke-linecap:square;stroke-width:3.0;"/>
   </g>
  </g>
 </g>
 <defs>
  <clipPath id="p30af8c807e">
   <rect height="279.0" width="558.0" x="90.0" y="36.0"/>
  </clipPath>
 </defs>
</svg>
