<?xml version="1.0" encoding="utf-8" standalone="no"?>
<!DOCTYPE svg PUBLIC "-//W3C//DTD SVG 1.1//EN"
  "http://www.w3.org/Graphics/SVG/1.1/DTD/svg11.dtd">
<!-- Created with matplotlib (http://matplotlib.org/) -->
<svg height="288pt" version="1.1" viewBox="0 0 432 288" width="432pt" xmlns="http://www.w3.org/2000/svg" xmlns:xlink="http://www.w3.org/1999/xlink">
 <defs>
  <style type="text/css">
*{stroke-linecap:butt;stroke-linejoin:round;}
  </style>
 </defs>
 <g id="figure_1">
  <g id="patch_1">
   <path d="M 0 288 
L 432 288 
L 432 0 
L 0 0 
z
" style="fill:none;"/>
  </g>
  <g id="axes_1">
   <g id="patch_2">
    <path d="M 54 252 
L 388.8 252 
L 388.8 34.56 
L 54 34.56 
z
" style="fill:none;"/>
   </g>
   <g id="patch_3">
    <path clip-path="url(#p9227d79099)" d="M 54 101.372436 
L 55.682412 103.420681 
L 57.364824 105.373468 
L 59.047236 107.22212 
L 60.729648 108.958534 
L 62.41206 110.57518 
L 64.094472 112.065141 
L 65.776884 113.422261 
L 67.459296 114.641473 
L 69.141709 115.719408 
L 70.824121 116.655294 
L 72.506533 117.452052 
L 74.188945 118.117198 
L 75.871357 118.663014 
L 77.553769 119.105513 
L 79.236181 119.462306 
L 80.918593 119.750067 
L 82.601005 119.982489 
L 84.283417 120.169291 
L 85.965829 120.316267 
L 87.648241 120.426069 
L 89.330653 120.499325 
L 91.013065 120.535801 
L 92.695477 120.535442 
L 94.377889 120.499204 
L 96.060302 120.429672 
L 97.742714 120.331481 
L 99.425126 120.211553 
L 101.107538 120.079195 
L 102.78995 119.946082 
L 104.472362 119.826154 
L 106.154774 119.735432 
L 107.837186 119.691776 
L 109.519598 119.714588 
L 111.20201 119.824461 
L 112.884422 120.042775 
L 114.566834 120.391256 
L 116.249246 120.891497 
L 117.931658 121.564449 
L 119.61407 122.429918 
L 121.296482 123.506047 
L 122.978894 124.808838 
L 124.661307 126.351708 
L 126.343719 128.145089 
L 128.026131 130.196106 
L 129.708543 132.508309 
L 131.390955 135.081487 
L 133.073367 137.911551 
L 134.755779 140.990478 
L 136.438191 144.306323 
L 138.120603 147.843273 
L 139.803015 151.581759 
L 141.485427 155.498601 
L 143.167839 159.567197 
L 144.850251 163.757746 
L 146.532663 168.037519 
L 148.215075 172.371164 
L 149.897487 176.721056 
L 151.579899 181.047686 
L 153.262312 185.31009 
L 154.944724 189.466306 
L 156.627136 193.473861 
L 158.309548 197.290273 
L 159.99196 200.873565 
L 161.674372 204.182775 
L 163.356784 207.178456 
L 165.039196 209.823154 
L 166.721608 212.081862 
L 168.40402 213.922432 
L 170.086432 215.315943 
L 171.768844 216.237031 
L 173.451256 216.664167 
L 175.133668 216.579888 
L 176.81608 215.970993 
L 178.498492 214.828699 
L 180.180905 213.148761 
L 181.863317 210.931578 
L 183.545729 208.182263 
L 185.228141 204.910699 
L 186.910553 201.131576 
L 188.592965 196.864405 
L 190.275377 192.133503 
L 191.957789 186.967955 
L 193.640201 181.401535 
L 195.322613 175.472584 
L 197.005025 169.22384 
L 198.687437 162.702204 
L 200.369849 155.958443 
L 202.052261 149.046817 
L 203.734673 142.024631 
L 205.417085 134.951707 
L 207.099497 127.889778 
L 208.78191 120.901815 
L 210.464322 114.051282 
L 212.146734 107.40135 
L 213.829146 101.014064 
L 215.511558 94.949501 
L 217.19397 89.264916 
L 218.876382 84.013908 
L 220.558794 79.245612 
L 222.241206 75.00394 
L 223.923618 71.326877 
L 225.60603 68.245845 
L 227.288442 65.785153 
L 228.970854 63.961531 
L 230.653266 62.783761 
L 232.335678 62.252425 
L 234.01809 62.359763 
L 235.700503 63.089661 
L 237.382915 64.41777 
L 239.065327 66.311769 
L 240.747739 68.731765 
L 242.430151 71.63084 
L 244.112563 74.955735 
L 245.794975 78.647666 
L 247.477387 82.643268 
L 249.159799 86.875646 
L 250.842211 91.275532 
L 252.524623 95.772516 
L 254.207035 100.296337 
L 255.889447 104.778209 
L 257.571859 109.152133 
L 259.254271 113.356165 
L 260.936683 117.333578 
L 262.619095 121.033869 
L 264.301508 124.413572 
L 265.98392 127.436838 
L 267.666332 130.07578 
L 269.348744 132.310584 
L 271.031156 134.129418 
L 272.713568 135.528155 
L 274.39598 136.50996 
L 276.078392 137.084751 
L 277.760804 137.268578 
L 279.443216 137.082928 
L 281.125628 136.554 
L 282.80804 135.71196 
L 284.490452 134.590221 
L 286.172864 133.224762 
L 287.855276 131.65352 
L 289.537688 129.91586 
L 291.220101 128.052103 
L 292.902513 126.103083 
L 294.584925 124.109655 
L 296.267337 122.112065 
L 297.949749 120.149097 
L 299.632161 118.256927 
L 301.314573 116.467642 
L 302.996985 114.807442 
L 304.679397 113.294599 
L 306.361809 111.937376 
L 308.044221 110.732336 
L 309.726633 109.663767 
L 311.409045 108.705145 
L 313.091457 107.823109 
L 314.773869 106.983141 
L 316.456281 106.154796 
L 318.138693 105.314415 
L 319.821106 104.444953 
L 321.503518 103.534179 
L 323.18593 102.572714 
L 324.868342 101.552692 
L 326.550754 100.467143 
L 328.233166 99.309869 
L 329.915578 98.075599 
L 331.59799 96.760238 
L 333.280402 95.361109 
L 334.962814 93.877146 
L 336.645226 92.309021 
L 338.327638 90.659189 
L 340.01005 88.931861 
L 341.692462 87.132925 
L 343.374874 85.269797 
L 345.057286 83.351243 
L 346.739698 81.387162 
L 348.422111 79.388342 
L 350.104523 77.366213 
L 351.786935 75.332582 
L 353.469347 73.299384 
L 355.151759 71.278434 
L 356.834171 69.281202 
L 358.516583 67.318603 
L 360.198995 65.400818 
L 361.881407 63.537144 
L 363.563819 61.735865 
L 365.246231 60.004168 
L 366.928643 58.34808 
L 368.611055 56.772437 
L 370.293467 55.280883 
L 371.975879 53.875899 
L 373.658291 52.558845 
L 375.340704 51.330032 
L 377.023116 50.188808 
L 378.705528 49.133654 
L 380.38794 48.162288 
L 382.070352 47.271787 
L 383.752764 46.458691 
L 385.435176 45.719125 
L 387.117588 45.048903 
L 388.8 44.443636 
L 388.8 242.116364 
L 387.117588 241.851689 
L 385.435176 241.51095 
L 383.752764 241.083139 
L 382.070352 240.556672 
L 380.38794 239.919505 
L 378.705528 239.159265 
L 377.023116 238.263414 
L 375.340704 237.219429 
L 373.658291 236.015003 
L 371.975879 234.638263 
L 370.293467 233.078004 
L 368.611055 231.323938 
L 366.928643 229.366943 
L 365.246231 227.199325 
L 363.563819 224.815068 
L 361.881407 222.210091 
L 360.198995 219.382483 
L 358.516583 216.332724 
L 356.834171 213.063885 
L 355.151759 209.581803 
L 353.469347 205.895214 
L 351.786935 202.015856 
L 350.104523 197.958527 
L 348.422111 193.741096 
L 346.739698 189.384464 
L 345.057286 184.912472 
L 343.374874 180.35176 
L 341.692462 175.731569 
L 340.01005 171.083493 
L 338.327638 166.441177 
L 336.645226 161.839982 
L 334.962814 157.316594 
L 333.280402 152.908621 
L 331.59799 148.654148 
L 329.915578 144.591295 
L 328.233166 140.757752 
L 326.550754 137.190325 
L 324.868342 133.924446 
L 323.18593 130.993646 
L 321.503518 128.428865 
L 319.821106 126.257482 
L 318.138693 124.501804 
L 316.456281 123.176858 
L 314.773869 122.287577 
L 313.091457 121.826185 
L 311.409045 121.771284 
L 309.726633 122.08991 
L 308.044221 122.742208 
L 306.361809 123.686692 
L 304.679397 124.883942 
L 302.996985 126.297954 
L 301.314573 127.895627 
L 299.632161 129.645316 
L 297.949749 131.515194 
L 296.267337 133.471845 
L 294.584925 135.479292 
L 292.902513 137.498528 
L 291.220101 139.487557 
L 289.537688 141.401882 
L 287.855276 143.195353 
L 286.172864 144.821266 
L 284.490452 146.233585 
L 282.80804 147.388196 
L 281.125628 148.244103 
L 279.443216 148.764524 
L 277.760804 148.917864 
L 276.078392 148.678534 
L 274.39598 148.027614 
L 272.713568 146.953363 
L 271.031156 145.451552 
L 269.348744 143.525636 
L 267.666332 141.18675 
L 265.98392 138.453554 
L 264.301508 135.351918 
L 262.619095 131.914503 
L 260.936683 128.180242 
L 259.254271 124.193762 
L 257.571859 120.004771 
L 255.889447 115.66742 
L 254.207035 111.239623 
L 252.524623 106.78235 
L 250.842211 102.358848 
L 249.159799 98.033802 
L 247.477387 93.872426 
L 245.794975 89.939491 
L 244.112563 86.29832 
L 242.430151 83.009758 
L 240.747739 80.131153 
L 239.065327 77.715373 
L 237.382915 75.80989 
L 235.700503 74.455945 
L 234.01809 73.687821 
L 232.335678 73.532249 
L 230.653266 74.00795 
L 228.970854 75.125326 
L 227.288442 76.886322 
L 225.60603 79.284436 
L 223.923618 82.304898 
L 222.241206 85.924996 
L 220.558794 90.114535 
L 218.876382 94.836425 
L 217.19397 100.047363 
L 215.511558 105.698591 
L 213.829146 111.736713 
L 212.146734 118.10454 
L 210.464322 124.741951 
L 208.78191 131.586744 
L 207.099497 138.575479 
L 205.417085 145.644278 
L 203.734673 152.7296 
L 202.052261 159.768959 
L 200.369849 166.701606 
L 198.687437 173.469149 
L 197.005025 180.016118 
L 195.322613 186.29047 
L 193.640201 192.244036 
L 191.957789 197.832899 
L 190.275377 203.017708 
L 188.592965 207.763923 
L 186.910553 212.041999 
L 185.228141 215.827502 
L 183.545729 219.101167 
L 181.863317 221.848894 
L 180.180905 224.061698 
L 178.498492 225.735597 
L 176.81608 226.871476 
L 175.133668 227.474893 
L 173.451256 227.555872 
L 171.768844 227.128661 
L 170.086432 226.211474 
L 168.40402 224.826223 
L 166.721608 222.998235 
L 165.039196 220.755972 
L 163.356784 218.130737 
L 161.674372 215.156378 
L 159.99196 211.868974 
L 158.309548 208.30652 
L 156.627136 204.508574 
L 154.944724 200.515899 
L 153.262312 196.370062 
L 151.579899 192.11301 
L 149.897487 187.786625 
L 148.215075 183.43224 
L 146.532663 179.090147 
L 144.850251 174.799094 
L 143.167839 170.595773 
L 141.485427 166.514337 
L 139.803015 162.585938 
L 138.120603 158.838313 
L 136.438191 155.295441 
L 134.755779 151.977263 
L 133.073367 148.899508 
L 131.390955 146.073602 
L 129.708543 143.506677 
L 128.026131 141.20167 
L 126.343719 139.157514 
L 124.661307 137.36939 
L 122.978894 135.82905 
L 121.296482 134.525181 
L 119.61407 133.443808 
L 117.931658 132.568722 
L 116.249246 131.881922 
L 114.566834 131.364072 
L 112.884422 130.994951 
L 111.20201 130.753907 
L 109.519598 130.620301 
L 107.837186 130.573931 
L 106.154774 130.595432 
L 104.472362 130.666641 
L 102.78995 130.770913 
L 101.107538 130.893388 
L 99.425126 131.021191 
L 97.742714 131.143574 
L 96.060302 131.252011 
L 94.377889 131.340244 
L 92.695477 131.404336 
L 91.013065 131.442746 
L 89.330653 131.456478 
L 87.648241 131.449337 
L 85.965829 131.428331 
L 84.283417 131.404207 
L 82.601005 131.392071 
L 80.918593 131.411934 
L 79.236181 131.48891 
L 77.553769 131.652694 
L 75.871357 131.936004 
L 74.188945 132.372022 
L 72.506533 132.991377 
L 70.824121 133.819598 
L 69.141709 134.875724 
L 67.459296 136.172187 
L 65.776884 137.715509 
L 64.094472 139.507256 
L 62.41206 141.544876 
L 60.729648 143.822315 
L 59.047236 146.330413 
L 57.364824 149.057186 
L 55.682412 151.988042 
L 54 155.106005 
z
" style="fill:#cc3300;opacity:0.3;stroke:#cc3300;stroke-linejoin:miter;stroke-width:0.5;"/>
   </g>
   <g id="matplotlib.axis_1">
    <g id="xtick_1">
     <g id="line2d_1">
      <defs>
       <path d="M 0 0 
L 0 3.5 
" id="m66acc842a3" style="stroke:#000000;stroke-width:0.8;"/>
      </defs>
      <g>
       <use style="stroke:#000000;stroke-width:0.8;" x="71.354759" xlink:href="#m66acc842a3" y="252"/>
      </g>
     </g>
     <g id="text_1">
      <!-- −2 -->
      <defs>
       <path d="M 10.59375 35.5 
L 73.1875 35.5 
L 73.1875 27.203125 
L 10.59375 27.203125 
z
" id="DejaVuSans-2212"/>
       <path d="M 19.1875 8.296875 
L 53.609375 8.296875 
L 53.609375 0 
L 7.328125 0 
L 7.328125 8.296875 
Q 12.9375 14.109375 22.625 23.890625 
Q 32.328125 33.6875 34.8125 36.53125 
Q 39.546875 41.84375 41.421875 45.53125 
Q 43.3125 49.21875 43.3125 52.78125 
Q 43.3125 58.59375 39.234375 62.25 
Q 35.15625 65.921875 28.609375 65.921875 
Q 23.96875 65.921875 18.8125 64.3125 
Q 13.671875 62.703125 7.8125 59.421875 
L 7.8125 69.390625 
Q 13.765625 71.78125 18.9375 73 
Q 24.125 74.21875 28.421875 74.21875 
Q 39.75 74.21875 46.484375 68.546875 
Q 53.21875 62.890625 53.21875 53.421875 
Q 53.21875 48.921875 51.53125 44.890625 
Q 49.859375 40.875 45.40625 35.40625 
Q 44.1875 33.984375 37.640625 27.21875 
Q 31.109375 20.453125 19.1875 8.296875 
z
" id="DejaVuSans-32"/>
      </defs>
      <g transform="translate(63.983665 266.598437)scale(0.1 -0.1)">
       <use xlink:href="#DejaVuSans-2212"/>
       <use x="83.789062" xlink:href="#DejaVuSans-32"/>
      </g>
     </g>
    </g>
    <g id="xtick_2">
     <g id="line2d_2">
      <g>
       <use style="stroke:#000000;stroke-width:0.8;" x="142.346569" xlink:href="#m66acc842a3" y="252"/>
      </g>
     </g>
     <g id="text_2">
      <!-- −1 -->
      <defs>
       <path d="M 12.40625 8.296875 
L 28.515625 8.296875 
L 28.515625 63.921875 
L 10.984375 60.40625 
L 10.984375 69.390625 
L 28.421875 72.90625 
L 38.28125 72.90625 
L 38.28125 8.296875 
L 54.390625 8.296875 
L 54.390625 0 
L 12.40625 0 
z
" id="DejaVuSans-31"/>
      </defs>
      <g transform="translate(134.975475 266.598437)scale(0.1 -0.1)">
       <use xlink:href="#DejaVuSans-2212"/>
       <use x="83.789062" xlink:href="#DejaVuSans-31"/>
      </g>
     </g>
    </g>
    <g id="xtick_3">
     <g id="line2d_3">
      <g>
       <use style="stroke:#000000;stroke-width:0.8;" x="213.338378" xlink:href="#m66acc842a3" y="252"/>
      </g>
     </g>
     <g id="text_3">
      <!-- 0 -->
      <defs>
       <path d="M 31.78125 66.40625 
Q 24.171875 66.40625 20.328125 58.90625 
Q 16.5 51.421875 16.5 36.375 
Q 16.5 21.390625 20.328125 13.890625 
Q 24.171875 6.390625 31.78125 6.390625 
Q 39.453125 6.390625 43.28125 13.890625 
Q 47.125 21.390625 47.125 36.375 
Q 47.125 51.421875 43.28125 58.90625 
Q 39.453125 66.40625 31.78125 66.40625 
z
M 31.78125 74.21875 
Q 44.046875 74.21875 50.515625 64.515625 
Q 56.984375 54.828125 56.984375 36.375 
Q 56.984375 17.96875 50.515625 8.265625 
Q 44.046875 -1.421875 31.78125 -1.421875 
Q 19.53125 -1.421875 13.0625 8.265625 
Q 6.59375 17.96875 6.59375 36.375 
Q 6.59375 54.828125 13.0625 64.515625 
Q 19.53125 74.21875 31.78125 74.21875 
z
" id="DejaVuSans-30"/>
      </defs>
      <g transform="translate(210.157128 266.598437)scale(0.1 -0.1)">
       <use xlink:href="#DejaVuSans-30"/>
      </g>
     </g>
    </g>
    <g id="xtick_4">
     <g id="line2d_4">
      <g>
       <use style="stroke:#000000;stroke-width:0.8;" x="284.330187" xlink:href="#m66acc842a3" y="252"/>
      </g>
     </g>
     <g id="text_4">
      <!-- 1 -->
      <g transform="translate(281.148937 266.598437)scale(0.1 -0.1)">
       <use xlink:href="#DejaVuSans-31"/>
      </g>
     </g>
    </g>
    <g id="xtick_5">
     <g id="line2d_5">
      <g>
       <use style="stroke:#000000;stroke-width:0.8;" x="355.321997" xlink:href="#m66acc842a3" y="252"/>
      </g>
     </g>
     <g id="text_5">
      <!-- 2 -->
      <g transform="translate(352.140747 266.598437)scale(0.1 -0.1)">
       <use xlink:href="#DejaVuSans-32"/>
      </g>
     </g>
    </g>
    <g id="text_6">
     <!-- layer 1 -->
     <defs>
      <path d="M 9.421875 75.984375 
L 18.40625 75.984375 
L 18.40625 0 
L 9.421875 0 
z
" id="DejaVuSans-6c"/>
      <path d="M 34.28125 27.484375 
Q 23.390625 27.484375 19.1875 25 
Q 14.984375 22.515625 14.984375 16.5 
Q 14.984375 11.71875 18.140625 8.90625 
Q 21.296875 6.109375 26.703125 6.109375 
Q 34.1875 6.109375 38.703125 11.40625 
Q 43.21875 16.703125 43.21875 25.484375 
L 43.21875 27.484375 
z
M 52.203125 31.203125 
L 52.203125 0 
L 43.21875 0 
L 43.21875 8.296875 
Q 40.140625 3.328125 35.546875 0.953125 
Q 30.953125 -1.421875 24.3125 -1.421875 
Q 15.921875 -1.421875 10.953125 3.296875 
Q 6 8.015625 6 15.921875 
Q 6 25.140625 12.171875 29.828125 
Q 18.359375 34.515625 30.609375 34.515625 
L 43.21875 34.515625 
L 43.21875 35.40625 
Q 43.21875 41.609375 39.140625 45 
Q 35.0625 48.390625 27.6875 48.390625 
Q 23 48.390625 18.546875 47.265625 
Q 14.109375 46.140625 10.015625 43.890625 
L 10.015625 52.203125 
Q 14.9375 54.109375 19.578125 55.046875 
Q 24.21875 56 28.609375 56 
Q 40.484375 56 46.34375 49.84375 
Q 52.203125 43.703125 52.203125 31.203125 
z
" id="DejaVuSans-61"/>
      <path d="M 32.171875 -5.078125 
Q 28.375 -14.84375 24.75 -17.8125 
Q 21.140625 -20.796875 15.09375 -20.796875 
L 7.90625 -20.796875 
L 7.90625 -13.28125 
L 13.1875 -13.28125 
Q 16.890625 -13.28125 18.9375 -11.515625 
Q 21 -9.765625 23.484375 -3.21875 
L 25.09375 0.875 
L 2.984375 54.6875 
L 12.5 54.6875 
L 29.59375 11.921875 
L 46.6875 54.6875 
L 56.203125 54.6875 
z
" id="DejaVuSans-79"/>
      <path d="M 56.203125 29.59375 
L 56.203125 25.203125 
L 14.890625 25.203125 
Q 15.484375 15.921875 20.484375 11.0625 
Q 25.484375 6.203125 34.421875 6.203125 
Q 39.59375 6.203125 44.453125 7.46875 
Q 49.3125 8.734375 54.109375 11.28125 
L 54.109375 2.78125 
Q 49.265625 0.734375 44.1875 -0.34375 
Q 39.109375 -1.421875 33.890625 -1.421875 
Q 20.796875 -1.421875 13.15625 6.1875 
Q 5.515625 13.8125 5.515625 26.8125 
Q 5.515625 40.234375 12.765625 48.109375 
Q 20.015625 56 32.328125 56 
Q 43.359375 56 49.78125 48.890625 
Q 56.203125 41.796875 56.203125 29.59375 
z
M 47.21875 32.234375 
Q 47.125 39.59375 43.09375 43.984375 
Q 39.0625 48.390625 32.421875 48.390625 
Q 24.90625 48.390625 20.390625 44.140625 
Q 15.875 39.890625 15.1875 32.171875 
z
" id="DejaVuSans-65"/>
      <path d="M 41.109375 46.296875 
Q 39.59375 47.171875 37.8125 47.578125 
Q 36.03125 48 33.890625 48 
Q 26.265625 48 22.1875 43.046875 
Q 18.109375 38.09375 18.109375 28.8125 
L 18.109375 0 
L 9.078125 0 
L 9.078125 54.6875 
L 18.109375 54.6875 
L 18.109375 46.1875 
Q 20.953125 51.171875 25.484375 53.578125 
Q 30.03125 56 36.53125 56 
Q 37.453125 56 38.578125 55.875 
Q 39.703125 55.765625 41.0625 55.515625 
z
" id="DejaVuSans-72"/>
      <path id="DejaVuSans-20"/>
     </defs>
     <g transform="translate(186.770312 287.875)scale(0.2 -0.2)">
      <use xlink:href="#DejaVuSans-6c"/>
      <use x="27.783203" xlink:href="#DejaVuSans-61"/>
      <use x="89.0625" xlink:href="#DejaVuSans-79"/>
      <use x="148.242188" xlink:href="#DejaVuSans-65"/>
      <use x="209.765625" xlink:href="#DejaVuSans-72"/>
      <use x="250.878906" xlink:href="#DejaVuSans-20"/>
      <use x="282.666016" xlink:href="#DejaVuSans-31"/>
     </g>
    </g>
   </g>
   <g id="matplotlib.axis_2">
    <g id="ytick_1">
     <g id="line2d_6">
      <defs>
       <path d="M 0 0 
L -3.5 0 
" id="m6fd537c612" style="stroke:#000000;stroke-width:0.8;"/>
      </defs>
      <g>
       <use style="stroke:#000000;stroke-width:0.8;" x="54" xlink:href="#m6fd537c612" y="239.582116"/>
      </g>
     </g>
     <g id="text_7">
      <!-- −150 -->
      <defs>
       <path d="M 10.796875 72.90625 
L 49.515625 72.90625 
L 49.515625 64.59375 
L 19.828125 64.59375 
L 19.828125 46.734375 
Q 21.96875 47.46875 24.109375 47.828125 
Q 26.265625 48.1875 28.421875 48.1875 
Q 40.625 48.1875 47.75 41.5 
Q 54.890625 34.8125 54.890625 23.390625 
Q 54.890625 11.625 47.5625 5.09375 
Q 40.234375 -1.421875 26.90625 -1.421875 
Q 22.3125 -1.421875 17.546875 -0.640625 
Q 12.796875 0.140625 7.71875 1.703125 
L 7.71875 11.625 
Q 12.109375 9.234375 16.796875 8.0625 
Q 21.484375 6.890625 26.703125 6.890625 
Q 35.15625 6.890625 40.078125 11.328125 
Q 45.015625 15.765625 45.015625 23.390625 
Q 45.015625 31 40.078125 35.4375 
Q 35.15625 39.890625 26.703125 39.890625 
Q 22.75 39.890625 18.8125 39.015625 
Q 14.890625 38.140625 10.796875 36.28125 
z
" id="DejaVuSans-35"/>
      </defs>
      <g transform="translate(19.532812 243.381334)scale(0.1 -0.1)">
       <use xlink:href="#DejaVuSans-2212"/>
       <use x="83.789062" xlink:href="#DejaVuSans-31"/>
       <use x="147.412109" xlink:href="#DejaVuSans-35"/>
       <use x="211.035156" xlink:href="#DejaVuSans-30"/>
      </g>
     </g>
    </g>
    <g id="ytick_2">
     <g id="line2d_7">
      <g>
       <use style="stroke:#000000;stroke-width:0.8;" x="54" xlink:href="#m6fd537c612" y="201.041075"/>
      </g>
     </g>
     <g id="text_8">
      <!-- −100 -->
      <g transform="translate(19.532812 204.840294)scale(0.1 -0.1)">
       <use xlink:href="#DejaVuSans-2212"/>
       <use x="83.789062" xlink:href="#DejaVuSans-31"/>
       <use x="147.412109" xlink:href="#DejaVuSans-30"/>
       <use x="211.035156" xlink:href="#DejaVuSans-30"/>
      </g>
     </g>
    </g>
    <g id="ytick_3">
     <g id="line2d_8">
      <g>
       <use style="stroke:#000000;stroke-width:0.8;" x="54" xlink:href="#m6fd537c612" y="162.500034"/>
      </g>
     </g>
     <g id="text_9">
      <!-- −50 -->
      <g transform="translate(25.895312 166.299253)scale(0.1 -0.1)">
       <use xlink:href="#DejaVuSans-2212"/>
       <use x="83.789062" xlink:href="#DejaVuSans-35"/>
       <use x="147.412109" xlink:href="#DejaVuSans-30"/>
      </g>
     </g>
    </g>
    <g id="ytick_4">
     <g id="line2d_9">
      <g>
       <use style="stroke:#000000;stroke-width:0.8;" x="54" xlink:href="#m6fd537c612" y="123.958994"/>
      </g>
     </g>
     <g id="text_10">
      <!-- 0 -->
      <g transform="translate(40.6375 127.758213)scale(0.1 -0.1)">
       <use xlink:href="#DejaVuSans-30"/>
      </g>
     </g>
    </g>
    <g id="ytick_5">
     <g id="line2d_10">
      <g>
       <use style="stroke:#000000;stroke-width:0.8;" x="54" xlink:href="#m6fd537c612" y="85.417953"/>
      </g>
     </g>
     <g id="text_11">
      <!-- 50 -->
      <g transform="translate(34.275 89.217172)scale(0.1 -0.1)">
       <use xlink:href="#DejaVuSans-35"/>
       <use x="63.623047" xlink:href="#DejaVuSans-30"/>
      </g>
     </g>
    </g>
    <g id="ytick_6">
     <g id="line2d_11">
      <g>
       <use style="stroke:#000000;stroke-width:0.8;" x="54" xlink:href="#m6fd537c612" y="46.876913"/>
      </g>
     </g>
     <g id="text_12">
      <!-- 100 -->
      <g transform="translate(27.9125 50.676131)scale(0.1 -0.1)">
       <use xlink:href="#DejaVuSans-31"/>
       <use x="63.623047" xlink:href="#DejaVuSans-30"/>
       <use x="127.246094" xlink:href="#DejaVuSans-30"/>
      </g>
     </g>
    </g>
    <g id="text_13">
     <!-- acceleration/$g$ -->
     <defs>
      <path d="M 48.78125 52.59375 
L 48.78125 44.1875 
Q 44.96875 46.296875 41.140625 47.34375 
Q 37.3125 48.390625 33.40625 48.390625 
Q 24.65625 48.390625 19.8125 42.84375 
Q 14.984375 37.3125 14.984375 27.296875 
Q 14.984375 17.28125 19.8125 11.734375 
Q 24.65625 6.203125 33.40625 6.203125 
Q 37.3125 6.203125 41.140625 7.25 
Q 44.96875 8.296875 48.78125 10.40625 
L 48.78125 2.09375 
Q 45.015625 0.34375 40.984375 -0.53125 
Q 36.96875 -1.421875 32.421875 -1.421875 
Q 20.0625 -1.421875 12.78125 6.34375 
Q 5.515625 14.109375 5.515625 27.296875 
Q 5.515625 40.671875 12.859375 48.328125 
Q 20.21875 56 33.015625 56 
Q 37.15625 56 41.109375 55.140625 
Q 45.0625 54.296875 48.78125 52.59375 
z
" id="DejaVuSans-63"/>
      <path d="M 18.3125 70.21875 
L 18.3125 54.6875 
L 36.8125 54.6875 
L 36.8125 47.703125 
L 18.3125 47.703125 
L 18.3125 18.015625 
Q 18.3125 11.328125 20.140625 9.421875 
Q 21.96875 7.515625 27.59375 7.515625 
L 36.8125 7.515625 
L 36.8125 0 
L 27.59375 0 
Q 17.1875 0 13.234375 3.875 
Q 9.28125 7.765625 9.28125 18.015625 
L 9.28125 47.703125 
L 2.6875 47.703125 
L 2.6875 54.6875 
L 9.28125 54.6875 
L 9.28125 70.21875 
z
" id="DejaVuSans-74"/>
      <path d="M 9.421875 54.6875 
L 18.40625 54.6875 
L 18.40625 0 
L 9.421875 0 
z
M 9.421875 75.984375 
L 18.40625 75.984375 
L 18.40625 64.59375 
L 9.421875 64.59375 
z
" id="DejaVuSans-69"/>
      <path d="M 30.609375 48.390625 
Q 23.390625 48.390625 19.1875 42.75 
Q 14.984375 37.109375 14.984375 27.296875 
Q 14.984375 17.484375 19.15625 11.84375 
Q 23.34375 6.203125 30.609375 6.203125 
Q 37.796875 6.203125 41.984375 11.859375 
Q 46.1875 17.53125 46.1875 27.296875 
Q 46.1875 37.015625 41.984375 42.703125 
Q 37.796875 48.390625 30.609375 48.390625 
z
M 30.609375 56 
Q 42.328125 56 49.015625 48.375 
Q 55.71875 40.765625 55.71875 27.296875 
Q 55.71875 13.875 49.015625 6.21875 
Q 42.328125 -1.421875 30.609375 -1.421875 
Q 18.84375 -1.421875 12.171875 6.21875 
Q 5.515625 13.875 5.515625 27.296875 
Q 5.515625 40.765625 12.171875 48.375 
Q 18.84375 56 30.609375 56 
z
" id="DejaVuSans-6f"/>
      <path d="M 54.890625 33.015625 
L 54.890625 0 
L 45.90625 0 
L 45.90625 32.71875 
Q 45.90625 40.484375 42.875 44.328125 
Q 39.84375 48.1875 33.796875 48.1875 
Q 26.515625 48.1875 22.3125 43.546875 
Q 18.109375 38.921875 18.109375 30.90625 
L 18.109375 0 
L 9.078125 0 
L 9.078125 54.6875 
L 18.109375 54.6875 
L 18.109375 46.1875 
Q 21.34375 51.125 25.703125 53.5625 
Q 30.078125 56 35.796875 56 
Q 45.21875 56 50.046875 50.171875 
Q 54.890625 44.34375 54.890625 33.015625 
z
" id="DejaVuSans-6e"/>
      <path d="M 25.390625 72.90625 
L 33.6875 72.90625 
L 8.296875 -9.28125 
L 0 -9.28125 
z
" id="DejaVuSans-2f"/>
      <path d="M 59.625 54.6875 
L 50.296875 6.78125 
Q 47.609375 -7.125 40.015625 -13.953125 
Q 32.421875 -20.796875 19.578125 -20.796875 
Q 14.84375 -20.796875 10.78125 -20.09375 
Q 6.734375 -19.390625 3.21875 -17.921875 
L 4.890625 -9.1875 
Q 8.203125 -11.328125 11.90625 -12.34375 
Q 15.625 -13.375 19.828125 -13.375 
Q 28.375 -13.375 33.859375 -8.703125 
Q 39.359375 -4.046875 41.109375 4.6875 
L 41.890625 8.796875 
Q 38.140625 4.5 33.15625 2.25 
Q 28.171875 0 22.40625 0 
Q 14.109375 0 9.34375 5.484375 
Q 4.59375 10.984375 4.59375 20.609375 
Q 4.59375 28.171875 7.46875 35.421875 
Q 10.359375 42.671875 15.578125 48.296875 
Q 19.046875 52 23.65625 54 
Q 28.265625 56 33.296875 56 
Q 38.8125 56 42.90625 53.4375 
Q 47.015625 50.875 49.03125 46.1875 
L 50.59375 54.6875 
z
M 46.09375 34.625 
Q 46.09375 41.265625 42.96875 44.875 
Q 39.84375 48.484375 34.078125 48.484375 
Q 30.515625 48.484375 27.296875 47.0625 
Q 24.078125 45.65625 21.78125 43.109375 
Q 18.0625 38.921875 15.984375 33.234375 
Q 13.921875 27.546875 13.921875 21.484375 
Q 13.921875 14.75 17.0625 11.125 
Q 20.21875 7.515625 26.125 7.515625 
Q 34.671875 7.515625 40.375 15.25 
Q 46.09375 23 46.09375 34.625 
z
" id="DejaVuSans-Oblique-67"/>
     </defs>
     <g transform="translate(11.332812 214.68)rotate(-90)scale(0.2 -0.2)">
      <use transform="translate(0 0.015625)" xlink:href="#DejaVuSans-61"/>
      <use transform="translate(61.279297 0.015625)" xlink:href="#DejaVuSans-63"/>
      <use transform="translate(116.259766 0.015625)" xlink:href="#DejaVuSans-63"/>
      <use transform="translate(171.240234 0.015625)" xlink:href="#DejaVuSans-65"/>
      <use transform="translate(232.763672 0.015625)" xlink:href="#DejaVuSans-6c"/>
      <use transform="translate(260.546875 0.015625)" xlink:href="#DejaVuSans-65"/>
      <use transform="translate(322.070312 0.015625)" xlink:href="#DejaVuSans-72"/>
      <use transform="translate(363.183594 0.015625)" xlink:href="#DejaVuSans-61"/>
      <use transform="translate(424.462891 0.015625)" xlink:href="#DejaVuSans-74"/>
      <use transform="translate(463.671875 0.015625)" xlink:href="#DejaVuSans-69"/>
      <use transform="translate(491.455078 0.015625)" xlink:href="#DejaVuSans-6f"/>
      <use transform="translate(552.636719 0.015625)" xlink:href="#DejaVuSans-6e"/>
      <use transform="translate(616.015625 0.015625)" xlink:href="#DejaVuSans-2f"/>
      <use transform="translate(649.707031 0.015625)" xlink:href="#DejaVuSans-Oblique-67"/>
     </g>
    </g>
   </g>
   <g id="line2d_12">
    <path clip-path="url(#p9227d79099)" d="M 54 128.239221 
L 57.364824 127.215327 
L 60.729648 126.390424 
L 64.094472 125.786198 
L 67.459296 125.40683 
L 70.824121 125.237446 
L 75.871357 125.299509 
L 91.013065 125.989274 
L 96.060302 125.840842 
L 107.837186 125.132853 
L 111.20201 125.289184 
L 112.884422 125.518863 
L 114.566834 125.877664 
L 116.249246 126.386709 
L 117.931658 127.066586 
L 119.61407 127.936863 
L 121.296482 129.015614 
L 122.978894 130.318944 
L 124.661307 131.860549 
L 126.343719 133.651302 
L 128.026131 135.698888 
L 129.708543 138.007493 
L 131.390955 140.577545 
L 133.073367 143.40553 
L 134.755779 146.483871 
L 138.120603 153.340793 
L 141.485427 161.006469 
L 144.850251 169.27842 
L 156.627136 198.991218 
L 159.99196 206.37127 
L 161.674372 209.669576 
L 163.356784 212.654597 
L 165.039196 215.289563 
L 166.721608 217.540048 
L 168.40402 219.374327 
L 170.086432 220.763709 
L 171.768844 221.682846 
L 173.451256 222.11002 
L 175.133668 222.027391 
L 176.81608 221.421235 
L 178.498492 220.282148 
L 180.180905 218.605229 
L 181.863317 216.390236 
L 183.545729 213.641715 
L 185.228141 210.3691 
L 186.910553 206.586788 
L 188.592965 202.314164 
L 190.275377 197.575606 
L 191.957789 192.400427 
L 195.322613 180.881527 
L 198.687437 168.085677 
L 203.734673 147.377115 
L 210.464322 119.396617 
L 213.829146 106.375389 
L 217.19397 94.656139 
L 218.876382 89.425166 
L 220.558794 84.680073 
L 222.241206 80.464468 
L 223.923618 76.815888 
L 225.60603 73.765141 
L 227.288442 71.335738 
L 228.970854 69.543429 
L 230.653266 68.395855 
L 232.335678 67.892337 
L 234.01809 68.023792 
L 235.700503 68.772803 
L 237.382915 70.11383 
L 239.065327 72.013571 
L 240.747739 74.431459 
L 242.430151 77.320299 
L 244.112563 80.627028 
L 245.794975 84.293578 
L 249.159799 92.454724 
L 254.207035 105.76798 
L 257.571859 114.578452 
L 260.936683 122.75691 
L 262.619095 126.474186 
L 264.301508 129.882745 
L 265.98392 132.945196 
L 267.666332 135.631265 
L 269.348744 137.91811 
L 271.031156 139.790485 
L 272.713568 141.240759 
L 274.39598 142.268787 
L 276.078392 142.881643 
L 277.760804 143.093221 
L 279.443216 142.923726 
L 281.125628 142.399051 
L 282.80804 141.550078 
L 284.490452 140.411903 
L 286.172864 139.023014 
L 287.855276 137.424436 
L 291.220101 133.76983 
L 299.632161 123.951121 
L 302.996985 120.552698 
L 304.679397 119.08927 
L 306.361809 117.812034 
L 308.044221 116.737272 
L 309.726633 115.876839 
L 311.409045 115.238215 
L 313.091457 114.824647 
L 314.773869 114.635359 
L 316.456281 114.665827 
L 318.138693 114.90811 
L 319.821106 115.351218 
L 321.503518 115.981522 
L 323.18593 116.78318 
L 324.868342 117.738569 
L 328.233166 120.03381 
L 331.59799 122.707193 
L 338.327638 128.550183 
L 343.374874 132.810778 
L 346.739698 135.385813 
L 350.104523 137.66237 
L 353.469347 139.597299 
L 356.834171 141.172544 
L 360.198995 142.391651 
L 363.563819 143.275466 
L 366.928643 143.857512 
L 370.293467 144.179444 
L 373.658291 144.286924 
L 378.705528 144.146459 
L 385.435176 143.615037 
L 388.8 143.28 
L 388.8 143.28 
" style="fill:none;stroke:#3300ff;stroke-linecap:square;stroke-width:2;"/>
   </g>
   <g id="line2d_13">
    <path clip-path="url(#p9227d79099)" d="M 54 101.372436 
L 57.364824 105.373468 
L 60.729648 108.958534 
L 64.094472 112.065141 
L 67.459296 114.641473 
L 69.141709 115.719408 
L 70.824121 116.655294 
L 72.506533 117.452052 
L 75.871357 118.663014 
L 79.236181 119.462306 
L 82.601005 119.982489 
L 85.965829 120.316267 
L 91.013065 120.535801 
L 96.060302 120.429672 
L 102.78995 119.946082 
L 107.837186 119.691776 
L 111.20201 119.824461 
L 112.884422 120.042775 
L 114.566834 120.391256 
L 116.249246 120.891497 
L 117.931658 121.564449 
L 119.61407 122.429918 
L 121.296482 123.506047 
L 122.978894 124.808838 
L 124.661307 126.351708 
L 126.343719 128.145089 
L 128.026131 130.196106 
L 129.708543 132.508309 
L 131.390955 135.081487 
L 133.073367 137.911551 
L 134.755779 140.990478 
L 138.120603 147.843273 
L 141.485427 155.498601 
L 144.850251 163.757746 
L 156.627136 193.473861 
L 159.99196 200.873565 
L 161.674372 204.182775 
L 163.356784 207.178456 
L 165.039196 209.823154 
L 166.721608 212.081862 
L 168.40402 213.922432 
L 170.086432 215.315943 
L 171.768844 216.237031 
L 173.451256 216.664167 
L 175.133668 216.579888 
L 176.81608 215.970993 
L 178.498492 214.828699 
L 180.180905 213.148761 
L 181.863317 210.931578 
L 183.545729 208.182263 
L 185.228141 204.910699 
L 186.910553 201.131576 
L 188.592965 196.864405 
L 190.275377 192.133503 
L 191.957789 186.967955 
L 195.322613 175.472584 
L 198.687437 162.702204 
L 203.734673 142.024631 
L 210.464322 114.051282 
L 213.829146 101.014064 
L 217.19397 89.264916 
L 218.876382 84.013908 
L 220.558794 79.245612 
L 222.241206 75.00394 
L 223.923618 71.326877 
L 225.60603 68.245845 
L 227.288442 65.785153 
L 228.970854 63.961531 
L 230.653266 62.783761 
L 232.335678 62.252425 
L 234.01809 62.359763 
L 235.700503 63.089661 
L 237.382915 64.41777 
L 239.065327 66.311769 
L 240.747739 68.731765 
L 242.430151 71.63084 
L 244.112563 74.955735 
L 245.794975 78.647666 
L 249.159799 86.875646 
L 259.254271 113.356165 
L 262.619095 121.033869 
L 264.301508 124.413572 
L 265.98392 127.436838 
L 267.666332 130.07578 
L 269.348744 132.310584 
L 271.031156 134.129418 
L 272.713568 135.528155 
L 274.39598 136.50996 
L 276.078392 137.084751 
L 277.760804 137.268578 
L 279.443216 137.082928 
L 281.125628 136.554 
L 282.80804 135.71196 
L 284.490452 134.590221 
L 286.172864 133.224762 
L 287.855276 131.65352 
L 291.220101 128.052103 
L 301.314573 116.467642 
L 304.679397 113.294599 
L 306.361809 111.937376 
L 309.726633 109.663767 
L 313.091457 107.823109 
L 321.503518 103.534179 
L 324.868342 101.552692 
L 328.233166 99.309869 
L 331.59799 96.760238 
L 334.962814 93.877146 
L 338.327638 90.659189 
L 341.692462 87.132925 
L 346.739698 81.387162 
L 361.881407 63.537144 
L 365.246231 60.004168 
L 368.611055 56.772437 
L 371.975879 53.875899 
L 375.340704 51.330032 
L 378.705528 49.133654 
L 382.070352 47.271787 
L 385.435176 45.719125 
L 388.8 44.443636 
L 388.8 44.443636 
" style="fill:none;stroke:#3300ff;stroke-linecap:square;stroke-width:0.2;"/>
   </g>
   <g id="line2d_14">
    <path clip-path="url(#p9227d79099)" d="M 54 155.106005 
L 57.364824 149.057186 
L 59.047236 146.330413 
L 60.729648 143.822315 
L 62.41206 141.544876 
L 64.094472 139.507256 
L 65.776884 137.715509 
L 67.459296 136.172187 
L 69.141709 134.875724 
L 70.824121 133.819598 
L 72.506533 132.991377 
L 74.188945 132.372022 
L 75.871357 131.936004 
L 77.553769 131.652694 
L 80.918593 131.411934 
L 85.965829 131.428331 
L 92.695477 131.404336 
L 97.742714 131.143574 
L 106.154774 130.595432 
L 109.519598 130.620301 
L 112.884422 130.994951 
L 114.566834 131.364072 
L 116.249246 131.881922 
L 117.931658 132.568722 
L 119.61407 133.443808 
L 121.296482 134.525181 
L 122.978894 135.82905 
L 124.661307 137.36939 
L 126.343719 139.157514 
L 128.026131 141.20167 
L 129.708543 143.506677 
L 131.390955 146.073602 
L 133.073367 148.899508 
L 134.755779 151.977263 
L 138.120603 158.838313 
L 141.485427 166.514337 
L 144.850251 174.799094 
L 154.944724 200.515899 
L 158.309548 208.30652 
L 159.99196 211.868974 
L 161.674372 215.156378 
L 163.356784 218.130737 
L 165.039196 220.755972 
L 166.721608 222.998235 
L 168.40402 224.826223 
L 170.086432 226.211474 
L 171.768844 227.128661 
L 173.451256 227.555872 
L 175.133668 227.474893 
L 176.81608 226.871476 
L 178.498492 225.735597 
L 180.180905 224.061698 
L 181.863317 221.848894 
L 183.545729 219.101167 
L 185.228141 215.827502 
L 186.910553 212.041999 
L 188.592965 207.763923 
L 190.275377 203.017708 
L 191.957789 197.832899 
L 195.322613 186.29047 
L 198.687437 173.469149 
L 203.734673 152.7296 
L 210.464322 124.741951 
L 213.829146 111.736713 
L 217.19397 100.047363 
L 218.876382 94.836425 
L 220.558794 90.114535 
L 222.241206 85.924996 
L 223.923618 82.304898 
L 225.60603 79.284436 
L 227.288442 76.886322 
L 228.970854 75.125326 
L 230.653266 74.00795 
L 232.335678 73.532249 
L 234.01809 73.687821 
L 235.700503 74.455945 
L 237.382915 75.80989 
L 239.065327 77.715373 
L 240.747739 80.131153 
L 242.430151 83.009758 
L 244.112563 86.29832 
L 245.794975 89.939491 
L 249.159799 98.033802 
L 254.207035 111.239623 
L 257.571859 120.004771 
L 260.936683 128.180242 
L 262.619095 131.914503 
L 264.301508 135.351918 
L 265.98392 138.453554 
L 267.666332 141.18675 
L 269.348744 143.525636 
L 271.031156 145.451552 
L 272.713568 146.953363 
L 274.39598 148.027614 
L 276.078392 148.678534 
L 277.760804 148.917864 
L 279.443216 148.764524 
L 281.125628 148.244103 
L 282.80804 147.388196 
L 284.490452 146.233585 
L 286.172864 144.821266 
L 287.855276 143.195353 
L 291.220101 139.487557 
L 299.632161 129.645316 
L 302.996985 126.297954 
L 304.679397 124.883942 
L 306.361809 123.686692 
L 308.044221 122.742208 
L 309.726633 122.08991 
L 311.409045 121.771284 
L 313.091457 121.826185 
L 314.773869 122.287577 
L 316.456281 123.176858 
L 318.138693 124.501804 
L 319.821106 126.257482 
L 321.503518 128.428865 
L 323.18593 130.993646 
L 324.868342 133.924446 
L 326.550754 137.190325 
L 328.233166 140.757752 
L 331.59799 148.654148 
L 334.962814 157.316594 
L 340.01005 171.083493 
L 346.739698 189.384464 
L 350.104523 197.958527 
L 353.469347 205.895214 
L 356.834171 213.063885 
L 360.198995 219.382483 
L 361.881407 222.210091 
L 363.563819 224.815068 
L 365.246231 227.199325 
L 366.928643 229.366943 
L 368.611055 231.323938 
L 370.293467 233.078004 
L 371.975879 234.638263 
L 373.658291 236.015003 
L 375.340704 237.219429 
L 377.023116 238.263414 
L 378.705528 239.159265 
L 380.38794 239.919505 
L 383.752764 241.083139 
L 387.117588 241.851689 
L 388.8 242.116364 
L 388.8 242.116364 
" style="fill:none;stroke:#3300ff;stroke-linecap:square;stroke-width:0.2;"/>
   </g>
   <g id="line2d_15">
    <defs>
     <path d="M 0 2.5 
C 0.663008 2.5 1.29895 2.236584 1.767767 1.767767 
C 2.236584 1.29895 2.5 0.663008 2.5 0 
C 2.5 -0.663008 2.236584 -1.29895 1.767767 -1.767767 
C 1.29895 -2.236584 0.663008 -2.5 0 -2.5 
C -0.663008 -2.5 -1.29895 -2.236584 -1.767767 -1.767767 
C -2.236584 -1.29895 -2.5 -0.663008 -2.5 0 
C -2.5 0.663008 -2.236584 1.29895 -1.767767 1.767767 
C -1.29895 2.236584 -0.663008 2.5 0 2.5 
z
" id="m636f434d65" style="stroke:#ff0000;"/>
    </defs>
    <g clip-path="url(#p9227d79099)">
     <use style="fill:#ff0000;stroke:#ff0000;" x="206.454959" xlink:href="#m636f434d65" y="136.292127"/>
     <use style="fill:#ff0000;stroke:#ff0000;" x="210.08538" xlink:href="#m636f434d65" y="120.875711"/>
     <use style="fill:#ff0000;stroke:#ff0000;" x="216.559443" xlink:href="#m636f434d65" y="97.13443"/>
     <use style="fill:#ff0000;stroke:#ff0000;" x="211.638449" xlink:href="#m636f434d65" y="114.709144"/>
     <use style="fill:#ff0000;stroke:#ff0000;" x="309.789788" xlink:href="#m636f434d65" y="115.711211"/>
     <use style="fill:#ff0000;stroke:#ff0000;" x="197.027706" xlink:href="#m636f434d65" y="174.524839"/>
     <use style="fill:#ff0000;stroke:#ff0000;" x="258.254716" xlink:href="#m636f434d65" y="115.711211"/>
     <use style="fill:#ff0000;stroke:#ff0000;" x="298.138564" xlink:href="#m636f434d65" y="126.04021"/>
     <use style="fill:#ff0000;stroke:#ff0000;" x="144.828949" xlink:href="#m636f434d65" y="169.437422"/>
     <use style="fill:#ff0000;stroke:#ff0000;" x="92.760377" xlink:href="#m636f434d65" y="126.04021"/>
     <use style="fill:#ff0000;stroke:#ff0000;" x="219.514868" xlink:href="#m636f434d65" y="87.807498"/>
     <use style="fill:#ff0000;stroke:#ff0000;" x="168.816428" xlink:href="#m636f434d65" y="218.847036"/>
     <use style="fill:#ff0000;stroke:#ff0000;" x="126.115256" xlink:href="#m636f434d65" y="134.210911"/>
     <use style="fill:#ff0000;stroke:#ff0000;" x="261.518817" xlink:href="#m636f434d65" y="123.958994"/>
     <use style="fill:#ff0000;stroke:#ff0000;" x="95.937606" xlink:href="#m636f434d65" y="126.04021"/>
     <use style="fill:#ff0000;stroke:#ff0000;" x="299.448218" xlink:href="#m636f434d65" y="123.958994"/>
     <use style="fill:#ff0000;stroke:#ff0000;" x="97.656222" xlink:href="#m636f434d65" y="123.958994"/>
     <use style="fill:#ff0000;stroke:#ff0000;" x="232.44656" xlink:href="#m636f434d65" y="66.147433"/>
     <use style="fill:#ff0000;stroke:#ff0000;" x="212.501375" xlink:href="#m636f434d65" y="111.625861"/>
     <use style="fill:#ff0000;stroke:#ff0000;" x="91.198141" xlink:href="#m636f434d65" y="126.04021"/>
     <use style="fill:#ff0000;stroke:#ff0000;" x="209.657973" xlink:href="#m636f434d65" y="122.956927"/>
     <use style="fill:#ff0000;stroke:#ff0000;" x="206.132598" xlink:href="#m636f434d65" y="137.371276"/>
     <use style="fill:#ff0000;stroke:#ff0000;" x="204.361381" xlink:href="#m636f434d65" y="144.616992"/>
     <use style="fill:#ff0000;stroke:#ff0000;" x="139.651894" xlink:href="#m636f434d65" y="157.027207"/>
     <use style="fill:#ff0000;stroke:#ff0000;" x="110.70653" xlink:href="#m636f434d65" y="123.958994"/>
     <use style="fill:#ff0000;stroke:#ff0000;" x="138.684909" xlink:href="#m636f434d65" y="154.94599"/>
     <use style="fill:#ff0000;stroke:#ff0000;" x="171.816233" xlink:href="#m636f434d65" y="218.847036"/>
     <use style="fill:#ff0000;stroke:#ff0000;" x="261.620275" xlink:href="#m636f434d65" y="123.958994"/>
     <use style="fill:#ff0000;stroke:#ff0000;" x="94.455933" xlink:href="#m636f434d65" y="123.958994"/>
     <use style="fill:#ff0000;stroke:#ff0000;" x="173.887093" xlink:href="#m636f434d65" y="227.248983"/>
     <use style="fill:#ff0000;stroke:#ff0000;" x="93.97732" xlink:href="#m636f434d65" y="124.961061"/>
     <use style="fill:#ff0000;stroke:#ff0000;" x="190.319507" xlink:href="#m636f434d65" y="197.264053"/>
     <use style="fill:#ff0000;stroke:#ff0000;" x="258.177681" xlink:href="#m636f434d65" y="115.711211"/>
     <use style="fill:#ff0000;stroke:#ff0000;" x="219.189786" xlink:href="#m636f434d65" y="88.809565"/>
     <use style="fill:#ff0000;stroke:#ff0000;" x="92.163928" xlink:href="#m636f434d65" y="126.04021"/>
     <use style="fill:#ff0000;stroke:#ff0000;" x="247.127231" xlink:href="#m636f434d65" y="87.807498"/>
     <use style="fill:#ff0000;stroke:#ff0000;" x="97.009614" xlink:href="#m636f434d65" y="124.961061"/>
     <use style="fill:#ff0000;stroke:#ff0000;" x="252.134566" xlink:href="#m636f434d65" y="100.217713"/>
     <use style="fill:#ff0000;stroke:#ff0000;" x="165.259373" xlink:href="#m636f434d65" y="214.838767"/>
     <use style="fill:#ff0000;stroke:#ff0000;" x="176.502335" xlink:href="#m636f434d65" y="218.847036"/>
     <use style="fill:#ff0000;stroke:#ff0000;" x="208.294961" xlink:href="#m636f434d65" y="128.121426"/>
     <use style="fill:#ff0000;stroke:#ff0000;" x="271.192258" xlink:href="#m636f434d65" y="140.531641"/>
     <use style="fill:#ff0000;stroke:#ff0000;" x="205.370694" xlink:href="#m636f434d65" y="140.531641"/>
     <use style="fill:#ff0000;stroke:#ff0000;" x="298.165261" xlink:href="#m636f434d65" y="126.04021"/>
     <use style="fill:#ff0000;stroke:#ff0000;" x="131.724628" xlink:href="#m636f434d65" y="141.533708"/>
     <use style="fill:#ff0000;stroke:#ff0000;" x="290.069998" xlink:href="#m636f434d65" y="135.29006"/>
     <use style="fill:#ff0000;stroke:#ff0000;" x="102.415269" xlink:href="#m636f434d65" y="123.958994"/>
     <use style="fill:#ff0000;stroke:#ff0000;" x="290.308864" xlink:href="#m636f434d65" y="134.210911"/>
     <use style="fill:#ff0000;stroke:#ff0000;" x="195.628558" xlink:href="#m636f434d65" y="179.689338"/>
     <use style="fill:#ff0000;stroke:#ff0000;" x="111.519752" xlink:href="#m636f434d65" y="126.04021"/>
     <use style="fill:#ff0000;stroke:#ff0000;" x="259.540011" xlink:href="#m636f434d65" y="119.796561"/>
     <use style="fill:#ff0000;stroke:#ff0000;" x="266.561867" xlink:href="#m636f434d65" y="134.210911"/>
     <use style="fill:#ff0000;stroke:#ff0000;" x="148.434775" xlink:href="#m636f434d65" y="178.687271"/>
     <use style="fill:#ff0000;stroke:#ff0000;" x="93.526182" xlink:href="#m636f434d65" y="126.04021"/>
     <use style="fill:#ff0000;stroke:#ff0000;" x="256.872513" xlink:href="#m636f434d65" y="112.627928"/>
     <use style="fill:#ff0000;stroke:#ff0000;" x="131.180549" xlink:href="#m636f434d65" y="140.531641"/>
     <use style="fill:#ff0000;stroke:#ff0000;" x="199.371453" xlink:href="#m636f434d65" y="165.197907"/>
     <use style="fill:#ff0000;stroke:#ff0000;" x="120.67451" xlink:href="#m636f434d65" y="128.121426"/>
     <use style="fill:#ff0000;stroke:#ff0000;" x="219.411395" xlink:href="#m636f434d65" y="87.807498"/>
     <use style="fill:#ff0000;stroke:#ff0000;" x="308.517179" xlink:href="#m636f434d65" y="115.711211"/>
     <use style="fill:#ff0000;stroke:#ff0000;" x="216.78564" xlink:href="#m636f434d65" y="96.05528"/>
     <use style="fill:#ff0000;stroke:#ff0000;" x="162.246724" xlink:href="#m636f434d65" y="210.676335"/>
     <use style="fill:#ff0000;stroke:#ff0000;" x="97.77464" xlink:href="#m636f434d65" y="128.121426"/>
     <use style="fill:#ff0000;stroke:#ff0000;" x="221.84567" xlink:href="#m636f434d65" y="81.640931"/>
     <use style="fill:#ff0000;stroke:#ff0000;" x="91.227114" xlink:href="#m636f434d65" y="126.04021"/>
     <use style="fill:#ff0000;stroke:#ff0000;" x="137.949728" xlink:href="#m636f434d65" y="152.864774"/>
     <use style="fill:#ff0000;stroke:#ff0000;" x="172.407542" xlink:href="#m636f434d65" y="222.007401"/>
     <use style="fill:#ff0000;stroke:#ff0000;" x="184.937404" xlink:href="#m636f434d65" y="210.676335"/>
     <use style="fill:#ff0000;stroke:#ff0000;" x="131.261333" xlink:href="#m636f434d65" y="140.531641"/>
     <use style="fill:#ff0000;stroke:#ff0000;" x="252.573452" xlink:href="#m636f434d65" y="101.296862"/>
     <use style="fill:#ff0000;stroke:#ff0000;" x="174.315698" xlink:href="#m636f434d65" y="218.847036"/>
     <use style="fill:#ff0000;stroke:#ff0000;" x="175.065324" xlink:href="#m636f434d65" y="223.009468"/>
     <use style="fill:#ff0000;stroke:#ff0000;" x="262.050903" xlink:href="#m636f434d65" y="124.961061"/>
     <use style="fill:#ff0000;stroke:#ff0000;" x="91.334775" xlink:href="#m636f434d65" y="124.961061"/>
     <use style="fill:#ff0000;stroke:#ff0000;" x="100.788576" xlink:href="#m636f434d65" y="128.121426"/>
     <use style="fill:#ff0000;stroke:#ff0000;" x="99.180291" xlink:href="#m636f434d65" y="126.04021"/>
     <use style="fill:#ff0000;stroke:#ff0000;" x="186.962047" xlink:href="#m636f434d65" y="206.513903"/>
     <use style="fill:#ff0000;stroke:#ff0000;" x="261.7601" xlink:href="#m636f434d65" y="124.961061"/>
     <use style="fill:#ff0000;stroke:#ff0000;" x="210.919045" xlink:href="#m636f434d65" y="117.715345"/>
     <use style="fill:#ff0000;stroke:#ff0000;" x="153.000662" xlink:href="#m636f434d65" y="189.941255"/>
     <use style="fill:#ff0000;stroke:#ff0000;" x="158.474185" xlink:href="#m636f434d65" y="202.505634"/>
     <use style="fill:#ff0000;stroke:#ff0000;" x="200.915949" xlink:href="#m636f434d65" y="159.108423"/>
     <use style="fill:#ff0000;stroke:#ff0000;" x="278.517378" xlink:href="#m636f434d65" y="144.616992"/>
     <use style="fill:#ff0000;stroke:#ff0000;" x="232.444527" xlink:href="#m636f434d65" y="70.309865"/>
     <use style="fill:#ff0000;stroke:#ff0000;" x="109.939343" xlink:href="#m636f434d65" y="126.04021"/>
     <use style="fill:#ff0000;stroke:#ff0000;" x="231.653272" xlink:href="#m636f434d65" y="66.147433"/>
     <use style="fill:#ff0000;stroke:#ff0000;" x="202.531175" xlink:href="#m636f434d65" y="152.864774"/>
     <use style="fill:#ff0000;stroke:#ff0000;" x="115.279405" xlink:href="#m636f434d65" y="126.04021"/>
     <use style="fill:#ff0000;stroke:#ff0000;" x="95.343083" xlink:href="#m636f434d65" y="126.04021"/>
     <use style="fill:#ff0000;stroke:#ff0000;" x="197.240984" xlink:href="#m636f434d65" y="173.599854"/>
     <use style="fill:#ff0000;stroke:#ff0000;" x="186.240476" xlink:href="#m636f434d65" y="207.51597"/>
     <use style="fill:#ff0000;stroke:#ff0000;" x="157.159195" xlink:href="#m636f434d65" y="200.347336"/>
     <use style="fill:#ff0000;stroke:#ff0000;" x="206.357576" xlink:href="#m636f434d65" y="136.292127"/>
     <use style="fill:#ff0000;stroke:#ff0000;" x="97.142555" xlink:href="#m636f434d65" y="126.04021"/>
    </g>
   </g>
   <g id="patch_4">
    <path d="M 54 252 
L 54 34.56 
" style="fill:none;stroke:#000000;stroke-linecap:square;stroke-linejoin:miter;stroke-width:0.8;"/>
   </g>
   <g id="patch_5">
    <path d="M 388.8 252 
L 388.8 34.56 
" style="fill:none;stroke:#000000;stroke-linecap:square;stroke-linejoin:miter;stroke-width:0.8;"/>
   </g>
   <g id="patch_6">
    <path d="M 54 252 
L 388.8 252 
" style="fill:none;stroke:#000000;stroke-linecap:square;stroke-linejoin:miter;stroke-width:0.8;"/>
   </g>
   <g id="patch_7">
    <path d="M 54 34.56 
L 388.8 34.56 
" style="fill:none;stroke:#000000;stroke-linecap:square;stroke-linejoin:miter;stroke-width:0.8;"/>
   </g>
  </g>
 </g>
 <defs>
  <clipPath id="p9227d79099">
   <rect height="217.44" width="334.8" x="54" y="34.56"/>
  </clipPath>
 </defs>
</svg>
