<?xml version="1.0" encoding="utf-8" standalone="no"?>
<!DOCTYPE svg PUBLIC "-//W3C//DTD SVG 1.1//EN"
  "http://www.w3.org/Graphics/SVG/1.1/DTD/svg11.dtd">
<!-- Created with matplotlib (http://matplotlib.org/) -->
<svg height="504pt" version="1.1" viewBox="0 0 504 504" width="504pt" xmlns="http://www.w3.org/2000/svg" xmlns:xlink="http://www.w3.org/1999/xlink">
 <defs>
  <style type="text/css">
*{stroke-linecap:butt;stroke-linejoin:round;}
  </style>
 </defs>
 <g id="figure_1">
  <g id="patch_1">
   <path d="M 0 504 
L 504 504 
L 504 0 
L 0 0 
z
" style="fill:none;"/>
  </g>
  <g id="axes_1">
   <g id="patch_2">
    <path d="M 63 441 
L 453.6 441 
L 453.6 60.48 
L 63 60.48 
z
" style="fill:none;"/>
   </g>
   <g id="patch_3">
    <path clip-path="url(#pe40a16385d)" d="M 80.754545 91.556698 
L 82.538922 91.632464 
L 84.323298 91.721715 
L 86.107675 91.82641 
L 87.892051 91.948719 
L 89.676428 92.091038 
L 91.460804 92.256015 
L 93.24518 92.446567 
L 95.029557 92.665927 
L 96.813933 92.917682 
L 98.59831 93.205845 
L 100.382686 93.534936 
L 102.167063 93.910108 
L 103.951439 94.337291 
L 105.735815 94.8234 
L 107.520192 95.37659 
L 109.304568 96.006576 
L 111.088945 96.725041 
L 112.873321 97.546117 
L 114.657698 98.486971 
L 116.442074 99.568473 
L 118.22645 100.815942 
L 120.010827 102.25993 
L 121.795203 103.936947 
L 123.57958 105.889988 
L 125.363956 108.16856 
L 127.148333 110.827777 
L 128.932709 113.925749 
L 130.717085 117.518162 
L 132.501462 121.648451 
L 134.285838 126.331597 
L 136.070215 131.529772 
L 137.854591 137.119824 
L 139.638968 142.857896 
L 141.423344 148.357322 
L 143.20772 153.111622 
L 144.992097 156.60355 
L 146.776473 158.516061 
L 148.56085 158.979044 
L 150.345226 158.690304 
L 152.129603 158.761671 
L 153.913979 160.311088 
L 155.698355 164.009864 
L 157.482732 169.826918 
L 159.267108 177.079859 
L 161.051485 184.729816 
L 162.835861 191.754187 
L 164.620238 197.432888 
L 166.404614 201.471116 
L 168.18899 203.981056 
L 169.973367 205.352447 
L 171.757743 206.033552 
L 173.54212 206.352453 
L 175.326496 206.485601 
L 177.110873 206.512731 
L 178.895249 206.471784 
L 180.679625 206.389199 
L 182.464002 206.291365 
L 184.248378 206.205674 
L 186.032755 206.156645 
L 187.817131 206.160407 
L 189.601508 206.219761 
L 191.385884 206.321535 
L 193.17026 206.437492 
L 194.954637 206.528843 
L 196.739013 206.551091 
L 198.52339 206.449418 
L 200.307766 206.128284 
L 202.092143 205.394867 
L 203.876519 203.960719 
L 205.660895 201.655506 
L 207.445272 198.765293 
L 209.229648 196.172222 
L 211.014025 195.236162 
L 212.798401 197.51722 
L 214.582778 204.380356 
L 216.367154 216.568012 
L 218.15153 233.895196 
L 219.935907 255.191486 
L 221.720283 278.487555 
L 223.50466 301.28806 
L 225.289036 320.644252 
L 227.073413 332.823328 
L 228.857789 334.065329 
L 230.642165 324.846336 
L 232.426542 309.518481 
L 234.210918 291.542013 
L 235.995295 272.757805 
L 237.779671 254.076207 
L 239.564048 235.896671 
L 241.348424 218.323051 
L 243.1328 201.297134 
L 244.917177 184.697302 
L 246.701553 168.418974 
L 248.48593 152.442958 
L 250.270306 136.892573 
L 252.054683 122.075572 
L 253.839059 108.501629 
L 255.623435 96.861172 
L 257.407812 87.94863 
L 259.192188 82.514466 
L 260.976565 81.03442 
L 262.760941 83.38256 
L 264.545317 88.38504 
L 266.329694 93.404005 
L 268.11407 95.276333 
L 269.898447 93.80056 
L 271.682823 91.887532 
L 273.4672 91.794912 
L 275.251576 94.102465 
L 277.035952 98.395586 
L 278.820329 103.880298 
L 280.604705 109.739445 
L 282.389082 115.311413 
L 284.173458 120.155075 
L 285.957835 124.047308 
L 287.742211 126.947952 
L 289.526587 128.955274 
L 291.310964 130.264103 
L 293.09534 131.131026 
L 294.879717 131.847298 
L 296.664093 132.71911 
L 298.44847 134.05477 
L 300.232846 136.157405 
L 302.017222 139.319441 
L 303.801599 143.811987 
L 305.585975 149.859956 
L 307.370352 157.594203 
L 309.154728 166.9767 
L 310.939105 177.703552 
L 312.723481 189.100358 
L 314.507857 200.03166 
L 316.292234 208.874709 
L 318.07661 213.782112 
L 319.860987 213.709032 
L 321.645363 209.549655 
L 323.42974 203.419262 
L 325.214116 197.160386 
L 326.998492 191.839094 
L 328.782869 187.853208 
L 330.567245 185.154908 
L 332.351622 183.46733 
L 334.135998 182.462179 
L 335.920375 181.871639 
L 337.704751 181.524616 
L 339.489127 181.327678 
L 341.273504 181.232362 
L 343.05788 181.225934 
L 344.842257 181.356801 
L 346.626633 181.767619 
L 348.41101 182.664235 
L 350.195386 184.115706 
L 351.979762 185.618878 
L 353.764139 185.626717 
L 355.548515 181.859049 
L 357.332892 173.076186 
L 359.117268 160.475131 
L 360.901645 146.67695 
L 362.686021 133.896258 
L 364.470397 123.047212 
L 366.254774 113.920385 
L 368.03915 105.930379 
L 369.823527 98.754725 
L 371.607903 92.457226 
L 373.39228 87.253439 
L 375.176656 83.279448 
L 376.961032 80.51466 
L 378.745409 78.814146 
L 380.529785 77.972468 
L 382.314162 77.776364 
L 384.098538 78.035512 
L 385.882915 78.595066 
L 387.667291 79.336868 
L 389.451667 80.175095 
L 391.236044 81.050001 
L 393.02042 81.921698 
L 394.804797 82.764816 
L 396.589173 83.564246 
L 398.37355 84.311938 
L 400.157926 85.004546 
L 401.942302 85.641757 
L 403.726679 86.225127 
L 405.511055 86.757282 
L 407.295432 87.241391 
L 409.079808 87.680824 
L 410.864185 88.078939 
L 412.648561 88.438963 
L 414.432937 88.763933 
L 416.217314 89.056667 
L 418.00169 89.319775 
L 419.786067 89.555663 
L 421.570443 89.766563 
L 423.35482 89.954549 
L 425.139196 90.121557 
L 426.923572 90.269401 
L 428.707949 90.399789 
L 430.492325 90.514327 
L 432.276702 90.614529 
L 434.061078 90.701818 
L 435.845455 90.777526 
L 435.845455 406.769251 
L 434.061078 406.67935 
L 432.276702 406.57569 
L 430.492325 406.45672 
L 428.707949 406.320803 
L 426.923572 406.166227 
L 425.139196 405.991204 
L 423.35482 405.79387 
L 421.570443 405.572274 
L 419.786067 405.324355 
L 418.00169 405.047896 
L 416.217314 404.740457 
L 414.432937 404.399265 
L 412.648561 404.021059 
L 410.864185 403.601869 
L 409.079808 403.136722 
L 407.295432 402.619243 
L 405.511055 402.041141 
L 403.726679 401.391541 
L 401.942302 400.656144 
L 400.157926 399.816171 
L 398.37355 398.847058 
L 396.589173 397.716871 
L 394.804797 396.38442 
L 393.02042 394.797076 
L 391.236044 392.888384 
L 389.451667 390.57566 
L 387.667291 387.758011 
L 385.882915 384.315582 
L 384.098538 380.111439 
L 382.314162 374.998386 
L 380.529785 368.834177 
L 378.745409 361.50976 
L 376.961032 352.99559 
L 375.176656 343.408572 
L 373.39228 333.092804 
L 371.607903 322.684822 
L 369.823527 313.095289 
L 368.03915 305.304862 
L 366.254774 299.92396 
L 364.470397 296.702451 
L 362.686021 294.44033 
L 360.901645 291.58474 
L 359.117268 287.209792 
L 357.332892 281.68899 
L 355.548515 276.382987 
L 353.764139 272.198198 
L 351.979762 268.569152 
L 350.195386 264.483894 
L 348.41101 259.752933 
L 346.626633 254.935642 
L 344.842257 250.722091 
L 343.05788 247.552394 
L 341.273504 245.566469 
L 339.489127 244.725347 
L 337.704751 244.952343 
L 335.920375 246.211464 
L 334.135998 248.501052 
L 332.351622 251.781131 
L 330.567245 255.878431 
L 328.782869 260.422157 
L 326.998492 264.853772 
L 325.214116 268.53739 
L 323.42974 270.985629 
L 321.645363 272.194394 
L 319.860987 272.955354 
L 318.07661 274.592579 
L 316.292234 277.662683 
L 314.507857 281.31393 
L 312.723481 284.35945 
L 310.939105 286.13356 
L 309.154728 286.54306 
L 307.370352 285.855713 
L 305.585975 284.490134 
L 303.801599 282.863672 
L 302.017222 281.303276 
L 300.232846 280.009436 
L 298.44847 279.057617 
L 296.664093 278.42128 
L 294.879717 278.003122 
L 293.09534 277.664418 
L 291.310964 277.245522 
L 289.526587 276.573775 
L 287.742211 275.458502 
L 285.957835 273.67645 
L 284.173458 270.954602 
L 282.389082 266.960759 
L 280.604705 261.315273 
L 278.820329 253.638933 
L 277.035952 243.650369 
L 275.251576 231.321155 
L 273.4672 217.093047 
L 271.682823 202.176365 
L 269.898447 188.985422 
L 268.11407 181.537086 
L 266.329694 184.10107 
L 264.545317 197.164984 
L 262.760941 217.457101 
L 260.976565 241.484367 
L 259.192188 266.67518 
L 257.407812 291.247527 
L 255.623435 314.043236 
L 253.839059 334.414802 
L 252.054683 352.114402 
L 250.270306 367.176303 
L 248.48593 379.803915 
L 246.701553 390.272974 
L 244.917177 398.856099 
L 243.1328 405.768586 
L 241.348424 411.132864 
L 239.564048 414.959975 
L 237.779671 417.150195 
L 235.995295 417.52237 
L 234.210918 415.896436 
L 232.426542 412.289357 
L 230.642165 407.364961 
L 228.857789 403.221733 
L 227.073413 402.846504 
L 225.289036 405.607973 
L 223.50466 407.208915 
L 221.720283 404.245922 
L 219.935907 395.146754 
L 218.15153 379.796642 
L 216.367154 359.283673 
L 214.582778 335.604231 
L 212.798401 311.20659 
L 211.014025 288.440152 
L 209.229648 269.080229 
L 207.445272 254.078779 
L 205.660895 243.572165 
L 203.876519 237.043603 
L 202.092143 233.532181 
L 200.307766 231.931152 
L 198.52339 231.342065 
L 196.739013 231.224096 
L 194.954637 231.308862 
L 193.17026 231.469008 
L 191.385884 231.636688 
L 189.601508 231.769712 
L 187.817131 231.842259 
L 186.032755 231.843806 
L 184.248378 231.778592 
L 182.464002 231.66332 
L 180.679625 231.523647 
L 178.895249 231.391408 
L 177.110873 231.305747 
L 175.326496 231.322939 
L 173.54212 231.542091 
L 171.757743 232.1564 
L 169.973367 233.534627 
L 168.18899 236.302022 
L 166.404614 241.320467 
L 164.620238 249.485986 
L 162.835861 261.430641 
L 161.051485 277.256107 
L 159.267108 296.350794 
L 157.482732 317.381583 
L 155.698355 338.546703 
L 153.913979 358.043167 
L 152.129603 374.564524 
L 150.345226 387.603886 
L 148.56085 397.423153 
L 146.776473 404.73036 
L 144.992097 410.274534 
L 143.20772 414.586002 
L 141.423344 417.939861 
L 139.638968 420.454092 
L 137.854591 422.197387 
L 136.070215 423.247434 
L 134.285838 423.703636 
L 132.501462 423.678045 
L 130.717085 423.282212 
L 128.932709 422.617496 
L 127.148333 421.770121 
L 125.363956 420.809911 
L 123.57958 419.79123 
L 121.795203 418.754975 
L 120.010827 417.730913 
L 118.22645 416.739935 
L 116.442074 415.796054 
L 114.657698 414.908076 
L 112.873321 414.080947 
L 111.088945 413.3168 
L 109.304568 412.615766 
L 107.520192 411.976577 
L 105.735815 411.397008 
L 103.951439 410.874204 
L 102.167063 410.404912 
L 100.382686 409.985649 
L 98.59831 409.612819 
L 96.813933 409.282805 
L 95.029557 408.992026 
L 93.24518 408.73699 
L 91.460804 408.514329 
L 89.676428 408.320823 
L 87.892051 408.153428 
L 86.107675 408.009284 
L 84.323298 407.885731 
L 82.538922 407.780313 
L 80.754545 407.690778 
z
" style="fill:#cc3300;opacity:0.3;stroke:#cc3300;stroke-linejoin:miter;stroke-width:0.5;"/>
   </g>
   <g id="matplotlib.axis_1">
    <g id="xtick_1">
     <g id="line2d_1">
      <defs>
       <path d="M 0 0 
L 0 3.5 
" id="mcc275242e8" style="stroke:#000000;stroke-width:0.8;"/>
      </defs>
      <g>
       <use style="stroke:#000000;stroke-width:0.8;" x="97.479842" xlink:href="#mcc275242e8" y="441"/>
      </g>
     </g>
     <g id="text_1">
      <!-- −20 -->
      <defs>
       <path d="M 10.59375 35.5 
L 73.1875 35.5 
L 73.1875 27.203125 
L 10.59375 27.203125 
z
" id="DejaVuSans-2212"/>
       <path d="M 19.1875 8.296875 
L 53.609375 8.296875 
L 53.609375 0 
L 7.328125 0 
L 7.328125 8.296875 
Q 12.9375 14.109375 22.625 23.890625 
Q 32.328125 33.6875 34.8125 36.53125 
Q 39.546875 41.84375 41.421875 45.53125 
Q 43.3125 49.21875 43.3125 52.78125 
Q 43.3125 58.59375 39.234375 62.25 
Q 35.15625 65.921875 28.609375 65.921875 
Q 23.96875 65.921875 18.8125 64.3125 
Q 13.671875 62.703125 7.8125 59.421875 
L 7.8125 69.390625 
Q 13.765625 71.78125 18.9375 73 
Q 24.125 74.21875 28.421875 74.21875 
Q 39.75 74.21875 46.484375 68.546875 
Q 53.21875 62.890625 53.21875 53.421875 
Q 53.21875 48.921875 51.53125 44.890625 
Q 49.859375 40.875 45.40625 35.40625 
Q 44.1875 33.984375 37.640625 27.21875 
Q 31.109375 20.453125 19.1875 8.296875 
z
" id="DejaVuSans-32"/>
       <path d="M 31.78125 66.40625 
Q 24.171875 66.40625 20.328125 58.90625 
Q 16.5 51.421875 16.5 36.375 
Q 16.5 21.390625 20.328125 13.890625 
Q 24.171875 6.390625 31.78125 6.390625 
Q 39.453125 6.390625 43.28125 13.890625 
Q 47.125 21.390625 47.125 36.375 
Q 47.125 51.421875 43.28125 58.90625 
Q 39.453125 66.40625 31.78125 66.40625 
z
M 31.78125 74.21875 
Q 44.046875 74.21875 50.515625 64.515625 
Q 56.984375 54.828125 56.984375 36.375 
Q 56.984375 17.96875 50.515625 8.265625 
Q 44.046875 -1.421875 31.78125 -1.421875 
Q 19.53125 -1.421875 13.0625 8.265625 
Q 6.59375 17.96875 6.59375 36.375 
Q 6.59375 54.828125 13.0625 64.515625 
Q 19.53125 74.21875 31.78125 74.21875 
z
" id="DejaVuSans-30"/>
      </defs>
      <g transform="translate(86.927498 455.598437)scale(0.1 -0.1)">
       <use xlink:href="#DejaVuSans-2212"/>
       <use x="83.789062" xlink:href="#DejaVuSans-32"/>
       <use x="147.412109" xlink:href="#DejaVuSans-30"/>
      </g>
     </g>
    </g>
    <g id="xtick_2">
     <g id="line2d_2">
      <g>
       <use style="stroke:#000000;stroke-width:0.8;" x="161.807905" xlink:href="#mcc275242e8" y="441"/>
      </g>
     </g>
     <g id="text_2">
      <!-- 0 -->
      <g transform="translate(158.626655 455.598437)scale(0.1 -0.1)">
       <use xlink:href="#DejaVuSans-30"/>
      </g>
     </g>
    </g>
    <g id="xtick_3">
     <g id="line2d_3">
      <g>
       <use style="stroke:#000000;stroke-width:0.8;" x="226.135968" xlink:href="#mcc275242e8" y="441"/>
      </g>
     </g>
     <g id="text_3">
      <!-- 20 -->
      <g transform="translate(219.773468 455.598437)scale(0.1 -0.1)">
       <use xlink:href="#DejaVuSans-32"/>
       <use x="63.623047" xlink:href="#DejaVuSans-30"/>
      </g>
     </g>
    </g>
    <g id="xtick_4">
     <g id="line2d_4">
      <g>
       <use style="stroke:#000000;stroke-width:0.8;" x="290.464032" xlink:href="#mcc275242e8" y="441"/>
      </g>
     </g>
     <g id="text_4">
      <!-- 40 -->
      <defs>
       <path d="M 37.796875 64.3125 
L 12.890625 25.390625 
L 37.796875 25.390625 
z
M 35.203125 72.90625 
L 47.609375 72.90625 
L 47.609375 25.390625 
L 58.015625 25.390625 
L 58.015625 17.1875 
L 47.609375 17.1875 
L 47.609375 0 
L 37.796875 0 
L 37.796875 17.1875 
L 4.890625 17.1875 
L 4.890625 26.703125 
z
" id="DejaVuSans-34"/>
      </defs>
      <g transform="translate(284.101532 455.598437)scale(0.1 -0.1)">
       <use xlink:href="#DejaVuSans-34"/>
       <use x="63.623047" xlink:href="#DejaVuSans-30"/>
      </g>
     </g>
    </g>
    <g id="xtick_5">
     <g id="line2d_5">
      <g>
       <use style="stroke:#000000;stroke-width:0.8;" x="354.792095" xlink:href="#mcc275242e8" y="441"/>
      </g>
     </g>
     <g id="text_5">
      <!-- 60 -->
      <defs>
       <path d="M 33.015625 40.375 
Q 26.375 40.375 22.484375 35.828125 
Q 18.609375 31.296875 18.609375 23.390625 
Q 18.609375 15.53125 22.484375 10.953125 
Q 26.375 6.390625 33.015625 6.390625 
Q 39.65625 6.390625 43.53125 10.953125 
Q 47.40625 15.53125 47.40625 23.390625 
Q 47.40625 31.296875 43.53125 35.828125 
Q 39.65625 40.375 33.015625 40.375 
z
M 52.59375 71.296875 
L 52.59375 62.3125 
Q 48.875 64.0625 45.09375 64.984375 
Q 41.3125 65.921875 37.59375 65.921875 
Q 27.828125 65.921875 22.671875 59.328125 
Q 17.53125 52.734375 16.796875 39.40625 
Q 19.671875 43.65625 24.015625 45.921875 
Q 28.375 48.1875 33.59375 48.1875 
Q 44.578125 48.1875 50.953125 41.515625 
Q 57.328125 34.859375 57.328125 23.390625 
Q 57.328125 12.15625 50.6875 5.359375 
Q 44.046875 -1.421875 33.015625 -1.421875 
Q 20.359375 -1.421875 13.671875 8.265625 
Q 6.984375 17.96875 6.984375 36.375 
Q 6.984375 53.65625 15.1875 63.9375 
Q 23.390625 74.21875 37.203125 74.21875 
Q 40.921875 74.21875 44.703125 73.484375 
Q 48.484375 72.75 52.59375 71.296875 
z
" id="DejaVuSans-36"/>
      </defs>
      <g transform="translate(348.429595 455.598437)scale(0.1 -0.1)">
       <use xlink:href="#DejaVuSans-36"/>
       <use x="63.623047" xlink:href="#DejaVuSans-30"/>
      </g>
     </g>
    </g>
    <g id="xtick_6">
     <g id="line2d_6">
      <g>
       <use style="stroke:#000000;stroke-width:0.8;" x="419.120158" xlink:href="#mcc275242e8" y="441"/>
      </g>
     </g>
     <g id="text_6">
      <!-- 80 -->
      <defs>
       <path d="M 31.78125 34.625 
Q 24.75 34.625 20.71875 30.859375 
Q 16.703125 27.09375 16.703125 20.515625 
Q 16.703125 13.921875 20.71875 10.15625 
Q 24.75 6.390625 31.78125 6.390625 
Q 38.8125 6.390625 42.859375 10.171875 
Q 46.921875 13.96875 46.921875 20.515625 
Q 46.921875 27.09375 42.890625 30.859375 
Q 38.875 34.625 31.78125 34.625 
z
M 21.921875 38.8125 
Q 15.578125 40.375 12.03125 44.71875 
Q 8.5 49.078125 8.5 55.328125 
Q 8.5 64.0625 14.71875 69.140625 
Q 20.953125 74.21875 31.78125 74.21875 
Q 42.671875 74.21875 48.875 69.140625 
Q 55.078125 64.0625 55.078125 55.328125 
Q 55.078125 49.078125 51.53125 44.71875 
Q 48 40.375 41.703125 38.8125 
Q 48.828125 37.15625 52.796875 32.3125 
Q 56.78125 27.484375 56.78125 20.515625 
Q 56.78125 9.90625 50.3125 4.234375 
Q 43.84375 -1.421875 31.78125 -1.421875 
Q 19.734375 -1.421875 13.25 4.234375 
Q 6.78125 9.90625 6.78125 20.515625 
Q 6.78125 27.484375 10.78125 32.3125 
Q 14.796875 37.15625 21.921875 38.8125 
z
M 18.3125 54.390625 
Q 18.3125 48.734375 21.84375 45.5625 
Q 25.390625 42.390625 31.78125 42.390625 
Q 38.140625 42.390625 41.71875 45.5625 
Q 45.3125 48.734375 45.3125 54.390625 
Q 45.3125 60.0625 41.71875 63.234375 
Q 38.140625 66.40625 31.78125 66.40625 
Q 25.390625 66.40625 21.84375 63.234375 
Q 18.3125 60.0625 18.3125 54.390625 
z
" id="DejaVuSans-38"/>
      </defs>
      <g transform="translate(412.757658 455.598437)scale(0.1 -0.1)">
       <use xlink:href="#DejaVuSans-38"/>
       <use x="63.623047" xlink:href="#DejaVuSans-30"/>
      </g>
     </g>
    </g>
    <g id="text_7">
     <!-- time -->
     <defs>
      <path d="M 18.3125 70.21875 
L 18.3125 54.6875 
L 36.8125 54.6875 
L 36.8125 47.703125 
L 18.3125 47.703125 
L 18.3125 18.015625 
Q 18.3125 11.328125 20.140625 9.421875 
Q 21.96875 7.515625 27.59375 7.515625 
L 36.8125 7.515625 
L 36.8125 0 
L 27.59375 0 
Q 17.1875 0 13.234375 3.875 
Q 9.28125 7.765625 9.28125 18.015625 
L 9.28125 47.703125 
L 2.6875 47.703125 
L 2.6875 54.6875 
L 9.28125 54.6875 
L 9.28125 70.21875 
z
" id="DejaVuSans-74"/>
      <path d="M 9.421875 54.6875 
L 18.40625 54.6875 
L 18.40625 0 
L 9.421875 0 
z
M 9.421875 75.984375 
L 18.40625 75.984375 
L 18.40625 64.59375 
L 9.421875 64.59375 
z
" id="DejaVuSans-69"/>
      <path d="M 52 44.1875 
Q 55.375 50.25 60.0625 53.125 
Q 64.75 56 71.09375 56 
Q 79.640625 56 84.28125 50.015625 
Q 88.921875 44.046875 88.921875 33.015625 
L 88.921875 0 
L 79.890625 0 
L 79.890625 32.71875 
Q 79.890625 40.578125 77.09375 44.375 
Q 74.3125 48.1875 68.609375 48.1875 
Q 61.625 48.1875 57.5625 43.546875 
Q 53.515625 38.921875 53.515625 30.90625 
L 53.515625 0 
L 44.484375 0 
L 44.484375 32.71875 
Q 44.484375 40.625 41.703125 44.40625 
Q 38.921875 48.1875 33.109375 48.1875 
Q 26.21875 48.1875 22.15625 43.53125 
Q 18.109375 38.875 18.109375 30.90625 
L 18.109375 0 
L 9.078125 0 
L 9.078125 54.6875 
L 18.109375 54.6875 
L 18.109375 46.1875 
Q 21.1875 51.21875 25.484375 53.609375 
Q 29.78125 56 35.6875 56 
Q 41.65625 56 45.828125 52.96875 
Q 50 49.953125 52 44.1875 
z
" id="DejaVuSans-6d"/>
      <path d="M 56.203125 29.59375 
L 56.203125 25.203125 
L 14.890625 25.203125 
Q 15.484375 15.921875 20.484375 11.0625 
Q 25.484375 6.203125 34.421875 6.203125 
Q 39.59375 6.203125 44.453125 7.46875 
Q 49.3125 8.734375 54.109375 11.28125 
L 54.109375 2.78125 
Q 49.265625 0.734375 44.1875 -0.34375 
Q 39.109375 -1.421875 33.890625 -1.421875 
Q 20.796875 -1.421875 13.15625 6.1875 
Q 5.515625 13.8125 5.515625 26.8125 
Q 5.515625 40.234375 12.765625 48.109375 
Q 20.015625 56 32.328125 56 
Q 43.359375 56 49.78125 48.890625 
Q 56.203125 41.796875 56.203125 29.59375 
z
M 47.21875 32.234375 
Q 47.125 39.59375 43.09375 43.984375 
Q 39.0625 48.390625 32.421875 48.390625 
Q 24.90625 48.390625 20.390625 44.140625 
Q 15.875 39.890625 15.1875 32.171875 
z
" id="DejaVuSans-65"/>
     </defs>
     <g transform="translate(235.707813 476.875)scale(0.2 -0.2)">
      <use xlink:href="#DejaVuSans-74"/>
      <use x="39.208984" xlink:href="#DejaVuSans-69"/>
      <use x="66.992188" xlink:href="#DejaVuSans-6d"/>
      <use x="164.404297" xlink:href="#DejaVuSans-65"/>
     </g>
    </g>
   </g>
   <g id="matplotlib.axis_2">
    <g id="ytick_1">
     <g id="line2d_7">
      <defs>
       <path d="M 0 0 
L -3.5 0 
" id="m1e2bf8d23f" style="stroke:#000000;stroke-width:0.8;"/>
      </defs>
      <g>
       <use style="stroke:#000000;stroke-width:0.8;" x="63" xlink:href="#m1e2bf8d23f" y="440.905141"/>
      </g>
     </g>
     <g id="text_8">
      <!-- −3 -->
      <defs>
       <path d="M 40.578125 39.3125 
Q 47.65625 37.796875 51.625 33 
Q 55.609375 28.21875 55.609375 21.1875 
Q 55.609375 10.40625 48.1875 4.484375 
Q 40.765625 -1.421875 27.09375 -1.421875 
Q 22.515625 -1.421875 17.65625 -0.515625 
Q 12.796875 0.390625 7.625 2.203125 
L 7.625 11.71875 
Q 11.71875 9.328125 16.59375 8.109375 
Q 21.484375 6.890625 26.8125 6.890625 
Q 36.078125 6.890625 40.9375 10.546875 
Q 45.796875 14.203125 45.796875 21.1875 
Q 45.796875 27.640625 41.28125 31.265625 
Q 36.765625 34.90625 28.71875 34.90625 
L 20.21875 34.90625 
L 20.21875 43.015625 
L 29.109375 43.015625 
Q 36.375 43.015625 40.234375 45.921875 
Q 44.09375 48.828125 44.09375 54.296875 
Q 44.09375 59.90625 40.109375 62.90625 
Q 36.140625 65.921875 28.71875 65.921875 
Q 24.65625 65.921875 20.015625 65.03125 
Q 15.375 64.15625 9.8125 62.3125 
L 9.8125 71.09375 
Q 15.4375 72.65625 20.34375 73.4375 
Q 25.25 74.21875 29.59375 74.21875 
Q 40.828125 74.21875 47.359375 69.109375 
Q 53.90625 64.015625 53.90625 55.328125 
Q 53.90625 49.265625 50.4375 45.09375 
Q 46.96875 40.921875 40.578125 39.3125 
z
" id="DejaVuSans-33"/>
      </defs>
      <g transform="translate(41.257812 444.70436)scale(0.1 -0.1)">
       <use xlink:href="#DejaVuSans-2212"/>
       <use x="83.789062" xlink:href="#DejaVuSans-33"/>
      </g>
     </g>
    </g>
    <g id="ytick_2">
     <g id="line2d_8">
      <g>
       <use style="stroke:#000000;stroke-width:0.8;" x="63" xlink:href="#m1e2bf8d23f" y="375.34912"/>
      </g>
     </g>
     <g id="text_9">
      <!-- −2 -->
      <g transform="translate(41.257812 379.148339)scale(0.1 -0.1)">
       <use xlink:href="#DejaVuSans-2212"/>
       <use x="83.789062" xlink:href="#DejaVuSans-32"/>
      </g>
     </g>
    </g>
    <g id="ytick_3">
     <g id="line2d_9">
      <g>
       <use style="stroke:#000000;stroke-width:0.8;" x="63" xlink:href="#m1e2bf8d23f" y="309.793099"/>
      </g>
     </g>
     <g id="text_10">
      <!-- −1 -->
      <defs>
       <path d="M 12.40625 8.296875 
L 28.515625 8.296875 
L 28.515625 63.921875 
L 10.984375 60.40625 
L 10.984375 69.390625 
L 28.421875 72.90625 
L 38.28125 72.90625 
L 38.28125 8.296875 
L 54.390625 8.296875 
L 54.390625 0 
L 12.40625 0 
z
" id="DejaVuSans-31"/>
      </defs>
      <g transform="translate(41.257812 313.592318)scale(0.1 -0.1)">
       <use xlink:href="#DejaVuSans-2212"/>
       <use x="83.789062" xlink:href="#DejaVuSans-31"/>
      </g>
     </g>
    </g>
    <g id="ytick_4">
     <g id="line2d_10">
      <g>
       <use style="stroke:#000000;stroke-width:0.8;" x="63" xlink:href="#m1e2bf8d23f" y="244.237078"/>
      </g>
     </g>
     <g id="text_11">
      <!-- 0 -->
      <g transform="translate(49.6375 248.036297)scale(0.1 -0.1)">
       <use xlink:href="#DejaVuSans-30"/>
      </g>
     </g>
    </g>
    <g id="ytick_5">
     <g id="line2d_11">
      <g>
       <use style="stroke:#000000;stroke-width:0.8;" x="63" xlink:href="#m1e2bf8d23f" y="178.681057"/>
      </g>
     </g>
     <g id="text_12">
      <!-- 1 -->
      <g transform="translate(49.6375 182.480276)scale(0.1 -0.1)">
       <use xlink:href="#DejaVuSans-31"/>
      </g>
     </g>
    </g>
    <g id="ytick_6">
     <g id="line2d_12">
      <g>
       <use style="stroke:#000000;stroke-width:0.8;" x="63" xlink:href="#m1e2bf8d23f" y="113.125037"/>
      </g>
     </g>
     <g id="text_13">
      <!-- 2 -->
      <g transform="translate(49.6375 116.924255)scale(0.1 -0.1)">
       <use xlink:href="#DejaVuSans-32"/>
      </g>
     </g>
    </g>
    <g id="text_14">
     <!-- acceleration -->
     <defs>
      <path d="M 34.28125 27.484375 
Q 23.390625 27.484375 19.1875 25 
Q 14.984375 22.515625 14.984375 16.5 
Q 14.984375 11.71875 18.140625 8.90625 
Q 21.296875 6.109375 26.703125 6.109375 
Q 34.1875 6.109375 38.703125 11.40625 
Q 43.21875 16.703125 43.21875 25.484375 
L 43.21875 27.484375 
z
M 52.203125 31.203125 
L 52.203125 0 
L 43.21875 0 
L 43.21875 8.296875 
Q 40.140625 3.328125 35.546875 0.953125 
Q 30.953125 -1.421875 24.3125 -1.421875 
Q 15.921875 -1.421875 10.953125 3.296875 
Q 6 8.015625 6 15.921875 
Q 6 25.140625 12.171875 29.828125 
Q 18.359375 34.515625 30.609375 34.515625 
L 43.21875 34.515625 
L 43.21875 35.40625 
Q 43.21875 41.609375 39.140625 45 
Q 35.0625 48.390625 27.6875 48.390625 
Q 23 48.390625 18.546875 47.265625 
Q 14.109375 46.140625 10.015625 43.890625 
L 10.015625 52.203125 
Q 14.9375 54.109375 19.578125 55.046875 
Q 24.21875 56 28.609375 56 
Q 40.484375 56 46.34375 49.84375 
Q 52.203125 43.703125 52.203125 31.203125 
z
" id="DejaVuSans-61"/>
      <path d="M 48.78125 52.59375 
L 48.78125 44.1875 
Q 44.96875 46.296875 41.140625 47.34375 
Q 37.3125 48.390625 33.40625 48.390625 
Q 24.65625 48.390625 19.8125 42.84375 
Q 14.984375 37.3125 14.984375 27.296875 
Q 14.984375 17.28125 19.8125 11.734375 
Q 24.65625 6.203125 33.40625 6.203125 
Q 37.3125 6.203125 41.140625 7.25 
Q 44.96875 8.296875 48.78125 10.40625 
L 48.78125 2.09375 
Q 45.015625 0.34375 40.984375 -0.53125 
Q 36.96875 -1.421875 32.421875 -1.421875 
Q 20.0625 -1.421875 12.78125 6.34375 
Q 5.515625 14.109375 5.515625 27.296875 
Q 5.515625 40.671875 12.859375 48.328125 
Q 20.21875 56 33.015625 56 
Q 37.15625 56 41.109375 55.140625 
Q 45.0625 54.296875 48.78125 52.59375 
z
" id="DejaVuSans-63"/>
      <path d="M 9.421875 75.984375 
L 18.40625 75.984375 
L 18.40625 0 
L 9.421875 0 
z
" id="DejaVuSans-6c"/>
      <path d="M 41.109375 46.296875 
Q 39.59375 47.171875 37.8125 47.578125 
Q 36.03125 48 33.890625 48 
Q 26.265625 48 22.1875 43.046875 
Q 18.109375 38.09375 18.109375 28.8125 
L 18.109375 0 
L 9.078125 0 
L 9.078125 54.6875 
L 18.109375 54.6875 
L 18.109375 46.1875 
Q 20.953125 51.171875 25.484375 53.578125 
Q 30.03125 56 36.53125 56 
Q 37.453125 56 38.578125 55.875 
Q 39.703125 55.765625 41.0625 55.515625 
z
" id="DejaVuSans-72"/>
      <path d="M 30.609375 48.390625 
Q 23.390625 48.390625 19.1875 42.75 
Q 14.984375 37.109375 14.984375 27.296875 
Q 14.984375 17.484375 19.15625 11.84375 
Q 23.34375 6.203125 30.609375 6.203125 
Q 37.796875 6.203125 41.984375 11.859375 
Q 46.1875 17.53125 46.1875 27.296875 
Q 46.1875 37.015625 41.984375 42.703125 
Q 37.796875 48.390625 30.609375 48.390625 
z
M 30.609375 56 
Q 42.328125 56 49.015625 48.375 
Q 55.71875 40.765625 55.71875 27.296875 
Q 55.71875 13.875 49.015625 6.21875 
Q 42.328125 -1.421875 30.609375 -1.421875 
Q 18.84375 -1.421875 12.171875 6.21875 
Q 5.515625 13.875 5.515625 27.296875 
Q 5.515625 40.765625 12.171875 48.375 
Q 18.84375 56 30.609375 56 
z
" id="DejaVuSans-6f"/>
      <path d="M 54.890625 33.015625 
L 54.890625 0 
L 45.90625 0 
L 45.90625 32.71875 
Q 45.90625 40.484375 42.875 44.328125 
Q 39.84375 48.1875 33.796875 48.1875 
Q 26.515625 48.1875 22.3125 43.546875 
Q 18.109375 38.921875 18.109375 30.90625 
L 18.109375 0 
L 9.078125 0 
L 9.078125 54.6875 
L 18.109375 54.6875 
L 18.109375 46.1875 
Q 21.34375 51.125 25.703125 53.5625 
Q 30.078125 56 35.796875 56 
Q 45.21875 56 50.046875 50.171875 
Q 54.890625 44.34375 54.890625 33.015625 
z
" id="DejaVuSans-6e"/>
     </defs>
     <g transform="translate(33.098437 312.343125)rotate(-90)scale(0.2 -0.2)">
      <use xlink:href="#DejaVuSans-61"/>
      <use x="61.279297" xlink:href="#DejaVuSans-63"/>
      <use x="116.259766" xlink:href="#DejaVuSans-63"/>
      <use x="171.240234" xlink:href="#DejaVuSans-65"/>
      <use x="232.763672" xlink:href="#DejaVuSans-6c"/>
      <use x="260.546875" xlink:href="#DejaVuSans-65"/>
      <use x="322.070312" xlink:href="#DejaVuSans-72"/>
      <use x="363.183594" xlink:href="#DejaVuSans-61"/>
      <use x="424.462891" xlink:href="#DejaVuSans-74"/>
      <use x="463.671875" xlink:href="#DejaVuSans-69"/>
      <use x="491.455078" xlink:href="#DejaVuSans-6f"/>
      <use x="552.636719" xlink:href="#DejaVuSans-6e"/>
     </g>
    </g>
   </g>
   <g id="line2d_13">
    <defs>
     <path d="M 0 2.5 
C 0.663008 2.5 1.29895 2.236584 1.767767 1.767767 
C 2.236584 1.29895 2.5 0.663008 2.5 0 
C 2.5 -0.663008 2.236584 -1.29895 1.767767 -1.767767 
C 1.29895 -2.236584 0.663008 -2.5 0 -2.5 
C -0.663008 -2.5 -1.29895 -2.236584 -1.767767 -1.767767 
C -2.236584 -1.29895 -2.5 -0.663008 -2.5 0 
C -2.5 0.663008 -2.236584 1.29895 -1.767767 1.767767 
C -1.29895 2.236584 -0.663008 2.5 0 2.5 
z
" id="m0437ea71d5" style="stroke:#ff0000;"/>
    </defs>
    <g clip-path="url(#pe40a16385d)">
     <use style="fill:#ff0000;stroke:#ff0000;" x="275.025296" xlink:href="#m0437ea71d5" y="236.701084"/>
     <use style="fill:#ff0000;stroke:#ff0000;" x="250.580632" xlink:href="#m0437ea71d5" y="210.643204"/>
     <use style="fill:#ff0000;stroke:#ff0000;" x="276.311858" xlink:href="#m0437ea71d5" y="170.514068"/>
     <use style="fill:#ff0000;stroke:#ff0000;" x="252.510474" xlink:href="#m0437ea71d5" y="200.220052"/>
     <use style="fill:#ff0000;stroke:#ff0000;" x="347.072727" xlink:href="#m0437ea71d5" y="201.913814"/>
     <use style="fill:#ff0000;stroke:#ff0000;" x="246.720949" xlink:href="#m0437ea71d5" y="301.324627"/>
     <use style="fill:#ff0000;stroke:#ff0000;" x="311.692292" xlink:href="#m0437ea71d5" y="201.913814"/>
     <use style="fill:#ff0000;stroke:#ff0000;" x="338.710079" xlink:href="#m0437ea71d5" y="219.372594"/>
     <use style="fill:#ff0000;stroke:#ff0000;" x="215.200198" xlink:href="#m0437ea71d5" y="292.725526"/>
     <use style="fill:#ff0000;stroke:#ff0000;" x="188.182411" xlink:href="#m0437ea71d5" y="219.372594"/>
     <use style="fill:#ff0000;stroke:#ff0000;" x="267.305929" xlink:href="#m0437ea71d5" y="154.749051"/>
     <use style="fill:#ff0000;stroke:#ff0000;" x="223.562846" xlink:href="#m0437ea71d5" y="376.241032"/>
     <use style="fill:#ff0000;stroke:#ff0000;" x="208.767391" xlink:href="#m0437ea71d5" y="233.18327"/>
     <use style="fill:#ff0000;stroke:#ff0000;" x="299.46996" xlink:href="#m0437ea71d5" y="215.85478"/>
     <use style="fill:#ff0000;stroke:#ff0000;" x="192.685375" xlink:href="#m0437ea71d5" y="219.372594"/>
     <use style="fill:#ff0000;stroke:#ff0000;" x="324.557905" xlink:href="#m0437ea71d5" y="215.85478"/>
     <use style="fill:#ff0000;stroke:#ff0000;" x="169.527273" xlink:href="#m0437ea71d5" y="215.85478"/>
     <use style="fill:#ff0000;stroke:#ff0000;" x="273.738735" xlink:href="#m0437ea71d5" y="118.137729"/>
     <use style="fill:#ff0000;stroke:#ff0000;" x="269.235771" xlink:href="#m0437ea71d5" y="195.008476"/>
     <use style="fill:#ff0000;stroke:#ff0000;" x="181.749605" xlink:href="#m0437ea71d5" y="219.372594"/>
     <use style="fill:#ff0000;stroke:#ff0000;" x="272.452174" xlink:href="#m0437ea71d5" y="214.161018"/>
     <use style="fill:#ff0000;stroke:#ff0000;" x="256.370158" xlink:href="#m0437ea71d5" y="238.525136"/>
     <use style="fill:#ff0000;stroke:#ff0000;" x="244.147826" xlink:href="#m0437ea71d5" y="250.772339"/>
     <use style="fill:#ff0000;stroke:#ff0000;" x="213.270356" xlink:href="#m0437ea71d5" y="271.748933"/>
     <use style="fill:#ff0000;stroke:#ff0000;" x="206.194269" xlink:href="#m0437ea71d5" y="215.85478"/>
     <use style="fill:#ff0000;stroke:#ff0000;" x="211.983794" xlink:href="#m0437ea71d5" y="268.231119"/>
     <use style="fill:#ff0000;stroke:#ff0000;" x="226.779249" xlink:href="#m0437ea71d5" y="376.241032"/>
     <use style="fill:#ff0000;stroke:#ff0000;" x="304.616206" xlink:href="#m0437ea71d5" y="215.85478"/>
     <use style="fill:#ff0000;stroke:#ff0000;" x="173.386957" xlink:href="#m0437ea71d5" y="215.85478"/>
     <use style="fill:#ff0000;stroke:#ff0000;" x="229.995652" xlink:href="#m0437ea71d5" y="390.442577"/>
     <use style="fill:#ff0000;stroke:#ff0000;" x="190.112253" xlink:href="#m0437ea71d5" y="217.548542"/>
     <use style="fill:#ff0000;stroke:#ff0000;" x="239.644862" xlink:href="#m0437ea71d5" y="339.76"/>
     <use style="fill:#ff0000;stroke:#ff0000;" x="306.546047" xlink:href="#m0437ea71d5" y="201.913814"/>
     <use style="fill:#ff0000;stroke:#ff0000;" x="270.522332" xlink:href="#m0437ea71d5" y="156.442813"/>
     <use style="fill:#ff0000;stroke:#ff0000;" x="186.89585" xlink:href="#m0437ea71d5" y="219.372594"/>
     <use style="fill:#ff0000;stroke:#ff0000;" x="284.031225" xlink:href="#m0437ea71d5" y="154.749051"/>
     <use style="fill:#ff0000;stroke:#ff0000;" x="170.170553" xlink:href="#m0437ea71d5" y="217.548542"/>
     <use style="fill:#ff0000;stroke:#ff0000;" x="295.610277" xlink:href="#m0437ea71d5" y="175.725644"/>
     <use style="fill:#ff0000;stroke:#ff0000;" x="227.42253" xlink:href="#m0437ea71d5" y="369.465983"/>
     <use style="fill:#ff0000;stroke:#ff0000;" x="236.428458" xlink:href="#m0437ea71d5" y="376.241032"/>
     <use style="fill:#ff0000;stroke:#ff0000;" x="245.434387" xlink:href="#m0437ea71d5" y="222.890407"/>
     <use style="fill:#ff0000;stroke:#ff0000;" x="290.464032" xlink:href="#m0437ea71d5" y="243.867001"/>
     <use style="fill:#ff0000;stroke:#ff0000;" x="253.153755" xlink:href="#m0437ea71d5" y="243.867001"/>
     <use style="fill:#ff0000;stroke:#ff0000;" x="339.99664" xlink:href="#m0437ea71d5" y="219.372594"/>
     <use style="fill:#ff0000;stroke:#ff0000;" x="211.340514" xlink:href="#m0437ea71d5" y="245.560763"/>
     <use style="fill:#ff0000;stroke:#ff0000;" x="332.920553" xlink:href="#m0437ea71d5" y="235.007322"/>
     <use style="fill:#ff0000;stroke:#ff0000;" x="198.474901" xlink:href="#m0437ea71d5" y="215.85478"/>
     <use style="fill:#ff0000;stroke:#ff0000;" x="318.768379" xlink:href="#m0437ea71d5" y="233.18327"/>
     <use style="fill:#ff0000;stroke:#ff0000;" x="243.504545" xlink:href="#m0437ea71d5" y="310.054017"/>
     <use style="fill:#ff0000;stroke:#ff0000;" x="205.550988" xlink:href="#m0437ea71d5" y="219.372594"/>
     <use style="fill:#ff0000;stroke:#ff0000;" x="287.890909" xlink:href="#m0437ea71d5" y="208.819152"/>
     <use style="fill:#ff0000;stroke:#ff0000;" x="291.750593" xlink:href="#m0437ea71d5" y="233.18327"/>
     <use style="fill:#ff0000;stroke:#ff0000;" x="215.843478" xlink:href="#m0437ea71d5" y="308.360254"/>
     <use style="fill:#ff0000;stroke:#ff0000;" x="174.673518" xlink:href="#m0437ea71d5" y="219.372594"/>
     <use style="fill:#ff0000;stroke:#ff0000;" x="300.113241" xlink:href="#m0437ea71d5" y="196.702238"/>
     <use style="fill:#ff0000;stroke:#ff0000;" x="212.627075" xlink:href="#m0437ea71d5" y="243.867001"/>
     <use style="fill:#ff0000;stroke:#ff0000;" x="240.931423" xlink:href="#m0437ea71d5" y="285.559609"/>
     <use style="fill:#ff0000;stroke:#ff0000;" x="214.556917" xlink:href="#m0437ea71d5" y="222.890407"/>
     <use style="fill:#ff0000;stroke:#ff0000;" x="253.797036" xlink:href="#m0437ea71d5" y="154.749051"/>
     <use style="fill:#ff0000;stroke:#ff0000;" x="329.06087" xlink:href="#m0437ea71d5" y="201.913814"/>
     <use style="fill:#ff0000;stroke:#ff0000;" x="258.943281" xlink:href="#m0437ea71d5" y="168.690017"/>
     <use style="fill:#ff0000;stroke:#ff0000;" x="221.633004" xlink:href="#m0437ea71d5" y="362.430356"/>
     <use style="fill:#ff0000;stroke:#ff0000;" x="194.615217" xlink:href="#m0437ea71d5" y="222.890407"/>
     <use style="fill:#ff0000;stroke:#ff0000;" x="264.732806" xlink:href="#m0437ea71d5" y="144.325899"/>
     <use style="fill:#ff0000;stroke:#ff0000;" x="183.036166" xlink:href="#m0437ea71d5" y="219.372594"/>
     <use style="fill:#ff0000;stroke:#ff0000;" x="218.416601" xlink:href="#m0437ea71d5" y="264.713305"/>
     <use style="fill:#ff0000;stroke:#ff0000;" x="224.849407" xlink:href="#m0437ea71d5" y="381.582898"/>
     <use style="fill:#ff0000;stroke:#ff0000;" x="239.001581" xlink:href="#m0437ea71d5" y="362.430356"/>
     <use style="fill:#ff0000;stroke:#ff0000;" x="213.913636" xlink:href="#m0437ea71d5" y="243.867001"/>
     <use style="fill:#ff0000;stroke:#ff0000;" x="298.183399" xlink:href="#m0437ea71d5" y="177.549696"/>
     <use style="fill:#ff0000;stroke:#ff0000;" x="232.568775" xlink:href="#m0437ea71d5" y="376.241032"/>
     <use style="fill:#ff0000;stroke:#ff0000;" x="237.071739" xlink:href="#m0437ea71d5" y="383.27666"/>
     <use style="fill:#ff0000;stroke:#ff0000;" x="303.329644" xlink:href="#m0437ea71d5" y="217.548542"/>
     <use style="fill:#ff0000;stroke:#ff0000;" x="183.679447" xlink:href="#m0437ea71d5" y="217.548542"/>
     <use style="fill:#ff0000;stroke:#ff0000;" x="197.18834" xlink:href="#m0437ea71d5" y="222.890407"/>
     <use style="fill:#ff0000;stroke:#ff0000;" x="195.901779" xlink:href="#m0437ea71d5" y="219.372594"/>
     <use style="fill:#ff0000;stroke:#ff0000;" x="246.077668" xlink:href="#m0437ea71d5" y="355.394728"/>
     <use style="fill:#ff0000;stroke:#ff0000;" x="288.53419" xlink:href="#m0437ea71d5" y="217.548542"/>
     <use style="fill:#ff0000;stroke:#ff0000;" x="262.159684" xlink:href="#m0437ea71d5" y="205.301338"/>
     <use style="fill:#ff0000;stroke:#ff0000;" x="224.206126" xlink:href="#m0437ea71d5" y="327.382507"/>
     <use style="fill:#ff0000;stroke:#ff0000;" x="230.638933" xlink:href="#m0437ea71d5" y="348.619679"/>
     <use style="fill:#ff0000;stroke:#ff0000;" x="249.294071" xlink:href="#m0437ea71d5" y="275.266747"/>
     <use style="fill:#ff0000;stroke:#ff0000;" x="315.551976" xlink:href="#m0437ea71d5" y="250.772339"/>
     <use style="fill:#ff0000;stroke:#ff0000;" x="275.668577" xlink:href="#m0437ea71d5" y="125.173357"/>
     <use style="fill:#ff0000;stroke:#ff0000;" x="204.264427" xlink:href="#m0437ea71d5" y="219.372594"/>
     <use style="fill:#ff0000;stroke:#ff0000;" x="261.516403" xlink:href="#m0437ea71d5" y="118.137729"/>
     <use style="fill:#ff0000;stroke:#ff0000;" x="278.2417" xlink:href="#m0437ea71d5" y="264.713305"/>
     <use style="fill:#ff0000;stroke:#ff0000;" x="209.410672" xlink:href="#m0437ea71d5" y="219.372594"/>
     <use style="fill:#ff0000;stroke:#ff0000;" x="172.100395" xlink:href="#m0437ea71d5" y="219.372594"/>
     <use style="fill:#ff0000;stroke:#ff0000;" x="242.217984" xlink:href="#m0437ea71d5" y="299.761154"/>
     <use style="fill:#ff0000;stroke:#ff0000;" x="231.925494" xlink:href="#m0437ea71d5" y="357.08849"/>
     <use style="fill:#ff0000;stroke:#ff0000;" x="219.059881" xlink:href="#m0437ea71d5" y="344.971576"/>
     <use style="fill:#ff0000;stroke:#ff0000;" x="248.650791" xlink:href="#m0437ea71d5" y="236.701084"/>
     <use style="fill:#ff0000;stroke:#ff0000;" x="193.971937" xlink:href="#m0437ea71d5" y="219.372594"/>
    </g>
   </g>
   <g id="line2d_14">
    <path clip-path="url(#pe40a16385d)" d="M 80.754545 249.623738 
L 87.892051 250.051073 
L 93.24518 250.591779 
L 98.59831 251.409332 
L 102.167063 252.15751 
L 105.735815 253.110204 
L 109.304568 254.311171 
L 112.873321 255.813532 
L 116.442074 257.682263 
L 120.010827 259.995421 
L 121.795203 261.345961 
L 123.57958 262.840609 
L 125.363956 264.489236 
L 127.148333 266.298949 
L 130.717085 270.400187 
L 134.285838 275.017617 
L 137.854591 279.658605 
L 139.638968 281.655994 
L 141.423344 283.148591 
L 143.20772 283.848812 
L 144.992097 283.439042 
L 146.776473 281.62321 
L 148.56085 278.201098 
L 150.345226 273.147095 
L 152.129603 266.663097 
L 155.698355 251.278283 
L 157.482732 243.604251 
L 159.267108 236.715326 
L 161.051485 230.992962 
L 162.835861 226.592414 
L 164.620238 223.459437 
L 166.404614 221.395791 
L 168.18899 220.141539 
L 169.973367 219.443537 
L 171.757743 219.094976 
L 175.326496 218.90427 
L 200.307766 219.029718 
L 202.092143 219.463524 
L 203.876519 220.502161 
L 205.660895 222.613835 
L 207.445272 226.422036 
L 209.229648 232.626225 
L 211.014025 241.838157 
L 212.798401 254.361905 
L 214.582778 269.992294 
L 218.15153 306.845919 
L 219.935907 325.16912 
L 221.720283 341.366739 
L 223.50466 354.248488 
L 225.289036 363.126112 
L 227.073413 367.834916 
L 228.857789 368.643531 
L 230.642165 366.105649 
L 232.426542 360.903919 
L 234.210918 353.719225 
L 235.995295 345.140087 
L 237.779671 335.613201 
L 241.348424 314.727958 
L 244.917177 291.776701 
L 246.701553 279.345974 
L 248.48593 266.123437 
L 252.054683 237.094987 
L 259.192188 174.594823 
L 260.976565 161.259394 
L 262.760941 150.41983 
L 264.545317 142.775012 
L 266.329694 138.752537 
L 268.11407 138.406709 
L 269.898447 141.392991 
L 271.682823 147.031949 
L 273.4672 154.44398 
L 278.820329 178.759616 
L 280.604705 185.527359 
L 282.389082 191.136086 
L 284.173458 195.554839 
L 285.957835 198.861879 
L 287.742211 201.203227 
L 289.526587 202.764525 
L 291.310964 203.754813 
L 296.664093 205.570195 
L 298.44847 206.556194 
L 300.232846 208.083421 
L 302.017222 210.311359 
L 303.801599 213.33783 
L 305.585975 217.175045 
L 307.370352 221.724958 
L 312.723481 236.729904 
L 314.507857 240.672795 
L 316.292234 243.268696 
L 318.07661 244.187345 
L 319.860987 243.332193 
L 321.645363 240.872025 
L 323.42974 237.202446 
L 328.782869 224.137682 
L 330.567245 220.516669 
L 332.351622 217.624231 
L 334.135998 215.481616 
L 335.920375 214.041552 
L 337.704751 213.238479 
L 339.489127 213.026512 
L 341.273504 213.399416 
L 343.05788 214.389164 
L 344.842257 216.039446 
L 346.626633 218.351631 
L 348.41101 221.208584 
L 350.195386 224.2998 
L 351.979762 227.094015 
L 353.764139 228.912457 
L 355.548515 229.121018 
L 357.332892 227.382588 
L 359.117268 223.842461 
L 364.470397 209.874831 
L 366.254774 206.922173 
L 368.03915 205.61762 
L 369.823527 205.925007 
L 371.607903 207.571024 
L 373.39228 210.173121 
L 375.176656 213.34401 
L 380.529785 223.403323 
L 382.314162 226.387375 
L 384.098538 229.073475 
L 385.882915 231.455324 
L 387.667291 233.54744 
L 389.451667 235.375378 
L 391.236044 236.969192 
L 393.02042 238.359387 
L 394.804797 239.574618 
L 398.37355 241.579498 
L 401.942302 243.148951 
L 405.511055 244.399211 
L 409.079808 245.408773 
L 412.648561 246.230011 
L 418.00169 247.183835 
L 423.35482 247.87421 
L 428.707949 248.360296 
L 435.845455 248.773388 
L 435.845455 248.773388 
" style="fill:none;stroke:#3300ff;stroke-linecap:square;stroke-width:2;"/>
   </g>
   <g id="line2d_15">
    <path clip-path="url(#pe40a16385d)" d="M 80.754545 91.556698 
L 87.892051 91.948719 
L 93.24518 92.446567 
L 98.59831 93.205845 
L 102.167063 93.910108 
L 105.735815 94.8234 
L 109.304568 96.006576 
L 112.873321 97.546117 
L 114.657698 98.486971 
L 116.442074 99.568473 
L 118.22645 100.815942 
L 120.010827 102.25993 
L 121.795203 103.936947 
L 123.57958 105.889988 
L 125.363956 108.16856 
L 127.148333 110.827777 
L 128.932709 113.925749 
L 130.717085 117.518162 
L 132.501462 121.648451 
L 134.285838 126.331597 
L 136.070215 131.529772 
L 141.423344 148.357322 
L 143.20772 153.111622 
L 144.992097 156.60355 
L 146.776473 158.516061 
L 148.56085 158.979044 
L 150.345226 158.690304 
L 152.129603 158.761671 
L 153.913979 160.311088 
L 155.698355 164.009864 
L 157.482732 169.826918 
L 162.835861 191.754187 
L 164.620238 197.432888 
L 166.404614 201.471116 
L 168.18899 203.981056 
L 169.973367 205.352447 
L 171.757743 206.033552 
L 173.54212 206.352453 
L 177.110873 206.512731 
L 182.464002 206.291365 
L 186.032755 206.156645 
L 189.601508 206.219761 
L 196.739013 206.551091 
L 198.52339 206.449418 
L 200.307766 206.128284 
L 202.092143 205.394867 
L 203.876519 203.960719 
L 205.660895 201.655506 
L 207.445272 198.765293 
L 209.229648 196.172222 
L 211.014025 195.236162 
L 212.798401 197.51722 
L 214.582778 204.380356 
L 216.367154 216.568012 
L 218.15153 233.895196 
L 219.935907 255.191486 
L 223.50466 301.28806 
L 225.289036 320.644252 
L 227.073413 332.823328 
L 228.857789 334.065329 
L 230.642165 324.846336 
L 232.426542 309.518481 
L 235.995295 272.757805 
L 239.564048 235.896671 
L 243.1328 201.297134 
L 248.48593 152.442958 
L 252.054683 122.075572 
L 253.839059 108.501629 
L 255.623435 96.861172 
L 257.407812 87.94863 
L 259.192188 82.514466 
L 260.976565 81.03442 
L 262.760941 83.38256 
L 266.329694 93.404005 
L 268.11407 95.276333 
L 269.898447 93.80056 
L 271.682823 91.887532 
L 273.4672 91.794912 
L 275.251576 94.102465 
L 277.035952 98.395586 
L 278.820329 103.880298 
L 282.389082 115.311413 
L 284.173458 120.155075 
L 285.957835 124.047308 
L 287.742211 126.947952 
L 289.526587 128.955274 
L 291.310964 130.264103 
L 293.09534 131.131026 
L 294.879717 131.847298 
L 296.664093 132.71911 
L 298.44847 134.05477 
L 300.232846 136.157405 
L 302.017222 139.319441 
L 303.801599 143.811987 
L 305.585975 149.859956 
L 307.370352 157.594203 
L 309.154728 166.9767 
L 312.723481 189.100358 
L 314.507857 200.03166 
L 316.292234 208.874709 
L 318.07661 213.782112 
L 319.860987 213.709032 
L 321.645363 209.549655 
L 325.214116 197.160386 
L 326.998492 191.839094 
L 328.782869 187.853208 
L 330.567245 185.154908 
L 332.351622 183.46733 
L 334.135998 182.462179 
L 335.920375 181.871639 
L 337.704751 181.524616 
L 341.273504 181.232362 
L 343.05788 181.225934 
L 344.842257 181.356801 
L 346.626633 181.767619 
L 348.41101 182.664235 
L 351.979762 185.618878 
L 353.764139 185.626717 
L 355.548515 181.859049 
L 357.332892 173.076186 
L 359.117268 160.475131 
L 360.901645 146.67695 
L 362.686021 133.896258 
L 364.470397 123.047212 
L 366.254774 113.920385 
L 368.03915 105.930379 
L 369.823527 98.754725 
L 371.607903 92.457226 
L 373.39228 87.253439 
L 375.176656 83.279448 
L 376.961032 80.51466 
L 378.745409 78.814146 
L 380.529785 77.972468 
L 382.314162 77.776364 
L 384.098538 78.035512 
L 385.882915 78.595066 
L 389.451667 80.175095 
L 396.589173 83.564246 
L 400.157926 85.004546 
L 403.726679 86.225127 
L 407.295432 87.241391 
L 410.864185 88.078939 
L 416.217314 89.056667 
L 421.570443 89.766563 
L 426.923572 90.269401 
L 434.061078 90.701818 
L 435.845455 90.777526 
L 435.845455 90.777526 
" style="fill:none;stroke:#3300ff;stroke-linecap:square;stroke-width:0.2;"/>
   </g>
   <g id="line2d_16">
    <path clip-path="url(#pe40a16385d)" d="M 80.754545 407.690778 
L 87.892051 408.153428 
L 93.24518 408.73699 
L 98.59831 409.612819 
L 102.167063 410.404912 
L 105.735815 411.397008 
L 109.304568 412.615766 
L 112.873321 414.080947 
L 116.442074 415.796054 
L 120.010827 417.730913 
L 127.148333 421.770121 
L 128.932709 422.617496 
L 130.717085 423.282212 
L 132.501462 423.678045 
L 134.285838 423.703636 
L 136.070215 423.247434 
L 137.854591 422.197387 
L 139.638968 420.454092 
L 141.423344 417.939861 
L 143.20772 414.586002 
L 144.992097 410.274534 
L 146.776473 404.73036 
L 148.56085 397.423153 
L 150.345226 387.603886 
L 152.129603 374.564524 
L 153.913979 358.043167 
L 155.698355 338.546703 
L 159.267108 296.350794 
L 161.051485 277.256107 
L 162.835861 261.430641 
L 164.620238 249.485986 
L 166.404614 241.320467 
L 168.18899 236.302022 
L 169.973367 233.534627 
L 171.757743 232.1564 
L 173.54212 231.542091 
L 175.326496 231.322939 
L 178.895249 231.391408 
L 186.032755 231.843806 
L 189.601508 231.769712 
L 196.739013 231.224096 
L 198.52339 231.342065 
L 200.307766 231.931152 
L 202.092143 233.532181 
L 203.876519 237.043603 
L 205.660895 243.572165 
L 207.445272 254.078779 
L 209.229648 269.080229 
L 211.014025 288.440152 
L 212.798401 311.20659 
L 216.367154 359.283673 
L 218.15153 379.796642 
L 219.935907 395.146754 
L 221.720283 404.245922 
L 223.50466 407.208915 
L 225.289036 405.607973 
L 227.073413 402.846504 
L 228.857789 403.221733 
L 230.642165 407.364961 
L 232.426542 412.289357 
L 234.210918 415.896436 
L 235.995295 417.52237 
L 237.779671 417.150195 
L 239.564048 414.959975 
L 241.348424 411.132864 
L 243.1328 405.768586 
L 244.917177 398.856099 
L 246.701553 390.272974 
L 248.48593 379.803915 
L 250.270306 367.176303 
L 252.054683 352.114402 
L 253.839059 334.414802 
L 255.623435 314.043236 
L 257.407812 291.247527 
L 262.760941 217.457101 
L 264.545317 197.164984 
L 266.329694 184.10107 
L 268.11407 181.537086 
L 269.898447 188.985422 
L 271.682823 202.176365 
L 275.251576 231.321155 
L 277.035952 243.650369 
L 278.820329 253.638933 
L 280.604705 261.315273 
L 282.389082 266.960759 
L 284.173458 270.954602 
L 285.957835 273.67645 
L 287.742211 275.458502 
L 289.526587 276.573775 
L 291.310964 277.245522 
L 296.664093 278.42128 
L 298.44847 279.057617 
L 300.232846 280.009436 
L 302.017222 281.303276 
L 307.370352 285.855713 
L 309.154728 286.54306 
L 310.939105 286.13356 
L 312.723481 284.35945 
L 314.507857 281.31393 
L 316.292234 277.662683 
L 318.07661 274.592579 
L 319.860987 272.955354 
L 321.645363 272.194394 
L 323.42974 270.985629 
L 325.214116 268.53739 
L 326.998492 264.853772 
L 332.351622 251.781131 
L 334.135998 248.501052 
L 335.920375 246.211464 
L 337.704751 244.952343 
L 339.489127 244.725347 
L 341.273504 245.566469 
L 343.05788 247.552394 
L 344.842257 250.722091 
L 346.626633 254.935642 
L 350.195386 264.483894 
L 351.979762 268.569152 
L 353.764139 272.198198 
L 355.548515 276.382987 
L 359.117268 287.209792 
L 360.901645 291.58474 
L 362.686021 294.44033 
L 364.470397 296.702451 
L 366.254774 299.92396 
L 368.03915 305.304862 
L 369.823527 313.095289 
L 371.607903 322.684822 
L 375.176656 343.408572 
L 376.961032 352.99559 
L 378.745409 361.50976 
L 380.529785 368.834177 
L 382.314162 374.998386 
L 384.098538 380.111439 
L 385.882915 384.315582 
L 387.667291 387.758011 
L 389.451667 390.57566 
L 391.236044 392.888384 
L 393.02042 394.797076 
L 394.804797 396.38442 
L 396.589173 397.716871 
L 398.37355 398.847058 
L 400.157926 399.816171 
L 403.726679 401.391541 
L 407.295432 402.619243 
L 410.864185 403.601869 
L 414.432937 404.399265 
L 419.786067 405.324355 
L 425.139196 405.991204 
L 430.492325 406.45672 
L 435.845455 406.769251 
L 435.845455 406.769251 
" style="fill:none;stroke:#3300ff;stroke-linecap:square;stroke-width:0.2;"/>
   </g>
   <g id="patch_4">
    <path d="M 63 441 
L 63 60.48 
" style="fill:none;stroke:#000000;stroke-linecap:square;stroke-linejoin:miter;stroke-width:0.8;"/>
   </g>
   <g id="patch_5">
    <path d="M 453.6 441 
L 453.6 60.48 
" style="fill:none;stroke:#000000;stroke-linecap:square;stroke-linejoin:miter;stroke-width:0.8;"/>
   </g>
   <g id="patch_6">
    <path d="M 63 441 
L 453.6 441 
" style="fill:none;stroke:#000000;stroke-linecap:square;stroke-linejoin:miter;stroke-width:0.8;"/>
   </g>
   <g id="patch_7">
    <path d="M 63 60.48 
L 453.6 60.48 
" style="fill:none;stroke:#000000;stroke-linecap:square;stroke-linejoin:miter;stroke-width:0.8;"/>
   </g>
  </g>
 </g>
 <defs>
  <clipPath id="pe40a16385d">
   <rect height="380.52" width="390.6" x="63" y="60.48"/>
  </clipPath>
 </defs>
</svg>
