<?xml version="1.0" encoding="utf-8" standalone="no"?>
<!DOCTYPE svg PUBLIC "-//W3C//DTD SVG 1.1//EN"
  "http://www.w3.org/Graphics/SVG/1.1/DTD/svg11.dtd">
<!-- Created with matplotlib (http://matplotlib.org/) -->
<svg height="288pt" version="1.1" viewBox="0 0 432 288" width="432pt" xmlns="http://www.w3.org/2000/svg" xmlns:xlink="http://www.w3.org/1999/xlink">
 <defs>
  <style type="text/css">
*{stroke-linecap:butt;stroke-linejoin:round;}
  </style>
 </defs>
 <g id="figure_1">
  <g id="patch_1">
   <path d="M 0 288 
L 432 288 
L 432 0 
L 0 0 
z
" style="fill:none;"/>
  </g>
  <g id="axes_1">
   <g id="patch_2">
    <path d="M 54 252 
L 388.8 252 
L 388.8 34.56 
L 54 34.56 
z
" style="fill:none;"/>
   </g>
   <g id="patch_3">
    <path clip-path="url(#pda85767de5)" d="M 54 101.295607 
L 55.682412 103.345763 
L 57.364824 105.298033 
L 59.047236 107.143878 
L 60.729648 108.87539 
L 62.41206 110.485287 
L 64.094472 111.966942 
L 65.776884 113.314535 
L 67.459296 114.523386 
L 69.141709 115.590564 
L 70.824121 116.515792 
L 72.506533 117.302511 
L 74.188945 117.958727 
L 75.871357 118.497079 
L 77.553769 118.933725 
L 79.236181 119.286184 
L 80.918593 119.570846 
L 82.601005 119.801035 
L 84.283417 119.986109 
L 85.965829 120.131577 
L 87.648241 120.239908 
L 89.330653 120.311641 
L 91.013065 120.346533 
L 92.695477 120.34457 
L 94.377889 120.306781 
L 96.060302 120.235842 
L 97.742714 120.136477 
L 99.425126 120.015691 
L 101.107538 119.882866 
L 102.78995 119.749742 
L 104.472362 119.630309 
L 106.154774 119.540627 
L 107.837186 119.498581 
L 109.519598 119.523583 
L 111.20201 119.636218 
L 112.884422 119.857844 
L 114.566834 120.210147 
L 116.249246 120.714664 
L 117.931658 121.39228 
L 119.61407 122.262722 
L 121.296482 123.344052 
L 122.978894 124.652189 
L 124.661307 126.200468 
L 126.343719 127.99925 
L 128.026131 130.055595 
L 129.708543 132.373001 
L 131.390955 134.95122 
L 133.073367 137.786136 
L 134.755779 140.869715 
L 136.438191 144.190009 
L 138.120603 147.731219 
L 139.803015 151.473798 
L 141.485427 155.394599 
L 143.167839 159.467063 
L 144.850251 163.661445 
L 146.532663 167.945082 
L 148.215075 172.282699 
L 149.897487 176.636761 
L 151.579899 180.967858 
L 153.262312 185.235129 
L 154.944724 189.396727 
L 156.627136 193.410293 
L 158.309548 197.233458 
L 159.99196 200.824353 
L 161.674372 204.142114 
L 163.356784 207.147377 
L 165.039196 209.802757 
L 166.721608 212.073293 
L 168.40402 213.926861 
L 170.086432 215.33454 
L 171.768844 216.270943 
L 173.451256 216.714489 
L 175.133668 216.64764 
L 176.81608 216.057092 
L 178.498492 214.93393 
L 180.180905 213.273753 
L 181.863317 211.076771 
L 183.545729 208.347879 
L 185.228141 205.096715 
L 186.910553 201.337694 
L 188.592965 197.090022 
L 190.275377 192.377693 
L 191.957789 187.229443 
L 193.640201 181.678687 
L 195.322613 175.763397 
L 197.005025 169.525939 
L 198.687437 163.012848 
L 200.369849 156.274539 
L 202.052261 149.364937 
L 203.734673 142.341043 
L 205.417085 135.262408 
L 207.099497 128.190538 
L 208.78191 121.188223 
L 210.464322 114.318806 
L 212.146734 107.645395 
L 213.829146 101.230044 
L 215.511558 95.13291 
L 217.19397 89.411403 
L 218.876382 84.119358 
L 220.558794 79.306224 
L 222.241206 75.016302 
L 223.923618 71.288043 
L 225.60603 68.153403 
L 227.288442 65.637288 
L 228.970854 63.757078 
L 230.653266 62.522254 
L 232.335678 61.934135 
L 234.01809 61.985722 
L 235.700503 62.661675 
L 237.382915 63.938426 
L 239.065327 65.78442 
L 240.747739 68.160506 
L 242.430151 71.020464 
L 244.112563 74.311678 
L 245.794975 77.975931 
L 247.477387 81.950333 
L 249.159799 86.16836 
L 250.842211 90.560992 
L 252.524623 95.057935 
L 254.207035 99.588905 
L 255.889447 104.084947 
L 257.571859 108.47975 
L 259.254271 112.710921 
L 260.936683 116.721161 
L 262.619095 120.459291 
L 264.301508 123.881086 
L 265.98392 126.949878 
L 267.666332 129.636923 
L 269.348744 131.921536 
L 271.031156 133.791013 
L 272.713568 135.240378 
L 274.39598 136.271976 
L 276.078392 136.894958 
L 277.760804 137.12466 
L 279.443216 136.981932 
L 281.125628 136.492411 
L 282.80804 135.685786 
L 284.490452 134.595078 
L 286.172864 133.255954 
L 287.855276 131.706112 
L 289.537688 129.98474 
L 291.220101 128.132035 
L 292.902513 126.188762 
L 294.584925 124.195763 
L 296.267337 122.193361 
L 297.949749 120.220538 
L 299.632161 118.313841 
L 301.314573 116.505959 
L 302.996985 114.823978 
L 304.679397 113.287378 
L 306.361809 111.905944 
L 308.044221 110.677988 
L 309.726633 109.58955 
L 311.409045 108.615492 
L 313.091457 107.723085 
L 314.773869 106.877526 
L 316.456281 106.047374 
L 318.138693 105.20773 
L 319.821106 104.340473 
L 321.503518 103.432631 
L 323.18593 102.474389 
L 324.868342 101.457654 
L 326.550754 100.375334 
L 328.233166 99.221162 
L 329.915578 97.989817 
L 331.59799 96.677167 
L 333.280402 95.280509 
L 334.962814 93.798771 
L 336.645226 92.232639 
L 338.327638 90.584604 
L 340.01005 88.85894 
L 341.692462 87.061616 
L 343.374874 85.20015 
L 345.057286 83.283421 
L 346.739698 81.321443 
L 348.422111 79.325118 
L 350.104523 77.305975 
L 351.786935 75.275902 
L 353.469347 73.246889 
L 355.151759 71.230775 
L 356.834171 69.239016 
L 358.516583 67.282478 
L 360.198995 65.371255 
L 361.881407 63.514522 
L 363.563819 61.720411 
L 365.246231 59.995928 
L 366.928643 58.346904 
L 368.611055 56.777965 
L 370.293467 55.292544 
L 371.975879 53.892916 
L 373.658291 52.58025 
L 375.340704 51.354686 
L 377.023116 50.215429 
L 378.705528 49.160849 
L 380.38794 48.188596 
L 382.070352 47.295707 
L 383.752764 46.478729 
L 385.435176 45.733827 
L 387.117588 45.056891 
L 388.8 44.443636 
L 388.8 242.116364 
L 387.117588 241.833663 
L 385.435176 241.474099 
L 383.752764 241.026713 
L 382.070352 240.479955 
L 380.38794 239.821794 
L 378.705528 239.039852 
L 377.023116 238.121564 
L 375.340704 237.054362 
L 373.658291 235.82588 
L 371.975879 234.424175 
L 370.293467 232.837974 
L 368.611055 231.056923 
L 366.928643 229.071851 
L 365.246231 226.875037 
L 363.563819 224.460478 
L 361.881407 221.824145 
L 360.198995 218.964232 
L 358.516583 215.881384 
L 356.834171 212.5789 
L 355.151759 209.062912 
L 353.469347 205.342515 
L 351.786935 201.429873 
L 350.104523 197.340266 
L 348.422111 193.092095 
L 346.739698 188.706832 
L 345.057286 184.208913 
L 343.374874 179.625586 
L 341.692462 174.98669 
L 340.01005 170.324395 
L 338.327638 165.672882 
L 336.645226 161.067989 
L 334.962814 156.546808 
L 333.280402 152.147266 
L 331.59799 147.907673 
L 329.915578 143.866269 
L 328.233166 140.060757 
L 326.550754 136.527839 
L 324.868342 133.302731 
L 323.18593 130.418607 
L 321.503518 127.905889 
L 319.821106 125.791207 
L 318.138693 124.095803 
L 316.456281 122.833216 
L 314.773869 122.006452 
L 313.091457 121.605548 
L 311.409045 121.60708 
L 309.726633 121.976695 
L 308.044221 122.674019 
L 306.361809 123.657766 
L 304.679397 124.889075 
L 302.996985 126.332505 
L 301.314573 127.955332 
L 299.632161 129.726036 
L 297.949749 131.612677 
L 296.267337 133.581552 
L 294.584925 135.596302 
L 292.902513 137.617521 
L 291.220101 139.60286 
L 289.537688 141.507573 
L 287.855276 143.285403 
L 286.172864 144.889695 
L 284.490452 146.27462 
L 282.80804 147.396421 
L 281.125628 148.214589 
L 279.443216 148.692951 
L 277.760804 148.800612 
L 276.078392 148.512761 
L 274.39598 147.811319 
L 272.713568 146.685423 
L 271.031156 145.131747 
L 269.348744 143.15465 
L 267.666332 140.766156 
L 265.98392 137.985775 
L 264.301508 134.840174 
L 262.619095 131.362743 
L 260.936683 127.593059 
L 259.254271 123.576313 
L 257.571859 119.362686 
L 255.889447 115.006707 
L 254.207035 110.566586 
L 252.524623 106.103495 
L 250.842211 101.680792 
L 249.159799 97.363184 
L 247.477387 93.215807 
L 245.794975 89.303265 
L 244.112563 85.688611 
L 242.430151 82.43233 
L 240.747739 79.591318 
L 239.065327 77.21791 
L 237.382915 75.358969 
L 235.700503 74.055066 
L 234.01809 73.339769 
L 232.335678 73.239057 
L 230.653266 73.770882 
L 228.970854 74.94488 
L 227.288442 76.762241 
L 225.60603 79.215742 
L 223.923618 82.289931 
L 222.241206 85.961472 
L 220.558794 90.19961 
L 218.876382 94.966763 
L 217.19397 100.219215 
L 215.511558 105.907871 
L 213.829146 111.979081 
L 212.146734 118.375479 
L 210.464322 125.036849 
L 208.78191 131.900969 
L 207.099497 138.904448 
L 205.417085 145.983526 
L 203.734673 153.074838 
L 202.052261 160.11613 
L 200.369849 167.046927 
L 198.687437 173.809145 
L 197.005025 180.347653 
L 195.322613 186.610767 
L 193.640201 192.550686 
L 191.957789 198.123866 
L 190.275377 203.291327 
L 188.592965 208.018893 
L 186.910553 212.277371 
L 185.228141 216.042661 
L 183.545729 219.295811 
L 181.863317 222.023011 
L 180.180905 224.215536 
L 178.498492 225.869634 
L 176.81608 226.986385 
L 175.133668 227.571513 
L 173.451256 227.635166 
L 171.768844 227.191687 
L 170.086432 226.259349 
L 168.40402 224.860095 
L 166.721608 223.019257 
L 165.039196 220.765277 
L 163.356784 218.129421 
L 161.674372 215.145481 
L 159.99196 211.849475 
L 158.309548 208.279319 
L 156.627136 204.474493 
L 154.944724 200.475668 
L 153.262312 196.324319 
L 151.579899 192.062295 
L 149.897487 187.731378 
L 148.215075 183.372799 
L 146.532663 179.02675 
L 144.850251 174.73188 
L 143.167839 170.52479 
L 141.485427 166.439549 
L 139.803015 162.507238 
L 138.120603 158.755537 
L 136.438191 155.208382 
L 134.755779 151.885694 
L 133.073367 148.803196 
L 131.390955 145.972327 
L 129.708543 143.400247 
L 128.026131 141.089936 
L 126.343719 139.040379 
L 124.661307 137.24682 
L 122.978894 135.701077 
L 121.296482 134.391906 
L 119.61407 133.305403 
L 117.931658 132.425428 
L 116.249246 131.734047 
L 114.566834 131.211984 
L 112.884422 130.839074 
L 111.20201 130.594715 
L 109.519598 130.458307 
L 107.837186 130.409672 
L 106.154774 130.429456 
L 104.472362 130.499489 
L 102.78995 130.6031 
L 101.107538 130.725383 
L 99.425126 130.8534 
L 97.742714 130.976327 
L 96.060302 131.085544 
L 94.377889 131.174702 
L 92.695477 131.239764 
L 91.013065 131.27909 
L 89.330653 131.293579 
L 87.648241 131.286915 
L 85.965829 131.265957 
L 84.283417 131.241261 
L 82.601005 131.227682 
L 80.918593 131.244928 
L 79.236181 131.317784 
L 77.553769 131.475656 
L 75.871357 131.751116 
L 74.188945 132.177437 
L 72.506533 132.78563 
L 70.824121 133.601857 
L 69.141709 134.645957 
L 67.459296 135.931222 
L 65.776884 137.465022 
L 64.094472 139.249721 
L 62.41206 141.283509 
L 60.729648 143.561 
L 59.047236 146.073631 
L 57.364824 148.809928 
L 55.682412 151.755707 
L 54 154.894283 
z
" style="fill:#cc3300;opacity:0.3;stroke:#cc3300;stroke-linejoin:miter;stroke-width:0.5;"/>
   </g>
   <g id="matplotlib.axis_1">
    <g id="xtick_1">
     <g id="line2d_1">
      <defs>
       <path d="M 0 0 
L 0 3.5 
" id="m6e26b94c9d" style="stroke:#000000;stroke-width:0.8;"/>
      </defs>
      <g>
       <use style="stroke:#000000;stroke-width:0.8;" x="66.571073" xlink:href="#m6e26b94c9d" y="252"/>
      </g>
     </g>
     <g id="text_1">
      <!-- −2 -->
      <defs>
       <path d="M 10.59375 35.5 
L 73.1875 35.5 
L 73.1875 27.203125 
L 10.59375 27.203125 
z
" id="DejaVuSans-2212"/>
       <path d="M 19.1875 8.296875 
L 53.609375 8.296875 
L 53.609375 0 
L 7.328125 0 
L 7.328125 8.296875 
Q 12.9375 14.109375 22.625 23.890625 
Q 32.328125 33.6875 34.8125 36.53125 
Q 39.546875 41.84375 41.421875 45.53125 
Q 43.3125 49.21875 43.3125 52.78125 
Q 43.3125 58.59375 39.234375 62.25 
Q 35.15625 65.921875 28.609375 65.921875 
Q 23.96875 65.921875 18.8125 64.3125 
Q 13.671875 62.703125 7.8125 59.421875 
L 7.8125 69.390625 
Q 13.765625 71.78125 18.9375 73 
Q 24.125 74.21875 28.421875 74.21875 
Q 39.75 74.21875 46.484375 68.546875 
Q 53.21875 62.890625 53.21875 53.421875 
Q 53.21875 48.921875 51.53125 44.890625 
Q 49.859375 40.875 45.40625 35.40625 
Q 44.1875 33.984375 37.640625 27.21875 
Q 31.109375 20.453125 19.1875 8.296875 
z
" id="DejaVuSans-32"/>
      </defs>
      <g transform="translate(59.199979 266.598437)scale(0.1 -0.1)">
       <use xlink:href="#DejaVuSans-2212"/>
       <use x="83.789062" xlink:href="#DejaVuSans-32"/>
      </g>
     </g>
    </g>
    <g id="xtick_2">
     <g id="line2d_2">
      <g>
       <use style="stroke:#000000;stroke-width:0.8;" x="139.764263" xlink:href="#m6e26b94c9d" y="252"/>
      </g>
     </g>
     <g id="text_2">
      <!-- −1 -->
      <defs>
       <path d="M 12.40625 8.296875 
L 28.515625 8.296875 
L 28.515625 63.921875 
L 10.984375 60.40625 
L 10.984375 69.390625 
L 28.421875 72.90625 
L 38.28125 72.90625 
L 38.28125 8.296875 
L 54.390625 8.296875 
L 54.390625 0 
L 12.40625 0 
z
" id="DejaVuSans-31"/>
      </defs>
      <g transform="translate(132.393169 266.598437)scale(0.1 -0.1)">
       <use xlink:href="#DejaVuSans-2212"/>
       <use x="83.789062" xlink:href="#DejaVuSans-31"/>
      </g>
     </g>
    </g>
    <g id="xtick_3">
     <g id="line2d_3">
      <g>
       <use style="stroke:#000000;stroke-width:0.8;" x="212.957452" xlink:href="#m6e26b94c9d" y="252"/>
      </g>
     </g>
     <g id="text_3">
      <!-- 0 -->
      <defs>
       <path d="M 31.78125 66.40625 
Q 24.171875 66.40625 20.328125 58.90625 
Q 16.5 51.421875 16.5 36.375 
Q 16.5 21.390625 20.328125 13.890625 
Q 24.171875 6.390625 31.78125 6.390625 
Q 39.453125 6.390625 43.28125 13.890625 
Q 47.125 21.390625 47.125 36.375 
Q 47.125 51.421875 43.28125 58.90625 
Q 39.453125 66.40625 31.78125 66.40625 
z
M 31.78125 74.21875 
Q 44.046875 74.21875 50.515625 64.515625 
Q 56.984375 54.828125 56.984375 36.375 
Q 56.984375 17.96875 50.515625 8.265625 
Q 44.046875 -1.421875 31.78125 -1.421875 
Q 19.53125 -1.421875 13.0625 8.265625 
Q 6.59375 17.96875 6.59375 36.375 
Q 6.59375 54.828125 13.0625 64.515625 
Q 19.53125 74.21875 31.78125 74.21875 
z
" id="DejaVuSans-30"/>
      </defs>
      <g transform="translate(209.776202 266.598437)scale(0.1 -0.1)">
       <use xlink:href="#DejaVuSans-30"/>
      </g>
     </g>
    </g>
    <g id="xtick_4">
     <g id="line2d_4">
      <g>
       <use style="stroke:#000000;stroke-width:0.8;" x="286.150642" xlink:href="#m6e26b94c9d" y="252"/>
      </g>
     </g>
     <g id="text_4">
      <!-- 1 -->
      <g transform="translate(282.969392 266.598437)scale(0.1 -0.1)">
       <use xlink:href="#DejaVuSans-31"/>
      </g>
     </g>
    </g>
    <g id="xtick_5">
     <g id="line2d_5">
      <g>
       <use style="stroke:#000000;stroke-width:0.8;" x="359.343831" xlink:href="#m6e26b94c9d" y="252"/>
      </g>
     </g>
     <g id="text_5">
      <!-- 2 -->
      <g transform="translate(356.162581 266.598437)scale(0.1 -0.1)">
       <use xlink:href="#DejaVuSans-32"/>
      </g>
     </g>
    </g>
    <g id="text_6">
     <!-- layer 1 -->
     <defs>
      <path d="M 9.421875 75.984375 
L 18.40625 75.984375 
L 18.40625 0 
L 9.421875 0 
z
" id="DejaVuSans-6c"/>
      <path d="M 34.28125 27.484375 
Q 23.390625 27.484375 19.1875 25 
Q 14.984375 22.515625 14.984375 16.5 
Q 14.984375 11.71875 18.140625 8.90625 
Q 21.296875 6.109375 26.703125 6.109375 
Q 34.1875 6.109375 38.703125 11.40625 
Q 43.21875 16.703125 43.21875 25.484375 
L 43.21875 27.484375 
z
M 52.203125 31.203125 
L 52.203125 0 
L 43.21875 0 
L 43.21875 8.296875 
Q 40.140625 3.328125 35.546875 0.953125 
Q 30.953125 -1.421875 24.3125 -1.421875 
Q 15.921875 -1.421875 10.953125 3.296875 
Q 6 8.015625 6 15.921875 
Q 6 25.140625 12.171875 29.828125 
Q 18.359375 34.515625 30.609375 34.515625 
L 43.21875 34.515625 
L 43.21875 35.40625 
Q 43.21875 41.609375 39.140625 45 
Q 35.0625 48.390625 27.6875 48.390625 
Q 23 48.390625 18.546875 47.265625 
Q 14.109375 46.140625 10.015625 43.890625 
L 10.015625 52.203125 
Q 14.9375 54.109375 19.578125 55.046875 
Q 24.21875 56 28.609375 56 
Q 40.484375 56 46.34375 49.84375 
Q 52.203125 43.703125 52.203125 31.203125 
z
" id="DejaVuSans-61"/>
      <path d="M 32.171875 -5.078125 
Q 28.375 -14.84375 24.75 -17.8125 
Q 21.140625 -20.796875 15.09375 -20.796875 
L 7.90625 -20.796875 
L 7.90625 -13.28125 
L 13.1875 -13.28125 
Q 16.890625 -13.28125 18.9375 -11.515625 
Q 21 -9.765625 23.484375 -3.21875 
L 25.09375 0.875 
L 2.984375 54.6875 
L 12.5 54.6875 
L 29.59375 11.921875 
L 46.6875 54.6875 
L 56.203125 54.6875 
z
" id="DejaVuSans-79"/>
      <path d="M 56.203125 29.59375 
L 56.203125 25.203125 
L 14.890625 25.203125 
Q 15.484375 15.921875 20.484375 11.0625 
Q 25.484375 6.203125 34.421875 6.203125 
Q 39.59375 6.203125 44.453125 7.46875 
Q 49.3125 8.734375 54.109375 11.28125 
L 54.109375 2.78125 
Q 49.265625 0.734375 44.1875 -0.34375 
Q 39.109375 -1.421875 33.890625 -1.421875 
Q 20.796875 -1.421875 13.15625 6.1875 
Q 5.515625 13.8125 5.515625 26.8125 
Q 5.515625 40.234375 12.765625 48.109375 
Q 20.015625 56 32.328125 56 
Q 43.359375 56 49.78125 48.890625 
Q 56.203125 41.796875 56.203125 29.59375 
z
M 47.21875 32.234375 
Q 47.125 39.59375 43.09375 43.984375 
Q 39.0625 48.390625 32.421875 48.390625 
Q 24.90625 48.390625 20.390625 44.140625 
Q 15.875 39.890625 15.1875 32.171875 
z
" id="DejaVuSans-65"/>
      <path d="M 41.109375 46.296875 
Q 39.59375 47.171875 37.8125 47.578125 
Q 36.03125 48 33.890625 48 
Q 26.265625 48 22.1875 43.046875 
Q 18.109375 38.09375 18.109375 28.8125 
L 18.109375 0 
L 9.078125 0 
L 9.078125 54.6875 
L 18.109375 54.6875 
L 18.109375 46.1875 
Q 20.953125 51.171875 25.484375 53.578125 
Q 30.03125 56 36.53125 56 
Q 37.453125 56 38.578125 55.875 
Q 39.703125 55.765625 41.0625 55.515625 
z
" id="DejaVuSans-72"/>
      <path id="DejaVuSans-20"/>
     </defs>
     <g transform="translate(186.770312 287.875)scale(0.2 -0.2)">
      <use xlink:href="#DejaVuSans-6c"/>
      <use x="27.783203" xlink:href="#DejaVuSans-61"/>
      <use x="89.0625" xlink:href="#DejaVuSans-79"/>
      <use x="148.242188" xlink:href="#DejaVuSans-65"/>
      <use x="209.765625" xlink:href="#DejaVuSans-72"/>
      <use x="250.878906" xlink:href="#DejaVuSans-20"/>
      <use x="282.666016" xlink:href="#DejaVuSans-31"/>
     </g>
    </g>
   </g>
   <g id="matplotlib.axis_2">
    <g id="ytick_1">
     <g id="line2d_6">
      <defs>
       <path d="M 0 0 
L -3.5 0 
" id="m03654da6f7" style="stroke:#000000;stroke-width:0.8;"/>
      </defs>
      <g>
       <use style="stroke:#000000;stroke-width:0.8;" x="54" xlink:href="#m03654da6f7" y="239.693988"/>
      </g>
     </g>
     <g id="text_7">
      <!-- −150 -->
      <defs>
       <path d="M 10.796875 72.90625 
L 49.515625 72.90625 
L 49.515625 64.59375 
L 19.828125 64.59375 
L 19.828125 46.734375 
Q 21.96875 47.46875 24.109375 47.828125 
Q 26.265625 48.1875 28.421875 48.1875 
Q 40.625 48.1875 47.75 41.5 
Q 54.890625 34.8125 54.890625 23.390625 
Q 54.890625 11.625 47.5625 5.09375 
Q 40.234375 -1.421875 26.90625 -1.421875 
Q 22.3125 -1.421875 17.546875 -0.640625 
Q 12.796875 0.140625 7.71875 1.703125 
L 7.71875 11.625 
Q 12.109375 9.234375 16.796875 8.0625 
Q 21.484375 6.890625 26.703125 6.890625 
Q 35.15625 6.890625 40.078125 11.328125 
Q 45.015625 15.765625 45.015625 23.390625 
Q 45.015625 31 40.078125 35.4375 
Q 35.15625 39.890625 26.703125 39.890625 
Q 22.75 39.890625 18.8125 39.015625 
Q 14.890625 38.140625 10.796875 36.28125 
z
" id="DejaVuSans-35"/>
      </defs>
      <g transform="translate(19.532812 243.493207)scale(0.1 -0.1)">
       <use xlink:href="#DejaVuSans-2212"/>
       <use x="83.789062" xlink:href="#DejaVuSans-31"/>
       <use x="147.412109" xlink:href="#DejaVuSans-35"/>
       <use x="211.035156" xlink:href="#DejaVuSans-30"/>
      </g>
     </g>
    </g>
    <g id="ytick_2">
     <g id="line2d_7">
      <g>
       <use style="stroke:#000000;stroke-width:0.8;" x="54" xlink:href="#m03654da6f7" y="201.05515"/>
      </g>
     </g>
     <g id="text_8">
      <!-- −100 -->
      <g transform="translate(19.532812 204.854369)scale(0.1 -0.1)">
       <use xlink:href="#DejaVuSans-2212"/>
       <use x="83.789062" xlink:href="#DejaVuSans-31"/>
       <use x="147.412109" xlink:href="#DejaVuSans-30"/>
       <use x="211.035156" xlink:href="#DejaVuSans-30"/>
      </g>
     </g>
    </g>
    <g id="ytick_3">
     <g id="line2d_8">
      <g>
       <use style="stroke:#000000;stroke-width:0.8;" x="54" xlink:href="#m03654da6f7" y="162.416311"/>
      </g>
     </g>
     <g id="text_9">
      <!-- −50 -->
      <g transform="translate(25.895312 166.21553)scale(0.1 -0.1)">
       <use xlink:href="#DejaVuSans-2212"/>
       <use x="83.789062" xlink:href="#DejaVuSans-35"/>
       <use x="147.412109" xlink:href="#DejaVuSans-30"/>
      </g>
     </g>
    </g>
    <g id="ytick_4">
     <g id="line2d_9">
      <g>
       <use style="stroke:#000000;stroke-width:0.8;" x="54" xlink:href="#m03654da6f7" y="123.777473"/>
      </g>
     </g>
     <g id="text_10">
      <!-- 0 -->
      <g transform="translate(40.6375 127.576691)scale(0.1 -0.1)">
       <use xlink:href="#DejaVuSans-30"/>
      </g>
     </g>
    </g>
    <g id="ytick_5">
     <g id="line2d_10">
      <g>
       <use style="stroke:#000000;stroke-width:0.8;" x="54" xlink:href="#m03654da6f7" y="85.138634"/>
      </g>
     </g>
     <g id="text_11">
      <!-- 50 -->
      <g transform="translate(34.275 88.937853)scale(0.1 -0.1)">
       <use xlink:href="#DejaVuSans-35"/>
       <use x="63.623047" xlink:href="#DejaVuSans-30"/>
      </g>
     </g>
    </g>
    <g id="ytick_6">
     <g id="line2d_11">
      <g>
       <use style="stroke:#000000;stroke-width:0.8;" x="54" xlink:href="#m03654da6f7" y="46.499795"/>
      </g>
     </g>
     <g id="text_12">
      <!-- 100 -->
      <g transform="translate(27.9125 50.299014)scale(0.1 -0.1)">
       <use xlink:href="#DejaVuSans-31"/>
       <use x="63.623047" xlink:href="#DejaVuSans-30"/>
       <use x="127.246094" xlink:href="#DejaVuSans-30"/>
      </g>
     </g>
    </g>
    <g id="text_13">
     <!-- acceleration/$g$ -->
     <defs>
      <path d="M 48.78125 52.59375 
L 48.78125 44.1875 
Q 44.96875 46.296875 41.140625 47.34375 
Q 37.3125 48.390625 33.40625 48.390625 
Q 24.65625 48.390625 19.8125 42.84375 
Q 14.984375 37.3125 14.984375 27.296875 
Q 14.984375 17.28125 19.8125 11.734375 
Q 24.65625 6.203125 33.40625 6.203125 
Q 37.3125 6.203125 41.140625 7.25 
Q 44.96875 8.296875 48.78125 10.40625 
L 48.78125 2.09375 
Q 45.015625 0.34375 40.984375 -0.53125 
Q 36.96875 -1.421875 32.421875 -1.421875 
Q 20.0625 -1.421875 12.78125 6.34375 
Q 5.515625 14.109375 5.515625 27.296875 
Q 5.515625 40.671875 12.859375 48.328125 
Q 20.21875 56 33.015625 56 
Q 37.15625 56 41.109375 55.140625 
Q 45.0625 54.296875 48.78125 52.59375 
z
" id="DejaVuSans-63"/>
      <path d="M 18.3125 70.21875 
L 18.3125 54.6875 
L 36.8125 54.6875 
L 36.8125 47.703125 
L 18.3125 47.703125 
L 18.3125 18.015625 
Q 18.3125 11.328125 20.140625 9.421875 
Q 21.96875 7.515625 27.59375 7.515625 
L 36.8125 7.515625 
L 36.8125 0 
L 27.59375 0 
Q 17.1875 0 13.234375 3.875 
Q 9.28125 7.765625 9.28125 18.015625 
L 9.28125 47.703125 
L 2.6875 47.703125 
L 2.6875 54.6875 
L 9.28125 54.6875 
L 9.28125 70.21875 
z
" id="DejaVuSans-74"/>
      <path d="M 9.421875 54.6875 
L 18.40625 54.6875 
L 18.40625 0 
L 9.421875 0 
z
M 9.421875 75.984375 
L 18.40625 75.984375 
L 18.40625 64.59375 
L 9.421875 64.59375 
z
" id="DejaVuSans-69"/>
      <path d="M 30.609375 48.390625 
Q 23.390625 48.390625 19.1875 42.75 
Q 14.984375 37.109375 14.984375 27.296875 
Q 14.984375 17.484375 19.15625 11.84375 
Q 23.34375 6.203125 30.609375 6.203125 
Q 37.796875 6.203125 41.984375 11.859375 
Q 46.1875 17.53125 46.1875 27.296875 
Q 46.1875 37.015625 41.984375 42.703125 
Q 37.796875 48.390625 30.609375 48.390625 
z
M 30.609375 56 
Q 42.328125 56 49.015625 48.375 
Q 55.71875 40.765625 55.71875 27.296875 
Q 55.71875 13.875 49.015625 6.21875 
Q 42.328125 -1.421875 30.609375 -1.421875 
Q 18.84375 -1.421875 12.171875 6.21875 
Q 5.515625 13.875 5.515625 27.296875 
Q 5.515625 40.765625 12.171875 48.375 
Q 18.84375 56 30.609375 56 
z
" id="DejaVuSans-6f"/>
      <path d="M 54.890625 33.015625 
L 54.890625 0 
L 45.90625 0 
L 45.90625 32.71875 
Q 45.90625 40.484375 42.875 44.328125 
Q 39.84375 48.1875 33.796875 48.1875 
Q 26.515625 48.1875 22.3125 43.546875 
Q 18.109375 38.921875 18.109375 30.90625 
L 18.109375 0 
L 9.078125 0 
L 9.078125 54.6875 
L 18.109375 54.6875 
L 18.109375 46.1875 
Q 21.34375 51.125 25.703125 53.5625 
Q 30.078125 56 35.796875 56 
Q 45.21875 56 50.046875 50.171875 
Q 54.890625 44.34375 54.890625 33.015625 
z
" id="DejaVuSans-6e"/>
      <path d="M 25.390625 72.90625 
L 33.6875 72.90625 
L 8.296875 -9.28125 
L 0 -9.28125 
z
" id="DejaVuSans-2f"/>
      <path d="M 59.625 54.6875 
L 50.296875 6.78125 
Q 47.609375 -7.125 40.015625 -13.953125 
Q 32.421875 -20.796875 19.578125 -20.796875 
Q 14.84375 -20.796875 10.78125 -20.09375 
Q 6.734375 -19.390625 3.21875 -17.921875 
L 4.890625 -9.1875 
Q 8.203125 -11.328125 11.90625 -12.34375 
Q 15.625 -13.375 19.828125 -13.375 
Q 28.375 -13.375 33.859375 -8.703125 
Q 39.359375 -4.046875 41.109375 4.6875 
L 41.890625 8.796875 
Q 38.140625 4.5 33.15625 2.25 
Q 28.171875 0 22.40625 0 
Q 14.109375 0 9.34375 5.484375 
Q 4.59375 10.984375 4.59375 20.609375 
Q 4.59375 28.171875 7.46875 35.421875 
Q 10.359375 42.671875 15.578125 48.296875 
Q 19.046875 52 23.65625 54 
Q 28.265625 56 33.296875 56 
Q 38.8125 56 42.90625 53.4375 
Q 47.015625 50.875 49.03125 46.1875 
L 50.59375 54.6875 
z
M 46.09375 34.625 
Q 46.09375 41.265625 42.96875 44.875 
Q 39.84375 48.484375 34.078125 48.484375 
Q 30.515625 48.484375 27.296875 47.0625 
Q 24.078125 45.65625 21.78125 43.109375 
Q 18.0625 38.921875 15.984375 33.234375 
Q 13.921875 27.546875 13.921875 21.484375 
Q 13.921875 14.75 17.0625 11.125 
Q 20.21875 7.515625 26.125 7.515625 
Q 34.671875 7.515625 40.375 15.25 
Q 46.09375 23 46.09375 34.625 
z
" id="DejaVuSans-Oblique-67"/>
     </defs>
     <g transform="translate(11.332812 214.68)rotate(-90)scale(0.2 -0.2)">
      <use transform="translate(0 0.015625)" xlink:href="#DejaVuSans-61"/>
      <use transform="translate(61.279297 0.015625)" xlink:href="#DejaVuSans-63"/>
      <use transform="translate(116.259766 0.015625)" xlink:href="#DejaVuSans-63"/>
      <use transform="translate(171.240234 0.015625)" xlink:href="#DejaVuSans-65"/>
      <use transform="translate(232.763672 0.015625)" xlink:href="#DejaVuSans-6c"/>
      <use transform="translate(260.546875 0.015625)" xlink:href="#DejaVuSans-65"/>
      <use transform="translate(322.070312 0.015625)" xlink:href="#DejaVuSans-72"/>
      <use transform="translate(363.183594 0.015625)" xlink:href="#DejaVuSans-61"/>
      <use transform="translate(424.462891 0.015625)" xlink:href="#DejaVuSans-74"/>
      <use transform="translate(463.671875 0.015625)" xlink:href="#DejaVuSans-69"/>
      <use transform="translate(491.455078 0.015625)" xlink:href="#DejaVuSans-6f"/>
      <use transform="translate(552.636719 0.015625)" xlink:href="#DejaVuSans-6e"/>
      <use transform="translate(616.015625 0.015625)" xlink:href="#DejaVuSans-2f"/>
      <use transform="translate(649.707031 0.015625)" xlink:href="#DejaVuSans-Oblique-67"/>
     </g>
    </g>
   </g>
   <g id="line2d_12">
    <path clip-path="url(#pda85767de5)" d="M 54 128.094945 
L 57.364824 127.05398 
L 60.729648 126.218195 
L 64.094472 125.608332 
L 67.459296 125.227304 
L 70.824121 125.058824 
L 75.871357 125.124098 
L 91.013065 125.812812 
L 96.060302 125.660693 
L 107.837186 124.954126 
L 111.20201 125.115467 
L 112.884422 125.348459 
L 114.566834 125.711065 
L 116.249246 126.224355 
L 117.931658 126.908854 
L 119.61407 127.784063 
L 121.296482 128.867979 
L 122.978894 130.176633 
L 124.661307 131.723644 
L 126.343719 133.519815 
L 128.026131 135.572765 
L 129.708543 137.886624 
L 131.390955 140.461774 
L 133.073367 143.294666 
L 134.755779 146.377704 
L 138.120603 153.243378 
L 141.485427 160.917074 
L 144.850251 169.196662 
L 156.627136 198.942393 
L 159.99196 206.336914 
L 161.674372 209.643798 
L 163.356784 212.638399 
L 165.039196 215.284017 
L 166.721608 217.546275 
L 168.40402 219.393478 
L 170.086432 220.796945 
L 171.768844 221.731315 
L 173.451256 222.174828 
L 175.133668 222.109576 
L 176.81608 221.521739 
L 178.498492 220.401782 
L 180.180905 218.744644 
L 181.863317 216.549891 
L 183.545729 213.821845 
L 185.228141 210.569688 
L 186.910553 206.807532 
L 188.592965 202.554458 
L 190.275377 197.83451 
L 191.957789 192.676655 
L 195.322613 181.187082 
L 198.687437 168.410997 
L 203.734673 147.707941 
L 210.464322 119.677828 
L 213.829146 106.604563 
L 217.19397 94.815309 
L 218.876382 89.543061 
L 220.558794 84.752917 
L 222.241206 80.488887 
L 223.923618 76.788987 
L 225.60603 73.684572 
L 227.288442 71.199764 
L 228.970854 69.350979 
L 230.653266 68.146568 
L 232.335678 67.586596 
L 234.01809 67.662745 
L 235.700503 68.358371 
L 237.382915 69.648697 
L 239.065327 71.501165 
L 240.747739 73.875912 
L 242.430151 76.726397 
L 244.112563 80.000145 
L 245.794975 83.639598 
L 249.159799 91.765772 
L 254.207035 105.077746 
L 257.571859 113.921218 
L 260.936683 122.15711 
L 262.619095 125.911017 
L 264.301508 129.36063 
L 265.98392 132.467826 
L 267.666332 135.20154 
L 269.348744 137.538093 
L 271.031156 139.46138 
L 272.713568 140.9629 
L 274.39598 142.041648 
L 276.078392 142.70386 
L 277.760804 142.962636 
L 279.443216 142.837442 
L 281.125628 142.3535 
L 282.80804 141.541103 
L 284.490452 140.434849 
L 286.172864 139.072824 
L 287.855276 137.495758 
L 291.220101 133.867448 
L 301.314573 122.230646 
L 302.996985 120.578242 
L 304.679397 119.088226 
L 306.361809 117.781855 
L 308.044221 116.676003 
L 309.726633 115.783122 
L 311.409045 115.111286 
L 313.091457 114.664317 
L 314.773869 114.441989 
L 316.456281 114.440295 
L 318.138693 114.651766 
L 319.821106 115.06584 
L 321.503518 115.66926 
L 323.18593 116.446498 
L 324.868342 117.380193 
L 328.233166 119.640959 
L 331.59799 122.29242 
L 336.645226 126.650314 
L 341.692462 131.024153 
L 345.057286 133.746167 
L 348.422111 136.208607 
L 351.786935 138.352887 
L 355.151759 140.146843 
L 358.516583 141.581931 
L 361.881407 142.669334 
L 365.246231 143.435483 
L 368.611055 143.917444 
L 371.975879 144.158546 
L 375.340704 144.204524 
L 380.38794 144.005195 
L 387.117588 143.445277 
L 388.8 143.28 
L 388.8 143.28 
" style="fill:none;stroke:#3300ff;stroke-linecap:square;stroke-width:2;"/>
   </g>
   <g id="line2d_13">
    <path clip-path="url(#pda85767de5)" d="M 54 101.295607 
L 57.364824 105.298033 
L 60.729648 108.87539 
L 64.094472 111.966942 
L 67.459296 114.523386 
L 69.141709 115.590564 
L 70.824121 116.515792 
L 72.506533 117.302511 
L 75.871357 118.497079 
L 79.236181 119.286184 
L 82.601005 119.801035 
L 85.965829 120.131577 
L 91.013065 120.346533 
L 96.060302 120.235842 
L 109.519598 119.523583 
L 112.884422 119.857844 
L 114.566834 120.210147 
L 116.249246 120.714664 
L 117.931658 121.39228 
L 119.61407 122.262722 
L 121.296482 123.344052 
L 122.978894 124.652189 
L 124.661307 126.200468 
L 126.343719 127.99925 
L 128.026131 130.055595 
L 129.708543 132.373001 
L 131.390955 134.95122 
L 133.073367 137.786136 
L 134.755779 140.869715 
L 138.120603 147.731219 
L 141.485427 155.394599 
L 144.850251 163.661445 
L 156.627136 193.410293 
L 159.99196 200.824353 
L 161.674372 204.142114 
L 163.356784 207.147377 
L 165.039196 209.802757 
L 166.721608 212.073293 
L 168.40402 213.926861 
L 170.086432 215.33454 
L 171.768844 216.270943 
L 173.451256 216.714489 
L 175.133668 216.64764 
L 176.81608 216.057092 
L 178.498492 214.93393 
L 180.180905 213.273753 
L 181.863317 211.076771 
L 183.545729 208.347879 
L 185.228141 205.096715 
L 186.910553 201.337694 
L 188.592965 197.090022 
L 190.275377 192.377693 
L 191.957789 187.229443 
L 195.322613 175.763397 
L 198.687437 163.012848 
L 203.734673 142.341043 
L 210.464322 114.318806 
L 213.829146 101.230044 
L 217.19397 89.411403 
L 218.876382 84.119358 
L 220.558794 79.306224 
L 222.241206 75.016302 
L 223.923618 71.288043 
L 225.60603 68.153403 
L 227.288442 65.637288 
L 228.970854 63.757078 
L 230.653266 62.522254 
L 232.335678 61.934135 
L 234.01809 61.985722 
L 235.700503 62.661675 
L 237.382915 63.938426 
L 239.065327 65.78442 
L 240.747739 68.160506 
L 242.430151 71.020464 
L 244.112563 74.311678 
L 245.794975 77.975931 
L 249.159799 86.16836 
L 254.207035 99.588905 
L 257.571859 108.47975 
L 260.936683 116.721161 
L 262.619095 120.459291 
L 264.301508 123.881086 
L 265.98392 126.949878 
L 267.666332 129.636923 
L 269.348744 131.921536 
L 271.031156 133.791013 
L 272.713568 135.240378 
L 274.39598 136.271976 
L 276.078392 136.894958 
L 277.760804 137.12466 
L 279.443216 136.981932 
L 281.125628 136.492411 
L 282.80804 135.685786 
L 284.490452 134.595078 
L 286.172864 133.255954 
L 287.855276 131.706112 
L 291.220101 128.132035 
L 301.314573 116.505959 
L 304.679397 113.287378 
L 306.361809 111.905944 
L 308.044221 110.677988 
L 311.409045 108.615492 
L 316.456281 106.047374 
L 321.503518 103.432631 
L 324.868342 101.457654 
L 328.233166 99.221162 
L 331.59799 96.677167 
L 334.962814 93.798771 
L 338.327638 90.584604 
L 341.692462 87.061616 
L 346.739698 81.321443 
L 361.881407 63.514522 
L 365.246231 59.995928 
L 368.611055 56.777965 
L 371.975879 53.892916 
L 375.340704 51.354686 
L 378.705528 49.160849 
L 382.070352 47.295707 
L 385.435176 45.733827 
L 388.8 44.443636 
L 388.8 44.443636 
" style="fill:none;stroke:#3300ff;stroke-linecap:square;stroke-width:0.2;"/>
   </g>
   <g id="line2d_14">
    <path clip-path="url(#pda85767de5)" d="M 54 154.894283 
L 57.364824 148.809928 
L 59.047236 146.073631 
L 60.729648 143.561 
L 62.41206 141.283509 
L 64.094472 139.249721 
L 65.776884 137.465022 
L 67.459296 135.931222 
L 69.141709 134.645957 
L 70.824121 133.601857 
L 72.506533 132.78563 
L 74.188945 132.177437 
L 75.871357 131.751116 
L 77.553769 131.475656 
L 80.918593 131.244928 
L 87.648241 131.286915 
L 92.695477 131.239764 
L 97.742714 130.976327 
L 106.154774 130.429456 
L 109.519598 130.458307 
L 112.884422 130.839074 
L 114.566834 131.211984 
L 116.249246 131.734047 
L 117.931658 132.425428 
L 119.61407 133.305403 
L 121.296482 134.391906 
L 122.978894 135.701077 
L 124.661307 137.24682 
L 126.343719 139.040379 
L 128.026131 141.089936 
L 129.708543 143.400247 
L 131.390955 145.972327 
L 133.073367 148.803196 
L 134.755779 151.885694 
L 138.120603 158.755537 
L 141.485427 166.439549 
L 144.850251 174.73188 
L 154.944724 200.475668 
L 158.309548 208.279319 
L 159.99196 211.849475 
L 161.674372 215.145481 
L 163.356784 218.129421 
L 165.039196 220.765277 
L 166.721608 223.019257 
L 168.40402 224.860095 
L 170.086432 226.259349 
L 171.768844 227.191687 
L 173.451256 227.635166 
L 175.133668 227.571513 
L 176.81608 226.986385 
L 178.498492 225.869634 
L 180.180905 224.215536 
L 181.863317 222.023011 
L 183.545729 219.295811 
L 185.228141 216.042661 
L 186.910553 212.277371 
L 188.592965 208.018893 
L 190.275377 203.291327 
L 191.957789 198.123866 
L 195.322613 186.610767 
L 198.687437 173.809145 
L 203.734673 153.074838 
L 210.464322 125.036849 
L 213.829146 111.979081 
L 217.19397 100.219215 
L 218.876382 94.966763 
L 220.558794 90.19961 
L 222.241206 85.961472 
L 223.923618 82.289931 
L 225.60603 79.215742 
L 227.288442 76.762241 
L 228.970854 74.94488 
L 230.653266 73.770882 
L 232.335678 73.239057 
L 234.01809 73.339769 
L 235.700503 74.055066 
L 237.382915 75.358969 
L 239.065327 77.21791 
L 240.747739 79.591318 
L 242.430151 82.43233 
L 244.112563 85.688611 
L 245.794975 89.303265 
L 249.159799 97.363184 
L 254.207035 110.566586 
L 259.254271 123.576313 
L 262.619095 131.362743 
L 264.301508 134.840174 
L 265.98392 137.985775 
L 267.666332 140.766156 
L 269.348744 143.15465 
L 271.031156 145.131747 
L 272.713568 146.685423 
L 274.39598 147.811319 
L 276.078392 148.512761 
L 277.760804 148.800612 
L 279.443216 148.692951 
L 281.125628 148.214589 
L 282.80804 147.396421 
L 284.490452 146.27462 
L 286.172864 144.889695 
L 287.855276 143.285403 
L 291.220101 139.60286 
L 299.632161 129.726036 
L 302.996985 126.332505 
L 304.679397 124.889075 
L 306.361809 123.657766 
L 308.044221 122.674019 
L 309.726633 121.976695 
L 311.409045 121.60708 
L 313.091457 121.605548 
L 314.773869 122.006452 
L 316.456281 122.833216 
L 318.138693 124.095803 
L 319.821106 125.791207 
L 321.503518 127.905889 
L 323.18593 130.418607 
L 324.868342 133.302731 
L 326.550754 136.527839 
L 328.233166 140.060757 
L 331.59799 147.907673 
L 334.962814 156.546808 
L 340.01005 170.324395 
L 346.739698 188.706832 
L 350.104523 197.340266 
L 353.469347 205.342515 
L 356.834171 212.5789 
L 360.198995 218.964232 
L 361.881407 221.824145 
L 363.563819 224.460478 
L 365.246231 226.875037 
L 366.928643 229.071851 
L 368.611055 231.056923 
L 370.293467 232.837974 
L 371.975879 234.424175 
L 373.658291 235.82588 
L 375.340704 237.054362 
L 377.023116 238.121564 
L 378.705528 239.039852 
L 380.38794 239.821794 
L 383.752764 241.026713 
L 387.117588 241.833663 
L 388.8 242.116364 
L 388.8 242.116364 
" style="fill:none;stroke:#3300ff;stroke-linecap:square;stroke-width:0.2;"/>
   </g>
   <g id="line2d_15">
    <defs>
     <path d="M 0 2.5 
C 0.663008 2.5 1.29895 2.236584 1.767767 1.767767 
C 2.236584 1.29895 2.5 0.663008 2.5 0 
C 2.5 -0.663008 2.236584 -1.29895 1.767767 -1.767767 
C 1.29895 -2.236584 0.663008 -2.5 0 -2.5 
C -0.663008 -2.5 -1.29895 -2.236584 -1.767767 -1.767767 
C -2.236584 -1.29895 -2.5 -0.663008 -2.5 0 
C -2.5 0.663008 -2.236584 1.29895 -1.767767 1.767767 
C -1.29895 2.236584 -0.663008 2.5 0 2.5 
z
" id="med3ac193a7" style="stroke:#ff0000;"/>
    </defs>
    <g clip-path="url(#pda85767de5)">
     <use style="fill:#ff0000;stroke:#ff0000;" x="206.566663" xlink:href="#med3ac193a7" y="136.141901"/>
     <use style="fill:#ff0000;stroke:#ff0000;" x="210.202775" xlink:href="#med3ac193a7" y="120.686365"/>
     <use style="fill:#ff0000;stroke:#ff0000;" x="216.686065" xlink:href="#med3ac193a7" y="96.884841"/>
     <use style="fill:#ff0000;stroke:#ff0000;" x="211.758074" xlink:href="#med3ac193a7" y="114.504151"/>
     <use style="fill:#ff0000;stroke:#ff0000;" x="310.026533" xlink:href="#med3ac193a7" y="115.508761"/>
     <use style="fill:#ff0000;stroke:#ff0000;" x="197.124779" xlink:href="#med3ac193a7" y="174.471629"/>
     <use style="fill:#ff0000;stroke:#ff0000;" x="258.432124" xlink:href="#med3ac193a7" y="115.508761"/>
     <use style="fill:#ff0000;stroke:#ff0000;" x="298.365836" xlink:href="#med3ac193a7" y="125.86397"/>
     <use style="fill:#ff0000;stroke:#ff0000;" x="144.834964" xlink:href="#med3ac193a7" y="169.371302"/>
     <use style="fill:#ff0000;stroke:#ff0000;" x="92.673111" xlink:href="#med3ac193a7" y="125.86397"/>
     <use style="fill:#ff0000;stroke:#ff0000;" x="219.645461" xlink:href="#med3ac193a7" y="87.534242"/>
     <use style="fill:#ff0000;stroke:#ff0000;" x="168.855118" xlink:href="#med3ac193a7" y="218.906293"/>
     <use style="fill:#ff0000;stroke:#ff0000;" x="126.092326" xlink:href="#med3ac193a7" y="134.055404"/>
     <use style="fill:#ff0000;stroke:#ff0000;" x="261.699352" xlink:href="#med3ac193a7" y="123.777473"/>
     <use style="fill:#ff0000;stroke:#ff0000;" x="95.85622" xlink:href="#med3ac193a7" y="125.86397"/>
     <use style="fill:#ff0000;stroke:#ff0000;" x="299.676475" xlink:href="#med3ac193a7" y="123.777473"/>
     <use style="fill:#ff0000;stroke:#ff0000;" x="97.570909" xlink:href="#med3ac193a7" y="123.777473"/>
     <use style="fill:#ff0000;stroke:#ff0000;" x="232.594465" xlink:href="#med3ac193a7" y="65.819215"/>
     <use style="fill:#ff0000;stroke:#ff0000;" x="212.621944" xlink:href="#med3ac193a7" y="111.413044"/>
     <use style="fill:#ff0000;stroke:#ff0000;" x="91.112134" xlink:href="#med3ac193a7" y="125.86397"/>
     <use style="fill:#ff0000;stroke:#ff0000;" x="209.774695" xlink:href="#med3ac193a7" y="122.772863"/>
     <use style="fill:#ff0000;stroke:#ff0000;" x="206.243889" xlink:href="#med3ac193a7" y="137.223788"/>
     <use style="fill:#ff0000;stroke:#ff0000;" x="204.469928" xlink:href="#med3ac193a7" y="144.48789"/>
     <use style="fill:#ff0000;stroke:#ff0000;" x="139.649871" xlink:href="#med3ac193a7" y="156.929596"/>
     <use style="fill:#ff0000;stroke:#ff0000;" x="110.662105" xlink:href="#med3ac193a7" y="123.777473"/>
     <use style="fill:#ff0000;stroke:#ff0000;" x="138.681358" xlink:href="#med3ac193a7" y="154.843099"/>
     <use style="fill:#ff0000;stroke:#ff0000;" x="171.874876" xlink:href="#med3ac193a7" y="218.906293"/>
     <use style="fill:#ff0000;stroke:#ff0000;" x="261.800887" xlink:href="#med3ac193a7" y="123.777473"/>
     <use style="fill:#ff0000;stroke:#ff0000;" x="94.373906" xlink:href="#med3ac193a7" y="123.777473"/>
     <use style="fill:#ff0000;stroke:#ff0000;" x="173.94379" xlink:href="#med3ac193a7" y="227.32956"/>
     <use style="fill:#ff0000;stroke:#ff0000;" x="93.892092" xlink:href="#med3ac193a7" y="124.782082"/>
     <use style="fill:#ff0000;stroke:#ff0000;" x="190.405541" xlink:href="#med3ac193a7" y="197.268544"/>
     <use style="fill:#ff0000;stroke:#ff0000;" x="258.355016" xlink:href="#med3ac193a7" y="115.508761"/>
     <use style="fill:#ff0000;stroke:#ff0000;" x="219.319952" xlink:href="#med3ac193a7" y="88.538852"/>
     <use style="fill:#ff0000;stroke:#ff0000;" x="92.075525" xlink:href="#med3ac193a7" y="125.86397"/>
     <use style="fill:#ff0000;stroke:#ff0000;" x="247.29263" xlink:href="#med3ac193a7" y="87.534242"/>
     <use style="fill:#ff0000;stroke:#ff0000;" x="96.93154" xlink:href="#med3ac193a7" y="124.782082"/>
     <use style="fill:#ff0000;stroke:#ff0000;" x="252.305563" xlink:href="#med3ac193a7" y="99.975948"/>
     <use style="fill:#ff0000;stroke:#ff0000;" x="165.299766" xlink:href="#med3ac193a7" y="214.887854"/>
     <use style="fill:#ff0000;stroke:#ff0000;" x="176.651229" xlink:href="#med3ac193a7" y="218.906293"/>
     <use style="fill:#ff0000;stroke:#ff0000;" x="208.409707" xlink:href="#med3ac193a7" y="127.950467"/>
     <use style="fill:#ff0000;stroke:#ff0000;" x="271.374294" xlink:href="#med3ac193a7" y="140.392173"/>
     <use style="fill:#ff0000;stroke:#ff0000;" x="205.481025" xlink:href="#med3ac193a7" y="140.392173"/>
     <use style="fill:#ff0000;stroke:#ff0000;" x="298.392966" xlink:href="#med3ac193a7" y="125.86397"/>
     <use style="fill:#ff0000;stroke:#ff0000;" x="131.709608" xlink:href="#med3ac193a7" y="141.396783"/>
     <use style="fill:#ff0000;stroke:#ff0000;" x="290.291189" xlink:href="#med3ac193a7" y="135.137291"/>
     <use style="fill:#ff0000;stroke:#ff0000;" x="102.344446" xlink:href="#med3ac193a7" y="123.777473"/>
     <use style="fill:#ff0000;stroke:#ff0000;" x="290.52834" xlink:href="#med3ac193a7" y="134.055404"/>
     <use style="fill:#ff0000;stroke:#ff0000;" x="195.723367" xlink:href="#med3ac193a7" y="179.649233"/>
     <use style="fill:#ff0000;stroke:#ff0000;" x="111.472997" xlink:href="#med3ac193a7" y="125.86397"/>
     <use style="fill:#ff0000;stroke:#ff0000;" x="259.718681" xlink:href="#med3ac193a7" y="119.604478"/>
     <use style="fill:#ff0000;stroke:#ff0000;" x="266.746433" xlink:href="#med3ac193a7" y="134.055404"/>
     <use style="fill:#ff0000;stroke:#ff0000;" x="148.446441" xlink:href="#med3ac193a7" y="178.644623"/>
     <use style="fill:#ff0000;stroke:#ff0000;" x="93.442908" xlink:href="#med3ac193a7" y="125.86397"/>
     <use style="fill:#ff0000;stroke:#ff0000;" x="257.04853" xlink:href="#med3ac193a7" y="112.417654"/>
     <use style="fill:#ff0000;stroke:#ff0000;" x="131.166178" xlink:href="#med3ac193a7" y="140.392173"/>
     <use style="fill:#ff0000;stroke:#ff0000;" x="199.472596" xlink:href="#med3ac193a7" y="165.12103"/>
     <use style="fill:#ff0000;stroke:#ff0000;" x="120.645058" xlink:href="#med3ac193a7" y="127.950467"/>
     <use style="fill:#ff0000;stroke:#ff0000;" x="219.541842" xlink:href="#med3ac193a7" y="87.534242"/>
     <use style="fill:#ff0000;stroke:#ff0000;" x="308.754606" xlink:href="#med3ac193a7" y="115.508761"/>
     <use style="fill:#ff0000;stroke:#ff0000;" x="216.912538" xlink:href="#med3ac193a7" y="95.802953"/>
     <use style="fill:#ff0000;stroke:#ff0000;" x="162.28094" xlink:href="#med3ac193a7" y="210.714859"/>
     <use style="fill:#ff0000;stroke:#ff0000;" x="97.698339" xlink:href="#med3ac193a7" y="127.950467"/>
     <use style="fill:#ff0000;stroke:#ff0000;" x="221.979325" xlink:href="#med3ac193a7" y="81.352028"/>
     <use style="fill:#ff0000;stroke:#ff0000;" x="91.140042" xlink:href="#med3ac193a7" y="125.86397"/>
     <use style="fill:#ff0000;stroke:#ff0000;" x="137.945345" xlink:href="#med3ac193a7" y="152.756601"/>
     <use style="fill:#ff0000;stroke:#ff0000;" x="172.463092" xlink:href="#med3ac193a7" y="222.074678"/>
     <use style="fill:#ff0000;stroke:#ff0000;" x="185.014353" xlink:href="#med3ac193a7" y="210.714859"/>
     <use style="fill:#ff0000;stroke:#ff0000;" x="131.247363" xlink:href="#med3ac193a7" y="140.392173"/>
     <use style="fill:#ff0000;stroke:#ff0000;" x="252.74493" xlink:href="#med3ac193a7" y="101.057835"/>
     <use style="fill:#ff0000;stroke:#ff0000;" x="174.373162" xlink:href="#med3ac193a7" y="218.906293"/>
     <use style="fill:#ff0000;stroke:#ff0000;" x="175.124105" xlink:href="#med3ac193a7" y="223.079288"/>
     <use style="fill:#ff0000;stroke:#ff0000;" x="262.231901" xlink:href="#med3ac193a7" y="124.782082"/>
     <use style="fill:#ff0000;stroke:#ff0000;" x="91.245134" xlink:href="#med3ac193a7" y="124.782082"/>
     <use style="fill:#ff0000;stroke:#ff0000;" x="100.721339" xlink:href="#med3ac193a7" y="127.950467"/>
     <use style="fill:#ff0000;stroke:#ff0000;" x="99.108571" xlink:href="#med3ac193a7" y="125.86397"/>
     <use style="fill:#ff0000;stroke:#ff0000;" x="187.04253" xlink:href="#med3ac193a7" y="206.541865"/>
     <use style="fill:#ff0000;stroke:#ff0000;" x="261.940862" xlink:href="#med3ac193a7" y="124.782082"/>
     <use style="fill:#ff0000;stroke:#ff0000;" x="211.037159" xlink:href="#med3ac193a7" y="117.517981"/>
     <use style="fill:#ff0000;stroke:#ff0000;" x="153.019837" xlink:href="#med3ac193a7" y="189.927164"/>
     <use style="fill:#ff0000;stroke:#ff0000;" x="158.502492" xlink:href="#med3ac193a7" y="202.523426"/>
     <use style="fill:#ff0000;stroke:#ff0000;" x="201.019484" xlink:href="#med3ac193a7" y="159.016093"/>
     <use style="fill:#ff0000;stroke:#ff0000;" x="278.719741" xlink:href="#med3ac193a7" y="144.48789"/>
     <use style="fill:#ff0000;stroke:#ff0000;" x="232.591638" xlink:href="#med3ac193a7" y="69.992209"/>
     <use style="fill:#ff0000;stroke:#ff0000;" x="109.876305" xlink:href="#med3ac193a7" y="125.86397"/>
     <use style="fill:#ff0000;stroke:#ff0000;" x="231.798897" xlink:href="#med3ac193a7" y="65.819215"/>
     <use style="fill:#ff0000;stroke:#ff0000;" x="202.637479" xlink:href="#med3ac193a7" y="152.756601"/>
     <use style="fill:#ff0000;stroke:#ff0000;" x="115.244185" xlink:href="#med3ac193a7" y="125.86397"/>
     <use style="fill:#ff0000;stroke:#ff0000;" x="95.263278" xlink:href="#med3ac193a7" y="125.86397"/>
     <use style="fill:#ff0000;stroke:#ff0000;" x="197.338472" xlink:href="#med3ac193a7" y="173.544297"/>
     <use style="fill:#ff0000;stroke:#ff0000;" x="186.319486" xlink:href="#med3ac193a7" y="207.546475"/>
     <use style="fill:#ff0000;stroke:#ff0000;" x="157.184894" xlink:href="#med3ac193a7" y="200.359651"/>
     <use style="fill:#ff0000;stroke:#ff0000;" x="206.4694" xlink:href="#med3ac193a7" y="136.141901"/>
     <use style="fill:#ff0000;stroke:#ff0000;" x="97.064809" xlink:href="#med3ac193a7" y="125.86397"/>
    </g>
   </g>
   <g id="patch_4">
    <path d="M 54 252 
L 54 34.56 
" style="fill:none;stroke:#000000;stroke-linecap:square;stroke-linejoin:miter;stroke-width:0.8;"/>
   </g>
   <g id="patch_5">
    <path d="M 388.8 252 
L 388.8 34.56 
" style="fill:none;stroke:#000000;stroke-linecap:square;stroke-linejoin:miter;stroke-width:0.8;"/>
   </g>
   <g id="patch_6">
    <path d="M 54 252 
L 388.8 252 
" style="fill:none;stroke:#000000;stroke-linecap:square;stroke-linejoin:miter;stroke-width:0.8;"/>
   </g>
   <g id="patch_7">
    <path d="M 54 34.56 
L 388.8 34.56 
" style="fill:none;stroke:#000000;stroke-linecap:square;stroke-linejoin:miter;stroke-width:0.8;"/>
   </g>
  </g>
 </g>
 <defs>
  <clipPath id="pda85767de5">
   <rect height="217.44" width="334.8" x="54" y="34.56"/>
  </clipPath>
 </defs>
</svg>
