<?xml version="1.0" encoding="utf-8" standalone="no"?>
<!DOCTYPE svg PUBLIC "-//W3C//DTD SVG 1.1//EN"
  "http://www.w3.org/Graphics/SVG/1.1/DTD/svg11.dtd">
<!-- Created with matplotlib (http://matplotlib.org/) -->
<svg height="432pt" version="1.1" viewBox="0 0 864 432" width="864pt" xmlns="http://www.w3.org/2000/svg" xmlns:xlink="http://www.w3.org/1999/xlink">
 <defs>
  <style type="text/css">
*{stroke-linecap:butt;stroke-linejoin:round;}
  </style>
 </defs>
 <g id="figure_1">
  <g id="patch_1">
   <path d="M 0 432 
L 864 432 
L 864 0 
L 0 0 
z
" style="fill:none;"/>
  </g>
  <g id="axes_1">
   <g id="patch_2">
    <path d="M 108 378 
L 777.6 378 
L 777.6 51.84 
L 108 51.84 
z
" style="fill:none;"/>
   </g>
   <g id="patch_3">
    <path clip-path="url(#p3207fb1596)" d="M 73.1808 74.995302 
L 76.895566 74.838673 
L 80.610332 74.668588 
L 84.325097 74.484643 
L 88.039863 74.286684 
L 91.754629 74.074919 
L 95.469395 73.850058 
L 99.184161 73.613511 
L 102.898927 73.367634 
L 106.613692 73.11606 
L 110.328458 72.864118 
L 114.043224 72.619384 
L 117.75799 72.392366 
L 121.472756 72.19739 
L 125.187522 72.053691 
L 128.902287 71.986779 
L 132.617053 72.030084 
L 136.331819 72.226936 
L 140.046585 72.63284 
L 143.761351 73.318002 
L 147.476117 74.369894 
L 151.190882 75.895479 
L 154.905648 78.022343 
L 158.620414 80.897439 
L 162.33518 84.681378 
L 166.049946 89.535189 
L 169.764712 95.595494 
L 173.479477 102.933643 
L 177.194243 111.495811 
L 180.909009 121.026446 
L 184.623775 130.990186 
L 188.338541 140.530578 
L 192.053307 148.534785 
L 195.768072 153.883303 
L 199.482838 155.880928 
L 203.197604 154.661497 
L 206.91237 151.2447 
L 210.627136 147.16069 
L 214.341902 143.904525 
L 218.056667 142.519691 
L 221.771433 143.424461 
L 225.486199 146.451828 
L 229.200965 151.023776 
L 232.915731 156.375357 
L 236.630496 161.757712 
L 240.345262 166.575616 
L 244.060028 170.449618 
L 247.774794 173.22603 
L 251.48956 174.966581 
L 255.204326 175.905005 
L 258.919091 176.333475 
L 262.633857 176.483064 
L 266.348623 176.491008 
L 270.063389 176.430872 
L 273.778155 176.34602 
L 277.492921 176.266839 
L 281.207686 176.215807 
L 284.922452 176.207157 
L 288.637218 176.2453 
L 292.351984 176.324031 
L 296.06675 176.427247 
L 299.781516 176.530979 
L 303.496281 176.605531 
L 307.211047 176.615274 
L 310.925813 176.512481 
L 314.640579 176.223047 
L 318.355345 175.631824 
L 322.070111 174.59484 
L 325.784876 173.004557 
L 329.499642 170.880173 
L 333.214408 168.422479 
L 336.929174 166.020533 
L 340.64394 164.228639 
L 344.358706 163.716269 
L 348.073471 165.185444 
L 351.788237 169.26065 
L 355.503003 176.369799 
L 359.217769 186.641262 
L 362.932535 199.838127 
L 366.647301 215.336723 
L 370.362066 232.132985 
L 374.076832 248.824215 
L 377.791598 263.459642 
L 381.506364 273.20266 
L 385.22113 274.738363 
L 388.935895 267.23782 
L 392.650661 253.323665 
L 396.365427 235.903322 
L 400.080193 216.915193 
L 403.794959 197.609376 
L 407.509725 178.826561 
L 411.22449 161.131642 
L 414.939256 144.882527 
L 418.654022 130.276301 
L 422.368788 117.387255 
L 426.083554 106.200484 
L 429.79832 96.641265 
L 433.513085 88.599736 
L 437.227851 81.950561 
L 440.942617 76.567659 
L 444.657383 72.334393 
L 448.372149 69.149738 
L 452.086915 66.930929 
L 455.80168 65.612902 
L 459.516446 65.144579 
L 463.231212 65.481638 
L 466.945978 66.574862 
L 470.660744 68.352566 
L 474.37551 70.695119 
L 478.090275 73.400838 
L 481.805041 76.1504 
L 485.519807 78.502232 
L 489.234573 79.991807 
L 492.949339 80.377608 
L 496.664105 79.865178 
L 500.37887 79.044057 
L 504.093636 78.613114 
L 507.808402 79.168759 
L 511.523168 81.130636 
L 515.237934 84.737938 
L 518.952699 90.063785 
L 522.667465 97.03159 
L 526.382231 105.4329 
L 530.096997 114.948864 
L 533.811763 125.176035 
L 537.526529 135.655029 
L 541.241294 145.898755 
L 544.95606 155.416287 
L 548.670826 163.73029 
L 552.385592 170.394276 
L 556.100358 175.035766 
L 559.815124 177.465816 
L 563.529889 177.825672 
L 567.244655 176.597471 
L 570.959421 174.401154 
L 574.674187 171.775605 
L 578.388953 169.09596 
L 582.103719 166.588018 
L 585.818484 164.368577 
L 589.53325 162.481589 
L 593.248016 160.924865 
L 596.962782 159.668857 
L 600.677548 158.669694 
L 604.392314 157.878068 
L 608.107079 157.245131 
L 611.821845 156.726233 
L 615.536611 156.283211 
L 619.251377 155.885741 
L 622.966143 155.512177 
L 626.680909 155.14996 
L 630.395674 154.795368 
L 634.11044 154.451847 
L 637.825206 154.125797 
L 641.539972 153.818595 
L 645.254738 153.514478 
L 648.969504 153.165867 
L 652.684269 152.681087 
L 656.399035 151.92282 
L 660.113801 150.726071 
L 663.828567 148.937553 
L 667.543333 146.464214 
L 671.258098 143.307243 
L 674.972864 139.563087 
L 678.68763 135.392748 
L 682.402396 130.976989 
L 686.117162 126.476824 
L 689.831928 122.010467 
L 693.546693 117.648746 
L 697.261459 113.424656 
L 700.976225 109.349781 
L 704.690991 105.430247 
L 708.405757 101.677204 
L 712.120523 98.110264 
L 715.835288 94.755312 
L 719.550054 91.639533 
L 723.26482 88.786303 
L 726.979586 86.211544 
L 730.694352 83.922068 
L 734.409118 81.915623 
L 738.123883 80.182112 
L 741.838649 78.705391 
L 745.553415 77.465192 
L 749.268181 76.438897 
L 752.982947 75.603012 
L 756.697713 74.934297 
L 760.412478 74.410561 
L 764.127244 74.011178 
L 767.84201 73.717374 
L 771.556776 73.512351 
L 775.271542 73.381275 
L 778.986308 73.311203 
L 782.701073 73.290944 
L 786.415839 73.310901 
L 790.130605 73.362906 
L 793.845371 73.440048 
L 797.560137 73.536516 
L 801.274903 73.647447 
L 804.989668 73.768799 
L 808.704434 73.897226 
L 812.4192 74.029974 
L 812.4192 323.249726 
L 808.704434 322.546851 
L 804.989668 321.781877 
L 801.274903 320.94826 
L 797.560137 320.038669 
L 793.845371 319.044916 
L 790.130605 317.957899 
L 786.415839 316.767557 
L 782.701073 315.462848 
L 778.986308 314.031758 
L 775.271542 312.461363 
L 771.556776 310.737948 
L 767.84201 308.847223 
L 764.127244 306.774646 
L 760.412478 304.505901 
L 756.697713 302.027554 
L 752.982947 299.327935 
L 749.268181 296.39827 
L 745.553415 293.234096 
L 741.838649 289.836953 
L 738.123883 286.216307 
L 734.409118 282.391591 
L 730.694352 278.394145 
L 726.979586 274.26869 
L 723.26482 270.073796 
L 719.550054 265.880662 
L 715.835288 261.76941 
L 712.120523 257.822275 
L 708.405757 254.113553 
L 704.690991 250.697265 
L 700.976225 247.594934 
L 697.261459 244.787296 
L 693.546693 242.214181 
L 689.831928 239.785361 
L 686.117162 237.40181 
L 682.402396 234.982622 
L 678.68763 232.489413 
L 674.972864 229.938996 
L 671.258098 227.397191 
L 667.543333 224.952675 
L 663.828567 222.679539 
L 660.113801 220.606579 
L 656.399035 218.711303 
L 652.684269 216.941758 
L 648.969504 215.250469 
L 645.254738 213.619759 
L 641.539972 212.068406 
L 637.825206 210.642799 
L 634.11044 209.401502 
L 630.395674 208.400906 
L 626.680909 207.685771 
L 622.966143 207.285103 
L 619.251377 207.211944 
L 615.536611 207.465143 
L 611.821845 208.031499 
L 608.107079 208.887285 
L 604.392314 209.998791 
L 600.677548 211.321991 
L 596.962782 212.80176 
L 593.248016 214.3713 
L 589.53325 215.952665 
L 585.818484 217.459576 
L 582.103719 218.804194 
L 578.388953 219.910231 
L 574.674187 220.735535 
L 570.959421 221.306845 
L 567.244655 221.762651 
L 563.529889 222.37511 
L 559.815124 223.480502 
L 556.100358 225.279118 
L 552.385592 227.655577 
L 548.670826 230.215635 
L 544.95606 232.458796 
L 541.241294 233.910175 
L 537.526529 234.178906 
L 533.811763 232.980683 
L 530.096997 230.148849 
L 526.382231 225.640305 
L 522.667465 219.535919 
L 518.952699 212.034735 
L 515.237934 203.442906 
L 511.523168 194.160257 
L 507.808402 184.669039 
L 504.093636 175.529767 
L 500.37887 167.384947 
L 496.664105 160.954507 
L 492.949339 156.969084 
L 489.234573 155.972209 
L 485.519807 158.063588 
L 481.805041 162.855575 
L 478.090275 169.71635 
L 474.37551 178.033074 
L 470.660744 187.325493 
L 466.945978 197.252285 
L 463.231212 207.582991 
L 459.516446 218.168162 
L 455.80168 228.915173 
L 452.086915 239.769252 
L 448.372149 250.698016 
L 444.657383 261.678083 
L 440.942617 272.682883 
L 437.227851 283.671159 
L 433.513085 294.576061 
L 429.79832 305.295028 
L 426.083554 315.681078 
L 422.368788 325.53652 
L 418.654022 334.61057 
L 414.939256 342.602855 
L 411.22449 349.175259 
L 407.509725 353.975259 
L 403.794959 356.675195 
L 400.080193 357.035433 
L 396.365427 355.009365 
L 392.650661 350.934019 
L 388.935895 345.885442 
L 385.22113 342.050259 
L 381.506364 341.567769 
L 377.791598 343.451016 
L 374.076832 344.616565 
L 370.362066 342.873618 
L 366.647301 337.304773 
L 362.932535 327.844881 
L 359.217769 314.997452 
L 355.503003 299.649445 
L 351.788237 282.906018 
L 348.073471 265.925086 
L 344.358706 249.763093 
L 340.64394 235.254065 
L 336.929174 222.940628 
L 333.214408 213.06341 
L 329.499642 205.599288 
L 325.784876 200.325332 
L 322.070111 196.882473 
L 318.355345 194.832732 
L 314.640579 193.730557 
L 310.925813 193.204632 
L 307.211047 193.000978 
L 303.496281 192.969248 
L 299.781516 193.024835 
L 296.06675 193.117122 
L 292.351984 193.211918 
L 288.637218 193.284823 
L 284.922452 193.320284 
L 281.207686 193.312449 
L 277.492921 193.265679 
L 273.778155 193.194296 
L 270.063389 193.122741 
L 266.348623 193.089343 
L 262.633857 193.159509 
L 258.919091 193.456711 
L 255.204326 194.215954 
L 251.48956 195.838278 
L 247.774794 198.880751 
L 244.060028 203.947454 
L 240.345262 211.560632 
L 236.630496 222.064347 
L 232.915731 235.520493 
L 229.200965 251.596602 
L 225.486199 269.505641 
L 221.771433 288.059072 
L 218.056667 305.857788 
L 214.341902 321.593865 
L 210.627136 334.384187 
L 206.91237 344.018156 
L 203.197604 350.990535 
L 199.482838 356.238598 
L 195.768072 360.660628 
L 192.053307 364.705673 
L 188.338541 368.316946 
L 184.623775 371.184662 
L 180.909009 373.029754 
L 177.194243 373.742125 
L 173.479477 373.382276 
L 169.764712 372.121495 
L 166.049946 370.176729 
L 162.33518 367.763569 
L 158.620414 365.070392 
L 154.905648 362.24858 
L 151.190882 359.41243 
L 147.476117 356.643749 
L 143.761351 353.99796 
L 140.046585 351.510082 
L 136.331819 349.199882 
L 132.617053 347.076034 
L 128.902287 345.139349 
L 125.187522 343.385232 
L 121.472756 341.805521 
L 117.75799 340.389853 
L 114.043224 339.126651 
L 110.328458 338.003838 
L 106.613692 337.009342 
L 102.898927 336.131432 
L 99.184161 335.358937 
L 95.469395 334.681381 
L 91.754629 334.089044 
L 88.039863 333.57299 
L 84.325097 333.125052 
L 80.610332 332.737804 
L 76.895566 332.404517 
L 73.1808 332.119111 
z
" style="fill:#cc3300;opacity:0.3;stroke:#cc3300;stroke-linejoin:miter;stroke-width:0.5;"/>
   </g>
   <g id="matplotlib.axis_1">
    <g id="xtick_1">
     <g id="line2d_1">
      <defs>
       <path d="M 0 0 
L 0 3.5 
" id="m4326b6c953" style="stroke:#000000;stroke-width:0.8;"/>
      </defs>
      <g>
       <use style="stroke:#000000;stroke-width:0.8;" x="108" xlink:href="#m4326b6c953" y="378"/>
      </g>
     </g>
     <g id="text_1">
      <!-- −20 -->
      <defs>
       <path d="M 10.59375 35.5 
L 73.1875 35.5 
L 73.1875 27.203125 
L 10.59375 27.203125 
z
" id="DejaVuSans-2212"/>
       <path d="M 19.1875 8.296875 
L 53.609375 8.296875 
L 53.609375 0 
L 7.328125 0 
L 7.328125 8.296875 
Q 12.9375 14.109375 22.625 23.890625 
Q 32.328125 33.6875 34.8125 36.53125 
Q 39.546875 41.84375 41.421875 45.53125 
Q 43.3125 49.21875 43.3125 52.78125 
Q 43.3125 58.59375 39.234375 62.25 
Q 35.15625 65.921875 28.609375 65.921875 
Q 23.96875 65.921875 18.8125 64.3125 
Q 13.671875 62.703125 7.8125 59.421875 
L 7.8125 69.390625 
Q 13.765625 71.78125 18.9375 73 
Q 24.125 74.21875 28.421875 74.21875 
Q 39.75 74.21875 46.484375 68.546875 
Q 53.21875 62.890625 53.21875 53.421875 
Q 53.21875 48.921875 51.53125 44.890625 
Q 49.859375 40.875 45.40625 35.40625 
Q 44.1875 33.984375 37.640625 27.21875 
Q 31.109375 20.453125 19.1875 8.296875 
z
" id="DejaVuSans-32"/>
       <path d="M 31.78125 66.40625 
Q 24.171875 66.40625 20.328125 58.90625 
Q 16.5 51.421875 16.5 36.375 
Q 16.5 21.390625 20.328125 13.890625 
Q 24.171875 6.390625 31.78125 6.390625 
Q 39.453125 6.390625 43.28125 13.890625 
Q 47.125 21.390625 47.125 36.375 
Q 47.125 51.421875 43.28125 58.90625 
Q 39.453125 66.40625 31.78125 66.40625 
z
M 31.78125 74.21875 
Q 44.046875 74.21875 50.515625 64.515625 
Q 56.984375 54.828125 56.984375 36.375 
Q 56.984375 17.96875 50.515625 8.265625 
Q 44.046875 -1.421875 31.78125 -1.421875 
Q 19.53125 -1.421875 13.0625 8.265625 
Q 6.59375 17.96875 6.59375 36.375 
Q 6.59375 54.828125 13.0625 64.515625 
Q 19.53125 74.21875 31.78125 74.21875 
z
" id="DejaVuSans-30"/>
      </defs>
      <g transform="translate(97.447656 392.598437)scale(0.1 -0.1)">
       <use xlink:href="#DejaVuSans-2212"/>
       <use x="83.789062" xlink:href="#DejaVuSans-32"/>
       <use x="147.412109" xlink:href="#DejaVuSans-30"/>
      </g>
     </g>
    </g>
    <g id="xtick_2">
     <g id="line2d_2">
      <g>
       <use style="stroke:#000000;stroke-width:0.8;" x="241.92" xlink:href="#m4326b6c953" y="378"/>
      </g>
     </g>
     <g id="text_2">
      <!-- 0 -->
      <g transform="translate(238.73875 392.598437)scale(0.1 -0.1)">
       <use xlink:href="#DejaVuSans-30"/>
      </g>
     </g>
    </g>
    <g id="xtick_3">
     <g id="line2d_3">
      <g>
       <use style="stroke:#000000;stroke-width:0.8;" x="375.84" xlink:href="#m4326b6c953" y="378"/>
      </g>
     </g>
     <g id="text_3">
      <!-- 20 -->
      <g transform="translate(369.4775 392.598437)scale(0.1 -0.1)">
       <use xlink:href="#DejaVuSans-32"/>
       <use x="63.623047" xlink:href="#DejaVuSans-30"/>
      </g>
     </g>
    </g>
    <g id="xtick_4">
     <g id="line2d_4">
      <g>
       <use style="stroke:#000000;stroke-width:0.8;" x="509.76" xlink:href="#m4326b6c953" y="378"/>
      </g>
     </g>
     <g id="text_4">
      <!-- 40 -->
      <defs>
       <path d="M 37.796875 64.3125 
L 12.890625 25.390625 
L 37.796875 25.390625 
z
M 35.203125 72.90625 
L 47.609375 72.90625 
L 47.609375 25.390625 
L 58.015625 25.390625 
L 58.015625 17.1875 
L 47.609375 17.1875 
L 47.609375 0 
L 37.796875 0 
L 37.796875 17.1875 
L 4.890625 17.1875 
L 4.890625 26.703125 
z
" id="DejaVuSans-34"/>
      </defs>
      <g transform="translate(503.3975 392.598437)scale(0.1 -0.1)">
       <use xlink:href="#DejaVuSans-34"/>
       <use x="63.623047" xlink:href="#DejaVuSans-30"/>
      </g>
     </g>
    </g>
    <g id="xtick_5">
     <g id="line2d_5">
      <g>
       <use style="stroke:#000000;stroke-width:0.8;" x="643.68" xlink:href="#m4326b6c953" y="378"/>
      </g>
     </g>
     <g id="text_5">
      <!-- 60 -->
      <defs>
       <path d="M 33.015625 40.375 
Q 26.375 40.375 22.484375 35.828125 
Q 18.609375 31.296875 18.609375 23.390625 
Q 18.609375 15.53125 22.484375 10.953125 
Q 26.375 6.390625 33.015625 6.390625 
Q 39.65625 6.390625 43.53125 10.953125 
Q 47.40625 15.53125 47.40625 23.390625 
Q 47.40625 31.296875 43.53125 35.828125 
Q 39.65625 40.375 33.015625 40.375 
z
M 52.59375 71.296875 
L 52.59375 62.3125 
Q 48.875 64.0625 45.09375 64.984375 
Q 41.3125 65.921875 37.59375 65.921875 
Q 27.828125 65.921875 22.671875 59.328125 
Q 17.53125 52.734375 16.796875 39.40625 
Q 19.671875 43.65625 24.015625 45.921875 
Q 28.375 48.1875 33.59375 48.1875 
Q 44.578125 48.1875 50.953125 41.515625 
Q 57.328125 34.859375 57.328125 23.390625 
Q 57.328125 12.15625 50.6875 5.359375 
Q 44.046875 -1.421875 33.015625 -1.421875 
Q 20.359375 -1.421875 13.671875 8.265625 
Q 6.984375 17.96875 6.984375 36.375 
Q 6.984375 53.65625 15.1875 63.9375 
Q 23.390625 74.21875 37.203125 74.21875 
Q 40.921875 74.21875 44.703125 73.484375 
Q 48.484375 72.75 52.59375 71.296875 
z
" id="DejaVuSans-36"/>
      </defs>
      <g transform="translate(637.3175 392.598437)scale(0.1 -0.1)">
       <use xlink:href="#DejaVuSans-36"/>
       <use x="63.623047" xlink:href="#DejaVuSans-30"/>
      </g>
     </g>
    </g>
    <g id="xtick_6">
     <g id="line2d_6">
      <g>
       <use style="stroke:#000000;stroke-width:0.8;" x="777.6" xlink:href="#m4326b6c953" y="378"/>
      </g>
     </g>
     <g id="text_6">
      <!-- 80 -->
      <defs>
       <path d="M 31.78125 34.625 
Q 24.75 34.625 20.71875 30.859375 
Q 16.703125 27.09375 16.703125 20.515625 
Q 16.703125 13.921875 20.71875 10.15625 
Q 24.75 6.390625 31.78125 6.390625 
Q 38.8125 6.390625 42.859375 10.171875 
Q 46.921875 13.96875 46.921875 20.515625 
Q 46.921875 27.09375 42.890625 30.859375 
Q 38.875 34.625 31.78125 34.625 
z
M 21.921875 38.8125 
Q 15.578125 40.375 12.03125 44.71875 
Q 8.5 49.078125 8.5 55.328125 
Q 8.5 64.0625 14.71875 69.140625 
Q 20.953125 74.21875 31.78125 74.21875 
Q 42.671875 74.21875 48.875 69.140625 
Q 55.078125 64.0625 55.078125 55.328125 
Q 55.078125 49.078125 51.53125 44.71875 
Q 48 40.375 41.703125 38.8125 
Q 48.828125 37.15625 52.796875 32.3125 
Q 56.78125 27.484375 56.78125 20.515625 
Q 56.78125 9.90625 50.3125 4.234375 
Q 43.84375 -1.421875 31.78125 -1.421875 
Q 19.734375 -1.421875 13.25 4.234375 
Q 6.78125 9.90625 6.78125 20.515625 
Q 6.78125 27.484375 10.78125 32.3125 
Q 14.796875 37.15625 21.921875 38.8125 
z
M 18.3125 54.390625 
Q 18.3125 48.734375 21.84375 45.5625 
Q 25.390625 42.390625 31.78125 42.390625 
Q 38.140625 42.390625 41.71875 45.5625 
Q 45.3125 48.734375 45.3125 54.390625 
Q 45.3125 60.0625 41.71875 63.234375 
Q 38.140625 66.40625 31.78125 66.40625 
Q 25.390625 66.40625 21.84375 63.234375 
Q 18.3125 60.0625 18.3125 54.390625 
z
" id="DejaVuSans-38"/>
      </defs>
      <g transform="translate(771.2375 392.598437)scale(0.1 -0.1)">
       <use xlink:href="#DejaVuSans-38"/>
       <use x="63.623047" xlink:href="#DejaVuSans-30"/>
      </g>
     </g>
    </g>
    <g id="text_7">
     <!-- time -->
     <defs>
      <path d="M 18.3125 70.21875 
L 18.3125 54.6875 
L 36.8125 54.6875 
L 36.8125 47.703125 
L 18.3125 47.703125 
L 18.3125 18.015625 
Q 18.3125 11.328125 20.140625 9.421875 
Q 21.96875 7.515625 27.59375 7.515625 
L 36.8125 7.515625 
L 36.8125 0 
L 27.59375 0 
Q 17.1875 0 13.234375 3.875 
Q 9.28125 7.765625 9.28125 18.015625 
L 9.28125 47.703125 
L 2.6875 47.703125 
L 2.6875 54.6875 
L 9.28125 54.6875 
L 9.28125 70.21875 
z
" id="DejaVuSans-74"/>
      <path d="M 9.421875 54.6875 
L 18.40625 54.6875 
L 18.40625 0 
L 9.421875 0 
z
M 9.421875 75.984375 
L 18.40625 75.984375 
L 18.40625 64.59375 
L 9.421875 64.59375 
z
" id="DejaVuSans-69"/>
      <path d="M 52 44.1875 
Q 55.375 50.25 60.0625 53.125 
Q 64.75 56 71.09375 56 
Q 79.640625 56 84.28125 50.015625 
Q 88.921875 44.046875 88.921875 33.015625 
L 88.921875 0 
L 79.890625 0 
L 79.890625 32.71875 
Q 79.890625 40.578125 77.09375 44.375 
Q 74.3125 48.1875 68.609375 48.1875 
Q 61.625 48.1875 57.5625 43.546875 
Q 53.515625 38.921875 53.515625 30.90625 
L 53.515625 0 
L 44.484375 0 
L 44.484375 32.71875 
Q 44.484375 40.625 41.703125 44.40625 
Q 38.921875 48.1875 33.109375 48.1875 
Q 26.21875 48.1875 22.15625 43.53125 
Q 18.109375 38.875 18.109375 30.90625 
L 18.109375 0 
L 9.078125 0 
L 9.078125 54.6875 
L 18.109375 54.6875 
L 18.109375 46.1875 
Q 21.1875 51.21875 25.484375 53.609375 
Q 29.78125 56 35.6875 56 
Q 41.65625 56 45.828125 52.96875 
Q 50 49.953125 52 44.1875 
z
" id="DejaVuSans-6d"/>
      <path d="M 56.203125 29.59375 
L 56.203125 25.203125 
L 14.890625 25.203125 
Q 15.484375 15.921875 20.484375 11.0625 
Q 25.484375 6.203125 34.421875 6.203125 
Q 39.59375 6.203125 44.453125 7.46875 
Q 49.3125 8.734375 54.109375 11.28125 
L 54.109375 2.78125 
Q 49.265625 0.734375 44.1875 -0.34375 
Q 39.109375 -1.421875 33.890625 -1.421875 
Q 20.796875 -1.421875 13.15625 6.1875 
Q 5.515625 13.8125 5.515625 26.8125 
Q 5.515625 40.234375 12.765625 48.109375 
Q 20.015625 56 32.328125 56 
Q 43.359375 56 49.78125 48.890625 
Q 56.203125 41.796875 56.203125 29.59375 
z
M 47.21875 32.234375 
Q 47.125 39.59375 43.09375 43.984375 
Q 39.0625 48.390625 32.421875 48.390625 
Q 24.90625 48.390625 20.390625 44.140625 
Q 15.875 39.890625 15.1875 32.171875 
z
" id="DejaVuSans-65"/>
     </defs>
     <g transform="translate(420.207812 413.875)scale(0.2 -0.2)">
      <use xlink:href="#DejaVuSans-74"/>
      <use x="39.208984" xlink:href="#DejaVuSans-69"/>
      <use x="66.992188" xlink:href="#DejaVuSans-6d"/>
      <use x="164.404297" xlink:href="#DejaVuSans-65"/>
     </g>
    </g>
   </g>
   <g id="matplotlib.axis_2">
    <g id="ytick_1">
     <g id="line2d_7">
      <defs>
       <path d="M 0 0 
L -3.5 0 
" id="m2a3c5a06b9" style="stroke:#000000;stroke-width:0.8;"/>
      </defs>
      <g>
       <use style="stroke:#000000;stroke-width:0.8;" x="108" xlink:href="#m2a3c5a06b9" y="345.384"/>
      </g>
     </g>
     <g id="text_8">
      <!-- −150 -->
      <defs>
       <path d="M 12.40625 8.296875 
L 28.515625 8.296875 
L 28.515625 63.921875 
L 10.984375 60.40625 
L 10.984375 69.390625 
L 28.421875 72.90625 
L 38.28125 72.90625 
L 38.28125 8.296875 
L 54.390625 8.296875 
L 54.390625 0 
L 12.40625 0 
z
" id="DejaVuSans-31"/>
       <path d="M 10.796875 72.90625 
L 49.515625 72.90625 
L 49.515625 64.59375 
L 19.828125 64.59375 
L 19.828125 46.734375 
Q 21.96875 47.46875 24.109375 47.828125 
Q 26.265625 48.1875 28.421875 48.1875 
Q 40.625 48.1875 47.75 41.5 
Q 54.890625 34.8125 54.890625 23.390625 
Q 54.890625 11.625 47.5625 5.09375 
Q 40.234375 -1.421875 26.90625 -1.421875 
Q 22.3125 -1.421875 17.546875 -0.640625 
Q 12.796875 0.140625 7.71875 1.703125 
L 7.71875 11.625 
Q 12.109375 9.234375 16.796875 8.0625 
Q 21.484375 6.890625 26.703125 6.890625 
Q 35.15625 6.890625 40.078125 11.328125 
Q 45.015625 15.765625 45.015625 23.390625 
Q 45.015625 31 40.078125 35.4375 
Q 35.15625 39.890625 26.703125 39.890625 
Q 22.75 39.890625 18.8125 39.015625 
Q 14.890625 38.140625 10.796875 36.28125 
z
" id="DejaVuSans-35"/>
      </defs>
      <g transform="translate(73.532813 349.183219)scale(0.1 -0.1)">
       <use xlink:href="#DejaVuSans-2212"/>
       <use x="83.789062" xlink:href="#DejaVuSans-31"/>
       <use x="147.412109" xlink:href="#DejaVuSans-35"/>
       <use x="211.035156" xlink:href="#DejaVuSans-30"/>
      </g>
     </g>
    </g>
    <g id="ytick_2">
     <g id="line2d_8">
      <g>
       <use style="stroke:#000000;stroke-width:0.8;" x="108" xlink:href="#m2a3c5a06b9" y="291.024"/>
      </g>
     </g>
     <g id="text_9">
      <!-- −100 -->
      <g transform="translate(73.532813 294.823219)scale(0.1 -0.1)">
       <use xlink:href="#DejaVuSans-2212"/>
       <use x="83.789062" xlink:href="#DejaVuSans-31"/>
       <use x="147.412109" xlink:href="#DejaVuSans-30"/>
       <use x="211.035156" xlink:href="#DejaVuSans-30"/>
      </g>
     </g>
    </g>
    <g id="ytick_3">
     <g id="line2d_9">
      <g>
       <use style="stroke:#000000;stroke-width:0.8;" x="108" xlink:href="#m2a3c5a06b9" y="236.664"/>
      </g>
     </g>
     <g id="text_10">
      <!-- −50 -->
      <g transform="translate(79.895313 240.463219)scale(0.1 -0.1)">
       <use xlink:href="#DejaVuSans-2212"/>
       <use x="83.789062" xlink:href="#DejaVuSans-35"/>
       <use x="147.412109" xlink:href="#DejaVuSans-30"/>
      </g>
     </g>
    </g>
    <g id="ytick_4">
     <g id="line2d_10">
      <g>
       <use style="stroke:#000000;stroke-width:0.8;" x="108" xlink:href="#m2a3c5a06b9" y="182.304"/>
      </g>
     </g>
     <g id="text_11">
      <!-- 0 -->
      <g transform="translate(94.6375 186.103219)scale(0.1 -0.1)">
       <use xlink:href="#DejaVuSans-30"/>
      </g>
     </g>
    </g>
    <g id="ytick_5">
     <g id="line2d_11">
      <g>
       <use style="stroke:#000000;stroke-width:0.8;" x="108" xlink:href="#m2a3c5a06b9" y="127.944"/>
      </g>
     </g>
     <g id="text_12">
      <!-- 50 -->
      <g transform="translate(88.275 131.743219)scale(0.1 -0.1)">
       <use xlink:href="#DejaVuSans-35"/>
       <use x="63.623047" xlink:href="#DejaVuSans-30"/>
      </g>
     </g>
    </g>
    <g id="ytick_6">
     <g id="line2d_12">
      <g>
       <use style="stroke:#000000;stroke-width:0.8;" x="108" xlink:href="#m2a3c5a06b9" y="73.584"/>
      </g>
     </g>
     <g id="text_13">
      <!-- 100 -->
      <g transform="translate(81.9125 77.383219)scale(0.1 -0.1)">
       <use xlink:href="#DejaVuSans-31"/>
       <use x="63.623047" xlink:href="#DejaVuSans-30"/>
       <use x="127.246094" xlink:href="#DejaVuSans-30"/>
      </g>
     </g>
    </g>
    <g id="text_14">
     <!-- acceleration/$g$ -->
     <defs>
      <path d="M 34.28125 27.484375 
Q 23.390625 27.484375 19.1875 25 
Q 14.984375 22.515625 14.984375 16.5 
Q 14.984375 11.71875 18.140625 8.90625 
Q 21.296875 6.109375 26.703125 6.109375 
Q 34.1875 6.109375 38.703125 11.40625 
Q 43.21875 16.703125 43.21875 25.484375 
L 43.21875 27.484375 
z
M 52.203125 31.203125 
L 52.203125 0 
L 43.21875 0 
L 43.21875 8.296875 
Q 40.140625 3.328125 35.546875 0.953125 
Q 30.953125 -1.421875 24.3125 -1.421875 
Q 15.921875 -1.421875 10.953125 3.296875 
Q 6 8.015625 6 15.921875 
Q 6 25.140625 12.171875 29.828125 
Q 18.359375 34.515625 30.609375 34.515625 
L 43.21875 34.515625 
L 43.21875 35.40625 
Q 43.21875 41.609375 39.140625 45 
Q 35.0625 48.390625 27.6875 48.390625 
Q 23 48.390625 18.546875 47.265625 
Q 14.109375 46.140625 10.015625 43.890625 
L 10.015625 52.203125 
Q 14.9375 54.109375 19.578125 55.046875 
Q 24.21875 56 28.609375 56 
Q 40.484375 56 46.34375 49.84375 
Q 52.203125 43.703125 52.203125 31.203125 
z
" id="DejaVuSans-61"/>
      <path d="M 48.78125 52.59375 
L 48.78125 44.1875 
Q 44.96875 46.296875 41.140625 47.34375 
Q 37.3125 48.390625 33.40625 48.390625 
Q 24.65625 48.390625 19.8125 42.84375 
Q 14.984375 37.3125 14.984375 27.296875 
Q 14.984375 17.28125 19.8125 11.734375 
Q 24.65625 6.203125 33.40625 6.203125 
Q 37.3125 6.203125 41.140625 7.25 
Q 44.96875 8.296875 48.78125 10.40625 
L 48.78125 2.09375 
Q 45.015625 0.34375 40.984375 -0.53125 
Q 36.96875 -1.421875 32.421875 -1.421875 
Q 20.0625 -1.421875 12.78125 6.34375 
Q 5.515625 14.109375 5.515625 27.296875 
Q 5.515625 40.671875 12.859375 48.328125 
Q 20.21875 56 33.015625 56 
Q 37.15625 56 41.109375 55.140625 
Q 45.0625 54.296875 48.78125 52.59375 
z
" id="DejaVuSans-63"/>
      <path d="M 9.421875 75.984375 
L 18.40625 75.984375 
L 18.40625 0 
L 9.421875 0 
z
" id="DejaVuSans-6c"/>
      <path d="M 41.109375 46.296875 
Q 39.59375 47.171875 37.8125 47.578125 
Q 36.03125 48 33.890625 48 
Q 26.265625 48 22.1875 43.046875 
Q 18.109375 38.09375 18.109375 28.8125 
L 18.109375 0 
L 9.078125 0 
L 9.078125 54.6875 
L 18.109375 54.6875 
L 18.109375 46.1875 
Q 20.953125 51.171875 25.484375 53.578125 
Q 30.03125 56 36.53125 56 
Q 37.453125 56 38.578125 55.875 
Q 39.703125 55.765625 41.0625 55.515625 
z
" id="DejaVuSans-72"/>
      <path d="M 30.609375 48.390625 
Q 23.390625 48.390625 19.1875 42.75 
Q 14.984375 37.109375 14.984375 27.296875 
Q 14.984375 17.484375 19.15625 11.84375 
Q 23.34375 6.203125 30.609375 6.203125 
Q 37.796875 6.203125 41.984375 11.859375 
Q 46.1875 17.53125 46.1875 27.296875 
Q 46.1875 37.015625 41.984375 42.703125 
Q 37.796875 48.390625 30.609375 48.390625 
z
M 30.609375 56 
Q 42.328125 56 49.015625 48.375 
Q 55.71875 40.765625 55.71875 27.296875 
Q 55.71875 13.875 49.015625 6.21875 
Q 42.328125 -1.421875 30.609375 -1.421875 
Q 18.84375 -1.421875 12.171875 6.21875 
Q 5.515625 13.875 5.515625 27.296875 
Q 5.515625 40.765625 12.171875 48.375 
Q 18.84375 56 30.609375 56 
z
" id="DejaVuSans-6f"/>
      <path d="M 54.890625 33.015625 
L 54.890625 0 
L 45.90625 0 
L 45.90625 32.71875 
Q 45.90625 40.484375 42.875 44.328125 
Q 39.84375 48.1875 33.796875 48.1875 
Q 26.515625 48.1875 22.3125 43.546875 
Q 18.109375 38.921875 18.109375 30.90625 
L 18.109375 0 
L 9.078125 0 
L 9.078125 54.6875 
L 18.109375 54.6875 
L 18.109375 46.1875 
Q 21.34375 51.125 25.703125 53.5625 
Q 30.078125 56 35.796875 56 
Q 45.21875 56 50.046875 50.171875 
Q 54.890625 44.34375 54.890625 33.015625 
z
" id="DejaVuSans-6e"/>
      <path d="M 25.390625 72.90625 
L 33.6875 72.90625 
L 8.296875 -9.28125 
L 0 -9.28125 
z
" id="DejaVuSans-2f"/>
      <path d="M 59.625 54.6875 
L 50.296875 6.78125 
Q 47.609375 -7.125 40.015625 -13.953125 
Q 32.421875 -20.796875 19.578125 -20.796875 
Q 14.84375 -20.796875 10.78125 -20.09375 
Q 6.734375 -19.390625 3.21875 -17.921875 
L 4.890625 -9.1875 
Q 8.203125 -11.328125 11.90625 -12.34375 
Q 15.625 -13.375 19.828125 -13.375 
Q 28.375 -13.375 33.859375 -8.703125 
Q 39.359375 -4.046875 41.109375 4.6875 
L 41.890625 8.796875 
Q 38.140625 4.5 33.15625 2.25 
Q 28.171875 0 22.40625 0 
Q 14.109375 0 9.34375 5.484375 
Q 4.59375 10.984375 4.59375 20.609375 
Q 4.59375 28.171875 7.46875 35.421875 
Q 10.359375 42.671875 15.578125 48.296875 
Q 19.046875 52 23.65625 54 
Q 28.265625 56 33.296875 56 
Q 38.8125 56 42.90625 53.4375 
Q 47.015625 50.875 49.03125 46.1875 
L 50.59375 54.6875 
z
M 46.09375 34.625 
Q 46.09375 41.265625 42.96875 44.875 
Q 39.84375 48.484375 34.078125 48.484375 
Q 30.515625 48.484375 27.296875 47.0625 
Q 24.078125 45.65625 21.78125 43.109375 
Q 18.0625 38.921875 15.984375 33.234375 
Q 13.921875 27.546875 13.921875 21.484375 
Q 13.921875 14.75 17.0625 11.125 
Q 20.21875 7.515625 26.125 7.515625 
Q 34.671875 7.515625 40.375 15.25 
Q 46.09375 23 46.09375 34.625 
z
" id="DejaVuSans-Oblique-67"/>
     </defs>
     <g transform="translate(65.332813 286.32)rotate(-90)scale(0.2 -0.2)">
      <use transform="translate(0 0.015625)" xlink:href="#DejaVuSans-61"/>
      <use transform="translate(61.279297 0.015625)" xlink:href="#DejaVuSans-63"/>
      <use transform="translate(116.259766 0.015625)" xlink:href="#DejaVuSans-63"/>
      <use transform="translate(171.240234 0.015625)" xlink:href="#DejaVuSans-65"/>
      <use transform="translate(232.763672 0.015625)" xlink:href="#DejaVuSans-6c"/>
      <use transform="translate(260.546875 0.015625)" xlink:href="#DejaVuSans-65"/>
      <use transform="translate(322.070312 0.015625)" xlink:href="#DejaVuSans-72"/>
      <use transform="translate(363.183594 0.015625)" xlink:href="#DejaVuSans-61"/>
      <use transform="translate(424.462891 0.015625)" xlink:href="#DejaVuSans-74"/>
      <use transform="translate(463.671875 0.015625)" xlink:href="#DejaVuSans-69"/>
      <use transform="translate(491.455078 0.015625)" xlink:href="#DejaVuSans-6f"/>
      <use transform="translate(552.636719 0.015625)" xlink:href="#DejaVuSans-6e"/>
      <use transform="translate(616.015625 0.015625)" xlink:href="#DejaVuSans-2f"/>
      <use transform="translate(649.707031 0.015625)" xlink:href="#DejaVuSans-Oblique-67"/>
     </g>
    </g>
   </g>
   <g id="line2d_13">
    <defs>
     <path d="M 0 2.5 
C 0.663008 2.5 1.29895 2.236584 1.767767 1.767767 
C 2.236584 1.29895 2.5 0.663008 2.5 0 
C 2.5 -0.663008 2.236584 -1.29895 1.767767 -1.767767 
C 1.29895 -2.236584 0.663008 -2.5 0 -2.5 
C -0.663008 -2.5 -1.29895 -2.236584 -1.767767 -1.767767 
C -2.236584 -1.29895 -2.5 -0.663008 -2.5 0 
C -2.5 0.663008 -2.236584 1.29895 -1.767767 1.767767 
C -1.29895 2.236584 -0.663008 2.5 0 2.5 
z
" id="m6105f749be" style="stroke:#ff0000;"/>
    </defs>
    <g clip-path="url(#p3207fb1596)">
     <use style="fill:#ff0000;stroke:#ff0000;" x="477.6192" xlink:href="#m6105f749be" y="199.6992"/>
     <use style="fill:#ff0000;stroke:#ff0000;" x="426.7296" xlink:href="#m6105f749be" y="177.9552"/>
     <use style="fill:#ff0000;stroke:#ff0000;" x="480.2976" xlink:href="#m6105f749be" y="144.46944"/>
     <use style="fill:#ff0000;stroke:#ff0000;" x="430.7472" xlink:href="#m6105f749be" y="169.2576"/>
     <use style="fill:#ff0000;stroke:#ff0000;" x="627.6096" xlink:href="#m6105f749be" y="170.67096"/>
     <use style="fill:#ff0000;stroke:#ff0000;" x="418.6944" xlink:href="#m6105f749be" y="253.62432"/>
     <use style="fill:#ff0000;stroke:#ff0000;" x="553.9536" xlink:href="#m6105f749be" y="170.67096"/>
     <use style="fill:#ff0000;stroke:#ff0000;" x="610.2" xlink:href="#m6105f749be" y="185.23944"/>
     <use style="fill:#ff0000;stroke:#ff0000;" x="353.0736" xlink:href="#m6105f749be" y="246.4488"/>
     <use style="fill:#ff0000;stroke:#ff0000;" x="296.8272" xlink:href="#m6105f749be" y="185.23944"/>
     <use style="fill:#ff0000;stroke:#ff0000;" x="461.5488" xlink:href="#m6105f749be" y="131.31432"/>
     <use style="fill:#ff0000;stroke:#ff0000;" x="370.4832" xlink:href="#m6105f749be" y="316.13832"/>
     <use style="fill:#ff0000;stroke:#ff0000;" x="339.6816" xlink:href="#m6105f749be" y="196.76376"/>
     <use style="fill:#ff0000;stroke:#ff0000;" x="528.5088" xlink:href="#m6105f749be" y="182.304"/>
     <use style="fill:#ff0000;stroke:#ff0000;" x="306.2016" xlink:href="#m6105f749be" y="185.23944"/>
     <use style="fill:#ff0000;stroke:#ff0000;" x="580.7376" xlink:href="#m6105f749be" y="182.304"/>
     <use style="fill:#ff0000;stroke:#ff0000;" x="257.9904" xlink:href="#m6105f749be" y="182.304"/>
     <use style="fill:#ff0000;stroke:#ff0000;" x="474.9408" xlink:href="#m6105f749be" y="100.764"/>
     <use style="fill:#ff0000;stroke:#ff0000;" x="465.5664" xlink:href="#m6105f749be" y="164.9088"/>
     <use style="fill:#ff0000;stroke:#ff0000;" x="283.4352" xlink:href="#m6105f749be" y="185.23944"/>
     <use style="fill:#ff0000;stroke:#ff0000;" x="472.2624" xlink:href="#m6105f749be" y="180.89064"/>
     <use style="fill:#ff0000;stroke:#ff0000;" x="438.7824" xlink:href="#m6105f749be" y="201.22128"/>
     <use style="fill:#ff0000;stroke:#ff0000;" x="413.3376" xlink:href="#m6105f749be" y="211.44096"/>
     <use style="fill:#ff0000;stroke:#ff0000;" x="349.056" xlink:href="#m6105f749be" y="228.94488"/>
     <use style="fill:#ff0000;stroke:#ff0000;" x="334.3248" xlink:href="#m6105f749be" y="182.304"/>
     <use style="fill:#ff0000;stroke:#ff0000;" x="346.3776" xlink:href="#m6105f749be" y="226.00944"/>
     <use style="fill:#ff0000;stroke:#ff0000;" x="377.1792" xlink:href="#m6105f749be" y="316.13832"/>
     <use style="fill:#ff0000;stroke:#ff0000;" x="539.2224" xlink:href="#m6105f749be" y="182.304"/>
     <use style="fill:#ff0000;stroke:#ff0000;" x="266.0256" xlink:href="#m6105f749be" y="182.304"/>
     <use style="fill:#ff0000;stroke:#ff0000;" x="383.8752" xlink:href="#m6105f749be" y="327.9888"/>
     <use style="fill:#ff0000;stroke:#ff0000;" x="300.8448" xlink:href="#m6105f749be" y="183.71736"/>
     <use style="fill:#ff0000;stroke:#ff0000;" x="403.9632" xlink:href="#m6105f749be" y="285.69672"/>
     <use style="fill:#ff0000;stroke:#ff0000;" x="543.24" xlink:href="#m6105f749be" y="170.67096"/>
     <use style="fill:#ff0000;stroke:#ff0000;" x="468.2448" xlink:href="#m6105f749be" y="132.72768"/>
     <use style="fill:#ff0000;stroke:#ff0000;" x="294.1488" xlink:href="#m6105f749be" y="185.23944"/>
     <use style="fill:#ff0000;stroke:#ff0000;" x="496.368" xlink:href="#m6105f749be" y="131.31432"/>
     <use style="fill:#ff0000;stroke:#ff0000;" x="259.3296" xlink:href="#m6105f749be" y="183.71736"/>
     <use style="fill:#ff0000;stroke:#ff0000;" x="520.4736" xlink:href="#m6105f749be" y="148.81824"/>
     <use style="fill:#ff0000;stroke:#ff0000;" x="378.5184" xlink:href="#m6105f749be" y="310.48488"/>
     <use style="fill:#ff0000;stroke:#ff0000;" x="397.2672" xlink:href="#m6105f749be" y="316.13832"/>
     <use style="fill:#ff0000;stroke:#ff0000;" x="416.016" xlink:href="#m6105f749be" y="188.17488"/>
     <use style="fill:#ff0000;stroke:#ff0000;" x="509.76" xlink:href="#m6105f749be" y="205.6788"/>
     <use style="fill:#ff0000;stroke:#ff0000;" x="432.0864" xlink:href="#m6105f749be" y="205.6788"/>
     <use style="fill:#ff0000;stroke:#ff0000;" x="612.8784" xlink:href="#m6105f749be" y="185.23944"/>
     <use style="fill:#ff0000;stroke:#ff0000;" x="345.0384" xlink:href="#m6105f749be" y="207.09216"/>
     <use style="fill:#ff0000;stroke:#ff0000;" x="598.1472" xlink:href="#m6105f749be" y="198.28584"/>
     <use style="fill:#ff0000;stroke:#ff0000;" x="318.2544" xlink:href="#m6105f749be" y="182.304"/>
     <use style="fill:#ff0000;stroke:#ff0000;" x="568.6848" xlink:href="#m6105f749be" y="196.76376"/>
     <use style="fill:#ff0000;stroke:#ff0000;" x="411.9984" xlink:href="#m6105f749be" y="260.90856"/>
     <use style="fill:#ff0000;stroke:#ff0000;" x="332.9856" xlink:href="#m6105f749be" y="185.23944"/>
     <use style="fill:#ff0000;stroke:#ff0000;" x="504.4032" xlink:href="#m6105f749be" y="176.43312"/>
     <use style="fill:#ff0000;stroke:#ff0000;" x="512.4384" xlink:href="#m6105f749be" y="196.76376"/>
     <use style="fill:#ff0000;stroke:#ff0000;" x="354.4128" xlink:href="#m6105f749be" y="259.4952"/>
     <use style="fill:#ff0000;stroke:#ff0000;" x="268.704" xlink:href="#m6105f749be" y="185.23944"/>
     <use style="fill:#ff0000;stroke:#ff0000;" x="529.848" xlink:href="#m6105f749be" y="166.32216"/>
     <use style="fill:#ff0000;stroke:#ff0000;" x="347.7168" xlink:href="#m6105f749be" y="205.6788"/>
     <use style="fill:#ff0000;stroke:#ff0000;" x="406.6416" xlink:href="#m6105f749be" y="240.4692"/>
     <use style="fill:#ff0000;stroke:#ff0000;" x="351.7344" xlink:href="#m6105f749be" y="188.17488"/>
     <use style="fill:#ff0000;stroke:#ff0000;" x="433.4256" xlink:href="#m6105f749be" y="131.31432"/>
     <use style="fill:#ff0000;stroke:#ff0000;" x="590.112" xlink:href="#m6105f749be" y="170.67096"/>
     <use style="fill:#ff0000;stroke:#ff0000;" x="444.1392" xlink:href="#m6105f749be" y="142.94736"/>
     <use style="fill:#ff0000;stroke:#ff0000;" x="366.4656" xlink:href="#m6105f749be" y="304.614"/>
     <use style="fill:#ff0000;stroke:#ff0000;" x="310.2192" xlink:href="#m6105f749be" y="188.17488"/>
     <use style="fill:#ff0000;stroke:#ff0000;" x="456.192" xlink:href="#m6105f749be" y="122.61672"/>
     <use style="fill:#ff0000;stroke:#ff0000;" x="286.1136" xlink:href="#m6105f749be" y="185.23944"/>
     <use style="fill:#ff0000;stroke:#ff0000;" x="359.7696" xlink:href="#m6105f749be" y="223.074"/>
     <use style="fill:#ff0000;stroke:#ff0000;" x="373.1616" xlink:href="#m6105f749be" y="320.59584"/>
     <use style="fill:#ff0000;stroke:#ff0000;" x="402.624" xlink:href="#m6105f749be" y="304.614"/>
     <use style="fill:#ff0000;stroke:#ff0000;" x="350.3952" xlink:href="#m6105f749be" y="205.6788"/>
     <use style="fill:#ff0000;stroke:#ff0000;" x="525.8304" xlink:href="#m6105f749be" y="150.34032"/>
     <use style="fill:#ff0000;stroke:#ff0000;" x="389.232" xlink:href="#m6105f749be" y="316.13832"/>
     <use style="fill:#ff0000;stroke:#ff0000;" x="398.6064" xlink:href="#m6105f749be" y="322.0092"/>
     <use style="fill:#ff0000;stroke:#ff0000;" x="536.544" xlink:href="#m6105f749be" y="183.71736"/>
     <use style="fill:#ff0000;stroke:#ff0000;" x="287.4528" xlink:href="#m6105f749be" y="183.71736"/>
     <use style="fill:#ff0000;stroke:#ff0000;" x="315.576" xlink:href="#m6105f749be" y="188.17488"/>
     <use style="fill:#ff0000;stroke:#ff0000;" x="312.8976" xlink:href="#m6105f749be" y="185.23944"/>
     <use style="fill:#ff0000;stroke:#ff0000;" x="417.3552" xlink:href="#m6105f749be" y="298.74312"/>
     <use style="fill:#ff0000;stroke:#ff0000;" x="505.7424" xlink:href="#m6105f749be" y="183.71736"/>
     <use style="fill:#ff0000;stroke:#ff0000;" x="450.8352" xlink:href="#m6105f749be" y="173.49768"/>
     <use style="fill:#ff0000;stroke:#ff0000;" x="371.8224" xlink:href="#m6105f749be" y="275.36832"/>
     <use style="fill:#ff0000;stroke:#ff0000;" x="385.2144" xlink:href="#m6105f749be" y="293.08968"/>
     <use style="fill:#ff0000;stroke:#ff0000;" x="424.0512" xlink:href="#m6105f749be" y="231.88032"/>
     <use style="fill:#ff0000;stroke:#ff0000;" x="561.9888" xlink:href="#m6105f749be" y="211.44096"/>
     <use style="fill:#ff0000;stroke:#ff0000;" x="478.9584" xlink:href="#m6105f749be" y="106.63488"/>
     <use style="fill:#ff0000;stroke:#ff0000;" x="330.3072" xlink:href="#m6105f749be" y="185.23944"/>
     <use style="fill:#ff0000;stroke:#ff0000;" x="449.496" xlink:href="#m6105f749be" y="100.764"/>
     <use style="fill:#ff0000;stroke:#ff0000;" x="484.3152" xlink:href="#m6105f749be" y="223.074"/>
     <use style="fill:#ff0000;stroke:#ff0000;" x="341.0208" xlink:href="#m6105f749be" y="185.23944"/>
     <use style="fill:#ff0000;stroke:#ff0000;" x="263.3472" xlink:href="#m6105f749be" y="185.23944"/>
     <use style="fill:#ff0000;stroke:#ff0000;" x="409.32" xlink:href="#m6105f749be" y="252.31968"/>
     <use style="fill:#ff0000;stroke:#ff0000;" x="387.8928" xlink:href="#m6105f749be" y="300.15648"/>
     <use style="fill:#ff0000;stroke:#ff0000;" x="361.1088" xlink:href="#m6105f749be" y="290.04552"/>
     <use style="fill:#ff0000;stroke:#ff0000;" x="422.712" xlink:href="#m6105f749be" y="199.6992"/>
     <use style="fill:#ff0000;stroke:#ff0000;" x="308.88" xlink:href="#m6105f749be" y="185.23944"/>
    </g>
   </g>
   <g id="line2d_14">
    <path clip-path="url(#p3207fb1596)" d="M 73.1808 203.557207 
L 84.325097 203.804847 
L 95.469395 204.26572 
L 102.898927 204.749533 
L 110.328458 205.433978 
L 117.75799 206.39111 
L 125.187522 207.719461 
L 128.902287 208.563064 
L 132.617053 209.553059 
L 136.331819 210.713409 
L 140.046585 212.071461 
L 143.761351 213.657981 
L 147.476117 215.506822 
L 151.190882 217.653955 
L 154.905648 220.135462 
L 158.620414 222.983916 
L 162.33518 226.222474 
L 166.049946 229.855959 
L 169.764712 233.858494 
L 177.194243 242.618968 
L 180.909009 247.0281 
L 184.623775 251.087424 
L 188.338541 254.423762 
L 192.053307 256.620229 
L 195.768072 257.271965 
L 199.482838 256.059763 
L 203.197604 252.826016 
L 206.91237 247.631428 
L 210.627136 240.772439 
L 214.341902 232.749195 
L 221.771433 215.741767 
L 225.486199 207.978734 
L 229.200965 201.310189 
L 232.915731 195.947925 
L 236.630496 191.911029 
L 240.345262 189.068124 
L 244.060028 187.198536 
L 247.774794 186.053391 
L 251.48956 185.40243 
L 255.204326 185.06048 
L 262.633857 184.821287 
L 281.207686 184.764128 
L 310.925813 184.858556 
L 314.640579 184.976802 
L 318.355345 185.232278 
L 322.070111 185.738656 
L 325.784876 186.664945 
L 329.499642 188.239731 
L 333.214408 190.742944 
L 336.929174 194.480581 
L 340.64394 199.741352 
L 344.358706 206.739681 
L 348.073471 215.555265 
L 351.788237 226.083334 
L 355.503003 238.009622 
L 366.647301 276.320748 
L 370.362066 287.503301 
L 374.076832 296.72039 
L 377.791598 303.455329 
L 381.506364 307.385215 
L 385.22113 308.394311 
L 388.935895 306.561631 
L 392.650661 302.128842 
L 396.365427 295.456343 
L 400.080193 286.975313 
L 403.794959 277.142286 
L 407.509725 266.40091 
L 422.368788 221.461888 
L 426.083554 210.940781 
L 429.79832 200.968146 
L 433.513085 191.587898 
L 437.227851 182.81086 
L 440.942617 174.625271 
L 444.657383 167.006238 
L 448.372149 159.923877 
L 452.086915 153.350091 
L 455.80168 147.264037 
L 459.516446 141.656371 
L 463.231212 136.532314 
L 466.945978 131.913574 
L 470.660744 127.839029 
L 474.37551 124.364096 
L 478.090275 121.558594 
L 481.805041 119.502988 
L 485.519807 118.28291 
L 489.234573 117.982008 
L 492.949339 118.673346 
L 496.664105 120.409843 
L 500.37887 123.214502 
L 504.093636 127.071441 
L 507.808402 131.918899 
L 511.523168 137.645447 
L 515.237934 144.090422 
L 518.952699 151.04926 
L 530.096997 172.548856 
L 533.811763 179.078359 
L 537.526529 184.916967 
L 541.241294 189.904465 
L 544.95606 193.937542 
L 548.670826 196.972962 
L 552.385592 199.024926 
L 556.100358 200.157442 
L 559.815124 200.473159 
L 563.529889 200.100391 
L 567.244655 199.180061 
L 570.959421 197.854 
L 574.674187 196.25557 
L 589.53325 189.217127 
L 593.248016 187.648082 
L 596.962782 186.235309 
L 600.677548 184.995843 
L 604.392314 183.93843 
L 608.107079 183.066208 
L 611.821845 182.378866 
L 615.536611 181.874177 
L 619.251377 181.548842 
L 622.966143 181.39864 
L 626.680909 181.417866 
L 630.395674 181.598137 
L 634.11044 181.926675 
L 641.539972 182.943501 
L 652.684269 184.811422 
L 656.399035 185.317062 
L 660.113801 185.666325 
L 663.828567 185.808546 
L 667.543333 185.708444 
L 671.258098 185.352217 
L 674.972864 184.751042 
L 678.68763 183.94108 
L 686.117162 181.939317 
L 693.546693 179.931463 
L 697.261459 179.105976 
L 700.976225 178.472357 
L 704.690991 178.063756 
L 708.405757 177.895379 
L 712.120523 177.966269 
L 715.835288 178.262361 
L 719.550054 178.760098 
L 723.26482 179.43005 
L 730.694352 181.158107 
L 738.123883 183.19921 
L 756.697713 188.480926 
L 764.127244 190.392912 
L 771.556776 192.125149 
L 778.986308 193.671481 
L 786.415839 195.039229 
L 793.845371 196.242482 
L 804.989668 197.775338 
L 812.4192 198.63985 
L 812.4192 198.63985 
" style="fill:none;stroke:#3300ff;stroke-linecap:square;stroke-width:2;"/>
   </g>
   <g id="line2d_15">
    <path clip-path="url(#p3207fb1596)" d="M 73.1808 74.995302 
L 88.039863 74.286684 
L 102.898927 73.367634 
L 121.472756 72.19739 
L 128.902287 71.986779 
L 132.617053 72.030084 
L 136.331819 72.226936 
L 140.046585 72.63284 
L 143.761351 73.318002 
L 147.476117 74.369894 
L 151.190882 75.895479 
L 154.905648 78.022343 
L 158.620414 80.897439 
L 162.33518 84.681378 
L 166.049946 89.535189 
L 169.764712 95.595494 
L 173.479477 102.933643 
L 177.194243 111.495811 
L 180.909009 121.026446 
L 184.623775 130.990186 
L 188.338541 140.530578 
L 192.053307 148.534785 
L 195.768072 153.883303 
L 199.482838 155.880928 
L 203.197604 154.661497 
L 206.91237 151.2447 
L 210.627136 147.16069 
L 214.341902 143.904525 
L 218.056667 142.519691 
L 221.771433 143.424461 
L 225.486199 146.451828 
L 229.200965 151.023776 
L 236.630496 161.757712 
L 240.345262 166.575616 
L 244.060028 170.449618 
L 247.774794 173.22603 
L 251.48956 174.966581 
L 255.204326 175.905005 
L 258.919091 176.333475 
L 262.633857 176.483064 
L 270.063389 176.430872 
L 281.207686 176.215807 
L 288.637218 176.2453 
L 307.211047 176.615274 
L 310.925813 176.512481 
L 314.640579 176.223047 
L 318.355345 175.631824 
L 322.070111 174.59484 
L 325.784876 173.004557 
L 329.499642 170.880173 
L 336.929174 166.020533 
L 340.64394 164.228639 
L 344.358706 163.716269 
L 348.073471 165.185444 
L 351.788237 169.26065 
L 355.503003 176.369799 
L 359.217769 186.641262 
L 362.932535 199.838127 
L 366.647301 215.336723 
L 374.076832 248.824215 
L 377.791598 263.459642 
L 381.506364 273.20266 
L 385.22113 274.738363 
L 388.935895 267.23782 
L 392.650661 253.323665 
L 396.365427 235.903322 
L 407.509725 178.826561 
L 411.22449 161.131642 
L 414.939256 144.882527 
L 418.654022 130.276301 
L 422.368788 117.387255 
L 426.083554 106.200484 
L 429.79832 96.641265 
L 433.513085 88.599736 
L 437.227851 81.950561 
L 440.942617 76.567659 
L 444.657383 72.334393 
L 448.372149 69.149738 
L 452.086915 66.930929 
L 455.80168 65.612902 
L 459.516446 65.144579 
L 463.231212 65.481638 
L 466.945978 66.574862 
L 470.660744 68.352566 
L 474.37551 70.695119 
L 481.805041 76.1504 
L 485.519807 78.502232 
L 489.234573 79.991807 
L 492.949339 80.377608 
L 496.664105 79.865178 
L 500.37887 79.044057 
L 504.093636 78.613114 
L 507.808402 79.168759 
L 511.523168 81.130636 
L 515.237934 84.737938 
L 518.952699 90.063785 
L 522.667465 97.03159 
L 526.382231 105.4329 
L 530.096997 114.948864 
L 541.241294 145.898755 
L 544.95606 155.416287 
L 548.670826 163.73029 
L 552.385592 170.394276 
L 556.100358 175.035766 
L 559.815124 177.465816 
L 563.529889 177.825672 
L 567.244655 176.597471 
L 570.959421 174.401154 
L 582.103719 166.588018 
L 585.818484 164.368577 
L 589.53325 162.481589 
L 593.248016 160.924865 
L 596.962782 159.668857 
L 600.677548 158.669694 
L 604.392314 157.878068 
L 608.107079 157.245131 
L 615.536611 156.283211 
L 630.395674 154.795368 
L 652.684269 152.681087 
L 656.399035 151.92282 
L 660.113801 150.726071 
L 663.828567 148.937553 
L 667.543333 146.464214 
L 671.258098 143.307243 
L 674.972864 139.563087 
L 678.68763 135.392748 
L 697.261459 113.424656 
L 704.690991 105.430247 
L 708.405757 101.677204 
L 712.120523 98.110264 
L 715.835288 94.755312 
L 719.550054 91.639533 
L 723.26482 88.786303 
L 726.979586 86.211544 
L 730.694352 83.922068 
L 734.409118 81.915623 
L 738.123883 80.182112 
L 741.838649 78.705391 
L 745.553415 77.465192 
L 749.268181 76.438897 
L 752.982947 75.603012 
L 756.697713 74.934297 
L 760.412478 74.410561 
L 767.84201 73.717374 
L 775.271542 73.381275 
L 782.701073 73.290944 
L 793.845371 73.440048 
L 812.4192 74.029974 
L 812.4192 74.029974 
" style="fill:none;stroke:#3300ff;stroke-linecap:square;stroke-width:0.2;"/>
   </g>
   <g id="line2d_16">
    <path clip-path="url(#p3207fb1596)" d="M 73.1808 332.119111 
L 80.610332 332.737804 
L 88.039863 333.57299 
L 95.469395 334.681381 
L 102.898927 336.131432 
L 106.613692 337.009342 
L 110.328458 338.003838 
L 114.043224 339.126651 
L 117.75799 340.389853 
L 121.472756 341.805521 
L 125.187522 343.385232 
L 128.902287 345.139349 
L 132.617053 347.076034 
L 136.331819 349.199882 
L 140.046585 351.510082 
L 143.761351 353.99796 
L 151.190882 359.41243 
L 158.620414 365.070392 
L 162.33518 367.763569 
L 166.049946 370.176729 
L 169.764712 372.121495 
L 173.479477 373.382276 
L 177.194243 373.742125 
L 180.909009 373.029754 
L 184.623775 371.184662 
L 188.338541 368.316946 
L 192.053307 364.705673 
L 195.768072 360.660628 
L 199.482838 356.238598 
L 203.197604 350.990535 
L 206.91237 344.018156 
L 210.627136 334.384187 
L 214.341902 321.593865 
L 218.056667 305.857788 
L 221.771433 288.059072 
L 225.486199 269.505641 
L 229.200965 251.596602 
L 232.915731 235.520493 
L 236.630496 222.064347 
L 240.345262 211.560632 
L 244.060028 203.947454 
L 247.774794 198.880751 
L 251.48956 195.838278 
L 255.204326 194.215954 
L 258.919091 193.456711 
L 262.633857 193.159509 
L 270.063389 193.122741 
L 284.922452 193.320284 
L 296.06675 193.117122 
L 303.496281 192.969248 
L 307.211047 193.000978 
L 310.925813 193.204632 
L 314.640579 193.730557 
L 318.355345 194.832732 
L 322.070111 196.882473 
L 325.784876 200.325332 
L 329.499642 205.599288 
L 333.214408 213.06341 
L 336.929174 222.940628 
L 340.64394 235.254065 
L 344.358706 249.763093 
L 348.073471 265.925086 
L 355.503003 299.649445 
L 359.217769 314.997452 
L 362.932535 327.844881 
L 366.647301 337.304773 
L 370.362066 342.873618 
L 374.076832 344.616565 
L 377.791598 343.451016 
L 381.506364 341.567769 
L 385.22113 342.050259 
L 388.935895 345.885442 
L 392.650661 350.934019 
L 396.365427 355.009365 
L 400.080193 357.035433 
L 403.794959 356.675195 
L 407.509725 353.975259 
L 411.22449 349.175259 
L 414.939256 342.602855 
L 418.654022 334.61057 
L 422.368788 325.53652 
L 426.083554 315.681078 
L 429.79832 305.295028 
L 437.227851 283.671159 
L 455.80168 228.915173 
L 463.231212 207.582991 
L 466.945978 197.252285 
L 470.660744 187.325493 
L 474.37551 178.033074 
L 478.090275 169.71635 
L 481.805041 162.855575 
L 485.519807 158.063588 
L 489.234573 155.972209 
L 492.949339 156.969084 
L 496.664105 160.954507 
L 500.37887 167.384947 
L 504.093636 175.529767 
L 507.808402 184.669039 
L 515.237934 203.442906 
L 518.952699 212.034735 
L 522.667465 219.535919 
L 526.382231 225.640305 
L 530.096997 230.148849 
L 533.811763 232.980683 
L 537.526529 234.178906 
L 541.241294 233.910175 
L 544.95606 232.458796 
L 548.670826 230.215635 
L 552.385592 227.655577 
L 556.100358 225.279118 
L 559.815124 223.480502 
L 563.529889 222.37511 
L 567.244655 221.762651 
L 570.959421 221.306845 
L 574.674187 220.735535 
L 578.388953 219.910231 
L 582.103719 218.804194 
L 585.818484 217.459576 
L 593.248016 214.3713 
L 600.677548 211.321991 
L 604.392314 209.998791 
L 608.107079 208.887285 
L 611.821845 208.031499 
L 615.536611 207.465143 
L 619.251377 207.211944 
L 622.966143 207.285103 
L 626.680909 207.685771 
L 630.395674 208.400906 
L 634.11044 209.401502 
L 637.825206 210.642799 
L 641.539972 212.068406 
L 648.969504 215.250469 
L 656.399035 218.711303 
L 660.113801 220.606579 
L 663.828567 222.679539 
L 667.543333 224.952675 
L 674.972864 229.938996 
L 682.402396 234.982622 
L 697.261459 244.787296 
L 700.976225 247.594934 
L 704.690991 250.697265 
L 708.405757 254.113553 
L 712.120523 257.822275 
L 715.835288 261.76941 
L 726.979586 274.26869 
L 734.409118 282.391591 
L 738.123883 286.216307 
L 741.838649 289.836953 
L 745.553415 293.234096 
L 749.268181 296.39827 
L 752.982947 299.327935 
L 756.697713 302.027554 
L 760.412478 304.505901 
L 764.127244 306.774646 
L 767.84201 308.847223 
L 771.556776 310.737948 
L 775.271542 312.461363 
L 778.986308 314.031758 
L 782.701073 315.462848 
L 790.130605 317.957899 
L 797.560137 320.038669 
L 804.989668 321.781877 
L 812.4192 323.249726 
L 812.4192 323.249726 
" style="fill:none;stroke:#3300ff;stroke-linecap:square;stroke-width:0.2;"/>
   </g>
   <g id="patch_4">
    <path d="M 108 378 
L 108 51.84 
" style="fill:none;stroke:#000000;stroke-linecap:square;stroke-linejoin:miter;stroke-width:0.8;"/>
   </g>
   <g id="patch_5">
    <path d="M 777.6 378 
L 777.6 51.84 
" style="fill:none;stroke:#000000;stroke-linecap:square;stroke-linejoin:miter;stroke-width:0.8;"/>
   </g>
   <g id="patch_6">
    <path d="M 108 378 
L 777.6 378 
" style="fill:none;stroke:#000000;stroke-linecap:square;stroke-linejoin:miter;stroke-width:0.8;"/>
   </g>
   <g id="patch_7">
    <path d="M 108 51.84 
L 777.6 51.84 
" style="fill:none;stroke:#000000;stroke-linecap:square;stroke-linejoin:miter;stroke-width:0.8;"/>
   </g>
  </g>
 </g>
 <defs>
  <clipPath id="p3207fb1596">
   <rect height="326.16" width="669.6" x="108" y="51.84"/>
  </clipPath>
 </defs>
</svg>
