<?xml version="1.0" encoding="utf-8" standalone="no"?>
<!DOCTYPE svg PUBLIC "-//W3C//DTD SVG 1.1//EN"
  "http://www.w3.org/Graphics/SVG/1.1/DTD/svg11.dtd">
<!-- Created with matplotlib (http://matplotlib.org/) -->
<svg height="288pt" version="1.1" viewBox="0 0 432 288" width="432pt" xmlns="http://www.w3.org/2000/svg" xmlns:xlink="http://www.w3.org/1999/xlink">
 <defs>
  <style type="text/css">
*{stroke-linecap:butt;stroke-linejoin:round;}
  </style>
 </defs>
 <g id="figure_1">
  <g id="patch_1">
   <path d="M 0 288 
L 432 288 
L 432 0 
L 0 0 
z
" style="fill:none;"/>
  </g>
  <g id="axes_1">
   <g id="patch_2">
    <path d="M 54 252 
L 388.8 252 
L 388.8 34.56 
L 54 34.56 
z
" style="fill:none;"/>
   </g>
   <g id="patch_3">
    <path clip-path="url(#pd4ec77cd7c)" d="M 54 178.744251 
L 55.682412 178.379277 
L 57.364824 178.001239 
L 59.047236 177.610206 
L 60.729648 177.206254 
L 62.41206 176.789465 
L 64.094472 176.359926 
L 65.776884 175.91773 
L 67.459296 175.462977 
L 69.141709 174.995772 
L 70.824121 174.516228 
L 72.506533 174.024461 
L 74.188945 173.520596 
L 75.871357 173.004762 
L 77.553769 172.477094 
L 79.236181 171.937734 
L 80.918593 171.386829 
L 82.601005 170.824533 
L 84.283417 170.251002 
L 85.965829 169.666402 
L 87.648241 169.070901 
L 89.330653 168.464674 
L 91.013065 167.847899 
L 92.695477 167.220761 
L 94.377889 166.583448 
L 96.060302 165.936154 
L 97.742714 165.279074 
L 99.425126 164.61241 
L 101.107538 163.936367 
L 102.78995 163.251152 
L 104.472362 162.556977 
L 106.154774 161.854055 
L 107.837186 161.142603 
L 109.519598 160.42284 
L 111.20201 159.694987 
L 112.884422 158.959267 
L 114.566834 158.215905 
L 116.249246 157.465126 
L 117.931658 156.707158 
L 119.61407 155.942227 
L 121.296482 155.170562 
L 122.978894 154.392392 
L 124.661307 153.607946 
L 126.343719 152.817451 
L 128.026131 152.021137 
L 129.708543 151.21923 
L 131.390955 150.411957 
L 133.073367 149.599545 
L 134.755779 148.782218 
L 136.438191 147.9602 
L 138.120603 147.133712 
L 139.803015 146.302976 
L 141.485427 145.468209 
L 143.167839 144.629629 
L 144.850251 143.78745 
L 146.532663 142.941885 
L 148.215075 142.093145 
L 149.897487 141.241438 
L 151.579899 140.386969 
L 153.262312 139.529943 
L 154.944724 138.670561 
L 156.627136 137.80902 
L 158.309548 136.945516 
L 159.99196 136.080244 
L 161.674372 135.213392 
L 163.356784 134.34515 
L 165.039196 133.475703 
L 166.721608 132.605231 
L 168.40402 131.733917 
L 170.086432 130.861935 
L 171.768844 129.989461 
L 173.451256 129.116665 
L 175.133668 128.243717 
L 176.81608 127.370782 
L 178.498492 126.498023 
L 180.180905 125.625601 
L 181.863317 124.753673 
L 183.545729 123.882394 
L 185.228141 123.011917 
L 186.910553 122.142392 
L 188.592965 121.273964 
L 190.275377 120.406779 
L 191.957789 119.540978 
L 193.640201 118.676701 
L 195.322613 117.814084 
L 197.005025 116.95326 
L 198.687437 116.094362 
L 200.369849 115.237519 
L 202.052261 114.382855 
L 203.734673 113.530497 
L 205.417085 112.680564 
L 207.099497 111.833176 
L 208.78191 110.988449 
L 210.464322 110.146497 
L 212.146734 109.307433 
L 213.829146 108.471363 
L 215.511558 107.638397 
L 217.19397 106.808637 
L 218.876382 105.982185 
L 220.558794 105.15914 
L 222.241206 104.3396 
L 223.923618 103.523658 
L 225.60603 102.711407 
L 227.288442 101.902935 
L 228.970854 101.09833 
L 230.653266 100.297675 
L 232.335678 99.501054 
L 234.01809 98.708543 
L 235.700503 97.920222 
L 237.382915 97.136162 
L 239.065327 96.356436 
L 240.747739 95.581113 
L 242.430151 94.810258 
L 244.112563 94.043934 
L 245.794975 93.282203 
L 247.477387 92.525121 
L 249.159799 91.772744 
L 250.842211 91.025123 
L 252.524623 90.282308 
L 254.207035 89.544345 
L 255.889447 88.811276 
L 257.571859 88.083143 
L 259.254271 87.359981 
L 260.936683 86.641826 
L 262.619095 85.928707 
L 264.301508 85.220651 
L 265.98392 84.517684 
L 267.666332 83.819826 
L 269.348744 83.127095 
L 271.031156 82.439505 
L 272.713568 81.757066 
L 274.39598 81.079786 
L 276.078392 80.407669 
L 277.760804 79.740714 
L 279.443216 79.07892 
L 281.125628 78.422278 
L 282.80804 77.770779 
L 284.490452 77.124407 
L 286.172864 76.483146 
L 287.855276 75.846973 
L 289.537688 75.215863 
L 291.220101 74.589788 
L 292.902513 73.968715 
L 294.584925 73.352607 
L 296.267337 72.741424 
L 297.949749 72.135123 
L 299.632161 71.533656 
L 301.314573 70.936973 
L 302.996985 70.345019 
L 304.679397 69.757736 
L 306.361809 69.175062 
L 308.044221 68.596933 
L 309.726633 68.02328 
L 311.409045 67.454033 
L 313.091457 66.889116 
L 314.773869 66.328453 
L 316.456281 65.771962 
L 318.138693 65.219561 
L 319.821106 64.671163 
L 321.503518 64.126681 
L 323.18593 63.586023 
L 324.868342 63.049097 
L 326.550754 62.515808 
L 328.233166 61.986058 
L 329.915578 61.459751 
L 331.59799 60.936785 
L 333.280402 60.41706 
L 334.962814 59.900474 
L 336.645226 59.386923 
L 338.327638 58.876305 
L 340.01005 58.368515 
L 341.692462 57.863448 
L 343.374874 57.361002 
L 345.057286 56.861073 
L 346.739698 56.363557 
L 348.422111 55.868352 
L 350.104523 55.375356 
L 351.786935 54.88447 
L 353.469347 54.395594 
L 355.151759 53.908633 
L 356.834171 53.423489 
L 358.516583 52.940071 
L 360.198995 52.458287 
L 361.881407 51.978048 
L 363.563819 51.499269 
L 365.246231 51.021867 
L 366.928643 50.545761 
L 368.611055 50.070873 
L 370.293467 49.59713 
L 371.975879 49.12446 
L 373.658291 48.652797 
L 375.340704 48.182074 
L 377.023116 47.712233 
L 378.705528 47.243214 
L 380.38794 46.774966 
L 382.070352 46.307437 
L 383.752764 45.840581 
L 385.435176 45.374354 
L 387.117588 44.908718 
L 388.8 44.443636 
L 388.8 105.524222 
L 387.117588 105.461976 
L 385.435176 105.414081 
L 383.752764 105.38053 
L 382.070352 105.361309 
L 380.38794 105.356398 
L 378.705528 105.365773 
L 377.023116 105.389403 
L 375.340704 105.42725 
L 373.658291 105.479272 
L 371.975879 105.545421 
L 370.293467 105.625642 
L 368.611055 105.719875 
L 366.928643 105.828055 
L 365.246231 105.95011 
L 363.563819 106.085963 
L 361.881407 106.235533 
L 360.198995 106.398732 
L 358.516583 106.575467 
L 356.834171 106.765641 
L 355.151759 106.969151 
L 353.469347 107.18589 
L 351.786935 107.415747 
L 350.104523 107.658606 
L 348.422111 107.914347 
L 346.739698 108.182846 
L 345.057286 108.463975 
L 343.374874 108.757604 
L 341.692462 109.063598 
L 340.01005 109.381819 
L 338.327638 109.712129 
L 336.645226 110.054384 
L 334.962814 110.408439 
L 333.280402 110.774146 
L 331.59799 111.151358 
L 329.915578 111.539923 
L 328.233166 111.93969 
L 326.550754 112.350504 
L 324.868342 112.772211 
L 323.18593 113.204656 
L 321.503518 113.647682 
L 319.821106 114.101135 
L 318.138693 114.564855 
L 316.456281 115.038688 
L 314.773869 115.522475 
L 313.091457 116.01606 
L 311.409045 116.519287 
L 309.726633 117.032 
L 308.044221 117.554043 
L 306.361809 118.085261 
L 304.679397 118.625501 
L 302.996985 119.174609 
L 301.314573 119.732433 
L 299.632161 120.298823 
L 297.949749 120.873628 
L 296.267337 121.456699 
L 294.584925 122.047889 
L 292.902513 122.647051 
L 291.220101 123.25404 
L 289.537688 123.868713 
L 287.855276 124.490928 
L 286.172864 125.120542 
L 284.490452 125.757417 
L 282.80804 126.401415 
L 281.125628 127.052398 
L 279.443216 127.710232 
L 277.760804 128.374782 
L 276.078392 129.045916 
L 274.39598 129.723503 
L 272.713568 130.407413 
L 271.031156 131.097518 
L 269.348744 131.793691 
L 267.666332 132.495806 
L 265.98392 133.203738 
L 264.301508 133.917366 
L 262.619095 134.636566 
L 260.936683 135.36122 
L 259.254271 136.091207 
L 257.571859 136.826409 
L 255.889447 137.56671 
L 254.207035 138.311995 
L 252.524623 139.062148 
L 250.842211 139.817057 
L 249.159799 140.57661 
L 247.477387 141.340695 
L 245.794975 142.109203 
L 244.112563 142.882026 
L 242.430151 143.659055 
L 240.747739 144.440184 
L 239.065327 145.225307 
L 237.382915 146.014321 
L 235.700503 146.807121 
L 234.01809 147.603606 
L 232.335678 148.403675 
L 230.653266 149.207227 
L 228.970854 150.014164 
L 227.288442 150.824387 
L 225.60603 151.6378 
L 223.923618 152.454307 
L 222.241206 153.273814 
L 220.558794 154.096228 
L 218.876382 154.921455 
L 217.19397 155.749407 
L 215.511558 156.579992 
L 213.829146 157.413122 
L 212.146734 158.248711 
L 210.464322 159.086672 
L 208.78191 159.926921 
L 207.099497 160.769376 
L 205.417085 161.613954 
L 203.734673 162.460576 
L 202.052261 163.309163 
L 200.369849 164.159639 
L 198.687437 165.011928 
L 197.005025 165.865956 
L 195.322613 166.721652 
L 193.640201 167.578946 
L 191.957789 168.437769 
L 190.275377 169.298056 
L 188.592965 170.159742 
L 186.910553 171.022765 
L 185.228141 171.887065 
L 183.545729 172.752583 
L 181.863317 173.619264 
L 180.180905 174.487055 
L 178.498492 175.355903 
L 176.81608 176.22576 
L 175.133668 177.09658 
L 173.451256 177.968318 
L 171.768844 178.840933 
L 170.086432 179.714386 
L 168.40402 180.588641 
L 166.721608 181.463664 
L 165.039196 182.339424 
L 163.356784 183.215893 
L 161.674372 184.093046 
L 159.99196 184.97086 
L 158.309548 185.849315 
L 156.627136 186.728395 
L 154.944724 187.608085 
L 153.262312 188.488375 
L 151.579899 189.369255 
L 149.897487 190.250721 
L 148.215075 191.13277 
L 146.532663 192.015403 
L 144.850251 192.898622 
L 143.167839 193.782433 
L 141.485427 194.666845 
L 139.803015 195.551869 
L 138.120603 196.437519 
L 136.438191 197.323811 
L 134.755779 198.210764 
L 133.073367 199.098398 
L 131.390955 199.986739 
L 129.708543 200.87581 
L 128.026131 201.765639 
L 126.343719 202.656255 
L 124.661307 203.547689 
L 122.978894 204.439973 
L 121.296482 205.333142 
L 119.61407 206.22723 
L 117.931658 207.122272 
L 116.249246 208.018306 
L 114.566834 208.915369 
L 112.884422 209.813499 
L 111.20201 210.712732 
L 109.519598 211.613108 
L 107.837186 212.514662 
L 106.154774 213.417433 
L 104.472362 214.321457 
L 102.78995 215.226768 
L 101.107538 216.1334 
L 99.425126 217.041387 
L 97.742714 217.950758 
L 96.060302 218.861544 
L 94.377889 219.77377 
L 92.695477 220.687462 
L 91.013065 221.602642 
L 89.330653 222.519329 
L 87.648241 223.437539 
L 85.965829 224.357287 
L 84.283417 225.278582 
L 82.601005 226.201431 
L 80.918593 227.125839 
L 79.236181 228.051804 
L 77.553769 228.979323 
L 75.871357 229.908389 
L 74.188945 230.838989 
L 72.506533 231.771109 
L 70.824121 232.70473 
L 69.141709 233.639828 
L 67.459296 234.576375 
L 65.776884 235.514341 
L 64.094472 236.45369 
L 62.41206 237.394382 
L 60.729648 238.336376 
L 59.047236 239.279624 
L 57.364824 240.224074 
L 55.682412 241.169674 
L 54 242.116364 
z
" style="fill:#cc3300;opacity:0.3;stroke:#cc3300;stroke-linejoin:miter;stroke-width:0.5;"/>
   </g>
   <g id="matplotlib.axis_1">
    <g id="xtick_1">
     <g id="line2d_1">
      <defs>
       <path d="M 0 0 
L 0 3.5 
" id="mf9307b9006" style="stroke:#000000;stroke-width:0.8;"/>
      </defs>
      <g>
       <use style="stroke:#000000;stroke-width:0.8;" x="64.8" xlink:href="#mf9307b9006" y="252"/>
      </g>
     </g>
     <g id="text_1">
      <!-- 1880 -->
      <defs>
       <path d="M 12.40625 8.296875 
L 28.515625 8.296875 
L 28.515625 63.921875 
L 10.984375 60.40625 
L 10.984375 69.390625 
L 28.421875 72.90625 
L 38.28125 72.90625 
L 38.28125 8.296875 
L 54.390625 8.296875 
L 54.390625 0 
L 12.40625 0 
z
" id="DejaVuSans-31"/>
       <path d="M 31.78125 34.625 
Q 24.75 34.625 20.71875 30.859375 
Q 16.703125 27.09375 16.703125 20.515625 
Q 16.703125 13.921875 20.71875 10.15625 
Q 24.75 6.390625 31.78125 6.390625 
Q 38.8125 6.390625 42.859375 10.171875 
Q 46.921875 13.96875 46.921875 20.515625 
Q 46.921875 27.09375 42.890625 30.859375 
Q 38.875 34.625 31.78125 34.625 
z
M 21.921875 38.8125 
Q 15.578125 40.375 12.03125 44.71875 
Q 8.5 49.078125 8.5 55.328125 
Q 8.5 64.0625 14.71875 69.140625 
Q 20.953125 74.21875 31.78125 74.21875 
Q 42.671875 74.21875 48.875 69.140625 
Q 55.078125 64.0625 55.078125 55.328125 
Q 55.078125 49.078125 51.53125 44.71875 
Q 48 40.375 41.703125 38.8125 
Q 48.828125 37.15625 52.796875 32.3125 
Q 56.78125 27.484375 56.78125 20.515625 
Q 56.78125 9.90625 50.3125 4.234375 
Q 43.84375 -1.421875 31.78125 -1.421875 
Q 19.734375 -1.421875 13.25 4.234375 
Q 6.78125 9.90625 6.78125 20.515625 
Q 6.78125 27.484375 10.78125 32.3125 
Q 14.796875 37.15625 21.921875 38.8125 
z
M 18.3125 54.390625 
Q 18.3125 48.734375 21.84375 45.5625 
Q 25.390625 42.390625 31.78125 42.390625 
Q 38.140625 42.390625 41.71875 45.5625 
Q 45.3125 48.734375 45.3125 54.390625 
Q 45.3125 60.0625 41.71875 63.234375 
Q 38.140625 66.40625 31.78125 66.40625 
Q 25.390625 66.40625 21.84375 63.234375 
Q 18.3125 60.0625 18.3125 54.390625 
z
" id="DejaVuSans-38"/>
       <path d="M 31.78125 66.40625 
Q 24.171875 66.40625 20.328125 58.90625 
Q 16.5 51.421875 16.5 36.375 
Q 16.5 21.390625 20.328125 13.890625 
Q 24.171875 6.390625 31.78125 6.390625 
Q 39.453125 6.390625 43.28125 13.890625 
Q 47.125 21.390625 47.125 36.375 
Q 47.125 51.421875 43.28125 58.90625 
Q 39.453125 66.40625 31.78125 66.40625 
z
M 31.78125 74.21875 
Q 44.046875 74.21875 50.515625 64.515625 
Q 56.984375 54.828125 56.984375 36.375 
Q 56.984375 17.96875 50.515625 8.265625 
Q 44.046875 -1.421875 31.78125 -1.421875 
Q 19.53125 -1.421875 13.0625 8.265625 
Q 6.59375 17.96875 6.59375 36.375 
Q 6.59375 54.828125 13.0625 64.515625 
Q 19.53125 74.21875 31.78125 74.21875 
z
" id="DejaVuSans-30"/>
      </defs>
      <g transform="translate(52.075 266.598437)scale(0.1 -0.1)">
       <use xlink:href="#DejaVuSans-31"/>
       <use x="63.623047" xlink:href="#DejaVuSans-38"/>
       <use x="127.246094" xlink:href="#DejaVuSans-38"/>
       <use x="190.869141" xlink:href="#DejaVuSans-30"/>
      </g>
     </g>
    </g>
    <g id="xtick_2">
     <g id="line2d_2">
      <g>
       <use style="stroke:#000000;stroke-width:0.8;" x="108" xlink:href="#mf9307b9006" y="252"/>
      </g>
     </g>
     <g id="text_2">
      <!-- 1900 -->
      <defs>
       <path d="M 10.984375 1.515625 
L 10.984375 10.5 
Q 14.703125 8.734375 18.5 7.8125 
Q 22.3125 6.890625 25.984375 6.890625 
Q 35.75 6.890625 40.890625 13.453125 
Q 46.046875 20.015625 46.78125 33.40625 
Q 43.953125 29.203125 39.59375 26.953125 
Q 35.25 24.703125 29.984375 24.703125 
Q 19.046875 24.703125 12.671875 31.3125 
Q 6.296875 37.9375 6.296875 49.421875 
Q 6.296875 60.640625 12.9375 67.421875 
Q 19.578125 74.21875 30.609375 74.21875 
Q 43.265625 74.21875 49.921875 64.515625 
Q 56.59375 54.828125 56.59375 36.375 
Q 56.59375 19.140625 48.40625 8.859375 
Q 40.234375 -1.421875 26.421875 -1.421875 
Q 22.703125 -1.421875 18.890625 -0.6875 
Q 15.09375 0.046875 10.984375 1.515625 
z
M 30.609375 32.421875 
Q 37.25 32.421875 41.125 36.953125 
Q 45.015625 41.5 45.015625 49.421875 
Q 45.015625 57.28125 41.125 61.84375 
Q 37.25 66.40625 30.609375 66.40625 
Q 23.96875 66.40625 20.09375 61.84375 
Q 16.21875 57.28125 16.21875 49.421875 
Q 16.21875 41.5 20.09375 36.953125 
Q 23.96875 32.421875 30.609375 32.421875 
z
" id="DejaVuSans-39"/>
      </defs>
      <g transform="translate(95.275 266.598437)scale(0.1 -0.1)">
       <use xlink:href="#DejaVuSans-31"/>
       <use x="63.623047" xlink:href="#DejaVuSans-39"/>
       <use x="127.246094" xlink:href="#DejaVuSans-30"/>
       <use x="190.869141" xlink:href="#DejaVuSans-30"/>
      </g>
     </g>
    </g>
    <g id="xtick_3">
     <g id="line2d_3">
      <g>
       <use style="stroke:#000000;stroke-width:0.8;" x="151.2" xlink:href="#mf9307b9006" y="252"/>
      </g>
     </g>
     <g id="text_3">
      <!-- 1920 -->
      <defs>
       <path d="M 19.1875 8.296875 
L 53.609375 8.296875 
L 53.609375 0 
L 7.328125 0 
L 7.328125 8.296875 
Q 12.9375 14.109375 22.625 23.890625 
Q 32.328125 33.6875 34.8125 36.53125 
Q 39.546875 41.84375 41.421875 45.53125 
Q 43.3125 49.21875 43.3125 52.78125 
Q 43.3125 58.59375 39.234375 62.25 
Q 35.15625 65.921875 28.609375 65.921875 
Q 23.96875 65.921875 18.8125 64.3125 
Q 13.671875 62.703125 7.8125 59.421875 
L 7.8125 69.390625 
Q 13.765625 71.78125 18.9375 73 
Q 24.125 74.21875 28.421875 74.21875 
Q 39.75 74.21875 46.484375 68.546875 
Q 53.21875 62.890625 53.21875 53.421875 
Q 53.21875 48.921875 51.53125 44.890625 
Q 49.859375 40.875 45.40625 35.40625 
Q 44.1875 33.984375 37.640625 27.21875 
Q 31.109375 20.453125 19.1875 8.296875 
z
" id="DejaVuSans-32"/>
      </defs>
      <g transform="translate(138.475 266.598437)scale(0.1 -0.1)">
       <use xlink:href="#DejaVuSans-31"/>
       <use x="63.623047" xlink:href="#DejaVuSans-39"/>
       <use x="127.246094" xlink:href="#DejaVuSans-32"/>
       <use x="190.869141" xlink:href="#DejaVuSans-30"/>
      </g>
     </g>
    </g>
    <g id="xtick_4">
     <g id="line2d_4">
      <g>
       <use style="stroke:#000000;stroke-width:0.8;" x="194.4" xlink:href="#mf9307b9006" y="252"/>
      </g>
     </g>
     <g id="text_4">
      <!-- 1940 -->
      <defs>
       <path d="M 37.796875 64.3125 
L 12.890625 25.390625 
L 37.796875 25.390625 
z
M 35.203125 72.90625 
L 47.609375 72.90625 
L 47.609375 25.390625 
L 58.015625 25.390625 
L 58.015625 17.1875 
L 47.609375 17.1875 
L 47.609375 0 
L 37.796875 0 
L 37.796875 17.1875 
L 4.890625 17.1875 
L 4.890625 26.703125 
z
" id="DejaVuSans-34"/>
      </defs>
      <g transform="translate(181.675 266.598437)scale(0.1 -0.1)">
       <use xlink:href="#DejaVuSans-31"/>
       <use x="63.623047" xlink:href="#DejaVuSans-39"/>
       <use x="127.246094" xlink:href="#DejaVuSans-34"/>
       <use x="190.869141" xlink:href="#DejaVuSans-30"/>
      </g>
     </g>
    </g>
    <g id="xtick_5">
     <g id="line2d_5">
      <g>
       <use style="stroke:#000000;stroke-width:0.8;" x="237.6" xlink:href="#mf9307b9006" y="252"/>
      </g>
     </g>
     <g id="text_5">
      <!-- 1960 -->
      <defs>
       <path d="M 33.015625 40.375 
Q 26.375 40.375 22.484375 35.828125 
Q 18.609375 31.296875 18.609375 23.390625 
Q 18.609375 15.53125 22.484375 10.953125 
Q 26.375 6.390625 33.015625 6.390625 
Q 39.65625 6.390625 43.53125 10.953125 
Q 47.40625 15.53125 47.40625 23.390625 
Q 47.40625 31.296875 43.53125 35.828125 
Q 39.65625 40.375 33.015625 40.375 
z
M 52.59375 71.296875 
L 52.59375 62.3125 
Q 48.875 64.0625 45.09375 64.984375 
Q 41.3125 65.921875 37.59375 65.921875 
Q 27.828125 65.921875 22.671875 59.328125 
Q 17.53125 52.734375 16.796875 39.40625 
Q 19.671875 43.65625 24.015625 45.921875 
Q 28.375 48.1875 33.59375 48.1875 
Q 44.578125 48.1875 50.953125 41.515625 
Q 57.328125 34.859375 57.328125 23.390625 
Q 57.328125 12.15625 50.6875 5.359375 
Q 44.046875 -1.421875 33.015625 -1.421875 
Q 20.359375 -1.421875 13.671875 8.265625 
Q 6.984375 17.96875 6.984375 36.375 
Q 6.984375 53.65625 15.1875 63.9375 
Q 23.390625 74.21875 37.203125 74.21875 
Q 40.921875 74.21875 44.703125 73.484375 
Q 48.484375 72.75 52.59375 71.296875 
z
" id="DejaVuSans-36"/>
      </defs>
      <g transform="translate(224.875 266.598437)scale(0.1 -0.1)">
       <use xlink:href="#DejaVuSans-31"/>
       <use x="63.623047" xlink:href="#DejaVuSans-39"/>
       <use x="127.246094" xlink:href="#DejaVuSans-36"/>
       <use x="190.869141" xlink:href="#DejaVuSans-30"/>
      </g>
     </g>
    </g>
    <g id="xtick_6">
     <g id="line2d_6">
      <g>
       <use style="stroke:#000000;stroke-width:0.8;" x="280.8" xlink:href="#mf9307b9006" y="252"/>
      </g>
     </g>
     <g id="text_6">
      <!-- 1980 -->
      <g transform="translate(268.075 266.598437)scale(0.1 -0.1)">
       <use xlink:href="#DejaVuSans-31"/>
       <use x="63.623047" xlink:href="#DejaVuSans-39"/>
       <use x="127.246094" xlink:href="#DejaVuSans-38"/>
       <use x="190.869141" xlink:href="#DejaVuSans-30"/>
      </g>
     </g>
    </g>
    <g id="xtick_7">
     <g id="line2d_7">
      <g>
       <use style="stroke:#000000;stroke-width:0.8;" x="324" xlink:href="#mf9307b9006" y="252"/>
      </g>
     </g>
     <g id="text_7">
      <!-- 2000 -->
      <g transform="translate(311.275 266.598437)scale(0.1 -0.1)">
       <use xlink:href="#DejaVuSans-32"/>
       <use x="63.623047" xlink:href="#DejaVuSans-30"/>
       <use x="127.246094" xlink:href="#DejaVuSans-30"/>
       <use x="190.869141" xlink:href="#DejaVuSans-30"/>
      </g>
     </g>
    </g>
    <g id="xtick_8">
     <g id="line2d_8">
      <g>
       <use style="stroke:#000000;stroke-width:0.8;" x="367.2" xlink:href="#mf9307b9006" y="252"/>
      </g>
     </g>
     <g id="text_8">
      <!-- 2020 -->
      <g transform="translate(354.475 266.598437)scale(0.1 -0.1)">
       <use xlink:href="#DejaVuSans-32"/>
       <use x="63.623047" xlink:href="#DejaVuSans-30"/>
       <use x="127.246094" xlink:href="#DejaVuSans-32"/>
       <use x="190.869141" xlink:href="#DejaVuSans-30"/>
      </g>
     </g>
    </g>
    <g id="text_9">
     <!-- year -->
     <defs>
      <path d="M 32.171875 -5.078125 
Q 28.375 -14.84375 24.75 -17.8125 
Q 21.140625 -20.796875 15.09375 -20.796875 
L 7.90625 -20.796875 
L 7.90625 -13.28125 
L 13.1875 -13.28125 
Q 16.890625 -13.28125 18.9375 -11.515625 
Q 21 -9.765625 23.484375 -3.21875 
L 25.09375 0.875 
L 2.984375 54.6875 
L 12.5 54.6875 
L 29.59375 11.921875 
L 46.6875 54.6875 
L 56.203125 54.6875 
z
" id="DejaVuSans-79"/>
      <path d="M 56.203125 29.59375 
L 56.203125 25.203125 
L 14.890625 25.203125 
Q 15.484375 15.921875 20.484375 11.0625 
Q 25.484375 6.203125 34.421875 6.203125 
Q 39.59375 6.203125 44.453125 7.46875 
Q 49.3125 8.734375 54.109375 11.28125 
L 54.109375 2.78125 
Q 49.265625 0.734375 44.1875 -0.34375 
Q 39.109375 -1.421875 33.890625 -1.421875 
Q 20.796875 -1.421875 13.15625 6.1875 
Q 5.515625 13.8125 5.515625 26.8125 
Q 5.515625 40.234375 12.765625 48.109375 
Q 20.015625 56 32.328125 56 
Q 43.359375 56 49.78125 48.890625 
Q 56.203125 41.796875 56.203125 29.59375 
z
M 47.21875 32.234375 
Q 47.125 39.59375 43.09375 43.984375 
Q 39.0625 48.390625 32.421875 48.390625 
Q 24.90625 48.390625 20.390625 44.140625 
Q 15.875 39.890625 15.1875 32.171875 
z
" id="DejaVuSans-65"/>
      <path d="M 34.28125 27.484375 
Q 23.390625 27.484375 19.1875 25 
Q 14.984375 22.515625 14.984375 16.5 
Q 14.984375 11.71875 18.140625 8.90625 
Q 21.296875 6.109375 26.703125 6.109375 
Q 34.1875 6.109375 38.703125 11.40625 
Q 43.21875 16.703125 43.21875 25.484375 
L 43.21875 27.484375 
z
M 52.203125 31.203125 
L 52.203125 0 
L 43.21875 0 
L 43.21875 8.296875 
Q 40.140625 3.328125 35.546875 0.953125 
Q 30.953125 -1.421875 24.3125 -1.421875 
Q 15.921875 -1.421875 10.953125 3.296875 
Q 6 8.015625 6 15.921875 
Q 6 25.140625 12.171875 29.828125 
Q 18.359375 34.515625 30.609375 34.515625 
L 43.21875 34.515625 
L 43.21875 35.40625 
Q 43.21875 41.609375 39.140625 45 
Q 35.0625 48.390625 27.6875 48.390625 
Q 23 48.390625 18.546875 47.265625 
Q 14.109375 46.140625 10.015625 43.890625 
L 10.015625 52.203125 
Q 14.9375 54.109375 19.578125 55.046875 
Q 24.21875 56 28.609375 56 
Q 40.484375 56 46.34375 49.84375 
Q 52.203125 43.703125 52.203125 31.203125 
z
" id="DejaVuSans-61"/>
      <path d="M 41.109375 46.296875 
Q 39.59375 47.171875 37.8125 47.578125 
Q 36.03125 48 33.890625 48 
Q 26.265625 48 22.1875 43.046875 
Q 18.109375 38.09375 18.109375 28.8125 
L 18.109375 0 
L 9.078125 0 
L 9.078125 54.6875 
L 18.109375 54.6875 
L 18.109375 46.1875 
Q 20.953125 51.171875 25.484375 53.578125 
Q 30.03125 56 36.53125 56 
Q 37.453125 56 38.578125 55.875 
Q 39.703125 55.765625 41.0625 55.515625 
z
" id="DejaVuSans-72"/>
     </defs>
     <g transform="translate(199.089063 287.875)scale(0.2 -0.2)">
      <use xlink:href="#DejaVuSans-79"/>
      <use x="59.179688" xlink:href="#DejaVuSans-65"/>
      <use x="120.703125" xlink:href="#DejaVuSans-61"/>
      <use x="181.982422" xlink:href="#DejaVuSans-72"/>
     </g>
    </g>
   </g>
   <g id="matplotlib.axis_2">
    <g id="ytick_1">
     <g id="line2d_9">
      <defs>
       <path d="M 0 0 
L -3.5 0 
" id="md392244279" style="stroke:#000000;stroke-width:0.8;"/>
      </defs>
      <g>
       <use style="stroke:#000000;stroke-width:0.8;" x="54" xlink:href="#md392244279" y="223.123682"/>
      </g>
     </g>
     <g id="text_10">
      <!-- −1.0 -->
      <defs>
       <path d="M 10.59375 35.5 
L 73.1875 35.5 
L 73.1875 27.203125 
L 10.59375 27.203125 
z
" id="DejaVuSans-2212"/>
       <path d="M 10.6875 12.40625 
L 21 12.40625 
L 21 0 
L 10.6875 0 
z
" id="DejaVuSans-2e"/>
      </defs>
      <g transform="translate(22.717187 226.922901)scale(0.1 -0.1)">
       <use xlink:href="#DejaVuSans-2212"/>
       <use x="83.789062" xlink:href="#DejaVuSans-31"/>
       <use x="147.412109" xlink:href="#DejaVuSans-2e"/>
       <use x="179.199219" xlink:href="#DejaVuSans-30"/>
      </g>
     </g>
    </g>
    <g id="ytick_2">
     <g id="line2d_10">
      <g>
       <use style="stroke:#000000;stroke-width:0.8;" x="54" xlink:href="#md392244279" y="189.517653"/>
      </g>
     </g>
     <g id="text_11">
      <!-- −0.5 -->
      <defs>
       <path d="M 10.796875 72.90625 
L 49.515625 72.90625 
L 49.515625 64.59375 
L 19.828125 64.59375 
L 19.828125 46.734375 
Q 21.96875 47.46875 24.109375 47.828125 
Q 26.265625 48.1875 28.421875 48.1875 
Q 40.625 48.1875 47.75 41.5 
Q 54.890625 34.8125 54.890625 23.390625 
Q 54.890625 11.625 47.5625 5.09375 
Q 40.234375 -1.421875 26.90625 -1.421875 
Q 22.3125 -1.421875 17.546875 -0.640625 
Q 12.796875 0.140625 7.71875 1.703125 
L 7.71875 11.625 
Q 12.109375 9.234375 16.796875 8.0625 
Q 21.484375 6.890625 26.703125 6.890625 
Q 35.15625 6.890625 40.078125 11.328125 
Q 45.015625 15.765625 45.015625 23.390625 
Q 45.015625 31 40.078125 35.4375 
Q 35.15625 39.890625 26.703125 39.890625 
Q 22.75 39.890625 18.8125 39.015625 
Q 14.890625 38.140625 10.796875 36.28125 
z
" id="DejaVuSans-35"/>
      </defs>
      <g transform="translate(22.717187 193.316871)scale(0.1 -0.1)">
       <use xlink:href="#DejaVuSans-2212"/>
       <use x="83.789062" xlink:href="#DejaVuSans-30"/>
       <use x="147.412109" xlink:href="#DejaVuSans-2e"/>
       <use x="179.199219" xlink:href="#DejaVuSans-35"/>
      </g>
     </g>
    </g>
    <g id="ytick_3">
     <g id="line2d_11">
      <g>
       <use style="stroke:#000000;stroke-width:0.8;" x="54" xlink:href="#md392244279" y="155.911623"/>
      </g>
     </g>
     <g id="text_12">
      <!-- 0.0 -->
      <g transform="translate(31.096875 159.710842)scale(0.1 -0.1)">
       <use xlink:href="#DejaVuSans-30"/>
       <use x="63.623047" xlink:href="#DejaVuSans-2e"/>
       <use x="95.410156" xlink:href="#DejaVuSans-30"/>
      </g>
     </g>
    </g>
    <g id="ytick_4">
     <g id="line2d_12">
      <g>
       <use style="stroke:#000000;stroke-width:0.8;" x="54" xlink:href="#md392244279" y="122.305594"/>
      </g>
     </g>
     <g id="text_13">
      <!-- 0.5 -->
      <g transform="translate(31.096875 126.104813)scale(0.1 -0.1)">
       <use xlink:href="#DejaVuSans-30"/>
       <use x="63.623047" xlink:href="#DejaVuSans-2e"/>
       <use x="95.410156" xlink:href="#DejaVuSans-35"/>
      </g>
     </g>
    </g>
    <g id="ytick_5">
     <g id="line2d_13">
      <g>
       <use style="stroke:#000000;stroke-width:0.8;" x="54" xlink:href="#md392244279" y="88.699565"/>
      </g>
     </g>
     <g id="text_14">
      <!-- 1.0 -->
      <g transform="translate(31.096875 92.498783)scale(0.1 -0.1)">
       <use xlink:href="#DejaVuSans-31"/>
       <use x="63.623047" xlink:href="#DejaVuSans-2e"/>
       <use x="95.410156" xlink:href="#DejaVuSans-30"/>
      </g>
     </g>
    </g>
    <g id="ytick_6">
     <g id="line2d_14">
      <g>
       <use style="stroke:#000000;stroke-width:0.8;" x="54" xlink:href="#md392244279" y="55.093535"/>
      </g>
     </g>
     <g id="text_15">
      <!-- 1.5 -->
      <g transform="translate(31.096875 58.892754)scale(0.1 -0.1)">
       <use xlink:href="#DejaVuSans-31"/>
       <use x="63.623047" xlink:href="#DejaVuSans-2e"/>
       <use x="95.410156" xlink:href="#DejaVuSans-35"/>
      </g>
     </g>
    </g>
    <g id="text_16">
     <!-- layer 1 -->
     <defs>
      <path d="M 9.421875 75.984375 
L 18.40625 75.984375 
L 18.40625 0 
L 9.421875 0 
z
" id="DejaVuSans-6c"/>
      <path id="DejaVuSans-20"/>
     </defs>
     <g transform="translate(14.557812 177.909688)rotate(-90)scale(0.2 -0.2)">
      <use xlink:href="#DejaVuSans-6c"/>
      <use x="27.783203" xlink:href="#DejaVuSans-61"/>
      <use x="89.0625" xlink:href="#DejaVuSans-79"/>
      <use x="148.242188" xlink:href="#DejaVuSans-65"/>
      <use x="209.765625" xlink:href="#DejaVuSans-72"/>
      <use x="250.878906" xlink:href="#DejaVuSans-20"/>
      <use x="282.666016" xlink:href="#DejaVuSans-31"/>
     </g>
    </g>
   </g>
   <g id="line2d_15">
    <path clip-path="url(#pd4ec77cd7c)" d="M 54 210.430307 
L 64.094472 206.406808 
L 75.871357 201.456575 
L 87.648241 196.25422 
L 101.107538 190.034884 
L 114.566834 183.565637 
L 129.708543 176.04752 
L 149.897487 165.746079 
L 210.464322 134.616585 
L 225.60603 127.174603 
L 239.065327 120.790872 
L 250.842211 115.42109 
L 262.619095 110.282636 
L 274.39598 105.401645 
L 284.490452 101.440912 
L 294.584925 97.700248 
L 304.679397 94.191618 
L 314.773869 90.925464 
L 324.868342 87.910654 
L 334.962814 85.154456 
L 345.057286 82.662524 
L 355.151759 80.438892 
L 365.246231 78.485988 
L 373.658291 77.066034 
L 382.070352 75.834373 
L 388.8 74.983929 
L 388.8 74.983929 
" style="fill:none;stroke:#3300ff;stroke-linecap:square;stroke-width:2;"/>
   </g>
   <g id="line2d_16">
    <path clip-path="url(#pd4ec77cd7c)" d="M 54 178.744251 
L 60.729648 177.206254 
L 67.459296 175.462977 
L 74.188945 173.520596 
L 80.918593 171.386829 
L 89.330653 168.464674 
L 97.742714 165.279074 
L 106.154774 161.854055 
L 116.249246 157.465126 
L 126.343719 152.817451 
L 138.120603 147.133712 
L 151.579899 140.386969 
L 171.768844 129.989461 
L 203.734673 113.530497 
L 218.876382 105.982185 
L 232.335678 99.501054 
L 245.794975 93.282203 
L 257.571859 88.083143 
L 269.348744 83.127095 
L 281.125628 78.422278 
L 292.902513 73.968715 
L 304.679397 69.757736 
L 316.456281 65.771962 
L 329.915578 61.459751 
L 345.057286 56.861073 
L 363.563819 51.499269 
L 388.8 44.443636 
L 388.8 44.443636 
" style="fill:none;stroke:#3300ff;stroke-linecap:square;stroke-width:0.2;"/>
   </g>
   <g id="line2d_17">
    <path clip-path="url(#pd4ec77cd7c)" d="M 54 242.116364 
L 77.553769 228.979323 
L 99.425126 217.041387 
L 124.661307 203.547689 
L 156.627136 186.728395 
L 186.910553 171.022765 
L 208.78191 159.926921 
L 225.60603 151.6378 
L 240.747739 144.440184 
L 254.207035 138.311995 
L 265.98392 133.203738 
L 276.078392 129.045916 
L 286.172864 125.120542 
L 296.267337 121.456699 
L 304.679397 118.625501 
L 313.091457 116.01606 
L 321.503518 113.647682 
L 329.915578 111.539923 
L 336.645226 110.054384 
L 343.374874 108.757604 
L 350.104523 107.658606 
L 356.834171 106.765641 
L 363.563819 106.085963 
L 370.293467 105.625642 
L 377.023116 105.389403 
L 383.752764 105.38053 
L 388.8 105.524222 
L 388.8 105.524222 
" style="fill:none;stroke:#3300ff;stroke-linecap:square;stroke-width:0.2;"/>
   </g>
   <g id="line2d_18">
    <defs>
     <path d="M 0 2.5 
C 0.663008 2.5 1.29895 2.236584 1.767767 1.767767 
C 2.236584 1.29895 2.5 0.663008 2.5 0 
C 2.5 -0.663008 2.236584 -1.29895 1.767767 -1.767767 
C 1.29895 -2.236584 0.663008 -2.5 0 -2.5 
C -0.663008 -2.5 -1.29895 -2.236584 -1.767767 -1.767767 
C -2.236584 -1.29895 -2.5 -0.663008 -2.5 0 
C -2.5 0.663008 -2.236584 1.29895 -1.767767 1.767767 
C -1.29895 2.236584 -0.663008 2.5 0 2.5 
z
" id="mae7b4e7dec" style="stroke:#ff0000;"/>
    </defs>
    <g clip-path="url(#pd4ec77cd7c)">
     <use style="fill:#ff0000;stroke:#ff0000;" x="99.36" xlink:href="#mae7b4e7dec" y="188.063376"/>
     <use style="fill:#ff0000;stroke:#ff0000;" x="108" xlink:href="#mae7b4e7dec" y="187.694771"/>
     <use style="fill:#ff0000;stroke:#ff0000;" x="116.64" xlink:href="#mae7b4e7dec" y="213.973628"/>
     <use style="fill:#ff0000;stroke:#ff0000;" x="125.28" xlink:href="#mae7b4e7dec" y="175.392659"/>
     <use style="fill:#ff0000;stroke:#ff0000;" x="133.92" xlink:href="#mae7b4e7dec" y="164.524262"/>
     <use style="fill:#ff0000;stroke:#ff0000;" x="151.2" xlink:href="#mae7b4e7dec" y="147.645816"/>
     <use style="fill:#ff0000;stroke:#ff0000;" x="159.84" xlink:href="#mae7b4e7dec" y="160.1876"/>
     <use style="fill:#ff0000;stroke:#ff0000;" x="168.48" xlink:href="#mae7b4e7dec" y="149.919151"/>
     <use style="fill:#ff0000;stroke:#ff0000;" x="177.12" xlink:href="#mae7b4e7dec" y="147.843162"/>
     <use style="fill:#ff0000;stroke:#ff0000;" x="185.76" xlink:href="#mae7b4e7dec" y="144.42557"/>
     <use style="fill:#ff0000;stroke:#ff0000;" x="211.68" xlink:href="#mae7b4e7dec" y="150.677607"/>
     <use style="fill:#ff0000;stroke:#ff0000;" x="220.32" xlink:href="#mae7b4e7dec" y="133.103911"/>
     <use style="fill:#ff0000;stroke:#ff0000;" x="228.96" xlink:href="#mae7b4e7dec" y="135.752121"/>
     <use style="fill:#ff0000;stroke:#ff0000;" x="237.6" xlink:href="#mae7b4e7dec" y="116.779681"/>
     <use style="fill:#ff0000;stroke:#ff0000;" x="246.24" xlink:href="#mae7b4e7dec" y="108.849878"/>
     <use style="fill:#ff0000;stroke:#ff0000;" x="254.88" xlink:href="#mae7b4e7dec" y="125.700576"/>
     <use style="fill:#ff0000;stroke:#ff0000;" x="263.52" xlink:href="#mae7b4e7dec" y="105.951371"/>
     <use style="fill:#ff0000;stroke:#ff0000;" x="272.16" xlink:href="#mae7b4e7dec" y="99.166107"/>
     <use style="fill:#ff0000;stroke:#ff0000;" x="280.8" xlink:href="#mae7b4e7dec" y="99.387216"/>
     <use style="fill:#ff0000;stroke:#ff0000;" x="289.44" xlink:href="#mae7b4e7dec" y="94.443985"/>
     <use style="fill:#ff0000;stroke:#ff0000;" x="298.08" xlink:href="#mae7b4e7dec" y="94.245606"/>
     <use style="fill:#ff0000;stroke:#ff0000;" x="306.72" xlink:href="#mae7b4e7dec" y="97.790994"/>
     <use style="fill:#ff0000;stroke:#ff0000;" x="315.36" xlink:href="#mae7b4e7dec" y="93.191774"/>
     <use style="fill:#ff0000;stroke:#ff0000;" x="324" xlink:href="#mae7b4e7dec" y="87.62052"/>
     <use style="fill:#ff0000;stroke:#ff0000;" x="332.64" xlink:href="#mae7b4e7dec" y="86.315161"/>
     <use style="fill:#ff0000;stroke:#ff0000;" x="341.28" xlink:href="#mae7b4e7dec" y="82.761561"/>
     <use style="fill:#ff0000;stroke:#ff0000;" x="349.92" xlink:href="#mae7b4e7dec" y="81.89037"/>
    </g>
   </g>
   <g id="patch_4">
    <path d="M 54 252 
L 54 34.56 
" style="fill:none;stroke:#000000;stroke-linecap:square;stroke-linejoin:miter;stroke-width:0.8;"/>
   </g>
   <g id="patch_5">
    <path d="M 388.8 252 
L 388.8 34.56 
" style="fill:none;stroke:#000000;stroke-linecap:square;stroke-linejoin:miter;stroke-width:0.8;"/>
   </g>
   <g id="patch_6">
    <path d="M 54 252 
L 388.8 252 
" style="fill:none;stroke:#000000;stroke-linecap:square;stroke-linejoin:miter;stroke-width:0.8;"/>
   </g>
   <g id="patch_7">
    <path d="M 54 34.56 
L 388.8 34.56 
" style="fill:none;stroke:#000000;stroke-linecap:square;stroke-linejoin:miter;stroke-width:0.8;"/>
   </g>
  </g>
 </g>
 <defs>
  <clipPath id="pd4ec77cd7c">
   <rect height="217.44" width="334.8" x="54" y="34.56"/>
  </clipPath>
 </defs>
</svg>
