<?xml version="1.0" encoding="utf-8" standalone="no"?>
<!DOCTYPE svg PUBLIC "-//W3C//DTD SVG 1.1//EN"
  "http://www.w3.org/Graphics/SVG/1.1/DTD/svg11.dtd">
<!-- Created with matplotlib (http://matplotlib.org/) -->
<svg height="504pt" version="1.1" viewBox="0 0 504 504" width="504pt" xmlns="http://www.w3.org/2000/svg" xmlns:xlink="http://www.w3.org/1999/xlink">
 <defs>
  <style type="text/css">
*{stroke-linecap:butt;stroke-linejoin:round;}
  </style>
 </defs>
 <g id="figure_1">
  <g id="patch_1">
   <path d="M 0 504 
L 504 504 
L 504 0 
L 0 0 
z
" style="fill:none;"/>
  </g>
  <g id="axes_1">
   <g id="patch_2">
    <path d="M 63 441 
L 453.6 441 
L 453.6 60.48 
L 63 60.48 
z
" style="fill:none;"/>
   </g>
   <g id="patch_3">
    <path clip-path="url(#p767d18c2e3)" d="M 43.128128 77.776364 
L 45.290659 82.191367 
L 47.453191 86.582904 
L 49.615722 90.950594 
L 51.778254 95.29407 
L 53.940785 99.612945 
L 56.103316 103.906875 
L 58.265848 108.175473 
L 60.428379 112.41838 
L 62.59091 116.635223 
L 64.753442 120.825646 
L 66.915973 124.989265 
L 69.078505 129.12574 
L 71.241036 133.234686 
L 73.403567 137.315765 
L 75.566099 141.368606 
L 77.72863 145.392842 
L 79.891161 149.388118 
L 82.053693 153.354093 
L 84.216224 157.290408 
L 86.378756 161.196698 
L 88.541287 165.07263 
L 90.703818 168.917855 
L 92.86635 172.732041 
L 95.028881 176.514838 
L 97.191412 180.265928 
L 99.353944 183.98499 
L 101.516475 187.671704 
L 103.679007 191.325762 
L 105.841538 194.94687 
L 108.004069 198.534761 
L 110.166601 202.089146 
L 112.329132 205.609803 
L 114.491663 209.09649 
L 116.654195 212.548963 
L 118.816726 215.967081 
L 120.979258 219.350648 
L 123.141789 222.699558 
L 125.30432 226.013681 
L 127.466852 229.292962 
L 129.629383 232.537361 
L 131.791914 235.746888 
L 133.954446 238.921553 
L 136.116977 242.061458 
L 138.279509 245.166705 
L 140.44204 248.237422 
L 142.604571 251.273849 
L 144.767103 254.276166 
L 146.929634 257.244646 
L 149.092165 260.179561 
L 151.254697 263.081234 
L 153.417228 265.950012 
L 155.57976 268.786227 
L 157.742291 271.590249 
L 159.904822 274.36247 
L 162.067354 277.103232 
L 164.229885 279.81293 
L 166.392416 282.491986 
L 168.554948 285.140697 
L 170.717479 287.759456 
L 172.880011 290.348588 
L 175.042542 292.908412 
L 177.205073 295.439227 
L 179.367605 297.941292 
L 181.530136 300.414895 
L 183.692667 302.860217 
L 185.855199 305.277452 
L 188.01773 307.6668 
L 190.180262 310.028433 
L 192.342793 312.362406 
L 194.505324 314.668881 
L 196.667856 316.947866 
L 198.830387 319.199469 
L 200.992919 321.423681 
L 203.15545 323.620529 
L 205.317981 325.789995 
L 207.480513 327.932058 
L 209.643044 330.046678 
L 211.805575 332.133778 
L 213.968107 334.193313 
L 216.130638 336.225174 
L 218.29317 338.229317 
L 220.455701 340.205586 
L 222.618232 342.153908 
L 224.780764 344.074158 
L 226.943295 345.966245 
L 229.105826 347.830043 
L 231.268358 349.665403 
L 233.430889 351.472201 
L 235.593421 353.250371 
L 237.755952 354.999747 
L 239.918483 356.720224 
L 242.081015 358.41171 
L 244.243546 360.074033 
L 246.406077 361.707169 
L 248.568609 363.310981 
L 250.73114 364.885375 
L 252.893672 366.430257 
L 255.056203 367.94559 
L 257.218734 369.43126 
L 259.381266 370.887255 
L 261.543797 372.31348 
L 263.706328 373.709931 
L 265.86886 375.07656 
L 268.031391 376.413341 
L 270.193923 377.720272 
L 272.356454 378.997343 
L 274.518985 380.244564 
L 276.681517 381.461984 
L 278.844048 382.649588 
L 281.006579 383.807416 
L 283.169111 384.935541 
L 285.331642 386.033991 
L 287.494174 387.102822 
L 289.656705 388.142132 
L 291.819236 389.15197 
L 293.981768 390.132422 
L 296.144299 391.083589 
L 298.30683 392.005535 
L 300.469362 392.898367 
L 302.631893 393.76218 
L 304.794425 394.597073 
L 306.956956 395.403143 
L 309.119487 396.180469 
L 311.282019 396.929181 
L 313.44455 397.649337 
L 315.607081 398.341043 
L 317.769613 399.004366 
L 319.932144 399.639393 
L 322.094676 400.246166 
L 324.257207 400.824779 
L 326.419738 401.375236 
L 328.58227 401.89757 
L 330.744801 402.391837 
L 332.907333 402.85796 
L 335.069864 403.295971 
L 337.232395 403.705803 
L 339.394927 404.087383 
L 341.557458 404.440644 
L 343.719989 404.765438 
L 345.882521 405.061626 
L 348.045052 405.329037 
L 350.207584 405.567462 
L 352.370115 405.776651 
L 354.532646 405.956335 
L 356.695178 406.106203 
L 358.857709 406.225927 
L 361.02024 406.315116 
L 363.182772 406.373373 
L 365.345303 406.400259 
L 367.507835 406.395297 
L 369.670366 406.357995 
L 371.832897 406.287853 
L 373.995429 406.184326 
L 376.15796 406.046866 
L 378.320491 405.874929 
L 380.483023 405.667961 
L 382.645554 405.425389 
L 384.808086 405.146724 
L 386.970617 404.831429 
L 389.133148 404.47901 
L 391.29568 404.089014 
L 393.458211 403.661015 
L 395.620742 403.194646 
L 397.783274 402.689576 
L 399.945805 402.145502 
L 402.108337 401.5622 
L 404.270868 400.939491 
L 406.433399 400.277219 
L 408.595931 399.575306 
L 410.758462 398.833723 
L 412.920993 398.052458 
L 415.083525 397.231556 
L 417.246056 396.371106 
L 419.408588 395.471205 
L 421.571119 394.532012 
L 423.73365 393.55369 
L 425.896182 392.536422 
L 428.058713 391.480429 
L 430.221244 390.385938 
L 432.383776 389.253185 
L 434.546307 388.08242 
L 436.708839 386.873902 
L 438.87137 385.627898 
L 441.033901 384.344683 
L 443.196433 383.024533 
L 445.358964 381.667716 
L 447.521495 380.274521 
L 449.684027 378.845225 
L 451.846558 377.380108 
L 454.00909 375.87945 
L 456.171621 374.343525 
L 458.334152 372.77262 
L 460.496684 371.167003 
L 462.659215 369.526953 
L 464.821746 367.852742 
L 466.984278 366.144645 
L 469.146809 364.402929 
L 471.309341 362.62787 
L 473.471872 360.81973 
L 473.471872 420.086318 
L 471.309341 420.110698 
L 469.146809 420.142292 
L 466.984278 420.180774 
L 464.821746 420.225829 
L 462.659215 420.277138 
L 460.496684 420.334391 
L 458.334152 420.397277 
L 456.171621 420.465492 
L 454.00909 420.538725 
L 451.846558 420.616684 
L 449.684027 420.699069 
L 447.521495 420.785587 
L 445.358964 420.875945 
L 443.196433 420.969855 
L 441.033901 421.067037 
L 438.87137 421.167201 
L 436.708839 421.270061 
L 434.546307 421.375337 
L 432.383776 421.482742 
L 430.221244 421.591986 
L 428.058713 421.702772 
L 425.896182 421.814797 
L 423.73365 421.927747 
L 421.571119 422.041309 
L 419.408588 422.155137 
L 417.246056 422.268865 
L 415.083525 422.382134 
L 412.920993 422.494522 
L 410.758462 422.605604 
L 408.595931 422.714919 
L 406.433399 422.821952 
L 404.270868 422.926176 
L 402.108337 423.027017 
L 399.945805 423.123836 
L 397.783274 423.21597 
L 395.620742 423.302717 
L 393.458211 423.383303 
L 391.29568 423.456935 
L 389.133148 423.522782 
L 386.970617 423.579967 
L 384.808086 423.62759 
L 382.645554 423.664714 
L 380.483023 423.690368 
L 378.320491 423.703636 
L 376.15796 423.703523 
L 373.995429 423.689059 
L 371.832897 423.659292 
L 369.670366 423.613273 
L 367.507835 423.550064 
L 365.345303 423.468776 
L 363.182772 423.36854 
L 361.02024 423.248504 
L 358.857709 423.107867 
L 356.695178 422.945872 
L 354.532646 422.761781 
L 352.370115 422.554922 
L 350.207584 422.324652 
L 348.045052 422.070376 
L 345.882521 421.791526 
L 343.719989 421.487584 
L 341.557458 421.158077 
L 339.394927 420.802575 
L 337.232395 420.420645 
L 335.069864 420.011945 
L 332.907333 419.576133 
L 330.744801 419.112885 
L 328.58227 418.621985 
L 326.419738 418.103115 
L 324.257207 417.556099 
L 322.094676 416.980749 
L 319.932144 416.376855 
L 317.769613 415.744307 
L 315.607081 415.082952 
L 313.44455 414.392694 
L 311.282019 413.673423 
L 309.119487 412.92508 
L 306.956956 412.147565 
L 304.794425 411.340863 
L 302.631893 410.504915 
L 300.469362 409.63969 
L 298.30683 408.745173 
L 296.144299 407.821348 
L 293.981768 406.868226 
L 291.819236 405.885785 
L 289.656705 404.874046 
L 287.494174 403.83303 
L 285.331642 402.762728 
L 283.169111 401.663192 
L 281.006579 400.534441 
L 278.844048 399.376477 
L 276.681517 398.189356 
L 274.518985 396.973114 
L 272.356454 395.72774 
L 270.193923 394.453299 
L 268.031391 393.149828 
L 265.86886 391.817351 
L 263.706328 390.455914 
L 261.543797 389.065547 
L 259.381266 387.646273 
L 257.218734 386.198164 
L 255.056203 384.721214 
L 252.893672 383.215512 
L 250.73114 381.681054 
L 248.568609 380.117923 
L 246.406077 378.526158 
L 244.243546 376.905807 
L 242.081015 375.256884 
L 239.918483 373.57953 
L 237.755952 371.873748 
L 235.593421 370.139628 
L 233.430889 368.377261 
L 231.268358 366.586688 
L 229.105826 364.768059 
L 226.943295 362.921477 
L 224.780764 361.047029 
L 222.618232 359.144839 
L 220.455701 357.215074 
L 218.29317 355.257876 
L 216.130638 353.273455 
L 213.968107 351.261942 
L 211.805575 349.223593 
L 209.643044 347.158611 
L 207.480513 345.06727 
L 205.317981 342.949826 
L 203.15545 340.806579 
L 200.992919 338.63786 
L 198.830387 336.444011 
L 196.667856 334.225432 
L 194.505324 331.982495 
L 192.342793 329.715699 
L 190.180262 327.425455 
L 188.01773 325.112334 
L 185.855199 322.776814 
L 183.692667 320.419496 
L 181.530136 318.041021 
L 179.367605 315.642033 
L 177.205073 313.223173 
L 175.042542 310.785196 
L 172.880011 308.32884 
L 170.717479 305.854892 
L 168.554948 303.364167 
L 166.392416 300.857497 
L 164.229885 298.335787 
L 162.067354 295.79986 
L 159.904822 293.250669 
L 157.742291 290.689152 
L 155.57976 288.116199 
L 153.417228 285.532761 
L 151.254697 282.939776 
L 149.092165 280.33815 
L 146.929634 277.728813 
L 144.767103 275.112682 
L 142.604571 272.490628 
L 140.44204 269.863531 
L 138.279509 267.232187 
L 136.116977 264.597459 
L 133.954446 261.960106 
L 131.791914 259.320869 
L 129.629383 256.680496 
L 127.466852 254.039649 
L 125.30432 251.398998 
L 123.141789 248.759172 
L 120.979258 246.12079 
L 118.816726 243.484401 
L 116.654195 240.850589 
L 114.491663 238.219851 
L 112.329132 235.592747 
L 110.166601 232.969739 
L 108.004069 230.3513 
L 105.841538 227.737925 
L 103.679007 225.130051 
L 101.516475 222.528141 
L 99.353944 219.932638 
L 97.191412 217.343975 
L 95.028881 214.76258 
L 92.86635 212.188882 
L 90.703818 209.623324 
L 88.541287 207.066314 
L 86.378756 204.51829 
L 84.216224 201.979674 
L 82.053693 199.450907 
L 79.891161 196.932407 
L 77.72863 194.424598 
L 75.566099 191.927928 
L 73.403567 189.442834 
L 71.241036 186.969745 
L 69.078505 184.50909 
L 66.915973 182.061334 
L 64.753442 179.626899 
L 62.59091 177.206254 
L 60.428379 174.799826 
L 58.265848 172.408077 
L 56.103316 170.03145 
L 53.940785 167.670406 
L 51.778254 165.325382 
L 49.615722 162.996858 
L 47.453191 160.685274 
L 45.290659 158.391092 
L 43.128128 156.114762 
z
" style="fill:#cc3300;opacity:0.3;stroke:#cc3300;stroke-linejoin:miter;stroke-width:0.5;"/>
   </g>
   <g id="matplotlib.axis_1">
    <g id="xtick_1">
     <g id="line2d_1">
      <defs>
       <path d="M 0 0 
L 0 3.5 
" id="m3e11eb0329" style="stroke:#000000;stroke-width:0.8;"/>
      </defs>
      <g>
       <use style="stroke:#000000;stroke-width:0.8;" x="81.887824" xlink:href="#m3e11eb0329" y="441"/>
      </g>
     </g>
     <g id="text_1">
      <!-- −0.75 -->
      <defs>
       <path d="M 10.59375 35.5 
L 73.1875 35.5 
L 73.1875 27.203125 
L 10.59375 27.203125 
z
" id="DejaVuSans-2212"/>
       <path d="M 31.78125 66.40625 
Q 24.171875 66.40625 20.328125 58.90625 
Q 16.5 51.421875 16.5 36.375 
Q 16.5 21.390625 20.328125 13.890625 
Q 24.171875 6.390625 31.78125 6.390625 
Q 39.453125 6.390625 43.28125 13.890625 
Q 47.125 21.390625 47.125 36.375 
Q 47.125 51.421875 43.28125 58.90625 
Q 39.453125 66.40625 31.78125 66.40625 
z
M 31.78125 74.21875 
Q 44.046875 74.21875 50.515625 64.515625 
Q 56.984375 54.828125 56.984375 36.375 
Q 56.984375 17.96875 50.515625 8.265625 
Q 44.046875 -1.421875 31.78125 -1.421875 
Q 19.53125 -1.421875 13.0625 8.265625 
Q 6.59375 17.96875 6.59375 36.375 
Q 6.59375 54.828125 13.0625 64.515625 
Q 19.53125 74.21875 31.78125 74.21875 
z
" id="DejaVuSans-30"/>
       <path d="M 10.6875 12.40625 
L 21 12.40625 
L 21 0 
L 10.6875 0 
z
" id="DejaVuSans-2e"/>
       <path d="M 8.203125 72.90625 
L 55.078125 72.90625 
L 55.078125 68.703125 
L 28.609375 0 
L 18.3125 0 
L 43.21875 64.59375 
L 8.203125 64.59375 
z
" id="DejaVuSans-37"/>
       <path d="M 10.796875 72.90625 
L 49.515625 72.90625 
L 49.515625 64.59375 
L 19.828125 64.59375 
L 19.828125 46.734375 
Q 21.96875 47.46875 24.109375 47.828125 
Q 26.265625 48.1875 28.421875 48.1875 
Q 40.625 48.1875 47.75 41.5 
Q 54.890625 34.8125 54.890625 23.390625 
Q 54.890625 11.625 47.5625 5.09375 
Q 40.234375 -1.421875 26.90625 -1.421875 
Q 22.3125 -1.421875 17.546875 -0.640625 
Q 12.796875 0.140625 7.71875 1.703125 
L 7.71875 11.625 
Q 12.109375 9.234375 16.796875 8.0625 
Q 21.484375 6.890625 26.703125 6.890625 
Q 35.15625 6.890625 40.078125 11.328125 
Q 45.015625 15.765625 45.015625 23.390625 
Q 45.015625 31 40.078125 35.4375 
Q 35.15625 39.890625 26.703125 39.890625 
Q 22.75 39.890625 18.8125 39.015625 
Q 14.890625 38.140625 10.796875 36.28125 
z
" id="DejaVuSans-35"/>
      </defs>
      <g transform="translate(66.565168 455.598437)scale(0.1 -0.1)">
       <use xlink:href="#DejaVuSans-2212"/>
       <use x="83.789062" xlink:href="#DejaVuSans-30"/>
       <use x="147.412109" xlink:href="#DejaVuSans-2e"/>
       <use x="179.199219" xlink:href="#DejaVuSans-37"/>
       <use x="242.822266" xlink:href="#DejaVuSans-35"/>
      </g>
     </g>
    </g>
    <g id="xtick_2">
     <g id="line2d_2">
      <g>
       <use style="stroke:#000000;stroke-width:0.8;" x="131.567504" xlink:href="#m3e11eb0329" y="441"/>
      </g>
     </g>
     <g id="text_2">
      <!-- −0.50 -->
      <g transform="translate(116.244848 455.598437)scale(0.1 -0.1)">
       <use xlink:href="#DejaVuSans-2212"/>
       <use x="83.789062" xlink:href="#DejaVuSans-30"/>
       <use x="147.412109" xlink:href="#DejaVuSans-2e"/>
       <use x="179.199219" xlink:href="#DejaVuSans-35"/>
       <use x="242.822266" xlink:href="#DejaVuSans-30"/>
      </g>
     </g>
    </g>
    <g id="xtick_3">
     <g id="line2d_3">
      <g>
       <use style="stroke:#000000;stroke-width:0.8;" x="181.247184" xlink:href="#m3e11eb0329" y="441"/>
      </g>
     </g>
     <g id="text_3">
      <!-- −0.25 -->
      <defs>
       <path d="M 19.1875 8.296875 
L 53.609375 8.296875 
L 53.609375 0 
L 7.328125 0 
L 7.328125 8.296875 
Q 12.9375 14.109375 22.625 23.890625 
Q 32.328125 33.6875 34.8125 36.53125 
Q 39.546875 41.84375 41.421875 45.53125 
Q 43.3125 49.21875 43.3125 52.78125 
Q 43.3125 58.59375 39.234375 62.25 
Q 35.15625 65.921875 28.609375 65.921875 
Q 23.96875 65.921875 18.8125 64.3125 
Q 13.671875 62.703125 7.8125 59.421875 
L 7.8125 69.390625 
Q 13.765625 71.78125 18.9375 73 
Q 24.125 74.21875 28.421875 74.21875 
Q 39.75 74.21875 46.484375 68.546875 
Q 53.21875 62.890625 53.21875 53.421875 
Q 53.21875 48.921875 51.53125 44.890625 
Q 49.859375 40.875 45.40625 35.40625 
Q 44.1875 33.984375 37.640625 27.21875 
Q 31.109375 20.453125 19.1875 8.296875 
z
" id="DejaVuSans-32"/>
      </defs>
      <g transform="translate(165.924528 455.598437)scale(0.1 -0.1)">
       <use xlink:href="#DejaVuSans-2212"/>
       <use x="83.789062" xlink:href="#DejaVuSans-30"/>
       <use x="147.412109" xlink:href="#DejaVuSans-2e"/>
       <use x="179.199219" xlink:href="#DejaVuSans-32"/>
       <use x="242.822266" xlink:href="#DejaVuSans-35"/>
      </g>
     </g>
    </g>
    <g id="xtick_4">
     <g id="line2d_4">
      <g>
       <use style="stroke:#000000;stroke-width:0.8;" x="230.926864" xlink:href="#m3e11eb0329" y="441"/>
      </g>
     </g>
     <g id="text_4">
      <!-- 0.00 -->
      <g transform="translate(219.794052 455.598437)scale(0.1 -0.1)">
       <use xlink:href="#DejaVuSans-30"/>
       <use x="63.623047" xlink:href="#DejaVuSans-2e"/>
       <use x="95.410156" xlink:href="#DejaVuSans-30"/>
       <use x="159.033203" xlink:href="#DejaVuSans-30"/>
      </g>
     </g>
    </g>
    <g id="xtick_5">
     <g id="line2d_5">
      <g>
       <use style="stroke:#000000;stroke-width:0.8;" x="280.606544" xlink:href="#m3e11eb0329" y="441"/>
      </g>
     </g>
     <g id="text_5">
      <!-- 0.25 -->
      <g transform="translate(269.473732 455.598437)scale(0.1 -0.1)">
       <use xlink:href="#DejaVuSans-30"/>
       <use x="63.623047" xlink:href="#DejaVuSans-2e"/>
       <use x="95.410156" xlink:href="#DejaVuSans-32"/>
       <use x="159.033203" xlink:href="#DejaVuSans-35"/>
      </g>
     </g>
    </g>
    <g id="xtick_6">
     <g id="line2d_6">
      <g>
       <use style="stroke:#000000;stroke-width:0.8;" x="330.286224" xlink:href="#m3e11eb0329" y="441"/>
      </g>
     </g>
     <g id="text_6">
      <!-- 0.50 -->
      <g transform="translate(319.153412 455.598437)scale(0.1 -0.1)">
       <use xlink:href="#DejaVuSans-30"/>
       <use x="63.623047" xlink:href="#DejaVuSans-2e"/>
       <use x="95.410156" xlink:href="#DejaVuSans-35"/>
       <use x="159.033203" xlink:href="#DejaVuSans-30"/>
      </g>
     </g>
    </g>
    <g id="xtick_7">
     <g id="line2d_7">
      <g>
       <use style="stroke:#000000;stroke-width:0.8;" x="379.965904" xlink:href="#m3e11eb0329" y="441"/>
      </g>
     </g>
     <g id="text_7">
      <!-- 0.75 -->
      <g transform="translate(368.833092 455.598437)scale(0.1 -0.1)">
       <use xlink:href="#DejaVuSans-30"/>
       <use x="63.623047" xlink:href="#DejaVuSans-2e"/>
       <use x="95.410156" xlink:href="#DejaVuSans-37"/>
       <use x="159.033203" xlink:href="#DejaVuSans-35"/>
      </g>
     </g>
    </g>
    <g id="xtick_8">
     <g id="line2d_8">
      <g>
       <use style="stroke:#000000;stroke-width:0.8;" x="429.645584" xlink:href="#m3e11eb0329" y="441"/>
      </g>
     </g>
     <g id="text_8">
      <!-- 1.00 -->
      <defs>
       <path d="M 12.40625 8.296875 
L 28.515625 8.296875 
L 28.515625 63.921875 
L 10.984375 60.40625 
L 10.984375 69.390625 
L 28.421875 72.90625 
L 38.28125 72.90625 
L 38.28125 8.296875 
L 54.390625 8.296875 
L 54.390625 0 
L 12.40625 0 
z
" id="DejaVuSans-31"/>
      </defs>
      <g transform="translate(418.512772 455.598437)scale(0.1 -0.1)">
       <use xlink:href="#DejaVuSans-31"/>
       <use x="63.623047" xlink:href="#DejaVuSans-2e"/>
       <use x="95.410156" xlink:href="#DejaVuSans-30"/>
       <use x="159.033203" xlink:href="#DejaVuSans-30"/>
      </g>
     </g>
    </g>
    <g id="text_9">
     <!-- hidden variable -->
     <defs>
      <path d="M 54.890625 33.015625 
L 54.890625 0 
L 45.90625 0 
L 45.90625 32.71875 
Q 45.90625 40.484375 42.875 44.328125 
Q 39.84375 48.1875 33.796875 48.1875 
Q 26.515625 48.1875 22.3125 43.546875 
Q 18.109375 38.921875 18.109375 30.90625 
L 18.109375 0 
L 9.078125 0 
L 9.078125 75.984375 
L 18.109375 75.984375 
L 18.109375 46.1875 
Q 21.34375 51.125 25.703125 53.5625 
Q 30.078125 56 35.796875 56 
Q 45.21875 56 50.046875 50.171875 
Q 54.890625 44.34375 54.890625 33.015625 
z
" id="DejaVuSans-68"/>
      <path d="M 9.421875 54.6875 
L 18.40625 54.6875 
L 18.40625 0 
L 9.421875 0 
z
M 9.421875 75.984375 
L 18.40625 75.984375 
L 18.40625 64.59375 
L 9.421875 64.59375 
z
" id="DejaVuSans-69"/>
      <path d="M 45.40625 46.390625 
L 45.40625 75.984375 
L 54.390625 75.984375 
L 54.390625 0 
L 45.40625 0 
L 45.40625 8.203125 
Q 42.578125 3.328125 38.25 0.953125 
Q 33.9375 -1.421875 27.875 -1.421875 
Q 17.96875 -1.421875 11.734375 6.484375 
Q 5.515625 14.40625 5.515625 27.296875 
Q 5.515625 40.1875 11.734375 48.09375 
Q 17.96875 56 27.875 56 
Q 33.9375 56 38.25 53.625 
Q 42.578125 51.265625 45.40625 46.390625 
z
M 14.796875 27.296875 
Q 14.796875 17.390625 18.875 11.75 
Q 22.953125 6.109375 30.078125 6.109375 
Q 37.203125 6.109375 41.296875 11.75 
Q 45.40625 17.390625 45.40625 27.296875 
Q 45.40625 37.203125 41.296875 42.84375 
Q 37.203125 48.484375 30.078125 48.484375 
Q 22.953125 48.484375 18.875 42.84375 
Q 14.796875 37.203125 14.796875 27.296875 
z
" id="DejaVuSans-64"/>
      <path d="M 56.203125 29.59375 
L 56.203125 25.203125 
L 14.890625 25.203125 
Q 15.484375 15.921875 20.484375 11.0625 
Q 25.484375 6.203125 34.421875 6.203125 
Q 39.59375 6.203125 44.453125 7.46875 
Q 49.3125 8.734375 54.109375 11.28125 
L 54.109375 2.78125 
Q 49.265625 0.734375 44.1875 -0.34375 
Q 39.109375 -1.421875 33.890625 -1.421875 
Q 20.796875 -1.421875 13.15625 6.1875 
Q 5.515625 13.8125 5.515625 26.8125 
Q 5.515625 40.234375 12.765625 48.109375 
Q 20.015625 56 32.328125 56 
Q 43.359375 56 49.78125 48.890625 
Q 56.203125 41.796875 56.203125 29.59375 
z
M 47.21875 32.234375 
Q 47.125 39.59375 43.09375 43.984375 
Q 39.0625 48.390625 32.421875 48.390625 
Q 24.90625 48.390625 20.390625 44.140625 
Q 15.875 39.890625 15.1875 32.171875 
z
" id="DejaVuSans-65"/>
      <path d="M 54.890625 33.015625 
L 54.890625 0 
L 45.90625 0 
L 45.90625 32.71875 
Q 45.90625 40.484375 42.875 44.328125 
Q 39.84375 48.1875 33.796875 48.1875 
Q 26.515625 48.1875 22.3125 43.546875 
Q 18.109375 38.921875 18.109375 30.90625 
L 18.109375 0 
L 9.078125 0 
L 9.078125 54.6875 
L 18.109375 54.6875 
L 18.109375 46.1875 
Q 21.34375 51.125 25.703125 53.5625 
Q 30.078125 56 35.796875 56 
Q 45.21875 56 50.046875 50.171875 
Q 54.890625 44.34375 54.890625 33.015625 
z
" id="DejaVuSans-6e"/>
      <path id="DejaVuSans-20"/>
      <path d="M 2.984375 54.6875 
L 12.5 54.6875 
L 29.59375 8.796875 
L 46.6875 54.6875 
L 56.203125 54.6875 
L 35.6875 0 
L 23.484375 0 
z
" id="DejaVuSans-76"/>
      <path d="M 34.28125 27.484375 
Q 23.390625 27.484375 19.1875 25 
Q 14.984375 22.515625 14.984375 16.5 
Q 14.984375 11.71875 18.140625 8.90625 
Q 21.296875 6.109375 26.703125 6.109375 
Q 34.1875 6.109375 38.703125 11.40625 
Q 43.21875 16.703125 43.21875 25.484375 
L 43.21875 27.484375 
z
M 52.203125 31.203125 
L 52.203125 0 
L 43.21875 0 
L 43.21875 8.296875 
Q 40.140625 3.328125 35.546875 0.953125 
Q 30.953125 -1.421875 24.3125 -1.421875 
Q 15.921875 -1.421875 10.953125 3.296875 
Q 6 8.015625 6 15.921875 
Q 6 25.140625 12.171875 29.828125 
Q 18.359375 34.515625 30.609375 34.515625 
L 43.21875 34.515625 
L 43.21875 35.40625 
Q 43.21875 41.609375 39.140625 45 
Q 35.0625 48.390625 27.6875 48.390625 
Q 23 48.390625 18.546875 47.265625 
Q 14.109375 46.140625 10.015625 43.890625 
L 10.015625 52.203125 
Q 14.9375 54.109375 19.578125 55.046875 
Q 24.21875 56 28.609375 56 
Q 40.484375 56 46.34375 49.84375 
Q 52.203125 43.703125 52.203125 31.203125 
z
" id="DejaVuSans-61"/>
      <path d="M 41.109375 46.296875 
Q 39.59375 47.171875 37.8125 47.578125 
Q 36.03125 48 33.890625 48 
Q 26.265625 48 22.1875 43.046875 
Q 18.109375 38.09375 18.109375 28.8125 
L 18.109375 0 
L 9.078125 0 
L 9.078125 54.6875 
L 18.109375 54.6875 
L 18.109375 46.1875 
Q 20.953125 51.171875 25.484375 53.578125 
Q 30.03125 56 36.53125 56 
Q 37.453125 56 38.578125 55.875 
Q 39.703125 55.765625 41.0625 55.515625 
z
" id="DejaVuSans-72"/>
      <path d="M 48.6875 27.296875 
Q 48.6875 37.203125 44.609375 42.84375 
Q 40.53125 48.484375 33.40625 48.484375 
Q 26.265625 48.484375 22.1875 42.84375 
Q 18.109375 37.203125 18.109375 27.296875 
Q 18.109375 17.390625 22.1875 11.75 
Q 26.265625 6.109375 33.40625 6.109375 
Q 40.53125 6.109375 44.609375 11.75 
Q 48.6875 17.390625 48.6875 27.296875 
z
M 18.109375 46.390625 
Q 20.953125 51.265625 25.265625 53.625 
Q 29.59375 56 35.59375 56 
Q 45.5625 56 51.78125 48.09375 
Q 58.015625 40.1875 58.015625 27.296875 
Q 58.015625 14.40625 51.78125 6.484375 
Q 45.5625 -1.421875 35.59375 -1.421875 
Q 29.59375 -1.421875 25.265625 0.953125 
Q 20.953125 3.328125 18.109375 8.203125 
L 18.109375 0 
L 9.078125 0 
L 9.078125 75.984375 
L 18.109375 75.984375 
z
" id="DejaVuSans-62"/>
      <path d="M 9.421875 75.984375 
L 18.40625 75.984375 
L 18.40625 0 
L 9.421875 0 
z
" id="DejaVuSans-6c"/>
     </defs>
     <g transform="translate(180.475 476.875)scale(0.2 -0.2)">
      <use xlink:href="#DejaVuSans-68"/>
      <use x="63.378906" xlink:href="#DejaVuSans-69"/>
      <use x="91.162109" xlink:href="#DejaVuSans-64"/>
      <use x="154.638672" xlink:href="#DejaVuSans-64"/>
      <use x="218.115234" xlink:href="#DejaVuSans-65"/>
      <use x="279.638672" xlink:href="#DejaVuSans-6e"/>
      <use x="343.017578" xlink:href="#DejaVuSans-20"/>
      <use x="374.804688" xlink:href="#DejaVuSans-76"/>
      <use x="433.984375" xlink:href="#DejaVuSans-61"/>
      <use x="495.263672" xlink:href="#DejaVuSans-72"/>
      <use x="536.376953" xlink:href="#DejaVuSans-69"/>
      <use x="564.160156" xlink:href="#DejaVuSans-61"/>
      <use x="625.439453" xlink:href="#DejaVuSans-62"/>
      <use x="688.916016" xlink:href="#DejaVuSans-6c"/>
      <use x="716.699219" xlink:href="#DejaVuSans-65"/>
     </g>
    </g>
   </g>
   <g id="matplotlib.axis_2">
    <g id="ytick_1">
     <g id="line2d_9">
      <defs>
       <path d="M 0 0 
L -3.5 0 
" id="mf66a5e2303" style="stroke:#000000;stroke-width:0.8;"/>
      </defs>
      <g>
       <use style="stroke:#000000;stroke-width:0.8;" x="63" xlink:href="#mf66a5e2303" y="383.800181"/>
      </g>
     </g>
     <g id="text_10">
      <!-- 0 -->
      <g transform="translate(49.6375 387.599399)scale(0.1 -0.1)">
       <use xlink:href="#DejaVuSans-30"/>
      </g>
     </g>
    </g>
    <g id="ytick_2">
     <g id="line2d_10">
      <g>
       <use style="stroke:#000000;stroke-width:0.8;" x="63" xlink:href="#mf66a5e2303" y="307.3706"/>
      </g>
     </g>
     <g id="text_11">
      <!-- 2 -->
      <g transform="translate(49.6375 311.169818)scale(0.1 -0.1)">
       <use xlink:href="#DejaVuSans-32"/>
      </g>
     </g>
    </g>
    <g id="ytick_3">
     <g id="line2d_11">
      <g>
       <use style="stroke:#000000;stroke-width:0.8;" x="63" xlink:href="#mf66a5e2303" y="230.941018"/>
      </g>
     </g>
     <g id="text_12">
      <!-- 4 -->
      <defs>
       <path d="M 37.796875 64.3125 
L 12.890625 25.390625 
L 37.796875 25.390625 
z
M 35.203125 72.90625 
L 47.609375 72.90625 
L 47.609375 25.390625 
L 58.015625 25.390625 
L 58.015625 17.1875 
L 47.609375 17.1875 
L 47.609375 0 
L 37.796875 0 
L 37.796875 17.1875 
L 4.890625 17.1875 
L 4.890625 26.703125 
z
" id="DejaVuSans-34"/>
      </defs>
      <g transform="translate(49.6375 234.740237)scale(0.1 -0.1)">
       <use xlink:href="#DejaVuSans-34"/>
      </g>
     </g>
    </g>
    <g id="ytick_4">
     <g id="line2d_12">
      <g>
       <use style="stroke:#000000;stroke-width:0.8;" x="63" xlink:href="#mf66a5e2303" y="154.511437"/>
      </g>
     </g>
     <g id="text_13">
      <!-- 6 -->
      <defs>
       <path d="M 33.015625 40.375 
Q 26.375 40.375 22.484375 35.828125 
Q 18.609375 31.296875 18.609375 23.390625 
Q 18.609375 15.53125 22.484375 10.953125 
Q 26.375 6.390625 33.015625 6.390625 
Q 39.65625 6.390625 43.53125 10.953125 
Q 47.40625 15.53125 47.40625 23.390625 
Q 47.40625 31.296875 43.53125 35.828125 
Q 39.65625 40.375 33.015625 40.375 
z
M 52.59375 71.296875 
L 52.59375 62.3125 
Q 48.875 64.0625 45.09375 64.984375 
Q 41.3125 65.921875 37.59375 65.921875 
Q 27.828125 65.921875 22.671875 59.328125 
Q 17.53125 52.734375 16.796875 39.40625 
Q 19.671875 43.65625 24.015625 45.921875 
Q 28.375 48.1875 33.59375 48.1875 
Q 44.578125 48.1875 50.953125 41.515625 
Q 57.328125 34.859375 57.328125 23.390625 
Q 57.328125 12.15625 50.6875 5.359375 
Q 44.046875 -1.421875 33.015625 -1.421875 
Q 20.359375 -1.421875 13.671875 8.265625 
Q 6.984375 17.96875 6.984375 36.375 
Q 6.984375 53.65625 15.1875 63.9375 
Q 23.390625 74.21875 37.203125 74.21875 
Q 40.921875 74.21875 44.703125 73.484375 
Q 48.484375 72.75 52.59375 71.296875 
z
" id="DejaVuSans-36"/>
      </defs>
      <g transform="translate(49.6375 158.310656)scale(0.1 -0.1)">
       <use xlink:href="#DejaVuSans-36"/>
      </g>
     </g>
    </g>
    <g id="ytick_5">
     <g id="line2d_13">
      <g>
       <use style="stroke:#000000;stroke-width:0.8;" x="63" xlink:href="#mf66a5e2303" y="78.081856"/>
      </g>
     </g>
     <g id="text_14">
      <!-- 8 -->
      <defs>
       <path d="M 31.78125 34.625 
Q 24.75 34.625 20.71875 30.859375 
Q 16.703125 27.09375 16.703125 20.515625 
Q 16.703125 13.921875 20.71875 10.15625 
Q 24.75 6.390625 31.78125 6.390625 
Q 38.8125 6.390625 42.859375 10.171875 
Q 46.921875 13.96875 46.921875 20.515625 
Q 46.921875 27.09375 42.890625 30.859375 
Q 38.875 34.625 31.78125 34.625 
z
M 21.921875 38.8125 
Q 15.578125 40.375 12.03125 44.71875 
Q 8.5 49.078125 8.5 55.328125 
Q 8.5 64.0625 14.71875 69.140625 
Q 20.953125 74.21875 31.78125 74.21875 
Q 42.671875 74.21875 48.875 69.140625 
Q 55.078125 64.0625 55.078125 55.328125 
Q 55.078125 49.078125 51.53125 44.71875 
Q 48 40.375 41.703125 38.8125 
Q 48.828125 37.15625 52.796875 32.3125 
Q 56.78125 27.484375 56.78125 20.515625 
Q 56.78125 9.90625 50.3125 4.234375 
Q 43.84375 -1.421875 31.78125 -1.421875 
Q 19.734375 -1.421875 13.25 4.234375 
Q 6.78125 9.90625 6.78125 20.515625 
Q 6.78125 27.484375 10.78125 32.3125 
Q 14.796875 37.15625 21.921875 38.8125 
z
M 18.3125 54.390625 
Q 18.3125 48.734375 21.84375 45.5625 
Q 25.390625 42.390625 31.78125 42.390625 
Q 38.140625 42.390625 41.71875 45.5625 
Q 45.3125 48.734375 45.3125 54.390625 
Q 45.3125 60.0625 41.71875 63.234375 
Q 38.140625 66.40625 31.78125 66.40625 
Q 25.390625 66.40625 21.84375 63.234375 
Q 18.3125 60.0625 18.3125 54.390625 
z
" id="DejaVuSans-38"/>
      </defs>
      <g transform="translate(49.6375 81.881075)scale(0.1 -0.1)">
       <use xlink:href="#DejaVuSans-38"/>
      </g>
     </g>
    </g>
    <g id="text_15">
     <!-- pace min/km -->
     <defs>
      <path d="M 18.109375 8.203125 
L 18.109375 -20.796875 
L 9.078125 -20.796875 
L 9.078125 54.6875 
L 18.109375 54.6875 
L 18.109375 46.390625 
Q 20.953125 51.265625 25.265625 53.625 
Q 29.59375 56 35.59375 56 
Q 45.5625 56 51.78125 48.09375 
Q 58.015625 40.1875 58.015625 27.296875 
Q 58.015625 14.40625 51.78125 6.484375 
Q 45.5625 -1.421875 35.59375 -1.421875 
Q 29.59375 -1.421875 25.265625 0.953125 
Q 20.953125 3.328125 18.109375 8.203125 
z
M 48.6875 27.296875 
Q 48.6875 37.203125 44.609375 42.84375 
Q 40.53125 48.484375 33.40625 48.484375 
Q 26.265625 48.484375 22.1875 42.84375 
Q 18.109375 37.203125 18.109375 27.296875 
Q 18.109375 17.390625 22.1875 11.75 
Q 26.265625 6.109375 33.40625 6.109375 
Q 40.53125 6.109375 44.609375 11.75 
Q 48.6875 17.390625 48.6875 27.296875 
z
" id="DejaVuSans-70"/>
      <path d="M 48.78125 52.59375 
L 48.78125 44.1875 
Q 44.96875 46.296875 41.140625 47.34375 
Q 37.3125 48.390625 33.40625 48.390625 
Q 24.65625 48.390625 19.8125 42.84375 
Q 14.984375 37.3125 14.984375 27.296875 
Q 14.984375 17.28125 19.8125 11.734375 
Q 24.65625 6.203125 33.40625 6.203125 
Q 37.3125 6.203125 41.140625 7.25 
Q 44.96875 8.296875 48.78125 10.40625 
L 48.78125 2.09375 
Q 45.015625 0.34375 40.984375 -0.53125 
Q 36.96875 -1.421875 32.421875 -1.421875 
Q 20.0625 -1.421875 12.78125 6.34375 
Q 5.515625 14.109375 5.515625 27.296875 
Q 5.515625 40.671875 12.859375 48.328125 
Q 20.21875 56 33.015625 56 
Q 37.15625 56 41.109375 55.140625 
Q 45.0625 54.296875 48.78125 52.59375 
z
" id="DejaVuSans-63"/>
      <path d="M 52 44.1875 
Q 55.375 50.25 60.0625 53.125 
Q 64.75 56 71.09375 56 
Q 79.640625 56 84.28125 50.015625 
Q 88.921875 44.046875 88.921875 33.015625 
L 88.921875 0 
L 79.890625 0 
L 79.890625 32.71875 
Q 79.890625 40.578125 77.09375 44.375 
Q 74.3125 48.1875 68.609375 48.1875 
Q 61.625 48.1875 57.5625 43.546875 
Q 53.515625 38.921875 53.515625 30.90625 
L 53.515625 0 
L 44.484375 0 
L 44.484375 32.71875 
Q 44.484375 40.625 41.703125 44.40625 
Q 38.921875 48.1875 33.109375 48.1875 
Q 26.21875 48.1875 22.15625 43.53125 
Q 18.109375 38.875 18.109375 30.90625 
L 18.109375 0 
L 9.078125 0 
L 9.078125 54.6875 
L 18.109375 54.6875 
L 18.109375 46.1875 
Q 21.1875 51.21875 25.484375 53.609375 
Q 29.78125 56 35.6875 56 
Q 41.65625 56 45.828125 52.96875 
Q 50 49.953125 52 44.1875 
z
" id="DejaVuSans-6d"/>
      <path d="M 25.390625 72.90625 
L 33.6875 72.90625 
L 8.296875 -9.28125 
L 0 -9.28125 
z
" id="DejaVuSans-2f"/>
      <path d="M 9.078125 75.984375 
L 18.109375 75.984375 
L 18.109375 31.109375 
L 44.921875 54.6875 
L 56.390625 54.6875 
L 27.390625 29.109375 
L 57.625 0 
L 45.90625 0 
L 18.109375 26.703125 
L 18.109375 0 
L 9.078125 0 
z
" id="DejaVuSans-6b"/>
     </defs>
     <g transform="translate(41.478125 315.8025)rotate(-90)scale(0.2 -0.2)">
      <use xlink:href="#DejaVuSans-70"/>
      <use x="63.476562" xlink:href="#DejaVuSans-61"/>
      <use x="124.755859" xlink:href="#DejaVuSans-63"/>
      <use x="179.736328" xlink:href="#DejaVuSans-65"/>
      <use x="241.259766" xlink:href="#DejaVuSans-20"/>
      <use x="273.046875" xlink:href="#DejaVuSans-6d"/>
      <use x="370.458984" xlink:href="#DejaVuSans-69"/>
      <use x="398.242188" xlink:href="#DejaVuSans-6e"/>
      <use x="461.621094" xlink:href="#DejaVuSans-2f"/>
      <use x="495.3125" xlink:href="#DejaVuSans-6b"/>
      <use x="553.222656" xlink:href="#DejaVuSans-6d"/>
     </g>
    </g>
   </g>
   <g id="line2d_14">
    <defs>
     <path d="M 0 2.5 
C 0.663008 2.5 1.29895 2.236584 1.767767 1.767767 
C 2.236584 1.29895 2.5 0.663008 2.5 0 
C 2.5 -0.663008 2.236584 -1.29895 1.767767 -1.767767 
C 1.29895 -2.236584 0.663008 -2.5 0 -2.5 
C -0.663008 -2.5 -1.29895 -2.236584 -1.767767 -1.767767 
C -2.236584 -1.29895 -2.5 -0.663008 -2.5 0 
C -2.5 0.663008 -2.236584 1.29895 -1.767767 1.767767 
C -1.29895 2.236584 -0.663008 2.5 0 2.5 
z
" id="m491fd48048" style="stroke:#ff0000;"/>
    </defs>
    <g clip-path="url(#p767d18c2e3)">
     <use style="fill:#ff0000;stroke:#ff0000;" x="186.243846" xlink:href="#m491fd48048" y="212.948221"/>
     <use style="fill:#ff0000;stroke:#ff0000;" x="186.880613" xlink:href="#m491fd48048" y="213.181487"/>
     <use style="fill:#ff0000;stroke:#ff0000;" x="143.264345" xlink:href="#m491fd48048" y="184.23936"/>
     <use style="fill:#ff0000;stroke:#ff0000;" x="208.073728" xlink:href="#m491fd48048" y="225.030005"/>
     <use style="fill:#ff0000;stroke:#ff0000;" x="227.043439" xlink:href="#m491fd48048" y="234.635749"/>
     <use style="fill:#ff0000;stroke:#ff0000;" x="256.652122" xlink:href="#m491fd48048" y="247.392002"/>
     <use style="fill:#ff0000;stroke:#ff0000;" x="234.621658" xlink:href="#m491fd48048" y="237.646003"/>
     <use style="fill:#ff0000;stroke:#ff0000;" x="252.651506" xlink:href="#m491fd48048" y="245.277791"/>
     <use style="fill:#ff0000;stroke:#ff0000;" x="256.282251" xlink:href="#m491fd48048" y="246.500447"/>
     <use style="fill:#ff0000;stroke:#ff0000;" x="262.258754" xlink:href="#m491fd48048" y="248.565377"/>
     <use style="fill:#ff0000;stroke:#ff0000;" x="251.261188" xlink:href="#m491fd48048" y="243.54796"/>
     <use style="fill:#ff0000;stroke:#ff0000;" x="281.887429" xlink:href="#m491fd48048" y="254.240916"/>
     <use style="fill:#ff0000;stroke:#ff0000;" x="277.263074" xlink:href="#m491fd48048" y="252.477876"/>
     <use style="fill:#ff0000;stroke:#ff0000;" x="309.78789" xlink:href="#m491fd48048" y="261.290056"/>
     <use style="fill:#ff0000;stroke:#ff0000;" x="323.392387" xlink:href="#m491fd48048" y="264.082542"/>
     <use style="fill:#ff0000;stroke:#ff0000;" x="294.405986" xlink:href="#m491fd48048" y="256.613774"/>
     <use style="fill:#ff0000;stroke:#ff0000;" x="327.962399" xlink:href="#m491fd48048" y="263.964804"/>
     <use style="fill:#ff0000;stroke:#ff0000;" x="339.888633" xlink:href="#m491fd48048" y="266.138415"/>
     <use style="fill:#ff0000;stroke:#ff0000;" x="339.251061" xlink:href="#m491fd48048" y="265.111988"/>
     <use style="fill:#ff0000;stroke:#ff0000;" x="347.997405" xlink:href="#m491fd48048" y="266.651629"/>
     <use style="fill:#ff0000;stroke:#ff0000;" x="348.216879" xlink:href="#m491fd48048" y="265.579918"/>
     <use style="fill:#ff0000;stroke:#ff0000;" x="341.145719" xlink:href="#m491fd48048" y="262.998755"/>
     <use style="fill:#ff0000;stroke:#ff0000;" x="350.271736" xlink:href="#m491fd48048" y="263.708198"/>
     <use style="fill:#ff0000;stroke:#ff0000;" x="360.10538" xlink:href="#m491fd48048" y="265.896903"/>
     <use style="fill:#ff0000;stroke:#ff0000;" x="362.730045" xlink:href="#m491fd48048" y="265.232744"/>
     <use style="fill:#ff0000;stroke:#ff0000;" x="367.910554" xlink:href="#m491fd48048" y="269.202602"/>
     <use style="fill:#ff0000;stroke:#ff0000;" x="369.74975" xlink:href="#m491fd48048" y="267.85919"/>
    </g>
   </g>
   <g id="line2d_15">
    <path clip-path="url(#p767d18c2e3)" d="M 43.128128 116.945563 
L 64.753442 150.226273 
L 79.891161 173.160262 
L 92.86635 192.460462 
L 105.841538 211.342398 
L 116.654195 226.699776 
L 127.466852 241.666305 
L 138.279509 256.199446 
L 146.929634 267.48673 
L 155.57976 278.451213 
L 164.229885 289.074358 
L 172.880011 299.338714 
L 181.530136 309.227958 
L 190.180262 318.726944 
L 198.830387 327.82174 
L 207.480513 336.499664 
L 213.968107 342.727627 
L 220.455701 348.71033 
L 226.943295 354.443861 
L 233.430889 359.924731 
L 239.918483 365.149877 
L 246.406077 370.116664 
L 252.893672 374.822884 
L 259.381266 379.266764 
L 265.86886 383.446955 
L 272.356454 387.362542 
L 278.844048 391.013032 
L 285.331642 394.39836 
L 291.819236 397.518877 
L 298.30683 400.375354 
L 304.794425 402.968968 
L 311.282019 405.301302 
L 317.769613 407.374336 
L 324.257207 409.190439 
L 330.744801 410.752361 
L 337.232395 412.063224 
L 343.719989 413.126511 
L 350.207584 413.946057 
L 356.695178 414.526038 
L 363.182772 414.870956 
L 369.670366 414.985634 
L 376.15796 414.875194 
L 382.645554 414.545051 
L 389.133148 414.000896 
L 395.620742 413.248681 
L 402.108337 412.294609 
L 408.595931 411.145113 
L 415.083525 409.806845 
L 421.571119 408.286661 
L 430.221244 405.988962 
L 438.87137 403.39755 
L 447.521495 400.530054 
L 456.171621 397.404509 
L 464.821746 394.039285 
L 473.471872 390.453024 
L 473.471872 390.453024 
" style="fill:none;stroke:#3300ff;stroke-linecap:square;stroke-width:2;"/>
   </g>
   <g id="line2d_16">
    <path clip-path="url(#p767d18c2e3)" d="M 43.128128 77.776364 
L 53.940785 99.612945 
L 62.59091 116.635223 
L 71.241036 133.234686 
L 79.891161 149.388118 
L 88.541287 165.07263 
L 97.191412 180.265928 
L 105.841538 194.94687 
L 114.491663 209.09649 
L 123.141789 222.699558 
L 129.629383 232.537361 
L 136.116977 242.061458 
L 142.604571 251.273849 
L 149.092165 260.179561 
L 155.57976 268.786227 
L 162.067354 277.103232 
L 168.554948 285.140697 
L 175.042542 292.908412 
L 181.530136 300.414895 
L 188.01773 307.6668 
L 194.505324 314.668881 
L 200.992919 321.423681 
L 207.480513 327.932058 
L 213.968107 334.193313 
L 220.455701 340.205586 
L 226.943295 345.966245 
L 233.430889 351.472201 
L 239.918483 356.720224 
L 246.406077 361.707169 
L 252.893672 366.430257 
L 259.381266 370.887255 
L 265.86886 375.07656 
L 272.356454 378.997343 
L 278.844048 382.649588 
L 285.331642 386.033991 
L 291.819236 389.15197 
L 298.30683 392.005535 
L 304.794425 394.597073 
L 311.282019 396.929181 
L 317.769613 399.004366 
L 324.257207 400.824779 
L 330.744801 402.391837 
L 337.232395 403.705803 
L 343.719989 404.765438 
L 350.207584 405.567462 
L 356.695178 406.106203 
L 363.182772 406.373373 
L 369.670366 406.357995 
L 376.15796 406.046866 
L 382.645554 405.425389 
L 389.133148 404.47901 
L 393.458211 403.661015 
L 397.783274 402.689576 
L 402.108337 401.5622 
L 406.433399 400.277219 
L 410.758462 398.833723 
L 415.083525 397.231556 
L 421.571119 394.532012 
L 428.058713 391.480429 
L 434.546307 388.08242 
L 441.033901 384.344683 
L 447.521495 380.274521 
L 454.00909 375.87945 
L 460.496684 371.167003 
L 466.984278 366.144645 
L 473.471872 360.81973 
L 473.471872 360.81973 
" style="fill:none;stroke:#3300ff;stroke-linecap:square;stroke-width:0.2;"/>
   </g>
   <g id="line2d_17">
    <path clip-path="url(#p767d18c2e3)" d="M 43.128128 156.114762 
L 51.778254 165.325382 
L 62.59091 177.206254 
L 73.403567 189.442834 
L 86.378756 204.51829 
L 99.353944 219.932638 
L 116.654195 240.850589 
L 155.57976 288.116199 
L 166.392416 300.857497 
L 177.205073 313.223173 
L 185.855199 322.776814 
L 194.505324 331.982495 
L 203.15545 340.806579 
L 211.805575 349.223593 
L 218.29317 355.257876 
L 224.780764 361.047029 
L 231.268358 366.586688 
L 237.755952 371.873748 
L 244.243546 376.905807 
L 250.73114 381.681054 
L 257.218734 386.198164 
L 263.706328 390.455914 
L 270.193923 394.453299 
L 276.681517 398.189356 
L 283.169111 401.663192 
L 289.656705 404.874046 
L 296.144299 407.821348 
L 302.631893 410.504915 
L 309.119487 412.92508 
L 315.607081 415.082952 
L 322.094676 416.980749 
L 328.58227 418.621985 
L 335.069864 420.011945 
L 341.557458 421.158077 
L 348.045052 422.070376 
L 354.532646 422.761781 
L 361.02024 423.248504 
L 367.507835 423.550064 
L 376.15796 423.703523 
L 384.808086 423.62759 
L 395.620742 423.302717 
L 410.758462 422.605604 
L 449.684027 420.699069 
L 464.821746 420.225829 
L 473.471872 420.086318 
L 473.471872 420.086318 
" style="fill:none;stroke:#3300ff;stroke-linecap:square;stroke-width:0.2;"/>
   </g>
   <g id="patch_4">
    <path d="M 63 441 
L 63 60.48 
" style="fill:none;stroke:#000000;stroke-linecap:square;stroke-linejoin:miter;stroke-width:0.8;"/>
   </g>
   <g id="patch_5">
    <path d="M 453.6 441 
L 453.6 60.48 
" style="fill:none;stroke:#000000;stroke-linecap:square;stroke-linejoin:miter;stroke-width:0.8;"/>
   </g>
   <g id="patch_6">
    <path d="M 63 441 
L 453.6 441 
" style="fill:none;stroke:#000000;stroke-linecap:square;stroke-linejoin:miter;stroke-width:0.8;"/>
   </g>
   <g id="patch_7">
    <path d="M 63 60.48 
L 453.6 60.48 
" style="fill:none;stroke:#000000;stroke-linecap:square;stroke-linejoin:miter;stroke-width:0.8;"/>
   </g>
  </g>
 </g>
 <defs>
  <clipPath id="p767d18c2e3">
   <rect height="380.52" width="390.6" x="63" y="60.48"/>
  </clipPath>
 </defs>
</svg>
