<?xml version="1.0" encoding="utf-8" standalone="no"?>
<!DOCTYPE svg PUBLIC "-//W3C//DTD SVG 1.1//EN"
  "http://www.w3.org/Graphics/SVG/1.1/DTD/svg11.dtd">
<!-- Created with matplotlib (http://matplotlib.org/) -->
<svg height="288pt" version="1.1" viewBox="0 0 432 288" width="432pt" xmlns="http://www.w3.org/2000/svg" xmlns:xlink="http://www.w3.org/1999/xlink">
 <defs>
  <style type="text/css">
*{stroke-linecap:butt;stroke-linejoin:round;}
  </style>
 </defs>
 <g id="figure_1">
  <g id="patch_1">
   <path d="M 0 288 
L 432 288 
L 432 0 
L 0 0 
z
" style="fill:none;"/>
  </g>
  <g id="axes_1">
   <g id="patch_2">
    <path d="M 54 252 
L 388.8 252 
L 388.8 34.56 
L 54 34.56 
z
" style="fill:none;"/>
   </g>
   <g id="patch_3">
    <path clip-path="url(#p1b793f60b4)" d="M 54 44.443636 
L 55.682412 46.526718 
L 57.364824 48.606783 
L 59.047236 50.683456 
L 60.729648 52.756361 
L 62.41206 54.82512 
L 64.094472 56.889356 
L 65.776884 58.948693 
L 67.459296 61.002753 
L 69.141709 63.05116 
L 70.824121 65.093541 
L 72.506533 67.129523 
L 74.188945 69.158734 
L 75.871357 71.180809 
L 77.553769 73.195383 
L 79.236181 75.202098 
L 80.918593 77.200599 
L 82.601005 79.190539 
L 84.283417 81.17158 
L 85.965829 83.143389 
L 87.648241 85.105646 
L 89.330653 87.058041 
L 91.013065 89.000277 
L 92.695477 90.932071 
L 94.377889 92.853154 
L 96.060302 94.763276 
L 97.742714 96.662204 
L 99.425126 98.549725 
L 101.107538 100.425645 
L 102.78995 102.289794 
L 104.472362 104.142022 
L 106.154774 105.982203 
L 107.837186 107.810233 
L 109.519598 109.626033 
L 111.20201 111.429543 
L 112.884422 113.220729 
L 114.566834 114.999572 
L 116.249246 116.766077 
L 117.931658 118.520264 
L 119.61407 120.262167 
L 121.296482 121.991834 
L 122.978894 123.709325 
L 124.661307 125.414705 
L 126.343719 127.108046 
L 128.026131 128.78942 
L 129.708543 130.458903 
L 131.390955 132.116564 
L 133.073367 133.762472 
L 134.755779 135.396686 
L 136.438191 137.019256 
L 138.120603 138.630226 
L 139.803015 140.229623 
L 141.485427 141.817466 
L 143.167839 143.393758 
L 144.850251 144.95849 
L 146.532663 146.511639 
L 148.215075 148.053165 
L 149.897487 149.583018 
L 151.579899 151.101131 
L 153.262312 152.607424 
L 154.944724 154.101806 
L 156.627136 155.584172 
L 158.309548 157.054405 
L 159.99196 158.512378 
L 161.674372 159.957955 
L 163.356784 161.390989 
L 165.039196 162.811325 
L 166.721608 164.218803 
L 168.40402 165.613252 
L 170.086432 166.994499 
L 171.768844 168.362366 
L 173.451256 169.71667 
L 175.133668 171.057225 
L 176.81608 172.383842 
L 178.498492 173.696334 
L 180.180905 174.994509 
L 181.863317 176.278178 
L 183.545729 177.54715 
L 185.228141 178.80124 
L 186.910553 180.04026 
L 188.592965 181.264028 
L 190.275377 182.472364 
L 191.957789 183.665092 
L 193.640201 184.842041 
L 195.322613 186.003044 
L 197.005025 187.147939 
L 198.687437 188.276572 
L 200.369849 189.388792 
L 202.052261 190.484457 
L 203.734673 191.563432 
L 205.417085 192.625588 
L 207.099497 193.670803 
L 208.78191 194.698964 
L 210.464322 195.709967 
L 212.146734 196.703714 
L 213.829146 197.680117 
L 215.511558 198.639096 
L 217.19397 199.58058 
L 218.876382 200.504506 
L 220.558794 201.410821 
L 222.241206 202.299481 
L 223.923618 203.170449 
L 225.60603 204.023698 
L 227.288442 204.859212 
L 228.970854 205.676979 
L 230.653266 206.477001 
L 232.335678 207.259285 
L 234.01809 208.023847 
L 235.700503 208.770711 
L 237.382915 209.499911 
L 239.065327 210.211487 
L 240.747739 210.905485 
L 242.430151 211.581962 
L 244.112563 212.24098 
L 245.794975 212.882606 
L 247.477387 213.506916 
L 249.159799 214.11399 
L 250.842211 214.703915 
L 252.524623 215.276781 
L 254.207035 215.832684 
L 255.889447 216.371725 
L 257.571859 216.894007 
L 259.254271 217.399637 
L 260.936683 217.888724 
L 262.619095 218.361379 
L 264.301508 218.817716 
L 265.98392 219.257849 
L 267.666332 219.68189 
L 269.348744 220.089953 
L 271.031156 220.482151 
L 272.713568 220.858594 
L 274.39598 221.219388 
L 276.078392 221.564638 
L 277.760804 221.894443 
L 279.443216 222.208896 
L 281.125628 222.508087 
L 282.80804 222.792095 
L 284.490452 223.060993 
L 286.172864 223.314844 
L 287.855276 223.553702 
L 289.537688 223.777609 
L 291.220101 223.986595 
L 292.902513 224.180676 
L 294.584925 224.359856 
L 296.267337 224.524122 
L 297.949749 224.673445 
L 299.632161 224.807782 
L 301.314573 224.927068 
L 302.996985 225.031225 
L 304.679397 225.120153 
L 306.361809 225.193734 
L 308.044221 225.251833 
L 309.726633 225.294297 
L 311.409045 225.320953 
L 313.091457 225.331613 
L 314.773869 225.326075 
L 316.456281 225.30412 
L 318.138693 225.26552 
L 319.821106 225.210037 
L 321.503518 225.137426 
L 323.18593 225.047438 
L 324.868342 224.939824 
L 326.550754 224.814337 
L 328.233166 224.670739 
L 329.915578 224.508798 
L 331.59799 224.328298 
L 333.280402 224.129037 
L 334.962814 223.910835 
L 336.645226 223.673531 
L 338.327638 223.41699 
L 340.01005 223.141101 
L 341.692462 222.84578 
L 343.374874 222.530971 
L 345.057286 222.196644 
L 346.739698 221.842797 
L 348.422111 221.469454 
L 350.104523 221.076664 
L 351.786935 220.664499 
L 353.469347 220.233055 
L 355.151759 219.782446 
L 356.834171 219.312805 
L 358.516583 218.824282 
L 360.198995 218.31704 
L 361.881407 217.791257 
L 363.563819 217.247118 
L 365.246231 216.684821 
L 366.928643 216.104568 
L 368.611055 215.50657 
L 370.293467 214.891041 
L 371.975879 214.258199 
L 373.658291 213.608265 
L 375.340704 212.941462 
L 377.023116 212.258013 
L 378.705528 211.558142 
L 380.38794 210.842073 
L 382.070352 210.11003 
L 383.752764 209.362236 
L 385.435176 208.598911 
L 387.117588 207.820277 
L 388.8 207.026551 
L 388.8 242.116364 
L 387.117588 241.879888 
L 385.435176 241.653754 
L 383.752764 241.437792 
L 382.070352 241.231832 
L 380.38794 241.035699 
L 378.705528 240.849216 
L 377.023116 240.672204 
L 375.340704 240.50448 
L 373.658291 240.345857 
L 371.975879 240.196145 
L 370.293467 240.055151 
L 368.611055 239.922675 
L 366.928643 239.798513 
L 365.246231 239.682455 
L 363.563819 239.574281 
L 361.881407 239.473766 
L 360.198995 239.380674 
L 358.516583 239.294756 
L 356.834171 239.215755 
L 355.151759 239.143395 
L 353.469347 239.077386 
L 351.786935 239.017423 
L 350.104523 238.963177 
L 348.422111 238.914301 
L 346.739698 238.870424 
L 345.057286 238.831151 
L 343.374874 238.796063 
L 341.692462 238.764713 
L 340.01005 238.736627 
L 338.327638 238.711305 
L 336.645226 238.68822 
L 334.962814 238.666818 
L 333.280402 238.646521 
L 331.59799 238.62673 
L 329.915578 238.606823 
L 328.233166 238.586162 
L 326.550754 238.564093 
L 324.868342 238.539952 
L 323.18593 238.513067 
L 321.503518 238.482761 
L 319.821106 238.44836 
L 318.138693 238.409189 
L 316.456281 238.364583 
L 314.773869 238.313885 
L 313.091457 238.256453 
L 311.409045 238.191657 
L 309.726633 238.118889 
L 308.044221 238.037556 
L 306.361809 237.947089 
L 304.679397 237.84694 
L 302.996985 237.736584 
L 301.314573 237.615519 
L 299.632161 237.483269 
L 297.949749 237.339379 
L 296.267337 237.183419 
L 294.584925 237.014981 
L 292.902513 236.833682 
L 291.220101 236.63916 
L 289.537688 236.431074 
L 287.855276 236.209105 
L 286.172864 235.972954 
L 284.490452 235.722339 
L 282.80804 235.457 
L 281.125628 235.176692 
L 279.443216 234.881188 
L 277.760804 234.570277 
L 276.078392 234.243762 
L 274.39598 233.901463 
L 272.713568 233.543212 
L 271.031156 233.168854 
L 269.348744 232.778248 
L 267.666332 232.371262 
L 265.98392 231.947779 
L 264.301508 231.507689 
L 262.619095 231.050895 
L 260.936683 230.577307 
L 259.254271 230.086847 
L 257.571859 229.579442 
L 255.889447 229.055031 
L 254.207035 228.513558 
L 252.524623 227.954976 
L 250.842211 227.379244 
L 249.159799 226.786328 
L 247.477387 226.1762 
L 245.794975 225.54884 
L 244.112563 224.90423 
L 242.430151 224.242361 
L 240.747739 223.563228 
L 239.065327 222.866829 
L 237.382915 222.153171 
L 235.700503 221.422261 
L 234.01809 220.674113 
L 232.335678 219.908746 
L 230.653266 219.12618 
L 228.970854 218.326441 
L 227.288442 217.50956 
L 225.60603 216.675569 
L 223.923618 215.824504 
L 222.241206 214.956409 
L 220.558794 214.071325 
L 218.876382 213.169301 
L 217.19397 212.250389 
L 215.511558 211.314645 
L 213.829146 210.362127 
L 212.146734 209.392899 
L 210.464322 208.407027 
L 208.78191 207.404583 
L 207.099497 206.385642 
L 205.417085 205.350284 
L 203.734673 204.298594 
L 202.052261 203.230661 
L 200.369849 202.14658 
L 198.687437 201.046452 
L 197.005025 199.930381 
L 195.322613 198.79848 
L 193.640201 197.650868 
L 191.957789 196.487669 
L 190.275377 195.309016 
L 188.592965 194.115048 
L 186.910553 192.905914 
L 185.228141 191.68177 
L 183.545729 190.442782 
L 181.863317 189.189123 
L 180.180905 187.920979 
L 178.498492 186.638545 
L 176.81608 185.342027 
L 175.133668 184.031644 
L 173.451256 182.707627 
L 171.768844 181.370218 
L 170.086432 180.019676 
L 168.40402 178.656271 
L 166.721608 177.28029 
L 165.039196 175.892036 
L 163.356784 174.491828 
L 161.674372 173.080002 
L 159.99196 171.656913 
L 158.309548 170.222933 
L 156.627136 168.778454 
L 154.944724 167.32389 
L 153.262312 165.859674 
L 151.579899 164.38626 
L 149.897487 162.904125 
L 148.215075 161.413768 
L 146.532663 159.91571 
L 144.850251 158.410496 
L 143.167839 156.898694 
L 141.485427 155.380893 
L 139.803015 153.857705 
L 138.120603 152.329766 
L 136.438191 150.797731 
L 134.755779 149.262277 
L 133.073367 147.724096 
L 131.390955 146.183903 
L 129.708543 144.642424 
L 128.026131 143.100401 
L 126.343719 141.558587 
L 124.661307 140.017742 
L 122.978894 138.478634 
L 121.296482 136.942034 
L 119.61407 135.408712 
L 117.931658 133.879437 
L 116.249246 132.354972 
L 114.566834 130.836072 
L 112.884422 129.323482 
L 111.20201 127.817933 
L 109.519598 126.320141 
L 107.837186 124.830807 
L 106.154774 123.350612 
L 104.472362 121.880218 
L 102.78995 120.420268 
L 101.107538 118.971383 
L 99.425126 117.534165 
L 97.742714 116.109195 
L 96.060302 114.697035 
L 94.377889 113.298226 
L 92.695477 111.913293 
L 91.013065 110.542744 
L 89.330653 109.187067 
L 87.648241 107.846739 
L 85.965829 106.522221 
L 84.283417 105.213963 
L 82.601005 103.9224 
L 80.918593 102.647959 
L 79.236181 101.391057 
L 77.553769 100.1521 
L 75.871357 98.931489 
L 74.188945 97.729614 
L 72.506533 96.546862 
L 70.824121 95.383611 
L 69.141709 94.240234 
L 67.459296 93.117099 
L 65.776884 92.014569 
L 64.094472 90.933001 
L 62.41206 89.872748 
L 60.729648 88.834158 
L 59.047236 87.817576 
L 57.364824 86.823339 
L 55.682412 85.851784 
L 54 84.90324 
z
" style="fill:#cc3300;opacity:0.3;stroke:#cc3300;stroke-linejoin:miter;stroke-width:0.5;"/>
   </g>
   <g id="matplotlib.axis_1">
    <g id="xtick_1">
     <g id="line2d_1">
      <defs>
       <path d="M 0 0 
L 0 3.5 
" id="m8037e2677a" style="stroke:#000000;stroke-width:0.8;"/>
      </defs>
      <g>
       <use style="stroke:#000000;stroke-width:0.8;" x="98.46188" xlink:href="#m8037e2677a" y="252"/>
      </g>
     </g>
     <g id="text_1">
      <!-- −1.0 -->
      <defs>
       <path d="M 10.59375 35.5 
L 73.1875 35.5 
L 73.1875 27.203125 
L 10.59375 27.203125 
z
" id="DejaVuSans-2212"/>
       <path d="M 12.40625 8.296875 
L 28.515625 8.296875 
L 28.515625 63.921875 
L 10.984375 60.40625 
L 10.984375 69.390625 
L 28.421875 72.90625 
L 38.28125 72.90625 
L 38.28125 8.296875 
L 54.390625 8.296875 
L 54.390625 0 
L 12.40625 0 
z
" id="DejaVuSans-31"/>
       <path d="M 10.6875 12.40625 
L 21 12.40625 
L 21 0 
L 10.6875 0 
z
" id="DejaVuSans-2e"/>
       <path d="M 31.78125 66.40625 
Q 24.171875 66.40625 20.328125 58.90625 
Q 16.5 51.421875 16.5 36.375 
Q 16.5 21.390625 20.328125 13.890625 
Q 24.171875 6.390625 31.78125 6.390625 
Q 39.453125 6.390625 43.28125 13.890625 
Q 47.125 21.390625 47.125 36.375 
Q 47.125 51.421875 43.28125 58.90625 
Q 39.453125 66.40625 31.78125 66.40625 
z
M 31.78125 74.21875 
Q 44.046875 74.21875 50.515625 64.515625 
Q 56.984375 54.828125 56.984375 36.375 
Q 56.984375 17.96875 50.515625 8.265625 
Q 44.046875 -1.421875 31.78125 -1.421875 
Q 19.53125 -1.421875 13.0625 8.265625 
Q 6.59375 17.96875 6.59375 36.375 
Q 6.59375 54.828125 13.0625 64.515625 
Q 19.53125 74.21875 31.78125 74.21875 
z
" id="DejaVuSans-30"/>
      </defs>
      <g transform="translate(86.320474 266.598437)scale(0.1 -0.1)">
       <use xlink:href="#DejaVuSans-2212"/>
       <use x="83.789062" xlink:href="#DejaVuSans-31"/>
       <use x="147.412109" xlink:href="#DejaVuSans-2e"/>
       <use x="179.199219" xlink:href="#DejaVuSans-30"/>
      </g>
     </g>
    </g>
    <g id="xtick_2">
     <g id="line2d_2">
      <g>
       <use style="stroke:#000000;stroke-width:0.8;" x="150.206263" xlink:href="#m8037e2677a" y="252"/>
      </g>
     </g>
     <g id="text_2">
      <!-- −0.5 -->
      <defs>
       <path d="M 10.796875 72.90625 
L 49.515625 72.90625 
L 49.515625 64.59375 
L 19.828125 64.59375 
L 19.828125 46.734375 
Q 21.96875 47.46875 24.109375 47.828125 
Q 26.265625 48.1875 28.421875 48.1875 
Q 40.625 48.1875 47.75 41.5 
Q 54.890625 34.8125 54.890625 23.390625 
Q 54.890625 11.625 47.5625 5.09375 
Q 40.234375 -1.421875 26.90625 -1.421875 
Q 22.3125 -1.421875 17.546875 -0.640625 
Q 12.796875 0.140625 7.71875 1.703125 
L 7.71875 11.625 
Q 12.109375 9.234375 16.796875 8.0625 
Q 21.484375 6.890625 26.703125 6.890625 
Q 35.15625 6.890625 40.078125 11.328125 
Q 45.015625 15.765625 45.015625 23.390625 
Q 45.015625 31 40.078125 35.4375 
Q 35.15625 39.890625 26.703125 39.890625 
Q 22.75 39.890625 18.8125 39.015625 
Q 14.890625 38.140625 10.796875 36.28125 
z
" id="DejaVuSans-35"/>
      </defs>
      <g transform="translate(138.064857 266.598437)scale(0.1 -0.1)">
       <use xlink:href="#DejaVuSans-2212"/>
       <use x="83.789062" xlink:href="#DejaVuSans-30"/>
       <use x="147.412109" xlink:href="#DejaVuSans-2e"/>
       <use x="179.199219" xlink:href="#DejaVuSans-35"/>
      </g>
     </g>
    </g>
    <g id="xtick_3">
     <g id="line2d_3">
      <g>
       <use style="stroke:#000000;stroke-width:0.8;" x="201.950646" xlink:href="#m8037e2677a" y="252"/>
      </g>
     </g>
     <g id="text_3">
      <!-- 0.0 -->
      <g transform="translate(193.999084 266.598437)scale(0.1 -0.1)">
       <use xlink:href="#DejaVuSans-30"/>
       <use x="63.623047" xlink:href="#DejaVuSans-2e"/>
       <use x="95.410156" xlink:href="#DejaVuSans-30"/>
      </g>
     </g>
    </g>
    <g id="xtick_4">
     <g id="line2d_4">
      <g>
       <use style="stroke:#000000;stroke-width:0.8;" x="253.695029" xlink:href="#m8037e2677a" y="252"/>
      </g>
     </g>
     <g id="text_4">
      <!-- 0.5 -->
      <g transform="translate(245.743467 266.598437)scale(0.1 -0.1)">
       <use xlink:href="#DejaVuSans-30"/>
       <use x="63.623047" xlink:href="#DejaVuSans-2e"/>
       <use x="95.410156" xlink:href="#DejaVuSans-35"/>
      </g>
     </g>
    </g>
    <g id="xtick_5">
     <g id="line2d_5">
      <g>
       <use style="stroke:#000000;stroke-width:0.8;" x="305.439412" xlink:href="#m8037e2677a" y="252"/>
      </g>
     </g>
     <g id="text_5">
      <!-- 1.0 -->
      <g transform="translate(297.48785 266.598437)scale(0.1 -0.1)">
       <use xlink:href="#DejaVuSans-31"/>
       <use x="63.623047" xlink:href="#DejaVuSans-2e"/>
       <use x="95.410156" xlink:href="#DejaVuSans-30"/>
      </g>
     </g>
    </g>
    <g id="xtick_6">
     <g id="line2d_6">
      <g>
       <use style="stroke:#000000;stroke-width:0.8;" x="357.183795" xlink:href="#m8037e2677a" y="252"/>
      </g>
     </g>
     <g id="text_6">
      <!-- 1.5 -->
      <g transform="translate(349.232233 266.598437)scale(0.1 -0.1)">
       <use xlink:href="#DejaVuSans-31"/>
       <use x="63.623047" xlink:href="#DejaVuSans-2e"/>
       <use x="95.410156" xlink:href="#DejaVuSans-35"/>
      </g>
     </g>
    </g>
    <g id="text_7">
     <!-- layer 1 -->
     <defs>
      <path d="M 9.421875 75.984375 
L 18.40625 75.984375 
L 18.40625 0 
L 9.421875 0 
z
" id="DejaVuSans-6c"/>
      <path d="M 34.28125 27.484375 
Q 23.390625 27.484375 19.1875 25 
Q 14.984375 22.515625 14.984375 16.5 
Q 14.984375 11.71875 18.140625 8.90625 
Q 21.296875 6.109375 26.703125 6.109375 
Q 34.1875 6.109375 38.703125 11.40625 
Q 43.21875 16.703125 43.21875 25.484375 
L 43.21875 27.484375 
z
M 52.203125 31.203125 
L 52.203125 0 
L 43.21875 0 
L 43.21875 8.296875 
Q 40.140625 3.328125 35.546875 0.953125 
Q 30.953125 -1.421875 24.3125 -1.421875 
Q 15.921875 -1.421875 10.953125 3.296875 
Q 6 8.015625 6 15.921875 
Q 6 25.140625 12.171875 29.828125 
Q 18.359375 34.515625 30.609375 34.515625 
L 43.21875 34.515625 
L 43.21875 35.40625 
Q 43.21875 41.609375 39.140625 45 
Q 35.0625 48.390625 27.6875 48.390625 
Q 23 48.390625 18.546875 47.265625 
Q 14.109375 46.140625 10.015625 43.890625 
L 10.015625 52.203125 
Q 14.9375 54.109375 19.578125 55.046875 
Q 24.21875 56 28.609375 56 
Q 40.484375 56 46.34375 49.84375 
Q 52.203125 43.703125 52.203125 31.203125 
z
" id="DejaVuSans-61"/>
      <path d="M 32.171875 -5.078125 
Q 28.375 -14.84375 24.75 -17.8125 
Q 21.140625 -20.796875 15.09375 -20.796875 
L 7.90625 -20.796875 
L 7.90625 -13.28125 
L 13.1875 -13.28125 
Q 16.890625 -13.28125 18.9375 -11.515625 
Q 21 -9.765625 23.484375 -3.21875 
L 25.09375 0.875 
L 2.984375 54.6875 
L 12.5 54.6875 
L 29.59375 11.921875 
L 46.6875 54.6875 
L 56.203125 54.6875 
z
" id="DejaVuSans-79"/>
      <path d="M 56.203125 29.59375 
L 56.203125 25.203125 
L 14.890625 25.203125 
Q 15.484375 15.921875 20.484375 11.0625 
Q 25.484375 6.203125 34.421875 6.203125 
Q 39.59375 6.203125 44.453125 7.46875 
Q 49.3125 8.734375 54.109375 11.28125 
L 54.109375 2.78125 
Q 49.265625 0.734375 44.1875 -0.34375 
Q 39.109375 -1.421875 33.890625 -1.421875 
Q 20.796875 -1.421875 13.15625 6.1875 
Q 5.515625 13.8125 5.515625 26.8125 
Q 5.515625 40.234375 12.765625 48.109375 
Q 20.015625 56 32.328125 56 
Q 43.359375 56 49.78125 48.890625 
Q 56.203125 41.796875 56.203125 29.59375 
z
M 47.21875 32.234375 
Q 47.125 39.59375 43.09375 43.984375 
Q 39.0625 48.390625 32.421875 48.390625 
Q 24.90625 48.390625 20.390625 44.140625 
Q 15.875 39.890625 15.1875 32.171875 
z
" id="DejaVuSans-65"/>
      <path d="M 41.109375 46.296875 
Q 39.59375 47.171875 37.8125 47.578125 
Q 36.03125 48 33.890625 48 
Q 26.265625 48 22.1875 43.046875 
Q 18.109375 38.09375 18.109375 28.8125 
L 18.109375 0 
L 9.078125 0 
L 9.078125 54.6875 
L 18.109375 54.6875 
L 18.109375 46.1875 
Q 20.953125 51.171875 25.484375 53.578125 
Q 30.03125 56 36.53125 56 
Q 37.453125 56 38.578125 55.875 
Q 39.703125 55.765625 41.0625 55.515625 
z
" id="DejaVuSans-72"/>
      <path id="DejaVuSans-20"/>
     </defs>
     <g transform="translate(186.770312 287.875)scale(0.2 -0.2)">
      <use xlink:href="#DejaVuSans-6c"/>
      <use x="27.783203" xlink:href="#DejaVuSans-61"/>
      <use x="89.0625" xlink:href="#DejaVuSans-79"/>
      <use x="148.242188" xlink:href="#DejaVuSans-65"/>
      <use x="209.765625" xlink:href="#DejaVuSans-72"/>
      <use x="250.878906" xlink:href="#DejaVuSans-20"/>
      <use x="282.666016" xlink:href="#DejaVuSans-31"/>
     </g>
    </g>
   </g>
   <g id="matplotlib.axis_2">
    <g id="ytick_1">
     <g id="line2d_7">
      <defs>
       <path d="M 0 0 
L -3.5 0 
" id="m25573ec410" style="stroke:#000000;stroke-width:0.8;"/>
      </defs>
      <g>
       <use style="stroke:#000000;stroke-width:0.8;" x="54" xlink:href="#m25573ec410" y="235.312422"/>
      </g>
     </g>
     <g id="text_8">
      <!-- 3.0 -->
      <defs>
       <path d="M 40.578125 39.3125 
Q 47.65625 37.796875 51.625 33 
Q 55.609375 28.21875 55.609375 21.1875 
Q 55.609375 10.40625 48.1875 4.484375 
Q 40.765625 -1.421875 27.09375 -1.421875 
Q 22.515625 -1.421875 17.65625 -0.515625 
Q 12.796875 0.390625 7.625 2.203125 
L 7.625 11.71875 
Q 11.71875 9.328125 16.59375 8.109375 
Q 21.484375 6.890625 26.8125 6.890625 
Q 36.078125 6.890625 40.9375 10.546875 
Q 45.796875 14.203125 45.796875 21.1875 
Q 45.796875 27.640625 41.28125 31.265625 
Q 36.765625 34.90625 28.71875 34.90625 
L 20.21875 34.90625 
L 20.21875 43.015625 
L 29.109375 43.015625 
Q 36.375 43.015625 40.234375 45.921875 
Q 44.09375 48.828125 44.09375 54.296875 
Q 44.09375 59.90625 40.109375 62.90625 
Q 36.140625 65.921875 28.71875 65.921875 
Q 24.65625 65.921875 20.015625 65.03125 
Q 15.375 64.15625 9.8125 62.3125 
L 9.8125 71.09375 
Q 15.4375 72.65625 20.34375 73.4375 
Q 25.25 74.21875 29.59375 74.21875 
Q 40.828125 74.21875 47.359375 69.109375 
Q 53.90625 64.015625 53.90625 55.328125 
Q 53.90625 49.265625 50.4375 45.09375 
Q 46.96875 40.921875 40.578125 39.3125 
z
" id="DejaVuSans-33"/>
      </defs>
      <g transform="translate(31.096875 239.111641)scale(0.1 -0.1)">
       <use xlink:href="#DejaVuSans-33"/>
       <use x="63.623047" xlink:href="#DejaVuSans-2e"/>
       <use x="95.410156" xlink:href="#DejaVuSans-30"/>
      </g>
     </g>
    </g>
    <g id="ytick_2">
     <g id="line2d_8">
      <g>
       <use style="stroke:#000000;stroke-width:0.8;" x="54" xlink:href="#m25573ec410" y="209.223163"/>
      </g>
     </g>
     <g id="text_9">
      <!-- 3.5 -->
      <g transform="translate(31.096875 213.022382)scale(0.1 -0.1)">
       <use xlink:href="#DejaVuSans-33"/>
       <use x="63.623047" xlink:href="#DejaVuSans-2e"/>
       <use x="95.410156" xlink:href="#DejaVuSans-35"/>
      </g>
     </g>
    </g>
    <g id="ytick_3">
     <g id="line2d_9">
      <g>
       <use style="stroke:#000000;stroke-width:0.8;" x="54" xlink:href="#m25573ec410" y="183.133904"/>
      </g>
     </g>
     <g id="text_10">
      <!-- 4.0 -->
      <defs>
       <path d="M 37.796875 64.3125 
L 12.890625 25.390625 
L 37.796875 25.390625 
z
M 35.203125 72.90625 
L 47.609375 72.90625 
L 47.609375 25.390625 
L 58.015625 25.390625 
L 58.015625 17.1875 
L 47.609375 17.1875 
L 47.609375 0 
L 37.796875 0 
L 37.796875 17.1875 
L 4.890625 17.1875 
L 4.890625 26.703125 
z
" id="DejaVuSans-34"/>
      </defs>
      <g transform="translate(31.096875 186.933123)scale(0.1 -0.1)">
       <use xlink:href="#DejaVuSans-34"/>
       <use x="63.623047" xlink:href="#DejaVuSans-2e"/>
       <use x="95.410156" xlink:href="#DejaVuSans-30"/>
      </g>
     </g>
    </g>
    <g id="ytick_4">
     <g id="line2d_10">
      <g>
       <use style="stroke:#000000;stroke-width:0.8;" x="54" xlink:href="#m25573ec410" y="157.044645"/>
      </g>
     </g>
     <g id="text_11">
      <!-- 4.5 -->
      <g transform="translate(31.096875 160.843864)scale(0.1 -0.1)">
       <use xlink:href="#DejaVuSans-34"/>
       <use x="63.623047" xlink:href="#DejaVuSans-2e"/>
       <use x="95.410156" xlink:href="#DejaVuSans-35"/>
      </g>
     </g>
    </g>
    <g id="ytick_5">
     <g id="line2d_11">
      <g>
       <use style="stroke:#000000;stroke-width:0.8;" x="54" xlink:href="#m25573ec410" y="130.955386"/>
      </g>
     </g>
     <g id="text_12">
      <!-- 5.0 -->
      <g transform="translate(31.096875 134.754605)scale(0.1 -0.1)">
       <use xlink:href="#DejaVuSans-35"/>
       <use x="63.623047" xlink:href="#DejaVuSans-2e"/>
       <use x="95.410156" xlink:href="#DejaVuSans-30"/>
      </g>
     </g>
    </g>
    <g id="ytick_6">
     <g id="line2d_12">
      <g>
       <use style="stroke:#000000;stroke-width:0.8;" x="54" xlink:href="#m25573ec410" y="104.866128"/>
      </g>
     </g>
     <g id="text_13">
      <!-- 5.5 -->
      <g transform="translate(31.096875 108.665346)scale(0.1 -0.1)">
       <use xlink:href="#DejaVuSans-35"/>
       <use x="63.623047" xlink:href="#DejaVuSans-2e"/>
       <use x="95.410156" xlink:href="#DejaVuSans-35"/>
      </g>
     </g>
    </g>
    <g id="ytick_7">
     <g id="line2d_13">
      <g>
       <use style="stroke:#000000;stroke-width:0.8;" x="54" xlink:href="#m25573ec410" y="78.776869"/>
      </g>
     </g>
     <g id="text_14">
      <!-- 6.0 -->
      <defs>
       <path d="M 33.015625 40.375 
Q 26.375 40.375 22.484375 35.828125 
Q 18.609375 31.296875 18.609375 23.390625 
Q 18.609375 15.53125 22.484375 10.953125 
Q 26.375 6.390625 33.015625 6.390625 
Q 39.65625 6.390625 43.53125 10.953125 
Q 47.40625 15.53125 47.40625 23.390625 
Q 47.40625 31.296875 43.53125 35.828125 
Q 39.65625 40.375 33.015625 40.375 
z
M 52.59375 71.296875 
L 52.59375 62.3125 
Q 48.875 64.0625 45.09375 64.984375 
Q 41.3125 65.921875 37.59375 65.921875 
Q 27.828125 65.921875 22.671875 59.328125 
Q 17.53125 52.734375 16.796875 39.40625 
Q 19.671875 43.65625 24.015625 45.921875 
Q 28.375 48.1875 33.59375 48.1875 
Q 44.578125 48.1875 50.953125 41.515625 
Q 57.328125 34.859375 57.328125 23.390625 
Q 57.328125 12.15625 50.6875 5.359375 
Q 44.046875 -1.421875 33.015625 -1.421875 
Q 20.359375 -1.421875 13.671875 8.265625 
Q 6.984375 17.96875 6.984375 36.375 
Q 6.984375 53.65625 15.1875 63.9375 
Q 23.390625 74.21875 37.203125 74.21875 
Q 40.921875 74.21875 44.703125 73.484375 
Q 48.484375 72.75 52.59375 71.296875 
z
" id="DejaVuSans-36"/>
      </defs>
      <g transform="translate(31.096875 82.576087)scale(0.1 -0.1)">
       <use xlink:href="#DejaVuSans-36"/>
       <use x="63.623047" xlink:href="#DejaVuSans-2e"/>
       <use x="95.410156" xlink:href="#DejaVuSans-30"/>
      </g>
     </g>
    </g>
    <g id="ytick_8">
     <g id="line2d_14">
      <g>
       <use style="stroke:#000000;stroke-width:0.8;" x="54" xlink:href="#m25573ec410" y="52.68761"/>
      </g>
     </g>
     <g id="text_15">
      <!-- 6.5 -->
      <g transform="translate(31.096875 56.486829)scale(0.1 -0.1)">
       <use xlink:href="#DejaVuSans-36"/>
       <use x="63.623047" xlink:href="#DejaVuSans-2e"/>
       <use x="95.410156" xlink:href="#DejaVuSans-35"/>
      </g>
     </g>
    </g>
    <g id="text_16">
     <!-- pace min/km -->
     <defs>
      <path d="M 18.109375 8.203125 
L 18.109375 -20.796875 
L 9.078125 -20.796875 
L 9.078125 54.6875 
L 18.109375 54.6875 
L 18.109375 46.390625 
Q 20.953125 51.265625 25.265625 53.625 
Q 29.59375 56 35.59375 56 
Q 45.5625 56 51.78125 48.09375 
Q 58.015625 40.1875 58.015625 27.296875 
Q 58.015625 14.40625 51.78125 6.484375 
Q 45.5625 -1.421875 35.59375 -1.421875 
Q 29.59375 -1.421875 25.265625 0.953125 
Q 20.953125 3.328125 18.109375 8.203125 
z
M 48.6875 27.296875 
Q 48.6875 37.203125 44.609375 42.84375 
Q 40.53125 48.484375 33.40625 48.484375 
Q 26.265625 48.484375 22.1875 42.84375 
Q 18.109375 37.203125 18.109375 27.296875 
Q 18.109375 17.390625 22.1875 11.75 
Q 26.265625 6.109375 33.40625 6.109375 
Q 40.53125 6.109375 44.609375 11.75 
Q 48.6875 17.390625 48.6875 27.296875 
z
" id="DejaVuSans-70"/>
      <path d="M 48.78125 52.59375 
L 48.78125 44.1875 
Q 44.96875 46.296875 41.140625 47.34375 
Q 37.3125 48.390625 33.40625 48.390625 
Q 24.65625 48.390625 19.8125 42.84375 
Q 14.984375 37.3125 14.984375 27.296875 
Q 14.984375 17.28125 19.8125 11.734375 
Q 24.65625 6.203125 33.40625 6.203125 
Q 37.3125 6.203125 41.140625 7.25 
Q 44.96875 8.296875 48.78125 10.40625 
L 48.78125 2.09375 
Q 45.015625 0.34375 40.984375 -0.53125 
Q 36.96875 -1.421875 32.421875 -1.421875 
Q 20.0625 -1.421875 12.78125 6.34375 
Q 5.515625 14.109375 5.515625 27.296875 
Q 5.515625 40.671875 12.859375 48.328125 
Q 20.21875 56 33.015625 56 
Q 37.15625 56 41.109375 55.140625 
Q 45.0625 54.296875 48.78125 52.59375 
z
" id="DejaVuSans-63"/>
      <path d="M 52 44.1875 
Q 55.375 50.25 60.0625 53.125 
Q 64.75 56 71.09375 56 
Q 79.640625 56 84.28125 50.015625 
Q 88.921875 44.046875 88.921875 33.015625 
L 88.921875 0 
L 79.890625 0 
L 79.890625 32.71875 
Q 79.890625 40.578125 77.09375 44.375 
Q 74.3125 48.1875 68.609375 48.1875 
Q 61.625 48.1875 57.5625 43.546875 
Q 53.515625 38.921875 53.515625 30.90625 
L 53.515625 0 
L 44.484375 0 
L 44.484375 32.71875 
Q 44.484375 40.625 41.703125 44.40625 
Q 38.921875 48.1875 33.109375 48.1875 
Q 26.21875 48.1875 22.15625 43.53125 
Q 18.109375 38.875 18.109375 30.90625 
L 18.109375 0 
L 9.078125 0 
L 9.078125 54.6875 
L 18.109375 54.6875 
L 18.109375 46.1875 
Q 21.1875 51.21875 25.484375 53.609375 
Q 29.78125 56 35.6875 56 
Q 41.65625 56 45.828125 52.96875 
Q 50 49.953125 52 44.1875 
z
" id="DejaVuSans-6d"/>
      <path d="M 9.421875 54.6875 
L 18.40625 54.6875 
L 18.40625 0 
L 9.421875 0 
z
M 9.421875 75.984375 
L 18.40625 75.984375 
L 18.40625 64.59375 
L 9.421875 64.59375 
z
" id="DejaVuSans-69"/>
      <path d="M 54.890625 33.015625 
L 54.890625 0 
L 45.90625 0 
L 45.90625 32.71875 
Q 45.90625 40.484375 42.875 44.328125 
Q 39.84375 48.1875 33.796875 48.1875 
Q 26.515625 48.1875 22.3125 43.546875 
Q 18.109375 38.921875 18.109375 30.90625 
L 18.109375 0 
L 9.078125 0 
L 9.078125 54.6875 
L 18.109375 54.6875 
L 18.109375 46.1875 
Q 21.34375 51.125 25.703125 53.5625 
Q 30.078125 56 35.796875 56 
Q 45.21875 56 50.046875 50.171875 
Q 54.890625 44.34375 54.890625 33.015625 
z
" id="DejaVuSans-6e"/>
      <path d="M 25.390625 72.90625 
L 33.6875 72.90625 
L 8.296875 -9.28125 
L 0 -9.28125 
z
" id="DejaVuSans-2f"/>
      <path d="M 9.078125 75.984375 
L 18.109375 75.984375 
L 18.109375 31.109375 
L 44.921875 54.6875 
L 56.390625 54.6875 
L 27.390625 29.109375 
L 57.625 0 
L 45.90625 0 
L 18.109375 26.703125 
L 18.109375 0 
L 9.078125 0 
z
" id="DejaVuSans-6b"/>
     </defs>
     <g transform="translate(22.9375 208.3425)rotate(-90)scale(0.2 -0.2)">
      <use xlink:href="#DejaVuSans-70"/>
      <use x="63.476562" xlink:href="#DejaVuSans-61"/>
      <use x="124.755859" xlink:href="#DejaVuSans-63"/>
      <use x="179.736328" xlink:href="#DejaVuSans-65"/>
      <use x="241.259766" xlink:href="#DejaVuSans-20"/>
      <use x="273.046875" xlink:href="#DejaVuSans-6d"/>
      <use x="370.458984" xlink:href="#DejaVuSans-69"/>
      <use x="398.242188" xlink:href="#DejaVuSans-6e"/>
      <use x="461.621094" xlink:href="#DejaVuSans-2f"/>
      <use x="495.3125" xlink:href="#DejaVuSans-6b"/>
      <use x="553.222656" xlink:href="#DejaVuSans-6d"/>
     </g>
    </g>
   </g>
   <g id="line2d_15">
    <path clip-path="url(#p1b793f60b4)" d="M 54 64.673438 
L 64.094472 73.911178 
L 75.871357 85.056149 
L 89.330653 98.122554 
L 129.708543 137.550663 
L 141.485427 148.599179 
L 151.579899 157.743695 
L 159.99196 165.084645 
L 168.40402 172.134761 
L 176.81608 178.862935 
L 183.545729 183.994966 
L 190.275377 188.89069 
L 197.005025 193.53916 
L 203.734673 197.931013 
L 210.464322 202.058497 
L 217.19397 205.915485 
L 223.923618 209.497477 
L 230.653266 212.801591 
L 237.382915 215.826541 
L 244.112563 218.572605 
L 250.842211 221.041579 
L 257.571859 223.236725 
L 264.301508 225.162703 
L 271.031156 226.825503 
L 277.760804 228.23236 
L 284.490452 229.391666 
L 291.220101 230.312877 
L 297.949749 231.006412 
L 304.679397 231.483546 
L 311.409045 231.756305 
L 318.138693 231.837354 
L 326.550754 231.689215 
L 334.962814 231.288826 
L 343.374874 230.663517 
L 353.469347 229.655221 
L 363.563819 228.4107 
L 375.340704 226.722971 
L 388.8 224.571457 
L 388.8 224.571457 
" style="fill:none;stroke:#3300ff;stroke-linecap:square;stroke-width:2;"/>
   </g>
   <g id="line2d_16">
    <path clip-path="url(#p1b793f60b4)" d="M 54 44.443636 
L 69.141709 63.05116 
L 80.918593 77.200599 
L 91.013065 89.000277 
L 101.107538 100.425645 
L 109.519598 109.626033 
L 117.931658 118.520264 
L 126.343719 127.108046 
L 134.755779 135.396686 
L 143.167839 143.393758 
L 151.579899 151.101131 
L 159.99196 158.512378 
L 168.40402 165.613252 
L 176.81608 172.383842 
L 183.545729 177.54715 
L 190.275377 182.472364 
L 197.005025 187.147939 
L 203.734673 191.563432 
L 210.464322 195.709967 
L 217.19397 199.58058 
L 223.923618 203.170449 
L 230.653266 206.477001 
L 237.382915 209.499911 
L 244.112563 212.24098 
L 250.842211 214.703915 
L 257.571859 216.894007 
L 264.301508 218.817716 
L 271.031156 220.482151 
L 277.760804 221.894443 
L 284.490452 223.060993 
L 291.220101 223.986595 
L 297.949749 224.673445 
L 304.679397 225.120153 
L 311.409045 225.320953 
L 318.138693 225.26552 
L 324.868342 224.939824 
L 331.59799 224.328298 
L 336.645226 223.673531 
L 341.692462 222.84578 
L 346.739698 221.842797 
L 351.786935 220.664499 
L 358.516583 218.824282 
L 365.246231 216.684821 
L 371.975879 214.258199 
L 378.705528 211.558142 
L 385.435176 208.598911 
L 388.8 207.026551 
L 388.8 207.026551 
" style="fill:none;stroke:#3300ff;stroke-linecap:square;stroke-width:0.2;"/>
   </g>
   <g id="line2d_17">
    <path clip-path="url(#p1b793f60b4)" d="M 54 84.90324 
L 59.047236 87.817576 
L 64.094472 90.933001 
L 70.824121 95.383611 
L 77.553769 100.1521 
L 84.283417 105.213963 
L 91.013065 110.542744 
L 99.425126 117.534165 
L 107.837186 124.830807 
L 117.931658 133.879437 
L 153.262312 165.859674 
L 161.674372 173.080002 
L 170.086432 180.019676 
L 178.498492 186.638545 
L 185.228141 191.68177 
L 191.957789 196.487669 
L 198.687437 201.046452 
L 205.417085 205.350284 
L 212.146734 209.392899 
L 218.876382 213.169301 
L 225.60603 216.675569 
L 232.335678 219.908746 
L 239.065327 222.866829 
L 245.794975 225.54884 
L 252.524623 227.954976 
L 259.254271 230.086847 
L 265.98392 231.947779 
L 272.713568 233.543212 
L 279.443216 234.881188 
L 286.172864 235.972954 
L 292.902513 236.833682 
L 299.632161 237.483269 
L 308.044221 238.037556 
L 316.456281 238.364583 
L 328.233166 238.586162 
L 350.104523 238.963177 
L 360.198995 239.380674 
L 368.611055 239.922675 
L 377.023116 240.672204 
L 385.435176 241.653754 
L 388.8 242.116364 
L 388.8 242.116364 
" style="fill:none;stroke:#3300ff;stroke-linecap:square;stroke-width:0.2;"/>
   </g>
   <g id="line2d_18">
    <defs>
     <path d="M 0 2.5 
C 0.663008 2.5 1.29895 2.236584 1.767767 1.767767 
C 2.236584 1.29895 2.5 0.663008 2.5 0 
C 2.5 -0.663008 2.236584 -1.29895 1.767767 -1.767767 
C 1.29895 -2.236584 0.663008 -2.5 0 -2.5 
C -0.663008 -2.5 -1.29895 -2.236584 -1.767767 -1.767767 
C -2.236584 -1.29895 -2.5 -0.663008 -2.5 0 
C -2.5 0.663008 -2.236584 1.29895 -1.767767 1.767767 
C -1.29895 2.236584 -0.663008 2.5 0 2.5 
z
" id="m11997fbe59" style="stroke:#ff0000;"/>
    </defs>
    <g clip-path="url(#p1b793f60b4)">
     <use style="fill:#ff0000;stroke:#ff0000;" x="152.445465" xlink:href="#m11997fbe59" y="158.566519"/>
     <use style="fill:#ff0000;stroke:#ff0000;" x="153.013018" xlink:href="#m11997fbe59" y="158.88502"/>
     <use style="fill:#ff0000;stroke:#ff0000;" x="112.55054" xlink:href="#m11997fbe59" y="119.367407"/>
     <use style="fill:#ff0000;stroke:#ff0000;" x="171.955012" xlink:href="#m11997fbe59" y="175.063"/>
     <use style="fill:#ff0000;stroke:#ff0000;" x="188.689464" xlink:href="#m11997fbe59" y="188.178693"/>
     <use style="fill:#ff0000;stroke:#ff0000;" x="214.677799" xlink:href="#m11997fbe59" y="205.596095"/>
     <use style="fill:#ff0000;stroke:#ff0000;" x="195.366774" xlink:href="#m11997fbe59" y="192.288898"/>
     <use style="fill:#ff0000;stroke:#ff0000;" x="211.177466" xlink:href="#m11997fbe59" y="202.70935"/>
     <use style="fill:#ff0000;stroke:#ff0000;" x="214.373939" xlink:href="#m11997fbe59" y="204.378766"/>
     <use style="fill:#ff0000;stroke:#ff0000;" x="219.636126" xlink:href="#m11997fbe59" y="207.198224"/>
     <use style="fill:#ff0000;stroke:#ff0000;" x="210.009644" xlink:href="#m11997fbe59" y="200.347436"/>
     <use style="fill:#ff0000;stroke:#ff0000;" x="237.068482" xlink:href="#m11997fbe59" y="214.94761"/>
     <use style="fill:#ff0000;stroke:#ff0000;" x="232.99094" xlink:href="#m11997fbe59" y="212.540354"/>
     <use style="fill:#ff0000;stroke:#ff0000;" x="262.203471" xlink:href="#m11997fbe59" y="224.572514"/>
     <use style="fill:#ff0000;stroke:#ff0000;" x="274.413268" xlink:href="#m11997fbe59" y="228.385377"/>
     <use style="fill:#ff0000;stroke:#ff0000;" x="248.467656" xlink:href="#m11997fbe59" y="218.187514"/>
     <use style="fill:#ff0000;stroke:#ff0000;" x="278.8762" xlink:href="#m11997fbe59" y="228.224618"/>
     <use style="fill:#ff0000;stroke:#ff0000;" x="289.323709" xlink:href="#m11997fbe59" y="231.192469"/>
     <use style="fill:#ff0000;stroke:#ff0000;" x="288.98326" xlink:href="#m11997fbe59" y="229.790984"/>
     <use style="fill:#ff0000;stroke:#ff0000;" x="296.594526" xlink:href="#m11997fbe59" y="231.893211"/>
     <use style="fill:#ff0000;stroke:#ff0000;" x="296.899978" xlink:href="#m11997fbe59" y="230.429896"/>
     <use style="fill:#ff0000;stroke:#ff0000;" x="291.441019" xlink:href="#m11997fbe59" y="226.905574"/>
     <use style="fill:#ff0000;stroke:#ff0000;" x="298.5226" xlink:href="#m11997fbe59" y="227.874247"/>
     <use style="fill:#ff0000;stroke:#ff0000;" x="307.100855" xlink:href="#m11997fbe59" y="230.862707"/>
     <use style="fill:#ff0000;stroke:#ff0000;" x="309.110761" xlink:href="#m11997fbe59" y="229.955864"/>
     <use style="fill:#ff0000;stroke:#ff0000;" x="314.582364" xlink:href="#m11997fbe59" y="235.376313"/>
     <use style="fill:#ff0000;stroke:#ff0000;" x="315.923768" xlink:href="#m11997fbe59" y="233.542017"/>
    </g>
   </g>
   <g id="patch_4">
    <path d="M 54 252 
L 54 34.56 
" style="fill:none;stroke:#000000;stroke-linecap:square;stroke-linejoin:miter;stroke-width:0.8;"/>
   </g>
   <g id="patch_5">
    <path d="M 388.8 252 
L 388.8 34.56 
" style="fill:none;stroke:#000000;stroke-linecap:square;stroke-linejoin:miter;stroke-width:0.8;"/>
   </g>
   <g id="patch_6">
    <path d="M 54 252 
L 388.8 252 
" style="fill:none;stroke:#000000;stroke-linecap:square;stroke-linejoin:miter;stroke-width:0.8;"/>
   </g>
   <g id="patch_7">
    <path d="M 54 34.56 
L 388.8 34.56 
" style="fill:none;stroke:#000000;stroke-linecap:square;stroke-linejoin:miter;stroke-width:0.8;"/>
   </g>
  </g>
 </g>
 <defs>
  <clipPath id="p1b793f60b4">
   <rect height="217.44" width="334.8" x="54" y="34.56"/>
  </clipPath>
 </defs>
</svg>
