<?xml version="1.0" encoding="utf-8" standalone="no"?>
<!DOCTYPE svg PUBLIC "-//W3C//DTD SVG 1.1//EN"
  "http://www.w3.org/Graphics/SVG/1.1/DTD/svg11.dtd">
<!-- Created with matplotlib (http://matplotlib.org/) -->
<svg height="432pt" version="1.1" viewBox="0 0 720 432" width="720pt" xmlns="http://www.w3.org/2000/svg" xmlns:xlink="http://www.w3.org/1999/xlink">
 <defs>
  <style type="text/css">
*{stroke-linecap:butt;stroke-linejoin:round;}
  </style>
 </defs>
 <g id="figure_1">
  <g id="patch_1">
   <path d="M 0 432 
L 720 432 
L 720 0 
L 0 0 
z
" style="fill:none;"/>
  </g>
  <g id="axes_1">
   <g id="patch_2">
    <path d="M 90 378 
L 648 378 
L 648 51.84 
L 90 51.84 
z
" style="fill:none;"/>
   </g>
   <g id="patch_3">
    <path clip-path="url(#p6f004f2400)" d="M 82.08 81.754218 
L 85.017889 82.760384 
L 87.955779 83.800155 
L 90.893668 84.874873 
L 93.831558 85.986068 
L 96.769447 87.135456 
L 99.707337 88.324932 
L 102.645226 89.556565 
L 105.583116 90.832589 
L 108.521005 92.155391 
L 111.458894 93.527502 
L 114.396784 94.951576 
L 117.334673 96.430381 
L 120.272563 97.966777 
L 123.210452 99.563697 
L 126.148342 101.224131 
L 129.086231 102.951104 
L 132.024121 104.747653 
L 134.96201 106.616805 
L 137.899899 108.561558 
L 140.837789 110.584853 
L 143.775678 112.68955 
L 146.713568 114.878401 
L 149.651457 117.154025 
L 152.589347 119.518876 
L 155.527236 121.975212 
L 158.465126 124.525061 
L 161.403015 127.170187 
L 164.340905 129.912053 
L 167.278794 132.751776 
L 170.216683 135.690091 
L 173.154573 138.727303 
L 176.092462 141.863245 
L 179.030352 145.097231 
L 181.968241 148.428008 
L 184.906131 151.853716 
L 187.84402 155.371842 
L 190.78191 158.979178 
L 193.719799 162.671788 
L 196.657688 166.444973 
L 199.595578 170.293245 
L 202.533467 174.210311 
L 205.471357 178.189058 
L 208.409246 182.221555 
L 211.347136 186.299059 
L 214.285025 190.412036 
L 217.222915 194.550189 
L 220.160804 198.702501 
L 223.098693 202.857291 
L 226.036583 207.002276 
L 228.974472 211.124654 
L 231.912362 215.211189 
L 234.850251 219.248311 
L 237.788141 223.222229 
L 240.72603 227.11905 
L 243.66392 230.924905 
L 246.601809 234.626085 
L 249.539698 238.209189 
L 252.477588 241.661272 
L 255.415477 244.97001 
L 258.353367 248.123869 
L 261.291256 251.112293 
L 264.229146 253.925906 
L 267.167035 256.556732 
L 270.104925 258.998445 
L 273.042814 261.24662 
L 275.980704 263.299014 
L 278.918593 265.155815 
L 281.856482 266.819858 
L 284.794372 268.29675 
L 287.732261 269.59486 
L 290.670151 270.725137 
L 293.60804 271.700738 
L 296.54593 272.536489 
L 299.483819 273.248229 
L 302.421709 273.852126 
L 305.359598 274.364031 
L 308.297487 274.798967 
L 311.235377 275.170776 
L 314.173266 275.491944 
L 317.111156 275.77359 
L 320.049045 276.025581 
L 322.986935 276.256732 
L 325.924824 276.475037 
L 328.862714 276.687898 
L 331.800603 276.902312 
L 334.738492 277.125005 
L 337.676382 277.362495 
L 340.614271 277.621095 
L 343.552161 277.906861 
L 346.49005 278.225508 
L 349.42794 278.582301 
L 352.365829 278.981945 
L 355.303719 279.42848 
L 358.241608 279.925196 
L 361.179497 280.474568 
L 364.117387 281.078213 
L 367.055276 281.736876 
L 369.993166 282.450435 
L 372.931055 283.217931 
L 375.868945 284.037609 
L 378.806834 284.906981 
L 381.744724 285.822894 
L 384.682613 286.781608 
L 387.620503 287.778882 
L 390.558392 288.810061 
L 393.496281 289.870159 
L 396.434171 290.95395 
L 399.37206 292.056049 
L 402.30995 293.170991 
L 405.247839 294.293304 
L 408.185729 295.41758 
L 411.123618 296.538532 
L 414.061508 297.651053 
L 416.999397 298.750259 
L 419.937286 299.831535 
L 422.875176 300.890565 
L 425.813065 301.92336 
L 428.750955 302.926283 
L 431.688844 303.896065 
L 434.626734 304.829812 
L 437.564623 305.725017 
L 440.502513 306.579561 
L 443.440402 307.391714 
L 446.378291 308.160128 
L 449.316181 308.883835 
L 452.25407 309.562234 
L 455.19196 310.19508 
L 458.129849 310.782471 
L 461.067739 311.32483 
L 464.005628 311.822885 
L 466.943518 312.277647 
L 469.881407 312.690385 
L 472.819296 313.062604 
L 475.757186 313.396009 
L 478.695075 313.692481 
L 481.632965 313.954041 
L 484.570854 314.182823 
L 487.508744 314.381039 
L 490.446633 314.550951 
L 493.384523 314.694837 
L 496.322412 314.81497 
L 499.260302 314.913584 
L 502.198191 314.992859 
L 505.13608 315.054896 
L 508.07397 315.101699 
L 511.011859 315.135162 
L 513.949749 315.157058 
L 516.887638 315.169026 
L 519.825528 315.172563 
L 522.763417 315.169024 
L 525.701307 315.159612 
L 528.639196 315.145378 
L 531.577085 315.127223 
L 534.514975 315.105892 
L 537.452864 315.081981 
L 540.390754 315.055935 
L 543.328643 315.028051 
L 546.266533 314.998481 
L 549.204422 314.967234 
L 552.142312 314.934178 
L 555.080201 314.899045 
L 558.01809 314.861432 
L 560.95598 314.820806 
L 563.893869 314.776502 
L 566.831759 314.727732 
L 569.769648 314.673582 
L 572.707538 314.613018 
L 575.645427 314.54489 
L 578.583317 314.46793 
L 581.521206 314.380763 
L 584.459095 314.281909 
L 587.396985 314.169787 
L 590.334874 314.042727 
L 593.272764 313.898978 
L 596.210653 313.736718 
L 599.148543 313.554075 
L 602.086432 313.349139 
L 605.024322 313.119987 
L 607.962211 312.864705 
L 610.900101 312.581419 
L 613.83799 312.268324 
L 616.775879 311.923715 
L 619.713769 311.546028 
L 622.651658 311.13387 
L 625.589548 310.686054 
L 628.527437 310.201638 
L 631.465327 309.679948 
L 634.403216 309.12061 
L 637.341106 308.523568 
L 640.278995 307.889098 
L 643.216884 307.217817 
L 646.154774 306.510683 
L 649.092663 305.768986 
L 652.030553 304.994339 
L 654.968442 304.188651 
L 657.906332 303.354102 
L 660.844221 302.493112 
L 663.782111 301.608301 
L 666.72 300.702451 
L 666.72 346.138276 
L 663.782111 346.009659 
L 660.844221 345.877788 
L 657.906332 345.744141 
L 654.968442 345.610186 
L 652.030553 345.477358 
L 649.092663 345.347026 
L 646.154774 345.220463 
L 643.216884 345.098823 
L 640.278995 344.98312 
L 637.341106 344.874212 
L 634.403216 344.772783 
L 631.465327 344.679344 
L 628.527437 344.594226 
L 625.589548 344.51759 
L 622.651658 344.449429 
L 619.713769 344.389589 
L 616.775879 344.337781 
L 613.83799 344.293603 
L 610.900101 344.256561 
L 607.962211 344.22609 
L 605.024322 344.201576 
L 602.086432 344.182375 
L 599.148543 344.167829 
L 596.210653 344.157285 
L 593.272764 344.150105 
L 590.334874 344.145675 
L 587.396985 344.143415 
L 584.459095 344.142783 
L 581.521206 344.143276 
L 578.583317 344.144436 
L 575.645427 344.145845 
L 572.707538 344.147127 
L 569.769648 344.147948 
L 566.831759 344.148009 
L 563.893869 344.147049 
L 560.95598 344.144843 
L 558.01809 344.141195 
L 555.080201 344.135944 
L 552.142312 344.128955 
L 549.204422 344.120126 
L 546.266533 344.109382 
L 543.328643 344.096674 
L 540.390754 344.081985 
L 537.452864 344.065321 
L 534.514975 344.046719 
L 531.577085 344.026242 
L 528.639196 344.003979 
L 525.701307 343.980045 
L 522.763417 343.954578 
L 519.825528 343.927738 
L 516.887638 343.899705 
L 513.949749 343.870672 
L 511.011859 343.840841 
L 508.07397 343.810417 
L 505.13608 343.779598 
L 502.198191 343.748567 
L 499.260302 343.71748 
L 496.322412 343.686451 
L 493.384523 343.655539 
L 490.446633 343.62473 
L 487.508744 343.593916 
L 484.570854 343.562883 
L 481.632965 343.531283 
L 478.695075 343.49862 
L 475.757186 343.464228 
L 472.819296 343.427253 
L 469.881407 343.386638 
L 466.943518 343.341113 
L 464.005628 343.28918 
L 461.067739 343.229113 
L 458.129849 343.158957 
L 455.19196 343.076529 
L 452.25407 342.979431 
L 449.316181 342.865062 
L 446.378291 342.730641 
L 443.440402 342.573229 
L 440.502513 342.389754 
L 437.564623 342.177053 
L 434.626734 341.9319 
L 431.688844 341.651051 
L 428.750955 341.331285 
L 425.813065 340.969452 
L 422.875176 340.562522 
L 419.937286 340.107631 
L 416.999397 339.602142 
L 414.061508 339.043691 
L 411.123618 338.430244 
L 408.185729 337.760152 
L 405.247839 337.032203 
L 402.30995 336.245677 
L 399.37206 335.40039 
L 396.434171 334.496746 
L 393.496281 333.535777 
L 390.558392 332.519176 
L 387.620503 331.44933 
L 384.682613 330.329341 
L 381.744724 329.163034 
L 378.806834 327.954961 
L 375.868945 326.710389 
L 372.931055 325.435274 
L 369.993166 324.136221 
L 367.055276 322.820426 
L 364.117387 321.495604 
L 361.179497 320.169893 
L 358.241608 318.85174 
L 355.303719 317.549764 
L 352.365829 316.272605 
L 349.42794 315.028744 
L 346.49005 313.826312 
L 343.552161 312.672887 
L 340.614271 311.575286 
L 337.676382 310.539366 
L 334.738492 309.569845 
L 331.800603 308.670166 
L 328.862714 307.842416 
L 325.924824 307.087326 
L 322.986935 306.404348 
L 320.049045 305.791833 
L 317.111156 305.247287 
L 314.173266 304.767684 
L 311.235377 304.349822 
L 308.297487 303.99065 
L 305.359598 303.687541 
L 302.421709 303.438453 
L 299.483819 303.241944 
L 296.54593 303.097015 
L 293.60804 303.002809 
L 290.670151 302.958176 
L 287.732261 302.961204 
L 284.794372 303.008776 
L 281.856482 303.096233 
L 278.918593 303.217206 
L 275.980704 303.363616 
L 273.042814 303.525834 
L 270.104925 303.692963 
L 267.167035 303.853184 
L 264.229146 303.994125 
L 261.291256 304.103219 
L 258.353367 304.168038 
L 255.415477 304.176575 
L 252.477588 304.117485 
L 249.539698 303.980288 
L 246.601809 303.755522 
L 243.66392 303.434872 
L 240.72603 303.011259 
L 237.788141 302.47891 
L 234.850251 301.833399 
L 231.912362 301.071664 
L 228.974472 300.19201 
L 226.036583 299.194089 
L 223.098693 298.078867 
L 220.160804 296.848574 
L 217.222915 295.506642 
L 214.285025 294.057628 
L 211.347136 292.507132 
L 208.409246 290.861704 
L 205.471357 289.128742 
L 202.533467 287.31639 
L 199.595578 285.433427 
L 196.657688 283.489157 
L 193.719799 281.493302 
L 190.78191 279.45589 
L 187.84402 277.387148 
L 184.906131 275.297402 
L 181.968241 273.19698 
L 179.030352 271.096118 
L 176.092462 269.004881 
L 173.154573 266.933084 
L 170.216683 264.890222 
L 167.278794 262.885419 
L 164.340905 260.927369 
L 161.403015 259.024298 
L 158.465126 257.183936 
L 155.527236 255.413482 
L 152.589347 253.719598 
L 149.651457 252.108393 
L 146.713568 250.585422 
L 143.775678 249.155687 
L 140.837789 247.82365 
L 137.899899 246.593236 
L 134.96201 245.467854 
L 132.024121 244.450415 
L 129.086231 243.543346 
L 126.148342 242.748612 
L 123.210452 242.067737 
L 120.272563 241.501824 
L 117.334673 241.051573 
L 114.396784 240.717303 
L 111.458894 240.498965 
L 108.521005 240.396163 
L 105.583116 240.408168 
L 102.645226 240.533936 
L 99.707337 240.772117 
L 96.769447 241.121072 
L 93.831558 241.578887 
L 90.893668 242.143384 
L 87.955779 242.812134 
L 85.017889 243.582472 
L 82.08 244.451509 
z
" style="fill:#cc3300;opacity:0.3;stroke:#cc3300;stroke-linejoin:miter;stroke-width:0.5;"/>
   </g>
   <g id="matplotlib.axis_1">
    <g id="xtick_1">
     <g id="line2d_1">
      <defs>
       <path d="M 0 0 
L 0 3.5 
" id="mad1a46d147" style="stroke:#000000;stroke-width:0.8;"/>
      </defs>
      <g>
       <use style="stroke:#000000;stroke-width:0.8;" x="108" xlink:href="#mad1a46d147" y="378"/>
      </g>
     </g>
     <g id="text_1">
      <!-- 1880 -->
      <defs>
       <path d="M 12.40625 8.296875 
L 28.515625 8.296875 
L 28.515625 63.921875 
L 10.984375 60.40625 
L 10.984375 69.390625 
L 28.421875 72.90625 
L 38.28125 72.90625 
L 38.28125 8.296875 
L 54.390625 8.296875 
L 54.390625 0 
L 12.40625 0 
z
" id="DejaVuSans-31"/>
       <path d="M 31.78125 34.625 
Q 24.75 34.625 20.71875 30.859375 
Q 16.703125 27.09375 16.703125 20.515625 
Q 16.703125 13.921875 20.71875 10.15625 
Q 24.75 6.390625 31.78125 6.390625 
Q 38.8125 6.390625 42.859375 10.171875 
Q 46.921875 13.96875 46.921875 20.515625 
Q 46.921875 27.09375 42.890625 30.859375 
Q 38.875 34.625 31.78125 34.625 
z
M 21.921875 38.8125 
Q 15.578125 40.375 12.03125 44.71875 
Q 8.5 49.078125 8.5 55.328125 
Q 8.5 64.0625 14.71875 69.140625 
Q 20.953125 74.21875 31.78125 74.21875 
Q 42.671875 74.21875 48.875 69.140625 
Q 55.078125 64.0625 55.078125 55.328125 
Q 55.078125 49.078125 51.53125 44.71875 
Q 48 40.375 41.703125 38.8125 
Q 48.828125 37.15625 52.796875 32.3125 
Q 56.78125 27.484375 56.78125 20.515625 
Q 56.78125 9.90625 50.3125 4.234375 
Q 43.84375 -1.421875 31.78125 -1.421875 
Q 19.734375 -1.421875 13.25 4.234375 
Q 6.78125 9.90625 6.78125 20.515625 
Q 6.78125 27.484375 10.78125 32.3125 
Q 14.796875 37.15625 21.921875 38.8125 
z
M 18.3125 54.390625 
Q 18.3125 48.734375 21.84375 45.5625 
Q 25.390625 42.390625 31.78125 42.390625 
Q 38.140625 42.390625 41.71875 45.5625 
Q 45.3125 48.734375 45.3125 54.390625 
Q 45.3125 60.0625 41.71875 63.234375 
Q 38.140625 66.40625 31.78125 66.40625 
Q 25.390625 66.40625 21.84375 63.234375 
Q 18.3125 60.0625 18.3125 54.390625 
z
" id="DejaVuSans-38"/>
       <path d="M 31.78125 66.40625 
Q 24.171875 66.40625 20.328125 58.90625 
Q 16.5 51.421875 16.5 36.375 
Q 16.5 21.390625 20.328125 13.890625 
Q 24.171875 6.390625 31.78125 6.390625 
Q 39.453125 6.390625 43.28125 13.890625 
Q 47.125 21.390625 47.125 36.375 
Q 47.125 51.421875 43.28125 58.90625 
Q 39.453125 66.40625 31.78125 66.40625 
z
M 31.78125 74.21875 
Q 44.046875 74.21875 50.515625 64.515625 
Q 56.984375 54.828125 56.984375 36.375 
Q 56.984375 17.96875 50.515625 8.265625 
Q 44.046875 -1.421875 31.78125 -1.421875 
Q 19.53125 -1.421875 13.0625 8.265625 
Q 6.59375 17.96875 6.59375 36.375 
Q 6.59375 54.828125 13.0625 64.515625 
Q 19.53125 74.21875 31.78125 74.21875 
z
" id="DejaVuSans-30"/>
      </defs>
      <g transform="translate(95.275 392.598437)scale(0.1 -0.1)">
       <use xlink:href="#DejaVuSans-31"/>
       <use x="63.623047" xlink:href="#DejaVuSans-38"/>
       <use x="127.246094" xlink:href="#DejaVuSans-38"/>
       <use x="190.869141" xlink:href="#DejaVuSans-30"/>
      </g>
     </g>
    </g>
    <g id="xtick_2">
     <g id="line2d_2">
      <g>
       <use style="stroke:#000000;stroke-width:0.8;" x="180" xlink:href="#mad1a46d147" y="378"/>
      </g>
     </g>
     <g id="text_2">
      <!-- 1900 -->
      <defs>
       <path d="M 10.984375 1.515625 
L 10.984375 10.5 
Q 14.703125 8.734375 18.5 7.8125 
Q 22.3125 6.890625 25.984375 6.890625 
Q 35.75 6.890625 40.890625 13.453125 
Q 46.046875 20.015625 46.78125 33.40625 
Q 43.953125 29.203125 39.59375 26.953125 
Q 35.25 24.703125 29.984375 24.703125 
Q 19.046875 24.703125 12.671875 31.3125 
Q 6.296875 37.9375 6.296875 49.421875 
Q 6.296875 60.640625 12.9375 67.421875 
Q 19.578125 74.21875 30.609375 74.21875 
Q 43.265625 74.21875 49.921875 64.515625 
Q 56.59375 54.828125 56.59375 36.375 
Q 56.59375 19.140625 48.40625 8.859375 
Q 40.234375 -1.421875 26.421875 -1.421875 
Q 22.703125 -1.421875 18.890625 -0.6875 
Q 15.09375 0.046875 10.984375 1.515625 
z
M 30.609375 32.421875 
Q 37.25 32.421875 41.125 36.953125 
Q 45.015625 41.5 45.015625 49.421875 
Q 45.015625 57.28125 41.125 61.84375 
Q 37.25 66.40625 30.609375 66.40625 
Q 23.96875 66.40625 20.09375 61.84375 
Q 16.21875 57.28125 16.21875 49.421875 
Q 16.21875 41.5 20.09375 36.953125 
Q 23.96875 32.421875 30.609375 32.421875 
z
" id="DejaVuSans-39"/>
      </defs>
      <g transform="translate(167.275 392.598437)scale(0.1 -0.1)">
       <use xlink:href="#DejaVuSans-31"/>
       <use x="63.623047" xlink:href="#DejaVuSans-39"/>
       <use x="127.246094" xlink:href="#DejaVuSans-30"/>
       <use x="190.869141" xlink:href="#DejaVuSans-30"/>
      </g>
     </g>
    </g>
    <g id="xtick_3">
     <g id="line2d_3">
      <g>
       <use style="stroke:#000000;stroke-width:0.8;" x="252" xlink:href="#mad1a46d147" y="378"/>
      </g>
     </g>
     <g id="text_3">
      <!-- 1920 -->
      <defs>
       <path d="M 19.1875 8.296875 
L 53.609375 8.296875 
L 53.609375 0 
L 7.328125 0 
L 7.328125 8.296875 
Q 12.9375 14.109375 22.625 23.890625 
Q 32.328125 33.6875 34.8125 36.53125 
Q 39.546875 41.84375 41.421875 45.53125 
Q 43.3125 49.21875 43.3125 52.78125 
Q 43.3125 58.59375 39.234375 62.25 
Q 35.15625 65.921875 28.609375 65.921875 
Q 23.96875 65.921875 18.8125 64.3125 
Q 13.671875 62.703125 7.8125 59.421875 
L 7.8125 69.390625 
Q 13.765625 71.78125 18.9375 73 
Q 24.125 74.21875 28.421875 74.21875 
Q 39.75 74.21875 46.484375 68.546875 
Q 53.21875 62.890625 53.21875 53.421875 
Q 53.21875 48.921875 51.53125 44.890625 
Q 49.859375 40.875 45.40625 35.40625 
Q 44.1875 33.984375 37.640625 27.21875 
Q 31.109375 20.453125 19.1875 8.296875 
z
" id="DejaVuSans-32"/>
      </defs>
      <g transform="translate(239.275 392.598437)scale(0.1 -0.1)">
       <use xlink:href="#DejaVuSans-31"/>
       <use x="63.623047" xlink:href="#DejaVuSans-39"/>
       <use x="127.246094" xlink:href="#DejaVuSans-32"/>
       <use x="190.869141" xlink:href="#DejaVuSans-30"/>
      </g>
     </g>
    </g>
    <g id="xtick_4">
     <g id="line2d_4">
      <g>
       <use style="stroke:#000000;stroke-width:0.8;" x="324" xlink:href="#mad1a46d147" y="378"/>
      </g>
     </g>
     <g id="text_4">
      <!-- 1940 -->
      <defs>
       <path d="M 37.796875 64.3125 
L 12.890625 25.390625 
L 37.796875 25.390625 
z
M 35.203125 72.90625 
L 47.609375 72.90625 
L 47.609375 25.390625 
L 58.015625 25.390625 
L 58.015625 17.1875 
L 47.609375 17.1875 
L 47.609375 0 
L 37.796875 0 
L 37.796875 17.1875 
L 4.890625 17.1875 
L 4.890625 26.703125 
z
" id="DejaVuSans-34"/>
      </defs>
      <g transform="translate(311.275 392.598437)scale(0.1 -0.1)">
       <use xlink:href="#DejaVuSans-31"/>
       <use x="63.623047" xlink:href="#DejaVuSans-39"/>
       <use x="127.246094" xlink:href="#DejaVuSans-34"/>
       <use x="190.869141" xlink:href="#DejaVuSans-30"/>
      </g>
     </g>
    </g>
    <g id="xtick_5">
     <g id="line2d_5">
      <g>
       <use style="stroke:#000000;stroke-width:0.8;" x="396" xlink:href="#mad1a46d147" y="378"/>
      </g>
     </g>
     <g id="text_5">
      <!-- 1960 -->
      <defs>
       <path d="M 33.015625 40.375 
Q 26.375 40.375 22.484375 35.828125 
Q 18.609375 31.296875 18.609375 23.390625 
Q 18.609375 15.53125 22.484375 10.953125 
Q 26.375 6.390625 33.015625 6.390625 
Q 39.65625 6.390625 43.53125 10.953125 
Q 47.40625 15.53125 47.40625 23.390625 
Q 47.40625 31.296875 43.53125 35.828125 
Q 39.65625 40.375 33.015625 40.375 
z
M 52.59375 71.296875 
L 52.59375 62.3125 
Q 48.875 64.0625 45.09375 64.984375 
Q 41.3125 65.921875 37.59375 65.921875 
Q 27.828125 65.921875 22.671875 59.328125 
Q 17.53125 52.734375 16.796875 39.40625 
Q 19.671875 43.65625 24.015625 45.921875 
Q 28.375 48.1875 33.59375 48.1875 
Q 44.578125 48.1875 50.953125 41.515625 
Q 57.328125 34.859375 57.328125 23.390625 
Q 57.328125 12.15625 50.6875 5.359375 
Q 44.046875 -1.421875 33.015625 -1.421875 
Q 20.359375 -1.421875 13.671875 8.265625 
Q 6.984375 17.96875 6.984375 36.375 
Q 6.984375 53.65625 15.1875 63.9375 
Q 23.390625 74.21875 37.203125 74.21875 
Q 40.921875 74.21875 44.703125 73.484375 
Q 48.484375 72.75 52.59375 71.296875 
z
" id="DejaVuSans-36"/>
      </defs>
      <g transform="translate(383.275 392.598437)scale(0.1 -0.1)">
       <use xlink:href="#DejaVuSans-31"/>
       <use x="63.623047" xlink:href="#DejaVuSans-39"/>
       <use x="127.246094" xlink:href="#DejaVuSans-36"/>
       <use x="190.869141" xlink:href="#DejaVuSans-30"/>
      </g>
     </g>
    </g>
    <g id="xtick_6">
     <g id="line2d_6">
      <g>
       <use style="stroke:#000000;stroke-width:0.8;" x="468" xlink:href="#mad1a46d147" y="378"/>
      </g>
     </g>
     <g id="text_6">
      <!-- 1980 -->
      <g transform="translate(455.275 392.598437)scale(0.1 -0.1)">
       <use xlink:href="#DejaVuSans-31"/>
       <use x="63.623047" xlink:href="#DejaVuSans-39"/>
       <use x="127.246094" xlink:href="#DejaVuSans-38"/>
       <use x="190.869141" xlink:href="#DejaVuSans-30"/>
      </g>
     </g>
    </g>
    <g id="xtick_7">
     <g id="line2d_7">
      <g>
       <use style="stroke:#000000;stroke-width:0.8;" x="540" xlink:href="#mad1a46d147" y="378"/>
      </g>
     </g>
     <g id="text_7">
      <!-- 2000 -->
      <g transform="translate(527.275 392.598437)scale(0.1 -0.1)">
       <use xlink:href="#DejaVuSans-32"/>
       <use x="63.623047" xlink:href="#DejaVuSans-30"/>
       <use x="127.246094" xlink:href="#DejaVuSans-30"/>
       <use x="190.869141" xlink:href="#DejaVuSans-30"/>
      </g>
     </g>
    </g>
    <g id="xtick_8">
     <g id="line2d_8">
      <g>
       <use style="stroke:#000000;stroke-width:0.8;" x="612" xlink:href="#mad1a46d147" y="378"/>
      </g>
     </g>
     <g id="text_8">
      <!-- 2020 -->
      <g transform="translate(599.275 392.598437)scale(0.1 -0.1)">
       <use xlink:href="#DejaVuSans-32"/>
       <use x="63.623047" xlink:href="#DejaVuSans-30"/>
       <use x="127.246094" xlink:href="#DejaVuSans-32"/>
       <use x="190.869141" xlink:href="#DejaVuSans-30"/>
      </g>
     </g>
    </g>
    <g id="text_9">
     <!-- year -->
     <defs>
      <path d="M 32.171875 -5.078125 
Q 28.375 -14.84375 24.75 -17.8125 
Q 21.140625 -20.796875 15.09375 -20.796875 
L 7.90625 -20.796875 
L 7.90625 -13.28125 
L 13.1875 -13.28125 
Q 16.890625 -13.28125 18.9375 -11.515625 
Q 21 -9.765625 23.484375 -3.21875 
L 25.09375 0.875 
L 2.984375 54.6875 
L 12.5 54.6875 
L 29.59375 11.921875 
L 46.6875 54.6875 
L 56.203125 54.6875 
z
" id="DejaVuSans-79"/>
      <path d="M 56.203125 29.59375 
L 56.203125 25.203125 
L 14.890625 25.203125 
Q 15.484375 15.921875 20.484375 11.0625 
Q 25.484375 6.203125 34.421875 6.203125 
Q 39.59375 6.203125 44.453125 7.46875 
Q 49.3125 8.734375 54.109375 11.28125 
L 54.109375 2.78125 
Q 49.265625 0.734375 44.1875 -0.34375 
Q 39.109375 -1.421875 33.890625 -1.421875 
Q 20.796875 -1.421875 13.15625 6.1875 
Q 5.515625 13.8125 5.515625 26.8125 
Q 5.515625 40.234375 12.765625 48.109375 
Q 20.015625 56 32.328125 56 
Q 43.359375 56 49.78125 48.890625 
Q 56.203125 41.796875 56.203125 29.59375 
z
M 47.21875 32.234375 
Q 47.125 39.59375 43.09375 43.984375 
Q 39.0625 48.390625 32.421875 48.390625 
Q 24.90625 48.390625 20.390625 44.140625 
Q 15.875 39.890625 15.1875 32.171875 
z
" id="DejaVuSans-65"/>
      <path d="M 34.28125 27.484375 
Q 23.390625 27.484375 19.1875 25 
Q 14.984375 22.515625 14.984375 16.5 
Q 14.984375 11.71875 18.140625 8.90625 
Q 21.296875 6.109375 26.703125 6.109375 
Q 34.1875 6.109375 38.703125 11.40625 
Q 43.21875 16.703125 43.21875 25.484375 
L 43.21875 27.484375 
z
M 52.203125 31.203125 
L 52.203125 0 
L 43.21875 0 
L 43.21875 8.296875 
Q 40.140625 3.328125 35.546875 0.953125 
Q 30.953125 -1.421875 24.3125 -1.421875 
Q 15.921875 -1.421875 10.953125 3.296875 
Q 6 8.015625 6 15.921875 
Q 6 25.140625 12.171875 29.828125 
Q 18.359375 34.515625 30.609375 34.515625 
L 43.21875 34.515625 
L 43.21875 35.40625 
Q 43.21875 41.609375 39.140625 45 
Q 35.0625 48.390625 27.6875 48.390625 
Q 23 48.390625 18.546875 47.265625 
Q 14.109375 46.140625 10.015625 43.890625 
L 10.015625 52.203125 
Q 14.9375 54.109375 19.578125 55.046875 
Q 24.21875 56 28.609375 56 
Q 40.484375 56 46.34375 49.84375 
Q 52.203125 43.703125 52.203125 31.203125 
z
" id="DejaVuSans-61"/>
      <path d="M 41.109375 46.296875 
Q 39.59375 47.171875 37.8125 47.578125 
Q 36.03125 48 33.890625 48 
Q 26.265625 48 22.1875 43.046875 
Q 18.109375 38.09375 18.109375 28.8125 
L 18.109375 0 
L 9.078125 0 
L 9.078125 54.6875 
L 18.109375 54.6875 
L 18.109375 46.1875 
Q 20.953125 51.171875 25.484375 53.578125 
Q 30.03125 56 36.53125 56 
Q 37.453125 56 38.578125 55.875 
Q 39.703125 55.765625 41.0625 55.515625 
z
" id="DejaVuSans-72"/>
     </defs>
     <g transform="translate(346.689062 413.875)scale(0.2 -0.2)">
      <use xlink:href="#DejaVuSans-79"/>
      <use x="59.179688" xlink:href="#DejaVuSans-65"/>
      <use x="120.703125" xlink:href="#DejaVuSans-61"/>
      <use x="181.982422" xlink:href="#DejaVuSans-72"/>
     </g>
    </g>
   </g>
   <g id="matplotlib.axis_2">
    <g id="ytick_1">
     <g id="line2d_9">
      <defs>
       <path d="M 0 0 
L -3.5 0 
" id="m2675129a7d" style="stroke:#000000;stroke-width:0.8;"/>
      </defs>
      <g>
       <use style="stroke:#000000;stroke-width:0.8;" x="90" xlink:href="#m2675129a7d" y="378"/>
      </g>
     </g>
     <g id="text_10">
      <!-- 2.5 -->
      <defs>
       <path d="M 10.6875 12.40625 
L 21 12.40625 
L 21 0 
L 10.6875 0 
z
" id="DejaVuSans-2e"/>
       <path d="M 10.796875 72.90625 
L 49.515625 72.90625 
L 49.515625 64.59375 
L 19.828125 64.59375 
L 19.828125 46.734375 
Q 21.96875 47.46875 24.109375 47.828125 
Q 26.265625 48.1875 28.421875 48.1875 
Q 40.625 48.1875 47.75 41.5 
Q 54.890625 34.8125 54.890625 23.390625 
Q 54.890625 11.625 47.5625 5.09375 
Q 40.234375 -1.421875 26.90625 -1.421875 
Q 22.3125 -1.421875 17.546875 -0.640625 
Q 12.796875 0.140625 7.71875 1.703125 
L 7.71875 11.625 
Q 12.109375 9.234375 16.796875 8.0625 
Q 21.484375 6.890625 26.703125 6.890625 
Q 35.15625 6.890625 40.078125 11.328125 
Q 45.015625 15.765625 45.015625 23.390625 
Q 45.015625 31 40.078125 35.4375 
Q 35.15625 39.890625 26.703125 39.890625 
Q 22.75 39.890625 18.8125 39.015625 
Q 14.890625 38.140625 10.796875 36.28125 
z
" id="DejaVuSans-35"/>
      </defs>
      <g transform="translate(67.096875 381.799219)scale(0.1 -0.1)">
       <use xlink:href="#DejaVuSans-32"/>
       <use x="63.623047" xlink:href="#DejaVuSans-2e"/>
       <use x="95.410156" xlink:href="#DejaVuSans-35"/>
      </g>
     </g>
    </g>
    <g id="ytick_2">
     <g id="line2d_10">
      <g>
       <use style="stroke:#000000;stroke-width:0.8;" x="90" xlink:href="#m2675129a7d" y="337.23"/>
      </g>
     </g>
     <g id="text_11">
      <!-- 3.0 -->
      <defs>
       <path d="M 40.578125 39.3125 
Q 47.65625 37.796875 51.625 33 
Q 55.609375 28.21875 55.609375 21.1875 
Q 55.609375 10.40625 48.1875 4.484375 
Q 40.765625 -1.421875 27.09375 -1.421875 
Q 22.515625 -1.421875 17.65625 -0.515625 
Q 12.796875 0.390625 7.625 2.203125 
L 7.625 11.71875 
Q 11.71875 9.328125 16.59375 8.109375 
Q 21.484375 6.890625 26.8125 6.890625 
Q 36.078125 6.890625 40.9375 10.546875 
Q 45.796875 14.203125 45.796875 21.1875 
Q 45.796875 27.640625 41.28125 31.265625 
Q 36.765625 34.90625 28.71875 34.90625 
L 20.21875 34.90625 
L 20.21875 43.015625 
L 29.109375 43.015625 
Q 36.375 43.015625 40.234375 45.921875 
Q 44.09375 48.828125 44.09375 54.296875 
Q 44.09375 59.90625 40.109375 62.90625 
Q 36.140625 65.921875 28.71875 65.921875 
Q 24.65625 65.921875 20.015625 65.03125 
Q 15.375 64.15625 9.8125 62.3125 
L 9.8125 71.09375 
Q 15.4375 72.65625 20.34375 73.4375 
Q 25.25 74.21875 29.59375 74.21875 
Q 40.828125 74.21875 47.359375 69.109375 
Q 53.90625 64.015625 53.90625 55.328125 
Q 53.90625 49.265625 50.4375 45.09375 
Q 46.96875 40.921875 40.578125 39.3125 
z
" id="DejaVuSans-33"/>
      </defs>
      <g transform="translate(67.096875 341.029219)scale(0.1 -0.1)">
       <use xlink:href="#DejaVuSans-33"/>
       <use x="63.623047" xlink:href="#DejaVuSans-2e"/>
       <use x="95.410156" xlink:href="#DejaVuSans-30"/>
      </g>
     </g>
    </g>
    <g id="ytick_3">
     <g id="line2d_11">
      <g>
       <use style="stroke:#000000;stroke-width:0.8;" x="90" xlink:href="#m2675129a7d" y="296.46"/>
      </g>
     </g>
     <g id="text_12">
      <!-- 3.5 -->
      <g transform="translate(67.096875 300.259219)scale(0.1 -0.1)">
       <use xlink:href="#DejaVuSans-33"/>
       <use x="63.623047" xlink:href="#DejaVuSans-2e"/>
       <use x="95.410156" xlink:href="#DejaVuSans-35"/>
      </g>
     </g>
    </g>
    <g id="ytick_4">
     <g id="line2d_12">
      <g>
       <use style="stroke:#000000;stroke-width:0.8;" x="90" xlink:href="#m2675129a7d" y="255.69"/>
      </g>
     </g>
     <g id="text_13">
      <!-- 4.0 -->
      <g transform="translate(67.096875 259.489219)scale(0.1 -0.1)">
       <use xlink:href="#DejaVuSans-34"/>
       <use x="63.623047" xlink:href="#DejaVuSans-2e"/>
       <use x="95.410156" xlink:href="#DejaVuSans-30"/>
      </g>
     </g>
    </g>
    <g id="ytick_5">
     <g id="line2d_13">
      <g>
       <use style="stroke:#000000;stroke-width:0.8;" x="90" xlink:href="#m2675129a7d" y="214.92"/>
      </g>
     </g>
     <g id="text_14">
      <!-- 4.5 -->
      <g transform="translate(67.096875 218.719219)scale(0.1 -0.1)">
       <use xlink:href="#DejaVuSans-34"/>
       <use x="63.623047" xlink:href="#DejaVuSans-2e"/>
       <use x="95.410156" xlink:href="#DejaVuSans-35"/>
      </g>
     </g>
    </g>
    <g id="ytick_6">
     <g id="line2d_14">
      <g>
       <use style="stroke:#000000;stroke-width:0.8;" x="90" xlink:href="#m2675129a7d" y="174.15"/>
      </g>
     </g>
     <g id="text_15">
      <!-- 5.0 -->
      <g transform="translate(67.096875 177.949219)scale(0.1 -0.1)">
       <use xlink:href="#DejaVuSans-35"/>
       <use x="63.623047" xlink:href="#DejaVuSans-2e"/>
       <use x="95.410156" xlink:href="#DejaVuSans-30"/>
      </g>
     </g>
    </g>
    <g id="ytick_7">
     <g id="line2d_15">
      <g>
       <use style="stroke:#000000;stroke-width:0.8;" x="90" xlink:href="#m2675129a7d" y="133.38"/>
      </g>
     </g>
     <g id="text_16">
      <!-- 5.5 -->
      <g transform="translate(67.096875 137.179219)scale(0.1 -0.1)">
       <use xlink:href="#DejaVuSans-35"/>
       <use x="63.623047" xlink:href="#DejaVuSans-2e"/>
       <use x="95.410156" xlink:href="#DejaVuSans-35"/>
      </g>
     </g>
    </g>
    <g id="ytick_8">
     <g id="line2d_16">
      <g>
       <use style="stroke:#000000;stroke-width:0.8;" x="90" xlink:href="#m2675129a7d" y="92.61"/>
      </g>
     </g>
     <g id="text_17">
      <!-- 6.0 -->
      <g transform="translate(67.096875 96.409219)scale(0.1 -0.1)">
       <use xlink:href="#DejaVuSans-36"/>
       <use x="63.623047" xlink:href="#DejaVuSans-2e"/>
       <use x="95.410156" xlink:href="#DejaVuSans-30"/>
      </g>
     </g>
    </g>
    <g id="ytick_9">
     <g id="line2d_17">
      <g>
       <use style="stroke:#000000;stroke-width:0.8;" x="90" xlink:href="#m2675129a7d" y="51.84"/>
      </g>
     </g>
     <g id="text_18">
      <!-- 6.5 -->
      <g transform="translate(67.096875 55.639219)scale(0.1 -0.1)">
       <use xlink:href="#DejaVuSans-36"/>
       <use x="63.623047" xlink:href="#DejaVuSans-2e"/>
       <use x="95.410156" xlink:href="#DejaVuSans-35"/>
      </g>
     </g>
    </g>
    <g id="text_19">
     <!-- pace min/km -->
     <defs>
      <path d="M 18.109375 8.203125 
L 18.109375 -20.796875 
L 9.078125 -20.796875 
L 9.078125 54.6875 
L 18.109375 54.6875 
L 18.109375 46.390625 
Q 20.953125 51.265625 25.265625 53.625 
Q 29.59375 56 35.59375 56 
Q 45.5625 56 51.78125 48.09375 
Q 58.015625 40.1875 58.015625 27.296875 
Q 58.015625 14.40625 51.78125 6.484375 
Q 45.5625 -1.421875 35.59375 -1.421875 
Q 29.59375 -1.421875 25.265625 0.953125 
Q 20.953125 3.328125 18.109375 8.203125 
z
M 48.6875 27.296875 
Q 48.6875 37.203125 44.609375 42.84375 
Q 40.53125 48.484375 33.40625 48.484375 
Q 26.265625 48.484375 22.1875 42.84375 
Q 18.109375 37.203125 18.109375 27.296875 
Q 18.109375 17.390625 22.1875 11.75 
Q 26.265625 6.109375 33.40625 6.109375 
Q 40.53125 6.109375 44.609375 11.75 
Q 48.6875 17.390625 48.6875 27.296875 
z
" id="DejaVuSans-70"/>
      <path d="M 48.78125 52.59375 
L 48.78125 44.1875 
Q 44.96875 46.296875 41.140625 47.34375 
Q 37.3125 48.390625 33.40625 48.390625 
Q 24.65625 48.390625 19.8125 42.84375 
Q 14.984375 37.3125 14.984375 27.296875 
Q 14.984375 17.28125 19.8125 11.734375 
Q 24.65625 6.203125 33.40625 6.203125 
Q 37.3125 6.203125 41.140625 7.25 
Q 44.96875 8.296875 48.78125 10.40625 
L 48.78125 2.09375 
Q 45.015625 0.34375 40.984375 -0.53125 
Q 36.96875 -1.421875 32.421875 -1.421875 
Q 20.0625 -1.421875 12.78125 6.34375 
Q 5.515625 14.109375 5.515625 27.296875 
Q 5.515625 40.671875 12.859375 48.328125 
Q 20.21875 56 33.015625 56 
Q 37.15625 56 41.109375 55.140625 
Q 45.0625 54.296875 48.78125 52.59375 
z
" id="DejaVuSans-63"/>
      <path id="DejaVuSans-20"/>
      <path d="M 52 44.1875 
Q 55.375 50.25 60.0625 53.125 
Q 64.75 56 71.09375 56 
Q 79.640625 56 84.28125 50.015625 
Q 88.921875 44.046875 88.921875 33.015625 
L 88.921875 0 
L 79.890625 0 
L 79.890625 32.71875 
Q 79.890625 40.578125 77.09375 44.375 
Q 74.3125 48.1875 68.609375 48.1875 
Q 61.625 48.1875 57.5625 43.546875 
Q 53.515625 38.921875 53.515625 30.90625 
L 53.515625 0 
L 44.484375 0 
L 44.484375 32.71875 
Q 44.484375 40.625 41.703125 44.40625 
Q 38.921875 48.1875 33.109375 48.1875 
Q 26.21875 48.1875 22.15625 43.53125 
Q 18.109375 38.875 18.109375 30.90625 
L 18.109375 0 
L 9.078125 0 
L 9.078125 54.6875 
L 18.109375 54.6875 
L 18.109375 46.1875 
Q 21.1875 51.21875 25.484375 53.609375 
Q 29.78125 56 35.6875 56 
Q 41.65625 56 45.828125 52.96875 
Q 50 49.953125 52 44.1875 
z
" id="DejaVuSans-6d"/>
      <path d="M 9.421875 54.6875 
L 18.40625 54.6875 
L 18.40625 0 
L 9.421875 0 
z
M 9.421875 75.984375 
L 18.40625 75.984375 
L 18.40625 64.59375 
L 9.421875 64.59375 
z
" id="DejaVuSans-69"/>
      <path d="M 54.890625 33.015625 
L 54.890625 0 
L 45.90625 0 
L 45.90625 32.71875 
Q 45.90625 40.484375 42.875 44.328125 
Q 39.84375 48.1875 33.796875 48.1875 
Q 26.515625 48.1875 22.3125 43.546875 
Q 18.109375 38.921875 18.109375 30.90625 
L 18.109375 0 
L 9.078125 0 
L 9.078125 54.6875 
L 18.109375 54.6875 
L 18.109375 46.1875 
Q 21.34375 51.125 25.703125 53.5625 
Q 30.078125 56 35.796875 56 
Q 45.21875 56 50.046875 50.171875 
Q 54.890625 44.34375 54.890625 33.015625 
z
" id="DejaVuSans-6e"/>
      <path d="M 25.390625 72.90625 
L 33.6875 72.90625 
L 8.296875 -9.28125 
L 0 -9.28125 
z
" id="DejaVuSans-2f"/>
      <path d="M 9.078125 75.984375 
L 18.109375 75.984375 
L 18.109375 31.109375 
L 44.921875 54.6875 
L 56.390625 54.6875 
L 27.390625 29.109375 
L 57.625 0 
L 45.90625 0 
L 18.109375 26.703125 
L 18.109375 0 
L 9.078125 0 
z
" id="DejaVuSans-6b"/>
     </defs>
     <g transform="translate(58.9375 279.9825)rotate(-90)scale(0.2 -0.2)">
      <use xlink:href="#DejaVuSans-70"/>
      <use x="63.476562" xlink:href="#DejaVuSans-61"/>
      <use x="124.755859" xlink:href="#DejaVuSans-63"/>
      <use x="179.736328" xlink:href="#DejaVuSans-65"/>
      <use x="241.259766" xlink:href="#DejaVuSans-20"/>
      <use x="273.046875" xlink:href="#DejaVuSans-6d"/>
      <use x="370.458984" xlink:href="#DejaVuSans-69"/>
      <use x="398.242188" xlink:href="#DejaVuSans-6e"/>
      <use x="461.621094" xlink:href="#DejaVuSans-2f"/>
      <use x="495.3125" xlink:href="#DejaVuSans-6b"/>
      <use x="553.222656" xlink:href="#DejaVuSans-6d"/>
     </g>
    </g>
   </g>
   <g id="line2d_18">
    <defs>
     <path d="M 0 2.5 
C 0.663008 2.5 1.29895 2.236584 1.767767 1.767767 
C 2.236584 1.29895 2.5 0.663008 2.5 0 
C 2.5 -0.663008 2.236584 -1.29895 1.767767 -1.767767 
C 1.29895 -2.236584 0.663008 -2.5 0 -2.5 
C -0.663008 -2.5 -1.29895 -2.236584 -1.767767 -1.767767 
C -2.236584 -1.29895 -2.5 -0.663008 -2.5 0 
C -2.5 0.663008 -2.236584 1.29895 -1.767767 1.767767 
C -1.29895 2.236584 -0.663008 2.5 0 2.5 
z
" id="m8f6b8d0e53" style="stroke:#ff0000;"/>
    </defs>
    <g clip-path="url(#p6f004f2400)">
     <use style="fill:#ff0000;stroke:#ff0000;" x="165.6" xlink:href="#m8f6b8d0e53" y="217.29825"/>
     <use style="fill:#ff0000;stroke:#ff0000;" x="180" xlink:href="#m8f6b8d0e53" y="217.795976"/>
     <use style="fill:#ff0000;stroke:#ff0000;" x="194.4" xlink:href="#m8f6b8d0e53" y="156.041325"/>
     <use style="fill:#ff0000;stroke:#ff0000;" x="208.8" xlink:href="#m8f6b8d0e53" y="243.077501"/>
     <use style="fill:#ff0000;stroke:#ff0000;" x="223.2" xlink:href="#m8f6b8d0e53" y="263.573552"/>
     <use style="fill:#ff0000;stroke:#ff0000;" x="252" xlink:href="#m8f6b8d0e53" y="290.791937"/>
     <use style="fill:#ff0000;stroke:#ff0000;" x="266.4" xlink:href="#m8f6b8d0e53" y="269.996619"/>
     <use style="fill:#ff0000;stroke:#ff0000;" x="280.8" xlink:href="#m8f6b8d0e53" y="286.280786"/>
     <use style="fill:#ff0000;stroke:#ff0000;" x="295.2" xlink:href="#m8f6b8d0e53" y="288.889602"/>
     <use style="fill:#ff0000;stroke:#ff0000;" x="309.6" xlink:href="#m8f6b8d0e53" y="293.295603"/>
     <use style="fill:#ff0000;stroke:#ff0000;" x="352.8" xlink:href="#m8f6b8d0e53" y="282.589794"/>
     <use style="fill:#ff0000;stroke:#ff0000;" x="367.2" xlink:href="#m8f6b8d0e53" y="305.405663"/>
     <use style="fill:#ff0000;stroke:#ff0000;" x="381.6" xlink:href="#m8f6b8d0e53" y="301.643814"/>
     <use style="fill:#ff0000;stroke:#ff0000;" x="396" xlink:href="#m8f6b8d0e53" y="320.446616"/>
     <use style="fill:#ff0000;stroke:#ff0000;" x="410.4" xlink:href="#m8f6b8d0e53" y="326.405023"/>
     <use style="fill:#ff0000;stroke:#ff0000;" x="424.8" xlink:href="#m8f6b8d0e53" y="310.468699"/>
     <use style="fill:#ff0000;stroke:#ff0000;" x="439.2" xlink:href="#m8f6b8d0e53" y="326.153804"/>
     <use style="fill:#ff0000;stroke:#ff0000;" x="453.6" xlink:href="#m8f6b8d0e53" y="330.791699"/>
     <use style="fill:#ff0000;stroke:#ff0000;" x="468" xlink:href="#m8f6b8d0e53" y="328.601582"/>
     <use style="fill:#ff0000;stroke:#ff0000;" x="482.4" xlink:href="#m8f6b8d0e53" y="331.886758"/>
     <use style="fill:#ff0000;stroke:#ff0000;" x="496.8" xlink:href="#m8f6b8d0e53" y="329.600018"/>
     <use style="fill:#ff0000;stroke:#ff0000;" x="511.2" xlink:href="#m8f6b8d0e53" y="324.092517"/>
     <use style="fill:#ff0000;stroke:#ff0000;" x="525.6" xlink:href="#m8f6b8d0e53" y="325.606274"/>
     <use style="fill:#ff0000;stroke:#ff0000;" x="540" xlink:href="#m8f6b8d0e53" y="330.276378"/>
     <use style="fill:#ff0000;stroke:#ff0000;" x="554.4" xlink:href="#m8f6b8d0e53" y="328.859243"/>
     <use style="fill:#ff0000;stroke:#ff0000;" x="568.8" xlink:href="#m8f6b8d0e53" y="337.329844"/>
     <use style="fill:#ff0000;stroke:#ff0000;" x="583.2" xlink:href="#m8f6b8d0e53" y="334.463367"/>
    </g>
   </g>
   <g id="line2d_19">
    <path clip-path="url(#p6f004f2400)" d="M 82.08 163.102863 
L 87.955779 163.306144 
L 93.831558 163.782478 
L 99.707337 164.548525 
L 105.583116 165.620379 
L 111.458894 167.013233 
L 117.334673 168.740977 
L 123.210452 170.815717 
L 129.086231 173.247225 
L 134.96201 176.04233 
L 140.837789 179.204252 
L 146.713568 182.731911 
L 152.589347 186.619237 
L 158.465126 190.854498 
L 164.340905 195.419711 
L 170.216683 200.290157 
L 176.092462 205.434063 
L 181.968241 210.812494 
L 190.78191 219.217534 
L 220.160804 247.775538 
L 226.036583 253.098182 
L 231.912362 258.141426 
L 237.788141 262.85057 
L 243.66392 267.179888 
L 249.539698 271.094738 
L 255.415477 274.573292 
L 261.291256 277.607756 
L 267.167035 280.204958 
L 273.042814 282.386227 
L 278.918593 284.186511 
L 284.794372 285.652763 
L 290.670151 286.841656 
L 296.54593 287.816752 
L 305.359598 289.025786 
L 322.986935 291.33054 
L 331.800603 292.786239 
L 337.676382 293.950931 
L 343.552161 295.289874 
L 349.42794 296.805523 
L 355.303719 298.489122 
L 364.117387 301.286909 
L 372.931055 304.326603 
L 402.30995 314.708334 
L 411.123618 317.484388 
L 419.937286 319.969583 
L 428.750955 322.128784 
L 437.564623 323.951035 
L 446.378291 325.445385 
L 455.19196 326.635804 
L 464.005628 327.556032 
L 472.819296 328.244928 
L 481.632965 328.742662 
L 493.384523 329.175188 
L 508.07397 329.456058 
L 528.639196 329.574679 
L 558.01809 329.501314 
L 581.521206 329.26202 
L 599.148543 328.860952 
L 613.83799 328.280963 
L 625.589548 327.601822 
L 637.341106 326.69889 
L 649.092663 325.558006 
L 660.844221 324.18545 
L 666.72 323.420363 
L 666.72 323.420363 
" style="fill:none;stroke:#3300ff;stroke-linecap:square;stroke-width:2;"/>
   </g>
   <g id="line2d_20">
    <path clip-path="url(#p6f004f2400)" d="M 82.08 81.754218 
L 90.893668 84.874873 
L 99.707337 88.324932 
L 105.583116 90.832589 
L 111.458894 93.527502 
L 117.334673 96.430381 
L 123.210452 99.563697 
L 129.086231 102.951104 
L 134.96201 106.616805 
L 140.837789 110.584853 
L 146.713568 114.878401 
L 152.589347 119.518876 
L 158.465126 124.525061 
L 164.340905 129.912053 
L 170.216683 135.690091 
L 176.092462 141.863245 
L 181.968241 148.428008 
L 187.84402 155.371842 
L 193.719799 162.671788 
L 199.595578 170.293245 
L 208.409246 182.221555 
L 220.160804 198.702501 
L 231.912362 215.211189 
L 237.788141 223.222229 
L 243.66392 230.924905 
L 249.539698 238.209189 
L 255.415477 244.97001 
L 258.353367 248.123869 
L 261.291256 251.112293 
L 264.229146 253.925906 
L 267.167035 256.556732 
L 270.104925 258.998445 
L 273.042814 261.24662 
L 275.980704 263.299014 
L 278.918593 265.155815 
L 281.856482 266.819858 
L 284.794372 268.29675 
L 287.732261 269.59486 
L 290.670151 270.725137 
L 293.60804 271.700738 
L 296.54593 272.536489 
L 302.421709 273.852126 
L 308.297487 274.798967 
L 314.173266 275.491944 
L 322.986935 276.256732 
L 340.614271 277.621095 
L 349.42794 278.582301 
L 355.303719 279.42848 
L 361.179497 280.474568 
L 367.055276 281.736876 
L 372.931055 283.217931 
L 378.806834 284.906981 
L 384.682613 286.781608 
L 393.496281 289.870159 
L 405.247839 294.293304 
L 419.937286 299.831535 
L 428.750955 302.926283 
L 437.564623 305.725017 
L 443.440402 307.391714 
L 449.316181 308.883835 
L 455.19196 310.19508 
L 461.067739 311.32483 
L 466.943518 312.277647 
L 472.819296 313.062604 
L 481.632965 313.954041 
L 490.446633 314.550951 
L 499.260302 314.913584 
L 511.011859 315.135162 
L 525.701307 315.159612 
L 552.142312 314.934178 
L 575.645427 314.54489 
L 587.396985 314.169787 
L 599.148543 313.554075 
L 607.962211 312.864705 
L 616.775879 311.923715 
L 625.589548 310.686054 
L 634.403216 309.12061 
L 643.216884 307.217817 
L 652.030553 304.994339 
L 660.844221 302.493112 
L 666.72 300.702451 
L 666.72 300.702451 
" style="fill:none;stroke:#3300ff;stroke-linecap:square;stroke-width:0.2;"/>
   </g>
   <g id="line2d_21">
    <path clip-path="url(#p6f004f2400)" d="M 82.08 244.451509 
L 87.955779 242.812134 
L 93.831558 241.578887 
L 99.707337 240.772117 
L 102.645226 240.533936 
L 105.583116 240.408168 
L 108.521005 240.396163 
L 111.458894 240.498965 
L 114.396784 240.717303 
L 117.334673 241.051573 
L 120.272563 241.501824 
L 123.210452 242.067737 
L 129.086231 243.543346 
L 134.96201 245.467854 
L 140.837789 247.82365 
L 146.713568 250.585422 
L 152.589347 253.719598 
L 158.465126 257.183936 
L 164.340905 260.927369 
L 173.154573 266.933084 
L 196.657688 283.489157 
L 202.533467 287.31639 
L 208.409246 290.861704 
L 214.285025 294.057628 
L 220.160804 296.848574 
L 226.036583 299.194089 
L 228.974472 300.19201 
L 231.912362 301.071664 
L 234.850251 301.833399 
L 240.72603 303.011259 
L 246.601809 303.755522 
L 252.477588 304.117485 
L 258.353367 304.168038 
L 264.229146 303.994125 
L 287.732261 302.961204 
L 293.60804 303.002809 
L 299.483819 303.241944 
L 305.359598 303.687541 
L 311.235377 304.349822 
L 317.111156 305.247287 
L 322.986935 306.404348 
L 328.862714 307.842416 
L 334.738492 309.569845 
L 340.614271 311.575286 
L 346.49005 313.826312 
L 355.303719 317.549764 
L 381.744724 329.163034 
L 387.620503 331.44933 
L 393.496281 333.535777 
L 399.37206 335.40039 
L 405.247839 337.032203 
L 411.123618 338.430244 
L 416.999397 339.602142 
L 422.875176 340.562522 
L 428.750955 341.331285 
L 434.626734 341.9319 
L 443.440402 342.573229 
L 452.25407 342.979431 
L 464.005628 343.28918 
L 487.508744 343.593916 
L 546.266533 344.109382 
L 584.459095 344.142783 
L 610.900101 344.256561 
L 625.589548 344.51759 
L 640.278995 344.98312 
L 663.782111 346.009659 
L 666.72 346.138276 
L 666.72 346.138276 
" style="fill:none;stroke:#3300ff;stroke-linecap:square;stroke-width:0.2;"/>
   </g>
   <g id="patch_4">
    <path d="M 90 378 
L 90 51.84 
" style="fill:none;stroke:#000000;stroke-linecap:square;stroke-linejoin:miter;stroke-width:0.8;"/>
   </g>
   <g id="patch_5">
    <path d="M 648 378 
L 648 51.84 
" style="fill:none;stroke:#000000;stroke-linecap:square;stroke-linejoin:miter;stroke-width:0.8;"/>
   </g>
   <g id="patch_6">
    <path d="M 90 378 
L 648 378 
" style="fill:none;stroke:#000000;stroke-linecap:square;stroke-linejoin:miter;stroke-width:0.8;"/>
   </g>
   <g id="patch_7">
    <path d="M 90 51.84 
L 648 51.84 
" style="fill:none;stroke:#000000;stroke-linecap:square;stroke-linejoin:miter;stroke-width:0.8;"/>
   </g>
  </g>
 </g>
 <defs>
  <clipPath id="p6f004f2400">
   <rect height="326.16" width="558" x="90" y="51.84"/>
  </clipPath>
 </defs>
</svg>
