<?xml version="1.0" encoding="utf-8" standalone="no"?>
<!DOCTYPE svg PUBLIC "-//W3C//DTD SVG 1.1//EN"
  "http://www.w3.org/Graphics/SVG/1.1/DTD/svg11.dtd">
<!-- Created with matplotlib (http://matplotlib.org/) -->
<svg height="288pt" version="1.1" viewBox="0 0 432 288" width="432pt" xmlns="http://www.w3.org/2000/svg" xmlns:xlink="http://www.w3.org/1999/xlink">
 <defs>
  <style type="text/css">
*{stroke-linecap:butt;stroke-linejoin:round;}
  </style>
 </defs>
 <g id="figure_1">
  <g id="patch_1">
   <path d="M 0 288 
L 432 288 
L 432 0 
L 0 0 
z
" style="fill:none;"/>
  </g>
  <g id="axes_1">
   <g id="patch_2">
    <path d="M 54 252 
L 388.8 252 
L 388.8 34.56 
L 54 34.56 
z
" style="fill:none;"/>
   </g>
   <g id="patch_3">
    <path clip-path="url(#p9a515f2b17)" d="M 54 179.570914 
L 55.682412 179.168008 
L 57.364824 178.7526 
L 59.047236 178.324763 
L 60.729648 177.884577 
L 62.41206 177.432128 
L 64.094472 176.967505 
L 65.776884 176.490806 
L 67.459296 176.002132 
L 69.141709 175.501591 
L 70.824121 174.989296 
L 72.506533 174.465365 
L 74.188945 173.929923 
L 75.871357 173.383101 
L 77.553769 172.825033 
L 79.236181 172.25586 
L 80.918593 171.67573 
L 82.601005 171.084794 
L 84.283417 170.483208 
L 85.965829 169.871134 
L 87.648241 169.24874 
L 89.330653 168.616198 
L 91.013065 167.973682 
L 92.695477 167.321375 
L 94.377889 166.659461 
L 96.060302 165.988129 
L 97.742714 165.307573 
L 99.425126 164.617987 
L 101.107538 163.919574 
L 102.78995 163.212535 
L 104.472362 162.497077 
L 106.154774 161.773408 
L 107.837186 161.04174 
L 109.519598 160.302286 
L 111.20201 159.555262 
L 112.884422 158.800884 
L 114.566834 158.039372 
L 116.249246 157.270944 
L 117.931658 156.495822 
L 119.61407 155.714228 
L 121.296482 154.926383 
L 122.978894 154.132509 
L 124.661307 153.332829 
L 126.343719 152.527566 
L 128.026131 151.71694 
L 129.708543 150.901174 
L 131.390955 150.080488 
L 133.073367 149.255101 
L 134.755779 148.425232 
L 136.438191 147.591099 
L 138.120603 146.752917 
L 139.803015 145.9109 
L 141.485427 145.065262 
L 143.167839 144.216212 
L 144.850251 143.363961 
L 146.532663 142.508714 
L 148.215075 141.650678 
L 149.897487 140.790053 
L 151.579899 139.92704 
L 153.262312 139.061839 
L 154.944724 138.194643 
L 156.627136 137.325646 
L 158.309548 136.455038 
L 159.99196 135.583008 
L 161.674372 134.70974 
L 163.356784 133.835418 
L 165.039196 132.960221 
L 166.721608 132.084326 
L 168.40402 131.20791 
L 170.086432 130.331142 
L 171.768844 129.454194 
L 173.451256 128.57723 
L 175.133668 127.700415 
L 176.81608 126.823911 
L 178.498492 125.947875 
L 180.180905 125.072463 
L 181.863317 124.197829 
L 183.545729 123.324122 
L 185.228141 122.451491 
L 186.910553 121.58008 
L 188.592965 120.710031 
L 190.275377 119.841486 
L 191.957789 118.97458 
L 193.640201 118.109449 
L 195.322613 117.246224 
L 197.005025 116.385035 
L 198.687437 115.526008 
L 200.369849 114.669269 
L 202.052261 113.814939 
L 203.734673 112.963137 
L 205.417085 112.11398 
L 207.099497 111.267583 
L 208.78191 110.424058 
L 210.464322 109.583513 
L 212.146734 108.746055 
L 213.829146 107.91179 
L 215.511558 107.080819 
L 217.19397 106.253242 
L 218.876382 105.429155 
L 220.558794 104.608653 
L 222.241206 103.791828 
L 223.923618 102.978771 
L 225.60603 102.169567 
L 227.288442 101.364302 
L 228.970854 100.563057 
L 230.653266 99.765913 
L 232.335678 98.972945 
L 234.01809 98.184229 
L 235.700503 97.399837 
L 237.382915 96.619837 
L 239.065327 95.844295 
L 240.747739 95.073277 
L 242.430151 94.306843 
L 244.112563 93.545052 
L 245.794975 92.787959 
L 247.477387 92.035617 
L 249.159799 91.288077 
L 250.842211 90.545386 
L 252.524623 89.807588 
L 254.207035 89.074725 
L 255.889447 88.346834 
L 257.571859 87.623953 
L 259.254271 86.906113 
L 260.936683 86.193343 
L 262.619095 85.485671 
L 264.301508 84.783119 
L 265.98392 84.085707 
L 267.666332 83.393452 
L 269.348744 82.706367 
L 271.031156 82.024463 
L 272.713568 81.347747 
L 274.39598 80.676222 
L 276.078392 80.009888 
L 277.760804 79.348742 
L 279.443216 78.692777 
L 281.125628 78.041983 
L 282.80804 77.396347 
L 284.490452 76.75585 
L 286.172864 76.120472 
L 287.855276 75.49019 
L 289.537688 74.864974 
L 291.220101 74.244794 
L 292.902513 73.629615 
L 294.584925 73.019399 
L 296.267337 72.414102 
L 297.949749 71.813681 
L 299.632161 71.218085 
L 301.314573 70.627264 
L 302.996985 70.04116 
L 304.679397 69.459715 
L 306.361809 68.882868 
L 308.044221 68.310551 
L 309.726633 67.742697 
L 311.409045 67.179234 
L 313.091457 66.620088 
L 314.773869 66.065181 
L 316.456281 65.514432 
L 318.138693 64.967761 
L 319.821106 64.42508 
L 321.503518 63.886303 
L 323.18593 63.35134 
L 324.868342 62.8201 
L 326.550754 62.292488 
L 328.233166 61.76841 
L 329.915578 61.247769 
L 331.59799 60.730466 
L 333.280402 60.216403 
L 334.962814 59.70548 
L 336.645226 59.197595 
L 338.327638 58.692647 
L 340.01005 58.190536 
L 341.692462 57.691158 
L 343.374874 57.194413 
L 345.057286 56.700199 
L 346.739698 56.208416 
L 348.422111 55.718964 
L 350.104523 55.231743 
L 351.786935 54.746657 
L 353.469347 54.263608 
L 355.151759 53.782503 
L 356.834171 53.303248 
L 358.516583 52.825752 
L 360.198995 52.349927 
L 361.881407 51.875687 
L 363.563819 51.402946 
L 365.246231 50.931624 
L 366.928643 50.461642 
L 368.611055 49.992925 
L 370.293467 49.525399 
L 371.975879 49.058995 
L 373.658291 48.593646 
L 375.340704 48.129289 
L 377.023116 47.665863 
L 378.705528 47.203313 
L 380.38794 46.741585 
L 382.070352 46.280628 
L 383.752764 45.820397 
L 385.435176 45.360847 
L 387.117588 44.901939 
L 388.8 44.443636 
L 388.8 104.744767 
L 387.117588 104.685793 
L 385.435176 104.64093 
L 383.752764 104.610169 
L 382.070352 104.593495 
L 380.38794 104.590889 
L 378.705528 104.602323 
L 377.023116 104.627768 
L 375.340704 104.667186 
L 373.658291 104.720535 
L 371.975879 104.787768 
L 370.293467 104.86883 
L 368.611055 104.963665 
L 366.928643 105.072206 
L 365.246231 105.194386 
L 363.563819 105.33013 
L 361.881407 105.479358 
L 360.198995 105.641985 
L 358.516583 105.817922 
L 356.834171 106.007075 
L 355.151759 106.209344 
L 353.469347 106.424627 
L 351.786935 106.652816 
L 350.104523 106.893799 
L 348.422111 107.14746 
L 346.739698 107.413681 
L 345.057286 107.692339 
L 343.374874 107.983306 
L 341.692462 108.286455 
L 340.01005 108.601653 
L 338.327638 108.928765 
L 336.645226 109.267653 
L 334.962814 109.618178 
L 333.280402 109.980199 
L 331.59799 110.353571 
L 329.915578 110.73815 
L 328.233166 111.133789 
L 326.550754 111.54034 
L 324.868342 111.957655 
L 323.18593 112.385583 
L 321.503518 112.823974 
L 319.821106 113.272678 
L 318.138693 113.731542 
L 316.456281 114.200416 
L 314.773869 114.679148 
L 313.091457 115.167588 
L 311.409045 115.665583 
L 309.726633 116.172983 
L 308.044221 116.689638 
L 306.361809 117.215399 
L 304.679397 117.750117 
L 302.996985 118.293643 
L 301.314573 118.845832 
L 299.632161 119.406536 
L 297.949749 119.97561 
L 296.267337 120.552911 
L 294.584925 121.138296 
L 292.902513 121.731623 
L 291.220101 122.332752 
L 289.537688 122.941544 
L 287.855276 123.557861 
L 286.172864 124.181567 
L 284.490452 124.812527 
L 282.80804 125.450606 
L 281.125628 126.095674 
L 279.443216 126.747598 
L 277.760804 127.406249 
L 276.078392 128.0715 
L 274.39598 128.743223 
L 272.713568 129.421293 
L 271.031156 130.105586 
L 269.348744 130.79598 
L 267.666332 131.492353 
L 265.98392 132.194584 
L 264.301508 132.902557 
L 262.619095 133.616152 
L 260.936683 134.335255 
L 259.254271 135.059749 
L 257.571859 135.789523 
L 255.889447 136.524462 
L 254.207035 137.264457 
L 252.524623 138.009397 
L 250.842211 138.759173 
L 249.159799 139.513679 
L 247.477387 140.272807 
L 245.794975 141.036452 
L 244.112563 141.80451 
L 242.430151 142.576879 
L 240.747739 143.353455 
L 239.065327 144.13414 
L 237.382915 144.918832 
L 235.700503 145.707434 
L 234.01809 146.499847 
L 232.335678 147.295977 
L 230.653266 148.095727 
L 228.970854 148.899003 
L 227.288442 149.705714 
L 225.60603 150.515766 
L 223.923618 151.329069 
L 222.241206 152.145535 
L 220.558794 152.965074 
L 218.876382 153.7876 
L 217.19397 154.613027 
L 215.511558 155.44127 
L 213.829146 156.272247 
L 212.146734 157.105875 
L 210.464322 157.942074 
L 208.78191 158.780765 
L 207.099497 159.62187 
L 205.417085 160.465313 
L 203.734673 161.311018 
L 202.052261 162.158914 
L 200.369849 163.008927 
L 198.687437 163.860989 
L 197.005025 164.71503 
L 195.322613 165.570984 
L 193.640201 166.428786 
L 191.957789 167.288373 
L 190.275377 168.149684 
L 188.592965 169.012659 
L 186.910553 169.877241 
L 185.228141 170.743374 
L 183.545729 171.611006 
L 181.863317 172.480085 
L 180.180905 173.350562 
L 178.498492 174.22239 
L 176.81608 175.095524 
L 175.133668 175.969923 
L 173.451256 176.845547 
L 171.768844 177.722357 
L 170.086432 178.60032 
L 168.40402 179.479401 
L 166.721608 180.359573 
L 165.039196 181.240806 
L 163.356784 182.123076 
L 161.674372 183.00636 
L 159.99196 183.89064 
L 158.309548 184.775898 
L 156.627136 185.66212 
L 154.944724 186.549293 
L 153.262312 187.437411 
L 151.579899 188.326465 
L 149.897487 189.216452 
L 148.215075 190.107372 
L 146.532663 190.999226 
L 144.850251 191.892018 
L 143.167839 192.785756 
L 141.485427 193.680448 
L 139.803015 194.576106 
L 138.120603 195.472745 
L 136.438191 196.37038 
L 134.755779 197.269031 
L 133.073367 198.168718 
L 131.390955 199.069463 
L 129.708543 199.971293 
L 128.026131 200.874232 
L 126.343719 201.778309 
L 124.661307 202.683553 
L 122.978894 203.589996 
L 121.296482 204.497669 
L 119.61407 205.406605 
L 117.931658 206.316838 
L 116.249246 207.228403 
L 114.566834 208.141334 
L 112.884422 209.055667 
L 111.20201 209.971437 
L 109.519598 210.888678 
L 107.837186 211.807427 
L 106.154774 212.727716 
L 104.472362 213.649579 
L 102.78995 214.573048 
L 101.107538 215.498154 
L 99.425126 216.424927 
L 97.742714 217.353395 
L 96.060302 218.283584 
L 94.377889 219.215518 
L 92.695477 220.149218 
L 91.013065 221.084703 
L 89.330653 222.021992 
L 87.648241 222.961096 
L 85.965829 223.902029 
L 84.283417 224.844796 
L 82.601005 225.789403 
L 80.918593 226.735852 
L 79.236181 227.684139 
L 77.553769 228.63426 
L 75.871357 229.586204 
L 74.188945 230.53996 
L 72.506533 231.495509 
L 70.824121 232.452833 
L 69.141709 233.411905 
L 67.459296 234.372698 
L 65.776884 235.33518 
L 64.094472 236.299315 
L 62.41206 237.265064 
L 60.729648 238.232382 
L 59.047236 239.201224 
L 57.364824 240.171538 
L 55.682412 241.143271 
L 54 242.116364 
z
" style="fill:#cc3300;opacity:0.3;stroke:#cc3300;stroke-linejoin:miter;stroke-width:0.5;"/>
   </g>
   <g id="matplotlib.axis_1">
    <g id="xtick_1">
     <g id="line2d_1">
      <defs>
       <path d="M 0 0 
L 0 3.5 
" id="m6b3c5d16a5" style="stroke:#000000;stroke-width:0.8;"/>
      </defs>
      <g>
       <use style="stroke:#000000;stroke-width:0.8;" x="64.8" xlink:href="#m6b3c5d16a5" y="252"/>
      </g>
     </g>
     <g id="text_1">
      <!-- 1880 -->
      <defs>
       <path d="M 12.40625 8.296875 
L 28.515625 8.296875 
L 28.515625 63.921875 
L 10.984375 60.40625 
L 10.984375 69.390625 
L 28.421875 72.90625 
L 38.28125 72.90625 
L 38.28125 8.296875 
L 54.390625 8.296875 
L 54.390625 0 
L 12.40625 0 
z
" id="DejaVuSans-31"/>
       <path d="M 31.78125 34.625 
Q 24.75 34.625 20.71875 30.859375 
Q 16.703125 27.09375 16.703125 20.515625 
Q 16.703125 13.921875 20.71875 10.15625 
Q 24.75 6.390625 31.78125 6.390625 
Q 38.8125 6.390625 42.859375 10.171875 
Q 46.921875 13.96875 46.921875 20.515625 
Q 46.921875 27.09375 42.890625 30.859375 
Q 38.875 34.625 31.78125 34.625 
z
M 21.921875 38.8125 
Q 15.578125 40.375 12.03125 44.71875 
Q 8.5 49.078125 8.5 55.328125 
Q 8.5 64.0625 14.71875 69.140625 
Q 20.953125 74.21875 31.78125 74.21875 
Q 42.671875 74.21875 48.875 69.140625 
Q 55.078125 64.0625 55.078125 55.328125 
Q 55.078125 49.078125 51.53125 44.71875 
Q 48 40.375 41.703125 38.8125 
Q 48.828125 37.15625 52.796875 32.3125 
Q 56.78125 27.484375 56.78125 20.515625 
Q 56.78125 9.90625 50.3125 4.234375 
Q 43.84375 -1.421875 31.78125 -1.421875 
Q 19.734375 -1.421875 13.25 4.234375 
Q 6.78125 9.90625 6.78125 20.515625 
Q 6.78125 27.484375 10.78125 32.3125 
Q 14.796875 37.15625 21.921875 38.8125 
z
M 18.3125 54.390625 
Q 18.3125 48.734375 21.84375 45.5625 
Q 25.390625 42.390625 31.78125 42.390625 
Q 38.140625 42.390625 41.71875 45.5625 
Q 45.3125 48.734375 45.3125 54.390625 
Q 45.3125 60.0625 41.71875 63.234375 
Q 38.140625 66.40625 31.78125 66.40625 
Q 25.390625 66.40625 21.84375 63.234375 
Q 18.3125 60.0625 18.3125 54.390625 
z
" id="DejaVuSans-38"/>
       <path d="M 31.78125 66.40625 
Q 24.171875 66.40625 20.328125 58.90625 
Q 16.5 51.421875 16.5 36.375 
Q 16.5 21.390625 20.328125 13.890625 
Q 24.171875 6.390625 31.78125 6.390625 
Q 39.453125 6.390625 43.28125 13.890625 
Q 47.125 21.390625 47.125 36.375 
Q 47.125 51.421875 43.28125 58.90625 
Q 39.453125 66.40625 31.78125 66.40625 
z
M 31.78125 74.21875 
Q 44.046875 74.21875 50.515625 64.515625 
Q 56.984375 54.828125 56.984375 36.375 
Q 56.984375 17.96875 50.515625 8.265625 
Q 44.046875 -1.421875 31.78125 -1.421875 
Q 19.53125 -1.421875 13.0625 8.265625 
Q 6.59375 17.96875 6.59375 36.375 
Q 6.59375 54.828125 13.0625 64.515625 
Q 19.53125 74.21875 31.78125 74.21875 
z
" id="DejaVuSans-30"/>
      </defs>
      <g transform="translate(52.075 266.598437)scale(0.1 -0.1)">
       <use xlink:href="#DejaVuSans-31"/>
       <use x="63.623047" xlink:href="#DejaVuSans-38"/>
       <use x="127.246094" xlink:href="#DejaVuSans-38"/>
       <use x="190.869141" xlink:href="#DejaVuSans-30"/>
      </g>
     </g>
    </g>
    <g id="xtick_2">
     <g id="line2d_2">
      <g>
       <use style="stroke:#000000;stroke-width:0.8;" x="108" xlink:href="#m6b3c5d16a5" y="252"/>
      </g>
     </g>
     <g id="text_2">
      <!-- 1900 -->
      <defs>
       <path d="M 10.984375 1.515625 
L 10.984375 10.5 
Q 14.703125 8.734375 18.5 7.8125 
Q 22.3125 6.890625 25.984375 6.890625 
Q 35.75 6.890625 40.890625 13.453125 
Q 46.046875 20.015625 46.78125 33.40625 
Q 43.953125 29.203125 39.59375 26.953125 
Q 35.25 24.703125 29.984375 24.703125 
Q 19.046875 24.703125 12.671875 31.3125 
Q 6.296875 37.9375 6.296875 49.421875 
Q 6.296875 60.640625 12.9375 67.421875 
Q 19.578125 74.21875 30.609375 74.21875 
Q 43.265625 74.21875 49.921875 64.515625 
Q 56.59375 54.828125 56.59375 36.375 
Q 56.59375 19.140625 48.40625 8.859375 
Q 40.234375 -1.421875 26.421875 -1.421875 
Q 22.703125 -1.421875 18.890625 -0.6875 
Q 15.09375 0.046875 10.984375 1.515625 
z
M 30.609375 32.421875 
Q 37.25 32.421875 41.125 36.953125 
Q 45.015625 41.5 45.015625 49.421875 
Q 45.015625 57.28125 41.125 61.84375 
Q 37.25 66.40625 30.609375 66.40625 
Q 23.96875 66.40625 20.09375 61.84375 
Q 16.21875 57.28125 16.21875 49.421875 
Q 16.21875 41.5 20.09375 36.953125 
Q 23.96875 32.421875 30.609375 32.421875 
z
" id="DejaVuSans-39"/>
      </defs>
      <g transform="translate(95.275 266.598437)scale(0.1 -0.1)">
       <use xlink:href="#DejaVuSans-31"/>
       <use x="63.623047" xlink:href="#DejaVuSans-39"/>
       <use x="127.246094" xlink:href="#DejaVuSans-30"/>
       <use x="190.869141" xlink:href="#DejaVuSans-30"/>
      </g>
     </g>
    </g>
    <g id="xtick_3">
     <g id="line2d_3">
      <g>
       <use style="stroke:#000000;stroke-width:0.8;" x="151.2" xlink:href="#m6b3c5d16a5" y="252"/>
      </g>
     </g>
     <g id="text_3">
      <!-- 1920 -->
      <defs>
       <path d="M 19.1875 8.296875 
L 53.609375 8.296875 
L 53.609375 0 
L 7.328125 0 
L 7.328125 8.296875 
Q 12.9375 14.109375 22.625 23.890625 
Q 32.328125 33.6875 34.8125 36.53125 
Q 39.546875 41.84375 41.421875 45.53125 
Q 43.3125 49.21875 43.3125 52.78125 
Q 43.3125 58.59375 39.234375 62.25 
Q 35.15625 65.921875 28.609375 65.921875 
Q 23.96875 65.921875 18.8125 64.3125 
Q 13.671875 62.703125 7.8125 59.421875 
L 7.8125 69.390625 
Q 13.765625 71.78125 18.9375 73 
Q 24.125 74.21875 28.421875 74.21875 
Q 39.75 74.21875 46.484375 68.546875 
Q 53.21875 62.890625 53.21875 53.421875 
Q 53.21875 48.921875 51.53125 44.890625 
Q 49.859375 40.875 45.40625 35.40625 
Q 44.1875 33.984375 37.640625 27.21875 
Q 31.109375 20.453125 19.1875 8.296875 
z
" id="DejaVuSans-32"/>
      </defs>
      <g transform="translate(138.475 266.598437)scale(0.1 -0.1)">
       <use xlink:href="#DejaVuSans-31"/>
       <use x="63.623047" xlink:href="#DejaVuSans-39"/>
       <use x="127.246094" xlink:href="#DejaVuSans-32"/>
       <use x="190.869141" xlink:href="#DejaVuSans-30"/>
      </g>
     </g>
    </g>
    <g id="xtick_4">
     <g id="line2d_4">
      <g>
       <use style="stroke:#000000;stroke-width:0.8;" x="194.4" xlink:href="#m6b3c5d16a5" y="252"/>
      </g>
     </g>
     <g id="text_4">
      <!-- 1940 -->
      <defs>
       <path d="M 37.796875 64.3125 
L 12.890625 25.390625 
L 37.796875 25.390625 
z
M 35.203125 72.90625 
L 47.609375 72.90625 
L 47.609375 25.390625 
L 58.015625 25.390625 
L 58.015625 17.1875 
L 47.609375 17.1875 
L 47.609375 0 
L 37.796875 0 
L 37.796875 17.1875 
L 4.890625 17.1875 
L 4.890625 26.703125 
z
" id="DejaVuSans-34"/>
      </defs>
      <g transform="translate(181.675 266.598437)scale(0.1 -0.1)">
       <use xlink:href="#DejaVuSans-31"/>
       <use x="63.623047" xlink:href="#DejaVuSans-39"/>
       <use x="127.246094" xlink:href="#DejaVuSans-34"/>
       <use x="190.869141" xlink:href="#DejaVuSans-30"/>
      </g>
     </g>
    </g>
    <g id="xtick_5">
     <g id="line2d_5">
      <g>
       <use style="stroke:#000000;stroke-width:0.8;" x="237.6" xlink:href="#m6b3c5d16a5" y="252"/>
      </g>
     </g>
     <g id="text_5">
      <!-- 1960 -->
      <defs>
       <path d="M 33.015625 40.375 
Q 26.375 40.375 22.484375 35.828125 
Q 18.609375 31.296875 18.609375 23.390625 
Q 18.609375 15.53125 22.484375 10.953125 
Q 26.375 6.390625 33.015625 6.390625 
Q 39.65625 6.390625 43.53125 10.953125 
Q 47.40625 15.53125 47.40625 23.390625 
Q 47.40625 31.296875 43.53125 35.828125 
Q 39.65625 40.375 33.015625 40.375 
z
M 52.59375 71.296875 
L 52.59375 62.3125 
Q 48.875 64.0625 45.09375 64.984375 
Q 41.3125 65.921875 37.59375 65.921875 
Q 27.828125 65.921875 22.671875 59.328125 
Q 17.53125 52.734375 16.796875 39.40625 
Q 19.671875 43.65625 24.015625 45.921875 
Q 28.375 48.1875 33.59375 48.1875 
Q 44.578125 48.1875 50.953125 41.515625 
Q 57.328125 34.859375 57.328125 23.390625 
Q 57.328125 12.15625 50.6875 5.359375 
Q 44.046875 -1.421875 33.015625 -1.421875 
Q 20.359375 -1.421875 13.671875 8.265625 
Q 6.984375 17.96875 6.984375 36.375 
Q 6.984375 53.65625 15.1875 63.9375 
Q 23.390625 74.21875 37.203125 74.21875 
Q 40.921875 74.21875 44.703125 73.484375 
Q 48.484375 72.75 52.59375 71.296875 
z
" id="DejaVuSans-36"/>
      </defs>
      <g transform="translate(224.875 266.598437)scale(0.1 -0.1)">
       <use xlink:href="#DejaVuSans-31"/>
       <use x="63.623047" xlink:href="#DejaVuSans-39"/>
       <use x="127.246094" xlink:href="#DejaVuSans-36"/>
       <use x="190.869141" xlink:href="#DejaVuSans-30"/>
      </g>
     </g>
    </g>
    <g id="xtick_6">
     <g id="line2d_6">
      <g>
       <use style="stroke:#000000;stroke-width:0.8;" x="280.8" xlink:href="#m6b3c5d16a5" y="252"/>
      </g>
     </g>
     <g id="text_6">
      <!-- 1980 -->
      <g transform="translate(268.075 266.598437)scale(0.1 -0.1)">
       <use xlink:href="#DejaVuSans-31"/>
       <use x="63.623047" xlink:href="#DejaVuSans-39"/>
       <use x="127.246094" xlink:href="#DejaVuSans-38"/>
       <use x="190.869141" xlink:href="#DejaVuSans-30"/>
      </g>
     </g>
    </g>
    <g id="xtick_7">
     <g id="line2d_7">
      <g>
       <use style="stroke:#000000;stroke-width:0.8;" x="324" xlink:href="#m6b3c5d16a5" y="252"/>
      </g>
     </g>
     <g id="text_7">
      <!-- 2000 -->
      <g transform="translate(311.275 266.598437)scale(0.1 -0.1)">
       <use xlink:href="#DejaVuSans-32"/>
       <use x="63.623047" xlink:href="#DejaVuSans-30"/>
       <use x="127.246094" xlink:href="#DejaVuSans-30"/>
       <use x="190.869141" xlink:href="#DejaVuSans-30"/>
      </g>
     </g>
    </g>
    <g id="xtick_8">
     <g id="line2d_8">
      <g>
       <use style="stroke:#000000;stroke-width:0.8;" x="367.2" xlink:href="#m6b3c5d16a5" y="252"/>
      </g>
     </g>
     <g id="text_8">
      <!-- 2020 -->
      <g transform="translate(354.475 266.598437)scale(0.1 -0.1)">
       <use xlink:href="#DejaVuSans-32"/>
       <use x="63.623047" xlink:href="#DejaVuSans-30"/>
       <use x="127.246094" xlink:href="#DejaVuSans-32"/>
       <use x="190.869141" xlink:href="#DejaVuSans-30"/>
      </g>
     </g>
    </g>
    <g id="text_9">
     <!-- year -->
     <defs>
      <path d="M 32.171875 -5.078125 
Q 28.375 -14.84375 24.75 -17.8125 
Q 21.140625 -20.796875 15.09375 -20.796875 
L 7.90625 -20.796875 
L 7.90625 -13.28125 
L 13.1875 -13.28125 
Q 16.890625 -13.28125 18.9375 -11.515625 
Q 21 -9.765625 23.484375 -3.21875 
L 25.09375 0.875 
L 2.984375 54.6875 
L 12.5 54.6875 
L 29.59375 11.921875 
L 46.6875 54.6875 
L 56.203125 54.6875 
z
" id="DejaVuSans-79"/>
      <path d="M 56.203125 29.59375 
L 56.203125 25.203125 
L 14.890625 25.203125 
Q 15.484375 15.921875 20.484375 11.0625 
Q 25.484375 6.203125 34.421875 6.203125 
Q 39.59375 6.203125 44.453125 7.46875 
Q 49.3125 8.734375 54.109375 11.28125 
L 54.109375 2.78125 
Q 49.265625 0.734375 44.1875 -0.34375 
Q 39.109375 -1.421875 33.890625 -1.421875 
Q 20.796875 -1.421875 13.15625 6.1875 
Q 5.515625 13.8125 5.515625 26.8125 
Q 5.515625 40.234375 12.765625 48.109375 
Q 20.015625 56 32.328125 56 
Q 43.359375 56 49.78125 48.890625 
Q 56.203125 41.796875 56.203125 29.59375 
z
M 47.21875 32.234375 
Q 47.125 39.59375 43.09375 43.984375 
Q 39.0625 48.390625 32.421875 48.390625 
Q 24.90625 48.390625 20.390625 44.140625 
Q 15.875 39.890625 15.1875 32.171875 
z
" id="DejaVuSans-65"/>
      <path d="M 34.28125 27.484375 
Q 23.390625 27.484375 19.1875 25 
Q 14.984375 22.515625 14.984375 16.5 
Q 14.984375 11.71875 18.140625 8.90625 
Q 21.296875 6.109375 26.703125 6.109375 
Q 34.1875 6.109375 38.703125 11.40625 
Q 43.21875 16.703125 43.21875 25.484375 
L 43.21875 27.484375 
z
M 52.203125 31.203125 
L 52.203125 0 
L 43.21875 0 
L 43.21875 8.296875 
Q 40.140625 3.328125 35.546875 0.953125 
Q 30.953125 -1.421875 24.3125 -1.421875 
Q 15.921875 -1.421875 10.953125 3.296875 
Q 6 8.015625 6 15.921875 
Q 6 25.140625 12.171875 29.828125 
Q 18.359375 34.515625 30.609375 34.515625 
L 43.21875 34.515625 
L 43.21875 35.40625 
Q 43.21875 41.609375 39.140625 45 
Q 35.0625 48.390625 27.6875 48.390625 
Q 23 48.390625 18.546875 47.265625 
Q 14.109375 46.140625 10.015625 43.890625 
L 10.015625 52.203125 
Q 14.9375 54.109375 19.578125 55.046875 
Q 24.21875 56 28.609375 56 
Q 40.484375 56 46.34375 49.84375 
Q 52.203125 43.703125 52.203125 31.203125 
z
" id="DejaVuSans-61"/>
      <path d="M 41.109375 46.296875 
Q 39.59375 47.171875 37.8125 47.578125 
Q 36.03125 48 33.890625 48 
Q 26.265625 48 22.1875 43.046875 
Q 18.109375 38.09375 18.109375 28.8125 
L 18.109375 0 
L 9.078125 0 
L 9.078125 54.6875 
L 18.109375 54.6875 
L 18.109375 46.1875 
Q 20.953125 51.171875 25.484375 53.578125 
Q 30.03125 56 36.53125 56 
Q 37.453125 56 38.578125 55.875 
Q 39.703125 55.765625 41.0625 55.515625 
z
" id="DejaVuSans-72"/>
     </defs>
     <g transform="translate(199.089063 287.875)scale(0.2 -0.2)">
      <use xlink:href="#DejaVuSans-79"/>
      <use x="59.179688" xlink:href="#DejaVuSans-65"/>
      <use x="120.703125" xlink:href="#DejaVuSans-61"/>
      <use x="181.982422" xlink:href="#DejaVuSans-72"/>
     </g>
    </g>
   </g>
   <g id="matplotlib.axis_2">
    <g id="ytick_1">
     <g id="line2d_9">
      <defs>
       <path d="M 0 0 
L -3.5 0 
" id="mb4fb3fc919" style="stroke:#000000;stroke-width:0.8;"/>
      </defs>
      <g>
       <use style="stroke:#000000;stroke-width:0.8;" x="54" xlink:href="#mb4fb3fc919" y="245.237593"/>
      </g>
     </g>
     <g id="text_10">
      <!-- −0.75 -->
      <defs>
       <path d="M 10.59375 35.5 
L 73.1875 35.5 
L 73.1875 27.203125 
L 10.59375 27.203125 
z
" id="DejaVuSans-2212"/>
       <path d="M 10.6875 12.40625 
L 21 12.40625 
L 21 0 
L 10.6875 0 
z
" id="DejaVuSans-2e"/>
       <path d="M 8.203125 72.90625 
L 55.078125 72.90625 
L 55.078125 68.703125 
L 28.609375 0 
L 18.3125 0 
L 43.21875 64.59375 
L 8.203125 64.59375 
z
" id="DejaVuSans-37"/>
       <path d="M 10.796875 72.90625 
L 49.515625 72.90625 
L 49.515625 64.59375 
L 19.828125 64.59375 
L 19.828125 46.734375 
Q 21.96875 47.46875 24.109375 47.828125 
Q 26.265625 48.1875 28.421875 48.1875 
Q 40.625 48.1875 47.75 41.5 
Q 54.890625 34.8125 54.890625 23.390625 
Q 54.890625 11.625 47.5625 5.09375 
Q 40.234375 -1.421875 26.90625 -1.421875 
Q 22.3125 -1.421875 17.546875 -0.640625 
Q 12.796875 0.140625 7.71875 1.703125 
L 7.71875 11.625 
Q 12.109375 9.234375 16.796875 8.0625 
Q 21.484375 6.890625 26.703125 6.890625 
Q 35.15625 6.890625 40.078125 11.328125 
Q 45.015625 15.765625 45.015625 23.390625 
Q 45.015625 31 40.078125 35.4375 
Q 35.15625 39.890625 26.703125 39.890625 
Q 22.75 39.890625 18.8125 39.015625 
Q 14.890625 38.140625 10.796875 36.28125 
z
" id="DejaVuSans-35"/>
      </defs>
      <g transform="translate(16.354687 249.036812)scale(0.1 -0.1)">
       <use xlink:href="#DejaVuSans-2212"/>
       <use x="83.789062" xlink:href="#DejaVuSans-30"/>
       <use x="147.412109" xlink:href="#DejaVuSans-2e"/>
       <use x="179.199219" xlink:href="#DejaVuSans-37"/>
       <use x="242.822266" xlink:href="#DejaVuSans-35"/>
      </g>
     </g>
    </g>
    <g id="ytick_2">
     <g id="line2d_10">
      <g>
       <use style="stroke:#000000;stroke-width:0.8;" x="54" xlink:href="#mb4fb3fc919" y="216.459905"/>
      </g>
     </g>
     <g id="text_11">
      <!-- −0.50 -->
      <g transform="translate(16.354687 220.259123)scale(0.1 -0.1)">
       <use xlink:href="#DejaVuSans-2212"/>
       <use x="83.789062" xlink:href="#DejaVuSans-30"/>
       <use x="147.412109" xlink:href="#DejaVuSans-2e"/>
       <use x="179.199219" xlink:href="#DejaVuSans-35"/>
       <use x="242.822266" xlink:href="#DejaVuSans-30"/>
      </g>
     </g>
    </g>
    <g id="ytick_3">
     <g id="line2d_11">
      <g>
       <use style="stroke:#000000;stroke-width:0.8;" x="54" xlink:href="#mb4fb3fc919" y="187.682216"/>
      </g>
     </g>
     <g id="text_12">
      <!-- −0.25 -->
      <g transform="translate(16.354687 191.481435)scale(0.1 -0.1)">
       <use xlink:href="#DejaVuSans-2212"/>
       <use x="83.789062" xlink:href="#DejaVuSans-30"/>
       <use x="147.412109" xlink:href="#DejaVuSans-2e"/>
       <use x="179.199219" xlink:href="#DejaVuSans-32"/>
       <use x="242.822266" xlink:href="#DejaVuSans-35"/>
      </g>
     </g>
    </g>
    <g id="ytick_4">
     <g id="line2d_12">
      <g>
       <use style="stroke:#000000;stroke-width:0.8;" x="54" xlink:href="#mb4fb3fc919" y="158.904528"/>
      </g>
     </g>
     <g id="text_13">
      <!-- 0.00 -->
      <g transform="translate(24.734375 162.703747)scale(0.1 -0.1)">
       <use xlink:href="#DejaVuSans-30"/>
       <use x="63.623047" xlink:href="#DejaVuSans-2e"/>
       <use x="95.410156" xlink:href="#DejaVuSans-30"/>
       <use x="159.033203" xlink:href="#DejaVuSans-30"/>
      </g>
     </g>
    </g>
    <g id="ytick_5">
     <g id="line2d_13">
      <g>
       <use style="stroke:#000000;stroke-width:0.8;" x="54" xlink:href="#mb4fb3fc919" y="130.12684"/>
      </g>
     </g>
     <g id="text_14">
      <!-- 0.25 -->
      <g transform="translate(24.734375 133.926058)scale(0.1 -0.1)">
       <use xlink:href="#DejaVuSans-30"/>
       <use x="63.623047" xlink:href="#DejaVuSans-2e"/>
       <use x="95.410156" xlink:href="#DejaVuSans-32"/>
       <use x="159.033203" xlink:href="#DejaVuSans-35"/>
      </g>
     </g>
    </g>
    <g id="ytick_6">
     <g id="line2d_14">
      <g>
       <use style="stroke:#000000;stroke-width:0.8;" x="54" xlink:href="#mb4fb3fc919" y="101.349151"/>
      </g>
     </g>
     <g id="text_15">
      <!-- 0.50 -->
      <g transform="translate(24.734375 105.14837)scale(0.1 -0.1)">
       <use xlink:href="#DejaVuSans-30"/>
       <use x="63.623047" xlink:href="#DejaVuSans-2e"/>
       <use x="95.410156" xlink:href="#DejaVuSans-35"/>
       <use x="159.033203" xlink:href="#DejaVuSans-30"/>
      </g>
     </g>
    </g>
    <g id="ytick_7">
     <g id="line2d_15">
      <g>
       <use style="stroke:#000000;stroke-width:0.8;" x="54" xlink:href="#mb4fb3fc919" y="72.571463"/>
      </g>
     </g>
     <g id="text_16">
      <!-- 0.75 -->
      <g transform="translate(24.734375 76.370682)scale(0.1 -0.1)">
       <use xlink:href="#DejaVuSans-30"/>
       <use x="63.623047" xlink:href="#DejaVuSans-2e"/>
       <use x="95.410156" xlink:href="#DejaVuSans-37"/>
       <use x="159.033203" xlink:href="#DejaVuSans-35"/>
      </g>
     </g>
    </g>
    <g id="ytick_8">
     <g id="line2d_16">
      <g>
       <use style="stroke:#000000;stroke-width:0.8;" x="54" xlink:href="#mb4fb3fc919" y="43.793775"/>
      </g>
     </g>
     <g id="text_17">
      <!-- 1.00 -->
      <g transform="translate(24.734375 47.592993)scale(0.1 -0.1)">
       <use xlink:href="#DejaVuSans-31"/>
       <use x="63.623047" xlink:href="#DejaVuSans-2e"/>
       <use x="95.410156" xlink:href="#DejaVuSans-30"/>
       <use x="159.033203" xlink:href="#DejaVuSans-30"/>
      </g>
     </g>
    </g>
    <g id="text_18">
     <!-- layer 1 -->
     <defs>
      <path d="M 9.421875 75.984375 
L 18.40625 75.984375 
L 18.40625 0 
L 9.421875 0 
z
" id="DejaVuSans-6c"/>
      <path id="DejaVuSans-20"/>
     </defs>
     <g transform="translate(8.195312 177.909688)rotate(-90)scale(0.2 -0.2)">
      <use xlink:href="#DejaVuSans-6c"/>
      <use x="27.783203" xlink:href="#DejaVuSans-61"/>
      <use x="89.0625" xlink:href="#DejaVuSans-79"/>
      <use x="148.242188" xlink:href="#DejaVuSans-65"/>
      <use x="209.765625" xlink:href="#DejaVuSans-72"/>
      <use x="250.878906" xlink:href="#DejaVuSans-20"/>
      <use x="282.666016" xlink:href="#DejaVuSans-31"/>
     </g>
    </g>
   </g>
   <g id="line2d_17">
    <path clip-path="url(#p9a515f2b17)" d="M 54 210.843639 
L 65.776884 205.912993 
L 77.553769 200.729646 
L 89.330653 195.319095 
L 102.78995 188.892791 
L 117.931658 181.40633 
L 136.438191 171.98074 
L 163.356784 157.979247 
L 195.322613 141.408604 
L 212.146734 132.925965 
L 227.288442 125.535008 
L 240.747739 119.213366 
L 252.524623 113.908492 
L 264.301508 108.842838 
L 276.078392 104.040694 
L 286.172864 100.15102 
L 296.267337 96.483507 
L 306.361809 93.049133 
L 316.456281 89.857424 
L 326.550754 86.916414 
L 336.645226 84.232624 
L 346.739698 81.811049 
L 356.834171 79.655161 
L 366.928643 77.766924 
L 377.023116 76.146816 
L 387.117588 74.793866 
L 388.8 74.594202 
L 388.8 74.594202 
" style="fill:none;stroke:#3300ff;stroke-linecap:square;stroke-width:2;"/>
   </g>
   <g id="line2d_18">
    <path clip-path="url(#p9a515f2b17)" d="M 54 179.570914 
L 60.729648 177.884577 
L 67.459296 176.002132 
L 74.188945 173.929923 
L 82.601005 171.084794 
L 91.013065 167.973682 
L 99.425126 164.617987 
L 107.837186 161.04174 
L 117.931658 156.495822 
L 128.026131 151.71694 
L 139.803015 145.9109 
L 154.944724 138.194643 
L 212.146734 108.746055 
L 225.60603 102.169567 
L 239.065327 95.844295 
L 250.842211 90.545386 
L 262.619095 85.485671 
L 274.39598 80.676222 
L 286.172864 76.120472 
L 297.949749 71.813681 
L 309.726633 67.742697 
L 323.18593 63.35134 
L 336.645226 59.197595 
L 353.469347 54.263608 
L 373.658291 48.593646 
L 388.8 44.443636 
L 388.8 44.443636 
" style="fill:none;stroke:#3300ff;stroke-linecap:square;stroke-width:0.2;"/>
   </g>
   <g id="line2d_19">
    <path clip-path="url(#p9a515f2b17)" d="M 54 242.116364 
L 75.871357 229.586204 
L 96.060302 218.283584 
L 117.931658 206.316838 
L 143.167839 192.785756 
L 170.086432 178.60032 
L 193.640201 166.428786 
L 212.146734 157.105875 
L 227.288442 149.705714 
L 240.747739 143.353455 
L 252.524623 138.009397 
L 264.301508 132.902557 
L 274.39598 128.743223 
L 284.490452 124.812527 
L 294.584925 121.138296 
L 302.996985 118.293643 
L 311.409045 115.665583 
L 319.821106 113.272678 
L 328.233166 111.133789 
L 336.645226 109.267653 
L 343.374874 107.983306 
L 350.104523 106.893799 
L 356.834171 106.007075 
L 363.563819 105.33013 
L 370.293467 104.86883 
L 377.023116 104.627768 
L 383.752764 104.610169 
L 388.8 104.744767 
L 388.8 104.744767 
" style="fill:none;stroke:#3300ff;stroke-linecap:square;stroke-width:0.2;"/>
   </g>
   <g id="line2d_20">
    <defs>
     <path d="M 0 2.5 
C 0.663008 2.5 1.29895 2.236584 1.767767 1.767767 
C 2.236584 1.29895 2.5 0.663008 2.5 0 
C 2.5 -0.663008 2.236584 -1.29895 1.767767 -1.767767 
C 1.29895 -2.236584 0.663008 -2.5 0 -2.5 
C -0.663008 -2.5 -1.29895 -2.236584 -1.767767 -1.767767 
C -2.236584 -1.29895 -2.5 -0.663008 -2.5 0 
C -2.5 0.663008 -2.236584 1.29895 -1.767767 1.767767 
C -1.29895 2.236584 -0.663008 2.5 0 2.5 
z
" id="mf7b03c5a01" style="stroke:#ff0000;"/>
    </defs>
    <g clip-path="url(#p9a515f2b17)">
     <use style="fill:#ff0000;stroke:#ff0000;" x="99.36" xlink:href="#mf7b03c5a01" y="187.727107"/>
     <use style="fill:#ff0000;stroke:#ff0000;" x="108" xlink:href="#mf7b03c5a01" y="187.357179"/>
     <use style="fill:#ff0000;stroke:#ff0000;" x="116.64" xlink:href="#mf7b03c5a01" y="212.908081"/>
     <use style="fill:#ff0000;stroke:#ff0000;" x="125.28" xlink:href="#mf7b03c5a01" y="175.027477"/>
     <use style="fill:#ff0000;stroke:#ff0000;" x="133.92" xlink:href="#mf7b03c5a01" y="164.03107"/>
     <use style="fill:#ff0000;stroke:#ff0000;" x="151.2" xlink:href="#mf7b03c5a01" y="146.889616"/>
     <use style="fill:#ff0000;stroke:#ff0000;" x="159.84" xlink:href="#mf7b03c5a01" y="159.606579"/>
     <use style="fill:#ff0000;stroke:#ff0000;" x="168.48" xlink:href="#mf7b03c5a01" y="149.173909"/>
     <use style="fill:#ff0000;stroke:#ff0000;" x="177.12" xlink:href="#mf7b03c5a01" y="147.058566"/>
     <use style="fill:#ff0000;stroke:#ff0000;" x="185.76" xlink:href="#mf7b03c5a01" y="143.586699"/>
     <use style="fill:#ff0000;stroke:#ff0000;" x="211.68" xlink:href="#mf7b03c5a01" y="149.901704"/>
     <use style="fill:#ff0000;stroke:#ff0000;" x="220.32" xlink:href="#mf7b03c5a01" y="132.13678"/>
     <use style="fill:#ff0000;stroke:#ff0000;" x="228.96" xlink:href="#mf7b03c5a01" y="134.791783"/>
     <use style="fill:#ff0000;stroke:#ff0000;" x="237.6" xlink:href="#mf7b03c5a01" y="115.879875"/>
     <use style="fill:#ff0000;stroke:#ff0000;" x="246.24" xlink:href="#mf7b03c5a01" y="108.018808"/>
     <use style="fill:#ff0000;stroke:#ff0000;" x="254.88" xlink:href="#mf7b03c5a01" y="124.736763"/>
     <use style="fill:#ff0000;stroke:#ff0000;" x="263.52" xlink:href="#mf7b03c5a01" y="105.222801"/>
     <use style="fill:#ff0000;stroke:#ff0000;" x="272.16" xlink:href="#mf7b03c5a01" y="98.43764"/>
     <use style="fill:#ff0000;stroke:#ff0000;" x="280.8" xlink:href="#mf7b03c5a01" y="98.72715"/>
     <use style="fill:#ff0000;stroke:#ff0000;" x="289.44" xlink:href="#mf7b03c5a01" y="93.783768"/>
     <use style="fill:#ff0000;stroke:#ff0000;" x="298.08" xlink:href="#mf7b03c5a01" y="93.621118"/>
     <use style="fill:#ff0000;stroke:#ff0000;" x="306.72" xlink:href="#mf7b03c5a01" y="97.318762"/>
     <use style="fill:#ff0000;stroke:#ff0000;" x="315.36" xlink:href="#mf7b03c5a01" y="92.535516"/>
     <use style="fill:#ff0000;stroke:#ff0000;" x="324" xlink:href="#mf7b03c5a01" y="87.063833"/>
     <use style="fill:#ff0000;stroke:#ff0000;" x="332.64" xlink:href="#mf7b03c5a01" y="85.701893"/>
     <use style="fill:#ff0000;stroke:#ff0000;" x="341.28" xlink:href="#mf7b03c5a01" y="82.58157"/>
     <use style="fill:#ff0000;stroke:#ff0000;" x="349.92" xlink:href="#mf7b03c5a01" y="81.68108"/>
    </g>
   </g>
   <g id="patch_4">
    <path d="M 54 252 
L 54 34.56 
" style="fill:none;stroke:#000000;stroke-linecap:square;stroke-linejoin:miter;stroke-width:0.8;"/>
   </g>
   <g id="patch_5">
    <path d="M 388.8 252 
L 388.8 34.56 
" style="fill:none;stroke:#000000;stroke-linecap:square;stroke-linejoin:miter;stroke-width:0.8;"/>
   </g>
   <g id="patch_6">
    <path d="M 54 252 
L 388.8 252 
" style="fill:none;stroke:#000000;stroke-linecap:square;stroke-linejoin:miter;stroke-width:0.8;"/>
   </g>
   <g id="patch_7">
    <path d="M 54 34.56 
L 388.8 34.56 
" style="fill:none;stroke:#000000;stroke-linecap:square;stroke-linejoin:miter;stroke-width:0.8;"/>
   </g>
  </g>
 </g>
 <defs>
  <clipPath id="p9a515f2b17">
   <rect height="217.44" width="334.8" x="54" y="34.56"/>
  </clipPath>
 </defs>
</svg>
