<?xml version="1.0" encoding="utf-8" standalone="no"?>
<!DOCTYPE svg PUBLIC "-//W3C//DTD SVG 1.1//EN"
  "http://www.w3.org/Graphics/SVG/1.1/DTD/svg11.dtd">
<!-- Created with matplotlib (http://matplotlib.org/) -->
<svg height="288pt" version="1.1" viewBox="0 0 432 288" width="432pt" xmlns="http://www.w3.org/2000/svg" xmlns:xlink="http://www.w3.org/1999/xlink">
 <defs>
  <style type="text/css">
*{stroke-linecap:butt;stroke-linejoin:round;}
  </style>
 </defs>
 <g id="figure_1">
  <g id="patch_1">
   <path d="M 0 288 
L 432 288 
L 432 0 
L 0 0 
z
" style="fill:none;"/>
  </g>
  <g id="axes_1">
   <g id="patch_2">
    <path d="M 54 252 
L 388.8 252 
L 388.8 34.56 
L 54 34.56 
z
" style="fill:none;"/>
   </g>
   <g id="patch_3">
    <path clip-path="url(#p3742a08dfe)" d="M 54 182.141197 
L 55.682412 181.626113 
L 57.364824 181.101745 
L 59.047236 180.568161 
L 60.729648 180.025432 
L 62.41206 179.473635 
L 64.094472 178.912848 
L 65.776884 178.343154 
L 67.459296 177.764638 
L 69.141709 177.177391 
L 70.824121 176.581507 
L 72.506533 175.977083 
L 74.188945 175.364221 
L 75.871357 174.743025 
L 77.553769 174.113603 
L 79.236181 173.476069 
L 80.918593 172.830537 
L 82.601005 172.177127 
L 84.283417 171.515963 
L 85.965829 170.84717 
L 87.648241 170.170878 
L 89.330653 169.48722 
L 91.013065 168.796331 
L 92.695477 168.098352 
L 94.377889 167.393423 
L 96.060302 166.681691 
L 97.742714 165.963302 
L 99.425126 165.238406 
L 101.107538 164.507157 
L 102.78995 163.769708 
L 104.472362 163.026217 
L 106.154774 162.276843 
L 107.837186 161.521747 
L 109.519598 160.76109 
L 111.20201 159.995037 
L 112.884422 159.223754 
L 114.566834 158.447406 
L 116.249246 157.666162 
L 117.931658 156.880189 
L 119.61407 156.089656 
L 121.296482 155.294734 
L 122.978894 154.495592 
L 124.661307 153.6924 
L 126.343719 152.88533 
L 128.026131 152.07455 
L 129.708543 151.260231 
L 131.390955 150.442542 
L 133.073367 149.621654 
L 134.755779 148.797733 
L 136.438191 147.970949 
L 138.120603 147.141469 
L 139.803015 146.309457 
L 141.485427 145.475079 
L 143.167839 144.638499 
L 144.850251 143.79988 
L 146.532663 142.959381 
L 148.215075 142.117164 
L 149.897487 141.273386 
L 151.579899 140.428203 
L 153.262312 139.58177 
L 154.944724 138.73424 
L 156.627136 137.885765 
L 158.309548 137.036494 
L 159.99196 136.186574 
L 161.674372 135.336151 
L 163.356784 134.485368 
L 165.039196 133.634366 
L 166.721608 132.783285 
L 168.40402 131.932263 
L 170.086432 131.081433 
L 171.768844 130.23093 
L 173.451256 129.380884 
L 175.133668 128.531423 
L 176.81608 127.682674 
L 178.498492 126.834761 
L 180.180905 125.987807 
L 181.863317 125.141929 
L 183.545729 124.297247 
L 185.228141 123.453875 
L 186.910553 122.611926 
L 188.592965 121.77151 
L 190.275377 120.932737 
L 191.957789 120.095712 
L 193.640201 119.260539 
L 195.322613 118.427319 
L 197.005025 117.596152 
L 198.687437 116.767135 
L 200.369849 115.940363 
L 202.052261 115.115927 
L 203.734673 114.293919 
L 205.417085 113.474427 
L 207.099497 112.657535 
L 208.78191 111.843328 
L 210.464322 111.031887 
L 212.146734 110.22329 
L 213.829146 109.417614 
L 215.511558 108.614934 
L 217.19397 107.815322 
L 218.876382 107.018847 
L 220.558794 106.225577 
L 222.241206 105.435578 
L 223.923618 104.648913 
L 225.60603 103.865641 
L 227.288442 103.085823 
L 228.970854 102.309513 
L 230.653266 101.536766 
L 232.335678 100.767633 
L 234.01809 100.002163 
L 235.700503 99.240404 
L 237.382915 98.4824 
L 239.065327 97.728192 
L 240.747739 96.977821 
L 242.430151 96.231324 
L 244.112563 95.488737 
L 245.794975 94.750091 
L 247.477387 94.015417 
L 249.159799 93.284742 
L 250.842211 92.558093 
L 252.524623 91.835492 
L 254.207035 91.116959 
L 255.889447 90.402512 
L 257.571859 89.692166 
L 259.254271 88.985935 
L 260.936683 88.283829 
L 262.619095 87.585856 
L 264.301508 86.89202 
L 265.98392 86.202325 
L 267.666332 85.51677 
L 269.348744 84.835354 
L 271.031156 84.158071 
L 272.713568 83.484914 
L 274.39598 82.815872 
L 276.078392 82.150933 
L 277.760804 81.490081 
L 279.443216 80.833299 
L 281.125628 80.180565 
L 282.80804 79.531857 
L 284.490452 78.887148 
L 286.172864 78.246411 
L 287.855276 77.609615 
L 289.537688 76.976727 
L 291.220101 76.34771 
L 292.902513 75.722527 
L 294.584925 75.101136 
L 296.267337 74.483496 
L 297.949749 73.869559 
L 299.632161 73.25928 
L 301.314573 72.652608 
L 302.996985 72.04949 
L 304.679397 71.449873 
L 306.361809 70.8537 
L 308.044221 70.260913 
L 309.726633 69.671452 
L 311.409045 69.085255 
L 313.091457 68.502258 
L 314.773869 67.922397 
L 316.456281 67.345603 
L 318.138693 66.771809 
L 319.821106 66.200946 
L 321.503518 65.632942 
L 323.18593 65.067726 
L 324.868342 64.505225 
L 326.550754 63.945365 
L 328.233166 63.388072 
L 329.915578 62.833272 
L 331.59799 62.280888 
L 333.280402 61.730846 
L 334.962814 61.18307 
L 336.645226 60.637484 
L 338.327638 60.094013 
L 340.01005 59.552581 
L 341.692462 59.013114 
L 343.374874 58.475539 
L 345.057286 57.939781 
L 346.739698 57.405768 
L 348.422111 56.873429 
L 350.104523 56.342694 
L 351.786935 55.813493 
L 353.469347 55.285761 
L 355.151759 54.759429 
L 356.834171 54.234435 
L 358.516583 53.710717 
L 360.198995 53.188212 
L 361.881407 52.666864 
L 363.563819 52.146615 
L 365.246231 51.627412 
L 366.928643 51.109203 
L 368.611055 50.591937 
L 370.293467 50.075568 
L 371.975879 49.56005 
L 373.658291 49.045342 
L 375.340704 48.531403 
L 377.023116 48.018196 
L 378.705528 47.505686 
L 380.38794 46.993841 
L 382.070352 46.482631 
L 383.752764 45.972029 
L 385.435176 45.462011 
L 387.117588 44.952553 
L 388.8 44.443636 
L 388.8 102.465762 
L 387.117588 102.517925 
L 385.435176 102.582191 
L 383.752764 102.658535 
L 382.070352 102.746929 
L 380.38794 102.847343 
L 378.705528 102.95974 
L 377.023116 103.084081 
L 375.340704 103.220323 
L 373.658291 103.368419 
L 371.975879 103.528317 
L 370.293467 103.699963 
L 368.611055 103.883299 
L 366.928643 104.07826 
L 365.246231 104.284782 
L 363.563819 104.502793 
L 361.881407 104.732219 
L 360.198995 104.972984 
L 358.516583 105.225007 
L 356.834171 105.488201 
L 355.151759 105.762481 
L 353.469347 106.047753 
L 351.786935 106.343925 
L 350.104523 106.650898 
L 348.422111 106.968573 
L 346.739698 107.296845 
L 345.057286 107.63561 
L 343.374874 107.984758 
L 341.692462 108.344178 
L 340.01005 108.713758 
L 338.327638 109.093382 
L 336.645226 109.482933 
L 334.962814 109.882291 
L 333.280402 110.291336 
L 331.59799 110.709946 
L 329.915578 111.137996 
L 328.233166 111.575362 
L 326.550754 112.021917 
L 324.868342 112.477535 
L 323.18593 112.942087 
L 321.503518 113.415446 
L 319.821106 113.897481 
L 318.138693 114.388064 
L 316.456281 114.887065 
L 314.773869 115.394354 
L 313.091457 115.909802 
L 311.409045 116.433278 
L 309.726633 116.964652 
L 308.044221 117.503797 
L 306.361809 118.050582 
L 304.679397 118.60488 
L 302.996985 119.166563 
L 301.314573 119.735503 
L 299.632161 120.311576 
L 297.949749 120.894654 
L 296.267337 121.484615 
L 294.584925 122.081333 
L 292.902513 122.684688 
L 291.220101 123.294557 
L 289.537688 123.910821 
L 287.855276 124.53336 
L 286.172864 125.162056 
L 284.490452 125.796794 
L 282.80804 126.437457 
L 281.125628 127.083933 
L 279.443216 127.736108 
L 277.760804 128.393871 
L 276.078392 129.057114 
L 274.39598 129.725727 
L 272.713568 130.399603 
L 271.031156 131.078638 
L 269.348744 131.762728 
L 267.666332 132.451769 
L 265.98392 133.145662 
L 264.301508 133.844307 
L 262.619095 134.547605 
L 260.936683 135.255461 
L 259.254271 135.96778 
L 257.571859 136.684467 
L 255.889447 137.405432 
L 254.207035 138.130584 
L 252.524623 138.859833 
L 250.842211 139.593093 
L 249.159799 140.330278 
L 247.477387 141.071303 
L 245.794975 141.816085 
L 244.112563 142.564543 
L 242.430151 143.316598 
L 240.747739 144.07217 
L 239.065327 144.831183 
L 237.382915 145.593561 
L 235.700503 146.359231 
L 234.01809 147.128121 
L 232.335678 147.900158 
L 230.653266 148.675275 
L 228.970854 149.453403 
L 227.288442 150.234475 
L 225.60603 151.018428 
L 223.923618 151.805197 
L 222.241206 152.594722 
L 220.558794 153.386942 
L 218.876382 154.181798 
L 217.19397 154.979233 
L 215.511558 155.779192 
L 213.829146 156.581621 
L 212.146734 157.386468 
L 210.464322 158.193682 
L 208.78191 159.003214 
L 207.099497 159.815017 
L 205.417085 160.629044 
L 203.734673 161.445253 
L 202.052261 162.2636 
L 200.369849 163.084046 
L 198.687437 163.906551 
L 197.005025 164.731077 
L 195.322613 165.55759 
L 193.640201 166.386057 
L 191.957789 167.216444 
L 190.275377 168.048723 
L 188.592965 168.882865 
L 186.910553 169.718844 
L 185.228141 170.556635 
L 183.545729 171.396216 
L 181.863317 172.237566 
L 180.180905 173.080667 
L 178.498492 173.925502 
L 176.81608 174.772056 
L 175.133668 175.620315 
L 173.451256 176.47027 
L 171.768844 177.321911 
L 170.086432 178.175231 
L 168.40402 179.030225 
L 166.721608 179.88689 
L 165.039196 180.745226 
L 163.356784 181.605232 
L 161.674372 182.466912 
L 159.99196 183.330271 
L 158.309548 184.195315 
L 156.627136 185.062053 
L 154.944724 185.930496 
L 153.262312 186.800656 
L 151.579899 187.672547 
L 149.897487 188.546185 
L 148.215075 189.421588 
L 146.532663 190.298776 
L 144.850251 191.177769 
L 143.167839 192.058591 
L 141.485427 192.941265 
L 139.803015 193.825817 
L 138.120603 194.712275 
L 136.438191 195.600666 
L 134.755779 196.491021 
L 133.073367 197.38337 
L 131.390955 198.277745 
L 129.708543 199.174178 
L 128.026131 200.072704 
L 126.343719 200.973357 
L 124.661307 201.876171 
L 122.978894 202.781181 
L 121.296482 203.688425 
L 119.61407 204.597936 
L 117.931658 205.509752 
L 116.249246 206.423909 
L 114.566834 207.340442 
L 112.884422 208.259387 
L 111.20201 209.180778 
L 109.519598 210.104651 
L 107.837186 211.031039 
L 106.154774 211.959974 
L 104.472362 212.891488 
L 102.78995 213.825612 
L 101.107538 214.762375 
L 99.425126 215.701805 
L 97.742714 216.643927 
L 96.060302 217.588766 
L 94.377889 218.536345 
L 92.695477 219.486683 
L 91.013065 220.4398 
L 89.330653 221.395711 
L 87.648241 222.35443 
L 85.965829 223.315969 
L 84.283417 224.280337 
L 82.601005 225.247539 
L 80.918593 226.21758 
L 79.236181 227.190461 
L 77.553769 228.16618 
L 75.871357 229.144731 
L 74.188945 230.126109 
L 72.506533 231.110301 
L 70.824121 232.097296 
L 69.141709 233.087077 
L 67.459296 234.079624 
L 65.776884 235.074916 
L 64.094472 236.072928 
L 62.41206 237.073631 
L 60.729648 238.076997 
L 59.047236 239.08299 
L 57.364824 240.091576 
L 55.682412 241.102714 
L 54 242.116364 
z
" style="fill:#cc3300;opacity:0.3;stroke:#cc3300;stroke-linejoin:miter;stroke-width:0.5;"/>
   </g>
   <g id="matplotlib.axis_1">
    <g id="xtick_1">
     <g id="line2d_1">
      <defs>
       <path d="M 0 0 
L 0 3.5 
" id="m73713ff3e7" style="stroke:#000000;stroke-width:0.8;"/>
      </defs>
      <g>
       <use style="stroke:#000000;stroke-width:0.8;" x="64.8" xlink:href="#m73713ff3e7" y="252"/>
      </g>
     </g>
     <g id="text_1">
      <!-- 1880 -->
      <defs>
       <path d="M 12.40625 8.296875 
L 28.515625 8.296875 
L 28.515625 63.921875 
L 10.984375 60.40625 
L 10.984375 69.390625 
L 28.421875 72.90625 
L 38.28125 72.90625 
L 38.28125 8.296875 
L 54.390625 8.296875 
L 54.390625 0 
L 12.40625 0 
z
" id="DejaVuSans-31"/>
       <path d="M 31.78125 34.625 
Q 24.75 34.625 20.71875 30.859375 
Q 16.703125 27.09375 16.703125 20.515625 
Q 16.703125 13.921875 20.71875 10.15625 
Q 24.75 6.390625 31.78125 6.390625 
Q 38.8125 6.390625 42.859375 10.171875 
Q 46.921875 13.96875 46.921875 20.515625 
Q 46.921875 27.09375 42.890625 30.859375 
Q 38.875 34.625 31.78125 34.625 
z
M 21.921875 38.8125 
Q 15.578125 40.375 12.03125 44.71875 
Q 8.5 49.078125 8.5 55.328125 
Q 8.5 64.0625 14.71875 69.140625 
Q 20.953125 74.21875 31.78125 74.21875 
Q 42.671875 74.21875 48.875 69.140625 
Q 55.078125 64.0625 55.078125 55.328125 
Q 55.078125 49.078125 51.53125 44.71875 
Q 48 40.375 41.703125 38.8125 
Q 48.828125 37.15625 52.796875 32.3125 
Q 56.78125 27.484375 56.78125 20.515625 
Q 56.78125 9.90625 50.3125 4.234375 
Q 43.84375 -1.421875 31.78125 -1.421875 
Q 19.734375 -1.421875 13.25 4.234375 
Q 6.78125 9.90625 6.78125 20.515625 
Q 6.78125 27.484375 10.78125 32.3125 
Q 14.796875 37.15625 21.921875 38.8125 
z
M 18.3125 54.390625 
Q 18.3125 48.734375 21.84375 45.5625 
Q 25.390625 42.390625 31.78125 42.390625 
Q 38.140625 42.390625 41.71875 45.5625 
Q 45.3125 48.734375 45.3125 54.390625 
Q 45.3125 60.0625 41.71875 63.234375 
Q 38.140625 66.40625 31.78125 66.40625 
Q 25.390625 66.40625 21.84375 63.234375 
Q 18.3125 60.0625 18.3125 54.390625 
z
" id="DejaVuSans-38"/>
       <path d="M 31.78125 66.40625 
Q 24.171875 66.40625 20.328125 58.90625 
Q 16.5 51.421875 16.5 36.375 
Q 16.5 21.390625 20.328125 13.890625 
Q 24.171875 6.390625 31.78125 6.390625 
Q 39.453125 6.390625 43.28125 13.890625 
Q 47.125 21.390625 47.125 36.375 
Q 47.125 51.421875 43.28125 58.90625 
Q 39.453125 66.40625 31.78125 66.40625 
z
M 31.78125 74.21875 
Q 44.046875 74.21875 50.515625 64.515625 
Q 56.984375 54.828125 56.984375 36.375 
Q 56.984375 17.96875 50.515625 8.265625 
Q 44.046875 -1.421875 31.78125 -1.421875 
Q 19.53125 -1.421875 13.0625 8.265625 
Q 6.59375 17.96875 6.59375 36.375 
Q 6.59375 54.828125 13.0625 64.515625 
Q 19.53125 74.21875 31.78125 74.21875 
z
" id="DejaVuSans-30"/>
      </defs>
      <g transform="translate(52.075 266.598437)scale(0.1 -0.1)">
       <use xlink:href="#DejaVuSans-31"/>
       <use x="63.623047" xlink:href="#DejaVuSans-38"/>
       <use x="127.246094" xlink:href="#DejaVuSans-38"/>
       <use x="190.869141" xlink:href="#DejaVuSans-30"/>
      </g>
     </g>
    </g>
    <g id="xtick_2">
     <g id="line2d_2">
      <g>
       <use style="stroke:#000000;stroke-width:0.8;" x="108" xlink:href="#m73713ff3e7" y="252"/>
      </g>
     </g>
     <g id="text_2">
      <!-- 1900 -->
      <defs>
       <path d="M 10.984375 1.515625 
L 10.984375 10.5 
Q 14.703125 8.734375 18.5 7.8125 
Q 22.3125 6.890625 25.984375 6.890625 
Q 35.75 6.890625 40.890625 13.453125 
Q 46.046875 20.015625 46.78125 33.40625 
Q 43.953125 29.203125 39.59375 26.953125 
Q 35.25 24.703125 29.984375 24.703125 
Q 19.046875 24.703125 12.671875 31.3125 
Q 6.296875 37.9375 6.296875 49.421875 
Q 6.296875 60.640625 12.9375 67.421875 
Q 19.578125 74.21875 30.609375 74.21875 
Q 43.265625 74.21875 49.921875 64.515625 
Q 56.59375 54.828125 56.59375 36.375 
Q 56.59375 19.140625 48.40625 8.859375 
Q 40.234375 -1.421875 26.421875 -1.421875 
Q 22.703125 -1.421875 18.890625 -0.6875 
Q 15.09375 0.046875 10.984375 1.515625 
z
M 30.609375 32.421875 
Q 37.25 32.421875 41.125 36.953125 
Q 45.015625 41.5 45.015625 49.421875 
Q 45.015625 57.28125 41.125 61.84375 
Q 37.25 66.40625 30.609375 66.40625 
Q 23.96875 66.40625 20.09375 61.84375 
Q 16.21875 57.28125 16.21875 49.421875 
Q 16.21875 41.5 20.09375 36.953125 
Q 23.96875 32.421875 30.609375 32.421875 
z
" id="DejaVuSans-39"/>
      </defs>
      <g transform="translate(95.275 266.598437)scale(0.1 -0.1)">
       <use xlink:href="#DejaVuSans-31"/>
       <use x="63.623047" xlink:href="#DejaVuSans-39"/>
       <use x="127.246094" xlink:href="#DejaVuSans-30"/>
       <use x="190.869141" xlink:href="#DejaVuSans-30"/>
      </g>
     </g>
    </g>
    <g id="xtick_3">
     <g id="line2d_3">
      <g>
       <use style="stroke:#000000;stroke-width:0.8;" x="151.2" xlink:href="#m73713ff3e7" y="252"/>
      </g>
     </g>
     <g id="text_3">
      <!-- 1920 -->
      <defs>
       <path d="M 19.1875 8.296875 
L 53.609375 8.296875 
L 53.609375 0 
L 7.328125 0 
L 7.328125 8.296875 
Q 12.9375 14.109375 22.625 23.890625 
Q 32.328125 33.6875 34.8125 36.53125 
Q 39.546875 41.84375 41.421875 45.53125 
Q 43.3125 49.21875 43.3125 52.78125 
Q 43.3125 58.59375 39.234375 62.25 
Q 35.15625 65.921875 28.609375 65.921875 
Q 23.96875 65.921875 18.8125 64.3125 
Q 13.671875 62.703125 7.8125 59.421875 
L 7.8125 69.390625 
Q 13.765625 71.78125 18.9375 73 
Q 24.125 74.21875 28.421875 74.21875 
Q 39.75 74.21875 46.484375 68.546875 
Q 53.21875 62.890625 53.21875 53.421875 
Q 53.21875 48.921875 51.53125 44.890625 
Q 49.859375 40.875 45.40625 35.40625 
Q 44.1875 33.984375 37.640625 27.21875 
Q 31.109375 20.453125 19.1875 8.296875 
z
" id="DejaVuSans-32"/>
      </defs>
      <g transform="translate(138.475 266.598437)scale(0.1 -0.1)">
       <use xlink:href="#DejaVuSans-31"/>
       <use x="63.623047" xlink:href="#DejaVuSans-39"/>
       <use x="127.246094" xlink:href="#DejaVuSans-32"/>
       <use x="190.869141" xlink:href="#DejaVuSans-30"/>
      </g>
     </g>
    </g>
    <g id="xtick_4">
     <g id="line2d_4">
      <g>
       <use style="stroke:#000000;stroke-width:0.8;" x="194.4" xlink:href="#m73713ff3e7" y="252"/>
      </g>
     </g>
     <g id="text_4">
      <!-- 1940 -->
      <defs>
       <path d="M 37.796875 64.3125 
L 12.890625 25.390625 
L 37.796875 25.390625 
z
M 35.203125 72.90625 
L 47.609375 72.90625 
L 47.609375 25.390625 
L 58.015625 25.390625 
L 58.015625 17.1875 
L 47.609375 17.1875 
L 47.609375 0 
L 37.796875 0 
L 37.796875 17.1875 
L 4.890625 17.1875 
L 4.890625 26.703125 
z
" id="DejaVuSans-34"/>
      </defs>
      <g transform="translate(181.675 266.598437)scale(0.1 -0.1)">
       <use xlink:href="#DejaVuSans-31"/>
       <use x="63.623047" xlink:href="#DejaVuSans-39"/>
       <use x="127.246094" xlink:href="#DejaVuSans-34"/>
       <use x="190.869141" xlink:href="#DejaVuSans-30"/>
      </g>
     </g>
    </g>
    <g id="xtick_5">
     <g id="line2d_5">
      <g>
       <use style="stroke:#000000;stroke-width:0.8;" x="237.6" xlink:href="#m73713ff3e7" y="252"/>
      </g>
     </g>
     <g id="text_5">
      <!-- 1960 -->
      <defs>
       <path d="M 33.015625 40.375 
Q 26.375 40.375 22.484375 35.828125 
Q 18.609375 31.296875 18.609375 23.390625 
Q 18.609375 15.53125 22.484375 10.953125 
Q 26.375 6.390625 33.015625 6.390625 
Q 39.65625 6.390625 43.53125 10.953125 
Q 47.40625 15.53125 47.40625 23.390625 
Q 47.40625 31.296875 43.53125 35.828125 
Q 39.65625 40.375 33.015625 40.375 
z
M 52.59375 71.296875 
L 52.59375 62.3125 
Q 48.875 64.0625 45.09375 64.984375 
Q 41.3125 65.921875 37.59375 65.921875 
Q 27.828125 65.921875 22.671875 59.328125 
Q 17.53125 52.734375 16.796875 39.40625 
Q 19.671875 43.65625 24.015625 45.921875 
Q 28.375 48.1875 33.59375 48.1875 
Q 44.578125 48.1875 50.953125 41.515625 
Q 57.328125 34.859375 57.328125 23.390625 
Q 57.328125 12.15625 50.6875 5.359375 
Q 44.046875 -1.421875 33.015625 -1.421875 
Q 20.359375 -1.421875 13.671875 8.265625 
Q 6.984375 17.96875 6.984375 36.375 
Q 6.984375 53.65625 15.1875 63.9375 
Q 23.390625 74.21875 37.203125 74.21875 
Q 40.921875 74.21875 44.703125 73.484375 
Q 48.484375 72.75 52.59375 71.296875 
z
" id="DejaVuSans-36"/>
      </defs>
      <g transform="translate(224.875 266.598437)scale(0.1 -0.1)">
       <use xlink:href="#DejaVuSans-31"/>
       <use x="63.623047" xlink:href="#DejaVuSans-39"/>
       <use x="127.246094" xlink:href="#DejaVuSans-36"/>
       <use x="190.869141" xlink:href="#DejaVuSans-30"/>
      </g>
     </g>
    </g>
    <g id="xtick_6">
     <g id="line2d_6">
      <g>
       <use style="stroke:#000000;stroke-width:0.8;" x="280.8" xlink:href="#m73713ff3e7" y="252"/>
      </g>
     </g>
     <g id="text_6">
      <!-- 1980 -->
      <g transform="translate(268.075 266.598437)scale(0.1 -0.1)">
       <use xlink:href="#DejaVuSans-31"/>
       <use x="63.623047" xlink:href="#DejaVuSans-39"/>
       <use x="127.246094" xlink:href="#DejaVuSans-38"/>
       <use x="190.869141" xlink:href="#DejaVuSans-30"/>
      </g>
     </g>
    </g>
    <g id="xtick_7">
     <g id="line2d_7">
      <g>
       <use style="stroke:#000000;stroke-width:0.8;" x="324" xlink:href="#m73713ff3e7" y="252"/>
      </g>
     </g>
     <g id="text_7">
      <!-- 2000 -->
      <g transform="translate(311.275 266.598437)scale(0.1 -0.1)">
       <use xlink:href="#DejaVuSans-32"/>
       <use x="63.623047" xlink:href="#DejaVuSans-30"/>
       <use x="127.246094" xlink:href="#DejaVuSans-30"/>
       <use x="190.869141" xlink:href="#DejaVuSans-30"/>
      </g>
     </g>
    </g>
    <g id="xtick_8">
     <g id="line2d_8">
      <g>
       <use style="stroke:#000000;stroke-width:0.8;" x="367.2" xlink:href="#m73713ff3e7" y="252"/>
      </g>
     </g>
     <g id="text_8">
      <!-- 2020 -->
      <g transform="translate(354.475 266.598437)scale(0.1 -0.1)">
       <use xlink:href="#DejaVuSans-32"/>
       <use x="63.623047" xlink:href="#DejaVuSans-30"/>
       <use x="127.246094" xlink:href="#DejaVuSans-32"/>
       <use x="190.869141" xlink:href="#DejaVuSans-30"/>
      </g>
     </g>
    </g>
    <g id="text_9">
     <!-- year -->
     <defs>
      <path d="M 32.171875 -5.078125 
Q 28.375 -14.84375 24.75 -17.8125 
Q 21.140625 -20.796875 15.09375 -20.796875 
L 7.90625 -20.796875 
L 7.90625 -13.28125 
L 13.1875 -13.28125 
Q 16.890625 -13.28125 18.9375 -11.515625 
Q 21 -9.765625 23.484375 -3.21875 
L 25.09375 0.875 
L 2.984375 54.6875 
L 12.5 54.6875 
L 29.59375 11.921875 
L 46.6875 54.6875 
L 56.203125 54.6875 
z
" id="DejaVuSans-79"/>
      <path d="M 56.203125 29.59375 
L 56.203125 25.203125 
L 14.890625 25.203125 
Q 15.484375 15.921875 20.484375 11.0625 
Q 25.484375 6.203125 34.421875 6.203125 
Q 39.59375 6.203125 44.453125 7.46875 
Q 49.3125 8.734375 54.109375 11.28125 
L 54.109375 2.78125 
Q 49.265625 0.734375 44.1875 -0.34375 
Q 39.109375 -1.421875 33.890625 -1.421875 
Q 20.796875 -1.421875 13.15625 6.1875 
Q 5.515625 13.8125 5.515625 26.8125 
Q 5.515625 40.234375 12.765625 48.109375 
Q 20.015625 56 32.328125 56 
Q 43.359375 56 49.78125 48.890625 
Q 56.203125 41.796875 56.203125 29.59375 
z
M 47.21875 32.234375 
Q 47.125 39.59375 43.09375 43.984375 
Q 39.0625 48.390625 32.421875 48.390625 
Q 24.90625 48.390625 20.390625 44.140625 
Q 15.875 39.890625 15.1875 32.171875 
z
" id="DejaVuSans-65"/>
      <path d="M 34.28125 27.484375 
Q 23.390625 27.484375 19.1875 25 
Q 14.984375 22.515625 14.984375 16.5 
Q 14.984375 11.71875 18.140625 8.90625 
Q 21.296875 6.109375 26.703125 6.109375 
Q 34.1875 6.109375 38.703125 11.40625 
Q 43.21875 16.703125 43.21875 25.484375 
L 43.21875 27.484375 
z
M 52.203125 31.203125 
L 52.203125 0 
L 43.21875 0 
L 43.21875 8.296875 
Q 40.140625 3.328125 35.546875 0.953125 
Q 30.953125 -1.421875 24.3125 -1.421875 
Q 15.921875 -1.421875 10.953125 3.296875 
Q 6 8.015625 6 15.921875 
Q 6 25.140625 12.171875 29.828125 
Q 18.359375 34.515625 30.609375 34.515625 
L 43.21875 34.515625 
L 43.21875 35.40625 
Q 43.21875 41.609375 39.140625 45 
Q 35.0625 48.390625 27.6875 48.390625 
Q 23 48.390625 18.546875 47.265625 
Q 14.109375 46.140625 10.015625 43.890625 
L 10.015625 52.203125 
Q 14.9375 54.109375 19.578125 55.046875 
Q 24.21875 56 28.609375 56 
Q 40.484375 56 46.34375 49.84375 
Q 52.203125 43.703125 52.203125 31.203125 
z
" id="DejaVuSans-61"/>
      <path d="M 41.109375 46.296875 
Q 39.59375 47.171875 37.8125 47.578125 
Q 36.03125 48 33.890625 48 
Q 26.265625 48 22.1875 43.046875 
Q 18.109375 38.09375 18.109375 28.8125 
L 18.109375 0 
L 9.078125 0 
L 9.078125 54.6875 
L 18.109375 54.6875 
L 18.109375 46.1875 
Q 20.953125 51.171875 25.484375 53.578125 
Q 30.03125 56 36.53125 56 
Q 37.453125 56 38.578125 55.875 
Q 39.703125 55.765625 41.0625 55.515625 
z
" id="DejaVuSans-72"/>
     </defs>
     <g transform="translate(199.089063 287.875)scale(0.2 -0.2)">
      <use xlink:href="#DejaVuSans-79"/>
      <use x="59.179688" xlink:href="#DejaVuSans-65"/>
      <use x="120.703125" xlink:href="#DejaVuSans-61"/>
      <use x="181.982422" xlink:href="#DejaVuSans-72"/>
     </g>
    </g>
   </g>
   <g id="matplotlib.axis_2">
    <g id="ytick_1">
     <g id="line2d_9">
      <defs>
       <path d="M 0 0 
L -3.5 0 
" id="me47027b4d2" style="stroke:#000000;stroke-width:0.8;"/>
      </defs>
      <g>
       <use style="stroke:#000000;stroke-width:0.8;" x="54" xlink:href="#me47027b4d2" y="239.724988"/>
      </g>
     </g>
     <g id="text_10">
      <!-- −0.50 -->
      <defs>
       <path d="M 10.59375 35.5 
L 73.1875 35.5 
L 73.1875 27.203125 
L 10.59375 27.203125 
z
" id="DejaVuSans-2212"/>
       <path d="M 10.6875 12.40625 
L 21 12.40625 
L 21 0 
L 10.6875 0 
z
" id="DejaVuSans-2e"/>
       <path d="M 10.796875 72.90625 
L 49.515625 72.90625 
L 49.515625 64.59375 
L 19.828125 64.59375 
L 19.828125 46.734375 
Q 21.96875 47.46875 24.109375 47.828125 
Q 26.265625 48.1875 28.421875 48.1875 
Q 40.625 48.1875 47.75 41.5 
Q 54.890625 34.8125 54.890625 23.390625 
Q 54.890625 11.625 47.5625 5.09375 
Q 40.234375 -1.421875 26.90625 -1.421875 
Q 22.3125 -1.421875 17.546875 -0.640625 
Q 12.796875 0.140625 7.71875 1.703125 
L 7.71875 11.625 
Q 12.109375 9.234375 16.796875 8.0625 
Q 21.484375 6.890625 26.703125 6.890625 
Q 35.15625 6.890625 40.078125 11.328125 
Q 45.015625 15.765625 45.015625 23.390625 
Q 45.015625 31 40.078125 35.4375 
Q 35.15625 39.890625 26.703125 39.890625 
Q 22.75 39.890625 18.8125 39.015625 
Q 14.890625 38.140625 10.796875 36.28125 
z
" id="DejaVuSans-35"/>
      </defs>
      <g transform="translate(16.354687 243.524206)scale(0.1 -0.1)">
       <use xlink:href="#DejaVuSans-2212"/>
       <use x="83.789062" xlink:href="#DejaVuSans-30"/>
       <use x="147.412109" xlink:href="#DejaVuSans-2e"/>
       <use x="179.199219" xlink:href="#DejaVuSans-35"/>
       <use x="242.822266" xlink:href="#DejaVuSans-30"/>
      </g>
     </g>
    </g>
    <g id="ytick_2">
     <g id="line2d_10">
      <g>
       <use style="stroke:#000000;stroke-width:0.8;" x="54" xlink:href="#me47027b4d2" y="210.997732"/>
      </g>
     </g>
     <g id="text_11">
      <!-- −0.25 -->
      <g transform="translate(16.354687 214.79695)scale(0.1 -0.1)">
       <use xlink:href="#DejaVuSans-2212"/>
       <use x="83.789062" xlink:href="#DejaVuSans-30"/>
       <use x="147.412109" xlink:href="#DejaVuSans-2e"/>
       <use x="179.199219" xlink:href="#DejaVuSans-32"/>
       <use x="242.822266" xlink:href="#DejaVuSans-35"/>
      </g>
     </g>
    </g>
    <g id="ytick_3">
     <g id="line2d_11">
      <g>
       <use style="stroke:#000000;stroke-width:0.8;" x="54" xlink:href="#me47027b4d2" y="182.270476"/>
      </g>
     </g>
     <g id="text_12">
      <!-- 0.00 -->
      <g transform="translate(24.734375 186.069694)scale(0.1 -0.1)">
       <use xlink:href="#DejaVuSans-30"/>
       <use x="63.623047" xlink:href="#DejaVuSans-2e"/>
       <use x="95.410156" xlink:href="#DejaVuSans-30"/>
       <use x="159.033203" xlink:href="#DejaVuSans-30"/>
      </g>
     </g>
    </g>
    <g id="ytick_4">
     <g id="line2d_12">
      <g>
       <use style="stroke:#000000;stroke-width:0.8;" x="54" xlink:href="#me47027b4d2" y="153.54322"/>
      </g>
     </g>
     <g id="text_13">
      <!-- 0.25 -->
      <g transform="translate(24.734375 157.342438)scale(0.1 -0.1)">
       <use xlink:href="#DejaVuSans-30"/>
       <use x="63.623047" xlink:href="#DejaVuSans-2e"/>
       <use x="95.410156" xlink:href="#DejaVuSans-32"/>
       <use x="159.033203" xlink:href="#DejaVuSans-35"/>
      </g>
     </g>
    </g>
    <g id="ytick_5">
     <g id="line2d_13">
      <g>
       <use style="stroke:#000000;stroke-width:0.8;" x="54" xlink:href="#me47027b4d2" y="124.815964"/>
      </g>
     </g>
     <g id="text_14">
      <!-- 0.50 -->
      <g transform="translate(24.734375 128.615182)scale(0.1 -0.1)">
       <use xlink:href="#DejaVuSans-30"/>
       <use x="63.623047" xlink:href="#DejaVuSans-2e"/>
       <use x="95.410156" xlink:href="#DejaVuSans-35"/>
       <use x="159.033203" xlink:href="#DejaVuSans-30"/>
      </g>
     </g>
    </g>
    <g id="ytick_6">
     <g id="line2d_14">
      <g>
       <use style="stroke:#000000;stroke-width:0.8;" x="54" xlink:href="#me47027b4d2" y="96.088708"/>
      </g>
     </g>
     <g id="text_15">
      <!-- 0.75 -->
      <defs>
       <path d="M 8.203125 72.90625 
L 55.078125 72.90625 
L 55.078125 68.703125 
L 28.609375 0 
L 18.3125 0 
L 43.21875 64.59375 
L 8.203125 64.59375 
z
" id="DejaVuSans-37"/>
      </defs>
      <g transform="translate(24.734375 99.887926)scale(0.1 -0.1)">
       <use xlink:href="#DejaVuSans-30"/>
       <use x="63.623047" xlink:href="#DejaVuSans-2e"/>
       <use x="95.410156" xlink:href="#DejaVuSans-37"/>
       <use x="159.033203" xlink:href="#DejaVuSans-35"/>
      </g>
     </g>
    </g>
    <g id="ytick_7">
     <g id="line2d_15">
      <g>
       <use style="stroke:#000000;stroke-width:0.8;" x="54" xlink:href="#me47027b4d2" y="67.361452"/>
      </g>
     </g>
     <g id="text_16">
      <!-- 1.00 -->
      <g transform="translate(24.734375 71.16067)scale(0.1 -0.1)">
       <use xlink:href="#DejaVuSans-31"/>
       <use x="63.623047" xlink:href="#DejaVuSans-2e"/>
       <use x="95.410156" xlink:href="#DejaVuSans-30"/>
       <use x="159.033203" xlink:href="#DejaVuSans-30"/>
      </g>
     </g>
    </g>
    <g id="ytick_8">
     <g id="line2d_16">
      <g>
       <use style="stroke:#000000;stroke-width:0.8;" x="54" xlink:href="#me47027b4d2" y="38.634196"/>
      </g>
     </g>
     <g id="text_17">
      <!-- 1.25 -->
      <g transform="translate(24.734375 42.433414)scale(0.1 -0.1)">
       <use xlink:href="#DejaVuSans-31"/>
       <use x="63.623047" xlink:href="#DejaVuSans-2e"/>
       <use x="95.410156" xlink:href="#DejaVuSans-32"/>
       <use x="159.033203" xlink:href="#DejaVuSans-35"/>
      </g>
     </g>
    </g>
    <g id="text_18">
     <!-- layer 1 -->
     <defs>
      <path d="M 9.421875 75.984375 
L 18.40625 75.984375 
L 18.40625 0 
L 9.421875 0 
z
" id="DejaVuSans-6c"/>
      <path id="DejaVuSans-20"/>
     </defs>
     <g transform="translate(8.195312 177.909688)rotate(-90)scale(0.2 -0.2)">
      <use xlink:href="#DejaVuSans-6c"/>
      <use x="27.783203" xlink:href="#DejaVuSans-61"/>
      <use x="89.0625" xlink:href="#DejaVuSans-79"/>
      <use x="148.242188" xlink:href="#DejaVuSans-65"/>
      <use x="209.765625" xlink:href="#DejaVuSans-72"/>
      <use x="250.878906" xlink:href="#DejaVuSans-20"/>
      <use x="282.666016" xlink:href="#DejaVuSans-31"/>
     </g>
    </g>
   </g>
   <g id="line2d_17">
    <path clip-path="url(#p3742a08dfe)" d="M 54 212.12878 
L 69.141709 205.132234 
L 85.965829 197.08157 
L 104.472362 187.958853 
L 128.026131 176.073627 
L 190.275377 144.49073 
L 208.78191 135.423271 
L 223.923618 128.227055 
L 239.065327 121.279687 
L 252.524623 115.347662 
L 265.98392 109.673993 
L 277.760804 104.941976 
L 289.537688 100.443774 
L 301.314573 96.194055 
L 313.091457 92.20603 
L 323.18593 89.004907 
L 333.280402 86.011091 
L 343.374874 83.230148 
L 353.469347 80.666757 
L 363.563819 78.324704 
L 373.658291 76.20688 
L 383.752764 74.315282 
L 388.8 73.454699 
L 388.8 73.454699 
" style="fill:none;stroke:#3300ff;stroke-linecap:square;stroke-width:2;"/>
   </g>
   <g id="line2d_18">
    <path clip-path="url(#p3742a08dfe)" d="M 54 182.141197 
L 62.41206 179.473635 
L 70.824121 176.581507 
L 79.236181 173.476069 
L 89.330653 169.48722 
L 99.425126 165.238406 
L 109.519598 160.76109 
L 121.296482 155.294734 
L 134.755779 148.797733 
L 153.262312 139.58177 
L 202.052261 115.115927 
L 218.876382 107.018847 
L 234.01809 100.002163 
L 247.477387 94.015417 
L 260.936683 88.283829 
L 274.39598 82.815872 
L 287.855276 77.609615 
L 301.314573 72.652608 
L 314.773869 67.922397 
L 329.915578 62.833272 
L 348.422111 56.873429 
L 370.293467 50.075568 
L 388.8 44.443636 
L 388.8 44.443636 
" style="fill:none;stroke:#3300ff;stroke-linecap:square;stroke-width:0.2;"/>
   </g>
   <g id="line2d_19">
    <path clip-path="url(#p3742a08dfe)" d="M 54 242.116364 
L 70.824121 232.097296 
L 87.648241 222.35443 
L 104.472362 212.891488 
L 121.296482 203.688425 
L 139.803015 193.825817 
L 159.99196 183.330271 
L 180.180905 173.080667 
L 200.369849 163.084046 
L 218.876382 154.181798 
L 234.01809 147.128121 
L 249.159799 140.330278 
L 262.619095 134.547605 
L 274.39598 129.725727 
L 286.172864 125.162056 
L 296.267337 121.484615 
L 306.361809 118.050582 
L 314.773869 115.394354 
L 323.18593 112.942087 
L 331.59799 110.709946 
L 340.01005 108.713758 
L 348.422111 106.968573 
L 356.834171 105.488201 
L 363.563819 104.502793 
L 370.293467 103.699963 
L 377.023116 103.084081 
L 383.752764 102.658535 
L 388.8 102.465762 
L 388.8 102.465762 
" style="fill:none;stroke:#3300ff;stroke-linecap:square;stroke-width:0.2;"/>
   </g>
   <g id="line2d_20">
    <defs>
     <path d="M 0 2.5 
C 0.663008 2.5 1.29895 2.236584 1.767767 1.767767 
C 2.236584 1.29895 2.5 0.663008 2.5 0 
C 2.5 -0.663008 2.236584 -1.29895 1.767767 -1.767767 
C 1.29895 -2.236584 0.663008 -2.5 0 -2.5 
C -0.663008 -2.5 -1.29895 -2.236584 -1.767767 -1.767767 
C -2.236584 -1.29895 -2.5 -0.663008 -2.5 0 
C -2.5 0.663008 -2.236584 1.29895 -1.767767 1.767767 
C -1.29895 2.236584 -0.663008 2.5 0 2.5 
z
" id="m59084b3226" style="stroke:#ff0000;"/>
    </defs>
    <g clip-path="url(#p3742a08dfe)">
     <use style="fill:#ff0000;stroke:#ff0000;" x="99.36" xlink:href="#m59084b3226" y="187.250955"/>
     <use style="fill:#ff0000;stroke:#ff0000;" x="108" xlink:href="#m59084b3226" y="186.874641"/>
     <use style="fill:#ff0000;stroke:#ff0000;" x="116.64" xlink:href="#m59084b3226" y="212.058863"/>
     <use style="fill:#ff0000;stroke:#ff0000;" x="125.28" xlink:href="#m59084b3226" y="174.824219"/>
     <use style="fill:#ff0000;stroke:#ff0000;" x="133.92" xlink:href="#m59084b3226" y="164.104396"/>
     <use style="fill:#ff0000;stroke:#ff0000;" x="151.2" xlink:href="#m59084b3226" y="147.382486"/>
     <use style="fill:#ff0000;stroke:#ff0000;" x="159.84" xlink:href="#m59084b3226" y="159.804986"/>
     <use style="fill:#ff0000;stroke:#ff0000;" x="168.48" xlink:href="#m59084b3226" y="149.635077"/>
     <use style="fill:#ff0000;stroke:#ff0000;" x="177.12" xlink:href="#m59084b3226" y="147.581107"/>
     <use style="fill:#ff0000;stroke:#ff0000;" x="185.76" xlink:href="#m59084b3226" y="144.202303"/>
     <use style="fill:#ff0000;stroke:#ff0000;" x="211.68" xlink:href="#m59084b3226" y="150.410257"/>
     <use style="fill:#ff0000;stroke:#ff0000;" x="220.32" xlink:href="#m59084b3226" y="133.068606"/>
     <use style="fill:#ff0000;stroke:#ff0000;" x="228.96" xlink:href="#m59084b3226" y="135.690725"/>
     <use style="fill:#ff0000;stroke:#ff0000;" x="237.6" xlink:href="#m59084b3226" y="117.116833"/>
     <use style="fill:#ff0000;stroke:#ff0000;" x="246.24" xlink:href="#m59084b3226" y="109.391888"/>
     <use style="fill:#ff0000;stroke:#ff0000;" x="254.88" xlink:href="#m59084b3226" y="125.901251"/>
     <use style="fill:#ff0000;stroke:#ff0000;" x="263.52" xlink:href="#m59084b3226" y="106.711936"/>
     <use style="fill:#ff0000;stroke:#ff0000;" x="272.16" xlink:href="#m59084b3226" y="99.931518"/>
     <use style="fill:#ff0000;stroke:#ff0000;" x="280.8" xlink:href="#m59084b3226" y="100.198609"/>
     <use style="fill:#ff0000;stroke:#ff0000;" x="289.44" xlink:href="#m59084b3226" y="95.251275"/>
     <use style="fill:#ff0000;stroke:#ff0000;" x="298.08" xlink:href="#m59084b3226" y="95.098981"/>
     <use style="fill:#ff0000;stroke:#ff0000;" x="306.72" xlink:href="#m59084b3226" y="98.935441"/>
     <use style="fill:#ff0000;stroke:#ff0000;" x="315.36" xlink:href="#m59084b3226" y="93.913635"/>
     <use style="fill:#ff0000;stroke:#ff0000;" x="324" xlink:href="#m59084b3226" y="88.174219"/>
     <use style="fill:#ff0000;stroke:#ff0000;" x="332.64" xlink:href="#m59084b3226" y="86.652046"/>
     <use style="fill:#ff0000;stroke:#ff0000;" x="341.28" xlink:href="#m59084b3226" y="83.372136"/>
     <use style="fill:#ff0000;stroke:#ff0000;" x="349.92" xlink:href="#m59084b3226" y="82.302953"/>
    </g>
   </g>
   <g id="patch_4">
    <path d="M 54 252 
L 54 34.56 
" style="fill:none;stroke:#000000;stroke-linecap:square;stroke-linejoin:miter;stroke-width:0.8;"/>
   </g>
   <g id="patch_5">
    <path d="M 388.8 252 
L 388.8 34.56 
" style="fill:none;stroke:#000000;stroke-linecap:square;stroke-linejoin:miter;stroke-width:0.8;"/>
   </g>
   <g id="patch_6">
    <path d="M 54 252 
L 388.8 252 
" style="fill:none;stroke:#000000;stroke-linecap:square;stroke-linejoin:miter;stroke-width:0.8;"/>
   </g>
   <g id="patch_7">
    <path d="M 54 34.56 
L 388.8 34.56 
" style="fill:none;stroke:#000000;stroke-linecap:square;stroke-linejoin:miter;stroke-width:0.8;"/>
   </g>
  </g>
 </g>
 <defs>
  <clipPath id="p3742a08dfe">
   <rect height="217.44" width="334.8" x="54" y="34.56"/>
  </clipPath>
 </defs>
</svg>
