<?xml version="1.0" encoding="utf-8" standalone="no"?>
<!DOCTYPE svg PUBLIC "-//W3C//DTD SVG 1.1//EN"
  "http://www.w3.org/Graphics/SVG/1.1/DTD/svg11.dtd">
<!-- Created with matplotlib (http://matplotlib.org/) -->
<svg height="288pt" version="1.1" viewBox="0 0 432 288" width="432pt" xmlns="http://www.w3.org/2000/svg" xmlns:xlink="http://www.w3.org/1999/xlink">
 <defs>
  <style type="text/css">
*{stroke-linecap:butt;stroke-linejoin:round;}
  </style>
 </defs>
 <g id="figure_1">
  <g id="patch_1">
   <path d="M 0 288 
L 432 288 
L 432 0 
L 0 0 
z
" style="fill:none;"/>
  </g>
  <g id="axes_1">
   <g id="patch_2">
    <path d="M 54 252 
L 388.8 252 
L 388.8 34.56 
L 54 34.56 
z
" style="fill:none;"/>
   </g>
   <g id="patch_3">
    <path clip-path="url(#p826f55f5d7)" d="M 54 44.443636 
L 55.682412 46.884469 
L 57.364824 49.310763 
L 59.047236 51.722328 
L 60.729648 54.118981 
L 62.41206 56.500537 
L 64.094472 58.866807 
L 65.776884 61.217613 
L 67.459296 63.552769 
L 69.141709 65.872096 
L 70.824121 68.175417 
L 72.506533 70.462557 
L 74.188945 72.733339 
L 75.871357 74.987598 
L 77.553769 77.225162 
L 79.236181 79.445874 
L 80.918593 81.649573 
L 82.601005 83.836109 
L 84.283417 86.005332 
L 85.965829 88.157105 
L 87.648241 90.291293 
L 89.330653 92.407774 
L 91.013065 94.506436 
L 92.695477 96.587168 
L 94.377889 98.649882 
L 96.060302 100.694492 
L 97.742714 102.720937 
L 99.425126 104.729151 
L 101.107538 106.719103 
L 102.78995 108.690764 
L 104.472362 110.644126 
L 106.154774 112.579192 
L 107.837186 114.495991 
L 109.519598 116.394561 
L 111.20201 118.27495 
L 112.884422 120.137247 
L 114.566834 121.981526 
L 116.249246 123.807898 
L 117.931658 125.616475 
L 119.61407 127.407391 
L 121.296482 129.180784 
L 122.978894 130.93681 
L 124.661307 132.675624 
L 126.343719 134.397393 
L 128.026131 136.102299 
L 129.708543 137.790492 
L 131.390955 139.462172 
L 133.073367 141.117498 
L 134.755779 142.756648 
L 136.438191 144.379794 
L 138.120603 145.987096 
L 139.803015 147.578712 
L 141.485427 149.154795 
L 143.167839 150.71548 
L 144.850251 152.260903 
L 146.532663 153.791185 
L 148.215075 155.306434 
L 149.897487 156.806762 
L 151.579899 158.292246 
L 153.262312 159.762972 
L 154.944724 161.219004 
L 156.627136 162.660398 
L 158.309548 164.087203 
L 159.99196 165.499454 
L 161.674372 166.897172 
L 163.356784 168.28038 
L 165.039196 169.649075 
L 166.721608 171.003266 
L 168.40402 172.342932 
L 170.086432 173.668062 
L 171.768844 174.978635 
L 173.451256 176.27461 
L 175.133668 177.555957 
L 176.81608 178.822628 
L 178.498492 180.074584 
L 180.180905 181.311767 
L 181.863317 182.534123 
L 183.545729 183.7416 
L 185.228141 184.934134 
L 186.910553 186.111658 
L 188.592965 187.274117 
L 190.275377 188.421432 
L 191.957789 189.553548 
L 193.640201 190.670402 
L 195.322613 191.771925 
L 197.005025 192.858048 
L 198.687437 193.928706 
L 200.369849 194.983844 
L 202.052261 196.023396 
L 203.734673 197.047299 
L 205.417085 198.055509 
L 207.099497 199.047965 
L 208.78191 200.024614 
L 210.464322 200.985411 
L 212.146734 201.930317 
L 213.829146 202.85928 
L 215.511558 203.772278 
L 217.19397 204.669271 
L 218.876382 205.550226 
L 220.558794 206.415129 
L 222.241206 207.263952 
L 223.923618 208.096684 
L 225.60603 208.913311 
L 227.288442 209.713832 
L 228.970854 210.498235 
L 230.653266 211.26653 
L 232.335678 212.018729 
L 234.01809 212.754829 
L 235.700503 213.474851 
L 237.382915 214.178814 
L 239.065327 214.866748 
L 240.747739 215.538662 
L 242.430151 216.194608 
L 244.112563 216.834603 
L 245.794975 217.458687 
L 247.477387 218.066897 
L 249.159799 218.659284 
L 250.842211 219.235886 
L 252.524623 219.796747 
L 254.207035 220.341913 
L 255.889447 220.871436 
L 257.571859 221.38536 
L 259.254271 221.883735 
L 260.936683 222.366619 
L 262.619095 222.834045 
L 264.301508 223.286074 
L 265.98392 223.722748 
L 267.666332 224.14411 
L 269.348744 224.550195 
L 271.031156 224.941053 
L 272.713568 225.31671 
L 274.39598 225.677206 
L 276.078392 226.022553 
L 277.760804 226.352783 
L 279.443216 226.667897 
L 281.125628 226.967918 
L 282.80804 227.252826 
L 284.490452 227.52263 
L 286.172864 227.777308 
L 287.855276 228.016827 
L 289.537688 228.241155 
L 291.220101 228.450234 
L 292.902513 228.644009 
L 294.584925 228.822405 
L 296.267337 228.985343 
L 297.949749 229.13272 
L 299.632161 229.264428 
L 301.314573 229.380326 
L 302.996985 229.480282 
L 304.679397 229.564146 
L 306.361809 229.631731 
L 308.044221 229.682864 
L 309.726633 229.717346 
L 311.409045 229.734954 
L 313.091457 229.735484 
L 314.773869 229.718686 
L 316.456281 229.684312 
L 318.138693 229.632126 
L 319.821106 229.561859 
L 321.503518 229.473233 
L 323.18593 229.366009 
L 324.868342 229.239894 
L 326.550754 229.094654 
L 328.233166 228.930008 
L 329.915578 228.745714 
L 331.59799 228.541541 
L 333.280402 228.317264 
L 334.962814 228.07266 
L 336.645226 227.807545 
L 338.327638 227.521743 
L 340.01005 227.215089 
L 341.692462 226.887466 
L 343.374874 226.538747 
L 345.057286 226.168845 
L 346.739698 225.777693 
L 348.422111 225.365243 
L 350.104523 224.931462 
L 351.786935 224.476344 
L 353.469347 223.999898 
L 355.151759 223.502154 
L 356.834171 222.983161 
L 358.516583 222.44297 
L 360.198995 221.881656 
L 361.881407 221.299308 
L 363.563819 220.696011 
L 365.246231 220.071881 
L 366.928643 219.427012 
L 368.611055 218.761539 
L 370.293467 218.075579 
L 371.975879 217.369271 
L 373.658291 216.642726 
L 375.340704 215.8961 
L 377.023116 215.129527 
L 378.705528 214.343147 
L 380.38794 213.537105 
L 382.070352 212.711533 
L 383.752764 211.866585 
L 385.435176 211.002404 
L 387.117588 210.119137 
L 388.8 209.216914 
L 388.8 240.489037 
L 387.117588 240.512062 
L 385.435176 240.538125 
L 383.752764 240.567068 
L 382.070352 240.598752 
L 380.38794 240.633036 
L 378.705528 240.66979 
L 377.023116 240.708862 
L 375.340704 240.750118 
L 373.658291 240.793414 
L 371.975879 240.838608 
L 370.293467 240.885577 
L 368.611055 240.934154 
L 366.928643 240.984207 
L 365.246231 241.035575 
L 363.563819 241.088124 
L 361.881407 241.141677 
L 360.198995 241.19608 
L 358.516583 241.251153 
L 356.834171 241.306719 
L 355.151759 241.362589 
L 353.469347 241.418553 
L 351.786935 241.474401 
L 350.104523 241.529904 
L 348.422111 241.584818 
L 346.739698 241.638881 
L 345.057286 241.691811 
L 343.374874 241.743309 
L 341.692462 241.793063 
L 340.01005 241.840741 
L 338.327638 241.885973 
L 336.645226 241.928403 
L 334.962814 241.96763 
L 333.280402 242.003243 
L 331.59799 242.034825 
L 329.915578 242.061925 
L 328.233166 242.08409 
L 326.550754 242.100867 
L 324.868342 242.11179 
L 323.18593 242.116364 
L 321.503518 242.114135 
L 319.821106 242.104601 
L 318.138693 242.087314 
L 316.456281 242.061788 
L 314.773869 242.02755 
L 313.091457 241.984166 
L 311.409045 241.93119 
L 309.726633 241.86818 
L 308.044221 241.79474 
L 306.361809 241.710461 
L 304.679397 241.614959 
L 302.996985 241.507883 
L 301.314573 241.388868 
L 299.632161 241.257592 
L 297.949749 241.113752 
L 296.267337 240.957043 
L 294.584925 240.787193 
L 292.902513 240.603941 
L 291.220101 240.407055 
L 289.537688 240.196306 
L 287.855276 239.971493 
L 286.172864 239.732415 
L 284.490452 239.4789 
L 282.80804 239.210782 
L 281.125628 238.927903 
L 279.443216 238.630149 
L 277.760804 238.317374 
L 276.078392 237.989482 
L 274.39598 237.64636 
L 272.713568 237.287928 
L 271.031156 236.91409 
L 269.348744 236.524786 
L 267.666332 236.119942 
L 265.98392 235.699514 
L 264.301508 235.263448 
L 262.619095 234.811702 
L 260.936683 234.344235 
L 259.254271 233.861034 
L 257.571859 233.362058 
L 255.889447 232.847299 
L 254.207035 232.316742 
L 252.524623 231.770374 
L 250.842211 231.208193 
L 249.159799 230.630194 
L 247.477387 230.036377 
L 245.794975 229.42674 
L 244.112563 228.801299 
L 242.430151 228.160058 
L 240.747739 227.503032 
L 239.065327 226.830217 
L 237.382915 226.141647 
L 235.700503 225.437319 
L 234.01809 224.717258 
L 232.335678 223.981476 
L 230.653266 223.23 
L 228.970854 222.462832 
L 227.288442 221.679997 
L 225.60603 220.88152 
L 223.923618 220.067412 
L 222.241206 219.237698 
L 220.558794 218.392394 
L 218.876382 217.531527 
L 217.19397 216.655108 
L 215.511558 215.763169 
L 213.829146 214.855728 
L 212.146734 213.932801 
L 210.464322 212.994425 
L 208.78191 212.040615 
L 207.099497 211.0714 
L 205.417085 210.086813 
L 203.734673 209.086877 
L 202.052261 208.07162 
L 200.369849 207.041085 
L 198.687437 205.995303 
L 197.005025 204.93431 
L 195.322613 203.858154 
L 193.640201 202.766879 
L 191.957789 201.660529 
L 190.275377 200.539157 
L 188.592965 199.402821 
L 186.910553 198.251595 
L 185.228141 197.085535 
L 183.545729 195.904722 
L 181.863317 194.709234 
L 180.180905 193.499153 
L 178.498492 192.27458 
L 176.81608 191.03562 
L 175.133668 189.782376 
L 173.451256 188.514974 
L 171.768844 187.23354 
L 170.086432 185.938219 
L 168.40402 184.629152 
L 166.721608 183.306501 
L 165.039196 181.970447 
L 163.356784 180.621163 
L 161.674372 179.258858 
L 159.99196 177.883732 
L 158.309548 176.496017 
L 156.627136 175.095947 
L 154.944724 173.683772 
L 153.262312 172.259764 
L 151.579899 170.824207 
L 149.897487 169.377393 
L 148.215075 167.919644 
L 146.532663 166.451276 
L 144.850251 164.972645 
L 143.167839 163.484104 
L 141.485427 161.986029 
L 139.803015 160.478812 
L 138.120603 158.962845 
L 136.438191 157.438549 
L 134.755779 155.906349 
L 133.073367 154.366676 
L 131.390955 152.81998 
L 129.708543 151.26672 
L 128.026131 149.707337 
L 126.343719 148.142321 
L 124.661307 146.572112 
L 122.978894 144.997191 
L 121.296482 143.418021 
L 119.61407 141.835061 
L 117.931658 140.248775 
L 116.249246 138.659611 
L 114.566834 137.068016 
L 112.884422 135.474419 
L 111.20201 133.879255 
L 109.519598 132.282919 
L 107.837186 130.685827 
L 106.154774 129.088362 
L 104.472362 127.490892 
L 102.78995 125.893786 
L 101.107538 124.297386 
L 99.425126 122.702029 
L 97.742714 121.108031 
L 96.060302 119.515711 
L 94.377889 117.925357 
L 92.695477 116.337262 
L 91.013065 114.751699 
L 89.330653 113.16894 
L 87.648241 111.58924 
L 85.965829 110.01285 
L 84.283417 108.440018 
L 82.601005 106.870982 
L 80.918593 105.305978 
L 79.236181 103.745232 
L 77.553769 102.188974 
L 75.871357 100.637423 
L 74.188945 99.090803 
L 72.506533 97.549331 
L 70.824121 96.013228 
L 69.141709 94.482707 
L 67.459296 92.957983 
L 65.776884 91.439274 
L 64.094472 89.926795 
L 62.41206 88.420758 
L 60.729648 86.921383 
L 59.047236 85.428882 
L 57.364824 83.943472 
L 55.682412 82.465373 
L 54 80.9948 
z
" style="fill:#cc3300;opacity:0.3;stroke:#cc3300;stroke-linejoin:miter;stroke-width:0.5;"/>
   </g>
   <g id="matplotlib.axis_1">
    <g id="xtick_1">
     <g id="line2d_1">
      <defs>
       <path d="M 0 0 
L 0 3.5 
" id="mbb44ffa9e5" style="stroke:#000000;stroke-width:0.8;"/>
      </defs>
      <g>
       <use style="stroke:#000000;stroke-width:0.8;" x="62.515529" xlink:href="#mbb44ffa9e5" y="252"/>
      </g>
     </g>
     <g id="text_1">
      <!-- −0.75 -->
      <defs>
       <path d="M 10.59375 35.5 
L 73.1875 35.5 
L 73.1875 27.203125 
L 10.59375 27.203125 
z
" id="DejaVuSans-2212"/>
       <path d="M 31.78125 66.40625 
Q 24.171875 66.40625 20.328125 58.90625 
Q 16.5 51.421875 16.5 36.375 
Q 16.5 21.390625 20.328125 13.890625 
Q 24.171875 6.390625 31.78125 6.390625 
Q 39.453125 6.390625 43.28125 13.890625 
Q 47.125 21.390625 47.125 36.375 
Q 47.125 51.421875 43.28125 58.90625 
Q 39.453125 66.40625 31.78125 66.40625 
z
M 31.78125 74.21875 
Q 44.046875 74.21875 50.515625 64.515625 
Q 56.984375 54.828125 56.984375 36.375 
Q 56.984375 17.96875 50.515625 8.265625 
Q 44.046875 -1.421875 31.78125 -1.421875 
Q 19.53125 -1.421875 13.0625 8.265625 
Q 6.59375 17.96875 6.59375 36.375 
Q 6.59375 54.828125 13.0625 64.515625 
Q 19.53125 74.21875 31.78125 74.21875 
z
" id="DejaVuSans-30"/>
       <path d="M 10.6875 12.40625 
L 21 12.40625 
L 21 0 
L 10.6875 0 
z
" id="DejaVuSans-2e"/>
       <path d="M 8.203125 72.90625 
L 55.078125 72.90625 
L 55.078125 68.703125 
L 28.609375 0 
L 18.3125 0 
L 43.21875 64.59375 
L 8.203125 64.59375 
z
" id="DejaVuSans-37"/>
       <path d="M 10.796875 72.90625 
L 49.515625 72.90625 
L 49.515625 64.59375 
L 19.828125 64.59375 
L 19.828125 46.734375 
Q 21.96875 47.46875 24.109375 47.828125 
Q 26.265625 48.1875 28.421875 48.1875 
Q 40.625 48.1875 47.75 41.5 
Q 54.890625 34.8125 54.890625 23.390625 
Q 54.890625 11.625 47.5625 5.09375 
Q 40.234375 -1.421875 26.90625 -1.421875 
Q 22.3125 -1.421875 17.546875 -0.640625 
Q 12.796875 0.140625 7.71875 1.703125 
L 7.71875 11.625 
Q 12.109375 9.234375 16.796875 8.0625 
Q 21.484375 6.890625 26.703125 6.890625 
Q 35.15625 6.890625 40.078125 11.328125 
Q 45.015625 15.765625 45.015625 23.390625 
Q 45.015625 31 40.078125 35.4375 
Q 35.15625 39.890625 26.703125 39.890625 
Q 22.75 39.890625 18.8125 39.015625 
Q 14.890625 38.140625 10.796875 36.28125 
z
" id="DejaVuSans-35"/>
      </defs>
      <g transform="translate(47.192873 266.598437)scale(0.1 -0.1)">
       <use xlink:href="#DejaVuSans-2212"/>
       <use x="83.789062" xlink:href="#DejaVuSans-30"/>
       <use x="147.412109" xlink:href="#DejaVuSans-2e"/>
       <use x="179.199219" xlink:href="#DejaVuSans-37"/>
       <use x="242.822266" xlink:href="#DejaVuSans-35"/>
      </g>
     </g>
    </g>
    <g id="xtick_2">
     <g id="line2d_2">
      <g>
       <use style="stroke:#000000;stroke-width:0.8;" x="107.006358" xlink:href="#mbb44ffa9e5" y="252"/>
      </g>
     </g>
     <g id="text_2">
      <!-- −0.50 -->
      <g transform="translate(91.683702 266.598437)scale(0.1 -0.1)">
       <use xlink:href="#DejaVuSans-2212"/>
       <use x="83.789062" xlink:href="#DejaVuSans-30"/>
       <use x="147.412109" xlink:href="#DejaVuSans-2e"/>
       <use x="179.199219" xlink:href="#DejaVuSans-35"/>
       <use x="242.822266" xlink:href="#DejaVuSans-30"/>
      </g>
     </g>
    </g>
    <g id="xtick_3">
     <g id="line2d_3">
      <g>
       <use style="stroke:#000000;stroke-width:0.8;" x="151.497186" xlink:href="#mbb44ffa9e5" y="252"/>
      </g>
     </g>
     <g id="text_3">
      <!-- −0.25 -->
      <defs>
       <path d="M 19.1875 8.296875 
L 53.609375 8.296875 
L 53.609375 0 
L 7.328125 0 
L 7.328125 8.296875 
Q 12.9375 14.109375 22.625 23.890625 
Q 32.328125 33.6875 34.8125 36.53125 
Q 39.546875 41.84375 41.421875 45.53125 
Q 43.3125 49.21875 43.3125 52.78125 
Q 43.3125 58.59375 39.234375 62.25 
Q 35.15625 65.921875 28.609375 65.921875 
Q 23.96875 65.921875 18.8125 64.3125 
Q 13.671875 62.703125 7.8125 59.421875 
L 7.8125 69.390625 
Q 13.765625 71.78125 18.9375 73 
Q 24.125 74.21875 28.421875 74.21875 
Q 39.75 74.21875 46.484375 68.546875 
Q 53.21875 62.890625 53.21875 53.421875 
Q 53.21875 48.921875 51.53125 44.890625 
Q 49.859375 40.875 45.40625 35.40625 
Q 44.1875 33.984375 37.640625 27.21875 
Q 31.109375 20.453125 19.1875 8.296875 
z
" id="DejaVuSans-32"/>
      </defs>
      <g transform="translate(136.17453 266.598437)scale(0.1 -0.1)">
       <use xlink:href="#DejaVuSans-2212"/>
       <use x="83.789062" xlink:href="#DejaVuSans-30"/>
       <use x="147.412109" xlink:href="#DejaVuSans-2e"/>
       <use x="179.199219" xlink:href="#DejaVuSans-32"/>
       <use x="242.822266" xlink:href="#DejaVuSans-35"/>
      </g>
     </g>
    </g>
    <g id="xtick_4">
     <g id="line2d_4">
      <g>
       <use style="stroke:#000000;stroke-width:0.8;" x="195.988015" xlink:href="#mbb44ffa9e5" y="252"/>
      </g>
     </g>
     <g id="text_4">
      <!-- 0.00 -->
      <g transform="translate(184.855202 266.598437)scale(0.1 -0.1)">
       <use xlink:href="#DejaVuSans-30"/>
       <use x="63.623047" xlink:href="#DejaVuSans-2e"/>
       <use x="95.410156" xlink:href="#DejaVuSans-30"/>
       <use x="159.033203" xlink:href="#DejaVuSans-30"/>
      </g>
     </g>
    </g>
    <g id="xtick_5">
     <g id="line2d_5">
      <g>
       <use style="stroke:#000000;stroke-width:0.8;" x="240.478843" xlink:href="#mbb44ffa9e5" y="252"/>
      </g>
     </g>
     <g id="text_5">
      <!-- 0.25 -->
      <g transform="translate(229.346031 266.598437)scale(0.1 -0.1)">
       <use xlink:href="#DejaVuSans-30"/>
       <use x="63.623047" xlink:href="#DejaVuSans-2e"/>
       <use x="95.410156" xlink:href="#DejaVuSans-32"/>
       <use x="159.033203" xlink:href="#DejaVuSans-35"/>
      </g>
     </g>
    </g>
    <g id="xtick_6">
     <g id="line2d_6">
      <g>
       <use style="stroke:#000000;stroke-width:0.8;" x="284.969672" xlink:href="#mbb44ffa9e5" y="252"/>
      </g>
     </g>
     <g id="text_6">
      <!-- 0.50 -->
      <g transform="translate(273.836859 266.598437)scale(0.1 -0.1)">
       <use xlink:href="#DejaVuSans-30"/>
       <use x="63.623047" xlink:href="#DejaVuSans-2e"/>
       <use x="95.410156" xlink:href="#DejaVuSans-35"/>
       <use x="159.033203" xlink:href="#DejaVuSans-30"/>
      </g>
     </g>
    </g>
    <g id="xtick_7">
     <g id="line2d_7">
      <g>
       <use style="stroke:#000000;stroke-width:0.8;" x="329.4605" xlink:href="#mbb44ffa9e5" y="252"/>
      </g>
     </g>
     <g id="text_7">
      <!-- 0.75 -->
      <g transform="translate(318.327688 266.598437)scale(0.1 -0.1)">
       <use xlink:href="#DejaVuSans-30"/>
       <use x="63.623047" xlink:href="#DejaVuSans-2e"/>
       <use x="95.410156" xlink:href="#DejaVuSans-37"/>
       <use x="159.033203" xlink:href="#DejaVuSans-35"/>
      </g>
     </g>
    </g>
    <g id="xtick_8">
     <g id="line2d_8">
      <g>
       <use style="stroke:#000000;stroke-width:0.8;" x="373.951329" xlink:href="#mbb44ffa9e5" y="252"/>
      </g>
     </g>
     <g id="text_8">
      <!-- 1.00 -->
      <defs>
       <path d="M 12.40625 8.296875 
L 28.515625 8.296875 
L 28.515625 63.921875 
L 10.984375 60.40625 
L 10.984375 69.390625 
L 28.421875 72.90625 
L 38.28125 72.90625 
L 38.28125 8.296875 
L 54.390625 8.296875 
L 54.390625 0 
L 12.40625 0 
z
" id="DejaVuSans-31"/>
      </defs>
      <g transform="translate(362.818516 266.598437)scale(0.1 -0.1)">
       <use xlink:href="#DejaVuSans-31"/>
       <use x="63.623047" xlink:href="#DejaVuSans-2e"/>
       <use x="95.410156" xlink:href="#DejaVuSans-30"/>
       <use x="159.033203" xlink:href="#DejaVuSans-30"/>
      </g>
     </g>
    </g>
    <g id="text_9">
     <!-- layer 1 -->
     <defs>
      <path d="M 9.421875 75.984375 
L 18.40625 75.984375 
L 18.40625 0 
L 9.421875 0 
z
" id="DejaVuSans-6c"/>
      <path d="M 34.28125 27.484375 
Q 23.390625 27.484375 19.1875 25 
Q 14.984375 22.515625 14.984375 16.5 
Q 14.984375 11.71875 18.140625 8.90625 
Q 21.296875 6.109375 26.703125 6.109375 
Q 34.1875 6.109375 38.703125 11.40625 
Q 43.21875 16.703125 43.21875 25.484375 
L 43.21875 27.484375 
z
M 52.203125 31.203125 
L 52.203125 0 
L 43.21875 0 
L 43.21875 8.296875 
Q 40.140625 3.328125 35.546875 0.953125 
Q 30.953125 -1.421875 24.3125 -1.421875 
Q 15.921875 -1.421875 10.953125 3.296875 
Q 6 8.015625 6 15.921875 
Q 6 25.140625 12.171875 29.828125 
Q 18.359375 34.515625 30.609375 34.515625 
L 43.21875 34.515625 
L 43.21875 35.40625 
Q 43.21875 41.609375 39.140625 45 
Q 35.0625 48.390625 27.6875 48.390625 
Q 23 48.390625 18.546875 47.265625 
Q 14.109375 46.140625 10.015625 43.890625 
L 10.015625 52.203125 
Q 14.9375 54.109375 19.578125 55.046875 
Q 24.21875 56 28.609375 56 
Q 40.484375 56 46.34375 49.84375 
Q 52.203125 43.703125 52.203125 31.203125 
z
" id="DejaVuSans-61"/>
      <path d="M 32.171875 -5.078125 
Q 28.375 -14.84375 24.75 -17.8125 
Q 21.140625 -20.796875 15.09375 -20.796875 
L 7.90625 -20.796875 
L 7.90625 -13.28125 
L 13.1875 -13.28125 
Q 16.890625 -13.28125 18.9375 -11.515625 
Q 21 -9.765625 23.484375 -3.21875 
L 25.09375 0.875 
L 2.984375 54.6875 
L 12.5 54.6875 
L 29.59375 11.921875 
L 46.6875 54.6875 
L 56.203125 54.6875 
z
" id="DejaVuSans-79"/>
      <path d="M 56.203125 29.59375 
L 56.203125 25.203125 
L 14.890625 25.203125 
Q 15.484375 15.921875 20.484375 11.0625 
Q 25.484375 6.203125 34.421875 6.203125 
Q 39.59375 6.203125 44.453125 7.46875 
Q 49.3125 8.734375 54.109375 11.28125 
L 54.109375 2.78125 
Q 49.265625 0.734375 44.1875 -0.34375 
Q 39.109375 -1.421875 33.890625 -1.421875 
Q 20.796875 -1.421875 13.15625 6.1875 
Q 5.515625 13.8125 5.515625 26.8125 
Q 5.515625 40.234375 12.765625 48.109375 
Q 20.015625 56 32.328125 56 
Q 43.359375 56 49.78125 48.890625 
Q 56.203125 41.796875 56.203125 29.59375 
z
M 47.21875 32.234375 
Q 47.125 39.59375 43.09375 43.984375 
Q 39.0625 48.390625 32.421875 48.390625 
Q 24.90625 48.390625 20.390625 44.140625 
Q 15.875 39.890625 15.1875 32.171875 
z
" id="DejaVuSans-65"/>
      <path d="M 41.109375 46.296875 
Q 39.59375 47.171875 37.8125 47.578125 
Q 36.03125 48 33.890625 48 
Q 26.265625 48 22.1875 43.046875 
Q 18.109375 38.09375 18.109375 28.8125 
L 18.109375 0 
L 9.078125 0 
L 9.078125 54.6875 
L 18.109375 54.6875 
L 18.109375 46.1875 
Q 20.953125 51.171875 25.484375 53.578125 
Q 30.03125 56 36.53125 56 
Q 37.453125 56 38.578125 55.875 
Q 39.703125 55.765625 41.0625 55.515625 
z
" id="DejaVuSans-72"/>
      <path id="DejaVuSans-20"/>
     </defs>
     <g transform="translate(186.770312 287.875)scale(0.2 -0.2)">
      <use xlink:href="#DejaVuSans-6c"/>
      <use x="27.783203" xlink:href="#DejaVuSans-61"/>
      <use x="89.0625" xlink:href="#DejaVuSans-79"/>
      <use x="148.242188" xlink:href="#DejaVuSans-65"/>
      <use x="209.765625" xlink:href="#DejaVuSans-72"/>
      <use x="250.878906" xlink:href="#DejaVuSans-20"/>
      <use x="282.666016" xlink:href="#DejaVuSans-31"/>
     </g>
    </g>
   </g>
   <g id="matplotlib.axis_2">
    <g id="ytick_1">
     <g id="line2d_9">
      <defs>
       <path d="M 0 0 
L -3.5 0 
" id="mef4ec49722" style="stroke:#000000;stroke-width:0.8;"/>
      </defs>
      <g>
       <use style="stroke:#000000;stroke-width:0.8;" x="54" xlink:href="#mef4ec49722" y="239.146097"/>
      </g>
     </g>
     <g id="text_10">
      <!-- 3.0 -->
      <defs>
       <path d="M 40.578125 39.3125 
Q 47.65625 37.796875 51.625 33 
Q 55.609375 28.21875 55.609375 21.1875 
Q 55.609375 10.40625 48.1875 4.484375 
Q 40.765625 -1.421875 27.09375 -1.421875 
Q 22.515625 -1.421875 17.65625 -0.515625 
Q 12.796875 0.390625 7.625 2.203125 
L 7.625 11.71875 
Q 11.71875 9.328125 16.59375 8.109375 
Q 21.484375 6.890625 26.8125 6.890625 
Q 36.078125 6.890625 40.9375 10.546875 
Q 45.796875 14.203125 45.796875 21.1875 
Q 45.796875 27.640625 41.28125 31.265625 
Q 36.765625 34.90625 28.71875 34.90625 
L 20.21875 34.90625 
L 20.21875 43.015625 
L 29.109375 43.015625 
Q 36.375 43.015625 40.234375 45.921875 
Q 44.09375 48.828125 44.09375 54.296875 
Q 44.09375 59.90625 40.109375 62.90625 
Q 36.140625 65.921875 28.71875 65.921875 
Q 24.65625 65.921875 20.015625 65.03125 
Q 15.375 64.15625 9.8125 62.3125 
L 9.8125 71.09375 
Q 15.4375 72.65625 20.34375 73.4375 
Q 25.25 74.21875 29.59375 74.21875 
Q 40.828125 74.21875 47.359375 69.109375 
Q 53.90625 64.015625 53.90625 55.328125 
Q 53.90625 49.265625 50.4375 45.09375 
Q 46.96875 40.921875 40.578125 39.3125 
z
" id="DejaVuSans-33"/>
      </defs>
      <g transform="translate(31.096875 242.945316)scale(0.1 -0.1)">
       <use xlink:href="#DejaVuSans-33"/>
       <use x="63.623047" xlink:href="#DejaVuSans-2e"/>
       <use x="95.410156" xlink:href="#DejaVuSans-30"/>
      </g>
     </g>
    </g>
    <g id="ytick_2">
     <g id="line2d_10">
      <g>
       <use style="stroke:#000000;stroke-width:0.8;" x="54" xlink:href="#mef4ec49722" y="214.148819"/>
      </g>
     </g>
     <g id="text_11">
      <!-- 3.5 -->
      <g transform="translate(31.096875 217.948037)scale(0.1 -0.1)">
       <use xlink:href="#DejaVuSans-33"/>
       <use x="63.623047" xlink:href="#DejaVuSans-2e"/>
       <use x="95.410156" xlink:href="#DejaVuSans-35"/>
      </g>
     </g>
    </g>
    <g id="ytick_3">
     <g id="line2d_11">
      <g>
       <use style="stroke:#000000;stroke-width:0.8;" x="54" xlink:href="#mef4ec49722" y="189.15154"/>
      </g>
     </g>
     <g id="text_12">
      <!-- 4.0 -->
      <defs>
       <path d="M 37.796875 64.3125 
L 12.890625 25.390625 
L 37.796875 25.390625 
z
M 35.203125 72.90625 
L 47.609375 72.90625 
L 47.609375 25.390625 
L 58.015625 25.390625 
L 58.015625 17.1875 
L 47.609375 17.1875 
L 47.609375 0 
L 37.796875 0 
L 37.796875 17.1875 
L 4.890625 17.1875 
L 4.890625 26.703125 
z
" id="DejaVuSans-34"/>
      </defs>
      <g transform="translate(31.096875 192.950759)scale(0.1 -0.1)">
       <use xlink:href="#DejaVuSans-34"/>
       <use x="63.623047" xlink:href="#DejaVuSans-2e"/>
       <use x="95.410156" xlink:href="#DejaVuSans-30"/>
      </g>
     </g>
    </g>
    <g id="ytick_4">
     <g id="line2d_12">
      <g>
       <use style="stroke:#000000;stroke-width:0.8;" x="54" xlink:href="#mef4ec49722" y="164.154261"/>
      </g>
     </g>
     <g id="text_13">
      <!-- 4.5 -->
      <g transform="translate(31.096875 167.95348)scale(0.1 -0.1)">
       <use xlink:href="#DejaVuSans-34"/>
       <use x="63.623047" xlink:href="#DejaVuSans-2e"/>
       <use x="95.410156" xlink:href="#DejaVuSans-35"/>
      </g>
     </g>
    </g>
    <g id="ytick_5">
     <g id="line2d_13">
      <g>
       <use style="stroke:#000000;stroke-width:0.8;" x="54" xlink:href="#mef4ec49722" y="139.156983"/>
      </g>
     </g>
     <g id="text_14">
      <!-- 5.0 -->
      <g transform="translate(31.096875 142.956202)scale(0.1 -0.1)">
       <use xlink:href="#DejaVuSans-35"/>
       <use x="63.623047" xlink:href="#DejaVuSans-2e"/>
       <use x="95.410156" xlink:href="#DejaVuSans-30"/>
      </g>
     </g>
    </g>
    <g id="ytick_6">
     <g id="line2d_14">
      <g>
       <use style="stroke:#000000;stroke-width:0.8;" x="54" xlink:href="#mef4ec49722" y="114.159704"/>
      </g>
     </g>
     <g id="text_15">
      <!-- 5.5 -->
      <g transform="translate(31.096875 117.958923)scale(0.1 -0.1)">
       <use xlink:href="#DejaVuSans-35"/>
       <use x="63.623047" xlink:href="#DejaVuSans-2e"/>
       <use x="95.410156" xlink:href="#DejaVuSans-35"/>
      </g>
     </g>
    </g>
    <g id="ytick_7">
     <g id="line2d_15">
      <g>
       <use style="stroke:#000000;stroke-width:0.8;" x="54" xlink:href="#mef4ec49722" y="89.162426"/>
      </g>
     </g>
     <g id="text_16">
      <!-- 6.0 -->
      <defs>
       <path d="M 33.015625 40.375 
Q 26.375 40.375 22.484375 35.828125 
Q 18.609375 31.296875 18.609375 23.390625 
Q 18.609375 15.53125 22.484375 10.953125 
Q 26.375 6.390625 33.015625 6.390625 
Q 39.65625 6.390625 43.53125 10.953125 
Q 47.40625 15.53125 47.40625 23.390625 
Q 47.40625 31.296875 43.53125 35.828125 
Q 39.65625 40.375 33.015625 40.375 
z
M 52.59375 71.296875 
L 52.59375 62.3125 
Q 48.875 64.0625 45.09375 64.984375 
Q 41.3125 65.921875 37.59375 65.921875 
Q 27.828125 65.921875 22.671875 59.328125 
Q 17.53125 52.734375 16.796875 39.40625 
Q 19.671875 43.65625 24.015625 45.921875 
Q 28.375 48.1875 33.59375 48.1875 
Q 44.578125 48.1875 50.953125 41.515625 
Q 57.328125 34.859375 57.328125 23.390625 
Q 57.328125 12.15625 50.6875 5.359375 
Q 44.046875 -1.421875 33.015625 -1.421875 
Q 20.359375 -1.421875 13.671875 8.265625 
Q 6.984375 17.96875 6.984375 36.375 
Q 6.984375 53.65625 15.1875 63.9375 
Q 23.390625 74.21875 37.203125 74.21875 
Q 40.921875 74.21875 44.703125 73.484375 
Q 48.484375 72.75 52.59375 71.296875 
z
" id="DejaVuSans-36"/>
      </defs>
      <g transform="translate(31.096875 92.961645)scale(0.1 -0.1)">
       <use xlink:href="#DejaVuSans-36"/>
       <use x="63.623047" xlink:href="#DejaVuSans-2e"/>
       <use x="95.410156" xlink:href="#DejaVuSans-30"/>
      </g>
     </g>
    </g>
    <g id="ytick_8">
     <g id="line2d_16">
      <g>
       <use style="stroke:#000000;stroke-width:0.8;" x="54" xlink:href="#mef4ec49722" y="64.165147"/>
      </g>
     </g>
     <g id="text_17">
      <!-- 6.5 -->
      <g transform="translate(31.096875 67.964366)scale(0.1 -0.1)">
       <use xlink:href="#DejaVuSans-36"/>
       <use x="63.623047" xlink:href="#DejaVuSans-2e"/>
       <use x="95.410156" xlink:href="#DejaVuSans-35"/>
      </g>
     </g>
    </g>
    <g id="ytick_9">
     <g id="line2d_17">
      <g>
       <use style="stroke:#000000;stroke-width:0.8;" x="54" xlink:href="#mef4ec49722" y="39.167869"/>
      </g>
     </g>
     <g id="text_18">
      <!-- 7.0 -->
      <g transform="translate(31.096875 42.967087)scale(0.1 -0.1)">
       <use xlink:href="#DejaVuSans-37"/>
       <use x="63.623047" xlink:href="#DejaVuSans-2e"/>
       <use x="95.410156" xlink:href="#DejaVuSans-30"/>
      </g>
     </g>
    </g>
    <g id="text_19">
     <!-- pace min/km -->
     <defs>
      <path d="M 18.109375 8.203125 
L 18.109375 -20.796875 
L 9.078125 -20.796875 
L 9.078125 54.6875 
L 18.109375 54.6875 
L 18.109375 46.390625 
Q 20.953125 51.265625 25.265625 53.625 
Q 29.59375 56 35.59375 56 
Q 45.5625 56 51.78125 48.09375 
Q 58.015625 40.1875 58.015625 27.296875 
Q 58.015625 14.40625 51.78125 6.484375 
Q 45.5625 -1.421875 35.59375 -1.421875 
Q 29.59375 -1.421875 25.265625 0.953125 
Q 20.953125 3.328125 18.109375 8.203125 
z
M 48.6875 27.296875 
Q 48.6875 37.203125 44.609375 42.84375 
Q 40.53125 48.484375 33.40625 48.484375 
Q 26.265625 48.484375 22.1875 42.84375 
Q 18.109375 37.203125 18.109375 27.296875 
Q 18.109375 17.390625 22.1875 11.75 
Q 26.265625 6.109375 33.40625 6.109375 
Q 40.53125 6.109375 44.609375 11.75 
Q 48.6875 17.390625 48.6875 27.296875 
z
" id="DejaVuSans-70"/>
      <path d="M 48.78125 52.59375 
L 48.78125 44.1875 
Q 44.96875 46.296875 41.140625 47.34375 
Q 37.3125 48.390625 33.40625 48.390625 
Q 24.65625 48.390625 19.8125 42.84375 
Q 14.984375 37.3125 14.984375 27.296875 
Q 14.984375 17.28125 19.8125 11.734375 
Q 24.65625 6.203125 33.40625 6.203125 
Q 37.3125 6.203125 41.140625 7.25 
Q 44.96875 8.296875 48.78125 10.40625 
L 48.78125 2.09375 
Q 45.015625 0.34375 40.984375 -0.53125 
Q 36.96875 -1.421875 32.421875 -1.421875 
Q 20.0625 -1.421875 12.78125 6.34375 
Q 5.515625 14.109375 5.515625 27.296875 
Q 5.515625 40.671875 12.859375 48.328125 
Q 20.21875 56 33.015625 56 
Q 37.15625 56 41.109375 55.140625 
Q 45.0625 54.296875 48.78125 52.59375 
z
" id="DejaVuSans-63"/>
      <path d="M 52 44.1875 
Q 55.375 50.25 60.0625 53.125 
Q 64.75 56 71.09375 56 
Q 79.640625 56 84.28125 50.015625 
Q 88.921875 44.046875 88.921875 33.015625 
L 88.921875 0 
L 79.890625 0 
L 79.890625 32.71875 
Q 79.890625 40.578125 77.09375 44.375 
Q 74.3125 48.1875 68.609375 48.1875 
Q 61.625 48.1875 57.5625 43.546875 
Q 53.515625 38.921875 53.515625 30.90625 
L 53.515625 0 
L 44.484375 0 
L 44.484375 32.71875 
Q 44.484375 40.625 41.703125 44.40625 
Q 38.921875 48.1875 33.109375 48.1875 
Q 26.21875 48.1875 22.15625 43.53125 
Q 18.109375 38.875 18.109375 30.90625 
L 18.109375 0 
L 9.078125 0 
L 9.078125 54.6875 
L 18.109375 54.6875 
L 18.109375 46.1875 
Q 21.1875 51.21875 25.484375 53.609375 
Q 29.78125 56 35.6875 56 
Q 41.65625 56 45.828125 52.96875 
Q 50 49.953125 52 44.1875 
z
" id="DejaVuSans-6d"/>
      <path d="M 9.421875 54.6875 
L 18.40625 54.6875 
L 18.40625 0 
L 9.421875 0 
z
M 9.421875 75.984375 
L 18.40625 75.984375 
L 18.40625 64.59375 
L 9.421875 64.59375 
z
" id="DejaVuSans-69"/>
      <path d="M 54.890625 33.015625 
L 54.890625 0 
L 45.90625 0 
L 45.90625 32.71875 
Q 45.90625 40.484375 42.875 44.328125 
Q 39.84375 48.1875 33.796875 48.1875 
Q 26.515625 48.1875 22.3125 43.546875 
Q 18.109375 38.921875 18.109375 30.90625 
L 18.109375 0 
L 9.078125 0 
L 9.078125 54.6875 
L 18.109375 54.6875 
L 18.109375 46.1875 
Q 21.34375 51.125 25.703125 53.5625 
Q 30.078125 56 35.796875 56 
Q 45.21875 56 50.046875 50.171875 
Q 54.890625 44.34375 54.890625 33.015625 
z
" id="DejaVuSans-6e"/>
      <path d="M 25.390625 72.90625 
L 33.6875 72.90625 
L 8.296875 -9.28125 
L 0 -9.28125 
z
" id="DejaVuSans-2f"/>
      <path d="M 9.078125 75.984375 
L 18.109375 75.984375 
L 18.109375 31.109375 
L 44.921875 54.6875 
L 56.390625 54.6875 
L 27.390625 29.109375 
L 57.625 0 
L 45.90625 0 
L 18.109375 26.703125 
L 18.109375 0 
L 9.078125 0 
z
" id="DejaVuSans-6b"/>
     </defs>
     <g transform="translate(22.9375 208.3425)rotate(-90)scale(0.2 -0.2)">
      <use xlink:href="#DejaVuSans-70"/>
      <use x="63.476562" xlink:href="#DejaVuSans-61"/>
      <use x="124.755859" xlink:href="#DejaVuSans-63"/>
      <use x="179.736328" xlink:href="#DejaVuSans-65"/>
      <use x="241.259766" xlink:href="#DejaVuSans-20"/>
      <use x="273.046875" xlink:href="#DejaVuSans-6d"/>
      <use x="370.458984" xlink:href="#DejaVuSans-69"/>
      <use x="398.242188" xlink:href="#DejaVuSans-6e"/>
      <use x="461.621094" xlink:href="#DejaVuSans-2f"/>
      <use x="495.3125" xlink:href="#DejaVuSans-6b"/>
      <use x="553.222656" xlink:href="#DejaVuSans-6d"/>
     </g>
    </g>
   </g>
   <g id="line2d_18">
    <path clip-path="url(#p826f55f5d7)" d="M 54 62.719218 
L 69.141709 80.177402 
L 82.601005 95.353546 
L 94.377889 108.28762 
L 104.472362 119.067509 
L 114.566834 129.524771 
L 124.661307 139.623868 
L 133.073367 147.742087 
L 141.485427 155.570412 
L 149.897487 163.092078 
L 158.309548 170.29161 
L 166.721608 177.154883 
L 175.133668 183.669166 
L 181.863317 188.621678 
L 188.592965 193.338469 
L 195.322613 197.815039 
L 202.052261 202.047508 
L 208.78191 206.032614 
L 215.511558 209.767723 
L 222.241206 213.250825 
L 228.970854 216.480534 
L 235.700503 219.456085 
L 242.430151 222.177333 
L 249.159799 224.644739 
L 255.889447 226.859367 
L 262.619095 228.822873 
L 269.348744 230.53749 
L 276.078392 232.006018 
L 282.80804 233.231804 
L 289.537688 234.21873 
L 296.267337 234.971193 
L 302.996985 235.494082 
L 309.726633 235.792763 
L 316.456281 235.87305 
L 323.18593 235.741186 
L 329.915578 235.403819 
L 336.645226 234.867974 
L 343.374874 234.141028 
L 350.104523 233.230683 
L 358.516583 231.847062 
L 366.928643 230.205609 
L 375.340704 228.323109 
L 383.752764 226.216826 
L 388.8 224.852975 
L 388.8 224.852975 
" style="fill:none;stroke:#3300ff;stroke-linecap:square;stroke-width:2;"/>
   </g>
   <g id="line2d_19">
    <path clip-path="url(#p826f55f5d7)" d="M 54 44.443636 
L 62.41206 56.500537 
L 70.824121 68.175417 
L 79.236181 79.445874 
L 87.648241 90.291293 
L 94.377889 98.649882 
L 101.107538 106.719103 
L 107.837186 114.495991 
L 114.566834 121.981526 
L 121.296482 129.180784 
L 128.026131 136.102299 
L 134.755779 142.756648 
L 141.485427 149.154795 
L 149.897487 156.806762 
L 158.309548 164.087203 
L 165.039196 169.649075 
L 171.768844 174.978635 
L 178.498492 180.074584 
L 185.228141 184.934134 
L 191.957789 189.553548 
L 198.687437 193.928706 
L 205.417085 198.055509 
L 212.146734 201.930317 
L 218.876382 205.550226 
L 225.60603 208.913311 
L 232.335678 212.018729 
L 239.065327 214.866748 
L 245.794975 217.458687 
L 252.524623 219.796747 
L 259.254271 221.883735 
L 265.98392 223.722748 
L 272.713568 225.31671 
L 279.443216 226.667897 
L 286.172864 227.777308 
L 292.902513 228.644009 
L 299.632161 229.264428 
L 306.361809 229.631731 
L 313.091457 229.735484 
L 319.821106 229.561859 
L 324.868342 229.239894 
L 329.915578 228.745714 
L 334.962814 228.07266 
L 340.01005 227.215089 
L 345.057286 226.168845 
L 350.104523 224.931462 
L 355.151759 223.502154 
L 360.198995 221.881656 
L 365.246231 220.071881 
L 370.293467 218.075579 
L 375.340704 215.8961 
L 382.070352 212.711533 
L 388.8 209.216914 
L 388.8 209.216914 
" style="fill:none;stroke:#3300ff;stroke-linecap:square;stroke-width:0.2;"/>
   </g>
   <g id="line2d_20">
    <path clip-path="url(#p826f55f5d7)" d="M 54 80.9948 
L 64.094472 89.926795 
L 75.871357 100.637423 
L 91.013065 114.751699 
L 136.438191 157.438549 
L 146.532663 166.451276 
L 154.944724 173.683772 
L 163.356784 180.621163 
L 171.768844 187.23354 
L 178.498492 192.27458 
L 185.228141 197.085535 
L 191.957789 201.660529 
L 198.687437 205.995303 
L 205.417085 210.086813 
L 212.146734 213.932801 
L 218.876382 217.531527 
L 225.60603 220.88152 
L 232.335678 223.981476 
L 239.065327 226.830217 
L 245.794975 229.42674 
L 252.524623 231.770374 
L 259.254271 233.861034 
L 265.98392 235.699514 
L 272.713568 237.287928 
L 279.443216 238.630149 
L 286.172864 239.732415 
L 292.902513 240.603941 
L 299.632161 241.257592 
L 306.361809 241.710461 
L 314.773869 242.02755 
L 323.18593 242.116364 
L 333.280402 242.003243 
L 348.422111 241.584818 
L 380.38794 240.633036 
L 388.8 240.489037 
L 388.8 240.489037 
" style="fill:none;stroke:#3300ff;stroke-linecap:square;stroke-width:0.2;"/>
   </g>
   <g id="line2d_21">
    <defs>
     <path d="M 0 2.5 
C 0.663008 2.5 1.29895 2.236584 1.767767 1.767767 
C 2.236584 1.29895 2.5 0.663008 2.5 0 
C 2.5 -0.663008 2.236584 -1.29895 1.767767 -1.767767 
C 1.29895 -2.236584 0.663008 -2.5 0 -2.5 
C -0.663008 -2.5 -1.29895 -2.236584 -1.767767 -1.767767 
C -2.236584 -1.29895 -2.5 -0.663008 -2.5 0 
C -2.5 0.663008 -2.236584 1.29895 -1.767767 1.767767 
C -1.29895 2.236584 -0.663008 2.5 0 2.5 
z
" id="m9a30f090b0" style="stroke:#ff0000;"/>
    </defs>
    <g clip-path="url(#p826f55f5d7)">
     <use style="fill:#ff0000;stroke:#ff0000;" x="152.752263" xlink:href="#m9a30f090b0" y="165.612436"/>
     <use style="fill:#ff0000;stroke:#ff0000;" x="153.320795" xlink:href="#m9a30f090b0" y="165.917606"/>
     <use style="fill:#ff0000;stroke:#ff0000;" x="114.494163" xlink:href="#m9a30f090b0" y="128.054025"/>
     <use style="fill:#ff0000;stroke:#ff0000;" x="172.146684" xlink:href="#m9a30f090b0" y="181.418448"/>
     <use style="fill:#ff0000;stroke:#ff0000;" x="188.956357" xlink:href="#m9a30f090b0" y="193.985176"/>
     <use style="fill:#ff0000;stroke:#ff0000;" x="215.183243" xlink:href="#m9a30f090b0" y="210.673563"/>
     <use style="fill:#ff0000;stroke:#ff0000;" x="195.726601" xlink:href="#m9a30f090b0" y="197.923346"/>
     <use style="fill:#ff0000;stroke:#ff0000;" x="211.68837" xlink:href="#m9a30f090b0" y="207.907645"/>
     <use style="fill:#ff0000;stroke:#ff0000;" x="214.923613" xlink:href="#m9a30f090b0" y="209.507186"/>
     <use style="fill:#ff0000;stroke:#ff0000;" x="220.232775" xlink:href="#m9a30f090b0" y="212.208634"/>
     <use style="fill:#ff0000;stroke:#ff0000;" x="210.566774" xlink:href="#m9a30f090b0" y="205.64459"/>
     <use style="fill:#ff0000;stroke:#ff0000;" x="237.721011" xlink:href="#m9a30f090b0" y="219.633666"/>
     <use style="fill:#ff0000;stroke:#ff0000;" x="233.663795" xlink:href="#m9a30f090b0" y="217.327167"/>
     <use style="fill:#ff0000;stroke:#ff0000;" x="262.500539" xlink:href="#m9a30f090b0" y="228.855714"/>
     <use style="fill:#ff0000;stroke:#ff0000;" x="274.442134" xlink:href="#m9a30f090b0" y="232.508987"/>
     <use style="fill:#ff0000;stroke:#ff0000;" x="249.003135" xlink:href="#m9a30f090b0" y="222.737961"/>
     <use style="fill:#ff0000;stroke:#ff0000;" x="278.711826" xlink:href="#m9a30f090b0" y="232.354957"/>
     <use style="fill:#ff0000;stroke:#ff0000;" x="289.077847" xlink:href="#m9a30f090b0" y="235.198587"/>
     <use style="fill:#ff0000;stroke:#ff0000;" x="288.637014" xlink:href="#m9a30f090b0" y="233.855762"/>
     <use style="fill:#ff0000;stroke:#ff0000;" x="296.246422" xlink:href="#m9a30f090b0" y="235.869999"/>
     <use style="fill:#ff0000;stroke:#ff0000;" x="296.556079" xlink:href="#m9a30f090b0" y="234.467932"/>
     <use style="fill:#ff0000;stroke:#ff0000;" x="291.013912" xlink:href="#m9a30f090b0" y="231.091122"/>
     <use style="fill:#ff0000;stroke:#ff0000;" x="298.552207" xlink:href="#m9a30f090b0" y="232.019251"/>
     <use style="fill:#ff0000;stroke:#ff0000;" x="306.906008" xlink:href="#m9a30f090b0" y="234.882628"/>
     <use style="fill:#ff0000;stroke:#ff0000;" x="309.20188" xlink:href="#m9a30f090b0" y="234.013741"/>
     <use style="fill:#ff0000;stroke:#ff0000;" x="313.829243" xlink:href="#m9a30f090b0" y="239.207314"/>
     <use style="fill:#ff0000;stroke:#ff0000;" x="315.432259" xlink:href="#m9a30f090b0" y="237.449793"/>
    </g>
   </g>
   <g id="patch_4">
    <path d="M 54 252 
L 54 34.56 
" style="fill:none;stroke:#000000;stroke-linecap:square;stroke-linejoin:miter;stroke-width:0.8;"/>
   </g>
   <g id="patch_5">
    <path d="M 388.8 252 
L 388.8 34.56 
" style="fill:none;stroke:#000000;stroke-linecap:square;stroke-linejoin:miter;stroke-width:0.8;"/>
   </g>
   <g id="patch_6">
    <path d="M 54 252 
L 388.8 252 
" style="fill:none;stroke:#000000;stroke-linecap:square;stroke-linejoin:miter;stroke-width:0.8;"/>
   </g>
   <g id="patch_7">
    <path d="M 54 34.56 
L 388.8 34.56 
" style="fill:none;stroke:#000000;stroke-linecap:square;stroke-linejoin:miter;stroke-width:0.8;"/>
   </g>
  </g>
 </g>
 <defs>
  <clipPath id="p826f55f5d7">
   <rect height="217.44" width="334.8" x="54" y="34.56"/>
  </clipPath>
 </defs>
</svg>
