<?xml version="1.0" encoding="utf-8" standalone="no"?>
<!DOCTYPE svg PUBLIC "-//W3C//DTD SVG 1.1//EN"
  "http://www.w3.org/Graphics/SVG/1.1/DTD/svg11.dtd">
<!-- Created with matplotlib (http://matplotlib.org/) -->
<svg height="288pt" version="1.1" viewBox="0 0 432 288" width="432pt" xmlns="http://www.w3.org/2000/svg" xmlns:xlink="http://www.w3.org/1999/xlink">
 <defs>
  <style type="text/css">
*{stroke-linecap:butt;stroke-linejoin:round;}
  </style>
 </defs>
 <g id="figure_1">
  <g id="patch_1">
   <path d="M 0 288 
L 432 288 
L 432 0 
L 0 0 
z
" style="fill:none;"/>
  </g>
  <g id="axes_1">
   <g id="patch_2">
    <path d="M 54 252 
L 388.8 252 
L 388.8 34.56 
L 54 34.56 
z
" style="fill:none;"/>
   </g>
   <g id="patch_3">
    <path clip-path="url(#p7c6010ed0f)" d="M 54 178.077981 
L 55.682412 177.739451 
L 57.364824 177.387142 
L 59.047236 177.021121 
L 60.729648 176.641463 
L 62.41206 176.248246 
L 64.094472 175.841558 
L 65.776884 175.421492 
L 67.459296 174.988147 
L 69.141709 174.54163 
L 70.824121 174.082054 
L 72.506533 173.609538 
L 74.188945 173.12421 
L 75.871357 172.626203 
L 77.553769 172.115655 
L 79.236181 171.592712 
L 80.918593 171.057529 
L 82.601005 170.510262 
L 84.283417 169.951077 
L 85.965829 169.380144 
L 87.648241 168.797641 
L 89.330653 168.20375 
L 91.013065 167.598658 
L 92.695477 166.982558 
L 94.377889 166.35565 
L 96.060302 165.718134 
L 97.742714 165.07022 
L 99.425126 164.412118 
L 101.107538 163.744045 
L 102.78995 163.066219 
L 104.472362 162.378863 
L 106.154774 161.682204 
L 107.837186 160.976471 
L 109.519598 160.261895 
L 111.20201 159.538709 
L 112.884422 158.80715 
L 114.566834 158.067455 
L 116.249246 157.319862 
L 117.931658 156.564612 
L 119.61407 155.801946 
L 121.296482 155.032104 
L 122.978894 154.255329 
L 124.661307 153.471863 
L 126.343719 152.681945 
L 128.026131 151.885819 
L 129.708543 151.083724 
L 131.390955 150.2759 
L 133.073367 149.462584 
L 134.755779 148.644015 
L 136.438191 147.820428 
L 138.120603 146.992058 
L 139.803015 146.159135 
L 141.485427 145.321892 
L 143.167839 144.480555 
L 144.850251 143.635352 
L 146.532663 142.786506 
L 148.215075 141.934238 
L 149.897487 141.078768 
L 151.579899 140.220312 
L 153.262312 139.359083 
L 154.944724 138.495293 
L 156.627136 137.62915 
L 158.309548 136.760859 
L 159.99196 135.890623 
L 161.674372 135.018642 
L 163.356784 134.145113 
L 165.039196 133.270229 
L 166.721608 132.394182 
L 168.40402 131.517161 
L 170.086432 130.63935 
L 171.768844 129.760931 
L 173.451256 128.882085 
L 175.133668 128.002987 
L 176.81608 127.123811 
L 178.498492 126.244729 
L 180.180905 125.365907 
L 181.863317 124.487512 
L 183.545729 123.609705 
L 185.228141 122.732647 
L 186.910553 121.856493 
L 188.592965 120.981398 
L 190.275377 120.107513 
L 191.957789 119.234986 
L 193.640201 118.363965 
L 195.322613 117.494591 
L 197.005025 116.627007 
L 198.687437 115.761349 
L 200.369849 114.897754 
L 202.052261 114.036354 
L 203.734673 113.17728 
L 205.417085 112.32066 
L 207.099497 111.46662 
L 208.78191 110.615281 
L 210.464322 109.766766 
L 212.146734 108.921191 
L 213.829146 108.078672 
L 215.511558 107.239322 
L 217.19397 106.403253 
L 218.876382 105.570571 
L 220.558794 104.741382 
L 222.241206 103.915791 
L 223.923618 103.093897 
L 225.60603 102.275799 
L 227.288442 101.461592 
L 228.970854 100.651369 
L 230.653266 99.845222 
L 232.335678 99.043238 
L 234.01809 98.245502 
L 235.700503 97.452098 
L 237.382915 96.663106 
L 239.065327 95.878603 
L 240.747739 95.098665 
L 242.430151 94.323362 
L 244.112563 93.552766 
L 245.794975 92.786941 
L 247.477387 92.025952 
L 249.159799 91.26986 
L 250.842211 90.518722 
L 252.524623 89.772592 
L 254.207035 89.031524 
L 255.889447 88.295565 
L 257.571859 87.564761 
L 259.254271 86.839154 
L 260.936683 86.118784 
L 262.619095 85.403685 
L 264.301508 84.693891 
L 265.98392 83.989429 
L 267.666332 83.290327 
L 269.348744 82.596606 
L 271.031156 81.908283 
L 272.713568 81.225374 
L 274.39598 80.547891 
L 276.078392 79.875839 
L 277.760804 79.209224 
L 279.443216 78.548044 
L 281.125628 77.892296 
L 282.80804 77.241971 
L 284.490452 76.597058 
L 286.172864 75.957541 
L 287.855276 75.3234 
L 289.537688 74.694611 
L 291.220101 74.071146 
L 292.902513 73.452974 
L 294.584925 72.840058 
L 296.267337 72.232359 
L 297.949749 71.629833 
L 299.632161 71.032431 
L 301.314573 70.440102 
L 302.996985 69.852791 
L 304.679397 69.270436 
L 306.361809 68.692975 
L 308.044221 68.120341 
L 309.726633 67.552462 
L 311.409045 66.989264 
L 313.091457 66.430669 
L 314.773869 65.876595 
L 316.456281 65.326957 
L 318.138693 64.781669 
L 319.821106 64.240638 
L 321.503518 63.703771 
L 323.18593 63.170971 
L 324.868342 62.642141 
L 326.550754 62.117177 
L 328.233166 61.595978 
L 329.915578 61.078436 
L 331.59799 60.564447 
L 333.280402 60.0539 
L 334.962814 59.546686 
L 336.645226 59.042695 
L 338.327638 58.541814 
L 340.01005 58.043931 
L 341.692462 57.548935 
L 343.374874 57.056712 
L 345.057286 56.56715 
L 346.739698 56.080137 
L 348.422111 55.595563 
L 350.104523 55.113317 
L 351.786935 54.633291 
L 353.469347 54.155377 
L 355.151759 53.679469 
L 356.834171 53.205465 
L 358.516583 52.733262 
L 360.198995 52.262761 
L 361.881407 51.793866 
L 363.563819 51.326484 
L 365.246231 50.860522 
L 366.928643 50.395895 
L 368.611055 49.932517 
L 370.293467 49.470307 
L 371.975879 49.009188 
L 373.658291 48.549086 
L 375.340704 48.089931 
L 377.023116 47.631657 
L 378.705528 47.174201 
L 380.38794 46.717504 
L 382.070352 46.261512 
L 383.752764 45.806175 
L 385.435176 45.351444 
L 387.117588 44.897278 
L 388.8 44.443636 
L 388.8 106.111675 
L 387.117588 106.021686 
L 385.435176 105.946541 
L 383.752764 105.886238 
L 382.070352 105.840769 
L 380.38794 105.810117 
L 378.705528 105.794261 
L 377.023116 105.793175 
L 375.340704 105.806824 
L 373.658291 105.835166 
L 371.975879 105.878157 
L 370.293467 105.935742 
L 368.611055 106.007861 
L 366.928643 106.094451 
L 365.246231 106.195438 
L 363.563819 106.310745 
L 361.881407 106.440289 
L 360.198995 106.58398 
L 358.516583 106.741724 
L 356.834171 106.913421 
L 355.151759 107.098965 
L 353.469347 107.298245 
L 351.786935 107.511146 
L 350.104523 107.737548 
L 348.422111 107.977328 
L 346.739698 108.230355 
L 345.057286 108.496498 
L 343.374874 108.77562 
L 341.692462 109.067582 
L 340.01005 109.372241 
L 338.327638 109.689451 
L 336.645226 110.019063 
L 334.962814 110.360926 
L 333.280402 110.714888 
L 331.59799 111.080791 
L 329.915578 111.458481 
L 328.233166 111.847798 
L 326.550754 112.248583 
L 324.868342 112.660674 
L 323.18593 113.08391 
L 321.503518 113.51813 
L 319.821106 113.963169 
L 318.138693 114.418867 
L 316.456281 114.885058 
L 314.773869 115.361581 
L 313.091457 115.848273 
L 311.409045 116.344972 
L 309.726633 116.851516 
L 308.044221 117.367744 
L 306.361809 117.893496 
L 304.679397 118.428613 
L 302.996985 118.972936 
L 301.314573 119.526309 
L 299.632161 120.088575 
L 297.949749 120.659578 
L 296.267337 121.239167 
L 294.584925 121.827187 
L 292.902513 122.42349 
L 291.220101 123.027923 
L 289.537688 123.640341 
L 287.855276 124.260596 
L 286.172864 124.888542 
L 284.490452 125.524037 
L 282.80804 126.166937 
L 281.125628 126.817102 
L 279.443216 127.474392 
L 277.760804 128.13867 
L 276.078392 128.809799 
L 274.39598 129.487644 
L 272.713568 130.17207 
L 271.031156 130.862947 
L 269.348744 131.560142 
L 267.666332 132.263526 
L 265.98392 132.972971 
L 264.301508 133.688349 
L 262.619095 134.409535 
L 260.936683 135.136404 
L 259.254271 135.868832 
L 257.571859 136.606697 
L 255.889447 137.349878 
L 254.207035 138.098255 
L 252.524623 138.851708 
L 250.842211 139.610121 
L 249.159799 140.373375 
L 247.477387 141.141356 
L 245.794975 141.913947 
L 244.112563 142.691036 
L 242.430151 143.472509 
L 240.747739 144.258255 
L 239.065327 145.048162 
L 237.382915 145.84212 
L 235.700503 146.640021 
L 234.01809 147.441756 
L 232.335678 148.247217 
L 230.653266 149.0563 
L 228.970854 149.868898 
L 227.288442 150.684907 
L 225.60603 151.504224 
L 223.923618 152.326746 
L 222.241206 153.152372 
L 220.558794 153.981003 
L 218.876382 154.812538 
L 217.19397 155.64688 
L 215.511558 156.483931 
L 213.829146 157.323597 
L 212.146734 158.165782 
L 210.464322 159.010393 
L 208.78191 159.857338 
L 207.099497 160.706526 
L 205.417085 161.557869 
L 203.734673 162.411277 
L 202.052261 163.266666 
L 200.369849 164.123949 
L 198.687437 164.983044 
L 197.005025 165.843869 
L 195.322613 166.706345 
L 193.640201 167.570393 
L 191.957789 168.435936 
L 190.275377 169.302902 
L 188.592965 170.171217 
L 186.910553 171.040811 
L 185.228141 171.911616 
L 183.545729 172.783566 
L 181.863317 173.656598 
L 180.180905 174.53065 
L 178.498492 175.405663 
L 176.81608 176.281581 
L 175.133668 177.158349 
L 173.451256 178.035918 
L 171.768844 178.914237 
L 170.086432 179.793262 
L 168.40402 180.672949 
L 166.721608 181.553258 
L 165.039196 182.434151 
L 163.356784 183.315595 
L 161.674372 184.197558 
L 159.99196 185.080012 
L 158.309548 185.962931 
L 156.627136 186.846294 
L 154.944724 187.730081 
L 153.262312 188.614278 
L 151.579899 189.49887 
L 149.897487 190.383849 
L 148.215075 191.269209 
L 146.532663 192.154947 
L 144.850251 193.041061 
L 143.167839 193.927557 
L 141.485427 194.814439 
L 139.803015 195.701717 
L 138.120603 196.589402 
L 136.438191 197.477511 
L 134.755779 198.36606 
L 133.073367 199.255069 
L 131.390955 200.144563 
L 129.708543 201.034565 
L 128.026131 201.925103 
L 126.343719 202.816208 
L 124.661307 203.707911 
L 122.978894 204.600244 
L 121.296482 205.493244 
L 119.61407 206.386947 
L 117.931658 207.281391 
L 116.249246 208.176614 
L 114.566834 209.072655 
L 112.884422 209.969556 
L 111.20201 210.867355 
L 109.519598 211.766095 
L 107.837186 212.665814 
L 106.154774 213.566552 
L 104.472362 214.46835 
L 102.78995 215.371244 
L 101.107538 216.275273 
L 99.425126 217.18047 
L 97.742714 218.086871 
L 96.060302 218.994507 
L 94.377889 219.903408 
L 92.695477 220.8136 
L 91.013065 221.725108 
L 89.330653 222.637955 
L 87.648241 223.552158 
L 85.965829 224.467732 
L 84.283417 225.384691 
L 82.601005 226.303041 
L 80.918593 227.222788 
L 79.236181 228.143932 
L 77.553769 229.06647 
L 75.871357 229.990393 
L 74.188945 230.915691 
L 72.506533 231.842348 
L 70.824121 232.770342 
L 69.141709 233.699651 
L 67.459296 234.630244 
L 65.776884 235.562089 
L 64.094472 236.495148 
L 62.41206 237.429379 
L 60.729648 238.364736 
L 59.047236 239.30117 
L 57.364824 240.238625 
L 55.682412 241.177043 
L 54 242.116364 
z
" style="fill:#cc3300;opacity:0.3;stroke:#cc3300;stroke-linejoin:miter;stroke-width:0.5;"/>
   </g>
   <g id="matplotlib.axis_1">
    <g id="xtick_1">
     <g id="line2d_1">
      <defs>
       <path d="M 0 0 
L 0 3.5 
" id="m45af68e315" style="stroke:#000000;stroke-width:0.8;"/>
      </defs>
      <g>
       <use style="stroke:#000000;stroke-width:0.8;" x="64.8" xlink:href="#m45af68e315" y="252"/>
      </g>
     </g>
     <g id="text_1">
      <!-- 1880 -->
      <defs>
       <path d="M 12.40625 8.296875 
L 28.515625 8.296875 
L 28.515625 63.921875 
L 10.984375 60.40625 
L 10.984375 69.390625 
L 28.421875 72.90625 
L 38.28125 72.90625 
L 38.28125 8.296875 
L 54.390625 8.296875 
L 54.390625 0 
L 12.40625 0 
z
" id="DejaVuSans-31"/>
       <path d="M 31.78125 34.625 
Q 24.75 34.625 20.71875 30.859375 
Q 16.703125 27.09375 16.703125 20.515625 
Q 16.703125 13.921875 20.71875 10.15625 
Q 24.75 6.390625 31.78125 6.390625 
Q 38.8125 6.390625 42.859375 10.171875 
Q 46.921875 13.96875 46.921875 20.515625 
Q 46.921875 27.09375 42.890625 30.859375 
Q 38.875 34.625 31.78125 34.625 
z
M 21.921875 38.8125 
Q 15.578125 40.375 12.03125 44.71875 
Q 8.5 49.078125 8.5 55.328125 
Q 8.5 64.0625 14.71875 69.140625 
Q 20.953125 74.21875 31.78125 74.21875 
Q 42.671875 74.21875 48.875 69.140625 
Q 55.078125 64.0625 55.078125 55.328125 
Q 55.078125 49.078125 51.53125 44.71875 
Q 48 40.375 41.703125 38.8125 
Q 48.828125 37.15625 52.796875 32.3125 
Q 56.78125 27.484375 56.78125 20.515625 
Q 56.78125 9.90625 50.3125 4.234375 
Q 43.84375 -1.421875 31.78125 -1.421875 
Q 19.734375 -1.421875 13.25 4.234375 
Q 6.78125 9.90625 6.78125 20.515625 
Q 6.78125 27.484375 10.78125 32.3125 
Q 14.796875 37.15625 21.921875 38.8125 
z
M 18.3125 54.390625 
Q 18.3125 48.734375 21.84375 45.5625 
Q 25.390625 42.390625 31.78125 42.390625 
Q 38.140625 42.390625 41.71875 45.5625 
Q 45.3125 48.734375 45.3125 54.390625 
Q 45.3125 60.0625 41.71875 63.234375 
Q 38.140625 66.40625 31.78125 66.40625 
Q 25.390625 66.40625 21.84375 63.234375 
Q 18.3125 60.0625 18.3125 54.390625 
z
" id="DejaVuSans-38"/>
       <path d="M 31.78125 66.40625 
Q 24.171875 66.40625 20.328125 58.90625 
Q 16.5 51.421875 16.5 36.375 
Q 16.5 21.390625 20.328125 13.890625 
Q 24.171875 6.390625 31.78125 6.390625 
Q 39.453125 6.390625 43.28125 13.890625 
Q 47.125 21.390625 47.125 36.375 
Q 47.125 51.421875 43.28125 58.90625 
Q 39.453125 66.40625 31.78125 66.40625 
z
M 31.78125 74.21875 
Q 44.046875 74.21875 50.515625 64.515625 
Q 56.984375 54.828125 56.984375 36.375 
Q 56.984375 17.96875 50.515625 8.265625 
Q 44.046875 -1.421875 31.78125 -1.421875 
Q 19.53125 -1.421875 13.0625 8.265625 
Q 6.59375 17.96875 6.59375 36.375 
Q 6.59375 54.828125 13.0625 64.515625 
Q 19.53125 74.21875 31.78125 74.21875 
z
" id="DejaVuSans-30"/>
      </defs>
      <g transform="translate(52.075 266.598437)scale(0.1 -0.1)">
       <use xlink:href="#DejaVuSans-31"/>
       <use x="63.623047" xlink:href="#DejaVuSans-38"/>
       <use x="127.246094" xlink:href="#DejaVuSans-38"/>
       <use x="190.869141" xlink:href="#DejaVuSans-30"/>
      </g>
     </g>
    </g>
    <g id="xtick_2">
     <g id="line2d_2">
      <g>
       <use style="stroke:#000000;stroke-width:0.8;" x="108" xlink:href="#m45af68e315" y="252"/>
      </g>
     </g>
     <g id="text_2">
      <!-- 1900 -->
      <defs>
       <path d="M 10.984375 1.515625 
L 10.984375 10.5 
Q 14.703125 8.734375 18.5 7.8125 
Q 22.3125 6.890625 25.984375 6.890625 
Q 35.75 6.890625 40.890625 13.453125 
Q 46.046875 20.015625 46.78125 33.40625 
Q 43.953125 29.203125 39.59375 26.953125 
Q 35.25 24.703125 29.984375 24.703125 
Q 19.046875 24.703125 12.671875 31.3125 
Q 6.296875 37.9375 6.296875 49.421875 
Q 6.296875 60.640625 12.9375 67.421875 
Q 19.578125 74.21875 30.609375 74.21875 
Q 43.265625 74.21875 49.921875 64.515625 
Q 56.59375 54.828125 56.59375 36.375 
Q 56.59375 19.140625 48.40625 8.859375 
Q 40.234375 -1.421875 26.421875 -1.421875 
Q 22.703125 -1.421875 18.890625 -0.6875 
Q 15.09375 0.046875 10.984375 1.515625 
z
M 30.609375 32.421875 
Q 37.25 32.421875 41.125 36.953125 
Q 45.015625 41.5 45.015625 49.421875 
Q 45.015625 57.28125 41.125 61.84375 
Q 37.25 66.40625 30.609375 66.40625 
Q 23.96875 66.40625 20.09375 61.84375 
Q 16.21875 57.28125 16.21875 49.421875 
Q 16.21875 41.5 20.09375 36.953125 
Q 23.96875 32.421875 30.609375 32.421875 
z
" id="DejaVuSans-39"/>
      </defs>
      <g transform="translate(95.275 266.598437)scale(0.1 -0.1)">
       <use xlink:href="#DejaVuSans-31"/>
       <use x="63.623047" xlink:href="#DejaVuSans-39"/>
       <use x="127.246094" xlink:href="#DejaVuSans-30"/>
       <use x="190.869141" xlink:href="#DejaVuSans-30"/>
      </g>
     </g>
    </g>
    <g id="xtick_3">
     <g id="line2d_3">
      <g>
       <use style="stroke:#000000;stroke-width:0.8;" x="151.2" xlink:href="#m45af68e315" y="252"/>
      </g>
     </g>
     <g id="text_3">
      <!-- 1920 -->
      <defs>
       <path d="M 19.1875 8.296875 
L 53.609375 8.296875 
L 53.609375 0 
L 7.328125 0 
L 7.328125 8.296875 
Q 12.9375 14.109375 22.625 23.890625 
Q 32.328125 33.6875 34.8125 36.53125 
Q 39.546875 41.84375 41.421875 45.53125 
Q 43.3125 49.21875 43.3125 52.78125 
Q 43.3125 58.59375 39.234375 62.25 
Q 35.15625 65.921875 28.609375 65.921875 
Q 23.96875 65.921875 18.8125 64.3125 
Q 13.671875 62.703125 7.8125 59.421875 
L 7.8125 69.390625 
Q 13.765625 71.78125 18.9375 73 
Q 24.125 74.21875 28.421875 74.21875 
Q 39.75 74.21875 46.484375 68.546875 
Q 53.21875 62.890625 53.21875 53.421875 
Q 53.21875 48.921875 51.53125 44.890625 
Q 49.859375 40.875 45.40625 35.40625 
Q 44.1875 33.984375 37.640625 27.21875 
Q 31.109375 20.453125 19.1875 8.296875 
z
" id="DejaVuSans-32"/>
      </defs>
      <g transform="translate(138.475 266.598437)scale(0.1 -0.1)">
       <use xlink:href="#DejaVuSans-31"/>
       <use x="63.623047" xlink:href="#DejaVuSans-39"/>
       <use x="127.246094" xlink:href="#DejaVuSans-32"/>
       <use x="190.869141" xlink:href="#DejaVuSans-30"/>
      </g>
     </g>
    </g>
    <g id="xtick_4">
     <g id="line2d_4">
      <g>
       <use style="stroke:#000000;stroke-width:0.8;" x="194.4" xlink:href="#m45af68e315" y="252"/>
      </g>
     </g>
     <g id="text_4">
      <!-- 1940 -->
      <defs>
       <path d="M 37.796875 64.3125 
L 12.890625 25.390625 
L 37.796875 25.390625 
z
M 35.203125 72.90625 
L 47.609375 72.90625 
L 47.609375 25.390625 
L 58.015625 25.390625 
L 58.015625 17.1875 
L 47.609375 17.1875 
L 47.609375 0 
L 37.796875 0 
L 37.796875 17.1875 
L 4.890625 17.1875 
L 4.890625 26.703125 
z
" id="DejaVuSans-34"/>
      </defs>
      <g transform="translate(181.675 266.598437)scale(0.1 -0.1)">
       <use xlink:href="#DejaVuSans-31"/>
       <use x="63.623047" xlink:href="#DejaVuSans-39"/>
       <use x="127.246094" xlink:href="#DejaVuSans-34"/>
       <use x="190.869141" xlink:href="#DejaVuSans-30"/>
      </g>
     </g>
    </g>
    <g id="xtick_5">
     <g id="line2d_5">
      <g>
       <use style="stroke:#000000;stroke-width:0.8;" x="237.6" xlink:href="#m45af68e315" y="252"/>
      </g>
     </g>
     <g id="text_5">
      <!-- 1960 -->
      <defs>
       <path d="M 33.015625 40.375 
Q 26.375 40.375 22.484375 35.828125 
Q 18.609375 31.296875 18.609375 23.390625 
Q 18.609375 15.53125 22.484375 10.953125 
Q 26.375 6.390625 33.015625 6.390625 
Q 39.65625 6.390625 43.53125 10.953125 
Q 47.40625 15.53125 47.40625 23.390625 
Q 47.40625 31.296875 43.53125 35.828125 
Q 39.65625 40.375 33.015625 40.375 
z
M 52.59375 71.296875 
L 52.59375 62.3125 
Q 48.875 64.0625 45.09375 64.984375 
Q 41.3125 65.921875 37.59375 65.921875 
Q 27.828125 65.921875 22.671875 59.328125 
Q 17.53125 52.734375 16.796875 39.40625 
Q 19.671875 43.65625 24.015625 45.921875 
Q 28.375 48.1875 33.59375 48.1875 
Q 44.578125 48.1875 50.953125 41.515625 
Q 57.328125 34.859375 57.328125 23.390625 
Q 57.328125 12.15625 50.6875 5.359375 
Q 44.046875 -1.421875 33.015625 -1.421875 
Q 20.359375 -1.421875 13.671875 8.265625 
Q 6.984375 17.96875 6.984375 36.375 
Q 6.984375 53.65625 15.1875 63.9375 
Q 23.390625 74.21875 37.203125 74.21875 
Q 40.921875 74.21875 44.703125 73.484375 
Q 48.484375 72.75 52.59375 71.296875 
z
" id="DejaVuSans-36"/>
      </defs>
      <g transform="translate(224.875 266.598437)scale(0.1 -0.1)">
       <use xlink:href="#DejaVuSans-31"/>
       <use x="63.623047" xlink:href="#DejaVuSans-39"/>
       <use x="127.246094" xlink:href="#DejaVuSans-36"/>
       <use x="190.869141" xlink:href="#DejaVuSans-30"/>
      </g>
     </g>
    </g>
    <g id="xtick_6">
     <g id="line2d_6">
      <g>
       <use style="stroke:#000000;stroke-width:0.8;" x="280.8" xlink:href="#m45af68e315" y="252"/>
      </g>
     </g>
     <g id="text_6">
      <!-- 1980 -->
      <g transform="translate(268.075 266.598437)scale(0.1 -0.1)">
       <use xlink:href="#DejaVuSans-31"/>
       <use x="63.623047" xlink:href="#DejaVuSans-39"/>
       <use x="127.246094" xlink:href="#DejaVuSans-38"/>
       <use x="190.869141" xlink:href="#DejaVuSans-30"/>
      </g>
     </g>
    </g>
    <g id="xtick_7">
     <g id="line2d_7">
      <g>
       <use style="stroke:#000000;stroke-width:0.8;" x="324" xlink:href="#m45af68e315" y="252"/>
      </g>
     </g>
     <g id="text_7">
      <!-- 2000 -->
      <g transform="translate(311.275 266.598437)scale(0.1 -0.1)">
       <use xlink:href="#DejaVuSans-32"/>
       <use x="63.623047" xlink:href="#DejaVuSans-30"/>
       <use x="127.246094" xlink:href="#DejaVuSans-30"/>
       <use x="190.869141" xlink:href="#DejaVuSans-30"/>
      </g>
     </g>
    </g>
    <g id="xtick_8">
     <g id="line2d_8">
      <g>
       <use style="stroke:#000000;stroke-width:0.8;" x="367.2" xlink:href="#m45af68e315" y="252"/>
      </g>
     </g>
     <g id="text_8">
      <!-- 2020 -->
      <g transform="translate(354.475 266.598437)scale(0.1 -0.1)">
       <use xlink:href="#DejaVuSans-32"/>
       <use x="63.623047" xlink:href="#DejaVuSans-30"/>
       <use x="127.246094" xlink:href="#DejaVuSans-32"/>
       <use x="190.869141" xlink:href="#DejaVuSans-30"/>
      </g>
     </g>
    </g>
    <g id="text_9">
     <!-- year -->
     <defs>
      <path d="M 32.171875 -5.078125 
Q 28.375 -14.84375 24.75 -17.8125 
Q 21.140625 -20.796875 15.09375 -20.796875 
L 7.90625 -20.796875 
L 7.90625 -13.28125 
L 13.1875 -13.28125 
Q 16.890625 -13.28125 18.9375 -11.515625 
Q 21 -9.765625 23.484375 -3.21875 
L 25.09375 0.875 
L 2.984375 54.6875 
L 12.5 54.6875 
L 29.59375 11.921875 
L 46.6875 54.6875 
L 56.203125 54.6875 
z
" id="DejaVuSans-79"/>
      <path d="M 56.203125 29.59375 
L 56.203125 25.203125 
L 14.890625 25.203125 
Q 15.484375 15.921875 20.484375 11.0625 
Q 25.484375 6.203125 34.421875 6.203125 
Q 39.59375 6.203125 44.453125 7.46875 
Q 49.3125 8.734375 54.109375 11.28125 
L 54.109375 2.78125 
Q 49.265625 0.734375 44.1875 -0.34375 
Q 39.109375 -1.421875 33.890625 -1.421875 
Q 20.796875 -1.421875 13.15625 6.1875 
Q 5.515625 13.8125 5.515625 26.8125 
Q 5.515625 40.234375 12.765625 48.109375 
Q 20.015625 56 32.328125 56 
Q 43.359375 56 49.78125 48.890625 
Q 56.203125 41.796875 56.203125 29.59375 
z
M 47.21875 32.234375 
Q 47.125 39.59375 43.09375 43.984375 
Q 39.0625 48.390625 32.421875 48.390625 
Q 24.90625 48.390625 20.390625 44.140625 
Q 15.875 39.890625 15.1875 32.171875 
z
" id="DejaVuSans-65"/>
      <path d="M 34.28125 27.484375 
Q 23.390625 27.484375 19.1875 25 
Q 14.984375 22.515625 14.984375 16.5 
Q 14.984375 11.71875 18.140625 8.90625 
Q 21.296875 6.109375 26.703125 6.109375 
Q 34.1875 6.109375 38.703125 11.40625 
Q 43.21875 16.703125 43.21875 25.484375 
L 43.21875 27.484375 
z
M 52.203125 31.203125 
L 52.203125 0 
L 43.21875 0 
L 43.21875 8.296875 
Q 40.140625 3.328125 35.546875 0.953125 
Q 30.953125 -1.421875 24.3125 -1.421875 
Q 15.921875 -1.421875 10.953125 3.296875 
Q 6 8.015625 6 15.921875 
Q 6 25.140625 12.171875 29.828125 
Q 18.359375 34.515625 30.609375 34.515625 
L 43.21875 34.515625 
L 43.21875 35.40625 
Q 43.21875 41.609375 39.140625 45 
Q 35.0625 48.390625 27.6875 48.390625 
Q 23 48.390625 18.546875 47.265625 
Q 14.109375 46.140625 10.015625 43.890625 
L 10.015625 52.203125 
Q 14.9375 54.109375 19.578125 55.046875 
Q 24.21875 56 28.609375 56 
Q 40.484375 56 46.34375 49.84375 
Q 52.203125 43.703125 52.203125 31.203125 
z
" id="DejaVuSans-61"/>
      <path d="M 41.109375 46.296875 
Q 39.59375 47.171875 37.8125 47.578125 
Q 36.03125 48 33.890625 48 
Q 26.265625 48 22.1875 43.046875 
Q 18.109375 38.09375 18.109375 28.8125 
L 18.109375 0 
L 9.078125 0 
L 9.078125 54.6875 
L 18.109375 54.6875 
L 18.109375 46.1875 
Q 20.953125 51.171875 25.484375 53.578125 
Q 30.03125 56 36.53125 56 
Q 37.453125 56 38.578125 55.875 
Q 39.703125 55.765625 41.0625 55.515625 
z
" id="DejaVuSans-72"/>
     </defs>
     <g transform="translate(199.089063 287.875)scale(0.2 -0.2)">
      <use xlink:href="#DejaVuSans-79"/>
      <use x="59.179688" xlink:href="#DejaVuSans-65"/>
      <use x="120.703125" xlink:href="#DejaVuSans-61"/>
      <use x="181.982422" xlink:href="#DejaVuSans-72"/>
     </g>
    </g>
   </g>
   <g id="matplotlib.axis_2">
    <g id="ytick_1">
     <g id="line2d_9">
      <defs>
       <path d="M 0 0 
L -3.5 0 
" id="me7592d71ad" style="stroke:#000000;stroke-width:0.8;"/>
      </defs>
      <g>
       <use style="stroke:#000000;stroke-width:0.8;" x="54" xlink:href="#me7592d71ad" y="234.745073"/>
      </g>
     </g>
     <g id="text_10">
      <!-- −0.75 -->
      <defs>
       <path d="M 10.59375 35.5 
L 73.1875 35.5 
L 73.1875 27.203125 
L 10.59375 27.203125 
z
" id="DejaVuSans-2212"/>
       <path d="M 10.6875 12.40625 
L 21 12.40625 
L 21 0 
L 10.6875 0 
z
" id="DejaVuSans-2e"/>
       <path d="M 8.203125 72.90625 
L 55.078125 72.90625 
L 55.078125 68.703125 
L 28.609375 0 
L 18.3125 0 
L 43.21875 64.59375 
L 8.203125 64.59375 
z
" id="DejaVuSans-37"/>
       <path d="M 10.796875 72.90625 
L 49.515625 72.90625 
L 49.515625 64.59375 
L 19.828125 64.59375 
L 19.828125 46.734375 
Q 21.96875 47.46875 24.109375 47.828125 
Q 26.265625 48.1875 28.421875 48.1875 
Q 40.625 48.1875 47.75 41.5 
Q 54.890625 34.8125 54.890625 23.390625 
Q 54.890625 11.625 47.5625 5.09375 
Q 40.234375 -1.421875 26.90625 -1.421875 
Q 22.3125 -1.421875 17.546875 -0.640625 
Q 12.796875 0.140625 7.71875 1.703125 
L 7.71875 11.625 
Q 12.109375 9.234375 16.796875 8.0625 
Q 21.484375 6.890625 26.703125 6.890625 
Q 35.15625 6.890625 40.078125 11.328125 
Q 45.015625 15.765625 45.015625 23.390625 
Q 45.015625 31 40.078125 35.4375 
Q 35.15625 39.890625 26.703125 39.890625 
Q 22.75 39.890625 18.8125 39.015625 
Q 14.890625 38.140625 10.796875 36.28125 
z
" id="DejaVuSans-35"/>
      </defs>
      <g transform="translate(16.354687 238.544292)scale(0.1 -0.1)">
       <use xlink:href="#DejaVuSans-2212"/>
       <use x="83.789062" xlink:href="#DejaVuSans-30"/>
       <use x="147.412109" xlink:href="#DejaVuSans-2e"/>
       <use x="179.199219" xlink:href="#DejaVuSans-37"/>
       <use x="242.822266" xlink:href="#DejaVuSans-35"/>
      </g>
     </g>
    </g>
    <g id="ytick_2">
     <g id="line2d_10">
      <g>
       <use style="stroke:#000000;stroke-width:0.8;" x="54" xlink:href="#me7592d71ad" y="207.96977"/>
      </g>
     </g>
     <g id="text_11">
      <!-- −0.50 -->
      <g transform="translate(16.354687 211.768989)scale(0.1 -0.1)">
       <use xlink:href="#DejaVuSans-2212"/>
       <use x="83.789062" xlink:href="#DejaVuSans-30"/>
       <use x="147.412109" xlink:href="#DejaVuSans-2e"/>
       <use x="179.199219" xlink:href="#DejaVuSans-35"/>
       <use x="242.822266" xlink:href="#DejaVuSans-30"/>
      </g>
     </g>
    </g>
    <g id="ytick_3">
     <g id="line2d_11">
      <g>
       <use style="stroke:#000000;stroke-width:0.8;" x="54" xlink:href="#me7592d71ad" y="181.194467"/>
      </g>
     </g>
     <g id="text_12">
      <!-- −0.25 -->
      <g transform="translate(16.354687 184.993685)scale(0.1 -0.1)">
       <use xlink:href="#DejaVuSans-2212"/>
       <use x="83.789062" xlink:href="#DejaVuSans-30"/>
       <use x="147.412109" xlink:href="#DejaVuSans-2e"/>
       <use x="179.199219" xlink:href="#DejaVuSans-32"/>
       <use x="242.822266" xlink:href="#DejaVuSans-35"/>
      </g>
     </g>
    </g>
    <g id="ytick_4">
     <g id="line2d_12">
      <g>
       <use style="stroke:#000000;stroke-width:0.8;" x="54" xlink:href="#me7592d71ad" y="154.419163"/>
      </g>
     </g>
     <g id="text_13">
      <!-- 0.00 -->
      <g transform="translate(24.734375 158.218382)scale(0.1 -0.1)">
       <use xlink:href="#DejaVuSans-30"/>
       <use x="63.623047" xlink:href="#DejaVuSans-2e"/>
       <use x="95.410156" xlink:href="#DejaVuSans-30"/>
       <use x="159.033203" xlink:href="#DejaVuSans-30"/>
      </g>
     </g>
    </g>
    <g id="ytick_5">
     <g id="line2d_13">
      <g>
       <use style="stroke:#000000;stroke-width:0.8;" x="54" xlink:href="#me7592d71ad" y="127.64386"/>
      </g>
     </g>
     <g id="text_14">
      <!-- 0.25 -->
      <g transform="translate(24.734375 131.443079)scale(0.1 -0.1)">
       <use xlink:href="#DejaVuSans-30"/>
       <use x="63.623047" xlink:href="#DejaVuSans-2e"/>
       <use x="95.410156" xlink:href="#DejaVuSans-32"/>
       <use x="159.033203" xlink:href="#DejaVuSans-35"/>
      </g>
     </g>
    </g>
    <g id="ytick_6">
     <g id="line2d_14">
      <g>
       <use style="stroke:#000000;stroke-width:0.8;" x="54" xlink:href="#me7592d71ad" y="100.868557"/>
      </g>
     </g>
     <g id="text_15">
      <!-- 0.50 -->
      <g transform="translate(24.734375 104.667776)scale(0.1 -0.1)">
       <use xlink:href="#DejaVuSans-30"/>
       <use x="63.623047" xlink:href="#DejaVuSans-2e"/>
       <use x="95.410156" xlink:href="#DejaVuSans-35"/>
       <use x="159.033203" xlink:href="#DejaVuSans-30"/>
      </g>
     </g>
    </g>
    <g id="ytick_7">
     <g id="line2d_15">
      <g>
       <use style="stroke:#000000;stroke-width:0.8;" x="54" xlink:href="#me7592d71ad" y="74.093254"/>
      </g>
     </g>
     <g id="text_16">
      <!-- 0.75 -->
      <g transform="translate(24.734375 77.892472)scale(0.1 -0.1)">
       <use xlink:href="#DejaVuSans-30"/>
       <use x="63.623047" xlink:href="#DejaVuSans-2e"/>
       <use x="95.410156" xlink:href="#DejaVuSans-37"/>
       <use x="159.033203" xlink:href="#DejaVuSans-35"/>
      </g>
     </g>
    </g>
    <g id="ytick_8">
     <g id="line2d_16">
      <g>
       <use style="stroke:#000000;stroke-width:0.8;" x="54" xlink:href="#me7592d71ad" y="47.31795"/>
      </g>
     </g>
     <g id="text_17">
      <!-- 1.00 -->
      <g transform="translate(24.734375 51.117169)scale(0.1 -0.1)">
       <use xlink:href="#DejaVuSans-31"/>
       <use x="63.623047" xlink:href="#DejaVuSans-2e"/>
       <use x="95.410156" xlink:href="#DejaVuSans-30"/>
       <use x="159.033203" xlink:href="#DejaVuSans-30"/>
      </g>
     </g>
    </g>
    <g id="text_18">
     <!-- layer 1 -->
     <defs>
      <path d="M 9.421875 75.984375 
L 18.40625 75.984375 
L 18.40625 0 
L 9.421875 0 
z
" id="DejaVuSans-6c"/>
      <path id="DejaVuSans-20"/>
     </defs>
     <g transform="translate(8.195312 177.909688)rotate(-90)scale(0.2 -0.2)">
      <use xlink:href="#DejaVuSans-6c"/>
      <use x="27.783203" xlink:href="#DejaVuSans-61"/>
      <use x="89.0625" xlink:href="#DejaVuSans-79"/>
      <use x="148.242188" xlink:href="#DejaVuSans-65"/>
      <use x="209.765625" xlink:href="#DejaVuSans-72"/>
      <use x="250.878906" xlink:href="#DejaVuSans-20"/>
      <use x="282.666016" xlink:href="#DejaVuSans-31"/>
     </g>
    </g>
   </g>
   <g id="line2d_17">
    <path clip-path="url(#p7c6010ed0f)" d="M 54 210.097173 
L 64.094472 206.168353 
L 74.188945 202.019951 
L 85.965829 196.923938 
L 97.742714 191.578546 
L 111.20201 185.203032 
L 126.343719 177.749077 
L 143.167839 169.204056 
L 168.40402 156.095055 
L 200.369849 139.510852 
L 217.19397 131.025066 
L 232.335678 123.645228 
L 245.794975 117.350444 
L 257.571859 112.085729 
L 269.348744 107.078374 
L 279.443216 103.011218 
L 289.537688 99.167476 
L 299.632161 95.560503 
L 309.726633 92.201989 
L 319.821106 89.101904 
L 329.915578 86.268459 
L 340.01005 83.708086 
L 348.422111 81.786445 
L 356.834171 80.059443 
L 365.246231 78.52798 
L 373.658291 77.192126 
L 382.070352 76.05114 
L 388.8 75.277656 
L 388.8 75.277656 
" style="fill:none;stroke:#3300ff;stroke-linecap:square;stroke-width:2;"/>
   </g>
   <g id="line2d_18">
    <path clip-path="url(#p7c6010ed0f)" d="M 54 178.077981 
L 60.729648 176.641463 
L 67.459296 174.988147 
L 74.188945 173.12421 
L 80.918593 171.057529 
L 87.648241 168.797641 
L 96.060302 165.718134 
L 104.472362 162.378863 
L 112.884422 158.80715 
L 122.978894 154.255329 
L 133.073367 149.462584 
L 144.850251 143.635352 
L 159.99196 135.890623 
L 215.511558 107.239322 
L 228.970854 100.651369 
L 242.430151 94.323362 
L 254.207035 89.031524 
L 265.98392 83.989429 
L 277.760804 79.209224 
L 289.537688 74.694611 
L 301.314573 70.440102 
L 313.091457 66.430669 
L 324.868342 62.642141 
L 338.327638 58.541814 
L 353.469347 54.155377 
L 373.658291 48.549086 
L 388.8 44.443636 
L 388.8 44.443636 
" style="fill:none;stroke:#3300ff;stroke-linecap:square;stroke-width:0.2;"/>
   </g>
   <g id="line2d_19">
    <path clip-path="url(#p7c6010ed0f)" d="M 54 242.116364 
L 79.236181 228.143932 
L 102.78995 215.371244 
L 131.390955 200.144563 
L 171.768844 178.914237 
L 198.687437 164.983044 
L 217.19397 155.64688 
L 232.335678 148.247217 
L 245.794975 141.913947 
L 257.571859 136.606697 
L 269.348744 131.560142 
L 279.443216 127.474392 
L 289.537688 123.640341 
L 297.949749 120.659578 
L 306.361809 117.893496 
L 314.773869 115.361581 
L 323.18593 113.08391 
L 331.59799 111.080791 
L 338.327638 109.689451 
L 345.057286 108.496498 
L 351.786935 107.511146 
L 358.516583 106.741724 
L 365.246231 106.195438 
L 371.975879 105.878157 
L 378.705528 105.794261 
L 385.435176 105.946541 
L 388.8 106.111675 
L 388.8 106.111675 
" style="fill:none;stroke:#3300ff;stroke-linecap:square;stroke-width:0.2;"/>
   </g>
   <g id="line2d_20">
    <defs>
     <path d="M 0 2.5 
C 0.663008 2.5 1.29895 2.236584 1.767767 1.767767 
C 2.236584 1.29895 2.5 0.663008 2.5 0 
C 2.5 -0.663008 2.236584 -1.29895 1.767767 -1.767767 
C 1.29895 -2.236584 0.663008 -2.5 0 -2.5 
C -0.663008 -2.5 -1.29895 -2.236584 -1.767767 -1.767767 
C -2.236584 -1.29895 -2.5 -0.663008 -2.5 0 
C -2.5 0.663008 -2.236584 1.29895 -1.767767 1.767767 
C -1.29895 2.236584 -0.663008 2.5 0 2.5 
z
" id="ma8ebffc0a7" style="stroke:#ff0000;"/>
    </defs>
    <g clip-path="url(#p7c6010ed0f)">
     <use style="fill:#ff0000;stroke:#ff0000;" x="99.36" xlink:href="#ma8ebffc0a7" y="188.096756"/>
     <use style="fill:#ff0000;stroke:#ff0000;" x="108" xlink:href="#ma8ebffc0a7" y="187.727964"/>
     <use style="fill:#ff0000;stroke:#ff0000;" x="116.64" xlink:href="#ma8ebffc0a7" y="214.135759"/>
     <use style="fill:#ff0000;stroke:#ff0000;" x="125.28" xlink:href="#ma8ebffc0a7" y="175.367927"/>
     <use style="fill:#ff0000;stroke:#ff0000;" x="133.92" xlink:href="#ma8ebffc0a7" y="164.451285"/>
     <use style="fill:#ff0000;stroke:#ff0000;" x="151.2" xlink:href="#ma8ebffc0a7" y="147.497701"/>
     <use style="fill:#ff0000;stroke:#ff0000;" x="159.84" xlink:href="#ma8ebffc0a7" y="160.096837"/>
     <use style="fill:#ff0000;stroke:#ff0000;" x="168.48" xlink:href="#ma8ebffc0a7" y="149.782893"/>
     <use style="fill:#ff0000;stroke:#ff0000;" x="177.12" xlink:href="#ma8ebffc0a7" y="147.696663"/>
     <use style="fill:#ff0000;stroke:#ff0000;" x="185.76" xlink:href="#ma8ebffc0a7" y="144.264182"/>
     <use style="fill:#ff0000;stroke:#ff0000;" x="211.68" xlink:href="#ma8ebffc0a7" y="150.541293"/>
     <use style="fill:#ff0000;stroke:#ff0000;" x="220.32" xlink:href="#ma8ebffc0a7" y="132.891435"/>
     <use style="fill:#ff0000;stroke:#ff0000;" x="228.96" xlink:href="#ma8ebffc0a7" y="135.550792"/>
     <use style="fill:#ff0000;stroke:#ff0000;" x="237.6" xlink:href="#ma8ebffc0a7" y="116.488217"/>
     <use style="fill:#ff0000;stroke:#ff0000;" x="246.24" xlink:href="#ma8ebffc0a7" y="108.510274"/>
     <use style="fill:#ff0000;stroke:#ff0000;" x="254.88" xlink:href="#ma8ebffc0a7" y="125.457188"/>
     <use style="fill:#ff0000;stroke:#ff0000;" x="263.52" xlink:href="#ma8ebffc0a7" y="105.596704"/>
     <use style="fill:#ff0000;stroke:#ff0000;" x="272.16" xlink:href="#ma8ebffc0a7" y="98.777328"/>
     <use style="fill:#ff0000;stroke:#ff0000;" x="280.8" xlink:href="#ma8ebffc0a7" y="99.007077"/>
     <use style="fill:#ff0000;stroke:#ff0000;" x="289.44" xlink:href="#ma8ebffc0a7" y="94.059398"/>
     <use style="fill:#ff0000;stroke:#ff0000;" x="298.08" xlink:href="#ma8ebffc0a7" y="93.872252"/>
     <use style="fill:#ff0000;stroke:#ff0000;" x="306.72" xlink:href="#ma8ebffc0a7" y="97.466252"/>
     <use style="fill:#ff0000;stroke:#ff0000;" x="315.36" xlink:href="#ma8ebffc0a7" y="92.871752"/>
     <use style="fill:#ff0000;stroke:#ff0000;" x="324" xlink:href="#ma8ebffc0a7" y="87.336082"/>
     <use style="fill:#ff0000;stroke:#ff0000;" x="332.64" xlink:href="#ma8ebffc0a7" y="86.072211"/>
     <use style="fill:#ff0000;stroke:#ff0000;" x="341.28" xlink:href="#ma8ebffc0a7" y="82.532215"/>
     <use style="fill:#ff0000;stroke:#ff0000;" x="349.92" xlink:href="#ma8ebffc0a7" y="81.723365"/>
    </g>
   </g>
   <g id="patch_4">
    <path d="M 54 252 
L 54 34.56 
" style="fill:none;stroke:#000000;stroke-linecap:square;stroke-linejoin:miter;stroke-width:0.8;"/>
   </g>
   <g id="patch_5">
    <path d="M 388.8 252 
L 388.8 34.56 
" style="fill:none;stroke:#000000;stroke-linecap:square;stroke-linejoin:miter;stroke-width:0.8;"/>
   </g>
   <g id="patch_6">
    <path d="M 54 252 
L 388.8 252 
" style="fill:none;stroke:#000000;stroke-linecap:square;stroke-linejoin:miter;stroke-width:0.8;"/>
   </g>
   <g id="patch_7">
    <path d="M 54 34.56 
L 388.8 34.56 
" style="fill:none;stroke:#000000;stroke-linecap:square;stroke-linejoin:miter;stroke-width:0.8;"/>
   </g>
  </g>
 </g>
 <defs>
  <clipPath id="p7c6010ed0f">
   <rect height="217.44" width="334.8" x="54" y="34.56"/>
  </clipPath>
 </defs>
</svg>
