<?xml version="1.0" encoding="utf-8" standalone="no"?>
<!DOCTYPE svg PUBLIC "-//W3C//DTD SVG 1.1//EN"
  "http://www.w3.org/Graphics/SVG/1.1/DTD/svg11.dtd">
<!-- Created with matplotlib (http://matplotlib.org/) -->
<svg height="504pt" version="1.1" viewBox="0 0 504 504" width="504pt" xmlns="http://www.w3.org/2000/svg" xmlns:xlink="http://www.w3.org/1999/xlink">
 <defs>
  <style type="text/css">
*{stroke-linecap:butt;stroke-linejoin:round;}
  </style>
 </defs>
 <g id="figure_1">
  <g id="patch_1">
   <path d="M 0 504 
L 504 504 
L 504 0 
L 0 0 
z
" style="fill:none;"/>
  </g>
  <g id="axes_1">
   <g id="patch_2">
    <path d="M 63 441 
L 453.6 441 
L 453.6 60.48 
L 63 60.48 
z
" style="fill:none;"/>
   </g>
   <g id="patch_3">
    <path clip-path="url(#p6113c39c72)" d="M 62.755875 77.776364 
L 64.819283 78.971752 
L 66.882692 80.209625 
L 68.9461 81.490942 
L 71.009508 82.816922 
L 73.072916 84.189049 
L 75.136325 85.609084 
L 77.199733 87.079062 
L 79.263141 88.601292 
L 81.32655 90.178354 
L 83.389958 91.813088 
L 85.453366 93.508582 
L 87.516774 95.268159 
L 89.580183 97.095354 
L 91.643591 98.993896 
L 93.706999 100.967684 
L 95.770408 103.020759 
L 97.833816 105.157279 
L 99.897224 107.381486 
L 101.960633 109.697679 
L 104.024041 112.110177 
L 106.087449 114.623292 
L 108.150857 117.241288 
L 110.214266 119.968348 
L 112.277674 122.808534 
L 114.341082 125.765745 
L 116.404491 128.84368 
L 118.467899 132.045785 
L 120.531307 135.375206 
L 122.594715 138.834738 
L 124.658124 142.426767 
L 126.721532 146.153211 
L 128.78494 150.015453 
L 130.848349 154.01428 
L 132.911757 158.14981 
L 134.975165 162.42142 
L 137.038573 166.827679 
L 139.101982 171.366273 
L 141.16539 176.03394 
L 143.228798 180.826401 
L 145.292207 185.738303 
L 147.355615 190.763167 
L 149.419023 195.893343 
L 151.482432 201.119981 
L 153.54584 206.433008 
L 155.609248 211.821126 
L 157.672656 217.271822 
L 159.736065 222.771397 
L 161.799473 228.305013 
L 163.862881 233.856756 
L 165.92629 239.409725 
L 167.989698 244.946131 
L 170.053106 250.447426 
L 172.116514 255.894437 
L 174.179923 261.267531 
L 176.243331 266.546786 
L 178.306739 271.712179 
L 180.370148 276.743793 
L 182.433556 281.622027 
L 184.496964 286.327832 
L 186.560372 290.842947 
L 188.623781 295.150159 
L 190.687189 299.233587 
L 192.750597 303.078977 
L 194.814006 306.674042 
L 196.877414 310.008831 
L 198.940822 313.076122 
L 201.004231 315.871852 
L 203.067639 318.395523 
L 205.131047 320.650555 
L 207.194455 322.644511 
L 209.257864 324.389114 
L 211.321272 325.899987 
L 213.38468 327.196091 
L 215.448089 328.298887 
L 217.511497 329.231311 
L 219.574905 330.016706 
L 221.638313 330.677833 
L 223.701722 331.236103 
L 225.76513 331.711077 
L 227.828538 332.120246 
L 229.891947 332.479076 
L 231.955355 332.801229 
L 234.018763 333.0989 
L 236.082171 333.383188 
L 238.14558 333.664432 
L 240.208988 333.952477 
L 242.272396 334.256828 
L 244.335805 334.586705 
L 246.399213 334.950997 
L 248.462621 335.358151 
L 250.52603 335.816014 
L 252.589438 336.331654 
L 254.652846 336.911197 
L 256.716254 337.559678 
L 258.779663 338.280935 
L 260.843071 339.077529 
L 262.906479 339.950717 
L 264.969888 340.900456 
L 267.033296 341.925442 
L 269.096704 343.023176 
L 271.160112 344.190057 
L 273.223521 345.421493 
L 275.286929 346.71202 
L 277.350337 348.055434 
L 279.413746 349.444928 
L 281.477154 350.873225 
L 283.540562 352.332713 
L 285.60397 353.815572 
L 287.667379 355.313896 
L 289.730787 356.819802 
L 291.794195 358.325536 
L 293.857604 359.823563 
L 295.921012 361.306646 
L 297.98442 362.767916 
L 300.047829 364.200931 
L 302.111237 365.599725 
L 304.174645 366.95884 
L 306.238053 368.273364 
L 308.301462 369.538944 
L 310.36487 370.751801 
L 312.428278 371.908739 
L 314.491687 373.007143 
L 316.555095 374.044975 
L 318.618503 375.020764 
L 320.681911 375.933593 
L 322.74532 376.78308 
L 324.808728 377.569356 
L 326.872136 378.293039 
L 328.935545 378.955204 
L 330.998953 379.557345 
L 333.062361 380.101344 
L 335.125769 380.58942 
L 337.189178 381.024093 
L 339.252586 381.408129 
L 341.315994 381.744499 
L 343.379403 382.036322 
L 345.442811 382.286822 
L 347.506219 382.499279 
L 349.569628 382.676983 
L 351.633036 382.823192 
L 353.696444 382.941098 
L 355.759852 383.033788 
L 357.823261 383.104216 
L 359.886669 383.155181 
L 361.950077 383.189303 
L 364.013486 383.209009 
L 366.076894 383.216516 
L 368.140302 383.213829 
L 370.20371 383.202726 
L 372.267119 383.18476 
L 374.330527 383.161256 
L 376.393935 383.133309 
L 378.457344 383.101788 
L 380.520752 383.067337 
L 382.58416 383.030378 
L 384.647568 382.991116 
L 386.710977 382.949542 
L 388.774385 382.905438 
L 390.837793 382.858382 
L 392.901202 382.807751 
L 394.96461 382.752727 
L 397.028018 382.692299 
L 399.091427 382.62527 
L 401.154835 382.550257 
L 403.218243 382.465701 
L 405.281651 382.369869 
L 407.34506 382.260857 
L 409.408468 382.136603 
L 411.471876 381.994893 
L 413.535285 381.833368 
L 415.598693 381.649546 
L 417.662101 381.440833 
L 419.725509 381.204548 
L 421.788918 380.937948 
L 423.852326 380.638259 
L 425.915734 380.302718 
L 427.979143 379.928607 
L 430.042551 379.513308 
L 432.105959 379.054349 
L 434.169367 378.549459 
L 436.232776 377.996626 
L 438.296184 377.394147 
L 440.359592 376.740682 
L 442.423001 376.035302 
L 444.486409 375.277526 
L 446.549817 374.467354 
L 448.613226 373.605288 
L 450.676634 372.69234 
L 452.740042 371.73003 
L 454.80345 370.720374 
L 456.866859 369.665856 
L 458.930267 368.569395 
L 460.993675 367.434295 
L 463.057084 366.264195 
L 465.120492 365.063007 
L 467.1839 363.834848 
L 469.247308 362.583974 
L 471.310717 361.314704 
L 473.374125 360.031349 
L 473.374125 423.703636 
L 471.310717 423.56364 
L 469.247308 423.41221 
L 467.1839 423.251133 
L 465.120492 423.082352 
L 463.057084 422.907917 
L 460.993675 422.729945 
L 458.930267 422.550566 
L 456.866859 422.371877 
L 454.80345 422.195897 
L 452.740042 422.024522 
L 450.676634 421.859478 
L 448.613226 421.702296 
L 446.549817 421.554275 
L 444.486409 421.416462 
L 442.423001 421.289646 
L 440.359592 421.174346 
L 438.296184 421.070824 
L 436.232776 420.979091 
L 434.169367 420.898936 
L 432.105959 420.829944 
L 430.042551 420.771534 
L 427.979143 420.722987 
L 425.915734 420.68348 
L 423.852326 420.65212 
L 421.788918 420.627976 
L 419.725509 420.610098 
L 417.662101 420.59755 
L 415.598693 420.589419 
L 413.535285 420.584837 
L 411.471876 420.582986 
L 409.408468 420.583107 
L 407.34506 420.584503 
L 405.281651 420.58654 
L 403.218243 420.588648 
L 401.154835 420.590316 
L 399.091427 420.591093 
L 397.028018 420.590581 
L 394.96461 420.588437 
L 392.901202 420.584366 
L 390.837793 420.578121 
L 388.774385 420.569499 
L 386.710977 420.558341 
L 384.647568 420.544532 
L 382.58416 420.527998 
L 380.520752 420.508708 
L 378.457344 420.486669 
L 376.393935 420.461932 
L 374.330527 420.434589 
L 372.267119 420.404771 
L 370.20371 420.372644 
L 368.140302 420.338415 
L 366.076894 420.302318 
L 364.013486 420.264616 
L 361.950077 420.225593 
L 359.886669 420.185542 
L 357.823261 420.144759 
L 355.759852 420.103522 
L 353.696444 420.062085 
L 351.633036 420.02065 
L 349.569628 419.979346 
L 347.506219 419.938211 
L 345.442811 419.897156 
L 343.379403 419.855941 
L 341.315994 419.814143 
L 339.252586 419.771125 
L 337.189178 419.726005 
L 335.125769 419.677629 
L 333.062361 419.624545 
L 330.998953 419.564981 
L 328.935545 419.496832 
L 326.872136 419.417649 
L 324.808728 419.324637 
L 322.74532 419.214664 
L 320.681911 419.084274 
L 318.618503 418.929706 
L 316.555095 418.746931 
L 314.491687 418.531685 
L 312.428278 418.279517 
L 310.36487 417.985839 
L 308.301462 417.645985 
L 306.238053 417.255275 
L 304.174645 416.809084 
L 302.111237 416.302913 
L 300.047829 415.732466 
L 297.98442 415.093733 
L 295.921012 414.383068 
L 293.857604 413.597277 
L 291.794195 412.733699 
L 289.730787 411.790291 
L 287.667379 410.765712 
L 285.60397 409.659399 
L 283.540562 408.471643 
L 281.477154 407.203655 
L 279.413746 405.857626 
L 277.350337 404.436776 
L 275.286929 402.945388 
L 273.223521 401.38883 
L 271.160112 399.773559 
L 269.096704 398.107107 
L 267.033296 396.398041 
L 264.969888 394.655902 
L 262.906479 392.891117 
L 260.843071 391.114885 
L 258.779663 389.339023 
L 256.716254 387.575788 
L 254.652846 385.837662 
L 252.589438 384.137104 
L 250.52603 382.486267 
L 248.462621 380.896697 
L 246.399213 379.379011 
L 244.335805 377.942573 
L 242.272396 376.595194 
L 240.208988 375.342873 
L 238.14558 374.189626 
L 236.082171 373.137407 
L 234.018763 372.186174 
L 231.955355 371.334096 
L 229.891947 370.577903 
L 227.828538 369.913354 
L 225.76513 369.33577 
L 223.701722 368.84057 
L 221.638313 368.423738 
L 219.574905 368.082113 
L 217.511497 367.813469 
L 215.448089 367.616321 
L 213.38468 367.489469 
L 211.321272 367.43135 
L 209.257864 367.439294 
L 207.194455 367.508833 
L 205.131047 367.63318 
L 203.067639 367.802971 
L 201.004231 368.006295 
L 198.940822 368.228968 
L 196.877414 368.454992 
L 194.814006 368.667107 
L 192.750597 368.847366 
L 190.687189 368.977689 
L 188.623781 369.04035 
L 186.560372 369.018396 
L 184.496964 368.896003 
L 182.433556 368.658748 
L 180.370148 368.293833 
L 178.306739 367.790253 
L 176.243331 367.138915 
L 174.179923 366.332716 
L 172.116514 365.366588 
L 170.053106 364.237507 
L 167.989698 362.944471 
L 165.92629 361.488453 
L 163.862881 359.872333 
L 161.799473 358.100798 
L 159.736065 356.180233 
L 157.672656 354.118591 
L 155.609248 351.92525 
L 153.54584 349.610856 
L 151.482432 347.187165 
L 149.419023 344.666873 
L 147.355615 342.063443 
L 145.292207 339.39094 
L 143.228798 336.663856 
L 141.16539 333.896954 
L 139.101982 331.105105 
L 137.038573 328.303142 
L 134.975165 325.505726 
L 132.911757 322.727216 
L 130.848349 319.981557 
L 128.78494 317.282181 
L 126.721532 314.641924 
L 124.658124 312.072949 
L 122.594715 309.586694 
L 120.531307 307.193826 
L 118.467899 304.904213 
L 116.404491 302.726898 
L 114.341082 300.670101 
L 112.277674 298.741212 
L 110.214266 296.946805 
L 108.150857 295.292657 
L 106.087449 293.783763 
L 104.024041 292.424371 
L 101.960633 291.218004 
L 99.897224 290.167495 
L 97.833816 289.275018 
L 95.770408 288.542118 
L 93.706999 287.969742 
L 91.643591 287.558269 
L 89.580183 287.307537 
L 87.516774 287.216869 
L 85.453366 287.285099 
L 83.389958 287.510594 
L 81.32655 287.891274 
L 79.263141 288.424636 
L 77.199733 289.107771 
L 75.136325 289.937389 
L 73.072916 290.909831 
L 71.009508 292.021096 
L 68.9461 293.266861 
L 66.882692 294.642497 
L 64.819283 296.1431 
L 62.755875 297.763509 
z
" style="fill:#cc3300;opacity:0.3;stroke:#cc3300;stroke-linejoin:miter;stroke-width:0.5;"/>
   </g>
   <g id="matplotlib.axis_1">
    <g id="xtick_1">
     <g id="line2d_1">
      <defs>
       <path d="M 0 0 
L 0 3.5 
" id="mf276ba68e8" style="stroke:#000000;stroke-width:0.8;"/>
      </defs>
      <g>
       <use style="stroke:#000000;stroke-width:0.8;" x="87.4125" xlink:href="#mf276ba68e8" y="441"/>
      </g>
     </g>
     <g id="text_1">
      <!-- 1880 -->
      <defs>
       <path d="M 12.40625 8.296875 
L 28.515625 8.296875 
L 28.515625 63.921875 
L 10.984375 60.40625 
L 10.984375 69.390625 
L 28.421875 72.90625 
L 38.28125 72.90625 
L 38.28125 8.296875 
L 54.390625 8.296875 
L 54.390625 0 
L 12.40625 0 
z
" id="DejaVuSans-31"/>
       <path d="M 31.78125 34.625 
Q 24.75 34.625 20.71875 30.859375 
Q 16.703125 27.09375 16.703125 20.515625 
Q 16.703125 13.921875 20.71875 10.15625 
Q 24.75 6.390625 31.78125 6.390625 
Q 38.8125 6.390625 42.859375 10.171875 
Q 46.921875 13.96875 46.921875 20.515625 
Q 46.921875 27.09375 42.890625 30.859375 
Q 38.875 34.625 31.78125 34.625 
z
M 21.921875 38.8125 
Q 15.578125 40.375 12.03125 44.71875 
Q 8.5 49.078125 8.5 55.328125 
Q 8.5 64.0625 14.71875 69.140625 
Q 20.953125 74.21875 31.78125 74.21875 
Q 42.671875 74.21875 48.875 69.140625 
Q 55.078125 64.0625 55.078125 55.328125 
Q 55.078125 49.078125 51.53125 44.71875 
Q 48 40.375 41.703125 38.8125 
Q 48.828125 37.15625 52.796875 32.3125 
Q 56.78125 27.484375 56.78125 20.515625 
Q 56.78125 9.90625 50.3125 4.234375 
Q 43.84375 -1.421875 31.78125 -1.421875 
Q 19.734375 -1.421875 13.25 4.234375 
Q 6.78125 9.90625 6.78125 20.515625 
Q 6.78125 27.484375 10.78125 32.3125 
Q 14.796875 37.15625 21.921875 38.8125 
z
M 18.3125 54.390625 
Q 18.3125 48.734375 21.84375 45.5625 
Q 25.390625 42.390625 31.78125 42.390625 
Q 38.140625 42.390625 41.71875 45.5625 
Q 45.3125 48.734375 45.3125 54.390625 
Q 45.3125 60.0625 41.71875 63.234375 
Q 38.140625 66.40625 31.78125 66.40625 
Q 25.390625 66.40625 21.84375 63.234375 
Q 18.3125 60.0625 18.3125 54.390625 
z
" id="DejaVuSans-38"/>
       <path d="M 31.78125 66.40625 
Q 24.171875 66.40625 20.328125 58.90625 
Q 16.5 51.421875 16.5 36.375 
Q 16.5 21.390625 20.328125 13.890625 
Q 24.171875 6.390625 31.78125 6.390625 
Q 39.453125 6.390625 43.28125 13.890625 
Q 47.125 21.390625 47.125 36.375 
Q 47.125 51.421875 43.28125 58.90625 
Q 39.453125 66.40625 31.78125 66.40625 
z
M 31.78125 74.21875 
Q 44.046875 74.21875 50.515625 64.515625 
Q 56.984375 54.828125 56.984375 36.375 
Q 56.984375 17.96875 50.515625 8.265625 
Q 44.046875 -1.421875 31.78125 -1.421875 
Q 19.53125 -1.421875 13.0625 8.265625 
Q 6.59375 17.96875 6.59375 36.375 
Q 6.59375 54.828125 13.0625 64.515625 
Q 19.53125 74.21875 31.78125 74.21875 
z
" id="DejaVuSans-30"/>
      </defs>
      <g transform="translate(74.6875 455.598437)scale(0.1 -0.1)">
       <use xlink:href="#DejaVuSans-31"/>
       <use x="63.623047" xlink:href="#DejaVuSans-38"/>
       <use x="127.246094" xlink:href="#DejaVuSans-38"/>
       <use x="190.869141" xlink:href="#DejaVuSans-30"/>
      </g>
     </g>
    </g>
    <g id="xtick_2">
     <g id="line2d_2">
      <g>
       <use style="stroke:#000000;stroke-width:0.8;" x="136.2375" xlink:href="#mf276ba68e8" y="441"/>
      </g>
     </g>
     <g id="text_2">
      <!-- 1900 -->
      <defs>
       <path d="M 10.984375 1.515625 
L 10.984375 10.5 
Q 14.703125 8.734375 18.5 7.8125 
Q 22.3125 6.890625 25.984375 6.890625 
Q 35.75 6.890625 40.890625 13.453125 
Q 46.046875 20.015625 46.78125 33.40625 
Q 43.953125 29.203125 39.59375 26.953125 
Q 35.25 24.703125 29.984375 24.703125 
Q 19.046875 24.703125 12.671875 31.3125 
Q 6.296875 37.9375 6.296875 49.421875 
Q 6.296875 60.640625 12.9375 67.421875 
Q 19.578125 74.21875 30.609375 74.21875 
Q 43.265625 74.21875 49.921875 64.515625 
Q 56.59375 54.828125 56.59375 36.375 
Q 56.59375 19.140625 48.40625 8.859375 
Q 40.234375 -1.421875 26.421875 -1.421875 
Q 22.703125 -1.421875 18.890625 -0.6875 
Q 15.09375 0.046875 10.984375 1.515625 
z
M 30.609375 32.421875 
Q 37.25 32.421875 41.125 36.953125 
Q 45.015625 41.5 45.015625 49.421875 
Q 45.015625 57.28125 41.125 61.84375 
Q 37.25 66.40625 30.609375 66.40625 
Q 23.96875 66.40625 20.09375 61.84375 
Q 16.21875 57.28125 16.21875 49.421875 
Q 16.21875 41.5 20.09375 36.953125 
Q 23.96875 32.421875 30.609375 32.421875 
z
" id="DejaVuSans-39"/>
      </defs>
      <g transform="translate(123.5125 455.598437)scale(0.1 -0.1)">
       <use xlink:href="#DejaVuSans-31"/>
       <use x="63.623047" xlink:href="#DejaVuSans-39"/>
       <use x="127.246094" xlink:href="#DejaVuSans-30"/>
       <use x="190.869141" xlink:href="#DejaVuSans-30"/>
      </g>
     </g>
    </g>
    <g id="xtick_3">
     <g id="line2d_3">
      <g>
       <use style="stroke:#000000;stroke-width:0.8;" x="185.0625" xlink:href="#mf276ba68e8" y="441"/>
      </g>
     </g>
     <g id="text_3">
      <!-- 1920 -->
      <defs>
       <path d="M 19.1875 8.296875 
L 53.609375 8.296875 
L 53.609375 0 
L 7.328125 0 
L 7.328125 8.296875 
Q 12.9375 14.109375 22.625 23.890625 
Q 32.328125 33.6875 34.8125 36.53125 
Q 39.546875 41.84375 41.421875 45.53125 
Q 43.3125 49.21875 43.3125 52.78125 
Q 43.3125 58.59375 39.234375 62.25 
Q 35.15625 65.921875 28.609375 65.921875 
Q 23.96875 65.921875 18.8125 64.3125 
Q 13.671875 62.703125 7.8125 59.421875 
L 7.8125 69.390625 
Q 13.765625 71.78125 18.9375 73 
Q 24.125 74.21875 28.421875 74.21875 
Q 39.75 74.21875 46.484375 68.546875 
Q 53.21875 62.890625 53.21875 53.421875 
Q 53.21875 48.921875 51.53125 44.890625 
Q 49.859375 40.875 45.40625 35.40625 
Q 44.1875 33.984375 37.640625 27.21875 
Q 31.109375 20.453125 19.1875 8.296875 
z
" id="DejaVuSans-32"/>
      </defs>
      <g transform="translate(172.3375 455.598437)scale(0.1 -0.1)">
       <use xlink:href="#DejaVuSans-31"/>
       <use x="63.623047" xlink:href="#DejaVuSans-39"/>
       <use x="127.246094" xlink:href="#DejaVuSans-32"/>
       <use x="190.869141" xlink:href="#DejaVuSans-30"/>
      </g>
     </g>
    </g>
    <g id="xtick_4">
     <g id="line2d_4">
      <g>
       <use style="stroke:#000000;stroke-width:0.8;" x="233.8875" xlink:href="#mf276ba68e8" y="441"/>
      </g>
     </g>
     <g id="text_4">
      <!-- 1940 -->
      <defs>
       <path d="M 37.796875 64.3125 
L 12.890625 25.390625 
L 37.796875 25.390625 
z
M 35.203125 72.90625 
L 47.609375 72.90625 
L 47.609375 25.390625 
L 58.015625 25.390625 
L 58.015625 17.1875 
L 47.609375 17.1875 
L 47.609375 0 
L 37.796875 0 
L 37.796875 17.1875 
L 4.890625 17.1875 
L 4.890625 26.703125 
z
" id="DejaVuSans-34"/>
      </defs>
      <g transform="translate(221.1625 455.598437)scale(0.1 -0.1)">
       <use xlink:href="#DejaVuSans-31"/>
       <use x="63.623047" xlink:href="#DejaVuSans-39"/>
       <use x="127.246094" xlink:href="#DejaVuSans-34"/>
       <use x="190.869141" xlink:href="#DejaVuSans-30"/>
      </g>
     </g>
    </g>
    <g id="xtick_5">
     <g id="line2d_5">
      <g>
       <use style="stroke:#000000;stroke-width:0.8;" x="282.7125" xlink:href="#mf276ba68e8" y="441"/>
      </g>
     </g>
     <g id="text_5">
      <!-- 1960 -->
      <defs>
       <path d="M 33.015625 40.375 
Q 26.375 40.375 22.484375 35.828125 
Q 18.609375 31.296875 18.609375 23.390625 
Q 18.609375 15.53125 22.484375 10.953125 
Q 26.375 6.390625 33.015625 6.390625 
Q 39.65625 6.390625 43.53125 10.953125 
Q 47.40625 15.53125 47.40625 23.390625 
Q 47.40625 31.296875 43.53125 35.828125 
Q 39.65625 40.375 33.015625 40.375 
z
M 52.59375 71.296875 
L 52.59375 62.3125 
Q 48.875 64.0625 45.09375 64.984375 
Q 41.3125 65.921875 37.59375 65.921875 
Q 27.828125 65.921875 22.671875 59.328125 
Q 17.53125 52.734375 16.796875 39.40625 
Q 19.671875 43.65625 24.015625 45.921875 
Q 28.375 48.1875 33.59375 48.1875 
Q 44.578125 48.1875 50.953125 41.515625 
Q 57.328125 34.859375 57.328125 23.390625 
Q 57.328125 12.15625 50.6875 5.359375 
Q 44.046875 -1.421875 33.015625 -1.421875 
Q 20.359375 -1.421875 13.671875 8.265625 
Q 6.984375 17.96875 6.984375 36.375 
Q 6.984375 53.65625 15.1875 63.9375 
Q 23.390625 74.21875 37.203125 74.21875 
Q 40.921875 74.21875 44.703125 73.484375 
Q 48.484375 72.75 52.59375 71.296875 
z
" id="DejaVuSans-36"/>
      </defs>
      <g transform="translate(269.9875 455.598437)scale(0.1 -0.1)">
       <use xlink:href="#DejaVuSans-31"/>
       <use x="63.623047" xlink:href="#DejaVuSans-39"/>
       <use x="127.246094" xlink:href="#DejaVuSans-36"/>
       <use x="190.869141" xlink:href="#DejaVuSans-30"/>
      </g>
     </g>
    </g>
    <g id="xtick_6">
     <g id="line2d_6">
      <g>
       <use style="stroke:#000000;stroke-width:0.8;" x="331.5375" xlink:href="#mf276ba68e8" y="441"/>
      </g>
     </g>
     <g id="text_6">
      <!-- 1980 -->
      <g transform="translate(318.8125 455.598437)scale(0.1 -0.1)">
       <use xlink:href="#DejaVuSans-31"/>
       <use x="63.623047" xlink:href="#DejaVuSans-39"/>
       <use x="127.246094" xlink:href="#DejaVuSans-38"/>
       <use x="190.869141" xlink:href="#DejaVuSans-30"/>
      </g>
     </g>
    </g>
    <g id="xtick_7">
     <g id="line2d_7">
      <g>
       <use style="stroke:#000000;stroke-width:0.8;" x="380.3625" xlink:href="#mf276ba68e8" y="441"/>
      </g>
     </g>
     <g id="text_7">
      <!-- 2000 -->
      <g transform="translate(367.6375 455.598437)scale(0.1 -0.1)">
       <use xlink:href="#DejaVuSans-32"/>
       <use x="63.623047" xlink:href="#DejaVuSans-30"/>
       <use x="127.246094" xlink:href="#DejaVuSans-30"/>
       <use x="190.869141" xlink:href="#DejaVuSans-30"/>
      </g>
     </g>
    </g>
    <g id="xtick_8">
     <g id="line2d_8">
      <g>
       <use style="stroke:#000000;stroke-width:0.8;" x="429.1875" xlink:href="#mf276ba68e8" y="441"/>
      </g>
     </g>
     <g id="text_8">
      <!-- 2020 -->
      <g transform="translate(416.4625 455.598437)scale(0.1 -0.1)">
       <use xlink:href="#DejaVuSans-32"/>
       <use x="63.623047" xlink:href="#DejaVuSans-30"/>
       <use x="127.246094" xlink:href="#DejaVuSans-32"/>
       <use x="190.869141" xlink:href="#DejaVuSans-30"/>
      </g>
     </g>
    </g>
    <g id="text_9">
     <!-- year -->
     <defs>
      <path d="M 32.171875 -5.078125 
Q 28.375 -14.84375 24.75 -17.8125 
Q 21.140625 -20.796875 15.09375 -20.796875 
L 7.90625 -20.796875 
L 7.90625 -13.28125 
L 13.1875 -13.28125 
Q 16.890625 -13.28125 18.9375 -11.515625 
Q 21 -9.765625 23.484375 -3.21875 
L 25.09375 0.875 
L 2.984375 54.6875 
L 12.5 54.6875 
L 29.59375 11.921875 
L 46.6875 54.6875 
L 56.203125 54.6875 
z
" id="DejaVuSans-79"/>
      <path d="M 56.203125 29.59375 
L 56.203125 25.203125 
L 14.890625 25.203125 
Q 15.484375 15.921875 20.484375 11.0625 
Q 25.484375 6.203125 34.421875 6.203125 
Q 39.59375 6.203125 44.453125 7.46875 
Q 49.3125 8.734375 54.109375 11.28125 
L 54.109375 2.78125 
Q 49.265625 0.734375 44.1875 -0.34375 
Q 39.109375 -1.421875 33.890625 -1.421875 
Q 20.796875 -1.421875 13.15625 6.1875 
Q 5.515625 13.8125 5.515625 26.8125 
Q 5.515625 40.234375 12.765625 48.109375 
Q 20.015625 56 32.328125 56 
Q 43.359375 56 49.78125 48.890625 
Q 56.203125 41.796875 56.203125 29.59375 
z
M 47.21875 32.234375 
Q 47.125 39.59375 43.09375 43.984375 
Q 39.0625 48.390625 32.421875 48.390625 
Q 24.90625 48.390625 20.390625 44.140625 
Q 15.875 39.890625 15.1875 32.171875 
z
" id="DejaVuSans-65"/>
      <path d="M 34.28125 27.484375 
Q 23.390625 27.484375 19.1875 25 
Q 14.984375 22.515625 14.984375 16.5 
Q 14.984375 11.71875 18.140625 8.90625 
Q 21.296875 6.109375 26.703125 6.109375 
Q 34.1875 6.109375 38.703125 11.40625 
Q 43.21875 16.703125 43.21875 25.484375 
L 43.21875 27.484375 
z
M 52.203125 31.203125 
L 52.203125 0 
L 43.21875 0 
L 43.21875 8.296875 
Q 40.140625 3.328125 35.546875 0.953125 
Q 30.953125 -1.421875 24.3125 -1.421875 
Q 15.921875 -1.421875 10.953125 3.296875 
Q 6 8.015625 6 15.921875 
Q 6 25.140625 12.171875 29.828125 
Q 18.359375 34.515625 30.609375 34.515625 
L 43.21875 34.515625 
L 43.21875 35.40625 
Q 43.21875 41.609375 39.140625 45 
Q 35.0625 48.390625 27.6875 48.390625 
Q 23 48.390625 18.546875 47.265625 
Q 14.109375 46.140625 10.015625 43.890625 
L 10.015625 52.203125 
Q 14.9375 54.109375 19.578125 55.046875 
Q 24.21875 56 28.609375 56 
Q 40.484375 56 46.34375 49.84375 
Q 52.203125 43.703125 52.203125 31.203125 
z
" id="DejaVuSans-61"/>
      <path d="M 41.109375 46.296875 
Q 39.59375 47.171875 37.8125 47.578125 
Q 36.03125 48 33.890625 48 
Q 26.265625 48 22.1875 43.046875 
Q 18.109375 38.09375 18.109375 28.8125 
L 18.109375 0 
L 9.078125 0 
L 9.078125 54.6875 
L 18.109375 54.6875 
L 18.109375 46.1875 
Q 20.953125 51.171875 25.484375 53.578125 
Q 30.03125 56 36.53125 56 
Q 37.453125 56 38.578125 55.875 
Q 39.703125 55.765625 41.0625 55.515625 
z
" id="DejaVuSans-72"/>
     </defs>
     <g transform="translate(235.989063 476.875)scale(0.2 -0.2)">
      <use xlink:href="#DejaVuSans-79"/>
      <use x="59.179688" xlink:href="#DejaVuSans-65"/>
      <use x="120.703125" xlink:href="#DejaVuSans-61"/>
      <use x="181.982422" xlink:href="#DejaVuSans-72"/>
     </g>
    </g>
   </g>
   <g id="matplotlib.axis_2">
    <g id="ytick_1">
     <g id="line2d_9">
      <defs>
       <path d="M 0 0 
L -3.5 0 
" id="m63c77daf87" style="stroke:#000000;stroke-width:0.8;"/>
      </defs>
      <g>
       <use style="stroke:#000000;stroke-width:0.8;" x="63" xlink:href="#m63c77daf87" y="415.210016"/>
      </g>
     </g>
     <g id="text_10">
      <!-- −1 -->
      <defs>
       <path d="M 10.59375 35.5 
L 73.1875 35.5 
L 73.1875 27.203125 
L 10.59375 27.203125 
z
" id="DejaVuSans-2212"/>
      </defs>
      <g transform="translate(41.257812 419.009235)scale(0.1 -0.1)">
       <use xlink:href="#DejaVuSans-2212"/>
       <use x="83.789062" xlink:href="#DejaVuSans-31"/>
      </g>
     </g>
    </g>
    <g id="ytick_2">
     <g id="line2d_10">
      <g>
       <use style="stroke:#000000;stroke-width:0.8;" x="63" xlink:href="#m63c77daf87" y="358.923844"/>
      </g>
     </g>
     <g id="text_11">
      <!-- 0 -->
      <g transform="translate(49.6375 362.723063)scale(0.1 -0.1)">
       <use xlink:href="#DejaVuSans-30"/>
      </g>
     </g>
    </g>
    <g id="ytick_3">
     <g id="line2d_11">
      <g>
       <use style="stroke:#000000;stroke-width:0.8;" x="63" xlink:href="#m63c77daf87" y="302.637671"/>
      </g>
     </g>
     <g id="text_12">
      <!-- 1 -->
      <g transform="translate(49.6375 306.43689)scale(0.1 -0.1)">
       <use xlink:href="#DejaVuSans-31"/>
      </g>
     </g>
    </g>
    <g id="ytick_4">
     <g id="line2d_12">
      <g>
       <use style="stroke:#000000;stroke-width:0.8;" x="63" xlink:href="#m63c77daf87" y="246.351499"/>
      </g>
     </g>
     <g id="text_13">
      <!-- 2 -->
      <g transform="translate(49.6375 250.150718)scale(0.1 -0.1)">
       <use xlink:href="#DejaVuSans-32"/>
      </g>
     </g>
    </g>
    <g id="ytick_5">
     <g id="line2d_13">
      <g>
       <use style="stroke:#000000;stroke-width:0.8;" x="63" xlink:href="#m63c77daf87" y="190.065326"/>
      </g>
     </g>
     <g id="text_14">
      <!-- 3 -->
      <defs>
       <path d="M 40.578125 39.3125 
Q 47.65625 37.796875 51.625 33 
Q 55.609375 28.21875 55.609375 21.1875 
Q 55.609375 10.40625 48.1875 4.484375 
Q 40.765625 -1.421875 27.09375 -1.421875 
Q 22.515625 -1.421875 17.65625 -0.515625 
Q 12.796875 0.390625 7.625 2.203125 
L 7.625 11.71875 
Q 11.71875 9.328125 16.59375 8.109375 
Q 21.484375 6.890625 26.8125 6.890625 
Q 36.078125 6.890625 40.9375 10.546875 
Q 45.796875 14.203125 45.796875 21.1875 
Q 45.796875 27.640625 41.28125 31.265625 
Q 36.765625 34.90625 28.71875 34.90625 
L 20.21875 34.90625 
L 20.21875 43.015625 
L 29.109375 43.015625 
Q 36.375 43.015625 40.234375 45.921875 
Q 44.09375 48.828125 44.09375 54.296875 
Q 44.09375 59.90625 40.109375 62.90625 
Q 36.140625 65.921875 28.71875 65.921875 
Q 24.65625 65.921875 20.015625 65.03125 
Q 15.375 64.15625 9.8125 62.3125 
L 9.8125 71.09375 
Q 15.4375 72.65625 20.34375 73.4375 
Q 25.25 74.21875 29.59375 74.21875 
Q 40.828125 74.21875 47.359375 69.109375 
Q 53.90625 64.015625 53.90625 55.328125 
Q 53.90625 49.265625 50.4375 45.09375 
Q 46.96875 40.921875 40.578125 39.3125 
z
" id="DejaVuSans-33"/>
      </defs>
      <g transform="translate(49.6375 193.864545)scale(0.1 -0.1)">
       <use xlink:href="#DejaVuSans-33"/>
      </g>
     </g>
    </g>
    <g id="ytick_6">
     <g id="line2d_14">
      <g>
       <use style="stroke:#000000;stroke-width:0.8;" x="63" xlink:href="#m63c77daf87" y="133.779154"/>
      </g>
     </g>
     <g id="text_15">
      <!-- 4 -->
      <g transform="translate(49.6375 137.578372)scale(0.1 -0.1)">
       <use xlink:href="#DejaVuSans-34"/>
      </g>
     </g>
    </g>
    <g id="ytick_7">
     <g id="line2d_15">
      <g>
       <use style="stroke:#000000;stroke-width:0.8;" x="63" xlink:href="#m63c77daf87" y="77.492981"/>
      </g>
     </g>
     <g id="text_16">
      <!-- 5 -->
      <defs>
       <path d="M 10.796875 72.90625 
L 49.515625 72.90625 
L 49.515625 64.59375 
L 19.828125 64.59375 
L 19.828125 46.734375 
Q 21.96875 47.46875 24.109375 47.828125 
Q 26.265625 48.1875 28.421875 48.1875 
Q 40.625 48.1875 47.75 41.5 
Q 54.890625 34.8125 54.890625 23.390625 
Q 54.890625 11.625 47.5625 5.09375 
Q 40.234375 -1.421875 26.90625 -1.421875 
Q 22.3125 -1.421875 17.546875 -0.640625 
Q 12.796875 0.140625 7.71875 1.703125 
L 7.71875 11.625 
Q 12.109375 9.234375 16.796875 8.0625 
Q 21.484375 6.890625 26.703125 6.890625 
Q 35.15625 6.890625 40.078125 11.328125 
Q 45.015625 15.765625 45.015625 23.390625 
Q 45.015625 31 40.078125 35.4375 
Q 35.15625 39.890625 26.703125 39.890625 
Q 22.75 39.890625 18.8125 39.015625 
Q 14.890625 38.140625 10.796875 36.28125 
z
" id="DejaVuSans-35"/>
      </defs>
      <g transform="translate(49.6375 81.2922)scale(0.1 -0.1)">
       <use xlink:href="#DejaVuSans-35"/>
      </g>
     </g>
    </g>
    <g id="text_17">
     <!-- pace min/km -->
     <defs>
      <path d="M 18.109375 8.203125 
L 18.109375 -20.796875 
L 9.078125 -20.796875 
L 9.078125 54.6875 
L 18.109375 54.6875 
L 18.109375 46.390625 
Q 20.953125 51.265625 25.265625 53.625 
Q 29.59375 56 35.59375 56 
Q 45.5625 56 51.78125 48.09375 
Q 58.015625 40.1875 58.015625 27.296875 
Q 58.015625 14.40625 51.78125 6.484375 
Q 45.5625 -1.421875 35.59375 -1.421875 
Q 29.59375 -1.421875 25.265625 0.953125 
Q 20.953125 3.328125 18.109375 8.203125 
z
M 48.6875 27.296875 
Q 48.6875 37.203125 44.609375 42.84375 
Q 40.53125 48.484375 33.40625 48.484375 
Q 26.265625 48.484375 22.1875 42.84375 
Q 18.109375 37.203125 18.109375 27.296875 
Q 18.109375 17.390625 22.1875 11.75 
Q 26.265625 6.109375 33.40625 6.109375 
Q 40.53125 6.109375 44.609375 11.75 
Q 48.6875 17.390625 48.6875 27.296875 
z
" id="DejaVuSans-70"/>
      <path d="M 48.78125 52.59375 
L 48.78125 44.1875 
Q 44.96875 46.296875 41.140625 47.34375 
Q 37.3125 48.390625 33.40625 48.390625 
Q 24.65625 48.390625 19.8125 42.84375 
Q 14.984375 37.3125 14.984375 27.296875 
Q 14.984375 17.28125 19.8125 11.734375 
Q 24.65625 6.203125 33.40625 6.203125 
Q 37.3125 6.203125 41.140625 7.25 
Q 44.96875 8.296875 48.78125 10.40625 
L 48.78125 2.09375 
Q 45.015625 0.34375 40.984375 -0.53125 
Q 36.96875 -1.421875 32.421875 -1.421875 
Q 20.0625 -1.421875 12.78125 6.34375 
Q 5.515625 14.109375 5.515625 27.296875 
Q 5.515625 40.671875 12.859375 48.328125 
Q 20.21875 56 33.015625 56 
Q 37.15625 56 41.109375 55.140625 
Q 45.0625 54.296875 48.78125 52.59375 
z
" id="DejaVuSans-63"/>
      <path id="DejaVuSans-20"/>
      <path d="M 52 44.1875 
Q 55.375 50.25 60.0625 53.125 
Q 64.75 56 71.09375 56 
Q 79.640625 56 84.28125 50.015625 
Q 88.921875 44.046875 88.921875 33.015625 
L 88.921875 0 
L 79.890625 0 
L 79.890625 32.71875 
Q 79.890625 40.578125 77.09375 44.375 
Q 74.3125 48.1875 68.609375 48.1875 
Q 61.625 48.1875 57.5625 43.546875 
Q 53.515625 38.921875 53.515625 30.90625 
L 53.515625 0 
L 44.484375 0 
L 44.484375 32.71875 
Q 44.484375 40.625 41.703125 44.40625 
Q 38.921875 48.1875 33.109375 48.1875 
Q 26.21875 48.1875 22.15625 43.53125 
Q 18.109375 38.875 18.109375 30.90625 
L 18.109375 0 
L 9.078125 0 
L 9.078125 54.6875 
L 18.109375 54.6875 
L 18.109375 46.1875 
Q 21.1875 51.21875 25.484375 53.609375 
Q 29.78125 56 35.6875 56 
Q 41.65625 56 45.828125 52.96875 
Q 50 49.953125 52 44.1875 
z
" id="DejaVuSans-6d"/>
      <path d="M 9.421875 54.6875 
L 18.40625 54.6875 
L 18.40625 0 
L 9.421875 0 
z
M 9.421875 75.984375 
L 18.40625 75.984375 
L 18.40625 64.59375 
L 9.421875 64.59375 
z
" id="DejaVuSans-69"/>
      <path d="M 54.890625 33.015625 
L 54.890625 0 
L 45.90625 0 
L 45.90625 32.71875 
Q 45.90625 40.484375 42.875 44.328125 
Q 39.84375 48.1875 33.796875 48.1875 
Q 26.515625 48.1875 22.3125 43.546875 
Q 18.109375 38.921875 18.109375 30.90625 
L 18.109375 0 
L 9.078125 0 
L 9.078125 54.6875 
L 18.109375 54.6875 
L 18.109375 46.1875 
Q 21.34375 51.125 25.703125 53.5625 
Q 30.078125 56 35.796875 56 
Q 45.21875 56 50.046875 50.171875 
Q 54.890625 44.34375 54.890625 33.015625 
z
" id="DejaVuSans-6e"/>
      <path d="M 25.390625 72.90625 
L 33.6875 72.90625 
L 8.296875 -9.28125 
L 0 -9.28125 
z
" id="DejaVuSans-2f"/>
      <path d="M 9.078125 75.984375 
L 18.109375 75.984375 
L 18.109375 31.109375 
L 44.921875 54.6875 
L 56.390625 54.6875 
L 27.390625 29.109375 
L 57.625 0 
L 45.90625 0 
L 18.109375 26.703125 
L 18.109375 0 
L 9.078125 0 
z
" id="DejaVuSans-6b"/>
     </defs>
     <g transform="translate(33.098437 315.8025)rotate(-90)scale(0.2 -0.2)">
      <use xlink:href="#DejaVuSans-70"/>
      <use x="63.476562" xlink:href="#DejaVuSans-61"/>
      <use x="124.755859" xlink:href="#DejaVuSans-63"/>
      <use x="179.736328" xlink:href="#DejaVuSans-65"/>
      <use x="241.259766" xlink:href="#DejaVuSans-20"/>
      <use x="273.046875" xlink:href="#DejaVuSans-6d"/>
      <use x="370.458984" xlink:href="#DejaVuSans-69"/>
      <use x="398.242188" xlink:href="#DejaVuSans-6e"/>
      <use x="461.621094" xlink:href="#DejaVuSans-2f"/>
      <use x="495.3125" xlink:href="#DejaVuSans-6b"/>
      <use x="553.222656" xlink:href="#DejaVuSans-6d"/>
     </g>
    </g>
   </g>
   <g id="line2d_16">
    <defs>
     <path d="M 0 2.5 
C 0.663008 2.5 1.29895 2.236584 1.767767 1.767767 
C 2.236584 1.29895 2.5 0.663008 2.5 0 
C 2.5 -0.663008 2.236584 -1.29895 1.767767 -1.767767 
C 1.29895 -2.236584 0.663008 -2.5 0 -2.5 
C -0.663008 -2.5 -1.29895 -2.236584 -1.767767 -1.767767 
C -2.236584 -1.29895 -2.5 -0.663008 -2.5 0 
C -2.5 0.663008 -2.236584 1.29895 -1.767767 1.767767 
C -1.29895 2.236584 -0.663008 2.5 0 2.5 
z
" id="m76912ca87a" style="stroke:#ff0000;"/>
    </defs>
    <g clip-path="url(#p6113c39c72)">
     <use style="fill:#ff0000;stroke:#ff0000;" x="126.4725" xlink:href="#m76912ca87a" y="256.876073"/>
     <use style="fill:#ff0000;stroke:#ff0000;" x="136.2375" xlink:href="#m76912ca87a" y="257.518523"/>
     <use style="fill:#ff0000;stroke:#ff0000;" x="146.0025" xlink:href="#m76912ca87a" y="177.807474"/>
     <use style="fill:#ff0000;stroke:#ff0000;" x="155.7675" xlink:href="#m76912ca87a" y="290.151155"/>
     <use style="fill:#ff0000;stroke:#ff0000;" x="165.5325" xlink:href="#m76912ca87a" y="316.606843"/>
     <use style="fill:#ff0000;stroke:#ff0000;" x="185.0625" xlink:href="#m76912ca87a" y="351.739516"/>
     <use style="fill:#ff0000;stroke:#ff0000;" x="194.8275" xlink:href="#m76912ca87a" y="324.897545"/>
     <use style="fill:#ff0000;stroke:#ff0000;" x="204.5925" xlink:href="#m76912ca87a" y="345.916658"/>
     <use style="fill:#ff0000;stroke:#ff0000;" x="214.3575" xlink:href="#m76912ca87a" y="349.28404"/>
     <use style="fill:#ff0000;stroke:#ff0000;" x="224.1225" xlink:href="#m76912ca87a" y="354.971173"/>
     <use style="fill:#ff0000;stroke:#ff0000;" x="253.4175" xlink:href="#m76912ca87a" y="341.152437"/>
     <use style="fill:#ff0000;stroke:#ff0000;" x="263.1825" xlink:href="#m76912ca87a" y="370.602475"/>
     <use style="fill:#ff0000;stroke:#ff0000;" x="272.9475" xlink:href="#m76912ca87a" y="365.746794"/>
     <use style="fill:#ff0000;stroke:#ff0000;" x="282.7125" xlink:href="#m76912ca87a" y="390.016885"/>
     <use style="fill:#ff0000;stroke:#ff0000;" x="292.4775" xlink:href="#m76912ca87a" y="397.707819"/>
     <use style="fill:#ff0000;stroke:#ff0000;" x="302.2425" xlink:href="#m76912ca87a" y="377.13769"/>
     <use style="fill:#ff0000;stroke:#ff0000;" x="312.0075" xlink:href="#m76912ca87a" y="397.383552"/>
     <use style="fill:#ff0000;stroke:#ff0000;" x="321.7725" xlink:href="#m76912ca87a" y="403.370008"/>
     <use style="fill:#ff0000;stroke:#ff0000;" x="331.5375" xlink:href="#m76912ca87a" y="400.543071"/>
     <use style="fill:#ff0000;stroke:#ff0000;" x="341.3025" xlink:href="#m76912ca87a" y="404.783477"/>
     <use style="fill:#ff0000;stroke:#ff0000;" x="351.0675" xlink:href="#m76912ca87a" y="401.831822"/>
     <use style="fill:#ff0000;stroke:#ff0000;" x="360.8325" xlink:href="#m76912ca87a" y="394.722905"/>
     <use style="fill:#ff0000;stroke:#ff0000;" x="370.5975" xlink:href="#m76912ca87a" y="396.676818"/>
     <use style="fill:#ff0000;stroke:#ff0000;" x="380.3625" xlink:href="#m76912ca87a" y="402.704847"/>
     <use style="fill:#ff0000;stroke:#ff0000;" x="390.1275" xlink:href="#m76912ca87a" y="400.875652"/>
     <use style="fill:#ff0000;stroke:#ff0000;" x="399.8925" xlink:href="#m76912ca87a" y="411.809249"/>
     <use style="fill:#ff0000;stroke:#ff0000;" x="409.6575" xlink:href="#m76912ca87a" y="408.109286"/>
    </g>
   </g>
   <g id="line2d_17">
    <path clip-path="url(#p6113c39c72)" d="M 62.755875 187.769936 
L 66.882692 187.426061 
L 71.009508 187.419009 
L 75.136325 187.773236 
L 79.263141 188.512964 
L 83.389958 189.661841 
L 87.516774 191.242514 
L 91.643591 193.276083 
L 95.770408 195.781439 
L 99.897224 198.774491 
L 104.024041 202.267274 
L 108.150857 206.266972 
L 112.277674 210.774873 
L 116.404491 215.785289 
L 120.531307 221.284516 
L 124.658124 227.249858 
L 128.78494 233.648817 
L 132.911757 240.438513 
L 137.038573 247.56541 
L 143.228798 258.745129 
L 163.862881 296.864545 
L 167.989698 303.945301 
L 172.116514 310.630513 
L 176.243331 316.842851 
L 180.370148 322.518813 
L 184.496964 327.611918 
L 188.623781 332.095254 
L 192.750597 335.963172 
L 194.814006 337.670575 
L 196.877414 339.231911 
L 201.004231 341.939073 
L 205.131047 344.141867 
L 209.257864 345.914204 
L 213.38468 347.34278 
L 217.511497 348.52239 
L 225.76513 350.523423 
L 231.955355 352.067662 
L 236.082171 353.260297 
L 240.208988 354.647675 
L 244.335805 356.264639 
L 248.462621 358.127424 
L 252.589438 360.234379 
L 256.716254 362.567733 
L 262.906479 366.420917 
L 271.160112 371.981808 
L 283.540562 380.402178 
L 289.730787 384.305047 
L 293.857604 386.71042 
L 297.98442 388.930824 
L 302.111237 390.951319 
L 306.238053 392.76432 
L 310.36487 394.36882 
L 314.491687 395.769414 
L 318.618503 396.975235 
L 322.74532 397.998872 
L 326.872136 398.855344 
L 333.062361 399.862944 
L 339.252586 400.589627 
L 345.442811 401.091989 
L 353.696444 401.501592 
L 364.013486 401.736812 
L 378.457344 401.794228 
L 397.028018 401.64144 
L 409.408468 401.359855 
L 419.725509 400.907323 
L 427.979143 400.325797 
L 436.232776 399.487859 
L 442.423001 398.662474 
L 448.613226 397.653792 
L 454.80345 396.458135 
L 460.993675 395.08212 
L 469.247308 392.998092 
L 473.374125 391.867492 
L 473.374125 391.867492 
" style="fill:none;stroke:#3300ff;stroke-linecap:square;stroke-width:2;"/>
   </g>
   <g id="line2d_18">
    <path clip-path="url(#p6113c39c72)" d="M 62.755875 77.776364 
L 66.882692 80.209625 
L 71.009508 82.816922 
L 75.136325 85.609084 
L 79.263141 88.601292 
L 83.389958 91.813088 
L 87.516774 95.268159 
L 91.643591 98.993896 
L 95.770408 103.020759 
L 99.897224 107.381486 
L 104.024041 112.110177 
L 108.150857 117.241288 
L 112.277674 122.808534 
L 116.404491 128.84368 
L 120.531307 135.375206 
L 124.658124 142.426767 
L 128.78494 150.015453 
L 132.911757 158.14981 
L 137.038573 166.827679 
L 141.16539 176.03394 
L 145.292207 185.738303 
L 149.419023 195.893343 
L 155.609248 211.821126 
L 163.862881 233.856756 
L 172.116514 255.894437 
L 178.306739 271.712179 
L 182.433556 281.622027 
L 186.560372 290.842947 
L 190.687189 299.233587 
L 192.750597 303.078977 
L 194.814006 306.674042 
L 196.877414 310.008831 
L 198.940822 313.076122 
L 201.004231 315.871852 
L 203.067639 318.395523 
L 205.131047 320.650555 
L 207.194455 322.644511 
L 209.257864 324.389114 
L 211.321272 325.899987 
L 213.38468 327.196091 
L 215.448089 328.298887 
L 217.511497 329.231311 
L 219.574905 330.016706 
L 223.701722 331.236103 
L 227.828538 332.120246 
L 234.018763 333.0989 
L 244.335805 334.586705 
L 248.462621 335.358151 
L 252.589438 336.331654 
L 256.716254 337.559678 
L 260.843071 339.077529 
L 264.969888 340.900456 
L 269.096704 343.023176 
L 273.223521 345.421493 
L 277.350337 348.055434 
L 283.540562 352.332713 
L 302.111237 365.599725 
L 306.238053 368.273364 
L 310.36487 370.751801 
L 314.491687 373.007143 
L 318.618503 375.020764 
L 322.74532 376.78308 
L 326.872136 378.293039 
L 330.998953 379.557345 
L 335.125769 380.58942 
L 339.252586 381.408129 
L 343.379403 382.036322 
L 349.569628 382.676983 
L 355.759852 383.033788 
L 364.013486 383.209009 
L 374.330527 383.161256 
L 392.901202 382.807751 
L 405.281651 382.369869 
L 413.535285 381.833368 
L 419.725509 381.204548 
L 425.915734 380.302718 
L 430.042551 379.513308 
L 434.169367 378.549459 
L 438.296184 377.394147 
L 442.423001 376.035302 
L 446.549817 374.467354 
L 450.676634 372.69234 
L 454.80345 370.720374 
L 460.993675 367.434295 
L 467.1839 363.834848 
L 473.374125 360.031349 
L 473.374125 360.031349 
" style="fill:none;stroke:#3300ff;stroke-linecap:square;stroke-width:0.2;"/>
   </g>
   <g id="line2d_19">
    <path clip-path="url(#p6113c39c72)" d="M 62.755875 297.763509 
L 66.882692 294.642497 
L 71.009508 292.021096 
L 73.072916 290.909831 
L 75.136325 289.937389 
L 77.199733 289.107771 
L 79.263141 288.424636 
L 81.32655 287.891274 
L 83.389958 287.510594 
L 85.453366 287.285099 
L 87.516774 287.216869 
L 89.580183 287.307537 
L 91.643591 287.558269 
L 93.706999 287.969742 
L 95.770408 288.542118 
L 97.833816 289.275018 
L 99.897224 290.167495 
L 101.960633 291.218004 
L 104.024041 292.424371 
L 106.087449 293.783763 
L 108.150857 295.292657 
L 112.277674 298.741212 
L 116.404491 302.726898 
L 120.531307 307.193826 
L 124.658124 312.072949 
L 128.78494 317.282181 
L 134.975165 325.505726 
L 145.292207 339.39094 
L 149.419023 344.666873 
L 153.54584 349.610856 
L 157.672656 354.118591 
L 161.799473 358.100798 
L 163.862881 359.872333 
L 165.92629 361.488453 
L 167.989698 362.944471 
L 170.053106 364.237507 
L 172.116514 365.366588 
L 174.179923 366.332716 
L 176.243331 367.138915 
L 178.306739 367.790253 
L 180.370148 368.293833 
L 182.433556 368.658748 
L 184.496964 368.896003 
L 188.623781 369.04035 
L 192.750597 368.847366 
L 198.940822 368.228968 
L 205.131047 367.63318 
L 209.257864 367.439294 
L 213.38468 367.489469 
L 217.511497 367.813469 
L 221.638313 368.423738 
L 225.76513 369.33577 
L 229.891947 370.577903 
L 234.018763 372.186174 
L 238.14558 374.189626 
L 242.272396 376.595194 
L 246.399213 379.379011 
L 250.52603 382.486267 
L 256.716254 387.575788 
L 271.160112 399.773559 
L 275.286929 402.945388 
L 279.413746 405.857626 
L 283.540562 408.471643 
L 287.667379 410.765712 
L 291.794195 412.733699 
L 295.921012 414.383068 
L 300.047829 415.732466 
L 304.174645 416.809084 
L 308.301462 417.645985 
L 312.428278 418.279517 
L 318.618503 418.929706 
L 324.808728 419.324637 
L 333.062361 419.624545 
L 355.759852 420.103522 
L 380.520752 420.508708 
L 399.091427 420.591093 
L 425.915734 420.68348 
L 436.232776 420.979091 
L 444.486409 421.416462 
L 454.80345 422.195897 
L 473.374125 423.703636 
L 473.374125 423.703636 
" style="fill:none;stroke:#3300ff;stroke-linecap:square;stroke-width:0.2;"/>
   </g>
   <g id="patch_4">
    <path d="M 63 441 
L 63 60.48 
" style="fill:none;stroke:#000000;stroke-linecap:square;stroke-linejoin:miter;stroke-width:0.8;"/>
   </g>
   <g id="patch_5">
    <path d="M 453.6 441 
L 453.6 60.48 
" style="fill:none;stroke:#000000;stroke-linecap:square;stroke-linejoin:miter;stroke-width:0.8;"/>
   </g>
   <g id="patch_6">
    <path d="M 63 441 
L 453.6 441 
" style="fill:none;stroke:#000000;stroke-linecap:square;stroke-linejoin:miter;stroke-width:0.8;"/>
   </g>
   <g id="patch_7">
    <path d="M 63 60.48 
L 453.6 60.48 
" style="fill:none;stroke:#000000;stroke-linecap:square;stroke-linejoin:miter;stroke-width:0.8;"/>
   </g>
  </g>
 </g>
 <defs>
  <clipPath id="p6113c39c72">
   <rect height="380.52" width="390.6" x="63" y="60.48"/>
  </clipPath>
 </defs>
</svg>
