<?xml version="1.0" encoding="utf-8" standalone="no"?>
<!DOCTYPE svg PUBLIC "-//W3C//DTD SVG 1.1//EN"
  "http://www.w3.org/Graphics/SVG/1.1/DTD/svg11.dtd">
<!-- Created with matplotlib (http://matplotlib.org/) -->
<svg height="432pt" version="1.1" viewBox="0 0 864 432" width="864pt" xmlns="http://www.w3.org/2000/svg" xmlns:xlink="http://www.w3.org/1999/xlink">
 <defs>
  <style type="text/css">
*{stroke-linecap:butt;stroke-linejoin:round;}
  </style>
 </defs>
 <g id="figure_1">
  <g id="patch_1">
   <path d="M 0 432 
L 864 432 
L 864 0 
L 0 0 
z
" style="fill:none;"/>
  </g>
  <g id="axes_1">
   <g id="patch_2">
    <path d="M 108 378 
L 777.6 378 
L 777.6 51.84 
L 108 51.84 
z
" style="fill:none;"/>
   </g>
   <g id="patch_3">
    <path clip-path="url(#p2f23f72154)" d="M 98.496 76.061351 
L 102.021467 78.900716 
L 105.546935 81.731301 
L 109.072402 84.552675 
L 112.597869 87.364422 
L 116.123337 90.166141 
L 119.648804 92.957445 
L 123.174271 95.737963 
L 126.699739 98.507343 
L 130.225206 101.265244 
L 133.750673 104.011346 
L 137.276141 106.745342 
L 140.801608 109.466944 
L 144.327075 112.17588 
L 147.852543 114.871891 
L 151.37801 117.554739 
L 154.903477 120.224198 
L 158.428945 122.880059 
L 161.954412 125.522128 
L 165.479879 128.150225 
L 169.005347 130.764184 
L 172.530814 133.363854 
L 176.056281 135.949096 
L 179.581749 138.519781 
L 183.107216 141.075795 
L 186.632683 143.617033 
L 190.158151 146.143399 
L 193.683618 148.654809 
L 197.209085 151.151183 
L 200.734553 153.632452 
L 204.26002 156.098551 
L 207.785487 158.549424 
L 211.310955 160.985015 
L 214.836422 163.405276 
L 218.361889 165.81016 
L 221.887357 168.199622 
L 225.412824 170.573619 
L 228.938291 172.93211 
L 232.463759 175.275052 
L 235.989226 177.6024 
L 239.514693 179.914112 
L 243.040161 182.210139 
L 246.565628 184.490432 
L 250.091095 186.754939 
L 253.616563 189.003602 
L 257.14203 191.236363 
L 260.667497 193.453156 
L 264.192965 195.653911 
L 267.718432 197.838554 
L 271.243899 200.007006 
L 274.769367 202.159182 
L 278.294834 204.294991 
L 281.820302 206.414338 
L 285.345769 208.517121 
L 288.871236 210.603235 
L 292.396704 212.672566 
L 295.922171 214.724999 
L 299.447638 216.760412 
L 302.973106 218.778677 
L 306.498573 220.779663 
L 310.02404 222.763235 
L 313.549508 224.729254 
L 317.074975 226.677576 
L 320.600442 228.608054 
L 324.12591 230.52054 
L 327.651377 232.414882 
L 331.176844 234.290924 
L 334.702312 236.148513 
L 338.227779 237.987489 
L 341.753246 239.807695 
L 345.278714 241.608974 
L 348.804181 243.391164 
L 352.329648 245.15411 
L 355.855116 246.897652 
L 359.380583 248.621635 
L 362.90605 250.325903 
L 366.431518 252.010304 
L 369.956985 253.674688 
L 373.482452 255.318906 
L 377.00792 256.942815 
L 380.533387 258.546274 
L 384.058854 260.129145 
L 387.584322 261.691296 
L 391.109789 263.232597 
L 394.635256 264.752927 
L 398.160724 266.252166 
L 401.686191 267.730201 
L 405.211658 269.186925 
L 408.737126 270.622235 
L 412.262593 272.036037 
L 415.78806 273.428241 
L 419.313528 274.798763 
L 422.838995 276.147528 
L 426.364462 277.474464 
L 429.88993 278.77951 
L 433.415397 280.062608 
L 436.940864 281.323711 
L 440.466332 282.562773 
L 443.991799 283.779762 
L 447.517266 284.974647 
L 451.042734 286.147409 
L 454.568201 287.298032 
L 458.093668 288.42651 
L 461.619136 289.532842 
L 465.144603 290.617034 
L 468.67007 291.6791 
L 472.195538 292.71906 
L 475.721005 293.736941 
L 479.246472 294.732776 
L 482.77194 295.706605 
L 486.297407 296.658474 
L 489.822874 297.588436 
L 493.348342 298.496548 
L 496.873809 299.382876 
L 500.399276 300.247491 
L 503.924744 301.090467 
L 507.450211 301.911888 
L 510.975678 302.71184 
L 514.501146 303.490418 
L 518.026613 304.247718 
L 521.55208 304.983846 
L 525.077548 305.69891 
L 528.603015 306.393026 
L 532.128482 307.066312 
L 535.65395 307.718895 
L 539.179417 308.350905 
L 542.704884 308.962478 
L 546.230352 309.553757 
L 549.755819 310.124888 
L 553.281286 310.676025 
L 556.806754 311.207328 
L 560.332221 311.718962 
L 563.857688 312.2111 
L 567.383156 312.68392 
L 570.908623 313.137609 
L 574.43409 313.57236 
L 577.959558 313.988374 
L 581.485025 314.385858 
L 585.010492 314.765031 
L 588.53596 315.126117 
L 592.061427 315.46935 
L 595.586894 315.794972 
L 599.112362 316.103236 
L 602.637829 316.394402 
L 606.163296 316.668739 
L 609.688764 316.926527 
L 613.214231 317.168053 
L 616.739698 317.393615 
L 620.265166 317.603519 
L 623.790633 317.798078 
L 627.316101 317.977614 
L 630.841568 318.142456 
L 634.367035 318.292941 
L 637.892503 318.429411 
L 641.41797 318.552215 
L 644.943437 318.661704 
L 648.468905 318.758236 
L 651.994372 318.842169 
L 655.519839 318.913866 
L 659.045307 318.973689 
L 662.570774 319.022 
L 666.096241 319.059163 
L 669.621709 319.085536 
L 673.147176 319.101477 
L 676.672643 319.107342 
L 680.198111 319.103478 
L 683.723578 319.090231 
L 687.249045 319.067938 
L 690.774513 319.036933 
L 694.29998 318.99754 
L 697.825447 318.950074 
L 701.350915 318.894847 
L 704.876382 318.832156 
L 708.401849 318.762292 
L 711.927317 318.685538 
L 715.452784 318.602164 
L 718.978251 318.512434 
L 722.503719 318.416598 
L 726.029186 318.314899 
L 729.554653 318.207569 
L 733.080121 318.09483 
L 736.605588 317.976893 
L 740.131055 317.853959 
L 743.656523 317.726222 
L 747.18199 317.593862 
L 750.707457 317.457052 
L 754.232925 317.315954 
L 757.758392 317.170722 
L 761.283859 317.021498 
L 764.809327 316.868419 
L 768.334794 316.71161 
L 771.860261 316.551188 
L 775.385729 316.38726 
L 778.911196 316.219927 
L 782.436663 316.04928 
L 785.962131 315.875401 
L 789.487598 315.698366 
L 793.013065 315.518241 
L 796.538533 315.335084 
L 800.064 315.148947 
L 800.064 343.391063 
L 796.538533 343.322189 
L 793.013065 343.254687 
L 789.487598 343.188542 
L 785.962131 343.123735 
L 782.436663 343.06025 
L 778.911196 342.998068 
L 775.385729 342.93717 
L 771.860261 342.877539 
L 768.334794 342.819155 
L 764.809327 342.762 
L 761.283859 342.706054 
L 757.758392 342.651298 
L 754.232925 342.597715 
L 750.707457 342.545286 
L 747.18199 342.493991 
L 743.656523 342.443815 
L 740.131055 342.39474 
L 736.605588 342.34675 
L 733.080121 342.299829 
L 729.554653 342.253964 
L 726.029186 342.20914 
L 722.503719 342.165344 
L 718.978251 342.122567 
L 715.452784 342.080798 
L 711.927317 342.040027 
L 708.401849 342.000246 
L 704.876382 341.961448 
L 701.350915 341.923625 
L 697.825447 341.886774 
L 694.29998 341.850886 
L 690.774513 341.815956 
L 687.249045 341.781979 
L 683.723578 341.748945 
L 680.198111 341.716849 
L 676.672643 341.685679 
L 673.147176 341.655422 
L 669.621709 341.626062 
L 666.096241 341.597581 
L 662.570774 341.569954 
L 659.045307 341.543152 
L 655.519839 341.517139 
L 651.994372 341.491875 
L 648.468905 341.467308 
L 644.943437 341.443383 
L 641.41797 341.420029 
L 637.892503 341.397173 
L 634.367035 341.374725 
L 630.841568 341.352587 
L 627.316101 341.330649 
L 623.790633 341.308786 
L 620.265166 341.286866 
L 616.739698 341.264738 
L 613.214231 341.24224 
L 609.688764 341.219197 
L 606.163296 341.195422 
L 602.637829 341.17071 
L 599.112362 341.144848 
L 595.586894 341.117606 
L 592.061427 341.088744 
L 588.53596 341.058007 
L 585.010492 341.025131 
L 581.485025 340.989838 
L 577.959558 340.95184 
L 574.43409 340.910841 
L 570.908623 340.866531 
L 567.383156 340.818595 
L 563.857688 340.766708 
L 560.332221 340.710537 
L 556.806754 340.649744 
L 553.281286 340.583983 
L 549.755819 340.512903 
L 546.230352 340.436148 
L 542.704884 340.353358 
L 539.179417 340.26417 
L 535.65395 340.168218 
L 532.128482 340.065132 
L 528.603015 339.954541 
L 525.077548 339.836075 
L 521.55208 339.709359 
L 518.026613 339.574023 
L 514.501146 339.429691 
L 510.975678 339.275995 
L 507.450211 339.112562 
L 503.924744 338.939025 
L 500.399276 338.755015 
L 496.873809 338.560171 
L 493.348342 338.35413 
L 489.822874 338.136534 
L 486.297407 337.90703 
L 482.77194 337.665268 
L 479.246472 337.410903 
L 475.721005 337.143595 
L 472.195538 336.863007 
L 468.67007 336.568813 
L 465.144603 336.260688 
L 461.619136 335.938316 
L 458.093668 335.601387 
L 454.568201 335.249599 
L 451.042734 334.882658 
L 447.517266 334.500277 
L 443.991799 334.102177 
L 440.466332 333.688091 
L 436.940864 333.257757 
L 433.415397 332.810928 
L 429.88993 332.347362 
L 426.364462 331.866831 
L 422.838995 331.369117 
L 419.313528 330.854013 
L 415.78806 330.321326 
L 412.262593 329.770873 
L 408.737126 329.202486 
L 405.211658 328.616009 
L 401.686191 328.0113 
L 398.160724 327.388231 
L 394.635256 326.746691 
L 391.109789 326.086581 
L 387.584322 325.407821 
L 384.058854 324.710344 
L 380.533387 323.994102 
L 377.00792 323.259064 
L 373.482452 322.505215 
L 369.956985 321.73256 
L 366.431518 320.941122 
L 362.90605 320.130941 
L 359.380583 319.302079 
L 355.855116 318.454618 
L 352.329648 317.588659 
L 348.804181 316.704323 
L 345.278714 315.801753 
L 341.753246 314.881115 
L 338.227779 313.942594 
L 334.702312 312.9864 
L 331.176844 312.012764 
L 327.651377 311.021939 
L 324.12591 310.014202 
L 320.600442 308.989855 
L 317.074975 307.94922 
L 313.549508 306.892646 
L 310.02404 305.820505 
L 306.498573 304.733191 
L 302.973106 303.631125 
L 299.447638 302.51475 
L 295.922171 301.384533 
L 292.396704 300.240968 
L 288.871236 299.084569 
L 285.345769 297.915877 
L 281.820302 296.735453 
L 278.294834 295.543886 
L 274.769367 294.341783 
L 271.243899 293.129776 
L 267.718432 291.908521 
L 264.192965 290.678691 
L 260.667497 289.440984 
L 257.14203 288.196116 
L 253.616563 286.944825 
L 250.091095 285.687865 
L 246.565628 284.42601 
L 243.040161 283.160051 
L 239.514693 281.890795 
L 235.989226 280.619064 
L 232.463759 279.345693 
L 228.938291 278.071532 
L 225.412824 276.797441 
L 221.887357 275.524293 
L 218.361889 274.252966 
L 214.836422 272.98435 
L 211.310955 271.719339 
L 207.785487 270.458832 
L 204.26002 269.203733 
L 200.734553 267.954947 
L 197.209085 266.713379 
L 193.683618 265.479935 
L 190.158151 264.255518 
L 186.632683 263.041025 
L 183.107216 261.837349 
L 179.581749 260.645378 
L 176.056281 259.465989 
L 172.530814 258.300051 
L 169.005347 257.148421 
L 165.479879 256.011943 
L 161.954412 254.891448 
L 158.428945 253.787754 
L 154.903477 252.701659 
L 151.37801 251.633946 
L 147.852543 250.585381 
L 144.327075 249.556708 
L 140.801608 248.548653 
L 137.276141 247.56192 
L 133.750673 246.597191 
L 130.225206 245.655127 
L 126.699739 244.736366 
L 123.174271 243.84152 
L 119.648804 242.971181 
L 116.123337 242.125914 
L 112.597869 241.306261 
L 109.072402 240.512739 
L 105.546935 239.745839 
L 102.021467 239.006028 
L 98.496 238.29375 
z
" style="fill:#cc3300;opacity:0.3;stroke:#cc3300;stroke-linejoin:miter;stroke-width:0.5;"/>
   </g>
   <g id="matplotlib.axis_1">
    <g id="xtick_1">
     <g id="line2d_1">
      <defs>
       <path d="M 0 0 
L 0 3.5 
" id="m423511292a" style="stroke:#000000;stroke-width:0.8;"/>
      </defs>
      <g>
       <use style="stroke:#000000;stroke-width:0.8;" x="129.6" xlink:href="#m423511292a" y="378"/>
      </g>
     </g>
     <g id="text_1">
      <!-- 1880 -->
      <defs>
       <path d="M 12.40625 8.296875 
L 28.515625 8.296875 
L 28.515625 63.921875 
L 10.984375 60.40625 
L 10.984375 69.390625 
L 28.421875 72.90625 
L 38.28125 72.90625 
L 38.28125 8.296875 
L 54.390625 8.296875 
L 54.390625 0 
L 12.40625 0 
z
" id="DejaVuSans-31"/>
       <path d="M 31.78125 34.625 
Q 24.75 34.625 20.71875 30.859375 
Q 16.703125 27.09375 16.703125 20.515625 
Q 16.703125 13.921875 20.71875 10.15625 
Q 24.75 6.390625 31.78125 6.390625 
Q 38.8125 6.390625 42.859375 10.171875 
Q 46.921875 13.96875 46.921875 20.515625 
Q 46.921875 27.09375 42.890625 30.859375 
Q 38.875 34.625 31.78125 34.625 
z
M 21.921875 38.8125 
Q 15.578125 40.375 12.03125 44.71875 
Q 8.5 49.078125 8.5 55.328125 
Q 8.5 64.0625 14.71875 69.140625 
Q 20.953125 74.21875 31.78125 74.21875 
Q 42.671875 74.21875 48.875 69.140625 
Q 55.078125 64.0625 55.078125 55.328125 
Q 55.078125 49.078125 51.53125 44.71875 
Q 48 40.375 41.703125 38.8125 
Q 48.828125 37.15625 52.796875 32.3125 
Q 56.78125 27.484375 56.78125 20.515625 
Q 56.78125 9.90625 50.3125 4.234375 
Q 43.84375 -1.421875 31.78125 -1.421875 
Q 19.734375 -1.421875 13.25 4.234375 
Q 6.78125 9.90625 6.78125 20.515625 
Q 6.78125 27.484375 10.78125 32.3125 
Q 14.796875 37.15625 21.921875 38.8125 
z
M 18.3125 54.390625 
Q 18.3125 48.734375 21.84375 45.5625 
Q 25.390625 42.390625 31.78125 42.390625 
Q 38.140625 42.390625 41.71875 45.5625 
Q 45.3125 48.734375 45.3125 54.390625 
Q 45.3125 60.0625 41.71875 63.234375 
Q 38.140625 66.40625 31.78125 66.40625 
Q 25.390625 66.40625 21.84375 63.234375 
Q 18.3125 60.0625 18.3125 54.390625 
z
" id="DejaVuSans-38"/>
       <path d="M 31.78125 66.40625 
Q 24.171875 66.40625 20.328125 58.90625 
Q 16.5 51.421875 16.5 36.375 
Q 16.5 21.390625 20.328125 13.890625 
Q 24.171875 6.390625 31.78125 6.390625 
Q 39.453125 6.390625 43.28125 13.890625 
Q 47.125 21.390625 47.125 36.375 
Q 47.125 51.421875 43.28125 58.90625 
Q 39.453125 66.40625 31.78125 66.40625 
z
M 31.78125 74.21875 
Q 44.046875 74.21875 50.515625 64.515625 
Q 56.984375 54.828125 56.984375 36.375 
Q 56.984375 17.96875 50.515625 8.265625 
Q 44.046875 -1.421875 31.78125 -1.421875 
Q 19.53125 -1.421875 13.0625 8.265625 
Q 6.59375 17.96875 6.59375 36.375 
Q 6.59375 54.828125 13.0625 64.515625 
Q 19.53125 74.21875 31.78125 74.21875 
z
" id="DejaVuSans-30"/>
      </defs>
      <g transform="translate(116.875 392.598437)scale(0.1 -0.1)">
       <use xlink:href="#DejaVuSans-31"/>
       <use x="63.623047" xlink:href="#DejaVuSans-38"/>
       <use x="127.246094" xlink:href="#DejaVuSans-38"/>
       <use x="190.869141" xlink:href="#DejaVuSans-30"/>
      </g>
     </g>
    </g>
    <g id="xtick_2">
     <g id="line2d_2">
      <g>
       <use style="stroke:#000000;stroke-width:0.8;" x="216" xlink:href="#m423511292a" y="378"/>
      </g>
     </g>
     <g id="text_2">
      <!-- 1900 -->
      <defs>
       <path d="M 10.984375 1.515625 
L 10.984375 10.5 
Q 14.703125 8.734375 18.5 7.8125 
Q 22.3125 6.890625 25.984375 6.890625 
Q 35.75 6.890625 40.890625 13.453125 
Q 46.046875 20.015625 46.78125 33.40625 
Q 43.953125 29.203125 39.59375 26.953125 
Q 35.25 24.703125 29.984375 24.703125 
Q 19.046875 24.703125 12.671875 31.3125 
Q 6.296875 37.9375 6.296875 49.421875 
Q 6.296875 60.640625 12.9375 67.421875 
Q 19.578125 74.21875 30.609375 74.21875 
Q 43.265625 74.21875 49.921875 64.515625 
Q 56.59375 54.828125 56.59375 36.375 
Q 56.59375 19.140625 48.40625 8.859375 
Q 40.234375 -1.421875 26.421875 -1.421875 
Q 22.703125 -1.421875 18.890625 -0.6875 
Q 15.09375 0.046875 10.984375 1.515625 
z
M 30.609375 32.421875 
Q 37.25 32.421875 41.125 36.953125 
Q 45.015625 41.5 45.015625 49.421875 
Q 45.015625 57.28125 41.125 61.84375 
Q 37.25 66.40625 30.609375 66.40625 
Q 23.96875 66.40625 20.09375 61.84375 
Q 16.21875 57.28125 16.21875 49.421875 
Q 16.21875 41.5 20.09375 36.953125 
Q 23.96875 32.421875 30.609375 32.421875 
z
" id="DejaVuSans-39"/>
      </defs>
      <g transform="translate(203.275 392.598437)scale(0.1 -0.1)">
       <use xlink:href="#DejaVuSans-31"/>
       <use x="63.623047" xlink:href="#DejaVuSans-39"/>
       <use x="127.246094" xlink:href="#DejaVuSans-30"/>
       <use x="190.869141" xlink:href="#DejaVuSans-30"/>
      </g>
     </g>
    </g>
    <g id="xtick_3">
     <g id="line2d_3">
      <g>
       <use style="stroke:#000000;stroke-width:0.8;" x="302.4" xlink:href="#m423511292a" y="378"/>
      </g>
     </g>
     <g id="text_3">
      <!-- 1920 -->
      <defs>
       <path d="M 19.1875 8.296875 
L 53.609375 8.296875 
L 53.609375 0 
L 7.328125 0 
L 7.328125 8.296875 
Q 12.9375 14.109375 22.625 23.890625 
Q 32.328125 33.6875 34.8125 36.53125 
Q 39.546875 41.84375 41.421875 45.53125 
Q 43.3125 49.21875 43.3125 52.78125 
Q 43.3125 58.59375 39.234375 62.25 
Q 35.15625 65.921875 28.609375 65.921875 
Q 23.96875 65.921875 18.8125 64.3125 
Q 13.671875 62.703125 7.8125 59.421875 
L 7.8125 69.390625 
Q 13.765625 71.78125 18.9375 73 
Q 24.125 74.21875 28.421875 74.21875 
Q 39.75 74.21875 46.484375 68.546875 
Q 53.21875 62.890625 53.21875 53.421875 
Q 53.21875 48.921875 51.53125 44.890625 
Q 49.859375 40.875 45.40625 35.40625 
Q 44.1875 33.984375 37.640625 27.21875 
Q 31.109375 20.453125 19.1875 8.296875 
z
" id="DejaVuSans-32"/>
      </defs>
      <g transform="translate(289.675 392.598437)scale(0.1 -0.1)">
       <use xlink:href="#DejaVuSans-31"/>
       <use x="63.623047" xlink:href="#DejaVuSans-39"/>
       <use x="127.246094" xlink:href="#DejaVuSans-32"/>
       <use x="190.869141" xlink:href="#DejaVuSans-30"/>
      </g>
     </g>
    </g>
    <g id="xtick_4">
     <g id="line2d_4">
      <g>
       <use style="stroke:#000000;stroke-width:0.8;" x="388.8" xlink:href="#m423511292a" y="378"/>
      </g>
     </g>
     <g id="text_4">
      <!-- 1940 -->
      <defs>
       <path d="M 37.796875 64.3125 
L 12.890625 25.390625 
L 37.796875 25.390625 
z
M 35.203125 72.90625 
L 47.609375 72.90625 
L 47.609375 25.390625 
L 58.015625 25.390625 
L 58.015625 17.1875 
L 47.609375 17.1875 
L 47.609375 0 
L 37.796875 0 
L 37.796875 17.1875 
L 4.890625 17.1875 
L 4.890625 26.703125 
z
" id="DejaVuSans-34"/>
      </defs>
      <g transform="translate(376.075 392.598437)scale(0.1 -0.1)">
       <use xlink:href="#DejaVuSans-31"/>
       <use x="63.623047" xlink:href="#DejaVuSans-39"/>
       <use x="127.246094" xlink:href="#DejaVuSans-34"/>
       <use x="190.869141" xlink:href="#DejaVuSans-30"/>
      </g>
     </g>
    </g>
    <g id="xtick_5">
     <g id="line2d_5">
      <g>
       <use style="stroke:#000000;stroke-width:0.8;" x="475.2" xlink:href="#m423511292a" y="378"/>
      </g>
     </g>
     <g id="text_5">
      <!-- 1960 -->
      <defs>
       <path d="M 33.015625 40.375 
Q 26.375 40.375 22.484375 35.828125 
Q 18.609375 31.296875 18.609375 23.390625 
Q 18.609375 15.53125 22.484375 10.953125 
Q 26.375 6.390625 33.015625 6.390625 
Q 39.65625 6.390625 43.53125 10.953125 
Q 47.40625 15.53125 47.40625 23.390625 
Q 47.40625 31.296875 43.53125 35.828125 
Q 39.65625 40.375 33.015625 40.375 
z
M 52.59375 71.296875 
L 52.59375 62.3125 
Q 48.875 64.0625 45.09375 64.984375 
Q 41.3125 65.921875 37.59375 65.921875 
Q 27.828125 65.921875 22.671875 59.328125 
Q 17.53125 52.734375 16.796875 39.40625 
Q 19.671875 43.65625 24.015625 45.921875 
Q 28.375 48.1875 33.59375 48.1875 
Q 44.578125 48.1875 50.953125 41.515625 
Q 57.328125 34.859375 57.328125 23.390625 
Q 57.328125 12.15625 50.6875 5.359375 
Q 44.046875 -1.421875 33.015625 -1.421875 
Q 20.359375 -1.421875 13.671875 8.265625 
Q 6.984375 17.96875 6.984375 36.375 
Q 6.984375 53.65625 15.1875 63.9375 
Q 23.390625 74.21875 37.203125 74.21875 
Q 40.921875 74.21875 44.703125 73.484375 
Q 48.484375 72.75 52.59375 71.296875 
z
" id="DejaVuSans-36"/>
      </defs>
      <g transform="translate(462.475 392.598437)scale(0.1 -0.1)">
       <use xlink:href="#DejaVuSans-31"/>
       <use x="63.623047" xlink:href="#DejaVuSans-39"/>
       <use x="127.246094" xlink:href="#DejaVuSans-36"/>
       <use x="190.869141" xlink:href="#DejaVuSans-30"/>
      </g>
     </g>
    </g>
    <g id="xtick_6">
     <g id="line2d_6">
      <g>
       <use style="stroke:#000000;stroke-width:0.8;" x="561.6" xlink:href="#m423511292a" y="378"/>
      </g>
     </g>
     <g id="text_6">
      <!-- 1980 -->
      <g transform="translate(548.875 392.598437)scale(0.1 -0.1)">
       <use xlink:href="#DejaVuSans-31"/>
       <use x="63.623047" xlink:href="#DejaVuSans-39"/>
       <use x="127.246094" xlink:href="#DejaVuSans-38"/>
       <use x="190.869141" xlink:href="#DejaVuSans-30"/>
      </g>
     </g>
    </g>
    <g id="xtick_7">
     <g id="line2d_7">
      <g>
       <use style="stroke:#000000;stroke-width:0.8;" x="648" xlink:href="#m423511292a" y="378"/>
      </g>
     </g>
     <g id="text_7">
      <!-- 2000 -->
      <g transform="translate(635.275 392.598437)scale(0.1 -0.1)">
       <use xlink:href="#DejaVuSans-32"/>
       <use x="63.623047" xlink:href="#DejaVuSans-30"/>
       <use x="127.246094" xlink:href="#DejaVuSans-30"/>
       <use x="190.869141" xlink:href="#DejaVuSans-30"/>
      </g>
     </g>
    </g>
    <g id="xtick_8">
     <g id="line2d_8">
      <g>
       <use style="stroke:#000000;stroke-width:0.8;" x="734.4" xlink:href="#m423511292a" y="378"/>
      </g>
     </g>
     <g id="text_8">
      <!-- 2020 -->
      <g transform="translate(721.675 392.598437)scale(0.1 -0.1)">
       <use xlink:href="#DejaVuSans-32"/>
       <use x="63.623047" xlink:href="#DejaVuSans-30"/>
       <use x="127.246094" xlink:href="#DejaVuSans-32"/>
       <use x="190.869141" xlink:href="#DejaVuSans-30"/>
      </g>
     </g>
    </g>
    <g id="text_9">
     <!-- year -->
     <defs>
      <path d="M 32.171875 -5.078125 
Q 28.375 -14.84375 24.75 -17.8125 
Q 21.140625 -20.796875 15.09375 -20.796875 
L 7.90625 -20.796875 
L 7.90625 -13.28125 
L 13.1875 -13.28125 
Q 16.890625 -13.28125 18.9375 -11.515625 
Q 21 -9.765625 23.484375 -3.21875 
L 25.09375 0.875 
L 2.984375 54.6875 
L 12.5 54.6875 
L 29.59375 11.921875 
L 46.6875 54.6875 
L 56.203125 54.6875 
z
" id="DejaVuSans-79"/>
      <path d="M 56.203125 29.59375 
L 56.203125 25.203125 
L 14.890625 25.203125 
Q 15.484375 15.921875 20.484375 11.0625 
Q 25.484375 6.203125 34.421875 6.203125 
Q 39.59375 6.203125 44.453125 7.46875 
Q 49.3125 8.734375 54.109375 11.28125 
L 54.109375 2.78125 
Q 49.265625 0.734375 44.1875 -0.34375 
Q 39.109375 -1.421875 33.890625 -1.421875 
Q 20.796875 -1.421875 13.15625 6.1875 
Q 5.515625 13.8125 5.515625 26.8125 
Q 5.515625 40.234375 12.765625 48.109375 
Q 20.015625 56 32.328125 56 
Q 43.359375 56 49.78125 48.890625 
Q 56.203125 41.796875 56.203125 29.59375 
z
M 47.21875 32.234375 
Q 47.125 39.59375 43.09375 43.984375 
Q 39.0625 48.390625 32.421875 48.390625 
Q 24.90625 48.390625 20.390625 44.140625 
Q 15.875 39.890625 15.1875 32.171875 
z
" id="DejaVuSans-65"/>
      <path d="M 34.28125 27.484375 
Q 23.390625 27.484375 19.1875 25 
Q 14.984375 22.515625 14.984375 16.5 
Q 14.984375 11.71875 18.140625 8.90625 
Q 21.296875 6.109375 26.703125 6.109375 
Q 34.1875 6.109375 38.703125 11.40625 
Q 43.21875 16.703125 43.21875 25.484375 
L 43.21875 27.484375 
z
M 52.203125 31.203125 
L 52.203125 0 
L 43.21875 0 
L 43.21875 8.296875 
Q 40.140625 3.328125 35.546875 0.953125 
Q 30.953125 -1.421875 24.3125 -1.421875 
Q 15.921875 -1.421875 10.953125 3.296875 
Q 6 8.015625 6 15.921875 
Q 6 25.140625 12.171875 29.828125 
Q 18.359375 34.515625 30.609375 34.515625 
L 43.21875 34.515625 
L 43.21875 35.40625 
Q 43.21875 41.609375 39.140625 45 
Q 35.0625 48.390625 27.6875 48.390625 
Q 23 48.390625 18.546875 47.265625 
Q 14.109375 46.140625 10.015625 43.890625 
L 10.015625 52.203125 
Q 14.9375 54.109375 19.578125 55.046875 
Q 24.21875 56 28.609375 56 
Q 40.484375 56 46.34375 49.84375 
Q 52.203125 43.703125 52.203125 31.203125 
z
" id="DejaVuSans-61"/>
      <path d="M 41.109375 46.296875 
Q 39.59375 47.171875 37.8125 47.578125 
Q 36.03125 48 33.890625 48 
Q 26.265625 48 22.1875 43.046875 
Q 18.109375 38.09375 18.109375 28.8125 
L 18.109375 0 
L 9.078125 0 
L 9.078125 54.6875 
L 18.109375 54.6875 
L 18.109375 46.1875 
Q 20.953125 51.171875 25.484375 53.578125 
Q 30.03125 56 36.53125 56 
Q 37.453125 56 38.578125 55.875 
Q 39.703125 55.765625 41.0625 55.515625 
z
" id="DejaVuSans-72"/>
     </defs>
     <g transform="translate(420.489062 413.875)scale(0.2 -0.2)">
      <use xlink:href="#DejaVuSans-79"/>
      <use x="59.179688" xlink:href="#DejaVuSans-65"/>
      <use x="120.703125" xlink:href="#DejaVuSans-61"/>
      <use x="181.982422" xlink:href="#DejaVuSans-72"/>
     </g>
    </g>
   </g>
   <g id="matplotlib.axis_2">
    <g id="ytick_1">
     <g id="line2d_9">
      <defs>
       <path d="M 0 0 
L -3.5 0 
" id="m99f6d7e406" style="stroke:#000000;stroke-width:0.8;"/>
      </defs>
      <g>
       <use style="stroke:#000000;stroke-width:0.8;" x="108" xlink:href="#m99f6d7e406" y="378"/>
      </g>
     </g>
     <g id="text_10">
      <!-- 2.5 -->
      <defs>
       <path d="M 10.6875 12.40625 
L 21 12.40625 
L 21 0 
L 10.6875 0 
z
" id="DejaVuSans-2e"/>
       <path d="M 10.796875 72.90625 
L 49.515625 72.90625 
L 49.515625 64.59375 
L 19.828125 64.59375 
L 19.828125 46.734375 
Q 21.96875 47.46875 24.109375 47.828125 
Q 26.265625 48.1875 28.421875 48.1875 
Q 40.625 48.1875 47.75 41.5 
Q 54.890625 34.8125 54.890625 23.390625 
Q 54.890625 11.625 47.5625 5.09375 
Q 40.234375 -1.421875 26.90625 -1.421875 
Q 22.3125 -1.421875 17.546875 -0.640625 
Q 12.796875 0.140625 7.71875 1.703125 
L 7.71875 11.625 
Q 12.109375 9.234375 16.796875 8.0625 
Q 21.484375 6.890625 26.703125 6.890625 
Q 35.15625 6.890625 40.078125 11.328125 
Q 45.015625 15.765625 45.015625 23.390625 
Q 45.015625 31 40.078125 35.4375 
Q 35.15625 39.890625 26.703125 39.890625 
Q 22.75 39.890625 18.8125 39.015625 
Q 14.890625 38.140625 10.796875 36.28125 
z
" id="DejaVuSans-35"/>
      </defs>
      <g transform="translate(85.096875 381.799219)scale(0.1 -0.1)">
       <use xlink:href="#DejaVuSans-32"/>
       <use x="63.623047" xlink:href="#DejaVuSans-2e"/>
       <use x="95.410156" xlink:href="#DejaVuSans-35"/>
      </g>
     </g>
    </g>
    <g id="ytick_2">
     <g id="line2d_10">
      <g>
       <use style="stroke:#000000;stroke-width:0.8;" x="108" xlink:href="#m99f6d7e406" y="337.23"/>
      </g>
     </g>
     <g id="text_11">
      <!-- 3.0 -->
      <defs>
       <path d="M 40.578125 39.3125 
Q 47.65625 37.796875 51.625 33 
Q 55.609375 28.21875 55.609375 21.1875 
Q 55.609375 10.40625 48.1875 4.484375 
Q 40.765625 -1.421875 27.09375 -1.421875 
Q 22.515625 -1.421875 17.65625 -0.515625 
Q 12.796875 0.390625 7.625 2.203125 
L 7.625 11.71875 
Q 11.71875 9.328125 16.59375 8.109375 
Q 21.484375 6.890625 26.8125 6.890625 
Q 36.078125 6.890625 40.9375 10.546875 
Q 45.796875 14.203125 45.796875 21.1875 
Q 45.796875 27.640625 41.28125 31.265625 
Q 36.765625 34.90625 28.71875 34.90625 
L 20.21875 34.90625 
L 20.21875 43.015625 
L 29.109375 43.015625 
Q 36.375 43.015625 40.234375 45.921875 
Q 44.09375 48.828125 44.09375 54.296875 
Q 44.09375 59.90625 40.109375 62.90625 
Q 36.140625 65.921875 28.71875 65.921875 
Q 24.65625 65.921875 20.015625 65.03125 
Q 15.375 64.15625 9.8125 62.3125 
L 9.8125 71.09375 
Q 15.4375 72.65625 20.34375 73.4375 
Q 25.25 74.21875 29.59375 74.21875 
Q 40.828125 74.21875 47.359375 69.109375 
Q 53.90625 64.015625 53.90625 55.328125 
Q 53.90625 49.265625 50.4375 45.09375 
Q 46.96875 40.921875 40.578125 39.3125 
z
" id="DejaVuSans-33"/>
      </defs>
      <g transform="translate(85.096875 341.029219)scale(0.1 -0.1)">
       <use xlink:href="#DejaVuSans-33"/>
       <use x="63.623047" xlink:href="#DejaVuSans-2e"/>
       <use x="95.410156" xlink:href="#DejaVuSans-30"/>
      </g>
     </g>
    </g>
    <g id="ytick_3">
     <g id="line2d_11">
      <g>
       <use style="stroke:#000000;stroke-width:0.8;" x="108" xlink:href="#m99f6d7e406" y="296.46"/>
      </g>
     </g>
     <g id="text_12">
      <!-- 3.5 -->
      <g transform="translate(85.096875 300.259219)scale(0.1 -0.1)">
       <use xlink:href="#DejaVuSans-33"/>
       <use x="63.623047" xlink:href="#DejaVuSans-2e"/>
       <use x="95.410156" xlink:href="#DejaVuSans-35"/>
      </g>
     </g>
    </g>
    <g id="ytick_4">
     <g id="line2d_12">
      <g>
       <use style="stroke:#000000;stroke-width:0.8;" x="108" xlink:href="#m99f6d7e406" y="255.69"/>
      </g>
     </g>
     <g id="text_13">
      <!-- 4.0 -->
      <g transform="translate(85.096875 259.489219)scale(0.1 -0.1)">
       <use xlink:href="#DejaVuSans-34"/>
       <use x="63.623047" xlink:href="#DejaVuSans-2e"/>
       <use x="95.410156" xlink:href="#DejaVuSans-30"/>
      </g>
     </g>
    </g>
    <g id="ytick_5">
     <g id="line2d_13">
      <g>
       <use style="stroke:#000000;stroke-width:0.8;" x="108" xlink:href="#m99f6d7e406" y="214.92"/>
      </g>
     </g>
     <g id="text_14">
      <!-- 4.5 -->
      <g transform="translate(85.096875 218.719219)scale(0.1 -0.1)">
       <use xlink:href="#DejaVuSans-34"/>
       <use x="63.623047" xlink:href="#DejaVuSans-2e"/>
       <use x="95.410156" xlink:href="#DejaVuSans-35"/>
      </g>
     </g>
    </g>
    <g id="ytick_6">
     <g id="line2d_14">
      <g>
       <use style="stroke:#000000;stroke-width:0.8;" x="108" xlink:href="#m99f6d7e406" y="174.15"/>
      </g>
     </g>
     <g id="text_15">
      <!-- 5.0 -->
      <g transform="translate(85.096875 177.949219)scale(0.1 -0.1)">
       <use xlink:href="#DejaVuSans-35"/>
       <use x="63.623047" xlink:href="#DejaVuSans-2e"/>
       <use x="95.410156" xlink:href="#DejaVuSans-30"/>
      </g>
     </g>
    </g>
    <g id="ytick_7">
     <g id="line2d_15">
      <g>
       <use style="stroke:#000000;stroke-width:0.8;" x="108" xlink:href="#m99f6d7e406" y="133.38"/>
      </g>
     </g>
     <g id="text_16">
      <!-- 5.5 -->
      <g transform="translate(85.096875 137.179219)scale(0.1 -0.1)">
       <use xlink:href="#DejaVuSans-35"/>
       <use x="63.623047" xlink:href="#DejaVuSans-2e"/>
       <use x="95.410156" xlink:href="#DejaVuSans-35"/>
      </g>
     </g>
    </g>
    <g id="ytick_8">
     <g id="line2d_16">
      <g>
       <use style="stroke:#000000;stroke-width:0.8;" x="108" xlink:href="#m99f6d7e406" y="92.61"/>
      </g>
     </g>
     <g id="text_17">
      <!-- 6.0 -->
      <g transform="translate(85.096875 96.409219)scale(0.1 -0.1)">
       <use xlink:href="#DejaVuSans-36"/>
       <use x="63.623047" xlink:href="#DejaVuSans-2e"/>
       <use x="95.410156" xlink:href="#DejaVuSans-30"/>
      </g>
     </g>
    </g>
    <g id="ytick_9">
     <g id="line2d_17">
      <g>
       <use style="stroke:#000000;stroke-width:0.8;" x="108" xlink:href="#m99f6d7e406" y="51.84"/>
      </g>
     </g>
     <g id="text_18">
      <!-- 6.5 -->
      <g transform="translate(85.096875 55.639219)scale(0.1 -0.1)">
       <use xlink:href="#DejaVuSans-36"/>
       <use x="63.623047" xlink:href="#DejaVuSans-2e"/>
       <use x="95.410156" xlink:href="#DejaVuSans-35"/>
      </g>
     </g>
    </g>
    <g id="text_19">
     <!-- pace min/km -->
     <defs>
      <path d="M 18.109375 8.203125 
L 18.109375 -20.796875 
L 9.078125 -20.796875 
L 9.078125 54.6875 
L 18.109375 54.6875 
L 18.109375 46.390625 
Q 20.953125 51.265625 25.265625 53.625 
Q 29.59375 56 35.59375 56 
Q 45.5625 56 51.78125 48.09375 
Q 58.015625 40.1875 58.015625 27.296875 
Q 58.015625 14.40625 51.78125 6.484375 
Q 45.5625 -1.421875 35.59375 -1.421875 
Q 29.59375 -1.421875 25.265625 0.953125 
Q 20.953125 3.328125 18.109375 8.203125 
z
M 48.6875 27.296875 
Q 48.6875 37.203125 44.609375 42.84375 
Q 40.53125 48.484375 33.40625 48.484375 
Q 26.265625 48.484375 22.1875 42.84375 
Q 18.109375 37.203125 18.109375 27.296875 
Q 18.109375 17.390625 22.1875 11.75 
Q 26.265625 6.109375 33.40625 6.109375 
Q 40.53125 6.109375 44.609375 11.75 
Q 48.6875 17.390625 48.6875 27.296875 
z
" id="DejaVuSans-70"/>
      <path d="M 48.78125 52.59375 
L 48.78125 44.1875 
Q 44.96875 46.296875 41.140625 47.34375 
Q 37.3125 48.390625 33.40625 48.390625 
Q 24.65625 48.390625 19.8125 42.84375 
Q 14.984375 37.3125 14.984375 27.296875 
Q 14.984375 17.28125 19.8125 11.734375 
Q 24.65625 6.203125 33.40625 6.203125 
Q 37.3125 6.203125 41.140625 7.25 
Q 44.96875 8.296875 48.78125 10.40625 
L 48.78125 2.09375 
Q 45.015625 0.34375 40.984375 -0.53125 
Q 36.96875 -1.421875 32.421875 -1.421875 
Q 20.0625 -1.421875 12.78125 6.34375 
Q 5.515625 14.109375 5.515625 27.296875 
Q 5.515625 40.671875 12.859375 48.328125 
Q 20.21875 56 33.015625 56 
Q 37.15625 56 41.109375 55.140625 
Q 45.0625 54.296875 48.78125 52.59375 
z
" id="DejaVuSans-63"/>
      <path id="DejaVuSans-20"/>
      <path d="M 52 44.1875 
Q 55.375 50.25 60.0625 53.125 
Q 64.75 56 71.09375 56 
Q 79.640625 56 84.28125 50.015625 
Q 88.921875 44.046875 88.921875 33.015625 
L 88.921875 0 
L 79.890625 0 
L 79.890625 32.71875 
Q 79.890625 40.578125 77.09375 44.375 
Q 74.3125 48.1875 68.609375 48.1875 
Q 61.625 48.1875 57.5625 43.546875 
Q 53.515625 38.921875 53.515625 30.90625 
L 53.515625 0 
L 44.484375 0 
L 44.484375 32.71875 
Q 44.484375 40.625 41.703125 44.40625 
Q 38.921875 48.1875 33.109375 48.1875 
Q 26.21875 48.1875 22.15625 43.53125 
Q 18.109375 38.875 18.109375 30.90625 
L 18.109375 0 
L 9.078125 0 
L 9.078125 54.6875 
L 18.109375 54.6875 
L 18.109375 46.1875 
Q 21.1875 51.21875 25.484375 53.609375 
Q 29.78125 56 35.6875 56 
Q 41.65625 56 45.828125 52.96875 
Q 50 49.953125 52 44.1875 
z
" id="DejaVuSans-6d"/>
      <path d="M 9.421875 54.6875 
L 18.40625 54.6875 
L 18.40625 0 
L 9.421875 0 
z
M 9.421875 75.984375 
L 18.40625 75.984375 
L 18.40625 64.59375 
L 9.421875 64.59375 
z
" id="DejaVuSans-69"/>
      <path d="M 54.890625 33.015625 
L 54.890625 0 
L 45.90625 0 
L 45.90625 32.71875 
Q 45.90625 40.484375 42.875 44.328125 
Q 39.84375 48.1875 33.796875 48.1875 
Q 26.515625 48.1875 22.3125 43.546875 
Q 18.109375 38.921875 18.109375 30.90625 
L 18.109375 0 
L 9.078125 0 
L 9.078125 54.6875 
L 18.109375 54.6875 
L 18.109375 46.1875 
Q 21.34375 51.125 25.703125 53.5625 
Q 30.078125 56 35.796875 56 
Q 45.21875 56 50.046875 50.171875 
Q 54.890625 44.34375 54.890625 33.015625 
z
" id="DejaVuSans-6e"/>
      <path d="M 25.390625 72.90625 
L 33.6875 72.90625 
L 8.296875 -9.28125 
L 0 -9.28125 
z
" id="DejaVuSans-2f"/>
      <path d="M 9.078125 75.984375 
L 18.109375 75.984375 
L 18.109375 31.109375 
L 44.921875 54.6875 
L 56.390625 54.6875 
L 27.390625 29.109375 
L 57.625 0 
L 45.90625 0 
L 18.109375 26.703125 
L 18.109375 0 
L 9.078125 0 
z
" id="DejaVuSans-6b"/>
     </defs>
     <g transform="translate(76.9375 279.9825)rotate(-90)scale(0.2 -0.2)">
      <use xlink:href="#DejaVuSans-70"/>
      <use x="63.476562" xlink:href="#DejaVuSans-61"/>
      <use x="124.755859" xlink:href="#DejaVuSans-63"/>
      <use x="179.736328" xlink:href="#DejaVuSans-65"/>
      <use x="241.259766" xlink:href="#DejaVuSans-20"/>
      <use x="273.046875" xlink:href="#DejaVuSans-6d"/>
      <use x="370.458984" xlink:href="#DejaVuSans-69"/>
      <use x="398.242188" xlink:href="#DejaVuSans-6e"/>
      <use x="461.621094" xlink:href="#DejaVuSans-2f"/>
      <use x="495.3125" xlink:href="#DejaVuSans-6b"/>
      <use x="553.222656" xlink:href="#DejaVuSans-6d"/>
     </g>
    </g>
   </g>
   <g id="line2d_18">
    <defs>
     <path d="M 0 2.5 
C 0.663008 2.5 1.29895 2.236584 1.767767 1.767767 
C 2.236584 1.29895 2.5 0.663008 2.5 0 
C 2.5 -0.663008 2.236584 -1.29895 1.767767 -1.767767 
C 1.29895 -2.236584 0.663008 -2.5 0 -2.5 
C -0.663008 -2.5 -1.29895 -2.236584 -1.767767 -1.767767 
C -2.236584 -1.29895 -2.5 -0.663008 -2.5 0 
C -2.5 0.663008 -2.236584 1.29895 -1.767767 1.767767 
C -1.29895 2.236584 -0.663008 2.5 0 2.5 
z
" id="m8c10fc05b2" style="stroke:#ff0000;"/>
    </defs>
    <g clip-path="url(#p2f23f72154)">
     <use style="fill:#ff0000;stroke:#ff0000;" x="198.72" xlink:href="#m8c10fc05b2" y="217.29825"/>
     <use style="fill:#ff0000;stroke:#ff0000;" x="216" xlink:href="#m8c10fc05b2" y="217.795976"/>
     <use style="fill:#ff0000;stroke:#ff0000;" x="233.28" xlink:href="#m8c10fc05b2" y="156.041325"/>
     <use style="fill:#ff0000;stroke:#ff0000;" x="250.56" xlink:href="#m8c10fc05b2" y="243.077501"/>
     <use style="fill:#ff0000;stroke:#ff0000;" x="267.84" xlink:href="#m8c10fc05b2" y="263.573552"/>
     <use style="fill:#ff0000;stroke:#ff0000;" x="302.4" xlink:href="#m8c10fc05b2" y="290.791937"/>
     <use style="fill:#ff0000;stroke:#ff0000;" x="319.68" xlink:href="#m8c10fc05b2" y="269.996619"/>
     <use style="fill:#ff0000;stroke:#ff0000;" x="336.96" xlink:href="#m8c10fc05b2" y="286.280786"/>
     <use style="fill:#ff0000;stroke:#ff0000;" x="354.24" xlink:href="#m8c10fc05b2" y="288.889602"/>
     <use style="fill:#ff0000;stroke:#ff0000;" x="371.52" xlink:href="#m8c10fc05b2" y="293.295603"/>
     <use style="fill:#ff0000;stroke:#ff0000;" x="423.36" xlink:href="#m8c10fc05b2" y="282.589794"/>
     <use style="fill:#ff0000;stroke:#ff0000;" x="440.64" xlink:href="#m8c10fc05b2" y="305.405663"/>
     <use style="fill:#ff0000;stroke:#ff0000;" x="457.92" xlink:href="#m8c10fc05b2" y="301.643814"/>
     <use style="fill:#ff0000;stroke:#ff0000;" x="475.2" xlink:href="#m8c10fc05b2" y="320.446616"/>
     <use style="fill:#ff0000;stroke:#ff0000;" x="492.48" xlink:href="#m8c10fc05b2" y="326.405023"/>
     <use style="fill:#ff0000;stroke:#ff0000;" x="509.76" xlink:href="#m8c10fc05b2" y="310.468699"/>
     <use style="fill:#ff0000;stroke:#ff0000;" x="527.04" xlink:href="#m8c10fc05b2" y="326.153804"/>
     <use style="fill:#ff0000;stroke:#ff0000;" x="544.32" xlink:href="#m8c10fc05b2" y="330.791699"/>
     <use style="fill:#ff0000;stroke:#ff0000;" x="561.6" xlink:href="#m8c10fc05b2" y="328.601582"/>
     <use style="fill:#ff0000;stroke:#ff0000;" x="578.88" xlink:href="#m8c10fc05b2" y="331.886758"/>
     <use style="fill:#ff0000;stroke:#ff0000;" x="596.16" xlink:href="#m8c10fc05b2" y="329.600018"/>
     <use style="fill:#ff0000;stroke:#ff0000;" x="613.44" xlink:href="#m8c10fc05b2" y="324.092517"/>
     <use style="fill:#ff0000;stroke:#ff0000;" x="630.72" xlink:href="#m8c10fc05b2" y="325.606274"/>
     <use style="fill:#ff0000;stroke:#ff0000;" x="648" xlink:href="#m8c10fc05b2" y="330.276378"/>
     <use style="fill:#ff0000;stroke:#ff0000;" x="665.28" xlink:href="#m8c10fc05b2" y="328.859243"/>
     <use style="fill:#ff0000;stroke:#ff0000;" x="682.56" xlink:href="#m8c10fc05b2" y="337.329844"/>
     <use style="fill:#ff0000;stroke:#ff0000;" x="699.84" xlink:href="#m8c10fc05b2" y="334.463367"/>
    </g>
   </g>
   <g id="line2d_19">
    <path clip-path="url(#p2f23f72154)" d="M 98.496 157.177551 
L 116.123337 166.146028 
L 137.276141 177.153631 
L 169.005347 193.956302 
L 211.310955 216.352177 
L 232.463759 227.310372 
L 250.091095 236.221402 
L 267.718432 244.873538 
L 281.820302 251.574896 
L 295.922171 258.054766 
L 310.02404 264.29187 
L 324.12591 270.267371 
L 338.227779 275.965042 
L 352.329648 281.371384 
L 366.431518 286.475713 
L 380.533387 291.270188 
L 391.109789 294.659589 
L 401.686191 297.87075 
L 412.262593 300.903455 
L 422.838995 303.758322 
L 433.415397 306.436768 
L 443.991799 308.940969 
L 458.093668 312.013949 
L 472.195538 314.791034 
L 486.297407 317.282752 
L 500.399276 319.501253 
L 514.501146 321.460054 
L 528.603015 323.173783 
L 542.704884 324.657918 
L 556.806754 325.928536 
L 570.908623 327.00207 
L 588.53596 328.092062 
L 606.163296 328.93208 
L 623.790633 329.553432 
L 644.943437 330.052543 
L 666.096241 330.328372 
L 690.774513 330.426445 
L 718.978251 330.317501 
L 754.232925 329.956835 
L 800.064 329.270005 
L 800.064 329.270005 
" style="fill:none;stroke:#3300ff;stroke-linecap:square;stroke-width:2;"/>
   </g>
   <g id="line2d_20">
    <path clip-path="url(#p2f23f72154)" d="M 98.496 76.061351 
L 119.648804 92.957445 
L 137.276141 106.745342 
L 154.903477 120.224198 
L 169.005347 130.764184 
L 183.107216 141.075795 
L 197.209085 151.151183 
L 211.310955 160.985015 
L 225.412824 170.573619 
L 239.514693 179.914112 
L 253.616563 189.003602 
L 267.718432 197.838554 
L 281.820302 206.414338 
L 295.922171 214.724999 
L 310.02404 222.763235 
L 324.12591 230.52054 
L 338.227779 237.987489 
L 352.329648 245.15411 
L 366.431518 252.010304 
L 380.533387 258.546274 
L 391.109789 263.232597 
L 401.686191 267.730201 
L 412.262593 272.036037 
L 422.838995 276.147528 
L 433.415397 280.062608 
L 443.991799 283.779762 
L 454.568201 287.298032 
L 465.144603 290.617034 
L 475.721005 293.736941 
L 486.297407 296.658474 
L 496.873809 299.382876 
L 507.450211 301.911888 
L 518.026613 304.247718 
L 528.603015 306.393026 
L 539.179417 308.350905 
L 549.755819 310.124888 
L 560.332221 311.718962 
L 570.908623 313.137609 
L 585.010492 314.765031 
L 599.112362 316.103236 
L 613.214231 317.168053 
L 627.316101 317.977614 
L 641.41797 318.552215 
L 655.519839 318.913866 
L 669.621709 319.085536 
L 687.249045 319.067938 
L 704.876382 318.832156 
L 726.029186 318.314899 
L 750.707457 317.457052 
L 778.911196 316.219927 
L 800.064 315.148947 
L 800.064 315.148947 
" style="fill:none;stroke:#3300ff;stroke-linecap:square;stroke-width:0.2;"/>
   </g>
   <g id="line2d_21">
    <path clip-path="url(#p2f23f72154)" d="M 98.496 238.29375 
L 109.072402 240.512739 
L 119.648804 242.971181 
L 130.225206 245.655127 
L 140.801608 248.548653 
L 151.37801 251.633946 
L 165.479879 256.011943 
L 179.581749 260.645378 
L 197.209085 266.713379 
L 218.361889 274.252966 
L 264.192965 290.678691 
L 281.820302 296.735453 
L 295.922171 301.384533 
L 310.02404 305.820505 
L 324.12591 310.014202 
L 338.227779 313.942594 
L 352.329648 317.588659 
L 366.431518 320.941122 
L 380.533387 323.994102 
L 394.635256 326.746691 
L 408.737126 329.202486 
L 422.838995 331.369117 
L 436.940864 333.257757 
L 451.042734 334.882658 
L 465.144603 336.260688 
L 479.246472 337.410903 
L 493.348342 338.35413 
L 510.975678 339.275995 
L 528.603015 339.954541 
L 549.755819 340.512903 
L 574.43409 340.910841 
L 609.688764 341.219197 
L 701.350915 341.923625 
L 754.232925 342.597715 
L 800.064 343.391063 
L 800.064 343.391063 
" style="fill:none;stroke:#3300ff;stroke-linecap:square;stroke-width:0.2;"/>
   </g>
   <g id="patch_4">
    <path d="M 108 378 
L 108 51.84 
" style="fill:none;stroke:#000000;stroke-linecap:square;stroke-linejoin:miter;stroke-width:0.8;"/>
   </g>
   <g id="patch_5">
    <path d="M 777.6 378 
L 777.6 51.84 
" style="fill:none;stroke:#000000;stroke-linecap:square;stroke-linejoin:miter;stroke-width:0.8;"/>
   </g>
   <g id="patch_6">
    <path d="M 108 378 
L 777.6 378 
" style="fill:none;stroke:#000000;stroke-linecap:square;stroke-linejoin:miter;stroke-width:0.8;"/>
   </g>
   <g id="patch_7">
    <path d="M 108 51.84 
L 777.6 51.84 
" style="fill:none;stroke:#000000;stroke-linecap:square;stroke-linejoin:miter;stroke-width:0.8;"/>
   </g>
  </g>
 </g>
 <defs>
  <clipPath id="p2f23f72154">
   <rect height="326.16" width="669.6" x="108" y="51.84"/>
  </clipPath>
 </defs>
</svg>
