<?xml version="1.0" encoding="UTF-8" standalone="no"?>
<svg
   xmlns:dc="http://purl.org/dc/elements/1.1/"
   xmlns:cc="http://creativecommons.org/ns#"
   xmlns:rdf="http://www.w3.org/1999/02/22-rdf-syntax-ns#"
   xmlns:svg="http://www.w3.org/2000/svg"
   xmlns="http://www.w3.org/2000/svg"
   xmlns:sodipodi="http://sodipodi.sourceforge.net/DTD/sodipodi-0.dtd"
   xmlns:inkscape="http://www.inkscape.org/namespaces/inkscape"
   version="1.1"
   id="svg16538"
   xml:space="preserve"
   width="287.69974"
   height="168.29744"
   viewBox="0 0 287.69974 168.29744"
   sodipodi:docname="relu-mapping-spherical.svg"
   inkscape:version="1.0.2 (e86c8708, 2021-01-15)"><metadata
     id="metadata16544"><rdf:RDF><cc:Work
         rdf:about=""><dc:format>image/svg+xml</dc:format><dc:type
           rdf:resource="http://purl.org/dc/dcmitype/StillImage" /><dc:title></dc:title></cc:Work></rdf:RDF></metadata><defs
     id="defs16542"><clipPath
       clipPathUnits="userSpaceOnUse"
       id="clipPath16562"><path
         d="M -47.73848,-72.62401 155.11671,-90.24614 286.36089,276.66861 83.50569,294.29074"
         id="path16560" /></clipPath><clipPath
       clipPathUnits="userSpaceOnUse"
       id="clipPath16572"><path
         d="m -141.21739,73.1044 35.76721,99.99315 485.28998,-42.15736 -35.76721,-99.99315"
         id="path16570" /></clipPath><clipPath
       clipPathUnits="userSpaceOnUse"
       id="clipPath16582"><path
         d="m 101.4276,-132.92621 35.76721,99.99314 V 371.54254 L 101.4276,271.54941"
         id="path16580" /></clipPath><clipPath
       clipPathUnits="userSpaceOnUse"
       id="clipPath16592"><path
         d="M 53.6891,-124.64973 V -3.64868 L 184.93329,363.26607 V 242.26501"
         id="path16590" /></clipPath><clipPath
       clipPathUnits="userSpaceOnUse"
       id="clipPath16602"><path
         d="M 15.77965,-80.00052 218.63484,-97.62267 V 306.85297 L 15.77965,324.4751"
         id="path16600" /></clipPath><clipPath
       clipPathUnits="userSpaceOnUse"
       id="clipPath16612"><path
         d="M -125.43773,74.00436 V 195.00542 L 359.85223,152.84805 V 31.847"
         id="path16610" /></clipPath><clipPath
       clipPathUnits="userSpaceOnUse"
       id="clipPath16652"><path
         d="M 238.6224,99.99313 V 220.99419 L 35.76721,238.61633 0,138.62318 V 17.62213 L 202.8552,0 Z"
         id="path16650" /></clipPath><clipPath
       clipPathUnits="userSpaceOnUse"
       id="clipPath16664"><path
         d="M 238.6224,99.99313 V 220.99419 L 35.76721,238.61633 0,138.62318 V 17.62213 L 202.8552,0 Z"
         id="path16662" /></clipPath><clipPath
       clipPathUnits="userSpaceOnUse"
       id="clipPath16694"><path
         d="M 238.6224,99.99313 V 220.99419 L 35.76721,238.61633 0,138.62318 V 17.62213 L 202.8552,0 Z"
         id="path16692" /></clipPath></defs><sodipodi:namedview
     pagecolor="#ffffff"
     bordercolor="#666666"
     borderopacity="1"
     objecttolerance="10"
     gridtolerance="10"
     guidetolerance="10"
     inkscape:pageopacity="0"
     inkscape:pageshadow="2"
     inkscape:window-width="815"
     inkscape:window-height="480"
     id="namedview16540"
     showgrid="false"
     inkscape:zoom="0.81093654"
     inkscape:cx="138.06279"
     inkscape:cy="78.500261"
     inkscape:window-x="0"
     inkscape:window-y="25"
     inkscape:window-maximized="0"
     inkscape:current-layer="g16546"
     fit-margin-top="0"
     fit-margin-left="0"
     fit-margin-right="0"
     fit-margin-bottom="0" /><g
     id="g16546"
     inkscape:groupmode="layer"
     inkscape:label="relu-mapping-spherical"
     transform="matrix(1.3333333,0,0,-1.3333333,-21.016541,237.5756)"><g
       id="g16550" /><g
       id="g16552" /><g
       id="g16554"><g
         id="g16556"><g
           id="g16558"
           clip-path="url(#clipPath16562)"><g
             id="g16564" /></g></g><g
         id="g16566"><g
           id="g16568"
           clip-path="url(#clipPath16572)"><g
             id="g16574" /></g></g><g
         id="g16576"><g
           id="g16578"
           clip-path="url(#clipPath16582)"><g
             id="g16584" /></g></g><g
         id="g16586"><g
           id="g16588"
           clip-path="url(#clipPath16592)"><g
             id="g16594" /></g></g><g
         id="g16596"><g
           id="g16598"
           clip-path="url(#clipPath16602)"><g
             id="g16604" /></g></g><g
         id="g16606"><g
           id="g16608"
           clip-path="url(#clipPath16612)"><g
             id="g16614" /></g></g></g><g
       id="g16616"><path
         d="M 15.77965,104.95142 216.64986,87.50168"
         style="fill:none;stroke:#000000;stroke-width:0.3985;stroke-linecap:butt;stroke-linejoin:miter;stroke-miterlimit:10;stroke-dasharray:none;stroke-opacity:1"
         id="path16618" /><g
         id="g16620"
         transform="matrix(0.99622,-0.08653,0.08653,0.99622,216.64986,87.50168)"><g
           id="g16622"><path
             d="M 1.99252,0 -1.19551,1.59401 0,0 -1.19551,-1.59401"
             style="fill:#000000;fill-opacity:1;fill-rule:nonzero;stroke:none"
             id="path16624" /></g></g><path
         d="m 101.4276,52.02573 35.09617,98.11709"
         style="fill:none;stroke:#000000;stroke-width:0.3985;stroke-linecap:butt;stroke-linejoin:miter;stroke-miterlimit:10;stroke-dasharray:none;stroke-opacity:1"
         id="path16626" /><g
         id="g16628"
         transform="matrix(0.33678,0.94154,-0.94154,0.33678,136.52376,150.14282)"><g
           id="g16630"><path
             d="M 1.99252,0 -1.19551,1.59401 0,0 -1.19551,-1.59401"
             style="fill:#000000;fill-opacity:1;fill-rule:nonzero;stroke:none"
             id="path16632" /></g></g><path
         d="M 117.20724,52.92567 V 171.93422"
         style="fill:none;stroke:#000000;stroke-width:0.3985;stroke-linecap:butt;stroke-linejoin:miter;stroke-miterlimit:10;stroke-dasharray:none;stroke-opacity:1"
         id="path16634" /><g
         id="g16636"
         transform="rotate(90,-27.36349,144.57073)"><g
           id="g16638"><path
             d="M 1.99252,0 -1.19551,1.59401 0,0 -1.19551,-1.59401"
             style="fill:#000000;fill-opacity:1;fill-rule:nonzero;stroke:none"
             id="path16640" /></g></g></g><g
       id="g16642" /><g
       id="g16644"><g
         id="g16646"><g
           id="g16648"
           clip-path="url(#clipPath16652)"><g
             id="g16654"><path
               d="m 127.72702,125.5501 2.12248,-0.24686 2.07183,-0.36223 2.01263,-0.47899 1.94518,-0.59349 1.87132,-0.70353 1.78709,-0.81419 1.69727,-0.91918 1.60226,-1.02009 1.49684,-1.11888 1.38837,-1.21165 1.27449,-1.30002 1.15308,-1.38315 1.02925,-1.46034 0.90091,-1.5326 0.76692,-1.59824 0.63386,-1.65648 0.4946,-1.70954 0.3539,-1.75494 0.21384,-1.79282 0.0703,-1.82461 -0.0715,-1.84868 -0.21274,-1.86462 -0.35679,-1.87363 -0.49498,-1.87497 -0.63278,-1.86847 -0.76943,-1.85475 -0.90104,-1.83394 -1.02996,-1.80545 -1.15457,-1.76885 -1.27342,-1.7279 -1.38986,-1.67624 -1.49796,-1.61984 -1.60049,-1.55756 -1.6993,-1.48683 -1.7877,-1.41241 -1.87104,-1.33152 -1.94581,-1.24345 -2.01363,-1.15326 -2.07234,-1.05716 -2.12329,-0.95601 -2.16441,-0.85269 -2.20028,-0.74434 -2.22393,-0.63313 -2.23937,-0.52231 -2.24669,-0.40343 -2.24401,-0.28873 -2.23299,-0.17112 -2.2121,-0.0504 -2.18396,0.0663 -2.14418,0.18626 -2.09819,0.30509 -2.04457,0.41989 -1.97975,0.53678 -1.90889,0.64918 -1.83081,0.75824 -1.74233,0.86731 -1.65106,0.97033 -1.55075,1.0696 -1.44267,1.16601 -1.33303,1.25629 -1.214,1.34236 -1.09164,1.42241 -0.96638,1.49672 -0.83416,1.56621 -0.70065,1.6286 -0.56513,1.68292 -0.42322,1.73367 -0.28456,1.77439 -0.14328,1.80974 0.0015,1.83747 0.14208,1.85711 0.28404,1.86993 0.42612,1.87551 0.56362,1.87295 0.70167,1.86215 0.83553,1.8457 0.96436,1.82085 1.09381,1.78807 1.2152,1.74933 1.33207,1.70279 1.44462,1.64905 1.55046,1.58921 1.64991,1.52324 1.7445,1.45044 1.82997,1.37268 1.90918,1.28818 1.98057,1.19919 2.04357,1.10637 2.0991,1.00633 2.14523,0.90531 2.1834,0.79946 2.21278,0.68868 2.23339,0.57773 2.24395,0.46399 2.24631,0.34674 2.23949,0.2303 2.2238,0.11035 2.19939,-0.008 2.16586,-0.12569 v 0 l -2.16586,0.12569 -2.19939,0.008 -2.2238,-0.11035 -2.23949,-0.2303 -2.24631,-0.34674 -2.24395,-0.46399 -2.23339,-0.57773 -2.21278,-0.68868 -2.1834,-0.79946 -2.14523,-0.90531 -2.0991,-1.00633 -2.04357,-1.10637 -1.98057,-1.19919 -1.90918,-1.28818 -1.82997,-1.37268 -1.7445,-1.45044 -1.64991,-1.52324 -1.55046,-1.58921 -1.44462,-1.64905 -1.33207,-1.70279 -1.2152,-1.74933 -1.09381,-1.78807 -0.96436,-1.82085 -0.83553,-1.8457 -0.70167,-1.86215 -0.56362,-1.87295 -0.42612,-1.87551 -0.28404,-1.86993 -0.14208,-1.85711 -0.0015,-1.83747 0.14328,-1.80974 0.28456,-1.77439 0.42322,-1.73367 0.56513,-1.68292 0.70065,-1.6286 0.83416,-1.56621 0.96638,-1.49672 1.09164,-1.42241 1.214,-1.34236 1.33303,-1.25629 1.44267,-1.16601 1.55075,-1.0696 1.65106,-0.97033 1.74233,-0.86602 1.83081,0.61209 1.90889,0.71534 1.97975,0.81733 2.04457,0.91696 2.09819,1.01079 2.14418,1.10198 2.18396,1.18951 2.2121,1.26972 2.23299,1.34698 2.24401,1.41771 2.24669,1.48184 2.23937,1.54349 2.22393,1.59488 2.20028,1.64232 2.16441,1.68263 2.12329,1.71573 2.07234,1.74254 2.01363,1.76152 1.94581,1.77389 1.87104,1.77924 1.7877,1.77778 1.6993,1.7688 1.60049,1.75139 1.49796,1.72875 1.38986,1.69827 1.27342,1.662 1.15457,1.61717 1.02996,1.56734 0.90104,1.51027 0.76943,1.44852 0.63278,1.3782 0.49498,1.30562 0.35679,1.2267 0.21274,1.1412 0.0715,1.05353 -0.0703,0.9599 -0.21384,0.86218 -0.3539,0.76318 -0.4946,0.65919 -0.63386,0.55191 -0.76692,0.44528 -0.90091,0.33447 -1.02925,0.22248 -1.15308,0.11047 -1.27449,-0.003 -1.38837,-0.11545 -1.49684,-0.2275 -1.60226,-0.33987 -1.69727,-0.44899 -1.78709,0.12902 -1.87132,0.70353 -1.94518,0.59349 -2.01263,0.47899 -2.07183,0.36223 -2.12248,0.24686 z"
               style="fill:#ff7f0e;fill-opacity:0.1;fill-rule:nonzero;stroke:none"
               id="path16656" /></g></g></g><g
         id="g16658"><g
           id="g16660"
           clip-path="url(#clipPath16664)"><g
             id="g16666"><path
               d="m 26.29941,134.36116 202.85521,-17.62213 -0.004,53.51585 -2.049,-1.05296 -2.04901,-1.0499 -2.04899,-1.05464 -2.04902,-1.05197 -2.04899,-1.05491 -2.049,-1.05001 -2.04899,-1.05228 -2.04902,-1.05564 -2.049,-1.0504 -2.049,-1.05268 -2.049,-1.05031 -2.049,-1.05537 -2.04899,-1.05037 -2.04903,-1.05385 -2.04899,-1.05107 -2.04899,-1.05312 -2.049,-1.0527 -2.04901,-1.05366 -2.04902,-1.05288 -2.04899,-1.05086 -2.049,-1.0517 -2.04899,-1.05376 -2.04902,-1.05164 -2.04899,-1.05205 -2.04901,-1.05427 -2.049,-1.05118 -2.04899,-1.05325 -2.04902,-1.05393 -2.04899,-1.05107 -2.049,-1.05305 -2.04901,-1.05208 -2.04899,-1.05284 -2.04902,-1.04894 -2.04899,-1.0532 -2.049,-1.05239 -2.04902,-1.05238 -2.049,-1.05269 -2.049,-1.05238 -2.04899,-1.05275 -2.04901,-1.05225 -2.049,-1.05246 -2.04901,-1.05229 -2.049,-1.05245 -2.04901,-0.42901 -2.04899,0.17799 -2.049,0.178 -2.049,0.17801 -2.04902,0.17799 -2.049,0.17799 -2.04899,0.178 -2.04902,0.17799 -2.04899,0.17801 -2.049,0.17799 -2.04902,0.17801 -2.049,0.178 -2.04899,0.17799 -2.049,0.17799 -2.04901,0.178 -2.04901,0.17801 -2.049,0.17799 -2.049,0.17799 -2.04901,0.17801 -2.04899,0.178 -2.049,0.17799 -2.04903,0.17799 -2.04899,0.178 -2.049,0.17801 -2.04899,0.17799 -2.049,0.17801 -2.04901,0.17799 -2.04901,0.17798 -2.049,0.17801 -2.04899,0.178 -2.049,0.178 -2.04901,0.178 -2.04901,0.17801 -2.049,0.17799 -2.04899,0.17798 -2.049,0.17801 -2.04901,0.17799 -2.049,0.17801 -2.04901,0.17799 -2.04899,0.178 -2.049,0.17801 -2.04901,0.17798 -2.049,0.17801 -2.04899,0.17799 -2.04902,0.17799 -2.04899,0.17801 -2.04901,0.178 -2.049,0.17801 -2.04899,0.17797 -2.049,0.178 -2.04901,0.17801 -2.04902,0.17799 -2.04899,0.17801 -2.04899,0.17799 -2.049,0.178 z"
               style="fill:#1f77b4;fill-opacity:0.1;fill-rule:nonzero;stroke:none"
               id="path16668" /></g></g></g></g><g
       id="g16670"><g
         id="g16672"><g
           id="g16674" /><g
           id="g16676" /><g
           id="g16678"
           transform="translate(0,17.622)"><g
             id="g16680" /><g
             id="g16682"
             transform="translate(0,-17.622)" /></g><g
           id="g16684" /><g
           id="g16686" /><g
           id="g16688"><g
             id="g16690"
             clip-path="url(#clipPath16694)"><g
               id="g16696"><path
                 d="M 117.20724,96.14035 151.74586,80.42464"
                 style="fill:none;stroke:#000000;stroke-width:0.59776;stroke-linecap:butt;stroke-linejoin:miter;stroke-miterlimit:10;stroke-dasharray:none;stroke-opacity:1"
                 id="path16698" /><g
                 id="g16700"
                 transform="matrix(0.91016,-0.41412,0.41412,0.91016,151.74585,80.42465)"><g
                   id="g16702"><path
                     d="M 2.29138,0 -1.37483,1.83311 0,0 -1.37483,-1.83311"
                     style="fill:#000000;fill-opacity:1;fill-rule:nonzero;stroke:none"
                     id="path16704" /></g></g><g
                 id="g16706"><g
                   id="g16708"
                   transform="translate(155.635,73.911)"><g
                     id="g16710"><g
                       id="g16712"
                       transform="translate(-155.635,-73.911)"><text
                         transform="matrix(1,0,0,-1,155.635,73.911)"
                         style="font-variant:normal;font-weight:normal;font-size:9.9626px;font-family:CMMI10;-inkscape-font-specification:CMMI10;writing-mode:lr-tb;fill:#000000;fill-opacity:1;fill-rule:nonzero;stroke:none"
                         id="text16716"><tspan
                           x="0"
                           y="0"
                           id="tspan16714">w</tspan></text><text
                         transform="matrix(1,0,0,-1,162.768,72.417)"
                         style="font-variant:normal;font-weight:normal;font-size:6.9738px;font-family:CMMI7;-inkscape-font-specification:CMMI7;writing-mode:lr-tb;fill:#000000;fill-opacity:1;fill-rule:nonzero;stroke:none"
                         id="text16720"><tspan
                           x="0"
                           y="0"
                           id="tspan16718">m</tspan></text><g
                         id="g16722"
                         transform="translate(155.635,73.911)" /></g></g><g
                     id="g16724"
                     transform="translate(-155.635,-73.911)" /></g></g></g><g
               id="g16726"><path
                 d="m 112.52974,83.06361 41.30164,-3.58789 4.67752,13.07672"
                 style="fill:none;stroke:#808080;stroke-width:0.3985;stroke-linecap:butt;stroke-linejoin:miter;stroke-miterlimit:10;stroke-dasharray:0.3985, 0.99628;stroke-dashoffset:0;stroke-opacity:1"
                 id="path16728" /></g><g
               id="g16730"><path
                 d="m 127.72702,125.5501 2.12248,-0.24686 2.07183,-0.36223 2.01263,-0.47899 1.94518,-0.59349 1.87132,-0.70353 1.78709,-0.81419 1.69727,-0.91918 1.60226,-1.02009 1.49684,-1.11888 1.38837,-1.21165 1.27449,-1.30002 1.15308,-1.38315 1.02925,-1.46034 0.90091,-1.5326 0.76692,-1.59824 0.63386,-1.65648 0.4946,-1.70954 0.3539,-1.75494 0.21384,-1.79282 0.0703,-1.82461 -0.0715,-1.84868 -0.21274,-1.86462 -0.35679,-1.87363 -0.49498,-1.87497 -0.63278,-1.86847 -0.76943,-1.85475 -0.90104,-1.83394 -1.02996,-1.80545 -1.15457,-1.76885 -1.27342,-1.7279 -1.38986,-1.67624 -1.49796,-1.61984 -1.60049,-1.55756 -1.6993,-1.48683 -1.7877,-1.41241 -1.87104,-1.33152 -1.94581,-1.24345 -2.01363,-1.15326 -2.07234,-1.05716 -2.12329,-0.95601 -2.16441,-0.85269 -2.20028,-0.74434 -2.22393,-0.63313 -2.23937,-0.52231 -2.24669,-0.40343 -2.24401,-0.28873 -2.23299,-0.17112 -2.2121,-0.0504 -2.18396,0.0663 -2.14418,0.18626 -2.09819,0.30509 -2.04457,0.41989 -1.97975,0.53678 -1.90889,0.64918 -1.83081,0.75824 -1.74233,0.86731 -1.65106,0.97033 -1.55075,1.0696 -1.44267,1.16601 -1.33303,1.25629 -1.214,1.34236 -1.09164,1.42241 -0.96638,1.49672 -0.83416,1.56621 -0.70065,1.6286 -0.56513,1.68292 -0.42322,1.73367 -0.28456,1.77439 -0.14328,1.80974 0.0015,1.83747 0.14208,1.85711 0.28404,1.86993 0.42612,1.87551 0.56362,1.87295 0.70167,1.86215 0.83553,1.8457 0.96436,1.82085 1.09381,1.78807 1.2152,1.74933 1.33207,1.70279 1.44462,1.64905 1.55046,1.58921 1.64991,1.52324 1.7445,1.45044 1.82997,1.37268 1.90918,1.28818 1.98057,1.19919 2.04357,1.10637 2.0991,1.00633 2.14523,0.90531 2.1834,0.79946 2.21278,0.68868 2.23339,0.57773 2.24395,0.46399 2.24631,0.34674 2.23949,0.2303 2.2238,0.11035 2.19939,-0.008 2.16586,-0.12569"
                 style="fill:none;stroke:#000000;stroke-width:0.3985;stroke-linecap:butt;stroke-linejoin:miter;stroke-miterlimit:10;stroke-dasharray:2.98883, 2.98883;stroke-dashoffset:0;stroke-opacity:1"
                 id="path16732" /></g><g
               id="g16734"><path
                 d="m 127.72702,125.5501 2.12248,-0.24686 2.07183,-0.36223 2.01263,-0.47899 1.94518,-0.59349 1.87132,-0.70353 1.78709,-0.12902 1.69727,0.44899 1.60226,0.33987 1.49684,0.2275 1.38837,0.11545 1.27449,0.003 1.15308,-0.11047 1.02925,-0.22248 0.90091,-0.33447 0.76692,-0.44528 0.63386,-0.55191 0.4946,-0.65919 0.3539,-0.76318 0.21384,-0.86218 0.0703,-0.9599 -0.0715,-1.05353 -0.21274,-1.1412 -0.35679,-1.2267 -0.49498,-1.30562 -0.63278,-1.3782 -0.76943,-1.44852 -0.90104,-1.51027 -1.02996,-1.56734 -1.15457,-1.61717 -1.27342,-1.662 -1.38986,-1.69827 -1.49796,-1.72875 -1.60049,-1.75139 -1.6993,-1.7688 -1.7877,-1.77778 -1.87104,-1.77924 -1.94581,-1.77389 -2.01363,-1.76152 -2.07234,-1.74254 -2.12329,-1.71573 -2.16441,-1.68263 -2.20028,-1.64232 -2.22393,-1.59488 -2.23937,-1.54349 -2.24669,-1.48184 -2.24401,-1.41771 -2.23299,-1.34698 -2.2121,-1.26972 -2.18396,-1.18951 -2.14418,-1.10198 -2.09819,-1.01079 -2.04457,-0.91696 -1.97975,-0.81733 -1.90889,-0.71534 -1.83081,-0.61209 -1.74233,0.86602 -1.65106,0.97033 -1.55075,1.0696 -1.44267,1.16601 -1.33303,1.25629 -1.214,1.34236 -1.09164,1.42241 -0.96638,1.49672 -0.83416,1.56621 -0.70065,1.6286 -0.56513,1.68292 -0.42322,1.73367 -0.28456,1.77439 -0.14328,1.80974 0.0015,1.83747 0.14208,1.85711 0.28404,1.86993 0.42612,1.87551 0.56362,1.87295 0.70167,1.86215 0.83553,1.8457 0.96436,1.82085 1.09381,1.78807 1.2152,1.74933 1.33207,1.70279 1.44462,1.64905 1.55046,1.58921 1.64991,1.52324 1.7445,1.45044 1.82997,1.37268 1.90918,1.28818 1.98057,1.19919 2.04357,1.10637 2.0991,1.00633 2.14523,0.90531 2.1834,0.79946 2.21278,0.68868 2.23339,0.57773 2.24395,0.46399 2.24631,0.34674 2.23949,0.2303 2.2238,0.11035 2.19939,-0.008 2.16586,-0.12569"
                 style="fill:none;stroke:#ff7f0e;stroke-width:0.79701;stroke-linecap:butt;stroke-linejoin:miter;stroke-miterlimit:10;stroke-dasharray:none;stroke-opacity:1"
                 id="path16736" /></g><g
               id="g16738"><path
                 d="M 26.29941,134.36116 229.15462,116.73903"
                 style="fill:none;stroke:#000000;stroke-width:0.3985;stroke-linecap:butt;stroke-linejoin:miter;stroke-miterlimit:10;stroke-dasharray:2.98883, 2.98883;stroke-dashoffset:0;stroke-opacity:1"
                 id="path16740" /></g><g
               id="g16742"><path
                 d="m 26.29941,134.36116 2.04901,-0.17799 2.049,-0.178 2.04899,-0.17799 2.04899,-0.17801 2.04902,-0.17799 2.04901,-0.17801 2.049,-0.178 2.04899,-0.17797 2.049,-0.17801 2.04901,-0.178 2.04899,-0.17801 2.04902,-0.17799 2.04899,-0.17799 2.049,-0.17801 2.04901,-0.17798 2.049,-0.17801 2.04899,-0.178 2.04901,-0.17799 2.049,-0.17801 2.04901,-0.17799 2.049,-0.17801 2.04899,-0.17798 2.049,-0.17799 2.04901,-0.17801 2.04901,-0.178 2.049,-0.178 2.04899,-0.178 2.049,-0.17801 2.04901,-0.17798 2.04901,-0.17799 2.049,-0.17801 2.04899,-0.17799 2.049,-0.17801 2.04899,-0.178 2.04903,-0.17799 2.049,-0.17799 2.04899,-0.178 2.04901,-0.17801 2.049,-0.17799 2.049,-0.17799 2.04901,-0.17801 2.04901,-0.178 2.049,-0.17799 2.04899,-0.17799 2.049,-0.178 2.04902,-0.17801 2.049,-0.17799 2.04899,-0.17801 2.04902,-0.17799 2.04899,-0.178 2.049,-0.17799 2.04902,-0.17799 2.049,-0.17801 2.049,-0.178 2.04899,-0.17799 2.04901,0.42901 2.049,1.05245 2.04901,1.05229 2.049,1.05246 2.04901,1.05225 2.04899,1.05275 2.049,1.05238 2.049,1.05269 2.04902,1.05238 2.049,1.05239 2.04899,1.0532 2.04902,1.04894 2.04899,1.05284 2.04901,1.05208 2.049,1.05305 2.04899,1.05107 2.04902,1.05393 2.04899,1.05325 2.049,1.05118 2.04901,1.05427 2.04899,1.05205 2.04902,1.05164 2.04899,1.05376 2.049,1.0517 2.04899,1.05086 2.04902,1.05288 2.04901,1.05366 2.049,1.0527 2.04899,1.05312 2.04899,1.05107 2.04903,1.05385 2.04899,1.05037 2.049,1.05537 2.049,1.05031 2.049,1.05268 2.049,1.0504 2.04902,1.05564 2.04899,1.05228 2.049,1.05001 2.04899,1.05491 2.04902,1.05197 2.04899,1.05464 2.04901,1.0499 2.049,1.05296"
                 style="fill:none;stroke:#1f77b4;stroke-width:0.79701;stroke-linecap:butt;stroke-linejoin:miter;stroke-miterlimit:10;stroke-dasharray:none;stroke-opacity:1"
                 id="path16744" /></g><g
               id="g16746"><path
                 d="m 117.20724,96.14035 -74.00323,36.7523"
                 style="fill:none;stroke:#808080;stroke-width:0.28346;stroke-linecap:butt;stroke-linejoin:miter;stroke-miterlimit:10;stroke-dasharray:none;stroke-opacity:1"
                 id="path16748" /></g><g
               id="g16750"><path
                 d="M 117.20724,96.14035 60.10861,131.42413"
                 style="fill:none;stroke:#808080;stroke-width:0.28346;stroke-linecap:butt;stroke-linejoin:miter;stroke-miterlimit:10;stroke-dasharray:none;stroke-opacity:1"
                 id="path16752" /></g><g
               id="g16754"><path
                 d="M 117.20724,96.14035 77.01321,129.95563"
                 style="fill:none;stroke:#808080;stroke-width:0.28346;stroke-linecap:butt;stroke-linejoin:miter;stroke-miterlimit:10;stroke-dasharray:none;stroke-opacity:1"
                 id="path16756" /></g><g
               id="g16758"><path
                 d="M 117.20724,96.14035 93.91782,128.4871"
                 style="fill:none;stroke:#808080;stroke-width:0.28346;stroke-linecap:butt;stroke-linejoin:miter;stroke-miterlimit:10;stroke-dasharray:none;stroke-opacity:1"
                 id="path16760" /></g><g
               id="g16762"><path
                 d="m 117.20724,96.14035 -6.38482,30.87825"
                 style="fill:none;stroke:#808080;stroke-width:0.28346;stroke-linecap:butt;stroke-linejoin:miter;stroke-miterlimit:10;stroke-dasharray:none;stroke-opacity:1"
                 id="path16764" /></g><g
               id="g16766"><path
                 d="m 117.20724,96.14035 10.51978,29.40975"
                 style="fill:none;stroke:#808080;stroke-width:0.28346;stroke-linecap:butt;stroke-linejoin:miter;stroke-miterlimit:10;stroke-dasharray:none;stroke-opacity:1"
                 id="path16768" /></g><g
               id="g16770"><path
                 d="m 117.20724,96.14035 27.42438,30.70288"
                 style="fill:none;stroke:#808080;stroke-width:0.28346;stroke-linecap:butt;stroke-linejoin:miter;stroke-miterlimit:10;stroke-dasharray:none;stroke-opacity:1"
                 id="path16772" /></g><g
               id="g16774"><path
                 d="m 117.20724,96.14035 44.32897,39.38667"
                 style="fill:none;stroke:#808080;stroke-width:0.28346;stroke-linecap:butt;stroke-linejoin:miter;stroke-miterlimit:10;stroke-dasharray:none;stroke-opacity:1"
                 id="path16776" /></g><g
               id="g16778"><path
                 d="m 117.20724,96.14035 61.23357,48.06685"
                 style="fill:none;stroke:#808080;stroke-width:0.28346;stroke-linecap:butt;stroke-linejoin:miter;stroke-miterlimit:10;stroke-dasharray:none;stroke-opacity:1"
                 id="path16780" /></g><g
               id="g16782"><path
                 d="m 117.20724,96.14035 78.13817,56.75205"
                 style="fill:none;stroke:#808080;stroke-width:0.28346;stroke-linecap:butt;stroke-linejoin:miter;stroke-miterlimit:10;stroke-dasharray:none;stroke-opacity:1"
                 id="path16784" /></g><g
               id="g16786"><path
                 d="m 117.20724,96.14035 95.04278,65.4312"
                 style="fill:none;stroke:#808080;stroke-width:0.28346;stroke-linecap:butt;stroke-linejoin:miter;stroke-miterlimit:10;stroke-dasharray:none;stroke-opacity:1"
                 id="path16788" /></g><g
               id="g16790"><path
                 d="m 117.20724,96.14035 v 77.78639"
                 style="fill:none;stroke:#000000;stroke-width:0.3985;stroke-linecap:butt;stroke-linejoin:miter;stroke-miterlimit:10;stroke-dasharray:none;stroke-opacity:1"
                 id="path16792" /></g></g></g><g
           id="g16794"><path
             d="m 90.52313,109.79073 c 0,0.44018 -0.35683,0.79701 -0.79699,0.79701 -0.44019,0 -0.79702,-0.35683 -0.79702,-0.79701 0,-0.44017 0.35683,-0.797 0.79702,-0.797 0.44016,0 0.79699,0.35683 0.79699,0.797 z"
             style="fill:#ff7f0e;fill-opacity:1;fill-rule:nonzero;stroke:#ff7f0e;stroke-width:0.3985;stroke-linecap:butt;stroke-linejoin:miter;stroke-miterlimit:10;stroke-dasharray:none;stroke-opacity:1"
             id="path16796" /></g><g
           id="g16798"><path
             d="m 44.00102,132.89265 c 0,0.44017 -0.35682,0.797 -0.79701,0.797 -0.44017,0 -0.797,-0.35683 -0.797,-0.797 0,-0.44018 0.35683,-0.79701 0.797,-0.79701 0.44019,0 0.79701,0.35683 0.79701,0.79701 z"
             style="fill:#1f77b4;fill-opacity:1;fill-rule:nonzero;stroke:#1f77b4;stroke-width:0.3985;stroke-linecap:butt;stroke-linejoin:miter;stroke-miterlimit:10;stroke-dasharray:none;stroke-opacity:1"
             id="path16800" /></g><g
           id="g16802"><path
             d="m 92.47076,111.91824 c 0,0.44019 -0.35682,0.79702 -0.79699,0.79702 -0.44019,0 -0.79702,-0.35683 -0.79702,-0.79702 0,-0.44017 0.35683,-0.79699 0.79702,-0.79699 0.44017,0 0.79699,0.35682 0.79699,0.79699 z"
             style="fill:#ff7f0e;fill-opacity:1;fill-rule:nonzero;stroke:#ff7f0e;stroke-width:0.3985;stroke-linecap:butt;stroke-linejoin:miter;stroke-miterlimit:10;stroke-dasharray:none;stroke-opacity:1"
             id="path16804" /></g><g
           id="g16806"><path
             d="m 60.90562,131.42413 c 0,0.44017 -0.35684,0.79702 -0.79701,0.79702 -0.44017,0 -0.79701,-0.35685 -0.79701,-0.79702 0,-0.44017 0.35684,-0.79701 0.79701,-0.79701 0.44017,0 0.79701,0.35684 0.79701,0.79701 z"
             style="fill:#1f77b4;fill-opacity:1;fill-rule:nonzero;stroke:#1f77b4;stroke-width:0.3985;stroke-linecap:butt;stroke-linejoin:miter;stroke-miterlimit:10;stroke-dasharray:none;stroke-opacity:1"
             id="path16808" /></g><g
           id="g16810"><path
             d="m 95.71153,114.89804 c 0,0.44017 -0.35684,0.797 -0.79701,0.797 -0.44017,0 -0.79701,-0.35683 -0.79701,-0.797 0,-0.44018 0.35684,-0.79701 0.79701,-0.79701 0.44017,0 0.79701,0.35683 0.79701,0.79701 z"
             style="fill:#ff7f0e;fill-opacity:1;fill-rule:nonzero;stroke:#ff7f0e;stroke-width:0.3985;stroke-linecap:butt;stroke-linejoin:miter;stroke-miterlimit:10;stroke-dasharray:none;stroke-opacity:1"
             id="path16812" /></g><g
           id="g16814"><path
             d="m 77.81023,129.95563 c 0,0.44017 -0.35685,0.79701 -0.79702,0.79701 -0.44017,0 -0.79701,-0.35684 -0.79701,-0.79701 0,-0.44017 0.35684,-0.79701 0.79701,-0.79701 0.44017,0 0.79702,0.35684 0.79702,0.79701 z"
             style="fill:#1f77b4;fill-opacity:1;fill-rule:nonzero;stroke:#1f77b4;stroke-width:0.3985;stroke-linecap:butt;stroke-linejoin:miter;stroke-miterlimit:10;stroke-dasharray:none;stroke-opacity:1"
             id="path16816" /></g><g
           id="g16818"><path
             d="m 101.53629,119.01274 c 0,0.44017 -0.35685,0.79701 -0.79702,0.79701 -0.44017,0 -0.79701,-0.35684 -0.79701,-0.79701 0,-0.44017 0.35684,-0.79701 0.79701,-0.79701 0.44017,0 0.79702,0.35684 0.79702,0.79701 z"
             style="fill:#ff7f0e;fill-opacity:1;fill-rule:nonzero;stroke:#ff7f0e;stroke-width:0.3985;stroke-linecap:butt;stroke-linejoin:miter;stroke-miterlimit:10;stroke-dasharray:none;stroke-opacity:1"
             id="path16820" /></g><g
           id="g16822"><path
             d="m 94.71483,128.4871 c 0,0.44019 -0.35684,0.79702 -0.79701,0.79702 -0.44017,0 -0.79702,-0.35683 -0.79702,-0.79702 0,-0.44016 0.35685,-0.79699 0.79702,-0.79699 0.44017,0 0.79701,0.35683 0.79701,0.79699 z"
             style="fill:#1f77b4;fill-opacity:1;fill-rule:nonzero;stroke:#1f77b4;stroke-width:0.3985;stroke-linecap:butt;stroke-linejoin:miter;stroke-miterlimit:10;stroke-dasharray:none;stroke-opacity:1"
             id="path16824" /></g><g
           id="g16826"><path
             d="m 112.29425,123.75659 c 0,0.44017 -0.35683,0.79701 -0.797,0.79701 -0.44018,0 -0.79701,-0.35684 -0.79701,-0.79701 0,-0.44017 0.35683,-0.79701 0.79701,-0.79701 0.44017,0 0.797,0.35684 0.797,0.79701 z"
             style="fill:#ff7f0e;fill-opacity:1;fill-rule:nonzero;stroke:#ff7f0e;stroke-width:0.3985;stroke-linecap:butt;stroke-linejoin:miter;stroke-miterlimit:10;stroke-dasharray:none;stroke-opacity:1"
             id="path16828" /></g><g
           id="g16830"><path
             d="m 111.61943,127.0186 c 0,0.44017 -0.35684,0.79701 -0.79701,0.79701 -0.44017,0 -0.79702,-0.35684 -0.79702,-0.79701 0,-0.44017 0.35685,-0.79701 0.79702,-0.79701 0.44017,0 0.79701,0.35684 0.79701,0.79701 z"
             style="fill:#1f77b4;fill-opacity:1;fill-rule:nonzero;stroke:#1f77b4;stroke-width:0.3985;stroke-linecap:butt;stroke-linejoin:miter;stroke-miterlimit:10;stroke-dasharray:none;stroke-opacity:1"
             id="path16832" /></g><g
           id="g16834"><path
             d="m 128.52402,125.5501 c 0,0.44016 -0.35683,0.797 -0.797,0.797 -0.44019,0 -0.79701,-0.35684 -0.79701,-0.797 0,-0.44018 0.35682,-0.79702 0.79701,-0.79702 0.44017,0 0.797,0.35684 0.797,0.79702 z"
             style="fill:#ff7f0e;fill-opacity:1;fill-rule:nonzero;stroke:#ff7f0e;stroke-width:0.3985;stroke-linecap:butt;stroke-linejoin:miter;stroke-miterlimit:10;stroke-dasharray:none;stroke-opacity:1"
             id="path16836" /></g><g
           id="g16838"><path
             d="m 128.52402,125.5501 c 0,0.44016 -0.35683,0.797 -0.797,0.797 -0.44019,0 -0.79701,-0.35684 -0.79701,-0.797 0,-0.44018 0.35682,-0.79702 0.79701,-0.79702 0.44017,0 0.797,0.35684 0.797,0.79702 z"
             style="fill:#1f77b4;fill-opacity:1;fill-rule:nonzero;stroke:#1f77b4;stroke-width:0.3985;stroke-linecap:butt;stroke-linejoin:miter;stroke-miterlimit:10;stroke-dasharray:none;stroke-opacity:1"
             id="path16840" /></g><g
           id="g16842"><path
             d="m 142.53116,123.60002 c 0,0.44018 -0.35684,0.79701 -0.79701,0.79701 -0.44017,0 -0.79702,-0.35683 -0.79702,-0.79701 0,-0.44017 0.35685,-0.797 0.79702,-0.797 0.44017,0 0.79701,0.35683 0.79701,0.797 z"
             style="fill:#ff7f0e;fill-opacity:1;fill-rule:nonzero;stroke:#ff7f0e;stroke-width:0.3985;stroke-linecap:butt;stroke-linejoin:miter;stroke-miterlimit:10;stroke-dasharray:none;stroke-opacity:1"
             id="path16844" /></g><g
           id="g16846"><path
             d="m 145.42862,126.84323 c 0,0.44017 -0.35682,0.79701 -0.797,0.79701 -0.44018,0 -0.79701,-0.35684 -0.79701,-0.79701 0,-0.44017 0.35683,-0.79701 0.79701,-0.79701 0.44018,0 0.797,0.35684 0.797,0.79701 z"
             style="fill:#1f77b4;fill-opacity:1;fill-rule:nonzero;stroke:#1f77b4;stroke-width:0.3985;stroke-linecap:butt;stroke-linejoin:miter;stroke-miterlimit:10;stroke-dasharray:none;stroke-opacity:1"
             id="path16848" /></g><g
           id="g16850"><path
             d="m 149.34926,123.99089 c 0,0.44017 -0.35684,0.797 -0.79701,0.797 -0.44017,0 -0.79702,-0.35683 -0.79702,-0.797 0,-0.44019 0.35685,-0.79701 0.79702,-0.79701 0.44017,0 0.79701,0.35682 0.79701,0.79701 z"
             style="fill:#ff7f0e;fill-opacity:1;fill-rule:nonzero;stroke:#ff7f0e;stroke-width:0.3985;stroke-linecap:butt;stroke-linejoin:miter;stroke-miterlimit:10;stroke-dasharray:none;stroke-opacity:1"
             id="path16852" /></g><g
           id="g16854"><path
             d="m 162.33322,135.52702 c 0,0.44019 -0.35682,0.79702 -0.79701,0.79702 -0.44017,0 -0.797,-0.35683 -0.797,-0.79702 0,-0.44017 0.35683,-0.79699 0.797,-0.79699 0.44019,0 0.79701,0.35682 0.79701,0.79699 z"
             style="fill:#1f77b4;fill-opacity:1;fill-rule:nonzero;stroke:#1f77b4;stroke-width:0.3985;stroke-linecap:butt;stroke-linejoin:miter;stroke-miterlimit:10;stroke-dasharray:none;stroke-opacity:1"
             id="path16856" /></g><g
           id="g16858"><path
             d="m 151.96802,122.80405 c 0,0.44018 -0.35684,0.79701 -0.79702,0.79701 -0.44017,0 -0.797,-0.35683 -0.797,-0.79701 0,-0.44017 0.35683,-0.797 0.797,-0.797 0.44018,0 0.79702,0.35683 0.79702,0.797 z"
             style="fill:#ff7f0e;fill-opacity:1;fill-rule:nonzero;stroke:#ff7f0e;stroke-width:0.3985;stroke-linecap:butt;stroke-linejoin:miter;stroke-miterlimit:10;stroke-dasharray:none;stroke-opacity:1"
             id="path16860" /></g><g
           id="g16862"><path
             d="m 179.23782,144.2072 c 0,0.44018 -0.35684,0.79701 -0.79701,0.79701 -0.44017,0 -0.79701,-0.35683 -0.79701,-0.79701 0,-0.44017 0.35684,-0.797 0.79701,-0.797 0.44017,0 0.79701,0.35683 0.79701,0.797 z"
             style="fill:#1f77b4;fill-opacity:1;fill-rule:nonzero;stroke:#1f77b4;stroke-width:0.3985;stroke-linecap:butt;stroke-linejoin:miter;stroke-miterlimit:10;stroke-dasharray:none;stroke-opacity:1"
             id="path16864" /></g><g
           id="g16866"><path
             d="m 152.94595,121.51978 c 0,0.44017 -0.35682,0.79701 -0.79701,0.79701 -0.44017,0 -0.797,-0.35684 -0.797,-0.79701 0,-0.44018 0.35683,-0.79702 0.797,-0.79702 0.44019,0 0.79701,0.35684 0.79701,0.79702 z"
             style="fill:#ff7f0e;fill-opacity:1;fill-rule:nonzero;stroke:#ff7f0e;stroke-width:0.3985;stroke-linecap:butt;stroke-linejoin:miter;stroke-miterlimit:10;stroke-dasharray:none;stroke-opacity:1"
             id="path16868" /></g><g
           id="g16870"><path
             d="m 196.14243,152.8924 c 0,0.44018 -0.35685,0.797 -0.79702,0.797 -0.44017,0 -0.79701,-0.35682 -0.79701,-0.797 0,-0.44018 0.35684,-0.797 0.79701,-0.797 0.44017,0 0.79702,0.35682 0.79702,0.797 z"
             style="fill:#1f77b4;fill-opacity:1;fill-rule:nonzero;stroke:#1f77b4;stroke-width:0.3985;stroke-linecap:butt;stroke-linejoin:miter;stroke-miterlimit:10;stroke-dasharray:none;stroke-opacity:1"
             id="path16872" /></g><g
           id="g16874"><path
             d="m 153.30005,120.44252 c 0,0.44017 -0.35683,0.79701 -0.797,0.79701 -0.44018,0 -0.79701,-0.35684 -0.79701,-0.79701 0,-0.44017 0.35683,-0.79701 0.79701,-0.79701 0.44017,0 0.797,0.35684 0.797,0.79701 z"
             style="fill:#ff7f0e;fill-opacity:1;fill-rule:nonzero;stroke:#ff7f0e;stroke-width:0.3985;stroke-linecap:butt;stroke-linejoin:miter;stroke-miterlimit:10;stroke-dasharray:none;stroke-opacity:1"
             id="path16876" /></g><g
           id="g16878"><path
             d="m 213.04703,161.57155 c 0,0.44017 -0.35684,0.79701 -0.79701,0.79701 -0.44018,0 -0.79702,-0.35684 -0.79702,-0.79701 0,-0.44017 0.35684,-0.79701 0.79702,-0.79701 0.44017,0 0.79701,0.35684 0.79701,0.79701 z"
             style="fill:#1f77b4;fill-opacity:1;fill-rule:nonzero;stroke:#1f77b4;stroke-width:0.3985;stroke-linecap:butt;stroke-linejoin:miter;stroke-miterlimit:10;stroke-dasharray:none;stroke-opacity:1"
             id="path16880" /></g><g
           id="g16882"><g
             id="g16884"
             transform="translate(222.152,85.931)"><g
               id="g16886"><g
                 id="g16888"
                 transform="translate(-222.152,-85.931)"><text
                   transform="matrix(1,0,0,-1,222.152,85.931)"
                   style="font-variant:normal;font-weight:normal;font-size:9.9626px;font-family:CMMI10;-inkscape-font-specification:CMMI10;writing-mode:lr-tb;fill:#000000;fill-opacity:1;fill-rule:nonzero;stroke:none"
                   id="text16892"><tspan
                     x="0"
                     y="0"
                     id="tspan16890">x</tspan></text><text
                   transform="matrix(1,0,0,-1,227.846,84.436)"
                   style="font-variant:normal;font-weight:normal;font-size:6.9738px;font-family:CMR7;-inkscape-font-specification:CMR7;writing-mode:lr-tb;fill:#000000;fill-opacity:1;fill-rule:nonzero;stroke:none"
                   id="text16896"><tspan
                     x="0"
                     y="0"
                     id="tspan16894">1</tspan></text><g
                   id="g16898"
                   transform="translate(222.152,85.931)" /></g></g><g
               id="g16900"
               transform="translate(-222.152,-85.931)" /></g></g><g
           id="g16902"><g
             id="g16904"
             transform="translate(132.111,157.031)"><g
               id="g16906"><g
                 id="g16908"
                 transform="translate(-132.111,-157.031)"><text
                   transform="matrix(1,0,0,-1,132.111,157.031)"
                   style="font-variant:normal;font-weight:normal;font-size:9.9626px;font-family:CMMI10;-inkscape-font-specification:CMMI10;writing-mode:lr-tb;fill:#000000;fill-opacity:1;fill-rule:nonzero;stroke:none"
                   id="text16912"><tspan
                     x="0"
                     y="0"
                     id="tspan16910">x</tspan></text><text
                   transform="matrix(1,0,0,-1,137.805,155.537)"
                   style="font-variant:normal;font-weight:normal;font-size:6.9738px;font-family:CMR7;-inkscape-font-specification:CMR7;writing-mode:lr-tb;fill:#000000;fill-opacity:1;fill-rule:nonzero;stroke:none"
                   id="text16916"><tspan
                     x="0"
                     y="0"
                     id="tspan16914">2</tspan></text><g
                   id="g16918"
                   transform="translate(132.111,157.031)" /></g></g><g
               id="g16920"
               transform="translate(-132.111,-157.031)" /></g></g><g
           id="g16922"><g
             id="g16924"
             transform="translate(108.444,172.748)"><g
               id="g16926"><g
                 id="g16928"
                 transform="translate(-108.444,-172.748)"><text
                   transform="matrix(1,0,0,-1,108.444,172.748)"
                   style="font-variant:normal;font-weight:normal;font-size:9.9626px;font-family:CMMI10;-inkscape-font-specification:CMMI10;writing-mode:lr-tb;fill:#000000;fill-opacity:1;fill-rule:nonzero;stroke:none"
                   id="text16932"><tspan
                     x="0"
                     y="0"
                     id="tspan16930">y</tspan></text><g
                   id="g16934"
                   transform="translate(108.444,172.748)" /></g></g><g
               id="g16936"
               transform="translate(-108.444,-172.748)" /></g></g></g><g
         id="g16938" /><g
         id="g16940" /><g
         id="g16942"><g
           id="g16944" /></g><g
         id="g16946" /><g
         id="g16948" /></g><g
       id="g16950" /><g
       id="g16952" /></g></svg>
