<?xml version="1.0" encoding="utf-8" standalone="no"?>
<!DOCTYPE svg PUBLIC "-//W3C//DTD SVG 1.1//EN"
  "http://www.w3.org/Graphics/SVG/1.1/DTD/svg11.dtd">
<!-- Created with matplotlib (http://matplotlib.org/) -->
<svg height="432pt" version="1.1" viewBox="0 0 864 432" width="864pt" xmlns="http://www.w3.org/2000/svg" xmlns:xlink="http://www.w3.org/1999/xlink">
 <defs>
  <style type="text/css">
*{stroke-linecap:butt;stroke-linejoin:round;}
  </style>
 </defs>
 <g id="figure_1">
  <g id="patch_1">
   <path d="M 0 432 
L 864 432 
L 864 0 
L 0 0 
z
" style="fill:none;"/>
  </g>
  <g id="axes_1">
   <g id="patch_2">
    <path d="M 108 378 
L 777.6 378 
L 777.6 51.84 
L 108 51.84 
z
" style="fill:none;"/>
   </g>
   <g id="patch_3">
    <path clip-path="url(#pc76d637e13)" d="M -35.485714 124.324294 
L -30.678823 123.422099 
L -25.871931 122.456071 
L -21.065039 121.422993 
L -16.258148 120.319946 
L -11.451256 119.144495 
L -6.644365 117.894942 
L -1.837473 116.570637 
L 2.969419 115.172359 
L 7.77631 113.702761 
L 12.583202 112.166858 
L 17.390093 110.572512 
L 22.196985 108.93084 
L 27.003877 107.2564 
L 31.810768 105.566989 
L 36.61766 103.882803 
L 41.424551 102.224716 
L 46.231443 100.611521 
L 51.038335 99.056178 
L 55.845226 97.561554 
L 60.652118 96.116675 
L 65.459009 94.694991 
L 70.265901 93.25621 
L 75.072793 91.75238 
L 79.879684 90.137316 
L 84.686576 88.376651 
L 89.493467 86.45523 
L 94.300359 84.379775 
L 99.107251 82.176988 
L 103.914142 79.889066 
L 108.721034 77.568942 
L 113.527925 75.27755 
L 118.334817 73.085977 
L 123.141709 71.087746 
L 127.9486 69.429439 
L 132.755492 68.368241 
L 137.562383 68.355291 
L 142.369275 70.113954 
L 147.176167 74.616103 
L 151.983058 82.756959 
L 156.78995 94.530245 
L 161.596841 108.021302 
L 166.403733 119.590447 
L 171.210625 126.256149 
L 176.017516 127.981564 
L 180.824408 126.965848 
L 185.631299 125.453174 
L 190.438191 124.576563 
L 195.245083 124.571593 
L 200.051974 125.376155 
L 204.858866 126.91867 
L 209.665757 129.120439 
L 214.472649 131.805372 
L 219.279541 134.643944 
L 224.086432 137.208302 
L 228.893324 139.112074 
L 233.700215 140.107185 
L 238.507107 140.07205 
L 243.313999 138.970047 
L 248.12089 136.890627 
L 252.927782 134.184174 
L 257.734673 131.577055 
L 262.541565 130.137511 
L 267.348457 130.786676 
L 272.155348 131.844746 
L 276.96224 124.757082 
L 281.769131 104.19394 
L 286.576023 89.255198 
L 291.382915 94.72772 
L 296.189806 107.859891 
L 300.996698 119.075894 
L 305.803589 135.143747 
L 310.610481 157.800909 
L 315.417373 170.9384 
L 320.224264 168.551365 
L 325.031156 160.621935 
L 329.838047 158.65323 
L 334.644939 166.24134 
L 339.451831 179.439353 
L 344.258722 193.025735 
L 349.065614 204.366991 
L 353.872505 213.469221 
L 358.679397 221.756356 
L 363.486289 231.66163 
L 368.29318 246.847315 
L 373.100072 271.024895 
L 377.906963 302.393403 
L 382.713855 327.389544 
L 387.520747 331.64357 
L 392.327638 322.578483 
L 397.13453 315.716056 
L 401.941421 316.488301 
L 406.748313 322.745026 
L 411.555205 328.205157 
L 416.362096 326.877872 
L 421.168988 320.400134 
L 425.975879 314.909861 
L 430.782771 314.191959 
L 435.589663 317.721474 
L 440.396554 321.387153 
L 445.203446 322.246022 
L 450.010337 323.008345 
L 454.817229 325.337903 
L 459.624121 326.45494 
L 464.431012 328.186506 
L 469.237904 329.950548 
L 474.044795 327.405889 
L 478.851687 324.193956 
L 483.658579 324.105242 
L 488.46547 325.950193 
L 493.272362 327.534959 
L 498.079253 328.038248 
L 502.886145 327.542121 
L 507.693037 326.327373 
L 512.499928 324.80652 
L 517.30682 323.531737 
L 522.113711 322.87096 
L 526.920603 322.623351 
L 531.727495 322.235136 
L 536.534386 321.546332 
L 541.341278 320.96004 
L 546.148169 320.663447 
L 550.955061 320.158359 
L 555.761953 318.904234 
L 560.568844 317.115757 
L 565.375736 315.678881 
L 570.182627 315.422324 
L 574.989519 316.568804 
L 579.796411 318.751162 
L 584.603302 321.32019 
L 589.410194 323.532335 
L 594.217085 324.536419 
L 599.023977 323.309837 
L 603.830869 318.692659 
L 608.63776 309.593648 
L 613.444652 295.326538 
L 618.251543 275.966132 
L 623.058435 252.612568 
L 627.865327 227.393033 
L 632.672218 203.02574 
L 637.47911 182.054522 
L 642.286001 166.154964 
L 647.092893 155.784253 
L 651.899785 150.07556 
L 656.706676 146.886849 
L 661.513568 143.390176 
L 666.320459 137.874699 
L 671.127351 132.098827 
L 675.934243 130.567058 
L 680.741134 134.855684 
L 685.548026 140.334101 
L 690.354917 140.526521 
L 695.161809 133.016828 
L 699.968701 122.038718 
L 704.775592 114.44579 
L 709.582484 111.431393 
L 714.389375 109.667448 
L 719.196267 109.713971 
L 724.003159 114.108807 
L 728.81005 120.675592 
L 733.616942 125.039996 
L 738.423833 126.300878 
L 743.230725 125.061735 
L 748.037617 121.193685 
L 752.844508 115.146764 
L 757.6514 109.237173 
L 762.458291 105.667112 
L 767.265183 104.713472 
L 772.072075 105.483906 
L 776.878966 107.072464 
L 781.685858 108.933859 
L 786.492749 110.817579 
L 791.299641 112.63486 
L 796.106533 114.368993 
L 800.913424 116.028898 
L 805.720316 117.628126 
L 810.527207 119.176647 
L 815.334099 120.678606 
L 820.140991 122.132612 
L 824.947882 123.532933 
L 829.754774 124.871018 
L 834.561665 126.137131 
L 839.368557 127.321945 
L 844.175449 128.41787 
L 848.98234 129.419901 
L 853.789232 130.325953 
L 858.596123 131.136738 
L 863.403015 131.855352 
L 868.209907 132.48674 
L 873.016798 133.037125 
L 877.82369 133.513501 
L 882.630581 133.923202 
L 887.437473 134.273565 
L 892.244365 134.571685 
L 897.051256 134.824237 
L 901.858148 135.037371 
L 906.665039 135.216652 
L 911.471931 135.367045 
L 916.278823 135.492919 
L 921.085714 135.598086 
L 921.085714 399.163396 
L 916.278823 398.838495 
L 911.471931 398.461169 
L 906.665039 398.024437 
L 901.858148 397.520701 
L 897.051256 396.941778 
L 892.244365 396.278963 
L 887.437473 395.523139 
L 882.630581 394.664956 
L 877.82369 393.695083 
L 873.016798 392.604559 
L 868.209907 391.385256 
L 863.403015 390.030455 
L 858.596123 388.535537 
L 853.789232 386.89874 
L 848.98234 385.12194 
L 844.175449 383.2113 
L 839.368557 381.17762 
L 834.561665 379.036099 
L 829.754774 376.805138 
L 824.947882 374.503772 
L 820.140991 372.147339 
L 815.334099 369.741202 
L 810.527207 367.272653 
L 805.720316 364.701402 
L 800.913424 361.949064 
L 796.106533 358.887667 
L 791.299641 355.326731 
L 786.492749 350.99878 
L 781.685858 345.545506 
L 776.878966 338.514135 
L 772.072075 329.389668 
L 767.265183 317.716691 
L 762.458291 303.389855 
L 757.6514 287.159534 
L 752.844508 271.177035 
L 748.037617 258.692728 
L 743.230725 251.725863 
L 738.423833 248.852207 
L 733.616942 246.271969 
L 728.81005 239.785947 
L 724.003159 226.737043 
L 719.196267 211.26796 
L 714.389375 203.672142 
L 709.582484 204.794305 
L 704.775592 209.238745 
L 699.968701 216.321815 
L 695.161809 224.183165 
L 690.354917 227.371078 
L 685.548026 223.906466 
L 680.741134 217.863411 
L 675.934243 216.598328 
L 671.127351 223.437785 
L 666.320459 234.728416 
L 661.513568 245.746041 
L 656.706676 254.928829 
L 651.899785 263.181297 
L 647.092893 272.25219 
L 642.286001 283.853441 
L 637.47911 298.986837 
L 632.672218 317.252953 
L 627.865327 336.675085 
L 623.058435 354.468427 
L 618.251543 368.345873 
L 613.444652 377.425577 
L 608.63776 382.203011 
L 603.830869 383.847701 
L 599.023977 383.458659 
L 594.217085 381.730833 
L 589.410194 379.068192 
L 584.603302 375.875615 
L 579.796411 372.74374 
L 574.989519 370.380651 
L 570.182627 369.320783 
L 565.375736 369.63453 
L 560.568844 370.868512 
L 555.761953 372.249142 
L 550.955061 373.076517 
L 546.148169 373.09875 
L 541.341278 372.499927 
L 536.534386 371.55525 
L 531.727495 370.432328 
L 526.920603 369.211729 
L 522.113711 367.958336 
L 517.30682 366.84444 
L 512.499928 366.130782 
L 507.693037 365.913012 
L 502.886145 366.002932 
L 498.079253 366.099776 
L 493.272362 365.931579 
L 488.46547 365.350423 
L 483.658579 364.763546 
L 478.851687 365.359991 
L 474.044795 367.518826 
L 469.237904 369.425952 
L 464.431012 369.573548 
L 459.624121 369.167728 
L 454.817229 369.770482 
L 450.010337 370.129765 
L 445.203446 371.605993 
L 440.396554 373.019758 
L 435.589663 372.156341 
L 430.782771 370.473171 
L 425.975879 369.866003 
L 421.168988 370.894875 
L 416.362096 372.567702 
L 411.555205 373.254913 
L 406.748313 372.30573 
L 401.941421 370.65952 
L 397.13453 370.565902 
L 392.327638 373.115461 
L 387.520747 377.031853 
L 382.713855 378.950874 
L 377.906963 372.30057 
L 373.100072 355.684437 
L 368.29318 338.417453 
L 363.486289 325.874492 
L 358.679397 316.870457 
L 353.872505 308.94514 
L 349.065614 300.271305 
L 344.258722 289.434366 
L 339.451831 275.752992 
L 334.644939 260.76841 
L 329.838047 248.525124 
L 325.031156 242.659399 
L 320.224264 243.109087 
L 315.417373 242.987593 
L 310.610481 233.522435 
L 305.803589 216.658785 
L 300.996698 204.146276 
L 296.189806 195.714422 
L 291.382915 183.481499 
L 286.576023 177.59892 
L 281.769131 186.863839 
L 276.96224 197.25077 
L 272.155348 198.869009 
L 267.348457 196.731879 
L 262.541565 195.963555 
L 257.734673 197.28339 
L 252.927782 199.94567 
L 248.12089 203.050636 
L 243.313999 205.723004 
L 238.507107 207.284747 
L 233.700215 207.402464 
L 228.893324 206.126407 
L 224.086432 203.847034 
L 219.279541 201.185636 
L 214.472649 198.804604 
L 209.665757 197.147663 
L 204.858866 196.223433 
L 200.051974 195.647973 
L 195.245083 195.044579 
L 190.438191 194.526408 
L 185.631299 194.739707 
L 180.824408 196.238783 
L 176.017516 198.797039 
L 171.210625 201.679541 
L 166.403733 204.685784 
L 161.596841 208.162899 
L 156.78995 212.019967 
L 151.983058 215.815867 
L 147.176167 219.392368 
L 142.369275 222.890393 
L 137.562383 226.495042 
L 132.755492 230.317994 
L 127.9486 234.392306 
L 123.141709 238.689605 
L 118.334817 243.144171 
L 113.527925 247.688132 
L 108.721034 252.286922 
L 103.914142 256.959444 
L 99.107251 261.775983 
L 94.300359 266.837749 
L 89.493467 272.246859 
L 84.686576 278.076338 
L 79.879684 284.347954 
L 75.072793 291.023206 
L 70.265901 298.00862 
L 65.459009 305.172446 
L 60.652118 312.366596 
L 55.845226 319.44751 
L 51.038335 326.291453 
L 46.231443 332.802776 
L 41.424551 338.915926 
L 36.61766 344.593145 
L 31.810768 349.819843 
L 27.003877 354.599213 
L 22.196985 358.947066 
L 17.390093 362.887423 
L 12.583202 366.449015 
L 7.77631 369.662674 
L 2.969419 372.559502 
L -1.837473 375.169653 
L -6.644365 377.521583 
L -11.451256 379.641645 
L -16.258148 381.553908 
L -21.065039 383.280151 
L -25.871931 384.839935 
L -30.678823 386.250746 
L -35.485714 387.528162 
z
" style="fill:#cc3300;opacity:0.3;stroke:#cc3300;stroke-linejoin:miter;stroke-width:0.5;"/>
   </g>
   <g id="matplotlib.axis_1">
    <g id="xtick_1">
     <g id="line2d_1">
      <defs>
       <path d="M 0 0 
L 0 3.5 
" id="m5c4a0015a0" style="stroke:#000000;stroke-width:0.8;"/>
      </defs>
      <g>
       <use style="stroke:#000000;stroke-width:0.8;" x="108" xlink:href="#m5c4a0015a0" y="378"/>
      </g>
     </g>
     <g id="text_1">
      <!-- −0.2 -->
      <defs>
       <path d="M 10.59375 35.5 
L 73.1875 35.5 
L 73.1875 27.203125 
L 10.59375 27.203125 
z
" id="DejaVuSans-2212"/>
       <path d="M 31.78125 66.40625 
Q 24.171875 66.40625 20.328125 58.90625 
Q 16.5 51.421875 16.5 36.375 
Q 16.5 21.390625 20.328125 13.890625 
Q 24.171875 6.390625 31.78125 6.390625 
Q 39.453125 6.390625 43.28125 13.890625 
Q 47.125 21.390625 47.125 36.375 
Q 47.125 51.421875 43.28125 58.90625 
Q 39.453125 66.40625 31.78125 66.40625 
z
M 31.78125 74.21875 
Q 44.046875 74.21875 50.515625 64.515625 
Q 56.984375 54.828125 56.984375 36.375 
Q 56.984375 17.96875 50.515625 8.265625 
Q 44.046875 -1.421875 31.78125 -1.421875 
Q 19.53125 -1.421875 13.0625 8.265625 
Q 6.59375 17.96875 6.59375 36.375 
Q 6.59375 54.828125 13.0625 64.515625 
Q 19.53125 74.21875 31.78125 74.21875 
z
" id="DejaVuSans-30"/>
       <path d="M 10.6875 12.40625 
L 21 12.40625 
L 21 0 
L 10.6875 0 
z
" id="DejaVuSans-2e"/>
       <path d="M 19.1875 8.296875 
L 53.609375 8.296875 
L 53.609375 0 
L 7.328125 0 
L 7.328125 8.296875 
Q 12.9375 14.109375 22.625 23.890625 
Q 32.328125 33.6875 34.8125 36.53125 
Q 39.546875 41.84375 41.421875 45.53125 
Q 43.3125 49.21875 43.3125 52.78125 
Q 43.3125 58.59375 39.234375 62.25 
Q 35.15625 65.921875 28.609375 65.921875 
Q 23.96875 65.921875 18.8125 64.3125 
Q 13.671875 62.703125 7.8125 59.421875 
L 7.8125 69.390625 
Q 13.765625 71.78125 18.9375 73 
Q 24.125 74.21875 28.421875 74.21875 
Q 39.75 74.21875 46.484375 68.546875 
Q 53.21875 62.890625 53.21875 53.421875 
Q 53.21875 48.921875 51.53125 44.890625 
Q 49.859375 40.875 45.40625 35.40625 
Q 44.1875 33.984375 37.640625 27.21875 
Q 31.109375 20.453125 19.1875 8.296875 
z
" id="DejaVuSans-32"/>
      </defs>
      <g transform="translate(95.858594 392.598437)scale(0.1 -0.1)">
       <use xlink:href="#DejaVuSans-2212"/>
       <use x="83.789062" xlink:href="#DejaVuSans-30"/>
       <use x="147.412109" xlink:href="#DejaVuSans-2e"/>
       <use x="179.199219" xlink:href="#DejaVuSans-32"/>
      </g>
     </g>
    </g>
    <g id="xtick_2">
     <g id="line2d_2">
      <g>
       <use style="stroke:#000000;stroke-width:0.8;" x="203.657143" xlink:href="#m5c4a0015a0" y="378"/>
      </g>
     </g>
     <g id="text_2">
      <!-- 0.0 -->
      <g transform="translate(195.70558 392.598437)scale(0.1 -0.1)">
       <use xlink:href="#DejaVuSans-30"/>
       <use x="63.623047" xlink:href="#DejaVuSans-2e"/>
       <use x="95.410156" xlink:href="#DejaVuSans-30"/>
      </g>
     </g>
    </g>
    <g id="xtick_3">
     <g id="line2d_3">
      <g>
       <use style="stroke:#000000;stroke-width:0.8;" x="299.314286" xlink:href="#m5c4a0015a0" y="378"/>
      </g>
     </g>
     <g id="text_3">
      <!-- 0.2 -->
      <g transform="translate(291.362723 392.598437)scale(0.1 -0.1)">
       <use xlink:href="#DejaVuSans-30"/>
       <use x="63.623047" xlink:href="#DejaVuSans-2e"/>
       <use x="95.410156" xlink:href="#DejaVuSans-32"/>
      </g>
     </g>
    </g>
    <g id="xtick_4">
     <g id="line2d_4">
      <g>
       <use style="stroke:#000000;stroke-width:0.8;" x="394.971429" xlink:href="#m5c4a0015a0" y="378"/>
      </g>
     </g>
     <g id="text_4">
      <!-- 0.4 -->
      <defs>
       <path d="M 37.796875 64.3125 
L 12.890625 25.390625 
L 37.796875 25.390625 
z
M 35.203125 72.90625 
L 47.609375 72.90625 
L 47.609375 25.390625 
L 58.015625 25.390625 
L 58.015625 17.1875 
L 47.609375 17.1875 
L 47.609375 0 
L 37.796875 0 
L 37.796875 17.1875 
L 4.890625 17.1875 
L 4.890625 26.703125 
z
" id="DejaVuSans-34"/>
      </defs>
      <g transform="translate(387.019866 392.598437)scale(0.1 -0.1)">
       <use xlink:href="#DejaVuSans-30"/>
       <use x="63.623047" xlink:href="#DejaVuSans-2e"/>
       <use x="95.410156" xlink:href="#DejaVuSans-34"/>
      </g>
     </g>
    </g>
    <g id="xtick_5">
     <g id="line2d_5">
      <g>
       <use style="stroke:#000000;stroke-width:0.8;" x="490.628571" xlink:href="#m5c4a0015a0" y="378"/>
      </g>
     </g>
     <g id="text_5">
      <!-- 0.6 -->
      <defs>
       <path d="M 33.015625 40.375 
Q 26.375 40.375 22.484375 35.828125 
Q 18.609375 31.296875 18.609375 23.390625 
Q 18.609375 15.53125 22.484375 10.953125 
Q 26.375 6.390625 33.015625 6.390625 
Q 39.65625 6.390625 43.53125 10.953125 
Q 47.40625 15.53125 47.40625 23.390625 
Q 47.40625 31.296875 43.53125 35.828125 
Q 39.65625 40.375 33.015625 40.375 
z
M 52.59375 71.296875 
L 52.59375 62.3125 
Q 48.875 64.0625 45.09375 64.984375 
Q 41.3125 65.921875 37.59375 65.921875 
Q 27.828125 65.921875 22.671875 59.328125 
Q 17.53125 52.734375 16.796875 39.40625 
Q 19.671875 43.65625 24.015625 45.921875 
Q 28.375 48.1875 33.59375 48.1875 
Q 44.578125 48.1875 50.953125 41.515625 
Q 57.328125 34.859375 57.328125 23.390625 
Q 57.328125 12.15625 50.6875 5.359375 
Q 44.046875 -1.421875 33.015625 -1.421875 
Q 20.359375 -1.421875 13.671875 8.265625 
Q 6.984375 17.96875 6.984375 36.375 
Q 6.984375 53.65625 15.1875 63.9375 
Q 23.390625 74.21875 37.203125 74.21875 
Q 40.921875 74.21875 44.703125 73.484375 
Q 48.484375 72.75 52.59375 71.296875 
z
" id="DejaVuSans-36"/>
      </defs>
      <g transform="translate(482.677009 392.598437)scale(0.1 -0.1)">
       <use xlink:href="#DejaVuSans-30"/>
       <use x="63.623047" xlink:href="#DejaVuSans-2e"/>
       <use x="95.410156" xlink:href="#DejaVuSans-36"/>
      </g>
     </g>
    </g>
    <g id="xtick_6">
     <g id="line2d_6">
      <g>
       <use style="stroke:#000000;stroke-width:0.8;" x="586.285714" xlink:href="#m5c4a0015a0" y="378"/>
      </g>
     </g>
     <g id="text_6">
      <!-- 0.8 -->
      <defs>
       <path d="M 31.78125 34.625 
Q 24.75 34.625 20.71875 30.859375 
Q 16.703125 27.09375 16.703125 20.515625 
Q 16.703125 13.921875 20.71875 10.15625 
Q 24.75 6.390625 31.78125 6.390625 
Q 38.8125 6.390625 42.859375 10.171875 
Q 46.921875 13.96875 46.921875 20.515625 
Q 46.921875 27.09375 42.890625 30.859375 
Q 38.875 34.625 31.78125 34.625 
z
M 21.921875 38.8125 
Q 15.578125 40.375 12.03125 44.71875 
Q 8.5 49.078125 8.5 55.328125 
Q 8.5 64.0625 14.71875 69.140625 
Q 20.953125 74.21875 31.78125 74.21875 
Q 42.671875 74.21875 48.875 69.140625 
Q 55.078125 64.0625 55.078125 55.328125 
Q 55.078125 49.078125 51.53125 44.71875 
Q 48 40.375 41.703125 38.8125 
Q 48.828125 37.15625 52.796875 32.3125 
Q 56.78125 27.484375 56.78125 20.515625 
Q 56.78125 9.90625 50.3125 4.234375 
Q 43.84375 -1.421875 31.78125 -1.421875 
Q 19.734375 -1.421875 13.25 4.234375 
Q 6.78125 9.90625 6.78125 20.515625 
Q 6.78125 27.484375 10.78125 32.3125 
Q 14.796875 37.15625 21.921875 38.8125 
z
M 18.3125 54.390625 
Q 18.3125 48.734375 21.84375 45.5625 
Q 25.390625 42.390625 31.78125 42.390625 
Q 38.140625 42.390625 41.71875 45.5625 
Q 45.3125 48.734375 45.3125 54.390625 
Q 45.3125 60.0625 41.71875 63.234375 
Q 38.140625 66.40625 31.78125 66.40625 
Q 25.390625 66.40625 21.84375 63.234375 
Q 18.3125 60.0625 18.3125 54.390625 
z
" id="DejaVuSans-38"/>
      </defs>
      <g transform="translate(578.334152 392.598437)scale(0.1 -0.1)">
       <use xlink:href="#DejaVuSans-30"/>
       <use x="63.623047" xlink:href="#DejaVuSans-2e"/>
       <use x="95.410156" xlink:href="#DejaVuSans-38"/>
      </g>
     </g>
    </g>
    <g id="xtick_7">
     <g id="line2d_7">
      <g>
       <use style="stroke:#000000;stroke-width:0.8;" x="681.942857" xlink:href="#m5c4a0015a0" y="378"/>
      </g>
     </g>
     <g id="text_7">
      <!-- 1.0 -->
      <defs>
       <path d="M 12.40625 8.296875 
L 28.515625 8.296875 
L 28.515625 63.921875 
L 10.984375 60.40625 
L 10.984375 69.390625 
L 28.421875 72.90625 
L 38.28125 72.90625 
L 38.28125 8.296875 
L 54.390625 8.296875 
L 54.390625 0 
L 12.40625 0 
z
" id="DejaVuSans-31"/>
      </defs>
      <g transform="translate(673.991295 392.598437)scale(0.1 -0.1)">
       <use xlink:href="#DejaVuSans-31"/>
       <use x="63.623047" xlink:href="#DejaVuSans-2e"/>
       <use x="95.410156" xlink:href="#DejaVuSans-30"/>
      </g>
     </g>
    </g>
    <g id="xtick_8">
     <g id="line2d_8">
      <g>
       <use style="stroke:#000000;stroke-width:0.8;" x="777.6" xlink:href="#m5c4a0015a0" y="378"/>
      </g>
     </g>
     <g id="text_8">
      <!-- 1.2 -->
      <g transform="translate(769.648438 392.598437)scale(0.1 -0.1)">
       <use xlink:href="#DejaVuSans-31"/>
       <use x="63.623047" xlink:href="#DejaVuSans-2e"/>
       <use x="95.410156" xlink:href="#DejaVuSans-32"/>
      </g>
     </g>
    </g>
    <g id="text_9">
     <!-- time -->
     <defs>
      <path d="M 18.3125 70.21875 
L 18.3125 54.6875 
L 36.8125 54.6875 
L 36.8125 47.703125 
L 18.3125 47.703125 
L 18.3125 18.015625 
Q 18.3125 11.328125 20.140625 9.421875 
Q 21.96875 7.515625 27.59375 7.515625 
L 36.8125 7.515625 
L 36.8125 0 
L 27.59375 0 
Q 17.1875 0 13.234375 3.875 
Q 9.28125 7.765625 9.28125 18.015625 
L 9.28125 47.703125 
L 2.6875 47.703125 
L 2.6875 54.6875 
L 9.28125 54.6875 
L 9.28125 70.21875 
z
" id="DejaVuSans-74"/>
      <path d="M 9.421875 54.6875 
L 18.40625 54.6875 
L 18.40625 0 
L 9.421875 0 
z
M 9.421875 75.984375 
L 18.40625 75.984375 
L 18.40625 64.59375 
L 9.421875 64.59375 
z
" id="DejaVuSans-69"/>
      <path d="M 52 44.1875 
Q 55.375 50.25 60.0625 53.125 
Q 64.75 56 71.09375 56 
Q 79.640625 56 84.28125 50.015625 
Q 88.921875 44.046875 88.921875 33.015625 
L 88.921875 0 
L 79.890625 0 
L 79.890625 32.71875 
Q 79.890625 40.578125 77.09375 44.375 
Q 74.3125 48.1875 68.609375 48.1875 
Q 61.625 48.1875 57.5625 43.546875 
Q 53.515625 38.921875 53.515625 30.90625 
L 53.515625 0 
L 44.484375 0 
L 44.484375 32.71875 
Q 44.484375 40.625 41.703125 44.40625 
Q 38.921875 48.1875 33.109375 48.1875 
Q 26.21875 48.1875 22.15625 43.53125 
Q 18.109375 38.875 18.109375 30.90625 
L 18.109375 0 
L 9.078125 0 
L 9.078125 54.6875 
L 18.109375 54.6875 
L 18.109375 46.1875 
Q 21.1875 51.21875 25.484375 53.609375 
Q 29.78125 56 35.6875 56 
Q 41.65625 56 45.828125 52.96875 
Q 50 49.953125 52 44.1875 
z
" id="DejaVuSans-6d"/>
      <path d="M 56.203125 29.59375 
L 56.203125 25.203125 
L 14.890625 25.203125 
Q 15.484375 15.921875 20.484375 11.0625 
Q 25.484375 6.203125 34.421875 6.203125 
Q 39.59375 6.203125 44.453125 7.46875 
Q 49.3125 8.734375 54.109375 11.28125 
L 54.109375 2.78125 
Q 49.265625 0.734375 44.1875 -0.34375 
Q 39.109375 -1.421875 33.890625 -1.421875 
Q 20.796875 -1.421875 13.15625 6.1875 
Q 5.515625 13.8125 5.515625 26.8125 
Q 5.515625 40.234375 12.765625 48.109375 
Q 20.015625 56 32.328125 56 
Q 43.359375 56 49.78125 48.890625 
Q 56.203125 41.796875 56.203125 29.59375 
z
M 47.21875 32.234375 
Q 47.125 39.59375 43.09375 43.984375 
Q 39.0625 48.390625 32.421875 48.390625 
Q 24.90625 48.390625 20.390625 44.140625 
Q 15.875 39.890625 15.1875 32.171875 
z
" id="DejaVuSans-65"/>
     </defs>
     <g transform="translate(420.207812 413.875)scale(0.2 -0.2)">
      <use xlink:href="#DejaVuSans-74"/>
      <use x="39.208984" xlink:href="#DejaVuSans-69"/>
      <use x="66.992188" xlink:href="#DejaVuSans-6d"/>
      <use x="164.404297" xlink:href="#DejaVuSans-65"/>
     </g>
    </g>
   </g>
   <g id="matplotlib.axis_2">
    <g id="ytick_1">
     <g id="line2d_9">
      <defs>
       <path d="M 0 0 
L -3.5 0 
" id="me5a173cca7" style="stroke:#000000;stroke-width:0.8;"/>
      </defs>
      <g>
       <use style="stroke:#000000;stroke-width:0.8;" x="108" xlink:href="#me5a173cca7" y="365.455385"/>
      </g>
     </g>
     <g id="text_10">
      <!-- −0.5 -->
      <defs>
       <path d="M 10.796875 72.90625 
L 49.515625 72.90625 
L 49.515625 64.59375 
L 19.828125 64.59375 
L 19.828125 46.734375 
Q 21.96875 47.46875 24.109375 47.828125 
Q 26.265625 48.1875 28.421875 48.1875 
Q 40.625 48.1875 47.75 41.5 
Q 54.890625 34.8125 54.890625 23.390625 
Q 54.890625 11.625 47.5625 5.09375 
Q 40.234375 -1.421875 26.90625 -1.421875 
Q 22.3125 -1.421875 17.546875 -0.640625 
Q 12.796875 0.140625 7.71875 1.703125 
L 7.71875 11.625 
Q 12.109375 9.234375 16.796875 8.0625 
Q 21.484375 6.890625 26.703125 6.890625 
Q 35.15625 6.890625 40.078125 11.328125 
Q 45.015625 15.765625 45.015625 23.390625 
Q 45.015625 31 40.078125 35.4375 
Q 35.15625 39.890625 26.703125 39.890625 
Q 22.75 39.890625 18.8125 39.015625 
Q 14.890625 38.140625 10.796875 36.28125 
z
" id="DejaVuSans-35"/>
      </defs>
      <g transform="translate(76.717187 369.254603)scale(0.1 -0.1)">
       <use xlink:href="#DejaVuSans-2212"/>
       <use x="83.789062" xlink:href="#DejaVuSans-30"/>
       <use x="147.412109" xlink:href="#DejaVuSans-2e"/>
       <use x="179.199219" xlink:href="#DejaVuSans-35"/>
      </g>
     </g>
    </g>
    <g id="ytick_2">
     <g id="line2d_10">
      <g>
       <use style="stroke:#000000;stroke-width:0.8;" x="108" xlink:href="#me5a173cca7" y="302.732308"/>
      </g>
     </g>
     <g id="text_11">
      <!-- 0.0 -->
      <g transform="translate(85.096875 306.531526)scale(0.1 -0.1)">
       <use xlink:href="#DejaVuSans-30"/>
       <use x="63.623047" xlink:href="#DejaVuSans-2e"/>
       <use x="95.410156" xlink:href="#DejaVuSans-30"/>
      </g>
     </g>
    </g>
    <g id="ytick_3">
     <g id="line2d_11">
      <g>
       <use style="stroke:#000000;stroke-width:0.8;" x="108" xlink:href="#me5a173cca7" y="240.009231"/>
      </g>
     </g>
     <g id="text_12">
      <!-- 0.5 -->
      <g transform="translate(85.096875 243.80845)scale(0.1 -0.1)">
       <use xlink:href="#DejaVuSans-30"/>
       <use x="63.623047" xlink:href="#DejaVuSans-2e"/>
       <use x="95.410156" xlink:href="#DejaVuSans-35"/>
      </g>
     </g>
    </g>
    <g id="ytick_4">
     <g id="line2d_12">
      <g>
       <use style="stroke:#000000;stroke-width:0.8;" x="108" xlink:href="#me5a173cca7" y="177.286154"/>
      </g>
     </g>
     <g id="text_13">
      <!-- 1.0 -->
      <g transform="translate(85.096875 181.085373)scale(0.1 -0.1)">
       <use xlink:href="#DejaVuSans-31"/>
       <use x="63.623047" xlink:href="#DejaVuSans-2e"/>
       <use x="95.410156" xlink:href="#DejaVuSans-30"/>
      </g>
     </g>
    </g>
    <g id="ytick_5">
     <g id="line2d_13">
      <g>
       <use style="stroke:#000000;stroke-width:0.8;" x="108" xlink:href="#me5a173cca7" y="114.563077"/>
      </g>
     </g>
     <g id="text_14">
      <!-- 1.5 -->
      <g transform="translate(85.096875 118.362296)scale(0.1 -0.1)">
       <use xlink:href="#DejaVuSans-31"/>
       <use x="63.623047" xlink:href="#DejaVuSans-2e"/>
       <use x="95.410156" xlink:href="#DejaVuSans-35"/>
      </g>
     </g>
    </g>
    <g id="ytick_6">
     <g id="line2d_14">
      <g>
       <use style="stroke:#000000;stroke-width:0.8;" x="108" xlink:href="#me5a173cca7" y="51.84"/>
      </g>
     </g>
     <g id="text_15">
      <!-- 2.0 -->
      <g transform="translate(85.096875 55.639219)scale(0.1 -0.1)">
       <use xlink:href="#DejaVuSans-32"/>
       <use x="63.623047" xlink:href="#DejaVuSans-2e"/>
       <use x="95.410156" xlink:href="#DejaVuSans-30"/>
      </g>
     </g>
    </g>
    <g id="text_16">
     <!-- signal strength -->
     <defs>
      <path d="M 44.28125 53.078125 
L 44.28125 44.578125 
Q 40.484375 46.53125 36.375 47.5 
Q 32.28125 48.484375 27.875 48.484375 
Q 21.1875 48.484375 17.84375 46.4375 
Q 14.5 44.390625 14.5 40.28125 
Q 14.5 37.15625 16.890625 35.375 
Q 19.28125 33.59375 26.515625 31.984375 
L 29.59375 31.296875 
Q 39.15625 29.25 43.1875 25.515625 
Q 47.21875 21.78125 47.21875 15.09375 
Q 47.21875 7.46875 41.1875 3.015625 
Q 35.15625 -1.421875 24.609375 -1.421875 
Q 20.21875 -1.421875 15.453125 -0.5625 
Q 10.6875 0.296875 5.421875 2 
L 5.421875 11.28125 
Q 10.40625 8.6875 15.234375 7.390625 
Q 20.0625 6.109375 24.8125 6.109375 
Q 31.15625 6.109375 34.5625 8.28125 
Q 37.984375 10.453125 37.984375 14.40625 
Q 37.984375 18.0625 35.515625 20.015625 
Q 33.0625 21.96875 24.703125 23.78125 
L 21.578125 24.515625 
Q 13.234375 26.265625 9.515625 29.90625 
Q 5.8125 33.546875 5.8125 39.890625 
Q 5.8125 47.609375 11.28125 51.796875 
Q 16.75 56 26.8125 56 
Q 31.78125 56 36.171875 55.265625 
Q 40.578125 54.546875 44.28125 53.078125 
z
" id="DejaVuSans-73"/>
      <path d="M 45.40625 27.984375 
Q 45.40625 37.75 41.375 43.109375 
Q 37.359375 48.484375 30.078125 48.484375 
Q 22.859375 48.484375 18.828125 43.109375 
Q 14.796875 37.75 14.796875 27.984375 
Q 14.796875 18.265625 18.828125 12.890625 
Q 22.859375 7.515625 30.078125 7.515625 
Q 37.359375 7.515625 41.375 12.890625 
Q 45.40625 18.265625 45.40625 27.984375 
z
M 54.390625 6.78125 
Q 54.390625 -7.171875 48.1875 -13.984375 
Q 42 -20.796875 29.203125 -20.796875 
Q 24.46875 -20.796875 20.265625 -20.09375 
Q 16.0625 -19.390625 12.109375 -17.921875 
L 12.109375 -9.1875 
Q 16.0625 -11.328125 19.921875 -12.34375 
Q 23.78125 -13.375 27.78125 -13.375 
Q 36.625 -13.375 41.015625 -8.765625 
Q 45.40625 -4.15625 45.40625 5.171875 
L 45.40625 9.625 
Q 42.625 4.78125 38.28125 2.390625 
Q 33.9375 0 27.875 0 
Q 17.828125 0 11.671875 7.65625 
Q 5.515625 15.328125 5.515625 27.984375 
Q 5.515625 40.671875 11.671875 48.328125 
Q 17.828125 56 27.875 56 
Q 33.9375 56 38.28125 53.609375 
Q 42.625 51.21875 45.40625 46.390625 
L 45.40625 54.6875 
L 54.390625 54.6875 
z
" id="DejaVuSans-67"/>
      <path d="M 54.890625 33.015625 
L 54.890625 0 
L 45.90625 0 
L 45.90625 32.71875 
Q 45.90625 40.484375 42.875 44.328125 
Q 39.84375 48.1875 33.796875 48.1875 
Q 26.515625 48.1875 22.3125 43.546875 
Q 18.109375 38.921875 18.109375 30.90625 
L 18.109375 0 
L 9.078125 0 
L 9.078125 54.6875 
L 18.109375 54.6875 
L 18.109375 46.1875 
Q 21.34375 51.125 25.703125 53.5625 
Q 30.078125 56 35.796875 56 
Q 45.21875 56 50.046875 50.171875 
Q 54.890625 44.34375 54.890625 33.015625 
z
" id="DejaVuSans-6e"/>
      <path d="M 34.28125 27.484375 
Q 23.390625 27.484375 19.1875 25 
Q 14.984375 22.515625 14.984375 16.5 
Q 14.984375 11.71875 18.140625 8.90625 
Q 21.296875 6.109375 26.703125 6.109375 
Q 34.1875 6.109375 38.703125 11.40625 
Q 43.21875 16.703125 43.21875 25.484375 
L 43.21875 27.484375 
z
M 52.203125 31.203125 
L 52.203125 0 
L 43.21875 0 
L 43.21875 8.296875 
Q 40.140625 3.328125 35.546875 0.953125 
Q 30.953125 -1.421875 24.3125 -1.421875 
Q 15.921875 -1.421875 10.953125 3.296875 
Q 6 8.015625 6 15.921875 
Q 6 25.140625 12.171875 29.828125 
Q 18.359375 34.515625 30.609375 34.515625 
L 43.21875 34.515625 
L 43.21875 35.40625 
Q 43.21875 41.609375 39.140625 45 
Q 35.0625 48.390625 27.6875 48.390625 
Q 23 48.390625 18.546875 47.265625 
Q 14.109375 46.140625 10.015625 43.890625 
L 10.015625 52.203125 
Q 14.9375 54.109375 19.578125 55.046875 
Q 24.21875 56 28.609375 56 
Q 40.484375 56 46.34375 49.84375 
Q 52.203125 43.703125 52.203125 31.203125 
z
" id="DejaVuSans-61"/>
      <path d="M 9.421875 75.984375 
L 18.40625 75.984375 
L 18.40625 0 
L 9.421875 0 
z
" id="DejaVuSans-6c"/>
      <path id="DejaVuSans-20"/>
      <path d="M 41.109375 46.296875 
Q 39.59375 47.171875 37.8125 47.578125 
Q 36.03125 48 33.890625 48 
Q 26.265625 48 22.1875 43.046875 
Q 18.109375 38.09375 18.109375 28.8125 
L 18.109375 0 
L 9.078125 0 
L 9.078125 54.6875 
L 18.109375 54.6875 
L 18.109375 46.1875 
Q 20.953125 51.171875 25.484375 53.578125 
Q 30.03125 56 36.53125 56 
Q 37.453125 56 38.578125 55.875 
Q 39.703125 55.765625 41.0625 55.515625 
z
" id="DejaVuSans-72"/>
      <path d="M 54.890625 33.015625 
L 54.890625 0 
L 45.90625 0 
L 45.90625 32.71875 
Q 45.90625 40.484375 42.875 44.328125 
Q 39.84375 48.1875 33.796875 48.1875 
Q 26.515625 48.1875 22.3125 43.546875 
Q 18.109375 38.921875 18.109375 30.90625 
L 18.109375 0 
L 9.078125 0 
L 9.078125 75.984375 
L 18.109375 75.984375 
L 18.109375 46.1875 
Q 21.34375 51.125 25.703125 53.5625 
Q 30.078125 56 35.796875 56 
Q 45.21875 56 50.046875 50.171875 
Q 54.890625 44.34375 54.890625 33.015625 
z
" id="DejaVuSans-68"/>
     </defs>
     <g transform="translate(68.557812 290.012187)rotate(-90)scale(0.2 -0.2)">
      <use xlink:href="#DejaVuSans-73"/>
      <use x="52.099609" xlink:href="#DejaVuSans-69"/>
      <use x="79.882812" xlink:href="#DejaVuSans-67"/>
      <use x="143.359375" xlink:href="#DejaVuSans-6e"/>
      <use x="206.738281" xlink:href="#DejaVuSans-61"/>
      <use x="268.017578" xlink:href="#DejaVuSans-6c"/>
      <use x="295.800781" xlink:href="#DejaVuSans-20"/>
      <use x="327.587891" xlink:href="#DejaVuSans-73"/>
      <use x="379.6875" xlink:href="#DejaVuSans-74"/>
      <use x="418.896484" xlink:href="#DejaVuSans-72"/>
      <use x="459.978516" xlink:href="#DejaVuSans-65"/>
      <use x="521.501953" xlink:href="#DejaVuSans-6e"/>
      <use x="584.880859" xlink:href="#DejaVuSans-67"/>
      <use x="648.357422" xlink:href="#DejaVuSans-74"/>
      <use x="687.566406" xlink:href="#DejaVuSans-68"/>
     </g>
    </g>
   </g>
   <g id="line2d_15">
    <defs>
     <path d="M 0 2.5 
C 0.663008 2.5 1.29895 2.236584 1.767767 1.767767 
C 2.236584 1.29895 2.5 0.663008 2.5 0 
C 2.5 -0.663008 2.236584 -1.29895 1.767767 -1.767767 
C 1.29895 -2.236584 0.663008 -2.5 0 -2.5 
C -0.663008 -2.5 -1.29895 -2.236584 -1.767767 -1.767767 
C -2.236584 -1.29895 -2.5 -0.663008 -2.5 0 
C -2.5 0.663008 -2.236584 1.29895 -1.767767 1.767767 
C -1.29895 2.236584 -0.663008 2.5 0 2.5 
z
" id="mb1be71b84d" style="stroke:#ff0000;"/>
    </defs>
    <g clip-path="url(#pc76d637e13)">
     <use style="fill:#ff0000;stroke:#ff0000;" x="203.657143" xlink:href="#mb1be71b84d" y="153.514808"/>
     <use style="fill:#ff0000;stroke:#ff0000;" x="205.892123" xlink:href="#mb1be71b84d" y="153.514808"/>
     <use style="fill:#ff0000;stroke:#ff0000;" x="208.127103" xlink:href="#mb1be71b84d" y="153.514808"/>
     <use style="fill:#ff0000;stroke:#ff0000;" x="210.362083" xlink:href="#mb1be71b84d" y="153.514808"/>
     <use style="fill:#ff0000;stroke:#ff0000;" x="212.597063" xlink:href="#mb1be71b84d" y="159.97011"/>
     <use style="fill:#ff0000;stroke:#ff0000;" x="214.832043" xlink:href="#mb1be71b84d" y="166.425412"/>
     <use style="fill:#ff0000;stroke:#ff0000;" x="217.067023" xlink:href="#mb1be71b84d" y="172.880715"/>
     <use style="fill:#ff0000;stroke:#ff0000;" x="219.302003" xlink:href="#mb1be71b84d" y="159.97011"/>
     <use style="fill:#ff0000;stroke:#ff0000;" x="221.536983" xlink:href="#mb1be71b84d" y="166.425412"/>
     <use style="fill:#ff0000;stroke:#ff0000;" x="223.771963" xlink:href="#mb1be71b84d" y="172.880715"/>
     <use style="fill:#ff0000;stroke:#ff0000;" x="226.006943" xlink:href="#mb1be71b84d" y="172.880715"/>
     <use style="fill:#ff0000;stroke:#ff0000;" x="228.241923" xlink:href="#mb1be71b84d" y="172.880715"/>
     <use style="fill:#ff0000;stroke:#ff0000;" x="230.476903" xlink:href="#mb1be71b84d" y="172.880715"/>
     <use style="fill:#ff0000;stroke:#ff0000;" x="232.711883" xlink:href="#mb1be71b84d" y="166.425412"/>
     <use style="fill:#ff0000;stroke:#ff0000;" x="234.946862" xlink:href="#mb1be71b84d" y="192.246622"/>
     <use style="fill:#ff0000;stroke:#ff0000;" x="237.181842" xlink:href="#mb1be71b84d" y="192.246622"/>
     <use style="fill:#ff0000;stroke:#ff0000;" x="239.416822" xlink:href="#mb1be71b84d" y="185.791319"/>
     <use style="fill:#ff0000;stroke:#ff0000;" x="241.651802" xlink:href="#mb1be71b84d" y="172.880715"/>
     <use style="fill:#ff0000;stroke:#ff0000;" x="243.886782" xlink:href="#mb1be71b84d" y="179.336017"/>
     <use style="fill:#ff0000;stroke:#ff0000;" x="246.121762" xlink:href="#mb1be71b84d" y="192.246622"/>
     <use style="fill:#ff0000;stroke:#ff0000;" x="248.356742" xlink:href="#mb1be71b84d" y="172.880715"/>
     <use style="fill:#ff0000;stroke:#ff0000;" x="250.591722" xlink:href="#mb1be71b84d" y="166.425412"/>
     <use style="fill:#ff0000;stroke:#ff0000;" x="252.826702" xlink:href="#mb1be71b84d" y="153.514808"/>
     <use style="fill:#ff0000;stroke:#ff0000;" x="255.061682" xlink:href="#mb1be71b84d" y="153.514808"/>
     <use style="fill:#ff0000;stroke:#ff0000;" x="257.296662" xlink:href="#mb1be71b84d" y="159.97011"/>
     <use style="fill:#ff0000;stroke:#ff0000;" x="259.531642" xlink:href="#mb1be71b84d" y="159.97011"/>
     <use style="fill:#ff0000;stroke:#ff0000;" x="261.766622" xlink:href="#mb1be71b84d" y="179.336017"/>
     <use style="fill:#ff0000;stroke:#ff0000;" x="264.001602" xlink:href="#mb1be71b84d" y="172.880715"/>
     <use style="fill:#ff0000;stroke:#ff0000;" x="266.236582" xlink:href="#mb1be71b84d" y="134.148901"/>
     <use style="fill:#ff0000;stroke:#ff0000;" x="268.471562" xlink:href="#mb1be71b84d" y="153.514808"/>
     <use style="fill:#ff0000;stroke:#ff0000;" x="270.706542" xlink:href="#mb1be71b84d" y="153.514808"/>
     <use style="fill:#ff0000;stroke:#ff0000;" x="272.941522" xlink:href="#mb1be71b84d" y="166.425412"/>
     <use style="fill:#ff0000;stroke:#ff0000;" x="275.176502" xlink:href="#mb1be71b84d" y="172.880715"/>
     <use style="fill:#ff0000;stroke:#ff0000;" x="277.411482" xlink:href="#mb1be71b84d" y="166.425412"/>
     <use style="fill:#ff0000;stroke:#ff0000;" x="279.646462" xlink:href="#mb1be71b84d" y="140.604203"/>
     <use style="fill:#ff0000;stroke:#ff0000;" x="281.881442" xlink:href="#mb1be71b84d" y="134.148901"/>
     <use style="fill:#ff0000;stroke:#ff0000;" x="284.116422" xlink:href="#mb1be71b84d" y="140.604203"/>
     <use style="fill:#ff0000;stroke:#ff0000;" x="286.351402" xlink:href="#mb1be71b84d" y="140.604203"/>
     <use style="fill:#ff0000;stroke:#ff0000;" x="288.586382" xlink:href="#mb1be71b84d" y="134.148901"/>
     <use style="fill:#ff0000;stroke:#ff0000;" x="290.821362" xlink:href="#mb1be71b84d" y="140.604203"/>
     <use style="fill:#ff0000;stroke:#ff0000;" x="293.056342" xlink:href="#mb1be71b84d" y="121.238296"/>
     <use style="fill:#ff0000;stroke:#ff0000;" x="295.291322" xlink:href="#mb1be71b84d" y="140.604203"/>
     <use style="fill:#ff0000;stroke:#ff0000;" x="297.526302" xlink:href="#mb1be71b84d" y="172.880715"/>
     <use style="fill:#ff0000;stroke:#ff0000;" x="299.761282" xlink:href="#mb1be71b84d" y="179.336017"/>
     <use style="fill:#ff0000;stroke:#ff0000;" x="301.996262" xlink:href="#mb1be71b84d" y="172.880715"/>
     <use style="fill:#ff0000;stroke:#ff0000;" x="304.231242" xlink:href="#mb1be71b84d" y="140.604203"/>
     <use style="fill:#ff0000;stroke:#ff0000;" x="306.466222" xlink:href="#mb1be71b84d" y="185.791319"/>
     <use style="fill:#ff0000;stroke:#ff0000;" x="308.701202" xlink:href="#mb1be71b84d" y="211.612529"/>
     <use style="fill:#ff0000;stroke:#ff0000;" x="310.936182" xlink:href="#mb1be71b84d" y="185.791319"/>
     <use style="fill:#ff0000;stroke:#ff0000;" x="313.171162" xlink:href="#mb1be71b84d" y="192.246622"/>
     <use style="fill:#ff0000;stroke:#ff0000;" x="315.406142" xlink:href="#mb1be71b84d" y="237.433738"/>
     <use style="fill:#ff0000;stroke:#ff0000;" x="317.641121" xlink:href="#mb1be71b84d" y="198.701924"/>
     <use style="fill:#ff0000;stroke:#ff0000;" x="319.876101" xlink:href="#mb1be71b84d" y="198.701924"/>
     <use style="fill:#ff0000;stroke:#ff0000;" x="322.111081" xlink:href="#mb1be71b84d" y="205.157227"/>
     <use style="fill:#ff0000;stroke:#ff0000;" x="324.346061" xlink:href="#mb1be71b84d" y="211.612529"/>
     <use style="fill:#ff0000;stroke:#ff0000;" x="326.581041" xlink:href="#mb1be71b84d" y="205.157227"/>
     <use style="fill:#ff0000;stroke:#ff0000;" x="328.816021" xlink:href="#mb1be71b84d" y="224.523134"/>
     <use style="fill:#ff0000;stroke:#ff0000;" x="331.051001" xlink:href="#mb1be71b84d" y="211.612529"/>
     <use style="fill:#ff0000;stroke:#ff0000;" x="333.285981" xlink:href="#mb1be71b84d" y="205.157227"/>
     <use style="fill:#ff0000;stroke:#ff0000;" x="335.520961" xlink:href="#mb1be71b84d" y="230.978436"/>
     <use style="fill:#ff0000;stroke:#ff0000;" x="337.755941" xlink:href="#mb1be71b84d" y="211.612529"/>
     <use style="fill:#ff0000;stroke:#ff0000;" x="339.990921" xlink:href="#mb1be71b84d" y="205.157227"/>
     <use style="fill:#ff0000;stroke:#ff0000;" x="342.225901" xlink:href="#mb1be71b84d" y="218.067831"/>
     <use style="fill:#ff0000;stroke:#ff0000;" x="344.460881" xlink:href="#mb1be71b84d" y="224.523134"/>
     <use style="fill:#ff0000;stroke:#ff0000;" x="346.695861" xlink:href="#mb1be71b84d" y="218.067831"/>
     <use style="fill:#ff0000;stroke:#ff0000;" x="348.930841" xlink:href="#mb1be71b84d" y="237.433738"/>
     <use style="fill:#ff0000;stroke:#ff0000;" x="351.165821" xlink:href="#mb1be71b84d" y="334.263274"/>
     <use style="fill:#ff0000;stroke:#ff0000;" x="353.400801" xlink:href="#mb1be71b84d" y="334.263274"/>
     <use style="fill:#ff0000;stroke:#ff0000;" x="355.635781" xlink:href="#mb1be71b84d" y="334.263274"/>
     <use style="fill:#ff0000;stroke:#ff0000;" x="357.870761" xlink:href="#mb1be71b84d" y="250.344343"/>
     <use style="fill:#ff0000;stroke:#ff0000;" x="360.105741" xlink:href="#mb1be71b84d" y="237.433738"/>
     <use style="fill:#ff0000;stroke:#ff0000;" x="362.340721" xlink:href="#mb1be71b84d" y="237.433738"/>
     <use style="fill:#ff0000;stroke:#ff0000;" x="364.575701" xlink:href="#mb1be71b84d" y="230.978436"/>
     <use style="fill:#ff0000;stroke:#ff0000;" x="366.810681" xlink:href="#mb1be71b84d" y="276.165553"/>
     <use style="fill:#ff0000;stroke:#ff0000;" x="369.045661" xlink:href="#mb1be71b84d" y="276.165553"/>
     <use style="fill:#ff0000;stroke:#ff0000;" x="371.280641" xlink:href="#mb1be71b84d" y="276.165553"/>
     <use style="fill:#ff0000;stroke:#ff0000;" x="373.515621" xlink:href="#mb1be71b84d" y="276.165553"/>
     <use style="fill:#ff0000;stroke:#ff0000;" x="375.750601" xlink:href="#mb1be71b84d" y="347.173879"/>
     <use style="fill:#ff0000;stroke:#ff0000;" x="377.985581" xlink:href="#mb1be71b84d" y="347.173879"/>
     <use style="fill:#ff0000;stroke:#ff0000;" x="380.220561" xlink:href="#mb1be71b84d" y="347.173879"/>
     <use style="fill:#ff0000;stroke:#ff0000;" x="382.455541" xlink:href="#mb1be71b84d" y="347.173879"/>
     <use style="fill:#ff0000;stroke:#ff0000;" x="384.690521" xlink:href="#mb1be71b84d" y="347.173879"/>
     <use style="fill:#ff0000;stroke:#ff0000;" x="386.925501" xlink:href="#mb1be71b84d" y="347.173879"/>
     <use style="fill:#ff0000;stroke:#ff0000;" x="389.160481" xlink:href="#mb1be71b84d" y="347.173879"/>
     <use style="fill:#ff0000;stroke:#ff0000;" x="391.395461" xlink:href="#mb1be71b84d" y="347.173879"/>
     <use style="fill:#ff0000;stroke:#ff0000;" x="393.630441" xlink:href="#mb1be71b84d" y="347.173879"/>
     <use style="fill:#ff0000;stroke:#ff0000;" x="395.865421" xlink:href="#mb1be71b84d" y="347.173879"/>
     <use style="fill:#ff0000;stroke:#ff0000;" x="398.100401" xlink:href="#mb1be71b84d" y="347.173879"/>
     <use style="fill:#ff0000;stroke:#ff0000;" x="400.335381" xlink:href="#mb1be71b84d" y="347.173879"/>
     <use style="fill:#ff0000;stroke:#ff0000;" x="402.57036" xlink:href="#mb1be71b84d" y="347.173879"/>
     <use style="fill:#ff0000;stroke:#ff0000;" x="404.80534" xlink:href="#mb1be71b84d" y="347.173879"/>
     <use style="fill:#ff0000;stroke:#ff0000;" x="407.04032" xlink:href="#mb1be71b84d" y="347.173879"/>
     <use style="fill:#ff0000;stroke:#ff0000;" x="409.2753" xlink:href="#mb1be71b84d" y="347.173879"/>
     <use style="fill:#ff0000;stroke:#ff0000;" x="411.51028" xlink:href="#mb1be71b84d" y="347.173879"/>
     <use style="fill:#ff0000;stroke:#ff0000;" x="413.74526" xlink:href="#mb1be71b84d" y="347.173879"/>
     <use style="fill:#ff0000;stroke:#ff0000;" x="415.98024" xlink:href="#mb1be71b84d" y="347.173879"/>
     <use style="fill:#ff0000;stroke:#ff0000;" x="418.21522" xlink:href="#mb1be71b84d" y="347.173879"/>
     <use style="fill:#ff0000;stroke:#ff0000;" x="420.4502" xlink:href="#mb1be71b84d" y="347.173879"/>
     <use style="fill:#ff0000;stroke:#ff0000;" x="422.68518" xlink:href="#mb1be71b84d" y="347.173879"/>
     <use style="fill:#ff0000;stroke:#ff0000;" x="424.92016" xlink:href="#mb1be71b84d" y="347.173879"/>
     <use style="fill:#ff0000;stroke:#ff0000;" x="427.15514" xlink:href="#mb1be71b84d" y="347.173879"/>
     <use style="fill:#ff0000;stroke:#ff0000;" x="429.39012" xlink:href="#mb1be71b84d" y="347.173879"/>
     <use style="fill:#ff0000;stroke:#ff0000;" x="431.6251" xlink:href="#mb1be71b84d" y="347.173879"/>
     <use style="fill:#ff0000;stroke:#ff0000;" x="433.86008" xlink:href="#mb1be71b84d" y="347.173879"/>
     <use style="fill:#ff0000;stroke:#ff0000;" x="436.09506" xlink:href="#mb1be71b84d" y="347.173879"/>
     <use style="fill:#ff0000;stroke:#ff0000;" x="438.33004" xlink:href="#mb1be71b84d" y="347.173879"/>
     <use style="fill:#ff0000;stroke:#ff0000;" x="440.56502" xlink:href="#mb1be71b84d" y="347.173879"/>
     <use style="fill:#ff0000;stroke:#ff0000;" x="442.8" xlink:href="#mb1be71b84d" y="347.173879"/>
     <use style="fill:#ff0000;stroke:#ff0000;" x="445.03498" xlink:href="#mb1be71b84d" y="347.173879"/>
     <use style="fill:#ff0000;stroke:#ff0000;" x="447.26996" xlink:href="#mb1be71b84d" y="347.173879"/>
     <use style="fill:#ff0000;stroke:#ff0000;" x="449.50494" xlink:href="#mb1be71b84d" y="347.173879"/>
     <use style="fill:#ff0000;stroke:#ff0000;" x="451.73992" xlink:href="#mb1be71b84d" y="347.173879"/>
     <use style="fill:#ff0000;stroke:#ff0000;" x="453.9749" xlink:href="#mb1be71b84d" y="347.173879"/>
     <use style="fill:#ff0000;stroke:#ff0000;" x="456.20988" xlink:href="#mb1be71b84d" y="347.173879"/>
     <use style="fill:#ff0000;stroke:#ff0000;" x="458.44486" xlink:href="#mb1be71b84d" y="347.173879"/>
     <use style="fill:#ff0000;stroke:#ff0000;" x="460.67984" xlink:href="#mb1be71b84d" y="347.173879"/>
     <use style="fill:#ff0000;stroke:#ff0000;" x="462.91482" xlink:href="#mb1be71b84d" y="347.173879"/>
     <use style="fill:#ff0000;stroke:#ff0000;" x="465.1498" xlink:href="#mb1be71b84d" y="347.173879"/>
     <use style="fill:#ff0000;stroke:#ff0000;" x="467.38478" xlink:href="#mb1be71b84d" y="347.173879"/>
     <use style="fill:#ff0000;stroke:#ff0000;" x="469.61976" xlink:href="#mb1be71b84d" y="347.173879"/>
     <use style="fill:#ff0000;stroke:#ff0000;" x="471.85474" xlink:href="#mb1be71b84d" y="347.173879"/>
     <use style="fill:#ff0000;stroke:#ff0000;" x="474.08972" xlink:href="#mb1be71b84d" y="347.173879"/>
     <use style="fill:#ff0000;stroke:#ff0000;" x="476.3247" xlink:href="#mb1be71b84d" y="347.173879"/>
     <use style="fill:#ff0000;stroke:#ff0000;" x="478.55968" xlink:href="#mb1be71b84d" y="347.173879"/>
     <use style="fill:#ff0000;stroke:#ff0000;" x="480.79466" xlink:href="#mb1be71b84d" y="347.173879"/>
     <use style="fill:#ff0000;stroke:#ff0000;" x="483.02964" xlink:href="#mb1be71b84d" y="347.173879"/>
     <use style="fill:#ff0000;stroke:#ff0000;" x="485.264619" xlink:href="#mb1be71b84d" y="347.173879"/>
     <use style="fill:#ff0000;stroke:#ff0000;" x="487.499599" xlink:href="#mb1be71b84d" y="347.173879"/>
     <use style="fill:#ff0000;stroke:#ff0000;" x="489.734579" xlink:href="#mb1be71b84d" y="347.173879"/>
     <use style="fill:#ff0000;stroke:#ff0000;" x="491.969559" xlink:href="#mb1be71b84d" y="347.173879"/>
     <use style="fill:#ff0000;stroke:#ff0000;" x="494.204539" xlink:href="#mb1be71b84d" y="347.173879"/>
     <use style="fill:#ff0000;stroke:#ff0000;" x="496.439519" xlink:href="#mb1be71b84d" y="347.173879"/>
     <use style="fill:#ff0000;stroke:#ff0000;" x="498.674499" xlink:href="#mb1be71b84d" y="347.173879"/>
     <use style="fill:#ff0000;stroke:#ff0000;" x="500.909479" xlink:href="#mb1be71b84d" y="347.173879"/>
     <use style="fill:#ff0000;stroke:#ff0000;" x="503.144459" xlink:href="#mb1be71b84d" y="347.173879"/>
     <use style="fill:#ff0000;stroke:#ff0000;" x="505.379439" xlink:href="#mb1be71b84d" y="347.173879"/>
     <use style="fill:#ff0000;stroke:#ff0000;" x="507.614419" xlink:href="#mb1be71b84d" y="347.173879"/>
     <use style="fill:#ff0000;stroke:#ff0000;" x="509.849399" xlink:href="#mb1be71b84d" y="347.173879"/>
     <use style="fill:#ff0000;stroke:#ff0000;" x="512.084379" xlink:href="#mb1be71b84d" y="347.173879"/>
     <use style="fill:#ff0000;stroke:#ff0000;" x="514.319359" xlink:href="#mb1be71b84d" y="347.173879"/>
     <use style="fill:#ff0000;stroke:#ff0000;" x="516.554339" xlink:href="#mb1be71b84d" y="347.173879"/>
     <use style="fill:#ff0000;stroke:#ff0000;" x="518.789319" xlink:href="#mb1be71b84d" y="347.173879"/>
     <use style="fill:#ff0000;stroke:#ff0000;" x="521.024299" xlink:href="#mb1be71b84d" y="347.173879"/>
     <use style="fill:#ff0000;stroke:#ff0000;" x="523.259279" xlink:href="#mb1be71b84d" y="347.173879"/>
     <use style="fill:#ff0000;stroke:#ff0000;" x="525.494259" xlink:href="#mb1be71b84d" y="347.173879"/>
     <use style="fill:#ff0000;stroke:#ff0000;" x="527.729239" xlink:href="#mb1be71b84d" y="347.173879"/>
     <use style="fill:#ff0000;stroke:#ff0000;" x="529.964219" xlink:href="#mb1be71b84d" y="347.173879"/>
     <use style="fill:#ff0000;stroke:#ff0000;" x="532.199199" xlink:href="#mb1be71b84d" y="347.173879"/>
     <use style="fill:#ff0000;stroke:#ff0000;" x="534.434179" xlink:href="#mb1be71b84d" y="347.173879"/>
     <use style="fill:#ff0000;stroke:#ff0000;" x="536.669159" xlink:href="#mb1be71b84d" y="347.173879"/>
     <use style="fill:#ff0000;stroke:#ff0000;" x="538.904139" xlink:href="#mb1be71b84d" y="347.173879"/>
     <use style="fill:#ff0000;stroke:#ff0000;" x="541.139119" xlink:href="#mb1be71b84d" y="347.173879"/>
     <use style="fill:#ff0000;stroke:#ff0000;" x="543.374099" xlink:href="#mb1be71b84d" y="347.173879"/>
     <use style="fill:#ff0000;stroke:#ff0000;" x="545.609079" xlink:href="#mb1be71b84d" y="347.173879"/>
     <use style="fill:#ff0000;stroke:#ff0000;" x="547.844059" xlink:href="#mb1be71b84d" y="347.173879"/>
     <use style="fill:#ff0000;stroke:#ff0000;" x="550.079039" xlink:href="#mb1be71b84d" y="347.173879"/>
     <use style="fill:#ff0000;stroke:#ff0000;" x="552.314019" xlink:href="#mb1be71b84d" y="347.173879"/>
     <use style="fill:#ff0000;stroke:#ff0000;" x="554.548999" xlink:href="#mb1be71b84d" y="347.173879"/>
     <use style="fill:#ff0000;stroke:#ff0000;" x="556.783979" xlink:href="#mb1be71b84d" y="347.173879"/>
     <use style="fill:#ff0000;stroke:#ff0000;" x="559.018959" xlink:href="#mb1be71b84d" y="347.173879"/>
     <use style="fill:#ff0000;stroke:#ff0000;" x="561.253939" xlink:href="#mb1be71b84d" y="347.173879"/>
     <use style="fill:#ff0000;stroke:#ff0000;" x="563.488919" xlink:href="#mb1be71b84d" y="347.173879"/>
     <use style="fill:#ff0000;stroke:#ff0000;" x="565.723899" xlink:href="#mb1be71b84d" y="347.173879"/>
     <use style="fill:#ff0000;stroke:#ff0000;" x="567.958879" xlink:href="#mb1be71b84d" y="347.173879"/>
     <use style="fill:#ff0000;stroke:#ff0000;" x="570.193858" xlink:href="#mb1be71b84d" y="347.173879"/>
     <use style="fill:#ff0000;stroke:#ff0000;" x="572.428838" xlink:href="#mb1be71b84d" y="347.173879"/>
     <use style="fill:#ff0000;stroke:#ff0000;" x="574.663818" xlink:href="#mb1be71b84d" y="347.173879"/>
     <use style="fill:#ff0000;stroke:#ff0000;" x="576.898798" xlink:href="#mb1be71b84d" y="347.173879"/>
     <use style="fill:#ff0000;stroke:#ff0000;" x="579.133778" xlink:href="#mb1be71b84d" y="347.173879"/>
     <use style="fill:#ff0000;stroke:#ff0000;" x="581.368758" xlink:href="#mb1be71b84d" y="347.173879"/>
     <use style="fill:#ff0000;stroke:#ff0000;" x="583.603738" xlink:href="#mb1be71b84d" y="347.173879"/>
     <use style="fill:#ff0000;stroke:#ff0000;" x="585.838718" xlink:href="#mb1be71b84d" y="347.173879"/>
     <use style="fill:#ff0000;stroke:#ff0000;" x="588.073698" xlink:href="#mb1be71b84d" y="347.173879"/>
     <use style="fill:#ff0000;stroke:#ff0000;" x="590.308678" xlink:href="#mb1be71b84d" y="347.173879"/>
     <use style="fill:#ff0000;stroke:#ff0000;" x="592.543658" xlink:href="#mb1be71b84d" y="347.173879"/>
     <use style="fill:#ff0000;stroke:#ff0000;" x="594.778638" xlink:href="#mb1be71b84d" y="347.173879"/>
     <use style="fill:#ff0000;stroke:#ff0000;" x="597.013618" xlink:href="#mb1be71b84d" y="347.173879"/>
     <use style="fill:#ff0000;stroke:#ff0000;" x="599.248598" xlink:href="#mb1be71b84d" y="347.173879"/>
     <use style="fill:#ff0000;stroke:#ff0000;" x="601.483578" xlink:href="#mb1be71b84d" y="347.173879"/>
     <use style="fill:#ff0000;stroke:#ff0000;" x="603.718558" xlink:href="#mb1be71b84d" y="347.173879"/>
     <use style="fill:#ff0000;stroke:#ff0000;" x="605.953538" xlink:href="#mb1be71b84d" y="347.173879"/>
     <use style="fill:#ff0000;stroke:#ff0000;" x="608.188518" xlink:href="#mb1be71b84d" y="347.173879"/>
     <use style="fill:#ff0000;stroke:#ff0000;" x="610.423498" xlink:href="#mb1be71b84d" y="347.173879"/>
     <use style="fill:#ff0000;stroke:#ff0000;" x="612.658478" xlink:href="#mb1be71b84d" y="347.173879"/>
     <use style="fill:#ff0000;stroke:#ff0000;" x="614.893458" xlink:href="#mb1be71b84d" y="347.173879"/>
     <use style="fill:#ff0000;stroke:#ff0000;" x="617.128438" xlink:href="#mb1be71b84d" y="347.173879"/>
     <use style="fill:#ff0000;stroke:#ff0000;" x="619.363418" xlink:href="#mb1be71b84d" y="347.173879"/>
     <use style="fill:#ff0000;stroke:#ff0000;" x="621.598398" xlink:href="#mb1be71b84d" y="347.173879"/>
     <use style="fill:#ff0000;stroke:#ff0000;" x="623.833378" xlink:href="#mb1be71b84d" y="347.173879"/>
     <use style="fill:#ff0000;stroke:#ff0000;" x="626.068358" xlink:href="#mb1be71b84d" y="347.173879"/>
     <use style="fill:#ff0000;stroke:#ff0000;" x="628.303338" xlink:href="#mb1be71b84d" y="237.433738"/>
     <use style="fill:#ff0000;stroke:#ff0000;" x="630.538318" xlink:href="#mb1be71b84d" y="211.612529"/>
     <use style="fill:#ff0000;stroke:#ff0000;" x="632.773298" xlink:href="#mb1be71b84d" y="192.246622"/>
     <use style="fill:#ff0000;stroke:#ff0000;" x="635.008278" xlink:href="#mb1be71b84d" y="224.523134"/>
     <use style="fill:#ff0000;stroke:#ff0000;" x="637.243258" xlink:href="#mb1be71b84d" y="237.433738"/>
     <use style="fill:#ff0000;stroke:#ff0000;" x="639.478238" xlink:href="#mb1be71b84d" y="211.612529"/>
     <use style="fill:#ff0000;stroke:#ff0000;" x="641.713218" xlink:href="#mb1be71b84d" y="256.799645"/>
     <use style="fill:#ff0000;stroke:#ff0000;" x="643.948198" xlink:href="#mb1be71b84d" y="224.523134"/>
     <use style="fill:#ff0000;stroke:#ff0000;" x="646.183178" xlink:href="#mb1be71b84d" y="192.246622"/>
     <use style="fill:#ff0000;stroke:#ff0000;" x="648.418158" xlink:href="#mb1be71b84d" y="224.523134"/>
     <use style="fill:#ff0000;stroke:#ff0000;" x="650.653138" xlink:href="#mb1be71b84d" y="192.246622"/>
     <use style="fill:#ff0000;stroke:#ff0000;" x="652.888117" xlink:href="#mb1be71b84d" y="205.157227"/>
     <use style="fill:#ff0000;stroke:#ff0000;" x="655.123097" xlink:href="#mb1be71b84d" y="192.246622"/>
     <use style="fill:#ff0000;stroke:#ff0000;" x="657.358077" xlink:href="#mb1be71b84d" y="218.067831"/>
     <use style="fill:#ff0000;stroke:#ff0000;" x="659.593057" xlink:href="#mb1be71b84d" y="192.246622"/>
     <use style="fill:#ff0000;stroke:#ff0000;" x="661.828037" xlink:href="#mb1be71b84d" y="211.612529"/>
     <use style="fill:#ff0000;stroke:#ff0000;" x="664.063017" xlink:href="#mb1be71b84d" y="192.246622"/>
     <use style="fill:#ff0000;stroke:#ff0000;" x="666.297997" xlink:href="#mb1be71b84d" y="192.246622"/>
     <use style="fill:#ff0000;stroke:#ff0000;" x="668.532977" xlink:href="#mb1be71b84d" y="166.425412"/>
     <use style="fill:#ff0000;stroke:#ff0000;" x="670.767957" xlink:href="#mb1be71b84d" y="153.514808"/>
     <use style="fill:#ff0000;stroke:#ff0000;" x="673.002937" xlink:href="#mb1be71b84d" y="166.425412"/>
     <use style="fill:#ff0000;stroke:#ff0000;" x="675.237917" xlink:href="#mb1be71b84d" y="172.880715"/>
     <use style="fill:#ff0000;stroke:#ff0000;" x="677.472897" xlink:href="#mb1be71b84d" y="179.336017"/>
     <use style="fill:#ff0000;stroke:#ff0000;" x="679.707877" xlink:href="#mb1be71b84d" y="172.880715"/>
     <use style="fill:#ff0000;stroke:#ff0000;" x="681.942857" xlink:href="#mb1be71b84d" y="166.425412"/>
    </g>
   </g>
   <g id="line2d_16">
    <path clip-path="url(#pc76d637e13)" d="M -1 245.520964 
L 2.969419 243.86593 
L 7.77631 241.682717 
L 12.583202 239.307936 
L 17.390093 236.729968 
L 22.196985 233.938953 
L 27.003877 230.927806 
L 31.810768 227.693416 
L 36.61766 224.237974 
L 41.424551 220.570321 
L 46.231443 216.707149 
L 55.845226 208.504532 
L 79.879684 187.242635 
L 89.493467 179.351045 
L 99.107251 171.976486 
L 108.721034 164.927932 
L 118.334817 158.115074 
L 123.141709 154.888675 
L 127.9486 151.910872 
L 132.755492 149.343118 
L 137.562383 147.425166 
L 142.369275 146.502174 
L 147.176167 147.004235 
L 151.983058 149.286413 
L 156.78995 153.275106 
L 161.596841 158.092101 
L 166.403733 162.138116 
L 171.210625 163.967845 
L 176.017516 163.389302 
L 180.824408 161.602316 
L 185.631299 160.096441 
L 190.438191 159.551486 
L 195.245083 159.808086 
L 200.051974 160.512064 
L 204.858866 161.571051 
L 209.665757 163.134051 
L 214.472649 165.304988 
L 224.086432 170.527668 
L 228.893324 172.619241 
L 233.700215 173.754825 
L 238.507107 173.678398 
L 243.313999 172.346525 
L 248.12089 169.970631 
L 252.927782 167.064922 
L 257.734673 164.430222 
L 262.541565 163.050533 
L 267.348457 163.759277 
L 272.155348 165.356878 
L 276.96224 161.003926 
L 281.769131 145.52889 
L 286.576023 133.427059 
L 291.382915 139.104609 
L 296.189806 151.787156 
L 300.996698 161.611085 
L 305.803589 175.901266 
L 310.610481 195.661672 
L 315.417373 206.962996 
L 320.224264 205.830226 
L 325.031156 201.640667 
L 329.838047 203.589177 
L 334.644939 213.504875 
L 339.451831 227.596173 
L 344.258722 241.230051 
L 349.065614 252.319148 
L 353.872505 261.20718 
L 358.679397 269.313406 
L 363.486289 278.768061 
L 368.29318 292.632384 
L 373.100072 313.354666 
L 377.906963 337.346987 
L 382.713855 353.170209 
L 387.520747 354.337712 
L 392.327638 347.846972 
L 397.13453 343.140979 
L 401.941421 343.57391 
L 406.748313 347.525378 
L 411.555205 350.730035 
L 416.362096 349.722787 
L 421.168988 345.647505 
L 425.975879 342.387932 
L 430.782771 342.332565 
L 435.589663 344.938907 
L 440.396554 347.203455 
L 450.010337 346.569055 
L 454.817229 347.554193 
L 459.624121 347.811334 
L 464.431012 348.880027 
L 469.237904 349.68825 
L 474.044795 347.462357 
L 478.851687 344.776973 
L 483.658579 344.434394 
L 488.46547 345.650308 
L 493.272362 346.733269 
L 498.079253 347.069012 
L 502.886145 346.772526 
L 512.499928 345.468651 
L 517.30682 345.188089 
L 522.113711 345.414648 
L 531.727495 346.333732 
L 546.148169 346.881099 
L 550.955061 346.617438 
L 555.761953 345.576688 
L 560.568844 343.992135 
L 565.375736 342.656705 
L 570.182627 342.371554 
L 574.989519 343.474728 
L 579.796411 345.747451 
L 584.603302 348.597903 
L 589.410194 351.300264 
L 594.217085 353.133626 
L 599.023977 353.384248 
L 603.830869 351.27018 
L 608.63776 345.898329 
L 613.444652 336.376058 
L 618.251543 322.156002 
L 623.058435 303.540497 
L 632.672218 260.139347 
L 637.47911 240.520679 
L 642.286001 225.004202 
L 647.092893 214.018221 
L 651.899785 206.628428 
L 656.706676 200.907839 
L 661.513568 194.568109 
L 666.320459 186.301557 
L 671.127351 177.768306 
L 675.934243 173.582693 
L 680.741134 176.359548 
L 685.548026 182.120284 
L 690.354917 183.948799 
L 695.161809 178.599996 
L 699.968701 169.180267 
L 704.775592 161.842267 
L 709.582484 158.112849 
L 714.389375 156.669795 
L 719.196267 160.490965 
L 728.81005 180.230769 
L 733.616942 185.655983 
L 738.423833 187.576542 
L 743.230725 188.393799 
L 748.037617 189.943207 
L 752.844508 193.161899 
L 757.6514 198.198354 
L 762.458291 204.528483 
L 767.265183 211.215082 
L 772.072075 217.436787 
L 776.878966 222.7933 
L 781.685858 227.239682 
L 786.492749 230.90818 
L 791.299641 233.980795 
L 796.106533 236.62833 
L 800.913424 238.988981 
L 810.527207 243.22465 
L 820.140991 247.139976 
L 829.754774 250.838078 
L 839.368557 254.249783 
L 848.98234 257.270921 
L 853.789232 258.612347 
L 858.596123 259.836137 
L 865 261.272837 
L 865 261.272837 
" style="fill:none;stroke:#3300ff;stroke-linecap:square;stroke-width:2;"/>
   </g>
   <g id="line2d_17">
    <path clip-path="url(#pc76d637e13)" d="M -1 116.327024 
L 7.77631 113.702761 
L 17.390093 110.572512 
L 31.810768 105.566989 
L 46.231443 100.611521 
L 55.845226 97.561554 
L 75.072793 91.75238 
L 79.879684 90.137316 
L 84.686576 88.376651 
L 89.493467 86.45523 
L 94.300359 84.379775 
L 103.914142 79.889066 
L 113.527925 75.27755 
L 118.334817 73.085977 
L 123.141709 71.087746 
L 127.9486 69.429439 
L 132.755492 68.368241 
L 137.562383 68.355291 
L 142.369275 70.113954 
L 147.176167 74.616103 
L 151.983058 82.756959 
L 156.78995 94.530245 
L 161.596841 108.021302 
L 166.403733 119.590447 
L 171.210625 126.256149 
L 176.017516 127.981564 
L 180.824408 126.965848 
L 185.631299 125.453174 
L 190.438191 124.576563 
L 195.245083 124.571593 
L 200.051974 125.376155 
L 204.858866 126.91867 
L 209.665757 129.120439 
L 214.472649 131.805372 
L 219.279541 134.643944 
L 224.086432 137.208302 
L 228.893324 139.112074 
L 233.700215 140.107185 
L 238.507107 140.07205 
L 243.313999 138.970047 
L 248.12089 136.890627 
L 257.734673 131.577055 
L 262.541565 130.137511 
L 267.348457 130.786676 
L 272.155348 131.844746 
L 276.96224 124.757082 
L 281.769131 104.19394 
L 286.576023 89.255198 
L 291.382915 94.72772 
L 296.189806 107.859891 
L 300.996698 119.075894 
L 305.803589 135.143747 
L 310.610481 157.800909 
L 315.417373 170.9384 
L 320.224264 168.551365 
L 325.031156 160.621935 
L 329.838047 158.65323 
L 334.644939 166.24134 
L 339.451831 179.439353 
L 344.258722 193.025735 
L 349.065614 204.366991 
L 353.872505 213.469221 
L 358.679397 221.756356 
L 363.486289 231.66163 
L 368.29318 246.847315 
L 373.100072 271.024895 
L 377.906963 302.393403 
L 382.713855 327.389544 
L 387.520747 331.64357 
L 392.327638 322.578483 
L 397.13453 315.716056 
L 401.941421 316.488301 
L 406.748313 322.745026 
L 411.555205 328.205157 
L 416.362096 326.877872 
L 421.168988 320.400134 
L 425.975879 314.909861 
L 430.782771 314.191959 
L 440.396554 321.387153 
L 450.010337 323.008345 
L 454.817229 325.337903 
L 459.624121 326.45494 
L 469.237904 329.950548 
L 474.044795 327.405889 
L 478.851687 324.193956 
L 483.658579 324.105242 
L 488.46547 325.950193 
L 493.272362 327.534959 
L 498.079253 328.038248 
L 502.886145 327.542121 
L 507.693037 326.327373 
L 512.499928 324.80652 
L 517.30682 323.531737 
L 522.113711 322.87096 
L 526.920603 322.623351 
L 531.727495 322.235136 
L 541.341278 320.96004 
L 546.148169 320.663447 
L 550.955061 320.158359 
L 555.761953 318.904234 
L 560.568844 317.115757 
L 565.375736 315.678881 
L 570.182627 315.422324 
L 574.989519 316.568804 
L 579.796411 318.751162 
L 584.603302 321.32019 
L 589.410194 323.532335 
L 594.217085 324.536419 
L 599.023977 323.309837 
L 603.830869 318.692659 
L 608.63776 309.593648 
L 613.444652 295.326538 
L 618.251543 275.966132 
L 623.058435 252.612568 
L 627.865327 227.393033 
L 632.672218 203.02574 
L 637.47911 182.054522 
L 642.286001 166.154964 
L 647.092893 155.784253 
L 651.899785 150.07556 
L 656.706676 146.886849 
L 661.513568 143.390176 
L 666.320459 137.874699 
L 671.127351 132.098827 
L 675.934243 130.567058 
L 680.741134 134.855684 
L 685.548026 140.334101 
L 690.354917 140.526521 
L 695.161809 133.016828 
L 699.968701 122.038718 
L 704.775592 114.44579 
L 709.582484 111.431393 
L 714.389375 109.667448 
L 719.196267 109.713971 
L 724.003159 114.108807 
L 728.81005 120.675592 
L 733.616942 125.039996 
L 738.423833 126.300878 
L 743.230725 125.061735 
L 748.037617 121.193685 
L 757.6514 109.237173 
L 762.458291 105.667112 
L 767.265183 104.713472 
L 772.072075 105.483906 
L 776.878966 107.072464 
L 791.299641 112.63486 
L 800.913424 116.028898 
L 810.527207 119.176647 
L 820.140991 122.132612 
L 829.754774 124.871018 
L 839.368557 127.321945 
L 848.98234 129.419901 
L 858.596123 131.136738 
L 865 132.065117 
L 865 132.065117 
" style="fill:none;stroke:#3300ff;stroke-linecap:square;stroke-width:0.2;"/>
   </g>
   <g id="line2d_18">
    <path clip-path="url(#pc76d637e13)" d="M -1 374.714904 
L 2.969419 372.559502 
L 7.77631 369.662674 
L 12.583202 366.449015 
L 17.390093 362.887423 
L 22.196985 358.947066 
L 27.003877 354.599213 
L 31.810768 349.819843 
L 36.61766 344.593145 
L 41.424551 338.915926 
L 46.231443 332.802776 
L 51.038335 326.291453 
L 55.845226 319.44751 
L 75.072793 291.023206 
L 79.879684 284.347954 
L 84.686576 278.076338 
L 89.493467 272.246859 
L 94.300359 266.837749 
L 99.107251 261.775983 
L 108.721034 252.286922 
L 118.334817 243.144171 
L 123.141709 238.689605 
L 127.9486 234.392306 
L 132.755492 230.317994 
L 137.562383 226.495042 
L 156.78995 212.019967 
L 161.596841 208.162899 
L 166.403733 204.685784 
L 176.017516 198.797039 
L 180.824408 196.238783 
L 185.631299 194.739707 
L 190.438191 194.526408 
L 200.051974 195.647973 
L 204.858866 196.223433 
L 209.665757 197.147663 
L 214.472649 198.804604 
L 219.279541 201.185636 
L 224.086432 203.847034 
L 228.893324 206.126407 
L 233.700215 207.402464 
L 238.507107 207.284747 
L 243.313999 205.723004 
L 248.12089 203.050636 
L 252.927782 199.94567 
L 257.734673 197.28339 
L 262.541565 195.963555 
L 267.348457 196.731879 
L 272.155348 198.869009 
L 276.96224 197.25077 
L 281.769131 186.863839 
L 286.576023 177.59892 
L 291.382915 183.481499 
L 296.189806 195.714422 
L 300.996698 204.146276 
L 305.803589 216.658785 
L 310.610481 233.522435 
L 315.417373 242.987593 
L 320.224264 243.109087 
L 325.031156 242.659399 
L 329.838047 248.525124 
L 334.644939 260.76841 
L 339.451831 275.752992 
L 344.258722 289.434366 
L 349.065614 300.271305 
L 353.872505 308.94514 
L 358.679397 316.870457 
L 363.486289 325.874492 
L 368.29318 338.417453 
L 373.100072 355.684437 
L 377.906963 372.30057 
L 382.713855 378.950874 
L 387.520747 377.031853 
L 392.327638 373.115461 
L 397.13453 370.565902 
L 401.941421 370.65952 
L 406.748313 372.30573 
L 411.555205 373.254913 
L 416.362096 372.567702 
L 421.168988 370.894875 
L 425.975879 369.866003 
L 430.782771 370.473171 
L 435.589663 372.156341 
L 440.396554 373.019758 
L 450.010337 370.129765 
L 454.817229 369.770482 
L 459.624121 369.167728 
L 464.431012 369.573548 
L 469.237904 369.425952 
L 474.044795 367.518826 
L 478.851687 365.359991 
L 483.658579 364.763546 
L 493.272362 365.931579 
L 498.079253 366.099776 
L 507.693037 365.913012 
L 512.499928 366.130782 
L 517.30682 366.84444 
L 522.113711 367.958336 
L 531.727495 370.432328 
L 536.534386 371.55525 
L 541.341278 372.499927 
L 546.148169 373.09875 
L 550.955061 373.076517 
L 555.761953 372.249142 
L 560.568844 370.868512 
L 565.375736 369.63453 
L 570.182627 369.320783 
L 574.989519 370.380651 
L 579.796411 372.74374 
L 589.410194 379.068192 
L 594.217085 381.730833 
L 599.023977 383.458659 
L 603.830869 383.847701 
L 608.63776 382.203011 
L 613.444652 377.425577 
L 618.251543 368.345873 
L 623.058435 354.468427 
L 627.865327 336.675085 
L 632.672218 317.252953 
L 637.47911 298.986837 
L 642.286001 283.853441 
L 647.092893 272.25219 
L 651.899785 263.181297 
L 656.706676 254.928829 
L 661.513568 245.746041 
L 671.127351 223.437785 
L 675.934243 216.598328 
L 680.741134 217.863411 
L 685.548026 223.906466 
L 690.354917 227.371078 
L 695.161809 224.183165 
L 699.968701 216.321815 
L 704.775592 209.238745 
L 709.582484 204.794305 
L 714.389375 203.672142 
L 719.196267 211.26796 
L 724.003159 226.737043 
L 728.81005 239.785947 
L 733.616942 246.271969 
L 738.423833 248.852207 
L 743.230725 251.725863 
L 748.037617 258.692728 
L 752.844508 271.177035 
L 762.458291 303.389855 
L 767.265183 317.716691 
L 772.072075 329.389668 
L 776.878966 338.514135 
L 781.685858 345.545506 
L 786.492749 350.99878 
L 791.299641 355.326731 
L 796.106533 358.887667 
L 800.913424 361.949064 
L 805.720316 364.701402 
L 815.334099 369.741202 
L 824.947882 374.503772 
L 834.561665 379.036099 
L 844.175449 383.2113 
L 848.98234 385.12194 
L 853.789232 386.89874 
L 858.596123 388.535537 
L 865 390.480558 
L 865 390.480558 
" style="fill:none;stroke:#3300ff;stroke-linecap:square;stroke-width:0.2;"/>
   </g>
   <g id="patch_4">
    <path d="M 108 378 
L 108 51.84 
" style="fill:none;stroke:#000000;stroke-linecap:square;stroke-linejoin:miter;stroke-width:0.8;"/>
   </g>
   <g id="patch_5">
    <path d="M 777.6 378 
L 777.6 51.84 
" style="fill:none;stroke:#000000;stroke-linecap:square;stroke-linejoin:miter;stroke-width:0.8;"/>
   </g>
   <g id="patch_6">
    <path d="M 108 378 
L 777.6 378 
" style="fill:none;stroke:#000000;stroke-linecap:square;stroke-linejoin:miter;stroke-width:0.8;"/>
   </g>
   <g id="patch_7">
    <path d="M 108 51.84 
L 777.6 51.84 
" style="fill:none;stroke:#000000;stroke-linecap:square;stroke-linejoin:miter;stroke-width:0.8;"/>
   </g>
  </g>
 </g>
 <defs>
  <clipPath id="pc76d637e13">
   <rect height="326.16" width="669.6" x="108" y="51.84"/>
  </clipPath>
 </defs>
</svg>
