<?xml version="1.0" encoding="utf-8" standalone="no"?>
<!DOCTYPE svg PUBLIC "-//W3C//DTD SVG 1.1//EN"
  "http://www.w3.org/Graphics/SVG/1.1/DTD/svg11.dtd">
<!-- Created with matplotlib (http://matplotlib.org/) -->
<svg height="432pt" version="1.1" viewBox="0 0 864 432" width="864pt" xmlns="http://www.w3.org/2000/svg" xmlns:xlink="http://www.w3.org/1999/xlink">
 <defs>
  <style type="text/css">
*{stroke-linecap:butt;stroke-linejoin:round;}
  </style>
 </defs>
 <g id="figure_1">
  <g id="patch_1">
   <path d="M 0 432 
L 864 432 
L 864 0 
L 0 0 
z
" style="fill:none;"/>
  </g>
  <g id="axes_1">
   <g id="patch_2">
    <path d="M 108 378 
L 777.6 378 
L 777.6 51.84 
L 108 51.84 
z
" style="fill:none;"/>
   </g>
   <g id="patch_3">
    <path clip-path="url(#pd9501fd436)" d="M -35.485714 64.783332 
L -30.678823 66.796551 
L -25.871931 68.706694 
L -21.065039 70.473172 
L -16.258148 72.070371 
L -11.451256 73.495709 
L -6.644365 74.778837 
L -1.837473 75.987015 
L 2.969419 77.223938 
L 7.77631 78.621552 
L 12.583202 80.325252 
L 17.390093 82.47288 
L 22.196985 85.168483 
L 27.003877 88.454108 
L 31.810768 92.285545 
L 36.61766 96.516759 
L 41.424551 100.891633 
L 46.231443 105.044705 
L 51.038335 108.53959 
L 55.845226 110.989064 
L 60.652118 112.232009 
L 65.459009 112.419839 
L 70.265901 111.896126 
L 75.072793 111.000967 
L 79.879684 109.986899 
L 84.686576 109.017861 
L 89.493467 108.173291 
L 94.300359 107.4621 
L 99.107251 106.858463 
L 103.914142 106.344575 
L 108.721034 105.940802 
L 113.527925 105.713685 
L 118.334817 105.763832 
L 123.141709 106.202528 
L 127.9486 107.125756 
L 132.755492 108.589226 
L 137.562383 110.583026 
L 142.369275 113.005186 
L 147.176167 115.64212 
L 151.983058 118.175986 
L 156.78995 120.240941 
L 161.596841 121.528081 
L 166.403733 121.900526 
L 171.210625 121.459825 
L 176.017516 120.521473 
L 180.824408 119.497578 
L 185.631299 118.744983 
L 190.438191 118.48133 
L 195.245083 118.808253 
L 200.051974 119.76533 
L 204.858866 121.342538 
L 209.665757 123.46218 
L 214.472649 125.959276 
L 219.279541 128.565399 
L 224.086432 130.915908 
L 228.893324 132.614674 
L 233.700215 133.334832 
L 238.507107 132.892803 
L 243.313999 131.293894 
L 248.12089 128.798248 
L 252.927782 125.950815 
L 257.734673 123.425546 
L 262.541565 121.789361 
L 267.348457 121.234194 
L 272.155348 120.621815 
L 276.96224 115.79682 
L 281.769131 101.340598 
L 286.576023 88.477052 
L 291.382915 97.258182 
L 296.189806 112.062309 
L 300.996698 122.1111 
L 305.803589 140.171672 
L 310.610481 161.753787 
L 315.417373 169.630039 
L 320.224264 169.546753 
L 325.031156 168.257797 
L 329.838047 169.322634 
L 334.644939 175.834301 
L 339.451831 186.60713 
L 344.258722 196.27097 
L 349.065614 202.594599 
L 353.872505 208.056589 
L 358.679397 217.105215 
L 363.486289 233.442034 
L 368.29318 258.091885 
L 373.100072 287.714923 
L 377.906963 314.085656 
L 382.713855 328.438869 
L 387.520747 329.734083 
L 392.327638 325.226928 
L 397.13453 321.959116 
L 401.941421 322.421411 
L 406.748313 325.131299 
L 411.555205 327.088943 
L 416.362096 326.573628 
L 421.168988 324.102041 
L 425.975879 321.34917 
L 430.782771 320.29054 
L 435.589663 322.156196 
L 440.396554 326.456649 
L 445.203446 330.997016 
L 450.010337 332.813885 
L 454.817229 331.461467 
L 459.624121 329.15037 
L 464.431012 327.33947 
L 469.237904 327.303186 
L 474.044795 328.727463 
L 478.851687 329.7788 
L 483.658579 330.022734 
L 488.46547 329.858514 
L 493.272362 329.538076 
L 498.079253 329.250753 
L 502.886145 329.143165 
L 507.693037 329.186754 
L 512.499928 329.162252 
L 517.30682 328.817782 
L 522.113711 328.033216 
L 526.920603 326.958713 
L 531.727495 326.092078 
L 536.534386 326.057307 
L 541.341278 327.069147 
L 546.148169 328.559902 
L 550.955061 329.465574 
L 555.761953 329.094051 
L 560.568844 327.682705 
L 565.375736 326.043072 
L 570.182627 324.954867 
L 574.989519 324.920938 
L 579.796411 326.149078 
L 584.603302 328.51983 
L 589.410194 331.504694 
L 594.217085 334.080743 
L 599.023977 334.724281 
L 603.830869 331.685609 
L 608.63776 323.650736 
L 613.444652 310.31376 
L 618.251543 292.355209 
L 623.058435 271.090511 
L 627.865327 248.136033 
L 632.672218 225.133495 
L 637.47911 203.517933 
L 642.286001 184.352155 
L 647.092893 168.249356 
L 651.899785 155.379457 
L 656.706676 145.530928 
L 661.513568 138.212117 
L 666.320459 132.838441 
L 671.127351 129.083349 
L 675.934243 127.337776 
L 680.741134 129.031638 
L 685.548026 136.36378 
L 690.354917 150.930631 
L 695.161809 172.153767 
L 699.968701 196.874011 
L 704.775592 219.786657 
L 709.582484 234.482136 
L 714.389375 236.457635 
L 719.196267 227.397011 
L 724.003159 214.000892 
L 728.81005 202.450326 
L 733.616942 195.916545 
L 738.423833 194.869962 
L 743.230725 198.383228 
L 748.037617 206.003928 
L 752.844508 218.188546 
L 757.6514 232.622418 
L 762.458291 240.494281 
L 767.265183 228.469095 
L 772.072075 187.671471 
L 776.878966 128.093307 
L 781.685858 77.027387 
L 786.492749 53.716891 
L 791.299641 55.276881 
L 796.106533 67.596321 
L 800.913424 80.18289 
L 805.720316 89.333134 
L 810.527207 94.983787 
L 815.334099 98.119347 
L 820.140991 99.737355 
L 824.947882 100.57936 
L 829.754774 101.112419 
L 834.561665 101.581746 
L 839.368557 102.080867 
L 844.175449 102.617143 
L 848.98234 103.161387 
L 853.789232 103.678967 
L 858.596123 104.145826 
L 863.403015 104.554778 
L 868.209907 104.916501 
L 873.016798 105.257739 
L 877.82369 105.617599 
L 882.630581 106.042129 
L 887.437473 106.57747 
L 892.244365 107.262604 
L 897.051256 108.123303 
L 901.858148 109.168892 
L 906.665039 110.392577 
L 911.471931 111.774916 
L 916.278823 113.289044 
L 921.085714 114.905993 
L 921.085714 403.477301 
L 916.278823 402.932993 
L 911.471931 402.373291 
L 906.665039 401.81345 
L 901.858148 401.272287 
L 897.051256 400.769654 
L 892.244365 400.323029 
L 887.437473 399.944156 
L 882.630581 399.636969 
L 877.82369 399.397647 
L 873.016798 399.216829 
L 868.209907 399.083106 
L 863.403015 398.986619 
L 858.596123 398.92176 
L 853.789232 398.888444 
L 848.98234 398.891761 
L 844.175449 398.939793 
L 839.368557 399.039199 
L 834.561665 399.187874 
L 829.754774 399.363945 
L 824.947882 399.510314 
L 820.140991 399.513141 
L 815.334099 399.167975 
L 810.527207 398.112769 
L 805.720316 395.675645 
L 800.913424 390.547212 
L 796.106533 380.271751 
L 791.299641 361.326042 
L 786.492749 332.645299 
L 781.685858 303.734905 
L 776.878966 292.807646 
L 772.072075 304.560576 
L 767.265183 321.81969 
L 762.458291 328.029627 
L 757.6514 322.462514 
L 752.844508 311.986445 
L 748.037617 303.258416 
L 743.230725 299.650641 
L 738.423833 300.636111 
L 733.616942 304.292036 
L 728.81005 309.650135 
L 724.003159 316.702159 
L 719.196267 324.574904 
L 714.389375 330.255881 
L 709.582484 329.957266 
L 704.775592 321.124208 
L 699.968701 303.651628 
L 695.161809 280.017642 
L 690.354917 254.487702 
L 685.548026 232.309787 
L 680.741134 218.027198 
L 675.934243 213.265575 
L 671.127351 216.039304 
L 666.320459 222.822938 
L 661.513568 231.242074 
L 656.706676 240.814969 
L 651.899785 252.114549 
L 647.092893 265.744676 
L 642.286001 281.764768 
L 637.47911 299.555294 
L 632.672218 317.949124 
L 627.865327 335.494748 
L 623.058435 350.775533 
L 618.251543 362.727571 
L 613.444652 370.886913 
L 608.63776 375.477434 
L 603.830869 377.235589 
L 599.023977 376.981122 
L 594.217085 375.313043 
L 589.410194 372.769474 
L 584.603302 370.040793 
L 579.796411 367.854277 
L 574.989519 366.709182 
L 570.182627 366.692007 
L 565.375736 367.44667 
L 560.568844 368.353501 
L 555.761953 368.914238 
L 550.955061 369.050979 
L 546.148169 368.938661 
L 541.341278 368.659488 
L 536.534386 368.263045 
L 531.727495 367.945764 
L 526.920603 367.922297 
L 522.113711 368.155149 
L 517.30682 368.322758 
L 512.499928 368.143122 
L 507.693037 367.673105 
L 502.886145 367.218771 
L 498.079253 367.031838 
L 493.272362 367.153586 
L 488.46547 367.468172 
L 483.658579 367.788628 
L 478.851687 367.872346 
L 474.044795 367.77776 
L 469.237904 367.858461 
L 464.431012 367.930868 
L 459.624121 368.768698 
L 454.817229 371.341055 
L 450.010337 373.417367 
L 445.203446 373.014046 
L 440.396554 371.084297 
L 435.589663 369.417316 
L 430.782771 368.9741 
L 425.975879 369.543668 
L 421.168988 370.455171 
L 416.362096 371.073342 
L 411.555205 370.9701 
L 406.748313 370.040846 
L 401.941421 368.8664 
L 397.13453 368.870977 
L 392.327638 371.142748 
L 387.520747 374.622389 
L 382.713855 375.821616 
L 377.906963 370.801159 
L 373.100072 357.698196 
L 368.29318 339.749437 
L 363.486289 322.841445 
L 358.679397 310.43863 
L 353.872505 302.488765 
L 349.065614 296.483866 
L 344.258722 288.328456 
L 339.451831 275.251924 
L 334.644939 260.23194 
L 329.838047 249.938156 
L 325.031156 247.107835 
L 320.224264 247.959432 
L 315.417373 248.066404 
L 310.610481 243.99411 
L 305.803589 226.520643 
L 300.996698 208.543545 
L 296.189806 202.145417 
L 291.382915 188.933597 
L 286.576023 184.512349 
L 281.769131 192.989674 
L 276.96224 199.218786 
L 272.155348 200.347688 
L 267.348457 200.246334 
L 262.541565 200.694149 
L 257.734673 201.58329 
L 252.927782 203.514311 
L 248.12089 206.47071 
L 243.313999 209.556905 
L 238.507107 211.765703 
L 233.700215 212.50285 
L 228.893324 211.704978 
L 224.086432 209.738733 
L 219.279541 207.202395 
L 214.472649 204.685441 
L 209.665757 202.558856 
L 204.858866 200.901863 
L 200.051974 199.625865 
L 195.245083 198.70988 
L 190.438191 198.340674 
L 185.631299 198.818125 
L 180.824408 200.307947 
L 176.017516 202.672612 
L 171.210625 205.518785 
L 166.403733 208.39303 
L 161.596841 210.970125 
L 156.78995 213.132742 
L 151.983058 214.937694 
L 147.176167 216.528985 
L 142.369275 218.05941 
L 137.562383 219.644824 
L 132.755492 221.346349 
L 127.9486 223.169823 
L 123.141709 225.075063 
L 118.334817 226.989931 
L 113.527925 228.824466 
L 108.721034 230.480749 
L 103.914142 231.856675 
L 99.107251 232.847612 
L 94.300359 233.357667 
L 89.493467 233.33673 
L 84.686576 232.853555 
L 79.879684 232.193059 
L 75.072793 231.929384 
L 70.265901 232.897995 
L 65.459009 236.014077 
L 60.652118 241.958445 
L 55.845226 250.827637 
L 51.038335 261.969236 
L 46.231443 274.241173 
L 41.424551 286.543839 
L 36.61766 298.174545 
L 31.810768 308.821439 
L 27.003877 318.37891 
L 22.196985 326.801591 
L 17.390093 334.056093 
L 12.583202 340.126141 
L 7.77631 345.024506 
L 2.969419 348.795799 
L -1.837473 351.512596 
L -6.644365 353.270314 
L -11.451256 354.182906 
L -16.258148 354.378189 
L -21.065039 353.991099 
L -25.871931 353.155957 
L -30.678823 352.002312 
L -35.485714 350.658692 
z
" style="fill:#cc3300;opacity:0.3;stroke:#cc3300;stroke-linejoin:miter;stroke-width:0.5;"/>
   </g>
   <g id="matplotlib.axis_1">
    <g id="xtick_1">
     <g id="line2d_1">
      <defs>
       <path d="M 0 0 
L 0 3.5 
" id="me0b841abb7" style="stroke:#000000;stroke-width:0.8;"/>
      </defs>
      <g>
       <use style="stroke:#000000;stroke-width:0.8;" x="108" xlink:href="#me0b841abb7" y="378"/>
      </g>
     </g>
     <g id="text_1">
      <!-- −0.2 -->
      <defs>
       <path d="M 10.59375 35.5 
L 73.1875 35.5 
L 73.1875 27.203125 
L 10.59375 27.203125 
z
" id="DejaVuSans-2212"/>
       <path d="M 31.78125 66.40625 
Q 24.171875 66.40625 20.328125 58.90625 
Q 16.5 51.421875 16.5 36.375 
Q 16.5 21.390625 20.328125 13.890625 
Q 24.171875 6.390625 31.78125 6.390625 
Q 39.453125 6.390625 43.28125 13.890625 
Q 47.125 21.390625 47.125 36.375 
Q 47.125 51.421875 43.28125 58.90625 
Q 39.453125 66.40625 31.78125 66.40625 
z
M 31.78125 74.21875 
Q 44.046875 74.21875 50.515625 64.515625 
Q 56.984375 54.828125 56.984375 36.375 
Q 56.984375 17.96875 50.515625 8.265625 
Q 44.046875 -1.421875 31.78125 -1.421875 
Q 19.53125 -1.421875 13.0625 8.265625 
Q 6.59375 17.96875 6.59375 36.375 
Q 6.59375 54.828125 13.0625 64.515625 
Q 19.53125 74.21875 31.78125 74.21875 
z
" id="DejaVuSans-30"/>
       <path d="M 10.6875 12.40625 
L 21 12.40625 
L 21 0 
L 10.6875 0 
z
" id="DejaVuSans-2e"/>
       <path d="M 19.1875 8.296875 
L 53.609375 8.296875 
L 53.609375 0 
L 7.328125 0 
L 7.328125 8.296875 
Q 12.9375 14.109375 22.625 23.890625 
Q 32.328125 33.6875 34.8125 36.53125 
Q 39.546875 41.84375 41.421875 45.53125 
Q 43.3125 49.21875 43.3125 52.78125 
Q 43.3125 58.59375 39.234375 62.25 
Q 35.15625 65.921875 28.609375 65.921875 
Q 23.96875 65.921875 18.8125 64.3125 
Q 13.671875 62.703125 7.8125 59.421875 
L 7.8125 69.390625 
Q 13.765625 71.78125 18.9375 73 
Q 24.125 74.21875 28.421875 74.21875 
Q 39.75 74.21875 46.484375 68.546875 
Q 53.21875 62.890625 53.21875 53.421875 
Q 53.21875 48.921875 51.53125 44.890625 
Q 49.859375 40.875 45.40625 35.40625 
Q 44.1875 33.984375 37.640625 27.21875 
Q 31.109375 20.453125 19.1875 8.296875 
z
" id="DejaVuSans-32"/>
      </defs>
      <g transform="translate(95.858594 392.598437)scale(0.1 -0.1)">
       <use xlink:href="#DejaVuSans-2212"/>
       <use x="83.789062" xlink:href="#DejaVuSans-30"/>
       <use x="147.412109" xlink:href="#DejaVuSans-2e"/>
       <use x="179.199219" xlink:href="#DejaVuSans-32"/>
      </g>
     </g>
    </g>
    <g id="xtick_2">
     <g id="line2d_2">
      <g>
       <use style="stroke:#000000;stroke-width:0.8;" x="203.657143" xlink:href="#me0b841abb7" y="378"/>
      </g>
     </g>
     <g id="text_2">
      <!-- 0.0 -->
      <g transform="translate(195.70558 392.598437)scale(0.1 -0.1)">
       <use xlink:href="#DejaVuSans-30"/>
       <use x="63.623047" xlink:href="#DejaVuSans-2e"/>
       <use x="95.410156" xlink:href="#DejaVuSans-30"/>
      </g>
     </g>
    </g>
    <g id="xtick_3">
     <g id="line2d_3">
      <g>
       <use style="stroke:#000000;stroke-width:0.8;" x="299.314286" xlink:href="#me0b841abb7" y="378"/>
      </g>
     </g>
     <g id="text_3">
      <!-- 0.2 -->
      <g transform="translate(291.362723 392.598437)scale(0.1 -0.1)">
       <use xlink:href="#DejaVuSans-30"/>
       <use x="63.623047" xlink:href="#DejaVuSans-2e"/>
       <use x="95.410156" xlink:href="#DejaVuSans-32"/>
      </g>
     </g>
    </g>
    <g id="xtick_4">
     <g id="line2d_4">
      <g>
       <use style="stroke:#000000;stroke-width:0.8;" x="394.971429" xlink:href="#me0b841abb7" y="378"/>
      </g>
     </g>
     <g id="text_4">
      <!-- 0.4 -->
      <defs>
       <path d="M 37.796875 64.3125 
L 12.890625 25.390625 
L 37.796875 25.390625 
z
M 35.203125 72.90625 
L 47.609375 72.90625 
L 47.609375 25.390625 
L 58.015625 25.390625 
L 58.015625 17.1875 
L 47.609375 17.1875 
L 47.609375 0 
L 37.796875 0 
L 37.796875 17.1875 
L 4.890625 17.1875 
L 4.890625 26.703125 
z
" id="DejaVuSans-34"/>
      </defs>
      <g transform="translate(387.019866 392.598437)scale(0.1 -0.1)">
       <use xlink:href="#DejaVuSans-30"/>
       <use x="63.623047" xlink:href="#DejaVuSans-2e"/>
       <use x="95.410156" xlink:href="#DejaVuSans-34"/>
      </g>
     </g>
    </g>
    <g id="xtick_5">
     <g id="line2d_5">
      <g>
       <use style="stroke:#000000;stroke-width:0.8;" x="490.628571" xlink:href="#me0b841abb7" y="378"/>
      </g>
     </g>
     <g id="text_5">
      <!-- 0.6 -->
      <defs>
       <path d="M 33.015625 40.375 
Q 26.375 40.375 22.484375 35.828125 
Q 18.609375 31.296875 18.609375 23.390625 
Q 18.609375 15.53125 22.484375 10.953125 
Q 26.375 6.390625 33.015625 6.390625 
Q 39.65625 6.390625 43.53125 10.953125 
Q 47.40625 15.53125 47.40625 23.390625 
Q 47.40625 31.296875 43.53125 35.828125 
Q 39.65625 40.375 33.015625 40.375 
z
M 52.59375 71.296875 
L 52.59375 62.3125 
Q 48.875 64.0625 45.09375 64.984375 
Q 41.3125 65.921875 37.59375 65.921875 
Q 27.828125 65.921875 22.671875 59.328125 
Q 17.53125 52.734375 16.796875 39.40625 
Q 19.671875 43.65625 24.015625 45.921875 
Q 28.375 48.1875 33.59375 48.1875 
Q 44.578125 48.1875 50.953125 41.515625 
Q 57.328125 34.859375 57.328125 23.390625 
Q 57.328125 12.15625 50.6875 5.359375 
Q 44.046875 -1.421875 33.015625 -1.421875 
Q 20.359375 -1.421875 13.671875 8.265625 
Q 6.984375 17.96875 6.984375 36.375 
Q 6.984375 53.65625 15.1875 63.9375 
Q 23.390625 74.21875 37.203125 74.21875 
Q 40.921875 74.21875 44.703125 73.484375 
Q 48.484375 72.75 52.59375 71.296875 
z
" id="DejaVuSans-36"/>
      </defs>
      <g transform="translate(482.677009 392.598437)scale(0.1 -0.1)">
       <use xlink:href="#DejaVuSans-30"/>
       <use x="63.623047" xlink:href="#DejaVuSans-2e"/>
       <use x="95.410156" xlink:href="#DejaVuSans-36"/>
      </g>
     </g>
    </g>
    <g id="xtick_6">
     <g id="line2d_6">
      <g>
       <use style="stroke:#000000;stroke-width:0.8;" x="586.285714" xlink:href="#me0b841abb7" y="378"/>
      </g>
     </g>
     <g id="text_6">
      <!-- 0.8 -->
      <defs>
       <path d="M 31.78125 34.625 
Q 24.75 34.625 20.71875 30.859375 
Q 16.703125 27.09375 16.703125 20.515625 
Q 16.703125 13.921875 20.71875 10.15625 
Q 24.75 6.390625 31.78125 6.390625 
Q 38.8125 6.390625 42.859375 10.171875 
Q 46.921875 13.96875 46.921875 20.515625 
Q 46.921875 27.09375 42.890625 30.859375 
Q 38.875 34.625 31.78125 34.625 
z
M 21.921875 38.8125 
Q 15.578125 40.375 12.03125 44.71875 
Q 8.5 49.078125 8.5 55.328125 
Q 8.5 64.0625 14.71875 69.140625 
Q 20.953125 74.21875 31.78125 74.21875 
Q 42.671875 74.21875 48.875 69.140625 
Q 55.078125 64.0625 55.078125 55.328125 
Q 55.078125 49.078125 51.53125 44.71875 
Q 48 40.375 41.703125 38.8125 
Q 48.828125 37.15625 52.796875 32.3125 
Q 56.78125 27.484375 56.78125 20.515625 
Q 56.78125 9.90625 50.3125 4.234375 
Q 43.84375 -1.421875 31.78125 -1.421875 
Q 19.734375 -1.421875 13.25 4.234375 
Q 6.78125 9.90625 6.78125 20.515625 
Q 6.78125 27.484375 10.78125 32.3125 
Q 14.796875 37.15625 21.921875 38.8125 
z
M 18.3125 54.390625 
Q 18.3125 48.734375 21.84375 45.5625 
Q 25.390625 42.390625 31.78125 42.390625 
Q 38.140625 42.390625 41.71875 45.5625 
Q 45.3125 48.734375 45.3125 54.390625 
Q 45.3125 60.0625 41.71875 63.234375 
Q 38.140625 66.40625 31.78125 66.40625 
Q 25.390625 66.40625 21.84375 63.234375 
Q 18.3125 60.0625 18.3125 54.390625 
z
" id="DejaVuSans-38"/>
      </defs>
      <g transform="translate(578.334152 392.598437)scale(0.1 -0.1)">
       <use xlink:href="#DejaVuSans-30"/>
       <use x="63.623047" xlink:href="#DejaVuSans-2e"/>
       <use x="95.410156" xlink:href="#DejaVuSans-38"/>
      </g>
     </g>
    </g>
    <g id="xtick_7">
     <g id="line2d_7">
      <g>
       <use style="stroke:#000000;stroke-width:0.8;" x="681.942857" xlink:href="#me0b841abb7" y="378"/>
      </g>
     </g>
     <g id="text_7">
      <!-- 1.0 -->
      <defs>
       <path d="M 12.40625 8.296875 
L 28.515625 8.296875 
L 28.515625 63.921875 
L 10.984375 60.40625 
L 10.984375 69.390625 
L 28.421875 72.90625 
L 38.28125 72.90625 
L 38.28125 8.296875 
L 54.390625 8.296875 
L 54.390625 0 
L 12.40625 0 
z
" id="DejaVuSans-31"/>
      </defs>
      <g transform="translate(673.991295 392.598437)scale(0.1 -0.1)">
       <use xlink:href="#DejaVuSans-31"/>
       <use x="63.623047" xlink:href="#DejaVuSans-2e"/>
       <use x="95.410156" xlink:href="#DejaVuSans-30"/>
      </g>
     </g>
    </g>
    <g id="xtick_8">
     <g id="line2d_8">
      <g>
       <use style="stroke:#000000;stroke-width:0.8;" x="777.6" xlink:href="#me0b841abb7" y="378"/>
      </g>
     </g>
     <g id="text_8">
      <!-- 1.2 -->
      <g transform="translate(769.648438 392.598437)scale(0.1 -0.1)">
       <use xlink:href="#DejaVuSans-31"/>
       <use x="63.623047" xlink:href="#DejaVuSans-2e"/>
       <use x="95.410156" xlink:href="#DejaVuSans-32"/>
      </g>
     </g>
    </g>
    <g id="text_9">
     <!-- time -->
     <defs>
      <path d="M 18.3125 70.21875 
L 18.3125 54.6875 
L 36.8125 54.6875 
L 36.8125 47.703125 
L 18.3125 47.703125 
L 18.3125 18.015625 
Q 18.3125 11.328125 20.140625 9.421875 
Q 21.96875 7.515625 27.59375 7.515625 
L 36.8125 7.515625 
L 36.8125 0 
L 27.59375 0 
Q 17.1875 0 13.234375 3.875 
Q 9.28125 7.765625 9.28125 18.015625 
L 9.28125 47.703125 
L 2.6875 47.703125 
L 2.6875 54.6875 
L 9.28125 54.6875 
L 9.28125 70.21875 
z
" id="DejaVuSans-74"/>
      <path d="M 9.421875 54.6875 
L 18.40625 54.6875 
L 18.40625 0 
L 9.421875 0 
z
M 9.421875 75.984375 
L 18.40625 75.984375 
L 18.40625 64.59375 
L 9.421875 64.59375 
z
" id="DejaVuSans-69"/>
      <path d="M 52 44.1875 
Q 55.375 50.25 60.0625 53.125 
Q 64.75 56 71.09375 56 
Q 79.640625 56 84.28125 50.015625 
Q 88.921875 44.046875 88.921875 33.015625 
L 88.921875 0 
L 79.890625 0 
L 79.890625 32.71875 
Q 79.890625 40.578125 77.09375 44.375 
Q 74.3125 48.1875 68.609375 48.1875 
Q 61.625 48.1875 57.5625 43.546875 
Q 53.515625 38.921875 53.515625 30.90625 
L 53.515625 0 
L 44.484375 0 
L 44.484375 32.71875 
Q 44.484375 40.625 41.703125 44.40625 
Q 38.921875 48.1875 33.109375 48.1875 
Q 26.21875 48.1875 22.15625 43.53125 
Q 18.109375 38.875 18.109375 30.90625 
L 18.109375 0 
L 9.078125 0 
L 9.078125 54.6875 
L 18.109375 54.6875 
L 18.109375 46.1875 
Q 21.1875 51.21875 25.484375 53.609375 
Q 29.78125 56 35.6875 56 
Q 41.65625 56 45.828125 52.96875 
Q 50 49.953125 52 44.1875 
z
" id="DejaVuSans-6d"/>
      <path d="M 56.203125 29.59375 
L 56.203125 25.203125 
L 14.890625 25.203125 
Q 15.484375 15.921875 20.484375 11.0625 
Q 25.484375 6.203125 34.421875 6.203125 
Q 39.59375 6.203125 44.453125 7.46875 
Q 49.3125 8.734375 54.109375 11.28125 
L 54.109375 2.78125 
Q 49.265625 0.734375 44.1875 -0.34375 
Q 39.109375 -1.421875 33.890625 -1.421875 
Q 20.796875 -1.421875 13.15625 6.1875 
Q 5.515625 13.8125 5.515625 26.8125 
Q 5.515625 40.234375 12.765625 48.109375 
Q 20.015625 56 32.328125 56 
Q 43.359375 56 49.78125 48.890625 
Q 56.203125 41.796875 56.203125 29.59375 
z
M 47.21875 32.234375 
Q 47.125 39.59375 43.09375 43.984375 
Q 39.0625 48.390625 32.421875 48.390625 
Q 24.90625 48.390625 20.390625 44.140625 
Q 15.875 39.890625 15.1875 32.171875 
z
" id="DejaVuSans-65"/>
     </defs>
     <g transform="translate(420.207812 413.875)scale(0.2 -0.2)">
      <use xlink:href="#DejaVuSans-74"/>
      <use x="39.208984" xlink:href="#DejaVuSans-69"/>
      <use x="66.992188" xlink:href="#DejaVuSans-6d"/>
      <use x="164.404297" xlink:href="#DejaVuSans-65"/>
     </g>
    </g>
   </g>
   <g id="matplotlib.axis_2">
    <g id="ytick_1">
     <g id="line2d_9">
      <defs>
       <path d="M 0 0 
L -3.5 0 
" id="me20c922cdf" style="stroke:#000000;stroke-width:0.8;"/>
      </defs>
      <g>
       <use style="stroke:#000000;stroke-width:0.8;" x="108" xlink:href="#me20c922cdf" y="367.41039"/>
      </g>
     </g>
     <g id="text_10">
      <!-- −0.5 -->
      <defs>
       <path d="M 10.796875 72.90625 
L 49.515625 72.90625 
L 49.515625 64.59375 
L 19.828125 64.59375 
L 19.828125 46.734375 
Q 21.96875 47.46875 24.109375 47.828125 
Q 26.265625 48.1875 28.421875 48.1875 
Q 40.625 48.1875 47.75 41.5 
Q 54.890625 34.8125 54.890625 23.390625 
Q 54.890625 11.625 47.5625 5.09375 
Q 40.234375 -1.421875 26.90625 -1.421875 
Q 22.3125 -1.421875 17.546875 -0.640625 
Q 12.796875 0.140625 7.71875 1.703125 
L 7.71875 11.625 
Q 12.109375 9.234375 16.796875 8.0625 
Q 21.484375 6.890625 26.703125 6.890625 
Q 35.15625 6.890625 40.078125 11.328125 
Q 45.015625 15.765625 45.015625 23.390625 
Q 45.015625 31 40.078125 35.4375 
Q 35.15625 39.890625 26.703125 39.890625 
Q 22.75 39.890625 18.8125 39.015625 
Q 14.890625 38.140625 10.796875 36.28125 
z
" id="DejaVuSans-35"/>
      </defs>
      <g transform="translate(76.717187 371.209608)scale(0.1 -0.1)">
       <use xlink:href="#DejaVuSans-2212"/>
       <use x="83.789062" xlink:href="#DejaVuSans-30"/>
       <use x="147.412109" xlink:href="#DejaVuSans-2e"/>
       <use x="179.199219" xlink:href="#DejaVuSans-35"/>
      </g>
     </g>
    </g>
    <g id="ytick_2">
     <g id="line2d_10">
      <g>
       <use style="stroke:#000000;stroke-width:0.8;" x="108" xlink:href="#me20c922cdf" y="303.872727"/>
      </g>
     </g>
     <g id="text_11">
      <!-- 0.0 -->
      <g transform="translate(85.096875 307.671946)scale(0.1 -0.1)">
       <use xlink:href="#DejaVuSans-30"/>
       <use x="63.623047" xlink:href="#DejaVuSans-2e"/>
       <use x="95.410156" xlink:href="#DejaVuSans-30"/>
      </g>
     </g>
    </g>
    <g id="ytick_3">
     <g id="line2d_11">
      <g>
       <use style="stroke:#000000;stroke-width:0.8;" x="108" xlink:href="#me20c922cdf" y="240.335065"/>
      </g>
     </g>
     <g id="text_12">
      <!-- 0.5 -->
      <g transform="translate(85.096875 244.134284)scale(0.1 -0.1)">
       <use xlink:href="#DejaVuSans-30"/>
       <use x="63.623047" xlink:href="#DejaVuSans-2e"/>
       <use x="95.410156" xlink:href="#DejaVuSans-35"/>
      </g>
     </g>
    </g>
    <g id="ytick_4">
     <g id="line2d_12">
      <g>
       <use style="stroke:#000000;stroke-width:0.8;" x="108" xlink:href="#me20c922cdf" y="176.797403"/>
      </g>
     </g>
     <g id="text_13">
      <!-- 1.0 -->
      <g transform="translate(85.096875 180.596621)scale(0.1 -0.1)">
       <use xlink:href="#DejaVuSans-31"/>
       <use x="63.623047" xlink:href="#DejaVuSans-2e"/>
       <use x="95.410156" xlink:href="#DejaVuSans-30"/>
      </g>
     </g>
    </g>
    <g id="ytick_5">
     <g id="line2d_13">
      <g>
       <use style="stroke:#000000;stroke-width:0.8;" x="108" xlink:href="#me20c922cdf" y="113.25974"/>
      </g>
     </g>
     <g id="text_14">
      <!-- 1.5 -->
      <g transform="translate(85.096875 117.058959)scale(0.1 -0.1)">
       <use xlink:href="#DejaVuSans-31"/>
       <use x="63.623047" xlink:href="#DejaVuSans-2e"/>
       <use x="95.410156" xlink:href="#DejaVuSans-35"/>
      </g>
     </g>
    </g>
    <g id="text_15">
     <!-- signal strength -->
     <defs>
      <path d="M 44.28125 53.078125 
L 44.28125 44.578125 
Q 40.484375 46.53125 36.375 47.5 
Q 32.28125 48.484375 27.875 48.484375 
Q 21.1875 48.484375 17.84375 46.4375 
Q 14.5 44.390625 14.5 40.28125 
Q 14.5 37.15625 16.890625 35.375 
Q 19.28125 33.59375 26.515625 31.984375 
L 29.59375 31.296875 
Q 39.15625 29.25 43.1875 25.515625 
Q 47.21875 21.78125 47.21875 15.09375 
Q 47.21875 7.46875 41.1875 3.015625 
Q 35.15625 -1.421875 24.609375 -1.421875 
Q 20.21875 -1.421875 15.453125 -0.5625 
Q 10.6875 0.296875 5.421875 2 
L 5.421875 11.28125 
Q 10.40625 8.6875 15.234375 7.390625 
Q 20.0625 6.109375 24.8125 6.109375 
Q 31.15625 6.109375 34.5625 8.28125 
Q 37.984375 10.453125 37.984375 14.40625 
Q 37.984375 18.0625 35.515625 20.015625 
Q 33.0625 21.96875 24.703125 23.78125 
L 21.578125 24.515625 
Q 13.234375 26.265625 9.515625 29.90625 
Q 5.8125 33.546875 5.8125 39.890625 
Q 5.8125 47.609375 11.28125 51.796875 
Q 16.75 56 26.8125 56 
Q 31.78125 56 36.171875 55.265625 
Q 40.578125 54.546875 44.28125 53.078125 
z
" id="DejaVuSans-73"/>
      <path d="M 45.40625 27.984375 
Q 45.40625 37.75 41.375 43.109375 
Q 37.359375 48.484375 30.078125 48.484375 
Q 22.859375 48.484375 18.828125 43.109375 
Q 14.796875 37.75 14.796875 27.984375 
Q 14.796875 18.265625 18.828125 12.890625 
Q 22.859375 7.515625 30.078125 7.515625 
Q 37.359375 7.515625 41.375 12.890625 
Q 45.40625 18.265625 45.40625 27.984375 
z
M 54.390625 6.78125 
Q 54.390625 -7.171875 48.1875 -13.984375 
Q 42 -20.796875 29.203125 -20.796875 
Q 24.46875 -20.796875 20.265625 -20.09375 
Q 16.0625 -19.390625 12.109375 -17.921875 
L 12.109375 -9.1875 
Q 16.0625 -11.328125 19.921875 -12.34375 
Q 23.78125 -13.375 27.78125 -13.375 
Q 36.625 -13.375 41.015625 -8.765625 
Q 45.40625 -4.15625 45.40625 5.171875 
L 45.40625 9.625 
Q 42.625 4.78125 38.28125 2.390625 
Q 33.9375 0 27.875 0 
Q 17.828125 0 11.671875 7.65625 
Q 5.515625 15.328125 5.515625 27.984375 
Q 5.515625 40.671875 11.671875 48.328125 
Q 17.828125 56 27.875 56 
Q 33.9375 56 38.28125 53.609375 
Q 42.625 51.21875 45.40625 46.390625 
L 45.40625 54.6875 
L 54.390625 54.6875 
z
" id="DejaVuSans-67"/>
      <path d="M 54.890625 33.015625 
L 54.890625 0 
L 45.90625 0 
L 45.90625 32.71875 
Q 45.90625 40.484375 42.875 44.328125 
Q 39.84375 48.1875 33.796875 48.1875 
Q 26.515625 48.1875 22.3125 43.546875 
Q 18.109375 38.921875 18.109375 30.90625 
L 18.109375 0 
L 9.078125 0 
L 9.078125 54.6875 
L 18.109375 54.6875 
L 18.109375 46.1875 
Q 21.34375 51.125 25.703125 53.5625 
Q 30.078125 56 35.796875 56 
Q 45.21875 56 50.046875 50.171875 
Q 54.890625 44.34375 54.890625 33.015625 
z
" id="DejaVuSans-6e"/>
      <path d="M 34.28125 27.484375 
Q 23.390625 27.484375 19.1875 25 
Q 14.984375 22.515625 14.984375 16.5 
Q 14.984375 11.71875 18.140625 8.90625 
Q 21.296875 6.109375 26.703125 6.109375 
Q 34.1875 6.109375 38.703125 11.40625 
Q 43.21875 16.703125 43.21875 25.484375 
L 43.21875 27.484375 
z
M 52.203125 31.203125 
L 52.203125 0 
L 43.21875 0 
L 43.21875 8.296875 
Q 40.140625 3.328125 35.546875 0.953125 
Q 30.953125 -1.421875 24.3125 -1.421875 
Q 15.921875 -1.421875 10.953125 3.296875 
Q 6 8.015625 6 15.921875 
Q 6 25.140625 12.171875 29.828125 
Q 18.359375 34.515625 30.609375 34.515625 
L 43.21875 34.515625 
L 43.21875 35.40625 
Q 43.21875 41.609375 39.140625 45 
Q 35.0625 48.390625 27.6875 48.390625 
Q 23 48.390625 18.546875 47.265625 
Q 14.109375 46.140625 10.015625 43.890625 
L 10.015625 52.203125 
Q 14.9375 54.109375 19.578125 55.046875 
Q 24.21875 56 28.609375 56 
Q 40.484375 56 46.34375 49.84375 
Q 52.203125 43.703125 52.203125 31.203125 
z
" id="DejaVuSans-61"/>
      <path d="M 9.421875 75.984375 
L 18.40625 75.984375 
L 18.40625 0 
L 9.421875 0 
z
" id="DejaVuSans-6c"/>
      <path id="DejaVuSans-20"/>
      <path d="M 41.109375 46.296875 
Q 39.59375 47.171875 37.8125 47.578125 
Q 36.03125 48 33.890625 48 
Q 26.265625 48 22.1875 43.046875 
Q 18.109375 38.09375 18.109375 28.8125 
L 18.109375 0 
L 9.078125 0 
L 9.078125 54.6875 
L 18.109375 54.6875 
L 18.109375 46.1875 
Q 20.953125 51.171875 25.484375 53.578125 
Q 30.03125 56 36.53125 56 
Q 37.453125 56 38.578125 55.875 
Q 39.703125 55.765625 41.0625 55.515625 
z
" id="DejaVuSans-72"/>
      <path d="M 54.890625 33.015625 
L 54.890625 0 
L 45.90625 0 
L 45.90625 32.71875 
Q 45.90625 40.484375 42.875 44.328125 
Q 39.84375 48.1875 33.796875 48.1875 
Q 26.515625 48.1875 22.3125 43.546875 
Q 18.109375 38.921875 18.109375 30.90625 
L 18.109375 0 
L 9.078125 0 
L 9.078125 75.984375 
L 18.109375 75.984375 
L 18.109375 46.1875 
Q 21.34375 51.125 25.703125 53.5625 
Q 30.078125 56 35.796875 56 
Q 45.21875 56 50.046875 50.171875 
Q 54.890625 44.34375 54.890625 33.015625 
z
" id="DejaVuSans-68"/>
     </defs>
     <g transform="translate(68.557812 290.012187)rotate(-90)scale(0.2 -0.2)">
      <use xlink:href="#DejaVuSans-73"/>
      <use x="52.099609" xlink:href="#DejaVuSans-69"/>
      <use x="79.882812" xlink:href="#DejaVuSans-67"/>
      <use x="143.359375" xlink:href="#DejaVuSans-6e"/>
      <use x="206.738281" xlink:href="#DejaVuSans-61"/>
      <use x="268.017578" xlink:href="#DejaVuSans-6c"/>
      <use x="295.800781" xlink:href="#DejaVuSans-20"/>
      <use x="327.587891" xlink:href="#DejaVuSans-73"/>
      <use x="379.6875" xlink:href="#DejaVuSans-74"/>
      <use x="418.896484" xlink:href="#DejaVuSans-72"/>
      <use x="459.978516" xlink:href="#DejaVuSans-65"/>
      <use x="521.501953" xlink:href="#DejaVuSans-6e"/>
      <use x="584.880859" xlink:href="#DejaVuSans-67"/>
      <use x="648.357422" xlink:href="#DejaVuSans-74"/>
      <use x="687.566406" xlink:href="#DejaVuSans-68"/>
     </g>
    </g>
   </g>
   <g id="line2d_14">
    <defs>
     <path d="M 0 2.5 
C 0.663008 2.5 1.29895 2.236584 1.767767 1.767767 
C 2.236584 1.29895 2.5 0.663008 2.5 0 
C 2.5 -0.663008 2.236584 -1.29895 1.767767 -1.767767 
C 1.29895 -2.236584 0.663008 -2.5 0 -2.5 
C -0.663008 -2.5 -1.29895 -2.236584 -1.767767 -1.767767 
C -2.236584 -1.29895 -2.5 -0.663008 -2.5 0 
C -2.5 0.663008 -2.236584 1.29895 -1.767767 1.767767 
C -1.29895 2.236584 -0.663008 2.5 0 2.5 
z
" id="m53d290a0bc" style="stroke:#ff0000;"/>
    </defs>
    <g clip-path="url(#pd9501fd436)">
     <use style="fill:#ff0000;stroke:#ff0000;" x="203.657143" xlink:href="#m53d290a0bc" y="152.717338"/>
     <use style="fill:#ff0000;stroke:#ff0000;" x="205.892123" xlink:href="#m53d290a0bc" y="152.717338"/>
     <use style="fill:#ff0000;stroke:#ff0000;" x="208.127103" xlink:href="#m53d290a0bc" y="152.717338"/>
     <use style="fill:#ff0000;stroke:#ff0000;" x="210.362083" xlink:href="#m53d290a0bc" y="152.717338"/>
     <use style="fill:#ff0000;stroke:#ff0000;" x="212.597063" xlink:href="#m53d290a0bc" y="159.256475"/>
     <use style="fill:#ff0000;stroke:#ff0000;" x="214.832043" xlink:href="#m53d290a0bc" y="165.795613"/>
     <use style="fill:#ff0000;stroke:#ff0000;" x="217.067023" xlink:href="#m53d290a0bc" y="172.33475"/>
     <use style="fill:#ff0000;stroke:#ff0000;" x="219.302003" xlink:href="#m53d290a0bc" y="159.256475"/>
     <use style="fill:#ff0000;stroke:#ff0000;" x="221.536983" xlink:href="#m53d290a0bc" y="165.795613"/>
     <use style="fill:#ff0000;stroke:#ff0000;" x="223.771963" xlink:href="#m53d290a0bc" y="172.33475"/>
     <use style="fill:#ff0000;stroke:#ff0000;" x="226.006943" xlink:href="#m53d290a0bc" y="172.33475"/>
     <use style="fill:#ff0000;stroke:#ff0000;" x="228.241923" xlink:href="#m53d290a0bc" y="172.33475"/>
     <use style="fill:#ff0000;stroke:#ff0000;" x="230.476903" xlink:href="#m53d290a0bc" y="172.33475"/>
     <use style="fill:#ff0000;stroke:#ff0000;" x="232.711883" xlink:href="#m53d290a0bc" y="165.795613"/>
     <use style="fill:#ff0000;stroke:#ff0000;" x="234.946862" xlink:href="#m53d290a0bc" y="191.952162"/>
     <use style="fill:#ff0000;stroke:#ff0000;" x="237.181842" xlink:href="#m53d290a0bc" y="191.952162"/>
     <use style="fill:#ff0000;stroke:#ff0000;" x="239.416822" xlink:href="#m53d290a0bc" y="185.413025"/>
     <use style="fill:#ff0000;stroke:#ff0000;" x="241.651802" xlink:href="#m53d290a0bc" y="172.33475"/>
     <use style="fill:#ff0000;stroke:#ff0000;" x="243.886782" xlink:href="#m53d290a0bc" y="178.873887"/>
     <use style="fill:#ff0000;stroke:#ff0000;" x="246.121762" xlink:href="#m53d290a0bc" y="191.952162"/>
     <use style="fill:#ff0000;stroke:#ff0000;" x="248.356742" xlink:href="#m53d290a0bc" y="172.33475"/>
     <use style="fill:#ff0000;stroke:#ff0000;" x="250.591722" xlink:href="#m53d290a0bc" y="165.795613"/>
     <use style="fill:#ff0000;stroke:#ff0000;" x="252.826702" xlink:href="#m53d290a0bc" y="152.717338"/>
     <use style="fill:#ff0000;stroke:#ff0000;" x="255.061682" xlink:href="#m53d290a0bc" y="152.717338"/>
     <use style="fill:#ff0000;stroke:#ff0000;" x="257.296662" xlink:href="#m53d290a0bc" y="159.256475"/>
     <use style="fill:#ff0000;stroke:#ff0000;" x="259.531642" xlink:href="#m53d290a0bc" y="159.256475"/>
     <use style="fill:#ff0000;stroke:#ff0000;" x="261.766622" xlink:href="#m53d290a0bc" y="178.873887"/>
     <use style="fill:#ff0000;stroke:#ff0000;" x="264.001602" xlink:href="#m53d290a0bc" y="172.33475"/>
     <use style="fill:#ff0000;stroke:#ff0000;" x="266.236582" xlink:href="#m53d290a0bc" y="133.099925"/>
     <use style="fill:#ff0000;stroke:#ff0000;" x="268.471562" xlink:href="#m53d290a0bc" y="152.717338"/>
     <use style="fill:#ff0000;stroke:#ff0000;" x="270.706542" xlink:href="#m53d290a0bc" y="152.717338"/>
     <use style="fill:#ff0000;stroke:#ff0000;" x="272.941522" xlink:href="#m53d290a0bc" y="165.795613"/>
     <use style="fill:#ff0000;stroke:#ff0000;" x="275.176502" xlink:href="#m53d290a0bc" y="172.33475"/>
     <use style="fill:#ff0000;stroke:#ff0000;" x="277.411482" xlink:href="#m53d290a0bc" y="165.795613"/>
     <use style="fill:#ff0000;stroke:#ff0000;" x="279.646462" xlink:href="#m53d290a0bc" y="139.639063"/>
     <use style="fill:#ff0000;stroke:#ff0000;" x="281.881442" xlink:href="#m53d290a0bc" y="133.099925"/>
     <use style="fill:#ff0000;stroke:#ff0000;" x="284.116422" xlink:href="#m53d290a0bc" y="139.639063"/>
     <use style="fill:#ff0000;stroke:#ff0000;" x="286.351402" xlink:href="#m53d290a0bc" y="139.639063"/>
     <use style="fill:#ff0000;stroke:#ff0000;" x="288.586382" xlink:href="#m53d290a0bc" y="133.099925"/>
     <use style="fill:#ff0000;stroke:#ff0000;" x="290.821362" xlink:href="#m53d290a0bc" y="139.639063"/>
     <use style="fill:#ff0000;stroke:#ff0000;" x="293.056342" xlink:href="#m53d290a0bc" y="120.02165"/>
     <use style="fill:#ff0000;stroke:#ff0000;" x="295.291322" xlink:href="#m53d290a0bc" y="139.639063"/>
     <use style="fill:#ff0000;stroke:#ff0000;" x="297.526302" xlink:href="#m53d290a0bc" y="172.33475"/>
     <use style="fill:#ff0000;stroke:#ff0000;" x="299.761282" xlink:href="#m53d290a0bc" y="178.873887"/>
     <use style="fill:#ff0000;stroke:#ff0000;" x="301.996262" xlink:href="#m53d290a0bc" y="172.33475"/>
     <use style="fill:#ff0000;stroke:#ff0000;" x="304.231242" xlink:href="#m53d290a0bc" y="139.639063"/>
     <use style="fill:#ff0000;stroke:#ff0000;" x="306.466222" xlink:href="#m53d290a0bc" y="185.413025"/>
     <use style="fill:#ff0000;stroke:#ff0000;" x="308.701202" xlink:href="#m53d290a0bc" y="211.569575"/>
     <use style="fill:#ff0000;stroke:#ff0000;" x="310.936182" xlink:href="#m53d290a0bc" y="185.413025"/>
     <use style="fill:#ff0000;stroke:#ff0000;" x="313.171162" xlink:href="#m53d290a0bc" y="191.952162"/>
     <use style="fill:#ff0000;stroke:#ff0000;" x="315.406142" xlink:href="#m53d290a0bc" y="237.726125"/>
     <use style="fill:#ff0000;stroke:#ff0000;" x="317.641121" xlink:href="#m53d290a0bc" y="198.4913"/>
     <use style="fill:#ff0000;stroke:#ff0000;" x="319.876101" xlink:href="#m53d290a0bc" y="198.4913"/>
     <use style="fill:#ff0000;stroke:#ff0000;" x="322.111081" xlink:href="#m53d290a0bc" y="205.030437"/>
     <use style="fill:#ff0000;stroke:#ff0000;" x="324.346061" xlink:href="#m53d290a0bc" y="211.569575"/>
     <use style="fill:#ff0000;stroke:#ff0000;" x="326.581041" xlink:href="#m53d290a0bc" y="205.030437"/>
     <use style="fill:#ff0000;stroke:#ff0000;" x="328.816021" xlink:href="#m53d290a0bc" y="224.64785"/>
     <use style="fill:#ff0000;stroke:#ff0000;" x="331.051001" xlink:href="#m53d290a0bc" y="211.569575"/>
     <use style="fill:#ff0000;stroke:#ff0000;" x="333.285981" xlink:href="#m53d290a0bc" y="205.030437"/>
     <use style="fill:#ff0000;stroke:#ff0000;" x="335.520961" xlink:href="#m53d290a0bc" y="231.186987"/>
     <use style="fill:#ff0000;stroke:#ff0000;" x="337.755941" xlink:href="#m53d290a0bc" y="211.569575"/>
     <use style="fill:#ff0000;stroke:#ff0000;" x="339.990921" xlink:href="#m53d290a0bc" y="205.030437"/>
     <use style="fill:#ff0000;stroke:#ff0000;" x="342.225901" xlink:href="#m53d290a0bc" y="218.108712"/>
     <use style="fill:#ff0000;stroke:#ff0000;" x="344.460881" xlink:href="#m53d290a0bc" y="224.64785"/>
     <use style="fill:#ff0000;stroke:#ff0000;" x="346.695861" xlink:href="#m53d290a0bc" y="218.108712"/>
     <use style="fill:#ff0000;stroke:#ff0000;" x="348.930841" xlink:href="#m53d290a0bc" y="237.726125"/>
     <use style="fill:#ff0000;stroke:#ff0000;" x="351.165821" xlink:href="#m53d290a0bc" y="335.813187"/>
     <use style="fill:#ff0000;stroke:#ff0000;" x="353.400801" xlink:href="#m53d290a0bc" y="335.813187"/>
     <use style="fill:#ff0000;stroke:#ff0000;" x="355.635781" xlink:href="#m53d290a0bc" y="335.813187"/>
     <use style="fill:#ff0000;stroke:#ff0000;" x="357.870761" xlink:href="#m53d290a0bc" y="250.8044"/>
     <use style="fill:#ff0000;stroke:#ff0000;" x="360.105741" xlink:href="#m53d290a0bc" y="237.726125"/>
     <use style="fill:#ff0000;stroke:#ff0000;" x="362.340721" xlink:href="#m53d290a0bc" y="237.726125"/>
     <use style="fill:#ff0000;stroke:#ff0000;" x="364.575701" xlink:href="#m53d290a0bc" y="231.186987"/>
     <use style="fill:#ff0000;stroke:#ff0000;" x="366.810681" xlink:href="#m53d290a0bc" y="276.960949"/>
     <use style="fill:#ff0000;stroke:#ff0000;" x="369.045661" xlink:href="#m53d290a0bc" y="276.960949"/>
     <use style="fill:#ff0000;stroke:#ff0000;" x="371.280641" xlink:href="#m53d290a0bc" y="276.960949"/>
     <use style="fill:#ff0000;stroke:#ff0000;" x="373.515621" xlink:href="#m53d290a0bc" y="276.960949"/>
     <use style="fill:#ff0000;stroke:#ff0000;" x="375.750601" xlink:href="#m53d290a0bc" y="348.891461"/>
     <use style="fill:#ff0000;stroke:#ff0000;" x="377.985581" xlink:href="#m53d290a0bc" y="348.891461"/>
     <use style="fill:#ff0000;stroke:#ff0000;" x="380.220561" xlink:href="#m53d290a0bc" y="348.891461"/>
     <use style="fill:#ff0000;stroke:#ff0000;" x="382.455541" xlink:href="#m53d290a0bc" y="348.891461"/>
     <use style="fill:#ff0000;stroke:#ff0000;" x="384.690521" xlink:href="#m53d290a0bc" y="348.891461"/>
     <use style="fill:#ff0000;stroke:#ff0000;" x="386.925501" xlink:href="#m53d290a0bc" y="348.891461"/>
     <use style="fill:#ff0000;stroke:#ff0000;" x="389.160481" xlink:href="#m53d290a0bc" y="348.891461"/>
     <use style="fill:#ff0000;stroke:#ff0000;" x="391.395461" xlink:href="#m53d290a0bc" y="348.891461"/>
     <use style="fill:#ff0000;stroke:#ff0000;" x="393.630441" xlink:href="#m53d290a0bc" y="348.891461"/>
     <use style="fill:#ff0000;stroke:#ff0000;" x="395.865421" xlink:href="#m53d290a0bc" y="348.891461"/>
     <use style="fill:#ff0000;stroke:#ff0000;" x="398.100401" xlink:href="#m53d290a0bc" y="348.891461"/>
     <use style="fill:#ff0000;stroke:#ff0000;" x="400.335381" xlink:href="#m53d290a0bc" y="348.891461"/>
     <use style="fill:#ff0000;stroke:#ff0000;" x="402.57036" xlink:href="#m53d290a0bc" y="348.891461"/>
     <use style="fill:#ff0000;stroke:#ff0000;" x="404.80534" xlink:href="#m53d290a0bc" y="348.891461"/>
     <use style="fill:#ff0000;stroke:#ff0000;" x="407.04032" xlink:href="#m53d290a0bc" y="348.891461"/>
     <use style="fill:#ff0000;stroke:#ff0000;" x="409.2753" xlink:href="#m53d290a0bc" y="348.891461"/>
     <use style="fill:#ff0000;stroke:#ff0000;" x="411.51028" xlink:href="#m53d290a0bc" y="348.891461"/>
     <use style="fill:#ff0000;stroke:#ff0000;" x="413.74526" xlink:href="#m53d290a0bc" y="348.891461"/>
     <use style="fill:#ff0000;stroke:#ff0000;" x="415.98024" xlink:href="#m53d290a0bc" y="348.891461"/>
     <use style="fill:#ff0000;stroke:#ff0000;" x="418.21522" xlink:href="#m53d290a0bc" y="348.891461"/>
     <use style="fill:#ff0000;stroke:#ff0000;" x="420.4502" xlink:href="#m53d290a0bc" y="348.891461"/>
     <use style="fill:#ff0000;stroke:#ff0000;" x="422.68518" xlink:href="#m53d290a0bc" y="348.891461"/>
     <use style="fill:#ff0000;stroke:#ff0000;" x="424.92016" xlink:href="#m53d290a0bc" y="348.891461"/>
     <use style="fill:#ff0000;stroke:#ff0000;" x="427.15514" xlink:href="#m53d290a0bc" y="348.891461"/>
     <use style="fill:#ff0000;stroke:#ff0000;" x="429.39012" xlink:href="#m53d290a0bc" y="348.891461"/>
     <use style="fill:#ff0000;stroke:#ff0000;" x="431.6251" xlink:href="#m53d290a0bc" y="348.891461"/>
     <use style="fill:#ff0000;stroke:#ff0000;" x="433.86008" xlink:href="#m53d290a0bc" y="348.891461"/>
     <use style="fill:#ff0000;stroke:#ff0000;" x="436.09506" xlink:href="#m53d290a0bc" y="348.891461"/>
     <use style="fill:#ff0000;stroke:#ff0000;" x="438.33004" xlink:href="#m53d290a0bc" y="348.891461"/>
     <use style="fill:#ff0000;stroke:#ff0000;" x="440.56502" xlink:href="#m53d290a0bc" y="348.891461"/>
     <use style="fill:#ff0000;stroke:#ff0000;" x="442.8" xlink:href="#m53d290a0bc" y="348.891461"/>
     <use style="fill:#ff0000;stroke:#ff0000;" x="445.03498" xlink:href="#m53d290a0bc" y="348.891461"/>
     <use style="fill:#ff0000;stroke:#ff0000;" x="447.26996" xlink:href="#m53d290a0bc" y="348.891461"/>
     <use style="fill:#ff0000;stroke:#ff0000;" x="449.50494" xlink:href="#m53d290a0bc" y="348.891461"/>
     <use style="fill:#ff0000;stroke:#ff0000;" x="451.73992" xlink:href="#m53d290a0bc" y="348.891461"/>
     <use style="fill:#ff0000;stroke:#ff0000;" x="453.9749" xlink:href="#m53d290a0bc" y="348.891461"/>
     <use style="fill:#ff0000;stroke:#ff0000;" x="456.20988" xlink:href="#m53d290a0bc" y="348.891461"/>
     <use style="fill:#ff0000;stroke:#ff0000;" x="458.44486" xlink:href="#m53d290a0bc" y="348.891461"/>
     <use style="fill:#ff0000;stroke:#ff0000;" x="460.67984" xlink:href="#m53d290a0bc" y="348.891461"/>
     <use style="fill:#ff0000;stroke:#ff0000;" x="462.91482" xlink:href="#m53d290a0bc" y="348.891461"/>
     <use style="fill:#ff0000;stroke:#ff0000;" x="465.1498" xlink:href="#m53d290a0bc" y="348.891461"/>
     <use style="fill:#ff0000;stroke:#ff0000;" x="467.38478" xlink:href="#m53d290a0bc" y="348.891461"/>
     <use style="fill:#ff0000;stroke:#ff0000;" x="469.61976" xlink:href="#m53d290a0bc" y="348.891461"/>
     <use style="fill:#ff0000;stroke:#ff0000;" x="471.85474" xlink:href="#m53d290a0bc" y="348.891461"/>
     <use style="fill:#ff0000;stroke:#ff0000;" x="474.08972" xlink:href="#m53d290a0bc" y="348.891461"/>
     <use style="fill:#ff0000;stroke:#ff0000;" x="476.3247" xlink:href="#m53d290a0bc" y="348.891461"/>
     <use style="fill:#ff0000;stroke:#ff0000;" x="478.55968" xlink:href="#m53d290a0bc" y="348.891461"/>
     <use style="fill:#ff0000;stroke:#ff0000;" x="480.79466" xlink:href="#m53d290a0bc" y="348.891461"/>
     <use style="fill:#ff0000;stroke:#ff0000;" x="483.02964" xlink:href="#m53d290a0bc" y="348.891461"/>
     <use style="fill:#ff0000;stroke:#ff0000;" x="485.264619" xlink:href="#m53d290a0bc" y="348.891461"/>
     <use style="fill:#ff0000;stroke:#ff0000;" x="487.499599" xlink:href="#m53d290a0bc" y="348.891461"/>
     <use style="fill:#ff0000;stroke:#ff0000;" x="489.734579" xlink:href="#m53d290a0bc" y="348.891461"/>
     <use style="fill:#ff0000;stroke:#ff0000;" x="491.969559" xlink:href="#m53d290a0bc" y="348.891461"/>
     <use style="fill:#ff0000;stroke:#ff0000;" x="494.204539" xlink:href="#m53d290a0bc" y="348.891461"/>
     <use style="fill:#ff0000;stroke:#ff0000;" x="496.439519" xlink:href="#m53d290a0bc" y="348.891461"/>
     <use style="fill:#ff0000;stroke:#ff0000;" x="498.674499" xlink:href="#m53d290a0bc" y="348.891461"/>
     <use style="fill:#ff0000;stroke:#ff0000;" x="500.909479" xlink:href="#m53d290a0bc" y="348.891461"/>
     <use style="fill:#ff0000;stroke:#ff0000;" x="503.144459" xlink:href="#m53d290a0bc" y="348.891461"/>
     <use style="fill:#ff0000;stroke:#ff0000;" x="505.379439" xlink:href="#m53d290a0bc" y="348.891461"/>
     <use style="fill:#ff0000;stroke:#ff0000;" x="507.614419" xlink:href="#m53d290a0bc" y="348.891461"/>
     <use style="fill:#ff0000;stroke:#ff0000;" x="509.849399" xlink:href="#m53d290a0bc" y="348.891461"/>
     <use style="fill:#ff0000;stroke:#ff0000;" x="512.084379" xlink:href="#m53d290a0bc" y="348.891461"/>
     <use style="fill:#ff0000;stroke:#ff0000;" x="514.319359" xlink:href="#m53d290a0bc" y="348.891461"/>
     <use style="fill:#ff0000;stroke:#ff0000;" x="516.554339" xlink:href="#m53d290a0bc" y="348.891461"/>
     <use style="fill:#ff0000;stroke:#ff0000;" x="518.789319" xlink:href="#m53d290a0bc" y="348.891461"/>
     <use style="fill:#ff0000;stroke:#ff0000;" x="521.024299" xlink:href="#m53d290a0bc" y="348.891461"/>
     <use style="fill:#ff0000;stroke:#ff0000;" x="523.259279" xlink:href="#m53d290a0bc" y="348.891461"/>
     <use style="fill:#ff0000;stroke:#ff0000;" x="525.494259" xlink:href="#m53d290a0bc" y="348.891461"/>
     <use style="fill:#ff0000;stroke:#ff0000;" x="527.729239" xlink:href="#m53d290a0bc" y="348.891461"/>
     <use style="fill:#ff0000;stroke:#ff0000;" x="529.964219" xlink:href="#m53d290a0bc" y="348.891461"/>
     <use style="fill:#ff0000;stroke:#ff0000;" x="532.199199" xlink:href="#m53d290a0bc" y="348.891461"/>
     <use style="fill:#ff0000;stroke:#ff0000;" x="534.434179" xlink:href="#m53d290a0bc" y="348.891461"/>
     <use style="fill:#ff0000;stroke:#ff0000;" x="536.669159" xlink:href="#m53d290a0bc" y="348.891461"/>
     <use style="fill:#ff0000;stroke:#ff0000;" x="538.904139" xlink:href="#m53d290a0bc" y="348.891461"/>
     <use style="fill:#ff0000;stroke:#ff0000;" x="541.139119" xlink:href="#m53d290a0bc" y="348.891461"/>
     <use style="fill:#ff0000;stroke:#ff0000;" x="543.374099" xlink:href="#m53d290a0bc" y="348.891461"/>
     <use style="fill:#ff0000;stroke:#ff0000;" x="545.609079" xlink:href="#m53d290a0bc" y="348.891461"/>
     <use style="fill:#ff0000;stroke:#ff0000;" x="547.844059" xlink:href="#m53d290a0bc" y="348.891461"/>
     <use style="fill:#ff0000;stroke:#ff0000;" x="550.079039" xlink:href="#m53d290a0bc" y="348.891461"/>
     <use style="fill:#ff0000;stroke:#ff0000;" x="552.314019" xlink:href="#m53d290a0bc" y="348.891461"/>
     <use style="fill:#ff0000;stroke:#ff0000;" x="554.548999" xlink:href="#m53d290a0bc" y="348.891461"/>
     <use style="fill:#ff0000;stroke:#ff0000;" x="556.783979" xlink:href="#m53d290a0bc" y="348.891461"/>
     <use style="fill:#ff0000;stroke:#ff0000;" x="559.018959" xlink:href="#m53d290a0bc" y="348.891461"/>
     <use style="fill:#ff0000;stroke:#ff0000;" x="561.253939" xlink:href="#m53d290a0bc" y="348.891461"/>
     <use style="fill:#ff0000;stroke:#ff0000;" x="563.488919" xlink:href="#m53d290a0bc" y="348.891461"/>
     <use style="fill:#ff0000;stroke:#ff0000;" x="565.723899" xlink:href="#m53d290a0bc" y="348.891461"/>
     <use style="fill:#ff0000;stroke:#ff0000;" x="567.958879" xlink:href="#m53d290a0bc" y="348.891461"/>
     <use style="fill:#ff0000;stroke:#ff0000;" x="570.193858" xlink:href="#m53d290a0bc" y="348.891461"/>
     <use style="fill:#ff0000;stroke:#ff0000;" x="572.428838" xlink:href="#m53d290a0bc" y="348.891461"/>
     <use style="fill:#ff0000;stroke:#ff0000;" x="574.663818" xlink:href="#m53d290a0bc" y="348.891461"/>
     <use style="fill:#ff0000;stroke:#ff0000;" x="576.898798" xlink:href="#m53d290a0bc" y="348.891461"/>
     <use style="fill:#ff0000;stroke:#ff0000;" x="579.133778" xlink:href="#m53d290a0bc" y="348.891461"/>
     <use style="fill:#ff0000;stroke:#ff0000;" x="581.368758" xlink:href="#m53d290a0bc" y="348.891461"/>
     <use style="fill:#ff0000;stroke:#ff0000;" x="583.603738" xlink:href="#m53d290a0bc" y="348.891461"/>
     <use style="fill:#ff0000;stroke:#ff0000;" x="585.838718" xlink:href="#m53d290a0bc" y="348.891461"/>
     <use style="fill:#ff0000;stroke:#ff0000;" x="588.073698" xlink:href="#m53d290a0bc" y="348.891461"/>
     <use style="fill:#ff0000;stroke:#ff0000;" x="590.308678" xlink:href="#m53d290a0bc" y="348.891461"/>
     <use style="fill:#ff0000;stroke:#ff0000;" x="592.543658" xlink:href="#m53d290a0bc" y="348.891461"/>
     <use style="fill:#ff0000;stroke:#ff0000;" x="594.778638" xlink:href="#m53d290a0bc" y="348.891461"/>
     <use style="fill:#ff0000;stroke:#ff0000;" x="597.013618" xlink:href="#m53d290a0bc" y="348.891461"/>
     <use style="fill:#ff0000;stroke:#ff0000;" x="599.248598" xlink:href="#m53d290a0bc" y="348.891461"/>
     <use style="fill:#ff0000;stroke:#ff0000;" x="601.483578" xlink:href="#m53d290a0bc" y="348.891461"/>
     <use style="fill:#ff0000;stroke:#ff0000;" x="603.718558" xlink:href="#m53d290a0bc" y="348.891461"/>
     <use style="fill:#ff0000;stroke:#ff0000;" x="605.953538" xlink:href="#m53d290a0bc" y="348.891461"/>
     <use style="fill:#ff0000;stroke:#ff0000;" x="608.188518" xlink:href="#m53d290a0bc" y="348.891461"/>
     <use style="fill:#ff0000;stroke:#ff0000;" x="610.423498" xlink:href="#m53d290a0bc" y="348.891461"/>
     <use style="fill:#ff0000;stroke:#ff0000;" x="612.658478" xlink:href="#m53d290a0bc" y="348.891461"/>
     <use style="fill:#ff0000;stroke:#ff0000;" x="614.893458" xlink:href="#m53d290a0bc" y="348.891461"/>
     <use style="fill:#ff0000;stroke:#ff0000;" x="617.128438" xlink:href="#m53d290a0bc" y="348.891461"/>
     <use style="fill:#ff0000;stroke:#ff0000;" x="619.363418" xlink:href="#m53d290a0bc" y="348.891461"/>
     <use style="fill:#ff0000;stroke:#ff0000;" x="621.598398" xlink:href="#m53d290a0bc" y="348.891461"/>
     <use style="fill:#ff0000;stroke:#ff0000;" x="623.833378" xlink:href="#m53d290a0bc" y="348.891461"/>
     <use style="fill:#ff0000;stroke:#ff0000;" x="626.068358" xlink:href="#m53d290a0bc" y="348.891461"/>
     <use style="fill:#ff0000;stroke:#ff0000;" x="628.303338" xlink:href="#m53d290a0bc" y="237.726125"/>
     <use style="fill:#ff0000;stroke:#ff0000;" x="630.538318" xlink:href="#m53d290a0bc" y="211.569575"/>
     <use style="fill:#ff0000;stroke:#ff0000;" x="632.773298" xlink:href="#m53d290a0bc" y="191.952162"/>
     <use style="fill:#ff0000;stroke:#ff0000;" x="635.008278" xlink:href="#m53d290a0bc" y="224.64785"/>
     <use style="fill:#ff0000;stroke:#ff0000;" x="637.243258" xlink:href="#m53d290a0bc" y="237.726125"/>
     <use style="fill:#ff0000;stroke:#ff0000;" x="639.478238" xlink:href="#m53d290a0bc" y="211.569575"/>
     <use style="fill:#ff0000;stroke:#ff0000;" x="641.713218" xlink:href="#m53d290a0bc" y="257.343537"/>
     <use style="fill:#ff0000;stroke:#ff0000;" x="643.948198" xlink:href="#m53d290a0bc" y="224.64785"/>
     <use style="fill:#ff0000;stroke:#ff0000;" x="646.183178" xlink:href="#m53d290a0bc" y="191.952162"/>
     <use style="fill:#ff0000;stroke:#ff0000;" x="648.418158" xlink:href="#m53d290a0bc" y="224.64785"/>
     <use style="fill:#ff0000;stroke:#ff0000;" x="650.653138" xlink:href="#m53d290a0bc" y="191.952162"/>
     <use style="fill:#ff0000;stroke:#ff0000;" x="652.888117" xlink:href="#m53d290a0bc" y="205.030437"/>
     <use style="fill:#ff0000;stroke:#ff0000;" x="655.123097" xlink:href="#m53d290a0bc" y="191.952162"/>
     <use style="fill:#ff0000;stroke:#ff0000;" x="657.358077" xlink:href="#m53d290a0bc" y="218.108712"/>
     <use style="fill:#ff0000;stroke:#ff0000;" x="659.593057" xlink:href="#m53d290a0bc" y="191.952162"/>
     <use style="fill:#ff0000;stroke:#ff0000;" x="661.828037" xlink:href="#m53d290a0bc" y="211.569575"/>
     <use style="fill:#ff0000;stroke:#ff0000;" x="664.063017" xlink:href="#m53d290a0bc" y="191.952162"/>
     <use style="fill:#ff0000;stroke:#ff0000;" x="666.297997" xlink:href="#m53d290a0bc" y="191.952162"/>
     <use style="fill:#ff0000;stroke:#ff0000;" x="668.532977" xlink:href="#m53d290a0bc" y="165.795613"/>
     <use style="fill:#ff0000;stroke:#ff0000;" x="670.767957" xlink:href="#m53d290a0bc" y="152.717338"/>
     <use style="fill:#ff0000;stroke:#ff0000;" x="673.002937" xlink:href="#m53d290a0bc" y="165.795613"/>
     <use style="fill:#ff0000;stroke:#ff0000;" x="675.237917" xlink:href="#m53d290a0bc" y="172.33475"/>
     <use style="fill:#ff0000;stroke:#ff0000;" x="677.472897" xlink:href="#m53d290a0bc" y="178.873887"/>
     <use style="fill:#ff0000;stroke:#ff0000;" x="679.707877" xlink:href="#m53d290a0bc" y="172.33475"/>
     <use style="fill:#ff0000;stroke:#ff0000;" x="681.942857" xlink:href="#m53d290a0bc" y="165.795613"/>
    </g>
   </g>
   <g id="line2d_15">
    <path clip-path="url(#pd9501fd436)" d="M -1 213.620891 
L 2.969419 213.009869 
L 7.77631 211.823029 
L 12.583202 210.225697 
L 17.390093 208.264486 
L 22.196985 205.985037 
L 27.003877 203.416509 
L 31.810768 200.553492 
L 36.61766 197.345652 
L 41.424551 193.717736 
L 46.231443 189.642939 
L 55.845226 180.908351 
L 60.652118 177.095227 
L 65.459009 174.216958 
L 70.265901 172.397061 
L 75.072793 171.465175 
L 79.879684 171.089979 
L 89.493467 170.75501 
L 94.300359 170.409883 
L 99.107251 169.853037 
L 103.914142 169.100625 
L 123.141709 165.638795 
L 127.9486 165.14779 
L 132.755492 164.967788 
L 137.562383 165.113925 
L 142.369275 165.532298 
L 151.983058 166.55684 
L 156.78995 166.686842 
L 161.596841 166.249103 
L 166.403733 165.146778 
L 171.210625 163.489305 
L 176.017516 161.597043 
L 180.824408 159.902763 
L 185.631299 158.781554 
L 190.438191 158.411002 
L 195.245083 158.759067 
L 200.051974 159.695598 
L 204.858866 161.1222 
L 209.665757 163.010518 
L 214.472649 165.322359 
L 224.086432 170.327321 
L 228.893324 172.159826 
L 233.700215 172.918841 
L 238.507107 172.329253 
L 243.313999 170.4254 
L 252.927782 164.732563 
L 257.734673 162.504418 
L 262.541565 161.241755 
L 267.348457 160.740264 
L 272.155348 160.484751 
L 276.96224 157.507803 
L 281.769131 147.165136 
L 286.576023 136.4947 
L 291.382915 143.09589 
L 296.189806 157.103863 
L 300.996698 165.327322 
L 305.803589 183.346158 
L 310.610481 202.873949 
L 315.417373 208.848222 
L 320.224264 208.753093 
L 325.031156 207.682816 
L 329.838047 209.630395 
L 334.644939 218.033121 
L 339.451831 230.929527 
L 344.258722 242.299713 
L 349.065614 249.539233 
L 353.872505 255.272677 
L 358.679397 263.771922 
L 363.486289 278.141739 
L 368.29318 298.920661 
L 373.100072 322.70656 
L 377.906963 342.443408 
L 382.713855 352.130242 
L 387.520747 352.178236 
L 392.327638 348.184838 
L 397.13453 345.415046 
L 401.941421 345.643906 
L 406.748313 347.586072 
L 411.555205 349.029522 
L 416.362096 348.823485 
L 421.168988 347.278606 
L 425.975879 345.446419 
L 430.782771 344.63232 
L 435.589663 345.786756 
L 440.396554 348.770473 
L 445.203446 352.005531 
L 450.010337 353.115626 
L 454.817229 351.401261 
L 459.624121 348.959534 
L 464.431012 347.635169 
L 469.237904 347.580824 
L 478.851687 348.825573 
L 483.658579 348.905681 
L 498.079253 348.141295 
L 502.886145 348.180968 
L 512.499928 348.652687 
L 517.30682 348.57027 
L 522.113711 348.094182 
L 526.920603 347.440505 
L 531.727495 347.018921 
L 536.534386 347.160176 
L 541.341278 347.864318 
L 546.148169 348.749281 
L 550.955061 349.258277 
L 555.761953 349.004144 
L 560.568844 348.018103 
L 565.375736 346.744871 
L 570.182627 345.823437 
L 574.989519 345.81506 
L 579.796411 347.001677 
L 584.603302 349.280311 
L 589.410194 352.137084 
L 594.217085 354.696893 
L 599.023977 355.852702 
L 603.830869 354.460599 
L 608.63776 349.564085 
L 613.444652 340.600337 
L 618.251543 327.54139 
L 623.058435 310.933022 
L 627.865327 291.81539 
L 637.47911 251.536614 
L 642.286001 233.058462 
L 647.092893 216.997016 
L 651.899785 203.747003 
L 656.706676 193.172949 
L 661.513568 184.727096 
L 666.320459 177.830689 
L 671.127351 172.561326 
L 675.934243 170.301675 
L 680.741134 173.529418 
L 685.548026 184.336783 
L 690.354917 202.709166 
L 695.161809 226.085704 
L 699.968701 250.262819 
L 704.775592 270.455432 
L 709.582484 282.219701 
L 714.389375 283.356758 
L 719.196267 275.985957 
L 724.003159 265.351526 
L 728.81005 256.050231 
L 733.616942 250.10429 
L 738.423833 247.753036 
L 743.230725 249.016934 
L 748.037617 254.631172 
L 752.844508 265.087495 
L 757.6514 277.542466 
L 762.458291 284.261954 
L 767.265183 275.144393 
L 772.072075 246.116024 
L 776.878966 210.450476 
L 781.685858 190.381146 
L 786.492749 193.181095 
L 791.299641 208.301462 
L 796.106533 223.934036 
L 800.913424 235.365051 
L 805.720316 242.504389 
L 810.527207 246.548278 
L 815.334099 248.643661 
L 820.140991 249.625248 
L 824.947882 250.044837 
L 853.789232 251.283706 
L 865 251.846814 
L 865 251.846814 
" style="fill:none;stroke:#3300ff;stroke-linecap:square;stroke-width:2;"/>
   </g>
   <g id="line2d_16">
    <path clip-path="url(#pd9501fd436)" d="M -1 76.202516 
L 2.969419 77.223938 
L 7.77631 78.621552 
L 12.583202 80.325252 
L 17.390093 82.47288 
L 22.196985 85.168483 
L 27.003877 88.454108 
L 31.810768 92.285545 
L 46.231443 105.044705 
L 51.038335 108.53959 
L 55.845226 110.989064 
L 60.652118 112.232009 
L 65.459009 112.419839 
L 70.265901 111.896126 
L 75.072793 111.000967 
L 84.686576 109.017861 
L 89.493467 108.173291 
L 99.107251 106.858463 
L 108.721034 105.940802 
L 113.527925 105.713685 
L 118.334817 105.763832 
L 123.141709 106.202528 
L 127.9486 107.125756 
L 132.755492 108.589226 
L 137.562383 110.583026 
L 142.369275 113.005186 
L 151.983058 118.175986 
L 156.78995 120.240941 
L 161.596841 121.528081 
L 166.403733 121.900526 
L 171.210625 121.459825 
L 185.631299 118.744983 
L 190.438191 118.48133 
L 195.245083 118.808253 
L 200.051974 119.76533 
L 204.858866 121.342538 
L 209.665757 123.46218 
L 224.086432 130.915908 
L 228.893324 132.614674 
L 233.700215 133.334832 
L 238.507107 132.892803 
L 243.313999 131.293894 
L 248.12089 128.798248 
L 252.927782 125.950815 
L 257.734673 123.425546 
L 262.541565 121.789361 
L 272.155348 120.621815 
L 276.96224 115.79682 
L 281.769131 101.340598 
L 286.576023 88.477052 
L 291.382915 97.258182 
L 296.189806 112.062309 
L 300.996698 122.1111 
L 305.803589 140.171672 
L 310.610481 161.753787 
L 315.417373 169.630039 
L 320.224264 169.546753 
L 325.031156 168.257797 
L 329.838047 169.322634 
L 334.644939 175.834301 
L 339.451831 186.60713 
L 344.258722 196.27097 
L 349.065614 202.594599 
L 353.872505 208.056589 
L 358.679397 217.105215 
L 363.486289 233.442034 
L 368.29318 258.091885 
L 373.100072 287.714923 
L 377.906963 314.085656 
L 382.713855 328.438869 
L 387.520747 329.734083 
L 392.327638 325.226928 
L 397.13453 321.959116 
L 401.941421 322.421411 
L 406.748313 325.131299 
L 411.555205 327.088943 
L 416.362096 326.573628 
L 421.168988 324.102041 
L 425.975879 321.34917 
L 430.782771 320.29054 
L 435.589663 322.156196 
L 440.396554 326.456649 
L 445.203446 330.997016 
L 450.010337 332.813885 
L 454.817229 331.461467 
L 459.624121 329.15037 
L 464.431012 327.33947 
L 469.237904 327.303186 
L 474.044795 328.727463 
L 478.851687 329.7788 
L 483.658579 330.022734 
L 488.46547 329.858514 
L 498.079253 329.250753 
L 502.886145 329.143165 
L 512.499928 329.162252 
L 517.30682 328.817782 
L 522.113711 328.033216 
L 526.920603 326.958713 
L 531.727495 326.092078 
L 536.534386 326.057307 
L 541.341278 327.069147 
L 546.148169 328.559902 
L 550.955061 329.465574 
L 555.761953 329.094051 
L 560.568844 327.682705 
L 565.375736 326.043072 
L 570.182627 324.954867 
L 574.989519 324.920938 
L 579.796411 326.149078 
L 584.603302 328.51983 
L 589.410194 331.504694 
L 594.217085 334.080743 
L 599.023977 334.724281 
L 603.830869 331.685609 
L 608.63776 323.650736 
L 613.444652 310.31376 
L 618.251543 292.355209 
L 623.058435 271.090511 
L 632.672218 225.133495 
L 637.47911 203.517933 
L 642.286001 184.352155 
L 647.092893 168.249356 
L 651.899785 155.379457 
L 656.706676 145.530928 
L 661.513568 138.212117 
L 666.320459 132.838441 
L 671.127351 129.083349 
L 675.934243 127.337776 
L 680.741134 129.031638 
L 685.548026 136.36378 
L 690.354917 150.930631 
L 695.161809 172.153767 
L 699.968701 196.874011 
L 704.775592 219.786657 
L 709.582484 234.482136 
L 714.389375 236.457635 
L 719.196267 227.397011 
L 724.003159 214.000892 
L 728.81005 202.450326 
L 733.616942 195.916545 
L 738.423833 194.869962 
L 743.230725 198.383228 
L 748.037617 206.003928 
L 752.844508 218.188546 
L 757.6514 232.622418 
L 762.458291 240.494281 
L 767.265183 228.469095 
L 772.072075 187.671471 
L 776.878966 128.093307 
L 781.685858 77.027387 
L 786.492749 53.716891 
L 791.299641 55.276881 
L 800.913424 80.18289 
L 805.720316 89.333134 
L 810.527207 94.983787 
L 815.334099 98.119347 
L 820.140991 99.737355 
L 824.947882 100.57936 
L 853.789232 103.678967 
L 865 104.674952 
L 865 104.674952 
" style="fill:none;stroke:#3300ff;stroke-linecap:square;stroke-width:0.2;"/>
   </g>
   <g id="line2d_17">
    <path clip-path="url(#pd9501fd436)" d="M -1 351.039267 
L 2.969419 348.795799 
L 7.77631 345.024506 
L 12.583202 340.126141 
L 17.390093 334.056093 
L 22.196985 326.801591 
L 27.003877 318.37891 
L 31.810768 308.821439 
L 36.61766 298.174545 
L 41.424551 286.543839 
L 51.038335 261.969236 
L 55.845226 250.827637 
L 60.652118 241.958445 
L 65.459009 236.014077 
L 70.265901 232.897995 
L 75.072793 231.929384 
L 79.879684 232.193059 
L 84.686576 232.853555 
L 89.493467 233.33673 
L 94.300359 233.357667 
L 99.107251 232.847612 
L 103.914142 231.856675 
L 108.721034 230.480749 
L 113.527925 228.824466 
L 123.141709 225.075063 
L 132.755492 221.346349 
L 142.369275 218.05941 
L 151.983058 214.937694 
L 156.78995 213.132742 
L 161.596841 210.970125 
L 166.403733 208.39303 
L 176.017516 202.672612 
L 180.824408 200.307947 
L 185.631299 198.818125 
L 190.438191 198.340674 
L 195.245083 198.70988 
L 200.051974 199.625865 
L 204.858866 200.901863 
L 209.665757 202.558856 
L 214.472649 204.685441 
L 224.086432 209.738733 
L 228.893324 211.704978 
L 233.700215 212.50285 
L 238.507107 211.765703 
L 243.313999 209.556905 
L 252.927782 203.514311 
L 257.734673 201.58329 
L 262.541565 200.694149 
L 267.348457 200.246334 
L 272.155348 200.347688 
L 276.96224 199.218786 
L 281.769131 192.989674 
L 286.576023 184.512349 
L 291.382915 188.933597 
L 296.189806 202.145417 
L 300.996698 208.543545 
L 305.803589 226.520643 
L 310.610481 243.99411 
L 315.417373 248.066404 
L 320.224264 247.959432 
L 325.031156 247.107835 
L 329.838047 249.938156 
L 334.644939 260.23194 
L 339.451831 275.251924 
L 344.258722 288.328456 
L 349.065614 296.483866 
L 353.872505 302.488765 
L 358.679397 310.43863 
L 363.486289 322.841445 
L 368.29318 339.749437 
L 373.100072 357.698196 
L 377.906963 370.801159 
L 382.713855 375.821616 
L 387.520747 374.622389 
L 392.327638 371.142748 
L 397.13453 368.870977 
L 401.941421 368.8664 
L 406.748313 370.040846 
L 411.555205 370.9701 
L 416.362096 371.073342 
L 421.168988 370.455171 
L 425.975879 369.543668 
L 430.782771 368.9741 
L 435.589663 369.417316 
L 440.396554 371.084297 
L 445.203446 373.014046 
L 450.010337 373.417367 
L 454.817229 371.341055 
L 459.624121 368.768698 
L 464.431012 367.930868 
L 474.044795 367.77776 
L 478.851687 367.872346 
L 483.658579 367.788628 
L 493.272362 367.153586 
L 498.079253 367.031838 
L 502.886145 367.218771 
L 512.499928 368.143122 
L 517.30682 368.322758 
L 526.920603 367.922297 
L 531.727495 367.945764 
L 546.148169 368.938661 
L 550.955061 369.050979 
L 555.761953 368.914238 
L 560.568844 368.353501 
L 565.375736 367.44667 
L 570.182627 366.692007 
L 574.989519 366.709182 
L 579.796411 367.854277 
L 584.603302 370.040793 
L 589.410194 372.769474 
L 594.217085 375.313043 
L 599.023977 376.981122 
L 603.830869 377.235589 
L 608.63776 375.477434 
L 613.444652 370.886913 
L 618.251543 362.727571 
L 623.058435 350.775533 
L 627.865327 335.494748 
L 632.672218 317.949124 
L 637.47911 299.555294 
L 642.286001 281.764768 
L 647.092893 265.744676 
L 651.899785 252.114549 
L 656.706676 240.814969 
L 661.513568 231.242074 
L 666.320459 222.822938 
L 671.127351 216.039304 
L 675.934243 213.265575 
L 680.741134 218.027198 
L 685.548026 232.309787 
L 690.354917 254.487702 
L 695.161809 280.017642 
L 699.968701 303.651628 
L 704.775592 321.124208 
L 709.582484 329.957266 
L 714.389375 330.255881 
L 719.196267 324.574904 
L 724.003159 316.702159 
L 728.81005 309.650135 
L 733.616942 304.292036 
L 738.423833 300.636111 
L 743.230725 299.650641 
L 748.037617 303.258416 
L 752.844508 311.986445 
L 757.6514 322.462514 
L 762.458291 328.029627 
L 767.265183 321.81969 
L 772.072075 304.560576 
L 776.878966 292.807646 
L 781.685858 303.734905 
L 791.299641 361.326042 
L 796.106533 380.271751 
L 800.913424 390.547212 
L 805.720316 395.675645 
L 810.527207 398.112769 
L 815.334099 399.167975 
L 820.140991 399.513141 
L 824.947882 399.510314 
L 844.175449 398.939793 
L 853.789232 398.888444 
L 865 399.018675 
L 865 399.018675 
" style="fill:none;stroke:#3300ff;stroke-linecap:square;stroke-width:0.2;"/>
   </g>
   <g id="patch_4">
    <path d="M 108 378 
L 108 51.84 
" style="fill:none;stroke:#000000;stroke-linecap:square;stroke-linejoin:miter;stroke-width:0.8;"/>
   </g>
   <g id="patch_5">
    <path d="M 777.6 378 
L 777.6 51.84 
" style="fill:none;stroke:#000000;stroke-linecap:square;stroke-linejoin:miter;stroke-width:0.8;"/>
   </g>
   <g id="patch_6">
    <path d="M 108 378 
L 777.6 378 
" style="fill:none;stroke:#000000;stroke-linecap:square;stroke-linejoin:miter;stroke-width:0.8;"/>
   </g>
   <g id="patch_7">
    <path d="M 108 51.84 
L 777.6 51.84 
" style="fill:none;stroke:#000000;stroke-linecap:square;stroke-linejoin:miter;stroke-width:0.8;"/>
   </g>
  </g>
 </g>
 <defs>
  <clipPath id="pd9501fd436">
   <rect height="326.16" width="669.6" x="108" y="51.84"/>
  </clipPath>
 </defs>
</svg>
