<?xml version="1.0" encoding="utf-8" standalone="no"?>
<!DOCTYPE svg PUBLIC "-//W3C//DTD SVG 1.1//EN"
  "http://www.w3.org/Graphics/SVG/1.1/DTD/svg11.dtd">
<!-- Created with matplotlib (http://matplotlib.org/) -->
<svg height="504pt" version="1.1" viewBox="0 0 100 504" width="100pt" xmlns="http://www.w3.org/2000/svg" xmlns:xlink="http://www.w3.org/1999/xlink">
 <defs>
  <style type="text/css">
*{stroke-linecap:butt;stroke-linejoin:round;}
  </style>
 </defs>
 <g id="figure_1">
  <g id="patch_1">
   <path d="M 0 504 
L 100.8 504 
L 100.8 0 
L 0 0 
z
" style="fill:none;"/>
  </g>
  <g id="axes_1">
   <g id="line2d_1">
    <path clip-path="url(#p8233adaeaa)" d="M 81.481317 123.104765 
L 81.481317 120.619655 
L 81.481317 118.134545 
L 81.481317 115.649436 
L 81.481317 113.164326 
L 81.481317 110.679216 
L 81.481317 108.194107 
L 81.481317 105.708997 
L 81.481317 103.223887 
L 81.481317 100.738777 
L 81.481317 98.253668 
L 81.481317 95.768558 
L 81.481317 93.283448 
L 81.481317 90.798339 
L 81.481317 88.313229 
L 81.481317 85.828119 
L 81.481317 83.343009 
L 81.481317 80.8579 
L 81.481317 78.37279 
L 81.481317 75.88768 
L 81.481317 73.402571 
L 81.481317 70.917461 
L 81.481317 68.432351 
L 81.481317 65.947241 
L 81.481317 63.462132 
L 81.481317 63.462132 
L 78.996207 63.462132 
L 76.511097 63.462132 
L 74.025987 63.462132 
L 71.540878 63.462132 
L 69.055768 63.462132 
L 66.570658 63.462132 
L 64.085549 63.462132 
L 61.600439 63.462132 
L 59.115329 63.462132 
L 56.630219 63.462132 
L 54.14511 63.462132 
L 51.66 63.462132 
L 49.17489 63.462132 
L 46.689781 63.462132 
L 44.204671 63.462132 
L 41.719561 63.462132 
L 39.234451 63.462132 
L 36.749342 63.462132 
L 34.264232 63.462132 
L 31.779122 63.462132 
L 29.294013 63.462132 
L 26.808903 63.462132 
L 24.323793 63.462132 
L 21.838683 63.462132 
L 21.838683 63.462132 
L 21.838683 65.947241 
L 21.838683 68.432351 
L 21.838683 70.917461 
L 21.838683 73.402571 
L 21.838683 75.88768 
L 21.838683 78.37279 
L 21.838683 80.8579 
L 21.838683 83.343009 
L 21.838683 85.828119 
L 21.838683 88.313229 
L 21.838683 90.798339 
L 21.838683 93.283448 
L 21.838683 95.768558 
L 21.838683 98.253668 
L 21.838683 100.738777 
L 21.838683 103.223887 
L 21.838683 105.708997 
L 21.838683 108.194107 
L 21.838683 110.679216 
L 21.838683 113.164326 
L 21.838683 115.649436 
L 21.838683 118.134545 
L 21.838683 120.619655 
L 21.838683 123.104765 
L 21.838683 123.104765 
L 24.323793 123.104765 
L 26.808903 123.104765 
L 29.294013 123.104765 
L 31.779122 123.104765 
L 34.264232 123.104765 
L 36.749342 123.104765 
L 39.234451 123.104765 
L 41.719561 123.104765 
L 44.204671 123.104765 
L 46.689781 123.104765 
L 49.17489 123.104765 
L 51.66 123.104765 
L 54.14511 123.104765 
L 56.630219 123.104765 
L 59.115329 123.104765 
L 61.600439 123.104765 
L 64.085549 123.104765 
L 66.570658 123.104765 
L 69.055768 123.104765 
L 71.540878 123.104765 
L 74.025987 123.104765 
L 76.511097 123.104765 
L 78.996207 123.104765 
L 81.481317 123.104765 
" style="fill:none;stroke:#0000ff;stroke-linecap:square;stroke-width:2;"/>
   </g>
  </g>
  <g id="axes_2">
   <g id="line2d_2">
    <path clip-path="url(#p64b5824db4)" d="M 16.15091 155.216919 
L 17.167271 157.127292 
L 18.183634 159.037664 
L 19.199995 160.948036 
L 20.216358 162.858408 
L 21.232717 164.768783 
L 22.249078 166.679155 
L 23.265441 168.589526 
L 24.281804 170.4999 
L 25.298163 172.410273 
L 26.314527 174.320645 
L 27.330886 176.231018 
L 28.347247 178.141389 
L 29.36361 180.051762 
L 30.37997 181.962136 
L 31.39633 183.872507 
L 32.412695 185.782881 
L 33.429056 187.693253 
L 34.445416 189.603626 
L 35.461779 191.513998 
L 36.478139 193.42437 
L 37.4945 195.334744 
L 38.510863 197.245115 
L 39.527226 199.155489 
L 40.543583 201.065861 
L 40.543586 201.065863 
L 42.486313 200.555056 
L 44.429045 200.04425 
L 46.371772 199.533444 
L 48.314503 199.022639 
L 50.257234 198.511834 
L 52.199964 198.001029 
L 54.142692 197.490222 
L 56.08542 196.979416 
L 58.028148 196.46861 
L 59.970879 195.957806 
L 61.913608 195.447 
L 63.856338 194.936193 
L 65.799066 194.425388 
L 67.741795 193.914584 
L 69.684524 193.403779 
L 71.627253 192.892973 
L 73.569984 192.382166 
L 75.512713 191.871361 
L 77.455443 191.360558 
L 79.398172 190.849746 
L 81.340902 190.338945 
L 83.283632 189.828139 
L 85.22636 189.317334 
L 87.169091 188.80653 
L 87.169091 188.806529 
L 86.152729 186.896155 
L 85.136367 184.985783 
L 84.120004 183.075411 
L 83.103643 181.165035 
L 82.087282 179.254666 
L 81.070919 177.344293 
L 80.054559 175.433918 
L 79.038198 173.523548 
L 78.021836 171.613175 
L 77.005474 169.702804 
L 75.989114 167.79243 
L 74.972749 165.882057 
L 73.956389 163.971684 
L 72.940028 162.06131 
L 71.923667 160.150939 
L 70.907307 158.240566 
L 69.890944 156.330193 
L 68.874582 154.419821 
L 67.858222 152.509451 
L 66.841858 150.599077 
L 65.825497 148.688702 
L 64.809137 146.778332 
L 63.792775 144.867957 
L 62.776413 142.957585 
L 62.776414 142.957585 
L 60.833686 143.468392 
L 58.890956 143.979199 
L 56.948225 144.490001 
L 55.005498 145.000809 
L 53.062765 145.511612 
L 51.120038 146.02242 
L 49.17731 146.533224 
L 47.234579 147.04403 
L 45.29185 147.554837 
L 43.349121 148.065643 
L 41.40639 148.576447 
L 39.463661 149.087253 
L 37.520933 149.598059 
L 35.578202 150.108865 
L 33.635474 150.619668 
L 31.692746 151.130474 
L 29.750017 151.641281 
L 27.807285 152.152085 
L 25.864556 152.662891 
L 23.921827 153.173696 
L 21.979098 153.684503 
L 20.036369 154.195309 
L 18.093639 154.706114 
L 16.150909 155.21692 
" style="fill:none;stroke:#0000ff;stroke-linecap:square;stroke-width:2;"/>
   </g>
  </g>
  <g id="axes_3">
   <g id="line2d_3">
    <path clip-path="url(#p25a871e633)" d="M 16.150913 251.229673 
L 17.74544 251.808583 
L 19.339972 252.387491 
L 20.934503 252.966403 
L 22.529031 253.545309 
L 24.12356 254.12422 
L 25.718088 254.703128 
L 27.312616 255.282037 
L 28.907149 255.860944 
L 30.501678 256.439855 
L 32.096208 257.018763 
L 33.690735 257.597673 
L 35.285264 258.176582 
L 36.879793 258.755489 
L 38.474323 259.334398 
L 40.068851 259.913309 
L 41.663382 260.492219 
L 43.25791 261.071129 
L 44.852439 261.650037 
L 46.446971 262.228945 
L 48.041497 262.807855 
L 49.636027 263.386765 
L 51.23056 263.965672 
L 52.825087 264.544583 
L 54.419615 265.123489 
L 54.41962 265.123492 
L 55.784176 264.503778 
L 57.14874 263.884062 
L 58.513298 263.264345 
L 59.877861 262.644631 
L 61.242427 262.024916 
L 62.606988 261.405198 
L 63.971546 260.785485 
L 65.336107 260.16577 
L 66.700667 259.546052 
L 68.065233 258.926338 
L 69.429793 258.306626 
L 70.794355 257.686909 
L 72.158914 257.067194 
L 73.523474 256.447478 
L 74.888036 255.827762 
L 76.252596 255.208048 
L 77.617158 254.588332 
L 78.981721 253.968619 
L 80.346284 253.348902 
L 81.710841 252.729185 
L 83.075407 252.109472 
L 84.439965 251.489759 
L 85.804528 250.870043 
L 87.169091 250.250325 
L 87.16909 250.250326 
L 85.57456 249.671416 
L 83.980029 249.092507 
L 82.385501 248.513599 
L 80.790973 247.934691 
L 79.196442 247.355781 
L 77.601913 246.776873 
L 76.00738 246.197961 
L 74.412856 245.619053 
L 72.818325 245.040145 
L 71.223796 244.461235 
L 69.629268 243.882327 
L 68.034733 243.303417 
L 66.440206 242.724509 
L 64.845677 242.145598 
L 63.251148 241.566689 
L 61.65662 240.98778 
L 60.062091 240.408871 
L 58.46756 239.829965 
L 56.873031 239.251055 
L 55.2785 238.672141 
L 53.683972 238.093234 
L 52.089444 237.514326 
L 50.494914 236.935418 
L 48.900385 236.356508 
L 48.900386 236.356509 
L 47.535825 236.976223 
L 46.171262 237.595941 
L 44.806701 238.215653 
L 43.442144 238.835368 
L 42.077576 239.455084 
L 40.713018 240.074798 
L 39.348456 240.694513 
L 37.983894 241.31423 
L 36.619334 241.933945 
L 35.254772 242.553661 
L 33.890209 243.173375 
L 32.525649 243.793088 
L 31.161086 244.412806 
L 29.796527 245.032521 
L 28.431964 245.652233 
L 27.067404 246.27195 
L 25.702842 246.891667 
L 24.338279 247.511383 
L 22.973717 248.131096 
L 21.609157 248.750814 
L 20.244595 249.370529 
L 18.880035 249.990241 
L 17.515473 250.609958 
L 16.150909 251.229673 
" style="fill:none;stroke:#0000ff;stroke-linecap:square;stroke-width:2;"/>
   </g>
  </g>
  <g id="axes_4">
   <g id="line2d_4">
    <path clip-path="url(#pdda612d26c)" d="M 87.169091 312.521403 
L 86.067819 314.352395 
L 84.966536 316.183377 
L 83.865266 318.014367 
L 82.763988 319.845353 
L 81.662717 321.676341 
L 80.56144 323.507323 
L 79.460173 325.338314 
L 78.358891 327.169294 
L 77.257616 329.000286 
L 76.156341 330.83127 
L 75.055065 332.662262 
L 73.953794 334.493243 
L 72.852517 336.324233 
L 71.751239 338.15521 
L 70.649968 339.986205 
L 69.54869 341.817192 
L 68.447422 343.648178 
L 67.346148 345.479168 
L 66.244872 347.310153 
L 65.143595 349.141138 
L 64.042323 350.972124 
L 62.941042 352.803116 
L 61.839777 354.634106 
L 60.738497 356.465082 
L 60.738494 356.465092 
L 58.880686 356.046341 
L 57.022866 355.627592 
L 55.16505 355.208847 
L 53.307233 354.790096 
L 51.449413 354.37135 
L 49.591592 353.952593 
L 47.733784 353.533856 
L 45.875965 353.115107 
L 44.018151 352.696352 
L 42.160332 352.27761 
L 40.302523 351.858868 
L 38.444703 351.440118 
L 36.586889 351.021369 
L 34.729075 350.602624 
L 32.871255 350.183872 
L 31.01344 349.765126 
L 29.155623 349.346373 
L 27.297813 348.927636 
L 25.439993 348.508885 
L 23.582177 348.090131 
L 21.724363 347.671385 
L 19.866548 347.252639 
L 18.008735 346.833893 
L 16.150909 346.415143 
L 16.150914 346.415143 
L 17.252186 344.584152 
L 18.353461 342.753167 
L 19.454739 340.922185 
L 20.556019 339.09119 
L 21.657286 337.260208 
L 22.758566 335.42922 
L 23.859841 333.598228 
L 24.961111 331.76725 
L 26.062387 329.936263 
L 27.163669 328.105277 
L 28.264939 326.27429 
L 29.366216 324.443303 
L 30.467483 322.61231 
L 31.568763 320.781327 
L 32.67004 318.950337 
L 33.771313 317.119356 
L 34.872583 315.288367 
L 35.973865 313.457381 
L 37.075139 311.62639 
L 38.17641 309.795399 
L 39.277681 307.964412 
L 40.378958 306.133434 
L 41.480236 304.302446 
L 42.581512 302.47146 
L 42.581511 302.471464 
L 44.439324 302.89021 
L 46.297146 303.308959 
L 48.154953 303.727705 
L 50.012771 304.146453 
L 51.870594 304.565198 
L 53.728401 304.983939 
L 55.586218 305.402688 
L 57.444036 305.821438 
L 59.30185 306.240191 
L 61.159667 306.658939 
L 63.017487 307.077682 
L 64.875294 307.496428 
L 66.733119 307.915174 
L 68.590933 308.333926 
L 70.448748 308.752671 
L 72.306564 309.171417 
L 74.164383 309.590172 
L 76.022193 310.00892 
L 77.880011 310.427656 
L 79.737828 310.846412 
L 81.595645 311.26516 
L 83.45346 311.683907 
L 85.311273 312.102657 
L 87.169089 312.521403 
" style="fill:none;stroke:#0000ff;stroke-linecap:square;stroke-width:2;"/>
   </g>
  </g>
  <g id="axes_5">
   <g id="line2d_5">
    <path clip-path="url(#p0ebcc83774)" d="M 17.668397 378.375235 
L 19.322619 379.590279 
L 20.976852 380.805328 
L 22.631076 382.020369 
L 24.285299 383.235414 
L 25.93952 384.450454 
L 27.593743 385.665497 
L 29.247964 386.880538 
L 30.902199 388.095585 
L 32.556423 389.310627 
L 34.210643 390.525671 
L 35.864876 391.740715 
L 37.519094 392.955754 
L 39.173322 394.170799 
L 40.827543 395.385841 
L 42.481768 396.600888 
L 44.135994 397.815931 
L 45.790212 399.030965 
L 47.444441 400.246016 
L 49.098665 401.461059 
L 50.752892 402.676108 
L 52.407113 403.891144 
L 54.061346 405.10619 
L 55.715559 406.321231 
L 57.369788 407.53627 
L 57.369793 407.536276 
L 58.548196 408.806337 
L 59.726606 410.076405 
L 60.905018 411.34647 
L 62.083421 412.616539 
L 63.261836 413.886607 
L 64.440244 415.156678 
L 65.618654 416.426739 
L 66.797064 417.696808 
L 67.975467 418.966873 
L 69.153882 420.236941 
L 70.332285 421.507004 
L 71.510697 422.777073 
L 72.689106 424.047136 
L 73.867511 425.317205 
L 75.045922 426.58727 
L 76.224331 427.857339 
L 77.402738 429.127403 
L 78.581147 430.397466 
L 79.759555 431.667538 
L 80.937958 432.937599 
L 82.11637 434.207667 
L 83.294779 435.477732 
L 84.473188 436.747797 
L 85.651603 438.017868 
L 85.6516 438.017868 
L 83.99737 436.802826 
L 82.34315 435.58778 
L 80.688922 434.372738 
L 79.034695 433.157687 
L 77.380477 431.942648 
L 75.726248 430.727602 
L 74.072017 429.512555 
L 72.417801 428.29752 
L 70.763575 427.082475 
L 69.109347 425.867429 
L 67.455127 424.652391 
L 65.800894 423.437344 
L 64.146678 422.222304 
L 62.49245 421.007259 
L 60.838221 419.792213 
L 59.183999 418.577173 
L 57.52978 417.36213 
L 55.875549 416.147081 
L 54.221329 414.932035 
L 52.567105 413.716996 
L 50.912878 412.501954 
L 49.258656 411.286911 
L 47.604426 410.071869 
L 45.950201 408.856826 
L 45.9502 408.856826 
L 44.771798 407.586761 
L 43.593385 406.31669 
L 42.414984 405.04663 
L 41.236572 403.776561 
L 40.058159 402.506493 
L 38.879755 401.236429 
L 37.701344 399.966364 
L 36.522936 398.696294 
L 35.344531 397.426232 
L 34.166124 396.156166 
L 32.987707 394.886095 
L 31.809307 393.616028 
L 30.63089 392.345965 
L 29.452483 391.0759 
L 28.274074 389.805829 
L 27.095663 388.535766 
L 25.91726 387.265699 
L 24.738853 385.995636 
L 23.560436 384.725567 
L 22.382032 383.455498 
L 21.203623 382.185435 
L 20.025215 380.915367 
L 18.84681 379.645304 
L 17.668398 378.375235 
" style="fill:none;stroke:#0000ff;stroke-linecap:square;stroke-width:2;"/>
   </g>
  </g>
 </g>
 <defs>
  <clipPath id="p8233adaeaa">
   <rect height="65.606897" width="65.606897" x="18.856552" y="60.48"/>
  </clipPath>
  <clipPath id="p64b5824db4">
   <rect height="63.919106" width="78.12" x="12.6" y="140.052171"/>
  </clipPath>
  <clipPath id="p25a871e633">
   <rect height="31.643683" width="78.12" x="12.6" y="234.918158"/>
  </clipPath>
  <clipPath id="pdda612d26c">
   <rect height="59.392996" width="78.12" x="12.6" y="299.771778"/>
  </clipPath>
  <clipPath id="p0ebcc83774">
   <rect height="65.606897" width="74.781527" x="14.269237" y="375.393103"/>
  </clipPath>
 </defs>
</svg>
