<?xml version="1.0" encoding="utf-8" standalone="no"?>
<!DOCTYPE svg PUBLIC "-//W3C//DTD SVG 1.1//EN"
  "http://www.w3.org/Graphics/SVG/1.1/DTD/svg11.dtd">
<!-- Created with matplotlib (http://matplotlib.org/) -->
<svg height="504pt" version="1.1" viewBox="0 0 100 504" width="100pt" xmlns="http://www.w3.org/2000/svg" xmlns:xlink="http://www.w3.org/1999/xlink">
 <defs>
  <style type="text/css">
*{stroke-linecap:butt;stroke-linejoin:round;}
  </style>
 </defs>
 <g id="figure_1">
  <g id="patch_1">
   <path d="M 0 504 
L 100.8 504 
L 100.8 0 
L 0 0 
z
" style="fill:none;"/>
  </g>
  <g id="axes_1">
   <g id="line2d_1">
    <path clip-path="url(#p8583ed7d0b)" d="M 81.481317 123.104765 
L 81.481317 120.619655 
L 81.481317 118.134545 
L 81.481317 115.649436 
L 81.481317 113.164326 
L 81.481317 110.679216 
L 81.481317 108.194107 
L 81.481317 105.708997 
L 81.481317 103.223887 
L 81.481317 100.738777 
L 81.481317 98.253668 
L 81.481317 95.768558 
L 81.481317 93.283448 
L 81.481317 90.798339 
L 81.481317 88.313229 
L 81.481317 85.828119 
L 81.481317 83.343009 
L 81.481317 80.8579 
L 81.481317 78.37279 
L 81.481317 75.88768 
L 81.481317 73.402571 
L 81.481317 70.917461 
L 81.481317 68.432351 
L 81.481317 65.947241 
L 81.481317 63.462132 
L 81.481317 63.462132 
L 78.996207 63.462132 
L 76.511097 63.462132 
L 74.025987 63.462132 
L 71.540878 63.462132 
L 69.055768 63.462132 
L 66.570658 63.462132 
L 64.085549 63.462132 
L 61.600439 63.462132 
L 59.115329 63.462132 
L 56.630219 63.462132 
L 54.14511 63.462132 
L 51.66 63.462132 
L 49.17489 63.462132 
L 46.689781 63.462132 
L 44.204671 63.462132 
L 41.719561 63.462132 
L 39.234451 63.462132 
L 36.749342 63.462132 
L 34.264232 63.462132 
L 31.779122 63.462132 
L 29.294013 63.462132 
L 26.808903 63.462132 
L 24.323793 63.462132 
L 21.838683 63.462132 
L 21.838683 63.462132 
L 21.838683 65.947241 
L 21.838683 68.432351 
L 21.838683 70.917461 
L 21.838683 73.402571 
L 21.838683 75.88768 
L 21.838683 78.37279 
L 21.838683 80.8579 
L 21.838683 83.343009 
L 21.838683 85.828119 
L 21.838683 88.313229 
L 21.838683 90.798339 
L 21.838683 93.283448 
L 21.838683 95.768558 
L 21.838683 98.253668 
L 21.838683 100.738777 
L 21.838683 103.223887 
L 21.838683 105.708997 
L 21.838683 108.194107 
L 21.838683 110.679216 
L 21.838683 113.164326 
L 21.838683 115.649436 
L 21.838683 118.134545 
L 21.838683 120.619655 
L 21.838683 123.104765 
L 21.838683 123.104765 
L 24.323793 123.104765 
L 26.808903 123.104765 
L 29.294013 123.104765 
L 31.779122 123.104765 
L 34.264232 123.104765 
L 36.749342 123.104765 
L 39.234451 123.104765 
L 41.719561 123.104765 
L 44.204671 123.104765 
L 46.689781 123.104765 
L 49.17489 123.104765 
L 51.66 123.104765 
L 54.14511 123.104765 
L 56.630219 123.104765 
L 59.115329 123.104765 
L 61.600439 123.104765 
L 64.085549 123.104765 
L 66.570658 123.104765 
L 69.055768 123.104765 
L 71.540878 123.104765 
L 74.025987 123.104765 
L 76.511097 123.104765 
L 78.996207 123.104765 
L 81.481317 123.104765 
" style="fill:none;stroke:#0000ff;stroke-linecap:square;stroke-width:2;"/>
   </g>
  </g>
  <g id="axes_2">
   <g id="line2d_2">
    <path clip-path="url(#p859ec72844)" d="M 55.931081 142.258794 
L 55.477639 143.87799 
L 54.980771 145.540799 
L 54.445722 147.241597 
L 53.878703 148.974594 
L 53.286812 150.733858 
L 52.677973 152.513322 
L 52.06081 154.306827 
L 51.444583 156.108105 
L 50.839027 157.910838 
L 50.254234 159.708662 
L 49.700517 161.495205 
L 49.188269 163.264077 
L 48.727811 165.008943 
L 48.329246 166.723513 
L 48.00231 168.401575 
L 47.756237 170.037019 
L 47.599629 171.623859 
L 47.540325 173.156251 
L 47.585287 174.628531 
L 47.740503 176.0352 
L 48.010902 177.370998 
L 48.400277 178.63087 
L 48.911237 179.810033 
L 49.54517 180.903956 
L 49.545172 180.90396 
L 48.58828 181.44777 
L 47.698274 182.051885 
L 46.883211 182.715754 
L 46.150583 183.438086 
L 45.50726 184.216783 
L 44.9594 185.048922 
L 44.512404 185.930778 
L 44.170867 186.857812 
L 43.938559 187.824696 
L 43.8184 188.825347 
L 43.812446 189.852988 
L 43.921918 190.900203 
L 44.147214 191.959023 
L 44.487937 193.020996 
L 44.942953 194.077293 
L 45.510432 195.11883 
L 46.187907 196.136347 
L 46.972352 197.12056 
L 47.860242 198.062272 
L 48.847602 198.952496 
L 49.930106 199.782574 
L 51.103127 200.544322 
L 52.36178 201.230118 
L 53.700993 201.833039 
L 53.700989 201.833041 
L 53.319605 200.88537 
L 53.036368 199.787281 
L 52.84904 198.539746 
L 52.754366 197.144715 
L 52.748146 195.605148 
L 52.825246 193.92503 
L 52.979694 192.109372 
L 53.204738 190.164217 
L 53.492932 188.096616 
L 53.836238 185.91461 
L 54.226131 183.627205 
L 54.653716 181.244295 
L 55.10985 178.776636 
L 55.585248 176.23578 
L 56.07063 173.633983 
L 56.556825 170.984118 
L 57.034926 168.299605 
L 57.496368 165.59429 
L 57.93306 162.882357 
L 58.3375 160.17819 
L 58.702843 157.496302 
L 59.022998 154.85117 
L 59.292699 152.257152 
L 59.507553 149.728347 
L 59.507554 149.728351 
L 58.089902 149.380616 
L 56.746001 149.012124 
L 55.483381 148.624552 
L 54.309301 148.219964 
L 53.230705 147.800799 
L 52.254162 147.369876 
L 51.38581 146.930398 
L 50.631307 146.485893 
L 49.995755 146.040223 
L 49.48365 145.597531 
L 49.098834 145.162206 
L 48.844423 144.738832 
L 48.72277 144.332141 
L 48.735391 143.946943 
L 48.88295 143.588074 
L 49.165209 143.26031 
L 49.580993 142.968317 
L 50.128185 142.71656 
L 50.8037 142.509237 
L 51.603473 142.350214 
L 52.522511 142.242948 
L 53.554847 142.190408 
L 54.69362 142.195069 
L 55.931082 142.258793 
" style="fill:none;stroke:#0000ff;stroke-linecap:square;stroke-width:2;"/>
   </g>
  </g>
  <g id="axes_3">
   <g id="line2d_3">
    <path clip-path="url(#p3c2aafdb9b)" d="M 44.492508 280.561317 
L 41.826764 278.777008 
L 38.855198 277.30097 
L 35.733486 276.094029 
L 32.690812 275.074174 
L 30.014815 274.125617 
L 28.021966 273.114113 
L 27.016448 271.905902 
L 27.243923 270.386647 
L 28.849078 268.476628 
L 31.84609 266.139779 
L 36.10883 263.385592 
L 41.383545 260.264869 
L 47.321831 256.860929 
L 53.526752 253.278843 
L 59.602963 249.634186 
L 65.201438 246.042539 
L 70.051651 242.610411 
L 73.978076 239.428025 
L 76.901245 236.564122 
L 78.82648 234.063446 
L 79.825309 231.946746 
L 80.013579 230.21362 
L 79.530231 228.847402 
L 78.518627 227.821667 
L 78.518624 227.821664 
L 80.619966 229.654676 
L 82.199926 231.480504 
L 83.205877 233.252551 
L 83.608288 234.9425 
L 83.40302 236.540327 
L 82.611293 238.052183 
L 81.277193 239.496351 
L 79.463584 240.898185 
L 77.246894 242.284675 
L 74.711623 243.679669 
L 71.944951 245.100267 
L 69.032045 246.554903 
L 66.052147 248.043405 
L 63.075746 249.558732 
L 60.162636 251.090215 
L 57.360925 252.627397 
L 54.707005 254.163835 
L 52.226011 255.700018 
L 49.932887 257.244607 
L 47.833413 258.813504 
L 45.925052 260.426583 
L 44.197101 262.102436 
L 42.630239 263.851751 
L 41.195184 265.670755 
L 41.195179 265.670755 
L 43.425309 263.688773 
L 46.047315 261.379235 
L 49.057614 258.679376 
L 52.421411 255.536809 
L 56.056656 251.920627 
L 59.815425 247.834571 
L 63.466767 243.332844 
L 66.687957 238.538729 
L 69.073922 233.663692 
L 70.174345 229.021319 
L 69.563477 225.025727 
L 66.937483 222.161821 
L 62.220189 220.918683 
L 55.645916 221.688914 
L 47.784076 224.655125 
L 39.481633 229.700355 
L 31.723705 236.382745 
L 25.443256 243.999616 
L 21.332493 251.734112 
L 19.711712 258.843677 
L 20.492091 264.827797 
L 23.236562 269.518664 
L 27.292193 273.067372 
L 31.949724 275.840353 
L 31.949717 275.840345 
L 32.857735 275.595512 
L 33.471755 275.475615 
L 33.854979 275.46031 
L 34.067336 275.521416 
L 34.16175 275.627474 
L 34.182873 275.74826 
L 34.167662 275.858589 
L 34.147041 275.940908 
L 34.147766 275.98656 
L 34.194011 275.995761 
L 34.308416 275.976575 
L 34.512299 275.943254 
L 34.825324 275.914216 
L 35.264374 275.91009 
L 35.842039 275.951824 
L 36.564614 276.059182 
L 37.429718 276.249481 
L 38.423877 276.536812 
L 39.520129 276.931417 
L 40.676083 277.439415 
L 41.832953 278.062519 
L 42.915775 278.797625 
L 43.835408 279.63589 
L 44.492507 280.561314 
" style="fill:none;stroke:#0000ff;stroke-linecap:square;stroke-width:2;"/>
   </g>
  </g>
  <g id="axes_4">
   <g id="line2d_4">
    <path clip-path="url(#pbc2356dab9)" d="M 58.375882 352.656742 
L 63.685644 350.999428 
L 68.645789 349.728083 
L 72.72284 348.876944 
L 75.578037 348.398759 
L 77.261384 348.105119 
L 78.241492 347.653448 
L 79.224966 346.626664 
L 80.845026 344.692762 
L 83.29706 341.814193 
L 85.956221 338.454129 
L 87.169091 335.568726 
L 84.693922 334.089779 
L 77.024869 334.091077 
L 64.759038 334.524875 
L 50.584218 333.997713 
L 37.713769 331.817854 
L 28.195525 328.314407 
L 22.382103 324.3433 
L 19.510128 320.629128 
L 18.530794 317.481105 
L 18.596452 314.890335 
L 19.174181 312.742424 
L 19.984399 310.957875 
L 20.909522 309.529259 
L 20.909527 309.529257 
L 19.191405 312.262367 
L 17.876591 315.124038 
L 16.938644 317.820002 
L 16.361656 320.18789 
L 16.150909 322.193537 
L 16.342381 323.894943 
L 17.010922 325.397599 
L 18.272377 326.813547 
L 20.272258 328.226637 
L 23.155188 329.667112 
L 27.017486 331.101564 
L 31.856979 332.4447 
L 37.541872 333.591289 
L 43.815141 334.455959 
L 50.335969 335.003948 
L 56.742172 335.261304 
L 62.710041 335.304467 
L 67.993811 335.238442 
L 72.437727 335.174583 
L 75.966437 335.215077 
L 78.564792 335.445538 
L 80.258694 335.932894 
L 81.10451 336.724468 
L 81.189845 337.845083 
L 81.189852 337.845085 
L 80.239514 336.775792 
L 77.972027 336.010389 
L 73.889334 335.554232 
L 67.585724 335.228048 
L 59.048589 334.560796 
L 49.021185 332.800196 
L 39.126194 329.20887 
L 31.368445 323.656449 
L 27.1012 317.066429 
L 26.321275 311.098943 
L 28.041446 307.244058 
L 31.339197 306.279809 
L 36.177214 308.339255 
L 43.452147 312.817994 
L 53.843454 318.067732 
L 66.379788 322.107832 
L 78.230814 324.291128 
L 85.07539 326.536477 
L 84.973817 331.12552 
L 81.654534 337.195099 
L 79.547575 342.412555 
L 79.091708 345.822155 
L 78.109812 347.923441 
L 74.817683 349.583174 
L 74.817696 349.583164 
L 74.838132 348.998362 
L 74.755963 348.675024 
L 74.60956 348.55288 
L 74.429103 348.572871 
L 74.240725 348.679494 
L 74.067032 348.823355 
L 73.925072 348.96386 
L 73.823668 349.07125 
L 73.761439 349.127688 
L 73.72607 349.12704 
L 73.694721 349.073664 
L 73.635132 348.980587 
L 73.50698 348.867352 
L 73.263319 348.758033 
L 72.852537 348.679192 
L 72.221517 348.658004 
L 71.321198 348.720254 
L 70.114859 348.888397 
L 68.589255 349.179603 
L 66.766003 349.604593 
L 64.70963 350.167523 
L 62.528092 350.867196 
L 60.363616 351.699005 
L 58.375884 352.656737 
" style="fill:none;stroke:#0000ff;stroke-linecap:square;stroke-width:2;"/>
   </g>
  </g>
  <g id="axes_5">
   <g id="line2d_5">
    <path clip-path="url(#p216147ed58)" d="M 72.772271 414.715811 
L 78.367161 418.728347 
L 82.911056 418.771261 
L 84.106128 416.368876 
L 82.796998 413.678711 
L 81.067515 411.863702 
L 79.639624 410.888514 
L 77.852048 410.138638 
L 74.746787 408.913305 
L 70.291993 406.727619 
L 66.510791 403.760904 
L 66.336639 401.152925 
L 72.453125 401.07744 
L 84.867441 407.793458 
L 74.817141 414.708379 
L 29.763791 399.028386 
L 18.410316 394.493455 
L 36.111062 410.032554 
L 44.181418 420.355721 
L 40.356686 426.186497 
L 33.759995 429.90896 
L 28.383515 432.332273 
L 24.858073 433.809301 
L 22.930981 434.52373 
L 22.288358 434.62077 
L 22.288363 434.620763 
L 23.985695 434.12448 
L 28.010715 432.385652 
L 33.081958 430.154165 
L 37.99248 427.997217 
L 42.100253 426.102683 
L 45.221758 424.396497 
L 47.300201 422.683395 
L 48.085188 420.714771 
L 46.892752 418.174436 
L 42.628281 414.549763 
L 34.563396 409.000348 
L 24.129279 401.113145 
L 16.150909 393.44967 
L 16.726938 391.952672 
L 28.675979 398.976592 
L 48.625572 408.862412 
L 68.400749 414.982217 
L 81.101274 415.863682 
L 85.591082 413.629398 
L 84.777596 410.716092 
L 81.94221 408.50412 
L 79.102932 407.419336 
L 77.116284 407.404011 
L 76.199349 408.231861 
L 76.199333 408.231858 
L 78.499589 408.368819 
L 82.215989 409.878684 
L 85.362677 413.108586 
L 80.398133 415.920182 
L 57.021037 411.013588 
L 26.626135 396.780706 
L 21.554443 396.067399 
L 36.22428 412.732396 
L 37.847793 426.256423 
L 31.085656 431.759854 
L 29.10063 431.546163 
L 30.091747 430.446494 
L 31.404125 429.452285 
L 35.605456 420.676071 
L 53.294232 401.486794 
L 85.691653 387.660747 
L 87.169091 381.772334 
L 75.752874 385.040467 
L 74.131564 395.799258 
L 75.82479 407.244898 
L 77.005122 411.215098 
L 77.868763 410.664903 
L 79.919026 410.924944 
L 83.882806 413.913854 
L 83.882794 413.913845 
L 83.57121 414.186687 
L 83.451117 414.441692 
L 83.462954 414.662216 
L 83.556498 414.843263 
L 83.690449 414.984473 
L 83.831659 415.087961 
L 83.955346 415.158445 
L 84.045442 415.203979 
L 84.094679 415.236476 
L 84.104256 415.272122 
L 84.083236 415.331667 
L 84.046985 415.44045 
L 84.013362 415.627695 
L 83.995211 415.924167 
L 83.987389 416.35675 
L 83.948696 416.938036 
L 83.783201 417.649133 
L 83.334699 418.417258 
L 82.417291 419.096456 
L 80.900784 419.470633 
L 78.828718 419.300401 
L 76.484694 418.415897 
L 74.319879 416.817501 
L 72.772268 414.715815 
" style="fill:none;stroke:#0000ff;stroke-linecap:square;stroke-width:2;"/>
   </g>
  </g>
 </g>
 <defs>
  <clipPath id="p8583ed7d0b">
   <rect height="65.606897" width="65.606897" x="18.856552" y="60.48"/>
  </clipPath>
  <clipPath id="p859ec72844">
   <rect height="65.606897" width="17.264619" x="43.027691" y="139.208276"/>
  </clipPath>
  <clipPath id="p3c2aafdb9b">
   <rect height="65.606897" width="70.286234" x="16.516883" y="217.936552"/>
  </clipPath>
  <clipPath id="pbc2356dab9">
   <rect height="51.014626" width="78.12" x="12.6" y="303.960963"/>
  </clipPath>
  <clipPath id="p216147ed58">
   <rect height="58.13328" width="78.12" x="12.6" y="379.129912"/>
  </clipPath>
 </defs>
</svg>
