<?xml version="1.0" encoding="utf-8" standalone="no"?>
<!DOCTYPE svg PUBLIC "-//W3C//DTD SVG 1.1//EN"
  "http://www.w3.org/Graphics/SVG/1.1/DTD/svg11.dtd">
<!-- Created with matplotlib (http://matplotlib.org/) -->
<svg height="288pt" version="1.1" viewBox="0 0 432 288" width="432pt" xmlns="http://www.w3.org/2000/svg" xmlns:xlink="http://www.w3.org/1999/xlink">
 <defs>
  <style type="text/css">
*{stroke-linecap:butt;stroke-linejoin:round;}
  </style>
 </defs>
 <g id="figure_1">
  <g id="patch_1">
   <path d="M 0 288 
L 432 288 
L 432 0 
L 0 0 
z
" style="fill:none;"/>
  </g>
  <g id="axes_1">
   <g id="patch_2">
    <path d="M 54 252 
L 388.8 252 
L 388.8 34.56 
L 54 34.56 
z
" style="fill:none;"/>
   </g>
   <g id="patch_3">
    <path clip-path="url(#p9fbd7de0b9)" d="M 54 173.954693 
L 55.682412 176.583994 
L 57.364824 179.131127 
L 59.047236 181.591918 
L 60.729648 183.962481 
L 62.41206 186.239235 
L 64.094472 188.418915 
L 65.776884 190.498583 
L 67.459296 192.47564 
L 69.141709 194.347828 
L 70.824121 196.113246 
L 72.506533 197.770353 
L 74.188945 199.317985 
L 75.871357 200.75537 
L 77.553769 202.082155 
L 79.236181 203.298444 
L 80.918593 204.404845 
L 82.601005 205.402544 
L 84.283417 206.293378 
L 85.965829 207.079937 
L 87.648241 207.765654 
L 89.330653 208.354893 
L 91.013065 208.85299 
L 92.695477 209.266251 
L 94.377889 209.601871 
L 96.060302 209.867774 
L 97.742714 210.072386 
L 99.425126 210.224363 
L 101.107538 210.332305 
L 102.78995 210.404492 
L 104.472362 210.448663 
L 106.154774 210.47186 
L 107.837186 210.480328 
L 109.519598 210.479473 
L 111.20201 210.47387 
L 112.884422 210.467295 
L 114.566834 210.462779 
L 116.249246 210.462677 
L 117.931658 210.468737 
L 119.61407 210.482168 
L 121.296482 210.503695 
L 122.978894 210.533619 
L 124.661307 210.571851 
L 126.343719 210.617948 
L 128.026131 210.671125 
L 129.708543 210.730265 
L 131.390955 210.793913 
L 133.073367 210.860258 
L 134.755779 210.927116 
L 136.438191 210.991892 
L 138.120603 211.051554 
L 139.803015 211.102588 
L 141.485427 211.14097 
L 143.167839 211.162132 
L 144.850251 211.160938 
L 146.532663 211.131674 
L 148.215075 211.068053 
L 149.897487 210.963239 
L 151.579899 210.809902 
L 153.262312 210.6003 
L 154.944724 210.326394 
L 156.627136 209.979993 
L 158.309548 209.552923 
L 159.99196 209.037219 
L 161.674372 208.42531 
L 163.356784 207.710197 
L 165.039196 206.885602 
L 166.721608 205.946078 
L 168.40402 204.88708 
L 170.086432 203.704996 
L 171.768844 202.397136 
L 173.451256 200.961713 
L 175.133668 199.397789 
L 176.81608 197.705233 
L 178.498492 195.884669 
L 180.180905 193.93743 
L 181.863317 191.865518 
L 183.545729 189.671573 
L 185.228141 187.35884 
L 186.910553 184.931144 
L 188.592965 182.39287 
L 190.275377 179.748935 
L 191.957789 177.004769 
L 193.640201 174.166288 
L 195.322613 171.23987 
L 197.005025 168.232324 
L 198.687437 165.150857 
L 200.369849 162.003045 
L 202.052261 158.796789 
L 203.734673 155.54028 
L 205.417085 152.241954 
L 207.099497 148.910449 
L 208.78191 145.554557 
L 210.464322 142.183176 
L 212.146734 138.805262 
L 213.829146 135.429775 
L 215.511558 132.065634 
L 217.19397 128.721663 
L 218.876382 125.406539 
L 220.558794 122.128746 
L 222.241206 118.896524 
L 223.923618 115.717825 
L 225.60603 112.600262 
L 227.288442 109.551073 
L 228.970854 106.577076 
L 230.653266 103.684632 
L 232.335678 100.879612 
L 234.01809 98.167363 
L 235.700503 95.552683 
L 237.382915 93.039795 
L 239.065327 90.632324 
L 240.747739 88.333286 
L 242.430151 86.145071 
L 244.112563 84.069433 
L 245.794975 82.107493 
L 247.477387 80.259728 
L 249.159799 78.525984 
L 250.842211 76.90548 
L 252.524623 75.396822 
L 254.207035 73.998019 
L 255.889447 72.70651 
L 257.571859 71.519188 
L 259.254271 70.432438 
L 260.936683 69.44218 
L 262.619095 68.543916 
L 264.301508 67.732796 
L 265.98392 67.003686 
L 267.666332 66.35125 
L 269.348744 65.770047 
L 271.031156 65.254634 
L 272.713568 64.799674 
L 274.39598 64.400053 
L 276.078392 64.050981 
L 277.760804 63.748081 
L 279.443216 63.487446 
L 281.125628 63.265663 
L 282.80804 63.079796 
L 284.490452 62.927325 
L 286.172864 62.806053 
L 287.855276 62.714002 
L 289.537688 62.649287 
L 291.220101 62.610018 
L 292.902513 62.594202 
L 294.584925 62.599691 
L 296.267337 62.624146 
L 297.949749 62.665031 
L 299.632161 62.719636 
L 301.314573 62.785116 
L 302.996985 62.858539 
L 304.679397 62.936954 
L 306.361809 63.017453 
L 308.044221 63.097235 
L 309.726633 63.173676 
L 311.409045 63.244377 
L 313.091457 63.307219 
L 314.773869 63.360396 
L 316.456281 63.402437 
L 318.138693 63.432218 
L 319.821106 63.448952 
L 321.503518 63.452165 
L 323.18593 63.441655 
L 324.868342 63.417434 
L 326.550754 63.379654 
L 328.233166 63.328522 
L 329.915578 63.264197 
L 331.59799 63.186688 
L 333.280402 63.095745 
L 334.962814 62.990752 
L 336.645226 62.870639 
L 338.327638 62.733814 
L 340.01005 62.578141 
L 341.692462 62.400958 
L 343.374874 62.199164 
L 345.057286 61.969362 
L 346.739698 61.708065 
L 348.422111 61.411924 
L 350.104523 61.07797 
L 351.786935 60.703819 
L 353.469347 60.287821 
L 355.151759 59.829132 
L 356.834171 59.327713 
L 358.516583 58.784265 
L 360.198995 58.200121 
L 361.881407 57.577129 
L 363.563819 56.917519 
L 365.246231 56.223791 
L 366.928643 55.498622 
L 368.611055 54.744783 
L 370.293467 53.965087 
L 371.975879 53.16234 
L 373.658291 52.339316 
L 375.340704 51.498734 
L 377.023116 50.643246 
L 378.705528 49.775429 
L 380.38794 48.897779 
L 382.070352 48.01271 
L 383.752764 47.122554 
L 385.435176 46.22956 
L 387.117588 45.335892 
L 388.8 44.443636 
L 388.8 114.708601 
L 387.117588 112.018954 
L 385.435176 109.409435 
L 383.752764 106.884389 
L 382.070352 104.447879 
L 380.38794 102.103671 
L 378.705528 99.855223 
L 377.023116 97.70567 
L 375.340704 95.657816 
L 373.658291 93.714124 
L 371.975879 91.876709 
L 370.293467 90.147328 
L 368.611055 88.527369 
L 366.928643 87.017839 
L 365.246231 85.619339 
L 363.563819 84.332036 
L 361.881407 83.155621 
L 360.198995 82.089248 
L 358.516583 81.13146 
L 356.834171 80.280105 
L 355.151759 79.532232 
L 353.469347 78.884002 
L 351.786935 78.330618 
L 350.104523 77.866295 
L 348.422111 77.484298 
L 346.739698 77.17706 
L 345.057286 76.936369 
L 343.374874 76.753624 
L 341.692462 76.620117 
L 340.01005 76.527315 
L 338.327638 76.467113 
L 336.645226 76.432024 
L 334.962814 76.415313 
L 333.280402 76.41107 
L 331.59799 76.414229 
L 329.915578 76.420549 
L 328.233166 76.426567 
L 326.550754 76.429538 
L 324.868342 76.427364 
L 323.18593 76.418524 
L 321.503518 76.402011 
L 319.821106 76.377274 
L 318.138693 76.344169 
L 316.456281 76.302923 
L 314.773869 76.254111 
L 313.091457 76.198642 
L 311.409045 76.137758 
L 309.726633 76.073044 
L 308.044221 76.006448 
L 306.361809 75.940309 
L 304.679397 75.877388 
L 302.996985 75.820903 
L 301.314573 75.77457 
L 299.632161 75.742631 
L 297.949749 75.72989 
L 296.267337 75.741725 
L 294.584925 75.784097 
L 292.902513 75.863537 
L 291.220101 75.98711 
L 289.537688 76.162344 
L 287.855276 76.397142 
L 286.172864 76.699649 
L 284.490452 77.078093 
L 282.80804 77.540606 
L 281.125628 78.095035 
L 279.443216 78.748753 
L 277.760804 79.50849 
L 276.078392 80.380202 
L 274.39598 81.368972 
L 272.713568 82.478963 
L 271.031156 83.713401 
L 269.348744 85.074592 
L 267.666332 86.563958 
L 265.98392 88.182087 
L 264.301508 89.928783 
L 262.619095 91.803113 
L 260.936683 93.803451 
L 259.254271 95.927516 
L 257.571859 98.172405 
L 255.889447 100.534618 
L 254.207035 103.010087 
L 252.524623 105.594192 
L 250.842211 108.281792 
L 249.159799 111.06724 
L 247.477387 113.944418 
L 245.794975 116.906753 
L 244.112563 119.947259 
L 242.430151 123.05856 
L 240.747739 126.232931 
L 239.065327 129.462336 
L 237.382915 132.738465 
L 235.700503 136.052786 
L 234.01809 139.396581 
L 232.335678 142.760999 
L 230.653266 146.137104 
L 228.970854 149.515925 
L 227.288442 152.888505 
L 225.60603 156.245954 
L 223.923618 159.579497 
L 222.241206 162.880527 
L 220.558794 166.140654 
L 218.876382 169.351751 
L 217.19397 172.506 
L 215.511558 175.595941 
L 213.829146 178.614508 
L 212.146734 181.555072 
L 210.464322 184.411477 
L 208.78191 187.178071 
L 207.099497 189.849742 
L 205.417085 192.421935 
L 203.734673 194.890684 
L 202.052261 197.252624 
L 200.369849 199.50501 
L 198.687437 201.645726 
L 197.005025 203.673293 
L 195.322613 205.58687 
L 193.640201 207.386254 
L 191.957789 209.071872 
L 190.275377 210.644772 
L 188.592965 212.106608 
L 186.910553 213.45962 
L 185.228141 214.706606 
L 183.545729 215.850894 
L 181.863317 216.896303 
L 180.180905 217.847093 
L 178.498492 218.707916 
L 176.81608 219.483748 
L 175.133668 220.179811 
L 173.451256 220.80149 
L 171.768844 221.354233 
L 170.086432 221.843443 
L 168.40402 222.274368 
L 166.721608 222.651991 
L 165.039196 222.980933 
L 163.356784 223.265376 
L 161.674372 223.50902 
L 159.99196 223.715076 
L 158.309548 223.886304 
L 156.627136 224.025081 
L 154.944724 224.133509 
L 153.262312 224.213523 
L 151.579899 224.267004 
L 149.897487 224.295886 
L 148.215075 224.302224 
L 146.532663 224.288249 
L 144.850251 224.256384 
L 143.167839 224.209238 
L 141.485427 224.149582 
L 139.803015 224.080298 
L 138.120603 224.004326 
L 136.438191 223.924602 
L 134.755779 223.843986 
L 133.073367 223.765205 
L 131.390955 223.690787 
L 129.708543 223.623012 
L 128.026131 223.563867 
L 126.343719 223.515018 
L 124.661307 223.47779 
L 122.978894 223.453168 
L 121.296482 223.441811 
L 119.61407 223.444085 
L 117.931658 223.460109 
L 116.249246 223.489822 
L 114.566834 223.53306 
L 112.884422 223.589651 
L 111.20201 223.659511 
L 109.519598 223.742757 
L 107.837186 223.839811 
L 106.154774 223.951499 
L 104.472362 224.079129 
L 102.78995 224.224546 
L 101.107538 224.390133 
L 99.425126 224.578765 
L 97.742714 224.793697 
L 96.060302 225.038396 
L 94.377889 225.31632 
L 92.695477 225.630682 
L 91.013065 225.984227 
L 89.330653 226.37904 
L 87.648241 226.816441 
L 85.965829 227.296938 
L 84.283417 227.82026 
L 82.601005 228.385442 
L 80.918593 228.990939 
L 79.236181 229.634754 
L 77.553769 230.314556 
L 75.871357 231.027787 
L 74.188945 231.771752 
L 72.506533 232.543681 
L 70.824121 233.340788 
L 69.141709 234.160302 
L 67.459296 234.999494 
L 65.776884 235.855691 
L 64.094472 236.726292 
L 62.41206 237.60877 
L 60.729648 238.500674 
L 59.047236 239.399635 
L 57.364824 240.303364 
L 55.682412 241.209651 
L 54 242.116364 
z
" style="fill:#cc3300;opacity:0.3;stroke:#cc3300;stroke-linejoin:miter;stroke-width:0.5;"/>
   </g>
   <g id="matplotlib.axis_1">
    <g id="xtick_1">
     <g id="line2d_1">
      <defs>
       <path d="M 0 0 
L 0 3.5 
" id="m5bb300c265" style="stroke:#000000;stroke-width:0.8;"/>
      </defs>
      <g>
       <use style="stroke:#000000;stroke-width:0.8;" x="91.320476" xlink:href="#m5bb300c265" y="252"/>
      </g>
     </g>
     <g id="text_1">
      <!-- −0.75 -->
      <defs>
       <path d="M 10.59375 35.5 
L 73.1875 35.5 
L 73.1875 27.203125 
L 10.59375 27.203125 
z
" id="DejaVuSans-2212"/>
       <path d="M 31.78125 66.40625 
Q 24.171875 66.40625 20.328125 58.90625 
Q 16.5 51.421875 16.5 36.375 
Q 16.5 21.390625 20.328125 13.890625 
Q 24.171875 6.390625 31.78125 6.390625 
Q 39.453125 6.390625 43.28125 13.890625 
Q 47.125 21.390625 47.125 36.375 
Q 47.125 51.421875 43.28125 58.90625 
Q 39.453125 66.40625 31.78125 66.40625 
z
M 31.78125 74.21875 
Q 44.046875 74.21875 50.515625 64.515625 
Q 56.984375 54.828125 56.984375 36.375 
Q 56.984375 17.96875 50.515625 8.265625 
Q 44.046875 -1.421875 31.78125 -1.421875 
Q 19.53125 -1.421875 13.0625 8.265625 
Q 6.59375 17.96875 6.59375 36.375 
Q 6.59375 54.828125 13.0625 64.515625 
Q 19.53125 74.21875 31.78125 74.21875 
z
" id="DejaVuSans-30"/>
       <path d="M 10.6875 12.40625 
L 21 12.40625 
L 21 0 
L 10.6875 0 
z
" id="DejaVuSans-2e"/>
       <path d="M 8.203125 72.90625 
L 55.078125 72.90625 
L 55.078125 68.703125 
L 28.609375 0 
L 18.3125 0 
L 43.21875 64.59375 
L 8.203125 64.59375 
z
" id="DejaVuSans-37"/>
       <path d="M 10.796875 72.90625 
L 49.515625 72.90625 
L 49.515625 64.59375 
L 19.828125 64.59375 
L 19.828125 46.734375 
Q 21.96875 47.46875 24.109375 47.828125 
Q 26.265625 48.1875 28.421875 48.1875 
Q 40.625 48.1875 47.75 41.5 
Q 54.890625 34.8125 54.890625 23.390625 
Q 54.890625 11.625 47.5625 5.09375 
Q 40.234375 -1.421875 26.90625 -1.421875 
Q 22.3125 -1.421875 17.546875 -0.640625 
Q 12.796875 0.140625 7.71875 1.703125 
L 7.71875 11.625 
Q 12.109375 9.234375 16.796875 8.0625 
Q 21.484375 6.890625 26.703125 6.890625 
Q 35.15625 6.890625 40.078125 11.328125 
Q 45.015625 15.765625 45.015625 23.390625 
Q 45.015625 31 40.078125 35.4375 
Q 35.15625 39.890625 26.703125 39.890625 
Q 22.75 39.890625 18.8125 39.015625 
Q 14.890625 38.140625 10.796875 36.28125 
z
" id="DejaVuSans-35"/>
      </defs>
      <g transform="translate(75.99782 266.598437)scale(0.1 -0.1)">
       <use xlink:href="#DejaVuSans-2212"/>
       <use x="83.789062" xlink:href="#DejaVuSans-30"/>
       <use x="147.412109" xlink:href="#DejaVuSans-2e"/>
       <use x="179.199219" xlink:href="#DejaVuSans-37"/>
       <use x="242.822266" xlink:href="#DejaVuSans-35"/>
      </g>
     </g>
    </g>
    <g id="xtick_2">
     <g id="line2d_2">
      <g>
       <use style="stroke:#000000;stroke-width:0.8;" x="134.594689" xlink:href="#m5bb300c265" y="252"/>
      </g>
     </g>
     <g id="text_2">
      <!-- −0.50 -->
      <g transform="translate(119.272032 266.598437)scale(0.1 -0.1)">
       <use xlink:href="#DejaVuSans-2212"/>
       <use x="83.789062" xlink:href="#DejaVuSans-30"/>
       <use x="147.412109" xlink:href="#DejaVuSans-2e"/>
       <use x="179.199219" xlink:href="#DejaVuSans-35"/>
       <use x="242.822266" xlink:href="#DejaVuSans-30"/>
      </g>
     </g>
    </g>
    <g id="xtick_3">
     <g id="line2d_3">
      <g>
       <use style="stroke:#000000;stroke-width:0.8;" x="177.868901" xlink:href="#m5bb300c265" y="252"/>
      </g>
     </g>
     <g id="text_3">
      <!-- −0.25 -->
      <defs>
       <path d="M 19.1875 8.296875 
L 53.609375 8.296875 
L 53.609375 0 
L 7.328125 0 
L 7.328125 8.296875 
Q 12.9375 14.109375 22.625 23.890625 
Q 32.328125 33.6875 34.8125 36.53125 
Q 39.546875 41.84375 41.421875 45.53125 
Q 43.3125 49.21875 43.3125 52.78125 
Q 43.3125 58.59375 39.234375 62.25 
Q 35.15625 65.921875 28.609375 65.921875 
Q 23.96875 65.921875 18.8125 64.3125 
Q 13.671875 62.703125 7.8125 59.421875 
L 7.8125 69.390625 
Q 13.765625 71.78125 18.9375 73 
Q 24.125 74.21875 28.421875 74.21875 
Q 39.75 74.21875 46.484375 68.546875 
Q 53.21875 62.890625 53.21875 53.421875 
Q 53.21875 48.921875 51.53125 44.890625 
Q 49.859375 40.875 45.40625 35.40625 
Q 44.1875 33.984375 37.640625 27.21875 
Q 31.109375 20.453125 19.1875 8.296875 
z
" id="DejaVuSans-32"/>
      </defs>
      <g transform="translate(162.546245 266.598437)scale(0.1 -0.1)">
       <use xlink:href="#DejaVuSans-2212"/>
       <use x="83.789062" xlink:href="#DejaVuSans-30"/>
       <use x="147.412109" xlink:href="#DejaVuSans-2e"/>
       <use x="179.199219" xlink:href="#DejaVuSans-32"/>
       <use x="242.822266" xlink:href="#DejaVuSans-35"/>
      </g>
     </g>
    </g>
    <g id="xtick_4">
     <g id="line2d_4">
      <g>
       <use style="stroke:#000000;stroke-width:0.8;" x="221.143114" xlink:href="#m5bb300c265" y="252"/>
      </g>
     </g>
     <g id="text_4">
      <!-- 0.00 -->
      <g transform="translate(210.010301 266.598437)scale(0.1 -0.1)">
       <use xlink:href="#DejaVuSans-30"/>
       <use x="63.623047" xlink:href="#DejaVuSans-2e"/>
       <use x="95.410156" xlink:href="#DejaVuSans-30"/>
       <use x="159.033203" xlink:href="#DejaVuSans-30"/>
      </g>
     </g>
    </g>
    <g id="xtick_5">
     <g id="line2d_5">
      <g>
       <use style="stroke:#000000;stroke-width:0.8;" x="264.417327" xlink:href="#m5bb300c265" y="252"/>
      </g>
     </g>
     <g id="text_5">
      <!-- 0.25 -->
      <g transform="translate(253.284514 266.598437)scale(0.1 -0.1)">
       <use xlink:href="#DejaVuSans-30"/>
       <use x="63.623047" xlink:href="#DejaVuSans-2e"/>
       <use x="95.410156" xlink:href="#DejaVuSans-32"/>
       <use x="159.033203" xlink:href="#DejaVuSans-35"/>
      </g>
     </g>
    </g>
    <g id="xtick_6">
     <g id="line2d_6">
      <g>
       <use style="stroke:#000000;stroke-width:0.8;" x="307.691539" xlink:href="#m5bb300c265" y="252"/>
      </g>
     </g>
     <g id="text_6">
      <!-- 0.50 -->
      <g transform="translate(296.558727 266.598437)scale(0.1 -0.1)">
       <use xlink:href="#DejaVuSans-30"/>
       <use x="63.623047" xlink:href="#DejaVuSans-2e"/>
       <use x="95.410156" xlink:href="#DejaVuSans-35"/>
       <use x="159.033203" xlink:href="#DejaVuSans-30"/>
      </g>
     </g>
    </g>
    <g id="xtick_7">
     <g id="line2d_7">
      <g>
       <use style="stroke:#000000;stroke-width:0.8;" x="350.965752" xlink:href="#m5bb300c265" y="252"/>
      </g>
     </g>
     <g id="text_7">
      <!-- 0.75 -->
      <g transform="translate(339.83294 266.598437)scale(0.1 -0.1)">
       <use xlink:href="#DejaVuSans-30"/>
       <use x="63.623047" xlink:href="#DejaVuSans-2e"/>
       <use x="95.410156" xlink:href="#DejaVuSans-37"/>
       <use x="159.033203" xlink:href="#DejaVuSans-35"/>
      </g>
     </g>
    </g>
    <g id="text_8">
     <!-- layer 2 -->
     <defs>
      <path d="M 9.421875 75.984375 
L 18.40625 75.984375 
L 18.40625 0 
L 9.421875 0 
z
" id="DejaVuSans-6c"/>
      <path d="M 34.28125 27.484375 
Q 23.390625 27.484375 19.1875 25 
Q 14.984375 22.515625 14.984375 16.5 
Q 14.984375 11.71875 18.140625 8.90625 
Q 21.296875 6.109375 26.703125 6.109375 
Q 34.1875 6.109375 38.703125 11.40625 
Q 43.21875 16.703125 43.21875 25.484375 
L 43.21875 27.484375 
z
M 52.203125 31.203125 
L 52.203125 0 
L 43.21875 0 
L 43.21875 8.296875 
Q 40.140625 3.328125 35.546875 0.953125 
Q 30.953125 -1.421875 24.3125 -1.421875 
Q 15.921875 -1.421875 10.953125 3.296875 
Q 6 8.015625 6 15.921875 
Q 6 25.140625 12.171875 29.828125 
Q 18.359375 34.515625 30.609375 34.515625 
L 43.21875 34.515625 
L 43.21875 35.40625 
Q 43.21875 41.609375 39.140625 45 
Q 35.0625 48.390625 27.6875 48.390625 
Q 23 48.390625 18.546875 47.265625 
Q 14.109375 46.140625 10.015625 43.890625 
L 10.015625 52.203125 
Q 14.9375 54.109375 19.578125 55.046875 
Q 24.21875 56 28.609375 56 
Q 40.484375 56 46.34375 49.84375 
Q 52.203125 43.703125 52.203125 31.203125 
z
" id="DejaVuSans-61"/>
      <path d="M 32.171875 -5.078125 
Q 28.375 -14.84375 24.75 -17.8125 
Q 21.140625 -20.796875 15.09375 -20.796875 
L 7.90625 -20.796875 
L 7.90625 -13.28125 
L 13.1875 -13.28125 
Q 16.890625 -13.28125 18.9375 -11.515625 
Q 21 -9.765625 23.484375 -3.21875 
L 25.09375 0.875 
L 2.984375 54.6875 
L 12.5 54.6875 
L 29.59375 11.921875 
L 46.6875 54.6875 
L 56.203125 54.6875 
z
" id="DejaVuSans-79"/>
      <path d="M 56.203125 29.59375 
L 56.203125 25.203125 
L 14.890625 25.203125 
Q 15.484375 15.921875 20.484375 11.0625 
Q 25.484375 6.203125 34.421875 6.203125 
Q 39.59375 6.203125 44.453125 7.46875 
Q 49.3125 8.734375 54.109375 11.28125 
L 54.109375 2.78125 
Q 49.265625 0.734375 44.1875 -0.34375 
Q 39.109375 -1.421875 33.890625 -1.421875 
Q 20.796875 -1.421875 13.15625 6.1875 
Q 5.515625 13.8125 5.515625 26.8125 
Q 5.515625 40.234375 12.765625 48.109375 
Q 20.015625 56 32.328125 56 
Q 43.359375 56 49.78125 48.890625 
Q 56.203125 41.796875 56.203125 29.59375 
z
M 47.21875 32.234375 
Q 47.125 39.59375 43.09375 43.984375 
Q 39.0625 48.390625 32.421875 48.390625 
Q 24.90625 48.390625 20.390625 44.140625 
Q 15.875 39.890625 15.1875 32.171875 
z
" id="DejaVuSans-65"/>
      <path d="M 41.109375 46.296875 
Q 39.59375 47.171875 37.8125 47.578125 
Q 36.03125 48 33.890625 48 
Q 26.265625 48 22.1875 43.046875 
Q 18.109375 38.09375 18.109375 28.8125 
L 18.109375 0 
L 9.078125 0 
L 9.078125 54.6875 
L 18.109375 54.6875 
L 18.109375 46.1875 
Q 20.953125 51.171875 25.484375 53.578125 
Q 30.03125 56 36.53125 56 
Q 37.453125 56 38.578125 55.875 
Q 39.703125 55.765625 41.0625 55.515625 
z
" id="DejaVuSans-72"/>
      <path id="DejaVuSans-20"/>
     </defs>
     <g transform="translate(186.770312 287.875)scale(0.2 -0.2)">
      <use xlink:href="#DejaVuSans-6c"/>
      <use x="27.783203" xlink:href="#DejaVuSans-61"/>
      <use x="89.0625" xlink:href="#DejaVuSans-79"/>
      <use x="148.242188" xlink:href="#DejaVuSans-65"/>
      <use x="209.765625" xlink:href="#DejaVuSans-72"/>
      <use x="250.878906" xlink:href="#DejaVuSans-20"/>
      <use x="282.666016" xlink:href="#DejaVuSans-32"/>
     </g>
    </g>
   </g>
   <g id="matplotlib.axis_2">
    <g id="ytick_1">
     <g id="line2d_8">
      <defs>
       <path d="M 0 0 
L -3.5 0 
" id="mf3a3d63b27" style="stroke:#000000;stroke-width:0.8;"/>
      </defs>
      <g>
       <use style="stroke:#000000;stroke-width:0.8;" x="54" xlink:href="#mf3a3d63b27" y="220.126094"/>
      </g>
     </g>
     <g id="text_9">
      <!-- −2 -->
      <g transform="translate(32.257812 223.925313)scale(0.1 -0.1)">
       <use xlink:href="#DejaVuSans-2212"/>
       <use x="83.789062" xlink:href="#DejaVuSans-32"/>
      </g>
     </g>
    </g>
    <g id="ytick_2">
     <g id="line2d_9">
      <g>
       <use style="stroke:#000000;stroke-width:0.8;" x="54" xlink:href="#mf3a3d63b27" y="182.153233"/>
      </g>
     </g>
     <g id="text_10">
      <!-- −1 -->
      <defs>
       <path d="M 12.40625 8.296875 
L 28.515625 8.296875 
L 28.515625 63.921875 
L 10.984375 60.40625 
L 10.984375 69.390625 
L 28.421875 72.90625 
L 38.28125 72.90625 
L 38.28125 8.296875 
L 54.390625 8.296875 
L 54.390625 0 
L 12.40625 0 
z
" id="DejaVuSans-31"/>
      </defs>
      <g transform="translate(32.257812 185.952451)scale(0.1 -0.1)">
       <use xlink:href="#DejaVuSans-2212"/>
       <use x="83.789062" xlink:href="#DejaVuSans-31"/>
      </g>
     </g>
    </g>
    <g id="ytick_3">
     <g id="line2d_10">
      <g>
       <use style="stroke:#000000;stroke-width:0.8;" x="54" xlink:href="#mf3a3d63b27" y="144.180371"/>
      </g>
     </g>
     <g id="text_11">
      <!-- 0 -->
      <g transform="translate(40.6375 147.97959)scale(0.1 -0.1)">
       <use xlink:href="#DejaVuSans-30"/>
      </g>
     </g>
    </g>
    <g id="ytick_4">
     <g id="line2d_11">
      <g>
       <use style="stroke:#000000;stroke-width:0.8;" x="54" xlink:href="#mf3a3d63b27" y="106.207509"/>
      </g>
     </g>
     <g id="text_12">
      <!-- 1 -->
      <g transform="translate(40.6375 110.006728)scale(0.1 -0.1)">
       <use xlink:href="#DejaVuSans-31"/>
      </g>
     </g>
    </g>
    <g id="ytick_5">
     <g id="line2d_12">
      <g>
       <use style="stroke:#000000;stroke-width:0.8;" x="54" xlink:href="#mf3a3d63b27" y="68.234647"/>
      </g>
     </g>
     <g id="text_13">
      <!-- 2 -->
      <g transform="translate(40.6375 72.033866)scale(0.1 -0.1)">
       <use xlink:href="#DejaVuSans-32"/>
      </g>
     </g>
    </g>
    <g id="text_14">
     <!-- layer 3 -->
     <defs>
      <path d="M 40.578125 39.3125 
Q 47.65625 37.796875 51.625 33 
Q 55.609375 28.21875 55.609375 21.1875 
Q 55.609375 10.40625 48.1875 4.484375 
Q 40.765625 -1.421875 27.09375 -1.421875 
Q 22.515625 -1.421875 17.65625 -0.515625 
Q 12.796875 0.390625 7.625 2.203125 
L 7.625 11.71875 
Q 11.71875 9.328125 16.59375 8.109375 
Q 21.484375 6.890625 26.8125 6.890625 
Q 36.078125 6.890625 40.9375 10.546875 
Q 45.796875 14.203125 45.796875 21.1875 
Q 45.796875 27.640625 41.28125 31.265625 
Q 36.765625 34.90625 28.71875 34.90625 
L 20.21875 34.90625 
L 20.21875 43.015625 
L 29.109375 43.015625 
Q 36.375 43.015625 40.234375 45.921875 
Q 44.09375 48.828125 44.09375 54.296875 
Q 44.09375 59.90625 40.109375 62.90625 
Q 36.140625 65.921875 28.71875 65.921875 
Q 24.65625 65.921875 20.015625 65.03125 
Q 15.375 64.15625 9.8125 62.3125 
L 9.8125 71.09375 
Q 15.4375 72.65625 20.34375 73.4375 
Q 25.25 74.21875 29.59375 74.21875 
Q 40.828125 74.21875 47.359375 69.109375 
Q 53.90625 64.015625 53.90625 55.328125 
Q 53.90625 49.265625 50.4375 45.09375 
Q 46.96875 40.921875 40.578125 39.3125 
z
" id="DejaVuSans-33"/>
     </defs>
     <g transform="translate(24.098437 177.909688)rotate(-90)scale(0.2 -0.2)">
      <use xlink:href="#DejaVuSans-6c"/>
      <use x="27.783203" xlink:href="#DejaVuSans-61"/>
      <use x="89.0625" xlink:href="#DejaVuSans-79"/>
      <use x="148.242188" xlink:href="#DejaVuSans-65"/>
      <use x="209.765625" xlink:href="#DejaVuSans-72"/>
      <use x="250.878906" xlink:href="#DejaVuSans-20"/>
      <use x="282.666016" xlink:href="#DejaVuSans-33"/>
     </g>
    </g>
   </g>
   <g id="line2d_13">
    <path clip-path="url(#p9fbd7de0b9)" d="M 54 208.035528 
L 59.047236 210.495777 
L 62.41206 211.924002 
L 65.776884 213.177137 
L 69.141709 214.254065 
L 72.506533 215.157017 
L 75.871357 215.891579 
L 79.236181 216.466599 
L 84.283417 217.056819 
L 89.330653 217.366967 
L 94.377889 217.459095 
L 101.107538 217.361219 
L 117.931658 216.964423 
L 126.343719 217.066483 
L 138.120603 217.52794 
L 144.850251 217.708661 
L 149.897487 217.629562 
L 153.262312 217.406911 
L 156.627136 217.002537 
L 159.99196 216.376148 
L 163.356784 215.487787 
L 166.721608 214.299034 
L 170.086432 212.774219 
L 173.451256 210.881601 
L 176.81608 208.59449 
L 180.180905 205.892262 
L 183.545729 202.761234 
L 186.910553 199.195382 
L 190.275377 195.196853 
L 193.640201 190.776271 
L 197.005025 185.952808 
L 200.369849 180.754027 
L 203.734673 175.215482 
L 208.78191 166.366314 
L 213.829146 157.022141 
L 223.923618 137.648661 
L 230.653266 124.910868 
L 235.700503 115.802735 
L 240.747739 107.283109 
L 244.112563 102.008346 
L 247.477387 97.102073 
L 250.842211 92.593636 
L 254.207035 88.504053 
L 257.571859 84.845796 
L 260.936683 81.622815 
L 264.301508 78.83079 
L 267.666332 76.457604 
L 271.031156 74.484017 
L 274.39598 72.884513 
L 277.760804 71.628286 
L 281.125628 70.680349 
L 284.490452 70.002709 
L 287.855276 69.555572 
L 291.220101 69.298564 
L 296.267337 69.182935 
L 302.996985 69.339721 
L 319.821106 69.913113 
L 328.233166 69.877545 
L 350.104523 69.472132 
L 355.151759 69.680682 
L 360.198995 70.144684 
L 365.246231 70.921565 
L 368.611055 71.636076 
L 371.975879 72.519525 
L 375.340704 73.578275 
L 378.705528 74.815326 
L 382.070352 76.230294 
L 385.435176 77.819498 
L 388.8 79.576119 
L 388.8 79.576119 
" style="fill:none;stroke:#3300ff;stroke-linecap:square;stroke-width:2;"/>
   </g>
   <g id="line2d_14">
    <path clip-path="url(#p9fbd7de0b9)" d="M 54 173.954693 
L 57.364824 179.131127 
L 60.729648 183.962481 
L 64.094472 188.418915 
L 67.459296 192.47564 
L 70.824121 196.113246 
L 74.188945 199.317985 
L 77.553769 202.082155 
L 80.918593 204.404845 
L 84.283417 206.293378 
L 87.648241 207.765654 
L 91.013065 208.85299 
L 94.377889 209.601871 
L 97.742714 210.072386 
L 101.107538 210.332305 
L 106.154774 210.47186 
L 128.026131 210.671125 
L 144.850251 211.160938 
L 149.897487 210.963239 
L 153.262312 210.6003 
L 156.627136 209.979993 
L 159.99196 209.037219 
L 163.356784 207.710197 
L 166.721608 205.946078 
L 170.086432 203.704996 
L 173.451256 200.961713 
L 176.81608 197.705233 
L 180.180905 193.93743 
L 183.545729 189.671573 
L 186.910553 184.931144 
L 190.275377 179.748935 
L 193.640201 174.166288 
L 197.005025 168.232324 
L 202.052261 158.796789 
L 208.78191 145.554557 
L 220.558794 122.128746 
L 225.60603 112.600262 
L 228.970854 106.577076 
L 232.335678 100.879612 
L 235.700503 95.552683 
L 239.065327 90.632324 
L 242.430151 86.145071 
L 245.794975 82.107493 
L 249.159799 78.525984 
L 252.524623 75.396822 
L 255.889447 72.70651 
L 259.254271 70.432438 
L 262.619095 68.543916 
L 265.98392 67.003686 
L 269.348744 65.770047 
L 272.713568 64.799674 
L 276.078392 64.050981 
L 279.443216 63.487446 
L 284.490452 62.927325 
L 289.537688 62.649287 
L 294.584925 62.599691 
L 301.314573 62.785116 
L 318.138693 63.432218 
L 324.868342 63.417434 
L 331.59799 63.186688 
L 338.327638 62.733814 
L 343.374874 62.199164 
L 348.422111 61.411924 
L 351.786935 60.703819 
L 355.151759 59.829132 
L 358.516583 58.784265 
L 363.563819 56.917519 
L 368.611055 54.744783 
L 373.658291 52.339316 
L 382.070352 48.01271 
L 388.8 44.443636 
L 388.8 44.443636 
" style="fill:none;stroke:#3300ff;stroke-linecap:square;stroke-width:0.2;"/>
   </g>
   <g id="line2d_15">
    <path clip-path="url(#p9fbd7de0b9)" d="M 54 242.116364 
L 65.776884 235.855691 
L 72.506533 232.543681 
L 77.553769 230.314556 
L 82.601005 228.385442 
L 85.965829 227.296938 
L 89.330653 226.37904 
L 92.695477 225.630682 
L 97.742714 224.793697 
L 102.78995 224.224546 
L 109.519598 223.742757 
L 116.249246 223.489822 
L 122.978894 223.453168 
L 129.708543 223.623012 
L 148.215075 224.302224 
L 153.262312 224.213523 
L 158.309548 223.886304 
L 163.356784 223.265376 
L 166.721608 222.651991 
L 170.086432 221.843443 
L 173.451256 220.80149 
L 176.81608 219.483748 
L 180.180905 217.847093 
L 183.545729 215.850894 
L 186.910553 213.45962 
L 190.275377 210.644772 
L 193.640201 207.386254 
L 197.005025 203.673293 
L 200.369849 199.50501 
L 203.734673 194.890684 
L 207.099497 189.849742 
L 210.464322 184.411477 
L 213.829146 178.614508 
L 218.876382 169.351751 
L 223.923618 159.579497 
L 242.430151 123.05856 
L 247.477387 113.944418 
L 250.842211 108.281792 
L 254.207035 103.010087 
L 257.571859 98.172405 
L 260.936683 93.803451 
L 264.301508 89.928783 
L 267.666332 86.563958 
L 271.031156 83.713401 
L 274.39598 81.368972 
L 277.760804 79.50849 
L 281.125628 78.095035 
L 284.490452 77.078093 
L 287.855276 76.397142 
L 291.220101 75.98711 
L 294.584925 75.784097 
L 299.632161 75.742631 
L 308.044221 76.006448 
L 319.821106 76.377274 
L 329.915578 76.420549 
L 338.327638 76.467113 
L 343.374874 76.753624 
L 346.739698 77.17706 
L 350.104523 77.866295 
L 353.469347 78.884002 
L 356.834171 80.280105 
L 360.198995 82.089248 
L 363.563819 84.332036 
L 366.928643 87.017839 
L 370.293467 90.147328 
L 373.658291 93.714124 
L 377.023116 97.70567 
L 380.38794 102.103671 
L 383.752764 106.884389 
L 387.117588 112.018954 
L 388.8 114.708601 
L 388.8 114.708601 
" style="fill:none;stroke:#3300ff;stroke-linecap:square;stroke-width:0.2;"/>
   </g>
   <g id="line2d_16">
    <defs>
     <path d="M 0 2.5 
C 0.663008 2.5 1.29895 2.236584 1.767767 1.767767 
C 2.236584 1.29895 2.5 0.663008 2.5 0 
C 2.5 -0.663008 2.236584 -1.29895 1.767767 -1.767767 
C 1.29895 -2.236584 0.663008 -2.5 0 -2.5 
C -0.663008 -2.5 -1.29895 -2.236584 -1.767767 -1.767767 
C -2.236584 -1.29895 -2.5 -0.663008 -2.5 0 
C -2.5 0.663008 -2.236584 1.29895 -1.767767 1.767767 
C -1.29895 2.236584 -0.663008 2.5 0 2.5 
z
" id="m4b56806307" style="stroke:#ff0000;"/>
    </defs>
    <g clip-path="url(#p9fbd7de0b9)">
     <use style="fill:#ff0000;stroke:#ff0000;" x="127.328837" xlink:href="#m4b56806307" y="217.213625"/>
     <use style="fill:#ff0000;stroke:#ff0000;" x="127.248195" xlink:href="#m4b56806307" y="217.213685"/>
     <use style="fill:#ff0000;stroke:#ff0000;" x="127.210474" xlink:href="#m4b56806307" y="217.213675"/>
     <use style="fill:#ff0000;stroke:#ff0000;" x="127.203521" xlink:href="#m4b56806307" y="217.213606"/>
     <use style="fill:#ff0000;stroke:#ff0000;" x="127.218106" xlink:href="#m4b56806307" y="217.213483"/>
     <use style="fill:#ff0000;stroke:#ff0000;" x="127.245636" xlink:href="#m4b56806307" y="217.213321"/>
     <use style="fill:#ff0000;stroke:#ff0000;" x="127.278024" xlink:href="#m4b56806307" y="217.213142"/>
     <use style="fill:#ff0000;stroke:#ff0000;" x="127.308515" xlink:href="#m4b56806307" y="217.212971"/>
     <use style="fill:#ff0000;stroke:#ff0000;" x="127.330542" xlink:href="#m4b56806307" y="217.21285"/>
     <use style="fill:#ff0000;stroke:#ff0000;" x="127.339339" xlink:href="#m4b56806307" y="217.212808"/>
     <use style="fill:#ff0000;stroke:#ff0000;" x="127.332065" xlink:href="#m4b56806307" y="217.212866"/>
     <use style="fill:#ff0000;stroke:#ff0000;" x="127.308296" xlink:href="#m4b56806307" y="217.213021"/>
     <use style="fill:#ff0000;stroke:#ff0000;" x="127.270585" xlink:href="#m4b56806307" y="217.21323"/>
     <use style="fill:#ff0000;stroke:#ff0000;" x="127.225944" xlink:href="#m4b56806307" y="217.213433"/>
     <use style="fill:#ff0000;stroke:#ff0000;" x="127.185656" xlink:href="#m4b56806307" y="217.213582"/>
     <use style="fill:#ff0000;stroke:#ff0000;" x="127.159906" xlink:href="#m4b56806307" y="217.213617"/>
     <use style="fill:#ff0000;stroke:#ff0000;" x="127.15581" xlink:href="#m4b56806307" y="217.213499"/>
     <use style="fill:#ff0000;stroke:#ff0000;" x="127.199055" xlink:href="#m4b56806307" y="217.213172"/>
     <use style="fill:#ff0000;stroke:#ff0000;" x="127.367939" xlink:href="#m4b56806307" y="217.212667"/>
     <use style="fill:#ff0000;stroke:#ff0000;" x="127.907872" xlink:href="#m4b56806307" y="217.21189"/>
     <use style="fill:#ff0000;stroke:#ff0000;" x="129.130189" xlink:href="#m4b56806307" y="217.210339"/>
     <use style="fill:#ff0000;stroke:#ff0000;" x="131.347017" xlink:href="#m4b56806307" y="217.205863"/>
     <use style="fill:#ff0000;stroke:#ff0000;" x="134.771677" xlink:href="#m4b56806307" y="217.198163"/>
     <use style="fill:#ff0000;stroke:#ff0000;" x="139.414853" xlink:href="#m4b56806307" y="217.176827"/>
     <use style="fill:#ff0000;stroke:#ff0000;" x="143.672969" xlink:href="#m4b56806307" y="217.129431"/>
     <use style="fill:#ff0000;stroke:#ff0000;" x="298.130743" xlink:href="#m4b56806307" y="69.765016"/>
     <use style="fill:#ff0000;stroke:#ff0000;" x="302.418434" xlink:href="#m4b56806307" y="69.713641"/>
     <use style="fill:#ff0000;stroke:#ff0000;" x="306.939425" xlink:href="#m4b56806307" y="69.697424"/>
     <use style="fill:#ff0000;stroke:#ff0000;" x="310.431008" xlink:href="#m4b56806307" y="69.68859"/>
     <use style="fill:#ff0000;stroke:#ff0000;" x="312.670856" xlink:href="#m4b56806307" y="69.683835"/>
     <use style="fill:#ff0000;stroke:#ff0000;" x="313.897678" xlink:href="#m4b56806307" y="69.682274"/>
     <use style="fill:#ff0000;stroke:#ff0000;" x="314.437223" xlink:href="#m4b56806307" y="69.681492"/>
     <use style="fill:#ff0000;stroke:#ff0000;" x="314.611613" xlink:href="#m4b56806307" y="69.680976"/>
     <use style="fill:#ff0000;stroke:#ff0000;" x="314.663571" xlink:href="#m4b56806307" y="69.680635"/>
     <use style="fill:#ff0000;stroke:#ff0000;" x="314.659311" xlink:href="#m4b56806307" y="69.680532"/>
     <use style="fill:#ff0000;stroke:#ff0000;" x="314.636514" xlink:href="#m4b56806307" y="69.680544"/>
     <use style="fill:#ff0000;stroke:#ff0000;" x="314.598099" xlink:href="#m4b56806307" y="69.680714"/>
     <use style="fill:#ff0000;stroke:#ff0000;" x="314.554679" xlink:href="#m4b56806307" y="69.680906"/>
     <use style="fill:#ff0000;stroke:#ff0000;" x="314.51779" xlink:href="#m4b56806307" y="69.681129"/>
     <use style="fill:#ff0000;stroke:#ff0000;" x="314.494123" xlink:href="#m4b56806307" y="69.681294"/>
     <use style="fill:#ff0000;stroke:#ff0000;" x="314.486375" xlink:href="#m4b56806307" y="69.681345"/>
     <use style="fill:#ff0000;stroke:#ff0000;" x="314.494208" xlink:href="#m4b56806307" y="69.681317"/>
     <use style="fill:#ff0000;stroke:#ff0000;" x="314.514822" xlink:href="#m4b56806307" y="69.68119"/>
     <use style="fill:#ff0000;stroke:#ff0000;" x="314.543976" xlink:href="#m4b56806307" y="69.681017"/>
     <use style="fill:#ff0000;stroke:#ff0000;" x="314.575471" xlink:href="#m4b56806307" y="69.680843"/>
     <use style="fill:#ff0000;stroke:#ff0000;" x="314.602809" xlink:href="#m4b56806307" y="69.680678"/>
     <use style="fill:#ff0000;stroke:#ff0000;" x="314.618191" xlink:href="#m4b56806307" y="69.68055"/>
     <use style="fill:#ff0000;stroke:#ff0000;" x="314.613794" xlink:href="#m4b56806307" y="69.680464"/>
     <use style="fill:#ff0000;stroke:#ff0000;" x="314.579821" xlink:href="#m4b56806307" y="69.680453"/>
     <use style="fill:#ff0000;stroke:#ff0000;" x="314.50695" xlink:href="#m4b56806307" y="69.680524"/>
    </g>
   </g>
   <g id="patch_4">
    <path d="M 54 252 
L 54 34.56 
" style="fill:none;stroke:#000000;stroke-linecap:square;stroke-linejoin:miter;stroke-width:0.8;"/>
   </g>
   <g id="patch_5">
    <path d="M 388.8 252 
L 388.8 34.56 
" style="fill:none;stroke:#000000;stroke-linecap:square;stroke-linejoin:miter;stroke-width:0.8;"/>
   </g>
   <g id="patch_6">
    <path d="M 54 252 
L 388.8 252 
" style="fill:none;stroke:#000000;stroke-linecap:square;stroke-linejoin:miter;stroke-width:0.8;"/>
   </g>
   <g id="patch_7">
    <path d="M 54 34.56 
L 388.8 34.56 
" style="fill:none;stroke:#000000;stroke-linecap:square;stroke-linejoin:miter;stroke-width:0.8;"/>
   </g>
  </g>
 </g>
 <defs>
  <clipPath id="p9fbd7de0b9">
   <rect height="217.44" width="334.8" x="54" y="34.56"/>
  </clipPath>
 </defs>
</svg>
