<?xml version="1.0" encoding="utf-8" standalone="no"?>
<!DOCTYPE svg PUBLIC "-//W3C//DTD SVG 1.1//EN"
  "http://www.w3.org/Graphics/SVG/1.1/DTD/svg11.dtd">
<!-- Created with matplotlib (http://matplotlib.org/) -->
<svg height="288pt" version="1.1" viewBox="0 0 432 288" width="432pt" xmlns="http://www.w3.org/2000/svg" xmlns:xlink="http://www.w3.org/1999/xlink">
 <defs>
  <style type="text/css">
*{stroke-linecap:butt;stroke-linejoin:round;}
  </style>
 </defs>
 <g id="figure_1">
  <g id="patch_1">
   <path d="M 0 288 
L 432 288 
L 432 0 
L 0 0 
z
" style="fill:none;"/>
  </g>
  <g id="axes_1">
   <g id="patch_2">
    <path d="M 54 252 
L 388.8 252 
L 388.8 34.56 
L 54 34.56 
z
" style="fill:none;"/>
   </g>
   <g id="patch_3">
    <path clip-path="url(#p7b19041e56)" d="M 54 216.885946 
L 55.682412 217.925344 
L 57.364824 218.900234 
L 59.047236 219.811964 
L 60.729648 220.662024 
L 62.41206 221.452045 
L 64.094472 222.183785 
L 65.776884 222.859125 
L 67.459296 223.480057 
L 69.141709 224.048677 
L 70.824121 224.567172 
L 72.506533 225.037815 
L 74.188945 225.462949 
L 75.871357 225.844977 
L 77.553769 226.186353 
L 79.236181 226.489565 
L 80.918593 226.757131 
L 82.601005 226.991576 
L 84.283417 227.195429 
L 85.965829 227.371204 
L 87.648241 227.521387 
L 89.330653 227.648425 
L 91.013065 227.754707 
L 92.695477 227.842545 
L 94.377889 227.914155 
L 96.060302 227.971624 
L 97.742714 228.016871 
L 99.425126 228.051593 
L 101.107538 228.077224 
L 102.78995 228.095044 
L 104.472362 228.106615 
L 106.154774 228.11413 
L 107.837186 228.11964 
L 109.519598 228.123789 
L 111.20201 228.125345 
L 112.884422 228.121187 
L 114.566834 228.10678 
L 116.249246 228.07755 
L 117.931658 228.029749 
L 119.61407 227.960079 
L 121.296482 227.86522 
L 122.978894 227.74172 
L 124.661307 227.586027 
L 126.343719 227.394544 
L 128.026131 227.16368 
L 129.708543 226.889877 
L 131.390955 226.569637 
L 133.073367 226.199544 
L 134.755779 225.77628 
L 136.438191 225.296643 
L 138.120603 224.75756 
L 139.803015 224.156101 
L 141.485427 223.489494 
L 143.167839 222.755138 
L 144.850251 221.950611 
L 146.532663 221.073685 
L 148.215075 220.122334 
L 149.897487 219.094748 
L 151.579899 217.989337 
L 153.262312 216.80474 
L 154.944724 215.539836 
L 156.627136 214.193748 
L 158.309548 212.765847 
L 159.99196 211.255759 
L 161.674372 209.66337 
L 163.356784 207.988824 
L 165.039196 206.232529 
L 166.721608 204.395155 
L 168.40402 202.477637 
L 170.086432 200.481168 
L 171.768844 198.407202 
L 173.451256 196.257449 
L 175.133668 194.033868 
L 176.81608 191.738665 
L 178.498492 189.374283 
L 180.180905 186.943399 
L 181.863317 184.44891 
L 183.545729 181.89393 
L 185.228141 179.281774 
L 186.910553 176.615949 
L 188.592965 173.900146 
L 190.275377 171.13822 
L 191.957789 168.334183 
L 193.640201 165.492188 
L 195.322613 162.616513 
L 197.005025 159.711548 
L 198.687437 156.781779 
L 200.369849 153.831773 
L 202.052261 150.866159 
L 203.734673 147.889614 
L 205.417085 144.906847 
L 207.099497 141.922581 
L 208.78191 138.941535 
L 210.464322 135.968409 
L 212.146734 133.007869 
L 213.829146 130.064526 
L 215.511558 127.142925 
L 217.19397 124.247524 
L 218.876382 121.382685 
L 220.558794 118.552651 
L 222.241206 115.761539 
L 223.923618 113.013322 
L 225.60603 110.311815 
L 227.288442 107.660666 
L 228.970854 105.063342 
L 230.653266 102.523118 
L 232.335678 100.043068 
L 234.01809 97.626054 
L 235.700503 95.27472 
L 237.382915 92.991483 
L 239.065327 90.778527 
L 240.747739 88.637798 
L 242.430151 86.571 
L 244.112563 84.579591 
L 245.794975 82.664781 
L 247.477387 80.827532 
L 249.159799 79.068558 
L 250.842211 77.388324 
L 252.524623 75.78705 
L 254.207035 74.264713 
L 255.889447 72.821054 
L 257.571859 71.455579 
L 259.254271 70.167569 
L 260.936683 68.956084 
L 262.619095 67.819972 
L 264.301508 66.757881 
L 265.98392 65.768262 
L 267.666332 64.849387 
L 269.348744 63.999354 
L 271.031156 63.216103 
L 272.713568 62.497425 
L 274.39598 61.840977 
L 276.078392 61.244297 
L 277.760804 60.704813 
L 279.443216 60.219861 
L 281.125628 59.786699 
L 282.80804 59.402521 
L 284.490452 59.06447 
L 286.172864 58.769657 
L 287.855276 58.515173 
L 289.537688 58.298102 
L 291.220101 58.11554 
L 292.902513 57.964608 
L 294.584925 57.842463 
L 296.267337 57.746317 
L 297.949749 57.673445 
L 299.632161 57.621202 
L 301.314573 57.587036 
L 302.996985 57.568495 
L 304.679397 57.563241 
L 306.361809 57.569065 
L 308.044221 57.583886 
L 309.726633 57.605771 
L 311.409045 57.632936 
L 313.091457 57.663753 
L 314.773869 57.696758 
L 316.456281 57.730649 
L 318.138693 57.764292 
L 319.821106 57.79671 
L 321.503518 57.827075 
L 323.18593 57.854683 
L 324.868342 57.878915 
L 326.550754 57.899196 
L 328.233166 57.91503 
L 329.915578 57.926322 
L 331.59799 57.933972 
L 333.280402 57.939635 
L 334.962814 57.944297 
L 336.645226 57.947371 
L 338.327638 57.946582 
L 340.01005 57.938163 
L 341.692462 57.917874 
L 343.374874 57.88226 
L 345.057286 57.82867 
L 346.739698 57.754703 
L 348.422111 57.657969 
L 350.104523 57.536086 
L 351.786935 57.386735 
L 353.469347 57.207702 
L 355.151759 56.996907 
L 356.834171 56.752424 
L 358.516583 56.47249 
L 360.198995 56.15552 
L 361.881407 55.800103 
L 363.563819 55.405014 
L 365.246231 54.969211 
L 366.928643 54.491837 
L 368.611055 53.972223 
L 370.293467 53.409885 
L 371.975879 52.804521 
L 373.658291 52.156013 
L 375.340704 51.464421 
L 377.023116 50.72998 
L 378.705528 49.953097 
L 380.38794 49.134347 
L 382.070352 48.274463 
L 383.752764 47.374339 
L 385.435176 46.435013 
L 387.117588 45.457672 
L 388.8 44.443636 
L 388.8 68.847233 
L 387.117588 67.833716 
L 385.435176 66.884162 
L 383.752764 65.997166 
L 382.070352 65.171177 
L 380.38794 64.404515 
L 378.705528 63.695371 
L 377.023116 63.041821 
L 375.340704 62.441829 
L 373.658291 61.893265 
L 371.975879 61.393905 
L 370.293467 60.941452 
L 368.611055 60.533537 
L 366.928643 60.167739 
L 365.246231 59.841591 
L 363.563819 59.552594 
L 361.881407 59.298228 
L 360.198995 59.075967 
L 358.516583 58.883291 
L 356.834171 58.717698 
L 355.151759 58.576717 
L 353.469347 58.45793 
L 351.786935 58.358977 
L 350.104523 58.277588 
L 348.422111 58.211599 
L 346.739698 58.158993 
L 345.057286 58.117945 
L 343.374874 58.086879 
L 341.692462 58.064469 
L 340.01005 58.049403 
L 338.327638 58.039823 
L 336.645226 58.033349 
L 334.962814 58.02833 
L 333.280402 58.024862 
L 331.59799 58.024978 
L 329.915578 58.032527 
L 328.233166 58.05226 
L 326.550754 58.088401 
L 324.868342 58.144395 
L 323.18593 58.223489 
L 321.503518 58.329045 
L 319.821106 58.464559 
L 318.138693 58.633608 
L 316.456281 58.839789 
L 314.773869 59.086688 
L 313.091457 59.377842 
L 311.409045 59.716721 
L 309.726633 60.106708 
L 308.044221 60.551078 
L 306.361809 61.052989 
L 304.679397 61.615462 
L 302.996985 62.241369 
L 301.314573 62.933422 
L 299.632161 63.694159 
L 297.949749 64.525929 
L 296.267337 65.43089 
L 294.584925 66.410987 
L 292.902513 67.467953 
L 291.220101 68.603295 
L 289.537688 69.818286 
L 287.855276 71.113958 
L 286.172864 72.491098 
L 284.490452 73.950242 
L 282.80804 75.491669 
L 281.125628 77.115399 
L 279.443216 78.821189 
L 277.760804 80.608535 
L 276.078392 82.476669 
L 274.39598 84.42456 
L 272.713568 86.450917 
L 271.031156 88.55419 
L 269.348744 90.732576 
L 267.666332 92.984022 
L 265.98392 95.306232 
L 264.301508 97.696672 
L 262.619095 100.152581 
L 260.936683 102.670979 
L 259.254271 105.248672 
L 257.571859 107.88227 
L 255.889447 110.568193 
L 254.207035 113.302684 
L 252.524623 116.081824 
L 250.842211 118.901544 
L 249.159799 121.757637 
L 247.477387 124.645779 
L 245.794975 127.561537 
L 244.112563 130.500389 
L 242.430151 133.457738 
L 240.747739 136.428931 
L 239.065327 139.409272 
L 237.382915 142.394041 
L 235.700503 145.37851 
L 234.01809 148.357959 
L 232.335678 151.327696 
L 230.653266 154.28307 
L 228.970854 157.219487 
L 227.288442 160.132429 
L 225.60603 163.017469 
L 223.923618 165.870285 
L 222.241206 168.686675 
L 220.558794 171.462572 
L 218.876382 174.194058 
L 217.19397 176.877377 
L 215.511558 179.508944 
L 213.829146 182.085363 
L 212.146734 184.603431 
L 210.464322 187.060152 
L 208.78191 189.452743 
L 207.099497 191.778645 
L 205.417085 194.035528 
L 203.734673 196.221296 
L 202.052261 198.334096 
L 200.369849 200.372317 
L 198.687437 202.334594 
L 197.005025 204.219813 
L 195.322613 206.027106 
L 193.640201 207.755857 
L 191.957789 209.405696 
L 190.275377 210.976497 
L 188.592965 212.468375 
L 186.910553 213.881682 
L 185.228141 215.217002 
L 183.545729 216.475142 
L 181.863317 217.657126 
L 180.180905 218.764187 
L 178.498492 219.797756 
L 176.81608 220.759457 
L 175.133668 221.651087 
L 173.451256 222.474616 
L 171.768844 223.232164 
L 170.086432 223.925999 
L 168.40402 224.558513 
L 166.721608 225.132218 
L 165.039196 225.649725 
L 163.356784 226.113734 
L 161.674372 226.527018 
L 159.99196 226.892408 
L 158.309548 227.212778 
L 156.627136 227.491032 
L 154.944724 227.730087 
L 153.262312 227.932857 
L 151.579899 228.102244 
L 149.897487 228.241119 
L 148.215075 228.352306 
L 146.532663 228.438576 
L 144.850251 228.502625 
L 143.167839 228.547067 
L 141.485427 228.574422 
L 139.803015 228.587098 
L 138.120603 228.587388 
L 136.438191 228.577456 
L 134.755779 228.559326 
L 133.073367 228.534878 
L 131.390955 228.505837 
L 129.708543 228.473771 
L 128.026131 228.440081 
L 126.343719 228.406005 
L 124.661307 228.372618 
L 122.978894 228.340839 
L 121.296482 228.311445 
L 119.61407 228.285103 
L 117.931658 228.262406 
L 116.249246 228.243902 
L 114.566834 228.229959 
L 112.884422 228.220287 
L 111.20201 228.213552 
L 109.519598 228.208225 
L 107.837186 228.203957 
L 106.154774 228.20204 
L 104.472362 228.205394 
L 102.78995 228.218086 
L 101.107538 228.244071 
L 99.425126 228.286407 
L 97.742714 228.347611 
L 96.060302 228.430092 
L 94.377889 228.536261 
L 92.695477 228.668494 
L 91.013065 228.829082 
L 89.330653 229.020197 
L 87.648241 229.243864 
L 85.965829 229.501952 
L 84.283417 229.796158 
L 82.601005 230.128002 
L 80.918593 230.498825 
L 79.236181 230.909782 
L 77.553769 231.361843 
L 75.871357 231.855792 
L 74.188945 232.392227 
L 72.506533 232.97156 
L 70.824121 233.594018 
L 69.141709 234.259651 
L 67.459296 234.968326 
L 65.776884 235.71974 
L 64.094472 236.513417 
L 62.41206 237.348719 
L 60.729648 238.224845 
L 59.047236 239.140842 
L 57.364824 240.095611 
L 55.682412 241.08791 
L 54 242.116364 
z
" style="fill:#cc3300;opacity:0.3;stroke:#cc3300;stroke-linejoin:miter;stroke-width:0.5;"/>
   </g>
   <g id="matplotlib.axis_1">
    <g id="xtick_1">
     <g id="line2d_1">
      <defs>
       <path d="M 0 0 
L 0 3.5 
" id="m022d2fc9ae" style="stroke:#000000;stroke-width:0.8;"/>
      </defs>
      <g>
       <use style="stroke:#000000;stroke-width:0.8;" x="104.208468" xlink:href="#m022d2fc9ae" y="252"/>
      </g>
     </g>
     <g id="text_1">
      <!-- −2 -->
      <defs>
       <path d="M 10.59375 35.5 
L 73.1875 35.5 
L 73.1875 27.203125 
L 10.59375 27.203125 
z
" id="DejaVuSans-2212"/>
       <path d="M 19.1875 8.296875 
L 53.609375 8.296875 
L 53.609375 0 
L 7.328125 0 
L 7.328125 8.296875 
Q 12.9375 14.109375 22.625 23.890625 
Q 32.328125 33.6875 34.8125 36.53125 
Q 39.546875 41.84375 41.421875 45.53125 
Q 43.3125 49.21875 43.3125 52.78125 
Q 43.3125 58.59375 39.234375 62.25 
Q 35.15625 65.921875 28.609375 65.921875 
Q 23.96875 65.921875 18.8125 64.3125 
Q 13.671875 62.703125 7.8125 59.421875 
L 7.8125 69.390625 
Q 13.765625 71.78125 18.9375 73 
Q 24.125 74.21875 28.421875 74.21875 
Q 39.75 74.21875 46.484375 68.546875 
Q 53.21875 62.890625 53.21875 53.421875 
Q 53.21875 48.921875 51.53125 44.890625 
Q 49.859375 40.875 45.40625 35.40625 
Q 44.1875 33.984375 37.640625 27.21875 
Q 31.109375 20.453125 19.1875 8.296875 
z
" id="DejaVuSans-32"/>
      </defs>
      <g transform="translate(96.837374 266.598437)scale(0.1 -0.1)">
       <use xlink:href="#DejaVuSans-2212"/>
       <use x="83.789062" xlink:href="#DejaVuSans-32"/>
      </g>
     </g>
    </g>
    <g id="xtick_2">
     <g id="line2d_2">
      <g>
       <use style="stroke:#000000;stroke-width:0.8;" x="162.694183" xlink:href="#m022d2fc9ae" y="252"/>
      </g>
     </g>
     <g id="text_2">
      <!-- −1 -->
      <defs>
       <path d="M 12.40625 8.296875 
L 28.515625 8.296875 
L 28.515625 63.921875 
L 10.984375 60.40625 
L 10.984375 69.390625 
L 28.421875 72.90625 
L 38.28125 72.90625 
L 38.28125 8.296875 
L 54.390625 8.296875 
L 54.390625 0 
L 12.40625 0 
z
" id="DejaVuSans-31"/>
      </defs>
      <g transform="translate(155.323089 266.598437)scale(0.1 -0.1)">
       <use xlink:href="#DejaVuSans-2212"/>
       <use x="83.789062" xlink:href="#DejaVuSans-31"/>
      </g>
     </g>
    </g>
    <g id="xtick_3">
     <g id="line2d_3">
      <g>
       <use style="stroke:#000000;stroke-width:0.8;" x="221.179897" xlink:href="#m022d2fc9ae" y="252"/>
      </g>
     </g>
     <g id="text_3">
      <!-- 0 -->
      <defs>
       <path d="M 31.78125 66.40625 
Q 24.171875 66.40625 20.328125 58.90625 
Q 16.5 51.421875 16.5 36.375 
Q 16.5 21.390625 20.328125 13.890625 
Q 24.171875 6.390625 31.78125 6.390625 
Q 39.453125 6.390625 43.28125 13.890625 
Q 47.125 21.390625 47.125 36.375 
Q 47.125 51.421875 43.28125 58.90625 
Q 39.453125 66.40625 31.78125 66.40625 
z
M 31.78125 74.21875 
Q 44.046875 74.21875 50.515625 64.515625 
Q 56.984375 54.828125 56.984375 36.375 
Q 56.984375 17.96875 50.515625 8.265625 
Q 44.046875 -1.421875 31.78125 -1.421875 
Q 19.53125 -1.421875 13.0625 8.265625 
Q 6.59375 17.96875 6.59375 36.375 
Q 6.59375 54.828125 13.0625 64.515625 
Q 19.53125 74.21875 31.78125 74.21875 
z
" id="DejaVuSans-30"/>
      </defs>
      <g transform="translate(217.998647 266.598437)scale(0.1 -0.1)">
       <use xlink:href="#DejaVuSans-30"/>
      </g>
     </g>
    </g>
    <g id="xtick_4">
     <g id="line2d_4">
      <g>
       <use style="stroke:#000000;stroke-width:0.8;" x="279.665612" xlink:href="#m022d2fc9ae" y="252"/>
      </g>
     </g>
     <g id="text_4">
      <!-- 1 -->
      <g transform="translate(276.484362 266.598437)scale(0.1 -0.1)">
       <use xlink:href="#DejaVuSans-31"/>
      </g>
     </g>
    </g>
    <g id="xtick_5">
     <g id="line2d_5">
      <g>
       <use style="stroke:#000000;stroke-width:0.8;" x="338.151326" xlink:href="#m022d2fc9ae" y="252"/>
      </g>
     </g>
     <g id="text_5">
      <!-- 2 -->
      <g transform="translate(334.970076 266.598437)scale(0.1 -0.1)">
       <use xlink:href="#DejaVuSans-32"/>
      </g>
     </g>
    </g>
    <g id="text_6">
     <!-- layer 3 -->
     <defs>
      <path d="M 9.421875 75.984375 
L 18.40625 75.984375 
L 18.40625 0 
L 9.421875 0 
z
" id="DejaVuSans-6c"/>
      <path d="M 34.28125 27.484375 
Q 23.390625 27.484375 19.1875 25 
Q 14.984375 22.515625 14.984375 16.5 
Q 14.984375 11.71875 18.140625 8.90625 
Q 21.296875 6.109375 26.703125 6.109375 
Q 34.1875 6.109375 38.703125 11.40625 
Q 43.21875 16.703125 43.21875 25.484375 
L 43.21875 27.484375 
z
M 52.203125 31.203125 
L 52.203125 0 
L 43.21875 0 
L 43.21875 8.296875 
Q 40.140625 3.328125 35.546875 0.953125 
Q 30.953125 -1.421875 24.3125 -1.421875 
Q 15.921875 -1.421875 10.953125 3.296875 
Q 6 8.015625 6 15.921875 
Q 6 25.140625 12.171875 29.828125 
Q 18.359375 34.515625 30.609375 34.515625 
L 43.21875 34.515625 
L 43.21875 35.40625 
Q 43.21875 41.609375 39.140625 45 
Q 35.0625 48.390625 27.6875 48.390625 
Q 23 48.390625 18.546875 47.265625 
Q 14.109375 46.140625 10.015625 43.890625 
L 10.015625 52.203125 
Q 14.9375 54.109375 19.578125 55.046875 
Q 24.21875 56 28.609375 56 
Q 40.484375 56 46.34375 49.84375 
Q 52.203125 43.703125 52.203125 31.203125 
z
" id="DejaVuSans-61"/>
      <path d="M 32.171875 -5.078125 
Q 28.375 -14.84375 24.75 -17.8125 
Q 21.140625 -20.796875 15.09375 -20.796875 
L 7.90625 -20.796875 
L 7.90625 -13.28125 
L 13.1875 -13.28125 
Q 16.890625 -13.28125 18.9375 -11.515625 
Q 21 -9.765625 23.484375 -3.21875 
L 25.09375 0.875 
L 2.984375 54.6875 
L 12.5 54.6875 
L 29.59375 11.921875 
L 46.6875 54.6875 
L 56.203125 54.6875 
z
" id="DejaVuSans-79"/>
      <path d="M 56.203125 29.59375 
L 56.203125 25.203125 
L 14.890625 25.203125 
Q 15.484375 15.921875 20.484375 11.0625 
Q 25.484375 6.203125 34.421875 6.203125 
Q 39.59375 6.203125 44.453125 7.46875 
Q 49.3125 8.734375 54.109375 11.28125 
L 54.109375 2.78125 
Q 49.265625 0.734375 44.1875 -0.34375 
Q 39.109375 -1.421875 33.890625 -1.421875 
Q 20.796875 -1.421875 13.15625 6.1875 
Q 5.515625 13.8125 5.515625 26.8125 
Q 5.515625 40.234375 12.765625 48.109375 
Q 20.015625 56 32.328125 56 
Q 43.359375 56 49.78125 48.890625 
Q 56.203125 41.796875 56.203125 29.59375 
z
M 47.21875 32.234375 
Q 47.125 39.59375 43.09375 43.984375 
Q 39.0625 48.390625 32.421875 48.390625 
Q 24.90625 48.390625 20.390625 44.140625 
Q 15.875 39.890625 15.1875 32.171875 
z
" id="DejaVuSans-65"/>
      <path d="M 41.109375 46.296875 
Q 39.59375 47.171875 37.8125 47.578125 
Q 36.03125 48 33.890625 48 
Q 26.265625 48 22.1875 43.046875 
Q 18.109375 38.09375 18.109375 28.8125 
L 18.109375 0 
L 9.078125 0 
L 9.078125 54.6875 
L 18.109375 54.6875 
L 18.109375 46.1875 
Q 20.953125 51.171875 25.484375 53.578125 
Q 30.03125 56 36.53125 56 
Q 37.453125 56 38.578125 55.875 
Q 39.703125 55.765625 41.0625 55.515625 
z
" id="DejaVuSans-72"/>
      <path id="DejaVuSans-20"/>
      <path d="M 40.578125 39.3125 
Q 47.65625 37.796875 51.625 33 
Q 55.609375 28.21875 55.609375 21.1875 
Q 55.609375 10.40625 48.1875 4.484375 
Q 40.765625 -1.421875 27.09375 -1.421875 
Q 22.515625 -1.421875 17.65625 -0.515625 
Q 12.796875 0.390625 7.625 2.203125 
L 7.625 11.71875 
Q 11.71875 9.328125 16.59375 8.109375 
Q 21.484375 6.890625 26.8125 6.890625 
Q 36.078125 6.890625 40.9375 10.546875 
Q 45.796875 14.203125 45.796875 21.1875 
Q 45.796875 27.640625 41.28125 31.265625 
Q 36.765625 34.90625 28.71875 34.90625 
L 20.21875 34.90625 
L 20.21875 43.015625 
L 29.109375 43.015625 
Q 36.375 43.015625 40.234375 45.921875 
Q 44.09375 48.828125 44.09375 54.296875 
Q 44.09375 59.90625 40.109375 62.90625 
Q 36.140625 65.921875 28.71875 65.921875 
Q 24.65625 65.921875 20.015625 65.03125 
Q 15.375 64.15625 9.8125 62.3125 
L 9.8125 71.09375 
Q 15.4375 72.65625 20.34375 73.4375 
Q 25.25 74.21875 29.59375 74.21875 
Q 40.828125 74.21875 47.359375 69.109375 
Q 53.90625 64.015625 53.90625 55.328125 
Q 53.90625 49.265625 50.4375 45.09375 
Q 46.96875 40.921875 40.578125 39.3125 
z
" id="DejaVuSans-33"/>
     </defs>
     <g transform="translate(186.770312 287.875)scale(0.2 -0.2)">
      <use xlink:href="#DejaVuSans-6c"/>
      <use x="27.783203" xlink:href="#DejaVuSans-61"/>
      <use x="89.0625" xlink:href="#DejaVuSans-79"/>
      <use x="148.242188" xlink:href="#DejaVuSans-65"/>
      <use x="209.765625" xlink:href="#DejaVuSans-72"/>
      <use x="250.878906" xlink:href="#DejaVuSans-20"/>
      <use x="282.666016" xlink:href="#DejaVuSans-33"/>
     </g>
    </g>
   </g>
   <g id="matplotlib.axis_2">
    <g id="ytick_1">
     <g id="line2d_6">
      <defs>
       <path d="M 0 0 
L -3.5 0 
" id="mdccc20fae4" style="stroke:#000000;stroke-width:0.8;"/>
      </defs>
      <g>
       <use style="stroke:#000000;stroke-width:0.8;" x="54" xlink:href="#mdccc20fae4" y="228.162834"/>
      </g>
     </g>
     <g id="text_7">
      <!-- 0.0 -->
      <defs>
       <path d="M 10.6875 12.40625 
L 21 12.40625 
L 21 0 
L 10.6875 0 
z
" id="DejaVuSans-2e"/>
      </defs>
      <g transform="translate(31.096875 231.962052)scale(0.1 -0.1)">
       <use xlink:href="#DejaVuSans-30"/>
       <use x="63.623047" xlink:href="#DejaVuSans-2e"/>
       <use x="95.410156" xlink:href="#DejaVuSans-30"/>
      </g>
     </g>
    </g>
    <g id="ytick_2">
     <g id="line2d_7">
      <g>
       <use style="stroke:#000000;stroke-width:0.8;" x="54" xlink:href="#mdccc20fae4" y="194.127652"/>
      </g>
     </g>
     <g id="text_8">
      <!-- 0.2 -->
      <g transform="translate(31.096875 197.926871)scale(0.1 -0.1)">
       <use xlink:href="#DejaVuSans-30"/>
       <use x="63.623047" xlink:href="#DejaVuSans-2e"/>
       <use x="95.410156" xlink:href="#DejaVuSans-32"/>
      </g>
     </g>
    </g>
    <g id="ytick_3">
     <g id="line2d_8">
      <g>
       <use style="stroke:#000000;stroke-width:0.8;" x="54" xlink:href="#mdccc20fae4" y="160.09247"/>
      </g>
     </g>
     <g id="text_9">
      <!-- 0.4 -->
      <defs>
       <path d="M 37.796875 64.3125 
L 12.890625 25.390625 
L 37.796875 25.390625 
z
M 35.203125 72.90625 
L 47.609375 72.90625 
L 47.609375 25.390625 
L 58.015625 25.390625 
L 58.015625 17.1875 
L 47.609375 17.1875 
L 47.609375 0 
L 37.796875 0 
L 37.796875 17.1875 
L 4.890625 17.1875 
L 4.890625 26.703125 
z
" id="DejaVuSans-34"/>
      </defs>
      <g transform="translate(31.096875 163.891689)scale(0.1 -0.1)">
       <use xlink:href="#DejaVuSans-30"/>
       <use x="63.623047" xlink:href="#DejaVuSans-2e"/>
       <use x="95.410156" xlink:href="#DejaVuSans-34"/>
      </g>
     </g>
    </g>
    <g id="ytick_4">
     <g id="line2d_9">
      <g>
       <use style="stroke:#000000;stroke-width:0.8;" x="54" xlink:href="#mdccc20fae4" y="126.057289"/>
      </g>
     </g>
     <g id="text_10">
      <!-- 0.6 -->
      <defs>
       <path d="M 33.015625 40.375 
Q 26.375 40.375 22.484375 35.828125 
Q 18.609375 31.296875 18.609375 23.390625 
Q 18.609375 15.53125 22.484375 10.953125 
Q 26.375 6.390625 33.015625 6.390625 
Q 39.65625 6.390625 43.53125 10.953125 
Q 47.40625 15.53125 47.40625 23.390625 
Q 47.40625 31.296875 43.53125 35.828125 
Q 39.65625 40.375 33.015625 40.375 
z
M 52.59375 71.296875 
L 52.59375 62.3125 
Q 48.875 64.0625 45.09375 64.984375 
Q 41.3125 65.921875 37.59375 65.921875 
Q 27.828125 65.921875 22.671875 59.328125 
Q 17.53125 52.734375 16.796875 39.40625 
Q 19.671875 43.65625 24.015625 45.921875 
Q 28.375 48.1875 33.59375 48.1875 
Q 44.578125 48.1875 50.953125 41.515625 
Q 57.328125 34.859375 57.328125 23.390625 
Q 57.328125 12.15625 50.6875 5.359375 
Q 44.046875 -1.421875 33.015625 -1.421875 
Q 20.359375 -1.421875 13.671875 8.265625 
Q 6.984375 17.96875 6.984375 36.375 
Q 6.984375 53.65625 15.1875 63.9375 
Q 23.390625 74.21875 37.203125 74.21875 
Q 40.921875 74.21875 44.703125 73.484375 
Q 48.484375 72.75 52.59375 71.296875 
z
" id="DejaVuSans-36"/>
      </defs>
      <g transform="translate(31.096875 129.856507)scale(0.1 -0.1)">
       <use xlink:href="#DejaVuSans-30"/>
       <use x="63.623047" xlink:href="#DejaVuSans-2e"/>
       <use x="95.410156" xlink:href="#DejaVuSans-36"/>
      </g>
     </g>
    </g>
    <g id="ytick_5">
     <g id="line2d_10">
      <g>
       <use style="stroke:#000000;stroke-width:0.8;" x="54" xlink:href="#mdccc20fae4" y="92.022107"/>
      </g>
     </g>
     <g id="text_11">
      <!-- 0.8 -->
      <defs>
       <path d="M 31.78125 34.625 
Q 24.75 34.625 20.71875 30.859375 
Q 16.703125 27.09375 16.703125 20.515625 
Q 16.703125 13.921875 20.71875 10.15625 
Q 24.75 6.390625 31.78125 6.390625 
Q 38.8125 6.390625 42.859375 10.171875 
Q 46.921875 13.96875 46.921875 20.515625 
Q 46.921875 27.09375 42.890625 30.859375 
Q 38.875 34.625 31.78125 34.625 
z
M 21.921875 38.8125 
Q 15.578125 40.375 12.03125 44.71875 
Q 8.5 49.078125 8.5 55.328125 
Q 8.5 64.0625 14.71875 69.140625 
Q 20.953125 74.21875 31.78125 74.21875 
Q 42.671875 74.21875 48.875 69.140625 
Q 55.078125 64.0625 55.078125 55.328125 
Q 55.078125 49.078125 51.53125 44.71875 
Q 48 40.375 41.703125 38.8125 
Q 48.828125 37.15625 52.796875 32.3125 
Q 56.78125 27.484375 56.78125 20.515625 
Q 56.78125 9.90625 50.3125 4.234375 
Q 43.84375 -1.421875 31.78125 -1.421875 
Q 19.734375 -1.421875 13.25 4.234375 
Q 6.78125 9.90625 6.78125 20.515625 
Q 6.78125 27.484375 10.78125 32.3125 
Q 14.796875 37.15625 21.921875 38.8125 
z
M 18.3125 54.390625 
Q 18.3125 48.734375 21.84375 45.5625 
Q 25.390625 42.390625 31.78125 42.390625 
Q 38.140625 42.390625 41.71875 45.5625 
Q 45.3125 48.734375 45.3125 54.390625 
Q 45.3125 60.0625 41.71875 63.234375 
Q 38.140625 66.40625 31.78125 66.40625 
Q 25.390625 66.40625 21.84375 63.234375 
Q 18.3125 60.0625 18.3125 54.390625 
z
" id="DejaVuSans-38"/>
      </defs>
      <g transform="translate(31.096875 95.821326)scale(0.1 -0.1)">
       <use xlink:href="#DejaVuSans-30"/>
       <use x="63.623047" xlink:href="#DejaVuSans-2e"/>
       <use x="95.410156" xlink:href="#DejaVuSans-38"/>
      </g>
     </g>
    </g>
    <g id="ytick_6">
     <g id="line2d_11">
      <g>
       <use style="stroke:#000000;stroke-width:0.8;" x="54" xlink:href="#mdccc20fae4" y="57.986925"/>
      </g>
     </g>
     <g id="text_12">
      <!-- 1.0 -->
      <g transform="translate(31.096875 61.786144)scale(0.1 -0.1)">
       <use xlink:href="#DejaVuSans-31"/>
       <use x="63.623047" xlink:href="#DejaVuSans-2e"/>
       <use x="95.410156" xlink:href="#DejaVuSans-30"/>
      </g>
     </g>
    </g>
    <g id="text_13">
     <!-- output -->
     <defs>
      <path d="M 30.609375 48.390625 
Q 23.390625 48.390625 19.1875 42.75 
Q 14.984375 37.109375 14.984375 27.296875 
Q 14.984375 17.484375 19.15625 11.84375 
Q 23.34375 6.203125 30.609375 6.203125 
Q 37.796875 6.203125 41.984375 11.859375 
Q 46.1875 17.53125 46.1875 27.296875 
Q 46.1875 37.015625 41.984375 42.703125 
Q 37.796875 48.390625 30.609375 48.390625 
z
M 30.609375 56 
Q 42.328125 56 49.015625 48.375 
Q 55.71875 40.765625 55.71875 27.296875 
Q 55.71875 13.875 49.015625 6.21875 
Q 42.328125 -1.421875 30.609375 -1.421875 
Q 18.84375 -1.421875 12.171875 6.21875 
Q 5.515625 13.875 5.515625 27.296875 
Q 5.515625 40.765625 12.171875 48.375 
Q 18.84375 56 30.609375 56 
z
" id="DejaVuSans-6f"/>
      <path d="M 8.5 21.578125 
L 8.5 54.6875 
L 17.484375 54.6875 
L 17.484375 21.921875 
Q 17.484375 14.15625 20.5 10.265625 
Q 23.53125 6.390625 29.59375 6.390625 
Q 36.859375 6.390625 41.078125 11.03125 
Q 45.3125 15.671875 45.3125 23.6875 
L 45.3125 54.6875 
L 54.296875 54.6875 
L 54.296875 0 
L 45.3125 0 
L 45.3125 8.40625 
Q 42.046875 3.421875 37.71875 1 
Q 33.40625 -1.421875 27.6875 -1.421875 
Q 18.265625 -1.421875 13.375 4.4375 
Q 8.5 10.296875 8.5 21.578125 
z
M 31.109375 56 
z
" id="DejaVuSans-75"/>
      <path d="M 18.3125 70.21875 
L 18.3125 54.6875 
L 36.8125 54.6875 
L 36.8125 47.703125 
L 18.3125 47.703125 
L 18.3125 18.015625 
Q 18.3125 11.328125 20.140625 9.421875 
Q 21.96875 7.515625 27.59375 7.515625 
L 36.8125 7.515625 
L 36.8125 0 
L 27.59375 0 
Q 17.1875 0 13.234375 3.875 
Q 9.28125 7.765625 9.28125 18.015625 
L 9.28125 47.703125 
L 2.6875 47.703125 
L 2.6875 54.6875 
L 9.28125 54.6875 
L 9.28125 70.21875 
z
" id="DejaVuSans-74"/>
      <path d="M 18.109375 8.203125 
L 18.109375 -20.796875 
L 9.078125 -20.796875 
L 9.078125 54.6875 
L 18.109375 54.6875 
L 18.109375 46.390625 
Q 20.953125 51.265625 25.265625 53.625 
Q 29.59375 56 35.59375 56 
Q 45.5625 56 51.78125 48.09375 
Q 58.015625 40.1875 58.015625 27.296875 
Q 58.015625 14.40625 51.78125 6.484375 
Q 45.5625 -1.421875 35.59375 -1.421875 
Q 29.59375 -1.421875 25.265625 0.953125 
Q 20.953125 3.328125 18.109375 8.203125 
z
M 48.6875 27.296875 
Q 48.6875 37.203125 44.609375 42.84375 
Q 40.53125 48.484375 33.40625 48.484375 
Q 26.265625 48.484375 22.1875 42.84375 
Q 18.109375 37.203125 18.109375 27.296875 
Q 18.109375 17.390625 22.1875 11.75 
Q 26.265625 6.109375 33.40625 6.109375 
Q 40.53125 6.109375 44.609375 11.75 
Q 48.6875 17.390625 48.6875 27.296875 
z
" id="DejaVuSans-70"/>
     </defs>
     <g transform="translate(22.9375 176.262812)rotate(-90)scale(0.2 -0.2)">
      <use xlink:href="#DejaVuSans-6f"/>
      <use x="61.181641" xlink:href="#DejaVuSans-75"/>
      <use x="124.560547" xlink:href="#DejaVuSans-74"/>
      <use x="163.769531" xlink:href="#DejaVuSans-70"/>
      <use x="227.246094" xlink:href="#DejaVuSans-75"/>
      <use x="290.625" xlink:href="#DejaVuSans-74"/>
     </g>
    </g>
   </g>
   <g id="line2d_12">
    <path clip-path="url(#p7b19041e56)" d="M 54 229.501155 
L 60.729648 229.443434 
L 70.824121 229.080595 
L 89.330653 228.334311 
L 99.425126 228.169 
L 124.661307 227.979323 
L 129.708543 227.681824 
L 134.755779 227.167803 
L 139.803015 226.371599 
L 143.167839 225.651103 
L 146.532663 224.75613 
L 149.897487 223.667933 
L 153.262312 222.368799 
L 156.627136 220.84239 
L 159.99196 219.074083 
L 163.356784 217.051279 
L 166.721608 214.763686 
L 170.086432 212.203583 
L 173.451256 209.366032 
L 176.81608 206.249061 
L 180.180905 202.853793 
L 183.545729 199.184536 
L 186.910553 195.248816 
L 190.275377 191.057358 
L 195.322613 184.321809 
L 200.369849 177.102045 
L 205.417085 169.471187 
L 212.146734 158.80565 
L 222.241206 142.224107 
L 232.335678 125.685382 
L 239.065327 115.0939 
L 244.112563 107.53999 
L 249.159799 100.413098 
L 254.207035 93.783699 
L 257.571859 89.668925 
L 260.936683 85.813531 
L 264.301508 82.227276 
L 267.666332 78.916705 
L 271.031156 75.885147 
L 274.39598 73.132769 
L 277.760804 70.656674 
L 281.125628 68.451049 
L 284.490452 66.507356 
L 287.855276 64.814565 
L 291.220101 63.359418 
L 294.584925 62.126725 
L 297.949749 61.099687 
L 301.314573 60.260229 
L 304.679397 59.589352 
L 309.726633 58.85624 
L 314.773869 58.391723 
L 319.821106 58.130635 
L 326.550754 57.993798 
L 356.834171 57.735061 
L 370.293467 57.175668 
L 382.070352 56.72282 
L 388.8 56.645435 
L 388.8 56.645435 
" style="fill:none;stroke:#3300ff;stroke-linecap:square;stroke-width:2;"/>
   </g>
   <g id="line2d_13">
    <path clip-path="url(#p7b19041e56)" d="M 54 216.885946 
L 57.364824 218.900234 
L 60.729648 220.662024 
L 64.094472 222.183785 
L 67.459296 223.480057 
L 70.824121 224.567172 
L 74.188945 225.462949 
L 77.553769 226.186353 
L 82.601005 226.991576 
L 87.648241 227.521387 
L 92.695477 227.842545 
L 99.425126 228.051593 
L 111.20201 228.125345 
L 117.931658 228.029749 
L 122.978894 227.74172 
L 128.026131 227.16368 
L 131.390955 226.569637 
L 134.755779 225.77628 
L 138.120603 224.75756 
L 141.485427 223.489494 
L 144.850251 221.950611 
L 148.215075 220.122334 
L 151.579899 217.989337 
L 154.944724 215.539836 
L 158.309548 212.765847 
L 161.674372 209.66337 
L 165.039196 206.232529 
L 168.40402 202.477637 
L 171.768844 198.407202 
L 175.133668 194.033868 
L 178.498492 189.374283 
L 183.545729 181.89393 
L 188.592965 173.900146 
L 193.640201 165.492188 
L 200.369849 153.831773 
L 218.876382 121.382685 
L 223.923618 113.013322 
L 228.970854 105.063342 
L 234.01809 97.626054 
L 237.382915 92.991483 
L 240.747739 88.637798 
L 244.112563 84.579591 
L 247.477387 80.827532 
L 250.842211 77.388324 
L 254.207035 74.264713 
L 257.571859 71.455579 
L 260.936683 68.956084 
L 264.301508 66.757881 
L 267.666332 64.849387 
L 271.031156 63.216103 
L 274.39598 61.840977 
L 277.760804 60.704813 
L 281.125628 59.786699 
L 284.490452 59.06447 
L 287.855276 58.515173 
L 292.902513 57.964608 
L 297.949749 57.673445 
L 304.679397 57.563241 
L 314.773869 57.696758 
L 331.59799 57.933972 
L 343.374874 57.88226 
L 348.422111 57.657969 
L 353.469347 57.207702 
L 358.516583 56.47249 
L 361.881407 55.800103 
L 365.246231 54.969211 
L 368.611055 53.972223 
L 371.975879 52.804521 
L 375.340704 51.464421 
L 378.705528 49.953097 
L 383.752764 47.374339 
L 388.8 44.443636 
L 388.8 44.443636 
" style="fill:none;stroke:#3300ff;stroke-linecap:square;stroke-width:0.2;"/>
   </g>
   <g id="line2d_14">
    <path clip-path="url(#p7b19041e56)" d="M 54 242.116364 
L 59.047236 239.140842 
L 64.094472 236.513417 
L 67.459296 234.968326 
L 70.824121 233.594018 
L 74.188945 232.392227 
L 77.553769 231.361843 
L 80.918593 230.498825 
L 84.283417 229.796158 
L 89.330653 229.020197 
L 94.377889 228.536261 
L 99.425126 228.286407 
L 106.154774 228.20204 
L 121.296482 228.311445 
L 141.485427 228.574422 
L 146.532663 228.438576 
L 151.579899 228.102244 
L 156.627136 227.491032 
L 159.99196 226.892408 
L 163.356784 226.113734 
L 166.721608 225.132218 
L 170.086432 223.925999 
L 173.451256 222.474616 
L 176.81608 220.759457 
L 180.180905 218.764187 
L 183.545729 216.475142 
L 186.910553 213.881682 
L 190.275377 210.976497 
L 193.640201 207.755857 
L 197.005025 204.219813 
L 200.369849 200.372317 
L 203.734673 196.221296 
L 207.099497 191.778645 
L 210.464322 187.060152 
L 215.511558 179.508944 
L 220.558794 171.462572 
L 225.60603 163.017469 
L 232.335678 151.327696 
L 249.159799 121.757637 
L 254.207035 113.302684 
L 259.254271 105.248672 
L 264.301508 97.696672 
L 267.666332 92.984022 
L 271.031156 88.55419 
L 274.39598 84.42456 
L 277.760804 80.608535 
L 281.125628 77.115399 
L 284.490452 73.950242 
L 287.855276 71.113958 
L 291.220101 68.603295 
L 294.584925 66.410987 
L 297.949749 64.525929 
L 301.314573 62.933422 
L 304.679397 61.615462 
L 308.044221 60.551078 
L 311.409045 59.716721 
L 314.773869 59.086688 
L 318.138693 58.633608 
L 323.18593 58.223489 
L 328.233166 58.05226 
L 338.327638 58.039823 
L 346.739698 58.158993 
L 353.469347 58.45793 
L 358.516583 58.883291 
L 363.563819 59.552594 
L 366.928643 60.167739 
L 370.293467 60.941452 
L 373.658291 61.893265 
L 377.023116 63.041821 
L 380.38794 64.404515 
L 383.752764 65.997166 
L 387.117588 67.833716 
L 388.8 68.847233 
L 388.8 68.847233 
" style="fill:none;stroke:#3300ff;stroke-linecap:square;stroke-width:0.2;"/>
   </g>
   <g id="line2d_15">
    <defs>
     <path d="M 0 2.5 
C 0.663008 2.5 1.29895 2.236584 1.767767 1.767767 
C 2.236584 1.29895 2.5 0.663008 2.5 0 
C 2.5 -0.663008 2.236584 -1.29895 1.767767 -1.767767 
C 1.29895 -2.236584 0.663008 -2.5 0 -2.5 
C -0.663008 -2.5 -1.29895 -2.236584 -1.767767 -1.767767 
C -2.236584 -1.29895 -2.5 -0.663008 -2.5 0 
C -2.5 0.663008 -2.236584 1.29895 -1.767767 1.767767 
C -1.29895 2.236584 -0.663008 2.5 0 2.5 
z
" id="m035a1f566a" style="stroke:#ff0000;"/>
    </defs>
    <g clip-path="url(#p7b19041e56)">
     <use style="fill:#ff0000;stroke:#ff0000;" x="108.674345" xlink:href="#m035a1f566a" y="228.162834"/>
     <use style="fill:#ff0000;stroke:#ff0000;" x="108.674069" xlink:href="#m035a1f566a" y="228.162834"/>
     <use style="fill:#ff0000;stroke:#ff0000;" x="108.673963" xlink:href="#m035a1f566a" y="228.162834"/>
     <use style="fill:#ff0000;stroke:#ff0000;" x="108.673999" xlink:href="#m035a1f566a" y="228.162834"/>
     <use style="fill:#ff0000;stroke:#ff0000;" x="108.674152" xlink:href="#m035a1f566a" y="228.162834"/>
     <use style="fill:#ff0000;stroke:#ff0000;" x="108.674397" xlink:href="#m035a1f566a" y="228.162834"/>
     <use style="fill:#ff0000;stroke:#ff0000;" x="108.674677" xlink:href="#m035a1f566a" y="228.162834"/>
     <use style="fill:#ff0000;stroke:#ff0000;" x="108.674959" xlink:href="#m035a1f566a" y="228.162834"/>
     <use style="fill:#ff0000;stroke:#ff0000;" x="108.675164" xlink:href="#m035a1f566a" y="228.162834"/>
     <use style="fill:#ff0000;stroke:#ff0000;" x="108.675249" xlink:href="#m035a1f566a" y="228.162834"/>
     <use style="fill:#ff0000;stroke:#ff0000;" x="108.675141" xlink:href="#m035a1f566a" y="228.162834"/>
     <use style="fill:#ff0000;stroke:#ff0000;" x="108.674908" xlink:href="#m035a1f566a" y="228.162834"/>
     <use style="fill:#ff0000;stroke:#ff0000;" x="108.674568" xlink:href="#m035a1f566a" y="228.162834"/>
     <use style="fill:#ff0000;stroke:#ff0000;" x="108.674233" xlink:href="#m035a1f566a" y="228.162834"/>
     <use style="fill:#ff0000;stroke:#ff0000;" x="108.673988" xlink:href="#m035a1f566a" y="228.162834"/>
     <use style="fill:#ff0000;stroke:#ff0000;" x="108.673906" xlink:href="#m035a1f566a" y="228.162834"/>
     <use style="fill:#ff0000;stroke:#ff0000;" x="108.674019" xlink:href="#m035a1f566a" y="228.162834"/>
     <use style="fill:#ff0000;stroke:#ff0000;" x="108.674289" xlink:href="#m035a1f566a" y="228.162834"/>
     <use style="fill:#ff0000;stroke:#ff0000;" x="108.6745" xlink:href="#m035a1f566a" y="228.162834"/>
     <use style="fill:#ff0000;stroke:#ff0000;" x="108.674682" xlink:href="#m035a1f566a" y="228.162834"/>
     <use style="fill:#ff0000;stroke:#ff0000;" x="108.675877" xlink:href="#m035a1f566a" y="228.162834"/>
     <use style="fill:#ff0000;stroke:#ff0000;" x="108.682077" xlink:href="#m035a1f566a" y="228.162834"/>
     <use style="fill:#ff0000;stroke:#ff0000;" x="108.6985" xlink:href="#m035a1f566a" y="228.162834"/>
     <use style="fill:#ff0000;stroke:#ff0000;" x="108.724735" xlink:href="#m035a1f566a" y="228.162834"/>
     <use style="fill:#ff0000;stroke:#ff0000;" x="108.789025" xlink:href="#m035a1f566a" y="228.162834"/>
     <use style="fill:#ff0000;stroke:#ff0000;" x="334.665114" xlink:href="#m035a1f566a" y="57.986925"/>
     <use style="fill:#ff0000;stroke:#ff0000;" x="334.731298" xlink:href="#m035a1f566a" y="57.986925"/>
     <use style="fill:#ff0000;stroke:#ff0000;" x="334.756288" xlink:href="#m035a1f566a" y="57.986925"/>
     <use style="fill:#ff0000;stroke:#ff0000;" x="334.773427" xlink:href="#m035a1f566a" y="57.986925"/>
     <use style="fill:#ff0000;stroke:#ff0000;" x="334.779679" xlink:href="#m035a1f566a" y="57.986925"/>
     <use style="fill:#ff0000;stroke:#ff0000;" x="334.780885" xlink:href="#m035a1f566a" y="57.986925"/>
     <use style="fill:#ff0000;stroke:#ff0000;" x="334.781082" xlink:href="#m035a1f566a" y="57.986925"/>
     <use style="fill:#ff0000;stroke:#ff0000;" x="334.781313" xlink:href="#m035a1f566a" y="57.986925"/>
     <use style="fill:#ff0000;stroke:#ff0000;" x="334.781588" xlink:href="#m035a1f566a" y="57.986925"/>
     <use style="fill:#ff0000;stroke:#ff0000;" x="334.781704" xlink:href="#m035a1f566a" y="57.986925"/>
     <use style="fill:#ff0000;stroke:#ff0000;" x="334.781621" xlink:href="#m035a1f566a" y="57.986925"/>
     <use style="fill:#ff0000;stroke:#ff0000;" x="334.781381" xlink:href="#m035a1f566a" y="57.986925"/>
     <use style="fill:#ff0000;stroke:#ff0000;" x="334.781042" xlink:href="#m035a1f566a" y="57.986925"/>
     <use style="fill:#ff0000;stroke:#ff0000;" x="334.780706" xlink:href="#m035a1f566a" y="57.986925"/>
     <use style="fill:#ff0000;stroke:#ff0000;" x="334.780463" xlink:href="#m035a1f566a" y="57.986925"/>
     <use style="fill:#ff0000;stroke:#ff0000;" x="334.78037" xlink:href="#m035a1f566a" y="57.986925"/>
     <use style="fill:#ff0000;stroke:#ff0000;" x="334.780451" xlink:href="#m035a1f566a" y="57.986925"/>
     <use style="fill:#ff0000;stroke:#ff0000;" x="334.780655" xlink:href="#m035a1f566a" y="57.986925"/>
     <use style="fill:#ff0000;stroke:#ff0000;" x="334.780935" xlink:href="#m035a1f566a" y="57.986925"/>
     <use style="fill:#ff0000;stroke:#ff0000;" x="334.781221" xlink:href="#m035a1f566a" y="57.986925"/>
     <use style="fill:#ff0000;stroke:#ff0000;" x="334.781462" xlink:href="#m035a1f566a" y="57.986925"/>
     <use style="fill:#ff0000;stroke:#ff0000;" x="334.781607" xlink:href="#m035a1f566a" y="57.986925"/>
     <use style="fill:#ff0000;stroke:#ff0000;" x="334.781648" xlink:href="#m035a1f566a" y="57.986925"/>
     <use style="fill:#ff0000;stroke:#ff0000;" x="334.781533" xlink:href="#m035a1f566a" y="57.986925"/>
     <use style="fill:#ff0000;stroke:#ff0000;" x="334.781237" xlink:href="#m035a1f566a" y="57.986925"/>
    </g>
   </g>
   <g id="patch_4">
    <path d="M 54 252 
L 54 34.56 
" style="fill:none;stroke:#000000;stroke-linecap:square;stroke-linejoin:miter;stroke-width:0.8;"/>
   </g>
   <g id="patch_5">
    <path d="M 388.8 252 
L 388.8 34.56 
" style="fill:none;stroke:#000000;stroke-linecap:square;stroke-linejoin:miter;stroke-width:0.8;"/>
   </g>
   <g id="patch_6">
    <path d="M 54 252 
L 388.8 252 
" style="fill:none;stroke:#000000;stroke-linecap:square;stroke-linejoin:miter;stroke-width:0.8;"/>
   </g>
   <g id="patch_7">
    <path d="M 54 34.56 
L 388.8 34.56 
" style="fill:none;stroke:#000000;stroke-linecap:square;stroke-linejoin:miter;stroke-width:0.8;"/>
   </g>
  </g>
 </g>
 <defs>
  <clipPath id="p7b19041e56">
   <rect height="217.44" width="334.8" x="54" y="34.56"/>
  </clipPath>
 </defs>
</svg>
