<?xml version="1.0" encoding="utf-8" standalone="no"?>
<!DOCTYPE svg PUBLIC "-//W3C//DTD SVG 1.1//EN"
  "http://www.w3.org/Graphics/SVG/1.1/DTD/svg11.dtd">
<!-- Created with matplotlib (http://matplotlib.org/) -->
<svg height="432pt" version="1.1" viewBox="0 0 720 432" width="720pt" xmlns="http://www.w3.org/2000/svg" xmlns:xlink="http://www.w3.org/1999/xlink">
 <defs>
  <style type="text/css">
*{stroke-linecap:butt;stroke-linejoin:round;}
  </style>
 </defs>
 <g id="figure_1">
  <g id="patch_1">
   <path d="M 0 432 
L 720 432 
L 720 0 
L 0 0 
z
" style="fill:none;"/>
  </g>
  <g id="axes_1">
   <g id="patch_2">
    <path d="M 90 378 
L 648 378 
L 648 51.84 
L 90 51.84 
z
" style="fill:none;"/>
   </g>
   <g id="patch_3">
    <path clip-path="url(#p820ba35d6d)" d="M 90 99.228845 
L 92.80402 99.549431 
L 95.60804 99.893576 
L 98.41206 100.263439 
L 101.21608 100.661446 
L 104.020101 101.090324 
L 106.824121 101.553153 
L 109.628141 102.053411 
L 112.432161 102.595042 
L 115.236181 103.182523 
L 118.040201 103.820953 
L 120.844221 104.516153 
L 123.648241 105.274788 
L 126.452261 106.104512 
L 129.256281 107.01414 
L 132.060302 108.013862 
L 134.864322 109.115495 
L 137.668342 110.332792 
L 140.472362 111.681821 
L 143.276382 113.181424 
L 146.080402 114.853776 
L 148.884422 116.725073 
L 151.688442 118.826367 
L 154.492462 121.194571 
L 157.296482 123.873677 
L 160.100503 126.916188 
L 162.904523 130.384765 
L 165.708543 134.354043 
L 168.512563 138.91247 
L 171.316583 144.163848 
L 174.120603 150.227931 
L 176.924623 157.238876 
L 179.728643 165.339406 
L 182.532663 174.667093 
L 185.336683 185.327376 
L 188.140704 197.346641 
L 190.944724 210.600943 
L 193.748744 224.728001 
L 196.552764 239.05869 
L 199.356784 252.642282 
L 202.160804 264.442389 
L 204.964824 273.681605 
L 207.768844 280.140883 
L 210.572864 284.180371 
L 213.376884 286.472778 
L 216.180905 287.682824 
L 218.984925 288.295179 
L 221.788945 288.601402 
L 224.592965 288.756628 
L 227.396985 288.837831 
L 230.201005 288.882111 
L 233.005025 288.907359 
L 235.809045 288.92237 
L 238.613065 288.931611 
L 241.417085 288.937426 
L 244.221106 288.941111 
L 247.025126 288.943397 
L 249.829146 288.944732 
L 252.633166 288.945387 
L 255.437186 288.945539 
L 258.241206 288.945314 
L 261.045226 288.9448 
L 263.849246 288.944076 
L 266.653266 288.943214 
L 269.457286 288.942282 
L 272.261307 288.941355 
L 275.065327 288.940506 
L 277.869347 288.939806 
L 280.673367 288.939318 
L 283.477387 288.939098 
L 286.281407 288.939174 
L 289.085427 288.939555 
L 291.889447 288.940219 
L 294.693467 288.94112 
L 297.497487 288.942184 
L 300.301508 288.94332 
L 303.105528 288.944424 
L 305.909548 288.945375 
L 308.713568 288.946033 
L 311.517588 288.946238 
L 314.321608 288.945759 
L 317.125628 288.944241 
L 319.929648 288.941078 
L 322.733668 288.935117 
L 325.537688 288.923971 
L 328.341709 288.902241 
L 331.145729 288.856494 
L 333.949749 288.750107 
L 336.753769 288.475215 
L 339.557789 287.701768 
L 342.361809 285.465313 
L 345.165829 279.432548 
L 347.969849 265.873358 
L 350.773869 242.540475 
L 353.577889 212.311068 
L 356.38191 181.286718 
L 359.18593 153.955482 
L 361.98995 131.794235 
L 364.79397 114.513504 
L 367.59799 101.29945 
L 370.40201 91.450679 
L 373.20603 84.651777 
L 376.01005 81.094164 
L 378.81407 81.492735 
L 381.61809 86.847203 
L 384.422111 97.553333 
L 387.226131 111.776085 
L 390.030151 125.093805 
L 392.834171 133.84415 
L 395.638191 138.060658 
L 398.442211 139.714545 
L 401.246231 140.31247 
L 404.050251 140.532745 
L 406.854271 140.620364 
L 409.658291 140.658777 
L 412.462312 140.67726 
L 415.266332 140.686818 
L 418.070352 140.691957 
L 420.874372 140.694689 
L 423.678392 140.696001 
L 426.482412 140.696414 
L 429.286432 140.696233 
L 432.090452 140.695658 
L 434.894472 140.694833 
L 437.698492 140.693877 
L 440.502513 140.692896 
L 443.306533 140.69198 
L 446.110553 140.691208 
L 448.914573 140.690644 
L 451.718593 140.690325 
L 454.522613 140.690271 
L 457.326633 140.690473 
L 460.130653 140.690903 
L 462.934673 140.691516 
L 465.738693 140.692256 
L 468.542714 140.69306 
L 471.346734 140.693864 
L 474.150754 140.694605 
L 476.954774 140.695222 
L 479.758794 140.695652 
L 482.562814 140.695826 
L 485.366834 140.695661 
L 488.170854 140.695048 
L 490.974874 140.693826 
L 493.778894 140.691749 
L 496.582915 140.688422 
L 499.386935 140.68318 
L 502.190955 140.67487 
L 504.994975 140.661398 
L 507.798995 140.638822 
L 510.603015 140.599451 
L 513.407035 140.527887 
L 516.211055 140.392859 
L 519.015075 140.131227 
L 521.819095 139.620189 
L 524.623116 138.639932 
L 527.427136 136.850584 
L 530.231156 133.840095 
L 533.035176 129.294393 
L 535.839196 123.232375 
L 538.643216 116.113509 
L 541.447236 108.686201 
L 544.251256 101.687947 
L 547.055276 95.620478 
L 549.859296 90.698129 
L 552.663317 86.915658 
L 555.467337 84.145833 
L 558.271357 82.216007 
L 561.075377 80.95309 
L 563.879397 80.204241 
L 566.683417 79.843236 
L 569.487437 79.769795 
L 572.291457 79.906114 
L 575.095477 80.19272 
L 577.899497 80.584592 
L 580.703518 81.047884 
L 583.507538 81.557287 
L 586.311558 82.093966 
L 589.115578 82.643984 
L 591.919598 83.197099 
L 594.723618 83.745857 
L 597.527638 84.284903 
L 600.331658 84.810468 
L 603.135678 85.319974 
L 605.939698 85.811743 
L 608.743719 86.28477 
L 611.547739 86.738553 
L 614.351759 87.172962 
L 617.155779 87.588141 
L 619.959799 87.984431 
L 622.763819 88.36231 
L 625.567839 88.722353 
L 628.371859 89.065193 
L 631.175879 89.391497 
L 633.979899 89.701948 
L 636.78392 89.997228 
L 639.58794 90.278008 
L 642.39196 90.544943 
L 645.19598 90.798662 
L 648 91.03977 
L 648 331.19735 
L 645.19598 330.880808 
L 642.39196 330.541047 
L 639.58794 330.175958 
L 636.78392 329.783178 
L 633.979899 329.360041 
L 631.175879 328.903542 
L 628.371859 328.41028 
L 625.567839 327.876402 
L 622.763819 327.297532 
L 619.959799 326.668681 
L 617.155779 325.984156 
L 614.351759 325.237435 
L 611.547739 324.42103 
L 608.743719 323.526309 
L 605.939698 322.543299 
L 603.135678 321.460429 
L 600.331658 320.264231 
L 597.527638 318.938968 
L 594.723618 317.466181 
L 591.919598 315.824143 
L 589.115578 313.987178 
L 586.311558 311.924839 
L 583.507538 309.600911 
L 580.703518 306.972203 
L 577.899497 303.987123 
L 575.095477 300.584013 
L 572.291457 296.68931 
L 569.487437 292.215632 
L 566.683417 287.06009 
L 563.879397 281.10343 
L 561.075377 274.211103 
L 558.271357 266.238318 
L 555.467337 257.042496 
L 552.663317 246.508428 
L 549.859296 234.592976 
L 547.055276 221.394715 
L 544.251256 207.243344 
L 541.447236 192.776537 
L 538.643216 178.931979 
L 535.839196 166.770564 
L 533.035176 157.134132 
L 530.231156 150.318714 
L 527.427136 146.014101 
L 524.623116 143.553763 
L 521.819095 142.250147 
L 519.015075 141.590116 
L 516.211055 141.260791 
L 513.407035 141.094542 
L 510.603015 141.008019 
L 507.798995 140.961092 
L 504.994975 140.93447 
L 502.190955 140.91871 
L 499.386935 140.909044 
L 496.582915 140.902972 
L 493.778894 140.899128 
L 490.974874 140.896734 
L 488.170854 140.895327 
L 485.366834 140.894621 
L 482.562814 140.894432 
L 479.758794 140.894632 
L 476.954774 140.895125 
L 474.150754 140.895835 
L 471.346734 140.896688 
L 468.542714 140.897614 
L 465.738693 140.89854 
L 462.934673 140.899393 
L 460.130653 140.9001 
L 457.326633 140.900597 
L 454.522613 140.90083 
L 451.718593 140.900767 
L 448.914573 140.9004 
L 446.110553 140.899748 
L 443.306533 140.898859 
L 440.502513 140.897803 
L 437.698492 140.896673 
L 434.894472 140.895573 
L 432.090452 140.894625 
L 429.286432 140.893963 
L 426.482412 140.893756 
L 423.678392 140.894231 
L 420.874372 140.89574 
L 418.070352 140.89889 
L 415.266332 140.904828 
L 412.462312 140.915927 
L 409.658291 140.937554 
L 406.854271 140.983042 
L 404.050251 141.088705 
L 401.246231 141.361448 
L 398.442211 142.128351 
L 395.638191 144.346094 
L 392.834171 150.334563 
L 390.030151 163.819596 
L 387.226131 187.078495 
L 384.422111 217.276626 
L 381.61809 248.317069 
L 378.81407 275.6873 
L 376.01005 297.890125 
L 373.20603 315.207006 
L 370.40201 328.450985 
L 367.59799 338.325593 
L 364.79397 345.149566 
L 361.98995 348.735419 
L 359.18593 348.371943 
L 356.38191 343.059647 
L 353.577889 332.392355 
L 350.773869 318.181869 
L 347.969849 304.837955 
L 345.165829 296.046201 
L 342.361809 291.800516 
L 339.557789 290.133163 
L 336.753769 289.530243 
L 333.949749 289.308253 
L 331.145729 289.220039 
L 328.341709 289.181408 
L 325.537688 289.162837 
L 322.733668 289.153237 
L 319.929648 289.14808 
L 317.125628 289.145335 
L 314.321608 289.144015 
L 311.517588 289.143599 
L 308.713568 289.143777 
L 305.909548 289.14435 
L 303.105528 289.145178 
L 300.301508 289.146137 
L 297.497487 289.147123 
L 294.693467 289.148046 
L 291.889447 289.148827 
L 289.085427 289.149403 
L 286.281407 289.149734 
L 283.477387 289.1498 
L 280.673367 289.149609 
L 277.869347 289.149185 
L 275.065327 289.148579 
L 272.261307 289.147843 
L 269.457286 289.147038 
L 266.653266 289.146228 
L 263.849246 289.14548 
L 261.045226 289.14485 
L 258.241206 289.144403 
L 255.437186 289.144207 
L 252.633166 289.144339 
L 249.829146 289.144908 
L 247.025126 289.146068 
L 244.221106 289.148051 
L 241.417085 289.151242 
L 238.613065 289.156264 
L 235.809045 289.164212 
L 233.005025 289.177052 
L 230.201005 289.198484 
L 227.396985 289.235681 
L 224.592965 289.302958 
L 221.788945 289.429304 
L 218.984925 289.673211 
L 216.180905 290.148761 
L 213.376884 291.061809 
L 210.572864 292.735806 
L 207.768844 295.574911 
L 204.964824 299.910151 
L 202.160804 305.769224 
L 199.356784 312.747938 
L 196.552764 320.130072 
L 193.748744 327.174314 
L 190.944724 333.351204 
L 188.140704 338.414157 
L 185.336683 342.343546 
L 182.532663 345.251799 
L 179.728643 347.304761 
L 176.924623 348.673695 
L 174.120603 349.512211 
L 171.316583 349.948413 
L 168.512563 350.084758 
L 165.708543 350.001142 
L 162.904523 349.758884 
L 160.100503 349.40456 
L 157.296482 348.973295 
L 154.492462 348.491439 
L 151.688442 347.978663 
L 148.884422 347.449573 
L 146.080402 346.914949 
L 143.276382 346.382677 
L 140.472362 345.858458 
L 137.668342 345.34634 
L 134.864322 344.849124 
L 132.060302 344.368671 
L 129.256281 343.906133 
L 126.452261 343.462134 
L 123.648241 343.0369 
L 120.844221 342.630367 
L 118.040201 342.242257 
L 115.236181 341.872144 
L 112.432161 341.519495 
L 109.628141 341.183711 
L 106.824121 340.864148 
L 104.020101 340.560145 
L 101.21608 340.271034 
L 98.41206 339.996154 
L 95.60804 339.734858 
L 92.80402 339.486522 
L 90 339.250543 
z
" style="fill:#cc3300;opacity:0.3;stroke:#cc3300;stroke-linejoin:miter;stroke-width:0.5;"/>
   </g>
   <g id="matplotlib.axis_1">
    <g id="xtick_1">
     <g id="line2d_1">
      <defs>
       <path d="M 0 0 
L 0 3.5 
" id="m2c3861af83" style="stroke:#000000;stroke-width:0.8;"/>
      </defs>
      <g>
       <use style="stroke:#000000;stroke-width:0.8;" x="90" xlink:href="#m2c3861af83" y="378"/>
      </g>
     </g>
     <g id="text_1">
      <!-- −2.0 -->
      <defs>
       <path d="M 10.59375 35.5 
L 73.1875 35.5 
L 73.1875 27.203125 
L 10.59375 27.203125 
z
" id="DejaVuSans-2212"/>
       <path d="M 19.1875 8.296875 
L 53.609375 8.296875 
L 53.609375 0 
L 7.328125 0 
L 7.328125 8.296875 
Q 12.9375 14.109375 22.625 23.890625 
Q 32.328125 33.6875 34.8125 36.53125 
Q 39.546875 41.84375 41.421875 45.53125 
Q 43.3125 49.21875 43.3125 52.78125 
Q 43.3125 58.59375 39.234375 62.25 
Q 35.15625 65.921875 28.609375 65.921875 
Q 23.96875 65.921875 18.8125 64.3125 
Q 13.671875 62.703125 7.8125 59.421875 
L 7.8125 69.390625 
Q 13.765625 71.78125 18.9375 73 
Q 24.125 74.21875 28.421875 74.21875 
Q 39.75 74.21875 46.484375 68.546875 
Q 53.21875 62.890625 53.21875 53.421875 
Q 53.21875 48.921875 51.53125 44.890625 
Q 49.859375 40.875 45.40625 35.40625 
Q 44.1875 33.984375 37.640625 27.21875 
Q 31.109375 20.453125 19.1875 8.296875 
z
" id="DejaVuSans-32"/>
       <path d="M 10.6875 12.40625 
L 21 12.40625 
L 21 0 
L 10.6875 0 
z
" id="DejaVuSans-2e"/>
       <path d="M 31.78125 66.40625 
Q 24.171875 66.40625 20.328125 58.90625 
Q 16.5 51.421875 16.5 36.375 
Q 16.5 21.390625 20.328125 13.890625 
Q 24.171875 6.390625 31.78125 6.390625 
Q 39.453125 6.390625 43.28125 13.890625 
Q 47.125 21.390625 47.125 36.375 
Q 47.125 51.421875 43.28125 58.90625 
Q 39.453125 66.40625 31.78125 66.40625 
z
M 31.78125 74.21875 
Q 44.046875 74.21875 50.515625 64.515625 
Q 56.984375 54.828125 56.984375 36.375 
Q 56.984375 17.96875 50.515625 8.265625 
Q 44.046875 -1.421875 31.78125 -1.421875 
Q 19.53125 -1.421875 13.0625 8.265625 
Q 6.59375 17.96875 6.59375 36.375 
Q 6.59375 54.828125 13.0625 64.515625 
Q 19.53125 74.21875 31.78125 74.21875 
z
" id="DejaVuSans-30"/>
      </defs>
      <g transform="translate(77.858594 392.598437)scale(0.1 -0.1)">
       <use xlink:href="#DejaVuSans-2212"/>
       <use x="83.789062" xlink:href="#DejaVuSans-32"/>
       <use x="147.412109" xlink:href="#DejaVuSans-2e"/>
       <use x="179.199219" xlink:href="#DejaVuSans-30"/>
      </g>
     </g>
    </g>
    <g id="xtick_2">
     <g id="line2d_2">
      <g>
       <use style="stroke:#000000;stroke-width:0.8;" x="159.75" xlink:href="#m2c3861af83" y="378"/>
      </g>
     </g>
     <g id="text_2">
      <!-- −1.5 -->
      <defs>
       <path d="M 12.40625 8.296875 
L 28.515625 8.296875 
L 28.515625 63.921875 
L 10.984375 60.40625 
L 10.984375 69.390625 
L 28.421875 72.90625 
L 38.28125 72.90625 
L 38.28125 8.296875 
L 54.390625 8.296875 
L 54.390625 0 
L 12.40625 0 
z
" id="DejaVuSans-31"/>
       <path d="M 10.796875 72.90625 
L 49.515625 72.90625 
L 49.515625 64.59375 
L 19.828125 64.59375 
L 19.828125 46.734375 
Q 21.96875 47.46875 24.109375 47.828125 
Q 26.265625 48.1875 28.421875 48.1875 
Q 40.625 48.1875 47.75 41.5 
Q 54.890625 34.8125 54.890625 23.390625 
Q 54.890625 11.625 47.5625 5.09375 
Q 40.234375 -1.421875 26.90625 -1.421875 
Q 22.3125 -1.421875 17.546875 -0.640625 
Q 12.796875 0.140625 7.71875 1.703125 
L 7.71875 11.625 
Q 12.109375 9.234375 16.796875 8.0625 
Q 21.484375 6.890625 26.703125 6.890625 
Q 35.15625 6.890625 40.078125 11.328125 
Q 45.015625 15.765625 45.015625 23.390625 
Q 45.015625 31 40.078125 35.4375 
Q 35.15625 39.890625 26.703125 39.890625 
Q 22.75 39.890625 18.8125 39.015625 
Q 14.890625 38.140625 10.796875 36.28125 
z
" id="DejaVuSans-35"/>
      </defs>
      <g transform="translate(147.608594 392.598437)scale(0.1 -0.1)">
       <use xlink:href="#DejaVuSans-2212"/>
       <use x="83.789062" xlink:href="#DejaVuSans-31"/>
       <use x="147.412109" xlink:href="#DejaVuSans-2e"/>
       <use x="179.199219" xlink:href="#DejaVuSans-35"/>
      </g>
     </g>
    </g>
    <g id="xtick_3">
     <g id="line2d_3">
      <g>
       <use style="stroke:#000000;stroke-width:0.8;" x="229.5" xlink:href="#m2c3861af83" y="378"/>
      </g>
     </g>
     <g id="text_3">
      <!-- −1.0 -->
      <g transform="translate(217.358594 392.598437)scale(0.1 -0.1)">
       <use xlink:href="#DejaVuSans-2212"/>
       <use x="83.789062" xlink:href="#DejaVuSans-31"/>
       <use x="147.412109" xlink:href="#DejaVuSans-2e"/>
       <use x="179.199219" xlink:href="#DejaVuSans-30"/>
      </g>
     </g>
    </g>
    <g id="xtick_4">
     <g id="line2d_4">
      <g>
       <use style="stroke:#000000;stroke-width:0.8;" x="299.25" xlink:href="#m2c3861af83" y="378"/>
      </g>
     </g>
     <g id="text_4">
      <!-- −0.5 -->
      <g transform="translate(287.108594 392.598437)scale(0.1 -0.1)">
       <use xlink:href="#DejaVuSans-2212"/>
       <use x="83.789062" xlink:href="#DejaVuSans-30"/>
       <use x="147.412109" xlink:href="#DejaVuSans-2e"/>
       <use x="179.199219" xlink:href="#DejaVuSans-35"/>
      </g>
     </g>
    </g>
    <g id="xtick_5">
     <g id="line2d_5">
      <g>
       <use style="stroke:#000000;stroke-width:0.8;" x="369" xlink:href="#m2c3861af83" y="378"/>
      </g>
     </g>
     <g id="text_5">
      <!-- 0.0 -->
      <g transform="translate(361.048437 392.598437)scale(0.1 -0.1)">
       <use xlink:href="#DejaVuSans-30"/>
       <use x="63.623047" xlink:href="#DejaVuSans-2e"/>
       <use x="95.410156" xlink:href="#DejaVuSans-30"/>
      </g>
     </g>
    </g>
    <g id="xtick_6">
     <g id="line2d_6">
      <g>
       <use style="stroke:#000000;stroke-width:0.8;" x="438.75" xlink:href="#m2c3861af83" y="378"/>
      </g>
     </g>
     <g id="text_6">
      <!-- 0.5 -->
      <g transform="translate(430.798437 392.598437)scale(0.1 -0.1)">
       <use xlink:href="#DejaVuSans-30"/>
       <use x="63.623047" xlink:href="#DejaVuSans-2e"/>
       <use x="95.410156" xlink:href="#DejaVuSans-35"/>
      </g>
     </g>
    </g>
    <g id="xtick_7">
     <g id="line2d_7">
      <g>
       <use style="stroke:#000000;stroke-width:0.8;" x="508.5" xlink:href="#m2c3861af83" y="378"/>
      </g>
     </g>
     <g id="text_7">
      <!-- 1.0 -->
      <g transform="translate(500.548437 392.598437)scale(0.1 -0.1)">
       <use xlink:href="#DejaVuSans-31"/>
       <use x="63.623047" xlink:href="#DejaVuSans-2e"/>
       <use x="95.410156" xlink:href="#DejaVuSans-30"/>
      </g>
     </g>
    </g>
    <g id="xtick_8">
     <g id="line2d_8">
      <g>
       <use style="stroke:#000000;stroke-width:0.8;" x="578.25" xlink:href="#m2c3861af83" y="378"/>
      </g>
     </g>
     <g id="text_8">
      <!-- 1.5 -->
      <g transform="translate(570.298437 392.598437)scale(0.1 -0.1)">
       <use xlink:href="#DejaVuSans-31"/>
       <use x="63.623047" xlink:href="#DejaVuSans-2e"/>
       <use x="95.410156" xlink:href="#DejaVuSans-35"/>
      </g>
     </g>
    </g>
    <g id="xtick_9">
     <g id="line2d_9">
      <g>
       <use style="stroke:#000000;stroke-width:0.8;" x="648" xlink:href="#m2c3861af83" y="378"/>
      </g>
     </g>
     <g id="text_9">
      <!-- 2.0 -->
      <g transform="translate(640.048437 392.598437)scale(0.1 -0.1)">
       <use xlink:href="#DejaVuSans-32"/>
       <use x="63.623047" xlink:href="#DejaVuSans-2e"/>
       <use x="95.410156" xlink:href="#DejaVuSans-30"/>
      </g>
     </g>
    </g>
    <g id="text_10">
     <!-- $x$ -->
     <defs>
      <path d="M 60.015625 54.6875 
L 34.90625 27.875 
L 50.296875 0 
L 39.984375 0 
L 28.421875 21.6875 
L 8.296875 0 
L -2.59375 0 
L 24.3125 28.8125 
L 10.015625 54.6875 
L 20.3125 54.6875 
L 30.8125 34.90625 
L 49.125 54.6875 
z
" id="DejaVuSans-Oblique-78"/>
     </defs>
     <g transform="translate(363 413.875)scale(0.2 -0.2)">
      <use transform="translate(0 0.3125)" xlink:href="#DejaVuSans-Oblique-78"/>
     </g>
    </g>
   </g>
   <g id="matplotlib.axis_2">
    <g id="ytick_1">
     <g id="line2d_10">
      <defs>
       <path d="M 0 0 
L -3.5 0 
" id="m135a3003a9" style="stroke:#000000;stroke-width:0.8;"/>
      </defs>
      <g>
       <use style="stroke:#000000;stroke-width:0.8;" x="90" xlink:href="#m135a3003a9" y="363.174545"/>
      </g>
     </g>
     <g id="text_11">
      <!-- −0.50 -->
      <g transform="translate(52.354687 366.973764)scale(0.1 -0.1)">
       <use xlink:href="#DejaVuSans-2212"/>
       <use x="83.789062" xlink:href="#DejaVuSans-30"/>
       <use x="147.412109" xlink:href="#DejaVuSans-2e"/>
       <use x="179.199219" xlink:href="#DejaVuSans-35"/>
       <use x="242.822266" xlink:href="#DejaVuSans-30"/>
      </g>
     </g>
    </g>
    <g id="ytick_2">
     <g id="line2d_11">
      <g>
       <use style="stroke:#000000;stroke-width:0.8;" x="90" xlink:href="#m135a3003a9" y="326.110909"/>
      </g>
     </g>
     <g id="text_12">
      <!-- −0.25 -->
      <g transform="translate(52.354687 329.910128)scale(0.1 -0.1)">
       <use xlink:href="#DejaVuSans-2212"/>
       <use x="83.789062" xlink:href="#DejaVuSans-30"/>
       <use x="147.412109" xlink:href="#DejaVuSans-2e"/>
       <use x="179.199219" xlink:href="#DejaVuSans-32"/>
       <use x="242.822266" xlink:href="#DejaVuSans-35"/>
      </g>
     </g>
    </g>
    <g id="ytick_3">
     <g id="line2d_12">
      <g>
       <use style="stroke:#000000;stroke-width:0.8;" x="90" xlink:href="#m135a3003a9" y="289.047273"/>
      </g>
     </g>
     <g id="text_13">
      <!-- 0.00 -->
      <g transform="translate(60.734375 292.846491)scale(0.1 -0.1)">
       <use xlink:href="#DejaVuSans-30"/>
       <use x="63.623047" xlink:href="#DejaVuSans-2e"/>
       <use x="95.410156" xlink:href="#DejaVuSans-30"/>
       <use x="159.033203" xlink:href="#DejaVuSans-30"/>
      </g>
     </g>
    </g>
    <g id="ytick_4">
     <g id="line2d_13">
      <g>
       <use style="stroke:#000000;stroke-width:0.8;" x="90" xlink:href="#m135a3003a9" y="251.983636"/>
      </g>
     </g>
     <g id="text_14">
      <!-- 0.25 -->
      <g transform="translate(60.734375 255.782855)scale(0.1 -0.1)">
       <use xlink:href="#DejaVuSans-30"/>
       <use x="63.623047" xlink:href="#DejaVuSans-2e"/>
       <use x="95.410156" xlink:href="#DejaVuSans-32"/>
       <use x="159.033203" xlink:href="#DejaVuSans-35"/>
      </g>
     </g>
    </g>
    <g id="ytick_5">
     <g id="line2d_14">
      <g>
       <use style="stroke:#000000;stroke-width:0.8;" x="90" xlink:href="#m135a3003a9" y="214.92"/>
      </g>
     </g>
     <g id="text_15">
      <!-- 0.50 -->
      <g transform="translate(60.734375 218.719219)scale(0.1 -0.1)">
       <use xlink:href="#DejaVuSans-30"/>
       <use x="63.623047" xlink:href="#DejaVuSans-2e"/>
       <use x="95.410156" xlink:href="#DejaVuSans-35"/>
       <use x="159.033203" xlink:href="#DejaVuSans-30"/>
      </g>
     </g>
    </g>
    <g id="ytick_6">
     <g id="line2d_15">
      <g>
       <use style="stroke:#000000;stroke-width:0.8;" x="90" xlink:href="#m135a3003a9" y="177.856364"/>
      </g>
     </g>
     <g id="text_16">
      <!-- 0.75 -->
      <defs>
       <path d="M 8.203125 72.90625 
L 55.078125 72.90625 
L 55.078125 68.703125 
L 28.609375 0 
L 18.3125 0 
L 43.21875 64.59375 
L 8.203125 64.59375 
z
" id="DejaVuSans-37"/>
      </defs>
      <g transform="translate(60.734375 181.655582)scale(0.1 -0.1)">
       <use xlink:href="#DejaVuSans-30"/>
       <use x="63.623047" xlink:href="#DejaVuSans-2e"/>
       <use x="95.410156" xlink:href="#DejaVuSans-37"/>
       <use x="159.033203" xlink:href="#DejaVuSans-35"/>
      </g>
     </g>
    </g>
    <g id="ytick_7">
     <g id="line2d_16">
      <g>
       <use style="stroke:#000000;stroke-width:0.8;" x="90" xlink:href="#m135a3003a9" y="140.792727"/>
      </g>
     </g>
     <g id="text_17">
      <!-- 1.00 -->
      <g transform="translate(60.734375 144.591946)scale(0.1 -0.1)">
       <use xlink:href="#DejaVuSans-31"/>
       <use x="63.623047" xlink:href="#DejaVuSans-2e"/>
       <use x="95.410156" xlink:href="#DejaVuSans-30"/>
       <use x="159.033203" xlink:href="#DejaVuSans-30"/>
      </g>
     </g>
    </g>
    <g id="ytick_8">
     <g id="line2d_17">
      <g>
       <use style="stroke:#000000;stroke-width:0.8;" x="90" xlink:href="#m135a3003a9" y="103.729091"/>
      </g>
     </g>
     <g id="text_18">
      <!-- 1.25 -->
      <g transform="translate(60.734375 107.52831)scale(0.1 -0.1)">
       <use xlink:href="#DejaVuSans-31"/>
       <use x="63.623047" xlink:href="#DejaVuSans-2e"/>
       <use x="95.410156" xlink:href="#DejaVuSans-32"/>
       <use x="159.033203" xlink:href="#DejaVuSans-35"/>
      </g>
     </g>
    </g>
    <g id="ytick_9">
     <g id="line2d_18">
      <g>
       <use style="stroke:#000000;stroke-width:0.8;" x="90" xlink:href="#m135a3003a9" y="66.665455"/>
      </g>
     </g>
     <g id="text_19">
      <!-- 1.50 -->
      <g transform="translate(60.734375 70.464673)scale(0.1 -0.1)">
       <use xlink:href="#DejaVuSans-31"/>
       <use x="63.623047" xlink:href="#DejaVuSans-2e"/>
       <use x="95.410156" xlink:href="#DejaVuSans-35"/>
       <use x="159.033203" xlink:href="#DejaVuSans-30"/>
      </g>
     </g>
    </g>
    <g id="text_20">
     <!-- $y$ -->
     <defs>
      <path d="M 24.8125 -5.078125 
Q 18.5625 -15.578125 14.625 -18.1875 
Q 10.6875 -20.796875 4.59375 -20.796875 
L -2.484375 -20.796875 
L -0.984375 -13.28125 
L 4.203125 -13.28125 
Q 7.953125 -13.28125 10.59375 -11.234375 
Q 13.234375 -9.1875 16.5 -3.21875 
L 19.28125 2 
L 7.171875 54.6875 
L 16.703125 54.6875 
L 25.78125 12.796875 
L 50.875 54.6875 
L 60.296875 54.6875 
z
" id="DejaVuSans-Oblique-79"/>
     </defs>
     <g transform="translate(44.154687 220.92)rotate(-90)scale(0.2 -0.2)">
      <use transform="translate(0 0.3125)" xlink:href="#DejaVuSans-Oblique-79"/>
     </g>
    </g>
   </g>
   <g id="line2d_19">
    <defs>
     <path d="M 0 2.5 
C 0.663008 2.5 1.29895 2.236584 1.767767 1.767767 
C 2.236584 1.29895 2.5 0.663008 2.5 0 
C 2.5 -0.663008 2.236584 -1.29895 1.767767 -1.767767 
C 1.29895 -2.236584 0.663008 -2.5 0 -2.5 
C -0.663008 -2.5 -1.29895 -2.236584 -1.767767 -1.767767 
C -2.236584 -1.29895 -2.5 -0.663008 -2.5 0 
C -2.5 0.663008 -2.236584 1.29895 -1.767767 1.767767 
C -1.29895 2.236584 -0.663008 2.5 0 2.5 
z
" id="mc56292b33a" style="stroke:#ff0000;"/>
    </defs>
    <g clip-path="url(#p820ba35d6d)">
     <use style="fill:#ff0000;stroke:#ff0000;" x="229.5" xlink:href="#mc56292b33a" y="289.047273"/>
     <use style="fill:#ff0000;stroke:#ff0000;" x="235.603125" xlink:href="#mc56292b33a" y="289.047273"/>
     <use style="fill:#ff0000;stroke:#ff0000;" x="241.70625" xlink:href="#mc56292b33a" y="289.047273"/>
     <use style="fill:#ff0000;stroke:#ff0000;" x="247.809375" xlink:href="#mc56292b33a" y="289.047273"/>
     <use style="fill:#ff0000;stroke:#ff0000;" x="253.9125" xlink:href="#mc56292b33a" y="289.047273"/>
     <use style="fill:#ff0000;stroke:#ff0000;" x="260.015625" xlink:href="#mc56292b33a" y="289.047273"/>
     <use style="fill:#ff0000;stroke:#ff0000;" x="266.11875" xlink:href="#mc56292b33a" y="289.047273"/>
     <use style="fill:#ff0000;stroke:#ff0000;" x="272.221875" xlink:href="#mc56292b33a" y="289.047273"/>
     <use style="fill:#ff0000;stroke:#ff0000;" x="278.325" xlink:href="#mc56292b33a" y="289.047273"/>
     <use style="fill:#ff0000;stroke:#ff0000;" x="284.428125" xlink:href="#mc56292b33a" y="289.047273"/>
     <use style="fill:#ff0000;stroke:#ff0000;" x="290.53125" xlink:href="#mc56292b33a" y="289.047273"/>
     <use style="fill:#ff0000;stroke:#ff0000;" x="296.634375" xlink:href="#mc56292b33a" y="289.047273"/>
     <use style="fill:#ff0000;stroke:#ff0000;" x="302.7375" xlink:href="#mc56292b33a" y="289.047273"/>
     <use style="fill:#ff0000;stroke:#ff0000;" x="308.840625" xlink:href="#mc56292b33a" y="289.047273"/>
     <use style="fill:#ff0000;stroke:#ff0000;" x="314.94375" xlink:href="#mc56292b33a" y="289.047273"/>
     <use style="fill:#ff0000;stroke:#ff0000;" x="321.046875" xlink:href="#mc56292b33a" y="289.047273"/>
     <use style="fill:#ff0000;stroke:#ff0000;" x="327.15" xlink:href="#mc56292b33a" y="289.047273"/>
     <use style="fill:#ff0000;stroke:#ff0000;" x="333.253125" xlink:href="#mc56292b33a" y="289.047273"/>
     <use style="fill:#ff0000;stroke:#ff0000;" x="339.35625" xlink:href="#mc56292b33a" y="289.047273"/>
     <use style="fill:#ff0000;stroke:#ff0000;" x="345.459375" xlink:href="#mc56292b33a" y="289.047273"/>
     <use style="fill:#ff0000;stroke:#ff0000;" x="351.5625" xlink:href="#mc56292b33a" y="289.047273"/>
     <use style="fill:#ff0000;stroke:#ff0000;" x="357.665625" xlink:href="#mc56292b33a" y="289.047273"/>
     <use style="fill:#ff0000;stroke:#ff0000;" x="363.76875" xlink:href="#mc56292b33a" y="289.047273"/>
     <use style="fill:#ff0000;stroke:#ff0000;" x="369.871875" xlink:href="#mc56292b33a" y="289.047273"/>
     <use style="fill:#ff0000;stroke:#ff0000;" x="375.975" xlink:href="#mc56292b33a" y="289.047273"/>
     <use style="fill:#ff0000;stroke:#ff0000;" x="362.025" xlink:href="#mc56292b33a" y="140.792727"/>
     <use style="fill:#ff0000;stroke:#ff0000;" x="368.128125" xlink:href="#mc56292b33a" y="140.792727"/>
     <use style="fill:#ff0000;stroke:#ff0000;" x="374.23125" xlink:href="#mc56292b33a" y="140.792727"/>
     <use style="fill:#ff0000;stroke:#ff0000;" x="380.334375" xlink:href="#mc56292b33a" y="140.792727"/>
     <use style="fill:#ff0000;stroke:#ff0000;" x="386.4375" xlink:href="#mc56292b33a" y="140.792727"/>
     <use style="fill:#ff0000;stroke:#ff0000;" x="392.540625" xlink:href="#mc56292b33a" y="140.792727"/>
     <use style="fill:#ff0000;stroke:#ff0000;" x="398.64375" xlink:href="#mc56292b33a" y="140.792727"/>
     <use style="fill:#ff0000;stroke:#ff0000;" x="404.746875" xlink:href="#mc56292b33a" y="140.792727"/>
     <use style="fill:#ff0000;stroke:#ff0000;" x="410.85" xlink:href="#mc56292b33a" y="140.792727"/>
     <use style="fill:#ff0000;stroke:#ff0000;" x="416.953125" xlink:href="#mc56292b33a" y="140.792727"/>
     <use style="fill:#ff0000;stroke:#ff0000;" x="423.05625" xlink:href="#mc56292b33a" y="140.792727"/>
     <use style="fill:#ff0000;stroke:#ff0000;" x="429.159375" xlink:href="#mc56292b33a" y="140.792727"/>
     <use style="fill:#ff0000;stroke:#ff0000;" x="435.2625" xlink:href="#mc56292b33a" y="140.792727"/>
     <use style="fill:#ff0000;stroke:#ff0000;" x="441.365625" xlink:href="#mc56292b33a" y="140.792727"/>
     <use style="fill:#ff0000;stroke:#ff0000;" x="447.46875" xlink:href="#mc56292b33a" y="140.792727"/>
     <use style="fill:#ff0000;stroke:#ff0000;" x="453.571875" xlink:href="#mc56292b33a" y="140.792727"/>
     <use style="fill:#ff0000;stroke:#ff0000;" x="459.675" xlink:href="#mc56292b33a" y="140.792727"/>
     <use style="fill:#ff0000;stroke:#ff0000;" x="465.778125" xlink:href="#mc56292b33a" y="140.792727"/>
     <use style="fill:#ff0000;stroke:#ff0000;" x="471.88125" xlink:href="#mc56292b33a" y="140.792727"/>
     <use style="fill:#ff0000;stroke:#ff0000;" x="477.984375" xlink:href="#mc56292b33a" y="140.792727"/>
     <use style="fill:#ff0000;stroke:#ff0000;" x="484.0875" xlink:href="#mc56292b33a" y="140.792727"/>
     <use style="fill:#ff0000;stroke:#ff0000;" x="490.190625" xlink:href="#mc56292b33a" y="140.792727"/>
     <use style="fill:#ff0000;stroke:#ff0000;" x="496.29375" xlink:href="#mc56292b33a" y="140.792727"/>
     <use style="fill:#ff0000;stroke:#ff0000;" x="502.396875" xlink:href="#mc56292b33a" y="140.792727"/>
     <use style="fill:#ff0000;stroke:#ff0000;" x="508.5" xlink:href="#mc56292b33a" y="140.792727"/>
    </g>
   </g>
   <g id="line2d_20">
    <path clip-path="url(#p820ba35d6d)" d="M 90 219.239694 
L 98.41206 220.129797 
L 106.824121 221.20865 
L 115.236181 222.527334 
L 120.844221 223.57326 
L 126.452261 224.783323 
L 132.060302 226.191266 
L 137.668342 227.839566 
L 143.276382 229.78205 
L 148.884422 232.087323 
L 151.688442 233.402515 
L 154.492462 234.843005 
L 157.296482 236.423486 
L 160.100503 238.160374 
L 162.904523 240.071825 
L 165.708543 242.177593 
L 168.512563 244.498614 
L 171.316583 247.05613 
L 174.120603 249.870071 
L 176.924623 252.956286 
L 179.728643 256.322084 
L 182.532663 259.959446 
L 188.140704 267.880399 
L 193.748744 275.951158 
L 196.552764 279.594381 
L 199.356784 282.69511 
L 202.160804 285.105807 
L 204.964824 286.795878 
L 207.768844 287.857897 
L 210.572864 288.458088 
L 213.376884 288.767293 
L 218.984925 288.984195 
L 233.005025 289.042206 
L 336.753769 289.002729 
L 339.557789 288.917466 
L 342.361809 288.632914 
L 345.165829 287.739375 
L 347.969849 285.355657 
L 350.773869 280.361172 
L 353.577889 272.351712 
L 356.38191 262.173183 
L 361.98995 240.264827 
L 367.59799 219.812522 
L 373.20603 199.929392 
L 376.01005 189.492144 
L 381.61809 167.582136 
L 384.422111 157.41498 
L 387.226131 149.42729 
L 390.030151 144.4567 
L 392.834171 142.089357 
L 395.638191 141.203376 
L 398.442211 140.921448 
L 404.050251 140.810725 
L 443.306533 140.795419 
L 519.015075 140.860671 
L 524.623116 141.096848 
L 527.427136 141.432343 
L 530.231156 142.079405 
L 533.035176 143.214263 
L 535.839196 145.001469 
L 538.643216 147.522744 
L 541.447236 150.731369 
L 544.251256 154.465646 
L 555.467337 170.594165 
L 558.271357 174.227162 
L 561.075377 177.582096 
L 563.879397 180.653835 
L 566.683417 183.451663 
L 569.487437 185.992713 
L 572.291457 188.297712 
L 575.095477 190.388366 
L 577.899497 192.285857 
L 580.703518 194.010044 
L 583.507538 195.579099 
L 589.115578 198.315581 
L 594.723618 200.606019 
L 600.331658 202.53735 
L 605.939698 204.177521 
L 611.547739 205.579791 
L 617.155779 206.786149 
L 625.567839 208.299378 
L 633.979899 209.530995 
L 642.39196 210.542995 
L 648 211.11856 
L 648 211.11856 
" style="fill:none;stroke:#3300ff;stroke-linecap:square;stroke-width:2;"/>
   </g>
   <g id="line2d_21">
    <path clip-path="url(#p820ba35d6d)" d="M 90 99.228845 
L 98.41206 100.263439 
L 106.824121 101.553153 
L 112.432161 102.595042 
L 118.040201 103.820953 
L 123.648241 105.274788 
L 129.256281 107.01414 
L 134.864322 109.115495 
L 137.668342 110.332792 
L 140.472362 111.681821 
L 143.276382 113.181424 
L 146.080402 114.853776 
L 148.884422 116.725073 
L 151.688442 118.826367 
L 154.492462 121.194571 
L 157.296482 123.873677 
L 160.100503 126.916188 
L 162.904523 130.384765 
L 165.708543 134.354043 
L 168.512563 138.91247 
L 171.316583 144.163848 
L 174.120603 150.227931 
L 176.924623 157.238876 
L 179.728643 165.339406 
L 182.532663 174.667093 
L 185.336683 185.327376 
L 188.140704 197.346641 
L 190.944724 210.600943 
L 199.356784 252.642282 
L 202.160804 264.442389 
L 204.964824 273.681605 
L 207.768844 280.140883 
L 210.572864 284.180371 
L 213.376884 286.472778 
L 216.180905 287.682824 
L 218.984925 288.295179 
L 221.788945 288.601402 
L 227.396985 288.837831 
L 238.613065 288.931611 
L 294.693467 288.94112 
L 331.145729 288.856494 
L 333.949749 288.750107 
L 336.753769 288.475215 
L 339.557789 287.701768 
L 342.361809 285.465313 
L 345.165829 279.432548 
L 347.969849 265.873358 
L 350.773869 242.540475 
L 356.38191 181.286718 
L 359.18593 153.955482 
L 361.98995 131.794235 
L 364.79397 114.513504 
L 367.59799 101.29945 
L 370.40201 91.450679 
L 373.20603 84.651777 
L 376.01005 81.094164 
L 378.81407 81.492735 
L 381.61809 86.847203 
L 384.422111 97.553333 
L 387.226131 111.776085 
L 390.030151 125.093805 
L 392.834171 133.84415 
L 395.638191 138.060658 
L 398.442211 139.714545 
L 401.246231 140.31247 
L 404.050251 140.532745 
L 409.658291 140.658777 
L 432.090452 140.695658 
L 510.603015 140.599451 
L 516.211055 140.392859 
L 519.015075 140.131227 
L 521.819095 139.620189 
L 524.623116 138.639932 
L 527.427136 136.850584 
L 530.231156 133.840095 
L 533.035176 129.294393 
L 535.839196 123.232375 
L 538.643216 116.113509 
L 541.447236 108.686201 
L 544.251256 101.687947 
L 547.055276 95.620478 
L 549.859296 90.698129 
L 552.663317 86.915658 
L 555.467337 84.145833 
L 558.271357 82.216007 
L 561.075377 80.95309 
L 563.879397 80.204241 
L 566.683417 79.843236 
L 569.487437 79.769795 
L 572.291457 79.906114 
L 577.899497 80.584592 
L 583.507538 81.557287 
L 608.743719 86.28477 
L 617.155779 87.588141 
L 628.371859 89.065193 
L 639.58794 90.278008 
L 648 91.03977 
L 648 91.03977 
" style="fill:none;stroke:#3300ff;stroke-linecap:square;stroke-width:0.2;"/>
   </g>
   <g id="line2d_22">
    <path clip-path="url(#p820ba35d6d)" d="M 90 339.250543 
L 101.21608 340.271034 
L 112.432161 341.519495 
L 123.648241 343.0369 
L 134.864322 344.849124 
L 146.080402 346.914949 
L 157.296482 348.973295 
L 162.904523 349.758884 
L 165.708543 350.001142 
L 168.512563 350.084758 
L 171.316583 349.948413 
L 174.120603 349.512211 
L 176.924623 348.673695 
L 179.728643 347.304761 
L 182.532663 345.251799 
L 185.336683 342.343546 
L 188.140704 338.414157 
L 190.944724 333.351204 
L 193.748744 327.174314 
L 196.552764 320.130072 
L 199.356784 312.747938 
L 202.160804 305.769224 
L 204.964824 299.910151 
L 207.768844 295.574911 
L 210.572864 292.735806 
L 213.376884 291.061809 
L 216.180905 290.148761 
L 218.984925 289.673211 
L 221.788945 289.429304 
L 227.396985 289.235681 
L 241.417085 289.151242 
L 325.537688 289.162837 
L 333.949749 289.308253 
L 336.753769 289.530243 
L 339.557789 290.133163 
L 342.361809 291.800516 
L 345.165829 296.046201 
L 347.969849 304.837955 
L 350.773869 318.181869 
L 353.577889 332.392355 
L 356.38191 343.059647 
L 359.18593 348.371943 
L 361.98995 348.735419 
L 364.79397 345.149566 
L 367.59799 338.325593 
L 370.40201 328.450985 
L 373.20603 315.207006 
L 376.01005 297.890125 
L 378.81407 275.6873 
L 381.61809 248.317069 
L 387.226131 187.078495 
L 390.030151 163.819596 
L 392.834171 150.334563 
L 395.638191 144.346094 
L 398.442211 142.128351 
L 401.246231 141.361448 
L 404.050251 141.088705 
L 409.658291 140.937554 
L 429.286432 140.893963 
L 510.603015 141.008019 
L 516.211055 141.260791 
L 519.015075 141.590116 
L 521.819095 142.250147 
L 524.623116 143.553763 
L 527.427136 146.014101 
L 530.231156 150.318714 
L 533.035176 157.134132 
L 535.839196 166.770564 
L 538.643216 178.931979 
L 541.447236 192.776537 
L 547.055276 221.394715 
L 549.859296 234.592976 
L 552.663317 246.508428 
L 555.467337 257.042496 
L 558.271357 266.238318 
L 561.075377 274.211103 
L 563.879397 281.10343 
L 566.683417 287.06009 
L 569.487437 292.215632 
L 572.291457 296.68931 
L 575.095477 300.584013 
L 577.899497 303.987123 
L 580.703518 306.972203 
L 583.507538 309.600911 
L 586.311558 311.924839 
L 589.115578 313.987178 
L 591.919598 315.824143 
L 594.723618 317.466181 
L 597.527638 318.938968 
L 600.331658 320.264231 
L 605.939698 322.543299 
L 611.547739 324.42103 
L 617.155779 325.984156 
L 622.763819 327.297532 
L 628.371859 328.41028 
L 636.78392 329.783178 
L 645.19598 330.880808 
L 648 331.19735 
L 648 331.19735 
" style="fill:none;stroke:#3300ff;stroke-linecap:square;stroke-width:0.2;"/>
   </g>
   <g id="patch_4">
    <path d="M 90 378 
L 90 51.84 
" style="fill:none;stroke:#000000;stroke-linecap:square;stroke-linejoin:miter;stroke-width:0.8;"/>
   </g>
   <g id="patch_5">
    <path d="M 648 378 
L 648 51.84 
" style="fill:none;stroke:#000000;stroke-linecap:square;stroke-linejoin:miter;stroke-width:0.8;"/>
   </g>
   <g id="patch_6">
    <path d="M 90 378 
L 648 378 
" style="fill:none;stroke:#000000;stroke-linecap:square;stroke-linejoin:miter;stroke-width:0.8;"/>
   </g>
   <g id="patch_7">
    <path d="M 90 51.84 
L 648 51.84 
" style="fill:none;stroke:#000000;stroke-linecap:square;stroke-linejoin:miter;stroke-width:0.8;"/>
   </g>
  </g>
 </g>
 <defs>
  <clipPath id="p820ba35d6d">
   <rect height="326.16" width="558" x="90" y="51.84"/>
  </clipPath>
 </defs>
</svg>
