<?xml version="1.0" encoding="utf-8" standalone="no"?>
<!DOCTYPE svg PUBLIC "-//W3C//DTD SVG 1.1//EN"
  "http://www.w3.org/Graphics/SVG/1.1/DTD/svg11.dtd">
<!-- Created with matplotlib (http://matplotlib.org/) -->
<svg height="288pt" version="1.1" viewBox="0 0 432 288" width="432pt" xmlns="http://www.w3.org/2000/svg" xmlns:xlink="http://www.w3.org/1999/xlink">
 <defs>
  <style type="text/css">
*{stroke-linecap:butt;stroke-linejoin:round;}
  </style>
 </defs>
 <g id="figure_1">
  <g id="patch_1">
   <path d="M 0 288 
L 432 288 
L 432 0 
L 0 0 
z
" style="fill:none;"/>
  </g>
  <g id="axes_1">
   <g id="patch_2">
    <path d="M 54 252 
L 388.8 252 
L 388.8 34.56 
L 54 34.56 
z
" style="fill:none;"/>
   </g>
   <g id="patch_3">
    <path clip-path="url(#pbf9a1c2583)" d="M 54 121.263865 
L 55.682412 124.161635 
L 57.364824 127.054621 
L 59.047236 129.934798 
L 60.729648 132.793945 
L 62.41206 135.623704 
L 64.094472 138.415626 
L 65.776884 141.161234 
L 67.459296 143.852088 
L 69.141709 146.479852 
L 70.824121 149.036371 
L 72.506533 151.51375 
L 74.188945 153.904444 
L 75.871357 156.201342 
L 77.553769 158.397866 
L 79.236181 160.488061 
L 80.918593 162.466691 
L 82.601005 164.329331 
L 84.283417 166.072445 
L 85.965829 167.69346 
L 87.648241 169.190824 
L 89.330653 170.564036 
L 91.013065 171.813666 
L 92.695477 172.941339 
L 94.377889 173.949698 
L 96.060302 174.842342 
L 97.742714 175.623742 
L 99.425126 176.29914 
L 101.107538 176.874434 
L 102.78995 177.35606 
L 104.472362 177.750872 
L 106.154774 178.066024 
L 107.837186 178.308866 
L 109.519598 178.486848 
L 111.20201 178.60743 
L 112.884422 178.678018 
L 114.566834 178.705898 
L 116.249246 178.698183 
L 117.931658 178.661776 
L 119.61407 178.603327 
L 121.296482 178.529203 
L 122.978894 178.445454 
L 124.661307 178.35779 
L 126.343719 178.271545 
L 128.026131 178.191654 
L 129.708543 178.122621 
L 131.390955 178.068488 
L 133.073367 178.032807 
L 134.755779 178.018606 
L 136.438191 178.028362 
L 138.120603 178.063968 
L 139.803015 178.126703 
L 141.485427 178.217208 
L 143.167839 178.335457 
L 144.850251 178.480737 
L 146.532663 178.651623 
L 148.215075 178.845967 
L 149.897487 179.060882 
L 151.579899 179.292734 
L 153.262312 179.537141 
L 154.944724 179.788975 
L 156.627136 180.042371 
L 158.309548 180.290749 
L 159.99196 180.526834 
L 161.674372 180.742696 
L 163.356784 180.929793 
L 165.039196 181.079026 
L 166.721608 181.180807 
L 168.40402 181.225142 
L 170.086432 181.201713 
L 171.768844 181.099992 
L 173.451256 180.90935 
L 175.133668 180.619183 
L 176.81608 180.219054 
L 178.498492 179.698833 
L 180.180905 179.048851 
L 181.863317 178.260054 
L 183.545729 177.324163 
L 185.228141 176.233822 
L 186.910553 174.982746 
L 188.592965 173.56586 
L 190.275377 171.979415 
L 191.957789 170.22109 
L 193.640201 168.290077 
L 195.322613 166.187132 
L 197.005025 163.914608 
L 198.687437 161.476454 
L 200.369849 158.878196 
L 202.052261 156.126885 
L 203.734673 153.231023 
L 205.417085 150.20047 
L 207.099497 147.046329 
L 208.78191 143.780816 
L 210.464322 140.417119 
L 212.146734 136.969246 
L 213.829146 133.451862 
L 215.511558 129.880133 
L 217.19397 126.269555 
L 218.876382 122.635795 
L 220.558794 118.99453 
L 222.241206 115.361291 
L 223.923618 111.751317 
L 225.60603 108.179417 
L 227.288442 104.659841 
L 228.970854 101.206166 
L 230.653266 97.83119 
L 232.335678 94.546849 
L 234.01809 91.364137 
L 235.700503 88.293053 
L 237.382915 85.342554 
L 239.065327 82.520526 
L 240.747739 79.833771 
L 242.430151 77.288004 
L 244.112563 74.887862 
L 245.794975 72.636918 
L 247.477387 70.537712 
L 249.159799 68.591777 
L 250.842211 66.799674 
L 252.524623 65.161027 
L 254.207035 63.674558 
L 255.889447 62.338121 
L 257.571859 61.14874 
L 259.254271 60.102642 
L 260.936683 59.195289 
L 262.619095 58.421421 
L 264.301508 57.775093 
L 265.98392 57.249719 
L 267.666332 56.838126 
L 269.348744 56.53261 
L 271.031156 56.324999 
L 272.713568 56.206727 
L 274.39598 56.168913 
L 276.078392 56.202445 
L 277.760804 56.298071 
L 279.443216 56.446493 
L 281.125628 56.638465 
L 282.80804 56.864887 
L 284.490452 57.116906 
L 286.172864 57.386002 
L 287.855276 57.664083 
L 289.537688 57.943562 
L 291.220101 58.217433 
L 292.902513 58.479334 
L 294.584925 58.723605 
L 296.267337 58.945328 
L 297.949749 59.140359 
L 299.632161 59.305347 
L 301.314573 59.437742 
L 302.996985 59.535786 
L 304.679397 59.598496 
L 306.361809 59.625629 
L 308.044221 59.617644 
L 309.726633 59.575646 
L 311.409045 59.501321 
L 313.091457 59.396862 
L 314.773869 59.264892 
L 316.456281 59.108373 
L 318.138693 58.930518 
L 319.821106 58.734686 
L 321.503518 58.524295 
L 323.18593 58.302716 
L 324.868342 58.073178 
L 326.550754 57.838677 
L 328.233166 57.60189 
L 329.915578 57.365096 
L 331.59799 57.130107 
L 333.280402 56.898222 
L 334.962814 56.670183 
L 336.645226 56.446162 
L 338.327638 56.225762 
L 340.01005 56.008042 
L 341.692462 55.791562 
L 343.374874 55.574451 
L 345.057286 55.354493 
L 346.739698 55.129226 
L 348.422111 54.896051 
L 350.104523 54.652348 
L 351.786935 54.395584 
L 353.469347 54.123416 
L 355.151759 53.833778 
L 356.834171 53.524953 
L 358.516583 53.195617 
L 360.198995 52.844875 
L 361.881407 52.472266 
L 363.563819 52.077756 
L 365.246231 51.661722 
L 366.928643 51.224916 
L 368.611055 50.76843 
L 370.293467 50.293653 
L 371.975879 49.802235 
L 373.658291 49.296038 
L 375.340704 48.777101 
L 377.023116 48.247605 
L 378.705528 47.709833 
L 380.38794 47.166146 
L 382.070352 46.618955 
L 383.752764 46.070689 
L 385.435176 45.523781 
L 387.117588 44.98064 
L 388.8 44.443636 
L 388.8 163.088487 
L 387.117588 160.190654 
L 385.435176 157.303079 
L 383.752764 154.433921 
L 382.070352 151.591479 
L 380.38794 148.784139 
L 378.705528 146.020323 
L 377.023116 143.308426 
L 375.340704 140.656753 
L 373.658291 138.073448 
L 371.975879 135.566425 
L 370.293467 133.143283 
L 368.611055 130.811225 
L 366.928643 128.576973 
L 365.246231 126.446675 
L 363.563819 124.425817 
L 361.881407 122.519128 
L 360.198995 120.730505 
L 358.516583 119.062925 
L 356.834171 117.518387 
L 355.151759 116.097864 
L 353.469347 114.801271 
L 351.786935 113.627462 
L 350.104523 112.57425 
L 348.422111 111.638456 
L 346.739698 110.815975 
L 345.057286 110.101867 
L 343.374874 109.490471 
L 341.692462 108.975512 
L 340.01005 108.550233 
L 338.327638 108.207513 
L 336.645226 107.939981 
L 334.962814 107.740127 
L 333.280402 107.600397 
L 331.59799 107.513274 
L 329.915578 107.471349 
L 328.233166 107.467382 
L 326.550754 107.494353 
L 324.868342 107.545495 
L 323.18593 107.614338 
L 321.503518 107.694734 
L 319.821106 107.780884 
L 318.138693 107.867362 
L 316.456281 107.949144 
L 314.773869 108.021626 
L 313.091457 108.080656 
L 311.409045 108.122554 
L 309.726633 108.144142 
L 308.044221 108.142773 
L 306.361809 108.116358 
L 304.679397 108.063393 
L 302.996985 107.982992 
L 301.314573 107.874911 
L 299.632161 107.739577 
L 297.949749 107.578112 
L 296.267337 107.392352 
L 294.584925 107.184868 
L 292.902513 106.958979 
L 291.220101 106.718754 
L 289.537688 106.469023 
L 287.855276 106.215363 
L 286.172864 105.964088 
L 284.490452 105.722222 
L 282.80804 105.497475 
L 281.125628 105.298188 
L 279.443216 105.133288 
L 277.760804 105.012221 
L 276.078392 104.944869 
L 274.39598 104.941467 
L 272.713568 105.012498 
L 271.031156 105.168581 
L 269.348744 105.420347 
L 267.666332 105.778307 
L 265.98392 106.252706 
L 264.301508 106.853378 
L 262.619095 107.589593 
L 260.936683 108.469901 
L 259.254271 109.501981 
L 257.571859 110.692496 
L 255.889447 112.046957 
L 254.207035 113.569592 
L 252.524623 115.263249 
L 250.842211 117.129302 
L 249.159799 119.167588 
L 247.477387 121.376368 
L 245.794975 123.752311 
L 244.112563 126.290511 
L 242.430151 128.984519 
L 240.747739 131.826406 
L 239.065327 134.806853 
L 237.382915 137.915246 
L 235.700503 141.139807 
L 234.01809 144.467721 
L 232.335678 147.885291 
L 230.653266 151.378091 
L 228.970854 154.931124 
L 227.288442 158.528993 
L 225.60603 162.15606 
L 223.923618 165.796612 
L 222.241206 169.435021 
L 220.558794 173.055892 
L 218.876382 176.64421 
L 217.19397 180.185474 
L 215.511558 183.665818 
L 213.829146 187.072124 
L 212.146734 190.392113 
L 210.464322 193.614427 
L 208.78191 196.728693 
L 207.099497 199.725575 
L 205.417085 202.596803 
L 203.734673 205.335193 
L 202.052261 207.934655 
L 200.369849 210.39018 
L 198.687437 212.697829 
L 197.005025 214.854703 
L 195.322613 216.858912 
L 193.640201 218.709545 
L 191.957789 220.406626 
L 190.275377 221.951086 
L 188.592965 223.34472 
L 186.910553 224.590159 
L 185.228141 225.690833 
L 183.545729 226.650942 
L 181.863317 227.47542 
L 180.180905 228.169901 
L 178.498492 228.740679 
L 176.81608 229.194666 
L 175.133668 229.539335 
L 173.451256 229.782662 
L 171.768844 229.933065 
L 170.086432 229.999317 
L 168.40402 229.990473 
L 166.721608 229.915776 
L 165.039196 229.78456 
L 163.356784 229.606157 
L 161.674372 229.389791 
L 159.99196 229.144483 
L 158.309548 228.878949 
L 156.627136 228.60151 
L 154.944724 228.320003 
L 153.262312 228.041702 
L 151.579899 227.773247 
L 149.897487 227.520587 
L 148.215075 227.288932 
L 146.532663 227.082714 
L 144.850251 226.905572 
L 143.167839 226.760336 
L 141.485427 226.649038 
L 139.803015 226.572926 
L 138.120603 226.532491 
L 136.438191 226.527514 
L 134.755779 226.557111 
L 133.073367 226.619801 
L 131.390955 226.713569 
L 129.708543 226.835948 
L 128.026131 226.9841 
L 126.343719 227.154907 
L 124.661307 227.345059 
L 122.978894 227.55115 
L 121.296482 227.769776 
L 119.61407 227.997625 
L 117.931658 228.231571 
L 116.249246 228.468763 
L 114.566834 228.706703 
L 112.884422 228.94332 
L 111.20201 229.177031 
L 109.519598 229.406787 
L 107.837186 229.632104 
L 106.154774 229.853073 
L 104.472362 230.070354 
L 102.78995 230.285143 
L 101.107538 230.49912 
L 99.425126 230.714378 
L 97.742714 230.933327 
L 96.060302 231.158596 
L 94.377889 231.392918 
L 92.695477 231.639011 
L 91.013065 231.899473 
L 89.330653 232.176678 
L 87.648241 232.47269 
L 85.965829 232.789199 
L 84.283417 233.12747 
L 82.601005 233.488324 
L 80.918593 233.872125 
L 79.236181 234.278794 
L 77.553769 234.707831 
L 75.871357 235.15835 
L 74.188945 235.629116 
L 72.506533 236.118591 
L 70.824121 236.624976 
L 69.141709 237.146254 
L 67.459296 237.680233 
L 65.776884 238.224585 
L 64.094472 238.776881 
L 62.41206 239.334624 
L 60.729648 239.895276 
L 59.047236 240.456291 
L 57.364824 241.015134 
L 55.682412 241.569306 
L 54 242.116364 
z
" style="fill:#cc3300;opacity:0.3;stroke:#cc3300;stroke-linejoin:miter;stroke-width:0.5;"/>
   </g>
   <g id="matplotlib.axis_1">
    <g id="xtick_1">
     <g id="line2d_1">
      <defs>
       <path d="M 0 0 
L 0 3.5 
" id="mbbf36fb92d" style="stroke:#000000;stroke-width:0.8;"/>
      </defs>
      <g>
       <use style="stroke:#000000;stroke-width:0.8;" x="92.417191" xlink:href="#mbbf36fb92d" y="252"/>
      </g>
     </g>
     <g id="text_1">
      <!-- −0.75 -->
      <defs>
       <path d="M 10.59375 35.5 
L 73.1875 35.5 
L 73.1875 27.203125 
L 10.59375 27.203125 
z
" id="DejaVuSans-2212"/>
       <path d="M 31.78125 66.40625 
Q 24.171875 66.40625 20.328125 58.90625 
Q 16.5 51.421875 16.5 36.375 
Q 16.5 21.390625 20.328125 13.890625 
Q 24.171875 6.390625 31.78125 6.390625 
Q 39.453125 6.390625 43.28125 13.890625 
Q 47.125 21.390625 47.125 36.375 
Q 47.125 51.421875 43.28125 58.90625 
Q 39.453125 66.40625 31.78125 66.40625 
z
M 31.78125 74.21875 
Q 44.046875 74.21875 50.515625 64.515625 
Q 56.984375 54.828125 56.984375 36.375 
Q 56.984375 17.96875 50.515625 8.265625 
Q 44.046875 -1.421875 31.78125 -1.421875 
Q 19.53125 -1.421875 13.0625 8.265625 
Q 6.59375 17.96875 6.59375 36.375 
Q 6.59375 54.828125 13.0625 64.515625 
Q 19.53125 74.21875 31.78125 74.21875 
z
" id="DejaVuSans-30"/>
       <path d="M 10.6875 12.40625 
L 21 12.40625 
L 21 0 
L 10.6875 0 
z
" id="DejaVuSans-2e"/>
       <path d="M 8.203125 72.90625 
L 55.078125 72.90625 
L 55.078125 68.703125 
L 28.609375 0 
L 18.3125 0 
L 43.21875 64.59375 
L 8.203125 64.59375 
z
" id="DejaVuSans-37"/>
       <path d="M 10.796875 72.90625 
L 49.515625 72.90625 
L 49.515625 64.59375 
L 19.828125 64.59375 
L 19.828125 46.734375 
Q 21.96875 47.46875 24.109375 47.828125 
Q 26.265625 48.1875 28.421875 48.1875 
Q 40.625 48.1875 47.75 41.5 
Q 54.890625 34.8125 54.890625 23.390625 
Q 54.890625 11.625 47.5625 5.09375 
Q 40.234375 -1.421875 26.90625 -1.421875 
Q 22.3125 -1.421875 17.546875 -0.640625 
Q 12.796875 0.140625 7.71875 1.703125 
L 7.71875 11.625 
Q 12.109375 9.234375 16.796875 8.0625 
Q 21.484375 6.890625 26.703125 6.890625 
Q 35.15625 6.890625 40.078125 11.328125 
Q 45.015625 15.765625 45.015625 23.390625 
Q 45.015625 31 40.078125 35.4375 
Q 35.15625 39.890625 26.703125 39.890625 
Q 22.75 39.890625 18.8125 39.015625 
Q 14.890625 38.140625 10.796875 36.28125 
z
" id="DejaVuSans-35"/>
      </defs>
      <g transform="translate(77.094535 266.598437)scale(0.1 -0.1)">
       <use xlink:href="#DejaVuSans-2212"/>
       <use x="83.789062" xlink:href="#DejaVuSans-30"/>
       <use x="147.412109" xlink:href="#DejaVuSans-2e"/>
       <use x="179.199219" xlink:href="#DejaVuSans-37"/>
       <use x="242.822266" xlink:href="#DejaVuSans-35"/>
      </g>
     </g>
    </g>
    <g id="xtick_2">
     <g id="line2d_2">
      <g>
       <use style="stroke:#000000;stroke-width:0.8;" x="135.416321" xlink:href="#mbbf36fb92d" y="252"/>
      </g>
     </g>
     <g id="text_2">
      <!-- −0.50 -->
      <g transform="translate(120.093665 266.598437)scale(0.1 -0.1)">
       <use xlink:href="#DejaVuSans-2212"/>
       <use x="83.789062" xlink:href="#DejaVuSans-30"/>
       <use x="147.412109" xlink:href="#DejaVuSans-2e"/>
       <use x="179.199219" xlink:href="#DejaVuSans-35"/>
       <use x="242.822266" xlink:href="#DejaVuSans-30"/>
      </g>
     </g>
    </g>
    <g id="xtick_3">
     <g id="line2d_3">
      <g>
       <use style="stroke:#000000;stroke-width:0.8;" x="178.415452" xlink:href="#mbbf36fb92d" y="252"/>
      </g>
     </g>
     <g id="text_3">
      <!-- −0.25 -->
      <defs>
       <path d="M 19.1875 8.296875 
L 53.609375 8.296875 
L 53.609375 0 
L 7.328125 0 
L 7.328125 8.296875 
Q 12.9375 14.109375 22.625 23.890625 
Q 32.328125 33.6875 34.8125 36.53125 
Q 39.546875 41.84375 41.421875 45.53125 
Q 43.3125 49.21875 43.3125 52.78125 
Q 43.3125 58.59375 39.234375 62.25 
Q 35.15625 65.921875 28.609375 65.921875 
Q 23.96875 65.921875 18.8125 64.3125 
Q 13.671875 62.703125 7.8125 59.421875 
L 7.8125 69.390625 
Q 13.765625 71.78125 18.9375 73 
Q 24.125 74.21875 28.421875 74.21875 
Q 39.75 74.21875 46.484375 68.546875 
Q 53.21875 62.890625 53.21875 53.421875 
Q 53.21875 48.921875 51.53125 44.890625 
Q 49.859375 40.875 45.40625 35.40625 
Q 44.1875 33.984375 37.640625 27.21875 
Q 31.109375 20.453125 19.1875 8.296875 
z
" id="DejaVuSans-32"/>
      </defs>
      <g transform="translate(163.092795 266.598437)scale(0.1 -0.1)">
       <use xlink:href="#DejaVuSans-2212"/>
       <use x="83.789062" xlink:href="#DejaVuSans-30"/>
       <use x="147.412109" xlink:href="#DejaVuSans-2e"/>
       <use x="179.199219" xlink:href="#DejaVuSans-32"/>
       <use x="242.822266" xlink:href="#DejaVuSans-35"/>
      </g>
     </g>
    </g>
    <g id="xtick_4">
     <g id="line2d_4">
      <g>
       <use style="stroke:#000000;stroke-width:0.8;" x="221.414582" xlink:href="#mbbf36fb92d" y="252"/>
      </g>
     </g>
     <g id="text_4">
      <!-- 0.00 -->
      <g transform="translate(210.281769 266.598437)scale(0.1 -0.1)">
       <use xlink:href="#DejaVuSans-30"/>
       <use x="63.623047" xlink:href="#DejaVuSans-2e"/>
       <use x="95.410156" xlink:href="#DejaVuSans-30"/>
       <use x="159.033203" xlink:href="#DejaVuSans-30"/>
      </g>
     </g>
    </g>
    <g id="xtick_5">
     <g id="line2d_5">
      <g>
       <use style="stroke:#000000;stroke-width:0.8;" x="264.413712" xlink:href="#mbbf36fb92d" y="252"/>
      </g>
     </g>
     <g id="text_5">
      <!-- 0.25 -->
      <g transform="translate(253.280899 266.598437)scale(0.1 -0.1)">
       <use xlink:href="#DejaVuSans-30"/>
       <use x="63.623047" xlink:href="#DejaVuSans-2e"/>
       <use x="95.410156" xlink:href="#DejaVuSans-32"/>
       <use x="159.033203" xlink:href="#DejaVuSans-35"/>
      </g>
     </g>
    </g>
    <g id="xtick_6">
     <g id="line2d_6">
      <g>
       <use style="stroke:#000000;stroke-width:0.8;" x="307.412842" xlink:href="#mbbf36fb92d" y="252"/>
      </g>
     </g>
     <g id="text_6">
      <!-- 0.50 -->
      <g transform="translate(296.280029 266.598437)scale(0.1 -0.1)">
       <use xlink:href="#DejaVuSans-30"/>
       <use x="63.623047" xlink:href="#DejaVuSans-2e"/>
       <use x="95.410156" xlink:href="#DejaVuSans-35"/>
       <use x="159.033203" xlink:href="#DejaVuSans-30"/>
      </g>
     </g>
    </g>
    <g id="xtick_7">
     <g id="line2d_7">
      <g>
       <use style="stroke:#000000;stroke-width:0.8;" x="350.411972" xlink:href="#mbbf36fb92d" y="252"/>
      </g>
     </g>
     <g id="text_7">
      <!-- 0.75 -->
      <g transform="translate(339.279159 266.598437)scale(0.1 -0.1)">
       <use xlink:href="#DejaVuSans-30"/>
       <use x="63.623047" xlink:href="#DejaVuSans-2e"/>
       <use x="95.410156" xlink:href="#DejaVuSans-37"/>
       <use x="159.033203" xlink:href="#DejaVuSans-35"/>
      </g>
     </g>
    </g>
    <g id="text_8">
     <!-- layer 1 -->
     <defs>
      <path d="M 9.421875 75.984375 
L 18.40625 75.984375 
L 18.40625 0 
L 9.421875 0 
z
" id="DejaVuSans-6c"/>
      <path d="M 34.28125 27.484375 
Q 23.390625 27.484375 19.1875 25 
Q 14.984375 22.515625 14.984375 16.5 
Q 14.984375 11.71875 18.140625 8.90625 
Q 21.296875 6.109375 26.703125 6.109375 
Q 34.1875 6.109375 38.703125 11.40625 
Q 43.21875 16.703125 43.21875 25.484375 
L 43.21875 27.484375 
z
M 52.203125 31.203125 
L 52.203125 0 
L 43.21875 0 
L 43.21875 8.296875 
Q 40.140625 3.328125 35.546875 0.953125 
Q 30.953125 -1.421875 24.3125 -1.421875 
Q 15.921875 -1.421875 10.953125 3.296875 
Q 6 8.015625 6 15.921875 
Q 6 25.140625 12.171875 29.828125 
Q 18.359375 34.515625 30.609375 34.515625 
L 43.21875 34.515625 
L 43.21875 35.40625 
Q 43.21875 41.609375 39.140625 45 
Q 35.0625 48.390625 27.6875 48.390625 
Q 23 48.390625 18.546875 47.265625 
Q 14.109375 46.140625 10.015625 43.890625 
L 10.015625 52.203125 
Q 14.9375 54.109375 19.578125 55.046875 
Q 24.21875 56 28.609375 56 
Q 40.484375 56 46.34375 49.84375 
Q 52.203125 43.703125 52.203125 31.203125 
z
" id="DejaVuSans-61"/>
      <path d="M 32.171875 -5.078125 
Q 28.375 -14.84375 24.75 -17.8125 
Q 21.140625 -20.796875 15.09375 -20.796875 
L 7.90625 -20.796875 
L 7.90625 -13.28125 
L 13.1875 -13.28125 
Q 16.890625 -13.28125 18.9375 -11.515625 
Q 21 -9.765625 23.484375 -3.21875 
L 25.09375 0.875 
L 2.984375 54.6875 
L 12.5 54.6875 
L 29.59375 11.921875 
L 46.6875 54.6875 
L 56.203125 54.6875 
z
" id="DejaVuSans-79"/>
      <path d="M 56.203125 29.59375 
L 56.203125 25.203125 
L 14.890625 25.203125 
Q 15.484375 15.921875 20.484375 11.0625 
Q 25.484375 6.203125 34.421875 6.203125 
Q 39.59375 6.203125 44.453125 7.46875 
Q 49.3125 8.734375 54.109375 11.28125 
L 54.109375 2.78125 
Q 49.265625 0.734375 44.1875 -0.34375 
Q 39.109375 -1.421875 33.890625 -1.421875 
Q 20.796875 -1.421875 13.15625 6.1875 
Q 5.515625 13.8125 5.515625 26.8125 
Q 5.515625 40.234375 12.765625 48.109375 
Q 20.015625 56 32.328125 56 
Q 43.359375 56 49.78125 48.890625 
Q 56.203125 41.796875 56.203125 29.59375 
z
M 47.21875 32.234375 
Q 47.125 39.59375 43.09375 43.984375 
Q 39.0625 48.390625 32.421875 48.390625 
Q 24.90625 48.390625 20.390625 44.140625 
Q 15.875 39.890625 15.1875 32.171875 
z
" id="DejaVuSans-65"/>
      <path d="M 41.109375 46.296875 
Q 39.59375 47.171875 37.8125 47.578125 
Q 36.03125 48 33.890625 48 
Q 26.265625 48 22.1875 43.046875 
Q 18.109375 38.09375 18.109375 28.8125 
L 18.109375 0 
L 9.078125 0 
L 9.078125 54.6875 
L 18.109375 54.6875 
L 18.109375 46.1875 
Q 20.953125 51.171875 25.484375 53.578125 
Q 30.03125 56 36.53125 56 
Q 37.453125 56 38.578125 55.875 
Q 39.703125 55.765625 41.0625 55.515625 
z
" id="DejaVuSans-72"/>
      <path id="DejaVuSans-20"/>
      <path d="M 12.40625 8.296875 
L 28.515625 8.296875 
L 28.515625 63.921875 
L 10.984375 60.40625 
L 10.984375 69.390625 
L 28.421875 72.90625 
L 38.28125 72.90625 
L 38.28125 8.296875 
L 54.390625 8.296875 
L 54.390625 0 
L 12.40625 0 
z
" id="DejaVuSans-31"/>
     </defs>
     <g transform="translate(186.770312 287.875)scale(0.2 -0.2)">
      <use xlink:href="#DejaVuSans-6c"/>
      <use x="27.783203" xlink:href="#DejaVuSans-61"/>
      <use x="89.0625" xlink:href="#DejaVuSans-79"/>
      <use x="148.242188" xlink:href="#DejaVuSans-65"/>
      <use x="209.765625" xlink:href="#DejaVuSans-72"/>
      <use x="250.878906" xlink:href="#DejaVuSans-20"/>
      <use x="282.666016" xlink:href="#DejaVuSans-31"/>
     </g>
    </g>
   </g>
   <g id="matplotlib.axis_2">
    <g id="ytick_1">
     <g id="line2d_8">
      <defs>
       <path d="M 0 0 
L -3.5 0 
" id="m1c2ccdb181" style="stroke:#000000;stroke-width:0.8;"/>
      </defs>
      <g>
       <use style="stroke:#000000;stroke-width:0.8;" x="54" xlink:href="#m1c2ccdb181" y="228.628157"/>
      </g>
     </g>
     <g id="text_9">
      <!-- −0.75 -->
      <g transform="translate(16.354687 232.427376)scale(0.1 -0.1)">
       <use xlink:href="#DejaVuSans-2212"/>
       <use x="83.789062" xlink:href="#DejaVuSans-30"/>
       <use x="147.412109" xlink:href="#DejaVuSans-2e"/>
       <use x="179.199219" xlink:href="#DejaVuSans-37"/>
       <use x="242.822266" xlink:href="#DejaVuSans-35"/>
      </g>
     </g>
    </g>
    <g id="ytick_2">
     <g id="line2d_9">
      <g>
       <use style="stroke:#000000;stroke-width:0.8;" x="54" xlink:href="#m1c2ccdb181" y="200.077374"/>
      </g>
     </g>
     <g id="text_10">
      <!-- −0.50 -->
      <g transform="translate(16.354687 203.876593)scale(0.1 -0.1)">
       <use xlink:href="#DejaVuSans-2212"/>
       <use x="83.789062" xlink:href="#DejaVuSans-30"/>
       <use x="147.412109" xlink:href="#DejaVuSans-2e"/>
       <use x="179.199219" xlink:href="#DejaVuSans-35"/>
       <use x="242.822266" xlink:href="#DejaVuSans-30"/>
      </g>
     </g>
    </g>
    <g id="ytick_3">
     <g id="line2d_10">
      <g>
       <use style="stroke:#000000;stroke-width:0.8;" x="54" xlink:href="#m1c2ccdb181" y="171.526591"/>
      </g>
     </g>
     <g id="text_11">
      <!-- −0.25 -->
      <g transform="translate(16.354687 175.32581)scale(0.1 -0.1)">
       <use xlink:href="#DejaVuSans-2212"/>
       <use x="83.789062" xlink:href="#DejaVuSans-30"/>
       <use x="147.412109" xlink:href="#DejaVuSans-2e"/>
       <use x="179.199219" xlink:href="#DejaVuSans-32"/>
       <use x="242.822266" xlink:href="#DejaVuSans-35"/>
      </g>
     </g>
    </g>
    <g id="ytick_4">
     <g id="line2d_11">
      <g>
       <use style="stroke:#000000;stroke-width:0.8;" x="54" xlink:href="#m1c2ccdb181" y="142.975808"/>
      </g>
     </g>
     <g id="text_12">
      <!-- 0.00 -->
      <g transform="translate(24.734375 146.775027)scale(0.1 -0.1)">
       <use xlink:href="#DejaVuSans-30"/>
       <use x="63.623047" xlink:href="#DejaVuSans-2e"/>
       <use x="95.410156" xlink:href="#DejaVuSans-30"/>
       <use x="159.033203" xlink:href="#DejaVuSans-30"/>
      </g>
     </g>
    </g>
    <g id="ytick_5">
     <g id="line2d_12">
      <g>
       <use style="stroke:#000000;stroke-width:0.8;" x="54" xlink:href="#m1c2ccdb181" y="114.425025"/>
      </g>
     </g>
     <g id="text_13">
      <!-- 0.25 -->
      <g transform="translate(24.734375 118.224243)scale(0.1 -0.1)">
       <use xlink:href="#DejaVuSans-30"/>
       <use x="63.623047" xlink:href="#DejaVuSans-2e"/>
       <use x="95.410156" xlink:href="#DejaVuSans-32"/>
       <use x="159.033203" xlink:href="#DejaVuSans-35"/>
      </g>
     </g>
    </g>
    <g id="ytick_6">
     <g id="line2d_13">
      <g>
       <use style="stroke:#000000;stroke-width:0.8;" x="54" xlink:href="#m1c2ccdb181" y="85.874242"/>
      </g>
     </g>
     <g id="text_14">
      <!-- 0.50 -->
      <g transform="translate(24.734375 89.67346)scale(0.1 -0.1)">
       <use xlink:href="#DejaVuSans-30"/>
       <use x="63.623047" xlink:href="#DejaVuSans-2e"/>
       <use x="95.410156" xlink:href="#DejaVuSans-35"/>
       <use x="159.033203" xlink:href="#DejaVuSans-30"/>
      </g>
     </g>
    </g>
    <g id="ytick_7">
     <g id="line2d_14">
      <g>
       <use style="stroke:#000000;stroke-width:0.8;" x="54" xlink:href="#m1c2ccdb181" y="57.323458"/>
      </g>
     </g>
     <g id="text_15">
      <!-- 0.75 -->
      <g transform="translate(24.734375 61.122677)scale(0.1 -0.1)">
       <use xlink:href="#DejaVuSans-30"/>
       <use x="63.623047" xlink:href="#DejaVuSans-2e"/>
       <use x="95.410156" xlink:href="#DejaVuSans-37"/>
       <use x="159.033203" xlink:href="#DejaVuSans-35"/>
      </g>
     </g>
    </g>
    <g id="text_16">
     <!-- layer 2 -->
     <g transform="translate(8.195312 177.909688)rotate(-90)scale(0.2 -0.2)">
      <use xlink:href="#DejaVuSans-6c"/>
      <use x="27.783203" xlink:href="#DejaVuSans-61"/>
      <use x="89.0625" xlink:href="#DejaVuSans-79"/>
      <use x="148.242188" xlink:href="#DejaVuSans-65"/>
      <use x="209.765625" xlink:href="#DejaVuSans-72"/>
      <use x="250.878906" xlink:href="#DejaVuSans-20"/>
      <use x="282.666016" xlink:href="#DejaVuSans-32"/>
     </g>
    </g>
   </g>
   <g id="line2d_15">
    <path clip-path="url(#pbf9a1c2583)" d="M 54 181.690114 
L 62.41206 187.479164 
L 67.459296 190.766161 
L 72.506533 193.816171 
L 77.553769 196.552849 
L 80.918593 198.169408 
L 84.283417 199.599958 
L 87.648241 200.831757 
L 91.013065 201.85657 
L 94.377889 202.671308 
L 97.742714 203.278535 
L 101.107538 203.686777 
L 104.472362 203.910613 
L 109.519598 203.946817 
L 114.566834 203.7063 
L 122.978894 202.998302 
L 129.708543 202.479284 
L 134.755779 202.287859 
L 139.803015 202.349814 
L 144.850251 202.693154 
L 149.897487 203.290735 
L 165.039196 205.431793 
L 168.40402 205.607807 
L 171.768844 205.516528 
L 175.133668 205.079259 
L 176.81608 204.70686 
L 178.498492 204.219756 
L 180.180905 203.609376 
L 181.863317 202.867737 
L 183.545729 201.987553 
L 185.228141 200.962328 
L 186.910553 199.786453 
L 188.592965 198.45529 
L 190.275377 196.96525 
L 191.957789 195.313858 
L 195.322613 191.523022 
L 198.687437 187.087142 
L 202.052261 182.03077 
L 205.417085 176.398636 
L 208.78191 170.254755 
L 212.146734 163.680679 
L 217.19397 153.227514 
L 230.653266 124.60464 
L 234.01809 117.915929 
L 237.382915 111.6289 
L 240.747739 105.830089 
L 244.112563 100.589186 
L 247.477387 95.95704 
L 250.842211 91.964488 
L 252.524623 90.212138 
L 254.207035 88.622075 
L 255.889447 87.192539 
L 257.571859 85.920618 
L 259.254271 84.802311 
L 260.936683 83.832595 
L 262.619095 83.005507 
L 264.301508 82.314235 
L 265.98392 81.751212 
L 269.348744 80.976479 
L 272.713568 80.609613 
L 276.078392 80.573657 
L 279.443216 80.789891 
L 284.490452 81.419564 
L 297.949749 83.359235 
L 302.996985 83.759389 
L 308.044221 83.880209 
L 313.091457 83.738759 
L 319.821106 83.257785 
L 331.59799 82.321691 
L 336.645226 82.193071 
L 340.01005 82.279138 
L 343.374874 82.532461 
L 346.739698 82.9726 
L 350.104523 83.613299 
L 353.469347 84.462343 
L 356.834171 85.52167 
L 360.198995 86.78769 
L 363.563819 88.251786 
L 366.928643 89.900945 
L 371.975879 92.68433 
L 377.023116 95.778015 
L 383.752764 100.252305 
L 388.8 103.766062 
L 388.8 103.766062 
" style="fill:none;stroke:#3300ff;stroke-linecap:square;stroke-width:2;"/>
   </g>
   <g id="line2d_16">
    <path clip-path="url(#pbf9a1c2583)" d="M 54 121.263865 
L 62.41206 135.623704 
L 67.459296 143.852088 
L 70.824121 149.036371 
L 74.188945 153.904444 
L 77.553769 158.397866 
L 80.918593 162.466691 
L 84.283417 166.072445 
L 87.648241 169.190824 
L 91.013065 171.813666 
L 94.377889 173.949698 
L 97.742714 175.623742 
L 101.107538 176.874434 
L 104.472362 177.750872 
L 107.837186 178.308866 
L 111.20201 178.60743 
L 114.566834 178.705898 
L 119.61407 178.603327 
L 134.755779 178.018606 
L 139.803015 178.126703 
L 144.850251 178.480737 
L 149.897487 179.060882 
L 165.039196 181.079026 
L 168.40402 181.225142 
L 171.768844 181.099992 
L 175.133668 180.619183 
L 176.81608 180.219054 
L 178.498492 179.698833 
L 180.180905 179.048851 
L 181.863317 178.260054 
L 183.545729 177.324163 
L 185.228141 176.233822 
L 186.910553 174.982746 
L 188.592965 173.56586 
L 190.275377 171.979415 
L 191.957789 170.22109 
L 193.640201 168.290077 
L 197.005025 163.914608 
L 200.369849 158.878196 
L 203.734673 153.231023 
L 207.099497 147.046329 
L 210.464322 140.417119 
L 215.511558 129.880133 
L 228.970854 101.206166 
L 232.335678 94.546849 
L 235.700503 88.293053 
L 239.065327 82.520526 
L 242.430151 77.288004 
L 245.794975 72.636918 
L 249.159799 68.591777 
L 252.524623 65.161027 
L 254.207035 63.674558 
L 255.889447 62.338121 
L 257.571859 61.14874 
L 259.254271 60.102642 
L 260.936683 59.195289 
L 262.619095 58.421421 
L 264.301508 57.775093 
L 267.666332 56.838126 
L 271.031156 56.324999 
L 274.39598 56.168913 
L 277.760804 56.298071 
L 281.125628 56.638465 
L 286.172864 57.386002 
L 296.267337 58.945328 
L 301.314573 59.437742 
L 306.361809 59.625629 
L 311.409045 59.501321 
L 316.456281 59.108373 
L 323.18593 58.302716 
L 355.151759 53.833778 
L 360.198995 52.844875 
L 365.246231 51.661722 
L 371.975879 49.802235 
L 380.38794 47.166146 
L 388.8 44.443636 
L 388.8 44.443636 
" style="fill:none;stroke:#3300ff;stroke-linecap:square;stroke-width:0.2;"/>
   </g>
   <g id="line2d_17">
    <path clip-path="url(#pbf9a1c2583)" d="M 54 242.116364 
L 74.188945 235.629116 
L 79.236181 234.278794 
L 84.283417 233.12747 
L 89.330653 232.176678 
L 96.060302 231.158596 
L 128.026131 226.9841 
L 133.073367 226.619801 
L 138.120603 226.532491 
L 143.167839 226.760336 
L 148.215075 227.288932 
L 154.944724 228.320003 
L 161.674372 229.389791 
L 165.039196 229.78456 
L 168.40402 229.990473 
L 171.768844 229.933065 
L 175.133668 229.539335 
L 178.498492 228.740679 
L 180.180905 228.169901 
L 181.863317 227.47542 
L 183.545729 226.650942 
L 185.228141 225.690833 
L 186.910553 224.590159 
L 188.592965 223.34472 
L 190.275377 221.951086 
L 191.957789 220.406626 
L 195.322613 216.858912 
L 198.687437 212.697829 
L 202.052261 207.934655 
L 205.417085 202.596803 
L 208.78191 196.728693 
L 212.146734 190.392113 
L 215.511558 183.665818 
L 220.558794 173.055892 
L 232.335678 147.885291 
L 235.700503 141.139807 
L 239.065327 134.806853 
L 242.430151 128.984519 
L 245.794975 123.752311 
L 249.159799 119.167588 
L 252.524623 115.263249 
L 254.207035 113.569592 
L 255.889447 112.046957 
L 257.571859 110.692496 
L 259.254271 109.501981 
L 260.936683 108.469901 
L 262.619095 107.589593 
L 264.301508 106.853378 
L 265.98392 106.252706 
L 267.666332 105.778307 
L 271.031156 105.168581 
L 274.39598 104.941467 
L 277.760804 105.012221 
L 281.125628 105.298188 
L 286.172864 105.964088 
L 296.267337 107.392352 
L 301.314573 107.874911 
L 306.361809 108.116358 
L 311.409045 108.122554 
L 318.138693 107.867362 
L 326.550754 107.494353 
L 331.59799 107.513274 
L 334.962814 107.740127 
L 338.327638 108.207513 
L 341.692462 108.975512 
L 345.057286 110.101867 
L 348.422111 111.638456 
L 351.786935 113.627462 
L 355.151759 116.097864 
L 358.516583 119.062925 
L 361.881407 122.519128 
L 365.246231 126.446675 
L 368.611055 130.811225 
L 371.975879 135.566425 
L 375.340704 140.656753 
L 380.38794 148.784139 
L 387.117588 160.190654 
L 388.8 163.088487 
L 388.8 163.088487 
" style="fill:none;stroke:#3300ff;stroke-linecap:square;stroke-width:0.2;"/>
   </g>
   <g id="line2d_18">
    <defs>
     <path d="M 0 2.5 
C 0.663008 2.5 1.29895 2.236584 1.767767 1.767767 
C 2.236584 1.29895 2.5 0.663008 2.5 0 
C 2.5 -0.663008 2.236584 -1.29895 1.767767 -1.767767 
C 1.29895 -2.236584 0.663008 -2.5 0 -2.5 
C -0.663008 -2.5 -1.29895 -2.236584 -1.767767 -1.767767 
C -2.236584 -1.29895 -2.5 -0.663008 -2.5 0 
C -2.5 0.663008 -2.236584 1.29895 -1.767767 1.767767 
C -1.29895 2.236584 -0.663008 2.5 0 2.5 
z
" id="mfa79780a34" style="stroke:#ff0000;"/>
    </defs>
    <g clip-path="url(#pbf9a1c2583)">
     <use style="fill:#ff0000;stroke:#ff0000;" x="149.680309" xlink:href="#mfa79780a34" y="203.442607"/>
     <use style="fill:#ff0000;stroke:#ff0000;" x="146.559238" xlink:href="#mfa79780a34" y="203.488765"/>
     <use style="fill:#ff0000;stroke:#ff0000;" x="143.408058" xlink:href="#mfa79780a34" y="203.507415"/>
     <use style="fill:#ff0000;stroke:#ff0000;" x="140.254891" xlink:href="#mfa79780a34" y="203.508089"/>
     <use style="fill:#ff0000;stroke:#ff0000;" x="137.371987" xlink:href="#mfa79780a34" y="203.49633"/>
     <use style="fill:#ff0000;stroke:#ff0000;" x="134.763397" xlink:href="#mfa79780a34" y="203.477615"/>
     <use style="fill:#ff0000;stroke:#ff0000;" x="132.572564" xlink:href="#mfa79780a34" y="203.456749"/>
     <use style="fill:#ff0000;stroke:#ff0000;" x="130.91225" xlink:href="#mfa79780a34" y="203.438292"/>
     <use style="fill:#ff0000;stroke:#ff0000;" x="129.858109" xlink:href="#mfa79780a34" y="203.425389"/>
     <use style="fill:#ff0000;stroke:#ff0000;" x="129.502808" xlink:href="#mfa79780a34" y="203.420857"/>
     <use style="fill:#ff0000;stroke:#ff0000;" x="129.935058" xlink:href="#mfa79780a34" y="203.426616"/>
     <use style="fill:#ff0000;stroke:#ff0000;" x="131.20401" xlink:href="#mfa79780a34" y="203.442236"/>
     <use style="fill:#ff0000;stroke:#ff0000;" x="133.387211" xlink:href="#mfa79780a34" y="203.466449"/>
     <use style="fill:#ff0000;stroke:#ff0000;" x="136.467704" xlink:href="#mfa79780a34" y="203.493701"/>
     <use style="fill:#ff0000;stroke:#ff0000;" x="140.500191" xlink:href="#mfa79780a34" y="203.517603"/>
     <use style="fill:#ff0000;stroke:#ff0000;" x="145.314097" xlink:href="#mfa79780a34" y="203.530462"/>
     <use style="fill:#ff0000;stroke:#ff0000;" x="150.966637" xlink:href="#mfa79780a34" y="203.525914"/>
     <use style="fill:#ff0000;stroke:#ff0000;" x="157.233604" xlink:href="#mfa79780a34" y="203.484923"/>
     <use style="fill:#ff0000;stroke:#ff0000;" x="163.735599" xlink:href="#mfa79780a34" y="203.361965"/>
     <use style="fill:#ff0000;stroke:#ff0000;" x="170.246701" xlink:href="#mfa79780a34" y="202.994828"/>
     <use style="fill:#ff0000;stroke:#ff0000;" x="176.491444" xlink:href="#mfa79780a34" y="202.178731"/>
     <use style="fill:#ff0000;stroke:#ff0000;" x="182.406362" xlink:href="#mfa79780a34" y="200.722503"/>
     <use style="fill:#ff0000;stroke:#ff0000;" x="187.960056" xlink:href="#mfa79780a34" y="198.470661"/>
     <use style="fill:#ff0000;stroke:#ff0000;" x="192.852525" xlink:href="#mfa79780a34" y="195.485695"/>
     <use style="fill:#ff0000;stroke:#ff0000;" x="196.622944" xlink:href="#mfa79780a34" y="192.622624"/>
     <use style="fill:#ff0000;stroke:#ff0000;" x="247.248448" xlink:href="#mfa79780a34" y="93.544783"/>
     <use style="fill:#ff0000;stroke:#ff0000;" x="251.020889" xlink:href="#mfa79780a34" y="90.660335"/>
     <use style="fill:#ff0000;stroke:#ff0000;" x="255.894436" xlink:href="#mfa79780a34" y="87.686891"/>
     <use style="fill:#ff0000;stroke:#ff0000;" x="261.472479" xlink:href="#mfa79780a34" y="85.431275"/>
     <use style="fill:#ff0000;stroke:#ff0000;" x="267.393921" xlink:href="#mfa79780a34" y="83.978724"/>
     <use style="fill:#ff0000;stroke:#ff0000;" x="273.647355" xlink:href="#mfa79780a34" y="83.165753"/>
     <use style="fill:#ff0000;stroke:#ff0000;" x="280.165516" xlink:href="#mfa79780a34" y="82.801669"/>
     <use style="fill:#ff0000;stroke:#ff0000;" x="286.684581" xlink:href="#mfa79780a34" y="82.677253"/>
     <use style="fill:#ff0000;stroke:#ff0000;" x="292.981503" xlink:href="#mfa79780a34" y="82.634947"/>
     <use style="fill:#ff0000;stroke:#ff0000;" x="298.560356" xlink:href="#mfa79780a34" y="82.631866"/>
     <use style="fill:#ff0000;stroke:#ff0000;" x="303.384446" xlink:href="#mfa79780a34" y="82.643477"/>
     <use style="fill:#ff0000;stroke:#ff0000;" x="307.396427" xlink:href="#mfa79780a34" y="82.666415"/>
     <use style="fill:#ff0000;stroke:#ff0000;" x="310.465978" xlink:href="#mfa79780a34" y="82.693004"/>
     <use style="fill:#ff0000;stroke:#ff0000;" x="312.627079" xlink:href="#mfa79780a34" y="82.716436"/>
     <use style="fill:#ff0000;stroke:#ff0000;" x="313.877565" xlink:href="#mfa79780a34" y="82.731511"/>
     <use style="fill:#ff0000;stroke:#ff0000;" x="314.287962" xlink:href="#mfa79780a34" y="82.736765"/>
     <use style="fill:#ff0000;stroke:#ff0000;" x="313.909689" xlink:href="#mfa79780a34" y="82.731909"/>
     <use style="fill:#ff0000;stroke:#ff0000;" x="312.829725" xlink:href="#mfa79780a34" y="82.718871"/>
     <use style="fill:#ff0000;stroke:#ff0000;" x="311.140636" xlink:href="#mfa79780a34" y="82.70055"/>
     <use style="fill:#ff0000;stroke:#ff0000;" x="308.924165" xlink:href="#mfa79780a34" y="82.680327"/>
     <use style="fill:#ff0000;stroke:#ff0000;" x="306.295282" xlink:href="#mfa79780a34" y="82.662827"/>
     <use style="fill:#ff0000;stroke:#ff0000;" x="303.395362" xlink:href="#mfa79780a34" y="82.652887"/>
     <use style="fill:#ff0000;stroke:#ff0000;" x="300.225024" xlink:href="#mfa79780a34" y="82.65609"/>
     <use style="fill:#ff0000;stroke:#ff0000;" x="297.060621" xlink:href="#mfa79780a34" y="82.67815"/>
     <use style="fill:#ff0000;stroke:#ff0000;" x="293.943914" xlink:href="#mfa79780a34" y="82.727542"/>
    </g>
   </g>
   <g id="patch_4">
    <path d="M 54 252 
L 54 34.56 
" style="fill:none;stroke:#000000;stroke-linecap:square;stroke-linejoin:miter;stroke-width:0.8;"/>
   </g>
   <g id="patch_5">
    <path d="M 388.8 252 
L 388.8 34.56 
" style="fill:none;stroke:#000000;stroke-linecap:square;stroke-linejoin:miter;stroke-width:0.8;"/>
   </g>
   <g id="patch_6">
    <path d="M 54 252 
L 388.8 252 
" style="fill:none;stroke:#000000;stroke-linecap:square;stroke-linejoin:miter;stroke-width:0.8;"/>
   </g>
   <g id="patch_7">
    <path d="M 54 34.56 
L 388.8 34.56 
" style="fill:none;stroke:#000000;stroke-linecap:square;stroke-linejoin:miter;stroke-width:0.8;"/>
   </g>
  </g>
 </g>
 <defs>
  <clipPath id="pbf9a1c2583">
   <rect height="217.44" width="334.8" x="54" y="34.56"/>
  </clipPath>
 </defs>
</svg>
