<?xml version="1.0" encoding="utf-8" standalone="no"?>
<!DOCTYPE svg PUBLIC "-//W3C//DTD SVG 1.1//EN"
  "http://www.w3.org/Graphics/SVG/1.1/DTD/svg11.dtd">
<!-- Created with matplotlib (http://matplotlib.org/) -->
<svg height="432pt" version="1.1" viewBox="0 0 864 432" width="864pt" xmlns="http://www.w3.org/2000/svg" xmlns:xlink="http://www.w3.org/1999/xlink">
 <defs>
  <style type="text/css">
*{stroke-linecap:butt;stroke-linejoin:round;}
  </style>
 </defs>
 <g id="figure_1">
  <g id="patch_1">
   <path d="M 0 432 
L 864 432 
L 864 0 
L 0 0 
z
" style="fill:none;"/>
  </g>
  <g id="axes_1">
   <g id="patch_2">
    <path d="M 108 378 
L 777.6 378 
L 777.6 51.84 
L 108 51.84 
z
" style="fill:none;"/>
   </g>
   <g id="patch_3">
    <path clip-path="url(#pdf890ff895)" d="M 108 98.889348 
L 111.364824 99.211439 
L 114.729648 99.557084 
L 118.094472 99.9284 
L 121.459296 100.327763 
L 124.824121 100.757852 
L 128.188945 101.221686 
L 131.553769 101.72268 
L 134.918593 102.264707 
L 138.283417 102.852163 
L 141.648241 103.490058 
L 145.013065 104.184111 
L 148.377889 104.940872 
L 151.742714 105.767863 
L 155.107538 106.67375 
L 158.472362 107.66855 
L 161.837186 108.763878 
L 165.20201 109.973256 
L 168.566834 111.312476 
L 171.931658 112.800057 
L 175.296482 114.457796 
L 178.661307 116.311437 
L 182.026131 118.391495 
L 185.390955 120.734251 
L 188.755779 123.382944 
L 192.120603 126.389192 
L 195.485427 129.814629 
L 198.850251 133.732719 
L 202.215075 138.230616 
L 205.579899 143.410781 
L 208.944724 149.39174 
L 212.309548 156.306851 
L 215.674372 164.299048 
L 219.039196 173.508116 
L 222.40402 184.045277 
L 225.768844 195.948365 
L 229.133668 209.112626 
L 232.498492 223.202835 
L 235.863317 237.579573 
L 239.228141 251.311088 
L 242.592965 263.351704 
L 245.957789 272.879607 
L 249.322613 279.613975 
L 252.687437 283.868411 
L 256.052261 286.302791 
L 259.417085 287.595021 
L 262.78191 288.250783 
L 266.146734 288.578775 
L 269.511558 288.744739 
L 272.876382 288.831296 
L 276.241206 288.878325 
L 279.60603 288.905045 
L 282.970854 288.920883 
L 286.335678 288.930607 
L 289.700503 288.936722 
L 293.065327 288.940596 
L 296.430151 288.943013 
L 299.794975 288.944435 
L 303.159799 288.94515 
L 306.524623 288.945343 
L 309.889447 288.945142 
L 313.254271 288.944644 
L 316.619095 288.943925 
L 319.98392 288.943058 
L 323.348744 288.942113 
L 326.713568 288.941166 
L 330.078392 288.940288 
L 333.443216 288.939555 
L 336.80804 288.939033 
L 340.172864 288.938777 
L 343.537688 288.938821 
L 346.902513 288.939176 
L 350.267337 288.939824 
L 353.632161 288.940719 
L 356.996985 288.94179 
L 360.361809 288.942945 
L 363.726633 288.944077 
L 367.091457 288.945064 
L 370.456281 288.94577 
L 373.821106 288.946029 
L 377.18593 288.945617 
L 380.550754 288.944187 
L 383.915578 288.941147 
L 387.280402 288.935381 
L 390.645226 288.924586 
L 394.01005 288.903565 
L 397.374874 288.859433 
L 400.739698 288.757111 
L 404.104523 288.493269 
L 407.469347 287.750722 
L 410.834171 285.595274 
L 414.198995 279.735435 
L 417.563819 266.426309 
L 420.928643 243.281419 
L 424.293467 213.052486 
L 427.658291 181.884425 
L 431.023116 154.376787 
L 434.38794 132.06855 
L 437.752764 114.682094 
L 441.117588 101.395559 
L 444.482412 91.496886 
L 447.847236 84.663694 
L 451.21206 81.086483 
L 454.576884 81.486387 
L 457.941709 86.874175 
L 461.306533 97.646953 
L 464.671357 111.934314 
L 468.036181 125.257518 
L 471.401005 133.955644 
L 474.765829 138.116664 
L 478.130653 139.738514 
L 481.495477 140.322372 
L 484.860302 140.537011 
L 488.225126 140.622344 
L 491.58995 140.659775 
L 494.954774 140.677797 
L 498.319598 140.687118 
L 501.684422 140.69212 
L 505.049246 140.694768 
L 508.41407 140.696024 
L 511.778894 140.69639 
L 515.143719 140.696181 
L 518.508543 140.695575 
L 521.873367 140.694728 
L 525.238191 140.693753 
L 528.603015 140.692747 
L 531.967839 140.691817 
L 535.332663 140.691037 
L 538.697487 140.69047 
L 542.062312 140.690154 
L 545.427136 140.690107 
L 548.79196 140.69031 
L 552.156784 140.690753 
L 555.521608 140.691375 
L 558.886432 140.692118 
L 562.251256 140.692948 
L 565.61608 140.693755 
L 568.980905 140.694511 
L 572.345729 140.695143 
L 575.710553 140.695588 
L 579.075377 140.695787 
L 582.440201 140.695649 
L 585.805025 140.695066 
L 589.169849 140.693881 
L 592.534673 140.691894 
L 595.899497 140.688679 
L 599.264322 140.683617 
L 602.629146 140.675623 
L 605.99397 140.6627 
L 609.358794 140.641136 
L 612.723618 140.603694 
L 616.088442 140.535982 
L 619.453266 140.408813 
L 622.81809 140.163331 
L 626.182915 139.684843 
L 629.547739 138.766645 
L 632.912563 137.08457 
L 636.277387 134.234779 
L 639.642211 129.888446 
L 643.007035 124.02148 
L 646.371859 117.04092 
L 649.736683 109.663195 
L 653.101508 102.627442 
L 656.466332 96.460264 
L 659.831156 91.406107 
L 663.19598 87.483584 
L 666.560804 84.580113 
L 669.925628 82.530165 
L 673.290452 81.162957 
L 676.655276 80.325357 
L 680.020101 79.889671 
L 683.384925 79.753761 
L 686.749749 79.837964 
L 690.114573 80.081126 
L 693.479397 80.43678 
L 696.844221 80.869863 
L 700.209045 81.354059 
L 703.573869 81.869709 
L 706.938693 82.4022 
L 710.303518 82.940734 
L 713.668342 83.477401 
L 717.033166 84.00647 
L 720.39799 84.523858 
L 723.762814 85.026727 
L 727.127638 85.51318 
L 730.492462 85.982026 
L 733.857286 86.432604 
L 737.222111 86.864649 
L 740.586935 87.278187 
L 743.951759 87.673457 
L 747.316583 88.050851 
L 750.681407 88.410863 
L 754.046231 88.754058 
L 757.411055 89.081043 
L 760.775879 89.392446 
L 764.140704 89.6889 
L 767.505528 89.971035 
L 770.870352 90.239465 
L 774.235176 90.494785 
L 777.6 90.737567 
L 777.6 330.817778 
L 774.235176 330.49175 
L 770.870352 330.14187 
L 767.505528 329.765995 
L 764.140704 329.361714 
L 760.775879 328.926313 
L 757.411055 328.45673 
L 754.046231 327.949502 
L 750.681407 327.400703 
L 747.316583 326.805874 
L 743.951759 326.159934 
L 740.586935 325.457081 
L 737.222111 324.69067 
L 733.857286 323.85307 
L 730.492462 322.935486 
L 727.127638 321.927756 
L 723.762814 320.818089 
L 720.39799 319.592763 
L 717.033166 318.235748 
L 713.668342 316.728244 
L 710.303518 315.048128 
L 706.938693 313.169264 
L 703.573869 311.06068 
L 700.209045 308.685552 
L 696.844221 306.000004 
L 693.479397 302.951676 
L 690.114573 299.478081 
L 686.749749 295.504796 
L 683.384925 290.943627 
L 680.020101 285.691075 
L 676.655276 279.627725 
L 673.290452 272.619784 
L 669.925628 264.524869 
L 666.560804 255.205644 
L 663.19598 244.556634 
L 659.831156 232.550908 
L 656.466332 219.311023 
L 653.101508 205.19677 
L 649.736683 190.873853 
L 646.371859 177.289705 
L 643.007035 165.479465 
L 639.642211 156.222835 
L 636.277387 149.743918 
L 632.912563 145.687453 
L 629.547739 143.383036 
L 626.182915 142.165673 
L 622.81809 141.549291 
L 619.453266 141.240972 
L 616.088442 141.084678 
L 612.723618 141.002923 
L 609.358794 140.958341 
L 605.99397 140.932931 
L 602.629146 140.917821 
L 599.264322 140.908524 
L 595.899497 140.902662 
L 592.534673 140.89895 
L 589.169849 140.896657 
L 585.805025 140.895294 
L 582.440201 140.894624 
L 579.075377 140.894465 
L 575.710553 140.894692 
L 572.345729 140.895204 
L 568.980905 140.895931 
L 565.61608 140.896802 
L 562.251256 140.897732 
L 558.886432 140.898686 
L 555.521608 140.899544 
L 552.156784 140.900261 
L 548.79196 140.900772 
L 545.427136 140.901008 
L 542.062312 140.900952 
L 538.697487 140.900588 
L 535.332663 140.899933 
L 531.967839 140.899033 
L 528.603015 140.897962 
L 525.238191 140.896805 
L 521.873367 140.895682 
L 518.508543 140.894708 
L 515.143719 140.894012 
L 511.778894 140.893771 
L 508.41407 140.894193 
L 505.049246 140.895638 
L 501.684422 140.898689 
L 498.319598 140.904469 
L 494.954774 140.91529 
L 491.58995 140.936369 
L 488.225126 140.980669 
L 484.860302 141.083501 
L 481.495477 141.349016 
L 478.130653 142.097074 
L 474.765829 144.269345 
L 471.401005 150.171333 
L 468.036181 163.554725 
L 464.671357 186.777777 
L 461.306533 217.043725 
L 457.941709 248.199397 
L 454.576884 275.668983 
L 451.21206 297.935119 
L 447.847236 315.284801 
L 444.482412 328.541264 
L 441.117588 338.414298 
L 437.752764 345.222454 
L 434.38794 348.770739 
L 431.023116 348.334128 
L 427.658291 342.902246 
L 424.293467 332.089852 
L 420.928643 317.791503 
L 417.563819 304.496208 
L 414.198995 295.839227 
L 410.834171 291.705615 
L 407.469347 290.095642 
L 404.104523 289.51588 
L 400.739698 289.302527 
L 397.374874 289.217594 
L 394.01005 289.180296 
L 390.645226 289.162321 
L 387.280402 289.15302 
L 383.915578 289.14803 
L 380.550754 289.145391 
L 377.18593 289.144148 
L 373.821106 289.143789 
L 370.456281 289.144015 
L 367.091457 289.144629 
L 363.726633 289.145488 
L 360.361809 289.146472 
L 356.996985 289.147474 
L 353.632161 289.148403 
L 350.267337 289.149179 
L 346.902513 289.149741 
L 343.537688 289.150049 
L 340.172864 289.150087 
L 336.80804 289.149865 
L 333.443216 289.149413 
L 330.078392 289.148777 
L 326.713568 289.148016 
L 323.348744 289.147193 
L 319.98392 289.146373 
L 316.619095 289.14562 
L 313.254271 289.144994 
L 309.889447 289.144561 
L 306.524623 289.144387 
L 303.159799 289.144553 
L 299.794975 289.145175 
L 296.430151 289.146411 
L 293.065327 289.148507 
L 289.700503 289.151861 
L 286.335678 289.15714 
L 282.970854 289.165501 
L 279.60603 289.17904 
L 276.241206 289.2017 
L 272.876382 289.241159 
L 269.511558 289.312755 
L 266.146734 289.447567 
L 262.78191 289.708184 
L 259.417085 290.216047 
L 256.052261 291.1881 
L 252.687437 292.959499 
L 249.322613 295.937164 
L 245.957789 300.433854 
L 242.592965 306.437511 
L 239.228141 313.502486 
L 235.863317 320.893818 
L 232.498492 327.880299 
L 229.133668 333.958495 
L 225.768844 338.907901 
L 222.40402 342.726908 
L 219.039196 345.537249 
L 215.674372 347.507883 
L 212.309548 348.809743 
L 208.944724 349.594575 
L 205.579899 349.988174 
L 202.215075 350.09077 
L 198.850251 349.980323 
L 195.485427 349.716555 
L 192.120603 349.344769 
L 188.755779 348.899094 
L 185.390955 348.405108 
L 182.026131 347.881885 
L 178.661307 347.343582 
L 175.296482 346.800633 
L 171.931658 346.260665 
L 168.566834 345.729181 
L 165.20201 345.210087 
L 161.837186 344.706075 
L 158.472362 344.218932 
L 155.107538 343.749757 
L 151.742714 343.299136 
L 148.377889 342.867277 
L 145.013065 342.454104 
L 141.648241 342.059341 
L 138.283417 341.682566 
L 134.918593 341.323258 
L 131.553769 340.980831 
L 128.188945 340.654663 
L 124.824121 340.344112 
L 121.459296 340.048532 
L 118.094472 339.767286 
L 114.729648 339.499752 
L 111.364824 339.245328 
L 108 339.003435 
z
" style="fill:#cc3300;opacity:0.3;stroke:#cc3300;stroke-linejoin:miter;stroke-width:0.5;"/>
   </g>
   <g id="matplotlib.axis_1">
    <g id="xtick_1">
     <g id="line2d_1">
      <defs>
       <path d="M 0 0 
L 0 3.5 
" id="m6ef893a057" style="stroke:#000000;stroke-width:0.8;"/>
      </defs>
      <g>
       <use style="stroke:#000000;stroke-width:0.8;" x="108" xlink:href="#m6ef893a057" y="378"/>
      </g>
     </g>
     <g id="text_1">
      <!-- −2.0 -->
      <defs>
       <path d="M 10.59375 35.5 
L 73.1875 35.5 
L 73.1875 27.203125 
L 10.59375 27.203125 
z
" id="DejaVuSans-2212"/>
       <path d="M 19.1875 8.296875 
L 53.609375 8.296875 
L 53.609375 0 
L 7.328125 0 
L 7.328125 8.296875 
Q 12.9375 14.109375 22.625 23.890625 
Q 32.328125 33.6875 34.8125 36.53125 
Q 39.546875 41.84375 41.421875 45.53125 
Q 43.3125 49.21875 43.3125 52.78125 
Q 43.3125 58.59375 39.234375 62.25 
Q 35.15625 65.921875 28.609375 65.921875 
Q 23.96875 65.921875 18.8125 64.3125 
Q 13.671875 62.703125 7.8125 59.421875 
L 7.8125 69.390625 
Q 13.765625 71.78125 18.9375 73 
Q 24.125 74.21875 28.421875 74.21875 
Q 39.75 74.21875 46.484375 68.546875 
Q 53.21875 62.890625 53.21875 53.421875 
Q 53.21875 48.921875 51.53125 44.890625 
Q 49.859375 40.875 45.40625 35.40625 
Q 44.1875 33.984375 37.640625 27.21875 
Q 31.109375 20.453125 19.1875 8.296875 
z
" id="DejaVuSans-32"/>
       <path d="M 10.6875 12.40625 
L 21 12.40625 
L 21 0 
L 10.6875 0 
z
" id="DejaVuSans-2e"/>
       <path d="M 31.78125 66.40625 
Q 24.171875 66.40625 20.328125 58.90625 
Q 16.5 51.421875 16.5 36.375 
Q 16.5 21.390625 20.328125 13.890625 
Q 24.171875 6.390625 31.78125 6.390625 
Q 39.453125 6.390625 43.28125 13.890625 
Q 47.125 21.390625 47.125 36.375 
Q 47.125 51.421875 43.28125 58.90625 
Q 39.453125 66.40625 31.78125 66.40625 
z
M 31.78125 74.21875 
Q 44.046875 74.21875 50.515625 64.515625 
Q 56.984375 54.828125 56.984375 36.375 
Q 56.984375 17.96875 50.515625 8.265625 
Q 44.046875 -1.421875 31.78125 -1.421875 
Q 19.53125 -1.421875 13.0625 8.265625 
Q 6.59375 17.96875 6.59375 36.375 
Q 6.59375 54.828125 13.0625 64.515625 
Q 19.53125 74.21875 31.78125 74.21875 
z
" id="DejaVuSans-30"/>
      </defs>
      <g transform="translate(95.858594 392.598437)scale(0.1 -0.1)">
       <use xlink:href="#DejaVuSans-2212"/>
       <use x="83.789062" xlink:href="#DejaVuSans-32"/>
       <use x="147.412109" xlink:href="#DejaVuSans-2e"/>
       <use x="179.199219" xlink:href="#DejaVuSans-30"/>
      </g>
     </g>
    </g>
    <g id="xtick_2">
     <g id="line2d_2">
      <g>
       <use style="stroke:#000000;stroke-width:0.8;" x="191.7" xlink:href="#m6ef893a057" y="378"/>
      </g>
     </g>
     <g id="text_2">
      <!-- −1.5 -->
      <defs>
       <path d="M 12.40625 8.296875 
L 28.515625 8.296875 
L 28.515625 63.921875 
L 10.984375 60.40625 
L 10.984375 69.390625 
L 28.421875 72.90625 
L 38.28125 72.90625 
L 38.28125 8.296875 
L 54.390625 8.296875 
L 54.390625 0 
L 12.40625 0 
z
" id="DejaVuSans-31"/>
       <path d="M 10.796875 72.90625 
L 49.515625 72.90625 
L 49.515625 64.59375 
L 19.828125 64.59375 
L 19.828125 46.734375 
Q 21.96875 47.46875 24.109375 47.828125 
Q 26.265625 48.1875 28.421875 48.1875 
Q 40.625 48.1875 47.75 41.5 
Q 54.890625 34.8125 54.890625 23.390625 
Q 54.890625 11.625 47.5625 5.09375 
Q 40.234375 -1.421875 26.90625 -1.421875 
Q 22.3125 -1.421875 17.546875 -0.640625 
Q 12.796875 0.140625 7.71875 1.703125 
L 7.71875 11.625 
Q 12.109375 9.234375 16.796875 8.0625 
Q 21.484375 6.890625 26.703125 6.890625 
Q 35.15625 6.890625 40.078125 11.328125 
Q 45.015625 15.765625 45.015625 23.390625 
Q 45.015625 31 40.078125 35.4375 
Q 35.15625 39.890625 26.703125 39.890625 
Q 22.75 39.890625 18.8125 39.015625 
Q 14.890625 38.140625 10.796875 36.28125 
z
" id="DejaVuSans-35"/>
      </defs>
      <g transform="translate(179.558594 392.598437)scale(0.1 -0.1)">
       <use xlink:href="#DejaVuSans-2212"/>
       <use x="83.789062" xlink:href="#DejaVuSans-31"/>
       <use x="147.412109" xlink:href="#DejaVuSans-2e"/>
       <use x="179.199219" xlink:href="#DejaVuSans-35"/>
      </g>
     </g>
    </g>
    <g id="xtick_3">
     <g id="line2d_3">
      <g>
       <use style="stroke:#000000;stroke-width:0.8;" x="275.4" xlink:href="#m6ef893a057" y="378"/>
      </g>
     </g>
     <g id="text_3">
      <!-- −1.0 -->
      <g transform="translate(263.258594 392.598437)scale(0.1 -0.1)">
       <use xlink:href="#DejaVuSans-2212"/>
       <use x="83.789062" xlink:href="#DejaVuSans-31"/>
       <use x="147.412109" xlink:href="#DejaVuSans-2e"/>
       <use x="179.199219" xlink:href="#DejaVuSans-30"/>
      </g>
     </g>
    </g>
    <g id="xtick_4">
     <g id="line2d_4">
      <g>
       <use style="stroke:#000000;stroke-width:0.8;" x="359.1" xlink:href="#m6ef893a057" y="378"/>
      </g>
     </g>
     <g id="text_4">
      <!-- −0.5 -->
      <g transform="translate(346.958594 392.598437)scale(0.1 -0.1)">
       <use xlink:href="#DejaVuSans-2212"/>
       <use x="83.789062" xlink:href="#DejaVuSans-30"/>
       <use x="147.412109" xlink:href="#DejaVuSans-2e"/>
       <use x="179.199219" xlink:href="#DejaVuSans-35"/>
      </g>
     </g>
    </g>
    <g id="xtick_5">
     <g id="line2d_5">
      <g>
       <use style="stroke:#000000;stroke-width:0.8;" x="442.8" xlink:href="#m6ef893a057" y="378"/>
      </g>
     </g>
     <g id="text_5">
      <!-- 0.0 -->
      <g transform="translate(434.848437 392.598437)scale(0.1 -0.1)">
       <use xlink:href="#DejaVuSans-30"/>
       <use x="63.623047" xlink:href="#DejaVuSans-2e"/>
       <use x="95.410156" xlink:href="#DejaVuSans-30"/>
      </g>
     </g>
    </g>
    <g id="xtick_6">
     <g id="line2d_6">
      <g>
       <use style="stroke:#000000;stroke-width:0.8;" x="526.5" xlink:href="#m6ef893a057" y="378"/>
      </g>
     </g>
     <g id="text_6">
      <!-- 0.5 -->
      <g transform="translate(518.548437 392.598437)scale(0.1 -0.1)">
       <use xlink:href="#DejaVuSans-30"/>
       <use x="63.623047" xlink:href="#DejaVuSans-2e"/>
       <use x="95.410156" xlink:href="#DejaVuSans-35"/>
      </g>
     </g>
    </g>
    <g id="xtick_7">
     <g id="line2d_7">
      <g>
       <use style="stroke:#000000;stroke-width:0.8;" x="610.2" xlink:href="#m6ef893a057" y="378"/>
      </g>
     </g>
     <g id="text_7">
      <!-- 1.0 -->
      <g transform="translate(602.248438 392.598437)scale(0.1 -0.1)">
       <use xlink:href="#DejaVuSans-31"/>
       <use x="63.623047" xlink:href="#DejaVuSans-2e"/>
       <use x="95.410156" xlink:href="#DejaVuSans-30"/>
      </g>
     </g>
    </g>
    <g id="xtick_8">
     <g id="line2d_8">
      <g>
       <use style="stroke:#000000;stroke-width:0.8;" x="693.9" xlink:href="#m6ef893a057" y="378"/>
      </g>
     </g>
     <g id="text_8">
      <!-- 1.5 -->
      <g transform="translate(685.948438 392.598437)scale(0.1 -0.1)">
       <use xlink:href="#DejaVuSans-31"/>
       <use x="63.623047" xlink:href="#DejaVuSans-2e"/>
       <use x="95.410156" xlink:href="#DejaVuSans-35"/>
      </g>
     </g>
    </g>
    <g id="xtick_9">
     <g id="line2d_9">
      <g>
       <use style="stroke:#000000;stroke-width:0.8;" x="777.6" xlink:href="#m6ef893a057" y="378"/>
      </g>
     </g>
     <g id="text_9">
      <!-- 2.0 -->
      <g transform="translate(769.648438 392.598437)scale(0.1 -0.1)">
       <use xlink:href="#DejaVuSans-32"/>
       <use x="63.623047" xlink:href="#DejaVuSans-2e"/>
       <use x="95.410156" xlink:href="#DejaVuSans-30"/>
      </g>
     </g>
    </g>
    <g id="text_10">
     <!-- $x$ -->
     <defs>
      <path d="M 60.015625 54.6875 
L 34.90625 27.875 
L 50.296875 0 
L 39.984375 0 
L 28.421875 21.6875 
L 8.296875 0 
L -2.59375 0 
L 24.3125 28.8125 
L 10.015625 54.6875 
L 20.3125 54.6875 
L 30.8125 34.90625 
L 49.125 54.6875 
z
" id="DejaVuSans-Oblique-78"/>
     </defs>
     <g transform="translate(436.8 413.875)scale(0.2 -0.2)">
      <use transform="translate(0 0.3125)" xlink:href="#DejaVuSans-Oblique-78"/>
     </g>
    </g>
   </g>
   <g id="matplotlib.axis_2">
    <g id="ytick_1">
     <g id="line2d_10">
      <defs>
       <path d="M 0 0 
L -3.5 0 
" id="m26faf339be" style="stroke:#000000;stroke-width:0.8;"/>
      </defs>
      <g>
       <use style="stroke:#000000;stroke-width:0.8;" x="108" xlink:href="#m26faf339be" y="363.174545"/>
      </g>
     </g>
     <g id="text_11">
      <!-- −0.50 -->
      <g transform="translate(70.354687 366.973764)scale(0.1 -0.1)">
       <use xlink:href="#DejaVuSans-2212"/>
       <use x="83.789062" xlink:href="#DejaVuSans-30"/>
       <use x="147.412109" xlink:href="#DejaVuSans-2e"/>
       <use x="179.199219" xlink:href="#DejaVuSans-35"/>
       <use x="242.822266" xlink:href="#DejaVuSans-30"/>
      </g>
     </g>
    </g>
    <g id="ytick_2">
     <g id="line2d_11">
      <g>
       <use style="stroke:#000000;stroke-width:0.8;" x="108" xlink:href="#m26faf339be" y="326.110909"/>
      </g>
     </g>
     <g id="text_12">
      <!-- −0.25 -->
      <g transform="translate(70.354687 329.910128)scale(0.1 -0.1)">
       <use xlink:href="#DejaVuSans-2212"/>
       <use x="83.789062" xlink:href="#DejaVuSans-30"/>
       <use x="147.412109" xlink:href="#DejaVuSans-2e"/>
       <use x="179.199219" xlink:href="#DejaVuSans-32"/>
       <use x="242.822266" xlink:href="#DejaVuSans-35"/>
      </g>
     </g>
    </g>
    <g id="ytick_3">
     <g id="line2d_12">
      <g>
       <use style="stroke:#000000;stroke-width:0.8;" x="108" xlink:href="#m26faf339be" y="289.047273"/>
      </g>
     </g>
     <g id="text_13">
      <!-- 0.00 -->
      <g transform="translate(78.734375 292.846491)scale(0.1 -0.1)">
       <use xlink:href="#DejaVuSans-30"/>
       <use x="63.623047" xlink:href="#DejaVuSans-2e"/>
       <use x="95.410156" xlink:href="#DejaVuSans-30"/>
       <use x="159.033203" xlink:href="#DejaVuSans-30"/>
      </g>
     </g>
    </g>
    <g id="ytick_4">
     <g id="line2d_13">
      <g>
       <use style="stroke:#000000;stroke-width:0.8;" x="108" xlink:href="#m26faf339be" y="251.983636"/>
      </g>
     </g>
     <g id="text_14">
      <!-- 0.25 -->
      <g transform="translate(78.734375 255.782855)scale(0.1 -0.1)">
       <use xlink:href="#DejaVuSans-30"/>
       <use x="63.623047" xlink:href="#DejaVuSans-2e"/>
       <use x="95.410156" xlink:href="#DejaVuSans-32"/>
       <use x="159.033203" xlink:href="#DejaVuSans-35"/>
      </g>
     </g>
    </g>
    <g id="ytick_5">
     <g id="line2d_14">
      <g>
       <use style="stroke:#000000;stroke-width:0.8;" x="108" xlink:href="#m26faf339be" y="214.92"/>
      </g>
     </g>
     <g id="text_15">
      <!-- 0.50 -->
      <g transform="translate(78.734375 218.719219)scale(0.1 -0.1)">
       <use xlink:href="#DejaVuSans-30"/>
       <use x="63.623047" xlink:href="#DejaVuSans-2e"/>
       <use x="95.410156" xlink:href="#DejaVuSans-35"/>
       <use x="159.033203" xlink:href="#DejaVuSans-30"/>
      </g>
     </g>
    </g>
    <g id="ytick_6">
     <g id="line2d_15">
      <g>
       <use style="stroke:#000000;stroke-width:0.8;" x="108" xlink:href="#m26faf339be" y="177.856364"/>
      </g>
     </g>
     <g id="text_16">
      <!-- 0.75 -->
      <defs>
       <path d="M 8.203125 72.90625 
L 55.078125 72.90625 
L 55.078125 68.703125 
L 28.609375 0 
L 18.3125 0 
L 43.21875 64.59375 
L 8.203125 64.59375 
z
" id="DejaVuSans-37"/>
      </defs>
      <g transform="translate(78.734375 181.655582)scale(0.1 -0.1)">
       <use xlink:href="#DejaVuSans-30"/>
       <use x="63.623047" xlink:href="#DejaVuSans-2e"/>
       <use x="95.410156" xlink:href="#DejaVuSans-37"/>
       <use x="159.033203" xlink:href="#DejaVuSans-35"/>
      </g>
     </g>
    </g>
    <g id="ytick_7">
     <g id="line2d_16">
      <g>
       <use style="stroke:#000000;stroke-width:0.8;" x="108" xlink:href="#m26faf339be" y="140.792727"/>
      </g>
     </g>
     <g id="text_17">
      <!-- 1.00 -->
      <g transform="translate(78.734375 144.591946)scale(0.1 -0.1)">
       <use xlink:href="#DejaVuSans-31"/>
       <use x="63.623047" xlink:href="#DejaVuSans-2e"/>
       <use x="95.410156" xlink:href="#DejaVuSans-30"/>
       <use x="159.033203" xlink:href="#DejaVuSans-30"/>
      </g>
     </g>
    </g>
    <g id="ytick_8">
     <g id="line2d_17">
      <g>
       <use style="stroke:#000000;stroke-width:0.8;" x="108" xlink:href="#m26faf339be" y="103.729091"/>
      </g>
     </g>
     <g id="text_18">
      <!-- 1.25 -->
      <g transform="translate(78.734375 107.52831)scale(0.1 -0.1)">
       <use xlink:href="#DejaVuSans-31"/>
       <use x="63.623047" xlink:href="#DejaVuSans-2e"/>
       <use x="95.410156" xlink:href="#DejaVuSans-32"/>
       <use x="159.033203" xlink:href="#DejaVuSans-35"/>
      </g>
     </g>
    </g>
    <g id="ytick_9">
     <g id="line2d_18">
      <g>
       <use style="stroke:#000000;stroke-width:0.8;" x="108" xlink:href="#m26faf339be" y="66.665455"/>
      </g>
     </g>
     <g id="text_19">
      <!-- 1.50 -->
      <g transform="translate(78.734375 70.464673)scale(0.1 -0.1)">
       <use xlink:href="#DejaVuSans-31"/>
       <use x="63.623047" xlink:href="#DejaVuSans-2e"/>
       <use x="95.410156" xlink:href="#DejaVuSans-35"/>
       <use x="159.033203" xlink:href="#DejaVuSans-30"/>
      </g>
     </g>
    </g>
    <g id="text_20">
     <!-- $y$ -->
     <defs>
      <path d="M 24.8125 -5.078125 
Q 18.5625 -15.578125 14.625 -18.1875 
Q 10.6875 -20.796875 4.59375 -20.796875 
L -2.484375 -20.796875 
L -0.984375 -13.28125 
L 4.203125 -13.28125 
Q 7.953125 -13.28125 10.59375 -11.234375 
Q 13.234375 -9.1875 16.5 -3.21875 
L 19.28125 2 
L 7.171875 54.6875 
L 16.703125 54.6875 
L 25.78125 12.796875 
L 50.875 54.6875 
L 60.296875 54.6875 
z
" id="DejaVuSans-Oblique-79"/>
     </defs>
     <g transform="translate(62.154687 220.92)rotate(-90)scale(0.2 -0.2)">
      <use transform="translate(0 0.3125)" xlink:href="#DejaVuSans-Oblique-79"/>
     </g>
    </g>
   </g>
   <g id="line2d_19">
    <defs>
     <path d="M 0 2.5 
C 0.663008 2.5 1.29895 2.236584 1.767767 1.767767 
C 2.236584 1.29895 2.5 0.663008 2.5 0 
C 2.5 -0.663008 2.236584 -1.29895 1.767767 -1.767767 
C 1.29895 -2.236584 0.663008 -2.5 0 -2.5 
C -0.663008 -2.5 -1.29895 -2.236584 -1.767767 -1.767767 
C -2.236584 -1.29895 -2.5 -0.663008 -2.5 0 
C -2.5 0.663008 -2.236584 1.29895 -1.767767 1.767767 
C -1.29895 2.236584 -0.663008 2.5 0 2.5 
z
" id="mbfef2b0b7e" style="stroke:#ff0000;"/>
    </defs>
    <g clip-path="url(#pdf890ff895)">
     <use style="fill:#ff0000;stroke:#ff0000;" x="275.4" xlink:href="#mbfef2b0b7e" y="289.047273"/>
     <use style="fill:#ff0000;stroke:#ff0000;" x="282.72375" xlink:href="#mbfef2b0b7e" y="289.047273"/>
     <use style="fill:#ff0000;stroke:#ff0000;" x="290.0475" xlink:href="#mbfef2b0b7e" y="289.047273"/>
     <use style="fill:#ff0000;stroke:#ff0000;" x="297.37125" xlink:href="#mbfef2b0b7e" y="289.047273"/>
     <use style="fill:#ff0000;stroke:#ff0000;" x="304.695" xlink:href="#mbfef2b0b7e" y="289.047273"/>
     <use style="fill:#ff0000;stroke:#ff0000;" x="312.01875" xlink:href="#mbfef2b0b7e" y="289.047273"/>
     <use style="fill:#ff0000;stroke:#ff0000;" x="319.3425" xlink:href="#mbfef2b0b7e" y="289.047273"/>
     <use style="fill:#ff0000;stroke:#ff0000;" x="326.66625" xlink:href="#mbfef2b0b7e" y="289.047273"/>
     <use style="fill:#ff0000;stroke:#ff0000;" x="333.99" xlink:href="#mbfef2b0b7e" y="289.047273"/>
     <use style="fill:#ff0000;stroke:#ff0000;" x="341.31375" xlink:href="#mbfef2b0b7e" y="289.047273"/>
     <use style="fill:#ff0000;stroke:#ff0000;" x="348.6375" xlink:href="#mbfef2b0b7e" y="289.047273"/>
     <use style="fill:#ff0000;stroke:#ff0000;" x="355.96125" xlink:href="#mbfef2b0b7e" y="289.047273"/>
     <use style="fill:#ff0000;stroke:#ff0000;" x="363.285" xlink:href="#mbfef2b0b7e" y="289.047273"/>
     <use style="fill:#ff0000;stroke:#ff0000;" x="370.60875" xlink:href="#mbfef2b0b7e" y="289.047273"/>
     <use style="fill:#ff0000;stroke:#ff0000;" x="377.9325" xlink:href="#mbfef2b0b7e" y="289.047273"/>
     <use style="fill:#ff0000;stroke:#ff0000;" x="385.25625" xlink:href="#mbfef2b0b7e" y="289.047273"/>
     <use style="fill:#ff0000;stroke:#ff0000;" x="392.58" xlink:href="#mbfef2b0b7e" y="289.047273"/>
     <use style="fill:#ff0000;stroke:#ff0000;" x="399.90375" xlink:href="#mbfef2b0b7e" y="289.047273"/>
     <use style="fill:#ff0000;stroke:#ff0000;" x="407.2275" xlink:href="#mbfef2b0b7e" y="289.047273"/>
     <use style="fill:#ff0000;stroke:#ff0000;" x="414.55125" xlink:href="#mbfef2b0b7e" y="289.047273"/>
     <use style="fill:#ff0000;stroke:#ff0000;" x="421.875" xlink:href="#mbfef2b0b7e" y="289.047273"/>
     <use style="fill:#ff0000;stroke:#ff0000;" x="429.19875" xlink:href="#mbfef2b0b7e" y="289.047273"/>
     <use style="fill:#ff0000;stroke:#ff0000;" x="436.5225" xlink:href="#mbfef2b0b7e" y="289.047273"/>
     <use style="fill:#ff0000;stroke:#ff0000;" x="443.84625" xlink:href="#mbfef2b0b7e" y="289.047273"/>
     <use style="fill:#ff0000;stroke:#ff0000;" x="451.17" xlink:href="#mbfef2b0b7e" y="289.047273"/>
     <use style="fill:#ff0000;stroke:#ff0000;" x="434.43" xlink:href="#mbfef2b0b7e" y="140.792727"/>
     <use style="fill:#ff0000;stroke:#ff0000;" x="441.75375" xlink:href="#mbfef2b0b7e" y="140.792727"/>
     <use style="fill:#ff0000;stroke:#ff0000;" x="449.0775" xlink:href="#mbfef2b0b7e" y="140.792727"/>
     <use style="fill:#ff0000;stroke:#ff0000;" x="456.40125" xlink:href="#mbfef2b0b7e" y="140.792727"/>
     <use style="fill:#ff0000;stroke:#ff0000;" x="463.725" xlink:href="#mbfef2b0b7e" y="140.792727"/>
     <use style="fill:#ff0000;stroke:#ff0000;" x="471.04875" xlink:href="#mbfef2b0b7e" y="140.792727"/>
     <use style="fill:#ff0000;stroke:#ff0000;" x="478.3725" xlink:href="#mbfef2b0b7e" y="140.792727"/>
     <use style="fill:#ff0000;stroke:#ff0000;" x="485.69625" xlink:href="#mbfef2b0b7e" y="140.792727"/>
     <use style="fill:#ff0000;stroke:#ff0000;" x="493.02" xlink:href="#mbfef2b0b7e" y="140.792727"/>
     <use style="fill:#ff0000;stroke:#ff0000;" x="500.34375" xlink:href="#mbfef2b0b7e" y="140.792727"/>
     <use style="fill:#ff0000;stroke:#ff0000;" x="507.6675" xlink:href="#mbfef2b0b7e" y="140.792727"/>
     <use style="fill:#ff0000;stroke:#ff0000;" x="514.99125" xlink:href="#mbfef2b0b7e" y="140.792727"/>
     <use style="fill:#ff0000;stroke:#ff0000;" x="522.315" xlink:href="#mbfef2b0b7e" y="140.792727"/>
     <use style="fill:#ff0000;stroke:#ff0000;" x="529.63875" xlink:href="#mbfef2b0b7e" y="140.792727"/>
     <use style="fill:#ff0000;stroke:#ff0000;" x="536.9625" xlink:href="#mbfef2b0b7e" y="140.792727"/>
     <use style="fill:#ff0000;stroke:#ff0000;" x="544.28625" xlink:href="#mbfef2b0b7e" y="140.792727"/>
     <use style="fill:#ff0000;stroke:#ff0000;" x="551.61" xlink:href="#mbfef2b0b7e" y="140.792727"/>
     <use style="fill:#ff0000;stroke:#ff0000;" x="558.93375" xlink:href="#mbfef2b0b7e" y="140.792727"/>
     <use style="fill:#ff0000;stroke:#ff0000;" x="566.2575" xlink:href="#mbfef2b0b7e" y="140.792727"/>
     <use style="fill:#ff0000;stroke:#ff0000;" x="573.58125" xlink:href="#mbfef2b0b7e" y="140.792727"/>
     <use style="fill:#ff0000;stroke:#ff0000;" x="580.905" xlink:href="#mbfef2b0b7e" y="140.792727"/>
     <use style="fill:#ff0000;stroke:#ff0000;" x="588.22875" xlink:href="#mbfef2b0b7e" y="140.792727"/>
     <use style="fill:#ff0000;stroke:#ff0000;" x="595.5525" xlink:href="#mbfef2b0b7e" y="140.792727"/>
     <use style="fill:#ff0000;stroke:#ff0000;" x="602.87625" xlink:href="#mbfef2b0b7e" y="140.792727"/>
     <use style="fill:#ff0000;stroke:#ff0000;" x="610.2" xlink:href="#mbfef2b0b7e" y="140.792727"/>
    </g>
   </g>
   <g id="line2d_20">
    <path clip-path="url(#pdf890ff895)" d="M 108 218.946391 
L 118.094472 219.847843 
L 128.188945 220.938174 
L 138.283417 222.267365 
L 145.013065 223.319108 
L 151.742714 224.5335 
L 158.472362 225.943741 
L 165.20201 227.591671 
L 171.931658 229.530361 
L 178.661307 231.82751 
L 182.026131 233.13669 
L 185.390955 234.569679 
L 188.755779 236.141019 
L 192.120603 237.866981 
L 195.485427 239.765592 
L 198.850251 241.856521 
L 202.215075 244.160693 
L 205.579899 246.699477 
L 208.944724 249.493157 
L 212.309548 252.558297 
L 215.674372 255.903465 
L 219.039196 259.522683 
L 222.40402 263.386092 
L 232.498492 275.541567 
L 235.863317 279.236695 
L 239.228141 282.406787 
L 242.592965 284.894608 
L 245.957789 286.656731 
L 249.322613 287.77557 
L 252.687437 288.413955 
L 256.052261 288.745445 
L 262.78191 288.979483 
L 279.60603 289.042042 
L 404.104523 289.004575 
L 407.469347 288.923182 
L 410.834171 288.650444 
L 414.198995 287.787331 
L 417.563819 285.461259 
L 420.928643 280.536461 
L 424.293467 272.571169 
L 427.658291 262.393336 
L 434.38794 240.419644 
L 437.752764 229.952274 
L 451.21206 189.510801 
L 457.941709 167.536786 
L 461.306533 157.345339 
L 464.671357 149.356046 
L 468.036181 144.406121 
L 471.401005 142.063489 
L 474.765829 141.193004 
L 478.130653 140.917794 
L 484.860302 140.810256 
L 531.967839 140.795425 
L 622.81809 140.856311 
L 629.547739 141.07484 
L 632.912563 141.386012 
L 636.277387 141.989348 
L 639.642211 143.05564 
L 643.007035 144.750473 
L 646.371859 147.165312 
L 649.736683 150.268524 
L 653.101508 153.912106 
L 659.831156 161.978508 
L 666.560804 169.892878 
L 669.925628 173.527517 
L 673.290452 176.89137 
L 676.655276 179.976541 
L 680.020101 182.790373 
L 683.384925 185.348694 
L 686.749749 187.67138 
L 690.114573 189.779604 
L 693.479397 191.694228 
L 696.844221 193.434934 
L 700.209045 195.019805 
L 703.573869 196.465194 
L 710.303518 198.994431 
L 717.033166 201.121109 
L 723.762814 202.922408 
L 730.492462 204.458756 
L 737.222111 205.777659 
L 743.951759 206.916696 
L 754.046231 208.35178 
L 764.140704 209.525307 
L 774.235176 210.493267 
L 777.6 210.777673 
L 777.6 210.777673 
" style="fill:none;stroke:#3300ff;stroke-linecap:square;stroke-width:2;"/>
   </g>
   <g id="line2d_21">
    <path clip-path="url(#pdf890ff895)" d="M 108 98.889348 
L 118.094472 99.9284 
L 128.188945 101.221686 
L 134.918593 102.264707 
L 141.648241 103.490058 
L 148.377889 104.940872 
L 155.107538 106.67375 
L 161.837186 108.763878 
L 165.20201 109.973256 
L 168.566834 111.312476 
L 171.931658 112.800057 
L 175.296482 114.457796 
L 178.661307 116.311437 
L 182.026131 118.391495 
L 185.390955 120.734251 
L 188.755779 123.382944 
L 192.120603 126.389192 
L 195.485427 129.814629 
L 198.850251 133.732719 
L 202.215075 138.230616 
L 205.579899 143.410781 
L 208.944724 149.39174 
L 212.309548 156.306851 
L 215.674372 164.299048 
L 219.039196 173.508116 
L 222.40402 184.045277 
L 225.768844 195.948365 
L 229.133668 209.112626 
L 239.228141 251.311088 
L 242.592965 263.351704 
L 245.957789 272.879607 
L 249.322613 279.613975 
L 252.687437 283.868411 
L 256.052261 286.302791 
L 259.417085 287.595021 
L 262.78191 288.250783 
L 266.146734 288.578775 
L 272.876382 288.831296 
L 286.335678 288.930607 
L 350.267337 288.939824 
L 397.374874 288.859433 
L 400.739698 288.757111 
L 404.104523 288.493269 
L 407.469347 287.750722 
L 410.834171 285.595274 
L 414.198995 279.735435 
L 417.563819 266.426309 
L 420.928643 243.281419 
L 427.658291 181.884425 
L 431.023116 154.376787 
L 434.38794 132.06855 
L 437.752764 114.682094 
L 441.117588 101.395559 
L 444.482412 91.496886 
L 447.847236 84.663694 
L 451.21206 81.086483 
L 454.576884 81.486387 
L 457.941709 86.874175 
L 461.306533 97.646953 
L 464.671357 111.934314 
L 468.036181 125.257518 
L 471.401005 133.955644 
L 474.765829 138.116664 
L 478.130653 139.738514 
L 481.495477 140.322372 
L 484.860302 140.537011 
L 491.58995 140.659775 
L 518.508543 140.695575 
L 612.723618 140.603694 
L 619.453266 140.408813 
L 622.81809 140.163331 
L 626.182915 139.684843 
L 629.547739 138.766645 
L 632.912563 137.08457 
L 636.277387 134.234779 
L 639.642211 129.888446 
L 643.007035 124.02148 
L 646.371859 117.04092 
L 649.736683 109.663195 
L 653.101508 102.627442 
L 656.466332 96.460264 
L 659.831156 91.406107 
L 663.19598 87.483584 
L 666.560804 84.580113 
L 669.925628 82.530165 
L 673.290452 81.162957 
L 676.655276 80.325357 
L 680.020101 79.889671 
L 683.384925 79.753761 
L 686.749749 79.837964 
L 690.114573 80.081126 
L 696.844221 80.869863 
L 706.938693 82.4022 
L 723.762814 85.026727 
L 737.222111 86.864649 
L 750.681407 88.410863 
L 764.140704 89.6889 
L 777.6 90.737567 
L 777.6 90.737567 
" style="fill:none;stroke:#3300ff;stroke-linecap:square;stroke-width:0.2;"/>
   </g>
   <g id="line2d_22">
    <path clip-path="url(#pdf890ff895)" d="M 108 339.003435 
L 121.459296 340.048532 
L 134.918593 341.323258 
L 148.377889 342.867277 
L 161.837186 344.706075 
L 175.296482 346.800633 
L 188.755779 348.899094 
L 195.485427 349.716555 
L 198.850251 349.980323 
L 202.215075 350.09077 
L 205.579899 349.988174 
L 208.944724 349.594575 
L 212.309548 348.809743 
L 215.674372 347.507883 
L 219.039196 345.537249 
L 222.40402 342.726908 
L 225.768844 338.907901 
L 229.133668 333.958495 
L 232.498492 327.880299 
L 235.863317 320.893818 
L 239.228141 313.502486 
L 242.592965 306.437511 
L 245.957789 300.433854 
L 249.322613 295.937164 
L 252.687437 292.959499 
L 256.052261 291.1881 
L 259.417085 290.216047 
L 262.78191 289.708184 
L 266.146734 289.447567 
L 272.876382 289.241159 
L 289.700503 289.151861 
L 390.645226 289.162321 
L 400.739698 289.302527 
L 404.104523 289.51588 
L 407.469347 290.095642 
L 410.834171 291.705615 
L 414.198995 295.839227 
L 417.563819 304.496208 
L 420.928643 317.791503 
L 424.293467 332.089852 
L 427.658291 342.902246 
L 431.023116 348.334128 
L 434.38794 348.770739 
L 437.752764 345.222454 
L 441.117588 338.414298 
L 444.482412 328.541264 
L 447.847236 315.284801 
L 451.21206 297.935119 
L 454.576884 275.668983 
L 457.941709 248.199397 
L 464.671357 186.777777 
L 468.036181 163.554725 
L 471.401005 150.171333 
L 474.765829 144.269345 
L 478.130653 142.097074 
L 481.495477 141.349016 
L 484.860302 141.083501 
L 491.58995 140.936369 
L 515.143719 140.894012 
L 612.723618 141.002923 
L 619.453266 141.240972 
L 622.81809 141.549291 
L 626.182915 142.165673 
L 629.547739 143.383036 
L 632.912563 145.687453 
L 636.277387 149.743918 
L 639.642211 156.222835 
L 643.007035 165.479465 
L 646.371859 177.289705 
L 649.736683 190.873853 
L 656.466332 219.311023 
L 659.831156 232.550908 
L 663.19598 244.556634 
L 666.560804 255.205644 
L 669.925628 264.524869 
L 673.290452 272.619784 
L 676.655276 279.627725 
L 680.020101 285.691075 
L 683.384925 290.943627 
L 686.749749 295.504796 
L 690.114573 299.478081 
L 693.479397 302.951676 
L 696.844221 306.000004 
L 700.209045 308.685552 
L 703.573869 311.06068 
L 706.938693 313.169264 
L 710.303518 315.048128 
L 713.668342 316.728244 
L 717.033166 318.235748 
L 720.39799 319.592763 
L 727.127638 321.927756 
L 733.857286 323.85307 
L 740.586935 325.457081 
L 747.316583 326.805874 
L 754.046231 327.949502 
L 764.140704 329.361714 
L 774.235176 330.49175 
L 777.6 330.817778 
L 777.6 330.817778 
" style="fill:none;stroke:#3300ff;stroke-linecap:square;stroke-width:0.2;"/>
   </g>
   <g id="patch_4">
    <path d="M 108 378 
L 108 51.84 
" style="fill:none;stroke:#000000;stroke-linecap:square;stroke-linejoin:miter;stroke-width:0.8;"/>
   </g>
   <g id="patch_5">
    <path d="M 777.6 378 
L 777.6 51.84 
" style="fill:none;stroke:#000000;stroke-linecap:square;stroke-linejoin:miter;stroke-width:0.8;"/>
   </g>
   <g id="patch_6">
    <path d="M 108 378 
L 777.6 378 
" style="fill:none;stroke:#000000;stroke-linecap:square;stroke-linejoin:miter;stroke-width:0.8;"/>
   </g>
   <g id="patch_7">
    <path d="M 108 51.84 
L 777.6 51.84 
" style="fill:none;stroke:#000000;stroke-linecap:square;stroke-linejoin:miter;stroke-width:0.8;"/>
   </g>
  </g>
 </g>
 <defs>
  <clipPath id="pdf890ff895">
   <rect height="326.16" width="669.6" x="108" y="51.84"/>
  </clipPath>
 </defs>
</svg>
