<?xml version="1.0" encoding="utf-8" standalone="no"?>
<!DOCTYPE svg PUBLIC "-//W3C//DTD SVG 1.1//EN"
  "http://www.w3.org/Graphics/SVG/1.1/DTD/svg11.dtd">
<!-- Created with matplotlib (http://matplotlib.org/) -->
<svg height="288pt" version="1.1" viewBox="0 0 432 288" width="432pt" xmlns="http://www.w3.org/2000/svg" xmlns:xlink="http://www.w3.org/1999/xlink">
 <defs>
  <style type="text/css">
*{stroke-linecap:butt;stroke-linejoin:round;}
  </style>
 </defs>
 <g id="figure_1">
  <g id="patch_1">
   <path d="M 0 288 
L 432 288 
L 432 0 
L 0 0 
z
" style="fill:none;"/>
  </g>
  <g id="axes_1">
   <g id="patch_2">
    <path d="M 54 252 
L 388.8 252 
L 388.8 34.56 
L 54 34.56 
z
" style="fill:none;"/>
   </g>
   <g id="patch_3">
    <path clip-path="url(#p256999e799)" d="M 54 98.604789 
L 55.682412 103.021841 
L 57.364824 107.578828 
L 59.047236 112.259265 
L 60.729648 117.044882 
L 62.41206 121.915788 
L 64.094472 126.85067 
L 65.776884 131.827023 
L 67.459296 136.82141 
L 69.141709 141.809747 
L 70.824121 146.767603 
L 72.506533 151.670528 
L 74.188945 156.494375 
L 75.871357 161.215632 
L 77.553769 165.811753 
L 79.236181 170.261472 
L 80.918593 174.545107 
L 82.601005 178.644829 
L 84.283417 182.544914 
L 85.965829 186.231953 
L 87.648241 189.695014 
L 89.330653 192.925778 
L 91.013065 195.918606 
L 92.695477 198.670569 
L 94.377889 201.181426 
L 96.060302 203.453546 
L 97.742714 205.491786 
L 99.425126 207.303322 
L 101.107538 208.897437 
L 102.78995 210.285272 
L 104.472362 211.479546 
L 106.154774 212.494257 
L 107.837186 213.344359 
L 109.519598 214.045435 
L 111.20201 214.613374 
L 112.884422 215.064053 
L 114.566834 215.413059 
L 116.249246 215.675447 
L 117.931658 215.8656 
L 119.61407 215.997199 
L 121.296482 216.083306 
L 122.978894 216.136356 
L 124.661307 216.167696 
L 126.343719 216.186672 
L 128.026131 216.199843 
L 129.708543 216.210994 
L 131.390955 216.221751 
L 133.073367 216.232441 
L 134.755779 216.242837 
L 136.438191 216.252703 
L 138.120603 216.261912 
L 139.803015 216.270361 
L 141.485427 216.277664 
L 143.167839 216.283268 
L 144.850251 216.286482 
L 146.532663 216.286833 
L 148.215075 216.284211 
L 149.897487 216.279217 
L 151.579899 216.272827 
L 153.262312 216.266246 
L 154.944724 216.260641 
L 156.627136 216.256768 
L 158.309548 216.255068 
L 159.99196 216.255574 
L 161.674372 216.258057 
L 163.356784 216.261648 
L 165.039196 216.264361 
L 166.721608 216.262084 
L 168.40402 216.247764 
L 170.086432 216.211154 
L 171.768844 216.139574 
L 173.451256 216.018947 
L 175.133668 215.834122 
L 176.81608 215.568725 
L 178.498492 215.205026 
L 180.180905 214.72406 
L 181.863317 214.105894 
L 183.545729 213.330011 
L 185.228141 212.375755 
L 186.910553 211.222817 
L 188.592965 209.851753 
L 190.275377 208.244512 
L 191.957789 206.384965 
L 193.640201 204.259418 
L 195.322613 201.85709 
L 197.005025 199.170549 
L 198.687437 196.196081 
L 200.369849 192.933992 
L 202.052261 189.38882 
L 203.734673 185.569453 
L 205.417085 181.489154 
L 207.099497 177.16547 
L 208.78191 172.620053 
L 210.464322 167.878368 
L 212.146734 162.969314 
L 213.829146 157.924752 
L 215.511558 152.778967 
L 217.19397 147.568058 
L 218.876382 142.329291 
L 220.558794 137.100421 
L 222.241206 131.918997 
L 223.923618 126.821681 
L 225.60603 121.843586 
L 227.288442 117.017659 
L 228.970854 112.374118 
L 230.653266 107.939961 
L 232.335678 103.738552 
L 234.01809 99.789311 
L 235.700503 96.107481 
L 237.382915 92.704016 
L 239.065327 89.585556 
L 240.747739 86.754505 
L 242.430151 84.209203 
L 244.112563 81.944181 
L 245.794975 79.950489 
L 247.477387 78.216093 
L 249.159799 76.726314 
L 250.842211 75.46431 
L 252.524623 74.411574 
L 254.207035 73.548437 
L 255.889447 72.854566 
L 257.571859 72.309442 
L 259.254271 71.892798 
L 260.936683 71.585017 
L 262.619095 71.36748 
L 264.301508 71.222847 
L 265.98392 71.135282 
L 267.666332 71.090613 
L 269.348744 71.076446 
L 271.031156 71.082271 
L 272.713568 71.099627 
L 274.39598 71.122398 
L 276.078392 71.146971 
L 277.760804 71.171677 
L 279.443216 71.195526 
L 281.125628 71.217288 
L 282.80804 71.235492 
L 284.490452 71.248958 
L 286.172864 71.257183 
L 287.855276 71.260491 
L 289.537688 71.259922 
L 291.220101 71.256845 
L 292.902513 71.252588 
L 294.584925 71.248238 
L 296.267337 71.244542 
L 297.949749 71.241917 
L 299.632161 71.24059 
L 301.314573 71.240509 
L 302.996985 71.241423 
L 304.679397 71.242662 
L 306.361809 71.243244 
L 308.044221 71.241797 
L 309.726633 71.236876 
L 311.409045 71.227173 
L 313.091457 71.211746 
L 314.773869 71.190025 
L 316.456281 71.161568 
L 318.138693 71.125656 
L 319.821106 71.080788 
L 321.503518 71.024393 
L 323.18593 70.953035 
L 324.868342 70.862998 
L 326.550754 70.750859 
L 328.233166 70.613698 
L 329.915578 70.449027 
L 331.59799 70.254634 
L 333.280402 70.028469 
L 334.962814 69.768583 
L 336.645226 69.473105 
L 338.327638 69.140242 
L 340.01005 68.768305 
L 341.692462 68.355726 
L 343.374874 67.901103 
L 345.057286 67.403233 
L 346.739698 66.861159 
L 348.422111 66.274215 
L 350.104523 65.642072 
L 351.786935 64.964784 
L 353.469347 64.24283 
L 355.151759 63.477152 
L 356.834171 62.669181 
L 358.516583 61.820864 
L 360.198995 60.934673 
L 361.881407 60.013608 
L 363.563819 59.061186 
L 365.246231 58.081417 
L 366.928643 57.078773 
L 368.611055 56.058138 
L 370.293467 55.024755 
L 371.975879 53.984155 
L 373.658291 52.942087 
L 375.340704 51.904434 
L 377.023116 50.877128 
L 378.705528 49.866058 
L 380.38794 48.876987 
L 382.070352 47.915461 
L 383.752764 46.986726 
L 385.435176 46.095648 
L 387.117588 45.246648 
L 388.8 44.443636 
L 388.8 185.392641 
L 387.117588 180.937382 
L 385.435176 176.351473 
L 383.752764 171.651822 
L 382.070352 166.857093 
L 380.38794 161.987545 
L 378.705528 157.064822 
L 377.023116 152.111719 
L 375.340704 147.151915 
L 373.658291 142.209672 
L 371.975879 137.309529 
L 370.293467 132.475961 
L 368.611055 127.733044 
L 366.928643 123.104105 
L 365.246231 118.61139 
L 363.563819 114.275726 
L 361.881407 110.116224 
L 360.198995 106.149986 
L 358.516583 102.391865 
L 356.834171 98.854251 
L 355.151759 95.546911 
L 353.469347 92.476873 
L 351.786935 89.648366 
L 350.104523 87.062811 
L 348.422111 84.718877 
L 346.739698 82.612578 
L 345.057286 80.737432 
L 343.374874 79.08467 
L 341.692462 77.643478 
L 340.01005 76.401287 
L 338.327638 75.344086 
L 336.645226 74.456759 
L 334.962814 73.723434 
L 333.280402 73.127826 
L 331.59799 72.653581 
L 329.915578 72.284588 
L 328.233166 72.005241 
L 326.550754 71.800647 
L 324.868342 71.656728 
L 323.18593 71.560261 
L 321.503518 71.498931 
L 319.821106 71.461629 
L 318.138693 71.439056 
L 316.456281 71.424279 
L 314.773869 71.412859 
L 313.091457 71.402442 
L 311.409045 71.392086 
L 309.726633 71.381652 
L 308.044221 71.371336 
L 306.361809 71.361435 
L 304.679397 71.352334 
L 302.996985 71.344475 
L 301.314573 71.338473 
L 299.632161 71.334844 
L 297.949749 71.333988 
L 296.267337 71.335873 
L 294.584925 71.3401 
L 292.902513 71.345847 
L 291.220101 71.352125 
L 289.537688 71.357957 
L 287.855276 71.362529 
L 286.172864 71.365284 
L 284.490452 71.365907 
L 282.80804 71.364326 
L 281.125628 71.361019 
L 279.443216 71.357585 
L 277.760804 71.357552 
L 276.078392 71.367299 
L 274.39598 71.3964 
L 272.713568 71.456996 
L 271.031156 71.562731 
L 269.348744 71.728309 
L 267.666332 71.969656 
L 265.98392 72.304105 
L 264.301508 72.750329 
L 262.619095 73.328085 
L 260.936683 74.057844 
L 259.254271 74.960355 
L 257.571859 76.056153 
L 255.889447 77.365044 
L 254.207035 78.905574 
L 252.524623 80.694487 
L 250.842211 82.746211 
L 249.159799 85.072362 
L 247.477387 87.681295 
L 245.794975 90.577723 
L 244.112563 93.762392 
L 242.430151 97.231854 
L 240.747739 100.978326 
L 239.065327 104.989645 
L 237.382915 109.249336 
L 235.700503 113.73677 
L 234.01809 118.427433 
L 232.335678 123.293285 
L 230.653266 128.303212 
L 228.970854 133.423547 
L 227.288442 138.618662 
L 225.60603 143.851603 
L 223.923618 149.084761 
L 222.241206 154.280556 
L 220.558794 159.402122 
L 218.876382 164.413964 
L 217.19397 169.282588 
L 215.511558 173.977072 
L 213.829146 178.469571 
L 212.146734 182.735752 
L 210.464322 186.755128 
L 208.78191 190.511309 
L 207.099497 193.992149 
L 205.417085 197.189797 
L 203.734673 200.100648 
L 202.052261 202.725199 
L 200.369849 205.067826 
L 198.687437 207.136472 
L 197.005025 208.942282 
L 195.322613 210.499176 
L 193.640201 211.823381 
L 191.957789 212.932947 
L 190.275377 213.847238 
L 188.592965 214.58644 
L 186.910553 215.171072 
L 185.228141 215.621538 
L 183.545729 215.95771 
L 181.863317 216.198563 
L 180.180905 216.36187 
L 178.498492 216.463952 
L 176.81608 216.519491 
L 175.133668 216.541398 
L 173.451256 216.540693 
L 171.768844 216.526349 
L 170.086432 216.505019 
L 168.40402 216.48086 
L 166.721608 216.455946 
L 165.039196 216.431471 
L 163.356784 216.40879 
L 161.674372 216.389487 
L 159.99196 216.374943 
L 158.309548 216.36574 
L 156.627136 216.361603 
L 154.944724 216.361445 
L 153.262312 216.36391 
L 151.579899 216.367641 
L 149.897487 216.371693 
L 148.215075 216.375419 
L 146.532663 216.378399 
L 144.850251 216.380421 
L 143.167839 216.381207 
L 141.485427 216.380757 
L 139.803015 216.379423 
L 138.120603 216.378146 
L 136.438191 216.378317 
L 134.755779 216.381686 
L 133.073367 216.389828 
L 131.390955 216.403817 
L 129.708543 216.424094 
L 128.026131 216.45079 
L 126.343719 216.484248 
L 124.661307 216.525711 
L 122.978894 216.57779 
L 121.296482 216.644385 
L 119.61407 216.729854 
L 117.931658 216.838106 
L 116.249246 216.972208 
L 114.566834 217.13449 
L 112.884422 217.326791 
L 111.20201 217.550646 
L 109.519598 217.80739 
L 107.837186 218.098204 
L 106.154774 218.424139 
L 104.472362 218.786116 
L 102.78995 219.184932 
L 101.107538 219.62125 
L 99.425126 220.095591 
L 97.742714 220.608317 
L 96.060302 221.159612 
L 94.377889 221.74946 
L 92.695477 222.377615 
L 91.013065 223.043577 
L 89.330653 223.746558 
L 87.648241 224.485457 
L 85.965829 225.258831 
L 84.283417 226.064874 
L 82.601005 226.901403 
L 80.918593 227.765842 
L 79.236181 228.655229 
L 77.553769 229.566215 
L 75.871357 230.495088 
L 74.188945 231.437796 
L 72.506533 232.389988 
L 70.824121 233.347055 
L 69.141709 234.304189 
L 67.459296 235.256445 
L 65.776884 236.198807 
L 64.094472 237.126261 
L 62.41206 238.033873 
L 60.729648 238.91686 
L 59.047236 239.770669 
L 57.364824 240.591046 
L 55.682412 241.374099 
L 54 242.116364 
z
" style="fill:#cc3300;opacity:0.3;stroke:#cc3300;stroke-linejoin:miter;stroke-width:0.5;"/>
   </g>
   <g id="matplotlib.axis_1">
    <g id="xtick_1">
     <g id="line2d_1">
      <defs>
       <path d="M 0 0 
L 0 3.5 
" id="m2be83a06a4" style="stroke:#000000;stroke-width:0.8;"/>
      </defs>
      <g>
       <use style="stroke:#000000;stroke-width:0.8;" x="104.823455" xlink:href="#m2be83a06a4" y="252"/>
      </g>
     </g>
     <g id="text_1">
      <!-- −1.0 -->
      <defs>
       <path d="M 10.59375 35.5 
L 73.1875 35.5 
L 73.1875 27.203125 
L 10.59375 27.203125 
z
" id="DejaVuSans-2212"/>
       <path d="M 12.40625 8.296875 
L 28.515625 8.296875 
L 28.515625 63.921875 
L 10.984375 60.40625 
L 10.984375 69.390625 
L 28.421875 72.90625 
L 38.28125 72.90625 
L 38.28125 8.296875 
L 54.390625 8.296875 
L 54.390625 0 
L 12.40625 0 
z
" id="DejaVuSans-31"/>
       <path d="M 10.6875 12.40625 
L 21 12.40625 
L 21 0 
L 10.6875 0 
z
" id="DejaVuSans-2e"/>
       <path d="M 31.78125 66.40625 
Q 24.171875 66.40625 20.328125 58.90625 
Q 16.5 51.421875 16.5 36.375 
Q 16.5 21.390625 20.328125 13.890625 
Q 24.171875 6.390625 31.78125 6.390625 
Q 39.453125 6.390625 43.28125 13.890625 
Q 47.125 21.390625 47.125 36.375 
Q 47.125 51.421875 43.28125 58.90625 
Q 39.453125 66.40625 31.78125 66.40625 
z
M 31.78125 74.21875 
Q 44.046875 74.21875 50.515625 64.515625 
Q 56.984375 54.828125 56.984375 36.375 
Q 56.984375 17.96875 50.515625 8.265625 
Q 44.046875 -1.421875 31.78125 -1.421875 
Q 19.53125 -1.421875 13.0625 8.265625 
Q 6.59375 17.96875 6.59375 36.375 
Q 6.59375 54.828125 13.0625 64.515625 
Q 19.53125 74.21875 31.78125 74.21875 
z
" id="DejaVuSans-30"/>
      </defs>
      <g transform="translate(92.682049 266.598437)scale(0.1 -0.1)">
       <use xlink:href="#DejaVuSans-2212"/>
       <use x="83.789062" xlink:href="#DejaVuSans-31"/>
       <use x="147.412109" xlink:href="#DejaVuSans-2e"/>
       <use x="179.199219" xlink:href="#DejaVuSans-30"/>
      </g>
     </g>
    </g>
    <g id="xtick_2">
     <g id="line2d_2">
      <g>
       <use style="stroke:#000000;stroke-width:0.8;" x="162.952745" xlink:href="#m2be83a06a4" y="252"/>
      </g>
     </g>
     <g id="text_2">
      <!-- −0.5 -->
      <defs>
       <path d="M 10.796875 72.90625 
L 49.515625 72.90625 
L 49.515625 64.59375 
L 19.828125 64.59375 
L 19.828125 46.734375 
Q 21.96875 47.46875 24.109375 47.828125 
Q 26.265625 48.1875 28.421875 48.1875 
Q 40.625 48.1875 47.75 41.5 
Q 54.890625 34.8125 54.890625 23.390625 
Q 54.890625 11.625 47.5625 5.09375 
Q 40.234375 -1.421875 26.90625 -1.421875 
Q 22.3125 -1.421875 17.546875 -0.640625 
Q 12.796875 0.140625 7.71875 1.703125 
L 7.71875 11.625 
Q 12.109375 9.234375 16.796875 8.0625 
Q 21.484375 6.890625 26.703125 6.890625 
Q 35.15625 6.890625 40.078125 11.328125 
Q 45.015625 15.765625 45.015625 23.390625 
Q 45.015625 31 40.078125 35.4375 
Q 35.15625 39.890625 26.703125 39.890625 
Q 22.75 39.890625 18.8125 39.015625 
Q 14.890625 38.140625 10.796875 36.28125 
z
" id="DejaVuSans-35"/>
      </defs>
      <g transform="translate(150.811338 266.598437)scale(0.1 -0.1)">
       <use xlink:href="#DejaVuSans-2212"/>
       <use x="83.789062" xlink:href="#DejaVuSans-30"/>
       <use x="147.412109" xlink:href="#DejaVuSans-2e"/>
       <use x="179.199219" xlink:href="#DejaVuSans-35"/>
      </g>
     </g>
    </g>
    <g id="xtick_3">
     <g id="line2d_3">
      <g>
       <use style="stroke:#000000;stroke-width:0.8;" x="221.082034" xlink:href="#m2be83a06a4" y="252"/>
      </g>
     </g>
     <g id="text_3">
      <!-- 0.0 -->
      <g transform="translate(213.130472 266.598437)scale(0.1 -0.1)">
       <use xlink:href="#DejaVuSans-30"/>
       <use x="63.623047" xlink:href="#DejaVuSans-2e"/>
       <use x="95.410156" xlink:href="#DejaVuSans-30"/>
      </g>
     </g>
    </g>
    <g id="xtick_4">
     <g id="line2d_4">
      <g>
       <use style="stroke:#000000;stroke-width:0.8;" x="279.211324" xlink:href="#m2be83a06a4" y="252"/>
      </g>
     </g>
     <g id="text_4">
      <!-- 0.5 -->
      <g transform="translate(271.259762 266.598437)scale(0.1 -0.1)">
       <use xlink:href="#DejaVuSans-30"/>
       <use x="63.623047" xlink:href="#DejaVuSans-2e"/>
       <use x="95.410156" xlink:href="#DejaVuSans-35"/>
      </g>
     </g>
    </g>
    <g id="xtick_5">
     <g id="line2d_5">
      <g>
       <use style="stroke:#000000;stroke-width:0.8;" x="337.340614" xlink:href="#m2be83a06a4" y="252"/>
      </g>
     </g>
     <g id="text_5">
      <!-- 1.0 -->
      <g transform="translate(329.389051 266.598437)scale(0.1 -0.1)">
       <use xlink:href="#DejaVuSans-31"/>
       <use x="63.623047" xlink:href="#DejaVuSans-2e"/>
       <use x="95.410156" xlink:href="#DejaVuSans-30"/>
      </g>
     </g>
    </g>
    <g id="text_6">
     <!-- layer 1 -->
     <defs>
      <path d="M 9.421875 75.984375 
L 18.40625 75.984375 
L 18.40625 0 
L 9.421875 0 
z
" id="DejaVuSans-6c"/>
      <path d="M 34.28125 27.484375 
Q 23.390625 27.484375 19.1875 25 
Q 14.984375 22.515625 14.984375 16.5 
Q 14.984375 11.71875 18.140625 8.90625 
Q 21.296875 6.109375 26.703125 6.109375 
Q 34.1875 6.109375 38.703125 11.40625 
Q 43.21875 16.703125 43.21875 25.484375 
L 43.21875 27.484375 
z
M 52.203125 31.203125 
L 52.203125 0 
L 43.21875 0 
L 43.21875 8.296875 
Q 40.140625 3.328125 35.546875 0.953125 
Q 30.953125 -1.421875 24.3125 -1.421875 
Q 15.921875 -1.421875 10.953125 3.296875 
Q 6 8.015625 6 15.921875 
Q 6 25.140625 12.171875 29.828125 
Q 18.359375 34.515625 30.609375 34.515625 
L 43.21875 34.515625 
L 43.21875 35.40625 
Q 43.21875 41.609375 39.140625 45 
Q 35.0625 48.390625 27.6875 48.390625 
Q 23 48.390625 18.546875 47.265625 
Q 14.109375 46.140625 10.015625 43.890625 
L 10.015625 52.203125 
Q 14.9375 54.109375 19.578125 55.046875 
Q 24.21875 56 28.609375 56 
Q 40.484375 56 46.34375 49.84375 
Q 52.203125 43.703125 52.203125 31.203125 
z
" id="DejaVuSans-61"/>
      <path d="M 32.171875 -5.078125 
Q 28.375 -14.84375 24.75 -17.8125 
Q 21.140625 -20.796875 15.09375 -20.796875 
L 7.90625 -20.796875 
L 7.90625 -13.28125 
L 13.1875 -13.28125 
Q 16.890625 -13.28125 18.9375 -11.515625 
Q 21 -9.765625 23.484375 -3.21875 
L 25.09375 0.875 
L 2.984375 54.6875 
L 12.5 54.6875 
L 29.59375 11.921875 
L 46.6875 54.6875 
L 56.203125 54.6875 
z
" id="DejaVuSans-79"/>
      <path d="M 56.203125 29.59375 
L 56.203125 25.203125 
L 14.890625 25.203125 
Q 15.484375 15.921875 20.484375 11.0625 
Q 25.484375 6.203125 34.421875 6.203125 
Q 39.59375 6.203125 44.453125 7.46875 
Q 49.3125 8.734375 54.109375 11.28125 
L 54.109375 2.78125 
Q 49.265625 0.734375 44.1875 -0.34375 
Q 39.109375 -1.421875 33.890625 -1.421875 
Q 20.796875 -1.421875 13.15625 6.1875 
Q 5.515625 13.8125 5.515625 26.8125 
Q 5.515625 40.234375 12.765625 48.109375 
Q 20.015625 56 32.328125 56 
Q 43.359375 56 49.78125 48.890625 
Q 56.203125 41.796875 56.203125 29.59375 
z
M 47.21875 32.234375 
Q 47.125 39.59375 43.09375 43.984375 
Q 39.0625 48.390625 32.421875 48.390625 
Q 24.90625 48.390625 20.390625 44.140625 
Q 15.875 39.890625 15.1875 32.171875 
z
" id="DejaVuSans-65"/>
      <path d="M 41.109375 46.296875 
Q 39.59375 47.171875 37.8125 47.578125 
Q 36.03125 48 33.890625 48 
Q 26.265625 48 22.1875 43.046875 
Q 18.109375 38.09375 18.109375 28.8125 
L 18.109375 0 
L 9.078125 0 
L 9.078125 54.6875 
L 18.109375 54.6875 
L 18.109375 46.1875 
Q 20.953125 51.171875 25.484375 53.578125 
Q 30.03125 56 36.53125 56 
Q 37.453125 56 38.578125 55.875 
Q 39.703125 55.765625 41.0625 55.515625 
z
" id="DejaVuSans-72"/>
      <path id="DejaVuSans-20"/>
     </defs>
     <g transform="translate(186.770312 287.875)scale(0.2 -0.2)">
      <use xlink:href="#DejaVuSans-6c"/>
      <use x="27.783203" xlink:href="#DejaVuSans-61"/>
      <use x="89.0625" xlink:href="#DejaVuSans-79"/>
      <use x="148.242188" xlink:href="#DejaVuSans-65"/>
      <use x="209.765625" xlink:href="#DejaVuSans-72"/>
      <use x="250.878906" xlink:href="#DejaVuSans-20"/>
      <use x="282.666016" xlink:href="#DejaVuSans-31"/>
     </g>
    </g>
   </g>
   <g id="matplotlib.axis_2">
    <g id="ytick_1">
     <g id="line2d_6">
      <defs>
       <path d="M 0 0 
L -3.5 0 
" id="mfb94e3de2e" style="stroke:#000000;stroke-width:0.8;"/>
      </defs>
      <g>
       <use style="stroke:#000000;stroke-width:0.8;" x="54" xlink:href="#mfb94e3de2e" y="245.329083"/>
      </g>
     </g>
     <g id="text_7">
      <!-- −0.2 -->
      <defs>
       <path d="M 19.1875 8.296875 
L 53.609375 8.296875 
L 53.609375 0 
L 7.328125 0 
L 7.328125 8.296875 
Q 12.9375 14.109375 22.625 23.890625 
Q 32.328125 33.6875 34.8125 36.53125 
Q 39.546875 41.84375 41.421875 45.53125 
Q 43.3125 49.21875 43.3125 52.78125 
Q 43.3125 58.59375 39.234375 62.25 
Q 35.15625 65.921875 28.609375 65.921875 
Q 23.96875 65.921875 18.8125 64.3125 
Q 13.671875 62.703125 7.8125 59.421875 
L 7.8125 69.390625 
Q 13.765625 71.78125 18.9375 73 
Q 24.125 74.21875 28.421875 74.21875 
Q 39.75 74.21875 46.484375 68.546875 
Q 53.21875 62.890625 53.21875 53.421875 
Q 53.21875 48.921875 51.53125 44.890625 
Q 49.859375 40.875 45.40625 35.40625 
Q 44.1875 33.984375 37.640625 27.21875 
Q 31.109375 20.453125 19.1875 8.296875 
z
" id="DejaVuSans-32"/>
      </defs>
      <g transform="translate(22.717187 249.128302)scale(0.1 -0.1)">
       <use xlink:href="#DejaVuSans-2212"/>
       <use x="83.789062" xlink:href="#DejaVuSans-30"/>
       <use x="147.412109" xlink:href="#DejaVuSans-2e"/>
       <use x="179.199219" xlink:href="#DejaVuSans-32"/>
      </g>
     </g>
    </g>
    <g id="ytick_2">
     <g id="line2d_7">
      <g>
       <use style="stroke:#000000;stroke-width:0.8;" x="54" xlink:href="#mfb94e3de2e" y="216.323773"/>
      </g>
     </g>
     <g id="text_8">
      <!-- 0.0 -->
      <g transform="translate(31.096875 220.122992)scale(0.1 -0.1)">
       <use xlink:href="#DejaVuSans-30"/>
       <use x="63.623047" xlink:href="#DejaVuSans-2e"/>
       <use x="95.410156" xlink:href="#DejaVuSans-30"/>
      </g>
     </g>
    </g>
    <g id="ytick_3">
     <g id="line2d_8">
      <g>
       <use style="stroke:#000000;stroke-width:0.8;" x="54" xlink:href="#mfb94e3de2e" y="187.318463"/>
      </g>
     </g>
     <g id="text_9">
      <!-- 0.2 -->
      <g transform="translate(31.096875 191.117682)scale(0.1 -0.1)">
       <use xlink:href="#DejaVuSans-30"/>
       <use x="63.623047" xlink:href="#DejaVuSans-2e"/>
       <use x="95.410156" xlink:href="#DejaVuSans-32"/>
      </g>
     </g>
    </g>
    <g id="ytick_4">
     <g id="line2d_9">
      <g>
       <use style="stroke:#000000;stroke-width:0.8;" x="54" xlink:href="#mfb94e3de2e" y="158.313153"/>
      </g>
     </g>
     <g id="text_10">
      <!-- 0.4 -->
      <defs>
       <path d="M 37.796875 64.3125 
L 12.890625 25.390625 
L 37.796875 25.390625 
z
M 35.203125 72.90625 
L 47.609375 72.90625 
L 47.609375 25.390625 
L 58.015625 25.390625 
L 58.015625 17.1875 
L 47.609375 17.1875 
L 47.609375 0 
L 37.796875 0 
L 37.796875 17.1875 
L 4.890625 17.1875 
L 4.890625 26.703125 
z
" id="DejaVuSans-34"/>
      </defs>
      <g transform="translate(31.096875 162.112372)scale(0.1 -0.1)">
       <use xlink:href="#DejaVuSans-30"/>
       <use x="63.623047" xlink:href="#DejaVuSans-2e"/>
       <use x="95.410156" xlink:href="#DejaVuSans-34"/>
      </g>
     </g>
    </g>
    <g id="ytick_5">
     <g id="line2d_10">
      <g>
       <use style="stroke:#000000;stroke-width:0.8;" x="54" xlink:href="#mfb94e3de2e" y="129.307843"/>
      </g>
     </g>
     <g id="text_11">
      <!-- 0.6 -->
      <defs>
       <path d="M 33.015625 40.375 
Q 26.375 40.375 22.484375 35.828125 
Q 18.609375 31.296875 18.609375 23.390625 
Q 18.609375 15.53125 22.484375 10.953125 
Q 26.375 6.390625 33.015625 6.390625 
Q 39.65625 6.390625 43.53125 10.953125 
Q 47.40625 15.53125 47.40625 23.390625 
Q 47.40625 31.296875 43.53125 35.828125 
Q 39.65625 40.375 33.015625 40.375 
z
M 52.59375 71.296875 
L 52.59375 62.3125 
Q 48.875 64.0625 45.09375 64.984375 
Q 41.3125 65.921875 37.59375 65.921875 
Q 27.828125 65.921875 22.671875 59.328125 
Q 17.53125 52.734375 16.796875 39.40625 
Q 19.671875 43.65625 24.015625 45.921875 
Q 28.375 48.1875 33.59375 48.1875 
Q 44.578125 48.1875 50.953125 41.515625 
Q 57.328125 34.859375 57.328125 23.390625 
Q 57.328125 12.15625 50.6875 5.359375 
Q 44.046875 -1.421875 33.015625 -1.421875 
Q 20.359375 -1.421875 13.671875 8.265625 
Q 6.984375 17.96875 6.984375 36.375 
Q 6.984375 53.65625 15.1875 63.9375 
Q 23.390625 74.21875 37.203125 74.21875 
Q 40.921875 74.21875 44.703125 73.484375 
Q 48.484375 72.75 52.59375 71.296875 
z
" id="DejaVuSans-36"/>
      </defs>
      <g transform="translate(31.096875 133.107062)scale(0.1 -0.1)">
       <use xlink:href="#DejaVuSans-30"/>
       <use x="63.623047" xlink:href="#DejaVuSans-2e"/>
       <use x="95.410156" xlink:href="#DejaVuSans-36"/>
      </g>
     </g>
    </g>
    <g id="ytick_6">
     <g id="line2d_11">
      <g>
       <use style="stroke:#000000;stroke-width:0.8;" x="54" xlink:href="#mfb94e3de2e" y="100.302533"/>
      </g>
     </g>
     <g id="text_12">
      <!-- 0.8 -->
      <defs>
       <path d="M 31.78125 34.625 
Q 24.75 34.625 20.71875 30.859375 
Q 16.703125 27.09375 16.703125 20.515625 
Q 16.703125 13.921875 20.71875 10.15625 
Q 24.75 6.390625 31.78125 6.390625 
Q 38.8125 6.390625 42.859375 10.171875 
Q 46.921875 13.96875 46.921875 20.515625 
Q 46.921875 27.09375 42.890625 30.859375 
Q 38.875 34.625 31.78125 34.625 
z
M 21.921875 38.8125 
Q 15.578125 40.375 12.03125 44.71875 
Q 8.5 49.078125 8.5 55.328125 
Q 8.5 64.0625 14.71875 69.140625 
Q 20.953125 74.21875 31.78125 74.21875 
Q 42.671875 74.21875 48.875 69.140625 
Q 55.078125 64.0625 55.078125 55.328125 
Q 55.078125 49.078125 51.53125 44.71875 
Q 48 40.375 41.703125 38.8125 
Q 48.828125 37.15625 52.796875 32.3125 
Q 56.78125 27.484375 56.78125 20.515625 
Q 56.78125 9.90625 50.3125 4.234375 
Q 43.84375 -1.421875 31.78125 -1.421875 
Q 19.734375 -1.421875 13.25 4.234375 
Q 6.78125 9.90625 6.78125 20.515625 
Q 6.78125 27.484375 10.78125 32.3125 
Q 14.796875 37.15625 21.921875 38.8125 
z
M 18.3125 54.390625 
Q 18.3125 48.734375 21.84375 45.5625 
Q 25.390625 42.390625 31.78125 42.390625 
Q 38.140625 42.390625 41.71875 45.5625 
Q 45.3125 48.734375 45.3125 54.390625 
Q 45.3125 60.0625 41.71875 63.234375 
Q 38.140625 66.40625 31.78125 66.40625 
Q 25.390625 66.40625 21.84375 63.234375 
Q 18.3125 60.0625 18.3125 54.390625 
z
" id="DejaVuSans-38"/>
      </defs>
      <g transform="translate(31.096875 104.101752)scale(0.1 -0.1)">
       <use xlink:href="#DejaVuSans-30"/>
       <use x="63.623047" xlink:href="#DejaVuSans-2e"/>
       <use x="95.410156" xlink:href="#DejaVuSans-38"/>
      </g>
     </g>
    </g>
    <g id="ytick_7">
     <g id="line2d_12">
      <g>
       <use style="stroke:#000000;stroke-width:0.8;" x="54" xlink:href="#mfb94e3de2e" y="71.297223"/>
      </g>
     </g>
     <g id="text_13">
      <!-- 1.0 -->
      <g transform="translate(31.096875 75.096442)scale(0.1 -0.1)">
       <use xlink:href="#DejaVuSans-31"/>
       <use x="63.623047" xlink:href="#DejaVuSans-2e"/>
       <use x="95.410156" xlink:href="#DejaVuSans-30"/>
      </g>
     </g>
    </g>
    <g id="ytick_8">
     <g id="line2d_13">
      <g>
       <use style="stroke:#000000;stroke-width:0.8;" x="54" xlink:href="#mfb94e3de2e" y="42.291913"/>
      </g>
     </g>
     <g id="text_14">
      <!-- 1.2 -->
      <g transform="translate(31.096875 46.091132)scale(0.1 -0.1)">
       <use xlink:href="#DejaVuSans-31"/>
       <use x="63.623047" xlink:href="#DejaVuSans-2e"/>
       <use x="95.410156" xlink:href="#DejaVuSans-32"/>
      </g>
     </g>
    </g>
    <g id="text_15">
     <!-- output -->
     <defs>
      <path d="M 30.609375 48.390625 
Q 23.390625 48.390625 19.1875 42.75 
Q 14.984375 37.109375 14.984375 27.296875 
Q 14.984375 17.484375 19.15625 11.84375 
Q 23.34375 6.203125 30.609375 6.203125 
Q 37.796875 6.203125 41.984375 11.859375 
Q 46.1875 17.53125 46.1875 27.296875 
Q 46.1875 37.015625 41.984375 42.703125 
Q 37.796875 48.390625 30.609375 48.390625 
z
M 30.609375 56 
Q 42.328125 56 49.015625 48.375 
Q 55.71875 40.765625 55.71875 27.296875 
Q 55.71875 13.875 49.015625 6.21875 
Q 42.328125 -1.421875 30.609375 -1.421875 
Q 18.84375 -1.421875 12.171875 6.21875 
Q 5.515625 13.875 5.515625 27.296875 
Q 5.515625 40.765625 12.171875 48.375 
Q 18.84375 56 30.609375 56 
z
" id="DejaVuSans-6f"/>
      <path d="M 8.5 21.578125 
L 8.5 54.6875 
L 17.484375 54.6875 
L 17.484375 21.921875 
Q 17.484375 14.15625 20.5 10.265625 
Q 23.53125 6.390625 29.59375 6.390625 
Q 36.859375 6.390625 41.078125 11.03125 
Q 45.3125 15.671875 45.3125 23.6875 
L 45.3125 54.6875 
L 54.296875 54.6875 
L 54.296875 0 
L 45.3125 0 
L 45.3125 8.40625 
Q 42.046875 3.421875 37.71875 1 
Q 33.40625 -1.421875 27.6875 -1.421875 
Q 18.265625 -1.421875 13.375 4.4375 
Q 8.5 10.296875 8.5 21.578125 
z
M 31.109375 56 
z
" id="DejaVuSans-75"/>
      <path d="M 18.3125 70.21875 
L 18.3125 54.6875 
L 36.8125 54.6875 
L 36.8125 47.703125 
L 18.3125 47.703125 
L 18.3125 18.015625 
Q 18.3125 11.328125 20.140625 9.421875 
Q 21.96875 7.515625 27.59375 7.515625 
L 36.8125 7.515625 
L 36.8125 0 
L 27.59375 0 
Q 17.1875 0 13.234375 3.875 
Q 9.28125 7.765625 9.28125 18.015625 
L 9.28125 47.703125 
L 2.6875 47.703125 
L 2.6875 54.6875 
L 9.28125 54.6875 
L 9.28125 70.21875 
z
" id="DejaVuSans-74"/>
      <path d="M 18.109375 8.203125 
L 18.109375 -20.796875 
L 9.078125 -20.796875 
L 9.078125 54.6875 
L 18.109375 54.6875 
L 18.109375 46.390625 
Q 20.953125 51.265625 25.265625 53.625 
Q 29.59375 56 35.59375 56 
Q 45.5625 56 51.78125 48.09375 
Q 58.015625 40.1875 58.015625 27.296875 
Q 58.015625 14.40625 51.78125 6.484375 
Q 45.5625 -1.421875 35.59375 -1.421875 
Q 29.59375 -1.421875 25.265625 0.953125 
Q 20.953125 3.328125 18.109375 8.203125 
z
M 48.6875 27.296875 
Q 48.6875 37.203125 44.609375 42.84375 
Q 40.53125 48.484375 33.40625 48.484375 
Q 26.265625 48.484375 22.1875 42.84375 
Q 18.109375 37.203125 18.109375 27.296875 
Q 18.109375 17.390625 22.1875 11.75 
Q 26.265625 6.109375 33.40625 6.109375 
Q 40.53125 6.109375 44.609375 11.75 
Q 48.6875 17.390625 48.6875 27.296875 
z
" id="DejaVuSans-70"/>
     </defs>
     <g transform="translate(14.557812 176.262812)rotate(-90)scale(0.2 -0.2)">
      <use xlink:href="#DejaVuSans-6f"/>
      <use x="61.181641" xlink:href="#DejaVuSans-75"/>
      <use x="124.560547" xlink:href="#DejaVuSans-74"/>
      <use x="163.769531" xlink:href="#DejaVuSans-70"/>
      <use x="227.246094" xlink:href="#DejaVuSans-75"/>
      <use x="290.625" xlink:href="#DejaVuSans-74"/>
     </g>
    </g>
   </g>
   <g id="line2d_14">
    <path clip-path="url(#p256999e799)" d="M 54 170.360577 
L 59.047236 176.014967 
L 65.776884 184.012915 
L 72.506533 192.030258 
L 77.553769 197.688984 
L 80.918593 201.155475 
L 84.283417 204.304894 
L 87.648241 207.090236 
L 91.013065 209.481091 
L 94.377889 211.465443 
L 97.742714 213.050052 
L 101.107538 214.259344 
L 104.472362 215.132831 
L 107.837186 215.721282 
L 111.20201 216.08201 
L 116.249246 216.323828 
L 122.978894 216.357073 
L 143.167839 216.332238 
L 173.451256 216.27982 
L 176.81608 216.044108 
L 180.180905 215.542965 
L 181.863317 215.152229 
L 183.545729 214.64386 
L 185.228141 213.998646 
L 186.910553 213.196945 
L 188.592965 212.219096 
L 190.275377 211.045875 
L 191.957789 209.658956 
L 193.640201 208.0414 
L 195.322613 206.178133 
L 197.005025 204.056415 
L 198.687437 201.666276 
L 200.369849 199.000909 
L 202.052261 196.057009 
L 203.734673 192.835051 
L 205.417085 189.339475 
L 208.78191 181.565681 
L 212.146734 172.852533 
L 215.511558 163.378019 
L 220.558794 148.251272 
L 227.288442 127.81816 
L 230.653266 118.121586 
L 234.01809 109.108372 
L 237.382915 100.976676 
L 239.065327 97.2876 
L 240.747739 93.866415 
L 242.430151 90.720529 
L 244.112563 87.853287 
L 245.794975 85.264106 
L 247.477387 82.948694 
L 249.159799 80.899338 
L 250.842211 79.105261 
L 252.524623 77.553031 
L 254.207035 76.227005 
L 255.889447 75.109805 
L 257.571859 74.182797 
L 259.254271 73.426576 
L 260.936683 72.82143 
L 264.301508 71.986588 
L 267.666332 71.530134 
L 271.031156 71.322501 
L 276.078392 71.257135 
L 311.409045 71.30963 
L 329.915578 71.366808 
L 333.280402 71.578147 
L 336.645226 71.964932 
L 340.01005 72.584796 
L 343.374874 73.492887 
L 346.739698 74.736868 
L 350.104523 76.352441 
L 353.469347 78.359852 
L 356.834171 80.761716 
L 360.198995 83.542329 
L 363.563819 86.668456 
L 366.928643 90.091439 
L 371.975879 95.646842 
L 382.070352 107.386277 
L 387.117588 113.092015 
L 388.8 114.918139 
L 388.8 114.918139 
" style="fill:none;stroke:#3300ff;stroke-linecap:square;stroke-width:2;"/>
   </g>
   <g id="line2d_15">
    <path clip-path="url(#p256999e799)" d="M 54 98.604789 
L 57.364824 107.578828 
L 62.41206 121.915788 
L 75.871357 161.215632 
L 79.236181 170.261472 
L 82.601005 178.644829 
L 85.965829 186.231953 
L 89.330653 192.925778 
L 91.013065 195.918606 
L 92.695477 198.670569 
L 94.377889 201.181426 
L 96.060302 203.453546 
L 97.742714 205.491786 
L 99.425126 207.303322 
L 101.107538 208.897437 
L 102.78995 210.285272 
L 104.472362 211.479546 
L 106.154774 212.494257 
L 107.837186 213.344359 
L 109.519598 214.045435 
L 112.884422 215.064053 
L 116.249246 215.675447 
L 119.61407 215.997199 
L 124.661307 216.167696 
L 144.850251 216.286482 
L 170.086432 216.211154 
L 173.451256 216.018947 
L 176.81608 215.568725 
L 178.498492 215.205026 
L 180.180905 214.72406 
L 181.863317 214.105894 
L 183.545729 213.330011 
L 185.228141 212.375755 
L 186.910553 211.222817 
L 188.592965 209.851753 
L 190.275377 208.244512 
L 191.957789 206.384965 
L 193.640201 204.259418 
L 195.322613 201.85709 
L 197.005025 199.170549 
L 198.687437 196.196081 
L 200.369849 192.933992 
L 202.052261 189.38882 
L 205.417085 181.489154 
L 208.78191 172.620053 
L 212.146734 162.969314 
L 217.19397 147.568058 
L 223.923618 126.821681 
L 227.288442 117.017659 
L 230.653266 107.939961 
L 234.01809 99.789311 
L 235.700503 96.107481 
L 237.382915 92.704016 
L 239.065327 89.585556 
L 240.747739 86.754505 
L 242.430151 84.209203 
L 244.112563 81.944181 
L 245.794975 79.950489 
L 247.477387 78.216093 
L 249.159799 76.726314 
L 250.842211 75.46431 
L 252.524623 74.411574 
L 254.207035 73.548437 
L 255.889447 72.854566 
L 257.571859 72.309442 
L 260.936683 71.585017 
L 264.301508 71.222847 
L 267.666332 71.090613 
L 274.39598 71.122398 
L 289.537688 71.259922 
L 318.138693 71.125656 
L 324.868342 70.862998 
L 329.915578 70.449027 
L 334.962814 69.768583 
L 338.327638 69.140242 
L 341.692462 68.355726 
L 345.057286 67.403233 
L 348.422111 66.274215 
L 351.786935 64.964784 
L 355.151759 63.477152 
L 360.198995 60.934673 
L 365.246231 58.081417 
L 373.658291 52.942087 
L 380.38794 48.876987 
L 385.435176 46.095648 
L 388.8 44.443636 
L 388.8 44.443636 
" style="fill:none;stroke:#3300ff;stroke-linecap:square;stroke-width:0.2;"/>
   </g>
   <g id="line2d_16">
    <path clip-path="url(#p256999e799)" d="M 54 242.116364 
L 59.047236 239.770669 
L 64.094472 237.126261 
L 74.188945 231.437796 
L 80.918593 227.765842 
L 85.965829 225.258831 
L 91.013065 223.043577 
L 96.060302 221.159612 
L 101.107538 219.62125 
L 106.154774 218.424139 
L 111.20201 217.550646 
L 116.249246 216.972208 
L 121.296482 216.644385 
L 128.026131 216.45079 
L 138.120603 216.378146 
L 170.086432 216.505019 
L 176.81608 216.519491 
L 180.180905 216.36187 
L 183.545729 215.95771 
L 185.228141 215.621538 
L 186.910553 215.171072 
L 188.592965 214.58644 
L 190.275377 213.847238 
L 191.957789 212.932947 
L 193.640201 211.823381 
L 195.322613 210.499176 
L 197.005025 208.942282 
L 198.687437 207.136472 
L 200.369849 205.067826 
L 202.052261 202.725199 
L 203.734673 200.100648 
L 205.417085 197.189797 
L 207.099497 193.992149 
L 208.78191 190.511309 
L 212.146734 182.735752 
L 215.511558 173.977072 
L 218.876382 164.413964 
L 223.923618 149.084761 
L 230.653266 128.303212 
L 234.01809 118.427433 
L 237.382915 109.249336 
L 240.747739 100.978326 
L 242.430151 97.231854 
L 244.112563 93.762392 
L 245.794975 90.577723 
L 247.477387 87.681295 
L 249.159799 85.072362 
L 250.842211 82.746211 
L 252.524623 80.694487 
L 254.207035 78.905574 
L 255.889447 77.365044 
L 257.571859 76.056153 
L 259.254271 74.960355 
L 260.936683 74.057844 
L 262.619095 73.328085 
L 264.301508 72.750329 
L 267.666332 71.969656 
L 271.031156 71.562731 
L 274.39598 71.3964 
L 281.125628 71.361019 
L 321.503518 71.498931 
L 324.868342 71.656728 
L 328.233166 72.005241 
L 331.59799 72.653581 
L 333.280402 73.127826 
L 334.962814 73.723434 
L 336.645226 74.456759 
L 338.327638 75.344086 
L 340.01005 76.401287 
L 341.692462 77.643478 
L 343.374874 79.08467 
L 345.057286 80.737432 
L 346.739698 82.612578 
L 348.422111 84.718877 
L 350.104523 87.062811 
L 351.786935 89.648366 
L 353.469347 92.476873 
L 355.151759 95.546911 
L 358.516583 102.391865 
L 361.881407 110.116224 
L 365.246231 118.61139 
L 368.611055 127.733044 
L 373.658291 142.209672 
L 383.752764 171.651822 
L 387.117588 180.937382 
L 388.8 185.392641 
L 388.8 185.392641 
" style="fill:none;stroke:#3300ff;stroke-linecap:square;stroke-width:0.2;"/>
   </g>
   <g id="line2d_17">
    <defs>
     <path d="M 0 2.5 
C 0.663008 2.5 1.29895 2.236584 1.767767 1.767767 
C 2.236584 1.29895 2.5 0.663008 2.5 0 
C 2.5 -0.663008 2.236584 -1.29895 1.767767 -1.767767 
C 1.29895 -2.236584 0.663008 -2.5 0 -2.5 
C -0.663008 -2.5 -1.29895 -2.236584 -1.767767 -1.767767 
C -2.236584 -1.29895 -2.5 -0.663008 -2.5 0 
C -2.5 0.663008 -2.236584 1.29895 -1.767767 1.767767 
C -1.29895 2.236584 -0.663008 2.5 0 2.5 
z
" id="ma5fa7aa2df" style="stroke:#ff0000;"/>
    </defs>
    <g clip-path="url(#p256999e799)">
     <use style="fill:#ff0000;stroke:#ff0000;" x="146.493153" xlink:href="#ma5fa7aa2df" y="216.323773"/>
     <use style="fill:#ff0000;stroke:#ff0000;" x="146.354803" xlink:href="#ma5fa7aa2df" y="216.323773"/>
     <use style="fill:#ff0000;stroke:#ff0000;" x="146.28361" xlink:href="#ma5fa7aa2df" y="216.323773"/>
     <use style="fill:#ff0000;stroke:#ff0000;" x="146.256201" xlink:href="#ma5fa7aa2df" y="216.323773"/>
     <use style="fill:#ff0000;stroke:#ff0000;" x="146.256566" xlink:href="#ma5fa7aa2df" y="216.323773"/>
     <use style="fill:#ff0000;stroke:#ff0000;" x="146.264215" xlink:href="#ma5fa7aa2df" y="216.323773"/>
     <use style="fill:#ff0000;stroke:#ff0000;" x="146.250254" xlink:href="#ma5fa7aa2df" y="216.323773"/>
     <use style="fill:#ff0000;stroke:#ff0000;" x="146.207688" xlink:href="#ma5fa7aa2df" y="216.323773"/>
     <use style="fill:#ff0000;stroke:#ff0000;" x="146.113531" xlink:href="#ma5fa7aa2df" y="216.323773"/>
     <use style="fill:#ff0000;stroke:#ff0000;" x="145.976648" xlink:href="#ma5fa7aa2df" y="216.323773"/>
     <use style="fill:#ff0000;stroke:#ff0000;" x="145.804743" xlink:href="#ma5fa7aa2df" y="216.323773"/>
     <use style="fill:#ff0000;stroke:#ff0000;" x="145.618895" xlink:href="#ma5fa7aa2df" y="216.323773"/>
     <use style="fill:#ff0000;stroke:#ff0000;" x="145.45345" xlink:href="#ma5fa7aa2df" y="216.323773"/>
     <use style="fill:#ff0000;stroke:#ff0000;" x="145.354353" xlink:href="#ma5fa7aa2df" y="216.323773"/>
     <use style="fill:#ff0000;stroke:#ff0000;" x="145.3507" xlink:href="#ma5fa7aa2df" y="216.323773"/>
     <use style="fill:#ff0000;stroke:#ff0000;" x="145.49893" xlink:href="#ma5fa7aa2df" y="216.323773"/>
     <use style="fill:#ff0000;stroke:#ff0000;" x="145.848988" xlink:href="#ma5fa7aa2df" y="216.323773"/>
     <use style="fill:#ff0000;stroke:#ff0000;" x="146.438245" xlink:href="#ma5fa7aa2df" y="216.323773"/>
     <use style="fill:#ff0000;stroke:#ff0000;" x="147.373133" xlink:href="#ma5fa7aa2df" y="216.323773"/>
     <use style="fill:#ff0000;stroke:#ff0000;" x="149.403752" xlink:href="#ma5fa7aa2df" y="216.323773"/>
     <use style="fill:#ff0000;stroke:#ff0000;" x="153.100923" xlink:href="#ma5fa7aa2df" y="216.323773"/>
     <use style="fill:#ff0000;stroke:#ff0000;" x="155.874627" xlink:href="#ma5fa7aa2df" y="216.323773"/>
     <use style="fill:#ff0000;stroke:#ff0000;" x="158.673492" xlink:href="#ma5fa7aa2df" y="216.323773"/>
     <use style="fill:#ff0000;stroke:#ff0000;" x="161.092568" xlink:href="#ma5fa7aa2df" y="216.323773"/>
     <use style="fill:#ff0000;stroke:#ff0000;" x="162.699793" xlink:href="#ma5fa7aa2df" y="216.323773"/>
     <use style="fill:#ff0000;stroke:#ff0000;" x="281.350579" xlink:href="#ma5fa7aa2df" y="71.297223"/>
     <use style="fill:#ff0000;stroke:#ff0000;" x="283.15119" xlink:href="#ma5fa7aa2df" y="71.297223"/>
     <use style="fill:#ff0000;stroke:#ff0000;" x="285.352724" xlink:href="#ma5fa7aa2df" y="71.297223"/>
     <use style="fill:#ff0000;stroke:#ff0000;" x="288.135876" xlink:href="#ma5fa7aa2df" y="71.297223"/>
     <use style="fill:#ff0000;stroke:#ff0000;" x="290.861306" xlink:href="#ma5fa7aa2df" y="71.297223"/>
     <use style="fill:#ff0000;stroke:#ff0000;" x="294.592456" xlink:href="#ma5fa7aa2df" y="71.297223"/>
     <use style="fill:#ff0000;stroke:#ff0000;" x="296.611386" xlink:href="#ma5fa7aa2df" y="71.297223"/>
     <use style="fill:#ff0000;stroke:#ff0000;" x="297.555996" xlink:href="#ma5fa7aa2df" y="71.297223"/>
     <use style="fill:#ff0000;stroke:#ff0000;" x="298.155639" xlink:href="#ma5fa7aa2df" y="71.297223"/>
     <use style="fill:#ff0000;stroke:#ff0000;" x="298.506052" xlink:href="#ma5fa7aa2df" y="71.297223"/>
     <use style="fill:#ff0000;stroke:#ff0000;" x="298.658089" xlink:href="#ma5fa7aa2df" y="71.297223"/>
     <use style="fill:#ff0000;stroke:#ff0000;" x="298.659243" xlink:href="#ma5fa7aa2df" y="71.297223"/>
     <use style="fill:#ff0000;stroke:#ff0000;" x="298.554066" xlink:href="#ma5fa7aa2df" y="71.297223"/>
     <use style="fill:#ff0000;stroke:#ff0000;" x="298.390022" xlink:href="#ma5fa7aa2df" y="71.297223"/>
     <use style="fill:#ff0000;stroke:#ff0000;" x="298.203495" xlink:href="#ma5fa7aa2df" y="71.297223"/>
     <use style="fill:#ff0000;stroke:#ff0000;" x="298.029483" xlink:href="#ma5fa7aa2df" y="71.297223"/>
     <use style="fill:#ff0000;stroke:#ff0000;" x="297.891126" xlink:href="#ma5fa7aa2df" y="71.297223"/>
     <use style="fill:#ff0000;stroke:#ff0000;" x="297.797356" xlink:href="#ma5fa7aa2df" y="71.297223"/>
     <use style="fill:#ff0000;stroke:#ff0000;" x="297.750953" xlink:href="#ma5fa7aa2df" y="71.297223"/>
     <use style="fill:#ff0000;stroke:#ff0000;" x="297.738846" xlink:href="#ma5fa7aa2df" y="71.297223"/>
     <use style="fill:#ff0000;stroke:#ff0000;" x="297.743514" xlink:href="#ma5fa7aa2df" y="71.297223"/>
     <use style="fill:#ff0000;stroke:#ff0000;" x="297.742399" xlink:href="#ma5fa7aa2df" y="71.297223"/>
     <use style="fill:#ff0000;stroke:#ff0000;" x="297.711652" xlink:href="#ma5fa7aa2df" y="71.297223"/>
     <use style="fill:#ff0000;stroke:#ff0000;" x="297.632232" xlink:href="#ma5fa7aa2df" y="71.297223"/>
     <use style="fill:#ff0000;stroke:#ff0000;" x="297.483911" xlink:href="#ma5fa7aa2df" y="71.297223"/>
    </g>
   </g>
   <g id="patch_4">
    <path d="M 54 252 
L 54 34.56 
" style="fill:none;stroke:#000000;stroke-linecap:square;stroke-linejoin:miter;stroke-width:0.8;"/>
   </g>
   <g id="patch_5">
    <path d="M 388.8 252 
L 388.8 34.56 
" style="fill:none;stroke:#000000;stroke-linecap:square;stroke-linejoin:miter;stroke-width:0.8;"/>
   </g>
   <g id="patch_6">
    <path d="M 54 252 
L 388.8 252 
" style="fill:none;stroke:#000000;stroke-linecap:square;stroke-linejoin:miter;stroke-width:0.8;"/>
   </g>
   <g id="patch_7">
    <path d="M 54 34.56 
L 388.8 34.56 
" style="fill:none;stroke:#000000;stroke-linecap:square;stroke-linejoin:miter;stroke-width:0.8;"/>
   </g>
  </g>
 </g>
 <defs>
  <clipPath id="p256999e799">
   <rect height="217.44" width="334.8" x="54" y="34.56"/>
  </clipPath>
 </defs>
</svg>
