<?xml version="1.0" encoding="utf-8" standalone="no"?>
<!DOCTYPE svg PUBLIC "-//W3C//DTD SVG 1.1//EN"
  "http://www.w3.org/Graphics/SVG/1.1/DTD/svg11.dtd">
<!-- Created with matplotlib (http://matplotlib.org/) -->
<svg height="360pt" version="1.1" viewBox="0 0 720 360" width="720pt" xmlns="http://www.w3.org/2000/svg" xmlns:xlink="http://www.w3.org/1999/xlink">
 <defs>
  <style type="text/css">
*{stroke-linecap:butt;stroke-linejoin:round;stroke-miterlimit:100000;}
  </style>
 </defs>
 <g id="figure_1">
  <g id="patch_1">
   <path d="M 0 360 
L 720 360 
L 720 0 
L 0 0 
L 0 360 
z
" style="fill:none;"/>
  </g>
  <g id="axes_1">
   <g id="patch_2">
    <path d="M 90 315 
L 343.636364 315 
L 343.636364 36 
L 90 36 
L 90 315 
z
" style="fill:none;"/>
   </g>
   <g id="LineCollection_1"/>
   <g id="LineCollection_2">
    <path clip-path="url(#p1bebaef2c0)" d="M 218.099174 191.55383 
L 217.027704 191 
L 215.53719 190.167885 
L 212.975207 188.424058 
L 212.677154 188.181818 
L 210.413223 186.197222 
L 209.569131 185.363636 
L 207.85124 183.522434 
L 207.03175 182.545455 
L 205.289256 180.274391 
L 204.90798 179.727273 
L 203.165897 176.909091 
L 202.727273 176.087363 
L 201.759017 174.090909 
L 200.614236 171.272727 
L 200.165289 169.786423 
L 199.799639 168.454545 
L 199.362059 165.636364 
L 199.324442 162.818182 
L 199.829589 160 
L 200.165289 159.182265 
L 201.451788 157.181818 
L 202.727273 156.042258 
L 205.289256 154.95982 
L 207.85124 154.796806 
L 210.413223 155.266011 
L 212.975207 156.188571 
L 214.957448 157.181818 
L 215.53719 157.496319 
L 218.099174 159.260552 
L 219.016772 160 
L 220.661157 161.432556 
L 222.066996 162.818182 
L 223.22314 164.058232 
L 224.541424 165.636364 
L 225.785124 167.269266 
L 226.602825 168.454545 
L 228.347107 171.253773 
L 228.357901 171.272727 
L 229.689776 174.090909 
L 230.82568 176.909091 
L 230.909091 177.204253 
L 231.555362 179.727273 
L 231.953768 182.545455 
L 231.930394 185.363636 
L 231.32906 188.181818 
L 230.909091 189.092534 
L 229.50155 191 
L 228.347107 191.929235 
L 225.785124 192.888145 
L 223.22314 192.987836 
L 220.661157 192.488175 
L 218.099174 191.55383 
" style="fill:none;stroke:#000089;"/>
   </g>
   <g id="LineCollection_3">
    <path clip-path="url(#p1bebaef2c0)" d="M 202.900334 146.807331 
L 205.289256 146.879557 
L 207.85124 147.355439 
L 210.413223 148.150233 
L 211.774819 148.727273 
L 212.975207 149.264946 
L 215.53719 150.679238 
L 216.888794 151.545455 
L 218.099174 152.364728 
L 220.661157 154.305979 
L 220.728783 154.363636 
L 223.22314 156.608197 
L 223.809605 157.181818 
L 225.785124 159.227461 
L 226.475919 160 
L 228.347107 162.223063 
L 228.813483 162.818182 
L 230.882566 165.636364 
L 230.909091 165.675948 
L 232.642943 168.454545 
L 233.471074 169.894084 
L 234.21313 171.272727 
L 235.573033 174.090909 
L 236.033058 175.19527 
L 236.701119 176.909091 
L 237.61065 179.727273 
L 238.321531 182.545455 
L 238.595041 184.245629 
L 238.76262 185.363636 
L 238.90049 188.181818 
L 238.708508 191 
L 238.595041 191.56516 
L 238.007674 193.818182 
L 236.623925 196.636364 
L 236.033058 197.427841 
L 233.771316 199.454545 
L 233.471074 199.650539 
L 230.909091 200.651979 
L 228.347107 201.025879 
L 225.785124 200.913286 
L 223.22314 200.415923 
L 220.661157 199.609 
L 220.307419 199.454545 
L 218.099174 198.43666 
L 215.53719 197.027449 
L 214.934738 196.636364 
L 212.975207 195.29441 
L 211.038956 193.818182 
L 210.413223 193.31337 
L 208.314824 191.446227 
" style="fill:none;stroke:#000092;"/>
   </g>
   <g id="LineCollection_4">
    <path clip-path="url(#p1bebaef2c0)" d="M 183.288576 160.224426 
L 183.245014 160 
L 182.878375 157.181818 
L 182.721152 154.363636 
L 182.80897 151.545455 
L 183.186018 148.727273 
L 183.907793 145.909091 
L 184.793388 143.68286 
L 185.085674 143.090909 
L 187.022154 140.272727 
L 187.355372 139.901841 
L 189.917355 137.769963 
L 190.465451 137.454545 
L 192.479339 136.508824 
L 195.041322 135.790934 
L 197.603306 135.488878 
L 200.165289 135.534375 
L 202.727273 135.873316 
L 205.289256 136.462273 
L 207.85124 137.265982 
L 208.32155 137.454545 
L 210.413223 138.326348 
L 212.975207 139.571527 
L 214.238351 140.272727 
L 215.53719 141.022005 
L 218.099174 142.662475 
L 218.705508 143.090909 
L 220.661157 144.526435 
L 222.413867 145.909091 
L 223.22314 146.573297 
L 225.677013 148.727273 
L 225.785124 148.826167 
L 228.347107 151.333084 
L 228.551917 151.545455 
L 230.909091 154.091569 
L 231.147952 154.363636 
L 233.471074 157.124843 
L 233.516655 157.181818 
L 235.655236 160 
L 236.033058 160.523654 
L 237.607387 162.818182 
L 238.595041 164.334436 
L 239.403439 165.636364 
L 241.055401 168.454545 
L 241.157025 168.643445 
L 242.505506 171.272727 
L 243.719008 173.801868 
L 243.851508 174.090909 
L 244.999362 176.909091 
L 246.037329 179.727273 
L 246.280992 180.507186 
L 246.888175 182.545455 
L 247.578207 185.363636 
L 248.108131 188.181818 
L 248.453103 191 
L 248.582863 193.818182 
L 248.460164 196.636364 
L 248.03864 199.454545 
L 247.259831 202.272727 
L 246.280992 204.579713 
L 246.010491 205.090909 
L 243.95288 207.909091 
L 243.719008 208.155862 
L 241.157025 210.178521 
L 240.132069 210.727273 
L 238.595041 211.401844 
L 236.033058 212.07135 
L 233.471074 212.337981 
L 230.909091 212.26677 
L 228.347107 211.909463 
L 225.785124 211.307756 
L 223.978956 210.727273 
L 223.22314 210.474419 
L 220.661157 209.394191 
L 218.099174 208.14932 
L 217.671925 207.909091 
L 215.53719 206.662452 
L 213.075804 205.090909 
L 212.975207 205.0241 
L 212.952985 205.007712 
" style="fill:none;stroke:#0000a4;"/>
   </g>
   <g id="LineCollection_5">
    <path clip-path="url(#p1bebaef2c0)" d="M 233.471074 227.69114 
L 233.230939 227.636364 
L 230.909091 227.091218 
L 228.347107 226.329069 
L 225.785124 225.424462 
L 224.302303 224.818182 
L 223.22314 224.364554 
L 220.661157 223.146281 
L 218.455801 222 
L 218.099174 221.809464 
L 215.53719 220.301184 
L 213.758344 219.181818 
L 212.975207 218.675358 
L 210.413223 216.8999 
L 209.685966 216.363636 
L 207.85124 214.973495 
L 206.058473 213.545455 
L 205.289256 212.915378 
L 202.742245 210.727273 
L 202.727273 210.714035 
L 200.165289 208.328429 
L 199.733447 207.909091 
L 197.603306 205.780758 
L 196.939996 205.090909 
L 195.041322 203.057412 
L 194.33636 202.272727 
L 192.479339 200.142199 
L 191.901796 199.454545 
L 189.917355 197.016874 
L 189.618479 196.636364 
L 187.479259 193.818182 
L 187.355372 193.64838 
L 185.490943 191 
L 184.793388 189.972863 
L 183.61829 188.181818 
L 182.231405 185.987644 
L 181.84992 185.363636 
L 180.209563 182.545455 
L 179.669421 181.569869 
L 178.682668 179.727273 
L 177.24314 176.909091 
L 177.107438 176.623667 
L 175.942659 174.090909 
L 174.717346 171.272727 
L 174.545455 170.840208 
L 173.628328 168.454545 
L 172.630515 165.636364 
L 171.983471 163.611783 
L 171.738119 162.818182 
L 170.98099 160 
L 170.328509 157.181818 
L 169.791565 154.363636 
L 169.421488 151.804915 
L 169.385266 151.545455 
L 169.137541 148.727273 
L 169.038387 145.909091 
L 169.10439 143.090909 
L 169.354707 140.272727 
L 169.421488 139.846725 
L 169.846407 137.454545 
L 170.60176 134.636364 
L 171.652203 131.818182 
L 171.983471 131.12114 
L 173.16373 129 
L 174.545455 127.026076 
L 175.258163 126.181818 
L 177.107438 124.364026 
L 178.38919 123.363636 
L 179.669421 122.509753 
L 182.231405 121.209902 
L 184.080981 120.545455 
L 184.793388 120.320617 
L 187.355372 119.793028 
L 189.917355 119.5361 
L 192.479339 119.518756 
L 195.041322 119.714499 
L 197.603306 120.100601 
L 199.635456 120.545455 
L 200.165289 120.664876 
L 202.727273 121.420627 
L 205.289256 122.320804 
L 207.85124 123.351117 
L 207.878298 123.363636 
L 210.413223 124.568726 
L 212.975207 125.89559 
L 213.476676 126.181818 
L 215.53719 127.389971 
L 218.099174 128.991031 
L 218.112412 129 
L 220.661157 130.773576 
L 222.084145 131.818182 
L 223.22314 132.677585 
L 225.690666 134.636364 
L 225.785124 134.713493 
L 228.347107 136.92768 
L 228.92972 137.454545 
L 230.909091 139.29543 
L 231.916423 140.272727 
L 232.809487 141.164529 
" style="fill:none;stroke:#0000c8;"/>
    <path clip-path="url(#p1bebaef2c0)" d="M 260.361965 188.0392 
L 260.399841 188.181818 
L 261.041984 191 
L 261.566647 193.818182 
L 261.652893 194.451834 
L 261.939781 196.636364 
L 262.170607 199.454545 
L 262.250017 202.272727 
L 262.160913 205.090909 
L 261.883522 207.909091 
L 261.652893 209.26719 
L 261.3715 210.727273 
L 260.574739 213.545455 
L 259.474534 216.363636 
L 259.090909 217.136803 
L 257.89993 219.181818 
L 256.528926 221.064002 
L 255.703765 222 
L 253.966942 223.641113 
L 252.389525 224.818182 
L 251.404959 225.447732 
L 248.842975 226.697527 
L 246.280992 227.566174 
L 245.959673 227.636364 
L 243.719008 228.069561 
L 241.157025 228.302551 
L 238.595041 228.300625 
L 236.033058 228.089465 
L 233.471074 227.69114 
" style="fill:none;stroke:#0000c8;"/>
   </g>
   <g id="LineCollection_6">
    <path clip-path="url(#p1bebaef2c0)" d="M 224.133885 113.895048 
L 228.347107 117.129445 
L 232.422239 120.545455 
L 236.033058 123.78915 
L 241.352553 129 
L 246.558395 134.636364 
L 251.404959 140.412488 
L 255.596315 145.909091 
L 259.542704 151.545455 
L 263.13269 157.181818 
L 266.410828 162.818182 
L 269.376206 168.454545 
L 272.02891 174.090909 
L 274.46281 179.93822 
L 276.421501 185.363636 
L 278.152821 191 
L 279.586777 196.684968 
L 280.62476 202.272727 
L 281.312 207.909091 
L 281.503123 210.727273 
L 281.581834 213.545455 
L 281.538978 216.363636 
L 281.364381 219.181818 
L 281.046697 222 
L 280.573241 224.818182 
L 279.586777 228.822928 
L 279.067022 230.454545 
L 277.959102 233.272727 
L 276.571478 236.090909 
L 274.46281 239.386327 
L 271.900826 242.400854 
L 269.338843 244.720307 
L 266.77686 246.497338 
L 264.214876 247.898268 
L 261.652893 248.963244 
L 259.090909 249.775052 
L 256.528926 250.347982 
L 253.966942 250.702469 
L 251.404959 250.87725 
L 248.842975 250.886927 
L 246.280992 250.744564 
L 241.993633 250.181818 
L 241.157025 250.043136 
L 238.595041 249.48593 
L 233.471074 248.033538 
L 230.909091 247.145009 
L 225.785124 245.029165 
L 223.22314 243.814967 
L 218.099174 241.091012 
L 212.975207 237.964735 
L 207.85124 234.441604 
L 202.638554 230.454545 
L 197.603306 226.163359 
L 193.126019 222 
L 189.917355 218.79762 
L 184.793388 213.255565 
L 180.29654 207.909091 
L 177.107438 203.815538 
L 173.929062 199.454545 
L 170.142783 193.818182 
L 166.682495 188.181818 
L 163.557255 182.545455 
L 160.733508 176.909091 
L 158.210471 171.272727 
L 155.98737 165.636364 
L 154.049587 159.95166 
L 152.482827 154.363636 
L 151.213177 148.727273 
L 150.320138 143.090909 
L 149.809604 137.454545 
L 149.71658 134.636364 
L 149.743368 131.818182 
L 149.899913 129 
L 150.197293 126.181818 
L 150.647884 123.363636 
L 151.487603 119.746147 
L 152.10507 117.727273 
L 153.17714 114.909091 
L 154.524971 112.090909 
L 156.61157 108.73849 
L 159.173554 105.650107 
L 161.735537 103.282182 
L 165.384073 100.818182 
L 166.859504 100.034292 
L 169.421488 98.937974 
L 172.393453 98 
L 173.183839 97.824302 
L 173.183839 97.824302 
" style="fill:none;stroke:#0000ff;"/>
   </g>
   <g id="LineCollection_7">
    <path clip-path="url(#p1bebaef2c0)" d="M 251.404959 281.528747 
L 249.748175 281.181818 
L 248.842975 280.989481 
L 246.280992 280.355684 
L 243.719008 279.643341 
L 241.157025 278.856513 
L 239.695199 278.363636 
L 238.595041 277.987453 
L 236.033058 277.034214 
L 233.471074 276.016128 
L 232.364775 275.545455 
L 230.909091 274.917551 
L 230.876981 274.902854 
" style="fill:none;stroke:#0080ff;"/>
    <path clip-path="url(#p1bebaef2c0)" d="M 179.387268 237.530784 
L 174.545455 232.390327 
L 169.421488 226.566593 
L 164.297521 220.314144 
L 161.242386 216.363636 
L 156.61157 210.008582 
L 153.252636 205.090909 
L 148.92562 198.319515 
L 146.227525 193.818182 
L 143.065734 188.181818 
L 140.118261 182.545455 
L 137.384713 176.909091 
L 134.864697 171.272727 
L 132.55782 165.636364 
L 130.463691 160 
L 128.429752 153.847419 
L 126.946748 148.727273 
L 125.525082 143.090909 
L 124.356346 137.454545 
L 123.305785 130.859349 
L 122.787181 126.181818 
L 122.437723 120.545455 
L 122.408341 114.909091 
L 122.73628 109.272727 
L 123.305785 104.696947 
L 123.471611 103.636364 
L 124.024914 100.818182 
L 124.704347 98 
L 125.867769 94.139178 
L 126.506282 92.363636 
L 128.429752 87.947186 
L 129.052544 86.727273 
L 130.991736 83.414019 
L 133.553719 79.876137 
L 136.115702 76.994672 
L 138.677686 74.607275 
L 141.239669 72.601059 
L 143.801653 70.946524 
L 146.363636 69.537875 
L 148.92562 68.383552 
L 152.827975 67 
L 154.049587 66.642668 
L 156.61157 66.04061 
L 159.173554 65.584843 
L 161.735537 65.266319 
L 164.297521 65.076723 
L 166.859504 65.008396 
L 171.983471 65.207834 
L 177.107438 65.814287 
L 182.231405 66.784539 
L 187.355372 68.115789 
L 192.653397 69.818182 
L 197.603306 71.720599 
L 202.727273 73.976715 
L 207.85124 76.520059 
L 212.975207 79.34787 
L 218.099174 82.457424 
L 223.22314 85.846027 
L 228.392866 89.545455 
L 233.471074 93.483438 
L 238.899063 98 
L 245.139944 103.636364 
L 248.842975 107.201296 
L 253.966942 112.433631 
L 259.090909 118.040569 
L 264.214876 124.058129 
L 269.338843 130.527107 
L 272.406715 134.636364 
L 277.024793 141.216979 
L 280.114254 145.909091 
L 283.604009 151.545455 
L 287.272727 157.899881 
L 289.92254 162.818182 
L 292.746419 168.454545 
L 295.358989 174.090909 
L 297.760631 179.727273 
L 300.082645 185.737645 
L 301.909311 191 
L 303.654555 196.636364 
L 305.206612 202.37228 
L 306.453705 207.909091 
L 307.49263 213.545455 
L 308.257928 219.181818 
L 308.738067 224.818182 
L 308.911887 230.454545 
L 308.744224 236.090909 
L 308.194315 241.727273 
L 307.761163 244.545455 
L 307.190212 247.363636 
L 306.491511 250.181818 
L 305.206612 254.30815 
L 304.649107 255.818182 
L 302.644628 260.31153 
L 302.047552 261.454545 
L 300.082645 264.743334 
L 297.520661 268.215389 
L 294.958678 271.049293 
L 292.396694 273.401428 
L 289.581286 275.545455 
L 287.272727 277.004871 
L 284.710744 278.397815 
L 282.14876 279.529166 
L 279.586777 280.474329 
L 277.024793 281.243462 
L 274.46281 281.829686 
L 271.900826 282.271245 
L 269.338843 282.577029 
L 266.77686 282.755214 
L 264.214876 282.813331 
L 259.090909 282.596639 
L 253.966942 281.976532 
L 251.404959 281.528747 
L 251.404959 281.528747 
" style="fill:none;stroke:#0080ff;"/>
   </g>
   <g id="LineCollection_8">
    <path clip-path="url(#p1bebaef2c0)" d="M 233.357482 315 
L 230.909091 313.813096 
L 228.347107 312.531978 
L 227.67243 312.181818 
L 225.785124 311.192851 
L 223.22314 309.810138 
L 222.422536 309.363636 
L 220.661157 308.37185 
L 218.099174 306.890356 
L 217.520707 306.545455 
L 215.53719 305.351455 
L 212.975207 303.77396 
L 212.901637 303.727273 
L 210.413223 302.133016 
L 208.542342 300.909091 
L 207.85124 300.4526 
L 205.289256 298.717868 
L 204.384167 298.090909 
L 202.727273 296.932095 
L 200.400015 295.272727 
L 200.165289 295.103734 
L 197.603306 293.214802 
L 196.591884 292.454545 
L 195.041322 291.2777 
L 192.91718 289.636364 
L 192.479339 289.294719 
L 189.917355 287.254816 
L 189.379307 286.818182 
L 187.355372 285.159643 
L 185.963731 284 
L 184.793388 283.015116 
L 182.650436 281.181818 
L 182.231405 280.819755 
L 179.669421 278.567424 
L 179.441673 278.363636 
L 177.107438 276.254162 
L 176.335244 275.545455 
L 174.545455 273.886276 
L 173.314094 272.727273 
L 171.983471 271.462102 
L 170.374416 269.909091 
L 169.421488 268.979902 
L 167.51263 267.090909 
L 166.859504 266.43787 
L 164.725357 264.272727 
L 164.297521 263.834123 
L 162.009416 261.454545 
L 161.735537 261.166698 
L 159.361801 258.636364 
L 159.173554 258.433547 
L 156.779674 255.818182 
L 156.61157 255.632535 
L 154.260352 253 
L 154.049587 252.761433 
L 151.801297 250.181818 
L 151.487603 249.817911 
L 149.400105 247.363636 
L 148.92562 246.799538 
L 147.054498 244.545455 
L 146.363636 243.703771 
L 144.762317 241.727273 
L 143.801653 240.527952 
L 142.521513 238.909091 
L 141.239669 237.269297 
L 140.33014 236.090909 
L 138.985359 234.328188 
" style="fill:none;stroke:#7dff7a;"/>
    <path clip-path="url(#p1bebaef2c0)" d="M 105.717659 179.785007 
L 105.689863 179.727273 
L 105.371901 179.050204 
L 104.378026 176.909091 
L 103.096134 174.090909 
L 102.809917 173.444254 
L 101.859884 171.272727 
L 100.654539 168.454545 
L 100.247934 167.476259 
L 99.492053 165.636364 
L 98.364879 162.818182 
L 97.68595 161.071393 
L 97.274338 160 
L 96.226954 157.181818 
L 95.20846 154.363636 
L 95.123967 154.120244 
L 94.240567 151.545455 
L 93.305315 148.727273 
L 92.561983 146.403913 
L 92.405518 145.909091 
L 91.555155 143.090909 
L 90.738516 140.272727 
L 90 137.608674 
" style="fill:none;stroke:#7dff7a;"/>
    <path clip-path="url(#p1bebaef2c0)" d="M 343.636364 283.575397 
L 343.512495 284 
L 342.598504 286.818182 
L 341.576369 289.636364 
L 341.07438 290.893652 
L 340.417792 292.454545 
L 339.116093 295.272727 
L 338.512397 296.47163 
L 337.650001 298.090909 
L 336.013696 300.909091 
L 335.950413 301.010488 
L 334.148931 303.727273 
L 333.38843 304.790038 
L 332.048593 306.545455 
L 330.826446 308.037241 
L 329.66224 309.363636 
L 328.264463 310.854264 
L 326.923925 312.181818 
L 325.702479 313.318703 
L 323.745737 315 
" style="fill:none;stroke:#7dff7a;"/>
    <path clip-path="url(#p1bebaef2c0)" d="M 90 57.468694 
L 90.719913 55.727273 
L 92.001339 52.909091 
L 92.561983 51.778127 
L 93.446337 50.090909 
L 95.058065 47.272727 
L 95.123967 47.165567 
L 96.894713 44.454545 
L 97.68595 43.332759 
L 98.96167 41.636364 
L 100.247934 40.043749 
L 101.307905 38.818182 
L 102.809917 37.193417 
L 103.997325 36 
" style="fill:none;stroke:#7dff7a;"/>
    <path clip-path="url(#p1bebaef2c0)" d="M 204.307776 36 
L 205.289256 36.512363 
L 207.85124 37.895849 
L 209.510482 38.818182 
L 210.413223 39.324842 
L 212.975207 40.807574 
L 214.369178 41.636364 
L 215.53719 42.337502 
L 218.099174 43.916681 
L 218.948806 44.454545 
L 220.661157 45.548983 
L 223.22314 47.221843 
L 223.29893 47.272727 
L 225.785124 48.95794 
L 227.423847 50.090909 
L 228.347107 50.735411 
L 230.909091 52.563037 
L 231.383233 52.909091 
L 233.471074 54.447637 
L 235.175999 55.727273 
L 236.033058 56.376819 
L 238.595041 58.356073 
L 238.835013 58.545455 
L 241.157025 60.395789 
L 242.350994 61.363636 
L 243.719008 62.483472 
L 245.759146 64.181818 
L 246.280992 64.620551 
L 248.842975 66.812713 
L 249.057859 67 
L 251.404959 69.065943 
L 252.246203 69.818182 
L 253.966942 71.372261 
L 255.345051 72.636364 
L 256.528926 73.733277 
L 258.358477 75.454545 
L 259.090909 76.150665 
L 261.290308 78.272727 
L 261.652893 78.626172 
L 264.144148 81.090909 
L 264.214876 81.161614 
L 266.77686 83.762342 
L 266.919334 83.909091 
L 269.338843 86.427106 
L 269.623255 86.727273 
L 271.900826 89.156265 
L 272.260748 89.545455 
L 274.46281 91.95187 
L 274.83451 92.363636 
L 277.024793 94.816061 
L 277.347093 95.181818 
L 279.586777 97.751071 
L 279.800915 98 
L 282.14876 100.75923 
L 282.19827 100.818182 
L 284.536954 103.636364 
L 284.710744 103.848224 
L 286.820927 106.454545 
L 287.272727 107.018991 
L 289.053543 109.272727 
L 289.834711 110.27285 
L 291.236754 112.090909 
L 292.396694 113.612738 
L 293.372415 114.909091 
L 294.958678 117.041729 
L 295.275649 117.47321 
" style="fill:none;stroke:#7dff7a;"/>
    <path clip-path="url(#p1bebaef2c0)" d="M 327.656324 172.544324 
L 328.264463 173.88288 
L 328.357892 174.090909 
L 329.586996 176.909091 
L 330.791516 179.727273 
L 330.826446 179.811685 
L 331.944579 182.545455 
L 333.070548 185.363636 
L 333.38843 186.185555 
L 334.151551 188.181818 
L 335.197339 191 
L 335.950413 193.093437 
L 336.208107 193.818182 
L 337.172088 196.636364 
L 338.105191 199.454545 
L 338.512397 200.736011 
L 338.994996 202.272727 
L 339.842782 205.090909 
L 340.656668 207.909091 
L 341.07438 209.42876 
L 341.427079 210.727273 
L 342.152006 213.545455 
L 342.839788 216.363636 
L 343.489111 219.181818 
L 343.636364 219.868843 
" style="fill:none;stroke:#7dff7a;"/>
   </g>
   <g id="LineCollection_9">
    <path clip-path="url(#p1bebaef2c0)" d="M 157.189932 315 
L 156.61157 314.458069 
L 154.208301 312.181818 
L 154.049587 312.030405 
L 151.487603 309.558379 
L 151.287976 309.363636 
L 148.92562 307.042446 
L 148.425007 306.545455 
L 146.363636 304.484109 
L 145.614482 303.727273 
L 143.955823 302.039329 
" style="fill:none;stroke:#800000;"/>
    <path clip-path="url(#p1bebaef2c0)" d="M 102.652164 253.221948 
L 102.489685 253 
L 100.44572 250.181818 
L 100.247934 249.906377 
L 98.438016 247.363636 
L 97.68595 246.297799 
L 96.460186 244.545455 
L 95.123967 242.618303 
L 94.511462 241.727273 
L 92.591596 238.909091 
L 92.561983 238.86511 
L 90.710148 236.090909 
L 90 235.01727 
" style="fill:none;stroke:#800000;"/>
    <path clip-path="url(#p1bebaef2c0)" d="M 277.456644 36 
L 279.586777 38.055957 
L 280.368285 38.818182 
L 282.14876 40.567299 
L 283.225785 41.636364 
L 284.710744 43.121099 
L 286.030798 44.454545 
L 287.272727 45.718291 
L 288.784915 47.272727 
L 289.834711 48.35984 
L 291.489659 50.090909 
L 291.71235 50.32558 
" style="fill:none;stroke:#800000;"/>
    <path clip-path="url(#p1bebaef2c0)" d="M 332.326993 99.718135 
L 333.110242 100.818182 
L 333.38843 101.212784 
L 335.082175 103.636364 
L 335.950413 104.889755 
L 337.025031 106.454545 
L 338.512397 108.639753 
L 338.939555 109.272727 
L 340.822279 112.090909 
L 341.07438 112.472468 
L 342.670554 114.909091 
L 343.636364 116.397165 
" style="fill:none;stroke:#800000;"/>
   </g>
   <g id="line2d_1">
    <defs>
     <path d="M 0 -3 
L -0.673542 -0.927051 
L -2.85317 -0.927051 
L -1.089814 0.354102 
L -1.763356 2.427051 
L -0 1.145898 
L 1.763356 2.427051 
L 1.089814 0.354102 
L 2.85317 -0.927051 
L 0.673542 -0.927051 
z
" id="m54d124bf29" style="stroke:#000000;stroke-linejoin:bevel;stroke-width:0.5;"/>
    </defs>
    <g clip-path="url(#p1bebaef2c0)">
     <use style="fill:#008000;stroke:#000000;stroke-linejoin:bevel;stroke-width:0.5;" x="281.867055835" xlink:href="#m54d124bf29" y="260.001292653"/>
    </g>
   </g>
   <g id="line2d_2">
    <g clip-path="url(#p1bebaef2c0)">
     <use style="fill:#008000;stroke:#000000;stroke-linejoin:bevel;stroke-width:0.5;" x="279.358111328" xlink:href="#m54d124bf29" y="256.334644231"/>
    </g>
   </g>
   <g id="line2d_3">
    <g clip-path="url(#p1bebaef2c0)">
     <use style="fill:#008000;stroke:#000000;stroke-linejoin:bevel;stroke-width:0.5;" x="276.927949353" xlink:href="#m54d124bf29" y="252.839309914"/>
    </g>
   </g>
   <g id="line2d_4">
    <g clip-path="url(#p1bebaef2c0)">
     <use style="fill:#008000;stroke:#000000;stroke-linejoin:bevel;stroke-width:0.5;" x="274.576354064" xlink:href="#m54d124bf29" y="249.505416012"/>
    </g>
   </g>
   <g id="line2d_5">
    <g clip-path="url(#p1bebaef2c0)">
     <use style="fill:#008000;stroke:#000000;stroke-linejoin:bevel;stroke-width:0.5;" x="272.302732223" xlink:href="#m54d124bf29" y="246.323868234"/>
    </g>
   </g>
   <g id="line2d_6">
    <g clip-path="url(#p1bebaef2c0)">
     <use style="fill:#008000;stroke:#000000;stroke-linejoin:bevel;stroke-width:0.5;" x="270.10617854" xlink:href="#m54d124bf29" y="243.286270982"/>
    </g>
   </g>
   <g id="line2d_7">
    <g clip-path="url(#p1bebaef2c0)">
     <use style="fill:#008000;stroke:#000000;stroke-linejoin:bevel;stroke-width:0.5;" x="267.98553189" xlink:href="#m54d124bf29" y="240.384856278"/>
    </g>
   </g>
   <g id="line2d_8">
    <g clip-path="url(#p1bebaef2c0)">
     <use style="fill:#008000;stroke:#000000;stroke-linejoin:bevel;stroke-width:0.5;" x="265.939423592" xlink:href="#m54d124bf29" y="237.612421112"/>
    </g>
   </g>
   <g id="line2d_9">
    <g clip-path="url(#p1bebaef2c0)">
     <use style="fill:#008000;stroke:#000000;stroke-linejoin:bevel;stroke-width:0.5;" x="263.96631883" xlink:href="#m54d124bf29" y="234.962272153"/>
    </g>
   </g>
   <g id="line2d_10">
    <g clip-path="url(#p1bebaef2c0)">
     <use style="fill:#008000;stroke:#000000;stroke-linejoin:bevel;stroke-width:0.5;" x="262.064552113" xlink:href="#m54d124bf29" y="232.428176894"/>
    </g>
   </g>
   <g id="patch_3">
    <path d="M 90 36 
L 343.636364 36 
" style="fill:none;stroke:#000000;stroke-linecap:square;stroke-linejoin:miter;"/>
   </g>
   <g id="patch_4">
    <path d="M 90 315 
L 90 36 
" style="fill:none;stroke:#000000;stroke-linecap:square;stroke-linejoin:miter;"/>
   </g>
   <g id="patch_5">
    <path d="M 90 315 
L 343.636364 315 
" style="fill:none;stroke:#000000;stroke-linecap:square;stroke-linejoin:miter;"/>
   </g>
   <g id="patch_6">
    <path d="M 343.636364 315 
L 343.636364 36 
" style="fill:none;stroke:#000000;stroke-linecap:square;stroke-linejoin:miter;"/>
   </g>
   <g id="matplotlib.axis_1">
    <g id="xtick_1">
     <g id="line2d_11">
      <defs>
       <path d="M 0 0 
L 0 -4 
" id="mcce2ffa77b" style="stroke:#000000;stroke-width:0.5;"/>
      </defs>
      <g>
       <use style="stroke:#000000;stroke-width:0.5;" x="115.363636364" xlink:href="#mcce2ffa77b" y="315.0"/>
      </g>
     </g>
     <g id="line2d_12">
      <defs>
       <path d="M 0 0 
L 0 4 
" id="m0bb9337d83" style="stroke:#000000;stroke-width:0.5;"/>
      </defs>
      <g>
       <use style="stroke:#000000;stroke-width:0.5;" x="115.363636364" xlink:href="#m0bb9337d83" y="36.0"/>
      </g>
     </g>
     <g id="text_1">
      <!-- −1 -->
      <defs>
       <path d="M 10.59375 35.5 
L 73.1875 35.5 
L 73.1875 27.203125 
L 10.59375 27.203125 
z
" id="BitstreamVeraSans-Roman-2212"/>
       <path d="M 12.40625 8.296875 
L 28.515625 8.296875 
L 28.515625 63.921875 
L 10.984375 60.40625 
L 10.984375 69.390625 
L 28.421875 72.90625 
L 38.28125 72.90625 
L 38.28125 8.296875 
L 54.390625 8.296875 
L 54.390625 0 
L 12.40625 0 
z
" id="BitstreamVeraSans-Roman-31"/>
      </defs>
      <g transform="translate(107.992542614 326.5984375)scale(0.1 -0.1)">
       <use xlink:href="#BitstreamVeraSans-Roman-2212"/>
       <use x="83.7890625" xlink:href="#BitstreamVeraSans-Roman-31"/>
      </g>
     </g>
    </g>
    <g id="xtick_2">
     <g id="line2d_13">
      <g>
       <use style="stroke:#000000;stroke-width:0.5;" x="157.636363636" xlink:href="#mcce2ffa77b" y="315.0"/>
      </g>
     </g>
     <g id="line2d_14">
      <g>
       <use style="stroke:#000000;stroke-width:0.5;" x="157.636363636" xlink:href="#m0bb9337d83" y="36.0"/>
      </g>
     </g>
     <g id="text_2">
      <!-- 0 -->
      <defs>
       <path d="M 31.78125 66.40625 
Q 24.171875 66.40625 20.328125 58.90625 
Q 16.5 51.421875 16.5 36.375 
Q 16.5 21.390625 20.328125 13.890625 
Q 24.171875 6.390625 31.78125 6.390625 
Q 39.453125 6.390625 43.28125 13.890625 
Q 47.125 21.390625 47.125 36.375 
Q 47.125 51.421875 43.28125 58.90625 
Q 39.453125 66.40625 31.78125 66.40625 
M 31.78125 74.21875 
Q 44.046875 74.21875 50.515625 64.515625 
Q 56.984375 54.828125 56.984375 36.375 
Q 56.984375 17.96875 50.515625 8.265625 
Q 44.046875 -1.421875 31.78125 -1.421875 
Q 19.53125 -1.421875 13.0625 8.265625 
Q 6.59375 17.96875 6.59375 36.375 
Q 6.59375 54.828125 13.0625 64.515625 
Q 19.53125 74.21875 31.78125 74.21875 
" id="BitstreamVeraSans-Roman-30"/>
      </defs>
      <g transform="translate(154.455113636 326.5984375)scale(0.1 -0.1)">
       <use xlink:href="#BitstreamVeraSans-Roman-30"/>
      </g>
     </g>
    </g>
    <g id="xtick_3">
     <g id="line2d_15">
      <g>
       <use style="stroke:#000000;stroke-width:0.5;" x="199.909090909" xlink:href="#mcce2ffa77b" y="315.0"/>
      </g>
     </g>
     <g id="line2d_16">
      <g>
       <use style="stroke:#000000;stroke-width:0.5;" x="199.909090909" xlink:href="#m0bb9337d83" y="36.0"/>
      </g>
     </g>
     <g id="text_3">
      <!-- 1 -->
      <g transform="translate(196.727840909 326.5984375)scale(0.1 -0.1)">
       <use xlink:href="#BitstreamVeraSans-Roman-31"/>
      </g>
     </g>
    </g>
    <g id="xtick_4">
     <g id="line2d_17">
      <g>
       <use style="stroke:#000000;stroke-width:0.5;" x="242.181818182" xlink:href="#mcce2ffa77b" y="315.0"/>
      </g>
     </g>
     <g id="line2d_18">
      <g>
       <use style="stroke:#000000;stroke-width:0.5;" x="242.181818182" xlink:href="#m0bb9337d83" y="36.0"/>
      </g>
     </g>
     <g id="text_4">
      <!-- 2 -->
      <defs>
       <path d="M 19.1875 8.296875 
L 53.609375 8.296875 
L 53.609375 0 
L 7.328125 0 
L 7.328125 8.296875 
Q 12.9375 14.109375 22.625 23.890625 
Q 32.328125 33.6875 34.8125 36.53125 
Q 39.546875 41.84375 41.421875 45.53125 
Q 43.3125 49.21875 43.3125 52.78125 
Q 43.3125 58.59375 39.234375 62.25 
Q 35.15625 65.921875 28.609375 65.921875 
Q 23.96875 65.921875 18.8125 64.3125 
Q 13.671875 62.703125 7.8125 59.421875 
L 7.8125 69.390625 
Q 13.765625 71.78125 18.9375 73 
Q 24.125 74.21875 28.421875 74.21875 
Q 39.75 74.21875 46.484375 68.546875 
Q 53.21875 62.890625 53.21875 53.421875 
Q 53.21875 48.921875 51.53125 44.890625 
Q 49.859375 40.875 45.40625 35.40625 
Q 44.1875 33.984375 37.640625 27.21875 
Q 31.109375 20.453125 19.1875 8.296875 
" id="BitstreamVeraSans-Roman-32"/>
      </defs>
      <g transform="translate(239.000568182 326.5984375)scale(0.1 -0.1)">
       <use xlink:href="#BitstreamVeraSans-Roman-32"/>
      </g>
     </g>
    </g>
    <g id="xtick_5">
     <g id="line2d_19">
      <g>
       <use style="stroke:#000000;stroke-width:0.5;" x="284.454545455" xlink:href="#mcce2ffa77b" y="315.0"/>
      </g>
     </g>
     <g id="line2d_20">
      <g>
       <use style="stroke:#000000;stroke-width:0.5;" x="284.454545455" xlink:href="#m0bb9337d83" y="36.0"/>
      </g>
     </g>
     <g id="text_5">
      <!-- 3 -->
      <defs>
       <path d="M 40.578125 39.3125 
Q 47.65625 37.796875 51.625 33 
Q 55.609375 28.21875 55.609375 21.1875 
Q 55.609375 10.40625 48.1875 4.484375 
Q 40.765625 -1.421875 27.09375 -1.421875 
Q 22.515625 -1.421875 17.65625 -0.515625 
Q 12.796875 0.390625 7.625 2.203125 
L 7.625 11.71875 
Q 11.71875 9.328125 16.59375 8.109375 
Q 21.484375 6.890625 26.8125 6.890625 
Q 36.078125 6.890625 40.9375 10.546875 
Q 45.796875 14.203125 45.796875 21.1875 
Q 45.796875 27.640625 41.28125 31.265625 
Q 36.765625 34.90625 28.71875 34.90625 
L 20.21875 34.90625 
L 20.21875 43.015625 
L 29.109375 43.015625 
Q 36.375 43.015625 40.234375 45.921875 
Q 44.09375 48.828125 44.09375 54.296875 
Q 44.09375 59.90625 40.109375 62.90625 
Q 36.140625 65.921875 28.71875 65.921875 
Q 24.65625 65.921875 20.015625 65.03125 
Q 15.375 64.15625 9.8125 62.3125 
L 9.8125 71.09375 
Q 15.4375 72.65625 20.34375 73.4375 
Q 25.25 74.21875 29.59375 74.21875 
Q 40.828125 74.21875 47.359375 69.109375 
Q 53.90625 64.015625 53.90625 55.328125 
Q 53.90625 49.265625 50.4375 45.09375 
Q 46.96875 40.921875 40.578125 39.3125 
" id="BitstreamVeraSans-Roman-33"/>
      </defs>
      <g transform="translate(281.273295455 326.5984375)scale(0.1 -0.1)">
       <use xlink:href="#BitstreamVeraSans-Roman-33"/>
      </g>
     </g>
    </g>
    <g id="xtick_6">
     <g id="line2d_21">
      <g>
       <use style="stroke:#000000;stroke-width:0.5;" x="326.727272727" xlink:href="#mcce2ffa77b" y="315.0"/>
      </g>
     </g>
     <g id="line2d_22">
      <g>
       <use style="stroke:#000000;stroke-width:0.5;" x="326.727272727" xlink:href="#m0bb9337d83" y="36.0"/>
      </g>
     </g>
     <g id="text_6">
      <!-- 4 -->
      <defs>
       <path d="M 37.796875 64.3125 
L 12.890625 25.390625 
L 37.796875 25.390625 
z
M 35.203125 72.90625 
L 47.609375 72.90625 
L 47.609375 25.390625 
L 58.015625 25.390625 
L 58.015625 17.1875 
L 47.609375 17.1875 
L 47.609375 0 
L 37.796875 0 
L 37.796875 17.1875 
L 4.890625 17.1875 
L 4.890625 26.703125 
z
" id="BitstreamVeraSans-Roman-34"/>
      </defs>
      <g transform="translate(323.546022727 326.5984375)scale(0.1 -0.1)">
       <use xlink:href="#BitstreamVeraSans-Roman-34"/>
      </g>
     </g>
    </g>
    <g id="text_7">
     <!-- $m$ -->
     <defs>
      <path d="M 7.71875 1.703125 
Q 7.71875 2.296875 7.8125 2.59375 
L 15.28125 32.421875 
Q 16.015625 35.203125 16.015625 37.3125 
Q 16.015625 41.609375 13.09375 41.609375 
Q 9.96875 41.609375 8.453125 37.859375 
Q 6.9375 34.125 5.515625 28.421875 
Q 5.515625 28.125 5.21875 27.953125 
Q 4.9375 27.78125 4.6875 27.78125 
L 3.515625 27.78125 
Q 3.171875 27.78125 2.921875 28.140625 
Q 2.6875 28.515625 2.6875 28.8125 
Q 3.765625 33.15625 4.765625 36.171875 
Q 5.765625 39.203125 7.890625 41.6875 
Q 10.015625 44.1875 13.1875 44.1875 
Q 16.9375 44.1875 19.8125 41.8125 
Q 22.703125 39.453125 22.703125 35.796875 
Q 25.6875 39.703125 29.6875 41.9375 
Q 33.6875 44.1875 38.1875 44.1875 
Q 42.921875 44.1875 46.359375 41.765625 
Q 49.8125 39.359375 49.8125 34.90625 
Q 52.875 39.265625 57 41.71875 
Q 61.140625 44.1875 66.015625 44.1875 
Q 71.1875 44.1875 74.328125 41.375 
Q 77.484375 38.578125 77.484375 33.40625 
Q 77.484375 29.296875 75.65625 23.484375 
Q 73.828125 17.671875 71.09375 10.5 
Q 69.671875 7.03125 69.671875 4.5 
Q 69.671875 1.515625 72.015625 1.515625 
Q 75.921875 1.515625 78.515625 5.703125 
Q 81.109375 9.90625 82.171875 14.703125 
Q 82.46875 15.28125 83.015625 15.28125 
L 84.1875 15.28125 
Q 84.578125 15.28125 84.84375 15.015625 
Q 85.109375 14.75 85.109375 14.40625 
Q 85.109375 14.3125 85.015625 14.109375 
Q 83.640625 8.453125 80.25 3.65625 
Q 76.859375 -1.125 71.78125 -1.125 
Q 68.265625 -1.125 65.765625 1.296875 
Q 63.28125 3.71875 63.28125 7.171875 
Q 63.28125 8.9375 64.109375 11.078125 
Q 66.9375 18.609375 68.8125 24.515625 
Q 70.703125 30.421875 70.703125 34.90625 
Q 70.703125 37.703125 69.578125 39.65625 
Q 68.453125 41.609375 65.828125 41.609375 
Q 60.359375 41.609375 56.34375 38.25 
Q 52.34375 34.90625 49.421875 29.390625 
Q 49.21875 28.421875 49.125 27.875 
L 42.671875 2.203125 
Q 42.328125 0.828125 41.125 -0.140625 
Q 39.9375 -1.125 38.484375 -1.125 
Q 37.3125 -1.125 36.40625 -0.34375 
Q 35.5 0.4375 35.5 1.703125 
Q 35.5 2.296875 35.59375 2.59375 
L 42 28.078125 
Q 43.015625 32.171875 43.015625 34.90625 
Q 43.015625 37.703125 41.859375 39.65625 
Q 40.71875 41.609375 37.984375 41.609375 
Q 34.328125 41.609375 31.25 39.984375 
Q 28.171875 38.375 25.875 35.71875 
Q 23.578125 33.0625 21.6875 29.390625 
L 14.890625 2.203125 
Q 14.546875 0.828125 13.34375 -0.140625 
Q 12.15625 -1.125 10.6875 -1.125 
Q 9.46875 -1.125 8.59375 -0.34375 
Q 7.71875 0.4375 7.71875 1.703125 
" id="Cmmi10-6d"/>
     </defs>
     <g transform="translate(208.018181818 348.875)scale(0.2 -0.2)">
      <use transform="translate(0.0 0.8125)" xlink:href="#Cmmi10-6d"/>
     </g>
    </g>
   </g>
   <g id="matplotlib.axis_2">
    <g id="ytick_1">
     <g id="line2d_23">
      <defs>
       <path d="M 0 0 
L 4 0 
" id="m3f586d88a9" style="stroke:#000000;stroke-width:0.5;"/>
      </defs>
      <g>
       <use style="stroke:#000000;stroke-width:0.5;" x="90.0" xlink:href="#m3f586d88a9" y="310.35"/>
      </g>
     </g>
     <g id="line2d_24">
      <defs>
       <path d="M 0 0 
L -4 0 
" id="m18fdfe05c0" style="stroke:#000000;stroke-width:0.5;"/>
      </defs>
      <g>
       <use style="stroke:#000000;stroke-width:0.5;" x="343.636363636" xlink:href="#m18fdfe05c0" y="310.35"/>
      </g>
     </g>
     <g id="text_8">
      <!-- −6 -->
      <defs>
       <path d="M 33.015625 40.375 
Q 26.375 40.375 22.484375 35.828125 
Q 18.609375 31.296875 18.609375 23.390625 
Q 18.609375 15.53125 22.484375 10.953125 
Q 26.375 6.390625 33.015625 6.390625 
Q 39.65625 6.390625 43.53125 10.953125 
Q 47.40625 15.53125 47.40625 23.390625 
Q 47.40625 31.296875 43.53125 35.828125 
Q 39.65625 40.375 33.015625 40.375 
M 52.59375 71.296875 
L 52.59375 62.3125 
Q 48.875 64.0625 45.09375 64.984375 
Q 41.3125 65.921875 37.59375 65.921875 
Q 27.828125 65.921875 22.671875 59.328125 
Q 17.53125 52.734375 16.796875 39.40625 
Q 19.671875 43.65625 24.015625 45.921875 
Q 28.375 48.1875 33.59375 48.1875 
Q 44.578125 48.1875 50.953125 41.515625 
Q 57.328125 34.859375 57.328125 23.390625 
Q 57.328125 12.15625 50.6875 5.359375 
Q 44.046875 -1.421875 33.015625 -1.421875 
Q 20.359375 -1.421875 13.671875 8.265625 
Q 6.984375 17.96875 6.984375 36.375 
Q 6.984375 53.65625 15.1875 63.9375 
Q 23.390625 74.21875 37.203125 74.21875 
Q 40.921875 74.21875 44.703125 73.484375 
Q 48.484375 72.75 52.59375 71.296875 
" id="BitstreamVeraSans-Roman-36"/>
      </defs>
      <g transform="translate(71.2578125 313.109375)scale(0.1 -0.1)">
       <use xlink:href="#BitstreamVeraSans-Roman-2212"/>
       <use x="83.7890625" xlink:href="#BitstreamVeraSans-Roman-36"/>
      </g>
     </g>
    </g>
    <g id="ytick_2">
     <g id="line2d_25">
      <g>
       <use style="stroke:#000000;stroke-width:0.5;" x="90.0" xlink:href="#m3f586d88a9" y="263.85"/>
      </g>
     </g>
     <g id="line2d_26">
      <g>
       <use style="stroke:#000000;stroke-width:0.5;" x="343.636363636" xlink:href="#m18fdfe05c0" y="263.85"/>
      </g>
     </g>
     <g id="text_9">
      <!-- −5 -->
      <defs>
       <path d="M 10.796875 72.90625 
L 49.515625 72.90625 
L 49.515625 64.59375 
L 19.828125 64.59375 
L 19.828125 46.734375 
Q 21.96875 47.46875 24.109375 47.828125 
Q 26.265625 48.1875 28.421875 48.1875 
Q 40.625 48.1875 47.75 41.5 
Q 54.890625 34.8125 54.890625 23.390625 
Q 54.890625 11.625 47.5625 5.09375 
Q 40.234375 -1.421875 26.90625 -1.421875 
Q 22.3125 -1.421875 17.546875 -0.640625 
Q 12.796875 0.140625 7.71875 1.703125 
L 7.71875 11.625 
Q 12.109375 9.234375 16.796875 8.0625 
Q 21.484375 6.890625 26.703125 6.890625 
Q 35.15625 6.890625 40.078125 11.328125 
Q 45.015625 15.765625 45.015625 23.390625 
Q 45.015625 31 40.078125 35.4375 
Q 35.15625 39.890625 26.703125 39.890625 
Q 22.75 39.890625 18.8125 39.015625 
Q 14.890625 38.140625 10.796875 36.28125 
z
" id="BitstreamVeraSans-Roman-35"/>
      </defs>
      <g transform="translate(71.2578125 266.609375)scale(0.1 -0.1)">
       <use xlink:href="#BitstreamVeraSans-Roman-2212"/>
       <use x="83.7890625" xlink:href="#BitstreamVeraSans-Roman-35"/>
      </g>
     </g>
    </g>
    <g id="ytick_3">
     <g id="line2d_27">
      <g>
       <use style="stroke:#000000;stroke-width:0.5;" x="90.0" xlink:href="#m3f586d88a9" y="217.35"/>
      </g>
     </g>
     <g id="line2d_28">
      <g>
       <use style="stroke:#000000;stroke-width:0.5;" x="343.636363636" xlink:href="#m18fdfe05c0" y="217.35"/>
      </g>
     </g>
     <g id="text_10">
      <!-- −4 -->
      <g transform="translate(71.2578125 220.109375)scale(0.1 -0.1)">
       <use xlink:href="#BitstreamVeraSans-Roman-2212"/>
       <use x="83.7890625" xlink:href="#BitstreamVeraSans-Roman-34"/>
      </g>
     </g>
    </g>
    <g id="ytick_4">
     <g id="line2d_29">
      <g>
       <use style="stroke:#000000;stroke-width:0.5;" x="90.0" xlink:href="#m3f586d88a9" y="170.85"/>
      </g>
     </g>
     <g id="line2d_30">
      <g>
       <use style="stroke:#000000;stroke-width:0.5;" x="343.636363636" xlink:href="#m18fdfe05c0" y="170.85"/>
      </g>
     </g>
     <g id="text_11">
      <!-- −3 -->
      <g transform="translate(71.2578125 173.609375)scale(0.1 -0.1)">
       <use xlink:href="#BitstreamVeraSans-Roman-2212"/>
       <use x="83.7890625" xlink:href="#BitstreamVeraSans-Roman-33"/>
      </g>
     </g>
    </g>
    <g id="ytick_5">
     <g id="line2d_31">
      <g>
       <use style="stroke:#000000;stroke-width:0.5;" x="90.0" xlink:href="#m3f586d88a9" y="124.35"/>
      </g>
     </g>
     <g id="line2d_32">
      <g>
       <use style="stroke:#000000;stroke-width:0.5;" x="343.636363636" xlink:href="#m18fdfe05c0" y="124.35"/>
      </g>
     </g>
     <g id="text_12">
      <!-- −2 -->
      <g transform="translate(71.2578125 127.109375)scale(0.1 -0.1)">
       <use xlink:href="#BitstreamVeraSans-Roman-2212"/>
       <use x="83.7890625" xlink:href="#BitstreamVeraSans-Roman-32"/>
      </g>
     </g>
    </g>
    <g id="ytick_6">
     <g id="line2d_33">
      <g>
       <use style="stroke:#000000;stroke-width:0.5;" x="90.0" xlink:href="#m3f586d88a9" y="77.85"/>
      </g>
     </g>
     <g id="line2d_34">
      <g>
       <use style="stroke:#000000;stroke-width:0.5;" x="343.636363636" xlink:href="#m18fdfe05c0" y="77.85"/>
      </g>
     </g>
     <g id="text_13">
      <!-- −1 -->
      <g transform="translate(71.2578125 80.609375)scale(0.1 -0.1)">
       <use xlink:href="#BitstreamVeraSans-Roman-2212"/>
       <use x="83.7890625" xlink:href="#BitstreamVeraSans-Roman-31"/>
      </g>
     </g>
    </g>
    <g id="text_14">
     <!-- $c$ -->
     <defs>
      <path d="M 11.71875 11.921875 
Q 11.71875 7.5625 13.9375 4.53125 
Q 16.15625 1.515625 20.3125 1.515625 
Q 26.265625 1.515625 31.75 4.25 
Q 37.25 6.984375 40.71875 11.8125 
Q 41.015625 12.109375 41.5 12.109375 
Q 42 12.109375 42.5 11.546875 
Q 43.015625 10.984375 43.015625 10.5 
Q 43.015625 10.109375 42.828125 9.90625 
Q 39.15625 4.78125 32.953125 1.828125 
Q 26.765625 -1.125 20.125 -1.125 
Q 15.328125 -1.125 11.671875 1.140625 
Q 8.015625 3.421875 6 7.21875 
Q 4 11.03125 4 15.828125 
Q 4 22.5625 7.765625 29.203125 
Q 11.53125 35.84375 17.78125 40.015625 
Q 24.03125 44.1875 30.90625 44.1875 
Q 35.40625 44.1875 38.984375 42.015625 
Q 42.578125 39.84375 42.578125 35.59375 
Q 42.578125 32.859375 40.984375 30.921875 
Q 39.40625 29 36.71875 29 
Q 35.109375 29 34 30 
Q 32.90625 31 32.90625 32.625 
Q 32.90625 34.96875 34.609375 36.625 
Q 36.328125 38.28125 38.625 38.28125 
L 38.8125 38.28125 
Q 37.640625 39.984375 35.421875 40.796875 
Q 33.203125 41.609375 30.8125 41.609375 
Q 24.953125 41.609375 20.546875 36.59375 
Q 16.15625 31.59375 13.9375 24.625 
Q 11.71875 17.671875 11.71875 11.921875 
" id="Cmmi10-63"/>
     </defs>
     <g transform="translate(62.0984375 179.9)rotate(-90.0)scale(0.2 -0.2)">
      <use transform="translate(0.0 0.8125)" xlink:href="#Cmmi10-63"/>
     </g>
    </g>
   </g>
   <g id="text_15">
    <g clip-path="url(#p1bebaef2c0)">
     <!-- 1.000 -->
     <defs>
      <path d="M 10.6875 12.40625 
L 21 12.40625 
L 21 0 
L 10.6875 0 
z
" id="BitstreamVeraSans-Roman-2e"/>
     </defs>
     <g style="fill:#000092;" transform="translate(186.126571511 147.974268125)rotate(-279.59902598082795)scale(0.15 -0.15)">
      <use xlink:href="#BitstreamVeraSans-Roman-31"/>
      <use x="63.623046875" xlink:href="#BitstreamVeraSans-Roman-2e"/>
      <use x="95.41015625" xlink:href="#BitstreamVeraSans-Roman-30"/>
      <use x="159.033203125" xlink:href="#BitstreamVeraSans-Roman-30"/>
      <use x="222.65625" xlink:href="#BitstreamVeraSans-Roman-30"/>
     </g>
    </g>
   </g>
   <g id="text_16">
    <g clip-path="url(#p1bebaef2c0)">
     <!-- 2.000 -->
     <g style="fill:#0000a4;" transform="translate(178.564761322 169.802083725)rotate(-303.71819154574865)scale(0.15 -0.15)">
      <use xlink:href="#BitstreamVeraSans-Roman-32"/>
      <use x="63.623046875" xlink:href="#BitstreamVeraSans-Roman-2e"/>
      <use x="95.41015625" xlink:href="#BitstreamVeraSans-Roman-30"/>
      <use x="159.033203125" xlink:href="#BitstreamVeraSans-Roman-30"/>
      <use x="222.65625" xlink:href="#BitstreamVeraSans-Roman-30"/>
     </g>
    </g>
   </g>
   <g id="text_17">
    <g clip-path="url(#p1bebaef2c0)">
     <!-- 4.000 -->
     <g style="fill:#0000c8;" transform="translate(235.156046569 146.445726896)rotate(-300.6065766503395)scale(0.15 -0.15)">
      <use xlink:href="#BitstreamVeraSans-Roman-34"/>
      <use x="63.623046875" xlink:href="#BitstreamVeraSans-Roman-2e"/>
      <use x="95.41015625" xlink:href="#BitstreamVeraSans-Roman-30"/>
      <use x="159.033203125" xlink:href="#BitstreamVeraSans-Roman-30"/>
      <use x="222.65625" xlink:href="#BitstreamVeraSans-Roman-30"/>
     </g>
    </g>
   </g>
   <g id="text_18">
    <g clip-path="url(#p1bebaef2c0)">
     <!-- 8.000 -->
     <defs>
      <path d="M 31.78125 34.625 
Q 24.75 34.625 20.71875 30.859375 
Q 16.703125 27.09375 16.703125 20.515625 
Q 16.703125 13.921875 20.71875 10.15625 
Q 24.75 6.390625 31.78125 6.390625 
Q 38.8125 6.390625 42.859375 10.171875 
Q 46.921875 13.96875 46.921875 20.515625 
Q 46.921875 27.09375 42.890625 30.859375 
Q 38.875 34.625 31.78125 34.625 
M 21.921875 38.8125 
Q 15.578125 40.375 12.03125 44.71875 
Q 8.5 49.078125 8.5 55.328125 
Q 8.5 64.0625 14.71875 69.140625 
Q 20.953125 74.21875 31.78125 74.21875 
Q 42.671875 74.21875 48.875 69.140625 
Q 55.078125 64.0625 55.078125 55.328125 
Q 55.078125 49.078125 51.53125 44.71875 
Q 48 40.375 41.703125 38.8125 
Q 48.828125 37.15625 52.796875 32.3125 
Q 56.78125 27.484375 56.78125 20.515625 
Q 56.78125 9.90625 50.3125 4.234375 
Q 43.84375 -1.421875 31.78125 -1.421875 
Q 19.734375 -1.421875 13.25 4.234375 
Q 6.78125 9.90625 6.78125 20.515625 
Q 6.78125 27.484375 10.78125 32.3125 
Q 14.796875 37.15625 21.921875 38.8125 
M 18.3125 54.390625 
Q 18.3125 48.734375 21.84375 45.5625 
Q 25.390625 42.390625 31.78125 42.390625 
Q 38.140625 42.390625 41.71875 45.5625 
Q 45.3125 48.734375 45.3125 54.390625 
Q 45.3125 60.0625 41.71875 63.234375 
Q 38.140625 66.40625 31.78125 66.40625 
Q 25.390625 66.40625 21.84375 63.234375 
Q 18.3125 60.0625 18.3125 54.390625 
" id="BitstreamVeraSans-Roman-38"/>
     </defs>
     <g style="fill:#0000ff;" transform="translate(178.484763056 97.7526834455)rotate(-341.61266261524776)scale(0.15 -0.15)">
      <use xlink:href="#BitstreamVeraSans-Roman-38"/>
      <use x="63.623046875" xlink:href="#BitstreamVeraSans-Roman-2e"/>
      <use x="95.41015625" xlink:href="#BitstreamVeraSans-Roman-30"/>
      <use x="159.033203125" xlink:href="#BitstreamVeraSans-Roman-30"/>
      <use x="222.65625" xlink:href="#BitstreamVeraSans-Roman-30"/>
     </g>
    </g>
   </g>
   <g id="text_19">
    <g clip-path="url(#p1bebaef2c0)">
     <!-- 16.000 -->
     <g style="fill:#0080ff;" transform="translate(179.757701287 246.505302528)rotate(-323.86820018618437)scale(0.15 -0.15)">
      <use xlink:href="#BitstreamVeraSans-Roman-31"/>
      <use x="63.623046875" xlink:href="#BitstreamVeraSans-Roman-36"/>
      <use x="127.24609375" xlink:href="#BitstreamVeraSans-Roman-2e"/>
      <use x="159.033203125" xlink:href="#BitstreamVeraSans-Roman-30"/>
      <use x="222.65625" xlink:href="#BitstreamVeraSans-Roman-30"/>
      <use x="286.279296875" xlink:href="#BitstreamVeraSans-Roman-30"/>
     </g>
    </g>
   </g>
   <g id="text_20">
    <g clip-path="url(#p1bebaef2c0)">
     <!-- 32.000 -->
     <g style="fill:#7dff7a;" transform="translate(103.749602051 187.663297494)rotate(-301.3914145880302)scale(0.15 -0.15)">
      <use xlink:href="#BitstreamVeraSans-Roman-33"/>
      <use x="63.623046875" xlink:href="#BitstreamVeraSans-Roman-32"/>
      <use x="127.24609375" xlink:href="#BitstreamVeraSans-Roman-2e"/>
      <use x="159.033203125" xlink:href="#BitstreamVeraSans-Roman-30"/>
      <use x="222.65625" xlink:href="#BitstreamVeraSans-Roman-30"/>
      <use x="286.279296875" xlink:href="#BitstreamVeraSans-Roman-30"/>
     </g>
    </g>
   </g>
   <g id="text_21">
    <g clip-path="url(#p1bebaef2c0)">
     <!-- 32.000 -->
     <g style="fill:#7dff7a;" transform="translate(296.013398678 123.654999766)rotate(-300.4818813266895)scale(0.15 -0.15)">
      <use xlink:href="#BitstreamVeraSans-Roman-33"/>
      <use x="63.623046875" xlink:href="#BitstreamVeraSans-Roman-32"/>
      <use x="127.24609375" xlink:href="#BitstreamVeraSans-Roman-2e"/>
      <use x="159.033203125" xlink:href="#BitstreamVeraSans-Roman-30"/>
      <use x="222.65625" xlink:href="#BitstreamVeraSans-Roman-30"/>
      <use x="286.279296875" xlink:href="#BitstreamVeraSans-Roman-30"/>
     </g>
    </g>
   </g>
   <g id="text_22">
    <g clip-path="url(#p1bebaef2c0)">
     <!-- 64.000 -->
     <g style="fill:#800000;" transform="translate(102.329841836 261.000215456)rotate(-310.22640392046674)scale(0.15 -0.15)">
      <use xlink:href="#BitstreamVeraSans-Roman-36"/>
      <use x="63.623046875" xlink:href="#BitstreamVeraSans-Roman-34"/>
      <use x="127.24609375" xlink:href="#BitstreamVeraSans-Roman-2e"/>
      <use x="159.033203125" xlink:href="#BitstreamVeraSans-Roman-30"/>
      <use x="222.65625" xlink:href="#BitstreamVeraSans-Roman-30"/>
      <use x="286.279296875" xlink:href="#BitstreamVeraSans-Roman-30"/>
     </g>
    </g>
   </g>
   <g id="text_23">
    <g clip-path="url(#p1bebaef2c0)">
     <!-- 64.000 -->
     <g style="fill:#800000;" transform="translate(293.029304585 56.6609184892)rotate(-309.4248432487277)scale(0.15 -0.15)">
      <use xlink:href="#BitstreamVeraSans-Roman-36"/>
      <use x="63.623046875" xlink:href="#BitstreamVeraSans-Roman-34"/>
      <use x="127.24609375" xlink:href="#BitstreamVeraSans-Roman-2e"/>
      <use x="159.033203125" xlink:href="#BitstreamVeraSans-Roman-30"/>
      <use x="222.65625" xlink:href="#BitstreamVeraSans-Roman-30"/>
      <use x="286.279296875" xlink:href="#BitstreamVeraSans-Roman-30"/>
     </g>
    </g>
   </g>
   <g id="text_24">
    <!-- Iteration 9 -->
    <defs>
     <path d="M 9.8125 72.90625 
L 19.671875 72.90625 
L 19.671875 0 
L 9.8125 0 
z
" id="BitstreamVeraSans-Roman-49"/>
     <path d="M 10.984375 1.515625 
L 10.984375 10.5 
Q 14.703125 8.734375 18.5 7.8125 
Q 22.3125 6.890625 25.984375 6.890625 
Q 35.75 6.890625 40.890625 13.453125 
Q 46.046875 20.015625 46.78125 33.40625 
Q 43.953125 29.203125 39.59375 26.953125 
Q 35.25 24.703125 29.984375 24.703125 
Q 19.046875 24.703125 12.671875 31.3125 
Q 6.296875 37.9375 6.296875 49.421875 
Q 6.296875 60.640625 12.9375 67.421875 
Q 19.578125 74.21875 30.609375 74.21875 
Q 43.265625 74.21875 49.921875 64.515625 
Q 56.59375 54.828125 56.59375 36.375 
Q 56.59375 19.140625 48.40625 8.859375 
Q 40.234375 -1.421875 26.421875 -1.421875 
Q 22.703125 -1.421875 18.890625 -0.6875 
Q 15.09375 0.046875 10.984375 1.515625 
M 30.609375 32.421875 
Q 37.25 32.421875 41.125 36.953125 
Q 45.015625 41.5 45.015625 49.421875 
Q 45.015625 57.28125 41.125 61.84375 
Q 37.25 66.40625 30.609375 66.40625 
Q 23.96875 66.40625 20.09375 61.84375 
Q 16.21875 57.28125 16.21875 49.421875 
Q 16.21875 41.5 20.09375 36.953125 
Q 23.96875 32.421875 30.609375 32.421875 
" id="BitstreamVeraSans-Roman-39"/>
     <path id="BitstreamVeraSans-Roman-20"/>
     <path d="M 9.421875 54.6875 
L 18.40625 54.6875 
L 18.40625 0 
L 9.421875 0 
z
M 9.421875 75.984375 
L 18.40625 75.984375 
L 18.40625 64.59375 
L 9.421875 64.59375 
z
" id="BitstreamVeraSans-Roman-69"/>
     <path d="M 34.28125 27.484375 
Q 23.390625 27.484375 19.1875 25 
Q 14.984375 22.515625 14.984375 16.5 
Q 14.984375 11.71875 18.140625 8.90625 
Q 21.296875 6.109375 26.703125 6.109375 
Q 34.1875 6.109375 38.703125 11.40625 
Q 43.21875 16.703125 43.21875 25.484375 
L 43.21875 27.484375 
z
M 52.203125 31.203125 
L 52.203125 0 
L 43.21875 0 
L 43.21875 8.296875 
Q 40.140625 3.328125 35.546875 0.953125 
Q 30.953125 -1.421875 24.3125 -1.421875 
Q 15.921875 -1.421875 10.953125 3.296875 
Q 6 8.015625 6 15.921875 
Q 6 25.140625 12.171875 29.828125 
Q 18.359375 34.515625 30.609375 34.515625 
L 43.21875 34.515625 
L 43.21875 35.40625 
Q 43.21875 41.609375 39.140625 45 
Q 35.0625 48.390625 27.6875 48.390625 
Q 23 48.390625 18.546875 47.265625 
Q 14.109375 46.140625 10.015625 43.890625 
L 10.015625 52.203125 
Q 14.9375 54.109375 19.578125 55.046875 
Q 24.21875 56 28.609375 56 
Q 40.484375 56 46.34375 49.84375 
Q 52.203125 43.703125 52.203125 31.203125 
" id="BitstreamVeraSans-Roman-61"/>
     <path d="M 30.609375 48.390625 
Q 23.390625 48.390625 19.1875 42.75 
Q 14.984375 37.109375 14.984375 27.296875 
Q 14.984375 17.484375 19.15625 11.84375 
Q 23.34375 6.203125 30.609375 6.203125 
Q 37.796875 6.203125 41.984375 11.859375 
Q 46.1875 17.53125 46.1875 27.296875 
Q 46.1875 37.015625 41.984375 42.703125 
Q 37.796875 48.390625 30.609375 48.390625 
M 30.609375 56 
Q 42.328125 56 49.015625 48.375 
Q 55.71875 40.765625 55.71875 27.296875 
Q 55.71875 13.875 49.015625 6.21875 
Q 42.328125 -1.421875 30.609375 -1.421875 
Q 18.84375 -1.421875 12.171875 6.21875 
Q 5.515625 13.875 5.515625 27.296875 
Q 5.515625 40.765625 12.171875 48.375 
Q 18.84375 56 30.609375 56 
" id="BitstreamVeraSans-Roman-6f"/>
     <path d="M 56.203125 29.59375 
L 56.203125 25.203125 
L 14.890625 25.203125 
Q 15.484375 15.921875 20.484375 11.0625 
Q 25.484375 6.203125 34.421875 6.203125 
Q 39.59375 6.203125 44.453125 7.46875 
Q 49.3125 8.734375 54.109375 11.28125 
L 54.109375 2.78125 
Q 49.265625 0.734375 44.1875 -0.34375 
Q 39.109375 -1.421875 33.890625 -1.421875 
Q 20.796875 -1.421875 13.15625 6.1875 
Q 5.515625 13.8125 5.515625 26.8125 
Q 5.515625 40.234375 12.765625 48.109375 
Q 20.015625 56 32.328125 56 
Q 43.359375 56 49.78125 48.890625 
Q 56.203125 41.796875 56.203125 29.59375 
M 47.21875 32.234375 
Q 47.125 39.59375 43.09375 43.984375 
Q 39.0625 48.390625 32.421875 48.390625 
Q 24.90625 48.390625 20.390625 44.140625 
Q 15.875 39.890625 15.1875 32.171875 
z
" id="BitstreamVeraSans-Roman-65"/>
     <path d="M 54.890625 33.015625 
L 54.890625 0 
L 45.90625 0 
L 45.90625 32.71875 
Q 45.90625 40.484375 42.875 44.328125 
Q 39.84375 48.1875 33.796875 48.1875 
Q 26.515625 48.1875 22.3125 43.546875 
Q 18.109375 38.921875 18.109375 30.90625 
L 18.109375 0 
L 9.078125 0 
L 9.078125 54.6875 
L 18.109375 54.6875 
L 18.109375 46.1875 
Q 21.34375 51.125 25.703125 53.5625 
Q 30.078125 56 35.796875 56 
Q 45.21875 56 50.046875 50.171875 
Q 54.890625 44.34375 54.890625 33.015625 
" id="BitstreamVeraSans-Roman-6e"/>
     <path d="M 41.109375 46.296875 
Q 39.59375 47.171875 37.8125 47.578125 
Q 36.03125 48 33.890625 48 
Q 26.265625 48 22.1875 43.046875 
Q 18.109375 38.09375 18.109375 28.8125 
L 18.109375 0 
L 9.078125 0 
L 9.078125 54.6875 
L 18.109375 54.6875 
L 18.109375 46.1875 
Q 20.953125 51.171875 25.484375 53.578125 
Q 30.03125 56 36.53125 56 
Q 37.453125 56 38.578125 55.875 
Q 39.703125 55.765625 41.0625 55.515625 
z
" id="BitstreamVeraSans-Roman-72"/>
     <path d="M 18.3125 70.21875 
L 18.3125 54.6875 
L 36.8125 54.6875 
L 36.8125 47.703125 
L 18.3125 47.703125 
L 18.3125 18.015625 
Q 18.3125 11.328125 20.140625 9.421875 
Q 21.96875 7.515625 27.59375 7.515625 
L 36.8125 7.515625 
L 36.8125 0 
L 27.59375 0 
Q 17.1875 0 13.234375 3.875 
Q 9.28125 7.765625 9.28125 18.015625 
L 9.28125 47.703125 
L 2.6875 47.703125 
L 2.6875 54.6875 
L 9.28125 54.6875 
L 9.28125 70.21875 
z
" id="BitstreamVeraSans-Roman-74"/>
    </defs>
    <g transform="translate(164.860369318 31.0)scale(0.2 -0.2)">
     <use xlink:href="#BitstreamVeraSans-Roman-49"/>
     <use x="29.4921875" xlink:href="#BitstreamVeraSans-Roman-74"/>
     <use x="68.701171875" xlink:href="#BitstreamVeraSans-Roman-65"/>
     <use x="130.224609375" xlink:href="#BitstreamVeraSans-Roman-72"/>
     <use x="171.337890625" xlink:href="#BitstreamVeraSans-Roman-61"/>
     <use x="232.6171875" xlink:href="#BitstreamVeraSans-Roman-74"/>
     <use x="271.826171875" xlink:href="#BitstreamVeraSans-Roman-69"/>
     <use x="299.609375" xlink:href="#BitstreamVeraSans-Roman-6f"/>
     <use x="360.791015625" xlink:href="#BitstreamVeraSans-Roman-6e"/>
     <use x="424.169921875" xlink:href="#BitstreamVeraSans-Roman-20"/>
     <use x="455.95703125" xlink:href="#BitstreamVeraSans-Roman-39"/>
    </g>
   </g>
  </g>
  <g id="axes_2">
   <g id="patch_7">
    <path d="M 394.363636 315 
L 648 315 
L 648 36 
L 394.363636 36 
L 394.363636 315 
z
" style="fill:none;"/>
   </g>
   <g id="line2d_35">
    <defs>
     <path d="M 0 5 
C 1.326016 5 2.597899 4.473168 3.535534 3.535534 
C 4.473168 2.597899 5 1.326016 5 0 
C 5 -1.326016 4.473168 -2.597899 3.535534 -3.535534 
C 2.597899 -4.473168 1.326016 -5 0 -5 
C -1.326016 -5 -2.597899 -4.473168 -3.535534 -3.535534 
C -4.473168 -2.597899 -5 -1.326016 -5 0 
C -5 1.326016 -4.473168 2.597899 -3.535534 3.535534 
C -2.597899 4.473168 -1.326016 5 0 5 
z
" id="me36b6cdb38" style="stroke:#000000;stroke-width:0.5;"/>
    </defs>
    <g clip-path="url(#p46d9b632fe)">
     <use style="fill:#ff0000;stroke:#000000;stroke-width:0.5;" x="610.23305722" xlink:href="#me36b6cdb38" y="34.1652765393"/>
     <use style="fill:#ff0000;stroke:#000000;stroke-width:0.5;" x="501.658987223" xlink:href="#me36b6cdb38" y="96.7235524401"/>
     <use style="fill:#ff0000;stroke:#000000;stroke-width:0.5;" x="578.726773982" xlink:href="#me36b6cdb38" y="50.1633739494"/>
     <use style="fill:#ff0000;stroke:#000000;stroke-width:0.5;" x="411.913373718" xlink:href="#me36b6cdb38" y="145.337683772"/>
    </g>
   </g>
   <g id="line2d_36">
    <path clip-path="url(#p46d9b632fe)" d="M 394.363636 238.086888 
L 628.98866 -1 
" style="fill:none;stroke:#0000ff;stroke-linecap:square;stroke-width:3.0;"/>
   </g>
   <g id="patch_8">
    <path d="M 394.363636 36 
L 648 36 
" style="fill:none;stroke:#000000;stroke-linecap:square;stroke-linejoin:miter;"/>
   </g>
   <g id="patch_9">
    <path d="M 394.363636 315 
L 394.363636 36 
" style="fill:none;stroke:#000000;stroke-linecap:square;stroke-linejoin:miter;"/>
   </g>
   <g id="patch_10">
    <path d="M 394.363636 315 
L 648 315 
" style="fill:none;stroke:#000000;stroke-linecap:square;stroke-linejoin:miter;"/>
   </g>
   <g id="patch_11">
    <path d="M 648 315 
L 648 36 
" style="fill:none;stroke:#000000;stroke-linecap:square;stroke-linejoin:miter;"/>
   </g>
   <g id="matplotlib.axis_3">
    <g id="xtick_7">
     <g id="line2d_37">
      <g>
       <use style="stroke:#000000;stroke-width:0.5;" x="394.363636364" xlink:href="#mcce2ffa77b" y="315.0"/>
      </g>
     </g>
     <g id="line2d_38">
      <g>
       <use style="stroke:#000000;stroke-width:0.5;" x="394.363636364" xlink:href="#m0bb9337d83" y="36.0"/>
      </g>
     </g>
     <g id="text_25">
      <!-- −1.0 -->
      <g transform="translate(382.222230114 326.5984375)scale(0.1 -0.1)">
       <use xlink:href="#BitstreamVeraSans-Roman-2212"/>
       <use x="83.7890625" xlink:href="#BitstreamVeraSans-Roman-31"/>
       <use x="147.412109375" xlink:href="#BitstreamVeraSans-Roman-2e"/>
       <use x="179.19921875" xlink:href="#BitstreamVeraSans-Roman-30"/>
      </g>
     </g>
    </g>
    <g id="xtick_8">
     <g id="line2d_39">
      <g>
       <use style="stroke:#000000;stroke-width:0.5;" x="436.636363636" xlink:href="#mcce2ffa77b" y="315.0"/>
      </g>
     </g>
     <g id="line2d_40">
      <g>
       <use style="stroke:#000000;stroke-width:0.5;" x="436.636363636" xlink:href="#m0bb9337d83" y="36.0"/>
      </g>
     </g>
     <g id="text_26">
      <!-- −0.5 -->
      <g transform="translate(424.494957386 326.5984375)scale(0.1 -0.1)">
       <use xlink:href="#BitstreamVeraSans-Roman-2212"/>
       <use x="83.7890625" xlink:href="#BitstreamVeraSans-Roman-30"/>
       <use x="147.412109375" xlink:href="#BitstreamVeraSans-Roman-2e"/>
       <use x="179.19921875" xlink:href="#BitstreamVeraSans-Roman-35"/>
      </g>
     </g>
    </g>
    <g id="xtick_9">
     <g id="line2d_41">
      <g>
       <use style="stroke:#000000;stroke-width:0.5;" x="478.909090909" xlink:href="#mcce2ffa77b" y="315.0"/>
      </g>
     </g>
     <g id="line2d_42">
      <g>
       <use style="stroke:#000000;stroke-width:0.5;" x="478.909090909" xlink:href="#m0bb9337d83" y="36.0"/>
      </g>
     </g>
     <g id="text_27">
      <!-- 0.0 -->
      <g transform="translate(470.957528409 326.5984375)scale(0.1 -0.1)">
       <use xlink:href="#BitstreamVeraSans-Roman-30"/>
       <use x="63.623046875" xlink:href="#BitstreamVeraSans-Roman-2e"/>
       <use x="95.41015625" xlink:href="#BitstreamVeraSans-Roman-30"/>
      </g>
     </g>
    </g>
    <g id="xtick_10">
     <g id="line2d_43">
      <g>
       <use style="stroke:#000000;stroke-width:0.5;" x="521.181818182" xlink:href="#mcce2ffa77b" y="315.0"/>
      </g>
     </g>
     <g id="line2d_44">
      <g>
       <use style="stroke:#000000;stroke-width:0.5;" x="521.181818182" xlink:href="#m0bb9337d83" y="36.0"/>
      </g>
     </g>
     <g id="text_28">
      <!-- 0.5 -->
      <g transform="translate(513.230255682 326.5984375)scale(0.1 -0.1)">
       <use xlink:href="#BitstreamVeraSans-Roman-30"/>
       <use x="63.623046875" xlink:href="#BitstreamVeraSans-Roman-2e"/>
       <use x="95.41015625" xlink:href="#BitstreamVeraSans-Roman-35"/>
      </g>
     </g>
    </g>
    <g id="xtick_11">
     <g id="line2d_45">
      <g>
       <use style="stroke:#000000;stroke-width:0.5;" x="563.454545455" xlink:href="#mcce2ffa77b" y="315.0"/>
      </g>
     </g>
     <g id="line2d_46">
      <g>
       <use style="stroke:#000000;stroke-width:0.5;" x="563.454545455" xlink:href="#m0bb9337d83" y="36.0"/>
      </g>
     </g>
     <g id="text_29">
      <!-- 1.0 -->
      <g transform="translate(555.502982955 326.5984375)scale(0.1 -0.1)">
       <use xlink:href="#BitstreamVeraSans-Roman-31"/>
       <use x="63.623046875" xlink:href="#BitstreamVeraSans-Roman-2e"/>
       <use x="95.41015625" xlink:href="#BitstreamVeraSans-Roman-30"/>
      </g>
     </g>
    </g>
    <g id="xtick_12">
     <g id="line2d_47">
      <g>
       <use style="stroke:#000000;stroke-width:0.5;" x="605.727272727" xlink:href="#mcce2ffa77b" y="315.0"/>
      </g>
     </g>
     <g id="line2d_48">
      <g>
       <use style="stroke:#000000;stroke-width:0.5;" x="605.727272727" xlink:href="#m0bb9337d83" y="36.0"/>
      </g>
     </g>
     <g id="text_30">
      <!-- 1.5 -->
      <g transform="translate(597.775710227 326.5984375)scale(0.1 -0.1)">
       <use xlink:href="#BitstreamVeraSans-Roman-31"/>
       <use x="63.623046875" xlink:href="#BitstreamVeraSans-Roman-2e"/>
       <use x="95.41015625" xlink:href="#BitstreamVeraSans-Roman-35"/>
      </g>
     </g>
    </g>
    <g id="xtick_13">
     <g id="line2d_49">
      <g>
       <use style="stroke:#000000;stroke-width:0.5;" x="648.0" xlink:href="#mcce2ffa77b" y="315.0"/>
      </g>
     </g>
     <g id="line2d_50">
      <g>
       <use style="stroke:#000000;stroke-width:0.5;" x="648.0" xlink:href="#m0bb9337d83" y="36.0"/>
      </g>
     </g>
     <g id="text_31">
      <!-- 2.0 -->
      <g transform="translate(640.0484375 326.5984375)scale(0.1 -0.1)">
       <use xlink:href="#BitstreamVeraSans-Roman-32"/>
       <use x="63.623046875" xlink:href="#BitstreamVeraSans-Roman-2e"/>
       <use x="95.41015625" xlink:href="#BitstreamVeraSans-Roman-30"/>
      </g>
     </g>
    </g>
    <g id="text_32">
     <!-- $x$ -->
     <defs>
      <path d="M 7.8125 2.875 
Q 9.578125 1.515625 12.796875 1.515625 
Q 15.921875 1.515625 18.3125 4.515625 
Q 20.703125 7.515625 21.578125 11.078125 
L 26.125 28.8125 
Q 27.203125 33.640625 27.203125 35.40625 
Q 27.203125 37.890625 25.8125 39.75 
Q 24.421875 41.609375 21.921875 41.609375 
Q 18.75 41.609375 15.96875 39.625 
Q 13.1875 37.640625 11.28125 34.59375 
Q 9.375 31.546875 8.59375 28.421875 
Q 8.40625 27.78125 7.8125 27.78125 
L 6.59375 27.78125 
Q 5.8125 27.78125 5.8125 28.71875 
L 5.8125 29 
Q 6.78125 32.71875 9.125 36.25 
Q 11.46875 39.796875 14.859375 41.984375 
Q 18.265625 44.1875 22.125 44.1875 
Q 25.78125 44.1875 28.734375 42.234375 
Q 31.6875 40.28125 32.90625 36.921875 
Q 34.625 39.984375 37.28125 42.078125 
Q 39.9375 44.1875 43.109375 44.1875 
Q 45.265625 44.1875 47.5 43.421875 
Q 49.75 42.671875 51.171875 41.109375 
Q 52.59375 39.546875 52.59375 37.203125 
Q 52.59375 34.671875 50.953125 32.828125 
Q 49.3125 31 46.78125 31 
Q 45.171875 31 44.09375 32.03125 
Q 43.015625 33.0625 43.015625 34.625 
Q 43.015625 36.71875 44.453125 38.296875 
Q 45.90625 39.890625 47.90625 40.1875 
Q 46.09375 41.609375 42.921875 41.609375 
Q 39.703125 41.609375 37.328125 38.625 
Q 34.96875 35.640625 33.984375 31.984375 
L 29.59375 14.3125 
Q 28.515625 10.296875 28.515625 7.71875 
Q 28.515625 5.171875 29.953125 3.34375 
Q 31.390625 1.515625 33.796875 1.515625 
Q 38.484375 1.515625 42.15625 5.640625 
Q 45.84375 9.765625 47.015625 14.703125 
Q 47.21875 15.28125 47.796875 15.28125 
L 49.03125 15.28125 
Q 49.421875 15.28125 49.65625 15.015625 
Q 49.90625 14.75 49.90625 14.40625 
Q 49.90625 14.3125 49.8125 14.109375 
Q 48.390625 8.15625 43.84375 3.515625 
Q 39.3125 -1.125 33.59375 -1.125 
Q 29.9375 -1.125 26.984375 0.84375 
Q 24.03125 2.828125 22.796875 6.203125 
Q 21.234375 3.265625 18.46875 1.0625 
Q 15.71875 -1.125 12.59375 -1.125 
Q 10.453125 -1.125 8.171875 -0.359375 
Q 5.90625 0.390625 4.484375 1.953125 
Q 3.078125 3.515625 3.078125 5.90625 
Q 3.078125 8.25 4.703125 10.171875 
Q 6.34375 12.109375 8.796875 12.109375 
Q 10.453125 12.109375 11.578125 11.109375 
Q 12.703125 10.109375 12.703125 8.5 
Q 12.703125 6.390625 11.296875 4.828125 
Q 9.90625 3.265625 7.8125 2.875 
" id="Cmmi10-78"/>
     </defs>
     <g transform="translate(515.381818182 348.875)scale(0.2 -0.2)">
      <use transform="translate(0.0 0.8125)" xlink:href="#Cmmi10-78"/>
     </g>
    </g>
   </g>
   <g id="matplotlib.axis_4">
    <g id="ytick_7">
     <g id="line2d_51">
      <g>
       <use style="stroke:#000000;stroke-width:0.5;" x="394.363636364" xlink:href="#m3f586d88a9" y="315.0"/>
      </g>
     </g>
     <g id="line2d_52">
      <g>
       <use style="stroke:#000000;stroke-width:0.5;" x="648.0" xlink:href="#m18fdfe05c0" y="315.0"/>
      </g>
     </g>
     <g id="text_33">
      <!-- −9 -->
      <g transform="translate(375.621448864 317.759375)scale(0.1 -0.1)">
       <use xlink:href="#BitstreamVeraSans-Roman-2212"/>
       <use x="83.7890625" xlink:href="#BitstreamVeraSans-Roman-39"/>
      </g>
     </g>
    </g>
    <g id="ytick_8">
     <g id="line2d_53">
      <g>
       <use style="stroke:#000000;stroke-width:0.5;" x="394.363636364" xlink:href="#m3f586d88a9" y="280.125"/>
      </g>
     </g>
     <g id="line2d_54">
      <g>
       <use style="stroke:#000000;stroke-width:0.5;" x="648.0" xlink:href="#m18fdfe05c0" y="280.125"/>
      </g>
     </g>
     <g id="text_34">
      <!-- −8 -->
      <g transform="translate(375.621448864 282.884375)scale(0.1 -0.1)">
       <use xlink:href="#BitstreamVeraSans-Roman-2212"/>
       <use x="83.7890625" xlink:href="#BitstreamVeraSans-Roman-38"/>
      </g>
     </g>
    </g>
    <g id="ytick_9">
     <g id="line2d_55">
      <g>
       <use style="stroke:#000000;stroke-width:0.5;" x="394.363636364" xlink:href="#m3f586d88a9" y="245.25"/>
      </g>
     </g>
     <g id="line2d_56">
      <g>
       <use style="stroke:#000000;stroke-width:0.5;" x="648.0" xlink:href="#m18fdfe05c0" y="245.25"/>
      </g>
     </g>
     <g id="text_35">
      <!-- −7 -->
      <defs>
       <path d="M 8.203125 72.90625 
L 55.078125 72.90625 
L 55.078125 68.703125 
L 28.609375 0 
L 18.3125 0 
L 43.21875 64.59375 
L 8.203125 64.59375 
z
" id="BitstreamVeraSans-Roman-37"/>
      </defs>
      <g transform="translate(375.621448864 248.009375)scale(0.1 -0.1)">
       <use xlink:href="#BitstreamVeraSans-Roman-2212"/>
       <use x="83.7890625" xlink:href="#BitstreamVeraSans-Roman-37"/>
      </g>
     </g>
    </g>
    <g id="ytick_10">
     <g id="line2d_57">
      <g>
       <use style="stroke:#000000;stroke-width:0.5;" x="394.363636364" xlink:href="#m3f586d88a9" y="210.375"/>
      </g>
     </g>
     <g id="line2d_58">
      <g>
       <use style="stroke:#000000;stroke-width:0.5;" x="648.0" xlink:href="#m18fdfe05c0" y="210.375"/>
      </g>
     </g>
     <g id="text_36">
      <!-- −6 -->
      <g transform="translate(375.621448864 213.134375)scale(0.1 -0.1)">
       <use xlink:href="#BitstreamVeraSans-Roman-2212"/>
       <use x="83.7890625" xlink:href="#BitstreamVeraSans-Roman-36"/>
      </g>
     </g>
    </g>
    <g id="ytick_11">
     <g id="line2d_59">
      <g>
       <use style="stroke:#000000;stroke-width:0.5;" x="394.363636364" xlink:href="#m3f586d88a9" y="175.5"/>
      </g>
     </g>
     <g id="line2d_60">
      <g>
       <use style="stroke:#000000;stroke-width:0.5;" x="648.0" xlink:href="#m18fdfe05c0" y="175.5"/>
      </g>
     </g>
     <g id="text_37">
      <!-- −5 -->
      <g transform="translate(375.621448864 178.259375)scale(0.1 -0.1)">
       <use xlink:href="#BitstreamVeraSans-Roman-2212"/>
       <use x="83.7890625" xlink:href="#BitstreamVeraSans-Roman-35"/>
      </g>
     </g>
    </g>
    <g id="ytick_12">
     <g id="line2d_61">
      <g>
       <use style="stroke:#000000;stroke-width:0.5;" x="394.363636364" xlink:href="#m3f586d88a9" y="140.625"/>
      </g>
     </g>
     <g id="line2d_62">
      <g>
       <use style="stroke:#000000;stroke-width:0.5;" x="648.0" xlink:href="#m18fdfe05c0" y="140.625"/>
      </g>
     </g>
     <g id="text_38">
      <!-- −4 -->
      <g transform="translate(375.621448864 143.384375)scale(0.1 -0.1)">
       <use xlink:href="#BitstreamVeraSans-Roman-2212"/>
       <use x="83.7890625" xlink:href="#BitstreamVeraSans-Roman-34"/>
      </g>
     </g>
    </g>
    <g id="ytick_13">
     <g id="line2d_63">
      <g>
       <use style="stroke:#000000;stroke-width:0.5;" x="394.363636364" xlink:href="#m3f586d88a9" y="105.75"/>
      </g>
     </g>
     <g id="line2d_64">
      <g>
       <use style="stroke:#000000;stroke-width:0.5;" x="648.0" xlink:href="#m18fdfe05c0" y="105.75"/>
      </g>
     </g>
     <g id="text_39">
      <!-- −3 -->
      <g transform="translate(375.621448864 108.509375)scale(0.1 -0.1)">
       <use xlink:href="#BitstreamVeraSans-Roman-2212"/>
       <use x="83.7890625" xlink:href="#BitstreamVeraSans-Roman-33"/>
      </g>
     </g>
    </g>
    <g id="ytick_14">
     <g id="line2d_65">
      <g>
       <use style="stroke:#000000;stroke-width:0.5;" x="394.363636364" xlink:href="#m3f586d88a9" y="70.875"/>
      </g>
     </g>
     <g id="line2d_66">
      <g>
       <use style="stroke:#000000;stroke-width:0.5;" x="648.0" xlink:href="#m18fdfe05c0" y="70.875"/>
      </g>
     </g>
     <g id="text_40">
      <!-- −2 -->
      <g transform="translate(375.621448864 73.634375)scale(0.1 -0.1)">
       <use xlink:href="#BitstreamVeraSans-Roman-2212"/>
       <use x="83.7890625" xlink:href="#BitstreamVeraSans-Roman-32"/>
      </g>
     </g>
    </g>
    <g id="ytick_15">
     <g id="line2d_67">
      <g>
       <use style="stroke:#000000;stroke-width:0.5;" x="394.363636364" xlink:href="#m3f586d88a9" y="36.0"/>
      </g>
     </g>
     <g id="line2d_68">
      <g>
       <use style="stroke:#000000;stroke-width:0.5;" x="648.0" xlink:href="#m18fdfe05c0" y="36.0"/>
      </g>
     </g>
     <g id="text_41">
      <!-- −1 -->
      <g transform="translate(375.621448864 38.759375)scale(0.1 -0.1)">
       <use xlink:href="#BitstreamVeraSans-Roman-2212"/>
       <use x="83.7890625" xlink:href="#BitstreamVeraSans-Roman-31"/>
      </g>
     </g>
    </g>
    <g id="text_42">
     <!-- $y$ -->
     <defs>
      <path d="M 8.40625 -14.3125 
Q 10.5 -17.921875 15.71875 -17.921875 
Q 20.453125 -17.921875 23.921875 -14.59375 
Q 27.390625 -11.28125 29.515625 -6.5625 
Q 31.640625 -1.859375 32.8125 3.078125 
Q 28.375 -1.125 23.1875 -1.125 
Q 19.234375 -1.125 16.453125 0.234375 
Q 13.671875 1.609375 12.125 4.3125 
Q 10.59375 7.03125 10.59375 10.890625 
Q 10.59375 14.15625 11.46875 17.59375 
Q 12.359375 21.046875 13.9375 25.265625 
Q 15.53125 29.5 16.703125 32.625 
Q 18.015625 36.28125 18.015625 38.625 
Q 18.015625 41.609375 15.828125 41.609375 
Q 11.859375 41.609375 9.296875 37.53125 
Q 6.734375 33.453125 5.515625 28.421875 
Q 5.328125 27.78125 4.6875 27.78125 
L 3.515625 27.78125 
Q 2.6875 27.78125 2.6875 28.71875 
L 2.6875 29 
Q 4.296875 34.96875 7.609375 39.578125 
Q 10.9375 44.1875 16.015625 44.1875 
Q 19.578125 44.1875 22.046875 41.84375 
Q 24.515625 39.5 24.515625 35.890625 
Q 24.515625 34.03125 23.6875 31.984375 
Q 23.25 30.765625 21.6875 26.65625 
Q 20.125 22.5625 19.28125 19.875 
Q 18.453125 17.1875 17.921875 14.59375 
Q 17.390625 12.015625 17.390625 9.421875 
Q 17.390625 6.109375 18.796875 3.8125 
Q 20.21875 1.515625 23.296875 1.515625 
Q 29.5 1.515625 34.421875 9.078125 
L 42 39.890625 
Q 42.328125 41.21875 43.546875 42.15625 
Q 44.78125 43.109375 46.1875 43.109375 
Q 47.40625 43.109375 48.3125 42.328125 
Q 49.21875 41.546875 49.21875 40.28125 
Q 49.21875 39.703125 49.125 39.5 
L 39.203125 -0.296875 
Q 37.890625 -5.421875 34.375 -10.109375 
Q 30.859375 -14.796875 25.90625 -17.65625 
Q 20.953125 -20.515625 15.578125 -20.515625 
Q 12.984375 -20.515625 10.4375 -19.5 
Q 7.90625 -18.5 6.34375 -16.5 
Q 4.78125 -14.5 4.78125 -11.8125 
Q 4.78125 -9.078125 6.390625 -7.078125 
Q 8.015625 -5.078125 10.6875 -5.078125 
Q 12.3125 -5.078125 13.40625 -6.078125 
Q 14.5 -7.078125 14.5 -8.6875 
Q 14.5 -10.984375 12.78125 -12.6875 
Q 11.078125 -14.40625 8.796875 -14.40625 
Q 8.6875 -14.359375 8.59375 -14.328125 
Q 8.5 -14.3125 8.40625 -14.3125 
" id="Cmmi10-79"/>
     </defs>
     <g transform="translate(366.421448864 180.5)rotate(-90.0)scale(0.2 -0.2)">
      <use transform="translate(0.0 0.8125)" xlink:href="#Cmmi10-79"/>
     </g>
    </g>
   </g>
   <g id="text_43">
    <!-- Best Fit -->
    <defs>
     <path d="M 19.671875 34.8125 
L 19.671875 8.109375 
L 35.5 8.109375 
Q 43.453125 8.109375 47.28125 11.40625 
Q 51.125 14.703125 51.125 21.484375 
Q 51.125 28.328125 47.28125 31.5625 
Q 43.453125 34.8125 35.5 34.8125 
z
M 19.671875 64.796875 
L 19.671875 42.828125 
L 34.28125 42.828125 
Q 41.5 42.828125 45.03125 45.53125 
Q 48.578125 48.25 48.578125 53.8125 
Q 48.578125 59.328125 45.03125 62.0625 
Q 41.5 64.796875 34.28125 64.796875 
z
M 9.8125 72.90625 
L 35.015625 72.90625 
Q 46.296875 72.90625 52.390625 68.21875 
Q 58.5 63.53125 58.5 54.890625 
Q 58.5 48.1875 55.375 44.234375 
Q 52.25 40.28125 46.1875 39.3125 
Q 53.46875 37.75 57.5 32.78125 
Q 61.53125 27.828125 61.53125 20.40625 
Q 61.53125 10.640625 54.890625 5.3125 
Q 48.25 0 35.984375 0 
L 9.8125 0 
z
" id="BitstreamVeraSans-Roman-42"/>
     <path d="M 9.8125 72.90625 
L 51.703125 72.90625 
L 51.703125 64.59375 
L 19.671875 64.59375 
L 19.671875 43.109375 
L 48.578125 43.109375 
L 48.578125 34.8125 
L 19.671875 34.8125 
L 19.671875 0 
L 9.8125 0 
z
" id="BitstreamVeraSans-Roman-46"/>
     <path d="M 44.28125 53.078125 
L 44.28125 44.578125 
Q 40.484375 46.53125 36.375 47.5 
Q 32.28125 48.484375 27.875 48.484375 
Q 21.1875 48.484375 17.84375 46.4375 
Q 14.5 44.390625 14.5 40.28125 
Q 14.5 37.15625 16.890625 35.375 
Q 19.28125 33.59375 26.515625 31.984375 
L 29.59375 31.296875 
Q 39.15625 29.25 43.1875 25.515625 
Q 47.21875 21.78125 47.21875 15.09375 
Q 47.21875 7.46875 41.1875 3.015625 
Q 35.15625 -1.421875 24.609375 -1.421875 
Q 20.21875 -1.421875 15.453125 -0.5625 
Q 10.6875 0.296875 5.421875 2 
L 5.421875 11.28125 
Q 10.40625 8.6875 15.234375 7.390625 
Q 20.0625 6.109375 24.8125 6.109375 
Q 31.15625 6.109375 34.5625 8.28125 
Q 37.984375 10.453125 37.984375 14.40625 
Q 37.984375 18.0625 35.515625 20.015625 
Q 33.0625 21.96875 24.703125 23.78125 
L 21.578125 24.515625 
Q 13.234375 26.265625 9.515625 29.90625 
Q 5.8125 33.546875 5.8125 39.890625 
Q 5.8125 47.609375 11.28125 51.796875 
Q 16.75 56 26.8125 56 
Q 31.78125 56 36.171875 55.265625 
Q 40.578125 54.546875 44.28125 53.078125 
" id="BitstreamVeraSans-Roman-73"/>
    </defs>
    <g transform="translate(483.420880682 31.0)scale(0.2 -0.2)">
     <use xlink:href="#BitstreamVeraSans-Roman-42"/>
     <use x="68.603515625" xlink:href="#BitstreamVeraSans-Roman-65"/>
     <use x="130.126953125" xlink:href="#BitstreamVeraSans-Roman-73"/>
     <use x="182.2265625" xlink:href="#BitstreamVeraSans-Roman-74"/>
     <use x="221.435546875" xlink:href="#BitstreamVeraSans-Roman-20"/>
     <use x="253.22265625" xlink:href="#BitstreamVeraSans-Roman-46"/>
     <use x="310.6328125" xlink:href="#BitstreamVeraSans-Roman-69"/>
     <use x="338.416015625" xlink:href="#BitstreamVeraSans-Roman-74"/>
    </g>
   </g>
  </g>
 </g>
 <defs>
  <clipPath id="p46d9b632fe">
   <rect height="279.0" width="253.636363636" x="394.363636364" y="36.0"/>
  </clipPath>
  <clipPath id="p1bebaef2c0">
   <rect height="279.0" width="253.636363636" x="90.0" y="36.0"/>
  </clipPath>
 </defs>
</svg>
